%TF.GenerationSoftware,KiCad,Pcbnew,7.0.5*%
%TF.CreationDate,2023-08-02T13:43:56-07:00*%
%TF.ProjectId,flight_computer_dev_board_rfm98pw,666c6967-6874-45f6-936f-6d7075746572,rev?*%
%TF.SameCoordinates,Original*%
%TF.FileFunction,Paste,Top*%
%TF.FilePolarity,Positive*%
%FSLAX46Y46*%
G04 Gerber Fmt 4.6, Leading zero omitted, Abs format (unit mm)*
G04 Created by KiCad (PCBNEW 7.0.5) date 2023-08-02 13:43:56*
%MOMM*%
%LPD*%
G01*
G04 APERTURE LIST*
G04 Aperture macros list*
%AMRoundRect*
0 Rectangle with rounded corners*
0 $1 Rounding radius*
0 $2 $3 $4 $5 $6 $7 $8 $9 X,Y pos of 4 corners*
0 Add a 4 corners polygon primitive as box body*
4,1,4,$2,$3,$4,$5,$6,$7,$8,$9,$2,$3,0*
0 Add four circle primitives for the rounded corners*
1,1,$1+$1,$2,$3*
1,1,$1+$1,$4,$5*
1,1,$1+$1,$6,$7*
1,1,$1+$1,$8,$9*
0 Add four rect primitives between the rounded corners*
20,1,$1+$1,$2,$3,$4,$5,0*
20,1,$1+$1,$4,$5,$6,$7,0*
20,1,$1+$1,$6,$7,$8,$9,0*
20,1,$1+$1,$8,$9,$2,$3,0*%
%AMRotRect*
0 Rectangle, with rotation*
0 The origin of the aperture is its center*
0 $1 length*
0 $2 width*
0 $3 Rotation angle, in degrees counterclockwise*
0 Add horizontal line*
21,1,$1,$2,0,0,$3*%
%AMFreePoly0*
4,1,51,0.532219,0.614745,0.539696,0.609939,0.548496,0.608674,0.568109,0.591679,0.589937,0.577652,0.593629,0.569566,0.600348,0.563745,0.607658,0.538848,0.618438,0.515244,0.617172,0.506443,0.619677,0.497915,0.619677,-0.497915,0.614745,-0.532219,0.609939,-0.539696,0.608674,-0.548496,0.591679,-0.568109,0.577652,-0.589937,0.569566,-0.593629,0.563745,-0.600348,0.538848,-0.607658,
0.515244,-0.618438,0.506443,-0.617172,0.497915,-0.619677,-0.497915,-0.619677,-0.532219,-0.614745,-0.539696,-0.609939,-0.548496,-0.608674,-0.568109,-0.591679,-0.589937,-0.577652,-0.593629,-0.569566,-0.600348,-0.563745,-0.607658,-0.538848,-0.618438,-0.515244,-0.617172,-0.506443,-0.619677,-0.497915,-0.619677,0.397045,-0.616582,0.418565,-0.616895,0.422927,-0.615620,0.425261,-0.614745,0.431349,
-0.598456,0.456693,-0.584014,0.483144,-0.483144,0.584014,-0.465738,0.597042,-0.462875,0.600348,-0.460322,0.601097,-0.455399,0.604783,-0.425958,0.611187,-0.397045,0.619677,0.497915,0.619677,0.532219,0.614745,0.532219,0.614745,$1*%
%AMFreePoly1*
4,1,51,0.532219,0.614745,0.539696,0.609939,0.548496,0.608674,0.568109,0.591679,0.589937,0.577652,0.593629,0.569566,0.600348,0.563745,0.607658,0.538848,0.618438,0.515244,0.617172,0.506443,0.619677,0.497915,0.619677,-0.497915,0.614745,-0.532219,0.609939,-0.539696,0.608674,-0.548496,0.591679,-0.568109,0.577652,-0.589937,0.569566,-0.593629,0.563745,-0.600348,0.538848,-0.607658,
0.515244,-0.618438,0.506443,-0.617172,0.497915,-0.619677,-0.397045,-0.619677,-0.418563,-0.616583,-0.422927,-0.616895,-0.425261,-0.615620,-0.431349,-0.614745,-0.456693,-0.598456,-0.483144,-0.584014,-0.584014,-0.483144,-0.597044,-0.465737,-0.600348,-0.462875,-0.601097,-0.460323,-0.604783,-0.455400,-0.611187,-0.425956,-0.619677,-0.397045,-0.619677,0.497915,-0.614745,0.532219,-0.609939,0.539696,
-0.608674,0.548496,-0.591679,0.568109,-0.577652,0.589937,-0.569566,0.593629,-0.563745,0.600348,-0.538848,0.607658,-0.515244,0.618438,-0.506443,0.617172,-0.497915,0.619677,0.497915,0.619677,0.532219,0.614745,0.532219,0.614745,$1*%
%AMFreePoly2*
4,1,51,0.418565,0.616582,0.422927,0.616895,0.425261,0.615620,0.431349,0.614745,0.456693,0.598456,0.483144,0.584014,0.584014,0.483144,0.597042,0.465738,0.600348,0.462875,0.601097,0.460322,0.604783,0.455399,0.611187,0.425958,0.619677,0.397045,0.619677,-0.497915,0.614745,-0.532219,0.609939,-0.539696,0.608674,-0.548496,0.591679,-0.568109,0.577652,-0.589937,0.569566,-0.593629,
0.563745,-0.600348,0.538848,-0.607658,0.515244,-0.618438,0.506443,-0.617172,0.497915,-0.619677,-0.497915,-0.619677,-0.532219,-0.614745,-0.539696,-0.609939,-0.548496,-0.608674,-0.568109,-0.591679,-0.589937,-0.577652,-0.593629,-0.569566,-0.600348,-0.563745,-0.607658,-0.538848,-0.618438,-0.515244,-0.617172,-0.506443,-0.619677,-0.497915,-0.619677,0.497915,-0.614745,0.532219,-0.609939,0.539696,
-0.608674,0.548496,-0.591679,0.568109,-0.577652,0.589937,-0.569566,0.593629,-0.563745,0.600348,-0.538848,0.607658,-0.515244,0.618438,-0.506443,0.617172,-0.497915,0.619677,0.397045,0.619677,0.418565,0.616582,0.418565,0.616582,$1*%
%AMFreePoly3*
4,1,51,0.532219,0.614745,0.539696,0.609939,0.548496,0.608674,0.568109,0.591679,0.589937,0.577652,0.593629,0.569566,0.600348,0.563745,0.607658,0.538848,0.618438,0.515244,0.617172,0.506443,0.619677,0.497915,0.619677,-0.397045,0.616583,-0.418563,0.616895,-0.422927,0.615620,-0.425261,0.614745,-0.431349,0.598456,-0.456693,0.584014,-0.483144,0.483144,-0.584014,0.465737,-0.597044,
0.462875,-0.600348,0.460323,-0.601097,0.455400,-0.604783,0.425956,-0.611187,0.397045,-0.619677,-0.497915,-0.619677,-0.532219,-0.614745,-0.539696,-0.609939,-0.548496,-0.608674,-0.568109,-0.591679,-0.589937,-0.577652,-0.593629,-0.569566,-0.600348,-0.563745,-0.607658,-0.538848,-0.618438,-0.515244,-0.617172,-0.506443,-0.619677,-0.497915,-0.619677,0.497915,-0.614745,0.532219,-0.609939,0.539696,
-0.608674,0.548496,-0.591679,0.568109,-0.577652,0.589937,-0.569566,0.593629,-0.563745,0.600348,-0.538848,0.607658,-0.515244,0.618438,-0.506443,0.617172,-0.497915,0.619677,0.497915,0.619677,0.532219,0.614745,0.532219,0.614745,$1*%
G04 Aperture macros list end*
%ADD10RoundRect,0.250000X-0.320000X-0.320000X0.320000X-0.320000X0.320000X0.320000X-0.320000X0.320000X0*%
%ADD11RoundRect,0.075000X-0.437500X-0.075000X0.437500X-0.075000X0.437500X0.075000X-0.437500X0.075000X0*%
%ADD12RoundRect,0.075000X-0.075000X-0.437500X0.075000X-0.437500X0.075000X0.437500X-0.075000X0.437500X0*%
%ADD13RoundRect,0.200000X-0.275000X0.200000X-0.275000X-0.200000X0.275000X-0.200000X0.275000X0.200000X0*%
%ADD14RoundRect,0.140000X0.140000X0.170000X-0.140000X0.170000X-0.140000X-0.170000X0.140000X-0.170000X0*%
%ADD15RoundRect,0.140000X-0.140000X-0.170000X0.140000X-0.170000X0.140000X0.170000X-0.140000X0.170000X0*%
%ADD16R,1.000000X1.150000*%
%ADD17RoundRect,0.150000X-0.512500X-0.150000X0.512500X-0.150000X0.512500X0.150000X-0.512500X0.150000X0*%
%ADD18RoundRect,0.200000X0.200000X0.275000X-0.200000X0.275000X-0.200000X-0.275000X0.200000X-0.275000X0*%
%ADD19RoundRect,0.200000X-0.200000X-0.275000X0.200000X-0.275000X0.200000X0.275000X-0.200000X0.275000X0*%
%ADD20RoundRect,0.200000X0.275000X-0.200000X0.275000X0.200000X-0.275000X0.200000X-0.275000X-0.200000X0*%
%ADD21RoundRect,0.150000X-0.150000X-0.625000X0.150000X-0.625000X0.150000X0.625000X-0.150000X0.625000X0*%
%ADD22RoundRect,0.250000X-0.350000X-0.650000X0.350000X-0.650000X0.350000X0.650000X-0.350000X0.650000X0*%
%ADD23R,0.600000X1.550000*%
%ADD24R,1.200000X1.800000*%
%ADD25RoundRect,0.150000X0.150000X-0.512500X0.150000X0.512500X-0.150000X0.512500X-0.150000X-0.512500X0*%
%ADD26RoundRect,0.225000X-0.250000X0.225000X-0.250000X-0.225000X0.250000X-0.225000X0.250000X0.225000X0*%
%ADD27RoundRect,0.225000X0.250000X-0.225000X0.250000X0.225000X-0.250000X0.225000X-0.250000X-0.225000X0*%
%ADD28RoundRect,0.218750X0.026517X-0.335876X0.335876X-0.026517X-0.026517X0.335876X-0.335876X0.026517X0*%
%ADD29RotRect,0.800000X0.500000X135.000000*%
%ADD30RotRect,0.800000X0.400000X135.000000*%
%ADD31RoundRect,0.140000X-0.021213X0.219203X-0.219203X0.021213X0.021213X-0.219203X0.219203X-0.021213X0*%
%ADD32RoundRect,0.135000X0.185000X-0.135000X0.185000X0.135000X-0.185000X0.135000X-0.185000X-0.135000X0*%
%ADD33R,2.000000X1.500000*%
%ADD34R,2.000000X3.800000*%
%ADD35R,1.550000X0.600000*%
%ADD36R,1.800000X1.200000*%
%ADD37RoundRect,0.250000X0.159099X-0.512652X0.512652X-0.159099X-0.159099X0.512652X-0.512652X0.159099X0*%
%ADD38RoundRect,0.140000X0.021213X-0.219203X0.219203X-0.021213X-0.021213X0.219203X-0.219203X0.021213X0*%
%ADD39RoundRect,0.250000X0.512652X0.159099X0.159099X0.512652X-0.512652X-0.159099X-0.159099X-0.512652X0*%
%ADD40RoundRect,0.218750X0.218750X0.256250X-0.218750X0.256250X-0.218750X-0.256250X0.218750X-0.256250X0*%
%ADD41RoundRect,0.200000X-0.335876X-0.053033X-0.053033X-0.335876X0.335876X0.053033X0.053033X0.335876X0*%
%ADD42RoundRect,0.218750X-0.218750X-0.256250X0.218750X-0.256250X0.218750X0.256250X-0.218750X0.256250X0*%
%ADD43RoundRect,0.225000X-0.017678X0.335876X-0.335876X0.017678X0.017678X-0.335876X0.335876X-0.017678X0*%
%ADD44R,0.900000X0.900000*%
%ADD45RoundRect,0.140000X-0.170000X0.140000X-0.170000X-0.140000X0.170000X-0.140000X0.170000X0.140000X0*%
%ADD46RoundRect,0.225000X0.017678X-0.335876X0.335876X-0.017678X-0.017678X0.335876X-0.335876X0.017678X0*%
%ADD47RotRect,1.400000X1.200000X315.000000*%
%ADD48RoundRect,0.135000X-0.035355X0.226274X-0.226274X0.035355X0.035355X-0.226274X0.226274X-0.035355X0*%
%ADD49RoundRect,0.225000X-0.335876X-0.017678X-0.017678X-0.335876X0.335876X0.017678X0.017678X0.335876X0*%
%ADD50RoundRect,0.200000X0.053033X-0.335876X0.335876X-0.053033X-0.053033X0.335876X-0.335876X0.053033X0*%
%ADD51RotRect,1.150000X1.000000X315.000000*%
%ADD52RoundRect,0.140000X0.219203X0.021213X0.021213X0.219203X-0.219203X-0.021213X-0.021213X-0.219203X0*%
%ADD53RoundRect,0.200000X0.335876X0.053033X0.053033X0.335876X-0.335876X-0.053033X-0.053033X-0.335876X0*%
%ADD54R,2.000000X1.300000*%
%ADD55RoundRect,0.087500X-0.225000X-0.087500X0.225000X-0.087500X0.225000X0.087500X-0.225000X0.087500X0*%
%ADD56RoundRect,0.087500X-0.087500X-0.225000X0.087500X-0.225000X0.087500X0.225000X-0.087500X0.225000X0*%
%ADD57RoundRect,0.150000X-0.565685X0.353553X0.353553X-0.565685X0.565685X-0.353553X-0.353553X0.565685X0*%
%ADD58RoundRect,0.140000X-0.219203X-0.021213X-0.021213X-0.219203X0.219203X0.021213X0.021213X0.219203X0*%
%ADD59R,1.500000X0.900000*%
%ADD60RoundRect,0.125000X-0.125000X-0.125000X0.125000X-0.125000X0.125000X0.125000X-0.125000X0.125000X0*%
%ADD61RoundRect,0.125000X0.000000X-0.176777X0.176777X0.000000X0.000000X0.176777X-0.176777X0.000000X0*%
%ADD62R,0.850000X1.100000*%
%ADD63R,0.750000X1.100000*%
%ADD64R,1.200000X1.000000*%
%ADD65R,1.550000X1.350000*%
%ADD66R,1.900000X1.350000*%
%ADD67R,1.170000X1.800000*%
%ADD68RoundRect,0.150000X0.625000X-0.150000X0.625000X0.150000X-0.625000X0.150000X-0.625000X-0.150000X0*%
%ADD69RoundRect,0.250000X0.650000X-0.350000X0.650000X0.350000X-0.650000X0.350000X-0.650000X-0.350000X0*%
%ADD70FreePoly0,315.000000*%
%ADD71FreePoly1,315.000000*%
%ADD72FreePoly2,315.000000*%
%ADD73FreePoly3,315.000000*%
%ADD74RoundRect,0.050000X-0.309359X0.238649X0.238649X-0.309359X0.309359X-0.238649X-0.238649X0.309359X0*%
%ADD75RoundRect,0.050000X-0.309359X-0.238649X-0.238649X-0.309359X0.309359X0.238649X0.238649X0.309359X0*%
%ADD76RoundRect,0.317500X1.157500X0.317500X-1.157500X0.317500X-1.157500X-0.317500X1.157500X-0.317500X0*%
%ADD77R,0.375000X0.350000*%
%ADD78R,0.350000X0.375000*%
%ADD79RoundRect,0.225000X0.225000X0.250000X-0.225000X0.250000X-0.225000X-0.250000X0.225000X-0.250000X0*%
%ADD80RoundRect,0.150000X0.350000X-0.150000X0.350000X0.150000X-0.350000X0.150000X-0.350000X-0.150000X0*%
%ADD81RoundRect,0.250000X0.650000X-0.375000X0.650000X0.375000X-0.650000X0.375000X-0.650000X-0.375000X0*%
%ADD82RoundRect,0.150000X0.406586X0.618718X-0.618718X-0.406586X-0.406586X-0.618718X0.618718X0.406586X0*%
%ADD83RoundRect,0.200000X-0.053033X0.335876X-0.335876X0.053033X0.053033X-0.335876X0.335876X-0.053033X0*%
%ADD84RoundRect,0.225000X0.335876X0.017678X0.017678X0.335876X-0.335876X-0.017678X-0.017678X-0.335876X0*%
%ADD85R,1.380000X0.450000*%
%ADD86R,2.100000X1.475000*%
%ADD87R,1.900000X1.375000*%
%ADD88RoundRect,0.075000X-0.415425X-0.521491X0.521491X0.415425X0.415425X0.521491X-0.521491X-0.415425X0*%
%ADD89RoundRect,0.075000X0.415425X-0.521491X0.521491X-0.415425X-0.415425X0.521491X-0.521491X0.415425X0*%
G04 APERTURE END LIST*
D10*
%TO.C,U9*%
X163302500Y-121040000D03*
X166142500Y-119620000D03*
X166142500Y-118200000D03*
X164722500Y-119620000D03*
X164722500Y-118200000D03*
X163302500Y-118200000D03*
X166142500Y-121040000D03*
X163302500Y-119620000D03*
X164722500Y-121040000D03*
D11*
X161885000Y-117670000D03*
X161885000Y-118320000D03*
X161885000Y-118970000D03*
X161885000Y-119620000D03*
X161885000Y-120270000D03*
X161885000Y-120920000D03*
X161885000Y-121570000D03*
D12*
X162772500Y-122457500D03*
X163422500Y-122457500D03*
X164072500Y-122457500D03*
X164722500Y-122457500D03*
X165372500Y-122457500D03*
X166022500Y-122457500D03*
X166672500Y-122457500D03*
D11*
X167560000Y-121570000D03*
X167560000Y-120920000D03*
X167560000Y-120270000D03*
X167560000Y-119620000D03*
X167560000Y-118970000D03*
X167560000Y-118320000D03*
X167560000Y-117670000D03*
D12*
X166672500Y-116782500D03*
X166022500Y-116782500D03*
X165372500Y-116782500D03*
X164722500Y-116782500D03*
X164072500Y-116782500D03*
X163422500Y-116782500D03*
X162772500Y-116782500D03*
%TD*%
D13*
%TO.C,R28*%
X184390000Y-105740000D03*
X184390000Y-107390000D03*
%TD*%
D14*
%TO.C,C40*%
X168940000Y-129360000D03*
X167980000Y-129360000D03*
%TD*%
%TO.C,C39*%
X163410000Y-129420000D03*
X162450000Y-129420000D03*
%TD*%
D15*
%TO.C,C38*%
X171080000Y-115670000D03*
X172040000Y-115670000D03*
%TD*%
%TO.C,C37*%
X172180000Y-120200000D03*
X173140000Y-120200000D03*
%TD*%
D16*
%TO.C,Y3*%
X172260000Y-118825000D03*
X172260000Y-117075000D03*
X170860000Y-117075000D03*
X170860000Y-118825000D03*
%TD*%
D17*
%TO.C,U10*%
X174350000Y-123060000D03*
X174350000Y-124010000D03*
X174350000Y-124960000D03*
X176625000Y-124960000D03*
X176625000Y-124010000D03*
X176625000Y-123060000D03*
%TD*%
D18*
%TO.C,R27*%
X175725000Y-126600000D03*
X174075000Y-126600000D03*
%TD*%
D19*
%TO.C,R26*%
X164850000Y-125070000D03*
X166500000Y-125070000D03*
%TD*%
D20*
%TO.C,R25*%
X169290000Y-123855000D03*
X169290000Y-122205000D03*
%TD*%
%TO.C,R24*%
X158270000Y-119795000D03*
X158270000Y-118145000D03*
%TD*%
D13*
%TO.C,R23*%
X161020000Y-113325000D03*
X161020000Y-114975000D03*
%TD*%
D21*
%TO.C,J13*%
X163070000Y-131390000D03*
X164070000Y-131390000D03*
X165070000Y-131390000D03*
X166070000Y-131390000D03*
D22*
X167370000Y-135265000D03*
X161770000Y-135265000D03*
%TD*%
D23*
%TO.C,J11*%
X180440000Y-92745000D03*
X181440000Y-92745000D03*
X182440000Y-92745000D03*
X183440000Y-92745000D03*
D24*
X179140000Y-90220000D03*
X184740000Y-90220000D03*
%TD*%
%TO.C,J10*%
X182700000Y-80030000D03*
X188300000Y-80030000D03*
D23*
X184000000Y-77505000D03*
X185000000Y-77505000D03*
X186000000Y-77505000D03*
X187000000Y-77505000D03*
%TD*%
D25*
%TO.C,D8*%
X164750000Y-129047500D03*
X166650000Y-129047500D03*
X165700000Y-126772500D03*
%TD*%
D26*
%TO.C,C43*%
X175750000Y-119995000D03*
X175750000Y-121545000D03*
%TD*%
D27*
%TO.C,C42*%
X178580000Y-124755000D03*
X178580000Y-123205000D03*
%TD*%
%TO.C,C41*%
X180150000Y-125535000D03*
X180150000Y-123985000D03*
%TD*%
D28*
%TO.C,D5*%
X210684189Y-90795812D03*
X211797883Y-89682118D03*
%TD*%
D29*
%TO.C,R22*%
X178537868Y-104804924D03*
D30*
X179103553Y-104239239D03*
X179669239Y-103673553D03*
D29*
X180234924Y-103107868D03*
X178962132Y-101835076D03*
D30*
X178396447Y-102400761D03*
X177830761Y-102966447D03*
D29*
X177265076Y-103532132D03*
%TD*%
D31*
%TO.C,C11*%
X203079411Y-89110589D03*
X202400589Y-89789411D03*
%TD*%
D27*
%TO.C,C13*%
X217210000Y-89295000D03*
X217210000Y-87745000D03*
%TD*%
D19*
%TO.C,R7*%
X215520000Y-81480000D03*
X217170000Y-81480000D03*
%TD*%
D15*
%TO.C,C17*%
X171960000Y-91780000D03*
X172920000Y-91780000D03*
%TD*%
D32*
%TO.C,R15*%
X206960000Y-120650000D03*
X206960000Y-119630000D03*
%TD*%
D26*
%TO.C,C16*%
X152910000Y-60185000D03*
X152910000Y-61735000D03*
%TD*%
D20*
%TO.C,R18*%
X175600000Y-95205000D03*
X175600000Y-93555000D03*
%TD*%
D33*
%TO.C,IC2*%
X224780000Y-95970000D03*
X224780000Y-93670000D03*
X224780000Y-91370000D03*
D34*
X218480000Y-93670000D03*
%TD*%
D35*
%TO.C,J9*%
X224995000Y-75920000D03*
X224995000Y-74920000D03*
X224995000Y-73920000D03*
X224995000Y-72920000D03*
D36*
X222470000Y-77220000D03*
X222470000Y-71620000D03*
%TD*%
D37*
%TO.C,C24*%
X179108249Y-114571751D03*
X180451751Y-113228249D03*
%TD*%
D38*
%TO.C,C4*%
X202780589Y-90849411D03*
X203459411Y-90170589D03*
%TD*%
D39*
%TO.C,C25*%
X193341751Y-119711751D03*
X191998249Y-118368249D03*
%TD*%
D40*
%TO.C,D1*%
X209157500Y-63130000D03*
X207582500Y-63130000D03*
%TD*%
D29*
%TO.C,R6*%
X201245736Y-79979848D03*
D30*
X201811421Y-79414163D03*
X202377107Y-78848477D03*
D29*
X202942792Y-78282792D03*
X201670000Y-77010000D03*
D30*
X201104315Y-77575685D03*
X200538629Y-78141371D03*
D29*
X199972944Y-78707056D03*
%TD*%
D41*
%TO.C,FB1*%
X195676637Y-114936637D03*
X196843363Y-116103363D03*
%TD*%
D27*
%TO.C,C12*%
X218810000Y-89315000D03*
X218810000Y-87765000D03*
%TD*%
D42*
%TO.C,D3*%
X220382500Y-89190000D03*
X221957500Y-89190000D03*
%TD*%
D43*
%TO.C,C20*%
X185068008Y-119961992D03*
X183971992Y-121058008D03*
%TD*%
D15*
%TO.C,C18*%
X171890000Y-95310000D03*
X172850000Y-95310000D03*
%TD*%
D44*
%TO.C,SW2*%
X202480000Y-93910000D03*
X198380000Y-93910000D03*
X202480000Y-95510000D03*
X198380000Y-95510000D03*
%TD*%
D15*
%TO.C,C32*%
X189040000Y-86550000D03*
X190000000Y-86550000D03*
%TD*%
%TO.C,C19*%
X171890000Y-96340000D03*
X172850000Y-96340000D03*
%TD*%
D45*
%TO.C,C34*%
X190300000Y-82430000D03*
X190300000Y-83390000D03*
%TD*%
D18*
%TO.C,L1*%
X156065000Y-60190000D03*
X154415000Y-60190000D03*
%TD*%
D46*
%TO.C,C3*%
X210853984Y-79396016D03*
X211950000Y-78300000D03*
%TD*%
D47*
%TO.C,Y2*%
X193601142Y-105773223D03*
X195156777Y-107328858D03*
X196358858Y-106126777D03*
X194803223Y-104571142D03*
%TD*%
D48*
%TO.C,R2*%
X201460624Y-90269376D03*
X200739376Y-90990624D03*
%TD*%
D18*
%TO.C,R17*%
X173815000Y-90500000D03*
X172165000Y-90500000D03*
%TD*%
D49*
%TO.C,C22*%
X190801992Y-119721992D03*
X191898008Y-120818008D03*
%TD*%
D50*
%TO.C,R21*%
X192256637Y-104563363D03*
X193423363Y-103396637D03*
%TD*%
D51*
%TO.C,Y1*%
X198642614Y-88692512D03*
X199880051Y-89929949D03*
X200870000Y-88940000D03*
X199632563Y-87702563D03*
%TD*%
D46*
%TO.C,C8*%
X211931992Y-80468008D03*
X213028008Y-79371992D03*
%TD*%
D52*
%TO.C,C10*%
X201909411Y-82689411D03*
X201230589Y-82010589D03*
%TD*%
D26*
%TO.C,C15*%
X157560000Y-60175000D03*
X157560000Y-61725000D03*
%TD*%
D37*
%TO.C,C27*%
X196578249Y-113161751D03*
X197921751Y-111818249D03*
%TD*%
D53*
%TO.C,R12*%
X220143363Y-72943363D03*
X218976637Y-71776637D03*
%TD*%
D18*
%TO.C,R14*%
X173805000Y-87400000D03*
X172155000Y-87400000D03*
%TD*%
D54*
%TO.C,U4*%
X160910000Y-60001499D03*
X160910000Y-62001499D03*
X160910000Y-64001499D03*
X160910000Y-66001499D03*
X160910000Y-68001499D03*
X160910000Y-70001499D03*
X160910000Y-72001499D03*
X160910000Y-74001499D03*
X195910000Y-74001499D03*
X195910000Y-72001499D03*
X195910000Y-70001499D03*
X195910000Y-68001499D03*
X195910000Y-66001499D03*
X195910000Y-64001499D03*
X195910000Y-62001499D03*
X195910000Y-60001499D03*
%TD*%
D20*
%TO.C,R19*%
X174090000Y-96125000D03*
X174090000Y-94475000D03*
%TD*%
D25*
%TO.C,U1*%
X187320000Y-104777500D03*
X188270000Y-104777500D03*
X189220000Y-104777500D03*
X189220000Y-102502500D03*
X187320000Y-102502500D03*
%TD*%
D19*
%TO.C,R4*%
X210685000Y-63130000D03*
X212335000Y-63130000D03*
%TD*%
D50*
%TO.C,R20*%
X182866637Y-120003363D03*
X184033363Y-118836637D03*
%TD*%
D55*
%TO.C,U7*%
X187257500Y-87970000D03*
X187257500Y-88470000D03*
X187257500Y-88970000D03*
X187257500Y-89470000D03*
D56*
X187920000Y-89632500D03*
X188420000Y-89632500D03*
X188920000Y-89632500D03*
D55*
X189582500Y-89470000D03*
X189582500Y-88970000D03*
X189582500Y-88470000D03*
X189582500Y-87970000D03*
D56*
X188920000Y-87807500D03*
X188420000Y-87807500D03*
X187920000Y-87807500D03*
%TD*%
D31*
%TO.C,C2*%
X198499411Y-86870589D03*
X197820589Y-87549411D03*
%TD*%
D46*
%TO.C,C28*%
X195421992Y-111748008D03*
X196518008Y-110651992D03*
%TD*%
D49*
%TO.C,C6*%
X212811992Y-85251992D03*
X213908008Y-86348008D03*
%TD*%
D52*
%TO.C,C9*%
X205989411Y-78729411D03*
X205310589Y-78050589D03*
%TD*%
D57*
%TO.C,U6*%
X214631454Y-70767377D03*
X213733428Y-71665403D03*
X212835403Y-72563428D03*
X211937377Y-73461454D03*
X217028546Y-78552623D03*
X217926572Y-77654597D03*
X218824597Y-76756572D03*
X219722623Y-75858546D03*
%TD*%
D40*
%TO.C,D2*%
X209137500Y-64730000D03*
X207562500Y-64730000D03*
%TD*%
D41*
%TO.C,FB2*%
X179196637Y-109776637D03*
X180363363Y-110943363D03*
%TD*%
D58*
%TO.C,C7*%
X208890589Y-90770589D03*
X209569411Y-91449411D03*
%TD*%
D19*
%TO.C,R8*%
X215525000Y-83070000D03*
X217175000Y-83070000D03*
%TD*%
D59*
%TO.C,LED1*%
X218160000Y-99190000D03*
X218160000Y-102490000D03*
X223060000Y-102490000D03*
X223060000Y-99190000D03*
%TD*%
D60*
%TO.C,D7*%
X221160000Y-132720000D03*
X223360000Y-132720000D03*
%TD*%
D50*
%TO.C,R11*%
X209546637Y-89703363D03*
X210713363Y-88536637D03*
%TD*%
D58*
%TO.C,C1*%
X201330589Y-87440589D03*
X202009411Y-88119411D03*
%TD*%
D61*
%TO.C,D4*%
X208964683Y-71637817D03*
X210520317Y-70082183D03*
%TD*%
D19*
%TO.C,R3*%
X210685000Y-64750000D03*
X212335000Y-64750000D03*
%TD*%
D62*
%TO.C,J4*%
X209635000Y-133480000D03*
X208535000Y-133480000D03*
X207435000Y-133480000D03*
X206335000Y-133480000D03*
X205235000Y-133480000D03*
X204135000Y-133480000D03*
X203035000Y-133480000D03*
D63*
X201985000Y-133480000D03*
D64*
X212270000Y-127330000D03*
X212270000Y-123630000D03*
D65*
X212095000Y-133355000D03*
D66*
X208770000Y-122655000D03*
X202800000Y-122655000D03*
D67*
X200775000Y-133130000D03*
%TD*%
D53*
%TO.C,R1*%
X205323363Y-92633363D03*
X204156637Y-91466637D03*
%TD*%
D68*
%TO.C,J7*%
X220050000Y-68150000D03*
X220050000Y-67150000D03*
X220050000Y-66150000D03*
X220050000Y-65150000D03*
D69*
X223925000Y-69450000D03*
X223925000Y-63850000D03*
%TD*%
D43*
%TO.C,C21*%
X181678008Y-116701992D03*
X180581992Y-117798008D03*
%TD*%
D49*
%TO.C,C23*%
X193311992Y-117171992D03*
X194408008Y-118268008D03*
%TD*%
D70*
%TO.C,IC1*%
X205930000Y-84355406D03*
D71*
X204975406Y-85310000D03*
D72*
X206884594Y-85310000D03*
D73*
X205930000Y-86264594D03*
D74*
X205337798Y-81040843D03*
X205054955Y-81323686D03*
X204772113Y-81606528D03*
X204489270Y-81889371D03*
X204206427Y-82172214D03*
X203923585Y-82455056D03*
X203640742Y-82737899D03*
X203357899Y-83020742D03*
X203075056Y-83303585D03*
X202792214Y-83586427D03*
X202509371Y-83869270D03*
X202226528Y-84152113D03*
X201943686Y-84434955D03*
X201660843Y-84717798D03*
D75*
X201660843Y-85902202D03*
X201943686Y-86185045D03*
X202226528Y-86467887D03*
X202509371Y-86750730D03*
X202792214Y-87033573D03*
X203075056Y-87316415D03*
X203357899Y-87599258D03*
X203640742Y-87882101D03*
X203923585Y-88164944D03*
X204206427Y-88447786D03*
X204489270Y-88730629D03*
X204772113Y-89013472D03*
X205054955Y-89296314D03*
X205337798Y-89579157D03*
D74*
X206522202Y-89579157D03*
X206805045Y-89296314D03*
X207087887Y-89013472D03*
X207370730Y-88730629D03*
X207653573Y-88447786D03*
X207936415Y-88164944D03*
X208219258Y-87882101D03*
X208502101Y-87599258D03*
X208784944Y-87316415D03*
X209067786Y-87033573D03*
X209350629Y-86750730D03*
X209633472Y-86467887D03*
X209916314Y-86185045D03*
X210199157Y-85902202D03*
D75*
X210199157Y-84717798D03*
X209916314Y-84434955D03*
X209633472Y-84152113D03*
X209350629Y-83869270D03*
X209067786Y-83586427D03*
X208784944Y-83303585D03*
X208502101Y-83020742D03*
X208219258Y-82737899D03*
X207936415Y-82455056D03*
X207653573Y-82172214D03*
X207370730Y-81889371D03*
X207087887Y-81606528D03*
X206805045Y-81323686D03*
X206522202Y-81040843D03*
%TD*%
D15*
%TO.C,C31*%
X187860000Y-85190000D03*
X188820000Y-85190000D03*
%TD*%
D76*
%TO.C,U5*%
X177385000Y-74000000D03*
X177385000Y-72000000D03*
X177385000Y-70000000D03*
X177385000Y-68000000D03*
X177385000Y-66000000D03*
X177385000Y-64000000D03*
X177385000Y-62000000D03*
X177385000Y-60000000D03*
X162335000Y-60000000D03*
X162335000Y-62000000D03*
X162335000Y-64000000D03*
X162335000Y-66000000D03*
X162335000Y-68000000D03*
X162335000Y-70000000D03*
X162335000Y-72000000D03*
X162335000Y-74000000D03*
%TD*%
D52*
%TO.C,C5*%
X214538822Y-85218822D03*
X213860000Y-84540000D03*
%TD*%
D18*
%TO.C,R16*%
X173805000Y-88950000D03*
X172155000Y-88950000D03*
%TD*%
D77*
%TO.C,U8*%
X187557500Y-82470000D03*
X187557500Y-82970000D03*
X187557500Y-83470000D03*
X187557500Y-83970000D03*
D78*
X188070000Y-83982500D03*
X188570000Y-83982500D03*
D77*
X189082500Y-83970000D03*
X189082500Y-83470000D03*
X189082500Y-82970000D03*
X189082500Y-82470000D03*
D78*
X188570000Y-82457500D03*
X188070000Y-82457500D03*
%TD*%
D44*
%TO.C,SW1*%
X197450000Y-83260000D03*
X193350000Y-83260000D03*
X197450000Y-84860000D03*
X193350000Y-84860000D03*
%TD*%
D15*
%TO.C,C36*%
X171940000Y-92840000D03*
X172900000Y-92840000D03*
%TD*%
D58*
%TO.C,C29*%
X192910589Y-107160589D03*
X193589411Y-107839411D03*
%TD*%
D79*
%TO.C,C14*%
X174405000Y-76950000D03*
X172855000Y-76950000D03*
%TD*%
D80*
%TO.C,J2*%
X217950000Y-124180000D03*
X217950000Y-122680000D03*
X217950000Y-121180000D03*
X217950000Y-119680000D03*
X217950000Y-118180000D03*
X217950000Y-116680000D03*
X217950000Y-115180000D03*
X217950000Y-113680000D03*
X217950000Y-112180000D03*
X217950000Y-110680000D03*
X217950000Y-109180000D03*
X217950000Y-107680000D03*
D81*
X223140000Y-126785000D03*
X223140000Y-105075000D03*
%TD*%
D45*
%TO.C,C33*%
X185690000Y-83040000D03*
X185690000Y-84000000D03*
%TD*%
D41*
%TO.C,R5*%
X202296637Y-100356637D03*
X203463363Y-101523363D03*
%TD*%
D82*
%TO.C,U3*%
X212627838Y-98956238D03*
X211729813Y-98058213D03*
X210831787Y-97160187D03*
X209933762Y-96262162D03*
X206292162Y-99903762D03*
X207190187Y-100801787D03*
X208088213Y-101699813D03*
X208986238Y-102597838D03*
%TD*%
D83*
%TO.C,R10*%
X212553363Y-67806637D03*
X211386637Y-68973363D03*
%TD*%
D84*
%TO.C,C26*%
X195528008Y-117148008D03*
X194431992Y-116051992D03*
%TD*%
D31*
%TO.C,C30*%
X197249411Y-107470589D03*
X196570589Y-108149411D03*
%TD*%
D85*
%TO.C,J8*%
X222260000Y-81720000D03*
X222260000Y-82370000D03*
X222260000Y-83020000D03*
X222260000Y-83670000D03*
X222260000Y-84320000D03*
D86*
X222620000Y-85482500D03*
D87*
X224920000Y-83957500D03*
X224920000Y-82082500D03*
D86*
X222620000Y-80557500D03*
%TD*%
D20*
%TO.C,R13*%
X180500000Y-79325000D03*
X180500000Y-77675000D03*
%TD*%
D88*
%TO.C,U2*%
X182484248Y-114327576D03*
X182837802Y-114681130D03*
X183191355Y-115034683D03*
X183544909Y-115388237D03*
X183898462Y-115741790D03*
X184252015Y-116095343D03*
X184605569Y-116448897D03*
X184959122Y-116802450D03*
X185312675Y-117156003D03*
X185666229Y-117509557D03*
X186019782Y-117863110D03*
X186373336Y-118216664D03*
D89*
X188370912Y-118216664D03*
X188724466Y-117863110D03*
X189078019Y-117509557D03*
X189431573Y-117156003D03*
X189785126Y-116802450D03*
X190138679Y-116448897D03*
X190492233Y-116095343D03*
X190845786Y-115741790D03*
X191199339Y-115388237D03*
X191552893Y-115034683D03*
X191906446Y-114681130D03*
X192260000Y-114327576D03*
D88*
X192260000Y-112330000D03*
X191906446Y-111976446D03*
X191552893Y-111622893D03*
X191199339Y-111269339D03*
X190845786Y-110915786D03*
X190492233Y-110562233D03*
X190138679Y-110208679D03*
X189785126Y-109855126D03*
X189431573Y-109501573D03*
X189078019Y-109148019D03*
X188724466Y-108794466D03*
X188370912Y-108440912D03*
D89*
X186373336Y-108440912D03*
X186019782Y-108794466D03*
X185666229Y-109148019D03*
X185312675Y-109501573D03*
X184959122Y-109855126D03*
X184605569Y-110208679D03*
X184252015Y-110562233D03*
X183898462Y-110915786D03*
X183544909Y-111269339D03*
X183191355Y-111622893D03*
X182837802Y-111976446D03*
X182484248Y-112330000D03*
%TD*%
D15*
%TO.C,C35*%
X187970000Y-90950000D03*
X188930000Y-90950000D03*
%TD*%
D18*
%TO.C,R9*%
X225065000Y-89180000D03*
X223415000Y-89180000D03*
%TD*%
M02*
