%TF.GenerationSoftware,KiCad,Pcbnew,8.0.1*%
%TF.CreationDate,2024-05-26T15:31:06-06:00*%
%TF.ProjectId,camera_v2,63616d65-7261-45f7-9632-2e6b69636164,rev?*%
%TF.SameCoordinates,Original*%
%TF.FileFunction,Other,Comment*%
%FSLAX46Y46*%
G04 Gerber Fmt 4.6, Leading zero omitted, Abs format (unit mm)*
G04 Created by KiCad (PCBNEW 8.0.1) date 2024-05-26 15:31:06*
%MOMM*%
%LPD*%
G01*
G04 APERTURE LIST*
%ADD10C,0.100000*%
G04 APERTURE END LIST*
D10*
X152479762Y-140648419D02*
X152479762Y-139648419D01*
X153051190Y-140648419D02*
X152622619Y-140076990D01*
X153051190Y-139648419D02*
X152479762Y-140219847D01*
X153479762Y-140124609D02*
X153813095Y-140124609D01*
X153955952Y-140648419D02*
X153479762Y-140648419D01*
X153479762Y-140648419D02*
X153479762Y-139648419D01*
X153479762Y-139648419D02*
X153955952Y-139648419D01*
X154384524Y-140124609D02*
X154717857Y-140124609D01*
X154860714Y-140648419D02*
X154384524Y-140648419D01*
X154384524Y-140648419D02*
X154384524Y-139648419D01*
X154384524Y-139648419D02*
X154860714Y-139648419D01*
X155289286Y-140648419D02*
X155289286Y-139648419D01*
X155289286Y-139648419D02*
X155670238Y-139648419D01*
X155670238Y-139648419D02*
X155765476Y-139696038D01*
X155765476Y-139696038D02*
X155813095Y-139743657D01*
X155813095Y-139743657D02*
X155860714Y-139838895D01*
X155860714Y-139838895D02*
X155860714Y-139981752D01*
X155860714Y-139981752D02*
X155813095Y-140076990D01*
X155813095Y-140076990D02*
X155765476Y-140124609D01*
X155765476Y-140124609D02*
X155670238Y-140172228D01*
X155670238Y-140172228D02*
X155289286Y-140172228D01*
X156479762Y-139648419D02*
X156670238Y-139648419D01*
X156670238Y-139648419D02*
X156765476Y-139696038D01*
X156765476Y-139696038D02*
X156860714Y-139791276D01*
X156860714Y-139791276D02*
X156908333Y-139981752D01*
X156908333Y-139981752D02*
X156908333Y-140315085D01*
X156908333Y-140315085D02*
X156860714Y-140505561D01*
X156860714Y-140505561D02*
X156765476Y-140600800D01*
X156765476Y-140600800D02*
X156670238Y-140648419D01*
X156670238Y-140648419D02*
X156479762Y-140648419D01*
X156479762Y-140648419D02*
X156384524Y-140600800D01*
X156384524Y-140600800D02*
X156289286Y-140505561D01*
X156289286Y-140505561D02*
X156241667Y-140315085D01*
X156241667Y-140315085D02*
X156241667Y-139981752D01*
X156241667Y-139981752D02*
X156289286Y-139791276D01*
X156289286Y-139791276D02*
X156384524Y-139696038D01*
X156384524Y-139696038D02*
X156479762Y-139648419D01*
X157336905Y-139648419D02*
X157336905Y-140457942D01*
X157336905Y-140457942D02*
X157384524Y-140553180D01*
X157384524Y-140553180D02*
X157432143Y-140600800D01*
X157432143Y-140600800D02*
X157527381Y-140648419D01*
X157527381Y-140648419D02*
X157717857Y-140648419D01*
X157717857Y-140648419D02*
X157813095Y-140600800D01*
X157813095Y-140600800D02*
X157860714Y-140553180D01*
X157860714Y-140553180D02*
X157908333Y-140457942D01*
X157908333Y-140457942D02*
X157908333Y-139648419D01*
X158241667Y-139648419D02*
X158813095Y-139648419D01*
X158527381Y-140648419D02*
X158527381Y-139648419D01*
M02*
