%TF.GenerationSoftware,KiCad,Pcbnew,8.0.1*%
%TF.CreationDate,2024-05-26T15:31:06-06:00*%
%TF.ProjectId,camera_v2,63616d65-7261-45f7-9632-2e6b69636164,rev?*%
%TF.SameCoordinates,Original*%
%TF.FileFunction,Legend,Bot*%
%TF.FilePolarity,Positive*%
%FSLAX46Y46*%
G04 Gerber Fmt 4.6, Leading zero omitted, Abs format (unit mm)*
G04 Created by KiCad (PCBNEW 8.0.1) date 2024-05-26 15:31:06*
%MOMM*%
%LPD*%
G01*
G04 APERTURE LIST*
%ADD10C,0.100000*%
%ADD11C,0.150000*%
%ADD12C,0.000000*%
%ADD13R,1.700000X1.700000*%
%ADD14O,1.700000X1.700000*%
G04 APERTURE END LIST*
D10*
X167662782Y-112228637D02*
X167543734Y-112728637D01*
X167543734Y-112728637D02*
X167448496Y-112371494D01*
X167448496Y-112371494D02*
X167353258Y-112728637D01*
X167353258Y-112728637D02*
X167234211Y-112228637D01*
X167043734Y-112728637D02*
X167043734Y-112228637D01*
X166829448Y-112728637D02*
X166829448Y-112466732D01*
X166829448Y-112466732D02*
X166853258Y-112419113D01*
X166853258Y-112419113D02*
X166900877Y-112395304D01*
X166900877Y-112395304D02*
X166972305Y-112395304D01*
X166972305Y-112395304D02*
X167019924Y-112419113D01*
X167019924Y-112419113D02*
X167043734Y-112442923D01*
X166377067Y-112728637D02*
X166377067Y-112466732D01*
X166377067Y-112466732D02*
X166400877Y-112419113D01*
X166400877Y-112419113D02*
X166448496Y-112395304D01*
X166448496Y-112395304D02*
X166543734Y-112395304D01*
X166543734Y-112395304D02*
X166591353Y-112419113D01*
X166377067Y-112704828D02*
X166424686Y-112728637D01*
X166424686Y-112728637D02*
X166543734Y-112728637D01*
X166543734Y-112728637D02*
X166591353Y-112704828D01*
X166591353Y-112704828D02*
X166615162Y-112657208D01*
X166615162Y-112657208D02*
X166615162Y-112609589D01*
X166615162Y-112609589D02*
X166591353Y-112561970D01*
X166591353Y-112561970D02*
X166543734Y-112538161D01*
X166543734Y-112538161D02*
X166424686Y-112538161D01*
X166424686Y-112538161D02*
X166377067Y-112514351D01*
X166210400Y-112395304D02*
X166019924Y-112395304D01*
X166138972Y-112228637D02*
X166138972Y-112657208D01*
X166138972Y-112657208D02*
X166115162Y-112704828D01*
X166115162Y-112704828D02*
X166067543Y-112728637D01*
X166067543Y-112728637D02*
X166019924Y-112728637D01*
X165258020Y-112728637D02*
X165258020Y-112228637D01*
X165258020Y-112704828D02*
X165305639Y-112728637D01*
X165305639Y-112728637D02*
X165400877Y-112728637D01*
X165400877Y-112728637D02*
X165448496Y-112704828D01*
X165448496Y-112704828D02*
X165472306Y-112681018D01*
X165472306Y-112681018D02*
X165496115Y-112633399D01*
X165496115Y-112633399D02*
X165496115Y-112490542D01*
X165496115Y-112490542D02*
X165472306Y-112442923D01*
X165472306Y-112442923D02*
X165448496Y-112419113D01*
X165448496Y-112419113D02*
X165400877Y-112395304D01*
X165400877Y-112395304D02*
X165305639Y-112395304D01*
X165305639Y-112395304D02*
X165258020Y-112419113D01*
X164948496Y-112728637D02*
X164996115Y-112704828D01*
X164996115Y-112704828D02*
X165019925Y-112681018D01*
X165019925Y-112681018D02*
X165043734Y-112633399D01*
X165043734Y-112633399D02*
X165043734Y-112490542D01*
X165043734Y-112490542D02*
X165019925Y-112442923D01*
X165019925Y-112442923D02*
X164996115Y-112419113D01*
X164996115Y-112419113D02*
X164948496Y-112395304D01*
X164948496Y-112395304D02*
X164877068Y-112395304D01*
X164877068Y-112395304D02*
X164829449Y-112419113D01*
X164829449Y-112419113D02*
X164805639Y-112442923D01*
X164805639Y-112442923D02*
X164781830Y-112490542D01*
X164781830Y-112490542D02*
X164781830Y-112633399D01*
X164781830Y-112633399D02*
X164805639Y-112681018D01*
X164805639Y-112681018D02*
X164829449Y-112704828D01*
X164829449Y-112704828D02*
X164877068Y-112728637D01*
X164877068Y-112728637D02*
X164948496Y-112728637D01*
X164234211Y-112395304D02*
X164115163Y-112728637D01*
X163996116Y-112395304D02*
X164115163Y-112728637D01*
X164115163Y-112728637D02*
X164162782Y-112847685D01*
X164162782Y-112847685D02*
X164186592Y-112871494D01*
X164186592Y-112871494D02*
X164234211Y-112895304D01*
X163734211Y-112728637D02*
X163781830Y-112704828D01*
X163781830Y-112704828D02*
X163805640Y-112681018D01*
X163805640Y-112681018D02*
X163829449Y-112633399D01*
X163829449Y-112633399D02*
X163829449Y-112490542D01*
X163829449Y-112490542D02*
X163805640Y-112442923D01*
X163805640Y-112442923D02*
X163781830Y-112419113D01*
X163781830Y-112419113D02*
X163734211Y-112395304D01*
X163734211Y-112395304D02*
X163662783Y-112395304D01*
X163662783Y-112395304D02*
X163615164Y-112419113D01*
X163615164Y-112419113D02*
X163591354Y-112442923D01*
X163591354Y-112442923D02*
X163567545Y-112490542D01*
X163567545Y-112490542D02*
X163567545Y-112633399D01*
X163567545Y-112633399D02*
X163591354Y-112681018D01*
X163591354Y-112681018D02*
X163615164Y-112704828D01*
X163615164Y-112704828D02*
X163662783Y-112728637D01*
X163662783Y-112728637D02*
X163734211Y-112728637D01*
X163138973Y-112395304D02*
X163138973Y-112728637D01*
X163353259Y-112395304D02*
X163353259Y-112657208D01*
X163353259Y-112657208D02*
X163329449Y-112704828D01*
X163329449Y-112704828D02*
X163281830Y-112728637D01*
X163281830Y-112728637D02*
X163210402Y-112728637D01*
X163210402Y-112728637D02*
X163162783Y-112704828D01*
X163162783Y-112704828D02*
X163138973Y-112681018D01*
X162519926Y-112728637D02*
X162519926Y-112395304D01*
X162519926Y-112442923D02*
X162496116Y-112419113D01*
X162496116Y-112419113D02*
X162448497Y-112395304D01*
X162448497Y-112395304D02*
X162377069Y-112395304D01*
X162377069Y-112395304D02*
X162329450Y-112419113D01*
X162329450Y-112419113D02*
X162305640Y-112466732D01*
X162305640Y-112466732D02*
X162305640Y-112728637D01*
X162305640Y-112466732D02*
X162281831Y-112419113D01*
X162281831Y-112419113D02*
X162234212Y-112395304D01*
X162234212Y-112395304D02*
X162162783Y-112395304D01*
X162162783Y-112395304D02*
X162115164Y-112419113D01*
X162115164Y-112419113D02*
X162091354Y-112466732D01*
X162091354Y-112466732D02*
X162091354Y-112728637D01*
X161662783Y-112704828D02*
X161710402Y-112728637D01*
X161710402Y-112728637D02*
X161805640Y-112728637D01*
X161805640Y-112728637D02*
X161853259Y-112704828D01*
X161853259Y-112704828D02*
X161877068Y-112657208D01*
X161877068Y-112657208D02*
X161877068Y-112466732D01*
X161877068Y-112466732D02*
X161853259Y-112419113D01*
X161853259Y-112419113D02*
X161805640Y-112395304D01*
X161805640Y-112395304D02*
X161710402Y-112395304D01*
X161710402Y-112395304D02*
X161662783Y-112419113D01*
X161662783Y-112419113D02*
X161638973Y-112466732D01*
X161638973Y-112466732D02*
X161638973Y-112514351D01*
X161638973Y-112514351D02*
X161877068Y-112561970D01*
X161210402Y-112728637D02*
X161210402Y-112466732D01*
X161210402Y-112466732D02*
X161234212Y-112419113D01*
X161234212Y-112419113D02*
X161281831Y-112395304D01*
X161281831Y-112395304D02*
X161377069Y-112395304D01*
X161377069Y-112395304D02*
X161424688Y-112419113D01*
X161210402Y-112704828D02*
X161258021Y-112728637D01*
X161258021Y-112728637D02*
X161377069Y-112728637D01*
X161377069Y-112728637D02*
X161424688Y-112704828D01*
X161424688Y-112704828D02*
X161448497Y-112657208D01*
X161448497Y-112657208D02*
X161448497Y-112609589D01*
X161448497Y-112609589D02*
X161424688Y-112561970D01*
X161424688Y-112561970D02*
X161377069Y-112538161D01*
X161377069Y-112538161D02*
X161258021Y-112538161D01*
X161258021Y-112538161D02*
X161210402Y-112514351D01*
X160972307Y-112395304D02*
X160972307Y-112728637D01*
X160972307Y-112442923D02*
X160948497Y-112419113D01*
X160948497Y-112419113D02*
X160900878Y-112395304D01*
X160900878Y-112395304D02*
X160829450Y-112395304D01*
X160829450Y-112395304D02*
X160781831Y-112419113D01*
X160781831Y-112419113D02*
X160758021Y-112466732D01*
X160758021Y-112466732D02*
X160758021Y-112728637D01*
X160138974Y-112728637D02*
X160138974Y-112228637D01*
X159519927Y-112728637D02*
X159519927Y-112228637D01*
X159305641Y-112728637D02*
X159305641Y-112466732D01*
X159305641Y-112466732D02*
X159329451Y-112419113D01*
X159329451Y-112419113D02*
X159377070Y-112395304D01*
X159377070Y-112395304D02*
X159448498Y-112395304D01*
X159448498Y-112395304D02*
X159496117Y-112419113D01*
X159496117Y-112419113D02*
X159519927Y-112442923D01*
X158853260Y-112728637D02*
X158853260Y-112466732D01*
X158853260Y-112466732D02*
X158877070Y-112419113D01*
X158877070Y-112419113D02*
X158924689Y-112395304D01*
X158924689Y-112395304D02*
X159019927Y-112395304D01*
X159019927Y-112395304D02*
X159067546Y-112419113D01*
X158853260Y-112704828D02*
X158900879Y-112728637D01*
X158900879Y-112728637D02*
X159019927Y-112728637D01*
X159019927Y-112728637D02*
X159067546Y-112704828D01*
X159067546Y-112704828D02*
X159091355Y-112657208D01*
X159091355Y-112657208D02*
X159091355Y-112609589D01*
X159091355Y-112609589D02*
X159067546Y-112561970D01*
X159067546Y-112561970D02*
X159019927Y-112538161D01*
X159019927Y-112538161D02*
X158900879Y-112538161D01*
X158900879Y-112538161D02*
X158853260Y-112514351D01*
X158662784Y-112395304D02*
X158543736Y-112728637D01*
X158543736Y-112728637D02*
X158424689Y-112395304D01*
X158043737Y-112704828D02*
X158091356Y-112728637D01*
X158091356Y-112728637D02*
X158186594Y-112728637D01*
X158186594Y-112728637D02*
X158234213Y-112704828D01*
X158234213Y-112704828D02*
X158258022Y-112657208D01*
X158258022Y-112657208D02*
X158258022Y-112466732D01*
X158258022Y-112466732D02*
X158234213Y-112419113D01*
X158234213Y-112419113D02*
X158186594Y-112395304D01*
X158186594Y-112395304D02*
X158091356Y-112395304D01*
X158091356Y-112395304D02*
X158043737Y-112419113D01*
X158043737Y-112419113D02*
X158019927Y-112466732D01*
X158019927Y-112466732D02*
X158019927Y-112514351D01*
X158019927Y-112514351D02*
X158258022Y-112561970D01*
X167686591Y-113200276D02*
X167496115Y-113200276D01*
X167615163Y-113033609D02*
X167615163Y-113462180D01*
X167615163Y-113462180D02*
X167591353Y-113509800D01*
X167591353Y-113509800D02*
X167543734Y-113533609D01*
X167543734Y-113533609D02*
X167496115Y-113533609D01*
X167258020Y-113533609D02*
X167305639Y-113509800D01*
X167305639Y-113509800D02*
X167329449Y-113485990D01*
X167329449Y-113485990D02*
X167353258Y-113438371D01*
X167353258Y-113438371D02*
X167353258Y-113295514D01*
X167353258Y-113295514D02*
X167329449Y-113247895D01*
X167329449Y-113247895D02*
X167305639Y-113224085D01*
X167305639Y-113224085D02*
X167258020Y-113200276D01*
X167258020Y-113200276D02*
X167186592Y-113200276D01*
X167186592Y-113200276D02*
X167138973Y-113224085D01*
X167138973Y-113224085D02*
X167115163Y-113247895D01*
X167115163Y-113247895D02*
X167091354Y-113295514D01*
X167091354Y-113295514D02*
X167091354Y-113438371D01*
X167091354Y-113438371D02*
X167115163Y-113485990D01*
X167115163Y-113485990D02*
X167138973Y-113509800D01*
X167138973Y-113509800D02*
X167186592Y-113533609D01*
X167186592Y-113533609D02*
X167258020Y-113533609D01*
X166567544Y-113200276D02*
X166377068Y-113200276D01*
X166496116Y-113533609D02*
X166496116Y-113105038D01*
X166496116Y-113105038D02*
X166472306Y-113057419D01*
X166472306Y-113057419D02*
X166424687Y-113033609D01*
X166424687Y-113033609D02*
X166377068Y-113033609D01*
X166138973Y-113533609D02*
X166186592Y-113509800D01*
X166186592Y-113509800D02*
X166210402Y-113462180D01*
X166210402Y-113462180D02*
X166210402Y-113033609D01*
X165948497Y-113533609D02*
X165948497Y-113200276D01*
X165948497Y-113033609D02*
X165972306Y-113057419D01*
X165972306Y-113057419D02*
X165948497Y-113081228D01*
X165948497Y-113081228D02*
X165924687Y-113057419D01*
X165924687Y-113057419D02*
X165948497Y-113033609D01*
X165948497Y-113033609D02*
X165948497Y-113081228D01*
X165710402Y-113200276D02*
X165710402Y-113700276D01*
X165710402Y-113224085D02*
X165662783Y-113200276D01*
X165662783Y-113200276D02*
X165567545Y-113200276D01*
X165567545Y-113200276D02*
X165519926Y-113224085D01*
X165519926Y-113224085D02*
X165496116Y-113247895D01*
X165496116Y-113247895D02*
X165472307Y-113295514D01*
X165472307Y-113295514D02*
X165472307Y-113438371D01*
X165472307Y-113438371D02*
X165496116Y-113485990D01*
X165496116Y-113485990D02*
X165519926Y-113509800D01*
X165519926Y-113509800D02*
X165567545Y-113533609D01*
X165567545Y-113533609D02*
X165662783Y-113533609D01*
X165662783Y-113533609D02*
X165710402Y-113509800D01*
X164948497Y-113200276D02*
X164758021Y-113200276D01*
X164877069Y-113033609D02*
X164877069Y-113462180D01*
X164877069Y-113462180D02*
X164853259Y-113509800D01*
X164853259Y-113509800D02*
X164805640Y-113533609D01*
X164805640Y-113533609D02*
X164758021Y-113533609D01*
X164591355Y-113533609D02*
X164591355Y-113033609D01*
X164377069Y-113533609D02*
X164377069Y-113271704D01*
X164377069Y-113271704D02*
X164400879Y-113224085D01*
X164400879Y-113224085D02*
X164448498Y-113200276D01*
X164448498Y-113200276D02*
X164519926Y-113200276D01*
X164519926Y-113200276D02*
X164567545Y-113224085D01*
X164567545Y-113224085D02*
X164591355Y-113247895D01*
X163948498Y-113509800D02*
X163996117Y-113533609D01*
X163996117Y-113533609D02*
X164091355Y-113533609D01*
X164091355Y-113533609D02*
X164138974Y-113509800D01*
X164138974Y-113509800D02*
X164162783Y-113462180D01*
X164162783Y-113462180D02*
X164162783Y-113271704D01*
X164162783Y-113271704D02*
X164138974Y-113224085D01*
X164138974Y-113224085D02*
X164091355Y-113200276D01*
X164091355Y-113200276D02*
X163996117Y-113200276D01*
X163996117Y-113200276D02*
X163948498Y-113224085D01*
X163948498Y-113224085D02*
X163924688Y-113271704D01*
X163924688Y-113271704D02*
X163924688Y-113319323D01*
X163924688Y-113319323D02*
X164162783Y-113366942D01*
X163377070Y-113200276D02*
X163281832Y-113533609D01*
X163281832Y-113533609D02*
X163186594Y-113295514D01*
X163186594Y-113295514D02*
X163091356Y-113533609D01*
X163091356Y-113533609D02*
X162996118Y-113200276D01*
X162805641Y-113533609D02*
X162805641Y-113033609D01*
X162591355Y-113533609D02*
X162591355Y-113271704D01*
X162591355Y-113271704D02*
X162615165Y-113224085D01*
X162615165Y-113224085D02*
X162662784Y-113200276D01*
X162662784Y-113200276D02*
X162734212Y-113200276D01*
X162734212Y-113200276D02*
X162781831Y-113224085D01*
X162781831Y-113224085D02*
X162805641Y-113247895D01*
X162281831Y-113533609D02*
X162329450Y-113509800D01*
X162329450Y-113509800D02*
X162353260Y-113485990D01*
X162353260Y-113485990D02*
X162377069Y-113438371D01*
X162377069Y-113438371D02*
X162377069Y-113295514D01*
X162377069Y-113295514D02*
X162353260Y-113247895D01*
X162353260Y-113247895D02*
X162329450Y-113224085D01*
X162329450Y-113224085D02*
X162281831Y-113200276D01*
X162281831Y-113200276D02*
X162210403Y-113200276D01*
X162210403Y-113200276D02*
X162162784Y-113224085D01*
X162162784Y-113224085D02*
X162138974Y-113247895D01*
X162138974Y-113247895D02*
X162115165Y-113295514D01*
X162115165Y-113295514D02*
X162115165Y-113438371D01*
X162115165Y-113438371D02*
X162138974Y-113485990D01*
X162138974Y-113485990D02*
X162162784Y-113509800D01*
X162162784Y-113509800D02*
X162210403Y-113533609D01*
X162210403Y-113533609D02*
X162281831Y-113533609D01*
X161829450Y-113533609D02*
X161877069Y-113509800D01*
X161877069Y-113509800D02*
X161900879Y-113462180D01*
X161900879Y-113462180D02*
X161900879Y-113033609D01*
X161448498Y-113509800D02*
X161496117Y-113533609D01*
X161496117Y-113533609D02*
X161591355Y-113533609D01*
X161591355Y-113533609D02*
X161638974Y-113509800D01*
X161638974Y-113509800D02*
X161662783Y-113462180D01*
X161662783Y-113462180D02*
X161662783Y-113271704D01*
X161662783Y-113271704D02*
X161638974Y-113224085D01*
X161638974Y-113224085D02*
X161591355Y-113200276D01*
X161591355Y-113200276D02*
X161496117Y-113200276D01*
X161496117Y-113200276D02*
X161448498Y-113224085D01*
X161448498Y-113224085D02*
X161424688Y-113271704D01*
X161424688Y-113271704D02*
X161424688Y-113319323D01*
X161424688Y-113319323D02*
X161662783Y-113366942D01*
X160829451Y-113533609D02*
X160829451Y-113033609D01*
X160829451Y-113224085D02*
X160781832Y-113200276D01*
X160781832Y-113200276D02*
X160686594Y-113200276D01*
X160686594Y-113200276D02*
X160638975Y-113224085D01*
X160638975Y-113224085D02*
X160615165Y-113247895D01*
X160615165Y-113247895D02*
X160591356Y-113295514D01*
X160591356Y-113295514D02*
X160591356Y-113438371D01*
X160591356Y-113438371D02*
X160615165Y-113485990D01*
X160615165Y-113485990D02*
X160638975Y-113509800D01*
X160638975Y-113509800D02*
X160686594Y-113533609D01*
X160686594Y-113533609D02*
X160781832Y-113533609D01*
X160781832Y-113533609D02*
X160829451Y-113509800D01*
X160305641Y-113533609D02*
X160353260Y-113509800D01*
X160353260Y-113509800D02*
X160377070Y-113485990D01*
X160377070Y-113485990D02*
X160400879Y-113438371D01*
X160400879Y-113438371D02*
X160400879Y-113295514D01*
X160400879Y-113295514D02*
X160377070Y-113247895D01*
X160377070Y-113247895D02*
X160353260Y-113224085D01*
X160353260Y-113224085D02*
X160305641Y-113200276D01*
X160305641Y-113200276D02*
X160234213Y-113200276D01*
X160234213Y-113200276D02*
X160186594Y-113224085D01*
X160186594Y-113224085D02*
X160162784Y-113247895D01*
X160162784Y-113247895D02*
X160138975Y-113295514D01*
X160138975Y-113295514D02*
X160138975Y-113438371D01*
X160138975Y-113438371D02*
X160162784Y-113485990D01*
X160162784Y-113485990D02*
X160186594Y-113509800D01*
X160186594Y-113509800D02*
X160234213Y-113533609D01*
X160234213Y-113533609D02*
X160305641Y-113533609D01*
X159710403Y-113533609D02*
X159710403Y-113271704D01*
X159710403Y-113271704D02*
X159734213Y-113224085D01*
X159734213Y-113224085D02*
X159781832Y-113200276D01*
X159781832Y-113200276D02*
X159877070Y-113200276D01*
X159877070Y-113200276D02*
X159924689Y-113224085D01*
X159710403Y-113509800D02*
X159758022Y-113533609D01*
X159758022Y-113533609D02*
X159877070Y-113533609D01*
X159877070Y-113533609D02*
X159924689Y-113509800D01*
X159924689Y-113509800D02*
X159948498Y-113462180D01*
X159948498Y-113462180D02*
X159948498Y-113414561D01*
X159948498Y-113414561D02*
X159924689Y-113366942D01*
X159924689Y-113366942D02*
X159877070Y-113343133D01*
X159877070Y-113343133D02*
X159758022Y-113343133D01*
X159758022Y-113343133D02*
X159710403Y-113319323D01*
X159472308Y-113533609D02*
X159472308Y-113200276D01*
X159472308Y-113295514D02*
X159448498Y-113247895D01*
X159448498Y-113247895D02*
X159424689Y-113224085D01*
X159424689Y-113224085D02*
X159377070Y-113200276D01*
X159377070Y-113200276D02*
X159329451Y-113200276D01*
X158948498Y-113533609D02*
X158948498Y-113033609D01*
X158948498Y-113509800D02*
X158996117Y-113533609D01*
X158996117Y-113533609D02*
X159091355Y-113533609D01*
X159091355Y-113533609D02*
X159138974Y-113509800D01*
X159138974Y-113509800D02*
X159162784Y-113485990D01*
X159162784Y-113485990D02*
X159186593Y-113438371D01*
X159186593Y-113438371D02*
X159186593Y-113295514D01*
X159186593Y-113295514D02*
X159162784Y-113247895D01*
X159162784Y-113247895D02*
X159138974Y-113224085D01*
X159138974Y-113224085D02*
X159091355Y-113200276D01*
X159091355Y-113200276D02*
X158996117Y-113200276D01*
X158996117Y-113200276D02*
X158948498Y-113224085D01*
X158638974Y-113485990D02*
X158615165Y-113509800D01*
X158615165Y-113509800D02*
X158638974Y-113533609D01*
X158638974Y-113533609D02*
X158662784Y-113509800D01*
X158662784Y-113509800D02*
X158638974Y-113485990D01*
X158638974Y-113485990D02*
X158638974Y-113533609D01*
X158734212Y-113057419D02*
X158686593Y-113033609D01*
X158686593Y-113033609D02*
X158567546Y-113033609D01*
X158567546Y-113033609D02*
X158519927Y-113057419D01*
X158519927Y-113057419D02*
X158496117Y-113105038D01*
X158496117Y-113105038D02*
X158496117Y-113152657D01*
X158496117Y-113152657D02*
X158519927Y-113200276D01*
X158519927Y-113200276D02*
X158543736Y-113224085D01*
X158543736Y-113224085D02*
X158591355Y-113247895D01*
X158591355Y-113247895D02*
X158615165Y-113271704D01*
X158615165Y-113271704D02*
X158638974Y-113319323D01*
X158638974Y-113319323D02*
X158638974Y-113343133D01*
D11*
X167197620Y-109464636D02*
X167245239Y-109512256D01*
X167245239Y-109512256D02*
X167388096Y-109559875D01*
X167388096Y-109559875D02*
X167483334Y-109559875D01*
X167483334Y-109559875D02*
X167626191Y-109512256D01*
X167626191Y-109512256D02*
X167721429Y-109417017D01*
X167721429Y-109417017D02*
X167769048Y-109321779D01*
X167769048Y-109321779D02*
X167816667Y-109131303D01*
X167816667Y-109131303D02*
X167816667Y-108988446D01*
X167816667Y-108988446D02*
X167769048Y-108797970D01*
X167769048Y-108797970D02*
X167721429Y-108702732D01*
X167721429Y-108702732D02*
X167626191Y-108607494D01*
X167626191Y-108607494D02*
X167483334Y-108559875D01*
X167483334Y-108559875D02*
X167388096Y-108559875D01*
X167388096Y-108559875D02*
X167245239Y-108607494D01*
X167245239Y-108607494D02*
X167197620Y-108655113D01*
X166340477Y-109559875D02*
X166340477Y-109036065D01*
X166340477Y-109036065D02*
X166388096Y-108940827D01*
X166388096Y-108940827D02*
X166483334Y-108893208D01*
X166483334Y-108893208D02*
X166673810Y-108893208D01*
X166673810Y-108893208D02*
X166769048Y-108940827D01*
X166340477Y-109512256D02*
X166435715Y-109559875D01*
X166435715Y-109559875D02*
X166673810Y-109559875D01*
X166673810Y-109559875D02*
X166769048Y-109512256D01*
X166769048Y-109512256D02*
X166816667Y-109417017D01*
X166816667Y-109417017D02*
X166816667Y-109321779D01*
X166816667Y-109321779D02*
X166769048Y-109226541D01*
X166769048Y-109226541D02*
X166673810Y-109178922D01*
X166673810Y-109178922D02*
X166435715Y-109178922D01*
X166435715Y-109178922D02*
X166340477Y-109131303D01*
X165864286Y-109559875D02*
X165864286Y-108893208D01*
X165864286Y-108988446D02*
X165816667Y-108940827D01*
X165816667Y-108940827D02*
X165721429Y-108893208D01*
X165721429Y-108893208D02*
X165578572Y-108893208D01*
X165578572Y-108893208D02*
X165483334Y-108940827D01*
X165483334Y-108940827D02*
X165435715Y-109036065D01*
X165435715Y-109036065D02*
X165435715Y-109559875D01*
X165435715Y-109036065D02*
X165388096Y-108940827D01*
X165388096Y-108940827D02*
X165292858Y-108893208D01*
X165292858Y-108893208D02*
X165150001Y-108893208D01*
X165150001Y-108893208D02*
X165054762Y-108940827D01*
X165054762Y-108940827D02*
X165007143Y-109036065D01*
X165007143Y-109036065D02*
X165007143Y-109559875D01*
X164150001Y-109512256D02*
X164245239Y-109559875D01*
X164245239Y-109559875D02*
X164435715Y-109559875D01*
X164435715Y-109559875D02*
X164530953Y-109512256D01*
X164530953Y-109512256D02*
X164578572Y-109417017D01*
X164578572Y-109417017D02*
X164578572Y-109036065D01*
X164578572Y-109036065D02*
X164530953Y-108940827D01*
X164530953Y-108940827D02*
X164435715Y-108893208D01*
X164435715Y-108893208D02*
X164245239Y-108893208D01*
X164245239Y-108893208D02*
X164150001Y-108940827D01*
X164150001Y-108940827D02*
X164102382Y-109036065D01*
X164102382Y-109036065D02*
X164102382Y-109131303D01*
X164102382Y-109131303D02*
X164578572Y-109226541D01*
X163673810Y-109559875D02*
X163673810Y-108893208D01*
X163673810Y-109083684D02*
X163626191Y-108988446D01*
X163626191Y-108988446D02*
X163578572Y-108940827D01*
X163578572Y-108940827D02*
X163483334Y-108893208D01*
X163483334Y-108893208D02*
X163388096Y-108893208D01*
X162626191Y-109559875D02*
X162626191Y-109036065D01*
X162626191Y-109036065D02*
X162673810Y-108940827D01*
X162673810Y-108940827D02*
X162769048Y-108893208D01*
X162769048Y-108893208D02*
X162959524Y-108893208D01*
X162959524Y-108893208D02*
X163054762Y-108940827D01*
X162626191Y-109512256D02*
X162721429Y-109559875D01*
X162721429Y-109559875D02*
X162959524Y-109559875D01*
X162959524Y-109559875D02*
X163054762Y-109512256D01*
X163054762Y-109512256D02*
X163102381Y-109417017D01*
X163102381Y-109417017D02*
X163102381Y-109321779D01*
X163102381Y-109321779D02*
X163054762Y-109226541D01*
X163054762Y-109226541D02*
X162959524Y-109178922D01*
X162959524Y-109178922D02*
X162721429Y-109178922D01*
X162721429Y-109178922D02*
X162626191Y-109131303D01*
X161388095Y-109559875D02*
X161388095Y-108559875D01*
X161388095Y-108559875D02*
X161150000Y-108559875D01*
X161150000Y-108559875D02*
X161007143Y-108607494D01*
X161007143Y-108607494D02*
X160911905Y-108702732D01*
X160911905Y-108702732D02*
X160864286Y-108797970D01*
X160864286Y-108797970D02*
X160816667Y-108988446D01*
X160816667Y-108988446D02*
X160816667Y-109131303D01*
X160816667Y-109131303D02*
X160864286Y-109321779D01*
X160864286Y-109321779D02*
X160911905Y-109417017D01*
X160911905Y-109417017D02*
X161007143Y-109512256D01*
X161007143Y-109512256D02*
X161150000Y-109559875D01*
X161150000Y-109559875D02*
X161388095Y-109559875D01*
X159959524Y-109559875D02*
X159959524Y-109036065D01*
X159959524Y-109036065D02*
X160007143Y-108940827D01*
X160007143Y-108940827D02*
X160102381Y-108893208D01*
X160102381Y-108893208D02*
X160292857Y-108893208D01*
X160292857Y-108893208D02*
X160388095Y-108940827D01*
X159959524Y-109512256D02*
X160054762Y-109559875D01*
X160054762Y-109559875D02*
X160292857Y-109559875D01*
X160292857Y-109559875D02*
X160388095Y-109512256D01*
X160388095Y-109512256D02*
X160435714Y-109417017D01*
X160435714Y-109417017D02*
X160435714Y-109321779D01*
X160435714Y-109321779D02*
X160388095Y-109226541D01*
X160388095Y-109226541D02*
X160292857Y-109178922D01*
X160292857Y-109178922D02*
X160054762Y-109178922D01*
X160054762Y-109178922D02*
X159959524Y-109131303D01*
X159054762Y-108893208D02*
X159054762Y-109559875D01*
X159483333Y-108893208D02*
X159483333Y-109417017D01*
X159483333Y-109417017D02*
X159435714Y-109512256D01*
X159435714Y-109512256D02*
X159340476Y-109559875D01*
X159340476Y-109559875D02*
X159197619Y-109559875D01*
X159197619Y-109559875D02*
X159102381Y-109512256D01*
X159102381Y-109512256D02*
X159054762Y-109464636D01*
X158150000Y-108893208D02*
X158150000Y-109702732D01*
X158150000Y-109702732D02*
X158197619Y-109797970D01*
X158197619Y-109797970D02*
X158245238Y-109845589D01*
X158245238Y-109845589D02*
X158340476Y-109893208D01*
X158340476Y-109893208D02*
X158483333Y-109893208D01*
X158483333Y-109893208D02*
X158578571Y-109845589D01*
X158150000Y-109512256D02*
X158245238Y-109559875D01*
X158245238Y-109559875D02*
X158435714Y-109559875D01*
X158435714Y-109559875D02*
X158530952Y-109512256D01*
X158530952Y-109512256D02*
X158578571Y-109464636D01*
X158578571Y-109464636D02*
X158626190Y-109369398D01*
X158626190Y-109369398D02*
X158626190Y-109083684D01*
X158626190Y-109083684D02*
X158578571Y-108988446D01*
X158578571Y-108988446D02*
X158530952Y-108940827D01*
X158530952Y-108940827D02*
X158435714Y-108893208D01*
X158435714Y-108893208D02*
X158245238Y-108893208D01*
X158245238Y-108893208D02*
X158150000Y-108940827D01*
X157673809Y-109559875D02*
X157673809Y-108559875D01*
X157245238Y-109559875D02*
X157245238Y-109036065D01*
X157245238Y-109036065D02*
X157292857Y-108940827D01*
X157292857Y-108940827D02*
X157388095Y-108893208D01*
X157388095Y-108893208D02*
X157530952Y-108893208D01*
X157530952Y-108893208D02*
X157626190Y-108940827D01*
X157626190Y-108940827D02*
X157673809Y-108988446D01*
X156911904Y-108893208D02*
X156530952Y-108893208D01*
X156769047Y-108559875D02*
X156769047Y-109417017D01*
X156769047Y-109417017D02*
X156721428Y-109512256D01*
X156721428Y-109512256D02*
X156626190Y-109559875D01*
X156626190Y-109559875D02*
X156530952Y-109559875D01*
X155816666Y-109512256D02*
X155911904Y-109559875D01*
X155911904Y-109559875D02*
X156102380Y-109559875D01*
X156102380Y-109559875D02*
X156197618Y-109512256D01*
X156197618Y-109512256D02*
X156245237Y-109417017D01*
X156245237Y-109417017D02*
X156245237Y-109036065D01*
X156245237Y-109036065D02*
X156197618Y-108940827D01*
X156197618Y-108940827D02*
X156102380Y-108893208D01*
X156102380Y-108893208D02*
X155911904Y-108893208D01*
X155911904Y-108893208D02*
X155816666Y-108940827D01*
X155816666Y-108940827D02*
X155769047Y-109036065D01*
X155769047Y-109036065D02*
X155769047Y-109131303D01*
X155769047Y-109131303D02*
X156245237Y-109226541D01*
X155340475Y-109559875D02*
X155340475Y-108893208D01*
X155340475Y-109083684D02*
X155292856Y-108988446D01*
X155292856Y-108988446D02*
X155245237Y-108940827D01*
X155245237Y-108940827D02*
X155149999Y-108893208D01*
X155149999Y-108893208D02*
X155054761Y-108893208D01*
X153626189Y-109036065D02*
X153483332Y-109083684D01*
X153483332Y-109083684D02*
X153435713Y-109131303D01*
X153435713Y-109131303D02*
X153388094Y-109226541D01*
X153388094Y-109226541D02*
X153388094Y-109369398D01*
X153388094Y-109369398D02*
X153435713Y-109464636D01*
X153435713Y-109464636D02*
X153483332Y-109512256D01*
X153483332Y-109512256D02*
X153578570Y-109559875D01*
X153578570Y-109559875D02*
X153959522Y-109559875D01*
X153959522Y-109559875D02*
X153959522Y-108559875D01*
X153959522Y-108559875D02*
X153626189Y-108559875D01*
X153626189Y-108559875D02*
X153530951Y-108607494D01*
X153530951Y-108607494D02*
X153483332Y-108655113D01*
X153483332Y-108655113D02*
X153435713Y-108750351D01*
X153435713Y-108750351D02*
X153435713Y-108845589D01*
X153435713Y-108845589D02*
X153483332Y-108940827D01*
X153483332Y-108940827D02*
X153530951Y-108988446D01*
X153530951Y-108988446D02*
X153626189Y-109036065D01*
X153626189Y-109036065D02*
X153959522Y-109036065D01*
X152816665Y-109559875D02*
X152911903Y-109512256D01*
X152911903Y-109512256D02*
X152959522Y-109464636D01*
X152959522Y-109464636D02*
X153007141Y-109369398D01*
X153007141Y-109369398D02*
X153007141Y-109083684D01*
X153007141Y-109083684D02*
X152959522Y-108988446D01*
X152959522Y-108988446D02*
X152911903Y-108940827D01*
X152911903Y-108940827D02*
X152816665Y-108893208D01*
X152816665Y-108893208D02*
X152673808Y-108893208D01*
X152673808Y-108893208D02*
X152578570Y-108940827D01*
X152578570Y-108940827D02*
X152530951Y-108988446D01*
X152530951Y-108988446D02*
X152483332Y-109083684D01*
X152483332Y-109083684D02*
X152483332Y-109369398D01*
X152483332Y-109369398D02*
X152530951Y-109464636D01*
X152530951Y-109464636D02*
X152578570Y-109512256D01*
X152578570Y-109512256D02*
X152673808Y-109559875D01*
X152673808Y-109559875D02*
X152816665Y-109559875D01*
X151626189Y-109559875D02*
X151626189Y-109036065D01*
X151626189Y-109036065D02*
X151673808Y-108940827D01*
X151673808Y-108940827D02*
X151769046Y-108893208D01*
X151769046Y-108893208D02*
X151959522Y-108893208D01*
X151959522Y-108893208D02*
X152054760Y-108940827D01*
X151626189Y-109512256D02*
X151721427Y-109559875D01*
X151721427Y-109559875D02*
X151959522Y-109559875D01*
X151959522Y-109559875D02*
X152054760Y-109512256D01*
X152054760Y-109512256D02*
X152102379Y-109417017D01*
X152102379Y-109417017D02*
X152102379Y-109321779D01*
X152102379Y-109321779D02*
X152054760Y-109226541D01*
X152054760Y-109226541D02*
X151959522Y-109178922D01*
X151959522Y-109178922D02*
X151721427Y-109178922D01*
X151721427Y-109178922D02*
X151626189Y-109131303D01*
X151149998Y-109559875D02*
X151149998Y-108893208D01*
X151149998Y-109083684D02*
X151102379Y-108988446D01*
X151102379Y-108988446D02*
X151054760Y-108940827D01*
X151054760Y-108940827D02*
X150959522Y-108893208D01*
X150959522Y-108893208D02*
X150864284Y-108893208D01*
X150102379Y-109559875D02*
X150102379Y-108559875D01*
X150102379Y-109512256D02*
X150197617Y-109559875D01*
X150197617Y-109559875D02*
X150388093Y-109559875D01*
X150388093Y-109559875D02*
X150483331Y-109512256D01*
X150483331Y-109512256D02*
X150530950Y-109464636D01*
X150530950Y-109464636D02*
X150578569Y-109369398D01*
X150578569Y-109369398D02*
X150578569Y-109083684D01*
X150578569Y-109083684D02*
X150530950Y-108988446D01*
X150530950Y-108988446D02*
X150483331Y-108940827D01*
X150483331Y-108940827D02*
X150388093Y-108893208D01*
X150388093Y-108893208D02*
X150197617Y-108893208D01*
X150197617Y-108893208D02*
X150102379Y-108940827D01*
X149007140Y-108559875D02*
X148673807Y-109559875D01*
X148673807Y-109559875D02*
X148340474Y-108559875D01*
X147483331Y-109559875D02*
X148054759Y-109559875D01*
X147769045Y-109559875D02*
X147769045Y-108559875D01*
X147769045Y-108559875D02*
X147864283Y-108702732D01*
X147864283Y-108702732D02*
X147959521Y-108797970D01*
X147959521Y-108797970D02*
X148054759Y-108845589D01*
X164197619Y-110646009D02*
X164054762Y-110693628D01*
X164054762Y-110693628D02*
X164007143Y-110741247D01*
X164007143Y-110741247D02*
X163959524Y-110836485D01*
X163959524Y-110836485D02*
X163959524Y-110979342D01*
X163959524Y-110979342D02*
X164007143Y-111074580D01*
X164007143Y-111074580D02*
X164054762Y-111122200D01*
X164054762Y-111122200D02*
X164150000Y-111169819D01*
X164150000Y-111169819D02*
X164530952Y-111169819D01*
X164530952Y-111169819D02*
X164530952Y-110169819D01*
X164530952Y-110169819D02*
X164197619Y-110169819D01*
X164197619Y-110169819D02*
X164102381Y-110217438D01*
X164102381Y-110217438D02*
X164054762Y-110265057D01*
X164054762Y-110265057D02*
X164007143Y-110360295D01*
X164007143Y-110360295D02*
X164007143Y-110455533D01*
X164007143Y-110455533D02*
X164054762Y-110550771D01*
X164054762Y-110550771D02*
X164102381Y-110598390D01*
X164102381Y-110598390D02*
X164197619Y-110646009D01*
X164197619Y-110646009D02*
X164530952Y-110646009D01*
X163626190Y-110503152D02*
X163388095Y-111169819D01*
X163150000Y-110503152D02*
X163388095Y-111169819D01*
X163388095Y-111169819D02*
X163483333Y-111407914D01*
X163483333Y-111407914D02*
X163530952Y-111455533D01*
X163530952Y-111455533D02*
X163626190Y-111503152D01*
X162007142Y-111169819D02*
X162007142Y-110169819D01*
X162007142Y-110169819D02*
X161435714Y-111169819D01*
X161435714Y-111169819D02*
X161435714Y-110169819D01*
X160959523Y-111169819D02*
X160959523Y-110503152D01*
X160959523Y-110169819D02*
X161007142Y-110217438D01*
X161007142Y-110217438D02*
X160959523Y-110265057D01*
X160959523Y-110265057D02*
X160911904Y-110217438D01*
X160911904Y-110217438D02*
X160959523Y-110169819D01*
X160959523Y-110169819D02*
X160959523Y-110265057D01*
X160054762Y-111122200D02*
X160150000Y-111169819D01*
X160150000Y-111169819D02*
X160340476Y-111169819D01*
X160340476Y-111169819D02*
X160435714Y-111122200D01*
X160435714Y-111122200D02*
X160483333Y-111074580D01*
X160483333Y-111074580D02*
X160530952Y-110979342D01*
X160530952Y-110979342D02*
X160530952Y-110693628D01*
X160530952Y-110693628D02*
X160483333Y-110598390D01*
X160483333Y-110598390D02*
X160435714Y-110550771D01*
X160435714Y-110550771D02*
X160340476Y-110503152D01*
X160340476Y-110503152D02*
X160150000Y-110503152D01*
X160150000Y-110503152D02*
X160054762Y-110550771D01*
X159483333Y-111169819D02*
X159578571Y-111122200D01*
X159578571Y-111122200D02*
X159626190Y-111074580D01*
X159626190Y-111074580D02*
X159673809Y-110979342D01*
X159673809Y-110979342D02*
X159673809Y-110693628D01*
X159673809Y-110693628D02*
X159626190Y-110598390D01*
X159626190Y-110598390D02*
X159578571Y-110550771D01*
X159578571Y-110550771D02*
X159483333Y-110503152D01*
X159483333Y-110503152D02*
X159340476Y-110503152D01*
X159340476Y-110503152D02*
X159245238Y-110550771D01*
X159245238Y-110550771D02*
X159197619Y-110598390D01*
X159197619Y-110598390D02*
X159150000Y-110693628D01*
X159150000Y-110693628D02*
X159150000Y-110979342D01*
X159150000Y-110979342D02*
X159197619Y-111074580D01*
X159197619Y-111074580D02*
X159245238Y-111122200D01*
X159245238Y-111122200D02*
X159340476Y-111169819D01*
X159340476Y-111169819D02*
X159483333Y-111169819D01*
X158578571Y-111169819D02*
X158673809Y-111122200D01*
X158673809Y-111122200D02*
X158721428Y-111026961D01*
X158721428Y-111026961D02*
X158721428Y-110169819D01*
X157816666Y-111122200D02*
X157911904Y-111169819D01*
X157911904Y-111169819D02*
X158102380Y-111169819D01*
X158102380Y-111169819D02*
X158197618Y-111122200D01*
X158197618Y-111122200D02*
X158245237Y-111026961D01*
X158245237Y-111026961D02*
X158245237Y-110646009D01*
X158245237Y-110646009D02*
X158197618Y-110550771D01*
X158197618Y-110550771D02*
X158102380Y-110503152D01*
X158102380Y-110503152D02*
X157911904Y-110503152D01*
X157911904Y-110503152D02*
X157816666Y-110550771D01*
X157816666Y-110550771D02*
X157769047Y-110646009D01*
X157769047Y-110646009D02*
X157769047Y-110741247D01*
X157769047Y-110741247D02*
X158245237Y-110836485D01*
X156578570Y-111169819D02*
X156578570Y-110169819D01*
X156578570Y-110169819D02*
X156245237Y-110884104D01*
X156245237Y-110884104D02*
X155911904Y-110169819D01*
X155911904Y-110169819D02*
X155911904Y-111169819D01*
X155007142Y-111169819D02*
X155007142Y-110646009D01*
X155007142Y-110646009D02*
X155054761Y-110550771D01*
X155054761Y-110550771D02*
X155149999Y-110503152D01*
X155149999Y-110503152D02*
X155340475Y-110503152D01*
X155340475Y-110503152D02*
X155435713Y-110550771D01*
X155007142Y-111122200D02*
X155102380Y-111169819D01*
X155102380Y-111169819D02*
X155340475Y-111169819D01*
X155340475Y-111169819D02*
X155435713Y-111122200D01*
X155435713Y-111122200D02*
X155483332Y-111026961D01*
X155483332Y-111026961D02*
X155483332Y-110931723D01*
X155483332Y-110931723D02*
X155435713Y-110836485D01*
X155435713Y-110836485D02*
X155340475Y-110788866D01*
X155340475Y-110788866D02*
X155102380Y-110788866D01*
X155102380Y-110788866D02*
X155007142Y-110741247D01*
X154102380Y-110503152D02*
X154102380Y-111312676D01*
X154102380Y-111312676D02*
X154149999Y-111407914D01*
X154149999Y-111407914D02*
X154197618Y-111455533D01*
X154197618Y-111455533D02*
X154292856Y-111503152D01*
X154292856Y-111503152D02*
X154435713Y-111503152D01*
X154435713Y-111503152D02*
X154530951Y-111455533D01*
X154102380Y-111122200D02*
X154197618Y-111169819D01*
X154197618Y-111169819D02*
X154388094Y-111169819D01*
X154388094Y-111169819D02*
X154483332Y-111122200D01*
X154483332Y-111122200D02*
X154530951Y-111074580D01*
X154530951Y-111074580D02*
X154578570Y-110979342D01*
X154578570Y-110979342D02*
X154578570Y-110693628D01*
X154578570Y-110693628D02*
X154530951Y-110598390D01*
X154530951Y-110598390D02*
X154483332Y-110550771D01*
X154483332Y-110550771D02*
X154388094Y-110503152D01*
X154388094Y-110503152D02*
X154197618Y-110503152D01*
X154197618Y-110503152D02*
X154102380Y-110550771D01*
X153197618Y-110503152D02*
X153197618Y-111312676D01*
X153197618Y-111312676D02*
X153245237Y-111407914D01*
X153245237Y-111407914D02*
X153292856Y-111455533D01*
X153292856Y-111455533D02*
X153388094Y-111503152D01*
X153388094Y-111503152D02*
X153530951Y-111503152D01*
X153530951Y-111503152D02*
X153626189Y-111455533D01*
X153197618Y-111122200D02*
X153292856Y-111169819D01*
X153292856Y-111169819D02*
X153483332Y-111169819D01*
X153483332Y-111169819D02*
X153578570Y-111122200D01*
X153578570Y-111122200D02*
X153626189Y-111074580D01*
X153626189Y-111074580D02*
X153673808Y-110979342D01*
X153673808Y-110979342D02*
X153673808Y-110693628D01*
X153673808Y-110693628D02*
X153626189Y-110598390D01*
X153626189Y-110598390D02*
X153578570Y-110550771D01*
X153578570Y-110550771D02*
X153483332Y-110503152D01*
X153483332Y-110503152D02*
X153292856Y-110503152D01*
X153292856Y-110503152D02*
X153197618Y-110550771D01*
X152292856Y-111169819D02*
X152292856Y-110646009D01*
X152292856Y-110646009D02*
X152340475Y-110550771D01*
X152340475Y-110550771D02*
X152435713Y-110503152D01*
X152435713Y-110503152D02*
X152626189Y-110503152D01*
X152626189Y-110503152D02*
X152721427Y-110550771D01*
X152292856Y-111122200D02*
X152388094Y-111169819D01*
X152388094Y-111169819D02*
X152626189Y-111169819D01*
X152626189Y-111169819D02*
X152721427Y-111122200D01*
X152721427Y-111122200D02*
X152769046Y-111026961D01*
X152769046Y-111026961D02*
X152769046Y-110931723D01*
X152769046Y-110931723D02*
X152721427Y-110836485D01*
X152721427Y-110836485D02*
X152626189Y-110788866D01*
X152626189Y-110788866D02*
X152388094Y-110788866D01*
X152388094Y-110788866D02*
X152292856Y-110741247D01*
X151816665Y-111169819D02*
X151816665Y-110503152D01*
X151816665Y-110693628D02*
X151769046Y-110598390D01*
X151769046Y-110598390D02*
X151721427Y-110550771D01*
X151721427Y-110550771D02*
X151626189Y-110503152D01*
X151626189Y-110503152D02*
X151530951Y-110503152D01*
X150769046Y-111169819D02*
X150769046Y-110169819D01*
X150769046Y-111122200D02*
X150864284Y-111169819D01*
X150864284Y-111169819D02*
X151054760Y-111169819D01*
X151054760Y-111169819D02*
X151149998Y-111122200D01*
X151149998Y-111122200D02*
X151197617Y-111074580D01*
X151197617Y-111074580D02*
X151245236Y-110979342D01*
X151245236Y-110979342D02*
X151245236Y-110693628D01*
X151245236Y-110693628D02*
X151197617Y-110598390D01*
X151197617Y-110598390D02*
X151149998Y-110550771D01*
X151149998Y-110550771D02*
X151054760Y-110503152D01*
X151054760Y-110503152D02*
X150864284Y-110503152D01*
X150864284Y-110503152D02*
X150769046Y-110550771D01*
D12*
%TO.C,G\u002A\u002A\u002A*%
G36*
X164014944Y-115473924D02*
G01*
X164035797Y-115508462D01*
X164031258Y-115526686D01*
X163996720Y-115547539D01*
X163978497Y-115543000D01*
X163957643Y-115508462D01*
X163962182Y-115490238D01*
X163996720Y-115469385D01*
X164014944Y-115473924D01*
G37*
G36*
X164064599Y-116780003D02*
G01*
X164087900Y-116811026D01*
X164071793Y-116838453D01*
X164009746Y-116850103D01*
X163954893Y-116842050D01*
X163931592Y-116811026D01*
X163947699Y-116783600D01*
X164009746Y-116771949D01*
X164064599Y-116780003D01*
G37*
G36*
X165381662Y-116176275D02*
G01*
X165411490Y-116208310D01*
X165458717Y-116285194D01*
X165500069Y-116379658D01*
X165530137Y-116476243D01*
X165543513Y-116559493D01*
X165534791Y-116613951D01*
X165529122Y-116622462D01*
X165500389Y-116640496D01*
X165477890Y-116607463D01*
X165462126Y-116523985D01*
X165457743Y-116496669D01*
X165426309Y-116394229D01*
X165379611Y-116301637D01*
X165369215Y-116285313D01*
X165336044Y-116218603D01*
X165327155Y-116172474D01*
X165342407Y-116155505D01*
X165381662Y-116176275D01*
G37*
G36*
X163251944Y-115271408D02*
G01*
X163310082Y-115304414D01*
X163384515Y-115352154D01*
X163450580Y-115393052D01*
X163522464Y-115429352D01*
X163569492Y-115443334D01*
X163597277Y-115447859D01*
X163618977Y-115469385D01*
X163617101Y-115474417D01*
X163582960Y-115489405D01*
X163519461Y-115495437D01*
X163466871Y-115491036D01*
X163393841Y-115463337D01*
X163311051Y-115402227D01*
X163281464Y-115376128D01*
X163221303Y-115313750D01*
X163202196Y-115274568D01*
X163225590Y-115260975D01*
X163251944Y-115271408D01*
G37*
G36*
X163798487Y-114906705D02*
G01*
X163823504Y-114938410D01*
X163861019Y-115024371D01*
X163889192Y-115135693D01*
X163905229Y-115255616D01*
X163906339Y-115367381D01*
X163889728Y-115454229D01*
X163878002Y-115474449D01*
X163843287Y-115495437D01*
X163827393Y-115478503D01*
X163820253Y-115419674D01*
X163822898Y-115314217D01*
X163824740Y-115276022D01*
X163823509Y-115174222D01*
X163808187Y-115094193D01*
X163775178Y-115013267D01*
X163742562Y-114935759D01*
X163733814Y-114885839D01*
X163752662Y-114875213D01*
X163798487Y-114906705D01*
G37*
G36*
X164304665Y-116593037D02*
G01*
X164385794Y-116614997D01*
X164420853Y-116636363D01*
X164451301Y-116694174D01*
X164443206Y-116767109D01*
X164395974Y-116841911D01*
X164382572Y-116854584D01*
X164323706Y-116888713D01*
X164261467Y-116902646D01*
X164212164Y-116894683D01*
X164192105Y-116863129D01*
X164196644Y-116844905D01*
X164231182Y-116824052D01*
X164273563Y-116808622D01*
X164325852Y-116768459D01*
X164381445Y-116712866D01*
X164299801Y-116678537D01*
X164286310Y-116672595D01*
X164231387Y-116637636D01*
X164220668Y-116609376D01*
X164247358Y-116592837D01*
X164304665Y-116593037D01*
G37*
G36*
X165655833Y-117790106D02*
G01*
X165746611Y-117824354D01*
X165836997Y-117892209D01*
X165911004Y-117982549D01*
X165924390Y-118002594D01*
X165979327Y-118065077D01*
X166032019Y-118101819D01*
X166072350Y-118123655D01*
X166093848Y-118152023D01*
X166073112Y-118170549D01*
X166020236Y-118178719D01*
X166014729Y-118178620D01*
X165944801Y-118157932D01*
X165875262Y-118097453D01*
X165799729Y-117991772D01*
X165796534Y-117986890D01*
X165739114Y-117930438D01*
X165664663Y-117888846D01*
X165609074Y-117861417D01*
X165576601Y-117826954D01*
X165583004Y-117799309D01*
X165631438Y-117788047D01*
X165655833Y-117790106D01*
G37*
G36*
X164393115Y-114673844D02*
G01*
X164390493Y-114720411D01*
X164379304Y-114770271D01*
X164363123Y-114855861D01*
X164346347Y-114955025D01*
X164345849Y-114958159D01*
X164332509Y-115054310D01*
X164331309Y-115117807D01*
X164344025Y-115166593D01*
X164372434Y-115218613D01*
X164381089Y-115233165D01*
X164413464Y-115299861D01*
X164426566Y-115348717D01*
X164417051Y-115385546D01*
X164389533Y-115386717D01*
X164351952Y-115351180D01*
X164312353Y-115283528D01*
X164293790Y-115238304D01*
X164277071Y-115169443D01*
X164272203Y-115084220D01*
X164277250Y-114965072D01*
X164283239Y-114884561D01*
X164295785Y-114775808D01*
X164312481Y-114707449D01*
X164335562Y-114671954D01*
X164367264Y-114661796D01*
X164393115Y-114673844D01*
G37*
G36*
X165159742Y-118342227D02*
G01*
X165182054Y-118361078D01*
X165165206Y-118378370D01*
X165115632Y-118387129D01*
X165078396Y-118390676D01*
X164997170Y-118416094D01*
X164926268Y-118457176D01*
X164886438Y-118503396D01*
X164883996Y-118508583D01*
X164843113Y-118534980D01*
X164757723Y-118543437D01*
X164712273Y-118541719D01*
X164641855Y-118523530D01*
X164587744Y-118478308D01*
X164540849Y-118438151D01*
X164452790Y-118413180D01*
X164451676Y-118413177D01*
X164397106Y-118405405D01*
X164374464Y-118387129D01*
X164392274Y-118367225D01*
X164443247Y-118359463D01*
X164509918Y-118365202D01*
X164574566Y-118382757D01*
X164619472Y-118410441D01*
X164627253Y-118418546D01*
X164698085Y-118462960D01*
X164773772Y-118472098D01*
X164835744Y-118443153D01*
X164876308Y-118409528D01*
X164941456Y-118368331D01*
X164965443Y-118357975D01*
X165033890Y-118341204D01*
X165104505Y-118335778D01*
X165159742Y-118342227D01*
G37*
G36*
X166067797Y-116363701D02*
G01*
X166057615Y-116381988D01*
X166011306Y-116418872D01*
X165940235Y-116458072D01*
X165885538Y-116488387D01*
X165818940Y-116539468D01*
X165772301Y-116591472D01*
X165753652Y-116634816D01*
X165771026Y-116659921D01*
X165798511Y-116673473D01*
X165849180Y-116707332D01*
X165874736Y-116727925D01*
X165880677Y-116746714D01*
X165839848Y-116761534D01*
X165803200Y-116779810D01*
X165781233Y-116814065D01*
X165771384Y-116835087D01*
X165729131Y-116850103D01*
X165722386Y-116850435D01*
X165684172Y-116872890D01*
X165673750Y-116916255D01*
X165690449Y-116960367D01*
X165733603Y-116985061D01*
X165768706Y-116993979D01*
X165800400Y-117020176D01*
X165787979Y-117046515D01*
X165731798Y-117058513D01*
X165710175Y-117059181D01*
X165659768Y-117075542D01*
X165635776Y-117123034D01*
X165628483Y-117179543D01*
X165629945Y-117279173D01*
X165642316Y-117381145D01*
X165663372Y-117458438D01*
X165665625Y-117463689D01*
X165669866Y-117495942D01*
X165635239Y-117497301D01*
X165596425Y-117470833D01*
X165577574Y-117401986D01*
X165577055Y-117397185D01*
X165559695Y-117335161D01*
X165531260Y-117301442D01*
X165487704Y-117269491D01*
X165457897Y-117207544D01*
X165464789Y-117143780D01*
X165478028Y-117117266D01*
X165548853Y-116961374D01*
X165608814Y-116806337D01*
X165652657Y-116666799D01*
X165675131Y-116557406D01*
X165692627Y-116450211D01*
X165719416Y-116384547D01*
X165758759Y-116360774D01*
X165814519Y-116373801D01*
X165870567Y-116387800D01*
X165938969Y-116366202D01*
X165997016Y-116339345D01*
X166049501Y-116333625D01*
X166067797Y-116363701D01*
G37*
G36*
X166372663Y-115693773D02*
G01*
X166380413Y-115767456D01*
X166377319Y-115828342D01*
X166358399Y-115883657D01*
X166314549Y-115923369D01*
X166260924Y-115949153D01*
X166223369Y-115950879D01*
X166212599Y-115940157D01*
X166199315Y-115898395D01*
X166203204Y-115854465D01*
X166224105Y-115834103D01*
X166226172Y-115834004D01*
X166247117Y-115811574D01*
X166249244Y-115764860D01*
X166235053Y-115715634D01*
X166207046Y-115685669D01*
X166180028Y-115682194D01*
X166107648Y-115683201D01*
X166005987Y-115690211D01*
X165887918Y-115702545D01*
X165813368Y-115711389D01*
X165678235Y-115726637D01*
X165555620Y-115739585D01*
X165465109Y-115748119D01*
X165409162Y-115753430D01*
X165352311Y-115764004D01*
X165330018Y-115781244D01*
X165331378Y-115810214D01*
X165333540Y-115840075D01*
X165311007Y-115860154D01*
X165298209Y-115861810D01*
X165294313Y-115876892D01*
X165310937Y-115880564D01*
X165350426Y-115860952D01*
X165402030Y-115840663D01*
X165448575Y-115856106D01*
X165468618Y-115901238D01*
X165468568Y-115904290D01*
X165453910Y-115931620D01*
X165405405Y-115928091D01*
X165379005Y-115923490D01*
X165338601Y-115936449D01*
X165303841Y-115989105D01*
X165289643Y-116028071D01*
X165282670Y-116047210D01*
X165292635Y-116075032D01*
X165293709Y-116075425D01*
X165304345Y-116100883D01*
X165288637Y-116142614D01*
X165257476Y-116181600D01*
X165221751Y-116198821D01*
X165205352Y-116201550D01*
X165164053Y-116231385D01*
X165152697Y-116267333D01*
X165138882Y-116344888D01*
X165136966Y-116359471D01*
X165125114Y-116449701D01*
X165112882Y-116568804D01*
X165103676Y-116689227D01*
X165098985Y-116798001D01*
X165098942Y-116812402D01*
X165103236Y-116894347D01*
X165113460Y-116999842D01*
X165125454Y-117097128D01*
X165127820Y-117116316D01*
X165144520Y-117231199D01*
X165161767Y-117331919D01*
X165177766Y-117405903D01*
X165190721Y-117440582D01*
X165196939Y-117443424D01*
X165239977Y-117437774D01*
X165303677Y-117413358D01*
X165367296Y-117386556D01*
X165405708Y-117384319D01*
X165436689Y-117406189D01*
X165458666Y-117446820D01*
X165460415Y-117450054D01*
X165441391Y-117486736D01*
X165382414Y-117501784D01*
X165316215Y-117511248D01*
X165274424Y-117548153D01*
X165274547Y-117614574D01*
X165276631Y-117623284D01*
X165278898Y-117670427D01*
X165252793Y-117683744D01*
X165230906Y-117689556D01*
X165197323Y-117726367D01*
X165187799Y-117746982D01*
X165168281Y-117752858D01*
X165129448Y-117722366D01*
X165125136Y-117718474D01*
X165091060Y-117693098D01*
X165070756Y-117704032D01*
X165049289Y-117757896D01*
X165047065Y-117763990D01*
X165016820Y-117817909D01*
X164984428Y-117840052D01*
X164962778Y-117851048D01*
X164958607Y-117874787D01*
X164954412Y-117898667D01*
X164954415Y-117898697D01*
X164948865Y-117942700D01*
X164913095Y-117949184D01*
X164868132Y-117952162D01*
X164813774Y-117988410D01*
X164791284Y-118048348D01*
X164782078Y-118075948D01*
X164744898Y-118091074D01*
X164667795Y-118096436D01*
X164656022Y-118096783D01*
X164565121Y-118109820D01*
X164515194Y-118138726D01*
X164486456Y-118165513D01*
X164419830Y-118192277D01*
X164349477Y-118194107D01*
X164298174Y-118167939D01*
X164270764Y-118143902D01*
X164206404Y-118128349D01*
X164146317Y-118156773D01*
X164119059Y-118173345D01*
X164078273Y-118155488D01*
X164074147Y-118152418D01*
X164010153Y-118135566D01*
X163901323Y-118139640D01*
X163876454Y-118142219D01*
X163783480Y-118150437D01*
X163657235Y-118160363D01*
X163511101Y-118170970D01*
X163358464Y-118181234D01*
X163303966Y-118184765D01*
X163146378Y-118195201D01*
X162996477Y-118205425D01*
X162869035Y-118214419D01*
X162778823Y-118221164D01*
X162719366Y-118225279D01*
X162648014Y-118226040D01*
X162612563Y-118217214D01*
X162602977Y-118197449D01*
X162616240Y-118175917D01*
X162668248Y-118157348D01*
X162765797Y-118143426D01*
X162836771Y-118135428D01*
X162957030Y-118119121D01*
X163058874Y-118102335D01*
X163080881Y-118098646D01*
X163179937Y-118087640D01*
X163303014Y-118079603D01*
X163428567Y-118076066D01*
X163463433Y-118075640D01*
X163588836Y-118069140D01*
X163665037Y-118055301D01*
X163691210Y-118034365D01*
X163666529Y-118006573D01*
X163651020Y-118001101D01*
X163624856Y-118017798D01*
X163609641Y-118042568D01*
X163580234Y-118041111D01*
X163554016Y-117996889D01*
X163540893Y-117966980D01*
X163519697Y-117947871D01*
X163510461Y-117948984D01*
X163454777Y-117939063D01*
X163436618Y-117893910D01*
X163426431Y-117861035D01*
X163383081Y-117826571D01*
X163352653Y-117809811D01*
X163340484Y-117779226D01*
X163339219Y-117729915D01*
X163302415Y-117672391D01*
X163239649Y-117631039D01*
X163195767Y-117602630D01*
X163176105Y-117541107D01*
X163168435Y-117498015D01*
X163137028Y-117475334D01*
X163107523Y-117454710D01*
X163097951Y-117389365D01*
X163097936Y-117386290D01*
X163090663Y-117320081D01*
X163074106Y-117278647D01*
X163057181Y-117248557D01*
X163041542Y-117188770D01*
X163024684Y-117144003D01*
X162974207Y-117097926D01*
X162934188Y-117067699D01*
X162915592Y-117000233D01*
X162904825Y-116943040D01*
X162870002Y-116882237D01*
X162862177Y-116874230D01*
X162800175Y-116797959D01*
X162757020Y-116711778D01*
X162728518Y-116606048D01*
X162854463Y-116606048D01*
X162876611Y-116667929D01*
X162903677Y-116736197D01*
X162915592Y-116799781D01*
X162916924Y-116812130D01*
X162941485Y-116872643D01*
X162987233Y-116937844D01*
X163058874Y-117019437D01*
X163058872Y-116974585D01*
X163154291Y-116974585D01*
X163156191Y-117019437D01*
X163157847Y-117058513D01*
X163158210Y-117062507D01*
X163176984Y-117214618D01*
X163204228Y-117334558D01*
X163244306Y-117441663D01*
X163262913Y-117479310D01*
X163296680Y-117529409D01*
X163322268Y-117545881D01*
X163332413Y-117522093D01*
X163327265Y-117494225D01*
X163307265Y-117427930D01*
X163277344Y-117344710D01*
X163257400Y-117288367D01*
X163254276Y-117277646D01*
X163337313Y-117277646D01*
X163345679Y-117321598D01*
X163377145Y-117402544D01*
X163426332Y-117495430D01*
X163444356Y-117522093D01*
X163481574Y-117577149D01*
X163534368Y-117635311D01*
X163576211Y-117657528D01*
X163586171Y-117657931D01*
X163612763Y-117673531D01*
X163608540Y-117721779D01*
X163606933Y-117776458D01*
X163644793Y-117813875D01*
X163676610Y-117837517D01*
X163697131Y-117873779D01*
X163700325Y-117890898D01*
X163732902Y-117929543D01*
X163782032Y-117948691D01*
X163824416Y-117936807D01*
X163832885Y-117930646D01*
X163887072Y-117913468D01*
X163962264Y-117906110D01*
X163982835Y-117905427D01*
X164049710Y-117894134D01*
X164081293Y-117872616D01*
X164081646Y-117856704D01*
X164053312Y-117840052D01*
X164020764Y-117834163D01*
X163950853Y-117813422D01*
X163865002Y-117782887D01*
X163821697Y-117765338D01*
X163742141Y-117722415D01*
X163676094Y-117663971D01*
X163604514Y-117574795D01*
X163567550Y-117521036D01*
X163506420Y-117409601D01*
X163475009Y-117314969D01*
X163463457Y-117258582D01*
X163449682Y-117232640D01*
X163432900Y-117248441D01*
X163414305Y-117269076D01*
X163367794Y-117274927D01*
X163355903Y-117270981D01*
X163337313Y-117277646D01*
X163254276Y-117277646D01*
X163224741Y-117176273D01*
X163203908Y-117078429D01*
X163191558Y-117009541D01*
X163191231Y-117008423D01*
X163280783Y-117008423D01*
X163287640Y-117101252D01*
X163305168Y-117165050D01*
X163333060Y-117188770D01*
X163353844Y-117167256D01*
X163381467Y-117107334D01*
X163411336Y-117022240D01*
X163439593Y-116925258D01*
X163462383Y-116829672D01*
X163475850Y-116748765D01*
X163476140Y-116695823D01*
X163475313Y-116616449D01*
X163517770Y-116511753D01*
X163605951Y-116407231D01*
X163607143Y-116406119D01*
X163667124Y-116339171D01*
X163713741Y-116269610D01*
X163715818Y-116265718D01*
X163749479Y-116222345D01*
X163778505Y-116213837D01*
X163778823Y-116214036D01*
X163796856Y-116253041D01*
X163779447Y-116317552D01*
X163730478Y-116399010D01*
X163653829Y-116488851D01*
X163535759Y-116609547D01*
X163596906Y-116716599D01*
X163632412Y-116772119D01*
X163676770Y-116812751D01*
X163729695Y-116823851D01*
X163778856Y-116831311D01*
X163801336Y-116850748D01*
X163782818Y-116877554D01*
X163730441Y-116903501D01*
X163663914Y-116918833D01*
X163603229Y-116916876D01*
X163586452Y-116913538D01*
X163550034Y-116923506D01*
X163529334Y-116974047D01*
X163515036Y-117031625D01*
X163497415Y-117097590D01*
X163496901Y-117099408D01*
X163493858Y-117125503D01*
X163512759Y-117118566D01*
X163521742Y-117110616D01*
X163697131Y-117110616D01*
X163698191Y-117117756D01*
X163724719Y-117136667D01*
X163734142Y-117134622D01*
X163736207Y-117110616D01*
X163827387Y-117110616D01*
X163828144Y-117116843D01*
X163853438Y-117136667D01*
X163859665Y-117135910D01*
X163879490Y-117110616D01*
X163878733Y-117104389D01*
X163853438Y-117084565D01*
X163847211Y-117085322D01*
X163827387Y-117110616D01*
X163736207Y-117110616D01*
X163730861Y-117102820D01*
X163708619Y-117084565D01*
X163706019Y-117085242D01*
X163697131Y-117110616D01*
X163521742Y-117110616D01*
X163556697Y-117079680D01*
X163989665Y-117079680D01*
X163990217Y-117095469D01*
X164020601Y-117110616D01*
X164040873Y-117105255D01*
X164060101Y-117072357D01*
X164166054Y-117072357D01*
X164169809Y-117092192D01*
X164196664Y-117110100D01*
X164229495Y-117087295D01*
X164231435Y-117073558D01*
X164204981Y-117049035D01*
X164183341Y-117046064D01*
X164168019Y-117069368D01*
X164166054Y-117072357D01*
X164060101Y-117072357D01*
X164061848Y-117069368D01*
X164046811Y-117040904D01*
X164015595Y-117045278D01*
X163989665Y-117079680D01*
X163556697Y-117079680D01*
X163560586Y-117076238D01*
X163585765Y-117054704D01*
X163672305Y-117007550D01*
X163791629Y-116978607D01*
X163855423Y-116968447D01*
X163959734Y-116951566D01*
X164041561Y-116938014D01*
X164055790Y-116936136D01*
X164162229Y-116943801D01*
X164282901Y-116979954D01*
X164398430Y-117037230D01*
X164444975Y-117073558D01*
X164489441Y-117108263D01*
X164549991Y-117192679D01*
X164574182Y-117287328D01*
X164559978Y-117396796D01*
X164506599Y-117526971D01*
X164413265Y-117683744D01*
X164407589Y-117692328D01*
X164353380Y-117770346D01*
X164311758Y-117816133D01*
X164269545Y-117841100D01*
X164213563Y-117856657D01*
X164213447Y-117856704D01*
X164168572Y-117874948D01*
X164156724Y-117905417D01*
X164159542Y-117920452D01*
X164141778Y-117956185D01*
X164132977Y-117962888D01*
X164113951Y-117997897D01*
X164130113Y-118014016D01*
X164179079Y-118022411D01*
X164191081Y-118022136D01*
X164233448Y-118006859D01*
X164244207Y-117957283D01*
X164244363Y-117948935D01*
X164257655Y-117900812D01*
X164286760Y-117899751D01*
X164323723Y-117946801D01*
X164352969Y-118001448D01*
X164391550Y-117946365D01*
X164404840Y-117930311D01*
X164443367Y-117908110D01*
X164469896Y-117918932D01*
X164468237Y-117959918D01*
X164464723Y-117977504D01*
X164480131Y-117996360D01*
X164504360Y-117978676D01*
X164531368Y-117929664D01*
X164556131Y-117888093D01*
X164572299Y-117882623D01*
X164717739Y-117882623D01*
X164739182Y-117892154D01*
X164752973Y-117890274D01*
X164756549Y-117874787D01*
X164752731Y-117871669D01*
X164721814Y-117874787D01*
X164717739Y-117882623D01*
X164572299Y-117882623D01*
X164582786Y-117879075D01*
X164598518Y-117875772D01*
X164602374Y-117835052D01*
X164601191Y-117810100D01*
X164616832Y-117782944D01*
X164668797Y-117780000D01*
X164693869Y-117780169D01*
X164745967Y-117760358D01*
X164775620Y-117723026D01*
X164900978Y-117723026D01*
X164912573Y-117716681D01*
X164951275Y-117681903D01*
X165006207Y-117626118D01*
X165019995Y-117611167D01*
X165081223Y-117525881D01*
X165100079Y-117446820D01*
X165080511Y-117359832D01*
X165079792Y-117358010D01*
X165066186Y-117332619D01*
X165051308Y-117332337D01*
X165031153Y-117363174D01*
X165001719Y-117431141D01*
X164959002Y-117542248D01*
X164955573Y-117551394D01*
X164925296Y-117635901D01*
X164905733Y-117697363D01*
X164900978Y-117723026D01*
X164775620Y-117723026D01*
X164792443Y-117701846D01*
X164809710Y-117672827D01*
X164838205Y-117614906D01*
X164835377Y-117591372D01*
X164801668Y-117597183D01*
X164772183Y-117599272D01*
X164769370Y-117563802D01*
X164786369Y-117532639D01*
X164835654Y-117506281D01*
X164880228Y-117483925D01*
X164920956Y-117411977D01*
X164928116Y-117387787D01*
X164934606Y-117331267D01*
X164922676Y-117265823D01*
X164889879Y-117172620D01*
X164830361Y-117019437D01*
X164822108Y-117123642D01*
X164820140Y-117143523D01*
X164807043Y-117212402D01*
X164789543Y-117252596D01*
X164777730Y-117270569D01*
X164765233Y-117324237D01*
X164761367Y-117349539D01*
X164740937Y-117371129D01*
X164727578Y-117367165D01*
X164704165Y-117330747D01*
X164697501Y-117273686D01*
X164711687Y-117217518D01*
X164717483Y-117206060D01*
X164740063Y-117121147D01*
X164725694Y-117050516D01*
X164676584Y-117007373D01*
X164649611Y-116995860D01*
X164598266Y-116959425D01*
X164593621Y-116929514D01*
X164631844Y-116915587D01*
X164709103Y-116927102D01*
X164790647Y-116950488D01*
X164748633Y-116869243D01*
X164712604Y-116813416D01*
X164651012Y-116734487D01*
X164579619Y-116653713D01*
X164575759Y-116649618D01*
X164513574Y-116579693D01*
X164469413Y-116522803D01*
X164452618Y-116490918D01*
X164452674Y-116487705D01*
X164468107Y-116457634D01*
X164506948Y-116464381D01*
X164563478Y-116502164D01*
X164631976Y-116565203D01*
X164706721Y-116647718D01*
X164781991Y-116743927D01*
X164852067Y-116848051D01*
X164911226Y-116954308D01*
X164922611Y-116977151D01*
X164972174Y-117066243D01*
X165005351Y-117106182D01*
X165021490Y-117097128D01*
X165019940Y-117039240D01*
X165000046Y-116932676D01*
X164988958Y-116876591D01*
X164974205Y-116772337D01*
X164969020Y-116687941D01*
X164969041Y-116675480D01*
X164956865Y-116599893D01*
X164918837Y-116556234D01*
X164902422Y-116543538D01*
X164853217Y-116489021D01*
X164804322Y-116417485D01*
X164741370Y-116310508D01*
X164505068Y-116299308D01*
X164966427Y-116299308D01*
X164982250Y-116356805D01*
X164995850Y-116388896D01*
X165024037Y-116428138D01*
X165044134Y-116418386D01*
X165051797Y-116359471D01*
X165048113Y-116305303D01*
X165028003Y-116265887D01*
X164987018Y-116267420D01*
X164977956Y-116271983D01*
X164966427Y-116299308D01*
X164505068Y-116299308D01*
X164451140Y-116296752D01*
X164350836Y-116290976D01*
X164234846Y-116279563D01*
X164160626Y-116264243D01*
X164121931Y-116244018D01*
X164102317Y-116208909D01*
X164079869Y-116134303D01*
X164063722Y-116041939D01*
X164055455Y-115984045D01*
X164031029Y-115892511D01*
X163996088Y-115843445D01*
X163966814Y-115823951D01*
X163927542Y-115810880D01*
X163875493Y-115815174D01*
X163792271Y-115836178D01*
X163767214Y-115843315D01*
X163716549Y-115864477D01*
X163699583Y-115897305D01*
X163703388Y-115959776D01*
X163704508Y-115968734D01*
X163717855Y-116044030D01*
X163733533Y-116097884D01*
X163736571Y-116106616D01*
X163734341Y-116120667D01*
X163727710Y-116162440D01*
X163682282Y-116219700D01*
X163611805Y-116267387D01*
X163527797Y-116294495D01*
X163470200Y-116305202D01*
X163401038Y-116332768D01*
X163389265Y-116349103D01*
X163367250Y-116379648D01*
X163358155Y-116456011D01*
X163355594Y-116498275D01*
X163341543Y-116594186D01*
X163319387Y-116693796D01*
X163300299Y-116779848D01*
X163284901Y-116897606D01*
X163280783Y-117008423D01*
X163191231Y-117008423D01*
X163174581Y-116951584D01*
X163161014Y-116939437D01*
X163154291Y-116974585D01*
X163058872Y-116974585D01*
X163058856Y-116667744D01*
X163058842Y-116613105D01*
X163058274Y-116496128D01*
X163179012Y-116496128D01*
X163180359Y-116564278D01*
X163181827Y-116573484D01*
X163190573Y-116596455D01*
X163206280Y-116580152D01*
X163234720Y-116519860D01*
X163239618Y-116508519D01*
X163273752Y-116409004D01*
X163274688Y-116349103D01*
X163242414Y-116329078D01*
X163241332Y-116329105D01*
X163210021Y-116354255D01*
X163188052Y-116416845D01*
X163179012Y-116496128D01*
X163058274Y-116496128D01*
X163058235Y-116488137D01*
X163055657Y-116403957D01*
X163049659Y-116352172D01*
X163038795Y-116324389D01*
X163021615Y-116312216D01*
X162996674Y-116307260D01*
X162985747Y-116306058D01*
X162930483Y-116318406D01*
X162915622Y-116343055D01*
X162899730Y-116369415D01*
X162889940Y-116464309D01*
X162889620Y-116478144D01*
X162880737Y-116542152D01*
X162863585Y-116576506D01*
X162854463Y-116606048D01*
X162728518Y-116606048D01*
X162727332Y-116601647D01*
X162705729Y-116453524D01*
X162698019Y-116379643D01*
X162785336Y-116379643D01*
X162785339Y-116381742D01*
X162788357Y-116436614D01*
X162795324Y-116459334D01*
X162808773Y-116440925D01*
X162817558Y-116393817D01*
X162817992Y-116343055D01*
X162807893Y-116313893D01*
X162806588Y-116313219D01*
X162791535Y-116328742D01*
X162785336Y-116379643D01*
X162698019Y-116379643D01*
X162696142Y-116361656D01*
X162680792Y-116129521D01*
X162681327Y-116094616D01*
X162831690Y-116094616D01*
X162840400Y-116143001D01*
X162886623Y-116166790D01*
X162969143Y-116156245D01*
X162972270Y-116155275D01*
X163004840Y-116131895D01*
X163258323Y-116131895D01*
X163270338Y-116172899D01*
X163280142Y-116179345D01*
X163323047Y-116176668D01*
X163365378Y-116147940D01*
X163377926Y-116120667D01*
X163618977Y-116120667D01*
X163619734Y-116126894D01*
X163645028Y-116146719D01*
X163651255Y-116145962D01*
X163671079Y-116120667D01*
X163670322Y-116114440D01*
X163645028Y-116094616D01*
X163638801Y-116095373D01*
X163630200Y-116106347D01*
X163618977Y-116120667D01*
X163377926Y-116120667D01*
X163384515Y-116106347D01*
X163376104Y-116084463D01*
X163339379Y-116069682D01*
X163294047Y-116078183D01*
X163290659Y-116081590D01*
X163263008Y-116109393D01*
X163258323Y-116131895D01*
X163004840Y-116131895D01*
X163018321Y-116122218D01*
X163046345Y-116081590D01*
X163150054Y-116081590D01*
X163163079Y-116094616D01*
X163176105Y-116081590D01*
X163163079Y-116068565D01*
X163150054Y-116081590D01*
X163046345Y-116081590D01*
X163056025Y-116067557D01*
X163075447Y-116010317D01*
X163066649Y-115969529D01*
X163060467Y-115962206D01*
X163063700Y-115937148D01*
X163113200Y-115911412D01*
X163175294Y-115882568D01*
X163228160Y-115848215D01*
X163228740Y-115847711D01*
X163281816Y-115818285D01*
X163353814Y-115795447D01*
X163364407Y-115793092D01*
X163414694Y-115778012D01*
X163429342Y-115766041D01*
X164192105Y-115766041D01*
X164192105Y-115946823D01*
X164192205Y-115985213D01*
X164194692Y-116070414D01*
X164203053Y-116119399D01*
X164220619Y-116144075D01*
X164250720Y-116156350D01*
X164289452Y-116164964D01*
X164369725Y-116171928D01*
X164430217Y-116163273D01*
X164455618Y-116140206D01*
X164456410Y-116117743D01*
X164453890Y-116068565D01*
X164595900Y-116068565D01*
X164607026Y-116089903D01*
X164650672Y-116112031D01*
X164705260Y-116118811D01*
X164746670Y-116104496D01*
X164750570Y-116100421D01*
X164765503Y-116065887D01*
X164873616Y-116065887D01*
X164875568Y-116101778D01*
X164902959Y-116117310D01*
X164969044Y-116120667D01*
X164980134Y-116120559D01*
X165054741Y-116109220D01*
X165088941Y-116077234D01*
X165092269Y-116028071D01*
X165052892Y-115998545D01*
X164970443Y-115995026D01*
X164943754Y-115998442D01*
X164893219Y-116018680D01*
X164876257Y-116057237D01*
X164874139Y-116062052D01*
X164873616Y-116065887D01*
X164765503Y-116065887D01*
X164769243Y-116057237D01*
X164743580Y-116027941D01*
X164680566Y-116021324D01*
X164620128Y-116036311D01*
X164595900Y-116068565D01*
X164453890Y-116068565D01*
X164453372Y-116058464D01*
X164455920Y-116029022D01*
X164482937Y-115987222D01*
X164500800Y-115970058D01*
X164472156Y-115964759D01*
X164465470Y-115964570D01*
X164433963Y-115953378D01*
X164430390Y-115917379D01*
X164453049Y-115845993D01*
X164461369Y-115825749D01*
X164485348Y-115794648D01*
X164514976Y-115805753D01*
X164515849Y-115806462D01*
X164549608Y-115816986D01*
X164604058Y-115803579D01*
X164690391Y-115763547D01*
X164802457Y-115716697D01*
X164954105Y-115691373D01*
X164995015Y-115690087D01*
X165054475Y-115682780D01*
X165077848Y-115671283D01*
X165077008Y-115668398D01*
X165045880Y-115657006D01*
X164980562Y-115652866D01*
X164895722Y-115655606D01*
X164806031Y-115664851D01*
X164726156Y-115680230D01*
X164709555Y-115684556D01*
X164626768Y-115705818D01*
X164562423Y-115721896D01*
X164522689Y-115723922D01*
X164455472Y-115693405D01*
X164441606Y-115683046D01*
X164389593Y-115666657D01*
X164342728Y-115674656D01*
X164322361Y-115705157D01*
X164336665Y-115729614D01*
X164378963Y-115766589D01*
X164407970Y-115788153D01*
X164418562Y-115808141D01*
X164389085Y-115824070D01*
X164336428Y-115824671D01*
X164267355Y-115797455D01*
X164192105Y-115753004D01*
X164192105Y-115766041D01*
X163429342Y-115766041D01*
X163406743Y-115761190D01*
X163341455Y-115754276D01*
X163244590Y-115746835D01*
X163127097Y-115739818D01*
X162835855Y-115724597D01*
X162837411Y-115877042D01*
X162837436Y-115941924D01*
X162835476Y-116032370D01*
X162831690Y-116094616D01*
X162681327Y-116094616D01*
X162683660Y-115942539D01*
X162704889Y-115797944D01*
X162744619Y-115692968D01*
X162759537Y-115663835D01*
X162798220Y-115560310D01*
X162821517Y-115456360D01*
X162828317Y-115416364D01*
X162855176Y-115324470D01*
X162889745Y-115255517D01*
X162926367Y-115187666D01*
X162941643Y-115123389D01*
X162941714Y-115118797D01*
X162955313Y-115036313D01*
X162988123Y-114928033D01*
X163033882Y-114812008D01*
X163086327Y-114706293D01*
X163139809Y-114622089D01*
X163206269Y-114541205D01*
X163292128Y-114459385D01*
X163406048Y-114368412D01*
X163556692Y-114260069D01*
X163726360Y-114147389D01*
X163914853Y-114040071D01*
X164096942Y-113960655D01*
X164284055Y-113905933D01*
X164487619Y-113872699D01*
X164719062Y-113857744D01*
X164989811Y-113857863D01*
X165408333Y-113867231D01*
X165601296Y-113962580D01*
X165723008Y-114018951D01*
X165856681Y-114075112D01*
X165973339Y-114118888D01*
X166033868Y-114141285D01*
X166136843Y-114192103D01*
X166194775Y-114242610D01*
X166204140Y-114255755D01*
X166256861Y-114319666D01*
X166319518Y-114385892D01*
X166377127Y-114458807D01*
X166421297Y-114570616D01*
X166423990Y-114583668D01*
X166451972Y-114670258D01*
X166489073Y-114740334D01*
X166509083Y-114775983D01*
X166539529Y-114859115D01*
X166561578Y-114954051D01*
X166573235Y-115015995D01*
X166594192Y-115100484D01*
X166614222Y-115155551D01*
X166625574Y-115200948D01*
X166635643Y-115286461D01*
X166643227Y-115399577D01*
X166647236Y-115527988D01*
X166648533Y-115655825D01*
X166646536Y-115756627D01*
X166638481Y-115835376D01*
X166621752Y-115907604D01*
X166593734Y-115988840D01*
X166551811Y-116094616D01*
X166527179Y-116153154D01*
X166470416Y-116275021D01*
X166412889Y-116384391D01*
X166363897Y-116463034D01*
X166311835Y-116538105D01*
X166254326Y-116640929D01*
X166219628Y-116743637D01*
X166202588Y-116863462D01*
X166198054Y-117017635D01*
X166198317Y-117061178D01*
X166204655Y-117198107D01*
X166221171Y-117304548D01*
X166250156Y-117397180D01*
X166269363Y-117449254D01*
X166293020Y-117526390D01*
X166302259Y-117576602D01*
X166307831Y-117609056D01*
X166341098Y-117687762D01*
X166396291Y-117781910D01*
X166464076Y-117877648D01*
X166535116Y-117961124D01*
X166600075Y-118018487D01*
X166662442Y-118053961D01*
X166767426Y-118100376D01*
X166875429Y-118137009D01*
X166960804Y-118163615D01*
X167057217Y-118200121D01*
X167125949Y-118233438D01*
X167126818Y-118233964D01*
X167211271Y-118268560D01*
X167300258Y-118282924D01*
X167305048Y-118282950D01*
X167377035Y-118291970D01*
X167412768Y-118314006D01*
X167404388Y-118344418D01*
X167378877Y-118356485D01*
X167311323Y-118362614D01*
X167225437Y-118355930D01*
X167140013Y-118338301D01*
X167073847Y-118311591D01*
X167047920Y-118297450D01*
X166949053Y-118256901D01*
X166826046Y-118218685D01*
X166699202Y-118188624D01*
X166588823Y-118172537D01*
X166585555Y-118172280D01*
X166521243Y-118158104D01*
X166505345Y-118129561D01*
X166505406Y-118129264D01*
X166494092Y-118086154D01*
X166456666Y-118033413D01*
X166418918Y-117988268D01*
X166360432Y-117905660D01*
X166301224Y-117811235D01*
X166249174Y-117718453D01*
X166212162Y-117640775D01*
X166198068Y-117591662D01*
X166192205Y-117551465D01*
X166172196Y-117473951D01*
X166142894Y-117383252D01*
X166133934Y-117357377D01*
X166110948Y-117277107D01*
X166099244Y-117198167D01*
X166097089Y-117102865D01*
X166102748Y-116973508D01*
X166120316Y-116797894D01*
X166155827Y-116643707D01*
X166213388Y-116511268D01*
X166297964Y-116385622D01*
X166337611Y-116324944D01*
X166388602Y-116225349D01*
X166430986Y-116120667D01*
X166463010Y-116032594D01*
X166492459Y-115961010D01*
X166512279Y-115923345D01*
X166526339Y-115891943D01*
X166541355Y-115813718D01*
X166550919Y-115707061D01*
X166554367Y-115585538D01*
X166551033Y-115462714D01*
X166540255Y-115352154D01*
X166525072Y-115254118D01*
X166492502Y-115074063D01*
X166459576Y-114929947D01*
X166427603Y-114827118D01*
X166397892Y-114770922D01*
X166388215Y-114758088D01*
X166356910Y-114693964D01*
X166332022Y-114613304D01*
X166324708Y-114586109D01*
X166292564Y-114511431D01*
X166254497Y-114463914D01*
X166249412Y-114460145D01*
X166198980Y-114409438D01*
X166149818Y-114342687D01*
X166142087Y-114330808D01*
X166095580Y-114280101D01*
X166026196Y-114238249D01*
X165919733Y-114196214D01*
X165824049Y-114160342D01*
X165713930Y-114113924D01*
X165627700Y-114072215D01*
X165497045Y-114012664D01*
X165334092Y-113966613D01*
X165143460Y-113940563D01*
X164914145Y-113932360D01*
X164688984Y-113940577D01*
X164454669Y-113966020D01*
X164241097Y-114006457D01*
X164063416Y-114059624D01*
X164001608Y-114088624D01*
X163903325Y-114143978D01*
X163785837Y-114216161D01*
X163659860Y-114298018D01*
X163536111Y-114382394D01*
X163425306Y-114462134D01*
X163338161Y-114530083D01*
X163285394Y-114579086D01*
X163214440Y-114676667D01*
X163137285Y-114817063D01*
X163079519Y-114961385D01*
X163061823Y-115020803D01*
X163048507Y-115087905D01*
X163056111Y-115121525D01*
X163084925Y-115130719D01*
X163102734Y-115131923D01*
X163124002Y-115141614D01*
X163122208Y-115158128D01*
X163088033Y-115221172D01*
X163021283Y-115273232D01*
X162967975Y-115317619D01*
X162920006Y-115412824D01*
X162900530Y-115490658D01*
X162901985Y-115548033D01*
X162934454Y-115581157D01*
X163004898Y-115596561D01*
X163120277Y-115600776D01*
X163195740Y-115601866D01*
X163286217Y-115606630D01*
X163374132Y-115617270D01*
X163477171Y-115636106D01*
X163613020Y-115665461D01*
X163622419Y-115667553D01*
X163674776Y-115675022D01*
X163692837Y-115656391D01*
X163691174Y-115599331D01*
X163693491Y-115544445D01*
X163711052Y-115507463D01*
X163735752Y-115507973D01*
X163758104Y-115552598D01*
X163768174Y-115586943D01*
X163783090Y-115595416D01*
X163813524Y-115560176D01*
X163835563Y-115533436D01*
X163859917Y-115523923D01*
X163889205Y-115554504D01*
X163917199Y-115578795D01*
X163967359Y-115584281D01*
X163999154Y-115583326D01*
X164009746Y-115622906D01*
X164016944Y-115655837D01*
X164050578Y-115677796D01*
X164077716Y-115666286D01*
X164073748Y-115622146D01*
X164066528Y-115593740D01*
X164077457Y-115576100D01*
X164125924Y-115584024D01*
X164157871Y-115591060D01*
X164181838Y-115587265D01*
X164171289Y-115557820D01*
X164166551Y-115548256D01*
X164156772Y-115489454D01*
X164172477Y-115438816D01*
X164208169Y-115417283D01*
X164228788Y-115426438D01*
X164244207Y-115467848D01*
X164244410Y-115475913D01*
X164262674Y-115527275D01*
X164302271Y-115535790D01*
X164351461Y-115498141D01*
X164374979Y-115474448D01*
X164442171Y-115423410D01*
X164523088Y-115374643D01*
X164563576Y-115351698D01*
X164656865Y-115289557D01*
X164732279Y-115228070D01*
X164769122Y-115195292D01*
X164818158Y-115165888D01*
X164839537Y-115178113D01*
X164831323Y-115231894D01*
X164828529Y-115239417D01*
X164783570Y-115301601D01*
X164705317Y-115369114D01*
X164607718Y-115431442D01*
X164504720Y-115478073D01*
X164387490Y-115519001D01*
X164575987Y-115520244D01*
X164679594Y-115517229D01*
X164790910Y-115507033D01*
X164875577Y-115491960D01*
X164927348Y-115483456D01*
X165017913Y-115478406D01*
X165126698Y-115478734D01*
X165241984Y-115483681D01*
X165352051Y-115492491D01*
X165445180Y-115504404D01*
X165509651Y-115518664D01*
X165533746Y-115534513D01*
X165520997Y-115545938D01*
X165468954Y-115559899D01*
X165390464Y-115568570D01*
X165332449Y-115573565D01*
X165261250Y-115585463D01*
X165223875Y-115599692D01*
X165217210Y-115608433D01*
X165228487Y-115629418D01*
X165283992Y-115640933D01*
X165378392Y-115642773D01*
X165506349Y-115634732D01*
X165662527Y-115616605D01*
X165756681Y-115604047D01*
X165952040Y-115582285D01*
X166103681Y-115573814D01*
X166216584Y-115579680D01*
X166295729Y-115600932D01*
X166346095Y-115638614D01*
X166361830Y-115671283D01*
X166372663Y-115693773D01*
G37*
%TD*%
%LPC*%
D13*
%TO.C,J2*%
X153690000Y-105660000D03*
D14*
X156230000Y-105660000D03*
X158770000Y-105660000D03*
X161310000Y-105660000D03*
X163850000Y-105660000D03*
%TD*%
G36*
X157023039Y-105669685D02*
G01*
X157068794Y-105722489D01*
X157080000Y-105774000D01*
X157080000Y-107006000D01*
X157060315Y-107073039D01*
X157007511Y-107118794D01*
X156956000Y-107130000D01*
X155504000Y-107130000D01*
X155436961Y-107110315D01*
X155391206Y-107057511D01*
X155380000Y-107006000D01*
X155380000Y-105774000D01*
X155399685Y-105706961D01*
X155452489Y-105661206D01*
X155504000Y-105650000D01*
X156956000Y-105650000D01*
X157023039Y-105669685D01*
G37*
G36*
X162103039Y-105669685D02*
G01*
X162148794Y-105722489D01*
X162160000Y-105774000D01*
X162160000Y-107006000D01*
X162140315Y-107073039D01*
X162087511Y-107118794D01*
X162036000Y-107130000D01*
X160584000Y-107130000D01*
X160516961Y-107110315D01*
X160471206Y-107057511D01*
X160460000Y-107006000D01*
X160460000Y-105774000D01*
X160479685Y-105706961D01*
X160532489Y-105661206D01*
X160584000Y-105650000D01*
X162036000Y-105650000D01*
X162103039Y-105669685D01*
G37*
G36*
X164643039Y-105669685D02*
G01*
X164688794Y-105722489D01*
X164700000Y-105774000D01*
X164700000Y-107006000D01*
X164680315Y-107073039D01*
X164627511Y-107118794D01*
X164576000Y-107130000D01*
X163124000Y-107130000D01*
X163056961Y-107110315D01*
X163011206Y-107057511D01*
X163000000Y-107006000D01*
X163000000Y-105774000D01*
X163019685Y-105706961D01*
X163072489Y-105661206D01*
X163124000Y-105650000D01*
X164576000Y-105650000D01*
X164643039Y-105669685D01*
G37*
G36*
X154483039Y-105669685D02*
G01*
X154528794Y-105722489D01*
X154540000Y-105774000D01*
X154540000Y-107006000D01*
X154520315Y-107073039D01*
X154467511Y-107118794D01*
X154416000Y-107130000D01*
X152964000Y-107130000D01*
X152896961Y-107110315D01*
X152851206Y-107057511D01*
X152840000Y-107006000D01*
X152840000Y-105774000D01*
X152859685Y-105706961D01*
X152912489Y-105661206D01*
X152964000Y-105650000D01*
X154416000Y-105650000D01*
X154483039Y-105669685D01*
G37*
G36*
X159563039Y-105669685D02*
G01*
X159608794Y-105722489D01*
X159620000Y-105774000D01*
X159620000Y-107006000D01*
X159600315Y-107073039D01*
X159547511Y-107118794D01*
X159496000Y-107130000D01*
X158044000Y-107130000D01*
X157976961Y-107110315D01*
X157931206Y-107057511D01*
X157920000Y-107006000D01*
X157920000Y-105774000D01*
X157939685Y-105706961D01*
X157992489Y-105661206D01*
X158044000Y-105650000D01*
X159496000Y-105650000D01*
X159563039Y-105669685D01*
G37*
%LPD*%
M02*
