M48
; DRILL file {KiCad 8.0.2-1} date 2024-05-28T14:08:19-0700
; FORMAT={-:-/ absolute / inch / decimal}
; #@! TF.CreationDate,2024-05-28T14:08:19-07:00
; #@! TF.GenerationSoftware,Kicad,Pcbnew,8.0.2-1
; #@! TF.FileFunction,Plated,1,4,PTH
FMAT,2
INCH
; #@! TA.AperFunction,Plated,PTH,ComponentDrill
T1C0.0079
; #@! TA.AperFunction,Plated,PTH,ComponentDrill
T2C0.0118
; #@! TA.AperFunction,Plated,PTH,ComponentDrill
T3C0.0276
; #@! TA.AperFunction,Plated,PTH,ComponentDrill
T4C0.0350
; #@! TA.AperFunction,Plated,PTH,ComponentDrill
T5C0.0394
; #@! TA.AperFunction,Plated,PTH,ComponentDrill
T6C0.0433
; #@! TA.AperFunction,Plated,PTH,ComponentDrill
T7C0.0472
; #@! TA.AperFunction,Plated,PTH,ComponentDrill
T8C0.0520
; #@! TA.AperFunction,Plated,PTH,ComponentDrill
T9C0.0591
; #@! TA.AperFunction,Plated,PTH,ComponentDrill
T10C0.0630
; #@! TA.AperFunction,Plated,PTH,ComponentDrill
T11C0.0669
; #@! TA.AperFunction,Plated,PTH,ComponentDrill
T12C0.0937
; #@! TA.AperFunction,Plated,PTH,ComponentDrill
T13C0.1252
; #@! TA.AperFunction,Plated,PTH,ComponentDrill
T14C0.1398
%
G90
G05
T1
X7.4363Y-2.7874
X7.5114Y-2.7122
X7.5114Y-2.8626
X7.5866Y-2.7874
T2
X5.6217Y-2.7307
X5.6217Y-2.7818
X5.6217Y-2.833
X5.6217Y-2.8842
X5.6217Y-2.9354
X5.629Y-3.6057
X5.629Y-3.6568
X5.629Y-3.708
X5.629Y-3.7592
X5.629Y-3.8104
X5.6728Y-2.7307
X5.6728Y-2.7818
X5.6728Y-2.833
X5.6728Y-2.8842
X5.6728Y-2.9354
X5.6802Y-3.6057
X5.6802Y-3.6568
X5.6802Y-3.708
X5.6802Y-3.7592
X5.6802Y-3.8104
X5.724Y-2.7307
X5.724Y-2.7818
X5.724Y-2.833
X5.724Y-2.8842
X5.724Y-2.9354
X5.7314Y-3.6057
X5.7314Y-3.6568
X5.7314Y-3.708
X5.7314Y-3.7592
X5.7314Y-3.8104
T4
X7.6933Y-1.4894
X7.6933Y-1.5894
X7.6933Y-1.6894
X7.6933Y-1.7894
X7.7933Y-1.5394
X7.7933Y-1.6394
X7.7933Y-1.7394
X7.7933Y-1.8394
X8.176Y-1.4154
X8.176Y-1.8134
X8.2358Y-1.5154
X8.2358Y-1.9134
T5
X3.4356Y-3.9352
X3.4356Y-4.1352
X3.4856Y-3.8352
X3.4856Y-4.2352
X3.5856Y-3.8352
X3.5856Y-4.2352
X3.647Y-3.9352
X3.647Y-4.1352
X4.2485Y-5.2006
X4.3269Y-4.7469
X4.3485Y-5.2006
X4.5739Y-4.7617
X4.6448Y-4.5432
X5.0282Y-4.3396
X5.0282Y-4.4396
X5.0326Y-5.2016
X5.446Y-2.4634
X5.7127Y-4.3443
X6.0551Y-3.2077
X6.1133Y-3.7371
X6.7264Y-3.3907
X6.7392Y-4.4213
X6.9744Y-2.6348
X7.0984Y-4.7497
X7.122Y-3.6317
X7.122Y-3.7317
X7.122Y-3.8317
X7.122Y-3.9317
X7.122Y-4.0317
X7.122Y-4.1317
X7.187Y-2.1112
X7.287Y-2.1112
X7.387Y-2.1112
X7.487Y-2.1112
X7.587Y-2.1112
X7.687Y-2.1112
X7.7874Y-3.3061
T6
X3.2629Y-3.2646
X3.2629Y-3.4024
T7
X5.0282Y-3.7396
X5.0282Y-3.9396
T8
X4.0826Y-2.4936
X4.0826Y-5.3369
X4.8357Y-2.4936
X4.8357Y-5.3369
X5.7686Y-2.4906
X5.7686Y-5.3339
X6.5218Y-2.4906
X6.5218Y-5.3339
T9
X5.1596Y-2.2321
T10
X7.9228Y-1.3583
X7.9228Y-1.9705
T11
X5.0596Y-2.1321
X5.0596Y-2.3321
X5.2596Y-2.1321
X5.2596Y-2.3321
T12
X5.1653Y-5.3369
X6.8513Y-5.3339
T13
X4.4586Y-2.8286
X5.1487Y-2.8286
X6.1446Y-2.8256
X6.8348Y-2.8256
T14
X3.7708Y-5.0018
X4.4586Y-5.0018
X5.4568Y-4.9989
X6.1446Y-4.9989
T3
G00X8.3617Y-4.7411
M15
G01X8.3853Y-4.7411
M16
G05
G00X8.3617Y-5.0522
M15
G01X8.3853Y-5.0522
M16
G05
G00X8.4045Y-2.6068
M15
G01X8.4281Y-2.6068
M16
G05
G00X8.4045Y-2.9178
M15
G01X8.4281Y-2.9178
M16
G05
T5
G00X7.9055Y-5.6358
M15
G01X7.9055Y-5.5335
M16
G05
G00X7.9764Y-5.3957
M15
G01X8.063Y-5.3957
M16
G05
G00X8.1535Y-5.628
M15
G01X8.1535Y-5.5413
M16
G05
M30
