%TF.GenerationSoftware,KiCad,Pcbnew,8.0.2-1*%
%TF.CreationDate,2024-05-28T14:08:19-07:00*%
%TF.ProjectId,flat_sat_dev_board,666c6174-5f73-4617-945f-6465765f626f,rev?*%
%TF.SameCoordinates,Original*%
%TF.FileFunction,Profile,NP*%
%FSLAX46Y46*%
G04 Gerber Fmt 4.6, Leading zero omitted, Abs format (unit mm)*
G04 Created by KiCad (PCBNEW 8.0.2-1) date 2024-05-28 14:08:19*
%MOMM*%
%LPD*%
G01*
G04 APERTURE LIST*
%TA.AperFunction,Profile*%
%ADD10C,0.100000*%
%TD*%
%TA.AperFunction,Profile*%
%ADD11C,0.010000*%
%TD*%
G04 APERTURE END LIST*
D10*
X75850000Y-32950000D02*
X217475000Y-32950000D01*
X217475000Y-149100000D01*
X75850000Y-149100000D01*
X75850000Y-32950000D01*
D11*
%TO.C,J6*%
X214075000Y-67337500D02*
X214725000Y-67337500D01*
X214075000Y-68237500D02*
X214725000Y-68237500D01*
X214075000Y-72087500D02*
X214725000Y-72087500D01*
X214075000Y-72987500D02*
X214725000Y-72987500D01*
X215225000Y-65262500D02*
X215225000Y-66762500D01*
X215225000Y-66762500D02*
X214725000Y-67337500D01*
X215225000Y-68862500D02*
X214725000Y-68237500D01*
X215225000Y-70162500D02*
X215225000Y-68862500D01*
X215225000Y-70162500D02*
X215225000Y-71462500D01*
X215225000Y-71462500D02*
X214725000Y-72087500D01*
X215225000Y-73562500D02*
X214725000Y-72987500D01*
X215225000Y-75062500D02*
X215225000Y-73562500D01*
X214075000Y-68237500D02*
G75*
G02*
X214075000Y-67337500I0J450000D01*
G01*
X214075000Y-72987500D02*
G75*
G02*
X214075000Y-72087500I0J450000D01*
G01*
%TO.C,J36*%
X212987500Y-121550000D02*
X213637500Y-121550000D01*
X212987500Y-122450000D02*
X213637500Y-122450000D01*
X212987500Y-126300000D02*
X213637500Y-126300000D01*
X212987500Y-127200000D02*
X213637500Y-127200000D01*
X214137500Y-119475000D02*
X214137500Y-120975000D01*
X214137500Y-120975000D02*
X213637500Y-121550000D01*
X214137500Y-123075000D02*
X213637500Y-122450000D01*
X214137500Y-124375000D02*
X214137500Y-123075000D01*
X214137500Y-124375000D02*
X214137500Y-125675000D01*
X214137500Y-125675000D02*
X213637500Y-126300000D01*
X214137500Y-127775000D02*
X213637500Y-127200000D01*
X214137500Y-129275000D02*
X214137500Y-127775000D01*
X212987500Y-122450000D02*
G75*
G02*
X212987500Y-121550000I0J450000D01*
G01*
X212987500Y-127200000D02*
G75*
G02*
X212987500Y-126300000I0J450000D01*
G01*
%TD*%
M02*
