%TF.GenerationSoftware,KiCad,Pcbnew,8.0.2-1*%
%TF.CreationDate,2024-05-28T14:08:19-07:00*%
%TF.ProjectId,flat_sat_dev_board,666c6174-5f73-4617-945f-6465765f626f,rev?*%
%TF.SameCoordinates,Original*%
%TF.FileFunction,Copper,L1,Top*%
%TF.FilePolarity,Positive*%
%FSLAX46Y46*%
G04 Gerber Fmt 4.6, Leading zero omitted, Abs format (unit mm)*
G04 Created by KiCad (PCBNEW 8.0.2-1) date 2024-05-28 14:08:19*
%MOMM*%
%LPD*%
G01*
G04 APERTURE LIST*
G04 Aperture macros list*
%AMRoundRect*
0 Rectangle with rounded corners*
0 $1 Rounding radius*
0 $2 $3 $4 $5 $6 $7 $8 $9 X,Y pos of 4 corners*
0 Add a 4 corners polygon primitive as box body*
4,1,4,$2,$3,$4,$5,$6,$7,$8,$9,$2,$3,0*
0 Add four circle primitives for the rounded corners*
1,1,$1+$1,$2,$3*
1,1,$1+$1,$4,$5*
1,1,$1+$1,$6,$7*
1,1,$1+$1,$8,$9*
0 Add four rect primitives between the rounded corners*
20,1,$1+$1,$2,$3,$4,$5,0*
20,1,$1+$1,$4,$5,$6,$7,0*
20,1,$1+$1,$6,$7,$8,$9,0*
20,1,$1+$1,$8,$9,$2,$3,0*%
%AMRotRect*
0 Rectangle, with rotation*
0 The origin of the aperture is its center*
0 $1 length*
0 $2 width*
0 $3 Rotation angle, in degrees counterclockwise*
0 Add horizontal line*
21,1,$1,$2,0,0,$3*%
%AMFreePoly0*
4,1,19,0.550000,-0.750000,0.000000,-0.750000,0.000000,-0.744911,-0.071157,-0.744911,-0.207708,-0.704816,-0.327430,-0.627875,-0.420627,-0.520320,-0.479746,-0.390866,-0.500000,-0.250000,-0.500000,0.250000,-0.479746,0.390866,-0.420627,0.520320,-0.327430,0.627875,-0.207708,0.704816,-0.071157,0.744911,0.000000,0.744911,0.000000,0.750000,0.550000,0.750000,0.550000,-0.750000,0.550000,-0.750000,
$1*%
%AMFreePoly1*
4,1,19,0.000000,0.744911,0.071157,0.744911,0.207708,0.704816,0.327430,0.627875,0.420627,0.520320,0.479746,0.390866,0.500000,0.250000,0.500000,-0.250000,0.479746,-0.390866,0.420627,-0.520320,0.327430,-0.627875,0.207708,-0.704816,0.071157,-0.744911,0.000000,-0.744911,0.000000,-0.750000,-0.550000,-0.750000,-0.550000,0.750000,0.000000,0.750000,0.000000,0.744911,0.000000,0.744911,
$1*%
%AMFreePoly2*
4,1,19,0.500000,-0.750000,0.000000,-0.750000,0.000000,-0.744911,-0.071157,-0.744911,-0.207708,-0.704816,-0.327430,-0.627875,-0.420627,-0.520320,-0.479746,-0.390866,-0.500000,-0.250000,-0.500000,0.250000,-0.479746,0.390866,-0.420627,0.520320,-0.327430,0.627875,-0.207708,0.704816,-0.071157,0.744911,0.000000,0.744911,0.000000,0.750000,0.500000,0.750000,0.500000,-0.750000,0.500000,-0.750000,
$1*%
%AMFreePoly3*
4,1,19,0.000000,0.744911,0.071157,0.744911,0.207708,0.704816,0.327430,0.627875,0.420627,0.520320,0.479746,0.390866,0.500000,0.250000,0.500000,-0.250000,0.479746,-0.390866,0.420627,-0.520320,0.327430,-0.627875,0.207708,-0.704816,0.071157,-0.744911,0.000000,-0.744911,0.000000,-0.750000,-0.500000,-0.750000,-0.500000,0.750000,0.000000,0.750000,0.000000,0.744911,0.000000,0.744911,
$1*%
G04 Aperture macros list end*
%TA.AperFunction,SMDPad,CuDef*%
%ADD10FreePoly0,180.000000*%
%TD*%
%TA.AperFunction,SMDPad,CuDef*%
%ADD11R,1.000000X1.500000*%
%TD*%
%TA.AperFunction,SMDPad,CuDef*%
%ADD12FreePoly1,180.000000*%
%TD*%
%TA.AperFunction,SMDPad,CuDef*%
%ADD13RoundRect,0.250000X-1.000000X-0.900000X1.000000X-0.900000X1.000000X0.900000X-1.000000X0.900000X0*%
%TD*%
%TA.AperFunction,SMDPad,CuDef*%
%ADD14RoundRect,0.225000X-0.225000X-0.250000X0.225000X-0.250000X0.225000X0.250000X-0.225000X0.250000X0*%
%TD*%
%TA.AperFunction,SMDPad,CuDef*%
%ADD15RoundRect,0.150000X0.150000X0.625000X-0.150000X0.625000X-0.150000X-0.625000X0.150000X-0.625000X0*%
%TD*%
%TA.AperFunction,SMDPad,CuDef*%
%ADD16RoundRect,0.250000X0.350000X0.650000X-0.350000X0.650000X-0.350000X-0.650000X0.350000X-0.650000X0*%
%TD*%
%TA.AperFunction,SMDPad,CuDef*%
%ADD17RoundRect,0.140000X-0.219203X-0.021213X-0.021213X-0.219203X0.219203X0.021213X0.021213X0.219203X0*%
%TD*%
%TA.AperFunction,SMDPad,CuDef*%
%ADD18RoundRect,0.200000X-0.335876X-0.053033X-0.053033X-0.335876X0.335876X0.053033X0.053033X0.335876X0*%
%TD*%
%TA.AperFunction,SMDPad,CuDef*%
%ADD19RotRect,0.900000X0.900000X315.000000*%
%TD*%
%TA.AperFunction,SMDPad,CuDef*%
%ADD20RoundRect,0.200000X0.275000X-0.200000X0.275000X0.200000X-0.275000X0.200000X-0.275000X-0.200000X0*%
%TD*%
%TA.AperFunction,SMDPad,CuDef*%
%ADD21RoundRect,0.140000X-0.021213X0.219203X-0.219203X0.021213X0.021213X-0.219203X0.219203X-0.021213X0*%
%TD*%
%TA.AperFunction,SMDPad,CuDef*%
%ADD22R,0.600000X1.000000*%
%TD*%
%TA.AperFunction,SMDPad,CuDef*%
%ADD23R,1.250000X1.800000*%
%TD*%
%TA.AperFunction,SMDPad,CuDef*%
%ADD24FreePoly2,0.000000*%
%TD*%
%TA.AperFunction,SMDPad,CuDef*%
%ADD25FreePoly3,0.000000*%
%TD*%
%TA.AperFunction,ComponentPad*%
%ADD26C,2.000000*%
%TD*%
%TA.AperFunction,ComponentPad*%
%ADD27C,1.800000*%
%TD*%
%TA.AperFunction,SMDPad,CuDef*%
%ADD28RoundRect,0.140000X0.140000X0.170000X-0.140000X0.170000X-0.140000X-0.170000X0.140000X-0.170000X0*%
%TD*%
%TA.AperFunction,SMDPad,CuDef*%
%ADD29RoundRect,0.218750X-0.256250X0.218750X-0.256250X-0.218750X0.256250X-0.218750X0.256250X0.218750X0*%
%TD*%
%TA.AperFunction,SMDPad,CuDef*%
%ADD30RoundRect,0.200000X-0.275000X0.200000X-0.275000X-0.200000X0.275000X-0.200000X0.275000X0.200000X0*%
%TD*%
%TA.AperFunction,SMDPad,CuDef*%
%ADD31RoundRect,0.100000X0.225000X0.100000X-0.225000X0.100000X-0.225000X-0.100000X0.225000X-0.100000X0*%
%TD*%
%TA.AperFunction,SMDPad,CuDef*%
%ADD32RoundRect,0.200000X-0.200000X-0.275000X0.200000X-0.275000X0.200000X0.275000X-0.200000X0.275000X0*%
%TD*%
%TA.AperFunction,SMDPad,CuDef*%
%ADD33R,1.000000X0.600000*%
%TD*%
%TA.AperFunction,SMDPad,CuDef*%
%ADD34R,1.800000X1.250000*%
%TD*%
%TA.AperFunction,SMDPad,CuDef*%
%ADD35RoundRect,0.150000X-0.825000X-0.150000X0.825000X-0.150000X0.825000X0.150000X-0.825000X0.150000X0*%
%TD*%
%TA.AperFunction,SMDPad,CuDef*%
%ADD36RoundRect,0.140000X-0.170000X0.140000X-0.170000X-0.140000X0.170000X-0.140000X0.170000X0.140000X0*%
%TD*%
%TA.AperFunction,SMDPad,CuDef*%
%ADD37RoundRect,0.250000X0.950000X0.500000X-0.950000X0.500000X-0.950000X-0.500000X0.950000X-0.500000X0*%
%TD*%
%TA.AperFunction,SMDPad,CuDef*%
%ADD38RoundRect,0.250000X0.275000X0.500000X-0.275000X0.500000X-0.275000X-0.500000X0.275000X-0.500000X0*%
%TD*%
%TA.AperFunction,SMDPad,CuDef*%
%ADD39RoundRect,0.100000X0.155000X0.100000X-0.155000X0.100000X-0.155000X-0.100000X0.155000X-0.100000X0*%
%TD*%
%TA.AperFunction,SMDPad,CuDef*%
%ADD40RoundRect,0.200000X0.335876X0.053033X0.053033X0.335876X-0.335876X-0.053033X-0.053033X-0.335876X0*%
%TD*%
%TA.AperFunction,SMDPad,CuDef*%
%ADD41RoundRect,0.075000X0.437500X0.075000X-0.437500X0.075000X-0.437500X-0.075000X0.437500X-0.075000X0*%
%TD*%
%TA.AperFunction,SMDPad,CuDef*%
%ADD42RoundRect,0.075000X0.075000X0.437500X-0.075000X0.437500X-0.075000X-0.437500X0.075000X-0.437500X0*%
%TD*%
%TA.AperFunction,HeatsinkPad*%
%ADD43R,4.250000X4.250000*%
%TD*%
%TA.AperFunction,SMDPad,CuDef*%
%ADD44RoundRect,0.225000X0.250000X-0.225000X0.250000X0.225000X-0.250000X0.225000X-0.250000X-0.225000X0*%
%TD*%
%TA.AperFunction,SMDPad,CuDef*%
%ADD45RoundRect,0.150000X0.662500X0.150000X-0.662500X0.150000X-0.662500X-0.150000X0.662500X-0.150000X0*%
%TD*%
%TA.AperFunction,HeatsinkPad*%
%ADD46R,2.514000X3.200000*%
%TD*%
%TA.AperFunction,SMDPad,CuDef*%
%ADD47RoundRect,0.100000X-0.687500X-0.100000X0.687500X-0.100000X0.687500X0.100000X-0.687500X0.100000X0*%
%TD*%
%TA.AperFunction,HeatsinkPad*%
%ADD48C,0.600000*%
%TD*%
%TA.AperFunction,HeatsinkPad*%
%ADD49R,3.400000X5.000000*%
%TD*%
%TA.AperFunction,SMDPad,CuDef*%
%ADD50RoundRect,0.150000X0.512500X0.150000X-0.512500X0.150000X-0.512500X-0.150000X0.512500X-0.150000X0*%
%TD*%
%TA.AperFunction,SMDPad,CuDef*%
%ADD51RoundRect,0.150000X-0.150000X-0.625000X0.150000X-0.625000X0.150000X0.625000X-0.150000X0.625000X0*%
%TD*%
%TA.AperFunction,SMDPad,CuDef*%
%ADD52RoundRect,0.250000X-0.350000X-0.650000X0.350000X-0.650000X0.350000X0.650000X-0.350000X0.650000X0*%
%TD*%
%TA.AperFunction,SMDPad,CuDef*%
%ADD53RoundRect,0.140000X-0.140000X-0.170000X0.140000X-0.170000X0.140000X0.170000X-0.140000X0.170000X0*%
%TD*%
%TA.AperFunction,SMDPad,CuDef*%
%ADD54RoundRect,0.087500X0.087500X-0.587500X0.087500X0.587500X-0.087500X0.587500X-0.087500X-0.587500X0*%
%TD*%
%TA.AperFunction,HeatsinkPad*%
%ADD55R,3.000000X2.500000*%
%TD*%
%TA.AperFunction,SMDPad,CuDef*%
%ADD56RoundRect,0.250000X-0.250000X-0.475000X0.250000X-0.475000X0.250000X0.475000X-0.250000X0.475000X0*%
%TD*%
%TA.AperFunction,SMDPad,CuDef*%
%ADD57RoundRect,0.150000X0.587500X0.150000X-0.587500X0.150000X-0.587500X-0.150000X0.587500X-0.150000X0*%
%TD*%
%TA.AperFunction,SMDPad,CuDef*%
%ADD58RoundRect,0.140000X0.219203X0.021213X0.021213X0.219203X-0.219203X-0.021213X-0.021213X-0.219203X0*%
%TD*%
%TA.AperFunction,SMDPad,CuDef*%
%ADD59RoundRect,0.225000X0.225000X0.250000X-0.225000X0.250000X-0.225000X-0.250000X0.225000X-0.250000X0*%
%TD*%
%TA.AperFunction,SMDPad,CuDef*%
%ADD60RoundRect,0.135000X0.226274X0.035355X0.035355X0.226274X-0.226274X-0.035355X-0.035355X-0.226274X0*%
%TD*%
%TA.AperFunction,SMDPad,CuDef*%
%ADD61RotRect,0.800000X0.500000X315.000000*%
%TD*%
%TA.AperFunction,SMDPad,CuDef*%
%ADD62RotRect,0.800000X0.400000X315.000000*%
%TD*%
%TA.AperFunction,SMDPad,CuDef*%
%ADD63RoundRect,0.250000X1.425000X-0.362500X1.425000X0.362500X-1.425000X0.362500X-1.425000X-0.362500X0*%
%TD*%
%TA.AperFunction,SMDPad,CuDef*%
%ADD64RoundRect,0.150000X0.150000X-0.512500X0.150000X0.512500X-0.150000X0.512500X-0.150000X-0.512500X0*%
%TD*%
%TA.AperFunction,SMDPad,CuDef*%
%ADD65RoundRect,0.100000X-0.225000X-0.100000X0.225000X-0.100000X0.225000X0.100000X-0.225000X0.100000X0*%
%TD*%
%TA.AperFunction,SMDPad,CuDef*%
%ADD66R,1.100000X0.400000*%
%TD*%
%TA.AperFunction,SMDPad,CuDef*%
%ADD67R,0.850000X1.100000*%
%TD*%
%TA.AperFunction,SMDPad,CuDef*%
%ADD68R,0.750000X1.100000*%
%TD*%
%TA.AperFunction,SMDPad,CuDef*%
%ADD69R,1.200000X1.000000*%
%TD*%
%TA.AperFunction,SMDPad,CuDef*%
%ADD70R,1.550000X1.350000*%
%TD*%
%TA.AperFunction,SMDPad,CuDef*%
%ADD71R,1.900000X1.350000*%
%TD*%
%TA.AperFunction,SMDPad,CuDef*%
%ADD72R,1.170000X1.800000*%
%TD*%
%TA.AperFunction,SMDPad,CuDef*%
%ADD73RoundRect,0.075000X0.662500X0.075000X-0.662500X0.075000X-0.662500X-0.075000X0.662500X-0.075000X0*%
%TD*%
%TA.AperFunction,SMDPad,CuDef*%
%ADD74RoundRect,0.075000X0.075000X0.662500X-0.075000X0.662500X-0.075000X-0.662500X0.075000X-0.662500X0*%
%TD*%
%TA.AperFunction,SMDPad,CuDef*%
%ADD75RoundRect,0.075000X0.075000X-0.650000X0.075000X0.650000X-0.075000X0.650000X-0.075000X-0.650000X0*%
%TD*%
%TA.AperFunction,SMDPad,CuDef*%
%ADD76RoundRect,0.150000X-0.565685X0.353553X0.353553X-0.565685X0.565685X-0.353553X-0.353553X0.565685X0*%
%TD*%
%TA.AperFunction,SMDPad,CuDef*%
%ADD77RoundRect,0.225000X0.017678X-0.335876X0.335876X-0.017678X-0.017678X0.335876X-0.335876X0.017678X0*%
%TD*%
%TA.AperFunction,SMDPad,CuDef*%
%ADD78RoundRect,0.150000X0.406586X0.618718X-0.618718X-0.406586X-0.406586X-0.618718X0.618718X0.406586X0*%
%TD*%
%TA.AperFunction,SMDPad,CuDef*%
%ADD79RoundRect,0.218750X-0.218750X-0.256250X0.218750X-0.256250X0.218750X0.256250X-0.218750X0.256250X0*%
%TD*%
%TA.AperFunction,SMDPad,CuDef*%
%ADD80RoundRect,0.250000X1.000000X0.900000X-1.000000X0.900000X-1.000000X-0.900000X1.000000X-0.900000X0*%
%TD*%
%TA.AperFunction,SMDPad,CuDef*%
%ADD81RoundRect,0.140000X0.021213X-0.219203X0.219203X-0.021213X-0.021213X0.219203X-0.219203X0.021213X0*%
%TD*%
%TA.AperFunction,SMDPad,CuDef*%
%ADD82RoundRect,0.225000X-0.250000X0.225000X-0.250000X-0.225000X0.250000X-0.225000X0.250000X0.225000X0*%
%TD*%
%TA.AperFunction,SMDPad,CuDef*%
%ADD83RoundRect,0.200000X0.200000X0.275000X-0.200000X0.275000X-0.200000X-0.275000X0.200000X-0.275000X0*%
%TD*%
%TA.AperFunction,SMDPad,CuDef*%
%ADD84RoundRect,0.237500X0.287500X0.237500X-0.287500X0.237500X-0.287500X-0.237500X0.287500X-0.237500X0*%
%TD*%
%TA.AperFunction,SMDPad,CuDef*%
%ADD85RoundRect,0.250000X-0.475000X0.250000X-0.475000X-0.250000X0.475000X-0.250000X0.475000X0.250000X0*%
%TD*%
%TA.AperFunction,SMDPad,CuDef*%
%ADD86RoundRect,0.075000X0.650000X0.075000X-0.650000X0.075000X-0.650000X-0.075000X0.650000X-0.075000X0*%
%TD*%
%TA.AperFunction,SMDPad,CuDef*%
%ADD87RoundRect,0.150000X0.625000X-0.150000X0.625000X0.150000X-0.625000X0.150000X-0.625000X-0.150000X0*%
%TD*%
%TA.AperFunction,SMDPad,CuDef*%
%ADD88RoundRect,0.250000X0.650000X-0.350000X0.650000X0.350000X-0.650000X0.350000X-0.650000X-0.350000X0*%
%TD*%
%TA.AperFunction,SMDPad,CuDef*%
%ADD89RotRect,0.800000X0.500000X135.000000*%
%TD*%
%TA.AperFunction,SMDPad,CuDef*%
%ADD90RotRect,0.800000X0.400000X135.000000*%
%TD*%
%TA.AperFunction,SMDPad,CuDef*%
%ADD91R,1.600000X0.700000*%
%TD*%
%TA.AperFunction,SMDPad,CuDef*%
%ADD92RoundRect,0.250000X0.475000X-0.250000X0.475000X0.250000X-0.475000X0.250000X-0.475000X-0.250000X0*%
%TD*%
%TA.AperFunction,SMDPad,CuDef*%
%ADD93RoundRect,0.225000X-0.017678X0.335876X-0.335876X0.017678X0.017678X-0.335876X0.335876X-0.017678X0*%
%TD*%
%TA.AperFunction,SMDPad,CuDef*%
%ADD94R,0.375000X0.350000*%
%TD*%
%TA.AperFunction,SMDPad,CuDef*%
%ADD95R,0.350000X0.375000*%
%TD*%
%TA.AperFunction,SMDPad,CuDef*%
%ADD96RoundRect,0.100000X-0.625000X-0.100000X0.625000X-0.100000X0.625000X0.100000X-0.625000X0.100000X0*%
%TD*%
%TA.AperFunction,HeatsinkPad*%
%ADD97R,1.650000X2.850000*%
%TD*%
%TA.AperFunction,ComponentPad*%
%ADD98R,1.700000X1.700000*%
%TD*%
%TA.AperFunction,ComponentPad*%
%ADD99O,1.700000X1.700000*%
%TD*%
%TA.AperFunction,SMDPad,CuDef*%
%ADD100RoundRect,0.087500X0.587500X0.087500X-0.587500X0.087500X-0.587500X-0.087500X0.587500X-0.087500X0*%
%TD*%
%TA.AperFunction,HeatsinkPad*%
%ADD101R,2.500000X3.000000*%
%TD*%
%TA.AperFunction,SMDPad,CuDef*%
%ADD102RoundRect,0.250000X-0.325000X-1.100000X0.325000X-1.100000X0.325000X1.100000X-0.325000X1.100000X0*%
%TD*%
%TA.AperFunction,SMDPad,CuDef*%
%ADD103RoundRect,0.250000X-0.312500X-1.450000X0.312500X-1.450000X0.312500X1.450000X-0.312500X1.450000X0*%
%TD*%
%TA.AperFunction,SMDPad,CuDef*%
%ADD104R,0.700000X1.600000*%
%TD*%
%TA.AperFunction,SMDPad,CuDef*%
%ADD105R,0.600000X1.550000*%
%TD*%
%TA.AperFunction,SMDPad,CuDef*%
%ADD106R,1.200000X1.800000*%
%TD*%
%TA.AperFunction,SMDPad,CuDef*%
%ADD107RoundRect,0.250000X-1.450000X0.312500X-1.450000X-0.312500X1.450000X-0.312500X1.450000X0.312500X0*%
%TD*%
%TA.AperFunction,SMDPad,CuDef*%
%ADD108RoundRect,0.125000X-0.176777X0.000000X0.000000X-0.176777X0.176777X0.000000X0.000000X0.176777X0*%
%TD*%
%TA.AperFunction,SMDPad,CuDef*%
%ADD109R,0.800000X0.500000*%
%TD*%
%TA.AperFunction,SMDPad,CuDef*%
%ADD110R,0.800000X0.400000*%
%TD*%
%TA.AperFunction,SMDPad,CuDef*%
%ADD111RoundRect,0.250000X-0.362500X-1.425000X0.362500X-1.425000X0.362500X1.425000X-0.362500X1.425000X0*%
%TD*%
%TA.AperFunction,SMDPad,CuDef*%
%ADD112RoundRect,0.250000X-1.425000X0.362500X-1.425000X-0.362500X1.425000X-0.362500X1.425000X0.362500X0*%
%TD*%
%TA.AperFunction,SMDPad,CuDef*%
%ADD113R,1.500000X0.900000*%
%TD*%
%TA.AperFunction,SMDPad,CuDef*%
%ADD114R,1.200000X1.400000*%
%TD*%
%TA.AperFunction,SMDPad,CuDef*%
%ADD115RoundRect,0.200000X-0.053033X0.335876X-0.335876X0.053033X0.053033X-0.335876X0.335876X-0.053033X0*%
%TD*%
%TA.AperFunction,SMDPad,CuDef*%
%ADD116R,1.380000X0.450000*%
%TD*%
%TA.AperFunction,ComponentPad*%
%ADD117O,2.416000X1.208000*%
%TD*%
%TA.AperFunction,SMDPad,CuDef*%
%ADD118R,2.100000X1.475000*%
%TD*%
%TA.AperFunction,SMDPad,CuDef*%
%ADD119R,1.900000X1.375000*%
%TD*%
%TA.AperFunction,SMDPad,CuDef*%
%ADD120RoundRect,0.140000X0.170000X-0.140000X0.170000X0.140000X-0.170000X0.140000X-0.170000X-0.140000X0*%
%TD*%
%TA.AperFunction,SMDPad,CuDef*%
%ADD121RoundRect,0.250000X-1.100000X0.325000X-1.100000X-0.325000X1.100000X-0.325000X1.100000X0.325000X0*%
%TD*%
%TA.AperFunction,SMDPad,CuDef*%
%ADD122RoundRect,0.087500X-0.225000X-0.087500X0.225000X-0.087500X0.225000X0.087500X-0.225000X0.087500X0*%
%TD*%
%TA.AperFunction,SMDPad,CuDef*%
%ADD123RoundRect,0.087500X-0.087500X-0.225000X0.087500X-0.225000X0.087500X0.225000X-0.087500X0.225000X0*%
%TD*%
%TA.AperFunction,ComponentPad*%
%ADD124R,1.508000X1.508000*%
%TD*%
%TA.AperFunction,ComponentPad*%
%ADD125C,1.508000*%
%TD*%
%TA.AperFunction,SMDPad,CuDef*%
%ADD126RoundRect,0.250000X0.500000X-0.950000X0.500000X0.950000X-0.500000X0.950000X-0.500000X-0.950000X0*%
%TD*%
%TA.AperFunction,SMDPad,CuDef*%
%ADD127RoundRect,0.250000X0.500000X-0.275000X0.500000X0.275000X-0.500000X0.275000X-0.500000X-0.275000X0*%
%TD*%
%TA.AperFunction,SMDPad,CuDef*%
%ADD128RoundRect,0.218750X0.218750X0.256250X-0.218750X0.256250X-0.218750X-0.256250X0.218750X-0.256250X0*%
%TD*%
%TA.AperFunction,SMDPad,CuDef*%
%ADD129R,0.250000X1.100000*%
%TD*%
%TA.AperFunction,SMDPad,CuDef*%
%ADD130RoundRect,0.150000X-0.512500X-0.150000X0.512500X-0.150000X0.512500X0.150000X-0.512500X0.150000X0*%
%TD*%
%TA.AperFunction,SMDPad,CuDef*%
%ADD131RoundRect,0.075000X-0.437500X-0.075000X0.437500X-0.075000X0.437500X0.075000X-0.437500X0.075000X0*%
%TD*%
%TA.AperFunction,SMDPad,CuDef*%
%ADD132RoundRect,0.075000X-0.075000X-0.437500X0.075000X-0.437500X0.075000X0.437500X-0.075000X0.437500X0*%
%TD*%
%TA.AperFunction,SMDPad,CuDef*%
%ADD133RoundRect,0.125000X0.176777X0.000000X0.000000X0.176777X-0.176777X0.000000X0.000000X-0.176777X0*%
%TD*%
%TA.AperFunction,SMDPad,CuDef*%
%ADD134RoundRect,0.150000X0.150000X-0.587500X0.150000X0.587500X-0.150000X0.587500X-0.150000X-0.587500X0*%
%TD*%
%TA.AperFunction,SMDPad,CuDef*%
%ADD135RoundRect,0.250000X0.250000X0.475000X-0.250000X0.475000X-0.250000X-0.475000X0.250000X-0.475000X0*%
%TD*%
%TA.AperFunction,SMDPad,CuDef*%
%ADD136RoundRect,0.225000X-0.335876X-0.017678X-0.017678X-0.335876X0.335876X0.017678X0.017678X0.335876X0*%
%TD*%
%TA.AperFunction,SMDPad,CuDef*%
%ADD137RoundRect,0.250000X-1.025305X0.318198X0.318198X-1.025305X1.025305X-0.318198X-0.318198X1.025305X0*%
%TD*%
%TA.AperFunction,SMDPad,CuDef*%
%ADD138RoundRect,0.250000X-0.548008X-0.159099X-0.159099X-0.548008X0.548008X0.159099X0.159099X0.548008X0*%
%TD*%
%TA.AperFunction,SMDPad,CuDef*%
%ADD139RoundRect,0.150000X-0.150000X0.512500X-0.150000X-0.512500X0.150000X-0.512500X0.150000X0.512500X0*%
%TD*%
%TA.AperFunction,SMDPad,CuDef*%
%ADD140RoundRect,0.050000X-0.309359X0.238649X0.238649X-0.309359X0.309359X-0.238649X-0.238649X0.309359X0*%
%TD*%
%TA.AperFunction,SMDPad,CuDef*%
%ADD141RoundRect,0.050000X-0.309359X-0.238649X-0.238649X-0.309359X0.309359X0.238649X0.238649X0.309359X0*%
%TD*%
%TA.AperFunction,HeatsinkPad*%
%ADD142RotRect,3.200000X3.200000X315.000000*%
%TD*%
%TA.AperFunction,SMDPad,CuDef*%
%ADD143R,1.000000X1.150000*%
%TD*%
%TA.AperFunction,SMDPad,CuDef*%
%ADD144RoundRect,0.100000X0.100000X-0.712500X0.100000X0.712500X-0.100000X0.712500X-0.100000X-0.712500X0*%
%TD*%
%TA.AperFunction,HeatsinkPad*%
%ADD145C,0.500000*%
%TD*%
%TA.AperFunction,SMDPad,CuDef*%
%ADD146RoundRect,0.150000X0.350000X-0.150000X0.350000X0.150000X-0.350000X0.150000X-0.350000X-0.150000X0*%
%TD*%
%TA.AperFunction,SMDPad,CuDef*%
%ADD147RoundRect,0.250000X0.650000X-0.375000X0.650000X0.375000X-0.650000X0.375000X-0.650000X-0.375000X0*%
%TD*%
%TA.AperFunction,SMDPad,CuDef*%
%ADD148RoundRect,0.250000X-0.500000X0.950000X-0.500000X-0.950000X0.500000X-0.950000X0.500000X0.950000X0*%
%TD*%
%TA.AperFunction,SMDPad,CuDef*%
%ADD149RoundRect,0.250000X-0.500000X0.275000X-0.500000X-0.275000X0.500000X-0.275000X0.500000X0.275000X0*%
%TD*%
%TA.AperFunction,SMDPad,CuDef*%
%ADD150R,0.500000X0.800000*%
%TD*%
%TA.AperFunction,SMDPad,CuDef*%
%ADD151R,0.400000X0.800000*%
%TD*%
%TA.AperFunction,SMDPad,CuDef*%
%ADD152RoundRect,0.100000X-0.100000X0.225000X-0.100000X-0.225000X0.100000X-0.225000X0.100000X0.225000X0*%
%TD*%
%TA.AperFunction,SMDPad,CuDef*%
%ADD153RoundRect,0.100000X-0.521491X0.380070X0.380070X-0.521491X0.521491X-0.380070X-0.380070X0.521491X0*%
%TD*%
%TA.AperFunction,ComponentPad*%
%ADD154R,2.000000X4.600000*%
%TD*%
%TA.AperFunction,ComponentPad*%
%ADD155O,2.000000X4.200000*%
%TD*%
%TA.AperFunction,ComponentPad*%
%ADD156O,4.200000X2.000000*%
%TD*%
%TA.AperFunction,SMDPad,CuDef*%
%ADD157RotRect,1.150000X1.000000X315.000000*%
%TD*%
%TA.AperFunction,SMDPad,CuDef*%
%ADD158RoundRect,0.250000X0.325000X1.100000X-0.325000X1.100000X-0.325000X-1.100000X0.325000X-1.100000X0*%
%TD*%
%TA.AperFunction,SMDPad,CuDef*%
%ADD159RotRect,0.600000X1.550000X225.000000*%
%TD*%
%TA.AperFunction,SMDPad,CuDef*%
%ADD160RotRect,1.200000X1.800000X225.000000*%
%TD*%
%TA.AperFunction,SMDPad,CuDef*%
%ADD161RotRect,0.600000X1.550000X135.000000*%
%TD*%
%TA.AperFunction,SMDPad,CuDef*%
%ADD162RotRect,1.200000X1.800000X135.000000*%
%TD*%
%TA.AperFunction,ComponentPad*%
%ADD163C,1.397000*%
%TD*%
%TA.AperFunction,ComponentPad*%
%ADD164C,2.108200*%
%TD*%
%TA.AperFunction,ComponentPad*%
%ADD165C,4.770000*%
%TD*%
%TA.AperFunction,ComponentPad*%
%ADD166C,5.325000*%
%TD*%
%TA.AperFunction,ComponentPad*%
%ADD167C,3.570000*%
%TD*%
%TA.AperFunction,ComponentPad*%
%ADD168C,1.980000*%
%TD*%
%TA.AperFunction,ComponentPad*%
%ADD169C,2.050000*%
%TD*%
%TA.AperFunction,ComponentPad*%
%ADD170C,2.250000*%
%TD*%
G04 APERTURE END LIST*
D10*
%TO.P,JP2,1,A*%
%TO.N,FC_SCL0*%
X204275000Y-96150000D03*
D11*
%TO.P,JP2,2,C*%
%TO.N,Net-(J9-Pin_7)*%
X202975000Y-96150000D03*
D12*
%TO.P,JP2,3,B*%
%TO.N,/Flight Computer Stuff/BURN_RELAY_A {slash} D5*%
X201675000Y-96150000D03*
%TD*%
D13*
%TO.P,D8,1,K*%
%TO.N,Net-(D6-K)*%
X157452817Y-136971446D03*
%TO.P,D8,2,A*%
%TO.N,+9V*%
X161752817Y-136971446D03*
%TD*%
D14*
%TO.P,C67,1*%
%TO.N,GND*%
X138627817Y-139363946D03*
%TO.P,C67,2*%
%TO.N,+3V3*%
X140177817Y-139363946D03*
%TD*%
D15*
%TO.P,J8,1,Pin_1*%
%TO.N,GND*%
X186125000Y-38325000D03*
%TO.P,J8,2,Pin_2*%
%TO.N,+3V3*%
X185125000Y-38325000D03*
%TO.P,J8,3,Pin_3*%
%TO.N,/Flight Computer Stuff/SDA1*%
X184125000Y-38325000D03*
%TO.P,J8,4,Pin_4*%
%TO.N,/Flight Computer Stuff/SCL1*%
X183125000Y-38325000D03*
D16*
%TO.P,J8,MP*%
%TO.N,N/C*%
X187425000Y-34450000D03*
X181825000Y-34450000D03*
%TD*%
D17*
%TO.P,C77,1,1*%
%TO.N,GND*%
X188110589Y-126685589D03*
%TO.P,C77,2,2*%
%TO.N,Net-(IC5-XIN)*%
X188789411Y-127364411D03*
%TD*%
D18*
%TO.P,R5,1*%
%TO.N,FC_RESET*%
X194041637Y-79316637D03*
%TO.P,R5,2*%
%TO.N,Net-(U2-~{RESET})*%
X195208363Y-80483363D03*
%TD*%
D19*
%TO.P,SW4,A,P*%
%TO.N,/Electrical Power System Stuff/~{RESET}*%
X198355508Y-138386395D03*
%TO.P,SW4,A',P1*%
X195456371Y-135487258D03*
%TO.P,SW4,B,S*%
%TO.N,GND*%
X197224137Y-139517766D03*
%TO.P,SW4,B',S1*%
X194325000Y-136618629D03*
%TD*%
D20*
%TO.P,R86,1*%
%TO.N,VBUSP*%
X136452817Y-78633946D03*
%TO.P,R86,2*%
%TO.N,Net-(Q12A-C1)*%
X136452817Y-76983946D03*
%TD*%
D21*
%TO.P,C88,1,1*%
%TO.N,+3V3*%
X190389411Y-130435589D03*
%TO.P,C88,2,2*%
%TO.N,GND*%
X189710589Y-131114411D03*
%TD*%
D22*
%TO.P,J17,1,Pin_1*%
%TO.N,VBatt*%
X93432817Y-140718946D03*
%TO.P,J17,2,Pin_2*%
%TO.N,Net-(J17-Pin_2)*%
X94932817Y-140718946D03*
D23*
%TO.P,J17,S1*%
%TO.N,N/C*%
X90827817Y-145908946D03*
%TO.P,J17,S2*%
X97537817Y-145908946D03*
%TD*%
D24*
%TO.P,JP8,1,A*%
%TO.N,GND*%
X147675002Y-55412500D03*
D25*
%TO.P,JP8,2,B*%
%TO.N,Net-(JP8-B)*%
X148975000Y-55412500D03*
%TD*%
D20*
%TO.P,FB2,1*%
%TO.N,+3V3*%
X160750000Y-50212500D03*
%TO.P,FB2,2*%
%TO.N,VDDA*%
X160750000Y-48562500D03*
%TD*%
D26*
%TO.P,TP10,1,1*%
%TO.N,GND*%
X109902817Y-120571446D03*
%TD*%
D14*
%TO.P,C92,1*%
%TO.N,Net-(Q12A-C1)*%
X137952817Y-77058946D03*
%TO.P,C92,2*%
%TO.N,Net-(Q11B-B2)*%
X139502817Y-77058946D03*
%TD*%
D27*
%TO.P,J34,1,Pin_1*%
%TO.N,Net-(J34-Pin_1)*%
X82877817Y-86421446D03*
%TO.P,J34,2,Pin_2*%
%TO.N,Net-(J34-Pin_2)*%
X82877817Y-82921446D03*
%TD*%
D28*
%TO.P,C4,1,1*%
%TO.N,/Flight Computer Stuff/RCT*%
X190855000Y-41725000D03*
%TO.P,C4,2,2*%
%TO.N,GNDA*%
X189895000Y-41725000D03*
%TD*%
D29*
%TO.P,D18,1,K*%
%TO.N,GND*%
X126850000Y-35337499D03*
%TO.P,D18,2,A*%
%TO.N,Net-(D18-A)*%
X126850000Y-36912501D03*
%TD*%
D28*
%TO.P,C6,1,1*%
%TO.N,Net-(C6-Pad1)*%
X191605000Y-36575000D03*
%TO.P,C6,2,2*%
%TO.N,/Flight Computer Stuff/RX-*%
X190645000Y-36575000D03*
%TD*%
D30*
%TO.P,R88,1*%
%TO.N,Net-(Q12B-B2)*%
X147452817Y-78383946D03*
%TO.P,R88,2*%
%TO.N,/Electrical Power System Stuff/VBUS_RESET*%
X147452817Y-80033946D03*
%TD*%
D31*
%TO.P,Q11,1,E1*%
%TO.N,GND*%
X142827817Y-76821446D03*
%TO.P,Q11,2,B1*%
%TO.N,Net-(Q11A-B1)*%
X142827816Y-76171446D03*
%TO.P,Q11,3,C2*%
X142827817Y-75521446D03*
%TO.P,Q11,4,E2*%
%TO.N,GND*%
X140927817Y-75521446D03*
%TO.P,Q11,5,B2*%
%TO.N,Net-(Q11B-B2)*%
X140927818Y-76171446D03*
%TO.P,Q11,6,C1*%
%TO.N,/Electrical Power System Stuff/3V3_EN*%
X140927817Y-76821446D03*
%TD*%
D32*
%TO.P,R53,1,1*%
%TO.N,Net-(Q10-Gate)*%
X114992501Y-96200000D03*
%TO.P,R53,2,2*%
%TO.N,PACK+*%
X116642501Y-96200000D03*
%TD*%
D19*
%TO.P,SW1,A,P*%
%TO.N,/Flight Computer Stuff/D3*%
X182115254Y-72433883D03*
%TO.P,SW1,A',P1*%
X179216117Y-69534746D03*
%TO.P,SW1,B,S*%
%TO.N,GND*%
X180983883Y-73565254D03*
%TO.P,SW1,B',S1*%
X178084746Y-70666117D03*
%TD*%
D33*
%TO.P,J26,1,Pin_1*%
%TO.N,/Electrical Power System Stuff/Jetson_pwr*%
X84827501Y-93450000D03*
%TO.P,J26,2,Pin_2*%
%TO.N,GND*%
X84827501Y-94950000D03*
D34*
%TO.P,J26,S1*%
%TO.N,N/C*%
X79637500Y-90845000D03*
%TO.P,J26,S2*%
X79637500Y-97555000D03*
%TD*%
D19*
%TO.P,SW3,A,P*%
%TO.N,/Electrical Power System Stuff/USBBOOT*%
X185790254Y-124577512D03*
%TO.P,SW3,A',P1*%
X182891117Y-121678375D03*
%TO.P,SW3,B,S*%
%TO.N,GND*%
X184658883Y-125708883D03*
%TO.P,SW3,B',S1*%
X181759746Y-122809746D03*
%TD*%
D35*
%TO.P,Q8,1,S*%
%TO.N,PACK-*%
X126777817Y-119506446D03*
%TO.P,Q8,2,S*%
X126777817Y-120776446D03*
%TO.P,Q8,3,S*%
X126777817Y-122046446D03*
%TO.P,Q8,4,G*%
%TO.N,Net-(Q8-G)*%
X126777817Y-123316446D03*
%TO.P,Q8,5,D*%
%TO.N,Net-(Q7-D-Pad5)*%
X131727817Y-123316446D03*
%TO.P,Q8,6,D*%
X131727817Y-122046446D03*
%TO.P,Q8,7,D*%
X131727817Y-120776446D03*
%TO.P,Q8,8,D*%
X131727817Y-119506446D03*
%TD*%
D36*
%TO.P,C16,1,1*%
%TO.N,+3V3*%
X168550000Y-69845000D03*
%TO.P,C16,2,2*%
%TO.N,GND*%
X168550000Y-70805000D03*
%TD*%
D37*
%TO.P,D9,1,1*%
%TO.N,VBatt*%
X195650000Y-145575000D03*
D38*
%TO.P,D9,2,2*%
%TO.N,+9V*%
X198025000Y-145575000D03*
%TD*%
D26*
%TO.P,TP9,1,1*%
%TO.N,BM*%
X117977817Y-115396446D03*
%TD*%
D39*
%TO.P,Q2,1,B*%
%TO.N,/Electrical Power System Stuff/BURN_RELAY_A*%
X121625001Y-108700000D03*
%TO.P,Q2,2,E*%
%TO.N,Net-(Q2-E)*%
X121625001Y-109700000D03*
%TO.P,Q2,3,C*%
%TO.N,Net-(Q2-C)*%
X122915001Y-109200000D03*
%TD*%
D29*
%TO.P,D20,1,K*%
%TO.N,GND*%
X94900000Y-35437499D03*
%TO.P,D20,2,A*%
%TO.N,Net-(D20-A)*%
X94900000Y-37012501D03*
%TD*%
D24*
%TO.P,JP9,1,A*%
%TO.N,GND*%
X147675005Y-52762499D03*
D25*
%TO.P,JP9,2,B*%
%TO.N,Net-(JP9-B)*%
X148975003Y-52762499D03*
%TD*%
D35*
%TO.P,U19,1,A1*%
%TO.N,+3V3*%
X135002817Y-133908946D03*
%TO.P,U19,2,A0*%
%TO.N,GND*%
X135002817Y-135178946D03*
%TO.P,U19,3,SDA*%
%TO.N,/Electrical Power System Stuff/SDA0*%
X135002817Y-136448946D03*
%TO.P,U19,4,SCL*%
%TO.N,/Electrical Power System Stuff/SCL0*%
X135002817Y-137718946D03*
%TO.P,U19,5,VS*%
%TO.N,+3V3*%
X139952817Y-137718946D03*
%TO.P,U19,6,GND*%
%TO.N,GND*%
X139952817Y-136448946D03*
%TO.P,U19,7,IN-*%
%TO.N,VSOLAR_I*%
X139952817Y-135178946D03*
%TO.P,U19,8,IN+*%
%TO.N,VSOLAR*%
X139952817Y-133908946D03*
%TD*%
D40*
%TO.P,R69,1,1*%
%TO.N,/Electrical Power System Stuff/QSPI_CS*%
X187233363Y-122876992D03*
%TO.P,R69,2,2*%
%TO.N,Net-(D16-Pad2)*%
X186066637Y-121710266D03*
%TD*%
D30*
%TO.P,R33,1,1*%
%TO.N,Net-(Q2-E)*%
X120300001Y-109825000D03*
%TO.P,R33,2,2*%
%TO.N,GND*%
X120300001Y-111475000D03*
%TD*%
D32*
%TO.P,R81,1*%
%TO.N,VBUSP*%
X137902817Y-78583946D03*
%TO.P,R81,2*%
%TO.N,Net-(Q11A-B1)*%
X139552817Y-78583946D03*
%TD*%
D21*
%TO.P,C2,1,1*%
%TO.N,GND*%
X182939411Y-73560589D03*
%TO.P,C2,2,2*%
%TO.N,Net-(C2-Pad2)*%
X182260589Y-74239411D03*
%TD*%
D14*
%TO.P,C46,1,1*%
%TO.N,Net-(D6-K)*%
X162267817Y-125911446D03*
%TO.P,C46,2,2*%
%TO.N,GND*%
X163817817Y-125911446D03*
%TD*%
D22*
%TO.P,J22,1,Pin_1*%
%TO.N,VBatt1*%
X128132817Y-140831446D03*
%TO.P,J22,2,Pin_2*%
%TO.N,VBUSP*%
X129632817Y-140831446D03*
D23*
%TO.P,J22,S1*%
%TO.N,N/C*%
X125527817Y-146021446D03*
%TO.P,J22,S2*%
X132237817Y-146021446D03*
%TD*%
D41*
%TO.P,U24,1,CS*%
%TO.N,/Electrical Power System Stuff/SPI0_CS0*%
X165942500Y-112120000D03*
%TO.P,U24,2,RESET*%
%TO.N,Net-(U24-RESET)*%
X165942500Y-111470000D03*
%TO.P,U24,3,VDD@1*%
%TO.N,+3V3*%
X165942500Y-110820000D03*
%TO.P,U24,4,TXCAN*%
%TO.N,/Electrical Power System Stuff/TXCAN*%
X165942500Y-110170000D03*
%TO.P,U24,5,RXCAN*%
%TO.N,/Electrical Power System Stuff/RXCAN*%
X165942500Y-109520000D03*
%TO.P,U24,6,CLKOUT*%
%TO.N,unconnected-(U24-CLKOUT-Pad6)*%
X165942500Y-108870000D03*
%TO.P,U24,7,TX0RTS*%
%TO.N,unconnected-(U24-TX0RTS-Pad7)*%
X165942500Y-108220000D03*
D42*
%TO.P,U24,8,TX1RTS*%
%TO.N,unconnected-(U24-TX1RTS-Pad8)*%
X165055000Y-107332500D03*
%TO.P,U24,9,TX2RTS*%
%TO.N,unconnected-(U24-TX2RTS-Pad9)*%
X164405000Y-107332500D03*
%TO.P,U24,10,RXD*%
%TO.N,/Electrical Power System Stuff/RXCAN*%
X163755000Y-107332500D03*
%TO.P,U24,11,VIO*%
%TO.N,+3V3*%
X163105000Y-107332500D03*
%TO.P,U24,12,CANL*%
%TO.N,/Electrical Power System Stuff/CANL*%
X162455000Y-107332500D03*
%TO.P,U24,13,CANH*%
%TO.N,/Electrical Power System Stuff/CANH*%
X161805000Y-107332500D03*
%TO.P,U24,14,NC*%
%TO.N,unconnected-(U24-NC-Pad14)*%
X161155000Y-107332500D03*
D41*
%TO.P,U24,15,STBY*%
%TO.N,GND*%
X160267500Y-108220000D03*
%TO.P,U24,16,TXD*%
%TO.N,/Electrical Power System Stuff/TXCAN*%
X160267500Y-108870000D03*
%TO.P,U24,17,NC@1*%
%TO.N,unconnected-(U24-NC@1-Pad17)*%
X160267500Y-109520000D03*
%TO.P,U24,18,VSS@1*%
%TO.N,GND*%
X160267500Y-110170000D03*
%TO.P,U24,19,VDDA*%
%TO.N,+5V*%
X160267500Y-110820000D03*
%TO.P,U24,20,OSC2*%
%TO.N,Net-(U24-OSC2)*%
X160267500Y-111470000D03*
%TO.P,U24,21,OSC1*%
%TO.N,Net-(U24-OSC1)*%
X160267500Y-112120000D03*
D42*
%TO.P,U24,22,GND*%
%TO.N,GND*%
X161155000Y-113007500D03*
%TO.P,U24,23,RX1BF*%
%TO.N,unconnected-(U24-RX1BF-Pad23)*%
X161805000Y-113007500D03*
%TO.P,U24,24,RX0BF*%
%TO.N,unconnected-(U24-RX0BF-Pad24)*%
X162455000Y-113007500D03*
%TO.P,U24,25,INT*%
%TO.N,unconnected-(U24-INT-Pad25)*%
X163105000Y-113007500D03*
%TO.P,U24,26,SCK*%
%TO.N,/Electrical Power System Stuff/SPI0_SCK*%
X163755000Y-113007500D03*
%TO.P,U24,27,SI*%
%TO.N,/Electrical Power System Stuff/SPI0_MOSI*%
X164405000Y-113007500D03*
%TO.P,U24,28,SO*%
%TO.N,/Electrical Power System Stuff/SPI0_MISO*%
X165055000Y-113007500D03*
D43*
%TO.P,U24,29,GND@1*%
%TO.N,GND*%
X163105000Y-110170000D03*
%TD*%
D44*
%TO.P,C50,1,1*%
%TO.N,GND*%
X151027817Y-101608946D03*
%TO.P,C50,2,2*%
%TO.N,+5V*%
X151027817Y-100058946D03*
%TD*%
D30*
%TO.P,R35,1,1*%
%TO.N,GND*%
X160717817Y-125886446D03*
%TO.P,R35,2,2*%
%TO.N,Net-(IC4-VIN_REG)*%
X160717817Y-127536446D03*
%TD*%
D14*
%TO.P,C57,1*%
%TO.N,B-*%
X123127817Y-119521446D03*
%TO.P,C57,2*%
%TO.N,Net-(U14-V-)*%
X124677817Y-119521446D03*
%TD*%
%TO.P,C32,1,1*%
%TO.N,GND*%
X163650000Y-77625000D03*
%TO.P,C32,2,2*%
%TO.N,+5V*%
X165200000Y-77625000D03*
%TD*%
D32*
%TO.P,R14,1,1*%
%TO.N,Net-(D3-K)*%
X188650000Y-49399999D03*
%TO.P,R14,2,2*%
%TO.N,GND*%
X190300000Y-49399999D03*
%TD*%
D45*
%TO.P,Q10,1,Source*%
%TO.N,PACK+*%
X107380001Y-100005000D03*
%TO.P,Q10,2,Source*%
X107380000Y-98735000D03*
%TO.P,Q10,3,Source*%
X107380000Y-97465000D03*
%TO.P,Q10,4,Gate*%
%TO.N,Net-(Q10-Gate)*%
X107380001Y-96195000D03*
%TO.P,Q10,5,Drain*%
%TO.N,/Electrical Power System Stuff/Jetson_pwr*%
X102104999Y-96195000D03*
%TO.P,Q10,6,Drain*%
X102105000Y-97465000D03*
%TO.P,Q10,7,Drain*%
X102105000Y-98735000D03*
%TO.P,Q10,8,Drain*%
X102104999Y-100005000D03*
D46*
%TO.P,Q10,9*%
%TO.N,N/C*%
X104742500Y-98100000D03*
%TD*%
D30*
%TO.P,R45,1,1*%
%TO.N,Net-(Q4-D)*%
X109262500Y-107425000D03*
%TO.P,R45,2,2*%
%TO.N,Net-(K1-PadNO)*%
X109262500Y-109075000D03*
%TD*%
D47*
%TO.P,U25,1,VO*%
%TO.N,+3V3*%
X141227817Y-70008946D03*
%TO.P,U25,2,VFB*%
%TO.N,Net-(U25-VFB)*%
X141227817Y-70658946D03*
%TO.P,U25,3,VREG5*%
%TO.N,Net-(U25-VREG5)*%
X141227817Y-71308946D03*
%TO.P,U25,4,SS*%
%TO.N,Net-(U25-SS)*%
X141227817Y-71958946D03*
%TO.P,U25,5,GND*%
%TO.N,GND*%
X141227817Y-72608946D03*
%TO.P,U25,6,PG*%
%TO.N,Net-(U25-PG)*%
X141227817Y-73258946D03*
%TO.P,U25,7,EN*%
%TO.N,/Electrical Power System Stuff/3V3_EN*%
X141227817Y-73908946D03*
%TO.P,U25,8,PGND1*%
%TO.N,GND*%
X146952817Y-73908946D03*
%TO.P,U25,9,PGND2*%
X146952817Y-73258946D03*
%TO.P,U25,10,SW1*%
%TO.N,Net-(U25-SW1)*%
X146952817Y-72608946D03*
%TO.P,U25,11,SW2*%
X146952817Y-71958946D03*
%TO.P,U25,12,VBST*%
%TO.N,Net-(U25-VBST)*%
X146952817Y-71308946D03*
%TO.P,U25,13,VIN*%
%TO.N,VBUSP*%
X146952817Y-70658946D03*
%TO.P,U25,14,VCC*%
X146952817Y-70008946D03*
D48*
%TO.P,U25,15,EPAD*%
%TO.N,GND*%
X142790317Y-69358946D03*
X142790317Y-70658946D03*
X142790317Y-71958946D03*
X142790317Y-73258946D03*
X142790317Y-74558946D03*
X144090317Y-69358946D03*
X144090317Y-70658946D03*
X144090317Y-71958946D03*
D49*
X144090317Y-71958946D03*
D48*
X144090317Y-73258946D03*
X144090317Y-74558946D03*
X145390317Y-69358946D03*
X145390317Y-70658946D03*
X145390317Y-71958946D03*
X145390317Y-73258946D03*
X145390317Y-74558946D03*
%TD*%
D44*
%TO.P,C17,1,1*%
%TO.N,VDDA*%
X155250000Y-37112500D03*
%TO.P,C17,2,2*%
%TO.N,GNDA*%
X155250000Y-35562500D03*
%TD*%
D50*
%TO.P,U14,1,DOUT*%
%TO.N,Net-(Q7-G)*%
X124477817Y-124521445D03*
%TO.P,U14,2,COUT*%
%TO.N,Net-(Q8-G)*%
X124477817Y-123571446D03*
%TO.P,U14,3,V-*%
%TO.N,Net-(U14-V-)*%
X124477817Y-122621447D03*
%TO.P,U14,4,VC*%
%TO.N,Net-(U14-VC)*%
X122202817Y-122621447D03*
%TO.P,U14,5,VDD*%
%TO.N,/Electrical Power System Stuff/VDD*%
X122202817Y-123571446D03*
%TO.P,U14,6,VSS*%
%TO.N,B-*%
X122202817Y-124521445D03*
%TD*%
D28*
%TO.P,C3,1,1*%
%TO.N,Net-(C3-Pad1)*%
X191430000Y-40700000D03*
%TO.P,C3,2,2*%
%TO.N,/Flight Computer Stuff/RX+*%
X190470000Y-40700000D03*
%TD*%
D51*
%TO.P,J32,1,Pin_1*%
%TO.N,GND*%
X186675000Y-108350000D03*
%TO.P,J32,2,Pin_2*%
%TO.N,+3V3*%
X187675000Y-108350000D03*
%TO.P,J32,3,Pin_3*%
%TO.N,EPS_SDA1*%
X188675000Y-108350000D03*
%TO.P,J32,4,Pin_4*%
%TO.N,EPS_SCL1*%
X189675000Y-108350000D03*
D52*
%TO.P,J32,MP*%
%TO.N,N/C*%
X185375000Y-105825000D03*
X190975000Y-105825000D03*
%TD*%
D32*
%TO.P,R55,1*%
%TO.N,BM*%
X118890317Y-120408946D03*
%TO.P,R55,2*%
%TO.N,Net-(U14-VC)*%
X120540317Y-120408946D03*
%TD*%
D53*
%TO.P,C87,1,1*%
%TO.N,+3V3*%
X192320000Y-115775000D03*
%TO.P,C87,2,2*%
%TO.N,GND*%
X193280000Y-115775000D03*
%TD*%
D36*
%TO.P,C27,1,1*%
%TO.N,+3V3*%
X162207500Y-67227500D03*
%TO.P,C27,2,2*%
%TO.N,GND*%
X162207500Y-68187500D03*
%TD*%
D14*
%TO.P,C68,1*%
%TO.N,GND*%
X143727817Y-121196446D03*
%TO.P,C68,2*%
%TO.N,+3V3*%
X145277817Y-121196446D03*
%TD*%
D20*
%TO.P,R66,1*%
%TO.N,Net-(U17-REF)*%
X96952817Y-85771445D03*
%TO.P,R66,2*%
%TO.N,Net-(U17-+Vs)*%
X96952817Y-84121445D03*
%TD*%
D14*
%TO.P,C71,1,1*%
%TO.N,GND*%
X149452817Y-78408946D03*
%TO.P,C71,2,2*%
%TO.N,+3V3*%
X151002817Y-78408946D03*
%TD*%
D54*
%TO.P,U28,1,SDA*%
%TO.N,/Payload Stuff/F0_SDA*%
X128490000Y-46695000D03*
%TO.P,U28,2,SCL*%
%TO.N,/Payload Stuff/F0_SCL*%
X129140000Y-46695000D03*
%TO.P,U28,3,Alert*%
%TO.N,unconnected-(U28-Alert-Pad3)*%
X129790000Y-46695000D03*
%TO.P,U28,4,GND*%
%TO.N,GND*%
X130440000Y-46695000D03*
%TO.P,U28,5,A2*%
X130440000Y-42345000D03*
%TO.P,U28,6,A1*%
%TO.N,/Payload Stuff/F0_ENB*%
X129790000Y-42345000D03*
%TO.P,U28,7,A0*%
X129140000Y-42345000D03*
%TO.P,U28,8,VDD*%
X128490000Y-42345000D03*
D55*
%TO.P,U28,9,EP/GND*%
%TO.N,GND*%
X129465000Y-44520000D03*
%TD*%
D10*
%TO.P,JP3,1,A*%
%TO.N,FC_SDA0*%
X204275000Y-92600000D03*
D11*
%TO.P,JP3,2,C*%
%TO.N,Net-(J9-Pin_8)*%
X202975000Y-92600000D03*
D12*
%TO.P,JP3,3,B*%
%TO.N,/Flight Computer Stuff/D6*%
X201675000Y-92600000D03*
%TD*%
D56*
%TO.P,C66,1*%
%TO.N,Net-(U17-+Vs)*%
X94077818Y-80421446D03*
%TO.P,C66,2*%
%TO.N,GND*%
X95977816Y-80421446D03*
%TD*%
D21*
%TO.P,C7,1,1*%
%TO.N,GND*%
X195389411Y-65185589D03*
%TO.P,C7,2,2*%
%TO.N,1.2V*%
X194710589Y-65864411D03*
%TD*%
D57*
%TO.P,Q3,1,G*%
%TO.N,Net-(Q3-G)*%
X113250000Y-102675000D03*
%TO.P,Q3,2,S*%
%TO.N,GND*%
X113250000Y-100775000D03*
%TO.P,Q3,3,D*%
%TO.N,Net-(Q3-D)*%
X111374999Y-101725000D03*
%TD*%
D58*
%TO.P,C10,1,1*%
%TO.N,+3V3*%
X187903822Y-62703822D03*
%TO.P,C10,2,2*%
%TO.N,GND*%
X187225000Y-62025000D03*
%TD*%
D56*
%TO.P,C97,1*%
%TO.N,Net-(U27-REG)*%
X134125000Y-48875000D03*
%TO.P,C97,2*%
%TO.N,GND*%
X136025000Y-48875000D03*
%TD*%
D59*
%TO.P,C53,1,1*%
%TO.N,Net-(U16-SW1)*%
X150527817Y-92583946D03*
%TO.P,C53,2,2*%
%TO.N,Net-(U16-VBST)*%
X148977817Y-92583946D03*
%TD*%
D14*
%TO.P,C45,1,1*%
%TO.N,2.8V*%
X205650001Y-56750000D03*
%TO.P,C45,2,2*%
%TO.N,GND*%
X207200001Y-56750000D03*
%TD*%
D59*
%TO.P,C60,1,1*%
%TO.N,Net-(U16-VREG5)*%
X138027817Y-92708946D03*
%TO.P,C60,2,2*%
%TO.N,GND*%
X136477817Y-92708946D03*
%TD*%
D60*
%TO.P,R3,1,1*%
%TO.N,Net-(IC1-XOUT)*%
X186635624Y-74710624D03*
%TO.P,R3,2,2*%
%TO.N,Net-(C2-Pad2)*%
X185914376Y-73989376D03*
%TD*%
D33*
%TO.P,J39,1,Pin_1*%
%TO.N,Net-(J39-Pin_1)*%
X83099999Y-51400000D03*
%TO.P,J39,2,Pin_2*%
%TO.N,Net-(J39-Pin_2)*%
X83099999Y-52900000D03*
D34*
%TO.P,J39,S1*%
%TO.N,N/C*%
X77909998Y-48795000D03*
%TO.P,J39,S2*%
X77909998Y-55505000D03*
%TD*%
D61*
%TO.P,R94,1,R1.1*%
%TO.N,/Payload Stuff/Break_SCL*%
X118498483Y-63977720D03*
D62*
%TO.P,R94,2,R2.1*%
%TO.N,/Payload Stuff/Break_SDA*%
X117932798Y-64543405D03*
%TO.P,R94,3,R3.1*%
%TO.N,/Payload Stuff/F4_SCL*%
X117367112Y-65109091D03*
D61*
%TO.P,R94,4,R4.1*%
%TO.N,/Payload Stuff/F4_SDA*%
X116801427Y-65674776D03*
%TO.P,R94,5,R4.2*%
%TO.N,+3V3*%
X118074219Y-66947568D03*
D62*
%TO.P,R94,6,R3.2*%
X118639904Y-66381883D03*
%TO.P,R94,7,R2.2*%
X119205590Y-65816197D03*
D61*
%TO.P,R94,8,R1.2*%
X119771275Y-65250512D03*
%TD*%
D14*
%TO.P,C19,1,1*%
%TO.N,VDDA*%
X161125000Y-44862500D03*
%TO.P,C19,2,2*%
%TO.N,GNDA*%
X162675000Y-44862500D03*
%TD*%
D35*
%TO.P,U20,1,A1*%
%TO.N,GND*%
X140177817Y-115516446D03*
%TO.P,U20,2,A0*%
X140177817Y-116786446D03*
%TO.P,U20,3,SDA*%
%TO.N,/Electrical Power System Stuff/SDA0*%
X140177817Y-118056446D03*
%TO.P,U20,4,SCL*%
%TO.N,/Electrical Power System Stuff/SCL0*%
X140177817Y-119326446D03*
%TO.P,U20,5,VS*%
%TO.N,+3V3*%
X145127817Y-119326446D03*
%TO.P,U20,6,GND*%
%TO.N,GND*%
X145127817Y-118056446D03*
%TO.P,U20,7,IN-*%
%TO.N,VBATT_SENSE*%
X145127817Y-116786446D03*
%TO.P,U20,8,IN+*%
%TO.N,PACK+*%
X145127817Y-115516446D03*
%TD*%
D63*
%TO.P,R46,1,1*%
%TO.N,VBATT_SENSE*%
X172592817Y-131548946D03*
%TO.P,R46,2,2*%
%TO.N,Net-(IC4-SENSE)*%
X172592817Y-125623946D03*
%TD*%
D56*
%TO.P,C96,1*%
%TO.N,/Payload Stuff/F0_ENB*%
X128475000Y-40350000D03*
%TO.P,C96,2*%
%TO.N,GND*%
X130375000Y-40350000D03*
%TD*%
D64*
%TO.P,D5,1,1*%
%TO.N,/Flight Computer Stuff/CANL*%
X161412500Y-90275000D03*
%TO.P,D5,2,2*%
%TO.N,/Flight Computer Stuff/CANH*%
X163312500Y-90275000D03*
%TO.P,D5,3,3*%
%TO.N,GND*%
X162362500Y-88000000D03*
%TD*%
D36*
%TO.P,C30,1,1*%
%TO.N,GND*%
X164325000Y-92390000D03*
%TO.P,C30,2,2*%
%TO.N,/Flight Computer Stuff/CANH*%
X164325000Y-93350000D03*
%TD*%
D65*
%TO.P,Q12,1,E1*%
%TO.N,GND*%
X145427817Y-75558946D03*
%TO.P,Q12,2,B1*%
%TO.N,Net-(Q12A-B1)*%
X145427817Y-76208946D03*
%TO.P,Q12,3,C2*%
%TO.N,Net-(Q12A-C1)*%
X145427817Y-76858946D03*
%TO.P,Q12,4,E2*%
%TO.N,GND*%
X147327817Y-76858946D03*
%TO.P,Q12,5,B2*%
%TO.N,Net-(Q12B-B2)*%
X147327817Y-76208946D03*
%TO.P,Q12,6,C1*%
%TO.N,Net-(Q12A-C1)*%
X147327817Y-75558946D03*
%TD*%
D32*
%TO.P,FB3,1*%
%TO.N,Net-(U17-+Vs)*%
X94002817Y-78596446D03*
%TO.P,FB3,2*%
%TO.N,+3.3V*%
X95652817Y-78596446D03*
%TD*%
%TO.P,R85,1*%
%TO.N,Net-(R84-Pad2)*%
X140902817Y-80133946D03*
%TO.P,R85,2*%
%TO.N,Net-(Q11B-B2)*%
X142552817Y-80133946D03*
%TD*%
D53*
%TO.P,C28,1,1*%
%TO.N,Net-(U7-C1)*%
X159177500Y-70282500D03*
%TO.P,C28,2,2*%
%TO.N,GND*%
X160137500Y-70282500D03*
%TD*%
D28*
%TO.P,C41,1,1*%
%TO.N,+3V3*%
X157112500Y-67732500D03*
%TO.P,C41,2,2*%
%TO.N,GND*%
X156152500Y-67732500D03*
%TD*%
D66*
%TO.P,IC3,1,SDA*%
%TO.N,/Electrical Power System Stuff/SDA0*%
X106602816Y-84171445D03*
%TO.P,IC3,2,SCL*%
%TO.N,/Electrical Power System Stuff/SCL0*%
X106602816Y-84821446D03*
%TO.P,IC3,3,OS*%
%TO.N,Net-(IC3-OS)*%
X106602816Y-85471446D03*
%TO.P,IC3,4,GND*%
%TO.N,GND*%
X106602816Y-86121447D03*
%TO.P,IC3,5,A2*%
%TO.N,+3V3*%
X110902816Y-86121447D03*
%TO.P,IC3,6,A1*%
X110902816Y-85471446D03*
%TO.P,IC3,7,A0*%
X110902816Y-84821446D03*
%TO.P,IC3,8,VCC*%
X110902816Y-84171445D03*
%TD*%
D67*
%TO.P,J4,1,DAT2*%
%TO.N,unconnected-(J4-DAT2-Pad1)*%
X176830001Y-45025000D03*
%TO.P,J4,2,CD/DAT3*%
%TO.N,/Flight Computer Stuff/SPI0_CS1*%
X175730000Y-45025000D03*
%TO.P,J4,3,CMD*%
%TO.N,/Flight Computer Stuff/SPI0_MOSI*%
X174630001Y-45025000D03*
%TO.P,J4,4,VDD*%
%TO.N,+3V3*%
X173530000Y-45025000D03*
%TO.P,J4,5,CLK*%
%TO.N,/Flight Computer Stuff/SPI0_SCK*%
X172430000Y-45025000D03*
%TO.P,J4,6,VSS*%
%TO.N,GND*%
X171330000Y-45025000D03*
%TO.P,J4,7,DAT0*%
%TO.N,/Flight Computer Stuff/SPI0_MISO*%
X170230000Y-45025000D03*
D68*
%TO.P,J4,8,DAT1*%
%TO.N,unconnected-(J4-DAT1-Pad8)*%
X169180000Y-45025000D03*
D69*
%TO.P,J4,9*%
%TO.N,N/C*%
X179465000Y-38875000D03*
%TO.P,J4,10*%
X179465000Y-35175000D03*
D70*
%TO.P,J4,11*%
X179290000Y-44900000D03*
D71*
X175965000Y-34200000D03*
X169995000Y-34200000D03*
D72*
X167970000Y-44675000D03*
%TD*%
D73*
%TO.P,U6,1,TXN*%
%TO.N,/Flight Computer Stuff/TX-*%
X157762500Y-46212500D03*
%TO.P,U6,2,TXP*%
%TO.N,/Flight Computer Stuff/TX+*%
X157762500Y-45712500D03*
%TO.P,U6,3,AGND*%
%TO.N,GNDA*%
X157762500Y-45212500D03*
%TO.P,U6,4,AVDD*%
%TO.N,VDDA*%
X157762500Y-44712499D03*
%TO.P,U6,5,RXN*%
%TO.N,/Flight Computer Stuff/RX-*%
X157762500Y-44212500D03*
%TO.P,U6,6,RXP*%
%TO.N,/Flight Computer Stuff/RX+*%
X157762500Y-43712500D03*
%TO.P,U6,7,DNC*%
%TO.N,unconnected-(U6-DNC-Pad7)*%
X157762500Y-43212500D03*
%TO.P,U6,8,AVDD*%
%TO.N,VDDA*%
X157762500Y-42712500D03*
%TO.P,U6,9,AGND*%
%TO.N,GNDA*%
X157762500Y-42212501D03*
%TO.P,U6,10,EXRES1*%
%TO.N,Net-(U6-EXRES1)*%
X157762500Y-41712500D03*
%TO.P,U6,11,AVDD*%
%TO.N,VDDA*%
X157762500Y-41212500D03*
%TO.P,U6,12,NC*%
%TO.N,unconnected-(U6-NC-Pad12)*%
X157762500Y-40712500D03*
D74*
%TO.P,U6,13,NC*%
%TO.N,unconnected-(U6-NC-Pad13)*%
X156350000Y-39300000D03*
%TO.P,U6,14,AGND*%
%TO.N,GNDA*%
X155850000Y-39300000D03*
%TO.P,U6,15,AVDD*%
%TO.N,VDDA*%
X155350000Y-39300000D03*
%TO.P,U6,16,AGND*%
%TO.N,GNDA*%
X154849999Y-39300000D03*
%TO.P,U6,17,AVDD*%
%TO.N,VDDA*%
X154350000Y-39300000D03*
%TO.P,U6,18,VBG*%
%TO.N,unconnected-(U6-VBG-Pad18)*%
X153850000Y-39300000D03*
%TO.P,U6,19,AGND*%
%TO.N,GNDA*%
X153350000Y-39300000D03*
%TO.P,U6,20,TOCAP*%
%TO.N,Net-(U6-TOCAP)*%
X152850000Y-39300000D03*
%TO.P,U6,21,AVDD*%
%TO.N,VDDA*%
X152350001Y-39300000D03*
%TO.P,U6,22,1V20*%
%TO.N,Net-(U6-1V20)*%
X151850000Y-39300000D03*
%TO.P,U6,23,RSVD*%
%TO.N,GND*%
X151350000Y-39300000D03*
%TO.P,U6,24,SPDLED*%
%TO.N,unconnected-(U6-SPDLED-Pad24)*%
X150850000Y-39300000D03*
D73*
%TO.P,U6,25,LINKLED*%
%TO.N,/Flight Computer Stuff/GREENLED*%
X149437500Y-40712500D03*
%TO.P,U6,26,DUPLED*%
%TO.N,unconnected-(U6-DUPLED-Pad26)*%
X149437500Y-41212500D03*
%TO.P,U6,27,ACTLED*%
%TO.N,/Flight Computer Stuff/YELLOWLED*%
X149437500Y-41712500D03*
%TO.P,U6,28,VDD*%
%TO.N,+3V3*%
X149437500Y-42212501D03*
%TO.P,U6,29,GND*%
%TO.N,GND*%
X149437500Y-42712500D03*
%TO.P,U6,30,XI/CLKIN*%
%TO.N,Net-(U6-XI{slash}CLKIN)*%
X149437500Y-43212500D03*
%TO.P,U6,31,XO*%
%TO.N,Net-(U6-XO)*%
X149437500Y-43712500D03*
%TO.P,U6,32,SCSN*%
%TO.N,/Flight Computer Stuff/SPI0_CS3*%
X149437500Y-44212500D03*
%TO.P,U6,33,SCLK*%
%TO.N,/Flight Computer Stuff/SPI0_SCK*%
X149437500Y-44712499D03*
%TO.P,U6,34,MISO*%
%TO.N,/Flight Computer Stuff/MISO_ETHER*%
X149437500Y-45212500D03*
%TO.P,U6,35,MOSI*%
%TO.N,/Flight Computer Stuff/SPI0_MOSI*%
X149437500Y-45712500D03*
%TO.P,U6,36,INTN*%
%TO.N,Net-(R26-R4.1)*%
X149437500Y-46212500D03*
D74*
%TO.P,U6,37,RSTN*%
%TO.N,unconnected-(U6-RSTN-Pad37)*%
X150850000Y-47625000D03*
%TO.P,U6,38,RSVD*%
%TO.N,unconnected-(U6-RSVD-Pad38)*%
X151350000Y-47625000D03*
%TO.P,U6,39,RSVD*%
%TO.N,unconnected-(U6-RSVD-Pad39)*%
X151850000Y-47625000D03*
%TO.P,U6,40,RSVD*%
%TO.N,unconnected-(U6-RSVD-Pad40)*%
X152350001Y-47625000D03*
%TO.P,U6,41,RSVD*%
%TO.N,unconnected-(U6-RSVD-Pad41)*%
X152850000Y-47625000D03*
%TO.P,U6,42,RSVD*%
%TO.N,unconnected-(U6-RSVD-Pad42)*%
X153350000Y-47625000D03*
%TO.P,U6,43,PMODE2*%
%TO.N,Net-(JP10-B)*%
X153850000Y-47625000D03*
%TO.P,U6,44,PMODE1*%
%TO.N,Net-(JP9-B)*%
X154350000Y-47625000D03*
%TO.P,U6,45,PMODE0*%
%TO.N,Net-(JP8-B)*%
X154849999Y-47625000D03*
%TO.P,U6,46,NC*%
%TO.N,unconnected-(U6-NC-Pad46)*%
X155350000Y-47625000D03*
%TO.P,U6,47,NC*%
%TO.N,unconnected-(U6-NC-Pad47)*%
X155850000Y-47625000D03*
%TO.P,U6,48,AGND*%
%TO.N,GNDA*%
X156350000Y-47625000D03*
%TD*%
D75*
%TO.P,U27,1,REG*%
%TO.N,Net-(U27-REG)*%
X134125000Y-46775000D03*
%TO.P,U27,2,SCL*%
%TO.N,/Payload Stuff/F0_SCL*%
X134625001Y-46775000D03*
%TO.P,U27,3,SDA*%
%TO.N,/Payload Stuff/F0_SDA*%
X135125000Y-46775000D03*
%TO.P,U27,4,IN/TRIG*%
%TO.N,GND*%
X135624999Y-46775000D03*
%TO.P,U27,5,EN*%
%TO.N,/Payload Stuff/F0_ENB*%
X136125000Y-46775000D03*
%TO.P,U27,6,VDD/NC*%
%TO.N,unconnected-(U27-VDD{slash}NC-Pad6)*%
X136125000Y-42375000D03*
%TO.P,U27,7,OUT+*%
%TO.N,Net-(J33-Pin_1)*%
X135624999Y-42375000D03*
%TO.P,U27,8,GND*%
%TO.N,GND*%
X135125000Y-42375000D03*
%TO.P,U27,9,OUT-*%
%TO.N,Net-(J33-Pin_2)*%
X134625001Y-42375000D03*
%TO.P,U27,10,VDD*%
%TO.N,/Payload Stuff/F0_ENB*%
X134125000Y-42375000D03*
%TD*%
D26*
%TO.P,TP1,1,1*%
%TO.N,/Flight Computer Stuff/D3*%
X177150000Y-66925000D03*
%TD*%
D76*
%TO.P,U1,1,SSEL*%
%TO.N,/Flight Computer Stuff/QSPI_CS*%
X196451454Y-58757377D03*
%TO.P,U1,2,MISO*%
%TO.N,/Flight Computer Stuff/QSPI_DATA[1]*%
X195553428Y-59655403D03*
%TO.P,U1,3,WP#/IO2*%
%TO.N,/Flight Computer Stuff/QSPI_DATA[2]*%
X194655403Y-60553428D03*
%TO.P,U1,4,VSS*%
%TO.N,GND*%
X193757377Y-61451454D03*
%TO.P,U1,5,MOSI*%
%TO.N,/Flight Computer Stuff/QSPI_DATA[0]*%
X198848546Y-66542623D03*
%TO.P,U1,6,SCK*%
%TO.N,/Flight Computer Stuff/QSPI_SCK*%
X199746572Y-65644597D03*
%TO.P,U1,7,HOLD#/IO3*%
%TO.N,/Flight Computer Stuff/QSPI_DATA[3]*%
X200644597Y-64746572D03*
%TO.P,U1,8,VCC*%
%TO.N,+3V3*%
X201542623Y-63848546D03*
%TD*%
D77*
%TO.P,C9,1,1*%
%TO.N,+3V3*%
X195003984Y-67371016D03*
%TO.P,C9,2,2*%
%TO.N,GND*%
X196100000Y-66275000D03*
%TD*%
D78*
%TO.P,U21,1,~{MR}*%
%TO.N,Net-(U21-~{MR})*%
X203571876Y-129348905D03*
%TO.P,U21,2,VCC*%
%TO.N,+3V3*%
X202673851Y-128450880D03*
%TO.P,U21,3,GND*%
%TO.N,GND*%
X201775825Y-127552854D03*
%TO.P,U21,4,PFI*%
X200877800Y-126654829D03*
%TO.P,U21,5,~{PFO}*%
%TO.N,unconnected-(U21-~{PFO}-Pad5)*%
X197236200Y-130296429D03*
%TO.P,U21,6,~{WDI}*%
%TO.N,/Electrical Power System Stuff/WDT_WDI*%
X198134225Y-131194454D03*
%TO.P,U21,7,~{RESET}*%
%TO.N,Net-(U21-~{RESET})*%
X199032251Y-132092480D03*
%TO.P,U21,8,~{WDO}*%
%TO.N,Net-(U21-~{MR})*%
X199930276Y-132990505D03*
%TD*%
D79*
%TO.P,D22,1,K*%
%TO.N,GND*%
X78437500Y-77750000D03*
%TO.P,D22,2,A*%
%TO.N,Net-(D22-A)*%
X80012500Y-77750000D03*
%TD*%
D59*
%TO.P,C61,1*%
%TO.N,B-*%
X120490317Y-125033946D03*
%TO.P,C61,2*%
%TO.N,/Electrical Power System Stuff/VDD*%
X118940317Y-125033946D03*
%TD*%
D14*
%TO.P,C70,1,1*%
%TO.N,GND*%
X149452817Y-79958946D03*
%TO.P,C70,2,2*%
%TO.N,+3V3*%
X151002817Y-79958946D03*
%TD*%
D56*
%TO.P,C100,1*%
%TO.N,Net-(U30-REG)*%
X118200000Y-48700000D03*
%TO.P,C100,2*%
%TO.N,GND*%
X120100000Y-48700000D03*
%TD*%
D30*
%TO.P,FB4,1*%
%TO.N,AVDD*%
X103102817Y-87296446D03*
%TO.P,FB4,2*%
%TO.N,+3.3V*%
X103102817Y-88946446D03*
%TD*%
D59*
%TO.P,C58,1,1*%
%TO.N,Net-(U16-SS)*%
X138027817Y-94258946D03*
%TO.P,C58,2,2*%
%TO.N,GND*%
X136477817Y-94258946D03*
%TD*%
D80*
%TO.P,D6,1,K*%
%TO.N,Net-(D6-K)*%
X158027818Y-132371446D03*
%TO.P,D6,2,A*%
%TO.N,VSOLAR_I*%
X153727816Y-132371446D03*
%TD*%
D53*
%TO.P,C25,1,1*%
%TO.N,Net-(U5-OSC1)*%
X167345000Y-78400000D03*
%TO.P,C25,2,2*%
%TO.N,GND*%
X168305000Y-78400000D03*
%TD*%
D81*
%TO.P,C90,1,1*%
%TO.N,+3V3*%
X197110589Y-128489411D03*
%TO.P,C90,2,2*%
%TO.N,GND*%
X197789411Y-127810589D03*
%TD*%
D28*
%TO.P,C80,1,1*%
%TO.N,GND*%
X200930000Y-123225000D03*
%TO.P,C80,2,2*%
%TO.N,1.2V*%
X199970000Y-123225000D03*
%TD*%
D82*
%TO.P,C91,1,1*%
%TO.N,Net-(U25-VREG5)*%
X136802817Y-70558946D03*
%TO.P,C91,2,2*%
%TO.N,GND*%
X136802817Y-72108946D03*
%TD*%
D83*
%TO.P,R38,1,1*%
%TO.N,/Electrical Power System Stuff/ENAB_BURN*%
X116612500Y-100775000D03*
%TO.P,R38,2,2*%
%TO.N,GND*%
X114962500Y-100775000D03*
%TD*%
D84*
%TO.P,D13,1,1*%
%TO.N,GND*%
X213174999Y-118800000D03*
%TO.P,D13,2,2*%
%TO.N,Net-(D13-Pad2)*%
X211425001Y-118800000D03*
%TD*%
D85*
%TO.P,C101,1*%
%TO.N,/Payload Stuff/F2_ENB*%
X100625000Y-42225001D03*
%TO.P,C101,2*%
%TO.N,GND*%
X100625000Y-44124999D03*
%TD*%
D83*
%TO.P,R96,1*%
%TO.N,/Payload Stuff/F3_ENB*%
X83475000Y-60725000D03*
%TO.P,R96,2*%
%TO.N,Net-(D21-A)*%
X81825000Y-60725000D03*
%TD*%
D54*
%TO.P,U34,1,SDA*%
%TO.N,/Payload Stuff/F2_SDA*%
X96760000Y-47155000D03*
%TO.P,U34,2,SCL*%
%TO.N,/Payload Stuff/F2_SCL*%
X97410000Y-47155000D03*
%TO.P,U34,3,Alert*%
%TO.N,unconnected-(U34-Alert-Pad3)*%
X98060000Y-47155000D03*
%TO.P,U34,4,GND*%
%TO.N,GND*%
X98710000Y-47155000D03*
%TO.P,U34,5,A2*%
X98710000Y-42805000D03*
%TO.P,U34,6,A1*%
%TO.N,/Payload Stuff/F2_ENB*%
X98060000Y-42805000D03*
%TO.P,U34,7,A0*%
X97410000Y-42805000D03*
%TO.P,U34,8,VDD*%
X96760000Y-42805000D03*
D55*
%TO.P,U34,9,EP/GND*%
%TO.N,GND*%
X97735000Y-44980000D03*
%TD*%
D20*
%TO.P,R36,1*%
%TO.N,+3V3*%
X160742817Y-131236446D03*
%TO.P,R36,2*%
%TO.N,/Electrical Power System Stuff/CHRG'*%
X160742817Y-129586446D03*
%TD*%
D82*
%TO.P,C39,1,1*%
%TO.N,+3V3*%
X156775000Y-51262500D03*
%TO.P,C39,2,2*%
%TO.N,GND*%
X156775000Y-52812500D03*
%TD*%
D14*
%TO.P,C5,1,1*%
%TO.N,1.2V*%
X198900000Y-72075000D03*
%TO.P,C5,2,2*%
%TO.N,GND*%
X200450000Y-72075000D03*
%TD*%
D32*
%TO.P,R58,1,1*%
%TO.N,VBUS*%
X208275000Y-118800000D03*
%TO.P,R58,2,2*%
%TO.N,Net-(D13-Pad2)*%
X209925000Y-118800000D03*
%TD*%
%TO.P,R12,1,1*%
%TO.N,+3V3*%
X176925000Y-57575000D03*
%TO.P,R12,2,2*%
%TO.N,/Flight Computer Stuff/SPI0_CS1*%
X178575000Y-57575000D03*
%TD*%
D83*
%TO.P,R83,1*%
%TO.N,Net-(Q12A-B1)*%
X145002817Y-78508946D03*
%TO.P,R83,2*%
%TO.N,Net-(Q11A-B1)*%
X143352817Y-78508946D03*
%TD*%
D32*
%TO.P,R41,1,1*%
%TO.N,Net-(Q3-G)*%
X114987500Y-102700000D03*
%TO.P,R41,2,2*%
%TO.N,/Electrical Power System Stuff/ENAB_BURN*%
X116637500Y-102700000D03*
%TD*%
D86*
%TO.P,U37,1,REG*%
%TO.N,Net-(U37-REG)*%
X89999999Y-53125000D03*
%TO.P,U37,2,SCL*%
%TO.N,/Payload Stuff/F3_SCL*%
X89999999Y-52624999D03*
%TO.P,U37,3,SDA*%
%TO.N,/Payload Stuff/F3_SDA*%
X89999999Y-52125000D03*
%TO.P,U37,4,IN/TRIG*%
%TO.N,GND*%
X89999999Y-51625001D03*
%TO.P,U37,5,EN*%
%TO.N,/Payload Stuff/F3_ENB*%
X89999999Y-51125000D03*
%TO.P,U37,6,VDD/NC*%
%TO.N,unconnected-(U37-VDD{slash}NC-Pad6)*%
X85599999Y-51125000D03*
%TO.P,U37,7,OUT+*%
%TO.N,Net-(J39-Pin_1)*%
X85599999Y-51625001D03*
%TO.P,U37,8,GND*%
%TO.N,GND*%
X85599999Y-52125000D03*
%TO.P,U37,9,OUT-*%
%TO.N,Net-(J39-Pin_2)*%
X85599999Y-52624999D03*
%TO.P,U37,10,VDD*%
%TO.N,/Payload Stuff/F3_ENB*%
X85599999Y-53125000D03*
%TD*%
D20*
%TO.P,R82,1,1*%
%TO.N,Net-(U25-PG)*%
X135277817Y-73458946D03*
%TO.P,R82,2,2*%
%TO.N,Net-(U25-VREG5)*%
X135277817Y-71808946D03*
%TD*%
D24*
%TO.P,JP12,1,A*%
%TO.N,Net-(JP12-A)*%
X105127818Y-81821446D03*
D25*
%TO.P,JP12,2,B*%
%TO.N,+3.3V*%
X106427816Y-81821446D03*
%TD*%
D85*
%TO.P,C95,1*%
%TO.N,/Payload Stuff/F0_ENB*%
X132275000Y-42150001D03*
%TO.P,C95,2*%
%TO.N,GND*%
X132275000Y-44049999D03*
%TD*%
D26*
%TO.P,TP3,1,1*%
%TO.N,Net-(U5-RESET)*%
X153800000Y-81475000D03*
%TD*%
D30*
%TO.P,R25,1,1*%
%TO.N,Net-(U6-XI{slash}CLKIN)*%
X142125000Y-42537500D03*
%TO.P,R25,2,2*%
%TO.N,Net-(U6-XO)*%
X142125000Y-44187500D03*
%TD*%
D86*
%TO.P,U41,1,REG*%
%TO.N,Net-(U41-REG)*%
X89450000Y-70162500D03*
%TO.P,U41,2,SCL*%
%TO.N,/Payload Stuff/F4_SCL*%
X89450000Y-69662499D03*
%TO.P,U41,3,SDA*%
%TO.N,/Payload Stuff/F4_SDA*%
X89450000Y-69162500D03*
%TO.P,U41,4,IN/TRIG*%
%TO.N,GND*%
X89450000Y-68662501D03*
%TO.P,U41,5,EN*%
%TO.N,/Payload Stuff/F4_ENB*%
X89450000Y-68162500D03*
%TO.P,U41,6,VDD/NC*%
%TO.N,unconnected-(U41-VDD{slash}NC-Pad6)*%
X85050000Y-68162500D03*
%TO.P,U41,7,OUT+*%
%TO.N,Net-(J40-Pin_1)*%
X85050000Y-68662501D03*
%TO.P,U41,8,GND*%
%TO.N,GND*%
X85050000Y-69162500D03*
%TO.P,U41,9,OUT-*%
%TO.N,Net-(J40-Pin_2)*%
X85050000Y-69662499D03*
%TO.P,U41,10,VDD*%
%TO.N,/Payload Stuff/F4_ENB*%
X85050000Y-70162500D03*
%TD*%
D24*
%TO.P,JP10,1,A*%
%TO.N,GND*%
X147675004Y-50187500D03*
D25*
%TO.P,JP10,2,B*%
%TO.N,Net-(JP10-B)*%
X148975002Y-50187500D03*
%TD*%
D58*
%TO.P,C13,1,1*%
%TO.N,+3V3*%
X184539411Y-66064411D03*
%TO.P,C13,2,2*%
%TO.N,GND*%
X183860589Y-65385589D03*
%TD*%
D28*
%TO.P,C93,1,1*%
%TO.N,Net-(U24-OSC1)*%
X157230000Y-113750000D03*
%TO.P,C93,2,2*%
%TO.N,GND*%
X156270000Y-113750000D03*
%TD*%
D87*
%TO.P,J30,1,Pin_1*%
%TO.N,+3V3*%
X171825000Y-103725000D03*
%TO.P,J30,2,Pin_2*%
%TO.N,/Electrical Power System Stuff/CANH*%
X171825000Y-102725000D03*
%TO.P,J30,3,Pin_3*%
%TO.N,/Electrical Power System Stuff/CANL*%
X171825000Y-101725000D03*
%TO.P,J30,4,Pin_4*%
%TO.N,GND*%
X171825000Y-100725000D03*
D88*
%TO.P,J30,MP*%
%TO.N,N/C*%
X169300000Y-105025000D03*
X169300000Y-99425000D03*
%TD*%
D79*
%TO.P,D21,1,K*%
%TO.N,GND*%
X78662500Y-60725000D03*
%TO.P,D21,2,A*%
%TO.N,Net-(D21-A)*%
X80237500Y-60725000D03*
%TD*%
D20*
%TO.P,R52,1,1*%
%TO.N,+3.3V*%
X139552817Y-98083946D03*
%TO.P,R52,2,2*%
%TO.N,/Electrical Power System Stuff/5V_enable*%
X139552817Y-96433946D03*
%TD*%
D10*
%TO.P,JP1,1,A*%
%TO.N,+3V3*%
X204275000Y-99700000D03*
D11*
%TO.P,JP1,2,C*%
%TO.N,Net-(J9-Pin_6)*%
X202975000Y-99700000D03*
D12*
%TO.P,JP1,3,B*%
%TO.N,/Flight Computer Stuff/VBUS_RESET {slash} D4*%
X201675000Y-99700000D03*
%TD*%
D89*
%TO.P,R11,1,R1.1*%
%TO.N,FC_SCL0*%
X185212868Y-65084924D03*
D90*
%TO.P,R11,2,R2.1*%
%TO.N,FC_SDA0*%
X185778553Y-64519239D03*
%TO.P,R11,3,R3.1*%
%TO.N,/Flight Computer Stuff/SCL1*%
X186344239Y-63953553D03*
D89*
%TO.P,R11,4,R4.1*%
%TO.N,/Flight Computer Stuff/SDA1*%
X186909924Y-63387868D03*
%TO.P,R11,5,R4.2*%
%TO.N,+3V3*%
X185637132Y-62115076D03*
D90*
%TO.P,R11,6,R3.2*%
X185071447Y-62680761D03*
%TO.P,R11,7,R2.2*%
X184505761Y-63246447D03*
D89*
%TO.P,R11,8,R1.2*%
X183940076Y-63812132D03*
%TD*%
D32*
%TO.P,R13,1,1*%
%TO.N,/Flight Computer Stuff/FC_USB_pwr*%
X209725000Y-64575000D03*
%TO.P,R13,2,2*%
%TO.N,Net-(D2-A)*%
X211375000Y-64575000D03*
%TD*%
%TO.P,R48,1*%
%TO.N,Net-(U14-V-)*%
X123077817Y-121046446D03*
%TO.P,R48,2*%
%TO.N,PACK-*%
X124727817Y-121046446D03*
%TD*%
D36*
%TO.P,C84,1,1*%
%TO.N,/Electrical Power System Stuff/CANL*%
X164175000Y-99525000D03*
%TO.P,C84,2,2*%
%TO.N,GND*%
X164175000Y-100485000D03*
%TD*%
D91*
%TO.P,U26,1,SCL*%
%TO.N,/Payload Stuff/F0_SCL*%
X138325000Y-43150000D03*
%TO.P,U26,2,VDD*%
%TO.N,/Payload Stuff/F0_ENB*%
X138325000Y-44420000D03*
%TO.P,U26,3,GND*%
%TO.N,GND*%
X138325000Y-45690000D03*
%TO.P,U26,4,SDA*%
%TO.N,/Payload Stuff/F0_SDA*%
X138325000Y-46960000D03*
%TD*%
D83*
%TO.P,R20,1,1*%
%TO.N,GNDA*%
X162725000Y-41312500D03*
%TO.P,R20,2,2*%
%TO.N,Net-(U6-EXRES1)*%
X161075000Y-41312500D03*
%TD*%
D89*
%TO.P,R87,1,R1.1*%
%TO.N,/Electrical Power System Stuff/SCL0*%
X187662868Y-118078553D03*
D90*
%TO.P,R87,2,R2.1*%
%TO.N,/Electrical Power System Stuff/SDA0*%
X188228553Y-117512868D03*
%TO.P,R87,3,R3.1*%
%TO.N,EPS_SCL1*%
X188794239Y-116947182D03*
D89*
%TO.P,R87,4,R4.1*%
%TO.N,EPS_SDA1*%
X189359924Y-116381497D03*
%TO.P,R87,5,R4.2*%
%TO.N,+3V3*%
X188087132Y-115108705D03*
D90*
%TO.P,R87,6,R3.2*%
X187521447Y-115674390D03*
%TO.P,R87,7,R2.2*%
X186955761Y-116240076D03*
D89*
%TO.P,R87,8,R1.2*%
X186390076Y-116805761D03*
%TD*%
D28*
%TO.P,C12,1,1*%
%TO.N,/Flight Computer Stuff/TCT*%
X191630000Y-44350000D03*
%TO.P,C12,2,2*%
%TO.N,GNDA*%
X190670000Y-44350000D03*
%TD*%
D32*
%TO.P,R78,1,1*%
%TO.N,Net-(U25-VFB)*%
X138477817Y-67508946D03*
%TO.P,R78,2,2*%
%TO.N,+3V3*%
X140127817Y-67508946D03*
%TD*%
D30*
%TO.P,R27,1,1*%
%TO.N,/Flight Computer Stuff/GPIO*%
X213925001Y-55875000D03*
%TO.P,R27,2,2*%
%TO.N,2.8V*%
X213925001Y-57525000D03*
%TD*%
D32*
%TO.P,R10,1,1*%
%TO.N,VDDA*%
X189775000Y-47225000D03*
%TO.P,R10,2,2*%
%TO.N,/Flight Computer Stuff/TX+*%
X191425000Y-47225000D03*
%TD*%
D92*
%TO.P,C63,1*%
%TO.N,GND*%
X92227817Y-90671445D03*
%TO.P,C63,2*%
%TO.N,Net-(U17--IN)*%
X92227817Y-88771447D03*
%TD*%
D30*
%TO.P,R21,1,1*%
%TO.N,GND*%
X166950000Y-83200000D03*
%TO.P,R21,2,2*%
%TO.N,Net-(U5-STBY)*%
X166950000Y-84850000D03*
%TD*%
D26*
%TO.P,TP14,1,1*%
%TO.N,Net-(U24-RESET)*%
X171175000Y-112300000D03*
%TD*%
D20*
%TO.P,R77,1,1*%
%TO.N,+3V3*%
X167875000Y-115100000D03*
%TO.P,R77,2,2*%
%TO.N,/Electrical Power System Stuff/SPI0_CS0*%
X167875000Y-113450000D03*
%TD*%
D32*
%TO.P,R8,1,1*%
%TO.N,VDDA*%
X189750000Y-43050000D03*
%TO.P,R8,2,2*%
%TO.N,/Flight Computer Stuff/TCT*%
X191400000Y-43050000D03*
%TD*%
%TO.P,FB1,1*%
%TO.N,GND*%
X148600000Y-36137500D03*
%TO.P,FB1,2*%
%TO.N,GNDA*%
X150250000Y-36137500D03*
%TD*%
D93*
%TO.P,C79,1,1*%
%TO.N,1.2V*%
X191100000Y-131525000D03*
%TO.P,C79,2,2*%
%TO.N,GND*%
X190003984Y-132621016D03*
%TD*%
D56*
%TO.P,C73,1*%
%TO.N,GND*%
X97552817Y-89346446D03*
%TO.P,C73,2*%
%TO.N,+3.3V*%
X99452815Y-89346446D03*
%TD*%
D22*
%TO.P,J20,1,Pin_1*%
%TO.N,Net-(J17-Pin_2)*%
X119507817Y-140818946D03*
%TO.P,J20,2,Pin_2*%
%TO.N,VBatt1*%
X121007817Y-140818946D03*
D23*
%TO.P,J20,S1*%
%TO.N,N/C*%
X116902817Y-146008946D03*
%TO.P,J20,S2*%
X123612817Y-146008946D03*
%TD*%
D94*
%TO.P,U7,1,SCL/SPC*%
%TO.N,/Flight Computer Stuff/SCL1*%
X158775000Y-67225000D03*
%TO.P,U7,2,CS_XL*%
%TO.N,+3V3*%
X158775000Y-67725000D03*
%TO.P,U7,3,CS_MAG*%
X158775000Y-68225000D03*
%TO.P,U7,4,SDA/SDI/SDO*%
%TO.N,/Flight Computer Stuff/SDA1*%
X158775000Y-68725000D03*
D95*
%TO.P,U7,5,C1*%
%TO.N,Net-(U7-C1)*%
X159287500Y-68737500D03*
%TO.P,U7,6,GND*%
%TO.N,GND*%
X159787500Y-68737500D03*
D94*
%TO.P,U7,7,INT_MAG/DRDY*%
%TO.N,unconnected-(U7-INT_MAG{slash}DRDY-Pad7)*%
X160300000Y-68725000D03*
%TO.P,U7,8,GND*%
%TO.N,GND*%
X160300000Y-68225000D03*
%TO.P,U7,9,VDD*%
%TO.N,+3V3*%
X160300000Y-67725000D03*
%TO.P,U7,10,VDD_IO*%
X160300000Y-67225000D03*
D95*
%TO.P,U7,11,INT_2_XL*%
%TO.N,unconnected-(U7-INT_2_XL-Pad11)*%
X159787500Y-67212500D03*
%TO.P,U7,12,INT_1_XL*%
%TO.N,unconnected-(U7-INT_1_XL-Pad12)*%
X159287500Y-67212500D03*
%TD*%
D32*
%TO.P,R40,1,1*%
%TO.N,Net-(IC4-VFB)*%
X167217817Y-132086446D03*
%TO.P,R40,2,2*%
%TO.N,VBATT_SENSE*%
X168867817Y-132086446D03*
%TD*%
D20*
%TO.P,R91,1*%
%TO.N,/Payload Stuff/F1_ENB*%
X110725000Y-39875000D03*
%TO.P,R91,2*%
%TO.N,Net-(D19-A)*%
X110725000Y-38225000D03*
%TD*%
D18*
%TO.P,R1,1,1*%
%TO.N,/Flight Computer Stuff/QSPI_CS*%
X180941637Y-67941637D03*
%TO.P,R1,2,2*%
%TO.N,Net-(D1-A)*%
X182108363Y-69108363D03*
%TD*%
D17*
%TO.P,C15,1,1*%
%TO.N,+3V3*%
X197210589Y-73160589D03*
%TO.P,C15,2,2*%
%TO.N,GND*%
X197889411Y-73839411D03*
%TD*%
D20*
%TO.P,R37,1,1*%
%TO.N,GND*%
X109262500Y-112125000D03*
%TO.P,R37,2,2*%
%TO.N,Net-(K1-PadNO)*%
X109262500Y-110475000D03*
%TD*%
D96*
%TO.P,IC4,1,VIN*%
%TO.N,Net-(D6-K)*%
X162527817Y-127371446D03*
%TO.P,IC4,2,VIN_REG*%
%TO.N,Net-(IC4-VIN_REG)*%
X162527817Y-128021446D03*
%TO.P,IC4,3,~{SHDN}*%
%TO.N,Net-(D6-K)*%
X162527817Y-128671446D03*
%TO.P,IC4,4,~{CHRG}*%
%TO.N,/Electrical Power System Stuff/CHRG'*%
X162527817Y-129321446D03*
%TO.P,IC4,5,~{FAULT}*%
%TO.N,unconnected-(IC4-~{FAULT}-Pad5)*%
X162527817Y-129971446D03*
%TO.P,IC4,6,TIMER*%
%TO.N,GND*%
X162527817Y-130621446D03*
%TO.P,IC4,7,VFB*%
%TO.N,Net-(IC4-VFB)*%
X166827817Y-130621446D03*
%TO.P,IC4,8,NTC*%
%TO.N,unconnected-(IC4-NTC-Pad8)*%
X166827817Y-129971446D03*
%TO.P,IC4,9,BAT*%
%TO.N,VBATT_SENSE*%
X166827817Y-129321446D03*
%TO.P,IC4,10,SENSE*%
%TO.N,Net-(IC4-SENSE)*%
X166827817Y-128671446D03*
%TO.P,IC4,11,BOOST*%
%TO.N,Net-(IC4-BOOST)*%
X166827817Y-128021446D03*
%TO.P,IC4,12,SW*%
%TO.N,Net-(D11-K)*%
X166827817Y-127371446D03*
D97*
%TO.P,IC4,13,EP*%
%TO.N,GND*%
X164677817Y-128996446D03*
%TD*%
D98*
%TO.P,J25,1,Pin_1*%
%TO.N,GND*%
X180900000Y-92245000D03*
D99*
%TO.P,J25,2,Pin_2*%
%TO.N,FC_RX*%
X180900000Y-94785000D03*
%TO.P,J25,3,Pin_3*%
%TO.N,FC_TX*%
X180900000Y-97325000D03*
%TO.P,J25,4,Pin_4*%
%TO.N,EPS_SCL1*%
X180900000Y-99865000D03*
%TO.P,J25,5,Pin_5*%
%TO.N,EPS_SDA1*%
X180900000Y-102405000D03*
%TO.P,J25,6,Pin_6*%
%TO.N,+3V3*%
X180900000Y-104945000D03*
%TD*%
D59*
%TO.P,C56,1*%
%TO.N,Net-(C56-Pad1)*%
X127802817Y-117921446D03*
%TO.P,C56,2*%
%TO.N,PACK-*%
X126252817Y-117921446D03*
%TD*%
D82*
%TO.P,C89,1,1*%
%TO.N,Net-(U25-SS)*%
X138327817Y-71408946D03*
%TO.P,C89,2,2*%
%TO.N,GND*%
X138327817Y-72958946D03*
%TD*%
D83*
%TO.P,R76,1,1*%
%TO.N,/Electrical Power System Stuff/CANL*%
X163000000Y-99525000D03*
%TO.P,R76,2,2*%
%TO.N,/Electrical Power System Stuff/CANH*%
X161350000Y-99525000D03*
%TD*%
D100*
%TO.P,U42,1,SDA*%
%TO.N,/Payload Stuff/F4_SDA*%
X89619999Y-76022500D03*
%TO.P,U42,2,SCL*%
%TO.N,/Payload Stuff/F4_SCL*%
X89619999Y-75372500D03*
%TO.P,U42,3,Alert*%
%TO.N,unconnected-(U42-Alert-Pad3)*%
X89619999Y-74722500D03*
%TO.P,U42,4,GND*%
%TO.N,GND*%
X89619999Y-74072500D03*
%TO.P,U42,5,A2*%
X85269999Y-74072500D03*
%TO.P,U42,6,A1*%
%TO.N,/Payload Stuff/F4_ENB*%
X85269999Y-74722500D03*
%TO.P,U42,7,A0*%
X85269999Y-75372500D03*
%TO.P,U42,8,VDD*%
X85269999Y-76022500D03*
D101*
%TO.P,U42,9,EP/GND*%
%TO.N,GND*%
X87444999Y-75047500D03*
%TD*%
D92*
%TO.P,C109,1*%
%TO.N,Net-(U41-REG)*%
X91675000Y-70137499D03*
%TO.P,C109,2*%
%TO.N,GND*%
X91675000Y-68237501D03*
%TD*%
D87*
%TO.P,J10,1,Pin_1*%
%TO.N,+3V3*%
X171850000Y-94525000D03*
%TO.P,J10,2,Pin_2*%
%TO.N,/Flight Computer Stuff/CANH*%
X171850000Y-93525000D03*
%TO.P,J10,3,Pin_3*%
%TO.N,/Flight Computer Stuff/CANL*%
X171850000Y-92525000D03*
%TO.P,J10,4,Pin_4*%
%TO.N,GND*%
X171850000Y-91525000D03*
D88*
%TO.P,J10,MP*%
%TO.N,N/C*%
X169325000Y-95825000D03*
X169325000Y-90225000D03*
%TD*%
D14*
%TO.P,C18,1,1*%
%TO.N,VDDA*%
X161125000Y-39787500D03*
%TO.P,C18,2,2*%
%TO.N,GNDA*%
X162675000Y-39787500D03*
%TD*%
D102*
%TO.P,C72,1,1*%
%TO.N,VBUSP*%
X146702817Y-67533946D03*
%TO.P,C72,2,2*%
%TO.N,GND*%
X149652817Y-67533946D03*
%TD*%
D22*
%TO.P,J29,1,Pin_1*%
%TO.N,GND*%
X141077817Y-140956446D03*
%TO.P,J29,2,Pin_2*%
%TO.N,VSOLAR*%
X142577817Y-140956446D03*
D23*
%TO.P,J29,S1*%
%TO.N,N/C*%
X138472817Y-146146446D03*
%TO.P,J29,S2*%
X145182817Y-146146446D03*
%TD*%
D80*
%TO.P,D11,1,K*%
%TO.N,Net-(D11-K)*%
X165792818Y-122536446D03*
%TO.P,D11,2,A*%
%TO.N,GND*%
X161492816Y-122536446D03*
%TD*%
D54*
%TO.P,U31,1,SDA*%
%TO.N,/Payload Stuff/F1_SDA*%
X112525000Y-46825000D03*
%TO.P,U31,2,SCL*%
%TO.N,/Payload Stuff/F1_SCL*%
X113175000Y-46825000D03*
%TO.P,U31,3,Alert*%
%TO.N,unconnected-(U31-Alert-Pad3)*%
X113825000Y-46825000D03*
%TO.P,U31,4,GND*%
%TO.N,GND*%
X114475000Y-46825000D03*
%TO.P,U31,5,A2*%
X114475000Y-42475000D03*
%TO.P,U31,6,A1*%
%TO.N,/Payload Stuff/F1_ENB*%
X113825000Y-42475000D03*
%TO.P,U31,7,A0*%
X113175000Y-42475000D03*
%TO.P,U31,8,VDD*%
X112525000Y-42475000D03*
D55*
%TO.P,U31,9,EP/GND*%
%TO.N,GND*%
X113500000Y-44650000D03*
%TD*%
D32*
%TO.P,R4,1,1*%
%TO.N,/Flight Computer Stuff/RX+*%
X189725000Y-39400000D03*
%TO.P,R4,2,2*%
%TO.N,/Flight Computer Stuff/RCT*%
X191375000Y-39400000D03*
%TD*%
D83*
%TO.P,R61,1*%
%TO.N,Net-(U17-+IN)*%
X89752817Y-83571445D03*
%TO.P,R61,2*%
%TO.N,Net-(J34-Pin_2)*%
X88102817Y-83571445D03*
%TD*%
D103*
%TO.P,L2,1,1*%
%TO.N,Net-(D11-K)*%
X168355317Y-122761446D03*
%TO.P,L2,2,2*%
%TO.N,Net-(IC4-SENSE)*%
X172630317Y-122761446D03*
%TD*%
D85*
%TO.P,C23,1,1*%
%TO.N,GNDA*%
X153475000Y-35162501D03*
%TO.P,C23,2,2*%
%TO.N,Net-(U6-TOCAP)*%
X153475000Y-37062499D03*
%TD*%
D104*
%TO.P,U36,1,SCL*%
%TO.N,/Payload Stuff/F3_SCL*%
X86364999Y-48925001D03*
%TO.P,U36,2,VDD*%
%TO.N,/Payload Stuff/F3_ENB*%
X87634999Y-48925000D03*
%TO.P,U36,3,GND*%
%TO.N,GND*%
X88904999Y-48925000D03*
%TO.P,U36,4,SDA*%
%TO.N,/Payload Stuff/F3_SDA*%
X90174999Y-48925001D03*
%TD*%
D105*
%TO.P,J27,1,1*%
%TO.N,+3V3*%
X145202817Y-83196446D03*
%TO.P,J27,2,2*%
%TO.N,GND*%
X144202817Y-83196446D03*
%TO.P,J27,3,3*%
%TO.N,+5V*%
X143202817Y-83196446D03*
%TO.P,J27,4,4*%
%TO.N,GND*%
X142202817Y-83196446D03*
D106*
%TO.P,J27,S1,SHIELD*%
X146502817Y-85721446D03*
%TO.P,J27,S2,SHIELD*%
X140902817Y-85721446D03*
%TD*%
D107*
%TO.P,L3,1,1*%
%TO.N,Net-(U16-SW1)*%
X150227817Y-94196446D03*
%TO.P,L3,2,2*%
%TO.N,+5V*%
X150227817Y-98471446D03*
%TD*%
D108*
%TO.P,D16,1,1*%
%TO.N,/Electrical Power System Stuff/USBBOOT*%
X183572183Y-119340812D03*
%TO.P,D16,2,2*%
%TO.N,Net-(D16-Pad2)*%
X185127817Y-120896446D03*
%TD*%
D109*
%TO.P,R29,1,1*%
%TO.N,+3V3*%
X205625001Y-52850000D03*
D110*
%TO.P,R29,2,1*%
%TO.N,2.8V*%
X205625001Y-53650000D03*
%TO.P,R29,3,1*%
%TO.N,+3V3*%
X205625001Y-54450000D03*
D109*
%TO.P,R29,4,1*%
%TO.N,2.8V*%
X205625001Y-55250000D03*
%TO.P,R29,5,2*%
%TO.N,/Flight Computer Stuff/SDA_3V*%
X207425001Y-55250000D03*
D110*
%TO.P,R29,6,2*%
%TO.N,/Flight Computer Stuff/SDA1*%
X207425001Y-54450000D03*
%TO.P,R29,7,2*%
%TO.N,/Flight Computer Stuff/SCL_3V*%
X207425001Y-53650000D03*
D109*
%TO.P,R29,8,2*%
%TO.N,/Flight Computer Stuff/SCL1*%
X207425001Y-52850000D03*
%TD*%
D20*
%TO.P,R89,1*%
%TO.N,/Payload Stuff/F0_ENB*%
X126850000Y-40025000D03*
%TO.P,R89,2*%
%TO.N,Net-(D18-A)*%
X126850000Y-38375000D03*
%TD*%
D87*
%TO.P,J31,1,Pin_1*%
%TO.N,GND*%
X209500000Y-110800000D03*
%TO.P,J31,2,Pin_2*%
%TO.N,+3V3*%
X209500000Y-109800000D03*
%TO.P,J31,3,Pin_3*%
%TO.N,/Electrical Power System Stuff/SDA0*%
X209500000Y-108800000D03*
%TO.P,J31,4,Pin_4*%
%TO.N,/Electrical Power System Stuff/SCL0*%
X209500000Y-107800000D03*
D88*
%TO.P,J31,MP*%
%TO.N,N/C*%
X213375000Y-112100000D03*
X213375000Y-106500000D03*
%TD*%
D44*
%TO.P,C49,1,1*%
%TO.N,GND*%
X149502817Y-101608946D03*
%TO.P,C49,2,2*%
%TO.N,+5V*%
X149502817Y-100058946D03*
%TD*%
D26*
%TO.P,TP4,1,1*%
%TO.N,Net-(U5-STBY)*%
X170850000Y-86125000D03*
%TD*%
D30*
%TO.P,R28,1,1*%
%TO.N,/Flight Computer Stuff/XSHUT_2.8V*%
X212325001Y-55850000D03*
%TO.P,R28,2,2*%
%TO.N,2.8V*%
X212325001Y-57500000D03*
%TD*%
D58*
%TO.P,C85,1,1*%
%TO.N,+3V3*%
X186978822Y-119075000D03*
%TO.P,C85,2,2*%
%TO.N,GND*%
X186300000Y-118396178D03*
%TD*%
D33*
%TO.P,J14,1,Pin_1*%
%TO.N,GND*%
X84490001Y-127600000D03*
%TO.P,J14,2,Pin_2*%
%TO.N,PACK-*%
X84490001Y-129100000D03*
D34*
%TO.P,J14,S1*%
%TO.N,N/C*%
X79300000Y-124995000D03*
%TO.P,J14,S2*%
X79300000Y-131705000D03*
%TD*%
D22*
%TO.P,J12,1,Pin_1*%
%TO.N,VBatt*%
X102082817Y-140718946D03*
%TO.P,J12,2,Pin_2*%
%TO.N,Net-(J12-Pin_2)*%
X103582817Y-140718946D03*
D23*
%TO.P,J12,S1*%
%TO.N,N/C*%
X99477817Y-145908946D03*
%TO.P,J12,S2*%
X106187817Y-145908946D03*
%TD*%
D111*
%TO.P,R47,1*%
%TO.N,B-*%
X118740317Y-127771446D03*
%TO.P,R47,2*%
%TO.N,Net-(C56-Pad1)*%
X124665317Y-127771446D03*
%TD*%
D30*
%TO.P,R75,1,1*%
%TO.N,+3V3*%
X167875000Y-110400000D03*
%TO.P,R75,2,2*%
%TO.N,Net-(U24-RESET)*%
X167875000Y-112050000D03*
%TD*%
D22*
%TO.P,J33,1,Pin_1*%
%TO.N,Net-(J33-Pin_1)*%
X135950000Y-40415001D03*
%TO.P,J33,2,Pin_2*%
%TO.N,Net-(J33-Pin_2)*%
X134450000Y-40415001D03*
D23*
%TO.P,J33,S1*%
%TO.N,N/C*%
X138555000Y-35225000D03*
%TO.P,J33,S2*%
X131845000Y-35225000D03*
%TD*%
D99*
%TO.P,J23,1,Power*%
%TO.N,BURN*%
X87265000Y-99955000D03*
D98*
X88535000Y-97415000D03*
X91075000Y-97415000D03*
D99*
X92635000Y-99955000D03*
D98*
%TO.P,J23,2,GND*%
%TO.N,GND*%
X87265000Y-105035000D03*
X88535000Y-107575000D03*
X91075000Y-107575000D03*
X92635000Y-105035000D03*
%TD*%
D105*
%TO.P,J28,1,1*%
%TO.N,VBUS*%
X209600000Y-116962500D03*
%TO.P,J28,2,2*%
%TO.N,/Electrical Power System Stuff/USB_D-*%
X210600000Y-116962500D03*
%TO.P,J28,3,3*%
%TO.N,/Electrical Power System Stuff/USB_D+*%
X211600000Y-116962500D03*
%TO.P,J28,4,4*%
%TO.N,GND*%
X212600000Y-116962500D03*
D106*
%TO.P,J28,S1,SHIELD*%
X208300000Y-114437500D03*
%TO.P,J28,S2,SHIELD*%
X213900000Y-114437500D03*
%TD*%
D112*
%TO.P,R64,1,1*%
%TO.N,VSOLAR_I*%
X143277817Y-133221446D03*
%TO.P,R64,2,2*%
%TO.N,VSOLAR*%
X143277817Y-139146446D03*
%TD*%
D113*
%TO.P,LED1,1,VDD*%
%TO.N,+3V3*%
X208725000Y-76375000D03*
%TO.P,LED1,2,DO*%
%TO.N,unconnected-(LED1-DO-Pad2)*%
X208725000Y-79675000D03*
%TO.P,LED1,3,GND*%
%TO.N,GND*%
X213625000Y-79675000D03*
%TO.P,LED1,4,DI*%
%TO.N,/Flight Computer Stuff/NEOPIX*%
X213625000Y-76375000D03*
%TD*%
D56*
%TO.P,C104,1*%
%TO.N,/Payload Stuff/F3_ENB*%
X85375000Y-55000000D03*
%TO.P,C104,2*%
%TO.N,GND*%
X87274998Y-55000000D03*
%TD*%
D10*
%TO.P,JP4,1,A*%
%TO.N,+3V3*%
X204275000Y-89050000D03*
D11*
%TO.P,JP4,2,C*%
%TO.N,Net-(J9-Pin_10)*%
X202975000Y-89050000D03*
D12*
%TO.P,JP4,3,B*%
%TO.N,/Flight Computer Stuff/D8*%
X201675000Y-89050000D03*
%TD*%
D26*
%TO.P,TP12,1,1*%
%TO.N,VBUSP*%
X127827817Y-132121446D03*
%TD*%
D56*
%TO.P,C99,1*%
%TO.N,/Payload Stuff/F1_ENB*%
X112500000Y-40500000D03*
%TO.P,C99,2*%
%TO.N,GND*%
X114400000Y-40500000D03*
%TD*%
D114*
%TO.P,Y3,1,1*%
%TO.N,Net-(U6-XI{slash}CLKIN)*%
X143774999Y-42287500D03*
%TO.P,Y3,2*%
%TO.N,N/C*%
X143774999Y-44487500D03*
%TO.P,Y3,3,2*%
%TO.N,Net-(U6-XO)*%
X145474999Y-44487500D03*
%TO.P,Y3,4*%
%TO.N,N/C*%
X145474999Y-42287500D03*
%TD*%
D22*
%TO.P,J15,1,Pin_1*%
%TO.N,Net-(J12-Pin_2)*%
X110707817Y-140743946D03*
%TO.P,J15,2,Pin_2*%
%TO.N,VBatt1*%
X112207817Y-140743946D03*
D23*
%TO.P,J15,S1*%
%TO.N,N/C*%
X108102817Y-145933946D03*
%TO.P,J15,S2*%
X114812817Y-145933946D03*
%TD*%
D92*
%TO.P,C108,1*%
%TO.N,/Payload Stuff/F4_ENB*%
X83200000Y-75937499D03*
%TO.P,C108,2*%
%TO.N,GND*%
X83200000Y-74037501D03*
%TD*%
D14*
%TO.P,C47,1,1*%
%TO.N,Net-(D11-K)*%
X165592817Y-125936446D03*
%TO.P,C47,2,2*%
%TO.N,Net-(IC4-BOOST)*%
X167142817Y-125936446D03*
%TD*%
D82*
%TO.P,C24,1,1*%
%TO.N,GNDA*%
X151700000Y-35562500D03*
%TO.P,C24,2,2*%
%TO.N,Net-(U6-1V20)*%
X151700000Y-37112500D03*
%TD*%
D115*
%TO.P,R93,1*%
%TO.N,+3V3*%
X114369714Y-51554281D03*
%TO.P,R93,2*%
%TO.N,I2C_RESET*%
X113202988Y-52721007D03*
%TD*%
D105*
%TO.P,J5,1,1*%
%TO.N,/Flight Computer Stuff/FC_USB_pwr*%
X210000000Y-62350000D03*
%TO.P,J5,2,2*%
%TO.N,/Flight Computer Stuff/USB_D-*%
X211000000Y-62350000D03*
%TO.P,J5,3,3*%
%TO.N,/Flight Computer Stuff/USB_D+*%
X212000000Y-62350000D03*
%TO.P,J5,4,4*%
%TO.N,GND*%
X213000000Y-62350000D03*
D106*
%TO.P,J5,S1,SHIELD*%
X208700000Y-59825000D03*
%TO.P,J5,S2,SHIELD*%
X214300000Y-59825000D03*
%TD*%
D32*
%TO.P,R9,1,1*%
%TO.N,VDDA*%
X189775000Y-45675000D03*
%TO.P,R9,2,2*%
%TO.N,/Flight Computer Stuff/TX-*%
X191425000Y-45675000D03*
%TD*%
D30*
%TO.P,R19,1,1*%
%TO.N,+3V3*%
X156975000Y-77500000D03*
%TO.P,R19,2,2*%
%TO.N,/Flight Computer Stuff/SPI0_CS2*%
X156975000Y-79150000D03*
%TD*%
D107*
%TO.P,L4,1,1*%
%TO.N,Net-(U25-SW1)*%
X150002817Y-72396446D03*
%TO.P,L4,2,2*%
%TO.N,+3V3*%
X150002817Y-76671446D03*
%TD*%
D32*
%TO.P,R80,1,1*%
%TO.N,GND*%
X136727817Y-69058946D03*
%TO.P,R80,2,2*%
%TO.N,Net-(U25-VFB)*%
X138377817Y-69058946D03*
%TD*%
D75*
%TO.P,U35,1,REG*%
%TO.N,Net-(U35-REG)*%
X102500000Y-46850000D03*
%TO.P,U35,2,SCL*%
%TO.N,/Payload Stuff/F2_SCL*%
X103000001Y-46850000D03*
%TO.P,U35,3,SDA*%
%TO.N,/Payload Stuff/F2_SDA*%
X103500000Y-46850000D03*
%TO.P,U35,4,IN/TRIG*%
%TO.N,GND*%
X103999999Y-46850000D03*
%TO.P,U35,5,EN*%
%TO.N,/Payload Stuff/F2_ENB*%
X104500000Y-46850000D03*
%TO.P,U35,6,VDD/NC*%
%TO.N,unconnected-(U35-VDD{slash}NC-Pad6)*%
X104500000Y-42450000D03*
%TO.P,U35,7,OUT+*%
%TO.N,Net-(J38-Pin_1)*%
X103999999Y-42450000D03*
%TO.P,U35,8,GND*%
%TO.N,GND*%
X103500000Y-42450000D03*
%TO.P,U35,9,OUT-*%
%TO.N,Net-(J38-Pin_2)*%
X103000001Y-42450000D03*
%TO.P,U35,10,VDD*%
%TO.N,/Payload Stuff/F2_ENB*%
X102500000Y-42450000D03*
%TD*%
D116*
%TO.P,J6,1,VBUS*%
%TO.N,/Flight Computer Stuff/FC_USB_pwr*%
X211115000Y-68862500D03*
%TO.P,J6,2,D-*%
%TO.N,/Flight Computer Stuff/USB_D-*%
X211115001Y-69512500D03*
%TO.P,J6,3,D+*%
%TO.N,/Flight Computer Stuff/USB_D+*%
X211115000Y-70162500D03*
%TO.P,J6,4,ID*%
%TO.N,unconnected-(J6-ID-Pad4)*%
X211115001Y-70812500D03*
%TO.P,J6,5,GND*%
%TO.N,GND*%
X211115000Y-71462500D03*
D117*
%TO.P,J6,SH1,Shield*%
X213775000Y-74112500D03*
D118*
%TO.P,J6,SH2*%
%TO.N,N/C*%
X211475000Y-72625000D03*
D119*
%TO.P,J6,SH3*%
X213775000Y-71100000D03*
%TO.P,J6,SH4*%
X213775000Y-69225000D03*
D118*
%TO.P,J6,SH5*%
X211475000Y-67700000D03*
D117*
%TO.P,J6,SH6*%
X213775000Y-66212500D03*
%TD*%
D33*
%TO.P,J16,1,Pin_1*%
%TO.N,Heater*%
X84715001Y-110650000D03*
%TO.P,J16,2,Pin_2*%
%TO.N,GND*%
X84715001Y-112150000D03*
D34*
%TO.P,J16,S1*%
%TO.N,N/C*%
X79525000Y-108045000D03*
%TO.P,J16,S2*%
X79525000Y-114755000D03*
%TD*%
D33*
%TO.P,J19,1,Pin_1*%
%TO.N,BURN*%
X84815001Y-102025000D03*
%TO.P,J19,2,Pin_2*%
%TO.N,GND*%
X84815001Y-103525000D03*
D34*
%TO.P,J19,S1*%
%TO.N,N/C*%
X79625000Y-99420000D03*
%TO.P,J19,S2*%
X79625000Y-106130000D03*
%TD*%
D14*
%TO.P,C82,1,1*%
%TO.N,+3V3*%
X200175000Y-124500000D03*
%TO.P,C82,2,2*%
%TO.N,GND*%
X201725000Y-124500000D03*
%TD*%
D91*
%TO.P,U33,1,SCL*%
%TO.N,/Payload Stuff/F2_SCL*%
X107000000Y-43195000D03*
%TO.P,U33,2,VDD*%
%TO.N,/Payload Stuff/F2_ENB*%
X107000000Y-44465000D03*
%TO.P,U33,3,GND*%
%TO.N,GND*%
X107000000Y-45735000D03*
%TO.P,U33,4,SDA*%
%TO.N,/Payload Stuff/F2_SDA*%
X107000000Y-47005000D03*
%TD*%
D32*
%TO.P,R84,1*%
%TO.N,VBUSP*%
X137852817Y-80133946D03*
%TO.P,R84,2*%
%TO.N,Net-(R84-Pad2)*%
X139502817Y-80133946D03*
%TD*%
D81*
%TO.P,C1,1,1*%
%TO.N,GND*%
X185985589Y-77714411D03*
%TO.P,C1,2,2*%
%TO.N,Net-(IC1-XIN)*%
X186664411Y-77035589D03*
%TD*%
D120*
%TO.P,C31,1,1*%
%TO.N,/Flight Computer Stuff/CANL*%
X160325000Y-93330000D03*
%TO.P,C31,2,2*%
%TO.N,GND*%
X160325000Y-92370000D03*
%TD*%
D121*
%TO.P,C55,1*%
%TO.N,Heater*%
X97287500Y-108024999D03*
%TO.P,C55,2*%
%TO.N,GND*%
X97287500Y-110975001D03*
%TD*%
D116*
%TO.P,J36,1,VBUS*%
%TO.N,VBUS*%
X210027500Y-123075000D03*
%TO.P,J36,2,D-*%
%TO.N,/Electrical Power System Stuff/USB_D-*%
X210027501Y-123725000D03*
%TO.P,J36,3,D+*%
%TO.N,/Electrical Power System Stuff/USB_D+*%
X210027500Y-124375000D03*
%TO.P,J36,4,ID*%
%TO.N,unconnected-(J36-ID-Pad4)*%
X210027501Y-125025000D03*
%TO.P,J36,5,GND*%
%TO.N,GND*%
X210027500Y-125675000D03*
D117*
%TO.P,J36,SH1,Shield*%
X212687500Y-128325000D03*
D118*
%TO.P,J36,SH2*%
%TO.N,N/C*%
X210387500Y-126837500D03*
D119*
%TO.P,J36,SH3*%
X212687500Y-125312500D03*
%TO.P,J36,SH4*%
X212687500Y-123437500D03*
D118*
%TO.P,J36,SH5*%
X210387500Y-121912500D03*
D117*
%TO.P,J36,SH6*%
X212687500Y-120425000D03*
%TD*%
D45*
%TO.P,Q5,1,Source*%
%TO.N,Net-(K1-PadNO)*%
X107375001Y-105680000D03*
%TO.P,Q5,2,Source*%
X107375000Y-104410000D03*
%TO.P,Q5,3,Source*%
X107375000Y-103140000D03*
%TO.P,Q5,4,Gate*%
%TO.N,Net-(Q3-D)*%
X107375001Y-101870000D03*
%TO.P,Q5,5,Drain*%
%TO.N,BURN*%
X102099999Y-101870000D03*
%TO.P,Q5,6,Drain*%
X102100000Y-103140000D03*
%TO.P,Q5,7,Drain*%
X102100000Y-104410000D03*
%TO.P,Q5,8,Drain*%
X102099999Y-105680000D03*
D46*
%TO.P,Q5,9*%
%TO.N,N/C*%
X104737500Y-103775000D03*
%TD*%
D14*
%TO.P,C59,1*%
%TO.N,B-*%
X118940317Y-121958946D03*
%TO.P,C59,2*%
%TO.N,Net-(U14-VC)*%
X120490317Y-121958946D03*
%TD*%
D92*
%TO.P,C34,1,1*%
%TO.N,+3V3*%
X146725000Y-39912499D03*
%TO.P,C34,2,2*%
%TO.N,GND*%
X146725000Y-38012501D03*
%TD*%
D122*
%TO.P,U4,1,SDO/SA0*%
%TO.N,unconnected-(U4-SDO{slash}SA0-Pad1)*%
X165062500Y-68025000D03*
%TO.P,U4,2,SDx*%
%TO.N,unconnected-(U4-SDx-Pad2)*%
X165062500Y-68525000D03*
%TO.P,U4,3,SCx*%
%TO.N,unconnected-(U4-SCx-Pad3)*%
X165062500Y-69025000D03*
%TO.P,U4,4,INT1*%
%TO.N,unconnected-(U4-INT1-Pad4)*%
X165062500Y-69525000D03*
D123*
%TO.P,U4,5,VDDIO*%
%TO.N,+3V3*%
X165725000Y-69687500D03*
%TO.P,U4,6,GND*%
%TO.N,GND*%
X166225000Y-69687500D03*
%TO.P,U4,7,GND*%
X166725000Y-69687500D03*
D122*
%TO.P,U4,8,VDD*%
%TO.N,+3V3*%
X167387500Y-69525000D03*
%TO.P,U4,9,INT2*%
%TO.N,unconnected-(U4-INT2-Pad9)*%
X167387500Y-69025000D03*
%TO.P,U4,10,OCS_Aux*%
%TO.N,unconnected-(U4-OCS_Aux-Pad10)*%
X167387500Y-68525000D03*
%TO.P,U4,11,SDO_Aux*%
%TO.N,unconnected-(U4-SDO_Aux-Pad11)*%
X167387500Y-68025000D03*
D123*
%TO.P,U4,12,CS*%
%TO.N,+3V3*%
X166725000Y-67862500D03*
%TO.P,U4,13,SCL*%
%TO.N,/Flight Computer Stuff/SCL1*%
X166225000Y-67862500D03*
%TO.P,U4,14,SDA*%
%TO.N,/Flight Computer Stuff/SDA1*%
X165725000Y-67862500D03*
%TD*%
D124*
%TO.P,K1,C1*%
%TO.N,VBUSP*%
X127717501Y-112765000D03*
D125*
%TO.P,K1,C2*%
%TO.N,Net-(Q2-C)*%
X127717501Y-110225000D03*
D27*
%TO.P,K1,M*%
%TO.N,PACK+*%
X127717501Y-94984999D03*
%TO.P,K1,NO*%
%TO.N,Net-(K1-PadNO)*%
X127717501Y-100065000D03*
%TD*%
D45*
%TO.P,Q6,1,Source*%
%TO.N,Net-(K1-PadNO)*%
X107380001Y-111355000D03*
%TO.P,Q6,2,Source*%
X107380000Y-110085000D03*
%TO.P,Q6,3,Source*%
X107380000Y-108815000D03*
%TO.P,Q6,4,Gate*%
%TO.N,Net-(Q4-D)*%
X107380001Y-107545000D03*
%TO.P,Q6,5,Drain*%
%TO.N,Heater*%
X102104999Y-107545000D03*
%TO.P,Q6,6,Drain*%
X102105000Y-108815000D03*
%TO.P,Q6,7,Drain*%
X102105000Y-110085000D03*
%TO.P,Q6,8,Drain*%
X102104999Y-111355000D03*
D46*
%TO.P,Q6,9*%
%TO.N,N/C*%
X104742500Y-109450000D03*
%TD*%
D32*
%TO.P,R62,1,1*%
%TO.N,/Electrical Power System Stuff/D-*%
X204025000Y-123500000D03*
%TO.P,R62,2,2*%
%TO.N,/Electrical Power System Stuff/USB_D-*%
X205675000Y-123500000D03*
%TD*%
D22*
%TO.P,J38,1,Pin_1*%
%TO.N,Net-(J38-Pin_1)*%
X104250000Y-40390001D03*
%TO.P,J38,2,Pin_2*%
%TO.N,Net-(J38-Pin_2)*%
X102750000Y-40390001D03*
D23*
%TO.P,J38,S1*%
%TO.N,N/C*%
X106855000Y-35200000D03*
%TO.P,J38,S2*%
X100145000Y-35200000D03*
%TD*%
D26*
%TO.P,TP13,1,1*%
%TO.N,/Electrical Power System Stuff/USBBOOT*%
X180300000Y-120643629D03*
%TD*%
D126*
%TO.P,D10,1,1*%
%TO.N,Net-(IC4-BOOST)*%
X169242817Y-126711446D03*
D127*
%TO.P,D10,2,2*%
%TO.N,VBATT_SENSE*%
X169242817Y-129086446D03*
%TD*%
D98*
%TO.P,J2,1,Pin_1*%
%TO.N,GND*%
X182550000Y-53625000D03*
D99*
%TO.P,J2,2,Pin_2*%
%TO.N,FC_TX*%
X185090000Y-53625000D03*
%TO.P,J2,3,Pin_3*%
%TO.N,FC_RX*%
X187629999Y-53625000D03*
%TO.P,J2,4,Pin_4*%
%TO.N,/Flight Computer Stuff/SCL1*%
X190170000Y-53625000D03*
%TO.P,J2,5,Pin_5*%
%TO.N,/Flight Computer Stuff/SDA1*%
X192710000Y-53625000D03*
%TO.P,J2,6,Pin_6*%
%TO.N,+3V3*%
X195250000Y-53625000D03*
%TD*%
D128*
%TO.P,D2,1,K*%
%TO.N,GND*%
X214387501Y-64575000D03*
%TO.P,D2,2,A*%
%TO.N,Net-(D2-A)*%
X212812499Y-64575000D03*
%TD*%
D104*
%TO.P,U40,1,SCL*%
%TO.N,/Payload Stuff/F4_SCL*%
X85770000Y-65612500D03*
%TO.P,U40,2,VDD*%
%TO.N,/Payload Stuff/F4_ENB*%
X87040000Y-65612499D03*
%TO.P,U40,3,GND*%
%TO.N,GND*%
X88310000Y-65612499D03*
%TO.P,U40,4,SDA*%
%TO.N,/Payload Stuff/F4_SDA*%
X89580000Y-65612500D03*
%TD*%
D129*
%TO.P,U22,1,ADDR*%
%TO.N,Net-(JP12-A)*%
X100552817Y-82621446D03*
%TO.P,U22,2,ALERT/RDY*%
%TO.N,unconnected-(U22-ALERT{slash}RDY-Pad2)*%
X100052817Y-82621446D03*
%TO.P,U22,3,GND*%
%TO.N,AGND*%
X99552817Y-82621445D03*
%TO.P,U22,4,AIN0*%
%TO.N,AVDD*%
X99052817Y-82621446D03*
%TO.P,U22,5,AIN1*%
%TO.N,/Electrical Power System Stuff/OUT*%
X98552817Y-82621446D03*
%TO.P,U22,6,AIN2*%
%TO.N,AVDD*%
X98552817Y-86921446D03*
%TO.P,U22,7,AIN3*%
X99052817Y-86921446D03*
%TO.P,U22,8,VDD*%
X99552817Y-86921447D03*
%TO.P,U22,9,SDA*%
%TO.N,/Electrical Power System Stuff/SDA0*%
X100052817Y-86921446D03*
%TO.P,U22,10,SCL*%
%TO.N,/Electrical Power System Stuff/SCL0*%
X100552817Y-86921446D03*
%TD*%
D130*
%TO.P,U3,1,\u002AOE*%
%TO.N,/Flight Computer Stuff/SPI0_CS3*%
X165762500Y-52137500D03*
%TO.P,U3,2,A*%
%TO.N,/Flight Computer Stuff/MISO_ETHER*%
X165762500Y-53087500D03*
%TO.P,U3,3,GND*%
%TO.N,GND*%
X165762500Y-54037500D03*
%TO.P,U3,4,Y*%
%TO.N,/Flight Computer Stuff/SPI0_MISO*%
X168037500Y-54037500D03*
%TO.P,U3,5,VCC*%
%TO.N,+3V3*%
X168037500Y-52137500D03*
%TD*%
D32*
%TO.P,R49,1,1*%
%TO.N,/Electrical Power System Stuff/Jetson*%
X118017501Y-97700000D03*
%TO.P,R49,2,2*%
%TO.N,GND*%
X119667501Y-97700000D03*
%TD*%
D121*
%TO.P,C62,1*%
%TO.N,/Electrical Power System Stuff/Jetson_pwr*%
X97387500Y-96324999D03*
%TO.P,C62,2*%
%TO.N,GND*%
X97387500Y-99275001D03*
%TD*%
D32*
%TO.P,R7,1,1*%
%TO.N,+3V3*%
X189950000Y-64050000D03*
%TO.P,R7,2,2*%
%TO.N,/Flight Computer Stuff/QSPI_CS*%
X191600000Y-64050000D03*
%TD*%
D131*
%TO.P,U5,1,CS*%
%TO.N,/Flight Computer Stuff/SPI0_CS2*%
X158642500Y-80355000D03*
%TO.P,U5,2,RESET*%
%TO.N,Net-(U5-RESET)*%
X158642500Y-81005000D03*
%TO.P,U5,3,VDD@1*%
%TO.N,+3V3*%
X158642500Y-81655000D03*
%TO.P,U5,4,TXCAN*%
%TO.N,/Flight Computer Stuff/TXCAN*%
X158642500Y-82305000D03*
%TO.P,U5,5,RXCAN*%
%TO.N,/Flight Computer Stuff/RXCAN*%
X158642500Y-82955000D03*
%TO.P,U5,6,CLKOUT*%
%TO.N,unconnected-(U5-CLKOUT-Pad6)*%
X158642500Y-83605000D03*
%TO.P,U5,7,TX0RTS*%
%TO.N,unconnected-(U5-TX0RTS-Pad7)*%
X158642500Y-84255000D03*
D132*
%TO.P,U5,8,TX1RTS*%
%TO.N,unconnected-(U5-TX1RTS-Pad8)*%
X159530000Y-85142500D03*
%TO.P,U5,9,TX2RTS*%
%TO.N,unconnected-(U5-TX2RTS-Pad9)*%
X160180000Y-85142500D03*
%TO.P,U5,10,RXD*%
%TO.N,/Flight Computer Stuff/RXCAN*%
X160830000Y-85142500D03*
%TO.P,U5,11,VIO*%
%TO.N,+3V3*%
X161480000Y-85142500D03*
%TO.P,U5,12,CANL*%
%TO.N,/Flight Computer Stuff/CANL*%
X162130000Y-85142500D03*
%TO.P,U5,13,CANH*%
%TO.N,/Flight Computer Stuff/CANH*%
X162780000Y-85142500D03*
%TO.P,U5,14,NC*%
%TO.N,unconnected-(U5-NC-Pad14)*%
X163430000Y-85142500D03*
D131*
%TO.P,U5,15,STBY*%
%TO.N,Net-(U5-STBY)*%
X164317500Y-84255000D03*
%TO.P,U5,16,TXD*%
%TO.N,/Flight Computer Stuff/TXCAN*%
X164317500Y-83605000D03*
%TO.P,U5,17,NC@1*%
%TO.N,unconnected-(U5-NC@1-Pad17)*%
X164317500Y-82955000D03*
%TO.P,U5,18,VSS@1*%
%TO.N,GND*%
X164317500Y-82305000D03*
%TO.P,U5,19,VDDA*%
%TO.N,+5V*%
X164317500Y-81655000D03*
%TO.P,U5,20,OSC2*%
%TO.N,Net-(U5-OSC2)*%
X164317500Y-81005000D03*
%TO.P,U5,21,OSC1*%
%TO.N,Net-(U5-OSC1)*%
X164317500Y-80355000D03*
D132*
%TO.P,U5,22,GND*%
%TO.N,GND*%
X163430000Y-79467500D03*
%TO.P,U5,23,RX1BF*%
%TO.N,unconnected-(U5-RX1BF-Pad23)*%
X162780000Y-79467500D03*
%TO.P,U5,24,RX0BF*%
%TO.N,unconnected-(U5-RX0BF-Pad24)*%
X162130000Y-79467500D03*
%TO.P,U5,25,INT*%
%TO.N,unconnected-(U5-INT-Pad25)*%
X161480000Y-79467500D03*
%TO.P,U5,26,SCK*%
%TO.N,/Flight Computer Stuff/SPI0_SCK*%
X160830000Y-79467500D03*
%TO.P,U5,27,SI*%
%TO.N,/Flight Computer Stuff/SPI0_MOSI*%
X160180000Y-79467500D03*
%TO.P,U5,28,SO*%
%TO.N,/Flight Computer Stuff/SPI0_MISO*%
X159530000Y-79467500D03*
D43*
%TO.P,U5,29,GND@1*%
%TO.N,GND*%
X161480000Y-82305000D03*
%TD*%
D32*
%TO.P,R70,1*%
%TO.N,GND*%
X98902817Y-80921446D03*
%TO.P,R70,2*%
%TO.N,Net-(JP12-A)*%
X100552817Y-80921446D03*
%TD*%
D83*
%TO.P,R39,1,1*%
%TO.N,/Electrical Power System Stuff/ENAB_HEATER*%
X116512500Y-106550000D03*
%TO.P,R39,2,2*%
%TO.N,GND*%
X114862500Y-106550000D03*
%TD*%
D133*
%TO.P,D1,1,K*%
%TO.N,/Flight Computer Stuff/D3*%
X184377817Y-71702817D03*
%TO.P,D1,2,A*%
%TO.N,Net-(D1-A)*%
X182822183Y-70147183D03*
%TD*%
D83*
%TO.P,R15,1,1*%
%TO.N,Net-(D4-K)*%
X184000000Y-49400000D03*
%TO.P,R15,2,2*%
%TO.N,GND*%
X182350000Y-49400000D03*
%TD*%
D32*
%TO.P,R63,1,1*%
%TO.N,/Electrical Power System Stuff/D+*%
X204025000Y-121975000D03*
%TO.P,R63,2,2*%
%TO.N,/Electrical Power System Stuff/USB_D+*%
X205675000Y-121975000D03*
%TD*%
D56*
%TO.P,C103,1*%
%TO.N,Net-(U35-REG)*%
X102425000Y-48950000D03*
%TO.P,C103,2*%
%TO.N,GND*%
X104325000Y-48950000D03*
%TD*%
D85*
%TO.P,C64,1*%
%TO.N,Net-(U17-+IN)*%
X91477817Y-83596447D03*
%TO.P,C64,2*%
%TO.N,Net-(U17--IN)*%
X91477817Y-85496445D03*
%TD*%
D20*
%TO.P,R22,1,1*%
%TO.N,+3V3*%
X168675000Y-61050000D03*
%TO.P,R22,2,2*%
%TO.N,/Flight Computer Stuff/SPI0_CS0*%
X168675000Y-59400000D03*
%TD*%
%TO.P,FB5,1*%
%TO.N,AGND*%
X103302816Y-82421446D03*
%TO.P,FB5,2*%
%TO.N,GND*%
X103302816Y-80771446D03*
%TD*%
D75*
%TO.P,U30,1,REG*%
%TO.N,Net-(U30-REG)*%
X118150000Y-46650000D03*
%TO.P,U30,2,SCL*%
%TO.N,/Payload Stuff/F1_SCL*%
X118650001Y-46650000D03*
%TO.P,U30,3,SDA*%
%TO.N,/Payload Stuff/F1_SDA*%
X119150000Y-46650000D03*
%TO.P,U30,4,IN/TRIG*%
%TO.N,GND*%
X119649999Y-46650000D03*
%TO.P,U30,5,EN*%
%TO.N,/Payload Stuff/F1_ENB*%
X120150000Y-46650000D03*
%TO.P,U30,6,VDD/NC*%
%TO.N,unconnected-(U30-VDD{slash}NC-Pad6)*%
X120150000Y-42250000D03*
%TO.P,U30,7,OUT+*%
%TO.N,Net-(J37-Pin_1)*%
X119649999Y-42250000D03*
%TO.P,U30,8,GND*%
%TO.N,GND*%
X119150000Y-42250000D03*
%TO.P,U30,9,OUT-*%
%TO.N,Net-(J37-Pin_2)*%
X118650001Y-42250000D03*
%TO.P,U30,10,VDD*%
%TO.N,/Payload Stuff/F1_ENB*%
X118150000Y-42250000D03*
%TD*%
D134*
%TO.P,U18,1,K*%
%TO.N,Net-(U17-REF)*%
X94077817Y-91233946D03*
%TO.P,U18,2,REF*%
X95977817Y-91233946D03*
%TO.P,U18,3,A*%
%TO.N,GND*%
X95027817Y-89358945D03*
%TD*%
D83*
%TO.P,R97,1*%
%TO.N,/Payload Stuff/F4_ENB*%
X83500000Y-77725000D03*
%TO.P,R97,2*%
%TO.N,Net-(D22-A)*%
X81850000Y-77725000D03*
%TD*%
D32*
%TO.P,R79,1*%
%TO.N,VBUSP*%
X137902817Y-75508946D03*
%TO.P,R79,2*%
%TO.N,/Electrical Power System Stuff/3V3_EN*%
X139552817Y-75508946D03*
%TD*%
D135*
%TO.P,C44,1,1*%
%TO.N,2.8V*%
X210700000Y-57350000D03*
%TO.P,C44,2,2*%
%TO.N,GND*%
X208800002Y-57350000D03*
%TD*%
D82*
%TO.P,C43,1*%
%TO.N,+3V3*%
X162077817Y-63171446D03*
%TO.P,C43,2*%
%TO.N,GND*%
X162077817Y-64721446D03*
%TD*%
D20*
%TO.P,R31,1,1*%
%TO.N,/Electrical Power System Stuff/BURN_RELAY_A*%
X120300001Y-108450000D03*
%TO.P,R31,2,2*%
%TO.N,GND*%
X120300001Y-106800000D03*
%TD*%
D32*
%TO.P,R42,1,1*%
%TO.N,Net-(Q4-G)*%
X114837500Y-108475000D03*
%TO.P,R42,2,2*%
%TO.N,/Electrical Power System Stuff/ENAB_HEATER*%
X116487500Y-108475000D03*
%TD*%
D130*
%TO.P,U12,1,IN*%
%TO.N,+3V3*%
X201637501Y-54850000D03*
%TO.P,U12,2,GND*%
%TO.N,GND*%
X201637501Y-55800000D03*
%TO.P,U12,3,EN*%
%TO.N,+3V3*%
X201637501Y-56750000D03*
%TO.P,U12,4,P4*%
%TO.N,unconnected-(U12-P4-Pad4)*%
X203912501Y-56750000D03*
%TO.P,U12,5,OUT*%
%TO.N,2.8V*%
X203912501Y-54850000D03*
%TD*%
D57*
%TO.P,Q4,1,G*%
%TO.N,Net-(Q4-G)*%
X113150000Y-108462500D03*
%TO.P,Q4,2,S*%
%TO.N,GND*%
X113150000Y-106562500D03*
%TO.P,Q4,3,D*%
%TO.N,Net-(Q4-D)*%
X111274999Y-107512500D03*
%TD*%
D92*
%TO.P,C75,1*%
%TO.N,AVDD*%
X104477817Y-85796445D03*
%TO.P,C75,2*%
%TO.N,AGND*%
X104477817Y-83896447D03*
%TD*%
D100*
%TO.P,U38,1,SDA*%
%TO.N,/Payload Stuff/F3_SDA*%
X90299999Y-58950000D03*
%TO.P,U38,2,SCL*%
%TO.N,/Payload Stuff/F3_SCL*%
X90299999Y-58300000D03*
%TO.P,U38,3,Alert*%
%TO.N,unconnected-(U38-Alert-Pad3)*%
X90299999Y-57650000D03*
%TO.P,U38,4,GND*%
%TO.N,GND*%
X90299999Y-57000000D03*
%TO.P,U38,5,A2*%
X85949999Y-57000000D03*
%TO.P,U38,6,A1*%
%TO.N,/Payload Stuff/F3_ENB*%
X85949999Y-57650000D03*
%TO.P,U38,7,A0*%
X85949999Y-58300000D03*
%TO.P,U38,8,VDD*%
X85949999Y-58950000D03*
D101*
%TO.P,U38,9,EP/GND*%
%TO.N,GND*%
X88124999Y-57975000D03*
%TD*%
D40*
%TO.P,R2,1,1*%
%TO.N,+3V3*%
X194133363Y-81558363D03*
%TO.P,R2,2,2*%
%TO.N,FC_RESET*%
X192966637Y-80391637D03*
%TD*%
D92*
%TO.P,C106,1*%
%TO.N,Net-(U37-REG)*%
X92099999Y-53049999D03*
%TO.P,C106,2*%
%TO.N,GND*%
X92099999Y-51150001D03*
%TD*%
D29*
%TO.P,D4,1,K*%
%TO.N,Net-(D4-K)*%
X185525000Y-49387499D03*
%TO.P,D4,2,A*%
%TO.N,FC_TX*%
X185525000Y-50962501D03*
%TD*%
D136*
%TO.P,C11,1,1*%
%TO.N,+3V3*%
X194051992Y-75101992D03*
%TO.P,C11,2,2*%
%TO.N,GND*%
X195148008Y-76198008D03*
%TD*%
D56*
%TO.P,C21,1,1*%
%TO.N,VDDA*%
X161175001Y-43087500D03*
%TO.P,C21,2,2*%
%TO.N,GNDA*%
X163074999Y-43087500D03*
%TD*%
D137*
%TO.P,D12,1,1*%
%TO.N,VBatt*%
X180427817Y-141096446D03*
D138*
%TO.P,D12,2,2*%
%TO.N,VBATT_SENSE*%
X178748438Y-139417067D03*
%TD*%
D77*
%TO.P,C86,1,1*%
%TO.N,+3V3*%
X197901992Y-120498008D03*
%TO.P,C86,2,2*%
%TO.N,GND*%
X198998008Y-119401992D03*
%TD*%
D36*
%TO.P,C26,1,1*%
%TO.N,Net-(U5-OSC2)*%
X168450000Y-82970000D03*
%TO.P,C26,2,2*%
%TO.N,GND*%
X168450000Y-83930000D03*
%TD*%
D28*
%TO.P,C36,1,1*%
%TO.N,Net-(U6-XO)*%
X145079999Y-46062500D03*
%TO.P,C36,2,2*%
%TO.N,GND*%
X144119999Y-46062500D03*
%TD*%
D18*
%TO.P,R71,1*%
%TO.N,/Electrical Power System Stuff/~{RESET}*%
X196841637Y-134485266D03*
%TO.P,R71,2*%
%TO.N,Net-(U21-~{RESET})*%
X198008363Y-135651992D03*
%TD*%
D139*
%TO.P,D17,1,1*%
%TO.N,/Electrical Power System Stuff/CANL*%
X163025000Y-102475000D03*
%TO.P,D17,2,2*%
%TO.N,/Electrical Power System Stuff/CANH*%
X161125000Y-102475000D03*
%TO.P,D17,3,3*%
%TO.N,GND*%
X162075000Y-104750000D03*
%TD*%
D59*
%TO.P,C76,1,1*%
%TO.N,Net-(U25-SW1)*%
X150302817Y-70783946D03*
%TO.P,C76,2,2*%
%TO.N,Net-(U25-VBST)*%
X148752817Y-70783946D03*
%TD*%
D32*
%TO.P,R24,1,1*%
%TO.N,/Flight Computer Stuff/CANL*%
X161500000Y-93337500D03*
%TO.P,R24,2,2*%
%TO.N,/Flight Computer Stuff/CANH*%
X163150000Y-93337500D03*
%TD*%
D85*
%TO.P,C42,1,1*%
%TO.N,+3V3*%
X199637501Y-53575001D03*
%TO.P,C42,2,2*%
%TO.N,GND*%
X199637501Y-55474999D03*
%TD*%
D140*
%TO.P,IC5,1,IOVDD*%
%TO.N,+3V3*%
X192757798Y-119449472D03*
%TO.P,IC5,2,GPIO0*%
%TO.N,FC_RX*%
X192474955Y-119732315D03*
%TO.P,IC5,3,GPIO1*%
%TO.N,FC_TX*%
X192192113Y-120015157D03*
%TO.P,IC5,4,GPIO2*%
%TO.N,EPS_SDA1*%
X191909270Y-120298000D03*
%TO.P,IC5,5,GPIO3*%
%TO.N,EPS_SCL1*%
X191626427Y-120580843D03*
%TO.P,IC5,6,GPIO4*%
%TO.N,/Electrical Power System Stuff/SDA0*%
X191343585Y-120863685D03*
%TO.P,IC5,7,GPIO5*%
%TO.N,/Electrical Power System Stuff/SCL0*%
X191060742Y-121146528D03*
%TO.P,IC5,8,GPIO6*%
%TO.N,/Electrical Power System Stuff/ENABLE_BURN*%
X190777899Y-121429371D03*
%TO.P,IC5,9,GPIO7*%
%TO.N,/Electrical Power System Stuff/FC_RESET*%
X190495056Y-121712214D03*
%TO.P,IC5,10,IOVDD*%
%TO.N,+3V3*%
X190212214Y-121995056D03*
%TO.P,IC5,11,GPIO8*%
%TO.N,/Electrical Power System Stuff/SPI0_MISO*%
X189929371Y-122277899D03*
%TO.P,IC5,12,GPIO9*%
%TO.N,/Electrical Power System Stuff/SPI0_CS0*%
X189646528Y-122560742D03*
%TO.P,IC5,13,GPIO10*%
%TO.N,/Electrical Power System Stuff/SPI0_SCK*%
X189363686Y-122843584D03*
%TO.P,IC5,14,GPIO11*%
%TO.N,/Electrical Power System Stuff/SPI0_MOSI*%
X189080843Y-123126427D03*
D141*
%TO.P,IC5,15,GPIO12*%
%TO.N,/Electrical Power System Stuff/ENAB_RF*%
X189080843Y-124310831D03*
%TO.P,IC5,16,GPIO13*%
%TO.N,/Electrical Power System Stuff/USBBOOT*%
X189363686Y-124593674D03*
%TO.P,IC5,17,GPIO14*%
%TO.N,/Electrical Power System Stuff/VBUS_RESET*%
X189646528Y-124876516D03*
%TO.P,IC5,18,GPIO15*%
%TO.N,/Electrical Power System Stuff/BURN_RELAY_A*%
X189929371Y-125159359D03*
%TO.P,IC5,19,TESTEN*%
%TO.N,GND*%
X190212214Y-125442202D03*
%TO.P,IC5,20,XIN*%
%TO.N,Net-(IC5-XIN)*%
X190495056Y-125725044D03*
%TO.P,IC5,21,XOUT*%
%TO.N,Net-(IC5-XOUT)*%
X190777899Y-126007887D03*
%TO.P,IC5,22,IOVDD*%
%TO.N,+3V3*%
X191060742Y-126290730D03*
%TO.P,IC5,23,DVDD*%
%TO.N,1.2V*%
X191343585Y-126573573D03*
%TO.P,IC5,24,SWCLK*%
%TO.N,/Electrical Power System Stuff/SWCLK*%
X191626427Y-126856415D03*
%TO.P,IC5,25,SWDIO*%
%TO.N,/Electrical Power System Stuff/SWDIO*%
X191909270Y-127139258D03*
%TO.P,IC5,26,/RUN*%
%TO.N,/Electrical Power System Stuff/~{RESET}*%
X192192113Y-127422101D03*
%TO.P,IC5,27,GPIO16*%
%TO.N,/Electrical Power System Stuff/SPI1_MISO*%
X192474955Y-127704943D03*
%TO.P,IC5,28,GPIO17*%
%TO.N,/Electrical Power System Stuff/SPI1_CS0*%
X192757798Y-127987786D03*
D140*
%TO.P,IC5,29,GPIO18*%
%TO.N,/Electrical Power System Stuff/SPI1_SCK*%
X193942202Y-127987786D03*
%TO.P,IC5,30,GPIO19*%
%TO.N,/Electrical Power System Stuff/SPI1_MOSI*%
X194225045Y-127704943D03*
%TO.P,IC5,31,GPIO20*%
%TO.N,D0*%
X194507887Y-127422101D03*
%TO.P,IC5,32,GPIO21*%
%TO.N,/Electrical Power System Stuff/WDT_WDI*%
X194790730Y-127139258D03*
%TO.P,IC5,33,IOVDD*%
%TO.N,+3V3*%
X195073573Y-126856415D03*
%TO.P,IC5,34,GPIO22*%
%TO.N,/Electrical Power System Stuff/ENAB_HEATER*%
X195356415Y-126573573D03*
%TO.P,IC5,35,GPIO23*%
%TO.N,/Electrical Power System Stuff/CHRG'*%
X195639258Y-126290730D03*
%TO.P,IC5,36,GPIO24*%
%TO.N,/Electrical Power System Stuff/NEOPIX*%
X195922101Y-126007887D03*
%TO.P,IC5,37,GPIO25*%
%TO.N,/Electrical Power System Stuff/NEO_PWR*%
X196204944Y-125725044D03*
%TO.P,IC5,38,GPIO26/AD0*%
%TO.N,/Electrical Power System Stuff/A0*%
X196487786Y-125442202D03*
%TO.P,IC5,39,GPIO27/AD1*%
%TO.N,/Electrical Power System Stuff/A1*%
X196770629Y-125159359D03*
%TO.P,IC5,40,GPIO28/AD2*%
%TO.N,/Electrical Power System Stuff/Jetson*%
X197053472Y-124876516D03*
%TO.P,IC5,41,GPIO29/AD3*%
%TO.N,/Electrical Power System Stuff/5V_enable*%
X197336314Y-124593674D03*
%TO.P,IC5,42,IOVDD*%
%TO.N,+3V3*%
X197619157Y-124310831D03*
D141*
%TO.P,IC5,43,ADC_IOVDD*%
X197619157Y-123126427D03*
%TO.P,IC5,44,VREG_IOVDD*%
X197336314Y-122843584D03*
%TO.P,IC5,45,VREG_VOUT*%
%TO.N,1.2V*%
X197053472Y-122560742D03*
%TO.P,IC5,46,USB_D-*%
%TO.N,/Electrical Power System Stuff/D-*%
X196770629Y-122277899D03*
%TO.P,IC5,47,USB_D+*%
%TO.N,/Electrical Power System Stuff/D+*%
X196487786Y-121995056D03*
%TO.P,IC5,48,USB_IOVDD*%
%TO.N,+3V3*%
X196204944Y-121712214D03*
%TO.P,IC5,49,IOVDD*%
X195922101Y-121429371D03*
%TO.P,IC5,50,DVDD*%
%TO.N,1.2V*%
X195639258Y-121146528D03*
%TO.P,IC5,51,QSPI_SD3*%
%TO.N,/Electrical Power System Stuff/QSPI_DATA[3]*%
X195356415Y-120863685D03*
%TO.P,IC5,52,QSPI_SCLK*%
%TO.N,/Electrical Power System Stuff/QSPI_SCK*%
X195073573Y-120580843D03*
%TO.P,IC5,53,QSPI_SD0*%
%TO.N,/Electrical Power System Stuff/QSPI_DATA[0]*%
X194790730Y-120298000D03*
%TO.P,IC5,54,QSPI_SD2*%
%TO.N,/Electrical Power System Stuff/QSPI_DATA[2]*%
X194507887Y-120015157D03*
%TO.P,IC5,55,QSPI_SD1*%
%TO.N,/Electrical Power System Stuff/QSPI_DATA[1]*%
X194225045Y-119732315D03*
%TO.P,IC5,56,~{QSPI_CS}*%
%TO.N,/Electrical Power System Stuff/QSPI_CS*%
X193942202Y-119449472D03*
D142*
%TO.P,IC5,57,GND*%
%TO.N,GND*%
X193350000Y-123718629D03*
%TD*%
D112*
%TO.P,R30,1,1*%
%TO.N,GND*%
X89025000Y-125367500D03*
%TO.P,R30,2,2*%
%TO.N,PACK-*%
X89025000Y-131292500D03*
%TD*%
D56*
%TO.P,C107,1*%
%TO.N,/Payload Stuff/F4_ENB*%
X84825002Y-72037500D03*
%TO.P,C107,2*%
%TO.N,GND*%
X86725000Y-72037500D03*
%TD*%
D143*
%TO.P,Y5,1,1*%
%TO.N,Net-(U24-OSC2)*%
X156150000Y-110625000D03*
%TO.P,Y5,2,2*%
%TO.N,GND*%
X156150000Y-112375000D03*
%TO.P,Y5,3,3*%
%TO.N,Net-(U24-OSC1)*%
X157550000Y-112375000D03*
%TO.P,Y5,4,4*%
%TO.N,GND*%
X157550000Y-110625000D03*
%TD*%
D121*
%TO.P,C54,1*%
%TO.N,BURN*%
X97362500Y-101999999D03*
%TO.P,C54,2*%
%TO.N,GND*%
X97362500Y-104950001D03*
%TD*%
D144*
%TO.P,U17,1,-IN*%
%TO.N,Net-(U17--IN)*%
X93427817Y-86808946D03*
%TO.P,U17,2,REF*%
%TO.N,Net-(U17-REF)*%
X94077817Y-86808946D03*
%TO.P,U17,3,-Vs*%
%TO.N,GND*%
X94727817Y-86808946D03*
%TO.P,U17,4,NC*%
%TO.N,unconnected-(U17-NC-Pad4)*%
X95377817Y-86808946D03*
%TO.P,U17,5,SENSE*%
%TO.N,/Electrical Power System Stuff/OUT*%
X95377817Y-82583946D03*
%TO.P,U17,6*%
X94727817Y-82583946D03*
%TO.P,U17,7,+Vs*%
%TO.N,Net-(U17-+Vs)*%
X94077817Y-82583946D03*
%TO.P,U17,8,+IN*%
%TO.N,Net-(U17-+IN)*%
X93427817Y-82583946D03*
%TD*%
D92*
%TO.P,C69,1*%
%TO.N,AVDD*%
X102427817Y-85796445D03*
%TO.P,C69,2*%
%TO.N,AGND*%
X102427817Y-83896447D03*
%TD*%
D21*
%TO.P,C14,1,1*%
%TO.N,+3V3*%
X187389411Y-77760589D03*
%TO.P,C14,2,2*%
%TO.N,GND*%
X186710589Y-78439411D03*
%TD*%
D140*
%TO.P,IC1,1,IOVDD*%
%TO.N,+3V3*%
X190198610Y-66530843D03*
%TO.P,IC1,2,GPIO0*%
%TO.N,FC_TX*%
X189915767Y-66813686D03*
%TO.P,IC1,3,GPIO1*%
%TO.N,FC_RX*%
X189632925Y-67096528D03*
%TO.P,IC1,4,GPIO2*%
%TO.N,/Flight Computer Stuff/SDA1*%
X189350082Y-67379371D03*
%TO.P,IC1,5,GPIO3*%
%TO.N,/Flight Computer Stuff/SCL1*%
X189067239Y-67662214D03*
%TO.P,IC1,6,GPIO4*%
%TO.N,FC_SDA0*%
X188784397Y-67945056D03*
%TO.P,IC1,7,GPIO5*%
%TO.N,FC_SCL0*%
X188501554Y-68227899D03*
%TO.P,IC1,8,GPIO6*%
%TO.N,/Flight Computer Stuff/ENABLE_BURN {slash} PC*%
X188218711Y-68510742D03*
%TO.P,IC1,9,GPIO7*%
%TO.N,/Flight Computer Stuff/I2C_RESET {slash} VS*%
X187935868Y-68793585D03*
%TO.P,IC1,10,IOVDD*%
%TO.N,+3V3*%
X187653026Y-69076427D03*
%TO.P,IC1,11,GPIO8*%
%TO.N,/Flight Computer Stuff/SPI0_MISO*%
X187370183Y-69359270D03*
%TO.P,IC1,12,GPIO9*%
%TO.N,/Flight Computer Stuff/SPI0_CS0*%
X187087340Y-69642113D03*
%TO.P,IC1,13,GPIO10*%
%TO.N,/Flight Computer Stuff/SPI0_SCK*%
X186804498Y-69924955D03*
%TO.P,IC1,14,GPIO11*%
%TO.N,/Flight Computer Stuff/SPI0_MOSI*%
X186521655Y-70207798D03*
D141*
%TO.P,IC1,15,GPIO12*%
%TO.N,/Flight Computer Stuff/ENAB_RF {slash} D2*%
X186521655Y-71392202D03*
%TO.P,IC1,16,GPIO13*%
%TO.N,/Flight Computer Stuff/D3*%
X186804498Y-71675045D03*
%TO.P,IC1,17,GPIO14*%
%TO.N,/Flight Computer Stuff/VBUS_RESET {slash} D4*%
X187087340Y-71957887D03*
%TO.P,IC1,18,GPIO15*%
%TO.N,/Flight Computer Stuff/BURN_RELAY_A {slash} D5*%
X187370183Y-72240730D03*
%TO.P,IC1,19,TESTEN*%
%TO.N,unconnected-(IC1-TESTEN-Pad19)*%
X187653026Y-72523573D03*
%TO.P,IC1,20,XIN*%
%TO.N,Net-(IC1-XIN)*%
X187935868Y-72806415D03*
%TO.P,IC1,21,XOUT*%
%TO.N,Net-(IC1-XOUT)*%
X188218711Y-73089258D03*
%TO.P,IC1,22,IOVDD*%
%TO.N,+3V3*%
X188501554Y-73372101D03*
%TO.P,IC1,23,DVDD*%
%TO.N,1.2V*%
X188784397Y-73654944D03*
%TO.P,IC1,24,SWCLK*%
%TO.N,/Flight Computer Stuff/SWCLK*%
X189067239Y-73937786D03*
%TO.P,IC1,25,SWDIO*%
%TO.N,/Flight Computer Stuff/SWDIO*%
X189350082Y-74220629D03*
%TO.P,IC1,26,/RUN*%
%TO.N,FC_RESET*%
X189632925Y-74503472D03*
%TO.P,IC1,27,GPIO16*%
%TO.N,/Flight Computer Stuff/D6*%
X189915767Y-74786314D03*
%TO.P,IC1,28,GPIO17*%
%TO.N,/Flight Computer Stuff/D7*%
X190198610Y-75069157D03*
D140*
%TO.P,IC1,29,GPIO18*%
%TO.N,/Flight Computer Stuff/D8*%
X191383014Y-75069157D03*
%TO.P,IC1,30,GPIO19*%
%TO.N,/Flight Computer Stuff/D9*%
X191665857Y-74786314D03*
%TO.P,IC1,31,GPIO20*%
%TO.N,/Flight Computer Stuff/RF1_RST*%
X191948699Y-74503472D03*
%TO.P,IC1,32,GPIO21*%
%TO.N,/Flight Computer Stuff/WDT_WDI*%
X192231542Y-74220629D03*
%TO.P,IC1,33,IOVDD*%
%TO.N,+3V3*%
X192514385Y-73937786D03*
%TO.P,IC1,34,GPIO22*%
%TO.N,/Flight Computer Stuff/RF1_IO4*%
X192797227Y-73654944D03*
%TO.P,IC1,35,GPIO23*%
%TO.N,/Flight Computer Stuff/RF1_IO0*%
X193080070Y-73372101D03*
%TO.P,IC1,36,GPIO24*%
%TO.N,/Flight Computer Stuff/NEOPIX*%
X193362913Y-73089258D03*
%TO.P,IC1,37,GPIO25*%
%TO.N,/Flight Computer Stuff/HS*%
X193645756Y-72806415D03*
%TO.P,IC1,38,GPIO26/AD0*%
%TO.N,/Flight Computer Stuff/SPI0_CS1*%
X193928598Y-72523573D03*
%TO.P,IC1,39,GPIO27/AD1*%
%TO.N,/Flight Computer Stuff/SPI0_CS3*%
X194211441Y-72240730D03*
%TO.P,IC1,40,GPIO28/AD2*%
%TO.N,/Flight Computer Stuff/SPI0_CS2*%
X194494284Y-71957887D03*
%TO.P,IC1,41,GPIO29/AD3*%
%TO.N,D0*%
X194777126Y-71675045D03*
%TO.P,IC1,42,IOVDD*%
%TO.N,+3V3*%
X195059969Y-71392202D03*
D141*
%TO.P,IC1,43,ADC_IOVDD*%
X195059969Y-70207798D03*
%TO.P,IC1,44,VREG_IOVDD*%
X194777126Y-69924955D03*
%TO.P,IC1,45,VREG_VOUT*%
%TO.N,1.2V*%
X194494284Y-69642113D03*
%TO.P,IC1,46,USB_D-*%
%TO.N,/Flight Computer Stuff/D-*%
X194211441Y-69359270D03*
%TO.P,IC1,47,USB_D+*%
%TO.N,/Flight Computer Stuff/D+*%
X193928598Y-69076427D03*
%TO.P,IC1,48,USB_IOVDD*%
%TO.N,+3V3*%
X193645756Y-68793585D03*
%TO.P,IC1,49,IOVDD*%
X193362913Y-68510742D03*
%TO.P,IC1,50,DVDD*%
%TO.N,1.2V*%
X193080070Y-68227899D03*
%TO.P,IC1,51,QSPI_SD3*%
%TO.N,/Flight Computer Stuff/QSPI_DATA[3]*%
X192797227Y-67945056D03*
%TO.P,IC1,52,QSPI_SCLK*%
%TO.N,/Flight Computer Stuff/QSPI_SCK*%
X192514385Y-67662214D03*
%TO.P,IC1,53,QSPI_SD0*%
%TO.N,/Flight Computer Stuff/QSPI_DATA[0]*%
X192231542Y-67379371D03*
%TO.P,IC1,54,QSPI_SD2*%
%TO.N,/Flight Computer Stuff/QSPI_DATA[2]*%
X191948699Y-67096528D03*
%TO.P,IC1,55,QSPI_SD1*%
%TO.N,/Flight Computer Stuff/QSPI_DATA[1]*%
X191665857Y-66813686D03*
%TO.P,IC1,56,~{QSPI_CS}*%
%TO.N,/Flight Computer Stuff/QSPI_CS*%
X191383014Y-66530843D03*
D145*
%TO.P,IC1,57,GND*%
%TO.N,GND*%
X190790812Y-68890812D03*
X188881624Y-70800000D03*
D142*
X190790812Y-70800000D03*
D145*
X192700000Y-70800000D03*
X190790812Y-72709188D03*
%TD*%
D83*
%TO.P,R32,1*%
%TO.N,+3V3*%
X109552817Y-87771446D03*
%TO.P,R32,2*%
%TO.N,Net-(IC3-OS)*%
X107902817Y-87771446D03*
%TD*%
D32*
%TO.P,R67,1,1*%
%TO.N,Net-(D14-Pad1)*%
X186825000Y-97025000D03*
%TO.P,R67,2,2*%
%TO.N,GND*%
X188475000Y-97025000D03*
%TD*%
D20*
%TO.P,R56,1,1*%
%TO.N,Net-(U16-PG)*%
X139552817Y-95058946D03*
%TO.P,R56,2,2*%
%TO.N,Net-(U16-VREG5)*%
X139552817Y-93408946D03*
%TD*%
%TO.P,R59,1*%
%TO.N,Net-(J34-Pin_2)*%
X88177816Y-82121446D03*
%TO.P,R59,2*%
%TO.N,GND*%
X88177816Y-80471446D03*
%TD*%
D10*
%TO.P,JP5,1,A*%
%TO.N,+5V*%
X204275000Y-85499999D03*
D11*
%TO.P,JP5,2,C*%
%TO.N,Net-(J9-Pin_11)*%
X202975000Y-85499999D03*
D12*
%TO.P,JP5,3,B*%
%TO.N,/Flight Computer Stuff/D9*%
X201675000Y-85499999D03*
%TD*%
D143*
%TO.P,Y2,1,1*%
%TO.N,Net-(U5-OSC2)*%
X168450000Y-81550000D03*
%TO.P,Y2,2*%
%TO.N,N/C*%
X168450000Y-79800000D03*
%TO.P,Y2,3,2*%
%TO.N,Net-(U5-OSC1)*%
X167050000Y-79800000D03*
%TO.P,Y2,4*%
%TO.N,N/C*%
X167050000Y-81550000D03*
%TD*%
D98*
%TO.P,J13,1,Pin_1*%
%TO.N,VBUSP*%
X110452817Y-132096446D03*
D99*
%TO.P,J13,2,Pin_2*%
%TO.N,VBatt*%
X107912817Y-132096446D03*
%TD*%
D14*
%TO.P,C29,1*%
%TO.N,GND*%
X162325000Y-57650000D03*
%TO.P,C29,2*%
%TO.N,/Flight Computer Stuff/RF_VCC*%
X163875000Y-57650000D03*
%TD*%
D146*
%TO.P,J9,1,Pin_1*%
%TO.N,Net-(J9-Pin_1)*%
X208125000Y-101499999D03*
%TO.P,J9,2,Pin_2*%
%TO.N,/Flight Computer Stuff/I2C_RESET {slash} VS*%
X208125000Y-100000000D03*
%TO.P,J9,3,Pin_3*%
%TO.N,/Flight Computer Stuff/ENABLE_BURN {slash} PC*%
X208125000Y-98500000D03*
%TO.P,J9,4,Pin_4*%
%TO.N,/Flight Computer Stuff/ENAB_RF {slash} D2*%
X208125000Y-97000000D03*
%TO.P,J9,5,Pin_5*%
%TO.N,/Flight Computer Stuff/D3*%
X208125000Y-95500000D03*
%TO.P,J9,6,Pin_6*%
%TO.N,Net-(J9-Pin_6)*%
X208125000Y-94000001D03*
%TO.P,J9,7,Pin_7*%
%TO.N,Net-(J9-Pin_7)*%
X208125000Y-92499999D03*
%TO.P,J9,8,Pin_8*%
%TO.N,Net-(J9-Pin_8)*%
X208125000Y-91000000D03*
%TO.P,J9,9,Pin_9*%
%TO.N,/Flight Computer Stuff/D7*%
X208125000Y-89500000D03*
%TO.P,J9,10,Pin_10*%
%TO.N,Net-(J9-Pin_10)*%
X208125000Y-88000000D03*
%TO.P,J9,11,Pin_11*%
%TO.N,Net-(J9-Pin_11)*%
X208125000Y-86500000D03*
%TO.P,J9,12,Pin_12*%
%TO.N,GND*%
X208125000Y-85000001D03*
D147*
%TO.P,J9,MP*%
%TO.N,N/C*%
X213315000Y-104105000D03*
X213315000Y-82395000D03*
%TD*%
D22*
%TO.P,J37,1,Pin_1*%
%TO.N,Net-(J37-Pin_1)*%
X119875000Y-40352501D03*
%TO.P,J37,2,Pin_2*%
%TO.N,Net-(J37-Pin_2)*%
X118375000Y-40352501D03*
D23*
%TO.P,J37,S1*%
%TO.N,N/C*%
X122480000Y-35162500D03*
%TO.P,J37,S2*%
X115770000Y-35162500D03*
%TD*%
D148*
%TO.P,D7,1,1*%
%TO.N,VBUSP*%
X124825001Y-112875000D03*
D149*
%TO.P,D7,2,2*%
%TO.N,Net-(Q2-C)*%
X124825001Y-110500000D03*
%TD*%
D35*
%TO.P,Q7,1,S*%
%TO.N,Net-(C56-Pad1)*%
X126827817Y-125006446D03*
%TO.P,Q7,2,S*%
X126827817Y-126276446D03*
%TO.P,Q7,3,S*%
X126827817Y-127546446D03*
%TO.P,Q7,4,G*%
%TO.N,Net-(Q7-G)*%
X126827817Y-128816446D03*
%TO.P,Q7,5,D*%
%TO.N,Net-(Q7-D-Pad5)*%
X131777817Y-128816446D03*
%TO.P,Q7,6,D*%
X131777817Y-127546446D03*
%TO.P,Q7,7,D*%
X131777817Y-126276446D03*
%TO.P,Q7,8,D*%
X131777817Y-125006446D03*
%TD*%
D76*
%TO.P,U23,1,SSEL*%
%TO.N,/Electrical Power System Stuff/QSPI_CS*%
X200051454Y-112551006D03*
%TO.P,U23,2,MISO*%
%TO.N,/Electrical Power System Stuff/QSPI_DATA[1]*%
X199153428Y-113449032D03*
%TO.P,U23,3,WP#/IO2*%
%TO.N,/Electrical Power System Stuff/QSPI_DATA[2]*%
X198255403Y-114347057D03*
%TO.P,U23,4,VSS*%
%TO.N,GND*%
X197357377Y-115245083D03*
%TO.P,U23,5,MOSI*%
%TO.N,/Electrical Power System Stuff/QSPI_DATA[0]*%
X202448546Y-120336252D03*
%TO.P,U23,6,SCK*%
%TO.N,/Electrical Power System Stuff/QSPI_SCK*%
X203346572Y-119438226D03*
%TO.P,U23,7,HOLD#/IO3*%
%TO.N,/Electrical Power System Stuff/QSPI_DATA[3]*%
X204244597Y-118540201D03*
%TO.P,U23,8,VCC*%
%TO.N,+3V3*%
X205142623Y-117642175D03*
%TD*%
D32*
%TO.P,R54,1,1*%
%TO.N,GND*%
X134927817Y-91158946D03*
%TO.P,R54,2,2*%
%TO.N,Net-(U16-VFB)*%
X136577817Y-91158946D03*
%TD*%
D81*
%TO.P,C8,1,1*%
%TO.N,GND*%
X187421178Y-79153822D03*
%TO.P,C8,2,2*%
%TO.N,1.2V*%
X188100000Y-78475000D03*
%TD*%
D21*
%TO.P,C78,1,1*%
%TO.N,GND*%
X185500000Y-126775000D03*
%TO.P,C78,2,2*%
%TO.N,Net-(C78-Pad2)*%
X184821178Y-127453822D03*
%TD*%
D63*
%TO.P,R65,1,1*%
%TO.N,VBATT_SENSE*%
X149702817Y-118308946D03*
%TO.P,R65,2,2*%
%TO.N,PACK+*%
X149702817Y-112383946D03*
%TD*%
D91*
%TO.P,U29,1,SCL*%
%TO.N,/Payload Stuff/F1_SCL*%
X122550000Y-43095000D03*
%TO.P,U29,2,VDD*%
%TO.N,/Payload Stuff/F1_ENB*%
X122550000Y-44365000D03*
%TO.P,U29,3,GND*%
%TO.N,GND*%
X122550000Y-45635000D03*
%TO.P,U29,4,SDA*%
%TO.N,/Payload Stuff/F1_SDA*%
X122550000Y-46905000D03*
%TD*%
D53*
%TO.P,C37,1,1*%
%TO.N,Net-(U6-XI{slash}CLKIN)*%
X143395000Y-40712499D03*
%TO.P,C37,2,2*%
%TO.N,GND*%
X144355000Y-40712499D03*
%TD*%
D10*
%TO.P,JP6,1,A*%
%TO.N,GND*%
X204300000Y-102425000D03*
D11*
%TO.P,JP6,2,C*%
%TO.N,Net-(J9-Pin_1)*%
X203000000Y-102425000D03*
D12*
%TO.P,JP6,3,B*%
%TO.N,/Flight Computer Stuff/HS*%
X201700000Y-102425000D03*
%TD*%
D33*
%TO.P,J40,1,Pin_1*%
%TO.N,Net-(J40-Pin_1)*%
X82815001Y-68262500D03*
%TO.P,J40,2,Pin_2*%
%TO.N,Net-(J40-Pin_2)*%
X82815001Y-69762500D03*
D34*
%TO.P,J40,S1*%
%TO.N,N/C*%
X77625000Y-65657500D03*
%TO.P,J40,S2*%
X77625000Y-72367500D03*
%TD*%
D14*
%TO.P,C20,1,1*%
%TO.N,VDDA*%
X161125000Y-46387500D03*
%TO.P,C20,2,2*%
%TO.N,GNDA*%
X162675000Y-46387500D03*
%TD*%
D84*
%TO.P,D14,1,1*%
%TO.N,Net-(D14-Pad1)*%
X185299999Y-97000000D03*
%TO.P,D14,2,2*%
%TO.N,FC_TX*%
X183550001Y-97000000D03*
%TD*%
%TO.P,D15,1,1*%
%TO.N,Net-(D15-Pad1)*%
X185299998Y-95425000D03*
%TO.P,D15,2,2*%
%TO.N,FC_RX*%
X183550000Y-95425000D03*
%TD*%
D32*
%TO.P,R43,1,1*%
%TO.N,GND*%
X164092817Y-132086446D03*
%TO.P,R43,2,2*%
%TO.N,Net-(IC4-VFB)*%
X165742817Y-132086446D03*
%TD*%
D30*
%TO.P,R18,1,1*%
%TO.N,+3V3*%
X155425000Y-77500000D03*
%TO.P,R18,2,2*%
%TO.N,Net-(U5-RESET)*%
X155425000Y-79150000D03*
%TD*%
D26*
%TO.P,TP7,1,1*%
%TO.N,+3V3*%
X138327817Y-62571446D03*
%TD*%
%TO.P,TP8,1,1*%
%TO.N,B-*%
X116177817Y-120946446D03*
%TD*%
D85*
%TO.P,C98,1*%
%TO.N,/Payload Stuff/F1_ENB*%
X116325000Y-42025001D03*
%TO.P,C98,2*%
%TO.N,GND*%
X116325000Y-43924999D03*
%TD*%
D150*
%TO.P,R26,1,R1.1*%
%TO.N,Net-(JP8-B)*%
X153625000Y-51137500D03*
D151*
%TO.P,R26,2,R2.1*%
%TO.N,Net-(JP9-B)*%
X152825000Y-51137500D03*
%TO.P,R26,3,R3.1*%
%TO.N,Net-(JP10-B)*%
X152025000Y-51137500D03*
D150*
%TO.P,R26,4,R4.1*%
%TO.N,Net-(R26-R4.1)*%
X151225000Y-51137500D03*
%TO.P,R26,5,R4.2*%
%TO.N,+3V3*%
X151225000Y-52937500D03*
D151*
%TO.P,R26,6,R3.2*%
X152025000Y-52937500D03*
%TO.P,R26,7,R2.2*%
X152825000Y-52937500D03*
D150*
%TO.P,R26,8,R1.2*%
X153625000Y-52937500D03*
%TD*%
D53*
%TO.P,C94,1,1*%
%TO.N,Net-(U24-OSC2)*%
X156345000Y-109250000D03*
%TO.P,C94,2,2*%
%TO.N,GND*%
X157305000Y-109250000D03*
%TD*%
D56*
%TO.P,C102,1*%
%TO.N,/Payload Stuff/F2_ENB*%
X96825000Y-40825000D03*
%TO.P,C102,2*%
%TO.N,GND*%
X98725000Y-40825000D03*
%TD*%
D32*
%TO.P,R50,1,1*%
%TO.N,Net-(Q9-G)*%
X114992501Y-97750000D03*
%TO.P,R50,2,2*%
%TO.N,/Electrical Power System Stuff/Jetson*%
X116642501Y-97750000D03*
%TD*%
D26*
%TO.P,TP11,1,1*%
%TO.N,PACK+*%
X145102817Y-110346446D03*
%TD*%
D30*
%TO.P,R44,1,1*%
%TO.N,Net-(Q3-D)*%
X109237500Y-101725000D03*
%TO.P,R44,2,2*%
%TO.N,Net-(K1-PadNO)*%
X109237500Y-103375000D03*
%TD*%
D152*
%TO.P,Q1,1,S*%
%TO.N,/Flight Computer Stuff/SCL_3V*%
X210262500Y-53675000D03*
%TO.P,Q1,2,G*%
%TO.N,2.8V*%
X209612500Y-53675001D03*
%TO.P,Q1,3,D*%
%TO.N,/Flight Computer Stuff/SDA1*%
X208962500Y-53675000D03*
%TO.P,Q1,4,S*%
%TO.N,/Flight Computer Stuff/SDA_3V*%
X208962500Y-55575000D03*
%TO.P,Q1,5,G*%
%TO.N,2.8V*%
X209612500Y-55574999D03*
%TO.P,Q1,6,D*%
%TO.N,/Flight Computer Stuff/SCL1*%
X210262500Y-55575000D03*
%TD*%
D92*
%TO.P,C105,1*%
%TO.N,/Payload Stuff/F3_ENB*%
X83974999Y-58949999D03*
%TO.P,C105,2*%
%TO.N,GND*%
X83974999Y-57050001D03*
%TD*%
D153*
%TO.P,U32,1,A0*%
%TO.N,+3V3*%
X114814124Y-53684603D03*
%TO.P,U32,2,A1*%
X114354504Y-54144223D03*
%TO.P,U32,3,~{RESET}*%
%TO.N,I2C_RESET*%
X113894885Y-54603842D03*
%TO.P,U32,4,SD0*%
%TO.N,/Payload Stuff/F0_SDA*%
X113435266Y-55063462D03*
%TO.P,U32,5,SC0*%
%TO.N,/Payload Stuff/F0_SCL*%
X112975646Y-55523081D03*
%TO.P,U32,6,SD1*%
%TO.N,/Payload Stuff/F1_SDA*%
X112516027Y-55982700D03*
%TO.P,U32,7,SC1*%
%TO.N,/Payload Stuff/F1_SCL*%
X112056407Y-56442320D03*
%TO.P,U32,8,SD2*%
%TO.N,/Payload Stuff/F2_SDA*%
X111596788Y-56901939D03*
%TO.P,U32,9,SC2*%
%TO.N,/Payload Stuff/F2_SCL*%
X111137169Y-57361559D03*
%TO.P,U32,10,SD3*%
%TO.N,/Payload Stuff/F3_SDA*%
X110677549Y-57821178D03*
%TO.P,U32,11,SC3*%
%TO.N,/Payload Stuff/F3_SCL*%
X110217930Y-58280797D03*
%TO.P,U32,12,GND*%
%TO.N,GND*%
X109758310Y-58740417D03*
%TO.P,U32,13,SD4*%
%TO.N,/Payload Stuff/F4_SDA*%
X115008578Y-63990685D03*
%TO.P,U32,14,SC4*%
%TO.N,/Payload Stuff/F4_SCL*%
X115468198Y-63531065D03*
%TO.P,U32,15,SD5*%
%TO.N,/Payload Stuff/Break_SDA*%
X115927817Y-63071446D03*
%TO.P,U32,16,SC5*%
%TO.N,/Payload Stuff/Break_SCL*%
X116387436Y-62611826D03*
%TO.P,U32,17,SD6*%
%TO.N,unconnected-(U32-SD6-Pad17)*%
X116847056Y-62152207D03*
%TO.P,U32,18,SC6*%
%TO.N,unconnected-(U32-SC6-Pad18)*%
X117306675Y-61692588D03*
%TO.P,U32,19,SD7*%
%TO.N,unconnected-(U32-SD7-Pad19)*%
X117766295Y-61232968D03*
%TO.P,U32,20,SC7*%
%TO.N,unconnected-(U32-SC7-Pad20)*%
X118225914Y-60773349D03*
%TO.P,U32,21,A2*%
%TO.N,+3V3*%
X118685533Y-60313729D03*
%TO.P,U32,22,SCL*%
%TO.N,FC_SCL0*%
X119145153Y-59854110D03*
%TO.P,U32,23,SDA*%
%TO.N,FC_SDA0*%
X119604772Y-59394491D03*
%TO.P,U32,24,VCC*%
%TO.N,+3V3*%
X120064392Y-58934871D03*
%TD*%
D32*
%TO.P,R68,1,1*%
%TO.N,Net-(D15-Pad1)*%
X186825000Y-95425000D03*
%TO.P,R68,2,2*%
%TO.N,GND*%
X188475000Y-95425000D03*
%TD*%
%TO.P,R16,1,1*%
%TO.N,/Flight Computer Stuff/D+*%
X198850000Y-69025000D03*
%TO.P,R16,2,2*%
%TO.N,/Flight Computer Stuff/USB_D+*%
X200500000Y-69025000D03*
%TD*%
D19*
%TO.P,SW2,A,P*%
%TO.N,FC_RESET*%
X195315254Y-85083883D03*
%TO.P,SW2,A',P1*%
X192416117Y-82184746D03*
%TO.P,SW2,B,S*%
%TO.N,GND*%
X194183883Y-86215254D03*
%TO.P,SW2,B',S1*%
X191284746Y-83316117D03*
%TD*%
D66*
%TO.P,IC2,1,SDA*%
%TO.N,/Flight Computer Stuff/SDA1*%
X156152817Y-62896446D03*
%TO.P,IC2,2,SCL*%
%TO.N,/Flight Computer Stuff/SCL1*%
X156152817Y-63546446D03*
%TO.P,IC2,3,OS*%
%TO.N,unconnected-(IC2-OS-Pad3)*%
X156152817Y-64196446D03*
%TO.P,IC2,4,GND*%
%TO.N,GND*%
X156152817Y-64846446D03*
%TO.P,IC2,5,A2*%
X160452817Y-64846446D03*
%TO.P,IC2,6,A1*%
X160452817Y-64196446D03*
%TO.P,IC2,7,A0*%
X160452817Y-63546446D03*
%TO.P,IC2,8,VCC*%
%TO.N,+3V3*%
X160452817Y-62896446D03*
%TD*%
D154*
%TO.P,J18,1*%
%TO.N,+9V*%
X200800000Y-141850000D03*
D155*
%TO.P,J18,2*%
%TO.N,GND*%
X207100000Y-141850000D03*
D156*
%TO.P,J18,3*%
%TO.N,unconnected-(J18-Pad3)*%
X203700000Y-137050000D03*
%TD*%
D22*
%TO.P,J21,1,Pin_1*%
%TO.N,PACK-*%
X169725000Y-141100000D03*
%TO.P,J21,2,Pin_2*%
%TO.N,VBATT_SENSE*%
X171225000Y-141100000D03*
D23*
%TO.P,J21,S1*%
%TO.N,N/C*%
X167120000Y-146290000D03*
%TO.P,J21,S2*%
X173830000Y-146290000D03*
%TD*%
D157*
%TO.P,Y1,1,1*%
%TO.N,Net-(C2-Pad2)*%
X183286307Y-75351256D03*
%TO.P,Y1,2*%
%TO.N,N/C*%
X184523744Y-76588693D03*
%TO.P,Y1,3,2*%
%TO.N,Net-(IC1-XIN)*%
X185513693Y-75598744D03*
%TO.P,Y1,4*%
%TO.N,N/C*%
X184276256Y-74361307D03*
%TD*%
D89*
%TO.P,R92,1,R1.1*%
%TO.N,/Payload Stuff/F3_SCL*%
X107674219Y-56022568D03*
D90*
%TO.P,R92,2,R2.1*%
%TO.N,/Payload Stuff/F3_SDA*%
X108239904Y-55456883D03*
%TO.P,R92,3,R3.1*%
%TO.N,/Payload Stuff/F2_SCL*%
X108805590Y-54891197D03*
D89*
%TO.P,R92,4,R4.1*%
%TO.N,/Payload Stuff/F2_SDA*%
X109371275Y-54325512D03*
%TO.P,R92,5,R4.2*%
%TO.N,+3V3*%
X108098483Y-53052720D03*
D90*
%TO.P,R92,6,R3.2*%
X107532798Y-53618405D03*
%TO.P,R92,7,R2.2*%
X106967112Y-54184091D03*
D89*
%TO.P,R92,8,R1.2*%
X106401427Y-54749776D03*
%TD*%
D53*
%TO.P,C22,1,1*%
%TO.N,+3V3*%
X165770000Y-71075000D03*
%TO.P,C22,2,2*%
%TO.N,GND*%
X166730000Y-71075000D03*
%TD*%
D158*
%TO.P,C52,1,1*%
%TO.N,VBUSP*%
X145127818Y-89458946D03*
%TO.P,C52,2,2*%
%TO.N,GND*%
X142177816Y-89458946D03*
%TD*%
D159*
%TO.P,J7,1,1*%
%TO.N,GND*%
X183375216Y-58003895D03*
%TO.P,J7,2,2*%
%TO.N,+3V3*%
X182668109Y-58711002D03*
%TO.P,J7,3,3*%
%TO.N,FC_SDA0*%
X181961002Y-59418109D03*
%TO.P,J7,4,4*%
%TO.N,FC_SCL0*%
X181253895Y-60125216D03*
D160*
%TO.P,J7,S1,SHIELD*%
%TO.N,GND*%
X186079899Y-58870101D03*
%TO.P,J7,S2,SHIELD*%
X182120101Y-62829899D03*
%TD*%
D32*
%TO.P,R6,1,1*%
%TO.N,/Flight Computer Stuff/RX-*%
X189725000Y-37875000D03*
%TO.P,R6,2,2*%
%TO.N,/Flight Computer Stuff/RCT*%
X191375000Y-37875000D03*
%TD*%
D102*
%TO.P,C51,1,1*%
%TO.N,VBUSP*%
X146877817Y-89758946D03*
%TO.P,C51,2,2*%
%TO.N,GND*%
X149827817Y-89758946D03*
%TD*%
D32*
%TO.P,R17,1,1*%
%TO.N,/Flight Computer Stuff/D-*%
X198850000Y-70550000D03*
%TO.P,R17,2,2*%
%TO.N,/Flight Computer Stuff/USB_D-*%
X200500000Y-70550000D03*
%TD*%
D120*
%TO.P,C83,1,1*%
%TO.N,GND*%
X160175000Y-100485000D03*
%TO.P,C83,2,2*%
%TO.N,/Electrical Power System Stuff/CANH*%
X160175000Y-99525000D03*
%TD*%
D47*
%TO.P,U16,1,VO*%
%TO.N,+5V*%
X141415317Y-92233946D03*
%TO.P,U16,2,VFB*%
%TO.N,Net-(U16-VFB)*%
X141415317Y-92883946D03*
%TO.P,U16,3,VREG5*%
%TO.N,Net-(U16-VREG5)*%
X141415317Y-93533946D03*
%TO.P,U16,4,SS*%
%TO.N,Net-(U16-SS)*%
X141415317Y-94183946D03*
%TO.P,U16,5,GND*%
%TO.N,GND*%
X141415317Y-94833946D03*
%TO.P,U16,6,PG*%
%TO.N,Net-(U16-PG)*%
X141415317Y-95483946D03*
%TO.P,U16,7,EN*%
%TO.N,/Electrical Power System Stuff/5V_enable*%
X141415317Y-96133946D03*
%TO.P,U16,8,PGND1*%
%TO.N,GND*%
X147140317Y-96133946D03*
%TO.P,U16,9,PGND2*%
X147140317Y-95483946D03*
%TO.P,U16,10,SW1*%
%TO.N,Net-(U16-SW1)*%
X147140317Y-94833946D03*
%TO.P,U16,11,SW2*%
X147140317Y-94183946D03*
%TO.P,U16,12,VBST*%
%TO.N,Net-(U16-VBST)*%
X147140317Y-93533946D03*
%TO.P,U16,13,VIN*%
%TO.N,VBUSP*%
X147140317Y-92883946D03*
%TO.P,U16,14,VCC*%
X147140317Y-92233946D03*
D48*
%TO.P,U16,15,EPAD*%
%TO.N,GND*%
X142977817Y-91583946D03*
X142977817Y-92883946D03*
X142977817Y-94183946D03*
X142977817Y-95483946D03*
X142977817Y-96783946D03*
X144277817Y-91583946D03*
X144277817Y-92883946D03*
X144277817Y-94183946D03*
D49*
X144277817Y-94183946D03*
D48*
X144277817Y-95483946D03*
X144277817Y-96783946D03*
X145577817Y-91583946D03*
X145577817Y-92883946D03*
X145577817Y-94183946D03*
X145577817Y-95483946D03*
X145577817Y-96783946D03*
%TD*%
D115*
%TO.P,R73,1,1*%
%TO.N,+3V3*%
X201900000Y-133350000D03*
%TO.P,R73,2,2*%
%TO.N,/Electrical Power System Stuff/~{RESET}*%
X200733274Y-134516726D03*
%TD*%
D57*
%TO.P,Q9,1,G*%
%TO.N,Net-(Q9-G)*%
X113275000Y-97200000D03*
%TO.P,Q9,2,S*%
%TO.N,GND*%
X113275000Y-95300000D03*
%TO.P,Q9,3,D*%
%TO.N,Net-(Q10-Gate)*%
X111399999Y-96250000D03*
%TD*%
D78*
%TO.P,U2,1,~{MR}*%
%TO.N,Net-(U2-~{MR})*%
X201892838Y-77076238D03*
%TO.P,U2,2,VCC*%
%TO.N,+3V3*%
X200994813Y-76178213D03*
%TO.P,U2,3,GND*%
%TO.N,GND*%
X200096787Y-75280187D03*
%TO.P,U2,4,PFI*%
X199198762Y-74382162D03*
%TO.P,U2,5,~{PFO}*%
%TO.N,unconnected-(U2-~{PFO}-Pad5)*%
X195557162Y-78023762D03*
%TO.P,U2,6,~{WDI}*%
%TO.N,/Flight Computer Stuff/WDT_WDI*%
X196455187Y-78921787D03*
%TO.P,U2,7,~{RESET}*%
%TO.N,Net-(U2-~{RESET})*%
X197353213Y-79819813D03*
%TO.P,U2,8,~{WDO}*%
%TO.N,Net-(U2-~{MR})*%
X198251238Y-80717838D03*
%TD*%
D26*
%TO.P,TP6,1,1*%
%TO.N,+5V*%
X155277817Y-94921446D03*
%TD*%
D158*
%TO.P,C74,1,1*%
%TO.N,VBUSP*%
X145002818Y-67233946D03*
%TO.P,C74,2,2*%
%TO.N,GND*%
X142052816Y-67233946D03*
%TD*%
D32*
%TO.P,R57,1*%
%TO.N,PACK+*%
X118890317Y-123508946D03*
%TO.P,R57,2*%
%TO.N,/Electrical Power System Stuff/VDD*%
X120540317Y-123508946D03*
%TD*%
D161*
%TO.P,J24,1,1*%
%TO.N,/Electrical Power System Stuff/SPI1_CS0*%
X191321105Y-140368845D03*
%TO.P,J24,2,2*%
%TO.N,/Electrical Power System Stuff/SPI1_SCK*%
X190613998Y-139661738D03*
%TO.P,J24,3,3*%
%TO.N,/Electrical Power System Stuff/SPI1_MOSI*%
X189906891Y-138954631D03*
%TO.P,J24,4,4*%
%TO.N,/Electrical Power System Stuff/SPI1_MISO*%
X189199784Y-138247524D03*
D162*
%TO.P,J24,S1,SHIELD*%
%TO.N,GND*%
X190454899Y-143073528D03*
%TO.P,J24,S2,SHIELD*%
X186495101Y-139113730D03*
%TD*%
D92*
%TO.P,C65,1*%
%TO.N,Net-(U17-+IN)*%
X91477817Y-82021445D03*
%TO.P,C65,2*%
%TO.N,GND*%
X91477817Y-80121447D03*
%TD*%
D59*
%TO.P,C48,1,1*%
%TO.N,VBATT_SENSE*%
X171917817Y-133236446D03*
%TO.P,C48,2,2*%
%TO.N,GND*%
X170367817Y-133236446D03*
%TD*%
D89*
%TO.P,R90,1,R1.1*%
%TO.N,/Payload Stuff/F1_SCL*%
X110424219Y-53322568D03*
D90*
%TO.P,R90,2,R2.1*%
%TO.N,/Payload Stuff/F1_SDA*%
X110989904Y-52756883D03*
%TO.P,R90,3,R3.1*%
%TO.N,/Payload Stuff/F0_SCL*%
X111555590Y-52191197D03*
D89*
%TO.P,R90,4,R4.1*%
%TO.N,/Payload Stuff/F0_SDA*%
X112121275Y-51625512D03*
%TO.P,R90,5,R4.2*%
%TO.N,+3V3*%
X110848483Y-50352720D03*
D90*
%TO.P,R90,6,R3.2*%
X110282798Y-50918405D03*
%TO.P,R90,7,R2.2*%
X109717112Y-51484091D03*
D89*
%TO.P,R90,8,R1.2*%
X109151427Y-52049776D03*
%TD*%
D153*
%TO.P,IC6,1,A0*%
%TO.N,GND*%
X102018458Y-65087034D03*
%TO.P,IC6,2,A1*%
%TO.N,+3V3*%
X101558838Y-65546654D03*
%TO.P,IC6,3,A2*%
X101099219Y-66006273D03*
%TO.P,IC6,4,A3*%
%TO.N,GND*%
X100639600Y-66465893D03*
%TO.P,IC6,5,A4*%
%TO.N,+3V3*%
X100179980Y-66925512D03*
%TO.P,IC6,6,LED0*%
%TO.N,/Payload Stuff/F0_ENB*%
X99720361Y-67385132D03*
%TO.P,IC6,7,LED1*%
%TO.N,/Payload Stuff/F1_ENB*%
X99260741Y-67844751D03*
%TO.P,IC6,8,LED2*%
%TO.N,/Payload Stuff/F2_ENB*%
X98801122Y-68304370D03*
%TO.P,IC6,9,LED3*%
%TO.N,/Payload Stuff/F3_ENB*%
X98341503Y-68763990D03*
%TO.P,IC6,10,LED4*%
%TO.N,/Payload Stuff/F4_ENB*%
X97881883Y-69223609D03*
%TO.P,IC6,11,LED5*%
%TO.N,/Payload Stuff/payload*%
X97422264Y-69683229D03*
%TO.P,IC6,12,LED6*%
%TO.N,unconnected-(IC6-LED6-Pad12)*%
X96962644Y-70142848D03*
%TO.P,IC6,13,LED7*%
%TO.N,unconnected-(IC6-LED7-Pad13)*%
X96503025Y-70602467D03*
%TO.P,IC6,14,VSS*%
%TO.N,GND*%
X96043405Y-71062087D03*
%TO.P,IC6,15,LED8*%
%TO.N,unconnected-(IC6-LED8-Pad15)*%
X102637176Y-77655858D03*
%TO.P,IC6,16,LED9*%
%TO.N,unconnected-(IC6-LED9-Pad16)*%
X103096796Y-77196238D03*
%TO.P,IC6,17,LED10*%
%TO.N,unconnected-(IC6-LED10-Pad17)*%
X103556415Y-76736619D03*
%TO.P,IC6,18,LED11*%
%TO.N,unconnected-(IC6-LED11-Pad18)*%
X104016034Y-76276999D03*
%TO.P,IC6,19,LED12*%
%TO.N,unconnected-(IC6-LED12-Pad19)*%
X104475654Y-75817380D03*
%TO.P,IC6,20,LED13*%
%TO.N,unconnected-(IC6-LED13-Pad20)*%
X104935273Y-75357760D03*
%TO.P,IC6,21,LED14*%
%TO.N,unconnected-(IC6-LED14-Pad21)*%
X105394893Y-74898141D03*
%TO.P,IC6,22,LED15*%
%TO.N,unconnected-(IC6-LED15-Pad22)*%
X105854512Y-74438522D03*
%TO.P,IC6,23,~{OE}*%
%TO.N,GND*%
X106314131Y-73978902D03*
%TO.P,IC6,24,A5*%
X106773751Y-73519283D03*
%TO.P,IC6,25,EXTCLK*%
X107233370Y-73059663D03*
%TO.P,IC6,26,SCL*%
%TO.N,EPS_SCL1*%
X107692990Y-72600044D03*
%TO.P,IC6,27,SDA*%
%TO.N,EPS_SDA1*%
X108152609Y-72140425D03*
%TO.P,IC6,28,VDD*%
%TO.N,+3V3*%
X108612229Y-71680805D03*
%TD*%
D32*
%TO.P,R72,1,1*%
%TO.N,+3V3*%
X192525000Y-117068629D03*
%TO.P,R72,2,2*%
%TO.N,/Electrical Power System Stuff/QSPI_CS*%
X194175000Y-117068629D03*
%TD*%
D115*
%TO.P,R74,1,1*%
%TO.N,Net-(IC5-XOUT)*%
X189333363Y-129666637D03*
%TO.P,R74,2,2*%
%TO.N,Net-(C78-Pad2)*%
X188166637Y-130833363D03*
%TD*%
D26*
%TO.P,TP2,1,1*%
%TO.N,FC_RESET*%
X197800000Y-83975000D03*
%TD*%
D21*
%TO.P,C81,1,1*%
%TO.N,GND*%
X198239411Y-118385589D03*
%TO.P,C81,2,2*%
%TO.N,1.2V*%
X197560589Y-119064411D03*
%TD*%
D29*
%TO.P,D3,1,K*%
%TO.N,Net-(D3-K)*%
X187150001Y-49387499D03*
%TO.P,D3,2,A*%
%TO.N,FC_RX*%
X187150001Y-50962501D03*
%TD*%
D113*
%TO.P,LED2,1,VDD*%
%TO.N,/Electrical Power System Stuff/NEO_PWR*%
X207725000Y-130400000D03*
%TO.P,LED2,2,DO*%
%TO.N,unconnected-(LED2-DO-Pad2)*%
X207725000Y-133700000D03*
%TO.P,LED2,3,GND*%
%TO.N,GND*%
X212625000Y-133700000D03*
%TO.P,LED2,4,DI*%
%TO.N,/Electrical Power System Stuff/NEOPIX*%
X212625000Y-130400000D03*
%TD*%
D32*
%TO.P,R51,1,1*%
%TO.N,Net-(U16-VFB)*%
X137977817Y-91158946D03*
%TO.P,R51,2,2*%
%TO.N,+5V*%
X139627817Y-91158946D03*
%TD*%
D30*
%TO.P,R34,1,1*%
%TO.N,Net-(D6-K)*%
X159152817Y-122571446D03*
%TO.P,R34,2,2*%
%TO.N,Net-(IC4-VIN_REG)*%
X159152817Y-124221446D03*
%TD*%
D163*
%TO.P,J1,1*%
%TO.N,/Flight Computer Stuff/TX+*%
X197950000Y-46720000D03*
%TO.P,J1,2*%
%TO.N,/Flight Computer Stuff/TX-*%
X195410000Y-45450000D03*
%TO.P,J1,3*%
%TO.N,/Flight Computer Stuff/TCT*%
X197950000Y-44180000D03*
%TO.P,J1,4*%
%TO.N,GND*%
X195410000Y-42910000D03*
%TO.P,J1,5*%
X197950000Y-41640000D03*
%TO.P,J1,6*%
%TO.N,/Flight Computer Stuff/RCT*%
X195410000Y-40370000D03*
%TO.P,J1,7*%
%TO.N,Net-(C3-Pad1)*%
X197950000Y-39100000D03*
%TO.P,J1,8*%
%TO.N,Net-(C6-Pad1)*%
X195410000Y-37830000D03*
%TO.P,J1,9*%
%TO.N,/Flight Computer Stuff/GREENLED*%
X209190000Y-38489892D03*
%TO.P,J1,10*%
%TO.N,+3V3*%
X207670001Y-35949892D03*
%TO.P,J1,11*%
%TO.N,/Flight Computer Stuff/YELLOWLED*%
X207670001Y-46059999D03*
%TO.P,J1,12*%
%TO.N,+3V3*%
X209190000Y-48599999D03*
D164*
%TO.P,J1,15*%
%TO.N,N/C*%
X201240001Y-50050000D03*
%TO.P,J1,16*%
X201240001Y-34500000D03*
%TD*%
D29*
%TO.P,D19,1,K*%
%TO.N,GND*%
X110725000Y-35187499D03*
%TO.P,D19,2,A*%
%TO.N,Net-(D19-A)*%
X110725000Y-36762501D03*
%TD*%
D157*
%TO.P,Y4,1,1*%
%TO.N,Net-(C78-Pad2)*%
X185872614Y-128352512D03*
%TO.P,Y4,2,2*%
%TO.N,GND*%
X187110051Y-129589949D03*
%TO.P,Y4,3,3*%
%TO.N,Net-(IC5-XIN)*%
X188100000Y-128600000D03*
%TO.P,Y4,4,4*%
%TO.N,GND*%
X186862563Y-127362563D03*
%TD*%
D20*
%TO.P,R95,1*%
%TO.N,/Payload Stuff/F2_ENB*%
X94900000Y-40150000D03*
%TO.P,R95,2*%
%TO.N,Net-(D20-A)*%
X94900000Y-38500000D03*
%TD*%
D32*
%TO.P,R60,1*%
%TO.N,Net-(J34-Pin_1)*%
X88102817Y-85521446D03*
%TO.P,R60,2*%
%TO.N,Net-(U17--IN)*%
X89752817Y-85521446D03*
%TD*%
D165*
%TO.P,U13,1,1*%
%TO.N,unconnected-(U13-Pad1)*%
X156072817Y-71771446D03*
%TO.P,U13,2,2*%
%TO.N,unconnected-(U13-Pad2)*%
X173602817Y-71771446D03*
D166*
%TO.P,U13,3,3*%
%TO.N,unconnected-(U13-Pad3)*%
X156072817Y-126971446D03*
%TO.P,U13,4,4*%
%TO.N,unconnected-(U13-Pad4)*%
X138602817Y-126971446D03*
D167*
%TO.P,U13,5,5*%
%TO.N,unconnected-(U13-Pad5)*%
X174022817Y-135481446D03*
D168*
%TO.P,U13,6,6*%
%TO.N,B-*%
X165652817Y-63261446D03*
%TO.P,U13,7,7*%
X146522817Y-63261446D03*
%TO.P,U13,8,8*%
%TO.N,BM*%
X165652817Y-135481446D03*
%TO.P,U13,9,9*%
X146522817Y-135481446D03*
%TD*%
D165*
%TO.P,U15,1,1*%
%TO.N,unconnected-(U15-Pad1)*%
X113247817Y-71846446D03*
%TO.P,U15,2,2*%
%TO.N,unconnected-(U15-Pad2)*%
X130777817Y-71846446D03*
D166*
%TO.P,U15,3,3*%
%TO.N,unconnected-(U15-Pad3)*%
X113247817Y-127046446D03*
%TO.P,U15,4,4*%
%TO.N,unconnected-(U15-Pad4)*%
X95777817Y-127046446D03*
D167*
%TO.P,U15,5,5*%
%TO.N,unconnected-(U15-Pad5)*%
X131197817Y-135556446D03*
D168*
%TO.P,U15,6,6*%
%TO.N,BM*%
X122827817Y-63336446D03*
%TO.P,U15,7,7*%
X103697817Y-63336446D03*
%TO.P,U15,8,8*%
%TO.N,PACK+*%
X122827817Y-135556446D03*
%TO.P,U15,9,9*%
X103697817Y-135556446D03*
%TD*%
D169*
%TO.P,J11,1,In*%
%TO.N,Net-(J11-In)*%
X131052817Y-56696446D03*
D170*
%TO.P,J11,2,Ext*%
%TO.N,GND*%
X128512817Y-54156446D03*
X128512817Y-59236446D03*
X133592817Y-54156446D03*
X133592817Y-59236446D03*
%TD*%
M02*
