%TF.GenerationSoftware,KiCad,Pcbnew,7.0.1*%
%TF.CreationDate,2024-03-13T20:17:12-07:00*%
%TF.ProjectId,flight_computer_dev_board_rfm98pw,666c6967-6874-45f6-936f-6d7075746572,rev?*%
%TF.SameCoordinates,Original*%
%TF.FileFunction,Copper,L2,Inr*%
%TF.FilePolarity,Positive*%
%FSLAX46Y46*%
G04 Gerber Fmt 4.6, Leading zero omitted, Abs format (unit mm)*
G04 Created by KiCad (PCBNEW 7.0.1) date 2024-03-13 20:17:12*
%MOMM*%
%LPD*%
G01*
G04 APERTURE LIST*
%TA.AperFunction,ComponentPad*%
%ADD10C,2.050000*%
%TD*%
%TA.AperFunction,ComponentPad*%
%ADD11C,2.250000*%
%TD*%
%TA.AperFunction,ComponentPad*%
%ADD12C,2.000000*%
%TD*%
%TA.AperFunction,ComponentPad*%
%ADD13C,5.000000*%
%TD*%
%TA.AperFunction,ComponentPad*%
%ADD14C,0.500000*%
%TD*%
%TA.AperFunction,ComponentPad*%
%ADD15O,2.416000X1.208000*%
%TD*%
%TA.AperFunction,ComponentPad*%
%ADD16R,1.700000X1.700000*%
%TD*%
%TA.AperFunction,ComponentPad*%
%ADD17O,1.700000X1.700000*%
%TD*%
%TA.AperFunction,ViaPad*%
%ADD18C,0.460000*%
%TD*%
%TA.AperFunction,ViaPad*%
%ADD19C,0.800000*%
%TD*%
%TA.AperFunction,ViaPad*%
%ADD20C,0.600000*%
%TD*%
%TA.AperFunction,Conductor*%
%ADD21C,0.127000*%
%TD*%
%TA.AperFunction,Conductor*%
%ADD22C,0.250000*%
%TD*%
G04 APERTURE END LIST*
D10*
%TO.N,Net-(J6-In)*%
%TO.C,J6*%
X153170000Y-71210000D03*
D11*
%TO.N,GND*%
X150630000Y-68670000D03*
X150630000Y-73750000D03*
X155710000Y-68670000D03*
X155710000Y-73750000D03*
%TD*%
D12*
%TO.N,Net-(U9-RESET)*%
%TO.C,TP3*%
X154880000Y-118320000D03*
%TD*%
%TO.N,+5V*%
%TO.C,TP5*%
X179780000Y-118360000D03*
%TD*%
%TO.N,Net-(U9-STBY)*%
%TO.C,TP4*%
X170910000Y-126760000D03*
%TD*%
D13*
%TO.N,N/C*%
%TO.C,*%
X227414400Y-138100000D03*
%TD*%
%TO.N,N/C*%
%TO.C,*%
X147381083Y-138100000D03*
%TD*%
D12*
%TO.N,FC_RESET*%
%TO.C,TP2*%
X195510000Y-91320000D03*
%TD*%
D14*
%TO.N,GND*%
%TO.C,IC1*%
X205930000Y-87219188D03*
X207839188Y-85310000D03*
X204020812Y-85310000D03*
X205930000Y-83400812D03*
%TD*%
D12*
%TO.N,D3*%
%TO.C,TP1*%
X192960000Y-79300000D03*
%TD*%
D15*
%TO.N,GND*%
%TO.C,J8*%
X224920000Y-86970000D03*
%TO.N,N/C*%
X224920000Y-79070000D03*
%TD*%
D16*
%TO.N,GND*%
%TO.C,J3*%
X204330000Y-60190000D03*
D17*
%TO.N,TX*%
X204330000Y-62730000D03*
%TO.N,RX*%
X204330000Y-65270000D03*
%TO.N,SCL1*%
X204330000Y-67810000D03*
%TO.N,SDA1*%
X204330000Y-70350000D03*
%TO.N,3.3V*%
X204330000Y-72890000D03*
%TD*%
D18*
%TO.N,D3*%
X216160000Y-119380000D03*
X199170000Y-85920000D03*
%TO.N,Neo_pwr*%
X217130000Y-96240000D03*
X212080000Y-90220000D03*
%TO.N,ENABLE_BURN {slash} PC*%
X219020000Y-111910000D03*
%TO.N,D7*%
X215450000Y-111420000D03*
D19*
%TO.N,BURN_RELAY_A {slash} D5*%
X215670000Y-114530688D03*
D20*
%TO.N,GND*%
X153230000Y-62770000D03*
D18*
X165960000Y-118530000D03*
D19*
X180230000Y-96170000D03*
D18*
X165920000Y-120130000D03*
D19*
X215270000Y-86050000D03*
D20*
X159110000Y-58990000D03*
D19*
X168380000Y-108430000D03*
X216930000Y-106440000D03*
D20*
X152860000Y-64860000D03*
D18*
X167110000Y-132590000D03*
X163510000Y-118550000D03*
D19*
X154690000Y-90040000D03*
D20*
X154870000Y-65870000D03*
X151810000Y-60210000D03*
X164430000Y-59240000D03*
D18*
X170800000Y-129770000D03*
X184610000Y-84030000D03*
X173850000Y-115970000D03*
D19*
X218140000Y-68160000D03*
D18*
X208679998Y-97590002D03*
X200300000Y-81610000D03*
X208982438Y-91907561D03*
D20*
X155270000Y-61360000D03*
D19*
X221430000Y-75570000D03*
D20*
X153930000Y-65870000D03*
X155250000Y-62360000D03*
X153120000Y-58960000D03*
X164550000Y-61340000D03*
D18*
X180070000Y-127000000D03*
D20*
X158020000Y-58980000D03*
D18*
X172870000Y-124160000D03*
D19*
X213390000Y-77840000D03*
D20*
X164510000Y-60360000D03*
D18*
X177270000Y-120100000D03*
D20*
X154380000Y-58940000D03*
D19*
X222660000Y-96000000D03*
D18*
X189950000Y-85580000D03*
X165720000Y-128040000D03*
D20*
X153120000Y-63830000D03*
D18*
X158470000Y-132530000D03*
D19*
X209520000Y-120000000D03*
D20*
X153940000Y-66910000D03*
D18*
X198529500Y-89848715D03*
X162340000Y-128210000D03*
D20*
X155580000Y-58990000D03*
D19*
X196160000Y-78060000D03*
X220400000Y-84690000D03*
D18*
X205900000Y-77570000D03*
X204120000Y-132130000D03*
X169040000Y-125260000D03*
D20*
X162580000Y-58200000D03*
D18*
X224550000Y-101060000D03*
D19*
X211180000Y-71770000D03*
D20*
X151800000Y-61520000D03*
X151920000Y-58970000D03*
X161280000Y-58230000D03*
D18*
X195320000Y-84860000D03*
D20*
X156770000Y-58980000D03*
D18*
X163480000Y-120130000D03*
D20*
X163890000Y-58230000D03*
D18*
X194250000Y-93350000D03*
D20*
X155990000Y-65870000D03*
D19*
X201550000Y-106360000D03*
D18*
X202520000Y-91510000D03*
D19*
X208290000Y-76340000D03*
D20*
X159190000Y-60740000D03*
D19*
X189070000Y-95910000D03*
D18*
X184360000Y-92700000D03*
D20*
X160210000Y-58640000D03*
D18*
X188490000Y-83380000D03*
D20*
X152330000Y-66910000D03*
D18*
X190080000Y-90960000D03*
X181440000Y-91020000D03*
D20*
X152370000Y-65680000D03*
D18*
%TO.N,3.3V*%
X163460000Y-123970000D03*
X184480000Y-82086500D03*
D19*
X194910000Y-129920000D03*
X202280000Y-118210000D03*
D18*
X164250000Y-132090000D03*
D19*
X209510000Y-117560000D03*
X171390000Y-101650000D03*
X209530000Y-113420000D03*
D18*
X173360000Y-132480000D03*
X206340000Y-132250000D03*
X213130000Y-81120000D03*
X188360000Y-86580000D03*
X202010000Y-98770000D03*
D19*
X162670000Y-103180000D03*
D18*
X180430000Y-90840000D03*
D19*
X219690000Y-70410000D03*
X154520000Y-92960000D03*
%TO.N,VBUS*%
X220550000Y-80800000D03*
X222750000Y-87640000D03*
X224800000Y-77030000D03*
D18*
%TO.N,VCC_RF1*%
X182440000Y-91140000D03*
X182790000Y-85770000D03*
X211000000Y-105500000D03*
X204390000Y-103840000D03*
X175340000Y-79710000D03*
X190560000Y-93000000D03*
%TO.N,ENABLE_BURN {slash} PC*%
X203796738Y-83787000D03*
%TO.N,I2C_RESET {slash} VS*%
X202679075Y-82473441D03*
D19*
X219340353Y-122320353D03*
D18*
%TO.N,ENAB_RF {slash} D2*%
X202660000Y-85010000D03*
D19*
X219380000Y-119590000D03*
D18*
%TO.N,VBUS_RESET {slash} D4*%
X202849500Y-85860738D03*
%TO.N,BURN_RELAY_A {slash} D5*%
X203550000Y-86350000D03*
%TO.N,VBUS_RESET {slash} D4*%
X215506396Y-116726396D03*
%TO.N,D6*%
X205700000Y-91630000D03*
%TO.N,D7*%
X212080784Y-96219216D03*
X205337798Y-90170000D03*
%TO.N,D6*%
X215280000Y-112190000D03*
%TO.N,D8*%
X206400000Y-90840000D03*
X215210000Y-109560000D03*
%TO.N,D9*%
X207100000Y-90410000D03*
%TO.N,SPI0_CS1*%
X208510000Y-132220000D03*
X216450000Y-111480000D03*
X209680000Y-88780000D03*
X206050000Y-119760000D03*
%TO.N,D9*%
X213493500Y-100670000D03*
%TO.N,TX*%
X204950000Y-79020000D03*
%TO.N,RX*%
X204070000Y-78550000D03*
%TO.N,D3*%
X208450000Y-72460000D03*
%TO.N,SPI0_CS2*%
X209650000Y-93900000D03*
X211270172Y-88389828D03*
X191943000Y-108150000D03*
X161980000Y-115040000D03*
X174890000Y-114250000D03*
%TO.N,SDA1*%
X203210000Y-76390000D03*
X186770000Y-84000000D03*
%TO.N,SCL1*%
X187678042Y-86101958D03*
X187600000Y-81760000D03*
X202620000Y-77230000D03*
%TO.N,SDA0*%
X204850522Y-82754243D03*
D19*
X220410000Y-113017000D03*
X207590000Y-111070000D03*
%TO.N,SCL0*%
X208292347Y-113207653D03*
D18*
X204462067Y-83351099D03*
D19*
X216760000Y-115090000D03*
%TO.N,D0*%
X175760000Y-94330000D03*
D18*
X211765172Y-88884828D03*
D19*
%TO.N,HS*%
X215360000Y-120730000D03*
D18*
X208583633Y-89766425D03*
D19*
X222580000Y-107880000D03*
X218610000Y-100800000D03*
%TO.N,FC_RESET*%
X178212868Y-93870119D03*
D18*
%TO.N,SWCLK*%
X205044501Y-87897613D03*
%TO.N,SWDIO*%
X205760000Y-88610000D03*
%TO.N,SPI0_MISO*%
X201127420Y-82797802D03*
X198250000Y-92490000D03*
X169760000Y-112440000D03*
X199590000Y-72310000D03*
X185505000Y-112745000D03*
X166300000Y-112450000D03*
X203010000Y-131230000D03*
%TO.N,SPI0_CS0*%
X200340891Y-82659109D03*
X197600000Y-66270000D03*
X183240000Y-66001499D03*
X180570000Y-76200000D03*
%TO.N,SPI0_SCK*%
X185010000Y-111946500D03*
X205340000Y-131450000D03*
X197600000Y-68170000D03*
X169150000Y-111950000D03*
X185990000Y-68001499D03*
X199392286Y-82407714D03*
X167380000Y-113640000D03*
X197874605Y-91817762D03*
X186010000Y-73340000D03*
%TO.N,SPI0_MOSI*%
X166790000Y-112980000D03*
X197690000Y-90980000D03*
X169130000Y-111100000D03*
X184370000Y-70001499D03*
X197690000Y-70090000D03*
X185520000Y-111100000D03*
X198371758Y-82190609D03*
X207440000Y-131140000D03*
X184370000Y-73260000D03*
%TO.N,RF1_RST*%
X200910000Y-66380000D03*
X206570000Y-88420000D03*
%TO.N,WDT_WDI*%
X206990000Y-92600000D03*
X206990000Y-94590000D03*
%TO.N,RF1_IO4*%
X198640000Y-83210000D03*
X176960000Y-77100000D03*
X164830000Y-67160000D03*
X207168321Y-87727200D03*
%TO.N,RF1_IO0*%
X207730000Y-87140000D03*
X199794371Y-84205629D03*
X164720000Y-70930000D03*
X179790000Y-81240000D03*
%TO.N,NEOPIX*%
X208534359Y-88793124D03*
X218780000Y-97000000D03*
%TO.N,/QSPI_DATA[3]*%
X218280000Y-75430000D03*
X210049974Y-80209974D03*
%TO.N,/QSPI_SCK*%
X217420000Y-76340000D03*
X209174194Y-80114194D03*
%TO.N,/QSPI_DATA[0]*%
X206690000Y-82590000D03*
X216096396Y-76966396D03*
D19*
%TO.N,/QSPI_DATA[2]*%
X213850000Y-73670000D03*
X215330000Y-74330000D03*
%TO.N,USB_D-*%
X223489169Y-74945000D03*
X218210000Y-83080000D03*
X219580000Y-81940000D03*
%TO.N,USB_D+*%
X219320000Y-83080000D03*
X220550000Y-83090000D03*
X223489169Y-73895000D03*
D18*
%TO.N,CANL*%
X165520000Y-129320000D03*
X169380000Y-131360000D03*
%TO.N,TXCAN*%
X160520000Y-119740000D03*
X168690000Y-121000000D03*
%TD*%
D21*
%TO.N,SPI0_MISO*%
X201127420Y-89482580D02*
X201127420Y-82797802D01*
X198250000Y-92360000D02*
X201127420Y-89482580D01*
X198250000Y-92490000D02*
X198250000Y-92360000D01*
%TO.N,D7*%
X213327000Y-109297000D02*
X215450000Y-111420000D01*
X213327000Y-105784915D02*
X213327000Y-109297000D01*
X212370000Y-104827915D02*
X213327000Y-105784915D01*
X212370000Y-96508432D02*
X212370000Y-104827915D01*
X212080784Y-96219216D02*
X212370000Y-96508432D01*
%TO.N,SPI0_CS1*%
X213986500Y-104304052D02*
X213986500Y-93086500D01*
X215830000Y-110860000D02*
X215830000Y-106147552D01*
X215830000Y-106147552D02*
X213986500Y-104304052D01*
X216450000Y-111480000D02*
X215830000Y-110860000D01*
X213986500Y-93086500D02*
X209680000Y-88780000D01*
%TO.N,D6*%
X210190000Y-95026347D02*
X210190000Y-94740000D01*
X211560000Y-96396347D02*
X210190000Y-95026347D01*
X213000000Y-107450000D02*
X211560000Y-106010000D01*
X213000000Y-109910000D02*
X213000000Y-107450000D01*
X211560000Y-106010000D02*
X211560000Y-96396347D01*
X215280000Y-112190000D02*
X213000000Y-109910000D01*
%TO.N,D8*%
X215210000Y-107110000D02*
X215210000Y-109560000D01*
X212880000Y-95569656D02*
X212880000Y-104780000D01*
X209711405Y-92401061D02*
X212880000Y-95569656D01*
X207961061Y-92401061D02*
X209711405Y-92401061D01*
X212880000Y-104780000D02*
X215210000Y-107110000D01*
X206400000Y-90840000D02*
X207961061Y-92401061D01*
%TO.N,D9*%
X213493500Y-95720708D02*
X213493500Y-100670000D01*
X207100000Y-90410000D02*
X208182792Y-90410000D01*
X208182792Y-90410000D02*
X213493500Y-95720708D01*
D22*
%TO.N,VBUS*%
X224800000Y-77030000D02*
X224320000Y-77030000D01*
X223170000Y-87220000D02*
X222750000Y-87640000D01*
X220550000Y-80800000D02*
X222140000Y-80800000D01*
X222140000Y-80800000D02*
X223170000Y-81830000D01*
X223170000Y-81830000D02*
X223170000Y-87220000D01*
X224320000Y-77030000D02*
X220550000Y-80800000D01*
D21*
%TO.N,D6*%
X210190000Y-93742085D02*
X209541415Y-93093500D01*
X205700000Y-92010000D02*
X205700000Y-91630000D01*
X210190000Y-94740000D02*
X210190000Y-93742085D01*
X206783500Y-93093500D02*
X205700000Y-92010000D01*
X209541415Y-93093500D02*
X206783500Y-93093500D01*
X210190000Y-94740000D02*
X210190000Y-94670000D01*
%TO.N,RX*%
X202790000Y-74830000D02*
X202790000Y-66810000D01*
X204070000Y-76110000D02*
X202790000Y-74830000D01*
X204070000Y-78550000D02*
X204070000Y-76110000D01*
X202790000Y-66810000D02*
X204330000Y-65270000D01*
%TO.N,SPI0_CS2*%
X209650000Y-93900000D02*
X205702085Y-93900000D01*
X205702085Y-93900000D02*
X191943000Y-107659085D01*
X191943000Y-107659085D02*
X191943000Y-108150000D01*
%TO.N,SDA0*%
X207590000Y-111070000D02*
X208911669Y-112391669D01*
X210065331Y-113017000D02*
X220410000Y-113017000D01*
X208911669Y-112391669D02*
X209440000Y-112391669D01*
X209440000Y-112391669D02*
X210065331Y-113017000D01*
%TO.N,D0*%
X201686381Y-94533619D02*
X175963619Y-94533619D01*
X211765172Y-88186913D02*
X211298259Y-87720000D01*
X211765172Y-88884828D02*
X211765172Y-88186913D01*
X208500000Y-87720000D02*
X201686381Y-94533619D01*
X175963619Y-94533619D02*
X175760000Y-94330000D01*
X211298259Y-87720000D02*
X208500000Y-87720000D01*
%TO.N,SPI0_MISO*%
X203030000Y-130270000D02*
X203030000Y-131210000D01*
X203030000Y-131210000D02*
X203010000Y-131230000D01*
X201127420Y-82797802D02*
X201127420Y-73847420D01*
X169760000Y-112440000D02*
X185200000Y-112440000D01*
X185200000Y-112440000D02*
X185505000Y-112745000D01*
X185505000Y-112745000D02*
X203030000Y-130270000D01*
X201127420Y-73847420D02*
X199590000Y-72310000D01*
%TO.N,SPI0_CS0*%
X199220000Y-81700000D02*
X199097000Y-81577000D01*
X199097000Y-81577000D02*
X199097000Y-67767000D01*
X200340891Y-82659109D02*
X199381781Y-81700000D01*
X199097000Y-67767000D02*
X197600000Y-66270000D01*
X199381781Y-81700000D02*
X199220000Y-81700000D01*
%TO.N,SPI0_SCK*%
X185010000Y-111946500D02*
X186906500Y-111946500D01*
X205350000Y-130390000D02*
X205350000Y-131440000D01*
X199392286Y-82280652D02*
X199351634Y-82240000D01*
X199392286Y-82407714D02*
X200800420Y-83815848D01*
X205350000Y-131440000D02*
X205340000Y-131450000D01*
X198770000Y-69340000D02*
X197600000Y-68170000D01*
X169150000Y-111950000D02*
X169153500Y-111946500D01*
X198770000Y-81900000D02*
X198770000Y-69340000D01*
X200800420Y-83815848D02*
X200800420Y-88891947D01*
X169153500Y-111946500D02*
X185010000Y-111946500D01*
X200800420Y-88891947D02*
X197874605Y-91817762D01*
X199392286Y-82407714D02*
X199392286Y-82280652D01*
X199110000Y-82240000D02*
X198770000Y-81900000D01*
X186906500Y-111946500D02*
X205350000Y-130390000D01*
X199351634Y-82240000D02*
X199110000Y-82240000D01*
%TO.N,SPI0_MOSI*%
X200410000Y-85730000D02*
X200410000Y-86610000D01*
X198371758Y-82190609D02*
X198477266Y-82190609D01*
X207430000Y-130850000D02*
X207440000Y-130860000D01*
X200410000Y-84123343D02*
X200410000Y-85730000D01*
X187680000Y-111100000D02*
X207430000Y-130850000D01*
X198371758Y-82190609D02*
X198379391Y-82190609D01*
X200410000Y-88666130D02*
X198096130Y-90980000D01*
X207440000Y-130860000D02*
X207440000Y-131140000D01*
X198477266Y-82190609D02*
X200410000Y-84123343D01*
X200410000Y-86610000D02*
X200410000Y-88666130D01*
X200410000Y-86610000D02*
X200410000Y-86670000D01*
X198400000Y-82170000D02*
X198400000Y-70800000D01*
X169130000Y-111100000D02*
X187680000Y-111100000D01*
X198400000Y-70800000D02*
X197690000Y-70090000D01*
X198096130Y-90980000D02*
X197690000Y-90980000D01*
X198379391Y-82190609D02*
X198400000Y-82170000D01*
%TO.N,RF1_IO4*%
X170420000Y-67160000D02*
X164830000Y-67160000D01*
X176960000Y-73700000D02*
X170420000Y-67160000D01*
X176960000Y-77100000D02*
X176960000Y-73700000D01*
%TO.N,RF1_IO0*%
X169540000Y-70990000D02*
X164780000Y-70990000D01*
X164780000Y-70990000D02*
X164720000Y-70930000D01*
X179790000Y-81240000D02*
X169540000Y-70990000D01*
%TD*%
%TA.AperFunction,Conductor*%
%TO.N,GND*%
G36*
X199823318Y-73360048D02*
G01*
X199872681Y-73390298D01*
X200527101Y-74044717D01*
X200553981Y-74084945D01*
X200563420Y-74132398D01*
X200563420Y-81784659D01*
X200549905Y-81840954D01*
X200512305Y-81884977D01*
X200458818Y-81907132D01*
X200401102Y-81902590D01*
X200351739Y-81872340D01*
X199812477Y-81333079D01*
X199801781Y-81320883D01*
X199796214Y-81313628D01*
X199784031Y-81297750D01*
X199744102Y-81267112D01*
X199709513Y-81240571D01*
X199673788Y-81197040D01*
X199661000Y-81142196D01*
X199661000Y-73477979D01*
X199674515Y-73421684D01*
X199712115Y-73377661D01*
X199765602Y-73355506D01*
X199823318Y-73360048D01*
G37*
%TD.AperFunction*%
%TA.AperFunction,Conductor*%
G36*
X228288992Y-47778803D02*
G01*
X228341507Y-47790633D01*
X228384059Y-47823600D01*
X231109469Y-51106745D01*
X231114110Y-51112335D01*
X231135334Y-51149435D01*
X231142700Y-51191537D01*
X231142700Y-57245588D01*
X231133261Y-57293041D01*
X231106381Y-57333269D01*
X226267208Y-62172441D01*
X226245311Y-62187978D01*
X226224598Y-62213950D01*
X226215345Y-62224304D01*
X226212252Y-62227396D01*
X226209922Y-62231105D01*
X226201889Y-62242426D01*
X226181176Y-62268400D01*
X226176517Y-62279647D01*
X226172800Y-62312641D01*
X226170475Y-62326333D01*
X226169500Y-62330607D01*
X226169500Y-62334978D01*
X226168721Y-62348859D01*
X226165002Y-62381865D01*
X226169500Y-62408332D01*
X226169500Y-77955488D01*
X226155032Y-78013616D01*
X226115003Y-78058179D01*
X226058755Y-78078778D01*
X225999417Y-78070606D01*
X225836589Y-78005420D01*
X225836587Y-78005419D01*
X225629467Y-77965500D01*
X225426050Y-77965500D01*
X225366313Y-77950162D01*
X225321353Y-77907943D01*
X225302295Y-77849286D01*
X225313851Y-77788704D01*
X225353164Y-77741182D01*
X225405872Y-77702887D01*
X225532533Y-77562216D01*
X225627179Y-77398284D01*
X225628707Y-77393580D01*
X225685674Y-77218256D01*
X225705460Y-77030000D01*
X225685674Y-76841744D01*
X225627179Y-76661716D01*
X225627179Y-76661715D01*
X225532533Y-76497783D01*
X225405870Y-76357110D01*
X225252730Y-76245848D01*
X225079802Y-76168855D01*
X224894648Y-76129500D01*
X224894646Y-76129500D01*
X224705354Y-76129500D01*
X224705352Y-76129500D01*
X224520197Y-76168855D01*
X224347269Y-76245848D01*
X224194131Y-76357109D01*
X224146923Y-76409538D01*
X224089372Y-76445639D01*
X224069612Y-76451380D01*
X224052369Y-76461578D01*
X224034897Y-76470138D01*
X224016266Y-76477514D01*
X223980938Y-76503181D01*
X223971180Y-76509591D01*
X223933579Y-76531829D01*
X223919410Y-76545998D01*
X223904622Y-76558628D01*
X223888413Y-76570405D01*
X223860572Y-76604058D01*
X223852711Y-76612696D01*
X220602228Y-79863181D01*
X220562000Y-79890061D01*
X220514547Y-79899500D01*
X220455352Y-79899500D01*
X220270197Y-79938855D01*
X220097269Y-80015848D01*
X219944129Y-80127110D01*
X219817466Y-80267783D01*
X219722820Y-80431715D01*
X219664326Y-80611742D01*
X219644540Y-80800000D01*
X219655317Y-80902539D01*
X219643446Y-80969858D01*
X219597706Y-81020658D01*
X219531996Y-81039500D01*
X219485352Y-81039500D01*
X219300197Y-81078855D01*
X219127269Y-81155848D01*
X218974129Y-81267110D01*
X218847466Y-81407783D01*
X218752820Y-81571715D01*
X218694326Y-81751742D01*
X218683486Y-81854878D01*
X218674540Y-81940000D01*
X218690507Y-82091921D01*
X218691907Y-82105236D01*
X218681866Y-82168632D01*
X218641472Y-82218515D01*
X218581548Y-82241518D01*
X218518151Y-82231477D01*
X218489801Y-82218854D01*
X218304648Y-82179500D01*
X218304646Y-82179500D01*
X218115354Y-82179500D01*
X218115352Y-82179500D01*
X217930197Y-82218855D01*
X217757269Y-82295848D01*
X217604129Y-82407110D01*
X217477466Y-82547783D01*
X217382820Y-82711715D01*
X217324326Y-82891742D01*
X217304540Y-83080000D01*
X217324326Y-83268257D01*
X217382820Y-83448284D01*
X217477466Y-83612216D01*
X217604129Y-83752889D01*
X217757269Y-83864151D01*
X217930197Y-83941144D01*
X218115352Y-83980500D01*
X218115354Y-83980500D01*
X218304646Y-83980500D01*
X218304648Y-83980500D01*
X218442756Y-83951144D01*
X218489803Y-83941144D01*
X218662730Y-83864151D01*
X218692114Y-83842801D01*
X218739219Y-83821829D01*
X218790781Y-83821829D01*
X218837885Y-83842801D01*
X218867270Y-83864151D01*
X219040196Y-83941143D01*
X219040197Y-83941144D01*
X219225352Y-83980500D01*
X219225354Y-83980500D01*
X219414646Y-83980500D01*
X219414648Y-83980500D01*
X219552756Y-83951144D01*
X219599803Y-83941144D01*
X219772730Y-83864151D01*
X219772731Y-83864150D01*
X219855233Y-83804210D01*
X219902337Y-83783238D01*
X219953899Y-83783238D01*
X220001003Y-83804210D01*
X220097269Y-83874151D01*
X220270197Y-83951144D01*
X220455352Y-83990500D01*
X220455354Y-83990500D01*
X220644646Y-83990500D01*
X220644648Y-83990500D01*
X220768083Y-83964262D01*
X220829803Y-83951144D01*
X221002730Y-83874151D01*
X221045878Y-83842802D01*
X221155870Y-83762889D01*
X221282533Y-83622216D01*
X221377179Y-83458284D01*
X221404701Y-83373580D01*
X221435674Y-83278256D01*
X221455460Y-83090000D01*
X221435674Y-82901744D01*
X221387748Y-82754243D01*
X221377179Y-82721715D01*
X221282533Y-82557783D01*
X221155870Y-82417110D01*
X221002730Y-82305848D01*
X220829802Y-82228855D01*
X220644648Y-82189500D01*
X220644646Y-82189500D01*
X220596953Y-82189500D01*
X220531243Y-82170658D01*
X220485503Y-82119858D01*
X220473632Y-82052539D01*
X220477567Y-82015099D01*
X220485460Y-81940000D01*
X220474682Y-81837461D01*
X220486554Y-81770142D01*
X220532294Y-81719342D01*
X220598004Y-81700500D01*
X220644648Y-81700500D01*
X220773055Y-81673206D01*
X220829803Y-81661144D01*
X221002730Y-81584151D01*
X221155871Y-81472888D01*
X221161598Y-81466526D01*
X221203312Y-81436220D01*
X221253747Y-81425500D01*
X221829548Y-81425500D01*
X221877001Y-81434939D01*
X221917229Y-81461819D01*
X222508181Y-82052772D01*
X222535061Y-82093000D01*
X222544500Y-82140453D01*
X222544500Y-86665247D01*
X222535471Y-86711698D01*
X222509698Y-86751384D01*
X222470936Y-86778526D01*
X222297269Y-86855848D01*
X222144129Y-86967110D01*
X222017466Y-87107783D01*
X221922820Y-87271715D01*
X221864326Y-87451742D01*
X221844540Y-87640000D01*
X221864326Y-87828257D01*
X221922820Y-88008284D01*
X222017466Y-88172216D01*
X222144129Y-88312889D01*
X222297269Y-88424151D01*
X222470197Y-88501144D01*
X222655352Y-88540500D01*
X222655354Y-88540500D01*
X222844646Y-88540500D01*
X222844648Y-88540500D01*
X222968083Y-88514262D01*
X223029803Y-88501144D01*
X223202730Y-88424151D01*
X223272216Y-88373667D01*
X223355870Y-88312889D01*
X223482533Y-88172216D01*
X223577178Y-88008286D01*
X223581451Y-87995135D01*
X223610458Y-87947032D01*
X223657712Y-87916663D01*
X223713518Y-87910259D01*
X223766423Y-87929136D01*
X223807814Y-87955737D01*
X224003554Y-88034099D01*
X224210580Y-88074000D01*
X224670000Y-88074000D01*
X224670000Y-86844000D01*
X224686613Y-86782000D01*
X224732000Y-86736613D01*
X224794000Y-86720000D01*
X225046000Y-86720000D01*
X225108000Y-86736613D01*
X225153387Y-86782000D01*
X225170000Y-86844000D01*
X225170000Y-88074000D01*
X225576589Y-88074000D01*
X225733886Y-88058980D01*
X225936180Y-87999580D01*
X225988680Y-87972515D01*
X226049926Y-87958810D01*
X226110038Y-87976850D01*
X226153617Y-88022013D01*
X226169500Y-88082731D01*
X226169500Y-127681668D01*
X226165002Y-127708134D01*
X226168721Y-127741141D01*
X226169500Y-127755022D01*
X226169500Y-127759389D01*
X226170473Y-127763653D01*
X226172800Y-127777356D01*
X226176517Y-127810354D01*
X226181176Y-127821600D01*
X226201888Y-127847573D01*
X226209928Y-127858903D01*
X226212252Y-127862601D01*
X226215336Y-127865685D01*
X226224601Y-127876052D01*
X226245312Y-127902022D01*
X226267213Y-127917562D01*
X231106381Y-132756731D01*
X231133261Y-132796959D01*
X231142700Y-132844412D01*
X231142700Y-138046741D01*
X231140771Y-138068529D01*
X231077299Y-138424135D01*
X231074945Y-138434656D01*
X230976741Y-138798544D01*
X230973482Y-138808820D01*
X230844045Y-139162797D01*
X230839906Y-139172751D01*
X230680211Y-139514151D01*
X230675223Y-139523708D01*
X230486480Y-139849943D01*
X230480681Y-139859031D01*
X230264316Y-140167639D01*
X230257750Y-140176189D01*
X230015386Y-140464852D01*
X230008101Y-140472799D01*
X229741599Y-140739301D01*
X229733652Y-140746586D01*
X229444989Y-140988950D01*
X229436439Y-140995516D01*
X229127831Y-141211881D01*
X229118743Y-141217680D01*
X228792508Y-141406423D01*
X228782951Y-141411411D01*
X228441551Y-141571106D01*
X228431597Y-141575245D01*
X228077620Y-141704682D01*
X228067344Y-141707941D01*
X227703456Y-141806145D01*
X227692935Y-141808499D01*
X227337329Y-141871971D01*
X227315541Y-141873900D01*
X147405254Y-141873900D01*
X147400683Y-141873025D01*
X147343154Y-141873878D01*
X147337326Y-141873828D01*
X146980930Y-141862350D01*
X146969309Y-141861427D01*
X146618481Y-141816901D01*
X146606997Y-141814891D01*
X146261902Y-141737616D01*
X146250659Y-141734537D01*
X146158830Y-141704682D01*
X145914341Y-141625194D01*
X145903440Y-141621074D01*
X145741157Y-141550851D01*
X145578882Y-141480632D01*
X145568413Y-141475505D01*
X145258472Y-141305202D01*
X145248530Y-141299114D01*
X144955953Y-141100457D01*
X144946628Y-141093463D01*
X144674004Y-140868214D01*
X144665375Y-140860374D01*
X144415102Y-140610509D01*
X144407249Y-140601894D01*
X144181553Y-140329638D01*
X144174543Y-140320323D01*
X143975410Y-140028071D01*
X143969306Y-140018139D01*
X143798503Y-139708488D01*
X143793358Y-139698027D01*
X143685075Y-139448904D01*
X143652378Y-139373678D01*
X143648247Y-139362800D01*
X143549838Y-139061789D01*
X143543700Y-139023258D01*
X143543700Y-138100000D01*
X144375497Y-138100000D01*
X144395821Y-138448927D01*
X144456512Y-138793130D01*
X144456514Y-138793136D01*
X144556757Y-139127971D01*
X144658048Y-139362790D01*
X144695195Y-139448906D01*
X144869952Y-139751595D01*
X144949935Y-139859031D01*
X145078671Y-140031953D01*
X145318525Y-140286183D01*
X145586272Y-140510849D01*
X145586276Y-140510852D01*
X145586279Y-140510854D01*
X145878289Y-140702913D01*
X146190628Y-140859776D01*
X146340355Y-140914271D01*
X146519072Y-140979319D01*
X146859169Y-141059923D01*
X147206324Y-141100500D01*
X147555837Y-141100500D01*
X147555842Y-141100500D01*
X147902997Y-141059923D01*
X148243094Y-140979319D01*
X148541351Y-140870762D01*
X148571537Y-140859776D01*
X148883876Y-140702913D01*
X149024369Y-140610509D01*
X149175894Y-140510849D01*
X149443641Y-140286183D01*
X149683495Y-140031953D01*
X149892213Y-139751596D01*
X150066972Y-139448904D01*
X150205409Y-139127971D01*
X150305652Y-138793136D01*
X150366345Y-138448927D01*
X150386668Y-138100000D01*
X224408814Y-138100000D01*
X224429138Y-138448927D01*
X224489829Y-138793130D01*
X224489831Y-138793136D01*
X224590074Y-139127971D01*
X224691365Y-139362790D01*
X224728512Y-139448906D01*
X224903269Y-139751595D01*
X224983252Y-139859031D01*
X225111988Y-140031953D01*
X225351842Y-140286183D01*
X225619589Y-140510849D01*
X225619593Y-140510852D01*
X225619596Y-140510854D01*
X225911606Y-140702913D01*
X226223945Y-140859776D01*
X226373672Y-140914271D01*
X226552389Y-140979319D01*
X226892486Y-141059923D01*
X227239641Y-141100500D01*
X227589154Y-141100500D01*
X227589159Y-141100500D01*
X227936314Y-141059923D01*
X228276411Y-140979319D01*
X228574668Y-140870762D01*
X228604854Y-140859776D01*
X228917193Y-140702913D01*
X229057686Y-140610509D01*
X229209211Y-140510849D01*
X229476958Y-140286183D01*
X229716812Y-140031953D01*
X229925530Y-139751596D01*
X230100289Y-139448904D01*
X230238726Y-139127971D01*
X230338969Y-138793136D01*
X230399662Y-138448927D01*
X230419985Y-138100000D01*
X230399662Y-137751073D01*
X230338969Y-137406864D01*
X230238726Y-137072029D01*
X230100289Y-136751096D01*
X229925530Y-136448404D01*
X229716812Y-136168047D01*
X229476958Y-135913817D01*
X229209211Y-135689151D01*
X229209207Y-135689148D01*
X229209203Y-135689145D01*
X228917193Y-135497086D01*
X228604854Y-135340223D01*
X228276414Y-135220682D01*
X228276413Y-135220681D01*
X228276411Y-135220681D01*
X228089557Y-135176396D01*
X227936315Y-135140077D01*
X227878454Y-135133314D01*
X227589159Y-135099500D01*
X227239641Y-135099500D01*
X226991673Y-135128483D01*
X226892484Y-135140077D01*
X226552385Y-135220682D01*
X226223945Y-135340223D01*
X225911606Y-135497086D01*
X225619596Y-135689145D01*
X225619588Y-135689151D01*
X225619589Y-135689151D01*
X225351842Y-135913817D01*
X225351838Y-135913820D01*
X225351837Y-135913822D01*
X225111989Y-136168045D01*
X224903269Y-136448404D01*
X224728512Y-136751093D01*
X224728511Y-136751096D01*
X224590074Y-137072029D01*
X224531727Y-137266920D01*
X224489829Y-137406869D01*
X224429138Y-137751072D01*
X224408814Y-138100000D01*
X150386668Y-138100000D01*
X150366345Y-137751073D01*
X150305652Y-137406864D01*
X150205409Y-137072029D01*
X150066972Y-136751096D01*
X149892213Y-136448404D01*
X149683495Y-136168047D01*
X149443641Y-135913817D01*
X149175894Y-135689151D01*
X149175890Y-135689148D01*
X149175886Y-135689145D01*
X148883876Y-135497086D01*
X148571537Y-135340223D01*
X148243097Y-135220682D01*
X148243096Y-135220681D01*
X148243094Y-135220681D01*
X148056240Y-135176396D01*
X147902998Y-135140077D01*
X147845137Y-135133314D01*
X147555842Y-135099500D01*
X147206324Y-135099500D01*
X146958356Y-135128483D01*
X146859167Y-135140077D01*
X146519068Y-135220682D01*
X146190628Y-135340223D01*
X145878289Y-135497086D01*
X145586279Y-135689145D01*
X145586271Y-135689151D01*
X145586272Y-135689151D01*
X145318525Y-135913817D01*
X145318521Y-135913820D01*
X145318520Y-135913822D01*
X145078672Y-136168045D01*
X144869952Y-136448404D01*
X144695195Y-136751093D01*
X144695194Y-136751096D01*
X144556757Y-137072029D01*
X144498410Y-137266920D01*
X144456512Y-137406869D01*
X144395821Y-137751072D01*
X144375497Y-138100000D01*
X143543700Y-138100000D01*
X143543700Y-132844411D01*
X143553139Y-132796958D01*
X143580019Y-132756730D01*
X144246749Y-132090000D01*
X163514877Y-132090000D01*
X163533308Y-132253580D01*
X163587677Y-132408957D01*
X163675257Y-132548341D01*
X163791658Y-132664742D01*
X163931042Y-132752322D01*
X164086419Y-132806691D01*
X164250000Y-132825122D01*
X164413580Y-132806691D01*
X164568957Y-132752322D01*
X164708341Y-132664742D01*
X164824742Y-132548341D01*
X164867684Y-132479999D01*
X172624877Y-132479999D01*
X172643308Y-132643580D01*
X172697677Y-132798957D01*
X172785257Y-132938341D01*
X172901658Y-133054742D01*
X173041042Y-133142322D01*
X173196419Y-133196691D01*
X173360000Y-133215122D01*
X173523580Y-133196691D01*
X173678957Y-133142322D01*
X173818341Y-133054742D01*
X173934742Y-132938341D01*
X174022322Y-132798957D01*
X174076691Y-132643580D01*
X174095122Y-132480000D01*
X174087117Y-132408957D01*
X174076691Y-132316419D01*
X174022322Y-132161042D01*
X173934742Y-132021658D01*
X173818341Y-131905257D01*
X173678957Y-131817677D01*
X173523580Y-131763308D01*
X173360000Y-131744877D01*
X173196419Y-131763308D01*
X173041042Y-131817677D01*
X172901658Y-131905257D01*
X172785257Y-132021658D01*
X172697677Y-132161042D01*
X172643308Y-132316419D01*
X172624877Y-132479999D01*
X164867684Y-132479999D01*
X164912322Y-132408957D01*
X164966691Y-132253580D01*
X164985122Y-132090000D01*
X164966691Y-131926420D01*
X164957811Y-131901043D01*
X164912322Y-131771042D01*
X164824742Y-131631658D01*
X164708341Y-131515257D01*
X164568957Y-131427677D01*
X164413580Y-131373308D01*
X164295468Y-131360000D01*
X168644877Y-131360000D01*
X168663308Y-131523580D01*
X168717677Y-131678957D01*
X168805257Y-131818341D01*
X168921658Y-131934742D01*
X169061042Y-132022322D01*
X169216419Y-132076691D01*
X169380000Y-132095122D01*
X169543580Y-132076691D01*
X169698957Y-132022322D01*
X169838341Y-131934742D01*
X169954742Y-131818341D01*
X170042322Y-131678957D01*
X170096691Y-131523580D01*
X170115122Y-131360000D01*
X170100475Y-131230000D01*
X170096691Y-131196419D01*
X170042322Y-131041042D01*
X169954742Y-130901658D01*
X169838341Y-130785257D01*
X169698957Y-130697677D01*
X169543580Y-130643308D01*
X169380000Y-130624877D01*
X169216419Y-130643308D01*
X169061042Y-130697677D01*
X168921658Y-130785257D01*
X168805257Y-130901658D01*
X168717677Y-131041042D01*
X168663308Y-131196419D01*
X168644877Y-131360000D01*
X164295468Y-131360000D01*
X164250000Y-131354877D01*
X164086419Y-131373308D01*
X163931042Y-131427677D01*
X163791658Y-131515257D01*
X163675257Y-131631658D01*
X163587677Y-131771042D01*
X163533308Y-131926419D01*
X163514877Y-132090000D01*
X144246749Y-132090000D01*
X144787792Y-131548957D01*
X147016749Y-129319999D01*
X164784877Y-129319999D01*
X164803308Y-129483580D01*
X164857677Y-129638957D01*
X164945257Y-129778341D01*
X165061658Y-129894742D01*
X165201042Y-129982322D01*
X165356419Y-130036691D01*
X165520000Y-130055122D01*
X165683580Y-130036691D01*
X165838957Y-129982322D01*
X165938144Y-129919999D01*
X194004540Y-129919999D01*
X194024326Y-130108257D01*
X194082820Y-130288284D01*
X194177466Y-130452216D01*
X194304129Y-130592889D01*
X194457269Y-130704151D01*
X194630197Y-130781144D01*
X194815352Y-130820500D01*
X194815354Y-130820500D01*
X195004646Y-130820500D01*
X195004648Y-130820500D01*
X195165108Y-130786393D01*
X195189803Y-130781144D01*
X195362730Y-130704151D01*
X195468196Y-130627526D01*
X195515870Y-130592889D01*
X195550005Y-130554979D01*
X195642533Y-130452216D01*
X195737179Y-130288284D01*
X195795674Y-130108256D01*
X195815460Y-129920000D01*
X195795674Y-129731744D01*
X195737179Y-129551716D01*
X195737179Y-129551715D01*
X195642533Y-129387783D01*
X195515870Y-129247110D01*
X195362730Y-129135848D01*
X195189802Y-129058855D01*
X195004648Y-129019500D01*
X195004646Y-129019500D01*
X194815354Y-129019500D01*
X194815352Y-129019500D01*
X194630197Y-129058855D01*
X194457269Y-129135848D01*
X194304129Y-129247110D01*
X194177466Y-129387783D01*
X194082820Y-129551715D01*
X194024326Y-129731742D01*
X194004540Y-129919999D01*
X165938144Y-129919999D01*
X165978341Y-129894742D01*
X166094742Y-129778341D01*
X166182322Y-129638957D01*
X166236691Y-129483580D01*
X166255122Y-129320000D01*
X166236691Y-129156420D01*
X166202551Y-129058855D01*
X166182322Y-129001042D01*
X166094742Y-128861658D01*
X165978341Y-128745257D01*
X165838957Y-128657677D01*
X165683580Y-128603308D01*
X165520000Y-128584877D01*
X165356419Y-128603308D01*
X165201042Y-128657677D01*
X165061658Y-128745257D01*
X164945257Y-128861658D01*
X164857677Y-129001042D01*
X164803308Y-129156419D01*
X164784877Y-129319999D01*
X147016749Y-129319999D01*
X148422787Y-127913960D01*
X148444686Y-127898423D01*
X148448222Y-127893988D01*
X148448224Y-127893988D01*
X148465397Y-127872452D01*
X148474662Y-127862085D01*
X148477748Y-127859001D01*
X148480069Y-127855306D01*
X148488115Y-127843966D01*
X148505290Y-127822431D01*
X148505290Y-127822428D01*
X148508830Y-127817990D01*
X148513479Y-127806766D01*
X148514114Y-127801126D01*
X148514116Y-127801124D01*
X148517198Y-127773753D01*
X148519527Y-127760049D01*
X148520500Y-127755790D01*
X148520500Y-127751422D01*
X148521279Y-127737541D01*
X148524997Y-127704534D01*
X148520500Y-127678068D01*
X148520500Y-126759999D01*
X169404356Y-126759999D01*
X169424891Y-127007816D01*
X169424891Y-127007819D01*
X169424892Y-127007821D01*
X169485937Y-127248881D01*
X169530960Y-127351523D01*
X169585825Y-127476604D01*
X169585827Y-127476607D01*
X169721836Y-127684785D01*
X169890256Y-127867738D01*
X169896324Y-127872461D01*
X170086485Y-128020470D01*
X170086487Y-128020471D01*
X170086491Y-128020474D01*
X170305190Y-128138828D01*
X170540386Y-128219571D01*
X170785665Y-128260500D01*
X171034335Y-128260500D01*
X171279614Y-128219571D01*
X171514810Y-128138828D01*
X171733509Y-128020474D01*
X171929744Y-127867738D01*
X172098164Y-127684785D01*
X172234173Y-127476607D01*
X172334063Y-127248881D01*
X172395108Y-127007821D01*
X172415643Y-126760000D01*
X172395108Y-126512179D01*
X172334063Y-126271119D01*
X172234173Y-126043393D01*
X172098164Y-125835215D01*
X171929744Y-125652262D01*
X171907612Y-125635036D01*
X171733514Y-125499529D01*
X171733510Y-125499526D01*
X171733509Y-125499526D01*
X171514810Y-125381172D01*
X171514806Y-125381170D01*
X171514805Y-125381170D01*
X171279615Y-125300429D01*
X171034335Y-125259500D01*
X170785665Y-125259500D01*
X170540384Y-125300429D01*
X170305194Y-125381170D01*
X170086485Y-125499529D01*
X169890259Y-125652259D01*
X169721837Y-125835214D01*
X169585825Y-126043395D01*
X169485938Y-126271117D01*
X169424891Y-126512183D01*
X169404356Y-126759999D01*
X148520500Y-126759999D01*
X148520500Y-123970000D01*
X162724877Y-123970000D01*
X162743308Y-124133580D01*
X162797677Y-124288957D01*
X162885257Y-124428341D01*
X163001658Y-124544742D01*
X163141042Y-124632322D01*
X163296419Y-124686691D01*
X163460000Y-124705122D01*
X163623580Y-124686691D01*
X163778957Y-124632322D01*
X163918341Y-124544742D01*
X164034742Y-124428341D01*
X164122322Y-124288957D01*
X164176691Y-124133580D01*
X164195122Y-123970000D01*
X164176691Y-123806420D01*
X164122322Y-123651043D01*
X164122322Y-123651042D01*
X164034742Y-123511658D01*
X163918341Y-123395257D01*
X163778957Y-123307677D01*
X163623580Y-123253308D01*
X163460000Y-123234877D01*
X163296419Y-123253308D01*
X163141042Y-123307677D01*
X163001658Y-123395257D01*
X162885257Y-123511658D01*
X162797677Y-123651042D01*
X162743308Y-123806419D01*
X162724877Y-123970000D01*
X148520500Y-123970000D01*
X148520500Y-121000000D01*
X167954877Y-121000000D01*
X167973308Y-121163580D01*
X168027677Y-121318957D01*
X168115257Y-121458341D01*
X168231658Y-121574742D01*
X168371042Y-121662322D01*
X168526419Y-121716691D01*
X168690000Y-121735122D01*
X168853580Y-121716691D01*
X169008957Y-121662322D01*
X169148341Y-121574742D01*
X169264742Y-121458341D01*
X169352322Y-121318957D01*
X169406691Y-121163580D01*
X169425122Y-121000000D01*
X169406691Y-120836420D01*
X169352322Y-120681043D01*
X169352322Y-120681042D01*
X169264742Y-120541658D01*
X169148341Y-120425257D01*
X169008957Y-120337677D01*
X168853580Y-120283308D01*
X168690000Y-120264877D01*
X168526419Y-120283308D01*
X168371042Y-120337677D01*
X168231658Y-120425257D01*
X168115257Y-120541658D01*
X168027677Y-120681042D01*
X167973308Y-120836419D01*
X167954877Y-121000000D01*
X148520500Y-121000000D01*
X148520500Y-118319999D01*
X153374356Y-118319999D01*
X153394891Y-118567816D01*
X153394891Y-118567819D01*
X153394892Y-118567821D01*
X153455937Y-118808881D01*
X153473483Y-118848881D01*
X153555825Y-119036604D01*
X153555827Y-119036607D01*
X153691836Y-119244785D01*
X153860256Y-119427738D01*
X153911648Y-119467738D01*
X154056485Y-119580470D01*
X154056487Y-119580471D01*
X154056491Y-119580474D01*
X154275190Y-119698828D01*
X154510386Y-119779571D01*
X154755665Y-119820500D01*
X155004335Y-119820500D01*
X155249614Y-119779571D01*
X155364883Y-119739999D01*
X159784877Y-119739999D01*
X159803308Y-119903580D01*
X159857677Y-120058957D01*
X159945257Y-120198341D01*
X160061658Y-120314742D01*
X160201042Y-120402322D01*
X160356419Y-120456691D01*
X160519999Y-120475122D01*
X160519999Y-120475121D01*
X160520000Y-120475122D01*
X160683580Y-120456691D01*
X160838957Y-120402322D01*
X160978341Y-120314742D01*
X161094742Y-120198341D01*
X161182322Y-120058957D01*
X161236691Y-119903580D01*
X161255122Y-119740000D01*
X161246620Y-119664546D01*
X161236691Y-119576419D01*
X161182322Y-119421042D01*
X161094742Y-119281658D01*
X160978341Y-119165257D01*
X160838957Y-119077677D01*
X160683580Y-119023308D01*
X160519999Y-119004877D01*
X160356419Y-119023308D01*
X160201042Y-119077677D01*
X160061658Y-119165257D01*
X159945257Y-119281658D01*
X159857677Y-119421042D01*
X159803308Y-119576419D01*
X159784877Y-119739999D01*
X155364883Y-119739999D01*
X155484810Y-119698828D01*
X155703509Y-119580474D01*
X155899744Y-119427738D01*
X156068164Y-119244785D01*
X156204173Y-119036607D01*
X156304063Y-118808881D01*
X156365108Y-118567821D01*
X156382329Y-118359999D01*
X178274356Y-118359999D01*
X178294891Y-118607816D01*
X178294891Y-118607819D01*
X178294892Y-118607821D01*
X178355937Y-118848881D01*
X178400960Y-118951523D01*
X178455825Y-119076604D01*
X178455827Y-119076607D01*
X178591836Y-119284785D01*
X178760256Y-119467738D01*
X178760259Y-119467740D01*
X178956485Y-119620470D01*
X178956487Y-119620471D01*
X178956491Y-119620474D01*
X179175190Y-119738828D01*
X179410386Y-119819571D01*
X179655665Y-119860500D01*
X179904335Y-119860500D01*
X180149614Y-119819571D01*
X180384810Y-119738828D01*
X180603509Y-119620474D01*
X180799744Y-119467738D01*
X180968164Y-119284785D01*
X181104173Y-119076607D01*
X181204063Y-118848881D01*
X181265108Y-118607821D01*
X181285643Y-118360000D01*
X181265108Y-118112179D01*
X181204063Y-117871119D01*
X181104173Y-117643393D01*
X180968164Y-117435215D01*
X180799744Y-117252262D01*
X180721955Y-117191716D01*
X180603514Y-117099529D01*
X180603510Y-117099526D01*
X180603509Y-117099526D01*
X180384810Y-116981172D01*
X180384806Y-116981170D01*
X180384805Y-116981170D01*
X180149615Y-116900429D01*
X179904335Y-116859500D01*
X179655665Y-116859500D01*
X179410384Y-116900429D01*
X179175194Y-116981170D01*
X178956485Y-117099529D01*
X178760259Y-117252259D01*
X178760256Y-117252261D01*
X178760256Y-117252262D01*
X178591836Y-117435215D01*
X178546499Y-117504607D01*
X178455825Y-117643395D01*
X178373483Y-117831119D01*
X178355937Y-117871119D01*
X178299947Y-118092216D01*
X178294891Y-118112183D01*
X178274356Y-118359999D01*
X156382329Y-118359999D01*
X156385643Y-118320000D01*
X156365108Y-118072179D01*
X156304063Y-117831119D01*
X156204173Y-117603393D01*
X156068164Y-117395215D01*
X155899744Y-117212262D01*
X155864380Y-117184737D01*
X155703514Y-117059529D01*
X155703510Y-117059526D01*
X155703509Y-117059526D01*
X155484810Y-116941172D01*
X155484806Y-116941170D01*
X155484805Y-116941170D01*
X155249615Y-116860429D01*
X155004335Y-116819500D01*
X154755665Y-116819500D01*
X154510384Y-116860429D01*
X154275194Y-116941170D01*
X154275190Y-116941171D01*
X154275190Y-116941172D01*
X154187710Y-116988513D01*
X154056485Y-117059529D01*
X153860259Y-117212259D01*
X153860256Y-117212261D01*
X153860256Y-117212262D01*
X153691836Y-117395215D01*
X153665703Y-117435215D01*
X153555825Y-117603395D01*
X153465780Y-117808678D01*
X153455937Y-117831119D01*
X153407664Y-118021744D01*
X153394891Y-118072183D01*
X153374356Y-118319999D01*
X148520500Y-118319999D01*
X148520500Y-115040000D01*
X161244877Y-115040000D01*
X161263308Y-115203580D01*
X161317677Y-115358957D01*
X161405257Y-115498341D01*
X161521658Y-115614742D01*
X161661042Y-115702322D01*
X161816419Y-115756691D01*
X161980000Y-115775122D01*
X162143580Y-115756691D01*
X162298957Y-115702322D01*
X162438341Y-115614742D01*
X162554742Y-115498341D01*
X162642322Y-115358957D01*
X162696691Y-115203580D01*
X162715122Y-115040000D01*
X162696691Y-114876420D01*
X162642557Y-114721716D01*
X162642322Y-114721042D01*
X162554742Y-114581658D01*
X162438341Y-114465257D01*
X162298957Y-114377677D01*
X162143580Y-114323308D01*
X161979999Y-114304877D01*
X161816419Y-114323308D01*
X161661042Y-114377677D01*
X161521658Y-114465257D01*
X161405257Y-114581658D01*
X161317677Y-114721042D01*
X161263308Y-114876419D01*
X161244877Y-115040000D01*
X148520500Y-115040000D01*
X148520500Y-112449999D01*
X165564877Y-112449999D01*
X165583308Y-112613580D01*
X165637677Y-112768957D01*
X165725257Y-112908341D01*
X165841658Y-113024742D01*
X165906140Y-113065258D01*
X165981043Y-113112322D01*
X166017353Y-113125027D01*
X166064080Y-113154387D01*
X166093440Y-113201114D01*
X166127677Y-113298957D01*
X166215257Y-113438341D01*
X166331658Y-113554742D01*
X166397859Y-113596338D01*
X166471043Y-113642322D01*
X166578743Y-113680008D01*
X166634734Y-113719735D01*
X166661008Y-113783163D01*
X166663308Y-113803580D01*
X166717677Y-113958957D01*
X166805257Y-114098341D01*
X166921658Y-114214742D01*
X167061042Y-114302322D01*
X167216419Y-114356691D01*
X167380000Y-114375122D01*
X167543580Y-114356691D01*
X167698957Y-114302322D01*
X167782228Y-114250000D01*
X174154877Y-114250000D01*
X174173308Y-114413580D01*
X174227677Y-114568957D01*
X174315257Y-114708341D01*
X174431658Y-114824742D01*
X174571042Y-114912322D01*
X174726419Y-114966691D01*
X174890000Y-114985122D01*
X175053580Y-114966691D01*
X175208957Y-114912322D01*
X175348341Y-114824742D01*
X175464742Y-114708341D01*
X175552322Y-114568957D01*
X175606691Y-114413580D01*
X175625122Y-114250000D01*
X175619956Y-114204151D01*
X175606691Y-114086419D01*
X175552322Y-113931042D01*
X175464742Y-113791658D01*
X175348341Y-113675257D01*
X175208957Y-113587677D01*
X175053580Y-113533308D01*
X174890000Y-113514877D01*
X174726419Y-113533308D01*
X174571042Y-113587677D01*
X174431658Y-113675257D01*
X174315257Y-113791658D01*
X174227677Y-113931042D01*
X174173308Y-114086419D01*
X174154877Y-114250000D01*
X167782228Y-114250000D01*
X167838341Y-114214742D01*
X167954742Y-114098341D01*
X168042322Y-113958957D01*
X168096691Y-113803580D01*
X168115122Y-113640000D01*
X168114959Y-113638557D01*
X168096691Y-113476419D01*
X168042322Y-113321042D01*
X167954742Y-113181658D01*
X167838341Y-113065257D01*
X167698957Y-112977677D01*
X167591255Y-112939991D01*
X167535261Y-112900261D01*
X167508990Y-112836833D01*
X167506691Y-112816420D01*
X167457359Y-112675437D01*
X167452322Y-112661042D01*
X167364742Y-112521658D01*
X167248341Y-112405257D01*
X167108958Y-112317678D01*
X167072644Y-112304971D01*
X167025918Y-112275611D01*
X166996559Y-112228885D01*
X166962322Y-112131042D01*
X166874742Y-111991658D01*
X166758341Y-111875257D01*
X166618957Y-111787677D01*
X166463580Y-111733308D01*
X166300000Y-111714877D01*
X166136419Y-111733308D01*
X165981042Y-111787677D01*
X165841658Y-111875257D01*
X165725257Y-111991658D01*
X165637677Y-112131042D01*
X165583308Y-112286419D01*
X165564877Y-112449999D01*
X148520500Y-112449999D01*
X148520500Y-111099999D01*
X168394877Y-111099999D01*
X168413308Y-111263580D01*
X168467677Y-111418957D01*
X168502856Y-111474944D01*
X168521862Y-111540915D01*
X168502856Y-111606886D01*
X168487677Y-111631042D01*
X168433308Y-111786419D01*
X168414877Y-111950000D01*
X168433308Y-112113580D01*
X168487677Y-112268957D01*
X168575257Y-112408341D01*
X168691658Y-112524742D01*
X168831042Y-112612322D01*
X168921604Y-112644010D01*
X168986420Y-112666691D01*
X168991205Y-112667230D01*
X169054634Y-112693500D01*
X169094365Y-112749492D01*
X169097676Y-112758955D01*
X169185257Y-112898341D01*
X169301658Y-113014742D01*
X169441042Y-113102322D01*
X169596419Y-113156691D01*
X169760000Y-113175122D01*
X169923580Y-113156691D01*
X170078957Y-113102322D01*
X170137945Y-113065258D01*
X170205190Y-113023006D01*
X170271161Y-113004000D01*
X184736472Y-113004000D01*
X184796453Y-113019472D01*
X184841466Y-113062029D01*
X184930257Y-113203341D01*
X185046658Y-113319742D01*
X185186042Y-113407322D01*
X185341420Y-113461691D01*
X185391451Y-113467328D01*
X185431370Y-113478828D01*
X185465250Y-113502867D01*
X202429681Y-130467298D01*
X202456561Y-130507526D01*
X202466000Y-130554979D01*
X202466000Y-130689554D01*
X202456561Y-130737007D01*
X202441719Y-130759217D01*
X202442691Y-130759828D01*
X202347677Y-130911042D01*
X202293308Y-131066419D01*
X202274877Y-131229999D01*
X202293308Y-131393580D01*
X202347677Y-131548957D01*
X202435257Y-131688341D01*
X202551658Y-131804742D01*
X202691042Y-131892322D01*
X202846419Y-131946691D01*
X203010000Y-131965122D01*
X203173580Y-131946691D01*
X203328957Y-131892322D01*
X203468341Y-131804742D01*
X203584742Y-131688341D01*
X203672322Y-131548957D01*
X203726691Y-131393580D01*
X203745122Y-131230000D01*
X203741338Y-131196420D01*
X203726691Y-131066419D01*
X203672322Y-130911042D01*
X203613006Y-130816640D01*
X203594000Y-130750669D01*
X203594000Y-130315101D01*
X203595061Y-130298915D01*
X203598868Y-130270000D01*
X203579483Y-130122766D01*
X203522654Y-129985567D01*
X203454949Y-129897332D01*
X203454948Y-129897331D01*
X203432250Y-129867750D01*
X203409114Y-129849997D01*
X203396919Y-129839302D01*
X186279798Y-112722181D01*
X186249548Y-112672818D01*
X186245006Y-112615102D01*
X186267161Y-112561615D01*
X186311184Y-112524015D01*
X186367479Y-112510500D01*
X186621521Y-112510500D01*
X186668974Y-112519939D01*
X186709202Y-112546819D01*
X204749681Y-130587298D01*
X204776561Y-130627526D01*
X204786000Y-130674979D01*
X204786000Y-130922924D01*
X204766994Y-130988895D01*
X204677677Y-131131042D01*
X204623308Y-131286419D01*
X204604877Y-131450000D01*
X204623308Y-131613580D01*
X204677677Y-131768957D01*
X204765257Y-131908341D01*
X204881658Y-132024742D01*
X205021042Y-132112322D01*
X205176419Y-132166691D01*
X205339999Y-132185122D01*
X205339999Y-132185121D01*
X205340000Y-132185122D01*
X205471119Y-132170348D01*
X205534588Y-132179914D01*
X205584772Y-132219934D01*
X205608222Y-132279684D01*
X205623308Y-132413580D01*
X205677677Y-132568957D01*
X205765257Y-132708341D01*
X205881658Y-132824742D01*
X206021042Y-132912322D01*
X206176419Y-132966691D01*
X206340000Y-132985122D01*
X206503580Y-132966691D01*
X206658957Y-132912322D01*
X206798341Y-132824742D01*
X206914742Y-132708341D01*
X207002322Y-132568957D01*
X207056691Y-132413580D01*
X207075122Y-132250000D01*
X207061192Y-132126370D01*
X207056691Y-132086419D01*
X207019475Y-131980063D01*
X207015625Y-131911516D01*
X207048835Y-131851427D01*
X207108924Y-131818217D01*
X207177470Y-131822066D01*
X207276420Y-131856691D01*
X207440000Y-131875122D01*
X207603580Y-131856691D01*
X207656381Y-131838214D01*
X207724926Y-131834365D01*
X207785015Y-131867574D01*
X207818226Y-131927662D01*
X207814377Y-131996210D01*
X207793308Y-132056421D01*
X207774877Y-132220000D01*
X207793308Y-132383580D01*
X207847677Y-132538957D01*
X207935257Y-132678341D01*
X208051658Y-132794742D01*
X208191042Y-132882322D01*
X208346419Y-132936691D01*
X208510000Y-132955122D01*
X208673580Y-132936691D01*
X208828957Y-132882322D01*
X208968341Y-132794742D01*
X209084742Y-132678341D01*
X209172322Y-132538957D01*
X209226691Y-132383580D01*
X209245122Y-132220000D01*
X209238479Y-132161042D01*
X209226691Y-132056419D01*
X209172322Y-131901042D01*
X209084742Y-131761658D01*
X208968341Y-131645257D01*
X208828957Y-131557677D01*
X208673580Y-131503308D01*
X208510000Y-131484877D01*
X208346422Y-131503308D01*
X208293618Y-131521785D01*
X208225071Y-131525634D01*
X208164982Y-131492424D01*
X208131773Y-131432335D01*
X208135623Y-131363788D01*
X208156691Y-131303580D01*
X208175122Y-131140000D01*
X208158408Y-130991659D01*
X208156691Y-130976419D01*
X208102322Y-130821042D01*
X208014742Y-130681658D01*
X207967066Y-130633982D01*
X207940186Y-130593754D01*
X207937512Y-130587298D01*
X207932653Y-130575567D01*
X207916838Y-130554956D01*
X207916838Y-130554955D01*
X207842250Y-130457749D01*
X207819114Y-130439997D01*
X207806919Y-130429302D01*
X199697970Y-122320353D01*
X218434893Y-122320353D01*
X218454679Y-122508610D01*
X218513173Y-122688637D01*
X218607819Y-122852569D01*
X218734482Y-122993242D01*
X218887622Y-123104504D01*
X219060550Y-123181497D01*
X219245705Y-123220853D01*
X219245707Y-123220853D01*
X219434999Y-123220853D01*
X219435001Y-123220853D01*
X219558437Y-123194615D01*
X219620156Y-123181497D01*
X219793083Y-123104504D01*
X219946224Y-122993241D01*
X220072886Y-122852569D01*
X220167532Y-122688637D01*
X220226027Y-122508609D01*
X220245813Y-122320353D01*
X220226027Y-122132097D01*
X220167532Y-121952069D01*
X220167532Y-121952068D01*
X220072886Y-121788136D01*
X219946223Y-121647463D01*
X219793083Y-121536201D01*
X219620155Y-121459208D01*
X219435001Y-121419853D01*
X219434999Y-121419853D01*
X219245707Y-121419853D01*
X219245705Y-121419853D01*
X219060550Y-121459208D01*
X218887622Y-121536201D01*
X218734482Y-121647463D01*
X218607819Y-121788136D01*
X218513173Y-121952068D01*
X218454679Y-122132095D01*
X218434893Y-122320353D01*
X199697970Y-122320353D01*
X198107617Y-120730000D01*
X214454540Y-120730000D01*
X214474326Y-120918257D01*
X214532820Y-121098284D01*
X214627466Y-121262216D01*
X214754129Y-121402889D01*
X214907269Y-121514151D01*
X215080197Y-121591144D01*
X215265352Y-121630500D01*
X215265354Y-121630500D01*
X215454646Y-121630500D01*
X215454648Y-121630500D01*
X215578083Y-121604262D01*
X215639803Y-121591144D01*
X215812730Y-121514151D01*
X215812730Y-121514150D01*
X215965870Y-121402889D01*
X216092533Y-121262216D01*
X216187179Y-121098284D01*
X216187179Y-121098283D01*
X216245674Y-120918256D01*
X216265460Y-120730000D01*
X216245674Y-120541744D01*
X216200373Y-120402322D01*
X216187179Y-120361715D01*
X216146538Y-120291323D01*
X216129974Y-120232801D01*
X216143231Y-120173441D01*
X216183119Y-120127527D01*
X216240040Y-120106103D01*
X216323580Y-120096691D01*
X216478957Y-120042322D01*
X216618341Y-119954742D01*
X216734742Y-119838341D01*
X216822322Y-119698957D01*
X216860448Y-119590000D01*
X218474540Y-119590000D01*
X218494326Y-119778257D01*
X218552820Y-119958284D01*
X218647466Y-120122216D01*
X218774129Y-120262889D01*
X218927269Y-120374151D01*
X219100197Y-120451144D01*
X219285352Y-120490500D01*
X219285354Y-120490500D01*
X219474646Y-120490500D01*
X219474648Y-120490500D01*
X219633706Y-120456691D01*
X219659803Y-120451144D01*
X219832730Y-120374151D01*
X219914500Y-120314742D01*
X219985870Y-120262889D01*
X220012962Y-120232801D01*
X220112533Y-120122216D01*
X220207179Y-119958284D01*
X220265674Y-119778256D01*
X220285460Y-119590000D01*
X220265674Y-119401744D01*
X220233154Y-119301658D01*
X220207179Y-119221715D01*
X220112533Y-119057783D01*
X219985870Y-118917110D01*
X219832730Y-118805848D01*
X219659802Y-118728855D01*
X219474648Y-118689500D01*
X219474646Y-118689500D01*
X219285354Y-118689500D01*
X219285352Y-118689500D01*
X219100197Y-118728855D01*
X218927269Y-118805848D01*
X218774129Y-118917110D01*
X218647466Y-119057783D01*
X218552820Y-119221715D01*
X218494326Y-119401742D01*
X218474540Y-119590000D01*
X216860448Y-119590000D01*
X216876691Y-119543580D01*
X216895122Y-119380000D01*
X216876691Y-119216420D01*
X216858788Y-119165257D01*
X216822322Y-119061042D01*
X216734742Y-118921658D01*
X216618341Y-118805257D01*
X216478957Y-118717677D01*
X216323580Y-118663308D01*
X216160000Y-118644877D01*
X215996419Y-118663308D01*
X215841042Y-118717677D01*
X215701658Y-118805257D01*
X215585257Y-118921658D01*
X215497677Y-119061042D01*
X215443308Y-119216419D01*
X215424877Y-119380000D01*
X215443308Y-119543577D01*
X215485637Y-119664546D01*
X215491377Y-119722834D01*
X215469725Y-119777255D01*
X215425509Y-119815667D01*
X215368595Y-119829500D01*
X215265352Y-119829500D01*
X215080197Y-119868855D01*
X214907269Y-119945848D01*
X214754129Y-120057110D01*
X214627466Y-120197783D01*
X214532820Y-120361715D01*
X214474326Y-120541742D01*
X214454540Y-120730000D01*
X198107617Y-120730000D01*
X197137617Y-119760000D01*
X205314877Y-119760000D01*
X205333308Y-119923580D01*
X205387677Y-120078957D01*
X205475257Y-120218341D01*
X205591658Y-120334742D01*
X205731042Y-120422322D01*
X205886419Y-120476691D01*
X206049999Y-120495122D01*
X206049999Y-120495121D01*
X206050000Y-120495122D01*
X206213580Y-120476691D01*
X206368957Y-120422322D01*
X206508341Y-120334742D01*
X206624742Y-120218341D01*
X206712322Y-120078957D01*
X206766691Y-119923580D01*
X206785122Y-119760000D01*
X206782737Y-119738829D01*
X206766691Y-119596419D01*
X206712322Y-119441042D01*
X206624742Y-119301658D01*
X206508341Y-119185257D01*
X206368957Y-119097677D01*
X206213580Y-119043308D01*
X206050000Y-119024877D01*
X205886419Y-119043308D01*
X205731042Y-119097677D01*
X205591658Y-119185257D01*
X205475257Y-119301658D01*
X205387677Y-119441042D01*
X205333308Y-119596419D01*
X205314877Y-119760000D01*
X197137617Y-119760000D01*
X195587616Y-118209999D01*
X201374540Y-118209999D01*
X201394326Y-118398257D01*
X201452820Y-118578284D01*
X201547466Y-118742216D01*
X201674129Y-118882889D01*
X201827269Y-118994151D01*
X202000197Y-119071144D01*
X202185352Y-119110500D01*
X202185354Y-119110500D01*
X202374646Y-119110500D01*
X202374648Y-119110500D01*
X202498083Y-119084262D01*
X202559803Y-119071144D01*
X202732730Y-118994151D01*
X202832507Y-118921659D01*
X202885870Y-118882889D01*
X203012533Y-118742216D01*
X203107179Y-118578284D01*
X203110580Y-118567816D01*
X203165674Y-118398256D01*
X203185460Y-118210000D01*
X203165674Y-118021744D01*
X203107179Y-117841716D01*
X203107179Y-117841715D01*
X203012533Y-117677783D01*
X202906479Y-117559999D01*
X208604540Y-117559999D01*
X208624326Y-117748257D01*
X208682820Y-117928284D01*
X208777466Y-118092216D01*
X208904129Y-118232889D01*
X209057269Y-118344151D01*
X209230197Y-118421144D01*
X209415352Y-118460500D01*
X209415354Y-118460500D01*
X209604646Y-118460500D01*
X209604648Y-118460500D01*
X209728084Y-118434262D01*
X209789803Y-118421144D01*
X209962730Y-118344151D01*
X210115871Y-118232888D01*
X210242533Y-118092216D01*
X210337179Y-117928284D01*
X210395674Y-117748256D01*
X210415460Y-117560000D01*
X210395674Y-117371744D01*
X210337179Y-117191716D01*
X210337179Y-117191715D01*
X210242533Y-117027783D01*
X210115870Y-116887110D01*
X209962730Y-116775848D01*
X209851660Y-116726396D01*
X214771273Y-116726396D01*
X214789704Y-116889976D01*
X214844073Y-117045353D01*
X214931653Y-117184737D01*
X215048054Y-117301138D01*
X215187438Y-117388718D01*
X215342815Y-117443087D01*
X215506396Y-117461518D01*
X215669976Y-117443087D01*
X215825353Y-117388718D01*
X215964737Y-117301138D01*
X216081138Y-117184737D01*
X216168718Y-117045353D01*
X216223087Y-116889976D01*
X216241518Y-116726396D01*
X216223087Y-116562816D01*
X216168718Y-116407439D01*
X216168718Y-116407438D01*
X216081138Y-116268054D01*
X215964737Y-116151653D01*
X215825353Y-116064073D01*
X215669976Y-116009704D01*
X215506396Y-115991273D01*
X215342815Y-116009704D01*
X215187438Y-116064073D01*
X215048054Y-116151653D01*
X214931653Y-116268054D01*
X214844073Y-116407438D01*
X214789704Y-116562815D01*
X214771273Y-116726396D01*
X209851660Y-116726396D01*
X209789802Y-116698855D01*
X209604648Y-116659500D01*
X209604646Y-116659500D01*
X209415354Y-116659500D01*
X209415352Y-116659500D01*
X209230197Y-116698855D01*
X209057269Y-116775848D01*
X208904129Y-116887110D01*
X208777466Y-117027783D01*
X208682820Y-117191715D01*
X208624326Y-117371742D01*
X208604540Y-117559999D01*
X202906479Y-117559999D01*
X202885870Y-117537110D01*
X202732730Y-117425848D01*
X202559802Y-117348855D01*
X202374648Y-117309500D01*
X202374646Y-117309500D01*
X202185354Y-117309500D01*
X202185352Y-117309500D01*
X202000197Y-117348855D01*
X201827269Y-117425848D01*
X201674129Y-117537110D01*
X201547466Y-117677783D01*
X201452820Y-117841715D01*
X201394326Y-118021742D01*
X201374540Y-118209999D01*
X195587616Y-118209999D01*
X188110696Y-110733079D01*
X188100000Y-110720883D01*
X188082249Y-110697749D01*
X188013571Y-110645052D01*
X188013570Y-110645051D01*
X187964433Y-110607347D01*
X187827234Y-110550517D01*
X187810104Y-110548261D01*
X187680000Y-110531132D01*
X187654519Y-110534487D01*
X187651089Y-110534939D01*
X187634906Y-110536000D01*
X186031161Y-110536000D01*
X185965190Y-110516994D01*
X185838957Y-110437677D01*
X185683580Y-110383308D01*
X185519999Y-110364877D01*
X185356419Y-110383308D01*
X185201042Y-110437677D01*
X185074810Y-110516994D01*
X185008839Y-110536000D01*
X169641161Y-110536000D01*
X169575190Y-110516994D01*
X169448957Y-110437677D01*
X169293580Y-110383308D01*
X169129999Y-110364877D01*
X168966419Y-110383308D01*
X168811042Y-110437677D01*
X168671658Y-110525257D01*
X168555257Y-110641658D01*
X168467677Y-110781042D01*
X168413308Y-110936419D01*
X168394877Y-111099999D01*
X148520500Y-111099999D01*
X148520500Y-103180000D01*
X161764540Y-103180000D01*
X161784326Y-103368257D01*
X161842820Y-103548284D01*
X161937466Y-103712216D01*
X162064129Y-103852889D01*
X162217269Y-103964151D01*
X162390197Y-104041144D01*
X162575352Y-104080500D01*
X162575354Y-104080500D01*
X162764646Y-104080500D01*
X162764648Y-104080500D01*
X162888083Y-104054262D01*
X162949803Y-104041144D01*
X163122730Y-103964151D01*
X163275871Y-103852888D01*
X163402533Y-103712216D01*
X163497179Y-103548284D01*
X163555674Y-103368256D01*
X163575460Y-103180000D01*
X163555674Y-102991744D01*
X163497179Y-102811716D01*
X163497179Y-102811715D01*
X163402533Y-102647783D01*
X163275870Y-102507110D01*
X163122730Y-102395848D01*
X162949802Y-102318855D01*
X162764648Y-102279500D01*
X162764646Y-102279500D01*
X162575354Y-102279500D01*
X162575352Y-102279500D01*
X162390197Y-102318855D01*
X162217269Y-102395848D01*
X162064129Y-102507110D01*
X161937466Y-102647783D01*
X161842820Y-102811715D01*
X161784326Y-102991742D01*
X161764540Y-103180000D01*
X148520500Y-103180000D01*
X148520500Y-101649999D01*
X170484540Y-101649999D01*
X170504326Y-101838257D01*
X170562820Y-102018284D01*
X170657466Y-102182216D01*
X170784129Y-102322889D01*
X170937269Y-102434151D01*
X171110197Y-102511144D01*
X171295352Y-102550500D01*
X171295354Y-102550500D01*
X171484646Y-102550500D01*
X171484648Y-102550500D01*
X171608084Y-102524262D01*
X171669803Y-102511144D01*
X171842730Y-102434151D01*
X171842729Y-102434151D01*
X171995870Y-102322889D01*
X172122533Y-102182216D01*
X172217179Y-102018284D01*
X172217179Y-102018283D01*
X172275674Y-101838256D01*
X172295460Y-101650000D01*
X172275674Y-101461744D01*
X172217179Y-101281716D01*
X172217179Y-101281715D01*
X172122533Y-101117783D01*
X171995870Y-100977110D01*
X171842730Y-100865848D01*
X171669802Y-100788855D01*
X171484648Y-100749500D01*
X171484646Y-100749500D01*
X171295354Y-100749500D01*
X171295352Y-100749500D01*
X171110197Y-100788855D01*
X170937269Y-100865848D01*
X170784129Y-100977110D01*
X170657466Y-101117783D01*
X170562820Y-101281715D01*
X170504326Y-101461742D01*
X170484540Y-101649999D01*
X148520500Y-101649999D01*
X148520500Y-97424168D01*
X195776648Y-97424168D01*
X195788837Y-97493289D01*
X195807277Y-97597866D01*
X195858533Y-97716691D01*
X195877136Y-97759818D01*
X195982461Y-97901294D01*
X196117570Y-98014665D01*
X196117571Y-98014665D01*
X196117573Y-98014667D01*
X196275189Y-98093824D01*
X196275190Y-98093824D01*
X196275192Y-98093825D01*
X196446810Y-98134500D01*
X196446812Y-98134500D01*
X196578938Y-98134500D01*
X196578941Y-98134500D01*
X196710184Y-98119160D01*
X196875924Y-98058836D01*
X197023285Y-97961915D01*
X197144322Y-97833623D01*
X197232510Y-97680876D01*
X197283095Y-97511909D01*
X197293351Y-97335831D01*
X197262723Y-97162134D01*
X197192864Y-97000182D01*
X197087539Y-96858706D01*
X197035145Y-96814742D01*
X196952429Y-96745334D01*
X196794807Y-96666174D01*
X196623190Y-96625500D01*
X196623188Y-96625500D01*
X196491059Y-96625500D01*
X196425437Y-96633169D01*
X196359813Y-96640840D01*
X196194074Y-96701164D01*
X196046715Y-96798084D01*
X195925676Y-96926377D01*
X195837491Y-97079120D01*
X195786905Y-97248092D01*
X195776648Y-97424168D01*
X148520500Y-97424168D01*
X148520500Y-94329999D01*
X174854540Y-94329999D01*
X174874326Y-94518257D01*
X174932820Y-94698284D01*
X175027466Y-94862216D01*
X175154129Y-95002889D01*
X175307269Y-95114151D01*
X175480197Y-95191144D01*
X175665352Y-95230500D01*
X175665354Y-95230500D01*
X175854646Y-95230500D01*
X175854648Y-95230500D01*
X175978083Y-95204262D01*
X176039803Y-95191144D01*
X176212730Y-95114151D01*
X176212730Y-95114150D01*
X176224636Y-95108850D01*
X176225133Y-95109966D01*
X176237458Y-95103687D01*
X176275774Y-95097619D01*
X201641287Y-95097619D01*
X201657470Y-95098679D01*
X201686381Y-95102486D01*
X201833615Y-95083102D01*
X201970814Y-95026272D01*
X202059049Y-94958568D01*
X202059049Y-94958567D01*
X202088631Y-94935869D01*
X202106384Y-94912731D01*
X202117071Y-94900544D01*
X204938965Y-92078650D01*
X204998485Y-92045573D01*
X205066500Y-92048913D01*
X205122494Y-92087665D01*
X205149582Y-92150142D01*
X205150515Y-92157229D01*
X205150516Y-92157233D01*
X205150517Y-92157234D01*
X205199754Y-92276103D01*
X205207348Y-92294435D01*
X205229284Y-92323025D01*
X205229291Y-92323032D01*
X205297747Y-92412247D01*
X205297748Y-92412248D01*
X205297750Y-92412250D01*
X205320894Y-92430009D01*
X205333080Y-92440697D01*
X205728803Y-92836420D01*
X206016703Y-93124319D01*
X206046953Y-93173682D01*
X206051495Y-93231398D01*
X206029340Y-93284885D01*
X205985317Y-93322485D01*
X205929022Y-93336000D01*
X205747186Y-93336000D01*
X205731000Y-93334939D01*
X205702085Y-93331132D01*
X205554849Y-93350517D01*
X205417652Y-93407345D01*
X205333761Y-93471716D01*
X205333760Y-93471719D01*
X205299834Y-93497750D01*
X205282079Y-93520888D01*
X205271386Y-93533080D01*
X201311177Y-97493289D01*
X201260439Y-97523977D01*
X201201253Y-97527597D01*
X201147153Y-97503321D01*
X201110511Y-97456700D01*
X201099706Y-97398399D01*
X201103351Y-97335831D01*
X201072723Y-97162134D01*
X201002864Y-97000182D01*
X200897539Y-96858706D01*
X200845145Y-96814742D01*
X200762429Y-96745334D01*
X200604807Y-96666174D01*
X200433190Y-96625500D01*
X200433188Y-96625500D01*
X200301059Y-96625500D01*
X200235437Y-96633169D01*
X200169813Y-96640840D01*
X200004074Y-96701164D01*
X199856715Y-96798084D01*
X199735676Y-96926377D01*
X199647491Y-97079120D01*
X199596905Y-97248092D01*
X199586648Y-97424168D01*
X199598837Y-97493289D01*
X199617277Y-97597866D01*
X199668533Y-97716691D01*
X199687136Y-97759818D01*
X199792461Y-97901294D01*
X199927570Y-98014665D01*
X199927571Y-98014665D01*
X199927573Y-98014667D01*
X200085189Y-98093824D01*
X200085190Y-98093824D01*
X200085192Y-98093825D01*
X200256810Y-98134500D01*
X200370605Y-98134500D01*
X200426900Y-98148015D01*
X200470923Y-98185615D01*
X200493078Y-98239102D01*
X200488536Y-98296818D01*
X200458286Y-98346181D01*
X191576080Y-107228386D01*
X191563888Y-107239079D01*
X191540749Y-107256835D01*
X191505598Y-107302643D01*
X191505588Y-107302658D01*
X191450347Y-107374651D01*
X191393517Y-107511851D01*
X191373800Y-107661611D01*
X191355855Y-107711396D01*
X191280677Y-107831042D01*
X191226308Y-107986419D01*
X191207877Y-108149999D01*
X191226308Y-108313580D01*
X191280677Y-108468957D01*
X191368257Y-108608341D01*
X191484658Y-108724742D01*
X191624042Y-108812322D01*
X191779419Y-108866691D01*
X191943000Y-108885122D01*
X192106580Y-108866691D01*
X192261957Y-108812322D01*
X192401341Y-108724742D01*
X192517742Y-108608341D01*
X192605322Y-108468957D01*
X192659691Y-108313580D01*
X192678122Y-108150000D01*
X192659691Y-107986420D01*
X192621550Y-107877422D01*
X192617702Y-107808876D01*
X192650910Y-107748790D01*
X196559701Y-103839999D01*
X203654877Y-103839999D01*
X203673308Y-104003580D01*
X203727677Y-104158957D01*
X203815257Y-104298341D01*
X203931658Y-104414742D01*
X204071042Y-104502322D01*
X204226419Y-104556691D01*
X204390000Y-104575122D01*
X204553580Y-104556691D01*
X204708957Y-104502322D01*
X204848341Y-104414742D01*
X204964742Y-104298341D01*
X205052322Y-104158957D01*
X205106691Y-104003580D01*
X205125122Y-103840000D01*
X205106691Y-103676420D01*
X205052322Y-103521043D01*
X205052322Y-103521042D01*
X204964742Y-103381658D01*
X204848341Y-103265257D01*
X204708957Y-103177677D01*
X204553580Y-103123308D01*
X204390000Y-103104877D01*
X204226419Y-103123308D01*
X204071042Y-103177677D01*
X203931658Y-103265257D01*
X203815257Y-103381658D01*
X203727677Y-103521042D01*
X203673308Y-103676419D01*
X203654877Y-103839999D01*
X196559701Y-103839999D01*
X201223478Y-99176222D01*
X201270202Y-99146863D01*
X201325040Y-99140685D01*
X201377129Y-99158911D01*
X201416151Y-99197933D01*
X201435258Y-99228342D01*
X201551658Y-99344742D01*
X201691042Y-99432322D01*
X201846419Y-99486691D01*
X202010000Y-99505122D01*
X202173580Y-99486691D01*
X202328957Y-99432322D01*
X202468341Y-99344742D01*
X202584742Y-99228341D01*
X202672322Y-99088957D01*
X202726691Y-98933580D01*
X202745122Y-98770000D01*
X202726691Y-98606420D01*
X202672322Y-98451043D01*
X202672322Y-98451042D01*
X202584742Y-98311658D01*
X202468342Y-98195258D01*
X202437933Y-98176151D01*
X202398911Y-98137129D01*
X202380685Y-98085040D01*
X202386863Y-98030202D01*
X202416222Y-97983478D01*
X205899382Y-94500319D01*
X205939611Y-94473439D01*
X205987064Y-94464000D01*
X206130318Y-94464000D01*
X206196284Y-94483002D01*
X206242032Y-94534186D01*
X206249240Y-94576574D01*
X206253313Y-94576116D01*
X206273308Y-94753580D01*
X206327677Y-94908957D01*
X206415257Y-95048341D01*
X206531658Y-95164742D01*
X206671042Y-95252322D01*
X206826419Y-95306691D01*
X206990000Y-95325122D01*
X207153580Y-95306691D01*
X207308957Y-95252322D01*
X207448341Y-95164742D01*
X207564742Y-95048341D01*
X207652322Y-94908957D01*
X207706691Y-94753580D01*
X207708067Y-94741368D01*
X207726687Y-94576116D01*
X207730759Y-94576574D01*
X207737968Y-94534186D01*
X207783716Y-94483002D01*
X207849682Y-94464000D01*
X209138839Y-94464000D01*
X209204810Y-94483006D01*
X209331042Y-94562322D01*
X209486420Y-94616691D01*
X209515883Y-94620011D01*
X209571852Y-94640777D01*
X209611630Y-94685290D01*
X209626000Y-94743231D01*
X209626000Y-94981253D01*
X209624939Y-94997436D01*
X209624221Y-95002889D01*
X209621133Y-95026347D01*
X209626000Y-95063314D01*
X209640517Y-95173581D01*
X209697347Y-95310780D01*
X209787749Y-95428596D01*
X209810883Y-95446347D01*
X209823079Y-95457043D01*
X210959681Y-96593645D01*
X210986561Y-96633873D01*
X210996000Y-96681326D01*
X210996000Y-104654516D01*
X210981630Y-104712458D01*
X210941851Y-104756970D01*
X210885883Y-104777736D01*
X210836419Y-104783308D01*
X210681042Y-104837677D01*
X210541658Y-104925257D01*
X210425257Y-105041658D01*
X210337677Y-105181042D01*
X210283308Y-105336419D01*
X210264877Y-105500000D01*
X210283308Y-105663580D01*
X210337677Y-105818957D01*
X210425257Y-105958341D01*
X210541658Y-106074742D01*
X210681042Y-106162322D01*
X210836419Y-106216691D01*
X210880514Y-106221659D01*
X210972187Y-106231988D01*
X211032867Y-106256131D01*
X211054335Y-106283840D01*
X211057409Y-106281482D01*
X211112884Y-106353779D01*
X211112886Y-106353782D01*
X211157749Y-106412249D01*
X211180883Y-106430000D01*
X211193079Y-106440696D01*
X212399681Y-107647298D01*
X212426561Y-107687526D01*
X212436000Y-107734979D01*
X212436000Y-109864906D01*
X212434939Y-109881092D01*
X212431133Y-109910000D01*
X212436000Y-109946967D01*
X212450517Y-110057234D01*
X212507347Y-110194433D01*
X212597749Y-110312249D01*
X212620883Y-110330000D01*
X212633079Y-110340696D01*
X214522132Y-112229749D01*
X214546170Y-112263627D01*
X214557670Y-112303540D01*
X214558974Y-112315113D01*
X214547476Y-112382799D01*
X214501728Y-112433993D01*
X214435755Y-112453000D01*
X210350310Y-112453000D01*
X210302857Y-112443561D01*
X210262629Y-112416681D01*
X209870696Y-112024748D01*
X209860000Y-112012552D01*
X209855601Y-112006819D01*
X209842250Y-111989419D01*
X209790877Y-111950000D01*
X209724433Y-111899016D01*
X209587234Y-111842186D01*
X209570104Y-111839930D01*
X209440000Y-111822801D01*
X209414519Y-111826156D01*
X209411089Y-111826608D01*
X209394906Y-111827669D01*
X209196647Y-111827669D01*
X209149194Y-111818230D01*
X209108966Y-111791350D01*
X208527025Y-111209408D01*
X208497818Y-111163119D01*
X208491385Y-111108767D01*
X208495460Y-111070000D01*
X208475674Y-110881744D01*
X208433782Y-110752813D01*
X208417179Y-110701715D01*
X208322533Y-110537783D01*
X208195870Y-110397110D01*
X208042730Y-110285848D01*
X207869802Y-110208855D01*
X207684648Y-110169500D01*
X207684646Y-110169500D01*
X207495354Y-110169500D01*
X207495352Y-110169500D01*
X207310197Y-110208855D01*
X207137269Y-110285848D01*
X206984129Y-110397110D01*
X206857466Y-110537783D01*
X206762820Y-110701715D01*
X206704326Y-110881742D01*
X206684540Y-111070000D01*
X206704326Y-111258257D01*
X206762820Y-111438284D01*
X206857466Y-111602216D01*
X206984129Y-111742889D01*
X207137269Y-111854151D01*
X207310197Y-111931144D01*
X207495352Y-111970500D01*
X207641521Y-111970500D01*
X207688974Y-111979939D01*
X207729202Y-112006819D01*
X207923956Y-112201573D01*
X207954697Y-112252483D01*
X207958199Y-112311851D01*
X207933655Y-112366021D01*
X207886711Y-112402533D01*
X207839616Y-112423501D01*
X207686476Y-112534763D01*
X207559813Y-112675436D01*
X207465167Y-112839368D01*
X207406673Y-113019395D01*
X207386887Y-113207652D01*
X207406673Y-113395910D01*
X207465167Y-113575937D01*
X207559813Y-113739869D01*
X207686476Y-113880542D01*
X207839616Y-113991804D01*
X208012544Y-114068797D01*
X208197699Y-114108153D01*
X208197701Y-114108153D01*
X208386993Y-114108153D01*
X208386995Y-114108153D01*
X208572147Y-114068798D01*
X208572148Y-114068797D01*
X208572150Y-114068797D01*
X208725619Y-114000466D01*
X208776051Y-113989747D01*
X208826487Y-114000467D01*
X208868202Y-114030775D01*
X208924129Y-114092889D01*
X209077269Y-114204151D01*
X209250197Y-114281144D01*
X209435352Y-114320500D01*
X209435354Y-114320500D01*
X209624646Y-114320500D01*
X209624648Y-114320500D01*
X209748084Y-114294262D01*
X209809803Y-114281144D01*
X209982730Y-114204151D01*
X209988931Y-114199646D01*
X210135870Y-114092889D01*
X210262533Y-113952216D01*
X210357179Y-113788284D01*
X210367085Y-113757796D01*
X210396690Y-113666681D01*
X210422471Y-113622028D01*
X210464186Y-113591720D01*
X210514621Y-113581000D01*
X215063478Y-113581000D01*
X215123215Y-113596338D01*
X215168175Y-113638557D01*
X215187233Y-113697214D01*
X215175677Y-113757796D01*
X215136364Y-113805318D01*
X215064127Y-113857800D01*
X214937466Y-113998471D01*
X214842820Y-114162403D01*
X214784326Y-114342430D01*
X214764540Y-114530688D01*
X214784326Y-114718945D01*
X214842820Y-114898972D01*
X214937466Y-115062904D01*
X215064129Y-115203577D01*
X215217269Y-115314839D01*
X215390197Y-115391832D01*
X215575352Y-115431188D01*
X215575354Y-115431188D01*
X215764645Y-115431188D01*
X215764646Y-115431188D01*
X215812383Y-115421040D01*
X215863942Y-115421040D01*
X215911047Y-115442013D01*
X215945549Y-115480331D01*
X216027466Y-115622215D01*
X216154129Y-115762889D01*
X216307269Y-115874151D01*
X216480197Y-115951144D01*
X216665352Y-115990500D01*
X216665354Y-115990500D01*
X216854646Y-115990500D01*
X216854648Y-115990500D01*
X216978083Y-115964262D01*
X217039803Y-115951144D01*
X217212730Y-115874151D01*
X217212730Y-115874150D01*
X217365870Y-115762889D01*
X217492533Y-115622216D01*
X217587179Y-115458284D01*
X217606279Y-115399501D01*
X217645674Y-115278256D01*
X217665460Y-115090000D01*
X217645674Y-114901744D01*
X217587179Y-114721716D01*
X217587179Y-114721715D01*
X217492533Y-114557783D01*
X217365870Y-114417110D01*
X217212730Y-114305848D01*
X217039802Y-114228855D01*
X216854648Y-114189500D01*
X216854646Y-114189500D01*
X216665354Y-114189500D01*
X216665352Y-114189500D01*
X216617617Y-114199646D01*
X216566055Y-114199646D01*
X216518951Y-114178674D01*
X216484450Y-114140356D01*
X216402533Y-113998471D01*
X216275872Y-113857800D01*
X216203636Y-113805318D01*
X216164323Y-113757796D01*
X216152767Y-113697214D01*
X216171825Y-113638557D01*
X216216785Y-113596338D01*
X216276522Y-113581000D01*
X219650878Y-113581000D01*
X219701314Y-113591720D01*
X219743027Y-113622027D01*
X219783234Y-113666682D01*
X219804130Y-113689889D01*
X219957269Y-113801151D01*
X220130197Y-113878144D01*
X220315352Y-113917500D01*
X220315354Y-113917500D01*
X220504646Y-113917500D01*
X220504648Y-113917500D01*
X220628084Y-113891262D01*
X220689803Y-113878144D01*
X220862730Y-113801151D01*
X220880440Y-113788284D01*
X221015870Y-113689889D01*
X221058702Y-113642320D01*
X221142533Y-113549216D01*
X221237179Y-113385284D01*
X221295674Y-113205256D01*
X221315460Y-113017000D01*
X221295674Y-112828744D01*
X221245010Y-112672818D01*
X221237179Y-112648715D01*
X221142533Y-112484783D01*
X221015870Y-112344110D01*
X220862730Y-112232848D01*
X220689802Y-112155855D01*
X220504648Y-112116500D01*
X220504646Y-112116500D01*
X220315354Y-112116500D01*
X220315352Y-112116500D01*
X220130197Y-112155855D01*
X219957269Y-112232848D01*
X219907723Y-112268845D01*
X219849826Y-112291617D01*
X219788157Y-112283403D01*
X219738239Y-112246272D01*
X219712638Y-112189569D01*
X219717797Y-112127573D01*
X219736691Y-112073580D01*
X219755122Y-111910000D01*
X219744782Y-111818230D01*
X219736691Y-111746419D01*
X219682322Y-111591042D01*
X219594742Y-111451658D01*
X219478341Y-111335257D01*
X219338957Y-111247677D01*
X219183580Y-111193308D01*
X219020000Y-111174877D01*
X218856419Y-111193308D01*
X218701042Y-111247677D01*
X218561658Y-111335257D01*
X218445257Y-111451658D01*
X218357677Y-111591042D01*
X218303308Y-111746419D01*
X218284877Y-111910000D01*
X218303308Y-112073580D01*
X218357677Y-112228957D01*
X218379086Y-112263029D01*
X218398043Y-112325523D01*
X218382619Y-112388982D01*
X218337093Y-112435803D01*
X218274092Y-112453000D01*
X216546801Y-112453000D01*
X216486820Y-112437528D01*
X216450000Y-112402717D01*
X216413180Y-112437528D01*
X216353199Y-112453000D01*
X216124245Y-112453000D01*
X216058273Y-112433994D01*
X216012525Y-112382802D01*
X216001025Y-112315116D01*
X216007278Y-112259619D01*
X216025504Y-112207531D01*
X216064526Y-112168509D01*
X216116615Y-112150283D01*
X216171453Y-112156462D01*
X216286420Y-112196691D01*
X216367083Y-112205780D01*
X216424954Y-112227871D01*
X216450000Y-112257531D01*
X216475046Y-112227871D01*
X216532917Y-112205780D01*
X216613580Y-112196691D01*
X216768957Y-112142322D01*
X216908341Y-112054742D01*
X217024742Y-111938341D01*
X217112322Y-111798957D01*
X217166691Y-111643580D01*
X217172611Y-111591042D01*
X217185122Y-111480000D01*
X217168813Y-111335257D01*
X217166691Y-111316419D01*
X217112322Y-111161042D01*
X217024742Y-111021658D01*
X216908341Y-110905257D01*
X216768957Y-110817677D01*
X216613581Y-110763308D01*
X216563546Y-110757671D01*
X216523628Y-110746171D01*
X216489749Y-110722132D01*
X216430319Y-110662702D01*
X216403439Y-110622474D01*
X216394000Y-110575021D01*
X216394000Y-107880000D01*
X221674540Y-107880000D01*
X221694326Y-108068257D01*
X221752820Y-108248284D01*
X221847466Y-108412216D01*
X221974129Y-108552889D01*
X222127269Y-108664151D01*
X222300197Y-108741144D01*
X222485352Y-108780500D01*
X222485354Y-108780500D01*
X222674646Y-108780500D01*
X222674648Y-108780500D01*
X222798084Y-108754262D01*
X222859803Y-108741144D01*
X223032730Y-108664151D01*
X223185871Y-108552888D01*
X223312533Y-108412216D01*
X223407179Y-108248284D01*
X223465674Y-108068256D01*
X223485460Y-107880000D01*
X223465674Y-107691744D01*
X223407179Y-107511716D01*
X223407179Y-107511715D01*
X223312533Y-107347783D01*
X223185870Y-107207110D01*
X223032730Y-107095848D01*
X222859802Y-107018855D01*
X222674648Y-106979500D01*
X222674646Y-106979500D01*
X222485354Y-106979500D01*
X222485352Y-106979500D01*
X222300197Y-107018855D01*
X222127269Y-107095848D01*
X221974129Y-107207110D01*
X221847466Y-107347783D01*
X221752820Y-107511715D01*
X221694326Y-107691742D01*
X221674540Y-107880000D01*
X216394000Y-107880000D01*
X216394000Y-106192653D01*
X216395061Y-106176467D01*
X216398868Y-106147552D01*
X216379483Y-106000318D01*
X216322654Y-105863119D01*
X216254949Y-105774884D01*
X216254948Y-105774883D01*
X216232250Y-105745302D01*
X216209114Y-105727549D01*
X216196919Y-105716854D01*
X214586819Y-104106754D01*
X214559939Y-104066526D01*
X214550500Y-104019073D01*
X214550500Y-100799999D01*
X217704540Y-100799999D01*
X217724326Y-100988257D01*
X217782820Y-101168284D01*
X217877466Y-101332216D01*
X218004129Y-101472889D01*
X218157269Y-101584151D01*
X218330197Y-101661144D01*
X218515352Y-101700500D01*
X218515354Y-101700500D01*
X218704646Y-101700500D01*
X218704648Y-101700500D01*
X218828083Y-101674262D01*
X218889803Y-101661144D01*
X219062730Y-101584151D01*
X219215871Y-101472888D01*
X219342533Y-101332216D01*
X219437179Y-101168284D01*
X219495674Y-100988256D01*
X219515460Y-100800000D01*
X219495674Y-100611744D01*
X219437179Y-100431716D01*
X219437179Y-100431715D01*
X219342533Y-100267783D01*
X219215870Y-100127110D01*
X219062730Y-100015848D01*
X218889802Y-99938855D01*
X218704648Y-99899500D01*
X218704646Y-99899500D01*
X218515354Y-99899500D01*
X218515352Y-99899500D01*
X218330197Y-99938855D01*
X218157269Y-100015848D01*
X218004129Y-100127110D01*
X217877466Y-100267783D01*
X217782820Y-100431715D01*
X217724326Y-100611742D01*
X217704540Y-100799999D01*
X214550500Y-100799999D01*
X214550500Y-96999999D01*
X218044877Y-96999999D01*
X218063308Y-97163580D01*
X218117677Y-97318957D01*
X218205257Y-97458341D01*
X218321658Y-97574742D01*
X218461042Y-97662322D01*
X218616419Y-97716691D01*
X218780000Y-97735122D01*
X218943580Y-97716691D01*
X219098957Y-97662322D01*
X219238341Y-97574742D01*
X219354742Y-97458341D01*
X219442322Y-97318957D01*
X219496691Y-97163580D01*
X219515122Y-97000000D01*
X219496691Y-96836420D01*
X219464818Y-96745334D01*
X219442322Y-96681042D01*
X219354742Y-96541658D01*
X219238341Y-96425257D01*
X219098957Y-96337677D01*
X218943580Y-96283308D01*
X218780000Y-96264877D01*
X218616419Y-96283308D01*
X218461042Y-96337677D01*
X218321658Y-96425257D01*
X218205257Y-96541658D01*
X218117677Y-96681042D01*
X218063308Y-96836419D01*
X218044877Y-96999999D01*
X214550500Y-96999999D01*
X214550500Y-96239999D01*
X216394877Y-96239999D01*
X216413308Y-96403580D01*
X216467677Y-96558957D01*
X216555257Y-96698341D01*
X216671658Y-96814742D01*
X216811042Y-96902322D01*
X216966419Y-96956691D01*
X217130000Y-96975122D01*
X217293580Y-96956691D01*
X217448957Y-96902322D01*
X217588341Y-96814742D01*
X217704742Y-96698341D01*
X217792322Y-96558957D01*
X217846691Y-96403580D01*
X217865122Y-96240000D01*
X217846691Y-96076420D01*
X217792322Y-95921043D01*
X217792322Y-95921042D01*
X217704742Y-95781658D01*
X217588341Y-95665257D01*
X217448957Y-95577677D01*
X217293580Y-95523308D01*
X217130000Y-95504877D01*
X216966419Y-95523308D01*
X216811042Y-95577677D01*
X216671658Y-95665257D01*
X216555257Y-95781658D01*
X216467677Y-95921042D01*
X216413308Y-96076419D01*
X216394877Y-96239999D01*
X214550500Y-96239999D01*
X214550500Y-93131601D01*
X214551561Y-93115415D01*
X214555368Y-93086500D01*
X214535983Y-92939266D01*
X214479154Y-92802067D01*
X214411449Y-92713832D01*
X214411448Y-92713831D01*
X214388750Y-92684250D01*
X214384569Y-92681042D01*
X214365614Y-92666497D01*
X214353419Y-92655802D01*
X212603031Y-90905414D01*
X212570937Y-90849826D01*
X212570937Y-90785639D01*
X212603029Y-90730053D01*
X212654742Y-90678341D01*
X212742322Y-90538957D01*
X212796691Y-90383580D01*
X212815122Y-90220000D01*
X212804228Y-90123309D01*
X212796691Y-90056419D01*
X212742322Y-89901042D01*
X212654742Y-89761658D01*
X212538341Y-89645257D01*
X212398957Y-89557677D01*
X212382583Y-89551948D01*
X212331077Y-89517533D01*
X212302646Y-89462497D01*
X212304385Y-89400576D01*
X212335860Y-89347223D01*
X212335859Y-89347223D01*
X212339914Y-89343169D01*
X212427494Y-89203785D01*
X212481863Y-89048408D01*
X212500294Y-88884828D01*
X212487759Y-88773580D01*
X212481863Y-88721247D01*
X212427494Y-88565870D01*
X212348178Y-88439638D01*
X212329172Y-88373667D01*
X212329172Y-88232014D01*
X212330233Y-88215828D01*
X212334040Y-88186913D01*
X212314655Y-88039679D01*
X212257826Y-87902480D01*
X212190121Y-87814245D01*
X212190120Y-87814244D01*
X212167422Y-87784663D01*
X212144286Y-87766910D01*
X212132091Y-87756215D01*
X211728955Y-87353079D01*
X211718259Y-87340883D01*
X211704437Y-87322870D01*
X211700509Y-87317750D01*
X211598926Y-87239804D01*
X211592533Y-87234898D01*
X211582690Y-87227345D01*
X211445494Y-87170517D01*
X211298259Y-87151132D01*
X211274211Y-87154299D01*
X211269348Y-87154939D01*
X211253165Y-87156000D01*
X208577738Y-87156000D01*
X208519797Y-87141630D01*
X208475284Y-87101852D01*
X208454518Y-87045884D01*
X208446691Y-86976419D01*
X208392322Y-86821042D01*
X208304742Y-86681658D01*
X208188341Y-86565257D01*
X208048957Y-86477677D01*
X207893580Y-86423308D01*
X207730000Y-86404877D01*
X207566419Y-86423308D01*
X207411042Y-86477677D01*
X207271658Y-86565257D01*
X207155257Y-86681658D01*
X207067677Y-86821042D01*
X207020634Y-86955485D01*
X206991274Y-87002211D01*
X206944548Y-87031571D01*
X206849361Y-87064878D01*
X206834470Y-87074235D01*
X206782382Y-87092461D01*
X206727545Y-87086281D01*
X206680819Y-87056920D01*
X206651459Y-87010194D01*
X206610002Y-86891714D01*
X206520083Y-86748611D01*
X206400576Y-86629104D01*
X206257470Y-86539184D01*
X206180000Y-86512076D01*
X206180000Y-87345188D01*
X206163387Y-87407188D01*
X206118000Y-87452575D01*
X206056000Y-87469188D01*
X205804000Y-87469188D01*
X205742000Y-87452575D01*
X205696613Y-87407188D01*
X205680000Y-87345188D01*
X205680000Y-86512077D01*
X205679999Y-86512076D01*
X205602529Y-86539184D01*
X205459423Y-86629104D01*
X205339916Y-86748611D01*
X205249998Y-86891713D01*
X205194176Y-87051244D01*
X205193806Y-87054530D01*
X205170356Y-87114279D01*
X205120172Y-87154299D01*
X205056703Y-87163865D01*
X205044501Y-87162490D01*
X204880920Y-87180921D01*
X204725543Y-87235290D01*
X204586159Y-87322870D01*
X204469758Y-87439271D01*
X204382178Y-87578655D01*
X204327809Y-87734032D01*
X204309378Y-87897612D01*
X204327809Y-88061193D01*
X204382178Y-88216570D01*
X204469758Y-88355954D01*
X204586159Y-88472355D01*
X204725543Y-88559935D01*
X204816105Y-88591623D01*
X204880921Y-88614304D01*
X204928958Y-88619716D01*
X204981041Y-88637940D01*
X205020064Y-88676962D01*
X205038291Y-88729050D01*
X205043308Y-88773580D01*
X205097677Y-88928957D01*
X205185257Y-89068341D01*
X205301658Y-89184742D01*
X205344656Y-89211759D01*
X205386532Y-89255557D01*
X205402654Y-89313970D01*
X205389170Y-89373047D01*
X205349302Y-89418681D01*
X205292569Y-89439973D01*
X205174218Y-89453308D01*
X205018840Y-89507677D01*
X204879456Y-89595257D01*
X204763055Y-89711658D01*
X204675475Y-89851042D01*
X204621106Y-90006419D01*
X204602675Y-90169999D01*
X204621106Y-90333580D01*
X204675475Y-90488957D01*
X204722402Y-90563641D01*
X204740628Y-90615729D01*
X204734449Y-90670567D01*
X204705089Y-90717293D01*
X201489083Y-93933300D01*
X201448855Y-93960180D01*
X201401402Y-93969619D01*
X190686807Y-93969619D01*
X190626826Y-93954147D01*
X190581813Y-93911591D01*
X190563002Y-93852572D01*
X190575087Y-93791818D01*
X190615052Y-93744490D01*
X190672923Y-93722399D01*
X190723580Y-93716691D01*
X190878957Y-93662322D01*
X191018341Y-93574742D01*
X191134742Y-93458341D01*
X191222322Y-93318957D01*
X191276691Y-93163580D01*
X191295122Y-93000000D01*
X191276691Y-92836419D01*
X191222322Y-92681042D01*
X191134742Y-92541658D01*
X191018341Y-92425257D01*
X190878957Y-92337677D01*
X190723580Y-92283308D01*
X190560000Y-92264877D01*
X190396419Y-92283308D01*
X190241042Y-92337677D01*
X190101658Y-92425257D01*
X189985257Y-92541658D01*
X189897677Y-92681042D01*
X189843308Y-92836419D01*
X189824877Y-93000000D01*
X189843308Y-93163580D01*
X189897677Y-93318957D01*
X189985257Y-93458341D01*
X190101658Y-93574742D01*
X190241042Y-93662322D01*
X190396419Y-93716691D01*
X190447077Y-93722399D01*
X190504948Y-93744490D01*
X190544913Y-93791818D01*
X190556998Y-93852572D01*
X190538187Y-93911591D01*
X190493174Y-93954147D01*
X190433193Y-93969619D01*
X179240436Y-93969619D01*
X179182222Y-93955104D01*
X179137635Y-93914959D01*
X179117115Y-93858580D01*
X179116484Y-93852572D01*
X179098542Y-93681863D01*
X179040047Y-93501835D01*
X179040047Y-93501834D01*
X178945401Y-93337902D01*
X178818738Y-93197229D01*
X178665598Y-93085967D01*
X178492670Y-93008974D01*
X178307516Y-92969619D01*
X178307514Y-92969619D01*
X178118222Y-92969619D01*
X178118220Y-92969619D01*
X177933065Y-93008974D01*
X177760137Y-93085967D01*
X177606997Y-93197229D01*
X177480334Y-93337902D01*
X177385688Y-93501834D01*
X177327194Y-93681861D01*
X177308621Y-93858580D01*
X177288101Y-93914959D01*
X177243514Y-93955104D01*
X177185300Y-93969619D01*
X176663333Y-93969619D01*
X176601333Y-93953006D01*
X176555946Y-93907618D01*
X176492534Y-93797785D01*
X176365870Y-93657110D01*
X176212730Y-93545848D01*
X176039802Y-93468855D01*
X175854648Y-93429500D01*
X175854646Y-93429500D01*
X175665354Y-93429500D01*
X175665352Y-93429500D01*
X175480197Y-93468855D01*
X175307269Y-93545848D01*
X175154129Y-93657110D01*
X175027466Y-93797783D01*
X174932820Y-93961715D01*
X174874326Y-94141742D01*
X174854540Y-94329999D01*
X148520500Y-94329999D01*
X148520500Y-92960000D01*
X153614540Y-92960000D01*
X153634326Y-93148257D01*
X153692820Y-93328284D01*
X153787466Y-93492216D01*
X153914129Y-93632889D01*
X154067269Y-93744151D01*
X154240197Y-93821144D01*
X154425352Y-93860500D01*
X154425354Y-93860500D01*
X154614646Y-93860500D01*
X154614648Y-93860500D01*
X154738084Y-93834262D01*
X154799803Y-93821144D01*
X154972730Y-93744151D01*
X155010526Y-93716691D01*
X155125870Y-93632889D01*
X155252533Y-93492216D01*
X155347179Y-93328284D01*
X155378659Y-93231398D01*
X155405674Y-93148256D01*
X155425460Y-92960000D01*
X155405674Y-92771744D01*
X155347179Y-92591716D01*
X155347179Y-92591715D01*
X155252533Y-92427783D01*
X155125870Y-92287110D01*
X154972730Y-92175848D01*
X154799802Y-92098855D01*
X154614648Y-92059500D01*
X154614646Y-92059500D01*
X154425354Y-92059500D01*
X154425352Y-92059500D01*
X154240197Y-92098855D01*
X154067269Y-92175848D01*
X153914129Y-92287110D01*
X153787466Y-92427783D01*
X153692820Y-92591715D01*
X153634326Y-92771742D01*
X153614540Y-92960000D01*
X148520500Y-92960000D01*
X148520500Y-90840000D01*
X179694877Y-90840000D01*
X179713308Y-91003580D01*
X179767677Y-91158957D01*
X179855257Y-91298341D01*
X179971658Y-91414742D01*
X180111042Y-91502322D01*
X180266419Y-91556691D01*
X180430000Y-91575122D01*
X180593580Y-91556691D01*
X180748957Y-91502322D01*
X180888341Y-91414742D01*
X181004742Y-91298341D01*
X181092322Y-91158957D01*
X181098956Y-91139999D01*
X181704877Y-91139999D01*
X181723308Y-91303580D01*
X181777677Y-91458957D01*
X181865257Y-91598341D01*
X181981658Y-91714742D01*
X182121042Y-91802322D01*
X182276419Y-91856691D01*
X182440000Y-91875122D01*
X182603580Y-91856691D01*
X182758957Y-91802322D01*
X182898341Y-91714742D01*
X183014742Y-91598341D01*
X183102322Y-91458957D01*
X183150945Y-91320000D01*
X194004356Y-91320000D01*
X194024891Y-91567816D01*
X194024891Y-91567819D01*
X194024892Y-91567821D01*
X194085937Y-91808881D01*
X194114993Y-91875122D01*
X194185825Y-92036604D01*
X194185827Y-92036607D01*
X194321836Y-92244785D01*
X194490256Y-92427738D01*
X194530434Y-92459010D01*
X194686485Y-92580470D01*
X194686487Y-92580471D01*
X194686491Y-92580474D01*
X194905190Y-92698828D01*
X195140386Y-92779571D01*
X195385665Y-92820500D01*
X195634335Y-92820500D01*
X195879614Y-92779571D01*
X196114810Y-92698828D01*
X196333509Y-92580474D01*
X196529744Y-92427738D01*
X196698164Y-92244785D01*
X196834173Y-92036607D01*
X196911540Y-91860227D01*
X196951618Y-91810153D01*
X197011356Y-91786802D01*
X197074771Y-91796424D01*
X197124894Y-91836444D01*
X197148315Y-91896155D01*
X197157913Y-91981341D01*
X197212282Y-92136719D01*
X197299862Y-92276103D01*
X197416260Y-92392501D01*
X197416262Y-92392502D01*
X197416264Y-92392504D01*
X197460008Y-92419990D01*
X197499028Y-92459010D01*
X197517255Y-92511099D01*
X197533308Y-92653580D01*
X197587677Y-92808957D01*
X197675257Y-92948341D01*
X197791658Y-93064742D01*
X197931042Y-93152322D01*
X198086419Y-93206691D01*
X198250000Y-93225122D01*
X198413580Y-93206691D01*
X198568957Y-93152322D01*
X198708341Y-93064742D01*
X198824742Y-92948341D01*
X198912322Y-92808957D01*
X198966691Y-92653580D01*
X198966690Y-92653580D01*
X198985122Y-92490005D01*
X198985121Y-92490002D01*
X198985122Y-92490000D01*
X198984972Y-92488671D01*
X198991150Y-92433833D01*
X199020509Y-92387106D01*
X201494340Y-89913274D01*
X201506530Y-89902585D01*
X201508541Y-89901042D01*
X201529670Y-89884830D01*
X201620073Y-89767013D01*
X201676903Y-89629814D01*
X201691420Y-89519548D01*
X201696287Y-89482580D01*
X201692480Y-89453669D01*
X201691420Y-89437486D01*
X201691420Y-85146029D01*
X201706892Y-85086048D01*
X201749448Y-85041035D01*
X201808467Y-85022224D01*
X201869221Y-85034309D01*
X201916549Y-85074274D01*
X201938640Y-85132145D01*
X201943308Y-85173580D01*
X201997677Y-85328957D01*
X202085257Y-85468340D01*
X202124700Y-85507783D01*
X202157911Y-85567871D01*
X202154062Y-85636418D01*
X202132808Y-85697158D01*
X202114377Y-85860738D01*
X202132808Y-86024318D01*
X202187177Y-86179695D01*
X202274757Y-86319079D01*
X202391158Y-86435480D01*
X202530542Y-86523060D01*
X202685919Y-86577429D01*
X202708738Y-86580000D01*
X202785192Y-86588614D01*
X202848621Y-86614886D01*
X202879103Y-86657845D01*
X202880245Y-86657128D01*
X202975257Y-86808341D01*
X203091658Y-86924742D01*
X203231042Y-87012322D01*
X203386419Y-87066691D01*
X203550000Y-87085122D01*
X203713580Y-87066691D01*
X203868957Y-87012322D01*
X204008341Y-86924742D01*
X204124742Y-86808341D01*
X204212322Y-86668957D01*
X204266691Y-86513580D01*
X204285122Y-86350000D01*
X204266691Y-86186420D01*
X204255313Y-86153906D01*
X204250517Y-86089899D01*
X204278367Y-86032068D01*
X204331401Y-85995910D01*
X204348285Y-85990001D01*
X204491388Y-85900083D01*
X204610895Y-85780576D01*
X204700815Y-85637470D01*
X204727923Y-85560000D01*
X207132076Y-85560000D01*
X207159184Y-85637470D01*
X207249104Y-85780576D01*
X207368611Y-85900083D01*
X207511717Y-85990003D01*
X207589187Y-86017111D01*
X207589188Y-86017112D01*
X207589188Y-85560000D01*
X208089188Y-85560000D01*
X208089188Y-86017111D01*
X208166658Y-85990003D01*
X208309764Y-85900083D01*
X208429271Y-85780576D01*
X208519191Y-85637470D01*
X208546299Y-85560000D01*
X208089188Y-85560000D01*
X207589188Y-85560000D01*
X207132076Y-85560000D01*
X204727923Y-85560000D01*
X203894812Y-85560000D01*
X203832812Y-85543387D01*
X203787425Y-85498000D01*
X203770812Y-85436000D01*
X203770812Y-85184000D01*
X203787425Y-85122000D01*
X203832812Y-85076613D01*
X203894812Y-85060000D01*
X204727924Y-85060000D01*
X207132076Y-85060000D01*
X207589188Y-85060000D01*
X207589188Y-84602889D01*
X207589187Y-84602888D01*
X208089188Y-84602888D01*
X208089188Y-85060000D01*
X208546300Y-85060000D01*
X208546299Y-85059999D01*
X208519191Y-84982529D01*
X208429271Y-84839423D01*
X208309764Y-84719916D01*
X208166658Y-84629996D01*
X208089188Y-84602888D01*
X207589187Y-84602888D01*
X207511717Y-84629996D01*
X207368611Y-84719916D01*
X207249104Y-84839423D01*
X207159184Y-84982529D01*
X207132076Y-85059999D01*
X207132076Y-85060000D01*
X204727924Y-85060000D01*
X204727923Y-85059999D01*
X204700815Y-84982529D01*
X204610895Y-84839423D01*
X204491388Y-84719916D01*
X204348282Y-84629996D01*
X204257239Y-84598138D01*
X204201246Y-84558409D01*
X204174973Y-84494979D01*
X204186475Y-84427293D01*
X204232222Y-84376103D01*
X204255079Y-84361742D01*
X204371480Y-84245341D01*
X204440409Y-84135639D01*
X204479428Y-84096621D01*
X204531516Y-84078395D01*
X204625647Y-84067790D01*
X204781024Y-84013421D01*
X204920408Y-83925841D01*
X205036809Y-83809440D01*
X205063907Y-83766314D01*
X205108918Y-83723759D01*
X205168899Y-83708286D01*
X205228881Y-83723758D01*
X205273894Y-83766314D01*
X205339917Y-83871389D01*
X205459423Y-83990895D01*
X205602529Y-84080815D01*
X205679999Y-84107923D01*
X205680000Y-84107924D01*
X205680000Y-83650812D01*
X206180000Y-83650812D01*
X206180000Y-84107923D01*
X206257470Y-84080815D01*
X206400576Y-83990895D01*
X206520083Y-83871388D01*
X206610003Y-83728282D01*
X206637111Y-83650812D01*
X206180000Y-83650812D01*
X205680000Y-83650812D01*
X205680000Y-82693701D01*
X205658704Y-82678590D01*
X205606838Y-82653610D01*
X205570682Y-82600579D01*
X205567213Y-82590666D01*
X205567213Y-82590663D01*
X205566981Y-82590000D01*
X205954877Y-82590000D01*
X205973308Y-82753580D01*
X206027677Y-82908957D01*
X206115257Y-83048340D01*
X206143680Y-83076763D01*
X206170561Y-83116992D01*
X206176614Y-83147426D01*
X206182523Y-83153335D01*
X206239736Y-83169818D01*
X206371042Y-83252322D01*
X206526419Y-83306691D01*
X206690000Y-83325122D01*
X206853580Y-83306691D01*
X207008957Y-83252322D01*
X207148341Y-83164742D01*
X207264742Y-83048341D01*
X207352322Y-82908957D01*
X207406691Y-82753580D01*
X207425122Y-82590000D01*
X207407161Y-82430588D01*
X207406691Y-82426419D01*
X207352322Y-82271042D01*
X207264742Y-82131658D01*
X207148341Y-82015257D01*
X207008957Y-81927677D01*
X206853580Y-81873308D01*
X206690000Y-81854877D01*
X206526419Y-81873308D01*
X206371042Y-81927677D01*
X206231658Y-82015257D01*
X206115257Y-82131658D01*
X206027677Y-82271042D01*
X205973308Y-82426419D01*
X205954877Y-82590000D01*
X205566981Y-82590000D01*
X205512844Y-82435286D01*
X205434035Y-82309861D01*
X205425264Y-82295901D01*
X205308863Y-82179500D01*
X205169479Y-82091920D01*
X205014102Y-82037551D01*
X204850522Y-82019120D01*
X204686941Y-82037551D01*
X204531564Y-82091920D01*
X204392180Y-82179500D01*
X204275779Y-82295901D01*
X204188199Y-82435285D01*
X204133830Y-82590662D01*
X204127912Y-82643187D01*
X204109686Y-82695274D01*
X204070666Y-82734295D01*
X204003726Y-82776357D01*
X203887324Y-82892758D01*
X203818398Y-83002454D01*
X203779376Y-83041476D01*
X203727289Y-83059702D01*
X203633157Y-83070308D01*
X203477780Y-83124677D01*
X203338396Y-83212257D01*
X203221995Y-83328658D01*
X203134415Y-83468042D01*
X203080046Y-83623419D01*
X203061615Y-83787000D01*
X203080046Y-83950580D01*
X203134415Y-84105957D01*
X203197760Y-84206771D01*
X203216735Y-84269960D01*
X203200614Y-84333937D01*
X203153961Y-84380590D01*
X203089984Y-84396711D01*
X203026794Y-84377736D01*
X203019944Y-84373432D01*
X202978957Y-84347678D01*
X202978954Y-84347676D01*
X202823580Y-84293308D01*
X202660000Y-84274877D01*
X202496419Y-84293308D01*
X202341042Y-84347677D01*
X202201658Y-84435257D01*
X202085257Y-84551658D01*
X201997677Y-84691042D01*
X201943308Y-84846419D01*
X201938640Y-84887855D01*
X201916549Y-84945726D01*
X201869221Y-84985691D01*
X201808467Y-84997776D01*
X201749448Y-84978965D01*
X201706892Y-84933952D01*
X201691420Y-84873971D01*
X201691420Y-83308963D01*
X201710426Y-83242992D01*
X201789742Y-83116759D01*
X201799106Y-83089999D01*
X201844111Y-82961382D01*
X201846829Y-82937253D01*
X201868120Y-82880524D01*
X201913753Y-82840655D01*
X201972831Y-82827170D01*
X202031244Y-82843291D01*
X202075043Y-82885168D01*
X202104332Y-82931782D01*
X202220733Y-83048183D01*
X202360117Y-83135763D01*
X202515494Y-83190132D01*
X202679075Y-83208563D01*
X202842655Y-83190132D01*
X202998032Y-83135763D01*
X203137416Y-83048183D01*
X203253817Y-82931782D01*
X203341397Y-82792398D01*
X203395766Y-82637021D01*
X203414197Y-82473441D01*
X203399101Y-82339461D01*
X203395766Y-82309860D01*
X203341397Y-82154483D01*
X203253817Y-82015099D01*
X203137416Y-81898698D01*
X202998032Y-81811118D01*
X202842655Y-81756749D01*
X202679075Y-81738318D01*
X202515494Y-81756749D01*
X202360117Y-81811118D01*
X202220733Y-81898698D01*
X202104332Y-82015099D01*
X202016752Y-82154483D01*
X201962383Y-82309860D01*
X201959665Y-82333988D01*
X201938372Y-82390720D01*
X201892739Y-82430588D01*
X201833661Y-82444072D01*
X201775249Y-82427950D01*
X201731451Y-82386075D01*
X201710424Y-82352611D01*
X201691420Y-82286641D01*
X201691420Y-81120000D01*
X212394877Y-81120000D01*
X212413308Y-81283580D01*
X212467677Y-81438957D01*
X212555257Y-81578341D01*
X212671658Y-81694742D01*
X212811042Y-81782322D01*
X212966419Y-81836691D01*
X213130000Y-81855122D01*
X213293580Y-81836691D01*
X213448957Y-81782322D01*
X213588341Y-81694742D01*
X213704742Y-81578341D01*
X213792322Y-81438957D01*
X213846691Y-81283580D01*
X213865122Y-81120000D01*
X213846691Y-80956420D01*
X213843808Y-80948182D01*
X213792322Y-80801042D01*
X213704742Y-80661658D01*
X213588341Y-80545257D01*
X213448957Y-80457677D01*
X213293580Y-80403308D01*
X213130000Y-80384877D01*
X212966419Y-80403308D01*
X212811042Y-80457677D01*
X212671658Y-80545257D01*
X212555257Y-80661658D01*
X212467677Y-80801042D01*
X212413308Y-80956419D01*
X212394877Y-81120000D01*
X201691420Y-81120000D01*
X201691420Y-80114194D01*
X208439071Y-80114194D01*
X208457502Y-80277774D01*
X208511871Y-80433151D01*
X208599451Y-80572535D01*
X208715852Y-80688936D01*
X208855236Y-80776516D01*
X209010613Y-80830885D01*
X209174194Y-80849316D01*
X209337774Y-80830885D01*
X209491659Y-80777037D01*
X209546497Y-80770859D01*
X209598585Y-80789085D01*
X209731016Y-80872296D01*
X209886393Y-80926665D01*
X210049974Y-80945096D01*
X210213554Y-80926665D01*
X210368931Y-80872296D01*
X210508315Y-80784716D01*
X210624716Y-80668315D01*
X210712296Y-80528931D01*
X210766665Y-80373554D01*
X210785096Y-80209974D01*
X210775760Y-80127112D01*
X210766665Y-80046393D01*
X210712296Y-79891016D01*
X210624716Y-79751632D01*
X210508315Y-79635231D01*
X210368931Y-79547651D01*
X210213554Y-79493282D01*
X210049974Y-79474851D01*
X209886396Y-79493282D01*
X209732507Y-79547130D01*
X209677670Y-79553308D01*
X209625582Y-79535082D01*
X209493151Y-79451871D01*
X209337774Y-79397502D01*
X209174194Y-79379071D01*
X209010613Y-79397502D01*
X208855236Y-79451871D01*
X208715852Y-79539451D01*
X208599451Y-79655852D01*
X208511871Y-79795236D01*
X208457502Y-79950613D01*
X208439071Y-80114194D01*
X201691420Y-80114194D01*
X201691420Y-77517847D01*
X201710426Y-77451875D01*
X201761618Y-77406127D01*
X201829304Y-77394627D01*
X201892733Y-77420900D01*
X201932460Y-77476889D01*
X201957678Y-77548957D01*
X201957680Y-77548960D01*
X202045257Y-77688341D01*
X202161658Y-77804742D01*
X202301042Y-77892322D01*
X202456419Y-77946691D01*
X202620000Y-77965122D01*
X202783580Y-77946691D01*
X202938957Y-77892322D01*
X203078341Y-77804742D01*
X203194742Y-77688341D01*
X203277005Y-77557418D01*
X203323240Y-77514195D01*
X203384782Y-77499420D01*
X203445599Y-77516941D01*
X203489848Y-77562194D01*
X203506000Y-77623389D01*
X203506000Y-78038839D01*
X203486994Y-78104810D01*
X203407677Y-78231042D01*
X203353308Y-78386419D01*
X203334877Y-78550000D01*
X203353308Y-78713580D01*
X203407677Y-78868957D01*
X203495257Y-79008341D01*
X203611658Y-79124742D01*
X203751042Y-79212322D01*
X203906419Y-79266691D01*
X204069999Y-79285122D01*
X204069999Y-79285121D01*
X204070000Y-79285122D01*
X204164270Y-79274500D01*
X204231955Y-79286000D01*
X204283148Y-79331748D01*
X204375259Y-79478343D01*
X204491658Y-79594742D01*
X204631042Y-79682322D01*
X204786419Y-79736691D01*
X204950000Y-79755122D01*
X205113580Y-79736691D01*
X205268957Y-79682322D01*
X205408341Y-79594742D01*
X205524742Y-79478341D01*
X205612322Y-79338957D01*
X205666691Y-79183580D01*
X205685122Y-79020000D01*
X205666691Y-78856420D01*
X205650839Y-78811119D01*
X205612322Y-78701042D01*
X205524742Y-78561658D01*
X205408341Y-78445257D01*
X205268957Y-78357677D01*
X205113580Y-78303308D01*
X204949999Y-78284877D01*
X204855727Y-78295499D01*
X204788042Y-78283999D01*
X204736850Y-78238250D01*
X204653006Y-78104810D01*
X204634000Y-78038839D01*
X204634000Y-76966395D01*
X215361273Y-76966395D01*
X215379704Y-77129976D01*
X215434073Y-77285353D01*
X215521653Y-77424737D01*
X215638054Y-77541138D01*
X215777438Y-77628718D01*
X215932815Y-77683087D01*
X216096396Y-77701518D01*
X216259976Y-77683087D01*
X216415353Y-77628718D01*
X216554737Y-77541138D01*
X216671138Y-77424737D01*
X216758718Y-77285353D01*
X216813087Y-77129976D01*
X216823462Y-77037894D01*
X216845552Y-76980023D01*
X216892880Y-76940058D01*
X216953634Y-76927973D01*
X217012653Y-76946784D01*
X217101042Y-77002322D01*
X217256419Y-77056691D01*
X217419999Y-77075122D01*
X217419999Y-77075121D01*
X217420000Y-77075122D01*
X217583580Y-77056691D01*
X217738957Y-77002322D01*
X217878341Y-76914742D01*
X217994742Y-76798341D01*
X218082322Y-76658957D01*
X218136691Y-76503580D01*
X218155122Y-76340000D01*
X218153587Y-76326373D01*
X218150969Y-76303136D01*
X218157148Y-76248296D01*
X218186510Y-76201569D01*
X218233238Y-76172209D01*
X218266318Y-76168482D01*
X218266116Y-76166687D01*
X218443580Y-76146691D01*
X218598957Y-76092322D01*
X218738341Y-76004742D01*
X218854742Y-75888341D01*
X218942322Y-75748957D01*
X218996691Y-75593580D01*
X219015122Y-75430000D01*
X218996691Y-75266419D01*
X218942322Y-75111042D01*
X218854742Y-74971658D01*
X218828084Y-74945000D01*
X222583709Y-74945000D01*
X222603495Y-75133257D01*
X222661989Y-75313284D01*
X222756635Y-75477216D01*
X222883298Y-75617889D01*
X223036438Y-75729151D01*
X223209366Y-75806144D01*
X223394521Y-75845500D01*
X223394523Y-75845500D01*
X223583815Y-75845500D01*
X223583817Y-75845500D01*
X223707252Y-75819262D01*
X223768972Y-75806144D01*
X223941899Y-75729151D01*
X223971355Y-75707750D01*
X224095039Y-75617889D01*
X224109781Y-75601517D01*
X224221702Y-75477216D01*
X224316348Y-75313284D01*
X224374843Y-75133256D01*
X224394629Y-74945000D01*
X224374843Y-74756744D01*
X224334539Y-74632702D01*
X224316349Y-74576718D01*
X224312759Y-74570500D01*
X224261661Y-74481996D01*
X224245050Y-74420000D01*
X224261661Y-74358003D01*
X224316348Y-74263284D01*
X224374843Y-74083256D01*
X224394629Y-73895000D01*
X224374843Y-73706744D01*
X224322565Y-73545849D01*
X224316348Y-73526715D01*
X224221702Y-73362783D01*
X224095039Y-73222110D01*
X223941899Y-73110848D01*
X223768971Y-73033855D01*
X223583817Y-72994500D01*
X223583815Y-72994500D01*
X223394523Y-72994500D01*
X223394521Y-72994500D01*
X223209366Y-73033855D01*
X223036438Y-73110848D01*
X222883298Y-73222110D01*
X222756635Y-73362783D01*
X222661989Y-73526715D01*
X222603495Y-73706742D01*
X222583709Y-73894999D01*
X222603495Y-74083257D01*
X222661989Y-74263283D01*
X222716674Y-74358001D01*
X222733286Y-74420000D01*
X222716674Y-74481999D01*
X222661989Y-74576716D01*
X222603495Y-74756742D01*
X222583709Y-74945000D01*
X218828084Y-74945000D01*
X218738341Y-74855257D01*
X218598957Y-74767677D01*
X218443580Y-74713308D01*
X218280000Y-74694877D01*
X218116419Y-74713308D01*
X217961042Y-74767677D01*
X217821658Y-74855257D01*
X217705257Y-74971658D01*
X217617677Y-75111042D01*
X217563308Y-75266419D01*
X217544877Y-75429999D01*
X217549031Y-75466863D01*
X217542854Y-75521698D01*
X217513498Y-75568423D01*
X217466777Y-75597785D01*
X217433681Y-75601517D01*
X217433884Y-75603313D01*
X217256419Y-75623308D01*
X217101042Y-75677677D01*
X216961658Y-75765257D01*
X216845257Y-75881658D01*
X216757677Y-76021042D01*
X216703308Y-76176420D01*
X216692933Y-76268501D01*
X216670842Y-76326373D01*
X216623515Y-76366337D01*
X216562761Y-76378422D01*
X216503742Y-76359611D01*
X216415353Y-76304073D01*
X216259976Y-76249704D01*
X216096396Y-76231273D01*
X215932815Y-76249704D01*
X215777438Y-76304073D01*
X215638054Y-76391653D01*
X215521653Y-76508054D01*
X215434073Y-76647438D01*
X215379704Y-76802815D01*
X215361273Y-76966395D01*
X204634000Y-76966395D01*
X204634000Y-76155094D01*
X204635061Y-76138908D01*
X204638867Y-76109999D01*
X204633738Y-76071042D01*
X204619483Y-75962766D01*
X204562653Y-75825567D01*
X204531002Y-75784318D01*
X204472250Y-75707750D01*
X204449111Y-75689994D01*
X204436917Y-75679300D01*
X203390319Y-74632702D01*
X203363439Y-74592474D01*
X203354000Y-74545021D01*
X203354000Y-74093455D01*
X203371991Y-74029127D01*
X203420743Y-73983466D01*
X203486110Y-73969721D01*
X203549120Y-73991878D01*
X203652170Y-74064035D01*
X203866337Y-74163903D01*
X204094592Y-74225063D01*
X204330000Y-74245659D01*
X204565408Y-74225063D01*
X204793663Y-74163903D01*
X205007830Y-74064035D01*
X205201401Y-73928495D01*
X205368495Y-73761401D01*
X205432495Y-73670000D01*
X212944540Y-73670000D01*
X212964326Y-73858257D01*
X213022820Y-74038284D01*
X213117466Y-74202216D01*
X213244129Y-74342889D01*
X213397269Y-74454151D01*
X213570197Y-74531144D01*
X213755352Y-74570500D01*
X213755354Y-74570500D01*
X213944646Y-74570500D01*
X213944648Y-74570500D01*
X214096828Y-74538153D01*
X214129803Y-74531144D01*
X214282423Y-74463192D01*
X214350117Y-74453678D01*
X214412565Y-74481481D01*
X214450791Y-74538153D01*
X214502820Y-74698284D01*
X214597466Y-74862216D01*
X214724129Y-75002889D01*
X214877269Y-75114151D01*
X215050197Y-75191144D01*
X215235352Y-75230500D01*
X215235354Y-75230500D01*
X215424646Y-75230500D01*
X215424648Y-75230500D01*
X215557031Y-75202361D01*
X215609803Y-75191144D01*
X215782730Y-75114151D01*
X215787009Y-75111042D01*
X215935870Y-75002889D01*
X216062533Y-74862216D01*
X216157179Y-74698284D01*
X216178488Y-74632702D01*
X216215674Y-74518256D01*
X216235460Y-74330000D01*
X216215674Y-74141744D01*
X216170373Y-74002322D01*
X216157179Y-73961715D01*
X216062533Y-73797783D01*
X215935870Y-73657110D01*
X215782730Y-73545848D01*
X215609802Y-73468855D01*
X215424648Y-73429500D01*
X215424646Y-73429500D01*
X215235354Y-73429500D01*
X215235352Y-73429500D01*
X215050201Y-73468854D01*
X214897576Y-73536808D01*
X214829883Y-73546321D01*
X214767434Y-73518518D01*
X214729209Y-73461846D01*
X214677179Y-73301715D01*
X214582533Y-73137783D01*
X214455870Y-72997110D01*
X214302730Y-72885848D01*
X214129802Y-72808855D01*
X213944648Y-72769500D01*
X213944646Y-72769500D01*
X213755354Y-72769500D01*
X213755352Y-72769500D01*
X213570197Y-72808855D01*
X213397269Y-72885848D01*
X213244129Y-72997110D01*
X213117466Y-73137783D01*
X213022820Y-73301715D01*
X212964326Y-73481742D01*
X212944540Y-73670000D01*
X205432495Y-73670000D01*
X205504035Y-73567830D01*
X205603903Y-73353663D01*
X205665063Y-73125408D01*
X205685659Y-72890000D01*
X205665063Y-72654592D01*
X205612923Y-72459999D01*
X207714877Y-72459999D01*
X207733308Y-72623580D01*
X207787677Y-72778957D01*
X207875257Y-72918341D01*
X207991658Y-73034742D01*
X208131042Y-73122322D01*
X208286419Y-73176691D01*
X208450000Y-73195122D01*
X208613580Y-73176691D01*
X208768957Y-73122322D01*
X208908341Y-73034742D01*
X209024742Y-72918341D01*
X209112322Y-72778957D01*
X209166691Y-72623580D01*
X209185122Y-72460000D01*
X209181886Y-72431284D01*
X209166691Y-72296419D01*
X209112322Y-72141042D01*
X209024742Y-72001658D01*
X208908341Y-71885257D01*
X208768957Y-71797677D01*
X208613580Y-71743308D01*
X208450000Y-71724877D01*
X208286419Y-71743308D01*
X208131042Y-71797677D01*
X207991658Y-71885257D01*
X207875257Y-72001658D01*
X207787677Y-72141042D01*
X207733308Y-72296419D01*
X207714877Y-72459999D01*
X205612923Y-72459999D01*
X205603903Y-72426337D01*
X205504035Y-72212171D01*
X205368495Y-72018599D01*
X205201401Y-71851505D01*
X205015839Y-71721573D01*
X204976975Y-71677257D01*
X204962964Y-71620000D01*
X204976975Y-71562743D01*
X205015839Y-71518426D01*
X205201401Y-71388495D01*
X205368495Y-71221401D01*
X205504035Y-71027830D01*
X205603903Y-70813663D01*
X205665063Y-70585408D01*
X205680410Y-70410000D01*
X218784540Y-70410000D01*
X218804326Y-70598257D01*
X218862820Y-70778284D01*
X218957466Y-70942216D01*
X219084129Y-71082889D01*
X219237269Y-71194151D01*
X219410197Y-71271144D01*
X219595352Y-71310500D01*
X219595354Y-71310500D01*
X219784646Y-71310500D01*
X219784648Y-71310500D01*
X219909809Y-71283896D01*
X219969803Y-71271144D01*
X220142730Y-71194151D01*
X220295871Y-71082888D01*
X220422533Y-70942216D01*
X220517179Y-70778284D01*
X220575674Y-70598256D01*
X220595460Y-70410000D01*
X220575674Y-70221744D01*
X220517179Y-70041716D01*
X220517179Y-70041715D01*
X220422533Y-69877783D01*
X220295870Y-69737110D01*
X220142730Y-69625848D01*
X219969802Y-69548855D01*
X219784648Y-69509500D01*
X219784646Y-69509500D01*
X219595354Y-69509500D01*
X219595352Y-69509500D01*
X219410197Y-69548855D01*
X219237269Y-69625848D01*
X219084129Y-69737110D01*
X218957466Y-69877783D01*
X218862820Y-70041715D01*
X218804326Y-70221742D01*
X218784540Y-70410000D01*
X205680410Y-70410000D01*
X205685659Y-70350000D01*
X205665063Y-70114592D01*
X205603903Y-69886337D01*
X205504035Y-69672171D01*
X205368495Y-69478599D01*
X205201401Y-69311505D01*
X205015839Y-69181573D01*
X204976975Y-69137257D01*
X204962964Y-69080000D01*
X204976975Y-69022743D01*
X205015839Y-68978426D01*
X205201401Y-68848495D01*
X205368495Y-68681401D01*
X205504035Y-68487830D01*
X205603903Y-68273663D01*
X205665063Y-68045408D01*
X205685659Y-67810000D01*
X205665063Y-67574592D01*
X205603903Y-67346337D01*
X205504035Y-67132171D01*
X205368495Y-66938599D01*
X205201401Y-66771505D01*
X205015839Y-66641573D01*
X204976975Y-66597257D01*
X204962964Y-66540000D01*
X204976975Y-66482743D01*
X205015839Y-66438426D01*
X205201401Y-66308495D01*
X205368495Y-66141401D01*
X205504035Y-65947830D01*
X205603903Y-65733663D01*
X205665063Y-65505408D01*
X205685659Y-65270000D01*
X205665063Y-65034592D01*
X205603903Y-64806337D01*
X205504035Y-64592171D01*
X205368495Y-64398599D01*
X205201401Y-64231505D01*
X205015839Y-64101573D01*
X204976974Y-64057255D01*
X204962964Y-63999999D01*
X204976975Y-63942742D01*
X205015837Y-63898428D01*
X205201401Y-63768495D01*
X205368495Y-63601401D01*
X205504035Y-63407830D01*
X205603903Y-63193663D01*
X205665063Y-62965408D01*
X205685659Y-62730000D01*
X205665063Y-62494592D01*
X205603903Y-62266337D01*
X205504035Y-62052171D01*
X205368495Y-61858599D01*
X205246180Y-61736284D01*
X205214885Y-61683539D01*
X205212696Y-61622246D01*
X205240149Y-61567401D01*
X205290528Y-61532422D01*
X205422089Y-61483352D01*
X205537188Y-61397188D01*
X205623352Y-61282089D01*
X205673597Y-61147375D01*
X205680000Y-61087824D01*
X205680000Y-60440000D01*
X202980000Y-60440000D01*
X202980000Y-61087824D01*
X202986402Y-61147375D01*
X203036647Y-61282089D01*
X203122811Y-61397188D01*
X203237911Y-61483352D01*
X203369471Y-61532422D01*
X203419850Y-61567401D01*
X203447303Y-61622246D01*
X203445114Y-61683539D01*
X203413819Y-61736285D01*
X203291503Y-61858601D01*
X203155965Y-62052170D01*
X203056097Y-62266336D01*
X202994936Y-62494592D01*
X202974340Y-62729999D01*
X202994936Y-62965407D01*
X203039709Y-63132502D01*
X203056097Y-63193663D01*
X203155965Y-63407830D01*
X203291505Y-63601401D01*
X203458599Y-63768495D01*
X203644160Y-63898426D01*
X203683024Y-63942743D01*
X203697035Y-64000000D01*
X203683024Y-64057257D01*
X203644159Y-64101575D01*
X203458595Y-64231508D01*
X203291505Y-64398598D01*
X203155965Y-64592170D01*
X203056097Y-64806336D01*
X202994936Y-65034592D01*
X202974340Y-65270000D01*
X202994936Y-65505407D01*
X203040235Y-65674466D01*
X203040235Y-65738653D01*
X203008141Y-65794240D01*
X202423080Y-66379301D01*
X202410888Y-66389994D01*
X202387749Y-66407750D01*
X202352598Y-66453558D01*
X202352588Y-66453573D01*
X202297347Y-66525566D01*
X202240517Y-66662766D01*
X202221132Y-66809999D01*
X202224939Y-66838908D01*
X202226000Y-66855094D01*
X202226000Y-74784906D01*
X202224939Y-74801092D01*
X202221132Y-74830000D01*
X202224458Y-74855258D01*
X202240517Y-74977234D01*
X202297347Y-75114433D01*
X202311791Y-75133257D01*
X202356208Y-75191144D01*
X202356212Y-75191151D01*
X202386407Y-75230500D01*
X202387750Y-75232250D01*
X202404179Y-75244856D01*
X202410887Y-75250003D01*
X202423083Y-75260699D01*
X202780491Y-75618107D01*
X202809852Y-75664833D01*
X202816030Y-75719671D01*
X202797804Y-75771760D01*
X202758782Y-75810782D01*
X202751657Y-75815258D01*
X202635257Y-75931658D01*
X202547677Y-76071042D01*
X202493308Y-76226419D01*
X202474877Y-76389999D01*
X202476472Y-76404156D01*
X202470292Y-76458993D01*
X202440932Y-76505717D01*
X202394207Y-76535077D01*
X202301042Y-76567678D01*
X202161658Y-76655257D01*
X202045257Y-76771658D01*
X201957680Y-76911039D01*
X201957679Y-76911040D01*
X201957678Y-76911043D01*
X201932460Y-76983110D01*
X201892733Y-77039100D01*
X201829304Y-77065373D01*
X201761618Y-77053873D01*
X201710426Y-77008125D01*
X201691420Y-76942153D01*
X201691420Y-73892514D01*
X201692481Y-73876328D01*
X201696287Y-73847419D01*
X201693190Y-73823896D01*
X201676903Y-73700186D01*
X201620073Y-73562987D01*
X201606923Y-73545849D01*
X201606922Y-73545848D01*
X201606922Y-73545847D01*
X201529669Y-73445168D01*
X201506525Y-73427409D01*
X201494331Y-73416715D01*
X200347867Y-72270250D01*
X200323828Y-72236370D01*
X200312328Y-72196451D01*
X200306691Y-72146420D01*
X200252322Y-71991042D01*
X200164742Y-71851658D01*
X200048341Y-71735257D01*
X199908957Y-71647677D01*
X199744045Y-71589972D01*
X199700658Y-71563829D01*
X199671346Y-71522518D01*
X199661000Y-71472931D01*
X199661000Y-67812101D01*
X199662061Y-67795915D01*
X199665868Y-67767000D01*
X199646483Y-67619766D01*
X199589654Y-67482567D01*
X199521949Y-67394332D01*
X199521948Y-67394331D01*
X199499250Y-67364750D01*
X199476114Y-67346997D01*
X199463919Y-67336302D01*
X198507617Y-66380000D01*
X200174877Y-66380000D01*
X200193308Y-66543580D01*
X200247677Y-66698956D01*
X200335257Y-66838341D01*
X200451658Y-66954742D01*
X200591042Y-67042322D01*
X200746419Y-67096691D01*
X200910000Y-67115122D01*
X201073580Y-67096691D01*
X201228957Y-67042322D01*
X201368341Y-66954742D01*
X201484742Y-66838341D01*
X201513182Y-66793079D01*
X201572323Y-66698956D01*
X201626691Y-66543580D01*
X201645122Y-66380000D01*
X201626691Y-66216419D01*
X201572322Y-66061042D01*
X201484742Y-65921658D01*
X201368341Y-65805257D01*
X201228957Y-65717677D01*
X201073580Y-65663308D01*
X200910000Y-65644877D01*
X200746419Y-65663308D01*
X200591042Y-65717677D01*
X200451658Y-65805257D01*
X200335257Y-65921658D01*
X200247677Y-66061042D01*
X200193308Y-66216419D01*
X200174877Y-66380000D01*
X198507617Y-66380000D01*
X198357867Y-66230250D01*
X198333828Y-66196370D01*
X198322328Y-66156451D01*
X198316691Y-66106420D01*
X198262322Y-65951042D01*
X198174742Y-65811658D01*
X198058341Y-65695257D01*
X197918957Y-65607677D01*
X197763580Y-65553308D01*
X197600000Y-65534877D01*
X197436419Y-65553308D01*
X197281042Y-65607677D01*
X197141658Y-65695257D01*
X197025257Y-65811658D01*
X196937677Y-65951042D01*
X196883308Y-66106419D01*
X196864877Y-66270000D01*
X196883308Y-66433580D01*
X196937677Y-66588957D01*
X197025257Y-66728341D01*
X197141658Y-66844742D01*
X197281042Y-66932322D01*
X197436420Y-66986691D01*
X197486451Y-66992328D01*
X197526370Y-67003828D01*
X197560250Y-67027867D01*
X197763317Y-67230934D01*
X197794397Y-67282953D01*
X197797116Y-67343488D01*
X197770824Y-67398083D01*
X197721801Y-67433701D01*
X197661753Y-67441835D01*
X197600000Y-67434877D01*
X197436419Y-67453308D01*
X197281042Y-67507677D01*
X197141658Y-67595257D01*
X197025257Y-67711658D01*
X196937677Y-67851042D01*
X196883308Y-68006419D01*
X196864877Y-68170000D01*
X196883308Y-68333580D01*
X196937677Y-68488957D01*
X197025257Y-68628341D01*
X197141658Y-68744742D01*
X197281042Y-68832322D01*
X197436420Y-68886691D01*
X197486451Y-68892328D01*
X197526370Y-68903828D01*
X197560250Y-68927867D01*
X197775087Y-69142704D01*
X197808297Y-69202792D01*
X197804448Y-69271339D01*
X197764719Y-69327332D01*
X197701290Y-69353605D01*
X197526419Y-69373308D01*
X197371042Y-69427677D01*
X197231658Y-69515257D01*
X197115257Y-69631658D01*
X197027677Y-69771042D01*
X196973308Y-69926419D01*
X196954877Y-70090000D01*
X196973308Y-70253580D01*
X197027677Y-70408957D01*
X197115257Y-70548341D01*
X197231658Y-70664742D01*
X197371042Y-70752322D01*
X197526420Y-70806691D01*
X197576451Y-70812328D01*
X197616370Y-70823828D01*
X197650250Y-70847867D01*
X197799681Y-70997298D01*
X197826561Y-71037526D01*
X197836000Y-71084979D01*
X197836000Y-81641921D01*
X197826561Y-81689374D01*
X197799681Y-81729602D01*
X197797015Y-81732267D01*
X197709435Y-81871651D01*
X197655066Y-82027028D01*
X197636635Y-82190608D01*
X197655066Y-82354189D01*
X197709435Y-82509566D01*
X197797015Y-82648950D01*
X197913416Y-82765351D01*
X197918421Y-82768496D01*
X197957442Y-82807517D01*
X197975668Y-82859606D01*
X197969490Y-82914442D01*
X197932830Y-83019210D01*
X197923308Y-83046423D01*
X197904877Y-83210000D01*
X197923308Y-83373580D01*
X197977677Y-83528957D01*
X198065257Y-83668341D01*
X198181658Y-83784742D01*
X198321042Y-83872322D01*
X198476419Y-83926691D01*
X198639999Y-83945122D01*
X198639999Y-83945121D01*
X198640000Y-83945122D01*
X198803580Y-83926691D01*
X198918881Y-83886344D01*
X198987426Y-83882494D01*
X199047515Y-83915702D01*
X199080726Y-83975788D01*
X199077796Y-84028002D01*
X199079244Y-84028166D01*
X199059248Y-84205629D01*
X199077679Y-84369209D01*
X199132048Y-84524586D01*
X199219628Y-84663970D01*
X199336029Y-84780371D01*
X199475413Y-84867951D01*
X199630791Y-84922320D01*
X199735884Y-84934162D01*
X199791852Y-84954929D01*
X199831630Y-84999441D01*
X199846000Y-85057382D01*
X199846000Y-85263554D01*
X199832485Y-85319849D01*
X199794885Y-85363872D01*
X199741398Y-85386027D01*
X199683682Y-85381485D01*
X199634319Y-85351235D01*
X199628341Y-85345257D01*
X199488957Y-85257677D01*
X199333580Y-85203308D01*
X199170000Y-85184877D01*
X199006419Y-85203308D01*
X198851042Y-85257677D01*
X198711658Y-85345257D01*
X198595257Y-85461658D01*
X198507677Y-85601042D01*
X198453308Y-85756419D01*
X198434877Y-85920000D01*
X198453308Y-86083580D01*
X198507677Y-86238957D01*
X198595257Y-86378341D01*
X198711658Y-86494742D01*
X198851042Y-86582322D01*
X199006419Y-86636691D01*
X199170000Y-86655122D01*
X199333580Y-86636691D01*
X199488957Y-86582322D01*
X199628341Y-86494742D01*
X199628341Y-86494741D01*
X199634319Y-86488765D01*
X199683682Y-86458515D01*
X199741398Y-86453973D01*
X199794885Y-86476128D01*
X199832485Y-86520151D01*
X199846000Y-86576446D01*
X199846000Y-88381152D01*
X199836561Y-88428605D01*
X199809681Y-88468833D01*
X198028401Y-90250110D01*
X197968312Y-90283320D01*
X197899765Y-90279470D01*
X197853579Y-90263308D01*
X197690000Y-90244877D01*
X197526419Y-90263308D01*
X197371042Y-90317677D01*
X197231658Y-90405257D01*
X197115259Y-90521656D01*
X197053144Y-90620513D01*
X197004086Y-90665208D01*
X196939006Y-90678203D01*
X196876545Y-90655777D01*
X196840468Y-90611553D01*
X196839793Y-90611995D01*
X196835625Y-90605616D01*
X196834595Y-90604353D01*
X196834175Y-90603397D01*
X196834174Y-90603395D01*
X196834173Y-90603393D01*
X196698164Y-90395215D01*
X196529744Y-90212262D01*
X196475445Y-90169999D01*
X196333514Y-90059529D01*
X196333510Y-90059526D01*
X196333509Y-90059526D01*
X196114810Y-89941172D01*
X196114806Y-89941170D01*
X196114805Y-89941170D01*
X195879615Y-89860429D01*
X195634335Y-89819500D01*
X195385665Y-89819500D01*
X195140384Y-89860429D01*
X194905194Y-89941170D01*
X194686485Y-90059529D01*
X194490259Y-90212259D01*
X194490256Y-90212261D01*
X194490256Y-90212262D01*
X194321836Y-90395215D01*
X194276499Y-90464607D01*
X194185825Y-90603395D01*
X194105886Y-90785639D01*
X194085937Y-90831119D01*
X194049142Y-90976419D01*
X194024891Y-91072183D01*
X194004356Y-91320000D01*
X183150945Y-91320000D01*
X183156691Y-91303580D01*
X183175122Y-91140000D01*
X183167480Y-91072179D01*
X183156691Y-90976419D01*
X183102322Y-90821042D01*
X183014742Y-90681658D01*
X182898341Y-90565257D01*
X182758957Y-90477677D01*
X182603580Y-90423308D01*
X182440000Y-90404877D01*
X182276419Y-90423308D01*
X182121042Y-90477677D01*
X181981658Y-90565257D01*
X181865257Y-90681658D01*
X181777677Y-90821042D01*
X181723308Y-90976419D01*
X181704877Y-91139999D01*
X181098956Y-91139999D01*
X181146691Y-91003580D01*
X181165122Y-90840000D01*
X181147281Y-90681658D01*
X181146691Y-90676419D01*
X181092322Y-90521042D01*
X181004742Y-90381658D01*
X180888341Y-90265257D01*
X180748957Y-90177677D01*
X180593580Y-90123308D01*
X180430000Y-90104877D01*
X180266419Y-90123308D01*
X180111042Y-90177677D01*
X179971658Y-90265257D01*
X179855257Y-90381658D01*
X179767677Y-90521042D01*
X179713308Y-90676419D01*
X179694877Y-90840000D01*
X148520500Y-90840000D01*
X148520500Y-85770000D01*
X182054877Y-85770000D01*
X182073308Y-85933580D01*
X182127677Y-86088957D01*
X182215257Y-86228341D01*
X182331658Y-86344742D01*
X182471042Y-86432322D01*
X182626419Y-86486691D01*
X182789999Y-86505122D01*
X182789999Y-86505121D01*
X182790000Y-86505122D01*
X182953580Y-86486691D01*
X183108957Y-86432322D01*
X183248341Y-86344742D01*
X183364742Y-86228341D01*
X183444153Y-86101958D01*
X186942919Y-86101958D01*
X186961350Y-86265538D01*
X187015719Y-86420915D01*
X187103299Y-86560299D01*
X187219700Y-86676700D01*
X187359084Y-86764280D01*
X187514461Y-86818649D01*
X187531492Y-86820567D01*
X187598518Y-86828119D01*
X187661943Y-86854389D01*
X187686738Y-86889331D01*
X187690245Y-86887128D01*
X187785257Y-87038341D01*
X187901658Y-87154742D01*
X188041042Y-87242322D01*
X188196419Y-87296691D01*
X188359999Y-87315122D01*
X188359999Y-87315121D01*
X188360000Y-87315122D01*
X188523580Y-87296691D01*
X188678957Y-87242322D01*
X188818341Y-87154742D01*
X188934742Y-87038341D01*
X189022322Y-86898957D01*
X189076691Y-86743580D01*
X189095122Y-86580000D01*
X189083593Y-86477677D01*
X189076691Y-86416419D01*
X189022322Y-86261042D01*
X188934742Y-86121658D01*
X188818341Y-86005257D01*
X188678957Y-85917677D01*
X188523579Y-85863308D01*
X188439522Y-85853837D01*
X188376089Y-85827561D01*
X188351304Y-85792626D01*
X188347797Y-85794830D01*
X188252784Y-85643616D01*
X188136383Y-85527215D01*
X187996999Y-85439635D01*
X187841622Y-85385266D01*
X187678042Y-85366835D01*
X187514461Y-85385266D01*
X187359084Y-85439635D01*
X187219700Y-85527215D01*
X187103299Y-85643616D01*
X187015719Y-85783000D01*
X186961350Y-85938377D01*
X186942919Y-86101958D01*
X183444153Y-86101958D01*
X183452322Y-86088957D01*
X183506691Y-85933580D01*
X183525122Y-85770000D01*
X183519125Y-85716776D01*
X183506691Y-85606419D01*
X183452322Y-85451042D01*
X183364742Y-85311658D01*
X183248341Y-85195257D01*
X183108957Y-85107677D01*
X182953580Y-85053308D01*
X182790000Y-85034877D01*
X182626419Y-85053308D01*
X182471042Y-85107677D01*
X182331658Y-85195257D01*
X182215257Y-85311658D01*
X182127677Y-85451042D01*
X182073308Y-85606419D01*
X182054877Y-85770000D01*
X148520500Y-85770000D01*
X148520500Y-84000000D01*
X186034877Y-84000000D01*
X186053308Y-84163580D01*
X186107677Y-84318957D01*
X186195257Y-84458341D01*
X186311658Y-84574742D01*
X186451042Y-84662322D01*
X186606419Y-84716691D01*
X186770000Y-84735122D01*
X186933580Y-84716691D01*
X187088957Y-84662322D01*
X187228341Y-84574742D01*
X187344742Y-84458341D01*
X187432322Y-84318957D01*
X187486691Y-84163580D01*
X187505122Y-84000000D01*
X187489816Y-83864151D01*
X187486691Y-83836419D01*
X187432322Y-83681042D01*
X187344742Y-83541658D01*
X187228341Y-83425257D01*
X187088957Y-83337677D01*
X186933580Y-83283308D01*
X186770000Y-83264877D01*
X186606419Y-83283308D01*
X186451042Y-83337677D01*
X186311658Y-83425257D01*
X186195257Y-83541658D01*
X186107677Y-83681042D01*
X186053308Y-83836419D01*
X186034877Y-84000000D01*
X148520500Y-84000000D01*
X148520500Y-82086500D01*
X183744877Y-82086500D01*
X183763308Y-82250080D01*
X183817677Y-82405457D01*
X183905257Y-82544841D01*
X184021658Y-82661242D01*
X184161042Y-82748822D01*
X184316419Y-82803191D01*
X184480000Y-82821622D01*
X184643580Y-82803191D01*
X184798957Y-82748822D01*
X184938341Y-82661242D01*
X185054742Y-82544841D01*
X185142322Y-82405457D01*
X185196691Y-82250080D01*
X185215122Y-82086500D01*
X185198888Y-81942418D01*
X185196691Y-81922919D01*
X185142322Y-81767542D01*
X185137582Y-81759999D01*
X186864877Y-81759999D01*
X186883308Y-81923580D01*
X186937677Y-82078957D01*
X187025257Y-82218341D01*
X187141658Y-82334742D01*
X187281042Y-82422322D01*
X187436419Y-82476691D01*
X187600000Y-82495122D01*
X187763580Y-82476691D01*
X187918957Y-82422322D01*
X188058341Y-82334742D01*
X188174742Y-82218341D01*
X188262322Y-82078957D01*
X188316691Y-81923580D01*
X188335122Y-81760000D01*
X188332677Y-81738304D01*
X188316691Y-81596419D01*
X188262322Y-81441042D01*
X188174742Y-81301658D01*
X188058341Y-81185257D01*
X187918957Y-81097677D01*
X187763580Y-81043308D01*
X187600000Y-81024877D01*
X187436419Y-81043308D01*
X187281042Y-81097677D01*
X187141658Y-81185257D01*
X187025257Y-81301658D01*
X186937677Y-81441042D01*
X186883308Y-81596419D01*
X186864877Y-81759999D01*
X185137582Y-81759999D01*
X185054742Y-81628158D01*
X184938341Y-81511757D01*
X184798957Y-81424177D01*
X184643580Y-81369808D01*
X184480000Y-81351377D01*
X184316419Y-81369808D01*
X184161042Y-81424177D01*
X184021658Y-81511757D01*
X183905257Y-81628158D01*
X183817677Y-81767542D01*
X183763308Y-81922919D01*
X183744877Y-82086500D01*
X148520500Y-82086500D01*
X148520500Y-79710000D01*
X174604877Y-79710000D01*
X174623308Y-79873580D01*
X174677677Y-80028957D01*
X174765257Y-80168341D01*
X174881658Y-80284742D01*
X175021042Y-80372322D01*
X175176419Y-80426691D01*
X175339999Y-80445122D01*
X175339999Y-80445121D01*
X175340000Y-80445122D01*
X175503580Y-80426691D01*
X175658957Y-80372322D01*
X175798341Y-80284742D01*
X175914742Y-80168341D01*
X176002322Y-80028957D01*
X176056691Y-79873580D01*
X176075122Y-79710000D01*
X176060755Y-79582489D01*
X176056691Y-79546419D01*
X176002322Y-79391042D01*
X175914742Y-79251658D01*
X175798341Y-79135257D01*
X175658957Y-79047677D01*
X175503580Y-78993308D01*
X175340000Y-78974877D01*
X175176419Y-78993308D01*
X175021042Y-79047677D01*
X174881658Y-79135257D01*
X174765257Y-79251658D01*
X174677677Y-79391042D01*
X174623308Y-79546419D01*
X174604877Y-79710000D01*
X148520500Y-79710000D01*
X148520500Y-75065465D01*
X149668087Y-75065465D01*
X149671895Y-75068718D01*
X149889982Y-75202361D01*
X150126294Y-75300246D01*
X150375006Y-75359956D01*
X150630000Y-75380024D01*
X150884993Y-75359956D01*
X151133705Y-75300246D01*
X151370012Y-75202363D01*
X151588108Y-75068715D01*
X151591911Y-75065465D01*
X154748087Y-75065465D01*
X154751895Y-75068718D01*
X154969982Y-75202361D01*
X155206294Y-75300246D01*
X155455006Y-75359956D01*
X155710000Y-75380024D01*
X155964993Y-75359956D01*
X156213705Y-75300246D01*
X156450012Y-75202363D01*
X156668108Y-75068715D01*
X156671911Y-75065465D01*
X156671912Y-75065464D01*
X155710000Y-74103553D01*
X154748087Y-75065464D01*
X154748087Y-75065465D01*
X151591911Y-75065465D01*
X151591912Y-75065464D01*
X150630000Y-74103553D01*
X149668087Y-75065464D01*
X149668087Y-75065465D01*
X148520500Y-75065465D01*
X148520500Y-73750000D01*
X148999975Y-73750000D01*
X149020043Y-74004993D01*
X149079753Y-74253705D01*
X149177636Y-74490012D01*
X149311284Y-74708108D01*
X149314533Y-74711911D01*
X149314535Y-74711911D01*
X150276447Y-73750001D01*
X150983553Y-73750001D01*
X151945464Y-74711912D01*
X151945465Y-74711911D01*
X151948715Y-74708108D01*
X152082363Y-74490012D01*
X152180246Y-74253705D01*
X152239956Y-74004993D01*
X152260024Y-73750000D01*
X154079975Y-73750000D01*
X154100043Y-74004993D01*
X154159753Y-74253705D01*
X154257636Y-74490012D01*
X154391284Y-74708108D01*
X154394533Y-74711911D01*
X154394535Y-74711911D01*
X155356447Y-73750001D01*
X156063553Y-73750001D01*
X157025464Y-74711912D01*
X157025465Y-74711911D01*
X157028715Y-74708108D01*
X157162363Y-74490012D01*
X157260246Y-74253705D01*
X157319956Y-74004993D01*
X157340024Y-73750000D01*
X157319956Y-73495006D01*
X157260246Y-73246294D01*
X157162361Y-73009982D01*
X157028718Y-72791895D01*
X157025465Y-72788087D01*
X157025464Y-72788087D01*
X156063553Y-73750000D01*
X156063553Y-73750001D01*
X155356447Y-73750001D01*
X155356447Y-73749999D01*
X154394534Y-72788087D01*
X154394533Y-72788087D01*
X154391281Y-72791895D01*
X154257638Y-73009982D01*
X154159753Y-73246294D01*
X154100043Y-73495006D01*
X154079975Y-73750000D01*
X152260024Y-73750000D01*
X152239956Y-73495006D01*
X152180246Y-73246294D01*
X152082361Y-73009982D01*
X151948718Y-72791895D01*
X151945465Y-72788087D01*
X151945464Y-72788087D01*
X150983553Y-73750000D01*
X150983553Y-73750001D01*
X150276447Y-73750001D01*
X150276447Y-73750000D01*
X149314534Y-72788087D01*
X149314533Y-72788087D01*
X149311281Y-72791895D01*
X149177638Y-73009982D01*
X149079753Y-73246294D01*
X149020043Y-73495006D01*
X148999975Y-73750000D01*
X148520500Y-73750000D01*
X148520500Y-72434534D01*
X149668087Y-72434534D01*
X150630000Y-73396447D01*
X150630001Y-73396447D01*
X151591911Y-72434535D01*
X151591911Y-72434533D01*
X151588108Y-72431284D01*
X151370012Y-72297636D01*
X151133705Y-72199753D01*
X150884993Y-72140043D01*
X150630000Y-72119975D01*
X150375006Y-72140043D01*
X150126294Y-72199753D01*
X149889982Y-72297638D01*
X149671895Y-72431281D01*
X149668087Y-72434533D01*
X149668087Y-72434534D01*
X148520500Y-72434534D01*
X148520500Y-71210000D01*
X151639783Y-71210000D01*
X151658623Y-71449380D01*
X151714676Y-71682863D01*
X151762235Y-71797678D01*
X151806567Y-71904704D01*
X151932028Y-72109439D01*
X152087973Y-72292027D01*
X152270561Y-72447972D01*
X152475296Y-72573433D01*
X152632160Y-72638408D01*
X152697136Y-72665323D01*
X152770898Y-72683031D01*
X152930621Y-72721377D01*
X153170000Y-72740217D01*
X153409379Y-72721377D01*
X153642863Y-72665323D01*
X153864704Y-72573433D01*
X154069439Y-72447972D01*
X154085173Y-72434534D01*
X154748087Y-72434534D01*
X155710000Y-73396447D01*
X155710001Y-73396447D01*
X156671911Y-72434535D01*
X156671911Y-72434533D01*
X156668108Y-72431284D01*
X156450012Y-72297636D01*
X156213705Y-72199753D01*
X155964993Y-72140043D01*
X155710000Y-72119975D01*
X155455006Y-72140043D01*
X155206294Y-72199753D01*
X154969982Y-72297638D01*
X154751895Y-72431281D01*
X154748087Y-72434533D01*
X154748087Y-72434534D01*
X154085173Y-72434534D01*
X154252027Y-72292027D01*
X154407972Y-72109439D01*
X154533433Y-71904704D01*
X154625323Y-71682863D01*
X154681377Y-71449379D01*
X154700217Y-71210000D01*
X154681377Y-70970621D01*
X154671625Y-70930000D01*
X163984877Y-70930000D01*
X164003308Y-71093580D01*
X164057677Y-71248957D01*
X164145257Y-71388341D01*
X164261658Y-71504742D01*
X164401042Y-71592322D01*
X164556419Y-71646691D01*
X164720000Y-71665122D01*
X164883580Y-71646691D01*
X165038957Y-71592322D01*
X165069699Y-71573005D01*
X165135670Y-71554000D01*
X169255021Y-71554000D01*
X169302474Y-71563439D01*
X169342702Y-71590319D01*
X179032132Y-81279749D01*
X179056171Y-81313628D01*
X179067671Y-81353546D01*
X179073308Y-81403581D01*
X179127677Y-81558957D01*
X179215257Y-81698341D01*
X179331658Y-81814742D01*
X179471042Y-81902322D01*
X179626419Y-81956691D01*
X179790000Y-81975122D01*
X179953580Y-81956691D01*
X180108957Y-81902322D01*
X180248341Y-81814742D01*
X180364742Y-81698341D01*
X180452322Y-81558957D01*
X180506691Y-81403580D01*
X180525122Y-81240000D01*
X180518954Y-81185257D01*
X180506691Y-81076419D01*
X180452322Y-80921042D01*
X180364742Y-80781658D01*
X180248341Y-80665257D01*
X180108957Y-80577677D01*
X179953581Y-80523308D01*
X179903546Y-80517671D01*
X179863628Y-80506171D01*
X179829749Y-80482132D01*
X178647617Y-79300000D01*
X191454356Y-79300000D01*
X191474891Y-79547816D01*
X191474891Y-79547819D01*
X191474892Y-79547821D01*
X191535937Y-79788881D01*
X191580319Y-79890061D01*
X191635825Y-80016604D01*
X191635827Y-80016607D01*
X191771836Y-80224785D01*
X191940256Y-80407738D01*
X191940259Y-80407740D01*
X192136485Y-80560470D01*
X192136487Y-80560471D01*
X192136491Y-80560474D01*
X192355190Y-80678828D01*
X192590386Y-80759571D01*
X192835665Y-80800500D01*
X193084335Y-80800500D01*
X193329614Y-80759571D01*
X193564810Y-80678828D01*
X193783509Y-80560474D01*
X193979744Y-80407738D01*
X194148164Y-80224785D01*
X194284173Y-80016607D01*
X194384063Y-79788881D01*
X194445108Y-79547821D01*
X194465643Y-79300000D01*
X194445108Y-79052179D01*
X194384063Y-78811119D01*
X194284173Y-78583393D01*
X194148164Y-78375215D01*
X193979744Y-78192262D01*
X193957612Y-78175036D01*
X193783514Y-78039529D01*
X193783510Y-78039526D01*
X193783509Y-78039526D01*
X193564810Y-77921172D01*
X193564806Y-77921170D01*
X193564805Y-77921170D01*
X193329615Y-77840429D01*
X193084335Y-77799500D01*
X192835665Y-77799500D01*
X192590384Y-77840429D01*
X192355194Y-77921170D01*
X192355190Y-77921171D01*
X192355190Y-77921172D01*
X192325037Y-77937490D01*
X192136485Y-78039529D01*
X191940259Y-78192259D01*
X191940256Y-78192261D01*
X191940256Y-78192262D01*
X191771836Y-78375215D01*
X191726499Y-78444607D01*
X191635825Y-78583395D01*
X191545780Y-78788678D01*
X191535937Y-78811119D01*
X191489800Y-78993308D01*
X191474891Y-79052183D01*
X191454356Y-79300000D01*
X178647617Y-79300000D01*
X177285107Y-77937490D01*
X177255746Y-77890763D01*
X177249568Y-77835924D01*
X177267795Y-77783836D01*
X177306812Y-77744819D01*
X177418341Y-77674742D01*
X177534742Y-77558341D01*
X177622322Y-77418957D01*
X177676691Y-77263580D01*
X177695122Y-77100000D01*
X177691338Y-77066420D01*
X177676691Y-76936419D01*
X177622322Y-76781042D01*
X177543006Y-76654810D01*
X177524000Y-76588839D01*
X177524000Y-76200000D01*
X179834877Y-76200000D01*
X179853308Y-76363580D01*
X179907677Y-76518957D01*
X179995257Y-76658341D01*
X180111658Y-76774742D01*
X180251042Y-76862322D01*
X180406419Y-76916691D01*
X180570000Y-76935122D01*
X180733580Y-76916691D01*
X180888957Y-76862322D01*
X181028341Y-76774742D01*
X181144742Y-76658341D01*
X181232322Y-76518957D01*
X181286691Y-76363580D01*
X181305122Y-76200000D01*
X181297179Y-76129500D01*
X181286691Y-76036419D01*
X181232322Y-75881042D01*
X181144742Y-75741658D01*
X181028341Y-75625257D01*
X180888957Y-75537677D01*
X180733580Y-75483308D01*
X180570000Y-75464877D01*
X180406419Y-75483308D01*
X180251042Y-75537677D01*
X180111658Y-75625257D01*
X179995257Y-75741658D01*
X179907677Y-75881042D01*
X179853308Y-76036419D01*
X179834877Y-76200000D01*
X177524000Y-76200000D01*
X177524000Y-73745101D01*
X177525061Y-73728915D01*
X177526453Y-73718341D01*
X177528868Y-73700000D01*
X177509483Y-73552766D01*
X177452654Y-73415567D01*
X177384949Y-73327332D01*
X177384948Y-73327331D01*
X177362250Y-73297750D01*
X177339114Y-73279997D01*
X177326919Y-73269302D01*
X177317616Y-73259999D01*
X183634877Y-73259999D01*
X183653308Y-73423580D01*
X183707677Y-73578957D01*
X183795257Y-73718341D01*
X183911658Y-73834742D01*
X184051042Y-73922322D01*
X184206419Y-73976691D01*
X184370000Y-73995122D01*
X184533580Y-73976691D01*
X184688957Y-73922322D01*
X184828341Y-73834742D01*
X184944742Y-73718341D01*
X185032322Y-73578957D01*
X185058962Y-73502822D01*
X185092344Y-73452253D01*
X185145704Y-73423538D01*
X185206301Y-73423537D01*
X185259662Y-73452252D01*
X185293044Y-73502824D01*
X185347677Y-73658957D01*
X185435257Y-73798341D01*
X185551658Y-73914742D01*
X185691042Y-74002322D01*
X185846419Y-74056691D01*
X186010000Y-74075122D01*
X186173580Y-74056691D01*
X186328957Y-74002322D01*
X186468341Y-73914742D01*
X186584742Y-73798341D01*
X186672322Y-73658957D01*
X186726691Y-73503580D01*
X186745122Y-73340000D01*
X186740808Y-73301716D01*
X186726691Y-73176419D01*
X186672322Y-73021042D01*
X186584742Y-72881658D01*
X186468341Y-72765257D01*
X186328957Y-72677677D01*
X186173580Y-72623308D01*
X186010000Y-72604877D01*
X185846419Y-72623308D01*
X185691042Y-72677677D01*
X185551658Y-72765257D01*
X185435257Y-72881658D01*
X185347678Y-73021041D01*
X185321037Y-73097176D01*
X185287654Y-73147747D01*
X185234293Y-73176462D01*
X185173697Y-73176461D01*
X185120337Y-73147747D01*
X185086954Y-73097174D01*
X185086691Y-73096423D01*
X185086691Y-73096420D01*
X185032322Y-72941043D01*
X184995008Y-72881658D01*
X184944742Y-72801658D01*
X184828341Y-72685257D01*
X184688957Y-72597677D01*
X184533580Y-72543308D01*
X184370000Y-72524877D01*
X184206419Y-72543308D01*
X184051042Y-72597677D01*
X183911658Y-72685257D01*
X183795257Y-72801658D01*
X183707677Y-72941042D01*
X183653308Y-73096419D01*
X183634877Y-73259999D01*
X177317616Y-73259999D01*
X174059116Y-70001499D01*
X183634877Y-70001499D01*
X183653308Y-70165079D01*
X183707677Y-70320456D01*
X183795257Y-70459840D01*
X183911658Y-70576241D01*
X184051042Y-70663821D01*
X184206419Y-70718190D01*
X184370000Y-70736621D01*
X184533580Y-70718190D01*
X184688957Y-70663821D01*
X184828341Y-70576241D01*
X184944742Y-70459840D01*
X185032322Y-70320456D01*
X185086691Y-70165079D01*
X185105122Y-70001499D01*
X185091183Y-69877783D01*
X185086691Y-69837918D01*
X185032322Y-69682541D01*
X184944742Y-69543157D01*
X184828341Y-69426756D01*
X184688957Y-69339176D01*
X184533580Y-69284807D01*
X184370000Y-69266376D01*
X184206419Y-69284807D01*
X184051042Y-69339176D01*
X183911658Y-69426756D01*
X183795257Y-69543157D01*
X183707677Y-69682541D01*
X183653308Y-69837918D01*
X183634877Y-70001499D01*
X174059116Y-70001499D01*
X172059116Y-68001499D01*
X185254877Y-68001499D01*
X185273308Y-68165079D01*
X185327677Y-68320456D01*
X185415257Y-68459840D01*
X185531658Y-68576241D01*
X185671042Y-68663821D01*
X185826419Y-68718190D01*
X185990000Y-68736621D01*
X186153580Y-68718190D01*
X186308957Y-68663821D01*
X186448341Y-68576241D01*
X186564742Y-68459840D01*
X186652322Y-68320456D01*
X186706691Y-68165079D01*
X186725122Y-68001499D01*
X186706691Y-67837919D01*
X186701233Y-67822322D01*
X186652322Y-67682541D01*
X186564742Y-67543157D01*
X186448341Y-67426756D01*
X186308957Y-67339176D01*
X186153580Y-67284807D01*
X185990000Y-67266376D01*
X185826419Y-67284807D01*
X185671042Y-67339176D01*
X185531658Y-67426756D01*
X185415257Y-67543157D01*
X185327677Y-67682541D01*
X185273308Y-67837918D01*
X185254877Y-68001499D01*
X172059116Y-68001499D01*
X170850696Y-66793079D01*
X170840000Y-66780883D01*
X170822249Y-66757749D01*
X170745631Y-66698958D01*
X170745628Y-66698957D01*
X170704433Y-66667347D01*
X170567234Y-66610517D01*
X170550104Y-66608261D01*
X170420000Y-66591132D01*
X170394519Y-66594487D01*
X170391089Y-66594939D01*
X170374906Y-66596000D01*
X165341161Y-66596000D01*
X165275190Y-66576994D01*
X165148957Y-66497677D01*
X164993580Y-66443308D01*
X164830000Y-66424877D01*
X164666419Y-66443308D01*
X164511042Y-66497677D01*
X164371658Y-66585257D01*
X164255257Y-66701658D01*
X164167677Y-66841042D01*
X164113308Y-66996419D01*
X164094877Y-67159999D01*
X164113308Y-67323580D01*
X164167677Y-67478957D01*
X164255257Y-67618341D01*
X164371658Y-67734742D01*
X164511042Y-67822322D01*
X164666419Y-67876691D01*
X164830000Y-67895122D01*
X164993580Y-67876691D01*
X165148957Y-67822322D01*
X165190984Y-67795915D01*
X165275190Y-67743006D01*
X165341161Y-67724000D01*
X170135021Y-67724000D01*
X170182474Y-67733439D01*
X170222702Y-67760319D01*
X176359681Y-73897298D01*
X176386561Y-73937526D01*
X176396000Y-73984979D01*
X176396000Y-76588839D01*
X176376994Y-76654811D01*
X176315183Y-76753182D01*
X176276161Y-76792204D01*
X176224072Y-76810430D01*
X176169234Y-76804252D01*
X176122508Y-76774891D01*
X169970696Y-70623079D01*
X169960000Y-70610883D01*
X169942249Y-70587749D01*
X169864058Y-70527751D01*
X169864055Y-70527750D01*
X169824433Y-70497347D01*
X169687234Y-70440517D01*
X169670104Y-70438261D01*
X169540000Y-70421132D01*
X169514519Y-70424487D01*
X169511089Y-70424939D01*
X169494906Y-70426000D01*
X165300445Y-70426000D01*
X165252992Y-70416561D01*
X165212763Y-70389680D01*
X165178340Y-70355257D01*
X165038957Y-70267677D01*
X164883580Y-70213308D01*
X164720000Y-70194877D01*
X164556419Y-70213308D01*
X164401042Y-70267677D01*
X164261658Y-70355257D01*
X164145257Y-70471658D01*
X164057677Y-70611042D01*
X164003308Y-70766419D01*
X163984877Y-70930000D01*
X154671625Y-70930000D01*
X154642021Y-70806691D01*
X154625323Y-70737136D01*
X154573092Y-70611042D01*
X154533433Y-70515296D01*
X154407972Y-70310561D01*
X154252027Y-70127973D01*
X154085172Y-69985465D01*
X154748087Y-69985465D01*
X154751895Y-69988718D01*
X154969982Y-70122361D01*
X155206294Y-70220246D01*
X155455006Y-70279956D01*
X155710000Y-70300024D01*
X155964993Y-70279956D01*
X156213705Y-70220246D01*
X156450012Y-70122363D01*
X156668108Y-69988715D01*
X156671911Y-69985465D01*
X156671912Y-69985464D01*
X155710000Y-69023553D01*
X154748087Y-69985464D01*
X154748087Y-69985465D01*
X154085172Y-69985465D01*
X154069439Y-69972028D01*
X153864704Y-69846567D01*
X153799727Y-69819652D01*
X153642863Y-69754676D01*
X153409380Y-69698623D01*
X153170000Y-69679783D01*
X152930619Y-69698623D01*
X152697136Y-69754676D01*
X152475296Y-69846567D01*
X152270560Y-69972028D01*
X152087973Y-70127973D01*
X151932028Y-70310560D01*
X151806567Y-70515296D01*
X151714676Y-70737136D01*
X151658623Y-70970619D01*
X151639783Y-71210000D01*
X148520500Y-71210000D01*
X148520500Y-69985465D01*
X149668087Y-69985465D01*
X149671895Y-69988718D01*
X149889982Y-70122361D01*
X150126294Y-70220246D01*
X150375006Y-70279956D01*
X150630000Y-70300024D01*
X150884993Y-70279956D01*
X151133705Y-70220246D01*
X151370012Y-70122363D01*
X151588108Y-69988715D01*
X151591911Y-69985465D01*
X151591912Y-69985464D01*
X150630000Y-69023553D01*
X149668087Y-69985464D01*
X149668087Y-69985465D01*
X148520500Y-69985465D01*
X148520500Y-68670000D01*
X148999975Y-68670000D01*
X149020043Y-68924993D01*
X149079753Y-69173705D01*
X149177636Y-69410012D01*
X149311284Y-69628108D01*
X149314533Y-69631911D01*
X149314535Y-69631911D01*
X150276447Y-68670001D01*
X150983553Y-68670001D01*
X151945464Y-69631912D01*
X151945465Y-69631911D01*
X151948715Y-69628108D01*
X152082363Y-69410012D01*
X152180246Y-69173705D01*
X152239956Y-68924993D01*
X152260024Y-68670000D01*
X154079975Y-68670000D01*
X154100043Y-68924993D01*
X154159753Y-69173705D01*
X154257636Y-69410012D01*
X154391284Y-69628108D01*
X154394533Y-69631911D01*
X154394535Y-69631911D01*
X155356447Y-68670001D01*
X156063553Y-68670001D01*
X157025464Y-69631912D01*
X157025465Y-69631911D01*
X157028715Y-69628108D01*
X157162363Y-69410012D01*
X157260246Y-69173705D01*
X157319956Y-68924993D01*
X157340024Y-68670000D01*
X157319956Y-68415006D01*
X157260246Y-68166294D01*
X157162361Y-67929982D01*
X157028718Y-67711895D01*
X157025465Y-67708087D01*
X157025464Y-67708087D01*
X156063553Y-68670000D01*
X156063553Y-68670001D01*
X155356447Y-68670001D01*
X155356447Y-68669999D01*
X154394534Y-67708087D01*
X154394533Y-67708087D01*
X154391281Y-67711895D01*
X154257638Y-67929982D01*
X154159753Y-68166294D01*
X154100043Y-68415006D01*
X154079975Y-68670000D01*
X152260024Y-68670000D01*
X152239956Y-68415006D01*
X152180246Y-68166294D01*
X152082361Y-67929982D01*
X151948718Y-67711895D01*
X151945465Y-67708087D01*
X151945464Y-67708087D01*
X150983553Y-68670000D01*
X150983553Y-68670001D01*
X150276447Y-68670001D01*
X150276447Y-68670000D01*
X149314534Y-67708087D01*
X149314533Y-67708087D01*
X149311281Y-67711895D01*
X149177638Y-67929982D01*
X149079753Y-68166294D01*
X149020043Y-68415006D01*
X148999975Y-68670000D01*
X148520500Y-68670000D01*
X148520500Y-67354534D01*
X149668087Y-67354534D01*
X150630000Y-68316447D01*
X150630001Y-68316447D01*
X151591911Y-67354535D01*
X151591911Y-67354534D01*
X154748087Y-67354534D01*
X155710000Y-68316447D01*
X155710001Y-68316447D01*
X156671911Y-67354535D01*
X156671911Y-67354533D01*
X156668108Y-67351284D01*
X156450012Y-67217636D01*
X156213705Y-67119753D01*
X155964993Y-67060043D01*
X155710000Y-67039975D01*
X155455006Y-67060043D01*
X155206294Y-67119753D01*
X154969982Y-67217638D01*
X154751895Y-67351281D01*
X154748087Y-67354533D01*
X154748087Y-67354534D01*
X151591911Y-67354534D01*
X151591911Y-67354533D01*
X151588108Y-67351284D01*
X151370012Y-67217636D01*
X151133705Y-67119753D01*
X150884993Y-67060043D01*
X150630000Y-67039975D01*
X150375006Y-67060043D01*
X150126294Y-67119753D01*
X149889982Y-67217638D01*
X149671895Y-67351281D01*
X149668087Y-67354533D01*
X149668087Y-67354534D01*
X148520500Y-67354534D01*
X148520500Y-66001498D01*
X182504877Y-66001498D01*
X182523308Y-66165079D01*
X182577677Y-66320456D01*
X182665257Y-66459840D01*
X182781658Y-66576241D01*
X182921042Y-66663821D01*
X183076419Y-66718190D01*
X183240000Y-66736621D01*
X183403580Y-66718190D01*
X183558957Y-66663821D01*
X183698341Y-66576241D01*
X183814742Y-66459840D01*
X183902322Y-66320456D01*
X183956691Y-66165079D01*
X183975122Y-66001499D01*
X183956691Y-65837919D01*
X183947502Y-65811659D01*
X183902322Y-65682541D01*
X183814742Y-65543157D01*
X183698341Y-65426756D01*
X183558957Y-65339176D01*
X183403580Y-65284807D01*
X183240000Y-65266376D01*
X183076419Y-65284807D01*
X182921042Y-65339176D01*
X182781658Y-65426756D01*
X182665257Y-65543157D01*
X182577677Y-65682541D01*
X182523308Y-65837918D01*
X182504877Y-66001498D01*
X148520500Y-66001498D01*
X148520500Y-62411932D01*
X148524997Y-62385465D01*
X148521279Y-62352459D01*
X148520500Y-62338578D01*
X148520500Y-62334211D01*
X148519678Y-62330610D01*
X148519529Y-62329957D01*
X148517199Y-62316251D01*
X148514116Y-62288876D01*
X148514115Y-62288874D01*
X148513480Y-62283237D01*
X148508828Y-62272006D01*
X148504307Y-62266337D01*
X148488113Y-62246030D01*
X148480068Y-62234691D01*
X148477748Y-62230999D01*
X148474655Y-62227906D01*
X148465395Y-62217544D01*
X148444687Y-62191577D01*
X148422788Y-62176039D01*
X146186749Y-59940000D01*
X202980000Y-59940000D01*
X204080000Y-59940000D01*
X204080000Y-58840000D01*
X204580000Y-58840000D01*
X204580000Y-59940000D01*
X205680000Y-59940000D01*
X205680000Y-59292176D01*
X205673597Y-59232624D01*
X205623352Y-59097910D01*
X205537188Y-58982811D01*
X205422089Y-58896647D01*
X205287375Y-58846402D01*
X205227824Y-58840000D01*
X204580000Y-58840000D01*
X204080000Y-58840000D01*
X203432176Y-58840000D01*
X203372624Y-58846402D01*
X203237910Y-58896647D01*
X203122811Y-58982811D01*
X203036647Y-59097910D01*
X202986402Y-59232624D01*
X202980000Y-59292176D01*
X202980000Y-59940000D01*
X146186749Y-59940000D01*
X143580019Y-57333270D01*
X143553139Y-57293042D01*
X143543700Y-57245589D01*
X143543700Y-52635158D01*
X143544964Y-52628402D01*
X143544545Y-52609764D01*
X143544546Y-52609762D01*
X143543730Y-52573534D01*
X143543700Y-52570747D01*
X143543700Y-52567045D01*
X143543711Y-52565371D01*
X143546247Y-52377502D01*
X145616857Y-52377502D01*
X145631030Y-52631972D01*
X145681324Y-52881817D01*
X145762896Y-53111209D01*
X145766716Y-53121951D01*
X145885460Y-53347462D01*
X146035131Y-53553746D01*
X146212674Y-53736594D01*
X146266453Y-53778084D01*
X146414458Y-53892267D01*
X146414461Y-53892268D01*
X146414464Y-53892271D01*
X146636382Y-54017599D01*
X146873896Y-54110020D01*
X147122158Y-54167647D01*
X147225106Y-54176436D01*
X147241002Y-54178992D01*
X147241751Y-54178998D01*
X147241752Y-54178999D01*
X147252011Y-54179092D01*
X147261412Y-54179535D01*
X147288865Y-54181877D01*
X147288865Y-54181876D01*
X147296946Y-54182566D01*
X147316166Y-54179675D01*
X149951503Y-54203639D01*
X149954351Y-54204221D01*
X149976475Y-54204221D01*
X150014875Y-54204221D01*
X150016008Y-54204226D01*
X150037128Y-54204419D01*
X150037130Y-54204418D01*
X150048486Y-54204522D01*
X150051662Y-54204178D01*
X150145132Y-54204181D01*
X150400061Y-54167533D01*
X150647179Y-54094978D01*
X150881456Y-53987992D01*
X151098122Y-53848754D01*
X151292767Y-53680097D01*
X151461428Y-53485456D01*
X151600672Y-53268793D01*
X151707663Y-53034519D01*
X151780224Y-52787402D01*
X151816878Y-52532475D01*
X151816878Y-52428774D01*
X221839158Y-52428774D01*
X221872000Y-52683200D01*
X221941070Y-52930259D01*
X222044937Y-53164826D01*
X222181441Y-53382027D01*
X222269895Y-53485913D01*
X222347748Y-53577349D01*
X222540404Y-53746739D01*
X222755407Y-53886677D01*
X222988292Y-53994258D01*
X223234223Y-54067246D01*
X223488091Y-54104127D01*
X223614236Y-54104219D01*
X223615621Y-54104228D01*
X227401399Y-54153394D01*
X227405416Y-54154221D01*
X227426475Y-54154221D01*
X227464319Y-54154221D01*
X227465935Y-54154231D01*
X227486347Y-54154498D01*
X227486348Y-54154497D01*
X227496735Y-54154633D01*
X227501015Y-54154178D01*
X227595132Y-54154181D01*
X227850061Y-54117533D01*
X228097179Y-54044978D01*
X228331456Y-53937992D01*
X228548122Y-53798754D01*
X228742767Y-53630097D01*
X228911428Y-53435456D01*
X229050672Y-53218793D01*
X229157663Y-52984519D01*
X229230224Y-52737402D01*
X229266878Y-52482475D01*
X229266878Y-52224925D01*
X229230224Y-51969998D01*
X229157663Y-51722881D01*
X229104167Y-51605743D01*
X229050674Y-51488610D01*
X228979810Y-51378346D01*
X228911428Y-51271944D01*
X228742767Y-51077303D01*
X228548122Y-50908646D01*
X228331456Y-50769408D01*
X228331451Y-50769405D01*
X228331450Y-50769405D01*
X228148234Y-50685737D01*
X228097179Y-50662422D01*
X227850061Y-50589867D01*
X227850059Y-50589866D01*
X227850057Y-50589866D01*
X227595132Y-50553219D01*
X227501841Y-50553220D01*
X227501776Y-50553214D01*
X227464800Y-50553221D01*
X227464777Y-50553222D01*
X227464775Y-50553222D01*
X227401999Y-50553223D01*
X227401941Y-50553235D01*
X223672788Y-50554013D01*
X223668919Y-50553953D01*
X223544495Y-50550095D01*
X223289580Y-50578901D01*
X223041457Y-50644050D01*
X222805275Y-50744187D01*
X222585942Y-50877231D01*
X222388006Y-51040425D01*
X222215582Y-51230375D01*
X222072259Y-51443130D01*
X221961001Y-51674282D01*
X221884127Y-51919025D01*
X221843228Y-52172280D01*
X221839158Y-52428774D01*
X151816878Y-52428774D01*
X151816878Y-52274925D01*
X151780224Y-52019998D01*
X151707663Y-51772881D01*
X151620077Y-51581097D01*
X151600674Y-51538610D01*
X151568538Y-51488607D01*
X151461428Y-51321944D01*
X151292767Y-51127303D01*
X151098122Y-50958646D01*
X150881456Y-50819408D01*
X150881451Y-50819405D01*
X150881450Y-50819405D01*
X150647183Y-50712424D01*
X150647184Y-50712424D01*
X150647179Y-50712422D01*
X150400061Y-50639867D01*
X150400059Y-50639866D01*
X150400057Y-50639866D01*
X150145132Y-50603219D01*
X150051324Y-50603220D01*
X150048404Y-50602906D01*
X150015980Y-50603216D01*
X150014801Y-50603222D01*
X149954518Y-50603223D01*
X149951535Y-50603831D01*
X147371404Y-50628468D01*
X147359125Y-50626425D01*
X147312523Y-50628913D01*
X147307098Y-50629083D01*
X147286769Y-50629277D01*
X147276572Y-50630751D01*
X147178192Y-50636014D01*
X146928231Y-50685735D01*
X146687904Y-50770574D01*
X146462120Y-50888799D01*
X146255492Y-51037996D01*
X146072236Y-51215120D01*
X145916099Y-51416549D01*
X145790260Y-51638181D01*
X145697292Y-51875484D01*
X145639097Y-52123610D01*
X145616857Y-52377502D01*
X143546247Y-52377502D01*
X143547200Y-52306890D01*
X143549701Y-52121636D01*
X143550140Y-52112769D01*
X143588037Y-51670580D01*
X143589118Y-51661722D01*
X143616608Y-51488607D01*
X143658725Y-51223382D01*
X143660440Y-51214636D01*
X143761392Y-50782465D01*
X143763718Y-50773906D01*
X143895513Y-50350056D01*
X143898446Y-50341697D01*
X144060382Y-49928438D01*
X144063925Y-49920275D01*
X144255160Y-49519751D01*
X144259265Y-49511894D01*
X144478826Y-49126139D01*
X144483493Y-49118587D01*
X144730217Y-48749651D01*
X144735417Y-48742450D01*
X145008047Y-48392206D01*
X145013754Y-48385395D01*
X145310869Y-48055670D01*
X145317043Y-48049296D01*
X145551981Y-47823580D01*
X145591256Y-47798103D01*
X145637178Y-47789003D01*
X149976630Y-47764224D01*
X149977339Y-47764222D01*
X185513772Y-47764222D01*
X185558952Y-47764222D01*
X186870610Y-47764222D01*
X186915790Y-47764222D01*
X196421010Y-47764222D01*
X196466190Y-47764222D01*
X197578772Y-47764222D01*
X197623952Y-47764222D01*
X223001066Y-47764222D01*
X228288992Y-47778803D01*
G37*
%TD.AperFunction*%
%TD*%
M02*
