%TF.GenerationSoftware,KiCad,Pcbnew,7.0.1*%
%TF.CreationDate,2024-03-13T20:17:12-07:00*%
%TF.ProjectId,flight_computer_dev_board_rfm98pw,666c6967-6874-45f6-936f-6d7075746572,rev?*%
%TF.SameCoordinates,Original*%
%TF.FileFunction,Soldermask,Top*%
%TF.FilePolarity,Negative*%
%FSLAX46Y46*%
G04 Gerber Fmt 4.6, Leading zero omitted, Abs format (unit mm)*
G04 Created by KiCad (PCBNEW 7.0.1) date 2024-03-13 20:17:12*
%MOMM*%
%LPD*%
G01*
G04 APERTURE LIST*
G04 Aperture macros list*
%AMRoundRect*
0 Rectangle with rounded corners*
0 $1 Rounding radius*
0 $2 $3 $4 $5 $6 $7 $8 $9 X,Y pos of 4 corners*
0 Add a 4 corners polygon primitive as box body*
4,1,4,$2,$3,$4,$5,$6,$7,$8,$9,$2,$3,0*
0 Add four circle primitives for the rounded corners*
1,1,$1+$1,$2,$3*
1,1,$1+$1,$4,$5*
1,1,$1+$1,$6,$7*
1,1,$1+$1,$8,$9*
0 Add four rect primitives between the rounded corners*
20,1,$1+$1,$2,$3,$4,$5,0*
20,1,$1+$1,$4,$5,$6,$7,0*
20,1,$1+$1,$6,$7,$8,$9,0*
20,1,$1+$1,$8,$9,$2,$3,0*%
%AMRotRect*
0 Rectangle, with rotation*
0 The origin of the aperture is its center*
0 $1 length*
0 $2 width*
0 $3 Rotation angle, in degrees counterclockwise*
0 Add horizontal line*
21,1,$1,$2,0,0,$3*%
%AMFreePoly0*
4,1,19,0.550000,-0.750000,0.000000,-0.750000,0.000000,-0.744911,-0.071157,-0.744911,-0.207708,-0.704816,-0.327430,-0.627875,-0.420627,-0.520320,-0.479746,-0.390866,-0.500000,-0.250000,-0.500000,0.250000,-0.479746,0.390866,-0.420627,0.520320,-0.327430,0.627875,-0.207708,0.704816,-0.071157,0.744911,0.000000,0.744911,0.000000,0.750000,0.550000,0.750000,0.550000,-0.750000,0.550000,-0.750000,
$1*%
%AMFreePoly1*
4,1,19,0.000000,0.744911,0.071157,0.744911,0.207708,0.704816,0.327430,0.627875,0.420627,0.520320,0.479746,0.390866,0.500000,0.250000,0.500000,-0.250000,0.479746,-0.390866,0.420627,-0.520320,0.327430,-0.627875,0.207708,-0.704816,0.071157,-0.744911,0.000000,-0.744911,0.000000,-0.750000,-0.550000,-0.750000,-0.550000,0.750000,0.000000,0.750000,0.000000,0.744911,0.000000,0.744911,
$1*%
%AMFreePoly2*
4,1,19,0.500000,-0.750000,0.000000,-0.750000,0.000000,-0.744911,-0.071157,-0.744911,-0.207708,-0.704816,-0.327430,-0.627875,-0.420627,-0.520320,-0.479746,-0.390866,-0.500000,-0.250000,-0.500000,0.250000,-0.479746,0.390866,-0.420627,0.520320,-0.327430,0.627875,-0.207708,0.704816,-0.071157,0.744911,0.000000,0.744911,0.000000,0.750000,0.500000,0.750000,0.500000,-0.750000,0.500000,-0.750000,
$1*%
%AMFreePoly3*
4,1,19,0.000000,0.744911,0.071157,0.744911,0.207708,0.704816,0.327430,0.627875,0.420627,0.520320,0.479746,0.390866,0.500000,0.250000,0.500000,-0.250000,0.479746,-0.390866,0.420627,-0.520320,0.327430,-0.627875,0.207708,-0.704816,0.071157,-0.744911,0.000000,-0.744911,0.000000,-0.750000,-0.500000,-0.750000,-0.500000,0.750000,0.000000,0.750000,0.000000,0.744911,0.000000,0.744911,
$1*%
G04 Aperture macros list end*
%ADD10C,0.200000*%
%ADD11C,0.150000*%
%ADD12C,0.500000*%
%ADD13C,0.250000*%
%ADD14C,0.010000*%
%ADD15FreePoly0,0.000000*%
%ADD16R,1.000000X1.500000*%
%ADD17FreePoly1,0.000000*%
%ADD18RoundRect,0.140000X-0.021213X0.219203X-0.219203X0.021213X0.021213X-0.219203X0.219203X-0.021213X0*%
%ADD19RoundRect,0.225000X0.250000X-0.225000X0.250000X0.225000X-0.250000X0.225000X-0.250000X-0.225000X0*%
%ADD20RoundRect,0.200000X-0.200000X-0.275000X0.200000X-0.275000X0.200000X0.275000X-0.200000X0.275000X0*%
%ADD21RoundRect,0.135000X0.185000X-0.135000X0.185000X0.135000X-0.185000X0.135000X-0.185000X-0.135000X0*%
%ADD22C,2.050000*%
%ADD23C,2.250000*%
%ADD24C,2.000000*%
%ADD25RoundRect,0.225000X-0.250000X0.225000X-0.250000X-0.225000X0.250000X-0.225000X0.250000X0.225000X0*%
%ADD26RoundRect,0.150000X0.150000X0.625000X-0.150000X0.625000X-0.150000X-0.625000X0.150000X-0.625000X0*%
%ADD27RoundRect,0.250000X0.350000X0.650000X-0.350000X0.650000X-0.350000X-0.650000X0.350000X-0.650000X0*%
%ADD28R,2.000000X1.500000*%
%ADD29R,2.000000X3.800000*%
%ADD30R,1.550000X0.600000*%
%ADD31R,1.800000X1.200000*%
%ADD32RoundRect,0.200000X-0.275000X0.200000X-0.275000X-0.200000X0.275000X-0.200000X0.275000X0.200000X0*%
%ADD33RoundRect,0.140000X0.021213X-0.219203X0.219203X-0.021213X-0.021213X0.219203X-0.219203X0.021213X0*%
%ADD34RoundRect,0.218750X0.218750X0.256250X-0.218750X0.256250X-0.218750X-0.256250X0.218750X-0.256250X0*%
%ADD35RotRect,0.800000X0.500000X135.000000*%
%ADD36RotRect,0.800000X0.400000X135.000000*%
%ADD37RoundRect,0.218750X-0.218750X-0.256250X0.218750X-0.256250X0.218750X0.256250X-0.218750X0.256250X0*%
%ADD38RoundRect,0.050800X-0.450000X-0.450000X0.450000X-0.450000X0.450000X0.450000X-0.450000X0.450000X0*%
%ADD39RoundRect,0.140000X-0.140000X-0.170000X0.140000X-0.170000X0.140000X0.170000X-0.140000X0.170000X0*%
%ADD40RoundRect,0.140000X-0.170000X0.140000X-0.170000X-0.140000X0.170000X-0.140000X0.170000X0.140000X0*%
%ADD41RoundRect,0.200000X0.200000X0.275000X-0.200000X0.275000X-0.200000X-0.275000X0.200000X-0.275000X0*%
%ADD42RoundRect,0.225000X0.017678X-0.335876X0.335876X-0.017678X-0.017678X0.335876X-0.335876X0.017678X0*%
%ADD43R,0.600000X1.550000*%
%ADD44R,1.200000X1.800000*%
%ADD45RoundRect,0.135000X-0.035355X0.226274X-0.226274X0.035355X0.035355X-0.226274X0.226274X-0.035355X0*%
%ADD46RotRect,1.150000X1.000000X315.000000*%
%ADD47RoundRect,0.140000X0.219203X0.021213X0.021213X0.219203X-0.219203X-0.021213X-0.021213X-0.219203X0*%
%ADD48RoundRect,0.140000X0.140000X0.170000X-0.140000X0.170000X-0.140000X-0.170000X0.140000X-0.170000X0*%
%ADD49FreePoly2,0.000000*%
%ADD50FreePoly3,0.000000*%
%ADD51R,1.000000X1.150000*%
%ADD52RoundRect,0.150000X-0.512500X-0.150000X0.512500X-0.150000X0.512500X0.150000X-0.512500X0.150000X0*%
%ADD53C,5.000000*%
%ADD54RoundRect,0.150000X0.150000X-0.512500X0.150000X0.512500X-0.150000X0.512500X-0.150000X-0.512500X0*%
%ADD55RoundRect,0.200000X0.335876X0.053033X0.053033X0.335876X-0.335876X-0.053033X-0.053033X-0.335876X0*%
%ADD56RoundRect,0.063500X1.000000X0.650000X-1.000000X0.650000X-1.000000X-0.650000X1.000000X-0.650000X0*%
%ADD57RoundRect,0.063500X2.849999X2.400000X-2.849999X2.400000X-2.849999X-2.400000X2.849999X-2.400000X0*%
%ADD58RoundRect,0.087500X-0.225000X-0.087500X0.225000X-0.087500X0.225000X0.087500X-0.225000X0.087500X0*%
%ADD59RoundRect,0.087500X-0.087500X-0.225000X0.087500X-0.225000X0.087500X0.225000X-0.087500X0.225000X0*%
%ADD60RoundRect,0.225000X-0.335876X-0.017678X-0.017678X-0.335876X0.335876X0.017678X0.017678X0.335876X0*%
%ADD61RoundRect,0.150000X-0.565685X0.353553X0.353553X-0.565685X0.565685X-0.353553X-0.353553X0.565685X0*%
%ADD62RoundRect,0.140000X-0.219203X-0.021213X-0.021213X-0.219203X0.219203X0.021213X0.021213X0.219203X0*%
%ADD63R,1.500000X0.900000*%
%ADD64RoundRect,0.125000X0.000000X-0.176777X0.176777X0.000000X0.000000X0.176777X-0.176777X0.000000X0*%
%ADD65R,0.850000X1.100000*%
%ADD66R,0.750000X1.100000*%
%ADD67R,1.200000X1.000000*%
%ADD68R,1.550000X1.350000*%
%ADD69R,1.900000X1.350000*%
%ADD70R,1.170000X1.800000*%
%ADD71RoundRect,0.150000X0.625000X-0.150000X0.625000X0.150000X-0.625000X0.150000X-0.625000X-0.150000X0*%
%ADD72RoundRect,0.250000X0.650000X-0.350000X0.650000X0.350000X-0.650000X0.350000X-0.650000X-0.350000X0*%
%ADD73RoundRect,0.200000X0.275000X-0.200000X0.275000X0.200000X-0.275000X0.200000X-0.275000X-0.200000X0*%
%ADD74RotRect,3.200000X3.200000X315.000000*%
%ADD75RoundRect,0.050000X-0.309359X-0.238649X-0.238649X-0.309359X0.309359X0.238649X0.238649X0.309359X0*%
%ADD76RoundRect,0.050000X-0.309359X0.238649X0.238649X-0.309359X0.309359X-0.238649X-0.238649X0.309359X0*%
%ADD77RoundRect,0.317500X1.157500X0.317500X-1.157500X0.317500X-1.157500X-0.317500X1.157500X-0.317500X0*%
%ADD78R,0.375000X0.350000*%
%ADD79R,0.350000X0.375000*%
%ADD80RoundRect,0.225000X0.225000X0.250000X-0.225000X0.250000X-0.225000X-0.250000X0.225000X-0.250000X0*%
%ADD81RoundRect,0.075000X-0.437500X-0.075000X0.437500X-0.075000X0.437500X0.075000X-0.437500X0.075000X0*%
%ADD82RoundRect,0.075000X-0.075000X-0.437500X0.075000X-0.437500X0.075000X0.437500X-0.075000X0.437500X0*%
%ADD83R,4.250000X4.250000*%
%ADD84RoundRect,0.150000X0.350000X-0.150000X0.350000X0.150000X-0.350000X0.150000X-0.350000X-0.150000X0*%
%ADD85RoundRect,0.250000X0.650000X-0.375000X0.650000X0.375000X-0.650000X0.375000X-0.650000X-0.375000X0*%
%ADD86RoundRect,0.200000X-0.335876X-0.053033X-0.053033X-0.335876X0.335876X0.053033X0.053033X0.335876X0*%
%ADD87RoundRect,0.150000X0.406586X0.618718X-0.618718X-0.406586X-0.406586X-0.618718X0.618718X0.406586X0*%
%ADD88RoundRect,0.200000X-0.053033X0.335876X-0.335876X0.053033X0.053033X-0.335876X0.335876X-0.053033X0*%
%ADD89R,1.380000X0.450000*%
%ADD90O,2.416000X1.208000*%
%ADD91R,2.100000X1.475000*%
%ADD92R,1.900000X1.375000*%
%ADD93R,1.700000X1.700000*%
%ADD94O,1.700000X1.700000*%
%ADD95C,1.000000*%
G04 APERTURE END LIST*
D10*
X187840000Y-52410000D02*
X186360000Y-50930000D01*
D11*
X153291978Y-52405459D02*
G75*
G03*
X153291978Y-52405459I-2692408J0D01*
G01*
D10*
X189040000Y-51820000D02*
X186340000Y-51820000D01*
X186340000Y-51820000D02*
X187190000Y-52670000D01*
X186340000Y-54520000D02*
X189040000Y-54520000D01*
X189040000Y-54520000D02*
X189040000Y-51820000D01*
D11*
X146799570Y-55127504D02*
X150599570Y-55134011D01*
D10*
X189040000Y-54520000D02*
X189890000Y-55370000D01*
X186340000Y-54520000D02*
X186340000Y-51820000D01*
D11*
X223543845Y-55035798D02*
X227343845Y-55042305D01*
X149506967Y-52430757D02*
G75*
G03*
X149506967Y-52430757I-2707397J0D01*
G01*
X230036253Y-52313753D02*
G75*
G03*
X230036253Y-52313753I-2692408J0D01*
G01*
X227393845Y-49635798D02*
X223593845Y-49642305D01*
X150649570Y-49727504D02*
X146849570Y-49734011D01*
D10*
X189890000Y-55370000D02*
X189890000Y-52670000D01*
X189040000Y-51820000D02*
X189890000Y-52670000D01*
X187190000Y-52670000D02*
X187190000Y-55370000D01*
X187190000Y-55370000D02*
X186340000Y-54520000D01*
X189890000Y-52670000D02*
X187190000Y-52670000D01*
X187190000Y-55370000D02*
X189890000Y-55370000D01*
X188520000Y-52390000D02*
X189990000Y-50920000D01*
D11*
X226251242Y-52339051D02*
G75*
G03*
X226251242Y-52339051I-2707397J0D01*
G01*
D12*
X213498571Y-50315714D02*
X213593809Y-50220476D01*
X213593809Y-50220476D02*
X213784285Y-50125238D01*
X213784285Y-50125238D02*
X214260476Y-50125238D01*
X214260476Y-50125238D02*
X214450952Y-50220476D01*
X214450952Y-50220476D02*
X214546190Y-50315714D01*
X214546190Y-50315714D02*
X214641428Y-50506190D01*
X214641428Y-50506190D02*
X214641428Y-50696666D01*
X214641428Y-50696666D02*
X214546190Y-50982380D01*
X214546190Y-50982380D02*
X213403333Y-52125238D01*
X213403333Y-52125238D02*
X214641428Y-52125238D01*
X205367143Y-51507857D02*
X207224286Y-51507857D01*
X207224286Y-51507857D02*
X206224286Y-52650714D01*
X206224286Y-52650714D02*
X206652857Y-52650714D01*
X206652857Y-52650714D02*
X206938572Y-52793571D01*
X206938572Y-52793571D02*
X207081429Y-52936428D01*
X207081429Y-52936428D02*
X207224286Y-53222142D01*
X207224286Y-53222142D02*
X207224286Y-53936428D01*
X207224286Y-53936428D02*
X207081429Y-54222142D01*
X207081429Y-54222142D02*
X206938572Y-54365000D01*
X206938572Y-54365000D02*
X206652857Y-54507857D01*
X206652857Y-54507857D02*
X205795714Y-54507857D01*
X205795714Y-54507857D02*
X205510000Y-54365000D01*
X205510000Y-54365000D02*
X205367143Y-54222142D01*
X208510000Y-54507857D02*
X208510000Y-51507857D01*
X208510000Y-51507857D02*
X209652857Y-51507857D01*
X209652857Y-51507857D02*
X209938572Y-51650714D01*
X209938572Y-51650714D02*
X210081429Y-51793571D01*
X210081429Y-51793571D02*
X210224286Y-52079285D01*
X210224286Y-52079285D02*
X210224286Y-52507857D01*
X210224286Y-52507857D02*
X210081429Y-52793571D01*
X210081429Y-52793571D02*
X209938572Y-52936428D01*
X209938572Y-52936428D02*
X209652857Y-53079285D01*
X209652857Y-53079285D02*
X208510000Y-53079285D01*
X211224286Y-52507857D02*
X211938572Y-54507857D01*
X212652857Y-52507857D02*
X211938572Y-54507857D01*
X211938572Y-54507857D02*
X211652857Y-55222142D01*
X211652857Y-55222142D02*
X211510000Y-55365000D01*
X211510000Y-55365000D02*
X211224286Y-55507857D01*
D13*
X158753328Y-49477619D02*
X158753328Y-48477619D01*
X158753328Y-48477619D02*
X159134280Y-48477619D01*
X159134280Y-48477619D02*
X159229518Y-48525238D01*
X159229518Y-48525238D02*
X159277137Y-48572857D01*
X159277137Y-48572857D02*
X159324756Y-48668095D01*
X159324756Y-48668095D02*
X159324756Y-48810952D01*
X159324756Y-48810952D02*
X159277137Y-48906190D01*
X159277137Y-48906190D02*
X159229518Y-48953809D01*
X159229518Y-48953809D02*
X159134280Y-49001428D01*
X159134280Y-49001428D02*
X158753328Y-49001428D01*
X159658090Y-48810952D02*
X159896185Y-49477619D01*
X160134280Y-48810952D02*
X159896185Y-49477619D01*
X159896185Y-49477619D02*
X159800947Y-49715714D01*
X159800947Y-49715714D02*
X159753328Y-49763333D01*
X159753328Y-49763333D02*
X159658090Y-49810952D01*
X160467614Y-49430000D02*
X160610471Y-49477619D01*
X160610471Y-49477619D02*
X160848566Y-49477619D01*
X160848566Y-49477619D02*
X160943804Y-49430000D01*
X160943804Y-49430000D02*
X160991423Y-49382380D01*
X160991423Y-49382380D02*
X161039042Y-49287142D01*
X161039042Y-49287142D02*
X161039042Y-49191904D01*
X161039042Y-49191904D02*
X160991423Y-49096666D01*
X160991423Y-49096666D02*
X160943804Y-49049047D01*
X160943804Y-49049047D02*
X160848566Y-49001428D01*
X160848566Y-49001428D02*
X160658090Y-48953809D01*
X160658090Y-48953809D02*
X160562852Y-48906190D01*
X160562852Y-48906190D02*
X160515233Y-48858571D01*
X160515233Y-48858571D02*
X160467614Y-48763333D01*
X160467614Y-48763333D02*
X160467614Y-48668095D01*
X160467614Y-48668095D02*
X160515233Y-48572857D01*
X160515233Y-48572857D02*
X160562852Y-48525238D01*
X160562852Y-48525238D02*
X160658090Y-48477619D01*
X160658090Y-48477619D02*
X160896185Y-48477619D01*
X160896185Y-48477619D02*
X161039042Y-48525238D01*
X161896185Y-48810952D02*
X161896185Y-49810952D01*
X161896185Y-49430000D02*
X161800947Y-49477619D01*
X161800947Y-49477619D02*
X161610471Y-49477619D01*
X161610471Y-49477619D02*
X161515233Y-49430000D01*
X161515233Y-49430000D02*
X161467614Y-49382380D01*
X161467614Y-49382380D02*
X161419995Y-49287142D01*
X161419995Y-49287142D02*
X161419995Y-49001428D01*
X161419995Y-49001428D02*
X161467614Y-48906190D01*
X161467614Y-48906190D02*
X161515233Y-48858571D01*
X161515233Y-48858571D02*
X161610471Y-48810952D01*
X161610471Y-48810952D02*
X161800947Y-48810952D01*
X161800947Y-48810952D02*
X161896185Y-48858571D01*
X162800947Y-48810952D02*
X162800947Y-49477619D01*
X162372376Y-48810952D02*
X162372376Y-49334761D01*
X162372376Y-49334761D02*
X162419995Y-49430000D01*
X162419995Y-49430000D02*
X162515233Y-49477619D01*
X162515233Y-49477619D02*
X162658090Y-49477619D01*
X162658090Y-49477619D02*
X162753328Y-49430000D01*
X162753328Y-49430000D02*
X162800947Y-49382380D01*
X163705709Y-49477619D02*
X163705709Y-48953809D01*
X163705709Y-48953809D02*
X163658090Y-48858571D01*
X163658090Y-48858571D02*
X163562852Y-48810952D01*
X163562852Y-48810952D02*
X163372376Y-48810952D01*
X163372376Y-48810952D02*
X163277138Y-48858571D01*
X163705709Y-49430000D02*
X163610471Y-49477619D01*
X163610471Y-49477619D02*
X163372376Y-49477619D01*
X163372376Y-49477619D02*
X163277138Y-49430000D01*
X163277138Y-49430000D02*
X163229519Y-49334761D01*
X163229519Y-49334761D02*
X163229519Y-49239523D01*
X163229519Y-49239523D02*
X163277138Y-49144285D01*
X163277138Y-49144285D02*
X163372376Y-49096666D01*
X163372376Y-49096666D02*
X163610471Y-49096666D01*
X163610471Y-49096666D02*
X163705709Y-49049047D01*
X164181900Y-49477619D02*
X164181900Y-48810952D01*
X164181900Y-49001428D02*
X164229519Y-48906190D01*
X164229519Y-48906190D02*
X164277138Y-48858571D01*
X164277138Y-48858571D02*
X164372376Y-48810952D01*
X164372376Y-48810952D02*
X164467614Y-48810952D01*
X165181900Y-49430000D02*
X165086662Y-49477619D01*
X165086662Y-49477619D02*
X164896186Y-49477619D01*
X164896186Y-49477619D02*
X164800948Y-49430000D01*
X164800948Y-49430000D02*
X164753329Y-49334761D01*
X164753329Y-49334761D02*
X164753329Y-48953809D01*
X164753329Y-48953809D02*
X164800948Y-48858571D01*
X164800948Y-48858571D02*
X164896186Y-48810952D01*
X164896186Y-48810952D02*
X165086662Y-48810952D01*
X165086662Y-48810952D02*
X165181900Y-48858571D01*
X165181900Y-48858571D02*
X165229519Y-48953809D01*
X165229519Y-48953809D02*
X165229519Y-49049047D01*
X165229519Y-49049047D02*
X164753329Y-49144285D01*
X166086662Y-49477619D02*
X166086662Y-48477619D01*
X166086662Y-49430000D02*
X165991424Y-49477619D01*
X165991424Y-49477619D02*
X165800948Y-49477619D01*
X165800948Y-49477619D02*
X165705710Y-49430000D01*
X165705710Y-49430000D02*
X165658091Y-49382380D01*
X165658091Y-49382380D02*
X165610472Y-49287142D01*
X165610472Y-49287142D02*
X165610472Y-49001428D01*
X165610472Y-49001428D02*
X165658091Y-48906190D01*
X165658091Y-48906190D02*
X165705710Y-48858571D01*
X165705710Y-48858571D02*
X165800948Y-48810952D01*
X165800948Y-48810952D02*
X165991424Y-48810952D01*
X165991424Y-48810952D02*
X166086662Y-48858571D01*
X167658091Y-48953809D02*
X167324758Y-48953809D01*
X167324758Y-49477619D02*
X167324758Y-48477619D01*
X167324758Y-48477619D02*
X167800948Y-48477619D01*
X168324758Y-49477619D02*
X168229520Y-49430000D01*
X168229520Y-49430000D02*
X168181901Y-49334761D01*
X168181901Y-49334761D02*
X168181901Y-48477619D01*
X168705711Y-49477619D02*
X168705711Y-48810952D01*
X168705711Y-48477619D02*
X168658092Y-48525238D01*
X168658092Y-48525238D02*
X168705711Y-48572857D01*
X168705711Y-48572857D02*
X168753330Y-48525238D01*
X168753330Y-48525238D02*
X168705711Y-48477619D01*
X168705711Y-48477619D02*
X168705711Y-48572857D01*
X169610472Y-48810952D02*
X169610472Y-49620476D01*
X169610472Y-49620476D02*
X169562853Y-49715714D01*
X169562853Y-49715714D02*
X169515234Y-49763333D01*
X169515234Y-49763333D02*
X169419996Y-49810952D01*
X169419996Y-49810952D02*
X169277139Y-49810952D01*
X169277139Y-49810952D02*
X169181901Y-49763333D01*
X169610472Y-49430000D02*
X169515234Y-49477619D01*
X169515234Y-49477619D02*
X169324758Y-49477619D01*
X169324758Y-49477619D02*
X169229520Y-49430000D01*
X169229520Y-49430000D02*
X169181901Y-49382380D01*
X169181901Y-49382380D02*
X169134282Y-49287142D01*
X169134282Y-49287142D02*
X169134282Y-49001428D01*
X169134282Y-49001428D02*
X169181901Y-48906190D01*
X169181901Y-48906190D02*
X169229520Y-48858571D01*
X169229520Y-48858571D02*
X169324758Y-48810952D01*
X169324758Y-48810952D02*
X169515234Y-48810952D01*
X169515234Y-48810952D02*
X169610472Y-48858571D01*
X170086663Y-49477619D02*
X170086663Y-48477619D01*
X170515234Y-49477619D02*
X170515234Y-48953809D01*
X170515234Y-48953809D02*
X170467615Y-48858571D01*
X170467615Y-48858571D02*
X170372377Y-48810952D01*
X170372377Y-48810952D02*
X170229520Y-48810952D01*
X170229520Y-48810952D02*
X170134282Y-48858571D01*
X170134282Y-48858571D02*
X170086663Y-48906190D01*
X170848568Y-48810952D02*
X171229520Y-48810952D01*
X170991425Y-48477619D02*
X170991425Y-49334761D01*
X170991425Y-49334761D02*
X171039044Y-49430000D01*
X171039044Y-49430000D02*
X171134282Y-49477619D01*
X171134282Y-49477619D02*
X171229520Y-49477619D01*
X172896187Y-49382380D02*
X172848568Y-49430000D01*
X172848568Y-49430000D02*
X172705711Y-49477619D01*
X172705711Y-49477619D02*
X172610473Y-49477619D01*
X172610473Y-49477619D02*
X172467616Y-49430000D01*
X172467616Y-49430000D02*
X172372378Y-49334761D01*
X172372378Y-49334761D02*
X172324759Y-49239523D01*
X172324759Y-49239523D02*
X172277140Y-49049047D01*
X172277140Y-49049047D02*
X172277140Y-48906190D01*
X172277140Y-48906190D02*
X172324759Y-48715714D01*
X172324759Y-48715714D02*
X172372378Y-48620476D01*
X172372378Y-48620476D02*
X172467616Y-48525238D01*
X172467616Y-48525238D02*
X172610473Y-48477619D01*
X172610473Y-48477619D02*
X172705711Y-48477619D01*
X172705711Y-48477619D02*
X172848568Y-48525238D01*
X172848568Y-48525238D02*
X172896187Y-48572857D01*
X173467616Y-49477619D02*
X173372378Y-49430000D01*
X173372378Y-49430000D02*
X173324759Y-49382380D01*
X173324759Y-49382380D02*
X173277140Y-49287142D01*
X173277140Y-49287142D02*
X173277140Y-49001428D01*
X173277140Y-49001428D02*
X173324759Y-48906190D01*
X173324759Y-48906190D02*
X173372378Y-48858571D01*
X173372378Y-48858571D02*
X173467616Y-48810952D01*
X173467616Y-48810952D02*
X173610473Y-48810952D01*
X173610473Y-48810952D02*
X173705711Y-48858571D01*
X173705711Y-48858571D02*
X173753330Y-48906190D01*
X173753330Y-48906190D02*
X173800949Y-49001428D01*
X173800949Y-49001428D02*
X173800949Y-49287142D01*
X173800949Y-49287142D02*
X173753330Y-49382380D01*
X173753330Y-49382380D02*
X173705711Y-49430000D01*
X173705711Y-49430000D02*
X173610473Y-49477619D01*
X173610473Y-49477619D02*
X173467616Y-49477619D01*
X174229521Y-48810952D02*
X174229521Y-49477619D01*
X174229521Y-48906190D02*
X174277140Y-48858571D01*
X174277140Y-48858571D02*
X174372378Y-48810952D01*
X174372378Y-48810952D02*
X174515235Y-48810952D01*
X174515235Y-48810952D02*
X174610473Y-48858571D01*
X174610473Y-48858571D02*
X174658092Y-48953809D01*
X174658092Y-48953809D02*
X174658092Y-49477619D01*
X174991426Y-48810952D02*
X175372378Y-48810952D01*
X175134283Y-48477619D02*
X175134283Y-49334761D01*
X175134283Y-49334761D02*
X175181902Y-49430000D01*
X175181902Y-49430000D02*
X175277140Y-49477619D01*
X175277140Y-49477619D02*
X175372378Y-49477619D01*
X175705712Y-49477619D02*
X175705712Y-48810952D01*
X175705712Y-49001428D02*
X175753331Y-48906190D01*
X175753331Y-48906190D02*
X175800950Y-48858571D01*
X175800950Y-48858571D02*
X175896188Y-48810952D01*
X175896188Y-48810952D02*
X175991426Y-48810952D01*
X176467617Y-49477619D02*
X176372379Y-49430000D01*
X176372379Y-49430000D02*
X176324760Y-49382380D01*
X176324760Y-49382380D02*
X176277141Y-49287142D01*
X176277141Y-49287142D02*
X176277141Y-49001428D01*
X176277141Y-49001428D02*
X176324760Y-48906190D01*
X176324760Y-48906190D02*
X176372379Y-48858571D01*
X176372379Y-48858571D02*
X176467617Y-48810952D01*
X176467617Y-48810952D02*
X176610474Y-48810952D01*
X176610474Y-48810952D02*
X176705712Y-48858571D01*
X176705712Y-48858571D02*
X176753331Y-48906190D01*
X176753331Y-48906190D02*
X176800950Y-49001428D01*
X176800950Y-49001428D02*
X176800950Y-49287142D01*
X176800950Y-49287142D02*
X176753331Y-49382380D01*
X176753331Y-49382380D02*
X176705712Y-49430000D01*
X176705712Y-49430000D02*
X176610474Y-49477619D01*
X176610474Y-49477619D02*
X176467617Y-49477619D01*
X177372379Y-49477619D02*
X177277141Y-49430000D01*
X177277141Y-49430000D02*
X177229522Y-49334761D01*
X177229522Y-49334761D02*
X177229522Y-48477619D01*
X177896189Y-49477619D02*
X177800951Y-49430000D01*
X177800951Y-49430000D02*
X177753332Y-49334761D01*
X177753332Y-49334761D02*
X177753332Y-48477619D01*
X178658094Y-49430000D02*
X178562856Y-49477619D01*
X178562856Y-49477619D02*
X178372380Y-49477619D01*
X178372380Y-49477619D02*
X178277142Y-49430000D01*
X178277142Y-49430000D02*
X178229523Y-49334761D01*
X178229523Y-49334761D02*
X178229523Y-48953809D01*
X178229523Y-48953809D02*
X178277142Y-48858571D01*
X178277142Y-48858571D02*
X178372380Y-48810952D01*
X178372380Y-48810952D02*
X178562856Y-48810952D01*
X178562856Y-48810952D02*
X178658094Y-48858571D01*
X178658094Y-48858571D02*
X178705713Y-48953809D01*
X178705713Y-48953809D02*
X178705713Y-49049047D01*
X178705713Y-49049047D02*
X178229523Y-49144285D01*
X179134285Y-49477619D02*
X179134285Y-48810952D01*
X179134285Y-49001428D02*
X179181904Y-48906190D01*
X179181904Y-48906190D02*
X179229523Y-48858571D01*
X179229523Y-48858571D02*
X179324761Y-48810952D01*
X179324761Y-48810952D02*
X179419999Y-48810952D01*
X180515238Y-49477619D02*
X180515238Y-48477619D01*
X180515238Y-48477619D02*
X180753333Y-48477619D01*
X180753333Y-48477619D02*
X180896190Y-48525238D01*
X180896190Y-48525238D02*
X180991428Y-48620476D01*
X180991428Y-48620476D02*
X181039047Y-48715714D01*
X181039047Y-48715714D02*
X181086666Y-48906190D01*
X181086666Y-48906190D02*
X181086666Y-49049047D01*
X181086666Y-49049047D02*
X181039047Y-49239523D01*
X181039047Y-49239523D02*
X180991428Y-49334761D01*
X180991428Y-49334761D02*
X180896190Y-49430000D01*
X180896190Y-49430000D02*
X180753333Y-49477619D01*
X180753333Y-49477619D02*
X180515238Y-49477619D01*
X181896190Y-49430000D02*
X181800952Y-49477619D01*
X181800952Y-49477619D02*
X181610476Y-49477619D01*
X181610476Y-49477619D02*
X181515238Y-49430000D01*
X181515238Y-49430000D02*
X181467619Y-49334761D01*
X181467619Y-49334761D02*
X181467619Y-48953809D01*
X181467619Y-48953809D02*
X181515238Y-48858571D01*
X181515238Y-48858571D02*
X181610476Y-48810952D01*
X181610476Y-48810952D02*
X181800952Y-48810952D01*
X181800952Y-48810952D02*
X181896190Y-48858571D01*
X181896190Y-48858571D02*
X181943809Y-48953809D01*
X181943809Y-48953809D02*
X181943809Y-49049047D01*
X181943809Y-49049047D02*
X181467619Y-49144285D01*
X182277143Y-48810952D02*
X182515238Y-49477619D01*
X182515238Y-49477619D02*
X182753333Y-48810952D01*
X183515238Y-49430000D02*
X183420000Y-49477619D01*
X183420000Y-49477619D02*
X183229524Y-49477619D01*
X183229524Y-49477619D02*
X183134286Y-49430000D01*
X183134286Y-49430000D02*
X183086667Y-49334761D01*
X183086667Y-49334761D02*
X183086667Y-48953809D01*
X183086667Y-48953809D02*
X183134286Y-48858571D01*
X183134286Y-48858571D02*
X183229524Y-48810952D01*
X183229524Y-48810952D02*
X183420000Y-48810952D01*
X183420000Y-48810952D02*
X183515238Y-48858571D01*
X183515238Y-48858571D02*
X183562857Y-48953809D01*
X183562857Y-48953809D02*
X183562857Y-49049047D01*
X183562857Y-49049047D02*
X183086667Y-49144285D01*
X184134286Y-49477619D02*
X184039048Y-49430000D01*
X184039048Y-49430000D02*
X183991429Y-49334761D01*
X183991429Y-49334761D02*
X183991429Y-48477619D01*
X184658096Y-49477619D02*
X184562858Y-49430000D01*
X184562858Y-49430000D02*
X184515239Y-49382380D01*
X184515239Y-49382380D02*
X184467620Y-49287142D01*
X184467620Y-49287142D02*
X184467620Y-49001428D01*
X184467620Y-49001428D02*
X184515239Y-48906190D01*
X184515239Y-48906190D02*
X184562858Y-48858571D01*
X184562858Y-48858571D02*
X184658096Y-48810952D01*
X184658096Y-48810952D02*
X184800953Y-48810952D01*
X184800953Y-48810952D02*
X184896191Y-48858571D01*
X184896191Y-48858571D02*
X184943810Y-48906190D01*
X184943810Y-48906190D02*
X184991429Y-49001428D01*
X184991429Y-49001428D02*
X184991429Y-49287142D01*
X184991429Y-49287142D02*
X184943810Y-49382380D01*
X184943810Y-49382380D02*
X184896191Y-49430000D01*
X184896191Y-49430000D02*
X184800953Y-49477619D01*
X184800953Y-49477619D02*
X184658096Y-49477619D01*
X185420001Y-48810952D02*
X185420001Y-49810952D01*
X185420001Y-48858571D02*
X185515239Y-48810952D01*
X185515239Y-48810952D02*
X185705715Y-48810952D01*
X185705715Y-48810952D02*
X185800953Y-48858571D01*
X185800953Y-48858571D02*
X185848572Y-48906190D01*
X185848572Y-48906190D02*
X185896191Y-49001428D01*
X185896191Y-49001428D02*
X185896191Y-49287142D01*
X185896191Y-49287142D02*
X185848572Y-49382380D01*
X185848572Y-49382380D02*
X185800953Y-49430000D01*
X185800953Y-49430000D02*
X185705715Y-49477619D01*
X185705715Y-49477619D02*
X185515239Y-49477619D01*
X185515239Y-49477619D02*
X185420001Y-49430000D01*
X186324763Y-49477619D02*
X186324763Y-48810952D01*
X186324763Y-48906190D02*
X186372382Y-48858571D01*
X186372382Y-48858571D02*
X186467620Y-48810952D01*
X186467620Y-48810952D02*
X186610477Y-48810952D01*
X186610477Y-48810952D02*
X186705715Y-48858571D01*
X186705715Y-48858571D02*
X186753334Y-48953809D01*
X186753334Y-48953809D02*
X186753334Y-49477619D01*
X186753334Y-48953809D02*
X186800953Y-48858571D01*
X186800953Y-48858571D02*
X186896191Y-48810952D01*
X186896191Y-48810952D02*
X187039048Y-48810952D01*
X187039048Y-48810952D02*
X187134287Y-48858571D01*
X187134287Y-48858571D02*
X187181906Y-48953809D01*
X187181906Y-48953809D02*
X187181906Y-49477619D01*
X188039048Y-49430000D02*
X187943810Y-49477619D01*
X187943810Y-49477619D02*
X187753334Y-49477619D01*
X187753334Y-49477619D02*
X187658096Y-49430000D01*
X187658096Y-49430000D02*
X187610477Y-49334761D01*
X187610477Y-49334761D02*
X187610477Y-48953809D01*
X187610477Y-48953809D02*
X187658096Y-48858571D01*
X187658096Y-48858571D02*
X187753334Y-48810952D01*
X187753334Y-48810952D02*
X187943810Y-48810952D01*
X187943810Y-48810952D02*
X188039048Y-48858571D01*
X188039048Y-48858571D02*
X188086667Y-48953809D01*
X188086667Y-48953809D02*
X188086667Y-49049047D01*
X188086667Y-49049047D02*
X187610477Y-49144285D01*
X188515239Y-48810952D02*
X188515239Y-49477619D01*
X188515239Y-48906190D02*
X188562858Y-48858571D01*
X188562858Y-48858571D02*
X188658096Y-48810952D01*
X188658096Y-48810952D02*
X188800953Y-48810952D01*
X188800953Y-48810952D02*
X188896191Y-48858571D01*
X188896191Y-48858571D02*
X188943810Y-48953809D01*
X188943810Y-48953809D02*
X188943810Y-49477619D01*
X189277144Y-48810952D02*
X189658096Y-48810952D01*
X189420001Y-48477619D02*
X189420001Y-49334761D01*
X189420001Y-49334761D02*
X189467620Y-49430000D01*
X189467620Y-49430000D02*
X189562858Y-49477619D01*
X189562858Y-49477619D02*
X189658096Y-49477619D01*
X191086668Y-48953809D02*
X191229525Y-49001428D01*
X191229525Y-49001428D02*
X191277144Y-49049047D01*
X191277144Y-49049047D02*
X191324763Y-49144285D01*
X191324763Y-49144285D02*
X191324763Y-49287142D01*
X191324763Y-49287142D02*
X191277144Y-49382380D01*
X191277144Y-49382380D02*
X191229525Y-49430000D01*
X191229525Y-49430000D02*
X191134287Y-49477619D01*
X191134287Y-49477619D02*
X190753335Y-49477619D01*
X190753335Y-49477619D02*
X190753335Y-48477619D01*
X190753335Y-48477619D02*
X191086668Y-48477619D01*
X191086668Y-48477619D02*
X191181906Y-48525238D01*
X191181906Y-48525238D02*
X191229525Y-48572857D01*
X191229525Y-48572857D02*
X191277144Y-48668095D01*
X191277144Y-48668095D02*
X191277144Y-48763333D01*
X191277144Y-48763333D02*
X191229525Y-48858571D01*
X191229525Y-48858571D02*
X191181906Y-48906190D01*
X191181906Y-48906190D02*
X191086668Y-48953809D01*
X191086668Y-48953809D02*
X190753335Y-48953809D01*
X191896192Y-49477619D02*
X191800954Y-49430000D01*
X191800954Y-49430000D02*
X191753335Y-49382380D01*
X191753335Y-49382380D02*
X191705716Y-49287142D01*
X191705716Y-49287142D02*
X191705716Y-49001428D01*
X191705716Y-49001428D02*
X191753335Y-48906190D01*
X191753335Y-48906190D02*
X191800954Y-48858571D01*
X191800954Y-48858571D02*
X191896192Y-48810952D01*
X191896192Y-48810952D02*
X192039049Y-48810952D01*
X192039049Y-48810952D02*
X192134287Y-48858571D01*
X192134287Y-48858571D02*
X192181906Y-48906190D01*
X192181906Y-48906190D02*
X192229525Y-49001428D01*
X192229525Y-49001428D02*
X192229525Y-49287142D01*
X192229525Y-49287142D02*
X192181906Y-49382380D01*
X192181906Y-49382380D02*
X192134287Y-49430000D01*
X192134287Y-49430000D02*
X192039049Y-49477619D01*
X192039049Y-49477619D02*
X191896192Y-49477619D01*
X193086668Y-49477619D02*
X193086668Y-48953809D01*
X193086668Y-48953809D02*
X193039049Y-48858571D01*
X193039049Y-48858571D02*
X192943811Y-48810952D01*
X192943811Y-48810952D02*
X192753335Y-48810952D01*
X192753335Y-48810952D02*
X192658097Y-48858571D01*
X193086668Y-49430000D02*
X192991430Y-49477619D01*
X192991430Y-49477619D02*
X192753335Y-49477619D01*
X192753335Y-49477619D02*
X192658097Y-49430000D01*
X192658097Y-49430000D02*
X192610478Y-49334761D01*
X192610478Y-49334761D02*
X192610478Y-49239523D01*
X192610478Y-49239523D02*
X192658097Y-49144285D01*
X192658097Y-49144285D02*
X192753335Y-49096666D01*
X192753335Y-49096666D02*
X192991430Y-49096666D01*
X192991430Y-49096666D02*
X193086668Y-49049047D01*
X193562859Y-49477619D02*
X193562859Y-48810952D01*
X193562859Y-49001428D02*
X193610478Y-48906190D01*
X193610478Y-48906190D02*
X193658097Y-48858571D01*
X193658097Y-48858571D02*
X193753335Y-48810952D01*
X193753335Y-48810952D02*
X193848573Y-48810952D01*
X194610478Y-49477619D02*
X194610478Y-48477619D01*
X194610478Y-49430000D02*
X194515240Y-49477619D01*
X194515240Y-49477619D02*
X194324764Y-49477619D01*
X194324764Y-49477619D02*
X194229526Y-49430000D01*
X194229526Y-49430000D02*
X194181907Y-49382380D01*
X194181907Y-49382380D02*
X194134288Y-49287142D01*
X194134288Y-49287142D02*
X194134288Y-49001428D01*
X194134288Y-49001428D02*
X194181907Y-48906190D01*
X194181907Y-48906190D02*
X194229526Y-48858571D01*
X194229526Y-48858571D02*
X194324764Y-48810952D01*
X194324764Y-48810952D02*
X194515240Y-48810952D01*
X194515240Y-48810952D02*
X194610478Y-48858571D01*
X195705717Y-48477619D02*
X196039050Y-49477619D01*
X196039050Y-49477619D02*
X196372383Y-48477619D01*
X197229526Y-49477619D02*
X196658098Y-49477619D01*
X196943812Y-49477619D02*
X196943812Y-48477619D01*
X196943812Y-48477619D02*
X196848574Y-48620476D01*
X196848574Y-48620476D02*
X196753336Y-48715714D01*
X196753336Y-48715714D02*
X196658098Y-48763333D01*
X198086669Y-49477619D02*
X198086669Y-48953809D01*
X198086669Y-48953809D02*
X198039050Y-48858571D01*
X198039050Y-48858571D02*
X197943812Y-48810952D01*
X197943812Y-48810952D02*
X197753336Y-48810952D01*
X197753336Y-48810952D02*
X197658098Y-48858571D01*
X198086669Y-49430000D02*
X197991431Y-49477619D01*
X197991431Y-49477619D02*
X197753336Y-49477619D01*
X197753336Y-49477619D02*
X197658098Y-49430000D01*
X197658098Y-49430000D02*
X197610479Y-49334761D01*
X197610479Y-49334761D02*
X197610479Y-49239523D01*
X197610479Y-49239523D02*
X197658098Y-49144285D01*
X197658098Y-49144285D02*
X197753336Y-49096666D01*
X197753336Y-49096666D02*
X197991431Y-49096666D01*
X197991431Y-49096666D02*
X198086669Y-49049047D01*
X199658098Y-48953809D02*
X199800955Y-49001428D01*
X199800955Y-49001428D02*
X199848574Y-49049047D01*
X199848574Y-49049047D02*
X199896193Y-49144285D01*
X199896193Y-49144285D02*
X199896193Y-49287142D01*
X199896193Y-49287142D02*
X199848574Y-49382380D01*
X199848574Y-49382380D02*
X199800955Y-49430000D01*
X199800955Y-49430000D02*
X199705717Y-49477619D01*
X199705717Y-49477619D02*
X199324765Y-49477619D01*
X199324765Y-49477619D02*
X199324765Y-48477619D01*
X199324765Y-48477619D02*
X199658098Y-48477619D01*
X199658098Y-48477619D02*
X199753336Y-48525238D01*
X199753336Y-48525238D02*
X199800955Y-48572857D01*
X199800955Y-48572857D02*
X199848574Y-48668095D01*
X199848574Y-48668095D02*
X199848574Y-48763333D01*
X199848574Y-48763333D02*
X199800955Y-48858571D01*
X199800955Y-48858571D02*
X199753336Y-48906190D01*
X199753336Y-48906190D02*
X199658098Y-48953809D01*
X199658098Y-48953809D02*
X199324765Y-48953809D01*
X200229527Y-48810952D02*
X200467622Y-49477619D01*
X200705717Y-48810952D02*
X200467622Y-49477619D01*
X200467622Y-49477619D02*
X200372384Y-49715714D01*
X200372384Y-49715714D02*
X200324765Y-49763333D01*
X200324765Y-49763333D02*
X200229527Y-49810952D01*
X201848575Y-49477619D02*
X201848575Y-48477619D01*
X201848575Y-48477619D02*
X202420003Y-49477619D01*
X202420003Y-49477619D02*
X202420003Y-48477619D01*
X202896194Y-49477619D02*
X202896194Y-48810952D01*
X202896194Y-48477619D02*
X202848575Y-48525238D01*
X202848575Y-48525238D02*
X202896194Y-48572857D01*
X202896194Y-48572857D02*
X202943813Y-48525238D01*
X202943813Y-48525238D02*
X202896194Y-48477619D01*
X202896194Y-48477619D02*
X202896194Y-48572857D01*
X203800955Y-49430000D02*
X203705717Y-49477619D01*
X203705717Y-49477619D02*
X203515241Y-49477619D01*
X203515241Y-49477619D02*
X203420003Y-49430000D01*
X203420003Y-49430000D02*
X203372384Y-49382380D01*
X203372384Y-49382380D02*
X203324765Y-49287142D01*
X203324765Y-49287142D02*
X203324765Y-49001428D01*
X203324765Y-49001428D02*
X203372384Y-48906190D01*
X203372384Y-48906190D02*
X203420003Y-48858571D01*
X203420003Y-48858571D02*
X203515241Y-48810952D01*
X203515241Y-48810952D02*
X203705717Y-48810952D01*
X203705717Y-48810952D02*
X203800955Y-48858571D01*
X204372384Y-49477619D02*
X204277146Y-49430000D01*
X204277146Y-49430000D02*
X204229527Y-49382380D01*
X204229527Y-49382380D02*
X204181908Y-49287142D01*
X204181908Y-49287142D02*
X204181908Y-49001428D01*
X204181908Y-49001428D02*
X204229527Y-48906190D01*
X204229527Y-48906190D02*
X204277146Y-48858571D01*
X204277146Y-48858571D02*
X204372384Y-48810952D01*
X204372384Y-48810952D02*
X204515241Y-48810952D01*
X204515241Y-48810952D02*
X204610479Y-48858571D01*
X204610479Y-48858571D02*
X204658098Y-48906190D01*
X204658098Y-48906190D02*
X204705717Y-49001428D01*
X204705717Y-49001428D02*
X204705717Y-49287142D01*
X204705717Y-49287142D02*
X204658098Y-49382380D01*
X204658098Y-49382380D02*
X204610479Y-49430000D01*
X204610479Y-49430000D02*
X204515241Y-49477619D01*
X204515241Y-49477619D02*
X204372384Y-49477619D01*
X205277146Y-49477619D02*
X205181908Y-49430000D01*
X205181908Y-49430000D02*
X205134289Y-49334761D01*
X205134289Y-49334761D02*
X205134289Y-48477619D01*
X206039051Y-49430000D02*
X205943813Y-49477619D01*
X205943813Y-49477619D02*
X205753337Y-49477619D01*
X205753337Y-49477619D02*
X205658099Y-49430000D01*
X205658099Y-49430000D02*
X205610480Y-49334761D01*
X205610480Y-49334761D02*
X205610480Y-48953809D01*
X205610480Y-48953809D02*
X205658099Y-48858571D01*
X205658099Y-48858571D02*
X205753337Y-48810952D01*
X205753337Y-48810952D02*
X205943813Y-48810952D01*
X205943813Y-48810952D02*
X206039051Y-48858571D01*
X206039051Y-48858571D02*
X206086670Y-48953809D01*
X206086670Y-48953809D02*
X206086670Y-49049047D01*
X206086670Y-49049047D02*
X205610480Y-49144285D01*
X207277147Y-49477619D02*
X207277147Y-48477619D01*
X207277147Y-48477619D02*
X207610480Y-49191904D01*
X207610480Y-49191904D02*
X207943813Y-48477619D01*
X207943813Y-48477619D02*
X207943813Y-49477619D01*
X208848575Y-49477619D02*
X208848575Y-48953809D01*
X208848575Y-48953809D02*
X208800956Y-48858571D01*
X208800956Y-48858571D02*
X208705718Y-48810952D01*
X208705718Y-48810952D02*
X208515242Y-48810952D01*
X208515242Y-48810952D02*
X208420004Y-48858571D01*
X208848575Y-49430000D02*
X208753337Y-49477619D01*
X208753337Y-49477619D02*
X208515242Y-49477619D01*
X208515242Y-49477619D02*
X208420004Y-49430000D01*
X208420004Y-49430000D02*
X208372385Y-49334761D01*
X208372385Y-49334761D02*
X208372385Y-49239523D01*
X208372385Y-49239523D02*
X208420004Y-49144285D01*
X208420004Y-49144285D02*
X208515242Y-49096666D01*
X208515242Y-49096666D02*
X208753337Y-49096666D01*
X208753337Y-49096666D02*
X208848575Y-49049047D01*
X209753337Y-48810952D02*
X209753337Y-49620476D01*
X209753337Y-49620476D02*
X209705718Y-49715714D01*
X209705718Y-49715714D02*
X209658099Y-49763333D01*
X209658099Y-49763333D02*
X209562861Y-49810952D01*
X209562861Y-49810952D02*
X209420004Y-49810952D01*
X209420004Y-49810952D02*
X209324766Y-49763333D01*
X209753337Y-49430000D02*
X209658099Y-49477619D01*
X209658099Y-49477619D02*
X209467623Y-49477619D01*
X209467623Y-49477619D02*
X209372385Y-49430000D01*
X209372385Y-49430000D02*
X209324766Y-49382380D01*
X209324766Y-49382380D02*
X209277147Y-49287142D01*
X209277147Y-49287142D02*
X209277147Y-49001428D01*
X209277147Y-49001428D02*
X209324766Y-48906190D01*
X209324766Y-48906190D02*
X209372385Y-48858571D01*
X209372385Y-48858571D02*
X209467623Y-48810952D01*
X209467623Y-48810952D02*
X209658099Y-48810952D01*
X209658099Y-48810952D02*
X209753337Y-48858571D01*
X210658099Y-48810952D02*
X210658099Y-49620476D01*
X210658099Y-49620476D02*
X210610480Y-49715714D01*
X210610480Y-49715714D02*
X210562861Y-49763333D01*
X210562861Y-49763333D02*
X210467623Y-49810952D01*
X210467623Y-49810952D02*
X210324766Y-49810952D01*
X210324766Y-49810952D02*
X210229528Y-49763333D01*
X210658099Y-49430000D02*
X210562861Y-49477619D01*
X210562861Y-49477619D02*
X210372385Y-49477619D01*
X210372385Y-49477619D02*
X210277147Y-49430000D01*
X210277147Y-49430000D02*
X210229528Y-49382380D01*
X210229528Y-49382380D02*
X210181909Y-49287142D01*
X210181909Y-49287142D02*
X210181909Y-49001428D01*
X210181909Y-49001428D02*
X210229528Y-48906190D01*
X210229528Y-48906190D02*
X210277147Y-48858571D01*
X210277147Y-48858571D02*
X210372385Y-48810952D01*
X210372385Y-48810952D02*
X210562861Y-48810952D01*
X210562861Y-48810952D02*
X210658099Y-48858571D01*
X211562861Y-49477619D02*
X211562861Y-48953809D01*
X211562861Y-48953809D02*
X211515242Y-48858571D01*
X211515242Y-48858571D02*
X211420004Y-48810952D01*
X211420004Y-48810952D02*
X211229528Y-48810952D01*
X211229528Y-48810952D02*
X211134290Y-48858571D01*
X211562861Y-49430000D02*
X211467623Y-49477619D01*
X211467623Y-49477619D02*
X211229528Y-49477619D01*
X211229528Y-49477619D02*
X211134290Y-49430000D01*
X211134290Y-49430000D02*
X211086671Y-49334761D01*
X211086671Y-49334761D02*
X211086671Y-49239523D01*
X211086671Y-49239523D02*
X211134290Y-49144285D01*
X211134290Y-49144285D02*
X211229528Y-49096666D01*
X211229528Y-49096666D02*
X211467623Y-49096666D01*
X211467623Y-49096666D02*
X211562861Y-49049047D01*
X212039052Y-49477619D02*
X212039052Y-48810952D01*
X212039052Y-49001428D02*
X212086671Y-48906190D01*
X212086671Y-48906190D02*
X212134290Y-48858571D01*
X212134290Y-48858571D02*
X212229528Y-48810952D01*
X212229528Y-48810952D02*
X212324766Y-48810952D01*
X213086671Y-49477619D02*
X213086671Y-48477619D01*
X213086671Y-49430000D02*
X212991433Y-49477619D01*
X212991433Y-49477619D02*
X212800957Y-49477619D01*
X212800957Y-49477619D02*
X212705719Y-49430000D01*
X212705719Y-49430000D02*
X212658100Y-49382380D01*
X212658100Y-49382380D02*
X212610481Y-49287142D01*
X212610481Y-49287142D02*
X212610481Y-49001428D01*
X212610481Y-49001428D02*
X212658100Y-48906190D01*
X212658100Y-48906190D02*
X212705719Y-48858571D01*
X212705719Y-48858571D02*
X212800957Y-48810952D01*
X212800957Y-48810952D02*
X212991433Y-48810952D01*
X212991433Y-48810952D02*
X213086671Y-48858571D01*
%TO.C,G\u002A\u002A\u002A*%
G36*
X197953873Y-51095760D02*
G01*
X198300776Y-51095760D01*
X198316177Y-51160561D01*
X198354071Y-51220168D01*
X198362590Y-51230520D01*
X198442115Y-51304752D01*
X198524419Y-51336718D01*
X198617558Y-51328481D01*
X198671536Y-51309585D01*
X198736159Y-51267705D01*
X198790055Y-51208966D01*
X198793495Y-51203566D01*
X198832517Y-51104535D01*
X198833434Y-51008842D01*
X198802407Y-50922723D01*
X198745597Y-50852410D01*
X198669164Y-50804140D01*
X198579270Y-50784147D01*
X198482076Y-50798665D01*
X198421634Y-50827254D01*
X198347954Y-50887129D01*
X198310638Y-50959706D01*
X198302832Y-51006924D01*
X198300776Y-51095760D01*
X197953873Y-51095760D01*
X197956323Y-51019225D01*
X197961376Y-50936661D01*
X197968771Y-50875793D01*
X197979379Y-50828973D01*
X197994070Y-50788553D01*
X198009499Y-50755380D01*
X198083318Y-50648984D01*
X198192344Y-50559402D01*
X198337692Y-50486304D01*
X198520473Y-50429362D01*
X198741803Y-50388245D01*
X199002793Y-50362626D01*
X199304559Y-50352175D01*
X199374384Y-50351877D01*
X199620334Y-50355565D01*
X199828168Y-50366891D01*
X200003889Y-50386690D01*
X200153499Y-50415801D01*
X200283002Y-50455060D01*
X200367669Y-50490315D01*
X200521673Y-50583331D01*
X200652262Y-50704203D01*
X200749839Y-50843813D01*
X200759384Y-50862427D01*
X200814015Y-50973444D01*
X200814015Y-51843919D01*
X200813941Y-52064303D01*
X200813565Y-52244691D01*
X200812655Y-52389729D01*
X200810981Y-52504060D01*
X200808310Y-52592329D01*
X200804410Y-52659181D01*
X200799051Y-52709259D01*
X200792001Y-52747209D01*
X200783028Y-52777674D01*
X200771901Y-52805300D01*
X200765374Y-52819681D01*
X200694072Y-52937753D01*
X200596415Y-53050432D01*
X200485612Y-53144255D01*
X200394708Y-53197450D01*
X200364950Y-53210463D01*
X200335662Y-53221195D01*
X200302299Y-53229925D01*
X200260311Y-53236936D01*
X200205151Y-53242508D01*
X200132272Y-53246923D01*
X200037124Y-53250461D01*
X199915161Y-53253405D01*
X199761835Y-53256035D01*
X199572597Y-53258632D01*
X199363224Y-53261230D01*
X198448109Y-53272390D01*
X198296919Y-53344006D01*
X198169903Y-53418755D01*
X198047139Y-53516928D01*
X197941122Y-53627009D01*
X197864344Y-53737482D01*
X197858969Y-53747688D01*
X197817011Y-53840902D01*
X197786124Y-53938344D01*
X197764912Y-54048737D01*
X197751981Y-54180804D01*
X197745936Y-54343266D01*
X197745034Y-54460032D01*
X197745034Y-54823620D01*
X197438136Y-54822127D01*
X197298879Y-54819165D01*
X197178414Y-54812166D01*
X197086037Y-54801832D01*
X197039644Y-54791966D01*
X196894540Y-54727350D01*
X196769404Y-54629565D01*
X196662942Y-54496684D01*
X196573863Y-54326777D01*
X196500873Y-54117915D01*
X196451815Y-53914728D01*
X196402593Y-53581746D01*
X196393612Y-53257385D01*
X196425110Y-52932391D01*
X196484634Y-52645814D01*
X196557431Y-52436491D01*
X196660560Y-52257242D01*
X196792418Y-52110153D01*
X196951402Y-51997310D01*
X197003611Y-51970697D01*
X197131238Y-51910879D01*
X199385544Y-51888559D01*
X199385544Y-51710000D01*
X198663993Y-51704108D01*
X197942443Y-51698217D01*
X197949758Y-51280031D01*
X197952740Y-51131132D01*
X197953873Y-51095760D01*
G37*
G36*
X197953403Y-55617131D02*
G01*
X199930084Y-55617131D01*
X199934155Y-55712929D01*
X199973516Y-55805890D01*
X200004387Y-55845189D01*
X200085754Y-55911664D01*
X200171453Y-55935834D01*
X200269511Y-55919386D01*
X200300886Y-55907477D01*
X200386643Y-55851652D01*
X200440159Y-55775604D01*
X200463194Y-55688032D01*
X200457509Y-55597637D01*
X200424863Y-55513120D01*
X200367017Y-55443180D01*
X200285731Y-55396519D01*
X200194495Y-55381617D01*
X200093508Y-55400738D01*
X200013370Y-55452232D01*
X199957692Y-55527298D01*
X199930084Y-55617131D01*
X197953403Y-55617131D01*
X197950506Y-55554978D01*
X197948280Y-55458166D01*
X197946992Y-55333379D01*
X197946377Y-55175813D01*
X197946166Y-54980666D01*
X197946131Y-54874677D01*
X197946197Y-54658690D01*
X197946674Y-54482459D01*
X197947795Y-54341103D01*
X197949790Y-54229740D01*
X197952892Y-54143487D01*
X197957331Y-54077463D01*
X197963341Y-54026784D01*
X197971151Y-53986568D01*
X197980995Y-53951934D01*
X197991297Y-53922800D01*
X198070223Y-53773435D01*
X198184836Y-53644220D01*
X198327907Y-53543018D01*
X198351884Y-53530486D01*
X198488719Y-53462109D01*
X199271929Y-53461667D01*
X199462163Y-53460931D01*
X199644666Y-53459044D01*
X199813000Y-53456159D01*
X199960726Y-53452432D01*
X200081405Y-53448017D01*
X200168600Y-53443070D01*
X200207497Y-53439197D01*
X200404097Y-53389085D01*
X200581480Y-53300165D01*
X200735147Y-53175774D01*
X200860596Y-53019248D01*
X200920958Y-52910224D01*
X200992573Y-52759033D01*
X200999480Y-52329376D01*
X201006386Y-51899719D01*
X201356598Y-51900698D01*
X201514172Y-51902570D01*
X201635501Y-51908311D01*
X201728926Y-51919610D01*
X201802789Y-51938157D01*
X201865431Y-51965640D01*
X201925193Y-52003747D01*
X201947533Y-52020334D01*
X202042519Y-52116913D01*
X202129157Y-52253238D01*
X202205948Y-52424941D01*
X202271390Y-52627657D01*
X202323985Y-52857020D01*
X202362232Y-53108663D01*
X202378030Y-53273279D01*
X202380772Y-53473291D01*
X202361680Y-53684060D01*
X202323210Y-53897086D01*
X202267821Y-54103874D01*
X202197971Y-54295926D01*
X202116117Y-54464743D01*
X202024718Y-54601829D01*
X201978908Y-54653135D01*
X201942568Y-54688956D01*
X201908347Y-54719372D01*
X201872428Y-54744824D01*
X201830995Y-54765754D01*
X201780231Y-54782605D01*
X201716319Y-54795819D01*
X201635444Y-54805838D01*
X201533788Y-54813104D01*
X201407536Y-54818060D01*
X201252870Y-54821147D01*
X201065975Y-54822808D01*
X200843033Y-54823485D01*
X200580229Y-54823619D01*
X200507362Y-54823620D01*
X199371817Y-54823620D01*
X199378680Y-54918480D01*
X199385544Y-55013339D01*
X200105359Y-55019228D01*
X200825175Y-55025117D01*
X200825175Y-55333235D01*
X200822479Y-55501337D01*
X200812897Y-55633618D01*
X200794187Y-55738655D01*
X200764107Y-55825023D01*
X200720414Y-55901301D01*
X200660866Y-55976063D01*
X200655578Y-55981983D01*
X200533581Y-56089144D01*
X200375348Y-56183598D01*
X200187920Y-56263583D01*
X199978337Y-56327337D01*
X199753641Y-56373097D01*
X199520872Y-56399102D01*
X199287072Y-56403590D01*
X199059280Y-56384799D01*
X199050746Y-56383589D01*
X198924329Y-56359809D01*
X198778860Y-56323761D01*
X198630680Y-56280201D01*
X198496134Y-56233884D01*
X198402783Y-56195000D01*
X198277443Y-56121106D01*
X198160034Y-56025431D01*
X198062474Y-55919110D01*
X197998528Y-55817307D01*
X197985063Y-55787493D01*
X197974138Y-55758520D01*
X197965487Y-55725584D01*
X197958842Y-55683884D01*
X197953938Y-55628616D01*
X197953403Y-55617131D01*
G37*
%TO.C,J14*%
D14*
X151876200Y-99341200D02*
X149923800Y-99341200D01*
X149923800Y-97938800D01*
X151876200Y-97938800D01*
X151876200Y-99341200D01*
G36*
X151876200Y-99341200D02*
G01*
X149923800Y-99341200D01*
X149923800Y-97938800D01*
X151876200Y-97938800D01*
X151876200Y-99341200D01*
G37*
X156666200Y-96411200D02*
X155513800Y-96411200D01*
X155513800Y-95658800D01*
X156666200Y-95658800D01*
X156666200Y-96411200D01*
G36*
X156666200Y-96411200D02*
G01*
X155513800Y-96411200D01*
X155513800Y-95658800D01*
X156666200Y-95658800D01*
X156666200Y-96411200D01*
G37*
X156666200Y-94911200D02*
X155513800Y-94911200D01*
X155513800Y-94158800D01*
X156666200Y-94158800D01*
X156666200Y-94911200D01*
G36*
X156666200Y-94911200D02*
G01*
X155513800Y-94911200D01*
X155513800Y-94158800D01*
X156666200Y-94158800D01*
X156666200Y-94911200D01*
G37*
X156666200Y-93411200D02*
X155513800Y-93411200D01*
X155513800Y-92658800D01*
X156666200Y-92658800D01*
X156666200Y-93411200D01*
G36*
X156666200Y-93411200D02*
G01*
X155513800Y-93411200D01*
X155513800Y-92658800D01*
X156666200Y-92658800D01*
X156666200Y-93411200D01*
G37*
X156666200Y-91911200D02*
X155513800Y-91911200D01*
X155513800Y-91158800D01*
X156666200Y-91158800D01*
X156666200Y-91911200D01*
G36*
X156666200Y-91911200D02*
G01*
X155513800Y-91911200D01*
X155513800Y-91158800D01*
X156666200Y-91158800D01*
X156666200Y-91911200D01*
G37*
X156666200Y-90411200D02*
X155513800Y-90411200D01*
X155513800Y-89658800D01*
X156666200Y-89658800D01*
X156666200Y-90411200D01*
G36*
X156666200Y-90411200D02*
G01*
X155513800Y-90411200D01*
X155513800Y-89658800D01*
X156666200Y-89658800D01*
X156666200Y-90411200D01*
G37*
X151876200Y-88131200D02*
X149923800Y-88131200D01*
X149923800Y-86728800D01*
X151876200Y-86728800D01*
X151876200Y-88131200D01*
G36*
X151876200Y-88131200D02*
G01*
X149923800Y-88131200D01*
X149923800Y-86728800D01*
X151876200Y-86728800D01*
X151876200Y-88131200D01*
G37*
%TD*%
D15*
%TO.C,JP7*%
X211010000Y-107140000D03*
D16*
X212310000Y-107140000D03*
D17*
X213610000Y-107140000D03*
%TD*%
D18*
%TO.C,C11*%
X203079411Y-89110589D03*
X202400589Y-89789411D03*
%TD*%
D19*
%TO.C,C13*%
X217210000Y-89295000D03*
X217210000Y-87745000D03*
%TD*%
D20*
%TO.C,R7*%
X215520000Y-81480000D03*
X217170000Y-81480000D03*
%TD*%
D21*
%TO.C,R15*%
X206960000Y-120650000D03*
X206960000Y-119630000D03*
%TD*%
D22*
%TO.C,J6*%
X153170000Y-71210000D03*
D23*
X150630000Y-68670000D03*
X150630000Y-73750000D03*
X155710000Y-68670000D03*
X155710000Y-73750000D03*
%TD*%
D24*
%TO.C,TP3*%
X154880000Y-118320000D03*
%TD*%
%TO.C,TP5*%
X179780000Y-118360000D03*
%TD*%
D25*
%TO.C,C16*%
X152910000Y-60185000D03*
X152910000Y-61735000D03*
%TD*%
D26*
%TO.C,J15*%
X171630000Y-132920000D03*
X170630000Y-132920000D03*
X169630000Y-132920000D03*
X168630000Y-132920000D03*
D27*
X172930000Y-135445000D03*
X167330000Y-135445000D03*
%TD*%
D28*
%TO.C,IC2*%
X224780000Y-95970000D03*
X224780000Y-93670000D03*
X224780000Y-91370000D03*
D29*
X218480000Y-93670000D03*
%TD*%
D30*
%TO.C,J9*%
X224995000Y-75920000D03*
X224995000Y-74920000D03*
X224995000Y-73920000D03*
X224995000Y-72920000D03*
D31*
X222470000Y-77220000D03*
X222470000Y-71620000D03*
%TD*%
D32*
%TO.C,R23*%
X161020000Y-113325000D03*
X161020000Y-114975000D03*
%TD*%
D33*
%TO.C,C4*%
X202780589Y-90849411D03*
X203459411Y-90170589D03*
%TD*%
D34*
%TO.C,D1*%
X209157500Y-63130000D03*
X207582500Y-63130000D03*
%TD*%
D35*
%TO.C,R6*%
X201245736Y-79979848D03*
D36*
X201811421Y-79414163D03*
X202377107Y-78848477D03*
D35*
X202942792Y-78282792D03*
X201670000Y-77010000D03*
D36*
X201104315Y-77575685D03*
X200538629Y-78141371D03*
D35*
X199972944Y-78707056D03*
%TD*%
D19*
%TO.C,C12*%
X218810000Y-89315000D03*
X218810000Y-87765000D03*
%TD*%
D37*
%TO.C,D3*%
X220382500Y-89190000D03*
X221957500Y-89190000D03*
%TD*%
D38*
%TO.C,SW2*%
X202480000Y-93910000D03*
X198380000Y-93910000D03*
X202480000Y-95510000D03*
X198380000Y-95510000D03*
%TD*%
D39*
%TO.C,C32*%
X189040000Y-86550000D03*
X190000000Y-86550000D03*
%TD*%
D40*
%TO.C,C34*%
X190300000Y-82430000D03*
X190300000Y-83390000D03*
%TD*%
D41*
%TO.C,L1*%
X156065000Y-60190000D03*
X154415000Y-60190000D03*
%TD*%
D42*
%TO.C,C3*%
X210853984Y-79396016D03*
X211950000Y-78300000D03*
%TD*%
D43*
%TO.C,J10*%
X187000000Y-77505000D03*
X186000000Y-77505000D03*
X185000000Y-77505000D03*
X184000000Y-77505000D03*
D44*
X188300000Y-80030000D03*
X182700000Y-80030000D03*
%TD*%
D45*
%TO.C,R2*%
X201460624Y-90269376D03*
X200739376Y-90990624D03*
%TD*%
D15*
%TO.C,JP9*%
X211010000Y-114870000D03*
D16*
X212310000Y-114870000D03*
D17*
X213610000Y-114870000D03*
%TD*%
D46*
%TO.C,Y1*%
X198642614Y-88692512D03*
X199880051Y-89929949D03*
X200870000Y-88940000D03*
X199632563Y-87702563D03*
%TD*%
D42*
%TO.C,C8*%
X211931992Y-80468008D03*
X213028008Y-79371992D03*
%TD*%
D47*
%TO.C,C10*%
X201909411Y-82689411D03*
X201230589Y-82010589D03*
%TD*%
D48*
%TO.C,C39*%
X163500000Y-129500000D03*
X162540000Y-129500000D03*
%TD*%
D24*
%TO.C,TP4*%
X170910000Y-126760000D03*
%TD*%
D49*
%TO.C,JP1*%
X217730000Y-129510000D03*
D50*
X219030000Y-129510000D03*
%TD*%
D51*
%TO.C,Y3*%
X172260000Y-118825000D03*
X172260000Y-117075000D03*
X170860000Y-117075000D03*
X170860000Y-118825000D03*
%TD*%
D52*
%TO.C,U10*%
X174350000Y-123060000D03*
X174350000Y-124010000D03*
X174350000Y-124960000D03*
X176625000Y-124960000D03*
X176625000Y-124010000D03*
X176625000Y-123060000D03*
%TD*%
D53*
%TO.C,*%
X227414400Y-138100000D03*
%TD*%
%TO.C,*%
X147381083Y-138100000D03*
%TD*%
D25*
%TO.C,C15*%
X157560000Y-60175000D03*
X157560000Y-61725000D03*
%TD*%
D54*
%TO.C,D8*%
X164750000Y-129047500D03*
X166650000Y-129047500D03*
X165700000Y-126772500D03*
%TD*%
D55*
%TO.C,R12*%
X220143363Y-72943363D03*
X218976637Y-71776637D03*
%TD*%
D56*
%TO.C,U4*%
X160910000Y-60001499D03*
X160910000Y-62001499D03*
X160910000Y-64001499D03*
X160910000Y-66001499D03*
X160910000Y-68001499D03*
X160910000Y-70001499D03*
X160910000Y-72001499D03*
X160910000Y-74001499D03*
X195910000Y-74001499D03*
X195910000Y-72001499D03*
X195910000Y-70001499D03*
X195910000Y-68001499D03*
X195910000Y-66001499D03*
X195910000Y-64001499D03*
X195910000Y-62001499D03*
X195910000Y-60001499D03*
D57*
X172477500Y-65251499D03*
%TD*%
D30*
%TO.C,J5*%
X197755000Y-110380000D03*
X197755000Y-111380000D03*
X197755000Y-112380000D03*
X197755000Y-113380000D03*
D31*
X200280000Y-109080000D03*
X200280000Y-114680000D03*
%TD*%
D20*
%TO.C,R4*%
X210685000Y-63130000D03*
X212335000Y-63130000D03*
%TD*%
D24*
%TO.C,TP2*%
X195510000Y-91320000D03*
%TD*%
D58*
%TO.C,U7*%
X187257500Y-87970000D03*
X187257500Y-88470000D03*
X187257500Y-88970000D03*
X187257500Y-89470000D03*
D59*
X187920000Y-89632500D03*
X188420000Y-89632500D03*
X188920000Y-89632500D03*
D58*
X189582500Y-89470000D03*
X189582500Y-88970000D03*
X189582500Y-88470000D03*
X189582500Y-87970000D03*
D59*
X188920000Y-87807500D03*
X188420000Y-87807500D03*
X187920000Y-87807500D03*
%TD*%
D18*
%TO.C,C2*%
X198499411Y-86870589D03*
X197820589Y-87549411D03*
%TD*%
D49*
%TO.C,JP6*%
X154540000Y-64220000D03*
D50*
X155840000Y-64220000D03*
%TD*%
D60*
%TO.C,C6*%
X212811992Y-85251992D03*
X213908008Y-86348008D03*
%TD*%
D15*
%TO.C,JP5*%
X211010000Y-109690000D03*
D16*
X212310000Y-109690000D03*
D17*
X213610000Y-109690000D03*
%TD*%
D47*
%TO.C,C9*%
X205989411Y-78729411D03*
X205310589Y-78050589D03*
%TD*%
D43*
%TO.C,J11*%
X180440000Y-92745000D03*
X181440000Y-92745000D03*
X182440000Y-92745000D03*
X183440000Y-92745000D03*
D44*
X179140000Y-90220000D03*
X184740000Y-90220000D03*
%TD*%
D20*
%TO.C,R26*%
X164850000Y-125070000D03*
X166500000Y-125070000D03*
%TD*%
D19*
%TO.C,C42*%
X178580000Y-124755000D03*
X178580000Y-123205000D03*
%TD*%
D15*
%TO.C,JP10*%
X170320000Y-80000000D03*
D16*
X171620000Y-80000000D03*
D17*
X172920000Y-80000000D03*
%TD*%
D39*
%TO.C,C37*%
X172180000Y-120200000D03*
X173140000Y-120200000D03*
%TD*%
D61*
%TO.C,U6*%
X214631454Y-70767377D03*
X213733428Y-71665403D03*
X212835403Y-72563428D03*
X211937377Y-73461454D03*
X217028546Y-78552623D03*
X217926572Y-77654597D03*
X218824597Y-76756572D03*
X219722623Y-75858546D03*
%TD*%
D34*
%TO.C,D2*%
X209137500Y-64730000D03*
X207562500Y-64730000D03*
%TD*%
D62*
%TO.C,C7*%
X208890589Y-90770589D03*
X209569411Y-91449411D03*
%TD*%
D41*
%TO.C,R27*%
X175725000Y-126600000D03*
X174075000Y-126600000D03*
%TD*%
D20*
%TO.C,R8*%
X215525000Y-83070000D03*
X217175000Y-83070000D03*
%TD*%
D63*
%TO.C,LED1*%
X218160000Y-99190000D03*
X218160000Y-102490000D03*
X223060000Y-102490000D03*
X223060000Y-99190000D03*
%TD*%
D62*
%TO.C,C1*%
X201330589Y-87440589D03*
X202009411Y-88119411D03*
%TD*%
D19*
%TO.C,C41*%
X180150000Y-125535000D03*
X180150000Y-123985000D03*
%TD*%
D64*
%TO.C,D4*%
X208964683Y-71637817D03*
X210520317Y-70082183D03*
%TD*%
D20*
%TO.C,R3*%
X210685000Y-64750000D03*
X212335000Y-64750000D03*
%TD*%
D65*
%TO.C,J4*%
X209635000Y-133480000D03*
X208535000Y-133480000D03*
X207435000Y-133480000D03*
X206335000Y-133480000D03*
X205235000Y-133480000D03*
X204135000Y-133480000D03*
X203035000Y-133480000D03*
D66*
X201985000Y-133480000D03*
D67*
X212270000Y-127330000D03*
X212270000Y-123630000D03*
D68*
X212095000Y-133355000D03*
D69*
X208770000Y-122655000D03*
X202800000Y-122655000D03*
D70*
X200775000Y-133130000D03*
%TD*%
D55*
%TO.C,R1*%
X205323363Y-92633363D03*
X204156637Y-91466637D03*
%TD*%
D71*
%TO.C,J7*%
X220050000Y-68150000D03*
X220050000Y-67150000D03*
X220050000Y-66150000D03*
X220050000Y-65150000D03*
D72*
X223925000Y-69450000D03*
X223925000Y-63850000D03*
%TD*%
D73*
%TO.C,R25*%
X169290000Y-123855000D03*
X169290000Y-122205000D03*
%TD*%
D48*
%TO.C,C40*%
X168870000Y-129500000D03*
X167910000Y-129500000D03*
%TD*%
D25*
%TO.C,C43*%
X175750000Y-119995000D03*
X175750000Y-121545000D03*
%TD*%
D74*
%TO.C,IC1*%
X205930000Y-85310000D03*
D75*
X206522202Y-81040843D03*
X206805045Y-81323686D03*
X207087887Y-81606528D03*
X207370730Y-81889371D03*
X207653573Y-82172214D03*
X207936415Y-82455056D03*
X208219258Y-82737899D03*
X208502101Y-83020742D03*
X208784944Y-83303585D03*
X209067786Y-83586427D03*
X209350629Y-83869270D03*
X209633472Y-84152113D03*
X209916314Y-84434955D03*
X210199157Y-84717798D03*
D76*
X210199157Y-85902202D03*
X209916314Y-86185045D03*
X209633472Y-86467887D03*
X209350629Y-86750730D03*
X209067786Y-87033573D03*
X208784944Y-87316415D03*
X208502101Y-87599258D03*
X208219258Y-87882101D03*
X207936415Y-88164944D03*
X207653573Y-88447786D03*
X207370730Y-88730629D03*
X207087887Y-89013472D03*
X206805045Y-89296314D03*
X206522202Y-89579157D03*
D75*
X205337798Y-89579157D03*
X205054955Y-89296314D03*
X204772113Y-89013472D03*
X204489270Y-88730629D03*
X204206427Y-88447786D03*
X203923585Y-88164944D03*
X203640742Y-87882101D03*
X203357899Y-87599258D03*
X203075056Y-87316415D03*
X202792214Y-87033573D03*
X202509371Y-86750730D03*
X202226528Y-86467887D03*
X201943686Y-86185045D03*
X201660843Y-85902202D03*
D76*
X201660843Y-84717798D03*
X201943686Y-84434955D03*
X202226528Y-84152113D03*
X202509371Y-83869270D03*
X202792214Y-83586427D03*
X203075056Y-83303585D03*
X203357899Y-83020742D03*
X203640742Y-82737899D03*
X203923585Y-82455056D03*
X204206427Y-82172214D03*
X204489270Y-81889371D03*
X204772113Y-81606528D03*
X205054955Y-81323686D03*
X205337798Y-81040843D03*
%TD*%
D39*
%TO.C,C31*%
X187860000Y-85190000D03*
X188820000Y-85190000D03*
%TD*%
D77*
%TO.C,U5*%
X177385000Y-74000000D03*
X177385000Y-72000000D03*
X177385000Y-70000000D03*
X177385000Y-68000000D03*
X177385000Y-66000000D03*
X177385000Y-64000000D03*
X177385000Y-62000000D03*
X177385000Y-60000000D03*
X162335000Y-60000000D03*
X162335000Y-62000000D03*
X162335000Y-64000000D03*
X162335000Y-66000000D03*
X162335000Y-68000000D03*
X162335000Y-70000000D03*
X162335000Y-72000000D03*
X162335000Y-74000000D03*
%TD*%
D15*
%TO.C,JP3*%
X211010000Y-120010000D03*
D16*
X212310000Y-120010000D03*
D17*
X213610000Y-120010000D03*
%TD*%
D47*
%TO.C,C5*%
X214538822Y-85218822D03*
X213860000Y-84540000D03*
%TD*%
D26*
%TO.C,J13*%
X162880000Y-132825000D03*
X161880000Y-132825000D03*
X160880000Y-132825000D03*
X159880000Y-132825000D03*
D27*
X164180000Y-135350000D03*
X158580000Y-135350000D03*
%TD*%
D73*
%TO.C,R24*%
X158270000Y-119795000D03*
X158270000Y-118145000D03*
%TD*%
D78*
%TO.C,U8*%
X187557500Y-82470000D03*
X187557500Y-82970000D03*
X187557500Y-83470000D03*
X187557500Y-83970000D03*
D79*
X188070000Y-83982500D03*
X188570000Y-83982500D03*
D78*
X189082500Y-83970000D03*
X189082500Y-83470000D03*
X189082500Y-82970000D03*
X189082500Y-82470000D03*
D79*
X188570000Y-82457500D03*
X188070000Y-82457500D03*
%TD*%
D38*
%TO.C,SW1*%
X197450000Y-83260000D03*
X193350000Y-83260000D03*
X197450000Y-84860000D03*
X193350000Y-84860000D03*
%TD*%
D80*
%TO.C,C14*%
X174405000Y-76950000D03*
X172855000Y-76950000D03*
%TD*%
D39*
%TO.C,C38*%
X171080000Y-115670000D03*
X172040000Y-115670000D03*
%TD*%
D81*
%TO.C,U9*%
X161885000Y-117670000D03*
X161885000Y-118320000D03*
X161885000Y-118970000D03*
X161885000Y-119620000D03*
X161885000Y-120270000D03*
X161885000Y-120920000D03*
X161885000Y-121570000D03*
D82*
X162772500Y-122457500D03*
X163422500Y-122457500D03*
X164072500Y-122457500D03*
X164722500Y-122457500D03*
X165372500Y-122457500D03*
X166022500Y-122457500D03*
X166672500Y-122457500D03*
D81*
X167560000Y-121570000D03*
X167560000Y-120920000D03*
X167560000Y-120270000D03*
X167560000Y-119620000D03*
X167560000Y-118970000D03*
X167560000Y-118320000D03*
X167560000Y-117670000D03*
D82*
X166672500Y-116782500D03*
X166022500Y-116782500D03*
X165372500Y-116782500D03*
X164722500Y-116782500D03*
X164072500Y-116782500D03*
X163422500Y-116782500D03*
X162772500Y-116782500D03*
D83*
X164722500Y-119620000D03*
%TD*%
D84*
%TO.C,J2*%
X217950000Y-124180000D03*
X217950000Y-122680000D03*
X217950000Y-121180000D03*
X217950000Y-119680000D03*
X217950000Y-118180000D03*
X217950000Y-116680000D03*
X217950000Y-115180000D03*
X217950000Y-113680000D03*
X217950000Y-112180000D03*
X217950000Y-110680000D03*
X217950000Y-109180000D03*
X217950000Y-107680000D03*
D85*
X223140000Y-126785000D03*
X223140000Y-105075000D03*
%TD*%
D40*
%TO.C,C33*%
X185690000Y-83040000D03*
X185690000Y-84000000D03*
%TD*%
D24*
%TO.C,TP1*%
X192960000Y-79300000D03*
%TD*%
D86*
%TO.C,R5*%
X202296637Y-100356637D03*
X203463363Y-101523363D03*
%TD*%
D15*
%TO.C,JP8*%
X211010000Y-112290000D03*
D16*
X212310000Y-112290000D03*
D17*
X213610000Y-112290000D03*
%TD*%
D15*
%TO.C,JP4*%
X211020000Y-117440000D03*
D16*
X212320000Y-117440000D03*
D17*
X213620000Y-117440000D03*
%TD*%
D87*
%TO.C,U3*%
X212627838Y-98956238D03*
X211729813Y-98058213D03*
X210831787Y-97160187D03*
X209933762Y-96262162D03*
X206292162Y-99903762D03*
X207190187Y-100801787D03*
X208088213Y-101699813D03*
X208986238Y-102597838D03*
%TD*%
D88*
%TO.C,R10*%
X212553363Y-67806637D03*
X211386637Y-68973363D03*
%TD*%
D89*
%TO.C,J8*%
X222260000Y-81720000D03*
X222260000Y-82370000D03*
X222260000Y-83020000D03*
X222260000Y-83670000D03*
X222260000Y-84320000D03*
D90*
X224920000Y-86970000D03*
D91*
X222620000Y-85482500D03*
D92*
X224920000Y-83957500D03*
X224920000Y-82082500D03*
D91*
X222620000Y-80557500D03*
D90*
X224920000Y-79070000D03*
%TD*%
D73*
%TO.C,R13*%
X180500000Y-79325000D03*
X180500000Y-77675000D03*
%TD*%
D93*
%TO.C,J3*%
X204330000Y-60190000D03*
D94*
X204330000Y-62730000D03*
X204330000Y-65270000D03*
X204330000Y-67810000D03*
X204330000Y-70350000D03*
X204330000Y-72890000D03*
%TD*%
D39*
%TO.C,C35*%
X187970000Y-90950000D03*
X188930000Y-90950000D03*
%TD*%
D41*
%TO.C,R9*%
X225065000Y-89180000D03*
X223415000Y-89180000D03*
%TD*%
D95*
%TO.C,J1*%
X200345000Y-97380000D03*
X196535000Y-97380000D03*
%TD*%
G36*
X223442946Y-49636608D02*
G01*
X227338202Y-49627940D01*
X227347692Y-49628277D01*
X227995056Y-49675724D01*
X228034308Y-49685079D01*
X228603298Y-49922159D01*
X228626284Y-49934683D01*
X229087963Y-50252515D01*
X229109748Y-50271542D01*
X229591266Y-50801213D01*
X229606523Y-50821893D01*
X229784671Y-51123518D01*
X229798292Y-51156534D01*
X230040144Y-52107334D01*
X230044024Y-52136891D01*
X230049533Y-52598528D01*
X230041700Y-52643789D01*
X229704374Y-53554689D01*
X229695615Y-53573445D01*
X229508374Y-53901118D01*
X229490183Y-53925536D01*
X229067070Y-54369468D01*
X229051462Y-54383337D01*
X228668419Y-54670619D01*
X228650301Y-54681943D01*
X228355842Y-54832900D01*
X228330826Y-54842522D01*
X227609798Y-55034797D01*
X227577332Y-55039051D01*
X223255209Y-55039051D01*
X223232669Y-55037019D01*
X222714324Y-54942774D01*
X222675648Y-54928936D01*
X222204120Y-54666835D01*
X222192100Y-54659235D01*
X221852348Y-54416555D01*
X221843741Y-54409825D01*
X221644962Y-54240005D01*
X221642788Y-54238105D01*
X221337547Y-53964992D01*
X221312165Y-53933606D01*
X221125770Y-53607415D01*
X221119536Y-53594952D01*
X220951003Y-53205589D01*
X220941609Y-53171166D01*
X220893825Y-52788894D01*
X220893824Y-52788894D01*
X220838383Y-52354226D01*
X220838198Y-52323859D01*
X220840520Y-52303708D01*
X222041575Y-52303708D01*
X222057408Y-52552843D01*
X222112403Y-52796341D01*
X222205184Y-53028103D01*
X222333417Y-53242293D01*
X222493874Y-53433522D01*
X222682538Y-53597005D01*
X222894656Y-53728622D01*
X223124908Y-53825072D01*
X223367514Y-53883933D01*
X223616359Y-53903722D01*
X227466358Y-53953721D01*
X227716658Y-53933984D01*
X227960788Y-53875379D01*
X228192751Y-53779302D01*
X228406827Y-53648120D01*
X228597743Y-53485068D01*
X228760798Y-53294159D01*
X228891984Y-53080087D01*
X228988066Y-52848128D01*
X229046679Y-52603993D01*
X229066377Y-52353699D01*
X229046679Y-52103406D01*
X228988066Y-51859271D01*
X228891984Y-51627312D01*
X228760798Y-51413240D01*
X228597743Y-51222331D01*
X228406827Y-51059279D01*
X228192751Y-50928097D01*
X227960788Y-50832020D01*
X227716659Y-50773415D01*
X227466359Y-50753722D01*
X223666331Y-50754515D01*
X223416988Y-50766352D01*
X223172637Y-50817485D01*
X222939439Y-50906581D01*
X222723253Y-51031400D01*
X222529499Y-51188813D01*
X222363048Y-51374862D01*
X222228088Y-51584867D01*
X222128001Y-51813565D01*
X222065305Y-52055205D01*
X222041575Y-52303708D01*
X220840520Y-52303708D01*
X220905629Y-51738728D01*
X220909649Y-51718538D01*
X221004661Y-51385996D01*
X221009878Y-51371265D01*
X221188731Y-50951064D01*
X221201313Y-50928340D01*
X221524068Y-50465489D01*
X221553518Y-50435508D01*
X221893847Y-50189048D01*
X222176254Y-49953709D01*
X222215468Y-49931518D01*
X222963430Y-49670967D01*
X222984165Y-49665668D01*
X223256197Y-49620329D01*
X223291086Y-49619415D01*
X223442946Y-49636608D01*
G37*
G36*
X146698671Y-49728314D02*
G01*
X150593927Y-49719646D01*
X150603417Y-49719983D01*
X151250781Y-49767430D01*
X151290033Y-49776785D01*
X151859023Y-50013865D01*
X151882009Y-50026389D01*
X152343688Y-50344221D01*
X152365473Y-50363248D01*
X152846991Y-50892919D01*
X152862248Y-50913599D01*
X153040396Y-51215224D01*
X153054017Y-51248240D01*
X153295869Y-52199040D01*
X153299749Y-52228597D01*
X153305258Y-52690234D01*
X153297425Y-52735495D01*
X152960099Y-53646395D01*
X152951340Y-53665151D01*
X152764099Y-53992824D01*
X152745908Y-54017242D01*
X152322795Y-54461174D01*
X152307187Y-54475043D01*
X151924144Y-54762325D01*
X151906026Y-54773649D01*
X151611567Y-54924606D01*
X151586551Y-54934228D01*
X150865523Y-55126503D01*
X150833057Y-55130757D01*
X146510934Y-55130757D01*
X146488394Y-55128725D01*
X145970049Y-55034480D01*
X145931373Y-55020642D01*
X145459845Y-54758541D01*
X145447825Y-54750941D01*
X145108073Y-54508261D01*
X145099466Y-54501531D01*
X144900687Y-54331711D01*
X144898513Y-54329811D01*
X144593272Y-54056698D01*
X144567890Y-54025312D01*
X144381495Y-53699121D01*
X144375261Y-53686658D01*
X144206728Y-53297295D01*
X144197334Y-53262872D01*
X144149550Y-52880600D01*
X144149549Y-52880600D01*
X144101699Y-52505443D01*
X145824909Y-52505443D01*
X145860231Y-52752169D01*
X145933952Y-52990270D01*
X146044228Y-53213795D01*
X146188316Y-53417175D01*
X146362617Y-53595338D01*
X146562791Y-53743845D01*
X146783846Y-53858993D01*
X147020276Y-53937911D01*
X147266160Y-53978713D01*
X150016362Y-54003721D01*
X150266666Y-53984027D01*
X150510802Y-53925421D01*
X150742773Y-53829340D01*
X150956847Y-53698159D01*
X151147774Y-53535098D01*
X151310836Y-53344181D01*
X151442023Y-53130106D01*
X151538109Y-52898140D01*
X151596720Y-52654002D01*
X151616421Y-52403699D01*
X151596720Y-52153397D01*
X151538109Y-51909259D01*
X151442023Y-51677293D01*
X151310836Y-51463218D01*
X151147774Y-51272301D01*
X150956847Y-51109240D01*
X150742773Y-50978059D01*
X150510802Y-50881978D01*
X150266668Y-50823372D01*
X150016353Y-50803721D01*
X147316143Y-50829505D01*
X147069070Y-50862403D01*
X146830262Y-50933780D01*
X146605665Y-51041855D01*
X146400879Y-51183938D01*
X146221013Y-51356482D01*
X146070547Y-51555186D01*
X145953230Y-51775104D01*
X145871996Y-52010738D01*
X145828862Y-52256227D01*
X145824909Y-52505443D01*
X144101699Y-52505443D01*
X144094108Y-52445932D01*
X144093923Y-52415565D01*
X144161354Y-51830434D01*
X144165374Y-51810244D01*
X144260386Y-51477702D01*
X144265603Y-51462971D01*
X144444456Y-51042770D01*
X144457038Y-51020046D01*
X144779793Y-50557195D01*
X144809243Y-50527214D01*
X145149572Y-50280754D01*
X145431979Y-50045415D01*
X145471193Y-50023224D01*
X146219155Y-49762673D01*
X146239890Y-49757374D01*
X146511922Y-49712035D01*
X146546811Y-49711121D01*
X146698671Y-49728314D01*
G37*
M02*
