%TF.GenerationSoftware,KiCad,Pcbnew,9.0.0*%
%TF.CreationDate,2025-10-06T19:53:24-07:00*%
%TF.ProjectId,hat_board,6861745f-626f-4617-9264-2e6b69636164,3.1*%
%TF.SameCoordinates,Original*%
%TF.FileFunction,Soldermask,Top*%
%TF.FilePolarity,Negative*%
%FSLAX46Y46*%
G04 Gerber Fmt 4.6, Leading zero omitted, Abs format (unit mm)*
G04 Created by KiCad (PCBNEW 9.0.0) date 2025-10-06 19:53:24*
%MOMM*%
%LPD*%
G01*
G04 APERTURE LIST*
G04 Aperture macros list*
%AMRoundRect*
0 Rectangle with rounded corners*
0 $1 Rounding radius*
0 $2 $3 $4 $5 $6 $7 $8 $9 X,Y pos of 4 corners*
0 Add a 4 corners polygon primitive as box body*
4,1,4,$2,$3,$4,$5,$6,$7,$8,$9,$2,$3,0*
0 Add four circle primitives for the rounded corners*
1,1,$1+$1,$2,$3*
1,1,$1+$1,$4,$5*
1,1,$1+$1,$6,$7*
1,1,$1+$1,$8,$9*
0 Add four rect primitives between the rounded corners*
20,1,$1+$1,$2,$3,$4,$5,0*
20,1,$1+$1,$4,$5,$6,$7,0*
20,1,$1+$1,$6,$7,$8,$9,0*
20,1,$1+$1,$8,$9,$2,$3,0*%
G04 Aperture macros list end*
%ADD10RoundRect,0.200000X0.275000X-0.200000X0.275000X0.200000X-0.275000X0.200000X-0.275000X-0.200000X0*%
%ADD11RoundRect,0.250000X0.475000X-0.250000X0.475000X0.250000X-0.475000X0.250000X-0.475000X-0.250000X0*%
%ADD12RoundRect,0.125000X-0.687500X-0.125000X0.687500X-0.125000X0.687500X0.125000X-0.687500X0.125000X0*%
%ADD13RoundRect,0.250000X-0.475000X0.250000X-0.475000X-0.250000X0.475000X-0.250000X0.475000X0.250000X0*%
%ADD14R,1.350000X1.350000*%
%ADD15C,1.350000*%
%ADD16RoundRect,0.200000X0.200000X0.275000X-0.200000X0.275000X-0.200000X-0.275000X0.200000X-0.275000X0*%
%ADD17RoundRect,0.200000X-0.275000X0.200000X-0.275000X-0.200000X0.275000X-0.200000X0.275000X0.200000X0*%
%ADD18R,2.400000X1.500000*%
%ADD19R,1.050000X1.500000*%
%ADD20C,5.600000*%
%ADD21RoundRect,0.200000X-0.200000X-0.275000X0.200000X-0.275000X0.200000X0.275000X-0.200000X0.275000X0*%
%ADD22RoundRect,0.140000X-0.170000X0.140000X-0.170000X-0.140000X0.170000X-0.140000X0.170000X0.140000X0*%
%ADD23R,1.500000X2.400000*%
%ADD24R,1.500000X1.050000*%
%ADD25RoundRect,0.250000X0.250000X0.475000X-0.250000X0.475000X-0.250000X-0.475000X0.250000X-0.475000X0*%
%ADD26RoundRect,0.140000X0.170000X-0.140000X0.170000X0.140000X-0.170000X0.140000X-0.170000X-0.140000X0*%
%ADD27RoundRect,0.125000X-0.125000X0.687500X-0.125000X-0.687500X0.125000X-0.687500X0.125000X0.687500X0*%
%ADD28R,0.600000X0.300000*%
%ADD29RoundRect,0.250000X-0.250000X-0.475000X0.250000X-0.475000X0.250000X0.475000X-0.250000X0.475000X0*%
%ADD30RoundRect,0.075000X-0.650000X-0.075000X0.650000X-0.075000X0.650000X0.075000X-0.650000X0.075000X0*%
%ADD31RoundRect,0.140000X-0.140000X-0.170000X0.140000X-0.170000X0.140000X0.170000X-0.140000X0.170000X0*%
%ADD32R,0.700000X1.600000*%
%ADD33RoundRect,0.140000X0.140000X0.170000X-0.140000X0.170000X-0.140000X-0.170000X0.140000X-0.170000X0*%
%ADD34R,1.500000X1.500000*%
%ADD35C,1.500000*%
G04 APERTURE END LIST*
D10*
%TO.C,R15*%
X212750000Y-84325000D03*
X212750000Y-82675000D03*
%TD*%
D11*
%TO.C,C16*%
X204070000Y-86990000D03*
X204070000Y-85090000D03*
%TD*%
D12*
%TO.C,U5*%
X232495000Y-82200000D03*
X232495000Y-82850000D03*
X232495000Y-83500000D03*
X232495000Y-84150000D03*
X236720000Y-84150000D03*
X236720000Y-83500000D03*
X236720000Y-82850000D03*
X236720000Y-82200000D03*
%TD*%
D13*
%TO.C,C17*%
X204100000Y-80660000D03*
X204100000Y-82560000D03*
%TD*%
D14*
%TO.C,J2*%
X220420000Y-77430000D03*
D15*
X222420000Y-77430000D03*
X224420000Y-77430000D03*
X226420000Y-77430000D03*
%TD*%
D16*
%TO.C,R21*%
X181705000Y-103600000D03*
X180055000Y-103600000D03*
%TD*%
D17*
%TO.C,R7*%
X238800000Y-82335000D03*
X238800000Y-83985000D03*
%TD*%
D12*
%TO.C,U13*%
X234025000Y-105910000D03*
X234025000Y-106560000D03*
X234025000Y-107210000D03*
X234025000Y-107860000D03*
X238250000Y-107860000D03*
X238250000Y-107210000D03*
X238250000Y-106560000D03*
X238250000Y-105910000D03*
%TD*%
D16*
%TO.C,R6*%
X234750000Y-80390000D03*
X233100000Y-80390000D03*
%TD*%
D18*
%TO.C,D1*%
X175870000Y-102620000D03*
D19*
X178250000Y-102620000D03*
%TD*%
D20*
%TO.C,H1*%
X169210394Y-129109194D03*
%TD*%
D17*
%TO.C,R17*%
X240990000Y-106015000D03*
X240990000Y-107665000D03*
%TD*%
D16*
%TO.C,R16*%
X235560000Y-104160000D03*
X233910000Y-104160000D03*
%TD*%
D21*
%TO.C,R26*%
X233935000Y-59800000D03*
X235585000Y-59800000D03*
%TD*%
D22*
%TO.C,C8*%
X230680000Y-82210000D03*
X230680000Y-83170000D03*
%TD*%
D12*
%TO.C,U17*%
X180240000Y-105300000D03*
X180240000Y-105950000D03*
X180240000Y-106600000D03*
X180240000Y-107250000D03*
X184465000Y-107250000D03*
X184465000Y-106600000D03*
X184465000Y-105950000D03*
X184465000Y-105300000D03*
%TD*%
D23*
%TO.C,D4*%
X240800000Y-84370000D03*
D24*
X240800000Y-81990000D03*
%TD*%
D25*
%TO.C,C19*%
X235640000Y-109860000D03*
X233740000Y-109860000D03*
%TD*%
D22*
%TO.C,C26*%
X177230000Y-106090000D03*
X177230000Y-107050000D03*
%TD*%
D16*
%TO.C,R27*%
X240830000Y-58690000D03*
X239180000Y-58690000D03*
%TD*%
D25*
%TO.C,C25*%
X179160000Y-109720000D03*
X177260000Y-109720000D03*
%TD*%
D20*
%TO.C,H2*%
X249210394Y-129109194D03*
%TD*%
D26*
%TO.C,C39*%
X203230000Y-96130000D03*
X203230000Y-95170000D03*
%TD*%
D12*
%TO.C,U9*%
X234885000Y-95110000D03*
X234885000Y-95760000D03*
X234885000Y-96410000D03*
X234885000Y-97060000D03*
X239110000Y-97060000D03*
X239110000Y-96410000D03*
X239110000Y-95760000D03*
X239110000Y-95110000D03*
%TD*%
%TO.C,U21*%
X234347500Y-55295000D03*
X234347500Y-55945000D03*
X234347500Y-56595000D03*
X234347500Y-57245000D03*
X238572500Y-57245000D03*
X238572500Y-56595000D03*
X238572500Y-55945000D03*
X238572500Y-55295000D03*
%TD*%
D21*
%TO.C,R22*%
X181190000Y-110680000D03*
X182840000Y-110680000D03*
%TD*%
D17*
%TO.C,R12*%
X241350000Y-95490000D03*
X241350000Y-97140000D03*
%TD*%
D27*
%TO.C,U4*%
X243975000Y-73627500D03*
X243325000Y-73627500D03*
X242675000Y-73627500D03*
X242025000Y-73627500D03*
X242025000Y-77852500D03*
X242675000Y-77852500D03*
X243325000Y-77852500D03*
X243975000Y-77852500D03*
%TD*%
D28*
%TO.C,U27*%
X205920000Y-96430000D03*
X205920000Y-95930000D03*
X205920000Y-95430000D03*
X204420000Y-95430000D03*
X204420000Y-95930000D03*
X204420000Y-96430000D03*
%TD*%
D22*
%TO.C,C20*%
X232100000Y-106350000D03*
X232100000Y-107310000D03*
%TD*%
D29*
%TO.C,C5*%
X245930000Y-78160000D03*
X247830000Y-78160000D03*
%TD*%
D10*
%TO.C,R5*%
X245860000Y-74990000D03*
X245860000Y-73340000D03*
%TD*%
D22*
%TO.C,C14*%
X233040000Y-95990000D03*
X233040000Y-96950000D03*
%TD*%
D30*
%TO.C,U12*%
X206500000Y-82560000D03*
X206500000Y-83060000D03*
X206500000Y-83560000D03*
X206500000Y-84060000D03*
X206500000Y-84560000D03*
X210900000Y-84560000D03*
X210900000Y-84060000D03*
X210900000Y-83560000D03*
X210900000Y-83060000D03*
X210900000Y-82560000D03*
%TD*%
D16*
%TO.C,R11*%
X237872500Y-93375000D03*
X236222500Y-93375000D03*
%TD*%
D31*
%TO.C,C18*%
X209200000Y-69380000D03*
X210160000Y-69380000D03*
%TD*%
D22*
%TO.C,C32*%
X237240000Y-59660000D03*
X237240000Y-60620000D03*
%TD*%
D32*
%TO.C,U10*%
X207790000Y-67820000D03*
X209060000Y-67820000D03*
X210320000Y-67820000D03*
X211590000Y-67820000D03*
%TD*%
D18*
%TO.C,D2*%
X248220000Y-50920000D03*
D19*
X245840000Y-50920000D03*
%TD*%
D25*
%TO.C,C7*%
X234300000Y-86420000D03*
X232400000Y-86420000D03*
%TD*%
D33*
%TO.C,C4*%
X243620000Y-71830000D03*
X242660000Y-71830000D03*
%TD*%
D10*
%TO.C,R1*%
X224330000Y-74900000D03*
X224330000Y-73250000D03*
%TD*%
D25*
%TO.C,C13*%
X236660000Y-99240000D03*
X234760000Y-99240000D03*
%TD*%
D10*
%TO.C,R2*%
X222310000Y-74890000D03*
X222310000Y-73240000D03*
%TD*%
D25*
%TO.C,C31*%
X240690000Y-60790000D03*
X238790000Y-60790000D03*
%TD*%
D18*
%TO.C,D3*%
X240952500Y-104140000D03*
D19*
X238572500Y-104140000D03*
%TD*%
D10*
%TO.C,R4*%
X240610000Y-80380000D03*
X240610000Y-78730000D03*
%TD*%
D34*
%TO.C,J3*%
X174310000Y-105930000D03*
D35*
X172310000Y-105930000D03*
X174310000Y-107930000D03*
X172310000Y-107930000D03*
X174310000Y-109930000D03*
X172310000Y-109930000D03*
X174310000Y-111930000D03*
X172310000Y-111930000D03*
X174310000Y-113930000D03*
X172310000Y-113930000D03*
X174310000Y-115930000D03*
X172310000Y-115930000D03*
%TD*%
D34*
%TO.C,J6*%
X246160000Y-81320000D03*
D35*
X244160000Y-81320000D03*
X246160000Y-83320000D03*
X244160000Y-83320000D03*
X246160000Y-85320000D03*
X244160000Y-85320000D03*
X246160000Y-87320000D03*
X244160000Y-87320000D03*
X246160000Y-89320000D03*
X244160000Y-89320000D03*
X246160000Y-91320000D03*
X244160000Y-91320000D03*
%TD*%
D34*
%TO.C,J5*%
X246110000Y-96330000D03*
D35*
X244110000Y-96330000D03*
X246110000Y-98330000D03*
X244110000Y-98330000D03*
X246110000Y-100330000D03*
X244110000Y-100330000D03*
X246110000Y-102330000D03*
X244110000Y-102330000D03*
X246110000Y-104330000D03*
X244110000Y-104330000D03*
X246110000Y-106330000D03*
X244110000Y-106330000D03*
%TD*%
D34*
%TO.C,J4*%
X244100000Y-64320000D03*
D35*
X246100000Y-64320000D03*
X244100000Y-62320000D03*
X246100000Y-62320000D03*
X244100000Y-60320000D03*
X246100000Y-60320000D03*
X244100000Y-58320000D03*
X246100000Y-58320000D03*
X244100000Y-56320000D03*
X246100000Y-56320000D03*
X244100000Y-54320000D03*
X246100000Y-54320000D03*
%TD*%
M02*
