%TF.GenerationSoftware,KiCad,Pcbnew,9.0.0*%
%TF.CreationDate,2025-10-06T19:53:24-07:00*%
%TF.ProjectId,hat_board,6861745f-626f-4617-9264-2e6b69636164,3.1*%
%TF.SameCoordinates,Original*%
%TF.FileFunction,Copper,L4,Bot*%
%TF.FilePolarity,Positive*%
%FSLAX46Y46*%
G04 Gerber Fmt 4.6, Leading zero omitted, Abs format (unit mm)*
G04 Created by KiCad (PCBNEW 9.0.0) date 2025-10-06 19:53:24*
%MOMM*%
%LPD*%
G01*
G04 APERTURE LIST*
%TA.AperFunction,ComponentPad*%
%ADD10R,1.350000X1.350000*%
%TD*%
%TA.AperFunction,ComponentPad*%
%ADD11C,1.350000*%
%TD*%
%TA.AperFunction,ComponentPad*%
%ADD12C,5.600000*%
%TD*%
%TA.AperFunction,ComponentPad*%
%ADD13R,1.500000X1.500000*%
%TD*%
%TA.AperFunction,ComponentPad*%
%ADD14C,1.500000*%
%TD*%
%TA.AperFunction,ViaPad*%
%ADD15C,0.800000*%
%TD*%
%TA.AperFunction,Conductor*%
%ADD16C,0.152400*%
%TD*%
%TA.AperFunction,Conductor*%
%ADD17C,0.300000*%
%TD*%
%TA.AperFunction,Conductor*%
%ADD18C,0.127000*%
%TD*%
%TA.AperFunction,Conductor*%
%ADD19C,0.250000*%
%TD*%
G04 APERTURE END LIST*
D10*
%TO.P,J2,1,Pin_1*%
%TO.N,GND*%
X220420000Y-77430000D03*
D11*
%TO.P,J2,2,Pin_2*%
%TO.N,SCL*%
X222420000Y-77430000D03*
%TO.P,J2,3,Pin_3*%
%TO.N,SDA*%
X224420000Y-77430000D03*
%TO.P,J2,4,Pin_4*%
%TO.N,GND*%
X226420000Y-77430000D03*
%TD*%
D12*
%TO.P,H1,1*%
%TO.N,N/C*%
X169210394Y-129109194D03*
%TD*%
%TO.P,H2,1*%
%TO.N,N/C*%
X249210394Y-129109194D03*
%TD*%
D13*
%TO.P,J3,1,Pin_1*%
%TO.N,unconnected-(J3-Pin_1-Pad1)*%
X174310000Y-105930000D03*
D14*
%TO.P,J3,2,Pin_2*%
%TO.N,/SDAINZ*%
X172310000Y-105930000D03*
%TO.P,J3,3,Pin_3*%
%TO.N,unconnected-(J3-Pin_3-Pad3)*%
X174310000Y-107930000D03*
%TO.P,J3,4,Pin_4*%
%TO.N,Net-(D1-K)*%
X172310000Y-107930000D03*
%TO.P,J3,5,Pin_5*%
%TO.N,GND*%
X174310000Y-109930000D03*
%TO.P,J3,6,Pin_6*%
%TO.N,/SCLINZ*%
X172310000Y-109930000D03*
%TO.P,J3,7*%
%TO.N,N/C*%
X174310000Y-111930000D03*
%TO.P,J3,8*%
X172310000Y-111930000D03*
%TO.P,J3,9*%
X174310000Y-113930000D03*
%TO.P,J3,10*%
X172310000Y-113930000D03*
%TO.P,J3,11*%
X174310000Y-115930000D03*
%TO.P,J3,12*%
X172310000Y-115930000D03*
%TD*%
D13*
%TO.P,J6,1,Pin_1*%
%TO.N,unconnected-(J6-Pin_1-Pad1)*%
X246160000Y-81320000D03*
D14*
%TO.P,J6,2,Pin_2*%
%TO.N,/SDAIN_F1*%
X244160000Y-81320000D03*
%TO.P,J6,3,Pin_3*%
%TO.N,unconnected-(J6-Pin_3-Pad3)*%
X246160000Y-83320000D03*
%TO.P,J6,4,Pin_4*%
%TO.N,Net-(D4-K)*%
X244160000Y-83320000D03*
%TO.P,J6,5,Pin_5*%
%TO.N,GND*%
X246160000Y-85320000D03*
%TO.P,J6,6,Pin_6*%
%TO.N,/SCLIN_F1*%
X244160000Y-85320000D03*
%TO.P,J6,7,Pin_7*%
%TO.N,unconnected-(J6-Pin_7-Pad7)*%
X246160000Y-87320000D03*
%TO.P,J6,8,Pin_8*%
%TO.N,/SCLIN_F2*%
X244160000Y-87320000D03*
%TO.P,J6,9,Pin_9*%
%TO.N,unconnected-(J6-Pin_9-Pad9)*%
X246160000Y-89320000D03*
%TO.P,J6,10,Pin_10*%
%TO.N,Net-(D4-K)*%
X244160000Y-89320000D03*
%TO.P,J6,11,Pin_11*%
%TO.N,GND*%
X246160000Y-91320000D03*
%TO.P,J6,12,Pin_12*%
%TO.N,/SDAIN_F2*%
X244160000Y-91320000D03*
%TD*%
D13*
%TO.P,J5,1,Pin_1*%
%TO.N,unconnected-(J5-Pin_1-Pad1)*%
X246110000Y-96330000D03*
D14*
%TO.P,J5,2,Pin_2*%
%TO.N,/SDAIN_F3*%
X244110000Y-96330000D03*
%TO.P,J5,3,Pin_3*%
%TO.N,unconnected-(J5-Pin_3-Pad3)*%
X246110000Y-98330000D03*
%TO.P,J5,4,Pin_4*%
%TO.N,Net-(D3-K)*%
X244110000Y-98330000D03*
%TO.P,J5,5,Pin_5*%
%TO.N,GND*%
X246110000Y-100330000D03*
%TO.P,J5,6,Pin_6*%
%TO.N,/SCLIN_F3*%
X244110000Y-100330000D03*
%TO.P,J5,7,Pin_7*%
%TO.N,unconnected-(J5-Pin_7-Pad7)*%
X246110000Y-102330000D03*
%TO.P,J5,8,Pin_8*%
%TO.N,/SCLIN_F4*%
X244110000Y-102330000D03*
%TO.P,J5,9,Pin_9*%
%TO.N,unconnected-(J5-Pin_9-Pad9)*%
X246110000Y-104330000D03*
%TO.P,J5,10,Pin_10*%
%TO.N,Net-(D3-K)*%
X244110000Y-104330000D03*
%TO.P,J5,11,Pin_11*%
%TO.N,GND*%
X246110000Y-106330000D03*
%TO.P,J5,12,Pin_12*%
%TO.N,/SCDAIN_F4*%
X244110000Y-106330000D03*
%TD*%
D13*
%TO.P,J4,1,Pin_1*%
%TO.N,unconnected-(J4-Pin_1-Pad1)*%
X244100000Y-64320000D03*
D14*
%TO.P,J4,2,Pin_2*%
%TO.N,unconnected-(J4-Pin_2-Pad2)*%
X246100000Y-64320000D03*
%TO.P,J4,3,Pin_3*%
%TO.N,unconnected-(J4-Pin_3-Pad3)*%
X244100000Y-62320000D03*
%TO.P,J4,4,Pin_4*%
%TO.N,unconnected-(J4-Pin_4-Pad4)*%
X246100000Y-62320000D03*
%TO.P,J4,5,Pin_5*%
%TO.N,/SDAIN_ANT*%
X244100000Y-60320000D03*
%TO.P,J4,6,Pin_6*%
%TO.N,Net-(D2-K)*%
X246100000Y-60320000D03*
%TO.P,J4,7,Pin_7*%
%TO.N,/SCLIN_ANT*%
X244100000Y-58320000D03*
%TO.P,J4,8,Pin_8*%
%TO.N,unconnected-(J4-Pin_8-Pad8)*%
X246100000Y-58320000D03*
%TO.P,J4,9,Pin_9*%
%TO.N,unconnected-(J4-Pin_9-Pad9)*%
X244100000Y-56320000D03*
%TO.P,J4,10,Pin_10*%
%TO.N,unconnected-(J4-Pin_10-Pad10)*%
X246100000Y-56320000D03*
%TO.P,J4,11,Pin_11*%
%TO.N,GND*%
X244100000Y-54320000D03*
%TO.P,J4,12,Pin_12*%
X246100000Y-54320000D03*
%TD*%
D15*
%TO.N,+3V3*%
X238920000Y-81010000D03*
X238743750Y-94246250D03*
X184490000Y-104400000D03*
X183085000Y-103650000D03*
X178220000Y-100910000D03*
X238030000Y-99270000D03*
X203210000Y-97240000D03*
X235720000Y-81360000D03*
X222320000Y-71980000D03*
X235790000Y-86440000D03*
X240450000Y-95110000D03*
X242010000Y-58560000D03*
X209610000Y-82550000D03*
X245800000Y-49270000D03*
X246760000Y-76480000D03*
X236920000Y-105080000D03*
X180780000Y-109420000D03*
X224350000Y-72040000D03*
X237120000Y-109800000D03*
X205640000Y-86320000D03*
X209110000Y-70490000D03*
X241890000Y-60790000D03*
X233950000Y-58460000D03*
%TO.N,GND*%
X180040000Y-108280000D03*
X237500000Y-61850000D03*
X220420000Y-79540000D03*
X243970000Y-52310000D03*
X230630000Y-84300000D03*
X177330000Y-108200000D03*
X235590000Y-58430000D03*
X228790000Y-77360000D03*
X241620000Y-71880000D03*
X246110000Y-52430000D03*
X177210000Y-111620000D03*
X232580000Y-108820000D03*
X209560000Y-83570000D03*
X204100000Y-83830000D03*
X207080000Y-95960000D03*
X203240000Y-94070000D03*
X210160000Y-70490000D03*
X247920000Y-76460000D03*
X233510000Y-98250000D03*
X230940000Y-86530000D03*
X235440000Y-107830000D03*
%TO.N,Net-(D1-K)*%
X172050000Y-103706500D03*
%TO.N,Net-(D3-K)*%
X242880000Y-97560000D03*
X240920000Y-102160000D03*
%TO.N,/SCLIN_F4*%
X236620000Y-107830000D03*
%TO.N,/SDAINZ*%
X182350000Y-106150000D03*
%TO.N,/SCLINZ*%
X175930000Y-106720000D03*
X178200000Y-107260000D03*
%TO.N,/SDAIN_F1*%
X242650000Y-79350000D03*
%TO.N,/SCLIN_F1*%
X244000000Y-76070000D03*
%TO.N,/SDAIN_F2*%
X235040000Y-83730000D03*
%TO.N,/SCLIN_F2*%
X238380000Y-85760000D03*
%TO.N,Net-(U21-EN)*%
X235390000Y-61240000D03*
X232330000Y-55870000D03*
%TO.N,SDA*%
X225790000Y-74900000D03*
X236670000Y-56440000D03*
X234820000Y-82100000D03*
X205250000Y-94580000D03*
X237060000Y-95770000D03*
X236540000Y-106480000D03*
%TO.N,SCL*%
X233830000Y-82880000D03*
X206040000Y-97420000D03*
X220530000Y-75330000D03*
X181790000Y-107130000D03*
X234955331Y-92604669D03*
X237060331Y-94709669D03*
X209750000Y-75690000D03*
X220600000Y-73230000D03*
X196070000Y-107130000D03*
X232649382Y-105550003D03*
X243425000Y-74960000D03*
X226520000Y-97320000D03*
%TD*%
D16*
%TO.N,Net-(D1-K)*%
X171282800Y-104473700D02*
X171282800Y-106902800D01*
X171282800Y-106902800D02*
X172310000Y-107930000D01*
X172050000Y-103706500D02*
X171282800Y-104473700D01*
D17*
%TO.N,Net-(D3-K)*%
X242880000Y-100200000D02*
X240920000Y-102160000D01*
X242880000Y-97560000D02*
X242880000Y-100200000D01*
%TO.N,/SCLIN_F4*%
X238560000Y-107880000D02*
X244110000Y-102330000D01*
X236620000Y-107830000D02*
X238510000Y-107830000D01*
X238510000Y-107830000D02*
X238560000Y-107880000D01*
D16*
%TO.N,/SDAINZ*%
X182350000Y-106150000D02*
X181102800Y-104902800D01*
X181102800Y-104902800D02*
X173337200Y-104902800D01*
X173337200Y-104902800D02*
X172310000Y-105930000D01*
D18*
%TO.N,/SCLINZ*%
X176470000Y-107260000D02*
X175930000Y-106720000D01*
X178200000Y-107260000D02*
X176470000Y-107260000D01*
D17*
%TO.N,/SDAIN_F1*%
X242650000Y-79350000D02*
X242650000Y-79810000D01*
X242650000Y-79810000D02*
X244160000Y-81320000D01*
%TO.N,/SCLIN_F1*%
X241899000Y-83059000D02*
X244160000Y-85320000D01*
X241899000Y-78171000D02*
X241899000Y-83059000D01*
X244000000Y-76070000D02*
X241899000Y-78171000D01*
%TO.N,/SDAIN_F2*%
X235040000Y-83730000D02*
X242630000Y-91320000D01*
X242630000Y-91320000D02*
X244160000Y-91320000D01*
%TO.N,/SCLIN_F2*%
X238380000Y-85760000D02*
X239940000Y-87320000D01*
X239940000Y-87320000D02*
X244160000Y-87320000D01*
%TO.N,Net-(U21-EN)*%
X232330000Y-58180000D02*
X235390000Y-61240000D01*
X232330000Y-55870000D02*
X232330000Y-58180000D01*
%TO.N,SDA*%
X236670000Y-64020000D02*
X225790000Y-74900000D01*
X236670000Y-56440000D02*
X236670000Y-64020000D01*
X235870000Y-94580000D02*
X205250000Y-94580000D01*
X236169000Y-106109000D02*
X236169000Y-96661000D01*
X229090000Y-82100000D02*
X224420000Y-77430000D01*
X237060000Y-95770000D02*
X235870000Y-94580000D01*
X236540000Y-106480000D02*
X236169000Y-106109000D01*
X236169000Y-96661000D02*
X237060000Y-95770000D01*
X234820000Y-82100000D02*
X229090000Y-82100000D01*
%TO.N,SCL*%
X206140000Y-97320000D02*
X226520000Y-97320000D01*
X227870000Y-82880000D02*
X222420000Y-77430000D01*
X237060331Y-94709669D02*
X234955331Y-92604669D01*
X232649382Y-105550003D02*
X226520000Y-99420621D01*
X206040000Y-97420000D02*
X206140000Y-97320000D01*
X220600000Y-73230000D02*
X220600000Y-75260000D01*
X227870000Y-85519338D02*
X227870000Y-82880000D01*
X209750000Y-75690000D02*
X220170000Y-75690000D01*
X235262075Y-82880000D02*
X233830000Y-82880000D01*
X220600000Y-75260000D02*
X220530000Y-75330000D01*
X220170000Y-75690000D02*
X220530000Y-75330000D01*
X233830000Y-82880000D02*
X227870000Y-82880000D01*
X236471000Y-81671075D02*
X235262075Y-82880000D01*
D19*
X181790000Y-107130000D02*
X196070000Y-107130000D01*
D17*
X226520000Y-99420621D02*
X226520000Y-97320000D01*
X242817925Y-74960000D02*
X236471000Y-81306925D01*
X243425000Y-74960000D02*
X242817925Y-74960000D01*
X236471000Y-81306925D02*
X236471000Y-81671075D01*
X234955331Y-92604669D02*
X227870000Y-85519338D01*
%TD*%
M02*
