%TF.GenerationSoftware,KiCad,Pcbnew,9.0.0*%
%TF.CreationDate,2025-10-06T19:53:24-07:00*%
%TF.ProjectId,hat_board,6861745f-626f-4617-9264-2e6b69636164,3.1*%
%TF.SameCoordinates,Original*%
%TF.FileFunction,Profile,NP*%
%FSLAX46Y46*%
G04 Gerber Fmt 4.6, Leading zero omitted, Abs format (unit mm)*
G04 Created by KiCad (PCBNEW 9.0.0) date 2025-10-06 19:53:24*
%MOMM*%
%LPD*%
G01*
G04 APERTURE LIST*
%TA.AperFunction,Profile*%
%ADD10C,0.100000*%
%TD*%
G04 APERTURE END LIST*
D10*
X170230394Y-104109194D02*
X177410394Y-99109194D01*
X253253594Y-48489194D02*
X249410394Y-53609194D01*
X170230394Y-118842394D02*
X170230394Y-104109194D01*
X253253594Y-123819194D02*
X249410394Y-118845994D01*
X253253594Y-47454716D02*
X253253594Y-42183594D01*
X207446756Y-38672916D02*
X171886756Y-38672916D01*
X249253594Y-133183594D02*
X169253594Y-133183594D01*
X244911756Y-38672916D02*
X250351756Y-38687916D01*
X207446756Y-38672916D02*
X208803594Y-38672916D01*
X219511756Y-38672916D02*
X218353994Y-38672916D01*
X165253594Y-53330613D02*
X165253594Y-43683594D01*
X165253594Y-130183594D02*
X165253594Y-125109194D01*
X249410394Y-53609194D02*
X249410394Y-118845994D01*
X253253594Y-124641194D02*
X253253594Y-129183594D01*
X253253594Y-124641194D02*
X253253594Y-123819194D01*
X165253594Y-125109194D02*
X165253594Y-123819194D01*
X169253594Y-133183594D02*
G75*
G02*
X165253651Y-130183578I-60594J4085794D01*
G01*
X165253594Y-53330613D02*
X177410394Y-61109194D01*
X165253594Y-123819194D02*
X170230394Y-118842394D01*
X177410394Y-99109194D02*
X177410394Y-61109194D01*
X171921015Y-41701311D02*
G75*
G02*
X171921017Y-45108689I85J-1703689D01*
G01*
X169165510Y-45111760D02*
X171921017Y-45108711D01*
X249380394Y-41759194D02*
G75*
G02*
X249376756Y-45166610I-3594J-1703706D01*
G01*
X253253594Y-129183594D02*
G75*
G02*
X249253594Y-133183594I-4618594J618594D01*
G01*
X165253594Y-43683594D02*
G75*
G02*
X167417097Y-38698420I6488806J145994D01*
G01*
X169165499Y-45111760D02*
G75*
G02*
X169210395Y-41703406I145201J1702560D01*
G01*
X167417114Y-38698439D02*
X171886756Y-38672916D01*
X219511756Y-38672916D02*
X244911756Y-38672916D01*
X250351756Y-38687916D02*
X253253594Y-42183594D01*
X245550345Y-45139194D02*
X249376756Y-45166598D01*
X169210416Y-41703394D02*
X171921015Y-41701311D01*
X249380394Y-41759194D02*
X245580741Y-41737285D01*
X245550394Y-45139194D02*
G75*
G02*
X245580741Y-41737298I-23594J1701294D01*
G01*
X253253594Y-47454716D02*
X253253594Y-48489194D01*
X208803594Y-38672916D02*
X218353994Y-38672916D01*
M02*
