%TF.GenerationSoftware,KiCad,Pcbnew,9.0.0*%
%TF.CreationDate,2025-10-06T19:53:24-07:00*%
%TF.ProjectId,hat_board,6861745f-626f-4617-9264-2e6b69636164,3.1*%
%TF.SameCoordinates,Original*%
%TF.FileFunction,Copper,L3,Inr*%
%TF.FilePolarity,Positive*%
%FSLAX46Y46*%
G04 Gerber Fmt 4.6, Leading zero omitted, Abs format (unit mm)*
G04 Created by KiCad (PCBNEW 9.0.0) date 2025-10-06 19:53:24*
%MOMM*%
%LPD*%
G01*
G04 APERTURE LIST*
%TA.AperFunction,ComponentPad*%
%ADD10R,1.350000X1.350000*%
%TD*%
%TA.AperFunction,ComponentPad*%
%ADD11C,1.350000*%
%TD*%
%TA.AperFunction,ComponentPad*%
%ADD12C,5.600000*%
%TD*%
%TA.AperFunction,ComponentPad*%
%ADD13R,1.500000X1.500000*%
%TD*%
%TA.AperFunction,ComponentPad*%
%ADD14C,1.500000*%
%TD*%
%TA.AperFunction,ViaPad*%
%ADD15C,0.800000*%
%TD*%
G04 APERTURE END LIST*
D10*
%TO.N,GND*%
%TO.C,J2*%
X220420000Y-77430000D03*
D11*
%TO.N,SCL*%
X222420000Y-77430000D03*
%TO.N,SDA*%
X224420000Y-77430000D03*
%TO.N,GND*%
X226420000Y-77430000D03*
%TD*%
D12*
%TO.N,N/C*%
%TO.C,H1*%
X169210394Y-129109194D03*
%TD*%
%TO.N,N/C*%
%TO.C,H2*%
X249210394Y-129109194D03*
%TD*%
D13*
%TO.N,unconnected-(J3-Pin_1-Pad1)*%
%TO.C,J3*%
X174310000Y-105930000D03*
D14*
%TO.N,/SDAINZ*%
X172310000Y-105930000D03*
%TO.N,unconnected-(J3-Pin_3-Pad3)*%
X174310000Y-107930000D03*
%TO.N,Net-(D1-K)*%
X172310000Y-107930000D03*
%TO.N,GND*%
X174310000Y-109930000D03*
%TO.N,/SCLINZ*%
X172310000Y-109930000D03*
%TO.N,N/C*%
X174310000Y-111930000D03*
X172310000Y-111930000D03*
X174310000Y-113930000D03*
X172310000Y-113930000D03*
X174310000Y-115930000D03*
X172310000Y-115930000D03*
%TD*%
D13*
%TO.N,unconnected-(J6-Pin_1-Pad1)*%
%TO.C,J6*%
X246160000Y-81320000D03*
D14*
%TO.N,/SDAIN_F1*%
X244160000Y-81320000D03*
%TO.N,unconnected-(J6-Pin_3-Pad3)*%
X246160000Y-83320000D03*
%TO.N,Net-(D4-K)*%
X244160000Y-83320000D03*
%TO.N,GND*%
X246160000Y-85320000D03*
%TO.N,/SCLIN_F1*%
X244160000Y-85320000D03*
%TO.N,unconnected-(J6-Pin_7-Pad7)*%
X246160000Y-87320000D03*
%TO.N,/SCLIN_F2*%
X244160000Y-87320000D03*
%TO.N,unconnected-(J6-Pin_9-Pad9)*%
X246160000Y-89320000D03*
%TO.N,Net-(D4-K)*%
X244160000Y-89320000D03*
%TO.N,GND*%
X246160000Y-91320000D03*
%TO.N,/SDAIN_F2*%
X244160000Y-91320000D03*
%TD*%
D13*
%TO.N,unconnected-(J5-Pin_1-Pad1)*%
%TO.C,J5*%
X246110000Y-96330000D03*
D14*
%TO.N,/SDAIN_F3*%
X244110000Y-96330000D03*
%TO.N,unconnected-(J5-Pin_3-Pad3)*%
X246110000Y-98330000D03*
%TO.N,Net-(D3-K)*%
X244110000Y-98330000D03*
%TO.N,GND*%
X246110000Y-100330000D03*
%TO.N,/SCLIN_F3*%
X244110000Y-100330000D03*
%TO.N,unconnected-(J5-Pin_7-Pad7)*%
X246110000Y-102330000D03*
%TO.N,/SCLIN_F4*%
X244110000Y-102330000D03*
%TO.N,unconnected-(J5-Pin_9-Pad9)*%
X246110000Y-104330000D03*
%TO.N,Net-(D3-K)*%
X244110000Y-104330000D03*
%TO.N,GND*%
X246110000Y-106330000D03*
%TO.N,/SCDAIN_F4*%
X244110000Y-106330000D03*
%TD*%
D13*
%TO.N,unconnected-(J4-Pin_1-Pad1)*%
%TO.C,J4*%
X244100000Y-64320000D03*
D14*
%TO.N,unconnected-(J4-Pin_2-Pad2)*%
X246100000Y-64320000D03*
%TO.N,unconnected-(J4-Pin_3-Pad3)*%
X244100000Y-62320000D03*
%TO.N,unconnected-(J4-Pin_4-Pad4)*%
X246100000Y-62320000D03*
%TO.N,/SDAIN_ANT*%
X244100000Y-60320000D03*
%TO.N,Net-(D2-K)*%
X246100000Y-60320000D03*
%TO.N,/SCLIN_ANT*%
X244100000Y-58320000D03*
%TO.N,unconnected-(J4-Pin_8-Pad8)*%
X246100000Y-58320000D03*
%TO.N,unconnected-(J4-Pin_9-Pad9)*%
X244100000Y-56320000D03*
%TO.N,unconnected-(J4-Pin_10-Pad10)*%
X246100000Y-56320000D03*
%TO.N,GND*%
X244100000Y-54320000D03*
X246100000Y-54320000D03*
%TD*%
D15*
%TO.N,+3V3*%
X238920000Y-81010000D03*
X238743750Y-94246250D03*
X184490000Y-104400000D03*
X183085000Y-103650000D03*
X178220000Y-100910000D03*
X238030000Y-99270000D03*
X203210000Y-97240000D03*
X235720000Y-81360000D03*
X222320000Y-71980000D03*
X235790000Y-86440000D03*
X240450000Y-95110000D03*
X242010000Y-58560000D03*
X209610000Y-82550000D03*
X245800000Y-49270000D03*
X246760000Y-76480000D03*
X236920000Y-105080000D03*
X180780000Y-109420000D03*
X224350000Y-72040000D03*
X237120000Y-109800000D03*
X205640000Y-86320000D03*
X209110000Y-70490000D03*
X241890000Y-60790000D03*
X233950000Y-58460000D03*
%TO.N,GND*%
X180040000Y-108280000D03*
X237500000Y-61850000D03*
X220420000Y-79540000D03*
X243970000Y-52310000D03*
X230630000Y-84300000D03*
X177330000Y-108200000D03*
X235590000Y-58430000D03*
X228790000Y-77360000D03*
X241620000Y-71880000D03*
X246110000Y-52430000D03*
X177210000Y-111620000D03*
X232580000Y-108820000D03*
X209560000Y-83570000D03*
X204100000Y-83830000D03*
X207080000Y-95960000D03*
X203240000Y-94070000D03*
X210160000Y-70490000D03*
X247920000Y-76460000D03*
X233510000Y-98250000D03*
X230940000Y-86530000D03*
X235440000Y-107830000D03*
%TO.N,Net-(D1-K)*%
X172050000Y-103706500D03*
%TO.N,Net-(D3-K)*%
X242880000Y-97560000D03*
X240920000Y-102160000D03*
%TO.N,/SCLIN_F4*%
X236620000Y-107830000D03*
%TO.N,/SDAINZ*%
X182350000Y-106150000D03*
%TO.N,/SCLINZ*%
X175930000Y-106720000D03*
X178200000Y-107260000D03*
%TO.N,/SDAIN_F1*%
X242650000Y-79350000D03*
%TO.N,/SCLIN_F1*%
X244000000Y-76070000D03*
%TO.N,/SDAIN_F2*%
X235040000Y-83730000D03*
%TO.N,/SCLIN_F2*%
X238380000Y-85760000D03*
%TO.N,Net-(U21-EN)*%
X235390000Y-61240000D03*
X232330000Y-55870000D03*
%TO.N,SDA*%
X225790000Y-74900000D03*
X236670000Y-56440000D03*
X234820000Y-82100000D03*
X205250000Y-94580000D03*
X237060000Y-95770000D03*
X236540000Y-106480000D03*
%TO.N,SCL*%
X233830000Y-82880000D03*
X206040000Y-97420000D03*
X220530000Y-75330000D03*
X181790000Y-107130000D03*
X234955331Y-92604669D03*
X237060331Y-94709669D03*
X209750000Y-75690000D03*
X220600000Y-73230000D03*
X196070000Y-107130000D03*
X232649382Y-105550003D03*
X243425000Y-74960000D03*
X226520000Y-97320000D03*
%TD*%
%TA.AperFunction,Conductor*%
%TO.N,+3V3*%
G36*
X250199386Y-38887996D02*
G01*
X250266371Y-38907866D01*
X250294453Y-38932793D01*
X253012474Y-42207037D01*
X253024504Y-42221528D01*
X253052178Y-42285684D01*
X253053094Y-42300730D01*
X253053094Y-48380954D01*
X253033409Y-48447993D01*
X253028264Y-48455394D01*
X249263847Y-53470435D01*
X249263848Y-53470436D01*
X249258572Y-53477465D01*
X249240418Y-53495620D01*
X249234843Y-53509076D01*
X249226101Y-53520723D01*
X249226100Y-53520725D01*
X249221901Y-53537087D01*
X249221900Y-53537086D01*
X249219714Y-53545602D01*
X249209894Y-53569312D01*
X249209894Y-53583870D01*
X249206273Y-53597981D01*
X249206273Y-53597987D01*
X249208655Y-53614708D01*
X249209894Y-53632194D01*
X249209894Y-118833193D01*
X249206450Y-118860063D01*
X249209894Y-118872741D01*
X249209894Y-118885874D01*
X249209895Y-118885880D01*
X249217230Y-118903589D01*
X249220260Y-118910905D01*
X249227359Y-118937037D01*
X249235387Y-118947425D01*
X249240414Y-118959561D01*
X249240416Y-118959565D01*
X249240418Y-118959568D01*
X249240420Y-118959570D01*
X249253973Y-118973123D01*
X249264409Y-118984981D01*
X253027211Y-123854144D01*
X253052628Y-123919226D01*
X253053094Y-123929966D01*
X253053094Y-129155935D01*
X253051165Y-129177723D01*
X252987693Y-129533329D01*
X252985339Y-129543850D01*
X252887135Y-129907738D01*
X252883876Y-129918014D01*
X252754439Y-130271993D01*
X252750300Y-130281947D01*
X252590609Y-130623337D01*
X252585622Y-130632894D01*
X252396870Y-130959146D01*
X252391070Y-130968234D01*
X252174711Y-131276834D01*
X252168145Y-131285384D01*
X251925781Y-131574047D01*
X251918496Y-131581994D01*
X251651994Y-131848496D01*
X251644047Y-131855781D01*
X251355384Y-132098145D01*
X251346834Y-132104711D01*
X251038234Y-132321070D01*
X251029146Y-132326870D01*
X250702894Y-132515622D01*
X250693337Y-132520609D01*
X250351947Y-132680300D01*
X250341993Y-132684439D01*
X249988014Y-132813876D01*
X249977738Y-132817135D01*
X249613850Y-132915339D01*
X249603329Y-132917693D01*
X249360178Y-132961092D01*
X249337666Y-132963019D01*
X167326828Y-132484098D01*
X167267839Y-132468775D01*
X167168874Y-132414397D01*
X167158931Y-132408309D01*
X166866350Y-132209649D01*
X166857024Y-132202654D01*
X166584404Y-131977405D01*
X166575776Y-131969566D01*
X166461805Y-131855781D01*
X166325489Y-131719687D01*
X166317662Y-131711101D01*
X166091946Y-131438819D01*
X166084948Y-131429520D01*
X165885817Y-131137270D01*
X165879712Y-131127338D01*
X165870747Y-131111086D01*
X165708901Y-130817670D01*
X165703757Y-130807209D01*
X165562784Y-130482876D01*
X165558645Y-130471977D01*
X165541108Y-130418335D01*
X165460233Y-130170950D01*
X165454094Y-130132419D01*
X165454094Y-128940685D01*
X166209894Y-128940685D01*
X166209894Y-129277702D01*
X166247625Y-129612575D01*
X166247627Y-129612591D01*
X166322617Y-129941147D01*
X166322621Y-129941159D01*
X166433926Y-130259248D01*
X166580146Y-130562877D01*
X166580148Y-130562880D01*
X166759448Y-130848233D01*
X166969569Y-131111717D01*
X167207871Y-131350019D01*
X167471355Y-131560140D01*
X167756708Y-131739440D01*
X168060343Y-131885663D01*
X168299242Y-131969257D01*
X168378428Y-131996966D01*
X168378440Y-131996970D01*
X168707000Y-132071961D01*
X169041886Y-132109693D01*
X169041887Y-132109694D01*
X169041890Y-132109694D01*
X169378901Y-132109694D01*
X169378901Y-132109693D01*
X169713788Y-132071961D01*
X170042348Y-131996970D01*
X170360445Y-131885663D01*
X170664080Y-131739440D01*
X170949433Y-131560140D01*
X171212917Y-131350019D01*
X171451219Y-131111717D01*
X171661340Y-130848233D01*
X171840640Y-130562880D01*
X171986863Y-130259245D01*
X172098170Y-129941148D01*
X172173161Y-129612588D01*
X172210894Y-129277698D01*
X172210894Y-128940690D01*
X172210893Y-128940685D01*
X246209894Y-128940685D01*
X246209894Y-129277702D01*
X246247625Y-129612575D01*
X246247627Y-129612591D01*
X246322617Y-129941147D01*
X246322621Y-129941159D01*
X246433926Y-130259248D01*
X246580146Y-130562877D01*
X246580148Y-130562880D01*
X246759448Y-130848233D01*
X246969569Y-131111717D01*
X247207871Y-131350019D01*
X247471355Y-131560140D01*
X247756708Y-131739440D01*
X248060343Y-131885663D01*
X248299242Y-131969257D01*
X248378428Y-131996966D01*
X248378440Y-131996970D01*
X248707000Y-132071961D01*
X249041886Y-132109693D01*
X249041887Y-132109694D01*
X249041890Y-132109694D01*
X249378901Y-132109694D01*
X249378901Y-132109693D01*
X249713788Y-132071961D01*
X250042348Y-131996970D01*
X250360445Y-131885663D01*
X250664080Y-131739440D01*
X250949433Y-131560140D01*
X251212917Y-131350019D01*
X251451219Y-131111717D01*
X251661340Y-130848233D01*
X251840640Y-130562880D01*
X251986863Y-130259245D01*
X252098170Y-129941148D01*
X252173161Y-129612588D01*
X252210894Y-129277698D01*
X252210894Y-128940690D01*
X252173161Y-128605800D01*
X252098170Y-128277240D01*
X251986863Y-127959143D01*
X251840640Y-127655508D01*
X251661340Y-127370155D01*
X251451219Y-127106671D01*
X251212917Y-126868369D01*
X250949433Y-126658248D01*
X250664080Y-126478948D01*
X250664077Y-126478946D01*
X250360448Y-126332726D01*
X250042359Y-126221421D01*
X250042347Y-126221417D01*
X249713791Y-126146427D01*
X249713775Y-126146425D01*
X249378902Y-126108694D01*
X249378898Y-126108694D01*
X249041890Y-126108694D01*
X249041885Y-126108694D01*
X248707012Y-126146425D01*
X248706996Y-126146427D01*
X248378440Y-126221417D01*
X248378428Y-126221421D01*
X248060339Y-126332726D01*
X247756710Y-126478946D01*
X247471356Y-126658247D01*
X247207871Y-126868368D01*
X246969568Y-127106671D01*
X246759447Y-127370156D01*
X246580146Y-127655510D01*
X246433926Y-127959139D01*
X246322621Y-128277228D01*
X246322617Y-128277240D01*
X246247627Y-128605796D01*
X246247625Y-128605812D01*
X246209894Y-128940685D01*
X172210893Y-128940685D01*
X172173161Y-128605800D01*
X172098170Y-128277240D01*
X171986863Y-127959143D01*
X171840640Y-127655508D01*
X171661340Y-127370155D01*
X171451219Y-127106671D01*
X171212917Y-126868369D01*
X170949433Y-126658248D01*
X170664080Y-126478948D01*
X170664077Y-126478946D01*
X170360448Y-126332726D01*
X170042359Y-126221421D01*
X170042347Y-126221417D01*
X169713791Y-126146427D01*
X169713775Y-126146425D01*
X169378902Y-126108694D01*
X169378898Y-126108694D01*
X169041890Y-126108694D01*
X169041885Y-126108694D01*
X168707012Y-126146425D01*
X168706996Y-126146427D01*
X168378440Y-126221417D01*
X168378428Y-126221421D01*
X168060339Y-126332726D01*
X167756710Y-126478946D01*
X167471356Y-126658247D01*
X167207871Y-126868368D01*
X166969568Y-127106671D01*
X166759447Y-127370156D01*
X166580146Y-127655510D01*
X166433926Y-127959139D01*
X166322621Y-128277228D01*
X166322617Y-128277240D01*
X166247627Y-128605796D01*
X166247625Y-128605812D01*
X166209894Y-128940685D01*
X165454094Y-128940685D01*
X165454094Y-123953606D01*
X165473779Y-123886567D01*
X165490413Y-123865925D01*
X165707120Y-123649218D01*
X170400370Y-118955968D01*
X170430894Y-118882276D01*
X170430894Y-118802512D01*
X170430894Y-105836379D01*
X171359500Y-105836379D01*
X171359500Y-106023620D01*
X171396025Y-106207243D01*
X171396027Y-106207251D01*
X171467676Y-106380228D01*
X171467681Y-106380237D01*
X171571697Y-106535907D01*
X171571700Y-106535911D01*
X171704088Y-106668299D01*
X171704092Y-106668302D01*
X171859762Y-106772318D01*
X171859766Y-106772320D01*
X171859769Y-106772322D01*
X171924308Y-106799055D01*
X171963862Y-106815439D01*
X172018265Y-106859280D01*
X172040330Y-106925574D01*
X172023051Y-106993274D01*
X171971913Y-107040884D01*
X171963862Y-107044561D01*
X171859772Y-107087676D01*
X171859762Y-107087681D01*
X171704092Y-107191697D01*
X171704088Y-107191700D01*
X171571700Y-107324088D01*
X171571697Y-107324092D01*
X171467681Y-107479762D01*
X171467676Y-107479771D01*
X171396027Y-107652748D01*
X171396025Y-107652756D01*
X171359500Y-107836379D01*
X171359500Y-108023620D01*
X171396025Y-108207243D01*
X171396027Y-108207251D01*
X171467676Y-108380228D01*
X171467681Y-108380237D01*
X171571697Y-108535907D01*
X171571700Y-108535911D01*
X171704088Y-108668299D01*
X171704092Y-108668302D01*
X171859762Y-108772318D01*
X171859766Y-108772320D01*
X171859769Y-108772322D01*
X171927794Y-108800499D01*
X171963862Y-108815439D01*
X172018265Y-108859280D01*
X172040330Y-108925574D01*
X172023051Y-108993274D01*
X171971913Y-109040884D01*
X171963862Y-109044561D01*
X171859772Y-109087676D01*
X171859762Y-109087681D01*
X171704092Y-109191697D01*
X171704088Y-109191700D01*
X171571700Y-109324088D01*
X171571697Y-109324092D01*
X171467681Y-109479762D01*
X171467676Y-109479771D01*
X171396027Y-109652748D01*
X171396025Y-109652756D01*
X171359500Y-109836379D01*
X171359500Y-110023620D01*
X171396025Y-110207243D01*
X171396027Y-110207251D01*
X171467676Y-110380228D01*
X171467681Y-110380237D01*
X171571697Y-110535907D01*
X171571700Y-110535911D01*
X171704088Y-110668299D01*
X171704092Y-110668302D01*
X171859762Y-110772318D01*
X171859766Y-110772320D01*
X171859769Y-110772322D01*
X171942065Y-110806410D01*
X171963862Y-110815439D01*
X172018265Y-110859280D01*
X172040330Y-110925574D01*
X172023051Y-110993274D01*
X171971913Y-111040884D01*
X171963862Y-111044561D01*
X171859772Y-111087676D01*
X171859762Y-111087681D01*
X171704092Y-111191697D01*
X171704088Y-111191700D01*
X171571700Y-111324088D01*
X171571697Y-111324092D01*
X171467681Y-111479762D01*
X171467676Y-111479771D01*
X171396027Y-111652748D01*
X171396025Y-111652756D01*
X171359500Y-111836379D01*
X171359500Y-112023620D01*
X171396025Y-112207243D01*
X171396027Y-112207251D01*
X171467676Y-112380228D01*
X171467681Y-112380237D01*
X171571697Y-112535907D01*
X171571700Y-112535911D01*
X171704088Y-112668299D01*
X171704092Y-112668302D01*
X171859762Y-112772318D01*
X171859766Y-112772320D01*
X171859769Y-112772322D01*
X171942065Y-112806410D01*
X171963862Y-112815439D01*
X172018265Y-112859280D01*
X172040330Y-112925574D01*
X172023051Y-112993274D01*
X171971913Y-113040884D01*
X171963862Y-113044561D01*
X171859772Y-113087676D01*
X171859762Y-113087681D01*
X171704092Y-113191697D01*
X171704088Y-113191700D01*
X171571700Y-113324088D01*
X171571697Y-113324092D01*
X171467681Y-113479762D01*
X171467676Y-113479771D01*
X171396027Y-113652748D01*
X171396025Y-113652756D01*
X171359500Y-113836379D01*
X171359500Y-114023620D01*
X171396025Y-114207243D01*
X171396027Y-114207251D01*
X171467676Y-114380228D01*
X171467681Y-114380237D01*
X171571697Y-114535907D01*
X171571700Y-114535911D01*
X171704088Y-114668299D01*
X171704092Y-114668302D01*
X171859762Y-114772318D01*
X171859766Y-114772320D01*
X171859769Y-114772322D01*
X171942065Y-114806410D01*
X171963862Y-114815439D01*
X172018265Y-114859280D01*
X172040330Y-114925574D01*
X172023051Y-114993274D01*
X171971913Y-115040884D01*
X171963862Y-115044561D01*
X171859772Y-115087676D01*
X171859762Y-115087681D01*
X171704092Y-115191697D01*
X171704088Y-115191700D01*
X171571700Y-115324088D01*
X171571697Y-115324092D01*
X171467681Y-115479762D01*
X171467676Y-115479771D01*
X171396027Y-115652748D01*
X171396025Y-115652756D01*
X171359500Y-115836379D01*
X171359500Y-116023620D01*
X171396025Y-116207243D01*
X171396027Y-116207251D01*
X171467676Y-116380228D01*
X171467681Y-116380237D01*
X171571697Y-116535907D01*
X171571700Y-116535911D01*
X171704088Y-116668299D01*
X171704092Y-116668302D01*
X171859762Y-116772318D01*
X171859768Y-116772321D01*
X171859769Y-116772322D01*
X172032749Y-116843973D01*
X172216379Y-116880499D01*
X172216383Y-116880500D01*
X172216384Y-116880500D01*
X172403617Y-116880500D01*
X172403618Y-116880499D01*
X172587251Y-116843973D01*
X172760231Y-116772322D01*
X172915908Y-116668302D01*
X173048302Y-116535908D01*
X173152322Y-116380231D01*
X173195439Y-116276138D01*
X173239280Y-116221734D01*
X173305574Y-116199669D01*
X173373273Y-116216948D01*
X173420884Y-116268085D01*
X173424561Y-116276138D01*
X173467674Y-116380224D01*
X173467681Y-116380237D01*
X173571697Y-116535907D01*
X173571700Y-116535911D01*
X173704088Y-116668299D01*
X173704092Y-116668302D01*
X173859762Y-116772318D01*
X173859768Y-116772321D01*
X173859769Y-116772322D01*
X174032749Y-116843973D01*
X174216379Y-116880499D01*
X174216383Y-116880500D01*
X174216384Y-116880500D01*
X174403617Y-116880500D01*
X174403618Y-116880499D01*
X174587251Y-116843973D01*
X174760231Y-116772322D01*
X174915908Y-116668302D01*
X175048302Y-116535908D01*
X175152322Y-116380231D01*
X175223973Y-116207251D01*
X175260500Y-116023616D01*
X175260500Y-115836384D01*
X175223973Y-115652749D01*
X175152322Y-115479769D01*
X175152321Y-115479768D01*
X175152318Y-115479762D01*
X175048302Y-115324092D01*
X175048299Y-115324088D01*
X174915911Y-115191700D01*
X174915907Y-115191697D01*
X174760237Y-115087681D01*
X174760224Y-115087674D01*
X174656138Y-115044561D01*
X174601734Y-115000720D01*
X174579669Y-114934426D01*
X174596948Y-114866727D01*
X174648085Y-114819116D01*
X174656138Y-114815439D01*
X174760224Y-114772325D01*
X174760224Y-114772324D01*
X174760231Y-114772322D01*
X174915908Y-114668302D01*
X175048302Y-114535908D01*
X175152322Y-114380231D01*
X175223973Y-114207251D01*
X175260500Y-114023616D01*
X175260500Y-113836384D01*
X175223973Y-113652749D01*
X175152322Y-113479769D01*
X175152321Y-113479768D01*
X175152318Y-113479762D01*
X175048302Y-113324092D01*
X175048299Y-113324088D01*
X174915911Y-113191700D01*
X174915907Y-113191697D01*
X174760237Y-113087681D01*
X174760224Y-113087674D01*
X174656138Y-113044561D01*
X174601734Y-113000720D01*
X174579669Y-112934426D01*
X174596948Y-112866727D01*
X174648085Y-112819116D01*
X174656138Y-112815439D01*
X174760224Y-112772325D01*
X174760224Y-112772324D01*
X174760231Y-112772322D01*
X174915908Y-112668302D01*
X175048302Y-112535908D01*
X175152322Y-112380231D01*
X175223973Y-112207251D01*
X175260500Y-112023616D01*
X175260500Y-111836384D01*
X175223973Y-111652749D01*
X175198774Y-111591913D01*
X175193951Y-111580268D01*
X175177662Y-111540943D01*
X176609500Y-111540943D01*
X176609500Y-111699057D01*
X176646297Y-111836383D01*
X176650423Y-111851783D01*
X176650426Y-111851790D01*
X176729475Y-111988709D01*
X176729479Y-111988714D01*
X176729480Y-111988716D01*
X176841284Y-112100520D01*
X176841286Y-112100521D01*
X176841290Y-112100524D01*
X176978209Y-112179573D01*
X176978216Y-112179577D01*
X177130943Y-112220500D01*
X177130945Y-112220500D01*
X177289055Y-112220500D01*
X177289057Y-112220500D01*
X177441784Y-112179577D01*
X177578716Y-112100520D01*
X177690520Y-111988716D01*
X177769577Y-111851784D01*
X177810500Y-111699057D01*
X177810500Y-111540943D01*
X177769577Y-111388216D01*
X177769573Y-111388209D01*
X177690524Y-111251290D01*
X177690518Y-111251282D01*
X177578717Y-111139481D01*
X177578709Y-111139475D01*
X177441790Y-111060426D01*
X177441786Y-111060424D01*
X177441784Y-111060423D01*
X177289057Y-111019500D01*
X177130943Y-111019500D01*
X176978216Y-111060423D01*
X176978209Y-111060426D01*
X176841290Y-111139475D01*
X176841282Y-111139481D01*
X176729481Y-111251282D01*
X176729475Y-111251290D01*
X176650426Y-111388209D01*
X176650423Y-111388216D01*
X176609500Y-111540943D01*
X175177662Y-111540943D01*
X175152323Y-111479772D01*
X175152323Y-111479771D01*
X175152322Y-111479769D01*
X175152320Y-111479766D01*
X175152318Y-111479762D01*
X175048302Y-111324092D01*
X175048299Y-111324088D01*
X174915911Y-111191700D01*
X174915907Y-111191697D01*
X174760237Y-111087681D01*
X174760224Y-111087674D01*
X174656138Y-111044561D01*
X174601734Y-111000720D01*
X174579669Y-110934426D01*
X174596948Y-110866727D01*
X174648085Y-110819116D01*
X174656138Y-110815439D01*
X174760224Y-110772325D01*
X174760224Y-110772324D01*
X174760231Y-110772322D01*
X174915908Y-110668302D01*
X175048302Y-110535908D01*
X175152322Y-110380231D01*
X175223973Y-110207251D01*
X175260500Y-110023616D01*
X175260500Y-109836384D01*
X175223973Y-109652749D01*
X175152322Y-109479769D01*
X175152321Y-109479768D01*
X175152318Y-109479762D01*
X175048302Y-109324092D01*
X175048299Y-109324088D01*
X174915911Y-109191700D01*
X174915907Y-109191697D01*
X174760237Y-109087681D01*
X174760224Y-109087674D01*
X174656138Y-109044561D01*
X174601734Y-109000720D01*
X174579669Y-108934426D01*
X174596948Y-108866727D01*
X174648085Y-108819116D01*
X174656138Y-108815439D01*
X174760224Y-108772325D01*
X174760224Y-108772324D01*
X174760231Y-108772322D01*
X174915908Y-108668302D01*
X175048302Y-108535908D01*
X175152322Y-108380231D01*
X175223973Y-108207251D01*
X175241141Y-108120943D01*
X176729500Y-108120943D01*
X176729500Y-108279057D01*
X176759114Y-108389576D01*
X176770423Y-108431783D01*
X176770426Y-108431790D01*
X176849475Y-108568709D01*
X176849479Y-108568714D01*
X176849480Y-108568716D01*
X176961284Y-108680520D01*
X176961286Y-108680521D01*
X176961290Y-108680524D01*
X177065944Y-108740945D01*
X177098216Y-108759577D01*
X177250943Y-108800500D01*
X177250945Y-108800500D01*
X177409055Y-108800500D01*
X177409057Y-108800500D01*
X177561784Y-108759577D01*
X177698716Y-108680520D01*
X177810520Y-108568716D01*
X177889577Y-108431784D01*
X177930500Y-108279057D01*
X177930500Y-108200943D01*
X179439500Y-108200943D01*
X179439500Y-108359056D01*
X179480423Y-108511783D01*
X179480426Y-108511790D01*
X179559475Y-108648709D01*
X179559479Y-108648714D01*
X179559480Y-108648716D01*
X179671284Y-108760520D01*
X179671286Y-108760521D01*
X179671290Y-108760524D01*
X179740530Y-108800499D01*
X179808216Y-108839577D01*
X179960943Y-108880500D01*
X179960945Y-108880500D01*
X180119055Y-108880500D01*
X180119057Y-108880500D01*
X180271784Y-108839577D01*
X180408716Y-108760520D01*
X180428293Y-108740943D01*
X231979500Y-108740943D01*
X231979500Y-108899057D01*
X232017503Y-109040884D01*
X232020423Y-109051783D01*
X232020426Y-109051790D01*
X232099475Y-109188709D01*
X232099479Y-109188714D01*
X232099480Y-109188716D01*
X232211284Y-109300520D01*
X232211286Y-109300521D01*
X232211290Y-109300524D01*
X232252105Y-109324088D01*
X232348216Y-109379577D01*
X232500943Y-109420500D01*
X232500945Y-109420500D01*
X232659055Y-109420500D01*
X232659057Y-109420500D01*
X232811784Y-109379577D01*
X232948716Y-109300520D01*
X233060520Y-109188716D01*
X233139577Y-109051784D01*
X233180500Y-108899057D01*
X233180500Y-108740943D01*
X233139577Y-108588216D01*
X233095453Y-108511790D01*
X233060524Y-108451290D01*
X233060518Y-108451282D01*
X232948717Y-108339481D01*
X232948709Y-108339475D01*
X232811790Y-108260426D01*
X232811786Y-108260424D01*
X232811784Y-108260423D01*
X232659057Y-108219500D01*
X232500943Y-108219500D01*
X232348216Y-108260423D01*
X232348209Y-108260426D01*
X232211290Y-108339475D01*
X232211282Y-108339481D01*
X232099481Y-108451282D01*
X232099475Y-108451290D01*
X232020426Y-108588209D01*
X232020423Y-108588216D01*
X231979500Y-108740943D01*
X180428293Y-108740943D01*
X180520520Y-108648716D01*
X180599577Y-108511784D01*
X180640500Y-108359057D01*
X180640500Y-108200943D01*
X180599577Y-108048216D01*
X180585373Y-108023614D01*
X180520524Y-107911290D01*
X180520518Y-107911282D01*
X180408717Y-107799481D01*
X180408709Y-107799475D01*
X180324648Y-107750943D01*
X234839500Y-107750943D01*
X234839500Y-107909057D01*
X234876788Y-108048216D01*
X234880423Y-108061783D01*
X234880426Y-108061790D01*
X234959475Y-108198709D01*
X234959479Y-108198714D01*
X234959480Y-108198716D01*
X235071284Y-108310520D01*
X235071286Y-108310521D01*
X235071290Y-108310524D01*
X235155353Y-108359057D01*
X235208216Y-108389577D01*
X235360943Y-108430500D01*
X235360945Y-108430500D01*
X235519055Y-108430500D01*
X235519057Y-108430500D01*
X235671784Y-108389577D01*
X235808716Y-108310520D01*
X235920520Y-108198716D01*
X235922612Y-108195093D01*
X235925175Y-108192648D01*
X235925470Y-108192265D01*
X235925529Y-108192310D01*
X235973178Y-108146877D01*
X236041784Y-108133652D01*
X236106650Y-108159619D01*
X236137388Y-108195093D01*
X236139477Y-108198712D01*
X236139479Y-108198715D01*
X236139480Y-108198716D01*
X236251284Y-108310520D01*
X236251286Y-108310521D01*
X236251290Y-108310524D01*
X236335353Y-108359057D01*
X236388216Y-108389577D01*
X236540943Y-108430500D01*
X236540945Y-108430500D01*
X236699055Y-108430500D01*
X236699057Y-108430500D01*
X236851784Y-108389577D01*
X236988716Y-108310520D01*
X237100520Y-108198716D01*
X237179577Y-108061784D01*
X237220500Y-107909057D01*
X237220500Y-107750943D01*
X237179577Y-107598216D01*
X237144243Y-107537015D01*
X237100524Y-107461290D01*
X237100518Y-107461282D01*
X236988717Y-107349481D01*
X236988709Y-107349475D01*
X236851790Y-107270426D01*
X236851786Y-107270424D01*
X236851784Y-107270423D01*
X236851782Y-107270422D01*
X236851779Y-107270421D01*
X236813209Y-107260086D01*
X236753549Y-107223721D01*
X236723021Y-107160873D01*
X236731316Y-107091498D01*
X236775803Y-107037620D01*
X236783276Y-107032942D01*
X236908716Y-106960520D01*
X237020520Y-106848716D01*
X237099577Y-106711784D01*
X237140500Y-106559057D01*
X237140500Y-106400943D01*
X237099577Y-106248216D01*
X237094533Y-106239480D01*
X237020524Y-106111290D01*
X237020518Y-106111282D01*
X236908717Y-105999481D01*
X236908709Y-105999475D01*
X236771790Y-105920426D01*
X236771786Y-105920424D01*
X236771784Y-105920423D01*
X236619057Y-105879500D01*
X236460943Y-105879500D01*
X236308216Y-105920423D01*
X236308209Y-105920426D01*
X236171290Y-105999475D01*
X236171282Y-105999481D01*
X236059481Y-106111282D01*
X236059475Y-106111290D01*
X235980426Y-106248209D01*
X235980423Y-106248216D01*
X235939500Y-106400943D01*
X235939500Y-106559057D01*
X235979832Y-106709576D01*
X235980423Y-106711783D01*
X235980426Y-106711790D01*
X236059475Y-106848709D01*
X236059479Y-106848714D01*
X236059480Y-106848716D01*
X236171284Y-106960520D01*
X236171286Y-106960521D01*
X236171290Y-106960524D01*
X236304826Y-107037620D01*
X236308216Y-107039577D01*
X236346790Y-107049913D01*
X236406449Y-107086277D01*
X236436978Y-107149124D01*
X236428683Y-107218500D01*
X236384198Y-107272378D01*
X236376695Y-107277074D01*
X236251287Y-107349477D01*
X236251282Y-107349481D01*
X236139481Y-107461282D01*
X236139477Y-107461287D01*
X236137386Y-107464910D01*
X236134821Y-107467355D01*
X236134530Y-107467735D01*
X236134470Y-107467689D01*
X236086818Y-107513125D01*
X236018211Y-107526346D01*
X235953346Y-107500377D01*
X235922614Y-107464910D01*
X235920522Y-107461287D01*
X235920518Y-107461282D01*
X235808717Y-107349481D01*
X235808709Y-107349475D01*
X235671790Y-107270426D01*
X235671786Y-107270424D01*
X235671784Y-107270423D01*
X235519057Y-107229500D01*
X235360943Y-107229500D01*
X235208216Y-107270423D01*
X235208209Y-107270426D01*
X235071290Y-107349475D01*
X235071282Y-107349481D01*
X234959481Y-107461282D01*
X234959475Y-107461290D01*
X234880426Y-107598209D01*
X234880423Y-107598216D01*
X234839500Y-107750943D01*
X180324648Y-107750943D01*
X180271790Y-107720426D01*
X180271786Y-107720424D01*
X180271784Y-107720423D01*
X180119057Y-107679500D01*
X179960943Y-107679500D01*
X179808216Y-107720423D01*
X179808209Y-107720426D01*
X179671290Y-107799475D01*
X179671282Y-107799481D01*
X179559481Y-107911282D01*
X179559475Y-107911290D01*
X179480426Y-108048209D01*
X179480423Y-108048216D01*
X179439500Y-108200943D01*
X177930500Y-108200943D01*
X177930500Y-108120943D01*
X177894608Y-107986994D01*
X177893623Y-107981061D01*
X177897141Y-107952124D01*
X177897835Y-107922984D01*
X177901308Y-107917852D01*
X177902056Y-107911702D01*
X177920655Y-107889265D01*
X177936997Y-107865121D01*
X177942694Y-107862681D01*
X177946648Y-107857912D01*
X177974424Y-107849093D01*
X178001225Y-107837617D01*
X178008855Y-107838162D01*
X178013242Y-107836770D01*
X178021835Y-107839090D01*
X178048035Y-107840964D01*
X178120943Y-107860500D01*
X178120946Y-107860500D01*
X178279055Y-107860500D01*
X178279057Y-107860500D01*
X178431784Y-107819577D01*
X178568716Y-107740520D01*
X178680520Y-107628716D01*
X178759577Y-107491784D01*
X178800500Y-107339057D01*
X178800500Y-107180943D01*
X178765667Y-107050943D01*
X181189500Y-107050943D01*
X181189500Y-107209057D01*
X181227127Y-107349481D01*
X181230423Y-107361783D01*
X181230426Y-107361790D01*
X181309475Y-107498709D01*
X181309479Y-107498714D01*
X181309480Y-107498716D01*
X181421284Y-107610520D01*
X181421286Y-107610521D01*
X181421290Y-107610524D01*
X181507558Y-107660330D01*
X181558216Y-107689577D01*
X181710943Y-107730500D01*
X181710945Y-107730500D01*
X181869055Y-107730500D01*
X181869057Y-107730500D01*
X182021784Y-107689577D01*
X182158716Y-107610520D01*
X182270520Y-107498716D01*
X182349577Y-107361784D01*
X182390500Y-107209057D01*
X182390500Y-107050943D01*
X195469500Y-107050943D01*
X195469500Y-107209057D01*
X195507127Y-107349481D01*
X195510423Y-107361783D01*
X195510426Y-107361790D01*
X195589475Y-107498709D01*
X195589479Y-107498714D01*
X195589480Y-107498716D01*
X195701284Y-107610520D01*
X195701286Y-107610521D01*
X195701290Y-107610524D01*
X195787558Y-107660330D01*
X195838216Y-107689577D01*
X195990943Y-107730500D01*
X195990945Y-107730500D01*
X196149055Y-107730500D01*
X196149057Y-107730500D01*
X196301784Y-107689577D01*
X196438716Y-107610520D01*
X196550520Y-107498716D01*
X196629577Y-107361784D01*
X196670500Y-107209057D01*
X196670500Y-107050943D01*
X196629577Y-106898216D01*
X196625574Y-106891282D01*
X196550524Y-106761290D01*
X196550518Y-106761282D01*
X196438717Y-106649481D01*
X196438709Y-106649475D01*
X196301790Y-106570426D01*
X196301786Y-106570424D01*
X196301784Y-106570423D01*
X196149057Y-106529500D01*
X195990943Y-106529500D01*
X195838216Y-106570423D01*
X195838209Y-106570426D01*
X195701290Y-106649475D01*
X195701282Y-106649481D01*
X195589481Y-106761282D01*
X195589475Y-106761290D01*
X195510426Y-106898209D01*
X195510423Y-106898216D01*
X195469500Y-107050943D01*
X182390500Y-107050943D01*
X182349865Y-106899292D01*
X182349696Y-106898629D01*
X182350913Y-106864413D01*
X182351728Y-106830190D01*
X182352153Y-106829561D01*
X182352180Y-106828804D01*
X182371686Y-106800700D01*
X182390890Y-106772327D01*
X182391654Y-106771933D01*
X182392020Y-106771406D01*
X182395366Y-106770019D01*
X182437744Y-106748172D01*
X182581784Y-106709577D01*
X182718716Y-106630520D01*
X182830520Y-106518716D01*
X182909577Y-106381784D01*
X182950500Y-106229057D01*
X182950500Y-106070943D01*
X182909577Y-105918216D01*
X182830814Y-105781793D01*
X182830524Y-105781290D01*
X182830518Y-105781282D01*
X182718717Y-105669481D01*
X182718709Y-105669475D01*
X182581790Y-105590426D01*
X182581786Y-105590424D01*
X182581784Y-105590423D01*
X182429057Y-105549500D01*
X182270943Y-105549500D01*
X182118216Y-105590423D01*
X182118209Y-105590426D01*
X181981290Y-105669475D01*
X181981282Y-105669481D01*
X181869481Y-105781282D01*
X181869475Y-105781290D01*
X181790426Y-105918209D01*
X181790423Y-105918216D01*
X181749500Y-106070943D01*
X181749500Y-106229057D01*
X181752293Y-106239480D01*
X181789934Y-106379960D01*
X181788271Y-106449810D01*
X181749108Y-106507672D01*
X181702253Y-106531828D01*
X181558214Y-106570423D01*
X181558209Y-106570426D01*
X181421290Y-106649475D01*
X181421282Y-106649481D01*
X181309481Y-106761282D01*
X181309475Y-106761290D01*
X181230426Y-106898209D01*
X181230423Y-106898216D01*
X181189500Y-107050943D01*
X178765667Y-107050943D01*
X178759577Y-107028216D01*
X178743702Y-107000720D01*
X178680524Y-106891290D01*
X178680518Y-106891282D01*
X178568717Y-106779481D01*
X178568709Y-106779475D01*
X178431790Y-106700426D01*
X178431786Y-106700424D01*
X178431784Y-106700423D01*
X178279057Y-106659500D01*
X178120943Y-106659500D01*
X177968216Y-106700423D01*
X177968209Y-106700426D01*
X177831290Y-106779475D01*
X177831282Y-106779481D01*
X177719481Y-106891282D01*
X177719475Y-106891290D01*
X177640426Y-107028209D01*
X177640424Y-107028214D01*
X177640423Y-107028216D01*
X177599500Y-107180943D01*
X177599500Y-107339057D01*
X177633222Y-107464910D01*
X177633827Y-107467166D01*
X177632164Y-107537015D01*
X177593002Y-107594878D01*
X177528773Y-107622382D01*
X177481959Y-107619034D01*
X177450184Y-107610520D01*
X177409057Y-107599500D01*
X177250943Y-107599500D01*
X177098216Y-107640423D01*
X177098209Y-107640426D01*
X176961290Y-107719475D01*
X176961282Y-107719481D01*
X176849481Y-107831282D01*
X176849475Y-107831290D01*
X176770426Y-107968209D01*
X176770423Y-107968216D01*
X176729500Y-108120943D01*
X175241141Y-108120943D01*
X175260500Y-108023616D01*
X175260500Y-107836384D01*
X175223973Y-107652749D01*
X175157299Y-107491784D01*
X175152323Y-107479771D01*
X175152318Y-107479762D01*
X175048302Y-107324092D01*
X175048299Y-107324088D01*
X174915911Y-107191700D01*
X174915907Y-107191697D01*
X174790050Y-107107602D01*
X174745245Y-107053990D01*
X174736538Y-106984665D01*
X174766692Y-106921637D01*
X174826135Y-106884918D01*
X174858941Y-106880500D01*
X175079750Y-106880500D01*
X175079751Y-106880499D01*
X175094568Y-106877552D01*
X175138229Y-106868868D01*
X175138231Y-106868867D01*
X175172440Y-106846009D01*
X175239117Y-106825130D01*
X175306497Y-106843614D01*
X175353188Y-106895592D01*
X175361106Y-106917015D01*
X175370421Y-106951779D01*
X175370426Y-106951790D01*
X175449475Y-107088709D01*
X175449479Y-107088714D01*
X175449480Y-107088716D01*
X175561284Y-107200520D01*
X175561286Y-107200521D01*
X175561290Y-107200524D01*
X175682366Y-107270426D01*
X175698216Y-107279577D01*
X175850943Y-107320500D01*
X175850945Y-107320500D01*
X176009055Y-107320500D01*
X176009057Y-107320500D01*
X176161784Y-107279577D01*
X176298716Y-107200520D01*
X176410520Y-107088716D01*
X176489577Y-106951784D01*
X176530500Y-106799057D01*
X176530500Y-106640943D01*
X176489577Y-106488216D01*
X176484222Y-106478941D01*
X176410524Y-106351290D01*
X176410518Y-106351282D01*
X176298717Y-106239481D01*
X176298709Y-106239475D01*
X176161790Y-106160426D01*
X176161786Y-106160424D01*
X176161784Y-106160423D01*
X176009057Y-106119500D01*
X175850943Y-106119500D01*
X175698216Y-106160423D01*
X175698209Y-106160426D01*
X175561290Y-106239475D01*
X175561282Y-106239481D01*
X175472181Y-106328583D01*
X175410858Y-106362068D01*
X175341166Y-106357084D01*
X175285233Y-106315212D01*
X175260816Y-106249748D01*
X175260500Y-106240902D01*
X175260500Y-105470946D01*
X232048882Y-105470946D01*
X232048882Y-105629060D01*
X232059713Y-105669480D01*
X232089805Y-105781786D01*
X232089808Y-105781793D01*
X232168857Y-105918712D01*
X232168861Y-105918717D01*
X232168862Y-105918719D01*
X232280666Y-106030523D01*
X232280668Y-106030524D01*
X232280672Y-106030527D01*
X232417591Y-106109576D01*
X232417598Y-106109580D01*
X232570325Y-106150503D01*
X232570327Y-106150503D01*
X232728437Y-106150503D01*
X232728439Y-106150503D01*
X232881166Y-106109580D01*
X233018098Y-106030523D01*
X233129902Y-105918719D01*
X233208959Y-105781787D01*
X233249882Y-105629060D01*
X233249882Y-105470946D01*
X233208959Y-105318219D01*
X233187182Y-105280500D01*
X233129906Y-105181293D01*
X233129900Y-105181285D01*
X233018099Y-105069484D01*
X233018091Y-105069478D01*
X232881172Y-104990429D01*
X232881168Y-104990427D01*
X232881166Y-104990426D01*
X232728439Y-104949503D01*
X232570325Y-104949503D01*
X232417598Y-104990426D01*
X232417591Y-104990429D01*
X232280672Y-105069478D01*
X232280664Y-105069484D01*
X232168863Y-105181285D01*
X232168857Y-105181293D01*
X232089808Y-105318212D01*
X232089805Y-105318219D01*
X232048882Y-105470946D01*
X175260500Y-105470946D01*
X175260500Y-105160249D01*
X175260499Y-105160247D01*
X175248868Y-105101770D01*
X175248867Y-105101769D01*
X175204552Y-105035447D01*
X175138230Y-104991132D01*
X175138229Y-104991131D01*
X175079752Y-104979500D01*
X175079748Y-104979500D01*
X173540252Y-104979500D01*
X173540247Y-104979500D01*
X173481770Y-104991131D01*
X173481769Y-104991132D01*
X173415447Y-105035447D01*
X173371132Y-105101769D01*
X173371131Y-105101770D01*
X173359500Y-105160247D01*
X173359500Y-105381058D01*
X173339815Y-105448097D01*
X173287011Y-105493852D01*
X173217853Y-105503796D01*
X173154297Y-105474771D01*
X173132398Y-105449949D01*
X173048302Y-105324092D01*
X173048299Y-105324088D01*
X172915911Y-105191700D01*
X172915907Y-105191697D01*
X172760237Y-105087681D01*
X172760228Y-105087676D01*
X172587251Y-105016027D01*
X172587243Y-105016025D01*
X172403620Y-104979500D01*
X172403616Y-104979500D01*
X172216384Y-104979500D01*
X172216379Y-104979500D01*
X172032756Y-105016025D01*
X172032748Y-105016027D01*
X171859771Y-105087676D01*
X171859762Y-105087681D01*
X171704092Y-105191697D01*
X171704088Y-105191700D01*
X171571700Y-105324088D01*
X171571697Y-105324092D01*
X171467681Y-105479762D01*
X171467676Y-105479771D01*
X171396027Y-105652748D01*
X171396025Y-105652756D01*
X171359500Y-105836379D01*
X170430894Y-105836379D01*
X170430894Y-104278649D01*
X170450579Y-104211610D01*
X170484029Y-104176893D01*
X171254639Y-103640256D01*
X171320902Y-103618100D01*
X171388625Y-103635285D01*
X171436306Y-103686356D01*
X171449500Y-103742015D01*
X171449500Y-103785557D01*
X171488809Y-103932258D01*
X171490423Y-103938283D01*
X171490426Y-103938290D01*
X171569475Y-104075209D01*
X171569479Y-104075214D01*
X171569480Y-104075216D01*
X171681284Y-104187020D01*
X171681286Y-104187021D01*
X171681290Y-104187024D01*
X171818209Y-104266073D01*
X171818216Y-104266077D01*
X171970943Y-104307000D01*
X171970945Y-104307000D01*
X172129055Y-104307000D01*
X172129057Y-104307000D01*
X172281784Y-104266077D01*
X172418716Y-104187020D01*
X172530520Y-104075216D01*
X172609577Y-103938284D01*
X172650500Y-103785557D01*
X172650500Y-103627443D01*
X172609577Y-103474716D01*
X172554605Y-103379500D01*
X172530524Y-103337790D01*
X172530518Y-103337782D01*
X172418717Y-103225981D01*
X172418716Y-103225980D01*
X172281784Y-103146923D01*
X172281781Y-103146922D01*
X172276578Y-103143918D01*
X172228362Y-103093351D01*
X172215138Y-103024744D01*
X172241106Y-102959879D01*
X172267711Y-102934775D01*
X173493813Y-102080943D01*
X240319500Y-102080943D01*
X240319500Y-102239056D01*
X240360423Y-102391783D01*
X240360426Y-102391790D01*
X240439475Y-102528709D01*
X240439479Y-102528714D01*
X240439480Y-102528716D01*
X240551284Y-102640520D01*
X240551286Y-102640521D01*
X240551290Y-102640524D01*
X240688209Y-102719573D01*
X240688216Y-102719577D01*
X240840943Y-102760500D01*
X240840945Y-102760500D01*
X240999055Y-102760500D01*
X240999057Y-102760500D01*
X241151784Y-102719577D01*
X241288716Y-102640520D01*
X241400520Y-102528716D01*
X241479577Y-102391784D01*
X241520500Y-102239057D01*
X241520500Y-102080943D01*
X241479577Y-101928216D01*
X241451608Y-101879771D01*
X241400524Y-101791290D01*
X241400518Y-101791282D01*
X241288717Y-101679481D01*
X241288709Y-101679475D01*
X241151790Y-101600426D01*
X241151786Y-101600424D01*
X241151784Y-101600423D01*
X240999057Y-101559500D01*
X240840943Y-101559500D01*
X240688216Y-101600423D01*
X240688209Y-101600426D01*
X240551290Y-101679475D01*
X240551282Y-101679481D01*
X240439481Y-101791282D01*
X240439475Y-101791290D01*
X240360426Y-101928209D01*
X240360423Y-101928216D01*
X240319500Y-102080943D01*
X173493813Y-102080943D01*
X177507165Y-99286129D01*
X177523968Y-99279170D01*
X177539583Y-99263554D01*
X177557701Y-99250938D01*
X177560270Y-99246926D01*
X177576997Y-99226139D01*
X177580370Y-99222768D01*
X177588820Y-99202367D01*
X177600731Y-99183777D01*
X177603934Y-99165877D01*
X177610894Y-99149076D01*
X177610894Y-99126994D01*
X177614784Y-99105260D01*
X177610894Y-99087496D01*
X177610894Y-98170943D01*
X232909500Y-98170943D01*
X232909500Y-98329056D01*
X232950423Y-98481783D01*
X232950426Y-98481790D01*
X233029475Y-98618709D01*
X233029479Y-98618714D01*
X233029480Y-98618716D01*
X233141284Y-98730520D01*
X233141286Y-98730521D01*
X233141290Y-98730524D01*
X233227397Y-98780237D01*
X233278216Y-98809577D01*
X233430943Y-98850500D01*
X233430945Y-98850500D01*
X233589055Y-98850500D01*
X233589057Y-98850500D01*
X233741784Y-98809577D01*
X233878716Y-98730520D01*
X233990520Y-98618716D01*
X234069577Y-98481784D01*
X234110500Y-98329057D01*
X234110500Y-98170943D01*
X234069577Y-98018216D01*
X234047269Y-97979577D01*
X233990524Y-97881290D01*
X233990518Y-97881282D01*
X233878717Y-97769481D01*
X233878709Y-97769475D01*
X233741790Y-97690426D01*
X233741786Y-97690424D01*
X233741784Y-97690423D01*
X233589057Y-97649500D01*
X233430943Y-97649500D01*
X233278216Y-97690423D01*
X233278209Y-97690426D01*
X233141290Y-97769475D01*
X233141282Y-97769481D01*
X233029481Y-97881282D01*
X233029475Y-97881290D01*
X232950426Y-98018209D01*
X232950423Y-98018216D01*
X232909500Y-98170943D01*
X177610894Y-98170943D01*
X177610894Y-97340943D01*
X205439500Y-97340943D01*
X205439500Y-97499057D01*
X205470645Y-97615290D01*
X205480423Y-97651783D01*
X205480426Y-97651790D01*
X205559475Y-97788709D01*
X205559479Y-97788714D01*
X205559480Y-97788716D01*
X205671284Y-97900520D01*
X205671286Y-97900521D01*
X205671290Y-97900524D01*
X205808209Y-97979573D01*
X205808216Y-97979577D01*
X205960943Y-98020500D01*
X205960945Y-98020500D01*
X206119055Y-98020500D01*
X206119057Y-98020500D01*
X206271784Y-97979577D01*
X206408716Y-97900520D01*
X206520520Y-97788716D01*
X206599577Y-97651784D01*
X206640500Y-97499057D01*
X206640500Y-97340943D01*
X206613705Y-97240943D01*
X225919500Y-97240943D01*
X225919500Y-97399057D01*
X225948585Y-97507602D01*
X225960423Y-97551783D01*
X225960426Y-97551790D01*
X226039475Y-97688709D01*
X226039479Y-97688714D01*
X226039480Y-97688716D01*
X226151284Y-97800520D01*
X226151286Y-97800521D01*
X226151290Y-97800524D01*
X226288209Y-97879573D01*
X226288216Y-97879577D01*
X226440943Y-97920500D01*
X226440945Y-97920500D01*
X226599055Y-97920500D01*
X226599057Y-97920500D01*
X226751784Y-97879577D01*
X226888716Y-97800520D01*
X227000520Y-97688716D01*
X227079577Y-97551784D01*
X227098559Y-97480943D01*
X242279500Y-97480943D01*
X242279500Y-97639057D01*
X242314446Y-97769475D01*
X242320423Y-97791783D01*
X242320426Y-97791790D01*
X242399475Y-97928709D01*
X242399479Y-97928714D01*
X242399480Y-97928716D01*
X242511284Y-98040520D01*
X242511286Y-98040521D01*
X242511290Y-98040524D01*
X242545596Y-98060330D01*
X242648216Y-98119577D01*
X242800943Y-98160500D01*
X242800945Y-98160500D01*
X242959054Y-98160500D01*
X242959057Y-98160500D01*
X243003408Y-98148616D01*
X243073256Y-98150279D01*
X243131119Y-98189441D01*
X243158623Y-98253670D01*
X243159500Y-98268391D01*
X243159500Y-98423620D01*
X243196025Y-98607243D01*
X243196027Y-98607251D01*
X243267676Y-98780228D01*
X243267681Y-98780237D01*
X243371697Y-98935907D01*
X243371700Y-98935911D01*
X243504088Y-99068299D01*
X243504092Y-99068302D01*
X243659762Y-99172318D01*
X243659766Y-99172320D01*
X243659769Y-99172322D01*
X243687424Y-99183777D01*
X243763862Y-99215439D01*
X243818265Y-99259280D01*
X243840330Y-99325574D01*
X243823051Y-99393274D01*
X243771913Y-99440884D01*
X243763862Y-99444561D01*
X243659772Y-99487676D01*
X243659762Y-99487681D01*
X243504092Y-99591697D01*
X243504088Y-99591700D01*
X243371700Y-99724088D01*
X243371697Y-99724092D01*
X243267681Y-99879762D01*
X243267676Y-99879771D01*
X243196027Y-100052748D01*
X243196025Y-100052756D01*
X243159500Y-100236379D01*
X243159500Y-100423620D01*
X243196025Y-100607243D01*
X243196027Y-100607251D01*
X243267676Y-100780228D01*
X243267681Y-100780237D01*
X243371697Y-100935907D01*
X243371700Y-100935911D01*
X243504088Y-101068299D01*
X243504092Y-101068302D01*
X243659762Y-101172318D01*
X243659766Y-101172320D01*
X243659769Y-101172322D01*
X243742065Y-101206410D01*
X243763862Y-101215439D01*
X243818265Y-101259280D01*
X243840330Y-101325574D01*
X243823051Y-101393274D01*
X243771913Y-101440884D01*
X243763862Y-101444561D01*
X243659772Y-101487676D01*
X243659762Y-101487681D01*
X243504092Y-101591697D01*
X243504088Y-101591700D01*
X243371700Y-101724088D01*
X243371697Y-101724092D01*
X243267681Y-101879762D01*
X243267676Y-101879771D01*
X243196027Y-102052748D01*
X243196025Y-102052756D01*
X243159500Y-102236379D01*
X243159500Y-102423620D01*
X243196025Y-102607243D01*
X243196027Y-102607251D01*
X243267676Y-102780228D01*
X243267681Y-102780237D01*
X243371697Y-102935907D01*
X243371700Y-102935911D01*
X243504088Y-103068299D01*
X243504092Y-103068302D01*
X243659762Y-103172318D01*
X243659766Y-103172320D01*
X243659769Y-103172322D01*
X243742065Y-103206410D01*
X243763862Y-103215439D01*
X243818265Y-103259280D01*
X243840330Y-103325574D01*
X243823051Y-103393274D01*
X243771913Y-103440884D01*
X243763862Y-103444561D01*
X243659772Y-103487676D01*
X243659762Y-103487681D01*
X243504092Y-103591697D01*
X243504088Y-103591700D01*
X243371700Y-103724088D01*
X243371697Y-103724092D01*
X243267681Y-103879762D01*
X243267676Y-103879771D01*
X243196027Y-104052748D01*
X243196025Y-104052756D01*
X243159500Y-104236379D01*
X243159500Y-104423620D01*
X243196025Y-104607243D01*
X243196027Y-104607251D01*
X243267676Y-104780228D01*
X243267681Y-104780237D01*
X243371697Y-104935907D01*
X243371700Y-104935911D01*
X243504088Y-105068299D01*
X243504092Y-105068302D01*
X243659762Y-105172318D01*
X243659766Y-105172320D01*
X243659769Y-105172322D01*
X243742065Y-105206410D01*
X243763862Y-105215439D01*
X243818265Y-105259280D01*
X243840330Y-105325574D01*
X243823051Y-105393274D01*
X243771913Y-105440884D01*
X243763862Y-105444561D01*
X243659772Y-105487676D01*
X243659762Y-105487681D01*
X243504092Y-105591697D01*
X243504088Y-105591700D01*
X243371700Y-105724088D01*
X243371697Y-105724092D01*
X243267681Y-105879762D01*
X243267676Y-105879771D01*
X243196027Y-106052748D01*
X243196025Y-106052756D01*
X243159500Y-106236379D01*
X243159500Y-106423620D01*
X243196025Y-106607243D01*
X243196027Y-106607251D01*
X243267676Y-106780228D01*
X243267681Y-106780237D01*
X243371697Y-106935907D01*
X243371700Y-106935911D01*
X243504088Y-107068299D01*
X243504092Y-107068302D01*
X243659762Y-107172318D01*
X243659771Y-107172323D01*
X243698956Y-107188554D01*
X243832749Y-107243973D01*
X243975552Y-107272378D01*
X244016379Y-107280499D01*
X244016383Y-107280500D01*
X244016384Y-107280500D01*
X244203617Y-107280500D01*
X244203618Y-107280499D01*
X244387251Y-107243973D01*
X244560231Y-107172322D01*
X244715908Y-107068302D01*
X244848302Y-106935908D01*
X244952322Y-106780231D01*
X244955978Y-106771406D01*
X244995439Y-106676138D01*
X245039280Y-106621734D01*
X245105574Y-106599669D01*
X245173273Y-106616948D01*
X245220884Y-106668085D01*
X245224561Y-106676138D01*
X245267674Y-106780224D01*
X245267681Y-106780237D01*
X245371697Y-106935907D01*
X245371700Y-106935911D01*
X245504088Y-107068299D01*
X245504092Y-107068302D01*
X245659762Y-107172318D01*
X245659771Y-107172323D01*
X245698956Y-107188554D01*
X245832749Y-107243973D01*
X245975552Y-107272378D01*
X246016379Y-107280499D01*
X246016383Y-107280500D01*
X246016384Y-107280500D01*
X246203617Y-107280500D01*
X246203618Y-107280499D01*
X246387251Y-107243973D01*
X246560231Y-107172322D01*
X246715908Y-107068302D01*
X246848302Y-106935908D01*
X246952322Y-106780231D01*
X247023973Y-106607251D01*
X247060500Y-106423616D01*
X247060500Y-106236384D01*
X247023973Y-106052749D01*
X246952322Y-105879769D01*
X246952321Y-105879768D01*
X246952318Y-105879762D01*
X246848302Y-105724092D01*
X246848299Y-105724088D01*
X246715911Y-105591700D01*
X246715907Y-105591697D01*
X246560237Y-105487681D01*
X246560224Y-105487674D01*
X246456138Y-105444561D01*
X246401734Y-105400720D01*
X246379669Y-105334426D01*
X246396948Y-105266727D01*
X246448085Y-105219116D01*
X246456138Y-105215439D01*
X246560224Y-105172325D01*
X246560224Y-105172324D01*
X246560231Y-105172322D01*
X246715908Y-105068302D01*
X246848302Y-104935908D01*
X246952322Y-104780231D01*
X247023973Y-104607251D01*
X247060500Y-104423616D01*
X247060500Y-104236384D01*
X247023973Y-104052749D01*
X246952322Y-103879769D01*
X246952321Y-103879768D01*
X246952318Y-103879762D01*
X246848302Y-103724092D01*
X246848299Y-103724088D01*
X246715911Y-103591700D01*
X246715907Y-103591697D01*
X246560237Y-103487681D01*
X246560224Y-103487674D01*
X246456138Y-103444561D01*
X246401734Y-103400720D01*
X246379669Y-103334426D01*
X246396948Y-103266727D01*
X246448085Y-103219116D01*
X246456138Y-103215439D01*
X246560224Y-103172325D01*
X246560224Y-103172324D01*
X246560231Y-103172322D01*
X246715908Y-103068302D01*
X246848302Y-102935908D01*
X246952322Y-102780231D01*
X247023973Y-102607251D01*
X247060500Y-102423616D01*
X247060500Y-102236384D01*
X247023973Y-102052749D01*
X246952322Y-101879769D01*
X246952321Y-101879768D01*
X246952318Y-101879762D01*
X246848302Y-101724092D01*
X246848299Y-101724088D01*
X246715911Y-101591700D01*
X246715907Y-101591697D01*
X246560237Y-101487681D01*
X246560224Y-101487674D01*
X246456138Y-101444561D01*
X246401734Y-101400720D01*
X246379669Y-101334426D01*
X246396948Y-101266727D01*
X246448085Y-101219116D01*
X246456138Y-101215439D01*
X246560224Y-101172325D01*
X246560224Y-101172324D01*
X246560231Y-101172322D01*
X246715908Y-101068302D01*
X246848302Y-100935908D01*
X246952322Y-100780231D01*
X247023973Y-100607251D01*
X247060500Y-100423616D01*
X247060500Y-100236384D01*
X247023973Y-100052749D01*
X246952322Y-99879769D01*
X246952321Y-99879768D01*
X246952318Y-99879762D01*
X246848302Y-99724092D01*
X246848299Y-99724088D01*
X246715911Y-99591700D01*
X246715907Y-99591697D01*
X246560237Y-99487681D01*
X246560224Y-99487674D01*
X246456138Y-99444561D01*
X246401734Y-99400720D01*
X246379669Y-99334426D01*
X246396948Y-99266727D01*
X246448085Y-99219116D01*
X246456138Y-99215439D01*
X246560224Y-99172325D01*
X246560224Y-99172324D01*
X246560231Y-99172322D01*
X246715908Y-99068302D01*
X246848302Y-98935908D01*
X246952322Y-98780231D01*
X247023973Y-98607251D01*
X247060500Y-98423616D01*
X247060500Y-98236384D01*
X247023973Y-98052749D01*
X246952322Y-97879769D01*
X246952321Y-97879768D01*
X246952318Y-97879762D01*
X246848302Y-97724092D01*
X246848299Y-97724088D01*
X246715911Y-97591700D01*
X246715907Y-97591697D01*
X246590050Y-97507602D01*
X246545245Y-97453990D01*
X246536538Y-97384665D01*
X246566692Y-97321637D01*
X246626135Y-97284918D01*
X246658941Y-97280500D01*
X246879750Y-97280500D01*
X246879751Y-97280499D01*
X246894568Y-97277552D01*
X246938229Y-97268868D01*
X246938229Y-97268867D01*
X246938231Y-97268867D01*
X247004552Y-97224552D01*
X247048867Y-97158231D01*
X247048867Y-97158229D01*
X247048868Y-97158229D01*
X247060499Y-97099752D01*
X247060500Y-97099750D01*
X247060500Y-95560249D01*
X247060499Y-95560247D01*
X247048868Y-95501770D01*
X247048867Y-95501769D01*
X247004552Y-95435447D01*
X246938230Y-95391132D01*
X246938229Y-95391131D01*
X246879752Y-95379500D01*
X246879748Y-95379500D01*
X245340252Y-95379500D01*
X245340247Y-95379500D01*
X245281770Y-95391131D01*
X245281769Y-95391132D01*
X245215447Y-95435447D01*
X245171132Y-95501769D01*
X245171131Y-95501770D01*
X245159500Y-95560247D01*
X245159500Y-95781058D01*
X245139815Y-95848097D01*
X245087011Y-95893852D01*
X245017853Y-95903796D01*
X244954297Y-95874771D01*
X244932398Y-95849949D01*
X244848302Y-95724092D01*
X244848299Y-95724088D01*
X244715911Y-95591700D01*
X244715907Y-95591697D01*
X244560237Y-95487681D01*
X244560228Y-95487676D01*
X244387251Y-95416027D01*
X244387243Y-95416025D01*
X244203620Y-95379500D01*
X244203616Y-95379500D01*
X244016384Y-95379500D01*
X244016379Y-95379500D01*
X243832756Y-95416025D01*
X243832748Y-95416027D01*
X243659771Y-95487676D01*
X243659762Y-95487681D01*
X243504092Y-95591697D01*
X243504088Y-95591700D01*
X243371700Y-95724088D01*
X243371697Y-95724092D01*
X243267681Y-95879762D01*
X243267676Y-95879771D01*
X243196027Y-96052748D01*
X243196025Y-96052756D01*
X243159500Y-96236379D01*
X243159500Y-96423620D01*
X243196025Y-96607243D01*
X243196027Y-96607251D01*
X243267676Y-96780228D01*
X243267684Y-96780242D01*
X243309664Y-96843070D01*
X243330542Y-96909747D01*
X243312057Y-96977127D01*
X243260078Y-97023817D01*
X243191108Y-97034993D01*
X243144563Y-97019348D01*
X243111784Y-97000423D01*
X242959057Y-96959500D01*
X242800943Y-96959500D01*
X242648216Y-97000423D01*
X242648209Y-97000426D01*
X242511290Y-97079475D01*
X242511282Y-97079481D01*
X242399481Y-97191282D01*
X242399475Y-97191290D01*
X242320426Y-97328209D01*
X242320423Y-97328216D01*
X242279500Y-97480943D01*
X227098559Y-97480943D01*
X227120500Y-97399057D01*
X227120500Y-97240943D01*
X227079577Y-97088216D01*
X227074533Y-97079480D01*
X227000524Y-96951290D01*
X227000518Y-96951282D01*
X226888717Y-96839481D01*
X226888709Y-96839475D01*
X226751790Y-96760426D01*
X226751786Y-96760424D01*
X226751784Y-96760423D01*
X226599057Y-96719500D01*
X226440943Y-96719500D01*
X226288216Y-96760423D01*
X226288209Y-96760426D01*
X226151290Y-96839475D01*
X226151282Y-96839481D01*
X226039481Y-96951282D01*
X226039475Y-96951290D01*
X225960426Y-97088209D01*
X225960423Y-97088216D01*
X225919500Y-97240943D01*
X206613705Y-97240943D01*
X206599577Y-97188216D01*
X206599573Y-97188209D01*
X206520524Y-97051290D01*
X206520518Y-97051282D01*
X206408717Y-96939481D01*
X206408709Y-96939475D01*
X206271790Y-96860426D01*
X206271786Y-96860424D01*
X206271784Y-96860423D01*
X206119057Y-96819500D01*
X205960943Y-96819500D01*
X205808216Y-96860423D01*
X205808209Y-96860426D01*
X205671290Y-96939475D01*
X205671282Y-96939481D01*
X205559481Y-97051282D01*
X205559475Y-97051290D01*
X205480426Y-97188209D01*
X205480423Y-97188216D01*
X205439500Y-97340943D01*
X177610894Y-97340943D01*
X177610894Y-95880943D01*
X206479500Y-95880943D01*
X206479500Y-96039057D01*
X206506204Y-96138716D01*
X206520423Y-96191783D01*
X206520426Y-96191790D01*
X206599475Y-96328709D01*
X206599479Y-96328714D01*
X206599480Y-96328716D01*
X206711284Y-96440520D01*
X206711286Y-96440521D01*
X206711290Y-96440524D01*
X206848209Y-96519573D01*
X206848216Y-96519577D01*
X207000943Y-96560500D01*
X207000945Y-96560500D01*
X207159055Y-96560500D01*
X207159057Y-96560500D01*
X207311784Y-96519577D01*
X207448716Y-96440520D01*
X207560520Y-96328716D01*
X207639577Y-96191784D01*
X207680500Y-96039057D01*
X207680500Y-95880943D01*
X207639577Y-95728216D01*
X207639576Y-95728214D01*
X207639575Y-95728211D01*
X207618058Y-95690943D01*
X236459500Y-95690943D01*
X236459500Y-95849057D01*
X236474168Y-95903796D01*
X236500423Y-96001783D01*
X236500426Y-96001790D01*
X236579475Y-96138709D01*
X236579479Y-96138714D01*
X236579480Y-96138716D01*
X236691284Y-96250520D01*
X236691286Y-96250521D01*
X236691290Y-96250524D01*
X236826725Y-96328716D01*
X236828216Y-96329577D01*
X236980943Y-96370500D01*
X236980945Y-96370500D01*
X237139055Y-96370500D01*
X237139057Y-96370500D01*
X237291784Y-96329577D01*
X237428716Y-96250520D01*
X237540520Y-96138716D01*
X237619577Y-96001784D01*
X237660500Y-95849057D01*
X237660500Y-95690943D01*
X237619577Y-95538216D01*
X237585663Y-95479475D01*
X237540524Y-95401290D01*
X237540518Y-95401282D01*
X237466917Y-95327681D01*
X237433432Y-95266358D01*
X237438416Y-95196666D01*
X237466917Y-95152319D01*
X237479663Y-95139573D01*
X237540851Y-95078385D01*
X237619908Y-94941453D01*
X237660831Y-94788726D01*
X237660831Y-94630612D01*
X237619908Y-94477885D01*
X237592733Y-94430816D01*
X237540855Y-94340959D01*
X237540849Y-94340951D01*
X237429048Y-94229150D01*
X237429040Y-94229144D01*
X237292121Y-94150095D01*
X237292117Y-94150093D01*
X237292115Y-94150092D01*
X237139388Y-94109169D01*
X236981274Y-94109169D01*
X236828547Y-94150092D01*
X236828540Y-94150095D01*
X236691621Y-94229144D01*
X236691613Y-94229150D01*
X236579812Y-94340951D01*
X236579806Y-94340959D01*
X236500757Y-94477878D01*
X236500754Y-94477885D01*
X236459831Y-94630612D01*
X236459831Y-94788726D01*
X236466010Y-94811784D01*
X236500754Y-94941452D01*
X236500757Y-94941459D01*
X236579806Y-95078378D01*
X236579812Y-95078386D01*
X236653414Y-95151988D01*
X236686899Y-95213311D01*
X236681915Y-95283003D01*
X236653414Y-95327350D01*
X236579481Y-95401282D01*
X236579475Y-95401290D01*
X236500426Y-95538209D01*
X236500423Y-95538216D01*
X236459500Y-95690943D01*
X207618058Y-95690943D01*
X207560524Y-95591290D01*
X207560518Y-95591282D01*
X207448717Y-95479481D01*
X207448709Y-95479475D01*
X207311790Y-95400426D01*
X207311786Y-95400424D01*
X207311784Y-95400423D01*
X207159057Y-95359500D01*
X207000943Y-95359500D01*
X206848216Y-95400423D01*
X206848209Y-95400426D01*
X206711290Y-95479475D01*
X206711282Y-95479481D01*
X206599481Y-95591282D01*
X206599475Y-95591290D01*
X206520426Y-95728209D01*
X206520424Y-95728214D01*
X206520423Y-95728216D01*
X206479500Y-95880943D01*
X177610894Y-95880943D01*
X177610894Y-93990943D01*
X202639500Y-93990943D01*
X202639500Y-94149057D01*
X202656176Y-94211290D01*
X202680423Y-94301783D01*
X202680426Y-94301790D01*
X202759475Y-94438709D01*
X202759479Y-94438714D01*
X202759480Y-94438716D01*
X202871284Y-94550520D01*
X202871286Y-94550521D01*
X202871290Y-94550524D01*
X203008209Y-94629573D01*
X203008216Y-94629577D01*
X203160943Y-94670500D01*
X203160945Y-94670500D01*
X203319055Y-94670500D01*
X203319057Y-94670500D01*
X203471784Y-94629577D01*
X203608716Y-94550520D01*
X203658293Y-94500943D01*
X204649500Y-94500943D01*
X204649500Y-94659057D01*
X204684245Y-94788725D01*
X204690423Y-94811783D01*
X204690426Y-94811790D01*
X204769475Y-94948709D01*
X204769479Y-94948714D01*
X204769480Y-94948716D01*
X204881284Y-95060520D01*
X204881286Y-95060521D01*
X204881290Y-95060524D01*
X205018209Y-95139573D01*
X205018216Y-95139577D01*
X205170943Y-95180500D01*
X205170945Y-95180500D01*
X205329055Y-95180500D01*
X205329057Y-95180500D01*
X205481784Y-95139577D01*
X205618716Y-95060520D01*
X205730520Y-94948716D01*
X205809577Y-94811784D01*
X205850500Y-94659057D01*
X205850500Y-94500943D01*
X205809577Y-94348216D01*
X205740835Y-94229150D01*
X205730524Y-94211290D01*
X205730518Y-94211282D01*
X205618717Y-94099481D01*
X205618709Y-94099475D01*
X205481790Y-94020426D01*
X205481786Y-94020424D01*
X205481784Y-94020423D01*
X205329057Y-93979500D01*
X205170943Y-93979500D01*
X205018216Y-94020423D01*
X205018209Y-94020426D01*
X204881290Y-94099475D01*
X204881282Y-94099481D01*
X204769481Y-94211282D01*
X204769475Y-94211290D01*
X204690426Y-94348209D01*
X204690423Y-94348216D01*
X204649500Y-94500943D01*
X203658293Y-94500943D01*
X203720520Y-94438716D01*
X203799577Y-94301784D01*
X203840500Y-94149057D01*
X203840500Y-93990943D01*
X203799577Y-93838216D01*
X203799573Y-93838209D01*
X203720524Y-93701290D01*
X203720518Y-93701282D01*
X203608717Y-93589481D01*
X203608709Y-93589475D01*
X203471790Y-93510426D01*
X203471786Y-93510424D01*
X203471784Y-93510423D01*
X203319057Y-93469500D01*
X203160943Y-93469500D01*
X203008216Y-93510423D01*
X203008209Y-93510426D01*
X202871290Y-93589475D01*
X202871282Y-93589481D01*
X202759481Y-93701282D01*
X202759475Y-93701290D01*
X202680426Y-93838209D01*
X202680423Y-93838216D01*
X202639500Y-93990943D01*
X177610894Y-93990943D01*
X177610894Y-92525612D01*
X234354831Y-92525612D01*
X234354831Y-92683725D01*
X234395754Y-92836452D01*
X234395757Y-92836459D01*
X234474806Y-92973378D01*
X234474810Y-92973383D01*
X234474811Y-92973385D01*
X234586615Y-93085189D01*
X234586617Y-93085190D01*
X234586621Y-93085193D01*
X234723540Y-93164242D01*
X234723547Y-93164246D01*
X234876274Y-93205169D01*
X234876276Y-93205169D01*
X235034386Y-93205169D01*
X235034388Y-93205169D01*
X235187115Y-93164246D01*
X235324047Y-93085189D01*
X235435851Y-92973385D01*
X235514908Y-92836453D01*
X235555831Y-92683726D01*
X235555831Y-92525612D01*
X235514908Y-92372885D01*
X235455796Y-92270499D01*
X235435855Y-92235959D01*
X235435849Y-92235951D01*
X235324048Y-92124150D01*
X235324040Y-92124144D01*
X235187121Y-92045095D01*
X235187117Y-92045093D01*
X235187115Y-92045092D01*
X235034388Y-92004169D01*
X234876274Y-92004169D01*
X234723547Y-92045092D01*
X234723540Y-92045095D01*
X234586621Y-92124144D01*
X234586613Y-92124150D01*
X234474812Y-92235951D01*
X234474806Y-92235959D01*
X234395757Y-92372878D01*
X234395754Y-92372885D01*
X234354831Y-92525612D01*
X177610894Y-92525612D01*
X177610894Y-86450943D01*
X230339500Y-86450943D01*
X230339500Y-86609056D01*
X230380423Y-86761783D01*
X230380426Y-86761790D01*
X230459475Y-86898709D01*
X230459479Y-86898714D01*
X230459480Y-86898716D01*
X230571284Y-87010520D01*
X230571286Y-87010521D01*
X230571290Y-87010524D01*
X230708209Y-87089573D01*
X230708216Y-87089577D01*
X230860943Y-87130500D01*
X230860945Y-87130500D01*
X231019055Y-87130500D01*
X231019057Y-87130500D01*
X231171784Y-87089577D01*
X231308716Y-87010520D01*
X231420520Y-86898716D01*
X231499577Y-86761784D01*
X231540500Y-86609057D01*
X231540500Y-86450943D01*
X231499577Y-86298216D01*
X231466267Y-86240520D01*
X231420524Y-86161290D01*
X231420518Y-86161282D01*
X231308717Y-86049481D01*
X231308709Y-86049475D01*
X231171790Y-85970426D01*
X231171786Y-85970424D01*
X231171784Y-85970423D01*
X231019057Y-85929500D01*
X230860943Y-85929500D01*
X230708216Y-85970423D01*
X230708209Y-85970426D01*
X230571290Y-86049475D01*
X230571282Y-86049481D01*
X230459481Y-86161282D01*
X230459475Y-86161290D01*
X230380426Y-86298209D01*
X230380423Y-86298216D01*
X230339500Y-86450943D01*
X177610894Y-86450943D01*
X177610894Y-85680943D01*
X237779500Y-85680943D01*
X237779500Y-85839057D01*
X237814700Y-85970423D01*
X237820423Y-85991783D01*
X237820426Y-85991790D01*
X237899475Y-86128709D01*
X237899479Y-86128714D01*
X237899480Y-86128716D01*
X238011284Y-86240520D01*
X238011286Y-86240521D01*
X238011290Y-86240524D01*
X238148209Y-86319573D01*
X238148216Y-86319577D01*
X238300943Y-86360500D01*
X238300945Y-86360500D01*
X238459055Y-86360500D01*
X238459057Y-86360500D01*
X238611784Y-86319577D01*
X238748716Y-86240520D01*
X238860520Y-86128716D01*
X238939577Y-85991784D01*
X238980500Y-85839057D01*
X238980500Y-85680943D01*
X238939577Y-85528216D01*
X238873414Y-85413617D01*
X238860524Y-85391290D01*
X238860518Y-85391282D01*
X238748717Y-85279481D01*
X238748709Y-85279475D01*
X238611790Y-85200426D01*
X238611786Y-85200424D01*
X238611784Y-85200423D01*
X238459057Y-85159500D01*
X238300943Y-85159500D01*
X238148216Y-85200423D01*
X238148209Y-85200426D01*
X238011290Y-85279475D01*
X238011282Y-85279481D01*
X237899481Y-85391282D01*
X237899475Y-85391290D01*
X237820426Y-85528209D01*
X237820423Y-85528216D01*
X237779500Y-85680943D01*
X177610894Y-85680943D01*
X177610894Y-83750943D01*
X203499500Y-83750943D01*
X203499500Y-83909057D01*
X203537405Y-84050518D01*
X203540423Y-84061783D01*
X203540426Y-84061790D01*
X203619475Y-84198709D01*
X203619479Y-84198714D01*
X203619480Y-84198716D01*
X203731284Y-84310520D01*
X203731286Y-84310521D01*
X203731290Y-84310524D01*
X203857299Y-84383274D01*
X203868216Y-84389577D01*
X204020943Y-84430500D01*
X204020945Y-84430500D01*
X204179055Y-84430500D01*
X204179057Y-84430500D01*
X204331784Y-84389577D01*
X204468716Y-84310520D01*
X204558293Y-84220943D01*
X230029500Y-84220943D01*
X230029500Y-84379057D01*
X230055926Y-84477678D01*
X230070423Y-84531783D01*
X230070426Y-84531790D01*
X230149475Y-84668709D01*
X230149479Y-84668714D01*
X230149480Y-84668716D01*
X230261284Y-84780520D01*
X230261286Y-84780521D01*
X230261290Y-84780524D01*
X230398209Y-84859573D01*
X230398216Y-84859577D01*
X230550943Y-84900500D01*
X230550945Y-84900500D01*
X230709055Y-84900500D01*
X230709057Y-84900500D01*
X230861784Y-84859577D01*
X230998716Y-84780520D01*
X231110520Y-84668716D01*
X231189577Y-84531784D01*
X231230500Y-84379057D01*
X231230500Y-84220943D01*
X231189577Y-84068216D01*
X231183853Y-84058302D01*
X231110524Y-83931290D01*
X231110518Y-83931282D01*
X230998717Y-83819481D01*
X230998709Y-83819475D01*
X230878728Y-83750204D01*
X230878725Y-83750204D01*
X230861784Y-83740423D01*
X230709057Y-83699500D01*
X230550943Y-83699500D01*
X230398216Y-83740423D01*
X230398209Y-83740426D01*
X230261290Y-83819475D01*
X230261282Y-83819481D01*
X230149481Y-83931282D01*
X230149475Y-83931290D01*
X230070426Y-84068209D01*
X230070423Y-84068216D01*
X230029500Y-84220943D01*
X204558293Y-84220943D01*
X204580520Y-84198716D01*
X204659577Y-84061784D01*
X204700500Y-83909057D01*
X204700500Y-83750943D01*
X204659577Y-83598216D01*
X204628745Y-83544814D01*
X204628745Y-83544812D01*
X204597644Y-83490943D01*
X208959500Y-83490943D01*
X208959500Y-83649057D01*
X208991969Y-83770231D01*
X209000423Y-83801783D01*
X209000426Y-83801790D01*
X209079475Y-83938709D01*
X209079479Y-83938714D01*
X209079480Y-83938716D01*
X209191284Y-84050520D01*
X209191286Y-84050521D01*
X209191290Y-84050524D01*
X209274764Y-84098717D01*
X209328216Y-84129577D01*
X209480943Y-84170500D01*
X209480945Y-84170500D01*
X209639055Y-84170500D01*
X209639057Y-84170500D01*
X209791784Y-84129577D01*
X209928716Y-84050520D01*
X210040520Y-83938716D01*
X210119577Y-83801784D01*
X210159995Y-83650943D01*
X234439500Y-83650943D01*
X234439500Y-83809057D01*
X234466295Y-83909055D01*
X234480423Y-83961783D01*
X234480426Y-83961790D01*
X234559475Y-84098709D01*
X234559479Y-84098714D01*
X234559480Y-84098716D01*
X234671284Y-84210520D01*
X234671286Y-84210521D01*
X234671290Y-84210524D01*
X234775173Y-84270500D01*
X234808216Y-84289577D01*
X234960943Y-84330500D01*
X234960945Y-84330500D01*
X235119055Y-84330500D01*
X235119057Y-84330500D01*
X235271784Y-84289577D01*
X235408716Y-84210520D01*
X235520520Y-84098716D01*
X235599577Y-83961784D01*
X235640500Y-83809057D01*
X235640500Y-83650943D01*
X235599577Y-83498216D01*
X235578258Y-83461290D01*
X235520524Y-83361290D01*
X235520518Y-83361282D01*
X235408717Y-83249481D01*
X235408709Y-83249475D01*
X235271790Y-83170426D01*
X235271786Y-83170424D01*
X235271784Y-83170423D01*
X235119057Y-83129500D01*
X234960943Y-83129500D01*
X234808216Y-83170423D01*
X234808209Y-83170426D01*
X234671290Y-83249475D01*
X234671282Y-83249481D01*
X234559481Y-83361282D01*
X234559475Y-83361290D01*
X234480426Y-83498209D01*
X234480423Y-83498216D01*
X234439500Y-83650943D01*
X210159995Y-83650943D01*
X210160500Y-83649057D01*
X210160500Y-83490943D01*
X210119577Y-83338216D01*
X210080437Y-83270423D01*
X210040524Y-83201290D01*
X210040518Y-83201282D01*
X209928717Y-83089481D01*
X209928709Y-83089475D01*
X209791790Y-83010426D01*
X209791786Y-83010424D01*
X209791784Y-83010423D01*
X209639057Y-82969500D01*
X209480943Y-82969500D01*
X209328216Y-83010423D01*
X209328209Y-83010426D01*
X209191290Y-83089475D01*
X209191282Y-83089481D01*
X209079481Y-83201282D01*
X209079475Y-83201290D01*
X209000426Y-83338209D01*
X209000423Y-83338216D01*
X208959500Y-83490943D01*
X204597644Y-83490943D01*
X204580524Y-83461290D01*
X204580518Y-83461282D01*
X204468717Y-83349481D01*
X204468709Y-83349475D01*
X204331790Y-83270426D01*
X204331786Y-83270424D01*
X204331784Y-83270423D01*
X204179057Y-83229500D01*
X204020943Y-83229500D01*
X203868216Y-83270423D01*
X203868209Y-83270426D01*
X203731290Y-83349475D01*
X203731282Y-83349481D01*
X203619481Y-83461282D01*
X203619475Y-83461290D01*
X203540426Y-83598209D01*
X203540423Y-83598216D01*
X203499500Y-83750943D01*
X177610894Y-83750943D01*
X177610894Y-82800943D01*
X233229500Y-82800943D01*
X233229500Y-82959057D01*
X233264446Y-83089475D01*
X233270423Y-83111783D01*
X233270426Y-83111790D01*
X233349475Y-83248709D01*
X233349479Y-83248714D01*
X233349480Y-83248716D01*
X233461284Y-83360520D01*
X233461286Y-83360521D01*
X233461290Y-83360524D01*
X233598209Y-83439573D01*
X233598216Y-83439577D01*
X233750943Y-83480500D01*
X233750945Y-83480500D01*
X233909055Y-83480500D01*
X233909057Y-83480500D01*
X234061784Y-83439577D01*
X234198716Y-83360520D01*
X234310520Y-83248716D01*
X234389577Y-83111784D01*
X234430500Y-82959057D01*
X234430500Y-82800943D01*
X234430498Y-82800937D01*
X234429664Y-82794603D01*
X234440424Y-82725567D01*
X234486800Y-82673307D01*
X234554068Y-82654417D01*
X234584696Y-82658633D01*
X234588213Y-82659575D01*
X234588216Y-82659577D01*
X234740943Y-82700500D01*
X234740946Y-82700500D01*
X234899055Y-82700500D01*
X234899057Y-82700500D01*
X235051784Y-82659577D01*
X235188716Y-82580520D01*
X235300520Y-82468716D01*
X235379577Y-82331784D01*
X235420500Y-82179057D01*
X235420500Y-82020943D01*
X235379577Y-81868216D01*
X235326736Y-81776692D01*
X235300524Y-81731290D01*
X235300518Y-81731282D01*
X235188717Y-81619481D01*
X235188709Y-81619475D01*
X235051790Y-81540426D01*
X235051786Y-81540424D01*
X235051784Y-81540423D01*
X234899057Y-81499500D01*
X234740943Y-81499500D01*
X234588216Y-81540423D01*
X234588209Y-81540426D01*
X234451290Y-81619475D01*
X234451282Y-81619481D01*
X234339481Y-81731282D01*
X234339475Y-81731290D01*
X234260426Y-81868209D01*
X234260423Y-81868216D01*
X234219500Y-82020943D01*
X234219500Y-82179057D01*
X234219501Y-82179060D01*
X234220336Y-82185403D01*
X234209571Y-82254439D01*
X234163192Y-82306696D01*
X234095924Y-82325582D01*
X234065304Y-82321366D01*
X234002644Y-82304576D01*
X233909057Y-82279500D01*
X233750943Y-82279500D01*
X233598216Y-82320423D01*
X233598209Y-82320426D01*
X233461290Y-82399475D01*
X233461282Y-82399481D01*
X233349481Y-82511282D01*
X233349475Y-82511290D01*
X233270426Y-82648209D01*
X233270423Y-82648216D01*
X233229500Y-82800943D01*
X177610894Y-82800943D01*
X177610894Y-81226379D01*
X243209500Y-81226379D01*
X243209500Y-81413620D01*
X243246025Y-81597243D01*
X243246027Y-81597251D01*
X243317676Y-81770228D01*
X243317681Y-81770237D01*
X243421697Y-81925907D01*
X243421700Y-81925911D01*
X243554088Y-82058299D01*
X243554092Y-82058302D01*
X243709762Y-82162318D01*
X243709766Y-82162320D01*
X243709769Y-82162322D01*
X243750171Y-82179057D01*
X243813862Y-82205439D01*
X243868265Y-82249280D01*
X243890330Y-82315574D01*
X243873051Y-82383274D01*
X243821913Y-82430884D01*
X243813862Y-82434561D01*
X243709772Y-82477676D01*
X243709762Y-82477681D01*
X243554092Y-82581697D01*
X243554088Y-82581700D01*
X243421700Y-82714088D01*
X243421697Y-82714092D01*
X243317681Y-82869762D01*
X243317676Y-82869771D01*
X243246027Y-83042748D01*
X243246025Y-83042756D01*
X243209500Y-83226379D01*
X243209500Y-83413620D01*
X243246025Y-83597243D01*
X243246027Y-83597251D01*
X243317676Y-83770228D01*
X243317681Y-83770237D01*
X243421697Y-83925907D01*
X243421700Y-83925911D01*
X243554088Y-84058299D01*
X243554092Y-84058302D01*
X243709762Y-84162318D01*
X243709766Y-84162320D01*
X243709769Y-84162322D01*
X243792065Y-84196410D01*
X243813862Y-84205439D01*
X243868265Y-84249280D01*
X243890330Y-84315574D01*
X243873051Y-84383274D01*
X243821913Y-84430884D01*
X243813862Y-84434561D01*
X243709772Y-84477676D01*
X243709762Y-84477681D01*
X243554092Y-84581697D01*
X243554088Y-84581700D01*
X243421700Y-84714088D01*
X243421697Y-84714092D01*
X243317681Y-84869762D01*
X243317676Y-84869771D01*
X243246027Y-85042748D01*
X243246025Y-85042756D01*
X243209500Y-85226379D01*
X243209500Y-85413620D01*
X243246025Y-85597243D01*
X243246027Y-85597251D01*
X243317676Y-85770228D01*
X243317681Y-85770237D01*
X243421697Y-85925907D01*
X243421700Y-85925911D01*
X243554088Y-86058299D01*
X243554092Y-86058302D01*
X243709762Y-86162318D01*
X243709766Y-86162320D01*
X243709769Y-86162322D01*
X243792065Y-86196410D01*
X243813862Y-86205439D01*
X243868265Y-86249280D01*
X243890330Y-86315574D01*
X243873051Y-86383274D01*
X243821913Y-86430884D01*
X243813862Y-86434561D01*
X243709772Y-86477676D01*
X243709762Y-86477681D01*
X243554092Y-86581697D01*
X243554088Y-86581700D01*
X243421700Y-86714088D01*
X243421697Y-86714092D01*
X243317681Y-86869762D01*
X243317676Y-86869771D01*
X243246027Y-87042748D01*
X243246025Y-87042756D01*
X243209500Y-87226379D01*
X243209500Y-87413620D01*
X243246025Y-87597243D01*
X243246027Y-87597251D01*
X243317676Y-87770228D01*
X243317681Y-87770237D01*
X243421697Y-87925907D01*
X243421700Y-87925911D01*
X243554088Y-88058299D01*
X243554092Y-88058302D01*
X243709762Y-88162318D01*
X243709766Y-88162320D01*
X243709769Y-88162322D01*
X243792065Y-88196410D01*
X243813862Y-88205439D01*
X243868265Y-88249280D01*
X243890330Y-88315574D01*
X243873051Y-88383274D01*
X243821913Y-88430884D01*
X243813862Y-88434561D01*
X243709772Y-88477676D01*
X243709762Y-88477681D01*
X243554092Y-88581697D01*
X243554088Y-88581700D01*
X243421700Y-88714088D01*
X243421697Y-88714092D01*
X243317681Y-88869762D01*
X243317676Y-88869771D01*
X243246027Y-89042748D01*
X243246025Y-89042756D01*
X243209500Y-89226379D01*
X243209500Y-89413620D01*
X243246025Y-89597243D01*
X243246027Y-89597251D01*
X243317676Y-89770228D01*
X243317681Y-89770237D01*
X243421697Y-89925907D01*
X243421700Y-89925911D01*
X243554088Y-90058299D01*
X243554092Y-90058302D01*
X243709762Y-90162318D01*
X243709766Y-90162320D01*
X243709769Y-90162322D01*
X243792065Y-90196410D01*
X243813862Y-90205439D01*
X243868265Y-90249280D01*
X243890330Y-90315574D01*
X243873051Y-90383274D01*
X243821913Y-90430884D01*
X243813862Y-90434561D01*
X243709772Y-90477676D01*
X243709762Y-90477681D01*
X243554092Y-90581697D01*
X243554088Y-90581700D01*
X243421700Y-90714088D01*
X243421697Y-90714092D01*
X243317681Y-90869762D01*
X243317676Y-90869771D01*
X243246027Y-91042748D01*
X243246025Y-91042756D01*
X243209500Y-91226379D01*
X243209500Y-91413620D01*
X243246025Y-91597243D01*
X243246027Y-91597251D01*
X243317676Y-91770228D01*
X243317681Y-91770237D01*
X243421697Y-91925907D01*
X243421700Y-91925911D01*
X243554088Y-92058299D01*
X243554092Y-92058302D01*
X243709762Y-92162318D01*
X243709768Y-92162321D01*
X243709769Y-92162322D01*
X243882749Y-92233973D01*
X244066379Y-92270499D01*
X244066383Y-92270500D01*
X244066384Y-92270500D01*
X244253617Y-92270500D01*
X244253618Y-92270499D01*
X244437251Y-92233973D01*
X244610231Y-92162322D01*
X244765908Y-92058302D01*
X244898302Y-91925908D01*
X245002322Y-91770231D01*
X245045439Y-91666138D01*
X245089280Y-91611734D01*
X245155574Y-91589669D01*
X245223273Y-91606948D01*
X245270884Y-91658085D01*
X245274561Y-91666138D01*
X245317674Y-91770224D01*
X245317681Y-91770237D01*
X245421697Y-91925907D01*
X245421700Y-91925911D01*
X245554088Y-92058299D01*
X245554092Y-92058302D01*
X245709762Y-92162318D01*
X245709768Y-92162321D01*
X245709769Y-92162322D01*
X245882749Y-92233973D01*
X246066379Y-92270499D01*
X246066383Y-92270500D01*
X246066384Y-92270500D01*
X246253617Y-92270500D01*
X246253618Y-92270499D01*
X246437251Y-92233973D01*
X246610231Y-92162322D01*
X246765908Y-92058302D01*
X246898302Y-91925908D01*
X247002322Y-91770231D01*
X247073973Y-91597251D01*
X247110500Y-91413616D01*
X247110500Y-91226384D01*
X247073973Y-91042749D01*
X247002322Y-90869769D01*
X247002321Y-90869768D01*
X247002318Y-90869762D01*
X246898302Y-90714092D01*
X246898299Y-90714088D01*
X246765911Y-90581700D01*
X246765907Y-90581697D01*
X246610237Y-90477681D01*
X246610224Y-90477674D01*
X246506138Y-90434561D01*
X246451734Y-90390720D01*
X246429669Y-90324426D01*
X246446948Y-90256727D01*
X246498085Y-90209116D01*
X246506138Y-90205439D01*
X246610224Y-90162325D01*
X246610224Y-90162324D01*
X246610231Y-90162322D01*
X246765908Y-90058302D01*
X246898302Y-89925908D01*
X247002322Y-89770231D01*
X247073973Y-89597251D01*
X247110500Y-89413616D01*
X247110500Y-89226384D01*
X247073973Y-89042749D01*
X247002322Y-88869769D01*
X247002321Y-88869768D01*
X247002318Y-88869762D01*
X246898302Y-88714092D01*
X246898299Y-88714088D01*
X246765911Y-88581700D01*
X246765907Y-88581697D01*
X246610237Y-88477681D01*
X246610224Y-88477674D01*
X246506138Y-88434561D01*
X246451734Y-88390720D01*
X246429669Y-88324426D01*
X246446948Y-88256727D01*
X246498085Y-88209116D01*
X246506138Y-88205439D01*
X246610224Y-88162325D01*
X246610224Y-88162324D01*
X246610231Y-88162322D01*
X246765908Y-88058302D01*
X246898302Y-87925908D01*
X247002322Y-87770231D01*
X247073973Y-87597251D01*
X247110500Y-87413616D01*
X247110500Y-87226384D01*
X247073973Y-87042749D01*
X247002322Y-86869769D01*
X247002321Y-86869768D01*
X247002318Y-86869762D01*
X246898302Y-86714092D01*
X246898299Y-86714088D01*
X246765911Y-86581700D01*
X246765907Y-86581697D01*
X246610237Y-86477681D01*
X246610224Y-86477674D01*
X246506138Y-86434561D01*
X246451734Y-86390720D01*
X246429669Y-86324426D01*
X246446948Y-86256727D01*
X246498085Y-86209116D01*
X246506138Y-86205439D01*
X246610224Y-86162325D01*
X246610224Y-86162324D01*
X246610231Y-86162322D01*
X246611776Y-86161290D01*
X246660536Y-86128709D01*
X246765908Y-86058302D01*
X246898302Y-85925908D01*
X247002322Y-85770231D01*
X247073973Y-85597251D01*
X247110500Y-85413616D01*
X247110500Y-85226384D01*
X247073973Y-85042749D01*
X247002322Y-84869769D01*
X247002321Y-84869768D01*
X247002318Y-84869762D01*
X246898302Y-84714092D01*
X246898299Y-84714088D01*
X246765911Y-84581700D01*
X246765907Y-84581697D01*
X246610237Y-84477681D01*
X246610224Y-84477674D01*
X246506138Y-84434561D01*
X246451734Y-84390720D01*
X246429669Y-84324426D01*
X246446948Y-84256727D01*
X246498085Y-84209116D01*
X246506138Y-84205439D01*
X246610224Y-84162325D01*
X246610224Y-84162324D01*
X246610231Y-84162322D01*
X246765908Y-84058302D01*
X246898302Y-83925908D01*
X247002322Y-83770231D01*
X247073973Y-83597251D01*
X247110500Y-83413616D01*
X247110500Y-83226384D01*
X247073973Y-83042749D01*
X247002322Y-82869769D01*
X247002321Y-82869768D01*
X247002318Y-82869762D01*
X246898302Y-82714092D01*
X246898299Y-82714088D01*
X246765911Y-82581700D01*
X246765907Y-82581697D01*
X246640050Y-82497602D01*
X246595245Y-82443990D01*
X246586538Y-82374665D01*
X246616692Y-82311637D01*
X246676135Y-82274918D01*
X246708941Y-82270500D01*
X246929750Y-82270500D01*
X246929751Y-82270499D01*
X246944568Y-82267552D01*
X246988229Y-82258868D01*
X246988229Y-82258867D01*
X246988231Y-82258867D01*
X247054552Y-82214552D01*
X247098867Y-82148231D01*
X247098867Y-82148229D01*
X247098868Y-82148229D01*
X247110499Y-82089752D01*
X247110500Y-82089750D01*
X247110500Y-80550249D01*
X247110499Y-80550247D01*
X247098868Y-80491770D01*
X247098867Y-80491769D01*
X247054552Y-80425447D01*
X246988230Y-80381132D01*
X246988229Y-80381131D01*
X246929752Y-80369500D01*
X246929748Y-80369500D01*
X245390252Y-80369500D01*
X245390247Y-80369500D01*
X245331770Y-80381131D01*
X245331769Y-80381132D01*
X245265447Y-80425447D01*
X245221132Y-80491769D01*
X245221131Y-80491770D01*
X245209500Y-80550247D01*
X245209500Y-80771058D01*
X245189815Y-80838097D01*
X245137011Y-80883852D01*
X245067853Y-80893796D01*
X245004297Y-80864771D01*
X244982398Y-80839949D01*
X244898302Y-80714092D01*
X244898299Y-80714088D01*
X244765911Y-80581700D01*
X244765907Y-80581697D01*
X244610237Y-80477681D01*
X244610228Y-80477676D01*
X244437251Y-80406027D01*
X244437243Y-80406025D01*
X244253620Y-80369500D01*
X244253616Y-80369500D01*
X244066384Y-80369500D01*
X244066379Y-80369500D01*
X243882756Y-80406025D01*
X243882748Y-80406027D01*
X243709771Y-80477676D01*
X243709762Y-80477681D01*
X243554092Y-80581697D01*
X243554088Y-80581700D01*
X243421700Y-80714088D01*
X243421697Y-80714092D01*
X243317681Y-80869762D01*
X243317676Y-80869771D01*
X243246027Y-81042748D01*
X243246025Y-81042756D01*
X243209500Y-81226379D01*
X177610894Y-81226379D01*
X177610894Y-79460943D01*
X219819500Y-79460943D01*
X219819500Y-79619057D01*
X219846204Y-79718716D01*
X219860423Y-79771783D01*
X219860426Y-79771790D01*
X219939475Y-79908709D01*
X219939479Y-79908714D01*
X219939480Y-79908716D01*
X220051284Y-80020520D01*
X220051286Y-80020521D01*
X220051290Y-80020524D01*
X220188209Y-80099573D01*
X220188216Y-80099577D01*
X220340943Y-80140500D01*
X220340945Y-80140500D01*
X220499055Y-80140500D01*
X220499057Y-80140500D01*
X220651784Y-80099577D01*
X220788716Y-80020520D01*
X220900520Y-79908716D01*
X220979577Y-79771784D01*
X221020500Y-79619057D01*
X221020500Y-79460943D01*
X220979577Y-79308216D01*
X220979576Y-79308214D01*
X220979575Y-79308211D01*
X220958058Y-79270943D01*
X242049500Y-79270943D01*
X242049500Y-79429057D01*
X242058045Y-79460945D01*
X242090423Y-79581783D01*
X242090426Y-79581790D01*
X242169475Y-79718709D01*
X242169479Y-79718714D01*
X242169480Y-79718716D01*
X242281284Y-79830520D01*
X242281286Y-79830521D01*
X242281290Y-79830524D01*
X242416725Y-79908716D01*
X242418216Y-79909577D01*
X242570943Y-79950500D01*
X242570945Y-79950500D01*
X242729055Y-79950500D01*
X242729057Y-79950500D01*
X242881784Y-79909577D01*
X243018716Y-79830520D01*
X243130520Y-79718716D01*
X243209577Y-79581784D01*
X243250500Y-79429057D01*
X243250500Y-79270943D01*
X243209577Y-79118216D01*
X243175663Y-79059475D01*
X243130524Y-78981290D01*
X243130518Y-78981282D01*
X243018717Y-78869481D01*
X243018709Y-78869475D01*
X242881790Y-78790426D01*
X242881786Y-78790424D01*
X242881784Y-78790423D01*
X242729057Y-78749500D01*
X242570943Y-78749500D01*
X242418216Y-78790423D01*
X242418209Y-78790426D01*
X242281290Y-78869475D01*
X242281282Y-78869481D01*
X242169481Y-78981282D01*
X242169475Y-78981290D01*
X242090426Y-79118209D01*
X242090423Y-79118216D01*
X242049500Y-79270943D01*
X220958058Y-79270943D01*
X220900524Y-79171290D01*
X220900518Y-79171282D01*
X220788717Y-79059481D01*
X220788709Y-79059475D01*
X220651790Y-78980426D01*
X220651786Y-78980424D01*
X220651784Y-78980423D01*
X220499057Y-78939500D01*
X220340943Y-78939500D01*
X220188216Y-78980423D01*
X220188209Y-78980426D01*
X220051290Y-79059475D01*
X220051282Y-79059481D01*
X219939481Y-79171282D01*
X219939475Y-79171290D01*
X219860426Y-79308209D01*
X219860424Y-79308214D01*
X219860423Y-79308216D01*
X219819500Y-79460943D01*
X177610894Y-79460943D01*
X177610894Y-76735247D01*
X219544500Y-76735247D01*
X219544500Y-78124752D01*
X219556131Y-78183229D01*
X219556132Y-78183230D01*
X219600447Y-78249552D01*
X219666769Y-78293867D01*
X219666770Y-78293868D01*
X219725247Y-78305499D01*
X219725250Y-78305500D01*
X219725252Y-78305500D01*
X221114750Y-78305500D01*
X221114751Y-78305499D01*
X221129568Y-78302552D01*
X221173229Y-78293868D01*
X221173229Y-78293867D01*
X221173231Y-78293867D01*
X221239552Y-78249552D01*
X221283867Y-78183231D01*
X221283867Y-78183229D01*
X221283868Y-78183229D01*
X221295499Y-78124752D01*
X221295500Y-78124750D01*
X221295500Y-77343766D01*
X221544500Y-77343766D01*
X221544500Y-77516233D01*
X221578143Y-77685366D01*
X221578146Y-77685378D01*
X221644138Y-77844698D01*
X221644145Y-77844711D01*
X221739954Y-77988098D01*
X221739957Y-77988102D01*
X221861897Y-78110042D01*
X221861901Y-78110045D01*
X222005288Y-78205854D01*
X222005301Y-78205861D01*
X222164621Y-78271853D01*
X222164626Y-78271855D01*
X222333766Y-78305499D01*
X222333769Y-78305500D01*
X222333771Y-78305500D01*
X222506231Y-78305500D01*
X222506232Y-78305499D01*
X222675374Y-78271855D01*
X222834705Y-78205858D01*
X222978099Y-78110045D01*
X223100045Y-77988099D01*
X223195858Y-77844705D01*
X223197592Y-77840520D01*
X223261853Y-77685378D01*
X223261855Y-77685374D01*
X223295500Y-77516229D01*
X223295500Y-77343771D01*
X223295500Y-77343768D01*
X223295499Y-77343766D01*
X223544500Y-77343766D01*
X223544500Y-77516233D01*
X223578143Y-77685366D01*
X223578146Y-77685378D01*
X223644138Y-77844698D01*
X223644145Y-77844711D01*
X223739954Y-77988098D01*
X223739957Y-77988102D01*
X223861897Y-78110042D01*
X223861901Y-78110045D01*
X224005288Y-78205854D01*
X224005301Y-78205861D01*
X224164621Y-78271853D01*
X224164626Y-78271855D01*
X224333766Y-78305499D01*
X224333769Y-78305500D01*
X224333771Y-78305500D01*
X224506231Y-78305500D01*
X224506232Y-78305499D01*
X224675374Y-78271855D01*
X224834705Y-78205858D01*
X224978099Y-78110045D01*
X225100045Y-77988099D01*
X225195858Y-77844705D01*
X225197592Y-77840520D01*
X225261853Y-77685378D01*
X225261855Y-77685374D01*
X225295500Y-77516229D01*
X225295500Y-77343771D01*
X225295500Y-77343768D01*
X225295499Y-77343766D01*
X225544500Y-77343766D01*
X225544500Y-77516233D01*
X225578143Y-77685366D01*
X225578146Y-77685378D01*
X225644138Y-77844698D01*
X225644145Y-77844711D01*
X225739954Y-77988098D01*
X225739957Y-77988102D01*
X225861897Y-78110042D01*
X225861901Y-78110045D01*
X226005288Y-78205854D01*
X226005301Y-78205861D01*
X226164621Y-78271853D01*
X226164626Y-78271855D01*
X226333766Y-78305499D01*
X226333769Y-78305500D01*
X226333771Y-78305500D01*
X226506231Y-78305500D01*
X226506232Y-78305499D01*
X226675374Y-78271855D01*
X226834705Y-78205858D01*
X226978099Y-78110045D01*
X227100045Y-77988099D01*
X227195858Y-77844705D01*
X227197592Y-77840520D01*
X227261853Y-77685378D01*
X227261855Y-77685374D01*
X227295500Y-77516229D01*
X227295500Y-77343771D01*
X227295500Y-77343768D01*
X227295499Y-77343766D01*
X227286199Y-77297007D01*
X227283004Y-77280943D01*
X228189500Y-77280943D01*
X228189500Y-77439056D01*
X228230423Y-77591783D01*
X228230426Y-77591790D01*
X228309475Y-77728709D01*
X228309479Y-77728714D01*
X228309480Y-77728716D01*
X228421284Y-77840520D01*
X228421286Y-77840521D01*
X228421290Y-77840524D01*
X228558209Y-77919573D01*
X228558216Y-77919577D01*
X228710943Y-77960500D01*
X228710945Y-77960500D01*
X228869055Y-77960500D01*
X228869057Y-77960500D01*
X229021784Y-77919577D01*
X229158716Y-77840520D01*
X229270520Y-77728716D01*
X229349577Y-77591784D01*
X229390500Y-77439057D01*
X229390500Y-77280943D01*
X229349577Y-77128216D01*
X229286855Y-77019577D01*
X229270524Y-76991290D01*
X229270518Y-76991282D01*
X229158717Y-76879481D01*
X229158709Y-76879475D01*
X229021790Y-76800426D01*
X229021786Y-76800424D01*
X229021784Y-76800423D01*
X228869057Y-76759500D01*
X228710943Y-76759500D01*
X228558216Y-76800423D01*
X228558209Y-76800426D01*
X228421290Y-76879475D01*
X228421282Y-76879481D01*
X228309481Y-76991282D01*
X228309475Y-76991290D01*
X228230426Y-77128209D01*
X228230423Y-77128216D01*
X228189500Y-77280943D01*
X227283004Y-77280943D01*
X227261856Y-77174631D01*
X227261855Y-77174630D01*
X227261855Y-77174626D01*
X227261853Y-77174621D01*
X227195861Y-77015301D01*
X227195854Y-77015288D01*
X227100045Y-76871901D01*
X227100042Y-76871897D01*
X226978102Y-76749957D01*
X226978098Y-76749954D01*
X226834711Y-76654145D01*
X226834698Y-76654138D01*
X226675378Y-76588146D01*
X226675366Y-76588143D01*
X226506232Y-76554500D01*
X226506229Y-76554500D01*
X226333771Y-76554500D01*
X226333768Y-76554500D01*
X226164633Y-76588143D01*
X226164621Y-76588146D01*
X226005301Y-76654138D01*
X226005288Y-76654145D01*
X225861901Y-76749954D01*
X225861897Y-76749957D01*
X225739957Y-76871897D01*
X225739954Y-76871901D01*
X225644145Y-77015288D01*
X225644138Y-77015301D01*
X225578146Y-77174621D01*
X225578143Y-77174633D01*
X225544500Y-77343766D01*
X225295499Y-77343766D01*
X225261856Y-77174633D01*
X225261856Y-77174631D01*
X225261855Y-77174626D01*
X225261853Y-77174621D01*
X225195861Y-77015301D01*
X225195854Y-77015288D01*
X225100045Y-76871901D01*
X225100042Y-76871897D01*
X224978102Y-76749957D01*
X224978098Y-76749954D01*
X224834711Y-76654145D01*
X224834698Y-76654138D01*
X224675378Y-76588146D01*
X224675366Y-76588143D01*
X224506232Y-76554500D01*
X224506229Y-76554500D01*
X224333771Y-76554500D01*
X224333768Y-76554500D01*
X224164633Y-76588143D01*
X224164621Y-76588146D01*
X224005301Y-76654138D01*
X224005288Y-76654145D01*
X223861901Y-76749954D01*
X223861897Y-76749957D01*
X223739957Y-76871897D01*
X223739954Y-76871901D01*
X223644145Y-77015288D01*
X223644138Y-77015301D01*
X223578146Y-77174621D01*
X223578143Y-77174633D01*
X223544500Y-77343766D01*
X223295499Y-77343766D01*
X223261856Y-77174633D01*
X223261856Y-77174631D01*
X223261855Y-77174626D01*
X223261853Y-77174621D01*
X223195861Y-77015301D01*
X223195854Y-77015288D01*
X223100045Y-76871901D01*
X223100042Y-76871897D01*
X222978102Y-76749957D01*
X222978098Y-76749954D01*
X222834711Y-76654145D01*
X222834698Y-76654138D01*
X222675378Y-76588146D01*
X222675366Y-76588143D01*
X222506232Y-76554500D01*
X222506229Y-76554500D01*
X222333771Y-76554500D01*
X222333768Y-76554500D01*
X222164633Y-76588143D01*
X222164621Y-76588146D01*
X222005301Y-76654138D01*
X222005288Y-76654145D01*
X221861901Y-76749954D01*
X221861897Y-76749957D01*
X221739957Y-76871897D01*
X221739954Y-76871901D01*
X221644145Y-77015288D01*
X221644138Y-77015301D01*
X221578146Y-77174621D01*
X221578143Y-77174633D01*
X221544500Y-77343766D01*
X221295500Y-77343766D01*
X221295500Y-76735249D01*
X221295499Y-76735247D01*
X221283868Y-76676770D01*
X221283867Y-76676769D01*
X221239552Y-76610447D01*
X221173230Y-76566132D01*
X221173229Y-76566131D01*
X221114752Y-76554500D01*
X221114748Y-76554500D01*
X219725252Y-76554500D01*
X219725247Y-76554500D01*
X219666770Y-76566131D01*
X219666769Y-76566132D01*
X219600447Y-76610447D01*
X219556132Y-76676769D01*
X219556131Y-76676770D01*
X219544500Y-76735247D01*
X177610894Y-76735247D01*
X177610894Y-75610943D01*
X209149500Y-75610943D01*
X209149500Y-75769057D01*
X209184700Y-75900423D01*
X209190423Y-75921783D01*
X209190426Y-75921790D01*
X209269475Y-76058709D01*
X209269479Y-76058714D01*
X209269480Y-76058716D01*
X209381284Y-76170520D01*
X209381286Y-76170521D01*
X209381290Y-76170524D01*
X209481205Y-76228209D01*
X209518216Y-76249577D01*
X209670943Y-76290500D01*
X209670945Y-76290500D01*
X209829055Y-76290500D01*
X209829057Y-76290500D01*
X209981784Y-76249577D01*
X210118716Y-76170520D01*
X210230520Y-76058716D01*
X210309577Y-75921784D01*
X210350500Y-75769057D01*
X210350500Y-75610943D01*
X210309577Y-75458216D01*
X210299359Y-75440518D01*
X210230522Y-75321286D01*
X210160179Y-75250943D01*
X219929500Y-75250943D01*
X219929500Y-75409057D01*
X219959114Y-75519576D01*
X219970423Y-75561783D01*
X219970426Y-75561790D01*
X220049475Y-75698709D01*
X220049479Y-75698714D01*
X220049480Y-75698716D01*
X220161284Y-75810520D01*
X220161286Y-75810521D01*
X220161290Y-75810524D01*
X220298209Y-75889573D01*
X220298216Y-75889577D01*
X220450943Y-75930500D01*
X220450945Y-75930500D01*
X220609055Y-75930500D01*
X220609057Y-75930500D01*
X220761784Y-75889577D01*
X220898716Y-75810520D01*
X221010520Y-75698716D01*
X221089577Y-75561784D01*
X221130500Y-75409057D01*
X221130500Y-75250943D01*
X221089577Y-75098216D01*
X221055422Y-75039057D01*
X221010524Y-74961290D01*
X221010518Y-74961282D01*
X220898717Y-74849481D01*
X220898709Y-74849475D01*
X220849289Y-74820943D01*
X225189500Y-74820943D01*
X225189500Y-74979057D01*
X225230059Y-75130423D01*
X225230423Y-75131783D01*
X225230426Y-75131790D01*
X225309475Y-75268709D01*
X225309479Y-75268714D01*
X225309480Y-75268716D01*
X225421284Y-75380520D01*
X225421286Y-75380521D01*
X225421290Y-75380524D01*
X225555859Y-75458216D01*
X225558216Y-75459577D01*
X225710943Y-75500500D01*
X225710945Y-75500500D01*
X225869055Y-75500500D01*
X225869057Y-75500500D01*
X226021784Y-75459577D01*
X226158716Y-75380520D01*
X226270520Y-75268716D01*
X226349577Y-75131784D01*
X226390500Y-74979057D01*
X226390500Y-74880943D01*
X242824500Y-74880943D01*
X242824500Y-75039057D01*
X242848982Y-75130423D01*
X242865423Y-75191783D01*
X242865426Y-75191790D01*
X242944475Y-75328709D01*
X242944479Y-75328714D01*
X242944480Y-75328716D01*
X243056284Y-75440520D01*
X243056286Y-75440521D01*
X243056290Y-75440524D01*
X243177366Y-75510426D01*
X243193216Y-75519577D01*
X243345943Y-75560500D01*
X243345945Y-75560500D01*
X243385988Y-75560500D01*
X243453027Y-75580185D01*
X243498782Y-75632989D01*
X243508726Y-75702147D01*
X243493375Y-75746500D01*
X243440424Y-75838213D01*
X243440423Y-75838216D01*
X243399500Y-75990943D01*
X243399500Y-76149057D01*
X243437400Y-76290500D01*
X243440423Y-76301783D01*
X243440426Y-76301790D01*
X243519475Y-76438709D01*
X243519479Y-76438714D01*
X243519480Y-76438716D01*
X243631284Y-76550520D01*
X243631286Y-76550521D01*
X243631290Y-76550524D01*
X243735083Y-76610448D01*
X243768216Y-76629577D01*
X243920943Y-76670500D01*
X243920945Y-76670500D01*
X244079055Y-76670500D01*
X244079057Y-76670500D01*
X244231784Y-76629577D01*
X244368716Y-76550520D01*
X244480520Y-76438716D01*
X244513875Y-76380943D01*
X247319500Y-76380943D01*
X247319500Y-76539057D01*
X247343755Y-76629576D01*
X247360423Y-76691783D01*
X247360426Y-76691790D01*
X247439475Y-76828709D01*
X247439479Y-76828714D01*
X247439480Y-76828716D01*
X247551284Y-76940520D01*
X247551286Y-76940521D01*
X247551290Y-76940524D01*
X247639221Y-76991290D01*
X247688216Y-77019577D01*
X247840943Y-77060500D01*
X247840945Y-77060500D01*
X247999055Y-77060500D01*
X247999057Y-77060500D01*
X248151784Y-77019577D01*
X248288716Y-76940520D01*
X248400520Y-76828716D01*
X248479577Y-76691784D01*
X248520500Y-76539057D01*
X248520500Y-76380943D01*
X248479577Y-76228216D01*
X248446267Y-76170520D01*
X248400524Y-76091290D01*
X248400518Y-76091282D01*
X248288717Y-75979481D01*
X248288709Y-75979475D01*
X248151790Y-75900426D01*
X248151786Y-75900424D01*
X248151784Y-75900423D01*
X247999057Y-75859500D01*
X247840943Y-75859500D01*
X247688216Y-75900423D01*
X247688209Y-75900426D01*
X247551290Y-75979475D01*
X247551282Y-75979481D01*
X247439481Y-76091282D01*
X247439475Y-76091290D01*
X247360426Y-76228209D01*
X247360423Y-76228216D01*
X247319500Y-76380943D01*
X244513875Y-76380943D01*
X244554363Y-76310816D01*
X244556483Y-76307142D01*
X244559577Y-76301784D01*
X244600500Y-76149057D01*
X244600500Y-75990943D01*
X244559577Y-75838216D01*
X244543586Y-75810518D01*
X244480524Y-75701290D01*
X244480518Y-75701282D01*
X244368717Y-75589481D01*
X244368709Y-75589475D01*
X244231790Y-75510426D01*
X244231786Y-75510424D01*
X244231784Y-75510423D01*
X244079057Y-75469500D01*
X244039012Y-75469500D01*
X243971973Y-75449815D01*
X243926218Y-75397011D01*
X243916274Y-75327853D01*
X243931625Y-75283500D01*
X243940160Y-75268717D01*
X243984577Y-75191784D01*
X244025500Y-75039057D01*
X244025500Y-74880943D01*
X243984577Y-74728216D01*
X243984573Y-74728209D01*
X243905524Y-74591290D01*
X243905518Y-74591282D01*
X243793717Y-74479481D01*
X243793709Y-74479475D01*
X243656790Y-74400426D01*
X243656786Y-74400424D01*
X243656784Y-74400423D01*
X243504057Y-74359500D01*
X243345943Y-74359500D01*
X243193216Y-74400423D01*
X243193209Y-74400426D01*
X243056290Y-74479475D01*
X243056282Y-74479481D01*
X242944481Y-74591282D01*
X242944475Y-74591290D01*
X242865426Y-74728209D01*
X242865423Y-74728216D01*
X242824500Y-74880943D01*
X226390500Y-74880943D01*
X226390500Y-74820943D01*
X226349577Y-74668216D01*
X226305160Y-74591282D01*
X226270524Y-74531290D01*
X226270518Y-74531282D01*
X226158717Y-74419481D01*
X226158709Y-74419475D01*
X226021790Y-74340426D01*
X226021786Y-74340424D01*
X226021784Y-74340423D01*
X225869057Y-74299500D01*
X225710943Y-74299500D01*
X225558216Y-74340423D01*
X225558209Y-74340426D01*
X225421290Y-74419475D01*
X225421282Y-74419481D01*
X225309481Y-74531282D01*
X225309475Y-74531290D01*
X225230426Y-74668209D01*
X225230423Y-74668216D01*
X225189500Y-74820943D01*
X220849289Y-74820943D01*
X220761790Y-74770426D01*
X220761786Y-74770424D01*
X220761784Y-74770423D01*
X220609057Y-74729500D01*
X220450943Y-74729500D01*
X220298216Y-74770423D01*
X220298209Y-74770426D01*
X220161290Y-74849475D01*
X220161282Y-74849481D01*
X220049481Y-74961282D01*
X220049475Y-74961290D01*
X219970426Y-75098209D01*
X219970423Y-75098216D01*
X219929500Y-75250943D01*
X210160179Y-75250943D01*
X210118717Y-75209481D01*
X210118709Y-75209475D01*
X209981790Y-75130426D01*
X209981786Y-75130424D01*
X209981784Y-75130423D01*
X209829057Y-75089500D01*
X209670943Y-75089500D01*
X209518216Y-75130423D01*
X209518209Y-75130426D01*
X209381290Y-75209475D01*
X209381282Y-75209481D01*
X209269481Y-75321282D01*
X209269475Y-75321290D01*
X209190426Y-75458209D01*
X209190423Y-75458216D01*
X209149500Y-75610943D01*
X177610894Y-75610943D01*
X177610894Y-73150943D01*
X219999500Y-73150943D01*
X219999500Y-73309056D01*
X220040423Y-73461783D01*
X220040426Y-73461790D01*
X220119475Y-73598709D01*
X220119479Y-73598714D01*
X220119480Y-73598716D01*
X220231284Y-73710520D01*
X220231286Y-73710521D01*
X220231290Y-73710524D01*
X220368209Y-73789573D01*
X220368216Y-73789577D01*
X220520943Y-73830500D01*
X220520945Y-73830500D01*
X220679055Y-73830500D01*
X220679057Y-73830500D01*
X220831784Y-73789577D01*
X220968716Y-73710520D01*
X221080520Y-73598716D01*
X221159577Y-73461784D01*
X221200500Y-73309057D01*
X221200500Y-73150943D01*
X221159577Y-72998216D01*
X221159573Y-72998209D01*
X221080524Y-72861290D01*
X221080518Y-72861282D01*
X220968717Y-72749481D01*
X220968709Y-72749475D01*
X220831790Y-72670426D01*
X220831786Y-72670424D01*
X220831784Y-72670423D01*
X220679057Y-72629500D01*
X220520943Y-72629500D01*
X220368216Y-72670423D01*
X220368209Y-72670426D01*
X220231290Y-72749475D01*
X220231282Y-72749481D01*
X220119481Y-72861282D01*
X220119475Y-72861290D01*
X220040426Y-72998209D01*
X220040423Y-72998216D01*
X219999500Y-73150943D01*
X177610894Y-73150943D01*
X177610894Y-71800943D01*
X241019500Y-71800943D01*
X241019500Y-71959056D01*
X241060423Y-72111783D01*
X241060426Y-72111790D01*
X241139475Y-72248709D01*
X241139479Y-72248714D01*
X241139480Y-72248716D01*
X241251284Y-72360520D01*
X241251286Y-72360521D01*
X241251290Y-72360524D01*
X241388209Y-72439573D01*
X241388216Y-72439577D01*
X241540943Y-72480500D01*
X241540945Y-72480500D01*
X241699055Y-72480500D01*
X241699057Y-72480500D01*
X241851784Y-72439577D01*
X241988716Y-72360520D01*
X242100520Y-72248716D01*
X242179577Y-72111784D01*
X242220500Y-71959057D01*
X242220500Y-71800943D01*
X242179577Y-71648216D01*
X242179573Y-71648209D01*
X242100524Y-71511290D01*
X242100518Y-71511282D01*
X241988717Y-71399481D01*
X241988709Y-71399475D01*
X241851790Y-71320426D01*
X241851786Y-71320424D01*
X241851784Y-71320423D01*
X241699057Y-71279500D01*
X241540943Y-71279500D01*
X241388216Y-71320423D01*
X241388209Y-71320426D01*
X241251290Y-71399475D01*
X241251282Y-71399481D01*
X241139481Y-71511282D01*
X241139475Y-71511290D01*
X241060426Y-71648209D01*
X241060423Y-71648216D01*
X241019500Y-71800943D01*
X177610894Y-71800943D01*
X177610894Y-70410943D01*
X209559500Y-70410943D01*
X209559500Y-70569056D01*
X209600423Y-70721783D01*
X209600426Y-70721790D01*
X209679475Y-70858709D01*
X209679479Y-70858714D01*
X209679480Y-70858716D01*
X209791284Y-70970520D01*
X209791286Y-70970521D01*
X209791290Y-70970524D01*
X209928209Y-71049573D01*
X209928216Y-71049577D01*
X210080943Y-71090500D01*
X210080945Y-71090500D01*
X210239055Y-71090500D01*
X210239057Y-71090500D01*
X210391784Y-71049577D01*
X210528716Y-70970520D01*
X210640520Y-70858716D01*
X210719577Y-70721784D01*
X210760500Y-70569057D01*
X210760500Y-70410943D01*
X210719577Y-70258216D01*
X210719573Y-70258209D01*
X210640524Y-70121290D01*
X210640518Y-70121282D01*
X210528717Y-70009481D01*
X210528709Y-70009475D01*
X210391790Y-69930426D01*
X210391786Y-69930424D01*
X210391784Y-69930423D01*
X210239057Y-69889500D01*
X210080943Y-69889500D01*
X209928216Y-69930423D01*
X209928209Y-69930426D01*
X209791290Y-70009475D01*
X209791282Y-70009481D01*
X209679481Y-70121282D01*
X209679475Y-70121290D01*
X209600426Y-70258209D01*
X209600423Y-70258216D01*
X209559500Y-70410943D01*
X177610894Y-70410943D01*
X177610894Y-61160943D01*
X234789500Y-61160943D01*
X234789500Y-61319057D01*
X234812804Y-61406027D01*
X234830423Y-61471783D01*
X234830426Y-61471790D01*
X234909475Y-61608709D01*
X234909479Y-61608714D01*
X234909480Y-61608716D01*
X235021284Y-61720520D01*
X235021286Y-61720521D01*
X235021290Y-61720524D01*
X235108620Y-61770943D01*
X235158216Y-61799577D01*
X235310943Y-61840500D01*
X235310945Y-61840500D01*
X235469055Y-61840500D01*
X235469057Y-61840500D01*
X235621784Y-61799577D01*
X235671380Y-61770943D01*
X236899500Y-61770943D01*
X236899500Y-61929057D01*
X236929966Y-62042756D01*
X236940423Y-62081783D01*
X236940426Y-62081790D01*
X237019475Y-62218709D01*
X237019479Y-62218714D01*
X237019480Y-62218716D01*
X237131284Y-62330520D01*
X237131286Y-62330521D01*
X237131290Y-62330524D01*
X237268209Y-62409573D01*
X237268216Y-62409577D01*
X237420943Y-62450500D01*
X237420945Y-62450500D01*
X237579055Y-62450500D01*
X237579057Y-62450500D01*
X237731784Y-62409577D01*
X237868716Y-62330520D01*
X237980520Y-62218716D01*
X238059577Y-62081784D01*
X238100500Y-61929057D01*
X238100500Y-61770943D01*
X238059577Y-61618216D01*
X238038493Y-61581697D01*
X237980524Y-61481290D01*
X237980518Y-61481282D01*
X237868717Y-61369481D01*
X237868709Y-61369475D01*
X237731790Y-61290426D01*
X237731786Y-61290424D01*
X237731784Y-61290423D01*
X237579057Y-61249500D01*
X237420943Y-61249500D01*
X237268216Y-61290423D01*
X237268209Y-61290426D01*
X237131290Y-61369475D01*
X237131282Y-61369481D01*
X237019481Y-61481282D01*
X237019475Y-61481290D01*
X236940426Y-61618209D01*
X236940423Y-61618216D01*
X236899500Y-61770943D01*
X235671380Y-61770943D01*
X235758716Y-61720520D01*
X235870520Y-61608716D01*
X235949577Y-61471784D01*
X235990500Y-61319057D01*
X235990500Y-61160943D01*
X235949577Y-61008216D01*
X235911646Y-60942517D01*
X235870524Y-60871290D01*
X235870518Y-60871282D01*
X235758717Y-60759481D01*
X235758709Y-60759475D01*
X235621790Y-60680426D01*
X235621786Y-60680424D01*
X235621784Y-60680423D01*
X235469057Y-60639500D01*
X235310943Y-60639500D01*
X235158216Y-60680423D01*
X235158209Y-60680426D01*
X235021290Y-60759475D01*
X235021282Y-60759481D01*
X234909481Y-60871282D01*
X234909475Y-60871290D01*
X234830426Y-61008209D01*
X234830423Y-61008216D01*
X234789500Y-61160943D01*
X177610894Y-61160943D01*
X177610894Y-61137908D01*
X177612821Y-61116131D01*
X177614782Y-61105139D01*
X177610894Y-61087435D01*
X177610894Y-61069312D01*
X177602421Y-61048857D01*
X177597672Y-61027231D01*
X177595000Y-61023398D01*
X177587304Y-61012361D01*
X177580370Y-60995620D01*
X177564714Y-60979964D01*
X177552051Y-60961803D01*
X177548114Y-60959283D01*
X177527271Y-60942521D01*
X177523968Y-60939218D01*
X177513649Y-60934943D01*
X177494271Y-60924832D01*
X177410593Y-60871290D01*
X173471654Y-58350943D01*
X234989500Y-58350943D01*
X234989500Y-58509057D01*
X235013132Y-58597251D01*
X235030423Y-58661783D01*
X235030426Y-58661790D01*
X235109475Y-58798709D01*
X235109479Y-58798714D01*
X235109480Y-58798716D01*
X235221284Y-58910520D01*
X235221286Y-58910521D01*
X235221290Y-58910524D01*
X235358209Y-58989573D01*
X235358216Y-58989577D01*
X235510943Y-59030500D01*
X235510945Y-59030500D01*
X235669055Y-59030500D01*
X235669057Y-59030500D01*
X235821784Y-58989577D01*
X235958716Y-58910520D01*
X236070520Y-58798716D01*
X236149577Y-58661784D01*
X236190500Y-58509057D01*
X236190500Y-58350943D01*
X236149577Y-58198216D01*
X236149573Y-58198209D01*
X236070524Y-58061290D01*
X236070518Y-58061282D01*
X235958717Y-57949481D01*
X235958709Y-57949475D01*
X235821790Y-57870426D01*
X235821786Y-57870424D01*
X235821784Y-57870423D01*
X235669057Y-57829500D01*
X235510943Y-57829500D01*
X235358216Y-57870423D01*
X235358209Y-57870426D01*
X235221290Y-57949475D01*
X235221282Y-57949481D01*
X235109481Y-58061282D01*
X235109475Y-58061290D01*
X235030426Y-58198209D01*
X235030423Y-58198216D01*
X234989500Y-58350943D01*
X173471654Y-58350943D01*
X169470744Y-55790943D01*
X231729500Y-55790943D01*
X231729500Y-55949057D01*
X231754605Y-56042748D01*
X231770423Y-56101783D01*
X231770426Y-56101790D01*
X231849475Y-56238709D01*
X231849479Y-56238714D01*
X231849480Y-56238716D01*
X231961284Y-56350520D01*
X231961286Y-56350521D01*
X231961290Y-56350524D01*
X232070570Y-56413616D01*
X232098216Y-56429577D01*
X232250943Y-56470500D01*
X232250945Y-56470500D01*
X232409055Y-56470500D01*
X232409057Y-56470500D01*
X232561784Y-56429577D01*
X232680663Y-56360943D01*
X236069500Y-56360943D01*
X236069500Y-56519057D01*
X236106753Y-56658085D01*
X236110423Y-56671783D01*
X236110426Y-56671790D01*
X236189475Y-56808709D01*
X236189479Y-56808714D01*
X236189480Y-56808716D01*
X236301284Y-56920520D01*
X236301286Y-56920521D01*
X236301290Y-56920524D01*
X236438209Y-56999573D01*
X236438216Y-56999577D01*
X236590943Y-57040500D01*
X236590945Y-57040500D01*
X236749055Y-57040500D01*
X236749057Y-57040500D01*
X236901784Y-56999577D01*
X237038716Y-56920520D01*
X237150520Y-56808716D01*
X237229577Y-56671784D01*
X237270500Y-56519057D01*
X237270500Y-56360943D01*
X237229577Y-56208216D01*
X237229573Y-56208209D01*
X237150524Y-56071290D01*
X237150518Y-56071282D01*
X237038717Y-55959481D01*
X237038709Y-55959475D01*
X236901790Y-55880426D01*
X236901786Y-55880424D01*
X236901784Y-55880423D01*
X236749057Y-55839500D01*
X236590943Y-55839500D01*
X236438216Y-55880423D01*
X236438209Y-55880426D01*
X236301290Y-55959475D01*
X236301282Y-55959481D01*
X236189481Y-56071282D01*
X236189475Y-56071290D01*
X236110426Y-56208209D01*
X236110423Y-56208216D01*
X236069500Y-56360943D01*
X232680663Y-56360943D01*
X232698716Y-56350520D01*
X232810520Y-56238716D01*
X232889577Y-56101784D01*
X232930500Y-55949057D01*
X232930500Y-55790943D01*
X232889577Y-55638216D01*
X232856946Y-55581697D01*
X232810524Y-55501290D01*
X232810518Y-55501282D01*
X232698717Y-55389481D01*
X232698709Y-55389475D01*
X232561790Y-55310426D01*
X232561786Y-55310424D01*
X232561784Y-55310423D01*
X232409057Y-55269500D01*
X232250943Y-55269500D01*
X232098216Y-55310423D01*
X232098209Y-55310426D01*
X231961290Y-55389475D01*
X231961282Y-55389481D01*
X231849481Y-55501282D01*
X231849475Y-55501290D01*
X231770426Y-55638209D01*
X231770423Y-55638216D01*
X231729500Y-55790943D01*
X169470744Y-55790943D01*
X167025556Y-54226379D01*
X243149500Y-54226379D01*
X243149500Y-54413620D01*
X243186025Y-54597243D01*
X243186027Y-54597251D01*
X243257676Y-54770228D01*
X243257681Y-54770237D01*
X243361697Y-54925907D01*
X243361700Y-54925911D01*
X243494088Y-55058299D01*
X243494092Y-55058302D01*
X243649762Y-55162318D01*
X243649766Y-55162320D01*
X243649769Y-55162322D01*
X243732065Y-55196410D01*
X243753862Y-55205439D01*
X243808265Y-55249280D01*
X243830330Y-55315574D01*
X243813051Y-55383274D01*
X243761913Y-55430884D01*
X243753862Y-55434561D01*
X243649772Y-55477676D01*
X243649762Y-55477681D01*
X243494092Y-55581697D01*
X243494088Y-55581700D01*
X243361700Y-55714088D01*
X243361697Y-55714092D01*
X243257681Y-55869762D01*
X243257676Y-55869771D01*
X243186027Y-56042748D01*
X243186025Y-56042756D01*
X243149500Y-56226379D01*
X243149500Y-56413620D01*
X243186025Y-56597243D01*
X243186027Y-56597251D01*
X243257676Y-56770228D01*
X243257681Y-56770237D01*
X243361697Y-56925907D01*
X243361700Y-56925911D01*
X243494088Y-57058299D01*
X243494092Y-57058302D01*
X243649762Y-57162318D01*
X243649766Y-57162320D01*
X243649769Y-57162322D01*
X243732065Y-57196410D01*
X243753862Y-57205439D01*
X243808265Y-57249280D01*
X243830330Y-57315574D01*
X243813051Y-57383274D01*
X243761913Y-57430884D01*
X243753862Y-57434561D01*
X243649772Y-57477676D01*
X243649762Y-57477681D01*
X243494092Y-57581697D01*
X243494088Y-57581700D01*
X243361700Y-57714088D01*
X243361697Y-57714092D01*
X243257681Y-57869762D01*
X243257676Y-57869771D01*
X243186027Y-58042748D01*
X243186025Y-58042756D01*
X243149500Y-58226379D01*
X243149500Y-58413620D01*
X243186025Y-58597243D01*
X243186027Y-58597251D01*
X243257676Y-58770228D01*
X243257681Y-58770237D01*
X243361697Y-58925907D01*
X243361700Y-58925911D01*
X243494088Y-59058299D01*
X243494092Y-59058302D01*
X243649762Y-59162318D01*
X243649766Y-59162320D01*
X243649769Y-59162322D01*
X243732065Y-59196410D01*
X243753862Y-59205439D01*
X243808265Y-59249280D01*
X243830330Y-59315574D01*
X243813051Y-59383274D01*
X243761913Y-59430884D01*
X243753862Y-59434561D01*
X243649772Y-59477676D01*
X243649762Y-59477681D01*
X243494092Y-59581697D01*
X243494088Y-59581700D01*
X243361700Y-59714088D01*
X243361697Y-59714092D01*
X243257681Y-59869762D01*
X243257676Y-59869771D01*
X243186027Y-60042748D01*
X243186025Y-60042756D01*
X243149500Y-60226379D01*
X243149500Y-60413620D01*
X243186025Y-60597243D01*
X243186027Y-60597251D01*
X243257676Y-60770228D01*
X243257681Y-60770237D01*
X243361697Y-60925907D01*
X243361700Y-60925911D01*
X243494088Y-61058299D01*
X243494092Y-61058302D01*
X243649762Y-61162318D01*
X243649766Y-61162320D01*
X243649769Y-61162322D01*
X243732065Y-61196410D01*
X243753862Y-61205439D01*
X243808265Y-61249280D01*
X243830330Y-61315574D01*
X243813051Y-61383274D01*
X243761913Y-61430884D01*
X243753862Y-61434561D01*
X243649772Y-61477676D01*
X243649762Y-61477681D01*
X243494092Y-61581697D01*
X243494088Y-61581700D01*
X243361700Y-61714088D01*
X243361697Y-61714092D01*
X243257681Y-61869762D01*
X243257676Y-61869771D01*
X243186027Y-62042748D01*
X243186025Y-62042756D01*
X243149500Y-62226379D01*
X243149500Y-62413620D01*
X243186025Y-62597243D01*
X243186027Y-62597251D01*
X243257676Y-62770228D01*
X243257681Y-62770237D01*
X243361697Y-62925907D01*
X243361700Y-62925911D01*
X243494088Y-63058299D01*
X243494092Y-63058302D01*
X243619950Y-63142398D01*
X243664755Y-63196010D01*
X243673462Y-63265335D01*
X243643308Y-63328363D01*
X243583865Y-63365082D01*
X243551059Y-63369500D01*
X243330247Y-63369500D01*
X243271770Y-63381131D01*
X243271769Y-63381132D01*
X243205447Y-63425447D01*
X243161132Y-63491769D01*
X243161131Y-63491770D01*
X243149500Y-63550247D01*
X243149500Y-65089752D01*
X243161131Y-65148229D01*
X243161132Y-65148230D01*
X243205447Y-65214552D01*
X243271769Y-65258867D01*
X243271770Y-65258868D01*
X243330247Y-65270499D01*
X243330250Y-65270500D01*
X243330252Y-65270500D01*
X244869750Y-65270500D01*
X244869751Y-65270499D01*
X244884568Y-65267552D01*
X244928229Y-65258868D01*
X244928229Y-65258867D01*
X244928231Y-65258867D01*
X244994552Y-65214552D01*
X245038867Y-65148231D01*
X245038867Y-65148229D01*
X245038868Y-65148229D01*
X245050499Y-65089752D01*
X245050500Y-65089750D01*
X245050500Y-64868941D01*
X245070185Y-64801902D01*
X245122989Y-64756147D01*
X245192147Y-64746203D01*
X245255703Y-64775228D01*
X245277602Y-64800050D01*
X245361697Y-64925907D01*
X245361700Y-64925911D01*
X245494088Y-65058299D01*
X245494092Y-65058302D01*
X245649762Y-65162318D01*
X245649768Y-65162321D01*
X245649769Y-65162322D01*
X245822749Y-65233973D01*
X245947901Y-65258867D01*
X246006379Y-65270499D01*
X246006383Y-65270500D01*
X246006384Y-65270500D01*
X246193617Y-65270500D01*
X246193618Y-65270499D01*
X246377251Y-65233973D01*
X246550231Y-65162322D01*
X246705908Y-65058302D01*
X246838302Y-64925908D01*
X246942322Y-64770231D01*
X247013973Y-64597251D01*
X247050500Y-64413616D01*
X247050500Y-64226384D01*
X247013973Y-64042749D01*
X246942322Y-63869769D01*
X246942321Y-63869768D01*
X246942318Y-63869762D01*
X246838302Y-63714092D01*
X246838299Y-63714088D01*
X246705911Y-63581700D01*
X246705907Y-63581697D01*
X246550237Y-63477681D01*
X246550224Y-63477674D01*
X246446138Y-63434561D01*
X246391734Y-63390720D01*
X246369669Y-63324426D01*
X246386948Y-63256727D01*
X246438085Y-63209116D01*
X246446138Y-63205439D01*
X246550224Y-63162325D01*
X246550224Y-63162324D01*
X246550231Y-63162322D01*
X246705908Y-63058302D01*
X246838302Y-62925908D01*
X246942322Y-62770231D01*
X247013973Y-62597251D01*
X247050500Y-62413616D01*
X247050500Y-62226384D01*
X247013973Y-62042749D01*
X246942322Y-61869769D01*
X246942321Y-61869768D01*
X246942318Y-61869762D01*
X246838302Y-61714092D01*
X246838299Y-61714088D01*
X246705911Y-61581700D01*
X246705907Y-61581697D01*
X246550237Y-61477681D01*
X246550224Y-61477674D01*
X246446138Y-61434561D01*
X246391734Y-61390720D01*
X246369669Y-61324426D01*
X246386948Y-61256727D01*
X246438085Y-61209116D01*
X246446138Y-61205439D01*
X246550224Y-61162325D01*
X246550224Y-61162324D01*
X246550231Y-61162322D01*
X246705908Y-61058302D01*
X246838302Y-60925908D01*
X246942322Y-60770231D01*
X247013973Y-60597251D01*
X247050500Y-60413616D01*
X247050500Y-60226384D01*
X247013973Y-60042749D01*
X246942322Y-59869769D01*
X246942321Y-59869768D01*
X246942318Y-59869762D01*
X246838302Y-59714092D01*
X246838299Y-59714088D01*
X246705911Y-59581700D01*
X246705907Y-59581697D01*
X246550237Y-59477681D01*
X246550224Y-59477674D01*
X246446138Y-59434561D01*
X246391734Y-59390720D01*
X246369669Y-59324426D01*
X246386948Y-59256727D01*
X246438085Y-59209116D01*
X246446138Y-59205439D01*
X246550224Y-59162325D01*
X246550224Y-59162324D01*
X246550231Y-59162322D01*
X246705908Y-59058302D01*
X246838302Y-58925908D01*
X246942322Y-58770231D01*
X247013973Y-58597251D01*
X247050500Y-58413616D01*
X247050500Y-58226384D01*
X247013973Y-58042749D01*
X246942322Y-57869769D01*
X246942321Y-57869768D01*
X246942318Y-57869762D01*
X246838302Y-57714092D01*
X246838299Y-57714088D01*
X246705911Y-57581700D01*
X246705907Y-57581697D01*
X246550237Y-57477681D01*
X246550224Y-57477674D01*
X246446138Y-57434561D01*
X246391734Y-57390720D01*
X246369669Y-57324426D01*
X246386948Y-57256727D01*
X246438085Y-57209116D01*
X246446138Y-57205439D01*
X246550224Y-57162325D01*
X246550224Y-57162324D01*
X246550231Y-57162322D01*
X246705908Y-57058302D01*
X246838302Y-56925908D01*
X246942322Y-56770231D01*
X247013973Y-56597251D01*
X247050500Y-56413616D01*
X247050500Y-56226384D01*
X247013973Y-56042749D01*
X246942322Y-55869769D01*
X246942321Y-55869768D01*
X246942318Y-55869762D01*
X246838302Y-55714092D01*
X246838299Y-55714088D01*
X246705911Y-55581700D01*
X246705907Y-55581697D01*
X246550237Y-55477681D01*
X246550224Y-55477674D01*
X246446138Y-55434561D01*
X246391734Y-55390720D01*
X246369669Y-55324426D01*
X246386948Y-55256727D01*
X246438085Y-55209116D01*
X246446138Y-55205439D01*
X246550224Y-55162325D01*
X246550224Y-55162324D01*
X246550231Y-55162322D01*
X246705908Y-55058302D01*
X246838302Y-54925908D01*
X246942322Y-54770231D01*
X247013973Y-54597251D01*
X247050500Y-54413616D01*
X247050500Y-54226384D01*
X247013973Y-54042749D01*
X246942322Y-53869769D01*
X246942321Y-53869768D01*
X246942318Y-53869762D01*
X246838302Y-53714092D01*
X246838299Y-53714088D01*
X246705911Y-53581700D01*
X246705907Y-53581697D01*
X246550237Y-53477681D01*
X246550228Y-53477676D01*
X246377251Y-53406027D01*
X246377243Y-53406025D01*
X246193620Y-53369500D01*
X246193616Y-53369500D01*
X246006384Y-53369500D01*
X246006379Y-53369500D01*
X245822756Y-53406025D01*
X245822748Y-53406027D01*
X245649771Y-53477676D01*
X245649762Y-53477681D01*
X245494092Y-53581697D01*
X245494088Y-53581700D01*
X245361700Y-53714088D01*
X245361697Y-53714092D01*
X245257681Y-53869762D01*
X245257676Y-53869772D01*
X245214561Y-53973862D01*
X245170720Y-54028265D01*
X245104426Y-54050330D01*
X245036726Y-54033051D01*
X244989116Y-53981913D01*
X244985439Y-53973862D01*
X244942323Y-53869772D01*
X244942323Y-53869771D01*
X244942322Y-53869769D01*
X244942320Y-53869766D01*
X244942318Y-53869762D01*
X244838302Y-53714092D01*
X244838299Y-53714088D01*
X244705911Y-53581700D01*
X244705907Y-53581697D01*
X244550237Y-53477681D01*
X244550228Y-53477676D01*
X244377251Y-53406027D01*
X244377243Y-53406025D01*
X244193620Y-53369500D01*
X244193616Y-53369500D01*
X244006384Y-53369500D01*
X244006379Y-53369500D01*
X243822756Y-53406025D01*
X243822748Y-53406027D01*
X243649771Y-53477676D01*
X243649762Y-53477681D01*
X243494092Y-53581697D01*
X243494088Y-53581700D01*
X243361700Y-53714088D01*
X243361697Y-53714092D01*
X243257681Y-53869762D01*
X243257676Y-53869771D01*
X243186027Y-54042748D01*
X243186025Y-54042756D01*
X243149500Y-54226379D01*
X167025556Y-54226379D01*
X166468231Y-53869772D01*
X165511262Y-53257451D01*
X165465402Y-53204738D01*
X165454094Y-53153002D01*
X165454094Y-52230943D01*
X243369500Y-52230943D01*
X243369500Y-52389057D01*
X243401654Y-52509055D01*
X243410423Y-52541783D01*
X243410426Y-52541790D01*
X243489475Y-52678709D01*
X243489479Y-52678714D01*
X243489480Y-52678716D01*
X243601284Y-52790520D01*
X243601286Y-52790521D01*
X243601290Y-52790524D01*
X243738209Y-52869573D01*
X243738216Y-52869577D01*
X243890943Y-52910500D01*
X243890945Y-52910500D01*
X244049055Y-52910500D01*
X244049057Y-52910500D01*
X244201784Y-52869577D01*
X244338716Y-52790520D01*
X244450520Y-52678716D01*
X244529577Y-52541784D01*
X244570500Y-52389057D01*
X244570500Y-52350943D01*
X245509500Y-52350943D01*
X245509500Y-52509056D01*
X245550423Y-52661783D01*
X245550426Y-52661790D01*
X245629475Y-52798709D01*
X245629479Y-52798714D01*
X245629480Y-52798716D01*
X245741284Y-52910520D01*
X245741286Y-52910521D01*
X245741290Y-52910524D01*
X245878209Y-52989573D01*
X245878216Y-52989577D01*
X246030943Y-53030500D01*
X246030945Y-53030500D01*
X246189055Y-53030500D01*
X246189057Y-53030500D01*
X246341784Y-52989577D01*
X246478716Y-52910520D01*
X246590520Y-52798716D01*
X246669577Y-52661784D01*
X246710500Y-52509057D01*
X246710500Y-52350943D01*
X246669577Y-52198216D01*
X246600292Y-52078209D01*
X246590524Y-52061290D01*
X246590518Y-52061282D01*
X246478717Y-51949481D01*
X246478709Y-51949475D01*
X246341790Y-51870426D01*
X246341786Y-51870424D01*
X246341784Y-51870423D01*
X246189057Y-51829500D01*
X246030943Y-51829500D01*
X245878216Y-51870423D01*
X245878209Y-51870426D01*
X245741290Y-51949475D01*
X245741282Y-51949481D01*
X245629481Y-52061282D01*
X245629475Y-52061290D01*
X245550426Y-52198209D01*
X245550423Y-52198216D01*
X245509500Y-52350943D01*
X244570500Y-52350943D01*
X244570500Y-52230943D01*
X244529577Y-52078216D01*
X244519800Y-52061282D01*
X244450524Y-51941290D01*
X244450518Y-51941282D01*
X244338717Y-51829481D01*
X244338709Y-51829475D01*
X244201790Y-51750426D01*
X244201786Y-51750424D01*
X244201784Y-51750423D01*
X244049057Y-51709500D01*
X243890943Y-51709500D01*
X243738216Y-51750423D01*
X243738209Y-51750426D01*
X243601290Y-51829475D01*
X243601282Y-51829481D01*
X243489481Y-51941282D01*
X243489475Y-51941290D01*
X243410426Y-52078209D01*
X243410423Y-52078216D01*
X243369500Y-52230943D01*
X165454094Y-52230943D01*
X165454094Y-43721135D01*
X165454940Y-43718956D01*
X165454094Y-43681350D01*
X165454094Y-43676165D01*
X165454105Y-43674491D01*
X165456255Y-43515242D01*
X165456267Y-43514321D01*
X167399888Y-43514321D01*
X167399888Y-43514323D01*
X167431881Y-43772919D01*
X167469658Y-43915296D01*
X167486690Y-43979489D01*
X167498706Y-44024773D01*
X167599118Y-44265202D01*
X167731263Y-44489769D01*
X167731269Y-44489778D01*
X167892685Y-44694301D01*
X167892698Y-44694316D01*
X168080398Y-44875014D01*
X168080403Y-44875018D01*
X168080406Y-44875020D01*
X168080408Y-44875022D01*
X168290932Y-45028559D01*
X168520360Y-45152075D01*
X168677073Y-45210634D01*
X168764429Y-45243277D01*
X168764432Y-45243277D01*
X168764441Y-45243281D01*
X169018649Y-45300485D01*
X169018659Y-45300485D01*
X169018660Y-45300486D01*
X169034158Y-45301804D01*
X169114348Y-45308629D01*
X169117629Y-45308909D01*
X169125850Y-45312304D01*
X169157072Y-45312269D01*
X169162393Y-45312722D01*
X169162394Y-45312723D01*
X169162398Y-45312723D01*
X169169833Y-45313357D01*
X169188195Y-45314924D01*
X169188196Y-45314923D01*
X169188199Y-45314924D01*
X169188201Y-45314923D01*
X169200337Y-45313567D01*
X169200452Y-45314603D01*
X169215844Y-45312203D01*
X171940428Y-45309189D01*
X172051261Y-45309195D01*
X172309345Y-45273734D01*
X172560196Y-45203459D01*
X172799140Y-45099681D01*
X173021728Y-44964332D01*
X173223812Y-44799934D01*
X173401627Y-44609549D01*
X173551861Y-44396725D01*
X173671715Y-44165425D01*
X173741022Y-43970420D01*
X173758953Y-43919968D01*
X173758953Y-43919966D01*
X173758956Y-43919959D01*
X173811960Y-43664900D01*
X173828651Y-43420889D01*
X243620275Y-43420889D01*
X243636200Y-43684398D01*
X243636202Y-43684412D01*
X243688371Y-43943179D01*
X243688374Y-43943190D01*
X243775786Y-44192272D01*
X243775791Y-44192285D01*
X243881209Y-44396722D01*
X243896780Y-44426920D01*
X243896787Y-44426931D01*
X244049017Y-44642593D01*
X244191892Y-44794970D01*
X244229586Y-44835170D01*
X244435025Y-45000960D01*
X244435030Y-45000963D01*
X244661393Y-45136782D01*
X244904354Y-45240034D01*
X244904355Y-45240034D01*
X244904357Y-45240035D01*
X245159251Y-45308738D01*
X245421192Y-45341574D01*
X245549770Y-45339722D01*
X245552357Y-45339713D01*
X249323646Y-45366722D01*
X249328780Y-45367109D01*
X249376751Y-45367109D01*
X249377180Y-45367109D01*
X249378067Y-45367112D01*
X249378310Y-45367113D01*
X249415201Y-45367378D01*
X249415203Y-45367377D01*
X249424846Y-45367446D01*
X249428353Y-45367112D01*
X249506916Y-45367119D01*
X249764826Y-45331700D01*
X250015517Y-45261516D01*
X250254326Y-45157871D01*
X250476810Y-45022694D01*
X250678830Y-44858499D01*
X250856628Y-44668342D01*
X251006895Y-44455759D01*
X251126838Y-44224705D01*
X251214224Y-43979479D01*
X251267427Y-43724643D01*
X251285458Y-43464938D01*
X251267981Y-43205195D01*
X251215322Y-42950246D01*
X251211863Y-42940474D01*
X251128463Y-42704839D01*
X251128462Y-42704837D01*
X251128461Y-42704834D01*
X251009012Y-42473525D01*
X250898567Y-42316569D01*
X250859196Y-42260618D01*
X250681810Y-42070086D01*
X250681807Y-42070083D01*
X250480141Y-41905460D01*
X250480139Y-41905459D01*
X250257947Y-41769809D01*
X250257936Y-41769803D01*
X250019362Y-41665654D01*
X250019357Y-41665652D01*
X250019356Y-41665652D01*
X249940734Y-41643459D01*
X249768817Y-41594932D01*
X249510983Y-41558963D01*
X249381579Y-41558696D01*
X249381120Y-41558694D01*
X245585688Y-41536809D01*
X245582407Y-41536747D01*
X245455171Y-41532645D01*
X245455170Y-41532645D01*
X245192683Y-41560803D01*
X245192678Y-41560804D01*
X244936608Y-41624945D01*
X244936603Y-41624947D01*
X244691841Y-41723848D01*
X244463082Y-41855612D01*
X244254720Y-42017710D01*
X244254717Y-42017712D01*
X244070742Y-42207037D01*
X243914681Y-42419960D01*
X243789528Y-42652395D01*
X243697681Y-42899893D01*
X243697677Y-42899905D01*
X243640901Y-43157705D01*
X243640899Y-43157713D01*
X243620275Y-43420889D01*
X173828651Y-43420889D01*
X173829738Y-43404999D01*
X173811960Y-43145098D01*
X173758956Y-42890039D01*
X173671714Y-42644573D01*
X173551860Y-42413273D01*
X173401626Y-42200449D01*
X173223810Y-42010064D01*
X173161609Y-41959463D01*
X173021729Y-41845669D01*
X173021724Y-41845666D01*
X172799144Y-41710321D01*
X172799140Y-41710319D01*
X172799138Y-41710318D01*
X172560194Y-41606540D01*
X172476577Y-41583115D01*
X172309351Y-41536268D01*
X172309346Y-41536267D01*
X172309343Y-41536266D01*
X172051259Y-41500805D01*
X172051256Y-41500805D01*
X171973082Y-41500807D01*
X171973082Y-41500808D01*
X171960811Y-41500808D01*
X171960743Y-41500780D01*
X171921743Y-41500809D01*
X171920380Y-41500810D01*
X171920373Y-41500811D01*
X171920286Y-41500811D01*
X171869414Y-41500813D01*
X171869040Y-41500850D01*
X169261202Y-41502854D01*
X169261201Y-41502854D01*
X169244110Y-41502866D01*
X169238438Y-41500899D01*
X169204454Y-41502896D01*
X169200844Y-41502899D01*
X169200844Y-41502900D01*
X169170377Y-41502924D01*
X169164740Y-41504050D01*
X169147732Y-41506235D01*
X169068569Y-41510878D01*
X168812933Y-41561368D01*
X168566543Y-41646111D01*
X168566542Y-41646111D01*
X168333944Y-41763538D01*
X168333942Y-41763540D01*
X168333939Y-41763541D01*
X168333939Y-41763542D01*
X168119445Y-41911481D01*
X168119442Y-41911483D01*
X168119440Y-41911485D01*
X168119439Y-41911485D01*
X167927034Y-42087186D01*
X167927032Y-42087188D01*
X167760281Y-42287392D01*
X167760273Y-42287402D01*
X167622267Y-42508397D01*
X167622262Y-42508405D01*
X167515546Y-42746120D01*
X167515546Y-42746122D01*
X167442112Y-42996122D01*
X167403320Y-43253781D01*
X167403319Y-43253794D01*
X167399888Y-43514321D01*
X165456267Y-43514321D01*
X165460095Y-43230831D01*
X165460534Y-43221962D01*
X165498432Y-42779762D01*
X165499509Y-42770930D01*
X165569123Y-42332555D01*
X165570827Y-42323865D01*
X165671785Y-41891667D01*
X165674115Y-41883094D01*
X165805909Y-41459251D01*
X165808845Y-41450883D01*
X165970777Y-41037633D01*
X165974321Y-41029467D01*
X166165550Y-40628957D01*
X166169659Y-40621090D01*
X166389222Y-40235335D01*
X166393889Y-40227783D01*
X166640612Y-39858847D01*
X166645812Y-39851646D01*
X166918443Y-39501401D01*
X166924150Y-39494591D01*
X167221265Y-39164866D01*
X167227439Y-39158492D01*
X167462378Y-38932773D01*
X167524358Y-38900525D01*
X167547574Y-38898196D01*
X171886978Y-38873418D01*
X171887686Y-38873416D01*
X207406874Y-38873416D01*
X208763712Y-38873416D01*
X218314112Y-38873416D01*
X219471874Y-38873416D01*
X244911577Y-38873416D01*
X250199386Y-38887996D01*
G37*
%TD.AperFunction*%
%TD*%
M02*
