M48
; DRILL file {KiCad 9.0.0} date 2025-10-06T19:53:24-0700
; FORMAT={-:-/ absolute / inch / decimal}
; #@! TF.CreationDate,2025-10-06T19:53:24-07:00
; #@! TF.GenerationSoftware,Kicad,Pcbnew,9.0.0
; #@! TF.FileFunction,Plated,1,4,PTH
FMAT,2
INCH
; #@! TA.AperFunction,Plated,PTH,ViaDrill
T1C0.0157
; #@! TA.AperFunction,Plated,PTH,ComponentDrill
T2C0.0315
; #@! TA.AperFunction,Plated,PTH,ComponentDrill
T3C0.0354
; #@! TA.AperFunction,Plated,PTH,ComponentDrill
T4C0.1260
%
G90
G05
T1
X6.7736Y-4.0829
X6.9264Y-4.2016
X6.9768Y-4.3945
X6.9815Y-4.2598
X7.0157Y-4.2228
X7.0165Y-3.9728
X7.0882Y-4.263
X7.1173Y-4.3079
X7.1571Y-4.2177
X7.1791Y-4.1791
X7.2081Y-4.0807
X7.2634Y-4.1102
X7.7193Y-4.2177
X8.0004Y-3.8283
X8.0016Y-3.7035
X8.0354Y-3.3004
X8.0807Y-3.7236
X8.0961Y-3.3984
X8.1118Y-3.8354
X8.1528Y-3.778
X8.2327Y-2.7752
X8.2504Y-3.2902
X8.2524Y-3.25
X8.2579Y-2.9799
X8.274Y-2.7752
X8.678Y-3.1315
X8.6823Y-2.9657
X8.685Y-2.8831
X8.7528Y-2.8339
X8.8327Y-2.8362
X8.8894Y-2.9488
X8.9181Y-3.8315
X9.0075Y-3.0457
X9.0799Y-3.3189
X9.0921Y-3.4067
X9.1469Y-2.1996
X9.1567Y-4.2843
X9.1594Y-4.1555
X9.1933Y-3.8681
X9.2059Y-3.263
X9.2106Y-2.3016
X9.2449Y-3.2323
X9.2502Y-3.6459
X9.2535Y-3.2965
X9.2673Y-2.411
X9.2693Y-4.2453
X9.2752Y-2.3004
X9.2803Y-3.2031
X9.2831Y-3.4031
X9.3126Y-4.1921
X9.3157Y-4.2453
X9.3177Y-2.222
X9.3276Y-4.137
X9.3331Y-3.7705
X9.3331Y-3.7287
X9.3354Y-4.3228
X9.3504Y-2.435
X9.3713Y-3.9083
X9.385Y-3.3764
X9.3994Y-3.7105
X9.4063Y-3.1894
X9.4665Y-3.7445
X9.485Y-4.022
X9.5126Y-2.8299
X9.5232Y-2.3933
X9.528Y-2.3055
X9.5531Y-3.124
X9.5622Y-3.8409
X9.5837Y-2.9512
X9.6051Y-2.0594
X9.6063Y-2.9949
X9.6772Y-1.9398
X9.6894Y-2.0642
X9.715Y-3.011
X9.7606Y-3.0102
T2
X8.678Y-3.0484
X8.7567Y-3.0484
X8.8354Y-3.0484
X8.9142Y-3.0484
T3
X6.7839Y-4.1705
X6.7839Y-4.2492
X6.7839Y-4.328
X6.7839Y-4.4067
X6.7839Y-4.4854
X6.7839Y-4.5642
X6.8626Y-4.1705
X6.8626Y-4.2492
X6.8626Y-4.328
X6.8626Y-4.4067
X6.8626Y-4.4854
X6.8626Y-4.5642
X9.6102Y-2.1386
X9.6102Y-2.2173
X9.6102Y-2.2961
X9.6102Y-2.3748
X9.6102Y-2.4535
X9.6102Y-2.5323
X9.6106Y-3.7925
X9.6106Y-3.8713
X9.6106Y-3.95
X9.6106Y-4.0287
X9.6106Y-4.1075
X9.6106Y-4.1862
X9.6126Y-3.2016
X9.6126Y-3.2803
X9.6126Y-3.3591
X9.6126Y-3.4378
X9.6126Y-3.5165
X9.6126Y-3.5953
X9.689Y-2.1386
X9.689Y-2.2173
X9.689Y-2.2961
X9.689Y-2.3748
X9.689Y-2.4535
X9.689Y-2.5323
X9.6894Y-3.7925
X9.6894Y-3.8713
X9.6894Y-3.95
X9.6894Y-4.0287
X9.6894Y-4.1075
X9.6894Y-4.1862
X9.6913Y-3.2016
X9.6913Y-3.2803
X9.6913Y-3.3591
X9.6913Y-3.4378
X9.6913Y-3.5165
X9.6913Y-3.5953
T4
X6.6618Y-5.083
X9.8114Y-5.083
M30
