%TF.GenerationSoftware,KiCad,Pcbnew,9.0.0*%
%TF.CreationDate,2025-10-06T19:53:24-07:00*%
%TF.ProjectId,hat_board,6861745f-626f-4617-9264-2e6b69636164,3.1*%
%TF.SameCoordinates,Original*%
%TF.FileFunction,Legend,Bot*%
%TF.FilePolarity,Positive*%
%FSLAX46Y46*%
G04 Gerber Fmt 4.6, Leading zero omitted, Abs format (unit mm)*
G04 Created by KiCad (PCBNEW 9.0.0) date 2025-10-06 19:53:24*
%MOMM*%
%LPD*%
G01*
G04 APERTURE LIST*
%ADD10C,0.150000*%
%ADD11C,0.250000*%
%ADD12R,1.350000X1.350000*%
%ADD13C,1.350000*%
%ADD14C,5.600000*%
%ADD15R,1.500000X1.500000*%
%ADD16C,1.500000*%
G04 APERTURE END LIST*
D10*
X167764819Y-110596666D02*
X168479104Y-110596666D01*
X168479104Y-110596666D02*
X168621961Y-110549047D01*
X168621961Y-110549047D02*
X168717200Y-110453809D01*
X168717200Y-110453809D02*
X168764819Y-110310952D01*
X168764819Y-110310952D02*
X168764819Y-110215714D01*
X167764819Y-110977619D02*
X167764819Y-111596666D01*
X167764819Y-111596666D02*
X168145771Y-111263333D01*
X168145771Y-111263333D02*
X168145771Y-111406190D01*
X168145771Y-111406190D02*
X168193390Y-111501428D01*
X168193390Y-111501428D02*
X168241009Y-111549047D01*
X168241009Y-111549047D02*
X168336247Y-111596666D01*
X168336247Y-111596666D02*
X168574342Y-111596666D01*
X168574342Y-111596666D02*
X168669580Y-111549047D01*
X168669580Y-111549047D02*
X168717200Y-111501428D01*
X168717200Y-111501428D02*
X168764819Y-111406190D01*
X168764819Y-111406190D02*
X168764819Y-111120476D01*
X168764819Y-111120476D02*
X168717200Y-111025238D01*
X168717200Y-111025238D02*
X168669580Y-110977619D01*
X239614819Y-85986666D02*
X240329104Y-85986666D01*
X240329104Y-85986666D02*
X240471961Y-85939047D01*
X240471961Y-85939047D02*
X240567200Y-85843809D01*
X240567200Y-85843809D02*
X240614819Y-85700952D01*
X240614819Y-85700952D02*
X240614819Y-85605714D01*
X239614819Y-86891428D02*
X239614819Y-86700952D01*
X239614819Y-86700952D02*
X239662438Y-86605714D01*
X239662438Y-86605714D02*
X239710057Y-86558095D01*
X239710057Y-86558095D02*
X239852914Y-86462857D01*
X239852914Y-86462857D02*
X240043390Y-86415238D01*
X240043390Y-86415238D02*
X240424342Y-86415238D01*
X240424342Y-86415238D02*
X240519580Y-86462857D01*
X240519580Y-86462857D02*
X240567200Y-86510476D01*
X240567200Y-86510476D02*
X240614819Y-86605714D01*
X240614819Y-86605714D02*
X240614819Y-86796190D01*
X240614819Y-86796190D02*
X240567200Y-86891428D01*
X240567200Y-86891428D02*
X240519580Y-86939047D01*
X240519580Y-86939047D02*
X240424342Y-86986666D01*
X240424342Y-86986666D02*
X240186247Y-86986666D01*
X240186247Y-86986666D02*
X240091009Y-86939047D01*
X240091009Y-86939047D02*
X240043390Y-86891428D01*
X240043390Y-86891428D02*
X239995771Y-86796190D01*
X239995771Y-86796190D02*
X239995771Y-86605714D01*
X239995771Y-86605714D02*
X240043390Y-86510476D01*
X240043390Y-86510476D02*
X240091009Y-86462857D01*
X240091009Y-86462857D02*
X240186247Y-86415238D01*
X239564819Y-100996666D02*
X240279104Y-100996666D01*
X240279104Y-100996666D02*
X240421961Y-100949047D01*
X240421961Y-100949047D02*
X240517200Y-100853809D01*
X240517200Y-100853809D02*
X240564819Y-100710952D01*
X240564819Y-100710952D02*
X240564819Y-100615714D01*
X239564819Y-101949047D02*
X239564819Y-101472857D01*
X239564819Y-101472857D02*
X240041009Y-101425238D01*
X240041009Y-101425238D02*
X239993390Y-101472857D01*
X239993390Y-101472857D02*
X239945771Y-101568095D01*
X239945771Y-101568095D02*
X239945771Y-101806190D01*
X239945771Y-101806190D02*
X239993390Y-101901428D01*
X239993390Y-101901428D02*
X240041009Y-101949047D01*
X240041009Y-101949047D02*
X240136247Y-101996666D01*
X240136247Y-101996666D02*
X240374342Y-101996666D01*
X240374342Y-101996666D02*
X240469580Y-101949047D01*
X240469580Y-101949047D02*
X240517200Y-101901428D01*
X240517200Y-101901428D02*
X240564819Y-101806190D01*
X240564819Y-101806190D02*
X240564819Y-101568095D01*
X240564819Y-101568095D02*
X240517200Y-101472857D01*
X240517200Y-101472857D02*
X240469580Y-101425238D01*
X249554819Y-58986666D02*
X250269104Y-58986666D01*
X250269104Y-58986666D02*
X250411961Y-58939047D01*
X250411961Y-58939047D02*
X250507200Y-58843809D01*
X250507200Y-58843809D02*
X250554819Y-58700952D01*
X250554819Y-58700952D02*
X250554819Y-58605714D01*
X249888152Y-59891428D02*
X250554819Y-59891428D01*
X249507200Y-59653333D02*
X250221485Y-59415238D01*
X250221485Y-59415238D02*
X250221485Y-60034285D01*
D11*
%TO.C,J3*%
X170810000Y-103930000D02*
X170810000Y-117930000D01*
X170810000Y-103930000D02*
X174360000Y-103930000D01*
X170810000Y-117930000D02*
X174350000Y-117930000D01*
X171280000Y-104600000D02*
X175850000Y-104600000D01*
X171280000Y-117260000D02*
X171280000Y-104600000D01*
X174350000Y-117930000D02*
X174350000Y-117260000D01*
X174360000Y-103930000D02*
X174360000Y-104600000D01*
X175850000Y-104600000D02*
X175850000Y-117260000D01*
X175850000Y-117260000D02*
X171280000Y-117260000D01*
%TO.C,J6*%
X242660000Y-79320000D02*
X242660000Y-93320000D01*
X242660000Y-79320000D02*
X246210000Y-79320000D01*
X242660000Y-93320000D02*
X246200000Y-93320000D01*
X243130000Y-79990000D02*
X247700000Y-79990000D01*
X243130000Y-92650000D02*
X243130000Y-79990000D01*
X246200000Y-93320000D02*
X246200000Y-92650000D01*
X246210000Y-79320000D02*
X246210000Y-79990000D01*
X247700000Y-79990000D02*
X247700000Y-92650000D01*
X247700000Y-92650000D02*
X243130000Y-92650000D01*
%TO.C,J5*%
X242610000Y-94330000D02*
X242610000Y-108330000D01*
X242610000Y-94330000D02*
X246160000Y-94330000D01*
X242610000Y-108330000D02*
X246150000Y-108330000D01*
X243080000Y-95000000D02*
X247650000Y-95000000D01*
X243080000Y-107660000D02*
X243080000Y-95000000D01*
X246150000Y-108330000D02*
X246150000Y-107660000D01*
X246160000Y-94330000D02*
X246160000Y-95000000D01*
X247650000Y-95000000D02*
X247650000Y-107660000D01*
X247650000Y-107660000D02*
X243080000Y-107660000D01*
%TO.C,J4*%
X242560000Y-52990000D02*
X247130000Y-52990000D01*
X242560000Y-65650000D02*
X242560000Y-52990000D01*
X244050000Y-66320000D02*
X244050000Y-65650000D01*
X244060000Y-52320000D02*
X244060000Y-52990000D01*
X247130000Y-52990000D02*
X247130000Y-65650000D01*
X247130000Y-65650000D02*
X242560000Y-65650000D01*
X247600000Y-52320000D02*
X244060000Y-52320000D01*
X247600000Y-66320000D02*
X244050000Y-66320000D01*
X247600000Y-66320000D02*
X247600000Y-52320000D01*
%TD*%
%LPC*%
D12*
%TO.C,J2*%
X220420000Y-77430000D03*
D13*
X222420000Y-77430000D03*
X224420000Y-77430000D03*
X226420000Y-77430000D03*
%TD*%
D14*
%TO.C,H1*%
X169210394Y-129109194D03*
%TD*%
%TO.C,H2*%
X249210394Y-129109194D03*
%TD*%
D15*
%TO.C,J3*%
X174310000Y-105930000D03*
D16*
X172310000Y-105930000D03*
X174310000Y-107930000D03*
X172310000Y-107930000D03*
X174310000Y-109930000D03*
X172310000Y-109930000D03*
X174310000Y-111930000D03*
X172310000Y-111930000D03*
X174310000Y-113930000D03*
X172310000Y-113930000D03*
X174310000Y-115930000D03*
X172310000Y-115930000D03*
%TD*%
D15*
%TO.C,J6*%
X246160000Y-81320000D03*
D16*
X244160000Y-81320000D03*
X246160000Y-83320000D03*
X244160000Y-83320000D03*
X246160000Y-85320000D03*
X244160000Y-85320000D03*
X246160000Y-87320000D03*
X244160000Y-87320000D03*
X246160000Y-89320000D03*
X244160000Y-89320000D03*
X246160000Y-91320000D03*
X244160000Y-91320000D03*
%TD*%
D15*
%TO.C,J5*%
X246110000Y-96330000D03*
D16*
X244110000Y-96330000D03*
X246110000Y-98330000D03*
X244110000Y-98330000D03*
X246110000Y-100330000D03*
X244110000Y-100330000D03*
X246110000Y-102330000D03*
X244110000Y-102330000D03*
X246110000Y-104330000D03*
X244110000Y-104330000D03*
X246110000Y-106330000D03*
X244110000Y-106330000D03*
%TD*%
D15*
%TO.C,J4*%
X244100000Y-64320000D03*
D16*
X246100000Y-64320000D03*
X244100000Y-62320000D03*
X246100000Y-62320000D03*
X244100000Y-60320000D03*
X246100000Y-60320000D03*
X244100000Y-58320000D03*
X246100000Y-58320000D03*
X244100000Y-56320000D03*
X246100000Y-56320000D03*
X244100000Y-54320000D03*
X246100000Y-54320000D03*
%TD*%
%LPD*%
M02*
