%TF.GenerationSoftware,KiCad,Pcbnew,7.0.1*%
%TF.CreationDate,2024-01-20T21:14:22-07:00*%
%TF.ProjectId,mux_driver_v1,6d75785f-6472-4697-9665-725f76312e6b,rev?*%
%TF.SameCoordinates,Original*%
%TF.FileFunction,Soldermask,Top*%
%TF.FilePolarity,Negative*%
%FSLAX46Y46*%
G04 Gerber Fmt 4.6, Leading zero omitted, Abs format (unit mm)*
G04 Created by KiCad (PCBNEW 7.0.1) date 2024-01-20 21:14:22*
%MOMM*%
%LPD*%
G01*
G04 APERTURE LIST*
G04 Aperture macros list*
%AMRoundRect*
0 Rectangle with rounded corners*
0 $1 Rounding radius*
0 $2 $3 $4 $5 $6 $7 $8 $9 X,Y pos of 4 corners*
0 Add a 4 corners polygon primitive as box body*
4,1,4,$2,$3,$4,$5,$6,$7,$8,$9,$2,$3,0*
0 Add four circle primitives for the rounded corners*
1,1,$1+$1,$2,$3*
1,1,$1+$1,$4,$5*
1,1,$1+$1,$6,$7*
1,1,$1+$1,$8,$9*
0 Add four rect primitives between the rounded corners*
20,1,$1+$1,$2,$3,$4,$5,0*
20,1,$1+$1,$4,$5,$6,$7,0*
20,1,$1+$1,$6,$7,$8,$9,0*
20,1,$1+$1,$8,$9,$2,$3,0*%
G04 Aperture macros list end*
%ADD10R,1.700000X1.700000*%
%ADD11O,1.700000X1.700000*%
%ADD12RoundRect,0.150000X0.150000X0.625000X-0.150000X0.625000X-0.150000X-0.625000X0.150000X-0.625000X0*%
%ADD13RoundRect,0.250000X0.350000X0.650000X-0.350000X0.650000X-0.350000X-0.650000X0.350000X-0.650000X0*%
%ADD14R,0.450000X1.475000*%
%ADD15RoundRect,0.200000X-0.200000X-0.275000X0.200000X-0.275000X0.200000X0.275000X-0.200000X0.275000X0*%
%ADD16R,0.800000X0.500000*%
%ADD17R,0.800000X0.400000*%
%ADD18RoundRect,0.020500X-0.764500X-0.184500X0.764500X-0.184500X0.764500X0.184500X-0.764500X0.184500X0*%
%ADD19RoundRect,0.150000X-0.150000X-0.625000X0.150000X-0.625000X0.150000X0.625000X-0.150000X0.625000X0*%
%ADD20RoundRect,0.250000X-0.350000X-0.650000X0.350000X-0.650000X0.350000X0.650000X-0.350000X0.650000X0*%
G04 APERTURE END LIST*
D10*
%TO.C,J6*%
X166360000Y-75110000D03*
D11*
X166360000Y-77650000D03*
X166360000Y-80190000D03*
X166360000Y-82730000D03*
X166360000Y-85270000D03*
X166360000Y-87810000D03*
X166360000Y-90350000D03*
X166360000Y-92890000D03*
X166360000Y-95430000D03*
X166360000Y-97970000D03*
X166360000Y-100510000D03*
%TD*%
D10*
%TO.C,J4*%
X143710000Y-74990000D03*
D11*
X143710000Y-77530000D03*
X143710000Y-80070000D03*
X143710000Y-82610000D03*
X143710000Y-85150000D03*
X143710000Y-87690000D03*
X143710000Y-90230000D03*
X143710000Y-92770000D03*
X143710000Y-95310000D03*
X143710000Y-97850000D03*
X143710000Y-100390000D03*
%TD*%
D12*
%TO.C,J1*%
X160520000Y-97725000D03*
X159520000Y-97725000D03*
X158520000Y-97725000D03*
X157520000Y-97725000D03*
D13*
X161820000Y-100250000D03*
X156220000Y-100250000D03*
%TD*%
D14*
%TO.C,IC1*%
X150905000Y-85058000D03*
X151555000Y-85058000D03*
X152205000Y-85058000D03*
X152855000Y-85058000D03*
X153505000Y-85058000D03*
X154155000Y-85058000D03*
X154805000Y-85058000D03*
X155455000Y-85058000D03*
X156105000Y-85058000D03*
X156755000Y-85058000D03*
X157405000Y-85058000D03*
X158055000Y-85058000D03*
X158705000Y-85058000D03*
X159355000Y-85058000D03*
X159355000Y-79182000D03*
X158705000Y-79182000D03*
X158055000Y-79182000D03*
X157405000Y-79182000D03*
X156755000Y-79182000D03*
X156105000Y-79182000D03*
X155455000Y-79182000D03*
X154805000Y-79182000D03*
X154155000Y-79182000D03*
X153505000Y-79182000D03*
X152855000Y-79182000D03*
X152205000Y-79182000D03*
X151555000Y-79182000D03*
X150905000Y-79182000D03*
%TD*%
D15*
%TO.C,R3*%
X147965000Y-87980000D03*
X149615000Y-87980000D03*
%TD*%
D16*
%TO.C,R1*%
X149700000Y-91840000D03*
D17*
X149700000Y-91040000D03*
X149700000Y-90240000D03*
D16*
X149700000Y-89440000D03*
X147900000Y-89440000D03*
D17*
X147900000Y-90240000D03*
X147900000Y-91040000D03*
D16*
X147900000Y-91840000D03*
%TD*%
D18*
%TO.C,U1*%
X152215000Y-88545000D03*
X152215000Y-89195000D03*
X152215000Y-89845000D03*
X152215000Y-90495000D03*
X152215000Y-91145000D03*
X152215000Y-91795000D03*
X152215000Y-92445000D03*
X152215000Y-93095000D03*
X152215000Y-93745000D03*
X152215000Y-94395000D03*
X152215000Y-95045000D03*
X152215000Y-95695000D03*
X157955000Y-95695000D03*
X157955000Y-95045000D03*
X157955000Y-94395000D03*
X157955000Y-93745000D03*
X157955000Y-93095000D03*
X157955000Y-92445000D03*
X157955000Y-91795000D03*
X157955000Y-91145000D03*
X157955000Y-90495000D03*
X157955000Y-89845000D03*
X157955000Y-89195000D03*
X157955000Y-88545000D03*
%TD*%
D19*
%TO.C,J5*%
X157650000Y-76820000D03*
X158650000Y-76820000D03*
X159650000Y-76820000D03*
X160650000Y-76820000D03*
D20*
X156350000Y-74295000D03*
X161950000Y-74295000D03*
%TD*%
D16*
%TO.C,R4*%
X160450000Y-93300000D03*
D17*
X160450000Y-94100000D03*
X160450000Y-94900000D03*
D16*
X160450000Y-95700000D03*
X162250000Y-95700000D03*
D17*
X162250000Y-94900000D03*
X162250000Y-94100000D03*
D16*
X162250000Y-93300000D03*
%TD*%
D19*
%TO.C,J2*%
X149740000Y-76810000D03*
X150740000Y-76810000D03*
X151740000Y-76810000D03*
X152740000Y-76810000D03*
D20*
X148440000Y-74285000D03*
X154040000Y-74285000D03*
%TD*%
D12*
%TO.C,J3*%
X152630000Y-97730000D03*
X151630000Y-97730000D03*
X150630000Y-97730000D03*
X149630000Y-97730000D03*
D13*
X153930000Y-100255000D03*
X148330000Y-100255000D03*
%TD*%
D16*
%TO.C,R2*%
X149690000Y-95660000D03*
D17*
X149690000Y-94860000D03*
X149690000Y-94060000D03*
D16*
X149690000Y-93260000D03*
X147890000Y-93260000D03*
D17*
X147890000Y-94060000D03*
X147890000Y-94860000D03*
D16*
X147890000Y-95660000D03*
%TD*%
D10*
%TO.C,J7*%
X151245000Y-69850000D03*
D11*
X153785000Y-69850000D03*
X156325000Y-69850000D03*
X158865000Y-69850000D03*
%TD*%
G36*
X166338000Y-97136613D02*
G01*
X166383387Y-97182000D01*
X166400000Y-97244000D01*
X166400000Y-98696000D01*
X166383387Y-98758000D01*
X166338000Y-98803387D01*
X166276000Y-98820000D01*
X164474000Y-98820000D01*
X164412000Y-98803387D01*
X164366613Y-98758000D01*
X164350000Y-98696000D01*
X164350000Y-97244000D01*
X164366613Y-97182000D01*
X164412000Y-97136613D01*
X164474000Y-97120000D01*
X166276000Y-97120000D01*
X166338000Y-97136613D01*
G37*
G36*
X152038000Y-69866613D02*
G01*
X152083387Y-69912000D01*
X152100000Y-69974000D01*
X152100000Y-71151000D01*
X152083387Y-71213000D01*
X152038000Y-71258387D01*
X151976000Y-71275000D01*
X150519000Y-71275000D01*
X150457000Y-71258387D01*
X150411613Y-71213000D01*
X150395000Y-71151000D01*
X150395000Y-69974000D01*
X150411613Y-69912000D01*
X150457000Y-69866613D01*
X150519000Y-69850000D01*
X151976000Y-69850000D01*
X152038000Y-69866613D01*
G37*
G36*
X166338000Y-84436613D02*
G01*
X166383387Y-84482000D01*
X166400000Y-84544000D01*
X166400000Y-85996000D01*
X166383387Y-86058000D01*
X166338000Y-86103387D01*
X166276000Y-86120000D01*
X164474000Y-86120000D01*
X164412000Y-86103387D01*
X164366613Y-86058000D01*
X164350000Y-85996000D01*
X164350000Y-84544000D01*
X164366613Y-84482000D01*
X164412000Y-84436613D01*
X164474000Y-84420000D01*
X166276000Y-84420000D01*
X166338000Y-84436613D01*
G37*
G36*
X166338000Y-92056613D02*
G01*
X166383387Y-92102000D01*
X166400000Y-92164000D01*
X166400000Y-93616000D01*
X166383387Y-93678000D01*
X166338000Y-93723387D01*
X166276000Y-93740000D01*
X164474000Y-93740000D01*
X164412000Y-93723387D01*
X164366613Y-93678000D01*
X164350000Y-93616000D01*
X164350000Y-92164000D01*
X164366613Y-92102000D01*
X164412000Y-92056613D01*
X164474000Y-92040000D01*
X166276000Y-92040000D01*
X166338000Y-92056613D01*
G37*
G36*
X166338000Y-76816613D02*
G01*
X166383387Y-76862000D01*
X166400000Y-76924000D01*
X166400000Y-78376000D01*
X166383387Y-78438000D01*
X166338000Y-78483387D01*
X166276000Y-78500000D01*
X164474000Y-78500000D01*
X164412000Y-78483387D01*
X164366613Y-78438000D01*
X164350000Y-78376000D01*
X164350000Y-76924000D01*
X164366613Y-76862000D01*
X164412000Y-76816613D01*
X164474000Y-76800000D01*
X166276000Y-76800000D01*
X166338000Y-76816613D01*
G37*
G36*
X166338000Y-89516613D02*
G01*
X166383387Y-89562000D01*
X166400000Y-89624000D01*
X166400000Y-91076000D01*
X166383387Y-91138000D01*
X166338000Y-91183387D01*
X166276000Y-91200000D01*
X164474000Y-91200000D01*
X164412000Y-91183387D01*
X164366613Y-91138000D01*
X164350000Y-91076000D01*
X164350000Y-89624000D01*
X164366613Y-89562000D01*
X164412000Y-89516613D01*
X164474000Y-89500000D01*
X166276000Y-89500000D01*
X166338000Y-89516613D01*
G37*
G36*
X154578000Y-69866613D02*
G01*
X154623387Y-69912000D01*
X154640000Y-69974000D01*
X154640000Y-71151000D01*
X154623387Y-71213000D01*
X154578000Y-71258387D01*
X154516000Y-71275000D01*
X153054000Y-71275000D01*
X152992000Y-71258387D01*
X152946613Y-71213000D01*
X152930000Y-71151000D01*
X152930000Y-69974000D01*
X152946613Y-69912000D01*
X152992000Y-69866613D01*
X153054000Y-69850000D01*
X154516000Y-69850000D01*
X154578000Y-69866613D01*
G37*
G36*
X166338000Y-94596613D02*
G01*
X166383387Y-94642000D01*
X166400000Y-94704000D01*
X166400000Y-96156000D01*
X166383387Y-96218000D01*
X166338000Y-96263387D01*
X166276000Y-96280000D01*
X164474000Y-96280000D01*
X164412000Y-96263387D01*
X164366613Y-96218000D01*
X164350000Y-96156000D01*
X164350000Y-94704000D01*
X164366613Y-94642000D01*
X164412000Y-94596613D01*
X164474000Y-94580000D01*
X166276000Y-94580000D01*
X166338000Y-94596613D01*
G37*
G36*
X166338000Y-86976613D02*
G01*
X166383387Y-87022000D01*
X166400000Y-87084000D01*
X166400000Y-88536000D01*
X166383387Y-88598000D01*
X166338000Y-88643387D01*
X166276000Y-88660000D01*
X164474000Y-88660000D01*
X164412000Y-88643387D01*
X164366613Y-88598000D01*
X164350000Y-88536000D01*
X164350000Y-87084000D01*
X164366613Y-87022000D01*
X164412000Y-86976613D01*
X164474000Y-86960000D01*
X166276000Y-86960000D01*
X166338000Y-86976613D01*
G37*
G36*
X166338000Y-74276613D02*
G01*
X166383387Y-74322000D01*
X166400000Y-74384000D01*
X166400000Y-75836000D01*
X166383387Y-75898000D01*
X166338000Y-75943387D01*
X166276000Y-75960000D01*
X164474000Y-75960000D01*
X164412000Y-75943387D01*
X164366613Y-75898000D01*
X164350000Y-75836000D01*
X164350000Y-74384000D01*
X164366613Y-74322000D01*
X164412000Y-74276613D01*
X164474000Y-74260000D01*
X166276000Y-74260000D01*
X166338000Y-74276613D01*
G37*
G36*
X157118000Y-69866613D02*
G01*
X157163387Y-69912000D01*
X157180000Y-69974000D01*
X157180000Y-71151000D01*
X157163387Y-71213000D01*
X157118000Y-71258387D01*
X157056000Y-71275000D01*
X155599000Y-71275000D01*
X155537000Y-71258387D01*
X155491613Y-71213000D01*
X155475000Y-71151000D01*
X155475000Y-69974000D01*
X155491613Y-69912000D01*
X155537000Y-69866613D01*
X155599000Y-69850000D01*
X157056000Y-69850000D01*
X157118000Y-69866613D01*
G37*
G36*
X166338000Y-99676613D02*
G01*
X166383387Y-99722000D01*
X166400000Y-99784000D01*
X166400000Y-101241000D01*
X166383387Y-101303000D01*
X166338000Y-101348387D01*
X166276000Y-101365000D01*
X164474000Y-101365000D01*
X164412000Y-101348387D01*
X164366613Y-101303000D01*
X164350000Y-101241000D01*
X164350000Y-99784000D01*
X164366613Y-99722000D01*
X164412000Y-99676613D01*
X164474000Y-99660000D01*
X166276000Y-99660000D01*
X166338000Y-99676613D01*
G37*
G36*
X166338000Y-81896613D02*
G01*
X166383387Y-81942000D01*
X166400000Y-82004000D01*
X166400000Y-83456000D01*
X166383387Y-83518000D01*
X166338000Y-83563387D01*
X166276000Y-83580000D01*
X164474000Y-83580000D01*
X164412000Y-83563387D01*
X164366613Y-83518000D01*
X164350000Y-83456000D01*
X164350000Y-82004000D01*
X164366613Y-81942000D01*
X164412000Y-81896613D01*
X164474000Y-81880000D01*
X166276000Y-81880000D01*
X166338000Y-81896613D01*
G37*
G36*
X166338000Y-79356613D02*
G01*
X166383387Y-79402000D01*
X166400000Y-79464000D01*
X166400000Y-80916000D01*
X166383387Y-80978000D01*
X166338000Y-81023387D01*
X166276000Y-81040000D01*
X164474000Y-81040000D01*
X164412000Y-81023387D01*
X164366613Y-80978000D01*
X164350000Y-80916000D01*
X164350000Y-79464000D01*
X164366613Y-79402000D01*
X164412000Y-79356613D01*
X164474000Y-79340000D01*
X166276000Y-79340000D01*
X166338000Y-79356613D01*
G37*
G36*
X159653000Y-69866613D02*
G01*
X159698387Y-69912000D01*
X159715000Y-69974000D01*
X159715000Y-71151000D01*
X159698387Y-71213000D01*
X159653000Y-71258387D01*
X159591000Y-71275000D01*
X158144000Y-71275000D01*
X158082000Y-71258387D01*
X158036613Y-71213000D01*
X158020000Y-71151000D01*
X158020000Y-69974000D01*
X158036613Y-69912000D01*
X158082000Y-69866613D01*
X158144000Y-69850000D01*
X159591000Y-69850000D01*
X159653000Y-69866613D01*
G37*
G36*
X145676416Y-94481858D02*
G01*
X145721803Y-94527245D01*
X145738416Y-94589245D01*
X145738416Y-96041245D01*
X145721803Y-96103245D01*
X145676416Y-96148632D01*
X145614416Y-96165245D01*
X143824000Y-96165245D01*
X143762000Y-96148632D01*
X143716613Y-96103245D01*
X143700000Y-96041245D01*
X143700000Y-94589245D01*
X143716613Y-94527245D01*
X143762000Y-94481858D01*
X143824000Y-94465245D01*
X145614416Y-94465245D01*
X145676416Y-94481858D01*
G37*
G36*
X145676416Y-79241858D02*
G01*
X145721803Y-79287245D01*
X145738416Y-79349245D01*
X145738416Y-80801245D01*
X145721803Y-80863245D01*
X145676416Y-80908632D01*
X145614416Y-80925245D01*
X143824000Y-80925245D01*
X143762000Y-80908632D01*
X143716613Y-80863245D01*
X143700000Y-80801245D01*
X143700000Y-79349245D01*
X143716613Y-79287245D01*
X143762000Y-79241858D01*
X143824000Y-79225245D01*
X145614416Y-79225245D01*
X145676416Y-79241858D01*
G37*
G36*
X145676416Y-81781858D02*
G01*
X145721803Y-81827245D01*
X145738416Y-81889245D01*
X145738416Y-83341245D01*
X145721803Y-83403245D01*
X145676416Y-83448632D01*
X145614416Y-83465245D01*
X143824000Y-83465245D01*
X143762000Y-83448632D01*
X143716613Y-83403245D01*
X143700000Y-83341245D01*
X143700000Y-81889245D01*
X143716613Y-81827245D01*
X143762000Y-81781858D01*
X143824000Y-81765245D01*
X145614416Y-81765245D01*
X145676416Y-81781858D01*
G37*
G36*
X145676416Y-86861858D02*
G01*
X145721803Y-86907245D01*
X145738416Y-86969245D01*
X145738416Y-88421245D01*
X145721803Y-88483245D01*
X145676416Y-88528632D01*
X145614416Y-88545245D01*
X143824000Y-88545245D01*
X143762000Y-88528632D01*
X143716613Y-88483245D01*
X143700000Y-88421245D01*
X143700000Y-86969245D01*
X143716613Y-86907245D01*
X143762000Y-86861858D01*
X143824000Y-86845245D01*
X145614416Y-86845245D01*
X145676416Y-86861858D01*
G37*
G36*
X145676416Y-91941858D02*
G01*
X145721803Y-91987245D01*
X145738416Y-92049245D01*
X145738416Y-93501245D01*
X145721803Y-93563245D01*
X145676416Y-93608632D01*
X145614416Y-93625245D01*
X143824000Y-93625245D01*
X143762000Y-93608632D01*
X143716613Y-93563245D01*
X143700000Y-93501245D01*
X143700000Y-92049245D01*
X143716613Y-91987245D01*
X143762000Y-91941858D01*
X143824000Y-91925245D01*
X145614416Y-91925245D01*
X145676416Y-91941858D01*
G37*
G36*
X145676416Y-89401858D02*
G01*
X145721803Y-89447245D01*
X145738416Y-89509245D01*
X145738416Y-90961245D01*
X145721803Y-91023245D01*
X145676416Y-91068632D01*
X145614416Y-91085245D01*
X143824000Y-91085245D01*
X143762000Y-91068632D01*
X143716613Y-91023245D01*
X143700000Y-90961245D01*
X143700000Y-89509245D01*
X143716613Y-89447245D01*
X143762000Y-89401858D01*
X143824000Y-89385245D01*
X145614416Y-89385245D01*
X145676416Y-89401858D01*
G37*
G36*
X145676416Y-76701858D02*
G01*
X145721803Y-76747245D01*
X145738416Y-76809245D01*
X145738416Y-78261245D01*
X145721803Y-78323245D01*
X145676416Y-78368632D01*
X145614416Y-78385245D01*
X143824000Y-78385245D01*
X143762000Y-78368632D01*
X143716613Y-78323245D01*
X143700000Y-78261245D01*
X143700000Y-76809245D01*
X143716613Y-76747245D01*
X143762000Y-76701858D01*
X143824000Y-76685245D01*
X145614416Y-76685245D01*
X145676416Y-76701858D01*
G37*
G36*
X145676416Y-74161858D02*
G01*
X145721803Y-74207245D01*
X145738416Y-74269245D01*
X145738416Y-75721245D01*
X145721803Y-75783245D01*
X145676416Y-75828632D01*
X145614416Y-75845245D01*
X143824000Y-75845245D01*
X143762000Y-75828632D01*
X143716613Y-75783245D01*
X143700000Y-75721245D01*
X143700000Y-74269245D01*
X143716613Y-74207245D01*
X143762000Y-74161858D01*
X143824000Y-74145245D01*
X145614416Y-74145245D01*
X145676416Y-74161858D01*
G37*
G36*
X145681157Y-99561918D02*
G01*
X145726560Y-99607455D01*
X145743051Y-99669609D01*
X145738779Y-101126609D01*
X145722046Y-101188455D01*
X145676675Y-101233693D01*
X145614780Y-101250245D01*
X143824000Y-101250245D01*
X143762000Y-101233632D01*
X143716613Y-101188245D01*
X143700000Y-101126245D01*
X143700000Y-99669245D01*
X143716613Y-99607245D01*
X143762000Y-99561858D01*
X143824000Y-99545245D01*
X145619052Y-99545245D01*
X145681157Y-99561918D01*
G37*
G36*
X145676416Y-84321858D02*
G01*
X145721803Y-84367245D01*
X145738416Y-84429245D01*
X145738416Y-85881245D01*
X145721803Y-85943245D01*
X145676416Y-85988632D01*
X145614416Y-86005245D01*
X143824000Y-86005245D01*
X143762000Y-85988632D01*
X143716613Y-85943245D01*
X143700000Y-85881245D01*
X143700000Y-84429245D01*
X143716613Y-84367245D01*
X143762000Y-84321858D01*
X143824000Y-84305245D01*
X145614416Y-84305245D01*
X145676416Y-84321858D01*
G37*
G36*
X145676416Y-97021858D02*
G01*
X145721803Y-97067245D01*
X145738416Y-97129245D01*
X145738416Y-98581245D01*
X145721803Y-98643245D01*
X145676416Y-98688632D01*
X145614416Y-98705245D01*
X143824000Y-98705245D01*
X143762000Y-98688632D01*
X143716613Y-98643245D01*
X143700000Y-98581245D01*
X143700000Y-97129245D01*
X143716613Y-97067245D01*
X143762000Y-97021858D01*
X143824000Y-97005245D01*
X145614416Y-97005245D01*
X145676416Y-97021858D01*
G37*
M02*
