%TF.GenerationSoftware,KiCad,Pcbnew,8.0.2-1*%
%TF.CreationDate,2024-05-29T23:20:37-07:00*%
%TF.ProjectId,mux_driver_v1,6d75785f-6472-4697-9665-725f76312e6b,rev?*%
%TF.SameCoordinates,Original*%
%TF.FileFunction,Copper,L1,Top*%
%TF.FilePolarity,Positive*%
%FSLAX46Y46*%
G04 Gerber Fmt 4.6, Leading zero omitted, Abs format (unit mm)*
G04 Created by KiCad (PCBNEW 8.0.2-1) date 2024-05-29 23:20:37*
%MOMM*%
%LPD*%
G01*
G04 APERTURE LIST*
G04 Aperture macros list*
%AMRoundRect*
0 Rectangle with rounded corners*
0 $1 Rounding radius*
0 $2 $3 $4 $5 $6 $7 $8 $9 X,Y pos of 4 corners*
0 Add a 4 corners polygon primitive as box body*
4,1,4,$2,$3,$4,$5,$6,$7,$8,$9,$2,$3,0*
0 Add four circle primitives for the rounded corners*
1,1,$1+$1,$2,$3*
1,1,$1+$1,$4,$5*
1,1,$1+$1,$6,$7*
1,1,$1+$1,$8,$9*
0 Add four rect primitives between the rounded corners*
20,1,$1+$1,$2,$3,$4,$5,0*
20,1,$1+$1,$4,$5,$6,$7,0*
20,1,$1+$1,$6,$7,$8,$9,0*
20,1,$1+$1,$8,$9,$2,$3,0*%
G04 Aperture macros list end*
%TA.AperFunction,ComponentPad*%
%ADD10R,1.700000X1.700000*%
%TD*%
%TA.AperFunction,ComponentPad*%
%ADD11O,1.700000X1.700000*%
%TD*%
%TA.AperFunction,SMDPad,CuDef*%
%ADD12RoundRect,0.150000X0.150000X0.625000X-0.150000X0.625000X-0.150000X-0.625000X0.150000X-0.625000X0*%
%TD*%
%TA.AperFunction,SMDPad,CuDef*%
%ADD13RoundRect,0.250000X0.350000X0.650000X-0.350000X0.650000X-0.350000X-0.650000X0.350000X-0.650000X0*%
%TD*%
%TA.AperFunction,SMDPad,CuDef*%
%ADD14R,0.450000X1.475000*%
%TD*%
%TA.AperFunction,SMDPad,CuDef*%
%ADD15RoundRect,0.200000X-0.200000X-0.275000X0.200000X-0.275000X0.200000X0.275000X-0.200000X0.275000X0*%
%TD*%
%TA.AperFunction,SMDPad,CuDef*%
%ADD16R,0.800000X0.500000*%
%TD*%
%TA.AperFunction,SMDPad,CuDef*%
%ADD17R,0.800000X0.400000*%
%TD*%
%TA.AperFunction,SMDPad,CuDef*%
%ADD18RoundRect,0.020500X-0.764500X-0.184500X0.764500X-0.184500X0.764500X0.184500X-0.764500X0.184500X0*%
%TD*%
%TA.AperFunction,SMDPad,CuDef*%
%ADD19RoundRect,0.150000X-0.150000X-0.625000X0.150000X-0.625000X0.150000X0.625000X-0.150000X0.625000X0*%
%TD*%
%TA.AperFunction,SMDPad,CuDef*%
%ADD20RoundRect,0.250000X-0.350000X-0.650000X0.350000X-0.650000X0.350000X0.650000X-0.350000X0.650000X0*%
%TD*%
%TA.AperFunction,ViaPad*%
%ADD21C,0.800000*%
%TD*%
%TA.AperFunction,ViaPad*%
%ADD22C,0.560000*%
%TD*%
%TA.AperFunction,Conductor*%
%ADD23C,0.152400*%
%TD*%
G04 APERTURE END LIST*
D10*
%TO.P,J6,1,Pin_1*%
%TO.N,GND*%
X166360000Y-75110000D03*
D11*
%TO.P,J6,2,Pin_2*%
%TO.N,F3_ENB*%
X166360000Y-77650000D03*
%TO.P,J6,3,Pin_3*%
%TO.N,F3_SCL*%
X166360000Y-80190000D03*
%TO.P,J6,4,Pin_4*%
%TO.N,F3_SDA*%
X166360000Y-82730000D03*
%TO.P,J6,5,Pin_5*%
%TO.N,F4_ENB*%
X166360000Y-85270000D03*
%TO.P,J6,6,Pin_6*%
%TO.N,F4_SCL*%
X166360000Y-87810000D03*
%TO.P,J6,7,Pin_7*%
%TO.N,F4_SDA*%
X166360000Y-90350000D03*
%TO.P,J6,8,Pin_8*%
%TO.N,Camera*%
X166360000Y-92890000D03*
%TO.P,J6,9,Pin_9*%
%TO.N,Break_SCL*%
X166360000Y-95430000D03*
%TO.P,J6,10,Pin_10*%
%TO.N,Break_SDA*%
X166360000Y-97970000D03*
%TO.P,J6,11,Pin_11*%
%TO.N,GND*%
X166360000Y-100510000D03*
%TD*%
D10*
%TO.P,J4,1,Pin_1*%
%TO.N,GND*%
X143710000Y-74990000D03*
D11*
%TO.P,J4,2,Pin_2*%
%TO.N,F0_ENB*%
X143710000Y-77530000D03*
%TO.P,J4,3,Pin_3*%
%TO.N,F0_SCL*%
X143710000Y-80070000D03*
%TO.P,J4,4,Pin_4*%
%TO.N,F0_SDA*%
X143710000Y-82610000D03*
%TO.P,J4,5,Pin_5*%
%TO.N,F1_ENB*%
X143710000Y-85150000D03*
%TO.P,J4,6,Pin_6*%
%TO.N,F1_SCL*%
X143710000Y-87690000D03*
%TO.P,J4,7,Pin_7*%
%TO.N,F1_SDA*%
X143710000Y-90230000D03*
%TO.P,J4,8,Pin_8*%
%TO.N,F2_ENB*%
X143710000Y-92770000D03*
%TO.P,J4,9,Pin_9*%
%TO.N,F2_SCL*%
X143710000Y-95310000D03*
%TO.P,J4,10,Pin_10*%
%TO.N,F2_SDA*%
X143710000Y-97850000D03*
%TO.P,J4,11,Pin_11*%
%TO.N,GND*%
X143710000Y-100390000D03*
%TD*%
D12*
%TO.P,J1,1,Pin_1*%
%TO.N,GND*%
X160520000Y-97725000D03*
%TO.P,J1,2,Pin_2*%
%TO.N,+3V3*%
X159520000Y-97725000D03*
%TO.P,J1,3,Pin_3*%
%TO.N,SDA0*%
X158520000Y-97725000D03*
%TO.P,J1,4,Pin_4*%
%TO.N,SCL0*%
X157520000Y-97725000D03*
D13*
%TO.P,J1,MP*%
%TO.N,N/C*%
X161820000Y-100250000D03*
X156220000Y-100250000D03*
%TD*%
D14*
%TO.P,IC1,1,A0*%
%TO.N,GND*%
X150905000Y-85058000D03*
%TO.P,IC1,2,A1*%
%TO.N,+3V3*%
X151555000Y-85058000D03*
%TO.P,IC1,3,A2*%
X152205000Y-85058000D03*
%TO.P,IC1,4,A3*%
%TO.N,GND*%
X152855000Y-85058000D03*
%TO.P,IC1,5,A4*%
%TO.N,+3V3*%
X153505000Y-85058000D03*
%TO.P,IC1,6,LED0*%
%TO.N,F0_ENB*%
X154155000Y-85058000D03*
%TO.P,IC1,7,LED1*%
%TO.N,F1_ENB*%
X154805000Y-85058000D03*
%TO.P,IC1,8,LED2*%
%TO.N,F2_ENB*%
X155455000Y-85058000D03*
%TO.P,IC1,9,LED3*%
%TO.N,F3_ENB*%
X156105000Y-85058000D03*
%TO.P,IC1,10,LED4*%
%TO.N,F4_ENB*%
X156755000Y-85058000D03*
%TO.P,IC1,11,LED5*%
%TO.N,Camera*%
X157405000Y-85058000D03*
%TO.P,IC1,12,LED6*%
%TO.N,unconnected-(IC1-LED6-Pad12)*%
X158055000Y-85058000D03*
%TO.P,IC1,13,LED7*%
%TO.N,unconnected-(IC1-LED7-Pad13)*%
X158705000Y-85058000D03*
%TO.P,IC1,14,VSS*%
%TO.N,GND*%
X159355000Y-85058000D03*
%TO.P,IC1,15,LED8*%
%TO.N,unconnected-(IC1-LED8-Pad15)*%
X159355000Y-79182000D03*
%TO.P,IC1,16,LED9*%
%TO.N,unconnected-(IC1-LED9-Pad16)*%
X158705000Y-79182000D03*
%TO.P,IC1,17,LED10*%
%TO.N,unconnected-(IC1-LED10-Pad17)*%
X158055000Y-79182000D03*
%TO.P,IC1,18,LED11*%
%TO.N,unconnected-(IC1-LED11-Pad18)*%
X157405000Y-79182000D03*
%TO.P,IC1,19,LED12*%
%TO.N,unconnected-(IC1-LED12-Pad19)*%
X156755000Y-79182000D03*
%TO.P,IC1,20,LED13*%
%TO.N,unconnected-(IC1-LED13-Pad20)*%
X156105000Y-79182000D03*
%TO.P,IC1,21,LED14*%
%TO.N,unconnected-(IC1-LED14-Pad21)*%
X155455000Y-79182000D03*
%TO.P,IC1,22,LED15*%
%TO.N,unconnected-(IC1-LED15-Pad22)*%
X154805000Y-79182000D03*
%TO.P,IC1,23,~{OE}*%
%TO.N,GND*%
X154155000Y-79182000D03*
%TO.P,IC1,24,A5*%
X153505000Y-79182000D03*
%TO.P,IC1,25,EXTCLK*%
X152855000Y-79182000D03*
%TO.P,IC1,26,SCL*%
%TO.N,SCL1*%
X152205000Y-79182000D03*
%TO.P,IC1,27,SDA*%
%TO.N,SDA1*%
X151555000Y-79182000D03*
%TO.P,IC1,28,VDD*%
%TO.N,+3V3*%
X150905000Y-79182000D03*
%TD*%
D15*
%TO.P,R3,1*%
%TO.N,+3V3*%
X147965000Y-87980000D03*
%TO.P,R3,2*%
%TO.N,I2C_RESET*%
X149615000Y-87980000D03*
%TD*%
D16*
%TO.P,R1,1,R1.1*%
%TO.N,F1_SCL*%
X149700000Y-91840000D03*
D17*
%TO.P,R1,2,R2.1*%
%TO.N,F1_SDA*%
X149700000Y-91040000D03*
%TO.P,R1,3,R3.1*%
%TO.N,F0_SCL*%
X149700000Y-90240000D03*
D16*
%TO.P,R1,4,R4.1*%
%TO.N,F0_SDA*%
X149700000Y-89440000D03*
%TO.P,R1,5,R4.2*%
%TO.N,+3V3*%
X147900000Y-89440000D03*
D17*
%TO.P,R1,6,R3.2*%
X147900000Y-90240000D03*
%TO.P,R1,7,R2.2*%
X147900000Y-91040000D03*
D16*
%TO.P,R1,8,R1.2*%
X147900000Y-91840000D03*
%TD*%
D18*
%TO.P,U1,1,A0*%
%TO.N,+3V3*%
X152215000Y-88545000D03*
%TO.P,U1,2,A1*%
X152215000Y-89195000D03*
%TO.P,U1,3,~{RESET}*%
%TO.N,I2C_RESET*%
X152215000Y-89845000D03*
%TO.P,U1,4,SD0*%
%TO.N,F0_SDA*%
X152215000Y-90495000D03*
%TO.P,U1,5,SC0*%
%TO.N,F0_SCL*%
X152215000Y-91145000D03*
%TO.P,U1,6,SD1*%
%TO.N,F1_SDA*%
X152215000Y-91795000D03*
%TO.P,U1,7,SC1*%
%TO.N,F1_SCL*%
X152215000Y-92445000D03*
%TO.P,U1,8,SD2*%
%TO.N,F2_SDA*%
X152215000Y-93095000D03*
%TO.P,U1,9,SC2*%
%TO.N,F2_SCL*%
X152215000Y-93745000D03*
%TO.P,U1,10,SD3*%
%TO.N,F3_SDA*%
X152215000Y-94395000D03*
%TO.P,U1,11,SC3*%
%TO.N,F3_SCL*%
X152215000Y-95045000D03*
%TO.P,U1,12,GND*%
%TO.N,GND*%
X152215000Y-95695000D03*
%TO.P,U1,13,SD4*%
%TO.N,F4_SDA*%
X157955000Y-95695000D03*
%TO.P,U1,14,SC4*%
%TO.N,F4_SCL*%
X157955000Y-95045000D03*
%TO.P,U1,15,SD5*%
%TO.N,Break_SDA*%
X157955000Y-94395000D03*
%TO.P,U1,16,SC5*%
%TO.N,Break_SCL*%
X157955000Y-93745000D03*
%TO.P,U1,17,SD6*%
%TO.N,unconnected-(U1-SD6-Pad17)*%
X157955000Y-93095000D03*
%TO.P,U1,18,SC6*%
%TO.N,unconnected-(U1-SC6-Pad18)*%
X157955000Y-92445000D03*
%TO.P,U1,19,SD7*%
%TO.N,unconnected-(U1-SD7-Pad19)*%
X157955000Y-91795000D03*
%TO.P,U1,20,SC7*%
%TO.N,unconnected-(U1-SC7-Pad20)*%
X157955000Y-91145000D03*
%TO.P,U1,21,A2*%
%TO.N,+3V3*%
X157955000Y-90495000D03*
%TO.P,U1,22,SCL*%
%TO.N,SCL0*%
X157955000Y-89845000D03*
%TO.P,U1,23,SDA*%
%TO.N,SDA0*%
X157955000Y-89195000D03*
%TO.P,U1,24,VCC*%
%TO.N,+3V3*%
X157955000Y-88545000D03*
%TD*%
D19*
%TO.P,J5,1,Pin_1*%
%TO.N,GND*%
X157650000Y-76820000D03*
%TO.P,J5,2,Pin_2*%
%TO.N,+3V3*%
X158650000Y-76820000D03*
%TO.P,J5,3,Pin_3*%
%TO.N,SDA1*%
X159650000Y-76820000D03*
%TO.P,J5,4,Pin_4*%
%TO.N,SCL1*%
X160650000Y-76820000D03*
D20*
%TO.P,J5,MP*%
%TO.N,N/C*%
X156350000Y-74295000D03*
X161950000Y-74295000D03*
%TD*%
D16*
%TO.P,R4,1,R1.1*%
%TO.N,Break_SCL*%
X160450000Y-93300000D03*
D17*
%TO.P,R4,2,R2.1*%
%TO.N,Break_SDA*%
X160450000Y-94100000D03*
%TO.P,R4,3,R3.1*%
%TO.N,F4_SCL*%
X160450000Y-94900000D03*
D16*
%TO.P,R4,4,R4.1*%
%TO.N,F4_SDA*%
X160450000Y-95700000D03*
%TO.P,R4,5,R4.2*%
%TO.N,+3V3*%
X162250000Y-95700000D03*
D17*
%TO.P,R4,6,R3.2*%
X162250000Y-94900000D03*
%TO.P,R4,7,R2.2*%
X162250000Y-94100000D03*
D16*
%TO.P,R4,8,R1.2*%
X162250000Y-93300000D03*
%TD*%
D19*
%TO.P,J2,1,Pin_1*%
%TO.N,GND*%
X149740000Y-76810000D03*
%TO.P,J2,2,Pin_2*%
%TO.N,+3V3*%
X150740000Y-76810000D03*
%TO.P,J2,3,Pin_3*%
%TO.N,SDA1*%
X151740000Y-76810000D03*
%TO.P,J2,4,Pin_4*%
%TO.N,SCL1*%
X152740000Y-76810000D03*
D20*
%TO.P,J2,MP*%
%TO.N,N/C*%
X148440000Y-74285000D03*
X154040000Y-74285000D03*
%TD*%
D12*
%TO.P,J3,1,Pin_1*%
%TO.N,GND*%
X152630000Y-97730000D03*
%TO.P,J3,2,Pin_2*%
%TO.N,+3V3*%
X151630000Y-97730000D03*
%TO.P,J3,3,Pin_3*%
%TO.N,SDA0*%
X150630000Y-97730000D03*
%TO.P,J3,4,Pin_4*%
%TO.N,SCL0*%
X149630000Y-97730000D03*
D13*
%TO.P,J3,MP*%
%TO.N,N/C*%
X153930000Y-100255000D03*
X148330000Y-100255000D03*
%TD*%
D16*
%TO.P,R2,1,R1.1*%
%TO.N,F3_SCL*%
X149690000Y-95660000D03*
D17*
%TO.P,R2,2,R2.1*%
%TO.N,F3_SDA*%
X149690000Y-94860000D03*
%TO.P,R2,3,R3.1*%
%TO.N,F2_SCL*%
X149690000Y-94060000D03*
D16*
%TO.P,R2,4,R4.1*%
%TO.N,F2_SDA*%
X149690000Y-93260000D03*
%TO.P,R2,5,R4.2*%
%TO.N,+3V3*%
X147890000Y-93260000D03*
D17*
%TO.P,R2,6,R3.2*%
X147890000Y-94060000D03*
%TO.P,R2,7,R2.2*%
X147890000Y-94860000D03*
D16*
%TO.P,R2,8,R1.2*%
X147890000Y-95660000D03*
%TD*%
D10*
%TO.P,J7,1,Pin_1*%
%TO.N,GND*%
X151245000Y-69850000D03*
D11*
%TO.P,J7,2,Pin_2*%
%TO.N,+3V3*%
X153785000Y-69850000D03*
%TO.P,J7,3,Pin_3*%
%TO.N,SDA1*%
X156325000Y-69850000D03*
%TO.P,J7,4,Pin_4*%
%TO.N,SCL1*%
X158865000Y-69850000D03*
%TD*%
D21*
%TO.N,Camera*%
X157425000Y-86625000D03*
D22*
%TO.N,+3V3*%
X149825000Y-86675000D03*
X147000000Y-91225000D03*
X163175000Y-91075000D03*
X147575000Y-87050000D03*
X163175000Y-91075000D03*
X147000000Y-89125000D03*
X146275000Y-92275000D03*
X158850000Y-73675000D03*
X161775000Y-88575000D03*
X146775000Y-94525000D03*
X150725000Y-96325000D03*
%TO.N,GND*%
X160700000Y-85350000D03*
X153700000Y-80825000D03*
X153600000Y-95900000D03*
X160750000Y-82250000D03*
D21*
X152850000Y-82275000D03*
%TO.N,F0_ENB*%
X154150000Y-82750000D03*
%TO.N,F1_ENB*%
X154850000Y-83575000D03*
%TO.N,F2_ENB*%
X155425000Y-86650000D03*
%TO.N,F3_ENB*%
X156050000Y-82775000D03*
%TO.N,F4_ENB*%
X156800000Y-83650000D03*
%TO.N,SCL0*%
X156450000Y-97900000D03*
D22*
X156425000Y-90600000D03*
D21*
X152425000Y-99650000D03*
D22*
%TO.N,SDA0*%
X158575000Y-99200000D03*
X156350000Y-89625000D03*
D21*
%TO.N,SCL1*%
X157625000Y-74974300D03*
X153750000Y-77025000D03*
D22*
%TO.N,F3_SDA*%
X155850000Y-88325000D03*
X154105700Y-94389452D03*
%TO.N,F1_SDA*%
X148751793Y-90600638D03*
%TO.N,F3_SCL*%
X155719114Y-87478867D03*
X153550000Y-94975000D03*
%TO.N,F2_SCL*%
X148400000Y-97150000D03*
%TO.N,F0_SCL*%
X146825000Y-86425000D03*
X147784779Y-85705700D03*
%TO.N,F4_SCL*%
X159975000Y-91450000D03*
X159325000Y-94950700D03*
%TO.N,F4_SDA*%
X159325000Y-96000000D03*
X160530700Y-92275000D03*
%TD*%
D23*
%TO.N,Camera*%
X157405000Y-85058000D02*
X157405000Y-86605000D01*
X157405000Y-86605000D02*
X157425000Y-86625000D01*
%TO.N,GND*%
X152630000Y-96110000D02*
X152215000Y-95695000D01*
X152855000Y-85058000D02*
X152855000Y-82280000D01*
X153505000Y-79182000D02*
X153505000Y-80630000D01*
X159355000Y-84168100D02*
X155382600Y-80195700D01*
X153505000Y-80630000D02*
X153700000Y-80825000D01*
X152630000Y-97730000D02*
X152630000Y-96110000D01*
X159355000Y-85058000D02*
X159355000Y-84168100D01*
X148910000Y-76810000D02*
X147090000Y-74990000D01*
X160520000Y-97725000D02*
X161225000Y-97725000D01*
X154155000Y-80030000D02*
X154155000Y-79182000D01*
X161225000Y-97725000D02*
X164010000Y-100510000D01*
X160700000Y-82300000D02*
X160750000Y-82250000D01*
X157650000Y-76820000D02*
X155652100Y-76820000D01*
X155652100Y-76820000D02*
X154155000Y-78317100D01*
X149740000Y-76810000D02*
X148910000Y-76810000D01*
X152855000Y-82218100D02*
X152855000Y-82125000D01*
X152855000Y-82125000D02*
X152855000Y-79182000D01*
X152850000Y-82275000D02*
X152855000Y-82270000D01*
X150905000Y-84168100D02*
X152855000Y-82218100D01*
X164010000Y-100510000D02*
X166196800Y-100510000D01*
X154155000Y-79182000D02*
X152855000Y-79182000D01*
X160700000Y-85350000D02*
X159647000Y-85350000D01*
X154155000Y-78317100D02*
X154155000Y-79182000D01*
X152855000Y-82280000D02*
X152850000Y-82275000D01*
X159647000Y-85350000D02*
X159355000Y-85058000D01*
X147090000Y-74990000D02*
X143903200Y-74990000D01*
X150905000Y-85058000D02*
X150905000Y-84168100D01*
X160700000Y-85350000D02*
X160700000Y-82300000D01*
X154320700Y-80195700D02*
X154155000Y-80030000D01*
X153395000Y-95695000D02*
X152215000Y-95695000D01*
X152855000Y-82270000D02*
X152855000Y-82125000D01*
X153600000Y-95900000D02*
X153395000Y-95695000D01*
X155382600Y-80195700D02*
X154320700Y-80195700D01*
%TO.N,F0_ENB*%
X154150000Y-84188100D02*
X154150000Y-82750000D01*
X154155000Y-85058000D02*
X154155000Y-84193100D01*
X154155000Y-84193100D02*
X154150000Y-84188100D01*
%TO.N,F1_ENB*%
X154805000Y-83620000D02*
X154850000Y-83575000D01*
X154805000Y-85058000D02*
X154805000Y-83620000D01*
%TO.N,F2_ENB*%
X155455000Y-85058000D02*
X155455000Y-86620000D01*
X155455000Y-86620000D02*
X155425000Y-86650000D01*
%TO.N,F3_ENB*%
X156105000Y-82830000D02*
X156050000Y-82775000D01*
X156105000Y-85058000D02*
X156105000Y-82830000D01*
%TO.N,F4_ENB*%
X156755000Y-83695000D02*
X156800000Y-83650000D01*
X156755000Y-85058000D02*
X156755000Y-83695000D01*
%TO.N,SCL0*%
X156481403Y-90600000D02*
X156425000Y-90600000D01*
X149630000Y-98107738D02*
X151172262Y-99650000D01*
X157345000Y-97900000D02*
X157520000Y-97725000D01*
X157236403Y-89845000D02*
X156481403Y-90600000D01*
X151172262Y-99650000D02*
X152425000Y-99650000D01*
X149630000Y-97730000D02*
X149630000Y-98107738D01*
X157955000Y-89845000D02*
X157236403Y-89845000D01*
X156450000Y-97900000D02*
X157345000Y-97900000D01*
%TO.N,SDA0*%
X157955000Y-89195000D02*
X156780000Y-89195000D01*
X150630000Y-98355000D02*
X150630000Y-97730000D01*
X158575000Y-99200000D02*
X158575000Y-97780000D01*
X156780000Y-89195000D02*
X156350000Y-89625000D01*
X151056200Y-98781200D02*
X150630000Y-98355000D01*
X157841538Y-98781200D02*
X151056200Y-98781200D01*
X158520000Y-98102738D02*
X157841538Y-98781200D01*
X158575000Y-97780000D02*
X158520000Y-97725000D01*
X158520000Y-97725000D02*
X158520000Y-98102738D01*
%TO.N,SDA1*%
X151555000Y-76995000D02*
X151555000Y-79182000D01*
X151740000Y-76810000D02*
X151740000Y-76432262D01*
X151740000Y-76810000D02*
X151555000Y-76995000D01*
X159650000Y-75850000D02*
X159650000Y-76820000D01*
X155725000Y-72375000D02*
X156325000Y-71775000D01*
X151740000Y-76432262D02*
X152522262Y-75650000D01*
X151740000Y-74840841D02*
X154205841Y-72375000D01*
X154205841Y-72375000D02*
X155725000Y-72375000D01*
X152522262Y-75650000D02*
X159450000Y-75650000D01*
X156325000Y-71775000D02*
X156325000Y-70053200D01*
X151740000Y-76810000D02*
X151740000Y-74840841D01*
X159450000Y-75650000D02*
X159650000Y-75850000D01*
%TO.N,SCL1*%
X160650000Y-76351632D02*
X159272668Y-74974300D01*
X159272668Y-74974300D02*
X157625000Y-74974300D01*
X153750000Y-77025000D02*
X152955000Y-77025000D01*
X157625000Y-74974300D02*
X157625000Y-73100000D01*
X160650000Y-76820000D02*
X160650000Y-76351632D01*
X152740000Y-76810000D02*
X152740000Y-77757100D01*
X157625000Y-73100000D02*
X158865000Y-71860000D01*
X152205000Y-78292100D02*
X152205000Y-79182000D01*
X152740000Y-77757100D02*
X152205000Y-78292100D01*
X158865000Y-71860000D02*
X158865000Y-70053200D01*
X152955000Y-77025000D02*
X152740000Y-76810000D01*
%TO.N,F3_SDA*%
X152215000Y-94395000D02*
X154100152Y-94395000D01*
X149690000Y-94860000D02*
X150615000Y-94860000D01*
X150615000Y-94860000D02*
X151080000Y-94395000D01*
X156111200Y-88063800D02*
X161009568Y-88063800D01*
X154100152Y-94395000D02*
X154105700Y-94389452D01*
X155850000Y-88325000D02*
X156111200Y-88063800D01*
X164395000Y-82730000D02*
X166196800Y-82730000D01*
X163275000Y-85798368D02*
X163275000Y-83850000D01*
X161009568Y-88063800D02*
X163275000Y-85798368D01*
X163275000Y-83850000D02*
X164395000Y-82730000D01*
X151080000Y-94395000D02*
X152215000Y-94395000D01*
%TO.N,F2_SDA*%
X148566200Y-93831400D02*
X148566200Y-96033800D01*
X152050000Y-93260000D02*
X152215000Y-93095000D01*
X149137600Y-93260000D02*
X148566200Y-93831400D01*
X148566200Y-96033800D02*
X146750000Y-97850000D01*
X146750000Y-97850000D02*
X143903200Y-97850000D01*
X149690000Y-93260000D02*
X152050000Y-93260000D01*
X149690000Y-93260000D02*
X149137600Y-93260000D01*
%TO.N,F1_SDA*%
X149700000Y-91040000D02*
X149191155Y-91040000D01*
X150589771Y-91040000D02*
X149700000Y-91040000D01*
X152215000Y-91795000D02*
X151344771Y-91795000D01*
X149191155Y-91040000D02*
X148751793Y-90600638D01*
X151344771Y-91795000D02*
X150589771Y-91040000D01*
%TO.N,F0_SDA*%
X148641200Y-86887935D02*
X148228265Y-86475000D01*
X148641200Y-88381200D02*
X148641200Y-86887935D01*
X147228579Y-83378579D02*
X146460000Y-82610000D01*
X146460000Y-82610000D02*
X143903200Y-82610000D01*
X147767493Y-86475000D02*
X147228579Y-85936086D01*
X151041507Y-90495000D02*
X149986507Y-89440000D01*
X149986507Y-89440000D02*
X149700000Y-89440000D01*
X149700000Y-89440000D02*
X148641200Y-88381200D01*
X147228579Y-85936086D02*
X147228579Y-83378579D01*
X152215000Y-90495000D02*
X151041507Y-90495000D01*
X148228265Y-86475000D02*
X147767493Y-86475000D01*
%TO.N,F3_SCL*%
X162800000Y-85775000D02*
X162800000Y-81000000D01*
X161225000Y-87350000D02*
X162800000Y-85775000D01*
X163610000Y-80190000D02*
X166196800Y-80190000D01*
X162800000Y-81000000D02*
X163610000Y-80190000D01*
X155719114Y-87478867D02*
X155847981Y-87350000D01*
X150881403Y-95660000D02*
X151496403Y-95045000D01*
X153480000Y-95045000D02*
X153550000Y-94975000D01*
X151496403Y-95045000D02*
X152215000Y-95045000D01*
X152215000Y-95045000D02*
X153480000Y-95045000D01*
X149690000Y-95660000D02*
X150881403Y-95660000D01*
X155847981Y-87350000D02*
X161225000Y-87350000D01*
%TO.N,F2_SCL*%
X149690000Y-94060000D02*
X149358600Y-94060000D01*
X150557400Y-93745000D02*
X152215000Y-93745000D01*
X149358600Y-94060000D02*
X148918600Y-94500000D01*
X148918600Y-94500000D02*
X148918600Y-96631400D01*
X149690000Y-94060000D02*
X150242400Y-94060000D01*
X148918600Y-96631400D02*
X148400000Y-97150000D01*
X150242400Y-94060000D02*
X150557400Y-93745000D01*
%TO.N,F0_SCL*%
X150288139Y-90240000D02*
X149700000Y-90240000D01*
X146825000Y-87988448D02*
X146825000Y-86425000D01*
X149700000Y-90240000D02*
X149297600Y-90240000D01*
X151193139Y-91145000D02*
X150288139Y-90240000D01*
X152215000Y-91145000D02*
X151193139Y-91145000D01*
X148250000Y-88731200D02*
X147567752Y-88731200D01*
X146345000Y-80070000D02*
X143903200Y-80070000D01*
X149297600Y-90240000D02*
X149023800Y-89966200D01*
X147784779Y-85705700D02*
X147784779Y-81509779D01*
X149023800Y-89966200D02*
X149023800Y-89505000D01*
X147567752Y-88731200D02*
X146825000Y-87988448D01*
X149023800Y-89505000D02*
X148250000Y-88731200D01*
X147784779Y-81509779D02*
X146345000Y-80070000D01*
%TO.N,F4_SCL*%
X159325000Y-94900000D02*
X160450000Y-94900000D01*
X159975000Y-91450000D02*
X163615000Y-87810000D01*
X157955000Y-95045000D02*
X158100000Y-94900000D01*
X158100000Y-94900000D02*
X159325000Y-94900000D01*
X163615000Y-87810000D02*
X166196800Y-87810000D01*
X159325000Y-94900000D02*
X159325000Y-94950700D01*
%TO.N,F4_SDA*%
X159325000Y-96000000D02*
X159325000Y-95775000D01*
X159275000Y-95700000D02*
X159400000Y-95700000D01*
X159325000Y-96000000D02*
X159325000Y-95750000D01*
X159325000Y-95750000D02*
X159275000Y-95700000D01*
X159325000Y-95775000D02*
X159400000Y-95700000D01*
X159400000Y-95700000D02*
X160450000Y-95700000D01*
X162455700Y-90350000D02*
X166196800Y-90350000D01*
X160530700Y-92275000D02*
X162455700Y-90350000D01*
X157955000Y-95695000D02*
X157960000Y-95700000D01*
X157960000Y-95700000D02*
X159275000Y-95700000D01*
%TO.N,I2C_RESET*%
X149631403Y-87980000D02*
X149615000Y-87980000D01*
X151496403Y-89845000D02*
X149631403Y-87980000D01*
X152215000Y-89845000D02*
X151496403Y-89845000D01*
%TO.N,F1_SCL*%
X145865000Y-87690000D02*
X143903200Y-87690000D01*
X147354614Y-92366200D02*
X146375000Y-91386586D01*
X146375000Y-91386586D02*
X146375000Y-88200000D01*
X146375000Y-88200000D02*
X145865000Y-87690000D01*
X149173800Y-92366200D02*
X147354614Y-92366200D01*
X149700000Y-91840000D02*
X149173800Y-92366200D01*
X152215000Y-92445000D02*
X151496403Y-92445000D01*
X151496403Y-92445000D02*
X150891403Y-91840000D01*
X150891403Y-91840000D02*
X149700000Y-91840000D01*
%TO.N,Break_SDA*%
X162720000Y-97970000D02*
X166196800Y-97970000D01*
X160450000Y-94100000D02*
X160650000Y-94100000D01*
X160155000Y-94395000D02*
X160450000Y-94100000D01*
X157955000Y-94395000D02*
X160155000Y-94395000D01*
X161126200Y-94576200D02*
X161126200Y-96376200D01*
X161126200Y-96376200D02*
X162720000Y-97970000D01*
X160650000Y-94100000D02*
X161126200Y-94576200D01*
%TO.N,Break_SCL*%
X165400600Y-96226200D02*
X166196800Y-95430000D01*
X161478600Y-96131000D02*
X161573800Y-96226200D01*
X159452600Y-93745000D02*
X159897600Y-93300000D01*
X159897600Y-93300000D02*
X160450000Y-93300000D01*
X160450000Y-93300000D02*
X160802400Y-93300000D01*
X160802400Y-93300000D02*
X161478600Y-93976200D01*
X157955000Y-93745000D02*
X159452600Y-93745000D01*
X161573800Y-96226200D02*
X165400600Y-96226200D01*
X161478600Y-93976200D02*
X161478600Y-96131000D01*
%TD*%
%TA.AperFunction,Conductor*%
%TO.N,+3V3*%
G36*
X150006674Y-69856945D02*
G01*
X150073687Y-69876702D01*
X150119384Y-69929557D01*
X150129363Y-69981623D01*
X150130500Y-69981623D01*
X150130500Y-71150345D01*
X150135471Y-71200883D01*
X150135476Y-71200915D01*
X150144887Y-71248287D01*
X150144887Y-71248289D01*
X150144890Y-71248298D01*
X150159621Y-71296923D01*
X150159626Y-71296935D01*
X150159813Y-71297388D01*
X150159825Y-71297414D01*
X150171767Y-71322409D01*
X150171786Y-71322446D01*
X150184470Y-71345706D01*
X150184471Y-71345707D01*
X150184473Y-71345710D01*
X150249351Y-71423429D01*
X150303728Y-71467301D01*
X150367513Y-71505145D01*
X150367987Y-71505341D01*
X150416447Y-71520033D01*
X150463963Y-71529499D01*
X150463968Y-71529499D01*
X150463971Y-71529500D01*
X150481238Y-71531203D01*
X150514664Y-71534500D01*
X150514673Y-71534500D01*
X151975991Y-71534500D01*
X151976000Y-71534500D01*
X152031163Y-71528569D01*
X152082674Y-71517363D01*
X152109461Y-71510014D01*
X152197448Y-71459911D01*
X152250252Y-71414156D01*
X152282371Y-71380869D01*
X152329303Y-71291151D01*
X152348988Y-71224112D01*
X152359500Y-71151000D01*
X152359500Y-69984663D01*
X152359500Y-69983672D01*
X152379185Y-69916633D01*
X152431989Y-69870878D01*
X152483630Y-69859673D01*
X155086643Y-69862540D01*
X155153654Y-69882296D01*
X155199351Y-69935150D01*
X155210500Y-69986538D01*
X155210500Y-71150345D01*
X155215471Y-71200883D01*
X155215476Y-71200915D01*
X155224887Y-71248287D01*
X155224887Y-71248289D01*
X155224890Y-71248298D01*
X155239621Y-71296923D01*
X155239626Y-71296935D01*
X155239813Y-71297388D01*
X155239825Y-71297414D01*
X155251767Y-71322409D01*
X155251786Y-71322446D01*
X155264470Y-71345706D01*
X155264471Y-71345707D01*
X155264473Y-71345710D01*
X155329351Y-71423429D01*
X155383728Y-71467301D01*
X155447513Y-71505145D01*
X155447987Y-71505341D01*
X155496447Y-71520033D01*
X155543963Y-71529499D01*
X155543968Y-71529499D01*
X155543971Y-71529500D01*
X155561238Y-71531203D01*
X155594664Y-71534500D01*
X155798458Y-71534500D01*
X155865497Y-71554185D01*
X155911252Y-71606989D01*
X155921196Y-71676147D01*
X155892171Y-71739703D01*
X155886139Y-71746181D01*
X155624339Y-72007981D01*
X155563016Y-72041466D01*
X155536658Y-72044300D01*
X154256990Y-72044300D01*
X154256974Y-72044299D01*
X154249378Y-72044299D01*
X154162304Y-72044299D01*
X154162302Y-72044299D01*
X154100733Y-72060795D01*
X154100734Y-72060796D01*
X154078199Y-72066834D01*
X154078195Y-72066836D01*
X154002789Y-72110372D01*
X154002783Y-72110376D01*
X151475376Y-74637783D01*
X151475374Y-74637786D01*
X151431836Y-74713194D01*
X151409300Y-74797301D01*
X151409300Y-75747103D01*
X151389615Y-75814142D01*
X151355227Y-75845262D01*
X151357171Y-75847938D01*
X151349276Y-75853674D01*
X151258678Y-75944271D01*
X151258675Y-75944276D01*
X151258674Y-75944277D01*
X151253579Y-75954277D01*
X151200500Y-76058447D01*
X151185500Y-76153160D01*
X151185500Y-77466839D01*
X151200500Y-77561552D01*
X151200501Y-77561554D01*
X151210784Y-77581734D01*
X151224300Y-77638030D01*
X151224300Y-78142763D01*
X151204615Y-78209802D01*
X151169192Y-78245864D01*
X151146516Y-78261015D01*
X151090265Y-78345199D01*
X151090264Y-78345203D01*
X151075500Y-78419428D01*
X151075500Y-79944563D01*
X151090266Y-80018801D01*
X151146515Y-80102984D01*
X151180234Y-80125514D01*
X151230699Y-80159234D01*
X151230702Y-80159234D01*
X151230703Y-80159235D01*
X151249964Y-80163066D01*
X151304933Y-80174000D01*
X151805066Y-80173999D01*
X151855811Y-80163906D01*
X151904190Y-80163907D01*
X151928426Y-80168727D01*
X151954933Y-80174000D01*
X152400300Y-80173999D01*
X152467339Y-80193683D01*
X152513094Y-80246487D01*
X152524300Y-80297999D01*
X152524300Y-81633616D01*
X152504615Y-81700655D01*
X152479954Y-81726150D01*
X152481085Y-81727427D01*
X152356506Y-81837794D01*
X152356500Y-81837801D01*
X152266214Y-81968602D01*
X152209850Y-82117218D01*
X152190693Y-82274999D01*
X152190693Y-82275002D01*
X152198543Y-82339664D01*
X152187081Y-82408587D01*
X152163128Y-82442289D01*
X150701947Y-83903472D01*
X150640376Y-83965042D01*
X150640374Y-83965045D01*
X150596834Y-84040456D01*
X150594318Y-84046532D01*
X150550476Y-84100936D01*
X150548649Y-84102180D01*
X150496516Y-84137014D01*
X150440266Y-84221199D01*
X150440264Y-84221203D01*
X150425500Y-84295428D01*
X150425500Y-85820563D01*
X150440266Y-85894801D01*
X150496515Y-85978984D01*
X150520979Y-85995330D01*
X150580699Y-86035234D01*
X150580702Y-86035234D01*
X150580703Y-86035235D01*
X150604187Y-86039906D01*
X150654933Y-86050000D01*
X151155066Y-86049999D01*
X151229301Y-86035234D01*
X151313484Y-85978984D01*
X151369734Y-85894801D01*
X151384500Y-85820567D01*
X151384499Y-84295434D01*
X151374342Y-84244367D01*
X151380571Y-84174778D01*
X151408277Y-84132502D01*
X152312620Y-83228159D01*
X152373942Y-83194675D01*
X152443634Y-83199659D01*
X152499567Y-83241531D01*
X152523984Y-83306995D01*
X152524300Y-83315841D01*
X152524300Y-84018763D01*
X152504615Y-84085802D01*
X152469192Y-84121864D01*
X152446516Y-84137015D01*
X152390265Y-84221199D01*
X152390264Y-84221203D01*
X152375500Y-84295428D01*
X152375500Y-85820563D01*
X152390266Y-85894801D01*
X152446515Y-85978984D01*
X152470979Y-85995330D01*
X152530699Y-86035234D01*
X152530702Y-86035234D01*
X152530703Y-86035235D01*
X152554187Y-86039906D01*
X152604933Y-86050000D01*
X153105066Y-86049999D01*
X153179301Y-86035234D01*
X153263484Y-85978984D01*
X153319734Y-85894801D01*
X153334500Y-85820567D01*
X153334499Y-84295434D01*
X153319734Y-84221199D01*
X153263484Y-84137016D01*
X153263481Y-84137014D01*
X153240808Y-84121864D01*
X153196003Y-84068251D01*
X153185700Y-84018763D01*
X153185700Y-82907806D01*
X153205385Y-82840767D01*
X153227469Y-82814993D01*
X153295409Y-82754803D01*
X153358640Y-82725084D01*
X153427904Y-82734266D01*
X153481207Y-82779438D01*
X153500731Y-82832673D01*
X153509850Y-82907781D01*
X153566214Y-83056397D01*
X153583469Y-83081395D01*
X153656502Y-83187201D01*
X153656504Y-83187203D01*
X153656506Y-83187205D01*
X153664103Y-83193935D01*
X153775471Y-83292599D01*
X153775472Y-83292599D01*
X153777527Y-83294420D01*
X153814654Y-83353609D01*
X153819300Y-83387235D01*
X153819300Y-84022104D01*
X153799615Y-84089143D01*
X153764192Y-84125205D01*
X153746516Y-84137015D01*
X153690265Y-84221199D01*
X153690264Y-84221203D01*
X153675500Y-84295428D01*
X153675500Y-85820563D01*
X153690266Y-85894801D01*
X153746515Y-85978984D01*
X153770979Y-85995330D01*
X153830699Y-86035234D01*
X153830702Y-86035234D01*
X153830703Y-86035235D01*
X153854187Y-86039906D01*
X153904933Y-86050000D01*
X154405066Y-86049999D01*
X154455811Y-86039906D01*
X154504190Y-86039907D01*
X154523713Y-86043790D01*
X154554933Y-86050000D01*
X154807613Y-86049999D01*
X154874651Y-86069683D01*
X154920406Y-86122487D01*
X154930350Y-86191646D01*
X154909662Y-86244439D01*
X154841214Y-86343602D01*
X154784850Y-86492218D01*
X154765693Y-86649999D01*
X154784850Y-86807781D01*
X154801366Y-86851329D01*
X154834097Y-86937633D01*
X154841214Y-86956397D01*
X154917343Y-87066689D01*
X154931502Y-87087201D01*
X154931504Y-87087203D01*
X154931506Y-87087205D01*
X155050470Y-87192598D01*
X155050471Y-87192599D01*
X155130277Y-87234485D01*
X155180489Y-87283069D01*
X155196464Y-87351088D01*
X155195590Y-87360467D01*
X155180002Y-87478866D01*
X155180002Y-87478867D01*
X155198372Y-87618398D01*
X155198373Y-87618402D01*
X155252227Y-87748420D01*
X155252228Y-87748422D01*
X155252229Y-87748423D01*
X155337904Y-87860077D01*
X155362340Y-87878827D01*
X155403542Y-87935253D01*
X155407697Y-88004999D01*
X155385231Y-88052685D01*
X155383116Y-88055441D01*
X155383114Y-88055443D01*
X155329259Y-88185464D01*
X155329258Y-88185468D01*
X155310888Y-88324999D01*
X155310888Y-88325000D01*
X155329258Y-88464531D01*
X155329259Y-88464535D01*
X155383113Y-88594553D01*
X155383114Y-88594555D01*
X155383115Y-88594556D01*
X155468790Y-88706210D01*
X155580444Y-88791885D01*
X155710468Y-88845742D01*
X155833766Y-88861974D01*
X155849999Y-88864112D01*
X155850000Y-88864112D01*
X155850001Y-88864112D01*
X155864541Y-88862197D01*
X155989532Y-88845742D01*
X156119556Y-88791885D01*
X156231210Y-88706210D01*
X156316885Y-88594556D01*
X156368043Y-88471047D01*
X156411883Y-88416644D01*
X156478177Y-88394579D01*
X156482604Y-88394500D01*
X161053103Y-88394500D01*
X161053105Y-88394500D01*
X161053106Y-88394500D01*
X161137214Y-88371964D01*
X161212623Y-88328426D01*
X161274194Y-88266855D01*
X161274194Y-88266853D01*
X161284398Y-88256650D01*
X161284402Y-88256645D01*
X163467845Y-86073202D01*
X163467850Y-86073198D01*
X163478053Y-86062994D01*
X163478055Y-86062994D01*
X163539626Y-86001423D01*
X163583164Y-85926014D01*
X163584048Y-85922713D01*
X163593053Y-85889111D01*
X163599376Y-85865508D01*
X163605701Y-85841905D01*
X163605701Y-85754830D01*
X163605701Y-85747235D01*
X163605700Y-85747217D01*
X163605700Y-84038341D01*
X163625385Y-83971302D01*
X163642015Y-83950664D01*
X163956549Y-83636129D01*
X164017872Y-83602645D01*
X164087564Y-83607629D01*
X164139764Y-83646706D01*
X164140570Y-83646034D01*
X164143409Y-83649435D01*
X164143497Y-83649501D01*
X164143691Y-83649772D01*
X164144471Y-83650706D01*
X164144473Y-83650710D01*
X164209351Y-83728429D01*
X164263728Y-83772301D01*
X164327513Y-83810145D01*
X164327987Y-83810341D01*
X164376447Y-83825033D01*
X164423963Y-83834499D01*
X164423968Y-83834499D01*
X164423971Y-83834500D01*
X164441238Y-83836203D01*
X164474664Y-83839500D01*
X164474673Y-83839500D01*
X166276000Y-83839500D01*
X166343039Y-83859185D01*
X166388794Y-83911989D01*
X166400000Y-83963500D01*
X166400000Y-84036500D01*
X166380315Y-84103539D01*
X166327511Y-84149294D01*
X166276000Y-84160500D01*
X166275336Y-84160500D01*
X164474664Y-84160500D01*
X164424200Y-84165454D01*
X164424195Y-84165455D01*
X164376883Y-84174834D01*
X164376882Y-84174834D01*
X164327911Y-84189690D01*
X164327907Y-84189692D01*
X164327905Y-84189692D01*
X164327901Y-84189694D01*
X164327419Y-84189894D01*
X164327400Y-84189902D01*
X164302594Y-84201774D01*
X164302567Y-84201788D01*
X164279250Y-84214509D01*
X164279251Y-84214510D01*
X164278952Y-84214673D01*
X164201291Y-84279637D01*
X164201290Y-84279638D01*
X164157476Y-84334060D01*
X164119804Y-84397632D01*
X164119803Y-84397634D01*
X164119610Y-84398101D01*
X164104888Y-84446703D01*
X164104887Y-84446710D01*
X164095475Y-84494084D01*
X164095473Y-84494101D01*
X164090500Y-84544663D01*
X164090500Y-85995336D01*
X164094522Y-86036228D01*
X164095473Y-86045896D01*
X164095474Y-86045902D01*
X164104887Y-86093291D01*
X164113726Y-86122439D01*
X164119674Y-86142053D01*
X164119761Y-86142263D01*
X164119824Y-86142415D01*
X164119832Y-86142456D01*
X164119839Y-86142470D01*
X164119846Y-86142468D01*
X164119952Y-86142724D01*
X164119963Y-86142748D01*
X164131790Y-86167455D01*
X164131792Y-86167458D01*
X164144468Y-86190702D01*
X164144470Y-86190705D01*
X164144473Y-86190710D01*
X164209351Y-86268429D01*
X164263728Y-86312301D01*
X164327513Y-86350145D01*
X164327987Y-86350341D01*
X164376447Y-86365033D01*
X164423963Y-86374499D01*
X164423968Y-86374499D01*
X164423971Y-86374500D01*
X164441238Y-86376203D01*
X164474664Y-86379500D01*
X164474673Y-86379500D01*
X166276000Y-86379500D01*
X166343039Y-86399185D01*
X166388794Y-86451989D01*
X166400000Y-86503500D01*
X166400000Y-86576500D01*
X166380315Y-86643539D01*
X166327511Y-86689294D01*
X166276000Y-86700500D01*
X166275336Y-86700500D01*
X164474664Y-86700500D01*
X164424200Y-86705454D01*
X164424195Y-86705455D01*
X164376883Y-86714834D01*
X164376882Y-86714834D01*
X164327911Y-86729690D01*
X164327907Y-86729692D01*
X164327905Y-86729692D01*
X164327901Y-86729694D01*
X164327419Y-86729894D01*
X164327400Y-86729902D01*
X164302594Y-86741774D01*
X164302567Y-86741788D01*
X164279250Y-86754509D01*
X164279251Y-86754510D01*
X164278952Y-86754673D01*
X164201291Y-86819637D01*
X164201290Y-86819638D01*
X164157476Y-86874060D01*
X164119804Y-86937632D01*
X164119803Y-86937634D01*
X164119610Y-86938101D01*
X164104888Y-86986703D01*
X164104887Y-86986710D01*
X164095475Y-87034084D01*
X164095473Y-87034101D01*
X164090500Y-87084668D01*
X164090500Y-87355300D01*
X164070815Y-87422339D01*
X164018011Y-87468094D01*
X163966500Y-87479300D01*
X163571460Y-87479300D01*
X163487353Y-87501836D01*
X163411945Y-87545374D01*
X163411942Y-87545376D01*
X163350372Y-87606947D01*
X160081360Y-90875958D01*
X160020037Y-90909443D01*
X159977496Y-90911216D01*
X159975004Y-90910888D01*
X159974999Y-90910888D01*
X159835468Y-90929258D01*
X159835464Y-90929259D01*
X159705446Y-90983113D01*
X159593790Y-91068790D01*
X159508113Y-91180446D01*
X159454259Y-91310464D01*
X159454258Y-91310468D01*
X159435888Y-91450000D01*
X159453452Y-91583413D01*
X159454258Y-91589531D01*
X159454259Y-91589535D01*
X159508113Y-91719553D01*
X159508114Y-91719555D01*
X159508115Y-91719556D01*
X159593790Y-91831210D01*
X159705444Y-91916885D01*
X159835468Y-91970742D01*
X159906462Y-91980088D01*
X159970358Y-92008354D01*
X160008829Y-92066678D01*
X160009912Y-92127265D01*
X160011019Y-92127411D01*
X160010047Y-92134791D01*
X160010053Y-92135112D01*
X160009958Y-92135463D01*
X159991588Y-92274999D01*
X159991588Y-92275000D01*
X160009958Y-92414531D01*
X160009959Y-92414535D01*
X160063813Y-92544553D01*
X160063814Y-92544555D01*
X160063815Y-92544556D01*
X160104333Y-92597361D01*
X160129527Y-92662528D01*
X160115489Y-92730973D01*
X160066675Y-92780963D01*
X160030147Y-92794464D01*
X159950698Y-92810266D01*
X159866514Y-92866516D01*
X159806894Y-92955743D01*
X159765794Y-92994238D01*
X159694545Y-93035374D01*
X159694542Y-93035376D01*
X159632972Y-93096947D01*
X159351939Y-93377981D01*
X159290616Y-93411466D01*
X159264258Y-93414300D01*
X159118500Y-93414300D01*
X159051461Y-93394615D01*
X159005706Y-93341811D01*
X158994500Y-93290300D01*
X158994500Y-92883411D01*
X158994499Y-92883410D01*
X158978545Y-92803200D01*
X158978544Y-92803199D01*
X158976753Y-92794192D01*
X158976753Y-92745808D01*
X158982566Y-92716585D01*
X158994500Y-92656588D01*
X158994500Y-92233412D01*
X158978545Y-92153200D01*
X158978544Y-92153199D01*
X158976753Y-92144192D01*
X158976753Y-92095808D01*
X158982541Y-92066710D01*
X158994500Y-92006588D01*
X158994500Y-91583412D01*
X158978545Y-91503200D01*
X158978544Y-91503199D01*
X158976753Y-91494192D01*
X158976753Y-91445808D01*
X158979829Y-91430344D01*
X158994500Y-91356588D01*
X158994500Y-90933412D01*
X158983072Y-90875958D01*
X158978546Y-90853202D01*
X158978545Y-90853201D01*
X158978545Y-90853200D01*
X158946138Y-90804700D01*
X158917764Y-90762235D01*
X158834482Y-90706588D01*
X158826800Y-90701455D01*
X158826799Y-90701454D01*
X158826798Y-90701454D01*
X158826797Y-90701453D01*
X158746592Y-90685500D01*
X158746588Y-90685500D01*
X157163412Y-90685500D01*
X157162944Y-90685500D01*
X157095905Y-90665815D01*
X157050150Y-90613011D01*
X157040206Y-90543853D01*
X157069231Y-90480297D01*
X157075244Y-90473838D01*
X157208265Y-90340816D01*
X157269587Y-90307334D01*
X157295945Y-90304500D01*
X158746589Y-90304500D01*
X158746590Y-90304499D01*
X158773566Y-90299133D01*
X158826797Y-90288546D01*
X158826797Y-90288545D01*
X158826800Y-90288545D01*
X158917764Y-90227764D01*
X158978545Y-90136800D01*
X158979152Y-90133751D01*
X158994499Y-90056592D01*
X158994500Y-90056589D01*
X158994500Y-89633411D01*
X158994499Y-89633410D01*
X158978545Y-89553200D01*
X158978544Y-89553199D01*
X158976753Y-89544192D01*
X158976753Y-89495808D01*
X158978810Y-89485468D01*
X158994500Y-89406588D01*
X158994500Y-88983412D01*
X158984970Y-88935500D01*
X158978546Y-88903202D01*
X158978545Y-88903201D01*
X158978545Y-88903200D01*
X158923534Y-88820871D01*
X158917764Y-88812235D01*
X158834931Y-88756888D01*
X158826800Y-88751455D01*
X158826799Y-88751454D01*
X158826798Y-88751454D01*
X158826797Y-88751453D01*
X158746592Y-88735500D01*
X158746588Y-88735500D01*
X157163412Y-88735500D01*
X157163407Y-88735500D01*
X157083202Y-88751453D01*
X157083201Y-88751454D01*
X156992235Y-88812236D01*
X156983601Y-88820871D01*
X156982096Y-88819366D01*
X156940656Y-88853997D01*
X156891169Y-88864300D01*
X156831149Y-88864300D01*
X156831133Y-88864299D01*
X156823537Y-88864299D01*
X156736463Y-88864299D01*
X156736462Y-88864299D01*
X156685111Y-88878058D01*
X156685111Y-88878059D01*
X156652354Y-88886836D01*
X156652353Y-88886836D01*
X156652351Y-88886837D01*
X156576945Y-88930374D01*
X156576942Y-88930376D01*
X156515372Y-88991947D01*
X156515371Y-88991948D01*
X156456359Y-89050959D01*
X156395036Y-89084443D01*
X156352496Y-89086216D01*
X156350004Y-89085888D01*
X156349999Y-89085888D01*
X156210468Y-89104258D01*
X156210464Y-89104259D01*
X156080446Y-89158113D01*
X155968790Y-89243790D01*
X155883113Y-89355446D01*
X155829259Y-89485464D01*
X155829258Y-89485468D01*
X155820341Y-89553202D01*
X155810888Y-89625000D01*
X155825990Y-89739713D01*
X155829258Y-89764531D01*
X155829259Y-89764535D01*
X155883113Y-89894553D01*
X155883114Y-89894555D01*
X155883115Y-89894556D01*
X155968790Y-90006210D01*
X156020289Y-90045726D01*
X156061491Y-90102152D01*
X156065646Y-90171898D01*
X156043178Y-90219587D01*
X155958114Y-90330443D01*
X155904259Y-90460464D01*
X155904258Y-90460468D01*
X155887637Y-90586719D01*
X155885888Y-90600000D01*
X155897144Y-90685500D01*
X155904258Y-90739531D01*
X155904259Y-90739535D01*
X155958113Y-90869553D01*
X155958114Y-90869555D01*
X155958115Y-90869556D01*
X156043790Y-90981210D01*
X156155444Y-91066885D01*
X156155445Y-91066885D01*
X156155446Y-91066886D01*
X156160043Y-91068790D01*
X156285468Y-91120742D01*
X156408766Y-91136974D01*
X156424999Y-91139112D01*
X156425000Y-91139112D01*
X156425001Y-91139112D01*
X156439541Y-91137197D01*
X156564532Y-91120742D01*
X156694556Y-91066885D01*
X156716013Y-91050419D01*
X156781180Y-91025225D01*
X156849625Y-91039262D01*
X156899616Y-91088075D01*
X156915500Y-91148795D01*
X156915500Y-91356588D01*
X156919854Y-91378475D01*
X156933247Y-91445810D01*
X156933247Y-91494190D01*
X156931455Y-91503200D01*
X156915500Y-91583412D01*
X156915500Y-92006588D01*
X156927458Y-92066706D01*
X156933247Y-92095810D01*
X156933247Y-92144190D01*
X156931455Y-92153200D01*
X156915500Y-92233412D01*
X156915500Y-92656588D01*
X156927434Y-92716585D01*
X156933247Y-92745810D01*
X156933247Y-92794190D01*
X156931455Y-92803200D01*
X156915500Y-92883412D01*
X156915500Y-93306588D01*
X156922506Y-93341811D01*
X156933247Y-93395810D01*
X156933247Y-93444190D01*
X156931455Y-93453200D01*
X156915500Y-93533412D01*
X156915500Y-93956588D01*
X156924036Y-93999500D01*
X156933247Y-94045810D01*
X156933247Y-94094190D01*
X156931455Y-94103200D01*
X156915500Y-94183412D01*
X156915500Y-94606588D01*
X156924951Y-94654101D01*
X156933247Y-94695810D01*
X156933247Y-94744190D01*
X156931455Y-94753200D01*
X156915500Y-94833412D01*
X156915500Y-95256588D01*
X156926124Y-95310000D01*
X156933247Y-95345810D01*
X156933247Y-95394190D01*
X156915500Y-95483413D01*
X156915500Y-95906592D01*
X156931453Y-95986797D01*
X156931454Y-95986798D01*
X156931454Y-95986799D01*
X156931455Y-95986800D01*
X156934061Y-95990700D01*
X156992235Y-96077764D01*
X157004762Y-96086134D01*
X157083200Y-96138545D01*
X157083201Y-96138545D01*
X157083202Y-96138546D01*
X157163407Y-96154499D01*
X157163411Y-96154500D01*
X158727604Y-96154500D01*
X158794643Y-96174185D01*
X158840398Y-96226989D01*
X158842147Y-96231007D01*
X158858115Y-96269556D01*
X158943790Y-96381210D01*
X159055444Y-96466885D01*
X159185468Y-96520742D01*
X159308766Y-96536974D01*
X159324999Y-96539112D01*
X159325000Y-96539112D01*
X159325001Y-96539112D01*
X159339541Y-96537197D01*
X159464532Y-96520742D01*
X159594556Y-96466885D01*
X159706210Y-96381210D01*
X159791885Y-96269556D01*
X159795910Y-96259837D01*
X159839750Y-96205434D01*
X159906043Y-96183367D01*
X159938352Y-96189197D01*
X159938720Y-96187352D01*
X159995081Y-96198562D01*
X160024933Y-96204500D01*
X160671500Y-96204499D01*
X160738539Y-96224183D01*
X160784294Y-96276987D01*
X160795500Y-96328499D01*
X160795500Y-96419739D01*
X160818036Y-96503847D01*
X160818038Y-96503853D01*
X160821642Y-96510094D01*
X160838115Y-96577994D01*
X160815262Y-96644021D01*
X160760341Y-96687211D01*
X160706706Y-96695382D01*
X160706706Y-96695500D01*
X160705935Y-96695500D01*
X160704544Y-96695712D01*
X160701845Y-96695500D01*
X160701834Y-96695500D01*
X160338166Y-96695500D01*
X160338161Y-96695500D01*
X160243447Y-96710500D01*
X160197049Y-96734142D01*
X160129277Y-96768674D01*
X160129276Y-96768675D01*
X160129271Y-96768678D01*
X160038678Y-96859271D01*
X160038675Y-96859276D01*
X160038674Y-96859277D01*
X160023178Y-96889690D01*
X159980500Y-96973447D01*
X159965500Y-97068160D01*
X159965500Y-98381839D01*
X159980500Y-98476552D01*
X159999138Y-98513130D01*
X160038674Y-98590723D01*
X160038676Y-98590725D01*
X160038678Y-98590728D01*
X160129271Y-98681321D01*
X160129273Y-98681322D01*
X160129277Y-98681326D01*
X160243445Y-98739498D01*
X160243446Y-98739498D01*
X160243448Y-98739499D01*
X160243447Y-98739499D01*
X160338161Y-98754500D01*
X160338166Y-98754500D01*
X160701839Y-98754500D01*
X160796552Y-98739499D01*
X160796553Y-98739498D01*
X160796555Y-98739498D01*
X160910723Y-98681326D01*
X161001326Y-98590723D01*
X161059498Y-98476555D01*
X161059498Y-98476553D01*
X161059499Y-98476552D01*
X161074500Y-98381839D01*
X161074500Y-98341542D01*
X161094185Y-98274503D01*
X161146989Y-98228748D01*
X161216147Y-98218804D01*
X161279703Y-98247829D01*
X161286181Y-98253861D01*
X161916139Y-98883819D01*
X161949624Y-98945142D01*
X161944640Y-99014834D01*
X161902768Y-99070767D01*
X161837304Y-99095184D01*
X161828458Y-99095500D01*
X161421748Y-99095500D01*
X161421742Y-99095501D01*
X161361655Y-99101960D01*
X161225738Y-99152655D01*
X161225730Y-99152660D01*
X161109595Y-99239595D01*
X161028839Y-99347476D01*
X161022658Y-99355733D01*
X160971960Y-99491658D01*
X160971959Y-99491662D01*
X160965500Y-99551728D01*
X160965500Y-100948251D01*
X160965501Y-100948257D01*
X160971960Y-101008344D01*
X161022655Y-101144261D01*
X161022656Y-101144264D01*
X161022658Y-101144267D01*
X161042770Y-101171134D01*
X161109595Y-101260404D01*
X161150329Y-101290896D01*
X161225733Y-101347342D01*
X161361658Y-101398040D01*
X161421745Y-101404500D01*
X162218254Y-101404499D01*
X162278342Y-101398040D01*
X162414267Y-101347342D01*
X162530404Y-101260404D01*
X162617342Y-101144267D01*
X162668040Y-101008342D01*
X162673961Y-100953271D01*
X162674499Y-100948271D01*
X162674499Y-100948264D01*
X162674500Y-100948255D01*
X162674499Y-99941540D01*
X162694183Y-99874502D01*
X162746987Y-99828747D01*
X162816146Y-99818803D01*
X162879702Y-99847828D01*
X162886180Y-99853860D01*
X163741033Y-100708713D01*
X163741043Y-100708724D01*
X163745373Y-100713054D01*
X163745374Y-100713055D01*
X163806945Y-100774626D01*
X163882354Y-100818164D01*
X163894851Y-100821512D01*
X163904879Y-100824199D01*
X163904883Y-100824200D01*
X163904891Y-100824202D01*
X163966463Y-100840701D01*
X163966464Y-100840701D01*
X163966500Y-100840701D01*
X163966529Y-100840709D01*
X163974522Y-100841762D01*
X163974357Y-100843008D01*
X164033539Y-100860386D01*
X164079294Y-100913190D01*
X164090500Y-100964701D01*
X164090500Y-101240336D01*
X164093928Y-101275186D01*
X164095473Y-101290896D01*
X164095474Y-101290902D01*
X164104887Y-101338291D01*
X164109148Y-101352342D01*
X164119674Y-101387053D01*
X164119761Y-101387263D01*
X164119824Y-101387415D01*
X164119832Y-101387456D01*
X164119839Y-101387470D01*
X164119846Y-101387468D01*
X164119952Y-101387724D01*
X164119963Y-101387748D01*
X164131790Y-101412455D01*
X164131792Y-101412458D01*
X164144468Y-101435702D01*
X164144470Y-101435705D01*
X164144473Y-101435710D01*
X164209351Y-101513429D01*
X164263728Y-101557301D01*
X164327513Y-101595145D01*
X164327987Y-101595341D01*
X164376447Y-101610033D01*
X164423963Y-101619499D01*
X164423968Y-101619499D01*
X164423971Y-101619500D01*
X164441238Y-101621203D01*
X164474664Y-101624500D01*
X164474673Y-101624500D01*
X166276000Y-101624500D01*
X166343039Y-101644185D01*
X166388794Y-101696989D01*
X166400000Y-101748500D01*
X166400000Y-102675336D01*
X166390498Y-102722938D01*
X166390390Y-102723202D01*
X166390303Y-102723411D01*
X166346389Y-102777755D01*
X166323411Y-102790302D01*
X166322938Y-102790498D01*
X166275336Y-102800000D01*
X143824664Y-102800000D01*
X143777148Y-102790534D01*
X143776674Y-102790338D01*
X143722297Y-102746466D01*
X143709610Y-102723202D01*
X143709502Y-102722942D01*
X143709415Y-102722732D01*
X143700000Y-102675336D01*
X143700000Y-101628500D01*
X143719685Y-101561461D01*
X143772489Y-101515706D01*
X143824000Y-101504500D01*
X145615332Y-101504500D01*
X145615336Y-101504500D01*
X145666134Y-101499480D01*
X145713736Y-101489978D01*
X145762278Y-101475231D01*
X145762751Y-101475035D01*
X145787777Y-101463059D01*
X145810755Y-101450512D01*
X145888227Y-101385855D01*
X145932141Y-101331511D01*
X145969875Y-101268137D01*
X145969962Y-101267928D01*
X145970569Y-101266457D01*
X145970677Y-101266193D01*
X145984978Y-101218736D01*
X145994480Y-101171134D01*
X145999500Y-101120336D01*
X145999500Y-99664663D01*
X145994480Y-99613870D01*
X145984979Y-99566269D01*
X145982081Y-99556728D01*
X147475500Y-99556728D01*
X147475500Y-100953251D01*
X147475501Y-100953257D01*
X147481960Y-101013344D01*
X147532655Y-101149261D01*
X147532656Y-101149264D01*
X147532658Y-101149267D01*
X147549027Y-101171134D01*
X147619595Y-101265404D01*
X147677443Y-101308707D01*
X147735733Y-101352342D01*
X147871658Y-101403040D01*
X147931745Y-101409500D01*
X148728254Y-101409499D01*
X148788342Y-101403040D01*
X148924267Y-101352342D01*
X149040404Y-101265404D01*
X149127342Y-101149267D01*
X149178040Y-101013342D01*
X149182277Y-100973935D01*
X149184499Y-100953271D01*
X149184499Y-100953264D01*
X149184500Y-100953255D01*
X149184499Y-99556746D01*
X149178040Y-99496658D01*
X149162342Y-99454571D01*
X149127344Y-99360738D01*
X149127343Y-99360737D01*
X149127342Y-99360733D01*
X149083707Y-99302443D01*
X149040404Y-99244595D01*
X148949400Y-99176472D01*
X148924267Y-99157658D01*
X148788342Y-99106960D01*
X148788338Y-99106959D01*
X148728263Y-99100500D01*
X147931748Y-99100500D01*
X147931742Y-99100501D01*
X147871655Y-99106960D01*
X147735738Y-99157655D01*
X147735730Y-99157660D01*
X147619595Y-99244595D01*
X147536401Y-99355733D01*
X147532658Y-99360733D01*
X147481960Y-99496658D01*
X147481959Y-99496662D01*
X147475500Y-99556728D01*
X145982081Y-99556728D01*
X145970245Y-99517753D01*
X145970047Y-99517275D01*
X145969942Y-99517056D01*
X145957943Y-99492008D01*
X145957942Y-99492005D01*
X145945268Y-99468846D01*
X145945266Y-99468844D01*
X145945264Y-99468840D01*
X145880364Y-99391295D01*
X145880358Y-99391289D01*
X145836199Y-99355738D01*
X145825935Y-99347475D01*
X145825934Y-99347474D01*
X145825931Y-99347472D01*
X145762471Y-99309847D01*
X145762463Y-99309844D01*
X145761999Y-99309651D01*
X145761990Y-99309648D01*
X145713298Y-99294889D01*
X145713292Y-99294887D01*
X145665913Y-99285475D01*
X145665898Y-99285473D01*
X145665897Y-99285473D01*
X145615336Y-99280500D01*
X143824664Y-99280500D01*
X143824000Y-99280500D01*
X143756961Y-99260815D01*
X143711206Y-99208011D01*
X143700000Y-99156500D01*
X143700000Y-99083500D01*
X143719685Y-99016461D01*
X143772489Y-98970706D01*
X143824000Y-98959500D01*
X145615332Y-98959500D01*
X145615336Y-98959500D01*
X145666134Y-98954480D01*
X145713736Y-98944978D01*
X145762278Y-98930231D01*
X145762751Y-98930035D01*
X145787777Y-98918059D01*
X145810755Y-98905512D01*
X145888227Y-98840855D01*
X145932141Y-98786511D01*
X145969875Y-98723137D01*
X145969962Y-98722928D01*
X145970569Y-98721457D01*
X145970677Y-98721193D01*
X145984978Y-98673736D01*
X145994480Y-98626134D01*
X145999500Y-98575336D01*
X145999500Y-98304700D01*
X146019185Y-98237661D01*
X146071989Y-98191906D01*
X146123500Y-98180700D01*
X146793535Y-98180700D01*
X146793537Y-98180700D01*
X146793538Y-98180700D01*
X146877646Y-98158164D01*
X146953055Y-98114626D01*
X147014626Y-98053055D01*
X147014626Y-98053053D01*
X147024830Y-98042850D01*
X147024834Y-98042845D01*
X147718420Y-97349258D01*
X147779741Y-97315775D01*
X147849433Y-97320759D01*
X147905366Y-97362631D01*
X147920660Y-97389487D01*
X147933115Y-97419556D01*
X148018790Y-97531210D01*
X148130444Y-97616885D01*
X148260468Y-97670742D01*
X148383766Y-97686974D01*
X148399999Y-97689112D01*
X148400000Y-97689112D01*
X148400001Y-97689112D01*
X148414541Y-97687197D01*
X148539532Y-97670742D01*
X148669556Y-97616885D01*
X148781210Y-97531210D01*
X148853125Y-97437488D01*
X148909552Y-97396286D01*
X148979298Y-97392131D01*
X149040218Y-97426343D01*
X149072971Y-97488060D01*
X149075500Y-97512975D01*
X149075500Y-98386839D01*
X149090500Y-98481552D01*
X149090502Y-98481555D01*
X149148674Y-98595723D01*
X149148676Y-98595725D01*
X149148678Y-98595728D01*
X149239271Y-98686321D01*
X149239273Y-98686322D01*
X149239277Y-98686326D01*
X149353445Y-98744498D01*
X149353446Y-98744498D01*
X149353448Y-98744499D01*
X149353447Y-98744499D01*
X149448161Y-98759500D01*
X149762720Y-98759500D01*
X149829759Y-98779185D01*
X149850401Y-98795819D01*
X150903295Y-99848713D01*
X150903305Y-99848724D01*
X150907635Y-99853054D01*
X150907636Y-99853055D01*
X150969207Y-99914626D01*
X151044616Y-99958164D01*
X151057113Y-99961512D01*
X151067141Y-99964199D01*
X151067145Y-99964200D01*
X151067153Y-99964202D01*
X151128725Y-99980701D01*
X151128726Y-99980701D01*
X151223395Y-99980701D01*
X151223411Y-99980700D01*
X151792910Y-99980700D01*
X151859949Y-100000385D01*
X151894960Y-100034260D01*
X151931500Y-100087199D01*
X151931506Y-100087205D01*
X152050469Y-100192598D01*
X152050471Y-100192599D01*
X152191207Y-100266463D01*
X152268368Y-100285481D01*
X152345528Y-100304500D01*
X152345529Y-100304500D01*
X152504472Y-100304500D01*
X152555911Y-100291821D01*
X152658793Y-100266463D01*
X152799529Y-100192599D01*
X152869273Y-100130810D01*
X152932504Y-100101089D01*
X153001768Y-100110271D01*
X153055072Y-100155442D01*
X153075493Y-100222261D01*
X153075500Y-100223625D01*
X153075500Y-100953251D01*
X153075501Y-100953257D01*
X153081960Y-101013344D01*
X153132655Y-101149261D01*
X153132656Y-101149264D01*
X153132658Y-101149267D01*
X153149027Y-101171134D01*
X153219595Y-101265404D01*
X153277443Y-101308707D01*
X153335733Y-101352342D01*
X153471658Y-101403040D01*
X153531745Y-101409500D01*
X154328254Y-101409499D01*
X154388342Y-101403040D01*
X154524267Y-101352342D01*
X154640404Y-101265404D01*
X154727342Y-101149267D01*
X154778040Y-101013342D01*
X154782277Y-100973935D01*
X154784499Y-100953271D01*
X154784499Y-100953264D01*
X154784500Y-100953255D01*
X154784499Y-99556746D01*
X154778040Y-99496658D01*
X154762342Y-99454571D01*
X154727344Y-99360738D01*
X154727343Y-99360737D01*
X154727342Y-99360733D01*
X154689521Y-99310209D01*
X154665105Y-99244745D01*
X154679957Y-99176472D01*
X154729363Y-99127067D01*
X154788789Y-99111900D01*
X155357468Y-99111900D01*
X155424507Y-99131585D01*
X155470262Y-99184389D01*
X155480206Y-99253547D01*
X155456736Y-99310209D01*
X155422660Y-99355729D01*
X155422660Y-99355730D01*
X155422658Y-99355733D01*
X155371960Y-99491658D01*
X155371959Y-99491662D01*
X155365500Y-99551728D01*
X155365500Y-100948251D01*
X155365501Y-100948257D01*
X155371960Y-101008344D01*
X155422655Y-101144261D01*
X155422656Y-101144264D01*
X155422658Y-101144267D01*
X155442770Y-101171134D01*
X155509595Y-101260404D01*
X155550329Y-101290896D01*
X155625733Y-101347342D01*
X155761658Y-101398040D01*
X155821745Y-101404500D01*
X156618254Y-101404499D01*
X156678342Y-101398040D01*
X156814267Y-101347342D01*
X156930404Y-101260404D01*
X157017342Y-101144267D01*
X157068040Y-101008342D01*
X157073961Y-100953271D01*
X157074499Y-100948271D01*
X157074499Y-100948264D01*
X157074500Y-100948255D01*
X157074499Y-99551746D01*
X157068040Y-99491658D01*
X157059795Y-99469553D01*
X157017344Y-99355738D01*
X157017343Y-99355737D01*
X157017342Y-99355733D01*
X157008214Y-99343539D01*
X156983264Y-99310209D01*
X156958848Y-99244744D01*
X156973701Y-99176472D01*
X157023107Y-99127067D01*
X157082532Y-99111900D01*
X157885073Y-99111900D01*
X157885075Y-99111900D01*
X157885076Y-99111900D01*
X157885078Y-99111899D01*
X157893130Y-99110839D01*
X157893376Y-99112714D01*
X157952801Y-99114120D01*
X158010669Y-99153274D01*
X158038001Y-99216052D01*
X158045960Y-99276500D01*
X158051594Y-99319300D01*
X158054258Y-99339530D01*
X158054259Y-99339535D01*
X158108113Y-99469553D01*
X158108114Y-99469555D01*
X158108115Y-99469556D01*
X158193790Y-99581210D01*
X158305444Y-99666885D01*
X158435468Y-99720742D01*
X158558766Y-99736974D01*
X158574999Y-99739112D01*
X158575000Y-99739112D01*
X158575001Y-99739112D01*
X158589541Y-99737197D01*
X158714532Y-99720742D01*
X158844556Y-99666885D01*
X158956210Y-99581210D01*
X159041885Y-99469556D01*
X159095742Y-99339532D01*
X159114112Y-99200000D01*
X159095742Y-99060468D01*
X159041885Y-98930444D01*
X158956210Y-98818790D01*
X158956205Y-98818786D01*
X158952411Y-98814991D01*
X158918929Y-98753666D01*
X158923918Y-98683974D01*
X158952417Y-98639632D01*
X159001322Y-98590727D01*
X159001326Y-98590723D01*
X159059498Y-98476555D01*
X159059498Y-98476553D01*
X159059499Y-98476552D01*
X159074500Y-98381839D01*
X159074500Y-97068160D01*
X159059499Y-96973447D01*
X159048575Y-96952008D01*
X159001326Y-96859277D01*
X159001322Y-96859273D01*
X159001321Y-96859271D01*
X158910728Y-96768678D01*
X158910725Y-96768676D01*
X158910723Y-96768674D01*
X158796555Y-96710502D01*
X158796554Y-96710501D01*
X158796551Y-96710500D01*
X158796552Y-96710500D01*
X158701839Y-96695500D01*
X158701834Y-96695500D01*
X158338166Y-96695500D01*
X158338161Y-96695500D01*
X158243447Y-96710500D01*
X158197049Y-96734142D01*
X158129277Y-96768674D01*
X158129276Y-96768675D01*
X158129271Y-96768678D01*
X158107681Y-96790269D01*
X158046358Y-96823754D01*
X157976666Y-96818770D01*
X157932319Y-96790269D01*
X157910728Y-96768678D01*
X157910725Y-96768676D01*
X157910723Y-96768674D01*
X157796555Y-96710502D01*
X157796554Y-96710501D01*
X157796551Y-96710500D01*
X157796552Y-96710500D01*
X157701839Y-96695500D01*
X157701834Y-96695500D01*
X157338166Y-96695500D01*
X157338161Y-96695500D01*
X157243447Y-96710500D01*
X157197049Y-96734142D01*
X157129277Y-96768674D01*
X157129276Y-96768675D01*
X157129271Y-96768678D01*
X157038678Y-96859271D01*
X157038675Y-96859276D01*
X157038674Y-96859277D01*
X157023178Y-96889690D01*
X156980500Y-96973447D01*
X156965500Y-97068160D01*
X156965500Y-97226267D01*
X156945815Y-97293306D01*
X156893011Y-97339061D01*
X156823853Y-97349005D01*
X156783875Y-97336064D01*
X156702406Y-97293306D01*
X156683793Y-97283537D01*
X156683792Y-97283536D01*
X156683791Y-97283536D01*
X156529472Y-97245500D01*
X156529471Y-97245500D01*
X156370529Y-97245500D01*
X156370528Y-97245500D01*
X156216208Y-97283536D01*
X156075469Y-97357401D01*
X155956506Y-97462794D01*
X155956500Y-97462801D01*
X155866214Y-97593602D01*
X155809850Y-97742218D01*
X155790693Y-97899999D01*
X155790693Y-97900000D01*
X155809850Y-98057781D01*
X155866214Y-98206397D01*
X155900494Y-98256060D01*
X155922377Y-98322415D01*
X155904911Y-98390066D01*
X155853644Y-98437536D01*
X155798444Y-98450500D01*
X153308500Y-98450500D01*
X153241461Y-98430815D01*
X153195706Y-98378011D01*
X153184500Y-98326500D01*
X153184500Y-97073160D01*
X153169499Y-96978447D01*
X153166950Y-96973445D01*
X153111326Y-96864277D01*
X153111322Y-96864273D01*
X153111321Y-96864271D01*
X153020724Y-96773674D01*
X153012829Y-96767938D01*
X153015007Y-96764940D01*
X152977592Y-96729585D01*
X152960700Y-96667103D01*
X152960700Y-96310151D01*
X152980385Y-96243112D01*
X153033189Y-96197357D01*
X153102347Y-96187413D01*
X153165903Y-96216438D01*
X153183069Y-96234657D01*
X153218790Y-96281210D01*
X153330444Y-96366885D01*
X153460468Y-96420742D01*
X153583766Y-96436974D01*
X153599999Y-96439112D01*
X153600000Y-96439112D01*
X153600001Y-96439112D01*
X153614541Y-96437197D01*
X153739532Y-96420742D01*
X153869556Y-96366885D01*
X153981210Y-96281210D01*
X154066885Y-96169556D01*
X154120742Y-96039532D01*
X154139112Y-95900000D01*
X154120742Y-95760468D01*
X154066885Y-95630444D01*
X153981210Y-95518790D01*
X153981208Y-95518789D01*
X153981208Y-95518788D01*
X153969592Y-95509875D01*
X153928391Y-95453446D01*
X153924238Y-95383700D01*
X153946704Y-95336017D01*
X154016885Y-95244556D01*
X154070742Y-95114532D01*
X154082621Y-95024300D01*
X154110887Y-94960404D01*
X154169212Y-94921933D01*
X154189367Y-94917548D01*
X154245232Y-94910194D01*
X154375256Y-94856337D01*
X154486910Y-94770662D01*
X154572585Y-94659008D01*
X154626442Y-94528984D01*
X154644812Y-94389452D01*
X154644731Y-94388840D01*
X154639604Y-94349894D01*
X154626442Y-94249920D01*
X154572585Y-94119896D01*
X154486910Y-94008242D01*
X154375256Y-93922567D01*
X154375255Y-93922566D01*
X154375253Y-93922565D01*
X154245235Y-93868711D01*
X154245233Y-93868710D01*
X154245232Y-93868710D01*
X154175466Y-93859525D01*
X154105701Y-93850340D01*
X154105699Y-93850340D01*
X153966168Y-93868710D01*
X153966164Y-93868711D01*
X153836146Y-93922565D01*
X153724488Y-94008243D01*
X153718699Y-94015789D01*
X153662270Y-94056990D01*
X153620325Y-94064300D01*
X153378500Y-94064300D01*
X153311461Y-94044615D01*
X153265706Y-93991811D01*
X153254500Y-93940300D01*
X153254500Y-93533411D01*
X153254499Y-93533410D01*
X153238545Y-93453200D01*
X153238544Y-93453199D01*
X153236753Y-93444192D01*
X153236753Y-93395808D01*
X153245082Y-93353935D01*
X153254500Y-93306588D01*
X153254500Y-92883412D01*
X153238545Y-92803200D01*
X153238544Y-92803199D01*
X153236753Y-92794192D01*
X153236753Y-92745808D01*
X153242566Y-92716585D01*
X153254500Y-92656588D01*
X153254500Y-92233412D01*
X153238545Y-92153200D01*
X153238544Y-92153199D01*
X153236753Y-92144192D01*
X153236753Y-92095808D01*
X153242541Y-92066710D01*
X153254500Y-92006588D01*
X153254500Y-91583412D01*
X153238545Y-91503200D01*
X153238544Y-91503199D01*
X153236753Y-91494192D01*
X153236753Y-91445808D01*
X153239829Y-91430344D01*
X153254500Y-91356588D01*
X153254500Y-90933412D01*
X153238545Y-90853200D01*
X153238544Y-90853199D01*
X153236753Y-90844192D01*
X153236753Y-90795808D01*
X153243431Y-90762235D01*
X153254500Y-90706588D01*
X153254500Y-90283412D01*
X153238545Y-90203200D01*
X153238544Y-90203199D01*
X153236753Y-90194192D01*
X153236753Y-90145808D01*
X153238545Y-90136798D01*
X153254500Y-90056588D01*
X153254500Y-89633412D01*
X153248394Y-89602715D01*
X153238546Y-89553202D01*
X153238545Y-89553201D01*
X153238545Y-89553200D01*
X153206113Y-89504663D01*
X153177764Y-89462235D01*
X153094482Y-89406588D01*
X153086800Y-89401455D01*
X153086799Y-89401454D01*
X153086798Y-89401454D01*
X153086797Y-89401453D01*
X153006592Y-89385500D01*
X153006588Y-89385500D01*
X151555945Y-89385500D01*
X151488906Y-89365815D01*
X151468264Y-89349181D01*
X150305818Y-88186735D01*
X150272333Y-88125412D01*
X150269499Y-88099054D01*
X150269499Y-87650257D01*
X150269499Y-87650252D01*
X150266621Y-87619549D01*
X150221369Y-87490227D01*
X150144293Y-87385793D01*
X150140010Y-87379989D01*
X150065326Y-87324870D01*
X150029773Y-87298631D01*
X150029771Y-87298630D01*
X149900458Y-87253380D01*
X149900446Y-87253378D01*
X149869753Y-87250500D01*
X149360257Y-87250500D01*
X149344900Y-87251940D01*
X149329549Y-87253379D01*
X149329546Y-87253379D01*
X149329544Y-87253380D01*
X149200226Y-87298631D01*
X149169532Y-87321284D01*
X149103903Y-87345254D01*
X149035733Y-87329938D01*
X148986665Y-87280197D01*
X148971900Y-87221513D01*
X148971900Y-86844400D01*
X148971900Y-86844397D01*
X148949364Y-86760289D01*
X148905826Y-86684880D01*
X148844255Y-86623309D01*
X148839924Y-86618978D01*
X148839913Y-86618968D01*
X148499961Y-86279016D01*
X148499959Y-86279013D01*
X148431322Y-86210376D01*
X148431320Y-86210374D01*
X148355911Y-86166836D01*
X148325931Y-86158803D01*
X148266273Y-86122439D01*
X148235744Y-86059592D01*
X148244039Y-85990216D01*
X148250642Y-85977025D01*
X148251658Y-85975263D01*
X148251664Y-85975256D01*
X148305521Y-85845232D01*
X148323891Y-85705700D01*
X148305521Y-85566168D01*
X148251664Y-85436144D01*
X148165989Y-85324490D01*
X148165984Y-85324486D01*
X148163986Y-85322952D01*
X148162726Y-85321226D01*
X148160239Y-85318739D01*
X148160626Y-85318351D01*
X148122787Y-85266521D01*
X148115479Y-85224581D01*
X148115479Y-81466244D01*
X148115479Y-81466241D01*
X148092943Y-81382133D01*
X148049405Y-81306724D01*
X147987834Y-81245153D01*
X147983503Y-81240822D01*
X147983492Y-81240812D01*
X146616696Y-79874016D01*
X146616694Y-79874013D01*
X146548057Y-79805376D01*
X146548055Y-79805374D01*
X146472646Y-79761836D01*
X146388539Y-79739300D01*
X146388538Y-79739300D01*
X146123500Y-79739300D01*
X146056461Y-79719615D01*
X146010706Y-79666811D01*
X145999500Y-79615300D01*
X145999500Y-79344667D01*
X145999500Y-79344663D01*
X145994480Y-79293870D01*
X145984979Y-79246269D01*
X145970245Y-79197753D01*
X145970047Y-79197275D01*
X145969942Y-79197056D01*
X145957943Y-79172008D01*
X145957942Y-79172005D01*
X145945268Y-79148846D01*
X145945266Y-79148844D01*
X145945264Y-79148840D01*
X145880364Y-79071295D01*
X145880358Y-79071289D01*
X145825936Y-79027476D01*
X145825931Y-79027472D01*
X145762471Y-78989847D01*
X145762463Y-78989844D01*
X145761999Y-78989651D01*
X145761990Y-78989648D01*
X145713298Y-78974889D01*
X145713292Y-78974887D01*
X145665913Y-78965475D01*
X145665898Y-78965473D01*
X145665897Y-78965473D01*
X145615336Y-78960500D01*
X143824664Y-78960500D01*
X143824000Y-78960500D01*
X143756961Y-78940815D01*
X143711206Y-78888011D01*
X143700000Y-78836500D01*
X143700000Y-78763500D01*
X143719685Y-78696461D01*
X143772489Y-78650706D01*
X143824000Y-78639500D01*
X145615332Y-78639500D01*
X145615336Y-78639500D01*
X145666134Y-78634480D01*
X145713736Y-78624978D01*
X145762278Y-78610231D01*
X145762751Y-78610035D01*
X145787777Y-78598059D01*
X145810755Y-78585512D01*
X145888227Y-78520855D01*
X145932141Y-78466511D01*
X145969875Y-78403137D01*
X145969962Y-78402928D01*
X145970569Y-78401457D01*
X145970677Y-78401193D01*
X145984978Y-78353736D01*
X145994480Y-78306134D01*
X145999500Y-78255336D01*
X145999500Y-76804663D01*
X145994480Y-76753870D01*
X145984979Y-76706269D01*
X145970245Y-76657753D01*
X145970047Y-76657275D01*
X145969942Y-76657056D01*
X145957943Y-76632008D01*
X145957942Y-76632005D01*
X145945268Y-76608846D01*
X145945266Y-76608844D01*
X145945264Y-76608840D01*
X145880364Y-76531295D01*
X145880358Y-76531289D01*
X145825936Y-76487476D01*
X145825931Y-76487472D01*
X145762471Y-76449847D01*
X145762463Y-76449844D01*
X145761999Y-76449651D01*
X145761990Y-76449648D01*
X145713298Y-76434889D01*
X145713292Y-76434887D01*
X145665913Y-76425475D01*
X145665898Y-76425473D01*
X145665897Y-76425473D01*
X145615336Y-76420500D01*
X143824664Y-76420500D01*
X143824000Y-76420500D01*
X143756961Y-76400815D01*
X143711206Y-76348011D01*
X143700000Y-76296500D01*
X143700000Y-76223500D01*
X143719685Y-76156461D01*
X143772489Y-76110706D01*
X143824000Y-76099500D01*
X145615332Y-76099500D01*
X145615336Y-76099500D01*
X145666134Y-76094480D01*
X145713736Y-76084978D01*
X145762278Y-76070231D01*
X145762751Y-76070035D01*
X145787777Y-76058059D01*
X145810755Y-76045512D01*
X145888227Y-75980855D01*
X145932141Y-75926511D01*
X145969875Y-75863137D01*
X145969962Y-75862928D01*
X145970569Y-75861457D01*
X145970677Y-75861193D01*
X145984978Y-75813736D01*
X145994480Y-75766134D01*
X145999500Y-75715336D01*
X145999500Y-75444700D01*
X146019185Y-75377661D01*
X146071989Y-75331906D01*
X146123500Y-75320700D01*
X146901658Y-75320700D01*
X146968697Y-75340385D01*
X146989339Y-75357019D01*
X148641033Y-77008713D01*
X148641043Y-77008724D01*
X148706945Y-77074626D01*
X148782356Y-77118165D01*
X148799075Y-77122644D01*
X148799080Y-77122647D01*
X148799081Y-77122646D01*
X148817136Y-77127483D01*
X148866463Y-77140701D01*
X148866464Y-77140701D01*
X148961133Y-77140701D01*
X148961149Y-77140700D01*
X149061500Y-77140700D01*
X149128539Y-77160385D01*
X149174294Y-77213189D01*
X149185500Y-77264700D01*
X149185500Y-77466839D01*
X149200500Y-77561552D01*
X149213749Y-77587554D01*
X149258674Y-77675723D01*
X149258676Y-77675725D01*
X149258678Y-77675728D01*
X149349271Y-77766321D01*
X149349273Y-77766322D01*
X149349277Y-77766326D01*
X149463445Y-77824498D01*
X149463446Y-77824498D01*
X149463448Y-77824499D01*
X149463447Y-77824499D01*
X149558161Y-77839500D01*
X149558166Y-77839500D01*
X149921839Y-77839500D01*
X150016552Y-77824499D01*
X150016553Y-77824498D01*
X150016555Y-77824498D01*
X150130723Y-77766326D01*
X150221326Y-77675723D01*
X150279498Y-77561555D01*
X150279498Y-77561553D01*
X150279499Y-77561552D01*
X150294500Y-77466839D01*
X150294500Y-76153160D01*
X150279499Y-76058447D01*
X150261684Y-76023484D01*
X150221326Y-75944277D01*
X150221322Y-75944273D01*
X150221321Y-75944271D01*
X150130728Y-75853678D01*
X150130725Y-75853676D01*
X150130723Y-75853674D01*
X150016555Y-75795502D01*
X150016554Y-75795501D01*
X150016551Y-75795500D01*
X150016552Y-75795500D01*
X149921839Y-75780500D01*
X149921834Y-75780500D01*
X149558166Y-75780500D01*
X149558161Y-75780500D01*
X149463447Y-75795500D01*
X149387333Y-75834283D01*
X149349277Y-75853674D01*
X149349276Y-75853675D01*
X149349271Y-75853678D01*
X149258678Y-75944271D01*
X149258675Y-75944276D01*
X149258674Y-75944277D01*
X149253579Y-75954277D01*
X149200500Y-76058447D01*
X149185500Y-76153160D01*
X149185500Y-76318458D01*
X149165815Y-76385497D01*
X149113011Y-76431252D01*
X149043853Y-76441196D01*
X148980297Y-76412171D01*
X148973819Y-76406139D01*
X148218860Y-75651180D01*
X148185375Y-75589857D01*
X148190359Y-75520165D01*
X148232231Y-75464232D01*
X148297695Y-75439815D01*
X148306522Y-75439499D01*
X148838254Y-75439499D01*
X148898342Y-75433040D01*
X149034267Y-75382342D01*
X149150404Y-75295404D01*
X149237342Y-75179267D01*
X149288040Y-75043342D01*
X149290800Y-75017664D01*
X149294499Y-74983271D01*
X149294499Y-74983264D01*
X149294500Y-74983255D01*
X149294499Y-73586746D01*
X149288040Y-73526658D01*
X149241072Y-73400733D01*
X149237344Y-73390738D01*
X149237343Y-73390737D01*
X149237342Y-73390733D01*
X149183042Y-73318196D01*
X149150404Y-73274595D01*
X149073126Y-73216747D01*
X149034267Y-73187658D01*
X148898342Y-73136960D01*
X148898338Y-73136959D01*
X148838263Y-73130500D01*
X148041748Y-73130500D01*
X148041742Y-73130501D01*
X147981655Y-73136960D01*
X147845738Y-73187655D01*
X147845730Y-73187660D01*
X147729595Y-73274595D01*
X147642660Y-73390730D01*
X147642658Y-73390733D01*
X147591960Y-73526658D01*
X147591959Y-73526662D01*
X147585500Y-73586728D01*
X147585500Y-74718458D01*
X147565815Y-74785497D01*
X147513011Y-74831252D01*
X147443853Y-74841196D01*
X147380297Y-74812171D01*
X147373819Y-74806139D01*
X147361696Y-74794016D01*
X147361694Y-74794013D01*
X147293057Y-74725376D01*
X147293055Y-74725374D01*
X147217646Y-74681836D01*
X147133539Y-74659300D01*
X147133538Y-74659300D01*
X146123500Y-74659300D01*
X146056461Y-74639615D01*
X146010706Y-74586811D01*
X145999500Y-74535300D01*
X145999500Y-74264667D01*
X145996875Y-74238107D01*
X145994480Y-74213870D01*
X145984979Y-74166269D01*
X145970245Y-74117753D01*
X145970047Y-74117275D01*
X145968925Y-74114933D01*
X145957943Y-74092008D01*
X145957942Y-74092005D01*
X145945268Y-74068846D01*
X145945266Y-74068844D01*
X145945264Y-74068840D01*
X145880364Y-73991295D01*
X145880358Y-73991289D01*
X145825936Y-73947476D01*
X145825931Y-73947472D01*
X145762471Y-73909847D01*
X145762463Y-73909844D01*
X145761999Y-73909651D01*
X145761990Y-73909648D01*
X145713298Y-73894889D01*
X145713292Y-73894887D01*
X145665913Y-73885475D01*
X145665898Y-73885473D01*
X145665897Y-73885473D01*
X145615336Y-73880500D01*
X143824664Y-73880500D01*
X143824000Y-73880500D01*
X143756961Y-73860815D01*
X143711206Y-73808011D01*
X143700000Y-73756500D01*
X143700000Y-69974792D01*
X143709458Y-69927293D01*
X143709650Y-69926830D01*
X143753513Y-69872444D01*
X143776780Y-69859751D01*
X143777244Y-69859559D01*
X143824792Y-69850137D01*
X150006674Y-69856945D01*
G37*
%TD.AperFunction*%
%TA.AperFunction,Conductor*%
G36*
X151165038Y-95961805D02*
G01*
X151196214Y-95993922D01*
X151252235Y-96077764D01*
X151264762Y-96086134D01*
X151343200Y-96138545D01*
X151343201Y-96138545D01*
X151343202Y-96138546D01*
X151423407Y-96154499D01*
X151423411Y-96154500D01*
X151423412Y-96154500D01*
X152155458Y-96154500D01*
X152222497Y-96174185D01*
X152243139Y-96190819D01*
X152262981Y-96210661D01*
X152296466Y-96271984D01*
X152299300Y-96298342D01*
X152299300Y-96667103D01*
X152279615Y-96734142D01*
X152245227Y-96765262D01*
X152247171Y-96767938D01*
X152239276Y-96773674D01*
X152148678Y-96864271D01*
X152148675Y-96864276D01*
X152148674Y-96864277D01*
X152130000Y-96900926D01*
X152090500Y-96978447D01*
X152075500Y-97073160D01*
X152075500Y-98326500D01*
X152055815Y-98393539D01*
X152003011Y-98439294D01*
X151951500Y-98450500D01*
X151308500Y-98450500D01*
X151241461Y-98430815D01*
X151195706Y-98378011D01*
X151184500Y-98326500D01*
X151184500Y-97073160D01*
X151169499Y-96978447D01*
X151166950Y-96973445D01*
X151111326Y-96864277D01*
X151111322Y-96864273D01*
X151111321Y-96864271D01*
X151020728Y-96773678D01*
X151020725Y-96773676D01*
X151020723Y-96773674D01*
X150906555Y-96715502D01*
X150906554Y-96715501D01*
X150906551Y-96715500D01*
X150906552Y-96715500D01*
X150811839Y-96700500D01*
X150811834Y-96700500D01*
X150448166Y-96700500D01*
X150448161Y-96700500D01*
X150353447Y-96715500D01*
X150294661Y-96745454D01*
X150239277Y-96773674D01*
X150239276Y-96773675D01*
X150239271Y-96773678D01*
X150217681Y-96795269D01*
X150156358Y-96828754D01*
X150086666Y-96823770D01*
X150042319Y-96795269D01*
X150020728Y-96773678D01*
X150020725Y-96773676D01*
X150020723Y-96773674D01*
X149906555Y-96715502D01*
X149906554Y-96715501D01*
X149906551Y-96715500D01*
X149906552Y-96715500D01*
X149811839Y-96700500D01*
X149811834Y-96700500D01*
X149448166Y-96700500D01*
X149448159Y-96700500D01*
X149392697Y-96709284D01*
X149323404Y-96700329D01*
X149269952Y-96655333D01*
X149249313Y-96588581D01*
X149249300Y-96586811D01*
X149249300Y-96288499D01*
X149268985Y-96221460D01*
X149321789Y-96175705D01*
X149373295Y-96164499D01*
X150115066Y-96164499D01*
X150189301Y-96149734D01*
X150273484Y-96093484D01*
X150305340Y-96045809D01*
X150358952Y-96001004D01*
X150408442Y-95990700D01*
X150924938Y-95990700D01*
X150924940Y-95990700D01*
X150924941Y-95990700D01*
X151009049Y-95968164D01*
X151020063Y-95961805D01*
X151031111Y-95955427D01*
X151099010Y-95938953D01*
X151165038Y-95961805D01*
G37*
%TD.AperFunction*%
%TA.AperFunction,Conductor*%
G36*
X145973890Y-91243776D02*
G01*
X146025838Y-91290501D01*
X146044300Y-91355598D01*
X146044300Y-91430125D01*
X146066836Y-91514232D01*
X146110374Y-91589641D01*
X146110376Y-91589643D01*
X146179010Y-91658277D01*
X146179016Y-91658282D01*
X147085647Y-92564913D01*
X147085657Y-92564924D01*
X147089988Y-92569255D01*
X147151559Y-92630826D01*
X147226968Y-92674364D01*
X147311076Y-92696900D01*
X147311079Y-92696900D01*
X148961134Y-92696900D01*
X149028173Y-92716585D01*
X149073928Y-92769389D01*
X149083872Y-92838547D01*
X149064234Y-92889794D01*
X149046893Y-92915745D01*
X149005794Y-92954237D01*
X148956424Y-92982742D01*
X148934545Y-92995374D01*
X148934542Y-92995376D01*
X148301576Y-93628342D01*
X148301574Y-93628345D01*
X148258036Y-93703753D01*
X148235500Y-93787860D01*
X148235500Y-95845458D01*
X148215815Y-95912497D01*
X148199181Y-95933139D01*
X146649339Y-97482981D01*
X146588016Y-97516466D01*
X146561658Y-97519300D01*
X146123500Y-97519300D01*
X146056461Y-97499615D01*
X146010706Y-97446811D01*
X145999500Y-97395300D01*
X145999500Y-97124667D01*
X145999500Y-97124663D01*
X145994480Y-97073870D01*
X145984979Y-97026269D01*
X145970245Y-96977753D01*
X145970047Y-96977275D01*
X145969942Y-96977056D01*
X145957943Y-96952008D01*
X145957942Y-96952005D01*
X145945268Y-96928846D01*
X145945266Y-96928844D01*
X145945264Y-96928840D01*
X145880364Y-96851295D01*
X145880358Y-96851289D01*
X145852366Y-96828754D01*
X145825935Y-96807475D01*
X145825934Y-96807474D01*
X145825931Y-96807472D01*
X145762471Y-96769847D01*
X145762463Y-96769844D01*
X145761999Y-96769651D01*
X145761990Y-96769648D01*
X145713298Y-96754889D01*
X145713292Y-96754887D01*
X145665913Y-96745475D01*
X145665898Y-96745473D01*
X145665897Y-96745473D01*
X145615336Y-96740500D01*
X143824664Y-96740500D01*
X143824000Y-96740500D01*
X143756961Y-96720815D01*
X143711206Y-96668011D01*
X143700000Y-96616500D01*
X143700000Y-96543500D01*
X143719685Y-96476461D01*
X143772489Y-96430706D01*
X143824000Y-96419500D01*
X145615332Y-96419500D01*
X145615336Y-96419500D01*
X145666134Y-96414480D01*
X145713736Y-96404978D01*
X145762278Y-96390231D01*
X145762751Y-96390035D01*
X145787777Y-96378059D01*
X145810755Y-96365512D01*
X145888227Y-96300855D01*
X145932141Y-96246511D01*
X145969875Y-96183137D01*
X145969962Y-96182928D01*
X145970569Y-96181457D01*
X145970677Y-96181193D01*
X145984978Y-96133736D01*
X145994480Y-96086134D01*
X145999500Y-96035336D01*
X145999500Y-94584663D01*
X145994480Y-94533870D01*
X145984979Y-94486269D01*
X145970245Y-94437753D01*
X145970047Y-94437275D01*
X145969942Y-94437056D01*
X145957943Y-94412008D01*
X145957942Y-94412005D01*
X145945268Y-94388846D01*
X145945266Y-94388844D01*
X145945264Y-94388840D01*
X145880364Y-94311295D01*
X145880358Y-94311289D01*
X145825936Y-94267476D01*
X145825931Y-94267472D01*
X145762471Y-94229847D01*
X145762463Y-94229844D01*
X145761999Y-94229651D01*
X145761990Y-94229648D01*
X145713298Y-94214889D01*
X145713292Y-94214887D01*
X145665913Y-94205475D01*
X145665898Y-94205473D01*
X145665897Y-94205473D01*
X145615336Y-94200500D01*
X143824664Y-94200500D01*
X143824000Y-94200500D01*
X143756961Y-94180815D01*
X143711206Y-94128011D01*
X143700000Y-94076500D01*
X143700000Y-94003500D01*
X143719685Y-93936461D01*
X143772489Y-93890706D01*
X143824000Y-93879500D01*
X145615332Y-93879500D01*
X145615336Y-93879500D01*
X145666134Y-93874480D01*
X145713736Y-93864978D01*
X145762278Y-93850231D01*
X145762751Y-93850035D01*
X145787777Y-93838059D01*
X145810755Y-93825512D01*
X145888227Y-93760855D01*
X145932141Y-93706511D01*
X145969875Y-93643137D01*
X145969962Y-93642928D01*
X145970569Y-93641457D01*
X145970677Y-93641193D01*
X145984978Y-93593736D01*
X145994480Y-93546134D01*
X145999500Y-93495336D01*
X145999500Y-92314360D01*
X145998944Y-92297386D01*
X145998008Y-92283105D01*
X145998008Y-92266892D01*
X145998944Y-92252614D01*
X145999500Y-92235639D01*
X145999500Y-92044663D01*
X145994480Y-91993870D01*
X145984979Y-91946269D01*
X145970245Y-91897753D01*
X145970047Y-91897275D01*
X145969942Y-91897056D01*
X145957943Y-91872008D01*
X145957942Y-91872005D01*
X145945268Y-91848846D01*
X145945266Y-91848844D01*
X145945264Y-91848840D01*
X145880364Y-91771295D01*
X145880358Y-91771289D01*
X145825936Y-91727476D01*
X145825931Y-91727472D01*
X145762471Y-91689847D01*
X145762463Y-91689844D01*
X145761999Y-91689651D01*
X145761990Y-91689648D01*
X145713298Y-91674889D01*
X145713292Y-91674887D01*
X145665913Y-91665475D01*
X145665898Y-91665473D01*
X145665897Y-91665473D01*
X145615336Y-91660500D01*
X143824664Y-91660500D01*
X143824000Y-91660500D01*
X143756961Y-91640815D01*
X143711206Y-91588011D01*
X143700000Y-91536500D01*
X143700000Y-91463500D01*
X143719685Y-91396461D01*
X143772489Y-91350706D01*
X143824000Y-91339500D01*
X145615332Y-91339500D01*
X145615336Y-91339500D01*
X145666134Y-91334480D01*
X145713736Y-91324978D01*
X145762278Y-91310231D01*
X145762751Y-91310035D01*
X145787777Y-91298059D01*
X145810755Y-91285512D01*
X145840847Y-91260397D01*
X145904928Y-91232555D01*
X145973890Y-91243776D01*
G37*
%TD.AperFunction*%
%TA.AperFunction,Conductor*%
G36*
X164033539Y-90700385D02*
G01*
X164079294Y-90753189D01*
X164090500Y-90804700D01*
X164090500Y-91075336D01*
X164094420Y-91115186D01*
X164095473Y-91125896D01*
X164095474Y-91125902D01*
X164104887Y-91173291D01*
X164104888Y-91173293D01*
X164119674Y-91222053D01*
X164119761Y-91222263D01*
X164119824Y-91222415D01*
X164119832Y-91222456D01*
X164119839Y-91222470D01*
X164119846Y-91222468D01*
X164119952Y-91222724D01*
X164119963Y-91222748D01*
X164131790Y-91247455D01*
X164131792Y-91247458D01*
X164144468Y-91270702D01*
X164144470Y-91270705D01*
X164144473Y-91270710D01*
X164204772Y-91342944D01*
X164209352Y-91348430D01*
X164219465Y-91356589D01*
X164263728Y-91392301D01*
X164327513Y-91430145D01*
X164327987Y-91430341D01*
X164376447Y-91445033D01*
X164423963Y-91454499D01*
X164423968Y-91454499D01*
X164423971Y-91454500D01*
X164441238Y-91456203D01*
X164474664Y-91459500D01*
X164474673Y-91459500D01*
X166276000Y-91459500D01*
X166343039Y-91479185D01*
X166388794Y-91531989D01*
X166400000Y-91583500D01*
X166400000Y-91656500D01*
X166380315Y-91723539D01*
X166327511Y-91769294D01*
X166276000Y-91780500D01*
X166275336Y-91780500D01*
X164474664Y-91780500D01*
X164424200Y-91785454D01*
X164424195Y-91785455D01*
X164376883Y-91794834D01*
X164376882Y-91794834D01*
X164327911Y-91809690D01*
X164327907Y-91809692D01*
X164327905Y-91809692D01*
X164327901Y-91809694D01*
X164327419Y-91809894D01*
X164327400Y-91809902D01*
X164302594Y-91821774D01*
X164302567Y-91821788D01*
X164279250Y-91834509D01*
X164279251Y-91834510D01*
X164278952Y-91834673D01*
X164201291Y-91899637D01*
X164201290Y-91899638D01*
X164157476Y-91954060D01*
X164119804Y-92017632D01*
X164119803Y-92017634D01*
X164119610Y-92018101D01*
X164104888Y-92066703D01*
X164104887Y-92066710D01*
X164095475Y-92114084D01*
X164095473Y-92114101D01*
X164090500Y-92164663D01*
X164090500Y-93615336D01*
X164094420Y-93655186D01*
X164095473Y-93665896D01*
X164095474Y-93665902D01*
X164104887Y-93713291D01*
X164104888Y-93713293D01*
X164119674Y-93762053D01*
X164119761Y-93762263D01*
X164119824Y-93762415D01*
X164119832Y-93762456D01*
X164119839Y-93762470D01*
X164119846Y-93762468D01*
X164119952Y-93762724D01*
X164119963Y-93762748D01*
X164131790Y-93787455D01*
X164131792Y-93787458D01*
X164144468Y-93810702D01*
X164144470Y-93810705D01*
X164144473Y-93810710D01*
X164209351Y-93888429D01*
X164263728Y-93932301D01*
X164327513Y-93970145D01*
X164327987Y-93970341D01*
X164376447Y-93985033D01*
X164423963Y-93994499D01*
X164423968Y-93994499D01*
X164423971Y-93994500D01*
X164441238Y-93996203D01*
X164474664Y-93999500D01*
X164474673Y-93999500D01*
X166276000Y-93999500D01*
X166343039Y-94019185D01*
X166388794Y-94071989D01*
X166400000Y-94123500D01*
X166400000Y-94196500D01*
X166380315Y-94263539D01*
X166327511Y-94309294D01*
X166276000Y-94320500D01*
X166275336Y-94320500D01*
X164474664Y-94320500D01*
X164424200Y-94325454D01*
X164424195Y-94325455D01*
X164376883Y-94334834D01*
X164376882Y-94334834D01*
X164327911Y-94349690D01*
X164327907Y-94349692D01*
X164327905Y-94349692D01*
X164327901Y-94349694D01*
X164327419Y-94349894D01*
X164327400Y-94349902D01*
X164302594Y-94361774D01*
X164302567Y-94361788D01*
X164279250Y-94374509D01*
X164279251Y-94374510D01*
X164278952Y-94374673D01*
X164201291Y-94439637D01*
X164201290Y-94439638D01*
X164157476Y-94494060D01*
X164119804Y-94557632D01*
X164119803Y-94557634D01*
X164119610Y-94558101D01*
X164104888Y-94606703D01*
X164104887Y-94606710D01*
X164095475Y-94654084D01*
X164095473Y-94654101D01*
X164090500Y-94704668D01*
X164090500Y-95771500D01*
X164070815Y-95838539D01*
X164018011Y-95884294D01*
X163966500Y-95895500D01*
X161933300Y-95895500D01*
X161866261Y-95875815D01*
X161820506Y-95823011D01*
X161809300Y-95771500D01*
X161809300Y-93932665D01*
X161809300Y-93932662D01*
X161786764Y-93848554D01*
X161743226Y-93773145D01*
X161681655Y-93711574D01*
X161677324Y-93707243D01*
X161677313Y-93707233D01*
X161140818Y-93170738D01*
X161107333Y-93109415D01*
X161104499Y-93083057D01*
X161104499Y-93024936D01*
X161104499Y-93024934D01*
X161089734Y-92950699D01*
X161049038Y-92889794D01*
X161033484Y-92866515D01*
X160956518Y-92815088D01*
X160911713Y-92761475D01*
X160903006Y-92692150D01*
X160927033Y-92636501D01*
X160997585Y-92544556D01*
X161051442Y-92414532D01*
X161069812Y-92275000D01*
X161069484Y-92272510D01*
X161069812Y-92270406D01*
X161069812Y-92266871D01*
X161070363Y-92266871D01*
X161080245Y-92203475D01*
X161104738Y-92168640D01*
X162556361Y-90717019D01*
X162617684Y-90683534D01*
X162644042Y-90680700D01*
X163966500Y-90680700D01*
X164033539Y-90700385D01*
G37*
%TD.AperFunction*%
%TA.AperFunction,Conductor*%
G36*
X146910903Y-88542477D02*
G01*
X146917381Y-88548509D01*
X147298785Y-88929913D01*
X147298795Y-88929924D01*
X147303126Y-88934255D01*
X147364697Y-88995826D01*
X147440106Y-89039364D01*
X147524214Y-89061900D01*
X147524215Y-89061900D01*
X147611289Y-89061900D01*
X148061658Y-89061900D01*
X148128697Y-89081585D01*
X148149339Y-89098219D01*
X148656781Y-89605661D01*
X148690266Y-89666984D01*
X148693100Y-89693342D01*
X148693100Y-89963557D01*
X148673415Y-90030596D01*
X148620611Y-90076351D01*
X148616552Y-90078118D01*
X148482239Y-90133751D01*
X148370583Y-90219428D01*
X148284906Y-90331084D01*
X148231052Y-90461102D01*
X148231051Y-90461106D01*
X148212681Y-90600638D01*
X148230967Y-90739535D01*
X148231051Y-90740169D01*
X148231052Y-90740173D01*
X148284906Y-90870191D01*
X148284907Y-90870193D01*
X148284908Y-90870194D01*
X148370583Y-90981848D01*
X148482237Y-91067523D01*
X148482238Y-91067523D01*
X148482239Y-91067524D01*
X148501085Y-91075330D01*
X148612261Y-91121380D01*
X148751793Y-91139750D01*
X148754280Y-91139422D01*
X148756381Y-91139750D01*
X148759922Y-91139750D01*
X148759922Y-91140301D01*
X148823313Y-91150182D01*
X148858154Y-91174679D01*
X148922188Y-91238713D01*
X148922198Y-91238724D01*
X148926528Y-91243054D01*
X148926529Y-91243055D01*
X148988100Y-91304626D01*
X149015241Y-91320296D01*
X149063455Y-91370863D01*
X149076677Y-91439470D01*
X149062771Y-91478521D01*
X149064939Y-91479419D01*
X149060264Y-91490703D01*
X149045500Y-91564928D01*
X149045500Y-91911500D01*
X149025815Y-91978539D01*
X148973011Y-92024294D01*
X148921500Y-92035500D01*
X147542956Y-92035500D01*
X147475917Y-92015815D01*
X147455275Y-91999181D01*
X146742019Y-91285925D01*
X146708534Y-91224602D01*
X146705700Y-91198244D01*
X146705700Y-88636190D01*
X146725385Y-88569151D01*
X146778189Y-88523396D01*
X146847347Y-88513452D01*
X146910903Y-88542477D01*
G37*
%TD.AperFunction*%
%TA.AperFunction,Conductor*%
G36*
X147478377Y-86654807D02*
G01*
X147489417Y-86664605D01*
X147502866Y-86678054D01*
X147502867Y-86678055D01*
X147564438Y-86739626D01*
X147639847Y-86783164D01*
X147723955Y-86805700D01*
X148039923Y-86805700D01*
X148106962Y-86825385D01*
X148127604Y-86842019D01*
X148274181Y-86988596D01*
X148307666Y-87049919D01*
X148310500Y-87076277D01*
X148310500Y-88276500D01*
X148290815Y-88343539D01*
X148238011Y-88389294D01*
X148186500Y-88400500D01*
X147756094Y-88400500D01*
X147689055Y-88380815D01*
X147668413Y-88364181D01*
X147192019Y-87887787D01*
X147158534Y-87826464D01*
X147155700Y-87800106D01*
X147155700Y-86906118D01*
X147175385Y-86839079D01*
X147204216Y-86807740D01*
X147206210Y-86806210D01*
X147291885Y-86694556D01*
X147291888Y-86694547D01*
X147294342Y-86690298D01*
X147344904Y-86642077D01*
X147413509Y-86628846D01*
X147478377Y-86654807D01*
G37*
%TD.AperFunction*%
%TA.AperFunction,Conductor*%
G36*
X166184033Y-69874762D02*
G01*
X166275467Y-69874862D01*
X166322863Y-69884336D01*
X166323342Y-69884535D01*
X166377712Y-69928417D01*
X166390378Y-69951641D01*
X166390575Y-69952117D01*
X166400000Y-69999536D01*
X166400000Y-73876500D01*
X166380315Y-73943539D01*
X166327511Y-73989294D01*
X166276000Y-74000500D01*
X166275336Y-74000500D01*
X164474664Y-74000500D01*
X164424200Y-74005454D01*
X164424195Y-74005455D01*
X164376883Y-74014834D01*
X164376882Y-74014834D01*
X164327911Y-74029690D01*
X164327907Y-74029692D01*
X164327905Y-74029692D01*
X164327901Y-74029694D01*
X164327419Y-74029894D01*
X164327400Y-74029902D01*
X164302594Y-74041774D01*
X164302567Y-74041788D01*
X164279250Y-74054509D01*
X164279251Y-74054510D01*
X164278952Y-74054673D01*
X164201291Y-74119637D01*
X164201290Y-74119638D01*
X164157476Y-74174060D01*
X164119804Y-74237632D01*
X164119803Y-74237634D01*
X164119610Y-74238101D01*
X164104888Y-74286703D01*
X164104887Y-74286710D01*
X164095475Y-74334084D01*
X164095473Y-74334101D01*
X164090500Y-74384663D01*
X164090500Y-75835336D01*
X164093288Y-75863678D01*
X164095473Y-75885896D01*
X164095474Y-75885902D01*
X164104887Y-75933291D01*
X164104888Y-75933293D01*
X164119674Y-75982053D01*
X164119761Y-75982263D01*
X164119824Y-75982415D01*
X164119832Y-75982456D01*
X164119839Y-75982470D01*
X164119846Y-75982468D01*
X164119952Y-75982724D01*
X164119963Y-75982748D01*
X164131790Y-76007455D01*
X164131792Y-76007458D01*
X164144468Y-76030702D01*
X164144470Y-76030705D01*
X164144473Y-76030710D01*
X164209351Y-76108429D01*
X164209352Y-76108430D01*
X164228772Y-76124098D01*
X164263728Y-76152301D01*
X164327513Y-76190145D01*
X164327987Y-76190341D01*
X164376447Y-76205033D01*
X164423963Y-76214499D01*
X164423968Y-76214499D01*
X164423971Y-76214500D01*
X164441238Y-76216203D01*
X164474664Y-76219500D01*
X164474673Y-76219500D01*
X166276000Y-76219500D01*
X166343039Y-76239185D01*
X166388794Y-76291989D01*
X166400000Y-76343500D01*
X166400000Y-76416500D01*
X166380315Y-76483539D01*
X166327511Y-76529294D01*
X166276000Y-76540500D01*
X166275336Y-76540500D01*
X164474664Y-76540500D01*
X164424200Y-76545454D01*
X164424195Y-76545455D01*
X164376883Y-76554834D01*
X164376882Y-76554834D01*
X164327911Y-76569690D01*
X164327907Y-76569692D01*
X164327905Y-76569692D01*
X164327901Y-76569694D01*
X164327419Y-76569894D01*
X164327400Y-76569902D01*
X164302594Y-76581774D01*
X164302567Y-76581788D01*
X164279250Y-76594509D01*
X164279251Y-76594510D01*
X164278952Y-76594673D01*
X164201291Y-76659637D01*
X164201290Y-76659638D01*
X164157476Y-76714060D01*
X164119804Y-76777632D01*
X164119803Y-76777634D01*
X164119610Y-76778101D01*
X164104888Y-76826703D01*
X164104887Y-76826710D01*
X164095475Y-76874084D01*
X164095473Y-76874101D01*
X164090500Y-76924663D01*
X164090500Y-78375336D01*
X164094420Y-78415186D01*
X164095473Y-78425896D01*
X164095474Y-78425902D01*
X164104887Y-78473291D01*
X164104888Y-78473293D01*
X164119674Y-78522053D01*
X164119761Y-78522263D01*
X164119824Y-78522415D01*
X164119832Y-78522456D01*
X164119839Y-78522470D01*
X164119846Y-78522468D01*
X164119952Y-78522724D01*
X164119963Y-78522748D01*
X164131790Y-78547455D01*
X164131792Y-78547458D01*
X164144468Y-78570702D01*
X164144470Y-78570705D01*
X164144473Y-78570710D01*
X164209351Y-78648429D01*
X164263728Y-78692301D01*
X164327513Y-78730145D01*
X164327987Y-78730341D01*
X164376447Y-78745033D01*
X164423963Y-78754499D01*
X164423968Y-78754499D01*
X164423971Y-78754500D01*
X164441238Y-78756203D01*
X164474664Y-78759500D01*
X164474673Y-78759500D01*
X166276000Y-78759500D01*
X166343039Y-78779185D01*
X166388794Y-78831989D01*
X166400000Y-78883500D01*
X166400000Y-78956500D01*
X166380315Y-79023539D01*
X166327511Y-79069294D01*
X166276000Y-79080500D01*
X166275336Y-79080500D01*
X164474664Y-79080500D01*
X164424200Y-79085454D01*
X164424195Y-79085455D01*
X164376883Y-79094834D01*
X164376882Y-79094834D01*
X164327911Y-79109690D01*
X164327907Y-79109692D01*
X164327905Y-79109692D01*
X164327901Y-79109694D01*
X164327419Y-79109894D01*
X164327400Y-79109902D01*
X164302594Y-79121774D01*
X164302567Y-79121788D01*
X164279250Y-79134509D01*
X164279251Y-79134510D01*
X164278952Y-79134673D01*
X164201291Y-79199637D01*
X164201290Y-79199638D01*
X164157476Y-79254060D01*
X164119804Y-79317632D01*
X164119803Y-79317634D01*
X164119610Y-79318101D01*
X164104888Y-79366703D01*
X164104887Y-79366710D01*
X164095475Y-79414084D01*
X164095473Y-79414101D01*
X164090500Y-79464668D01*
X164090500Y-79735300D01*
X164070815Y-79802339D01*
X164018011Y-79848094D01*
X163966500Y-79859300D01*
X163566460Y-79859300D01*
X163482353Y-79881836D01*
X163406945Y-79925374D01*
X163406942Y-79925376D01*
X162535376Y-80796942D01*
X162535374Y-80796945D01*
X162491836Y-80872353D01*
X162469300Y-80956460D01*
X162469300Y-85586658D01*
X162449615Y-85653697D01*
X162432981Y-85674339D01*
X161124339Y-86982981D01*
X161063016Y-87016466D01*
X161036658Y-87019300D01*
X158155095Y-87019300D01*
X158088056Y-86999615D01*
X158042301Y-86946811D01*
X158032357Y-86877653D01*
X158039153Y-86851329D01*
X158054082Y-86811962D01*
X158065149Y-86782782D01*
X158084307Y-86625000D01*
X158084101Y-86623307D01*
X158065149Y-86467218D01*
X158059373Y-86451989D01*
X158008787Y-86318605D01*
X157985914Y-86285468D01*
X157957594Y-86244439D01*
X157935711Y-86178085D01*
X157953176Y-86110433D01*
X158004444Y-86062963D01*
X158059641Y-86049999D01*
X158305066Y-86049999D01*
X158355811Y-86039906D01*
X158404190Y-86039907D01*
X158423713Y-86043790D01*
X158454933Y-86050000D01*
X158955066Y-86049999D01*
X159005811Y-86039906D01*
X159054190Y-86039907D01*
X159073713Y-86043790D01*
X159104933Y-86050000D01*
X159605066Y-86049999D01*
X159679301Y-86035234D01*
X159763484Y-85978984D01*
X159819734Y-85894801D01*
X159834500Y-85820567D01*
X159834500Y-85804700D01*
X159854185Y-85737661D01*
X159906989Y-85691906D01*
X159958500Y-85680700D01*
X160218882Y-85680700D01*
X160285921Y-85700385D01*
X160317258Y-85729214D01*
X160318790Y-85731210D01*
X160430444Y-85816885D01*
X160430445Y-85816885D01*
X160430446Y-85816886D01*
X160439343Y-85820571D01*
X160560468Y-85870742D01*
X160675512Y-85885888D01*
X160699999Y-85889112D01*
X160700000Y-85889112D01*
X160700001Y-85889112D01*
X160724488Y-85885888D01*
X160839532Y-85870742D01*
X160969556Y-85816885D01*
X161081210Y-85731210D01*
X161166885Y-85619556D01*
X161220742Y-85489532D01*
X161239112Y-85350000D01*
X161220742Y-85210468D01*
X161166885Y-85080444D01*
X161081210Y-84968790D01*
X161081205Y-84968786D01*
X161079207Y-84967252D01*
X161077947Y-84965526D01*
X161075460Y-84963039D01*
X161075847Y-84962651D01*
X161038008Y-84910821D01*
X161030700Y-84868881D01*
X161030700Y-82769483D01*
X161050385Y-82702444D01*
X161079213Y-82671108D01*
X161131210Y-82631210D01*
X161216885Y-82519556D01*
X161270742Y-82389532D01*
X161289112Y-82250000D01*
X161288527Y-82245560D01*
X161286795Y-82232401D01*
X161270742Y-82110468D01*
X161216885Y-81980444D01*
X161131210Y-81868790D01*
X161019556Y-81783115D01*
X161019555Y-81783114D01*
X161019553Y-81783113D01*
X160889535Y-81729259D01*
X160889533Y-81729258D01*
X160889532Y-81729258D01*
X160819766Y-81720073D01*
X160750001Y-81710888D01*
X160749999Y-81710888D01*
X160610468Y-81729258D01*
X160610464Y-81729259D01*
X160480446Y-81783113D01*
X160368790Y-81868790D01*
X160283113Y-81980446D01*
X160229259Y-82110464D01*
X160229258Y-82110468D01*
X160211473Y-82245560D01*
X160210888Y-82250000D01*
X160222446Y-82337794D01*
X160229258Y-82389531D01*
X160229259Y-82389535D01*
X160283114Y-82519555D01*
X160343676Y-82598481D01*
X160368870Y-82663650D01*
X160369300Y-82673967D01*
X160369300Y-84868882D01*
X160349615Y-84935921D01*
X160320791Y-84967254D01*
X160318791Y-84968788D01*
X160318788Y-84968791D01*
X160317254Y-84970791D01*
X160315531Y-84972048D01*
X160313043Y-84974537D01*
X160312654Y-84974148D01*
X160260824Y-85011991D01*
X160218882Y-85019300D01*
X159958499Y-85019300D01*
X159891460Y-84999615D01*
X159845705Y-84946811D01*
X159834499Y-84895300D01*
X159834499Y-84295436D01*
X159834499Y-84295434D01*
X159819734Y-84221199D01*
X159779176Y-84160500D01*
X159763484Y-84137015D01*
X159711351Y-84102181D01*
X159666546Y-84048568D01*
X159665679Y-84046528D01*
X159663165Y-84040458D01*
X159663164Y-84040454D01*
X159619626Y-83965045D01*
X159558055Y-83903474D01*
X159558054Y-83903473D01*
X159553724Y-83899143D01*
X159553713Y-83899133D01*
X156040260Y-80385680D01*
X156006775Y-80324357D01*
X156011759Y-80254665D01*
X156053631Y-80198732D01*
X156119095Y-80174315D01*
X156127928Y-80173999D01*
X156355066Y-80173999D01*
X156405811Y-80163906D01*
X156454190Y-80163907D01*
X156478426Y-80168727D01*
X156504933Y-80174000D01*
X157005066Y-80173999D01*
X157055811Y-80163906D01*
X157104190Y-80163907D01*
X157128426Y-80168727D01*
X157154933Y-80174000D01*
X157655066Y-80173999D01*
X157705811Y-80163906D01*
X157754190Y-80163907D01*
X157778426Y-80168727D01*
X157804933Y-80174000D01*
X158305066Y-80173999D01*
X158355811Y-80163906D01*
X158404190Y-80163907D01*
X158428426Y-80168727D01*
X158454933Y-80174000D01*
X158955066Y-80173999D01*
X159005811Y-80163906D01*
X159054190Y-80163907D01*
X159078426Y-80168727D01*
X159104933Y-80174000D01*
X159605066Y-80173999D01*
X159679301Y-80159234D01*
X159763484Y-80102984D01*
X159819734Y-80018801D01*
X159834500Y-79944567D01*
X159834499Y-78419434D01*
X159819734Y-78345199D01*
X159774355Y-78277285D01*
X159763484Y-78261015D01*
X159713019Y-78227296D01*
X159679301Y-78204766D01*
X159679299Y-78204765D01*
X159679296Y-78204764D01*
X159605069Y-78190000D01*
X159104934Y-78190000D01*
X159104930Y-78190001D01*
X159054187Y-78200093D01*
X159005810Y-78200093D01*
X158981398Y-78195237D01*
X158955067Y-78190000D01*
X158955065Y-78190000D01*
X158454934Y-78190000D01*
X158454930Y-78190001D01*
X158404187Y-78200093D01*
X158355810Y-78200093D01*
X158331398Y-78195237D01*
X158305067Y-78190000D01*
X158305065Y-78190000D01*
X157804934Y-78190000D01*
X157804930Y-78190001D01*
X157754187Y-78200093D01*
X157705810Y-78200093D01*
X157681398Y-78195237D01*
X157655067Y-78190000D01*
X157655065Y-78190000D01*
X157154934Y-78190000D01*
X157154930Y-78190001D01*
X157104187Y-78200093D01*
X157055810Y-78200093D01*
X157031398Y-78195237D01*
X157005067Y-78190000D01*
X157005065Y-78190000D01*
X156504934Y-78190000D01*
X156504930Y-78190001D01*
X156454187Y-78200093D01*
X156405810Y-78200093D01*
X156381398Y-78195237D01*
X156355067Y-78190000D01*
X156355065Y-78190000D01*
X155854934Y-78190000D01*
X155854930Y-78190001D01*
X155804187Y-78200093D01*
X155755810Y-78200093D01*
X155731398Y-78195237D01*
X155705067Y-78190000D01*
X155705065Y-78190000D01*
X155204934Y-78190000D01*
X155204930Y-78190001D01*
X155154187Y-78200093D01*
X155105810Y-78200093D01*
X155072846Y-78193536D01*
X155055067Y-78190000D01*
X155055066Y-78190000D01*
X155049141Y-78190000D01*
X154982102Y-78170315D01*
X154936347Y-78117511D01*
X154926403Y-78048353D01*
X154955428Y-77984797D01*
X154961460Y-77978319D01*
X155270118Y-77669662D01*
X155752761Y-77187019D01*
X155814084Y-77153534D01*
X155840442Y-77150700D01*
X156971500Y-77150700D01*
X157038539Y-77170385D01*
X157084294Y-77223189D01*
X157095500Y-77274700D01*
X157095500Y-77476839D01*
X157110500Y-77571552D01*
X157125648Y-77601280D01*
X157168674Y-77685723D01*
X157168676Y-77685725D01*
X157168678Y-77685728D01*
X157259271Y-77776321D01*
X157259273Y-77776322D01*
X157259277Y-77776326D01*
X157373445Y-77834498D01*
X157373446Y-77834498D01*
X157373448Y-77834499D01*
X157373447Y-77834499D01*
X157468161Y-77849500D01*
X157468166Y-77849500D01*
X157831839Y-77849500D01*
X157926552Y-77834499D01*
X157926553Y-77834498D01*
X157926555Y-77834498D01*
X158040723Y-77776326D01*
X158131326Y-77685723D01*
X158189498Y-77571555D01*
X158189498Y-77571553D01*
X158189499Y-77571552D01*
X158204500Y-77476839D01*
X158204500Y-76163160D01*
X158198313Y-76124098D01*
X158207267Y-76054805D01*
X158252264Y-76001353D01*
X158319015Y-75980713D01*
X158320786Y-75980700D01*
X158979214Y-75980700D01*
X159046253Y-76000385D01*
X159092008Y-76053189D01*
X159101952Y-76122347D01*
X159101687Y-76124098D01*
X159095500Y-76163160D01*
X159095500Y-77476839D01*
X159110500Y-77571552D01*
X159125648Y-77601280D01*
X159168674Y-77685723D01*
X159168676Y-77685725D01*
X159168678Y-77685728D01*
X159259271Y-77776321D01*
X159259273Y-77776322D01*
X159259277Y-77776326D01*
X159373445Y-77834498D01*
X159373446Y-77834498D01*
X159373448Y-77834499D01*
X159373447Y-77834499D01*
X159468161Y-77849500D01*
X159468166Y-77849500D01*
X159831839Y-77849500D01*
X159926552Y-77834499D01*
X159926553Y-77834498D01*
X159926555Y-77834498D01*
X160040723Y-77776326D01*
X160050728Y-77766321D01*
X160062319Y-77754731D01*
X160123642Y-77721246D01*
X160193334Y-77726230D01*
X160237681Y-77754731D01*
X160259271Y-77776321D01*
X160259273Y-77776322D01*
X160259277Y-77776326D01*
X160373445Y-77834498D01*
X160373446Y-77834498D01*
X160373448Y-77834499D01*
X160373447Y-77834499D01*
X160468161Y-77849500D01*
X160468166Y-77849500D01*
X160831839Y-77849500D01*
X160926552Y-77834499D01*
X160926553Y-77834498D01*
X160926555Y-77834498D01*
X161040723Y-77776326D01*
X161131326Y-77685723D01*
X161189498Y-77571555D01*
X161189498Y-77571553D01*
X161189499Y-77571552D01*
X161204500Y-77476839D01*
X161204500Y-76163160D01*
X161189499Y-76068447D01*
X161182548Y-76054805D01*
X161131326Y-75954277D01*
X161131322Y-75954273D01*
X161131321Y-75954271D01*
X161040728Y-75863678D01*
X161040725Y-75863676D01*
X161040723Y-75863674D01*
X160926555Y-75805502D01*
X160926554Y-75805501D01*
X160926551Y-75805500D01*
X160926552Y-75805500D01*
X160831839Y-75790500D01*
X160831834Y-75790500D01*
X160607911Y-75790500D01*
X160540872Y-75770815D01*
X160520230Y-75754181D01*
X159544364Y-74778316D01*
X159544362Y-74778313D01*
X159475725Y-74709676D01*
X159475723Y-74709674D01*
X159400314Y-74666136D01*
X159374801Y-74659300D01*
X159316207Y-74643600D01*
X159316206Y-74643600D01*
X158257090Y-74643600D01*
X158190051Y-74623915D01*
X158155040Y-74590040D01*
X158152811Y-74586811D01*
X158118498Y-74537099D01*
X157999529Y-74431701D01*
X157999528Y-74431700D01*
X157997472Y-74429879D01*
X157960346Y-74370689D01*
X157955700Y-74337064D01*
X157955700Y-73596728D01*
X161095500Y-73596728D01*
X161095500Y-74993251D01*
X161095501Y-74993257D01*
X161101960Y-75053344D01*
X161152655Y-75189261D01*
X161152656Y-75189264D01*
X161152658Y-75189267D01*
X161176905Y-75221657D01*
X161239595Y-75305404D01*
X161297443Y-75348707D01*
X161355733Y-75392342D01*
X161491658Y-75443040D01*
X161551745Y-75449500D01*
X162348254Y-75449499D01*
X162408342Y-75443040D01*
X162544267Y-75392342D01*
X162660404Y-75305404D01*
X162747342Y-75189267D01*
X162798040Y-75053342D01*
X162801411Y-75021984D01*
X162804499Y-74993271D01*
X162804499Y-74993264D01*
X162804500Y-74993255D01*
X162804499Y-73596746D01*
X162798040Y-73536658D01*
X162747342Y-73400733D01*
X162699840Y-73337277D01*
X162660404Y-73284595D01*
X162548277Y-73200660D01*
X162544267Y-73197658D01*
X162408342Y-73146960D01*
X162408338Y-73146959D01*
X162348263Y-73140500D01*
X161551748Y-73140500D01*
X161551742Y-73140501D01*
X161491655Y-73146960D01*
X161355738Y-73197655D01*
X161355730Y-73197660D01*
X161239595Y-73284595D01*
X161160140Y-73390738D01*
X161152658Y-73400733D01*
X161101960Y-73536658D01*
X161101959Y-73536662D01*
X161095500Y-73596728D01*
X157955700Y-73596728D01*
X157955700Y-73288341D01*
X157975385Y-73221302D01*
X157992014Y-73200664D01*
X159057845Y-72134833D01*
X159057850Y-72134830D01*
X159068053Y-72124626D01*
X159068055Y-72124626D01*
X159129626Y-72063055D01*
X159173164Y-71987646D01*
X159179202Y-71965109D01*
X159195701Y-71903537D01*
X159195701Y-71816463D01*
X159195701Y-71808868D01*
X159195700Y-71808850D01*
X159195700Y-71658500D01*
X159215385Y-71591461D01*
X159268189Y-71545706D01*
X159319700Y-71534500D01*
X159595991Y-71534500D01*
X159596000Y-71534500D01*
X159651163Y-71528569D01*
X159702674Y-71517363D01*
X159729461Y-71510014D01*
X159817448Y-71459911D01*
X159870252Y-71414156D01*
X159902371Y-71380869D01*
X159949303Y-71291151D01*
X159968988Y-71224112D01*
X159979500Y-71151000D01*
X159979500Y-69992064D01*
X159999185Y-69925025D01*
X160051989Y-69879270D01*
X160103630Y-69868065D01*
X166184033Y-69874762D01*
G37*
%TD.AperFunction*%
%TD*%
%TA.AperFunction,Conductor*%
%TO.N,GND*%
G36*
X145662732Y-74149415D02*
G01*
X145663203Y-74149610D01*
X145717627Y-74193425D01*
X145730301Y-74216584D01*
X145730499Y-74217062D01*
X145740000Y-74264663D01*
X145740000Y-75715336D01*
X145730498Y-75762938D01*
X145730390Y-75763202D01*
X145730303Y-75763411D01*
X145686389Y-75817755D01*
X145663411Y-75830302D01*
X145662938Y-75830498D01*
X145615336Y-75840000D01*
X143824664Y-75840000D01*
X143777148Y-75830534D01*
X143776674Y-75830338D01*
X143722297Y-75786466D01*
X143709610Y-75763202D01*
X143709502Y-75762942D01*
X143709415Y-75762732D01*
X143700000Y-75715336D01*
X143700000Y-74264663D01*
X143709415Y-74217268D01*
X143709611Y-74216794D01*
X143753425Y-74162372D01*
X143776873Y-74149579D01*
X143777355Y-74149379D01*
X143824664Y-74140000D01*
X145615336Y-74140000D01*
X145662732Y-74149415D01*
G37*
%TD.AperFunction*%
%TD*%
%TA.AperFunction,Conductor*%
%TO.N,F4_ENB*%
G36*
X166322732Y-84429415D02*
G01*
X166323203Y-84429610D01*
X166377627Y-84473425D01*
X166390301Y-84496584D01*
X166390499Y-84497062D01*
X166400000Y-84544663D01*
X166400000Y-85995336D01*
X166390498Y-86042938D01*
X166390390Y-86043202D01*
X166390303Y-86043411D01*
X166346389Y-86097755D01*
X166323411Y-86110302D01*
X166322938Y-86110498D01*
X166275336Y-86120000D01*
X164474664Y-86120000D01*
X164427148Y-86110534D01*
X164426674Y-86110338D01*
X164372297Y-86066466D01*
X164359610Y-86043202D01*
X164359502Y-86042942D01*
X164359415Y-86042732D01*
X164350000Y-85995336D01*
X164350000Y-84544663D01*
X164359415Y-84497268D01*
X164359611Y-84496794D01*
X164403425Y-84442372D01*
X164426873Y-84429579D01*
X164427355Y-84429379D01*
X164474664Y-84420000D01*
X166275336Y-84420000D01*
X166322732Y-84429415D01*
G37*
%TD.AperFunction*%
%TD*%
%TA.AperFunction,Conductor*%
%TO.N,GND*%
G36*
X145662732Y-99549415D02*
G01*
X145663203Y-99549610D01*
X145717627Y-99593425D01*
X145730301Y-99616584D01*
X145730499Y-99617062D01*
X145740000Y-99664663D01*
X145740000Y-101120336D01*
X145730498Y-101167938D01*
X145730390Y-101168202D01*
X145730303Y-101168411D01*
X145686389Y-101222755D01*
X145663411Y-101235302D01*
X145662938Y-101235498D01*
X145615336Y-101245000D01*
X143824664Y-101245000D01*
X143777148Y-101235534D01*
X143776674Y-101235338D01*
X143722297Y-101191466D01*
X143709610Y-101168202D01*
X143709502Y-101167942D01*
X143709415Y-101167732D01*
X143700000Y-101120336D01*
X143700000Y-99664663D01*
X143709415Y-99617268D01*
X143709611Y-99616794D01*
X143753425Y-99562372D01*
X143776873Y-99549579D01*
X143777355Y-99549379D01*
X143824664Y-99540000D01*
X145615336Y-99540000D01*
X145662732Y-99549415D01*
G37*
%TD.AperFunction*%
%TD*%
%TA.AperFunction,Conductor*%
%TO.N,F0_SDA*%
G36*
X145662732Y-81769415D02*
G01*
X145663203Y-81769610D01*
X145717627Y-81813425D01*
X145730301Y-81836584D01*
X145730499Y-81837062D01*
X145740000Y-81884663D01*
X145740000Y-83335336D01*
X145730498Y-83382938D01*
X145730390Y-83383202D01*
X145730303Y-83383411D01*
X145686389Y-83437755D01*
X145663411Y-83450302D01*
X145662938Y-83450498D01*
X145615336Y-83460000D01*
X143824664Y-83460000D01*
X143777148Y-83450534D01*
X143776674Y-83450338D01*
X143722297Y-83406466D01*
X143709610Y-83383202D01*
X143709502Y-83382942D01*
X143709415Y-83382732D01*
X143700000Y-83335336D01*
X143700000Y-81884663D01*
X143709415Y-81837268D01*
X143709611Y-81836794D01*
X143753425Y-81782372D01*
X143776873Y-81769579D01*
X143777355Y-81769379D01*
X143824664Y-81760000D01*
X145615336Y-81760000D01*
X145662732Y-81769415D01*
G37*
%TD.AperFunction*%
%TD*%
%TA.AperFunction,Conductor*%
%TO.N,SDA1*%
G36*
X157102732Y-69859415D02*
G01*
X157103203Y-69859610D01*
X157157627Y-69903425D01*
X157170301Y-69926584D01*
X157170499Y-69927062D01*
X157180000Y-69974663D01*
X157180000Y-71151000D01*
X157160315Y-71218039D01*
X157107511Y-71263794D01*
X157056000Y-71275000D01*
X155594664Y-71275000D01*
X155547148Y-71265534D01*
X155546674Y-71265338D01*
X155492297Y-71221466D01*
X155479610Y-71198202D01*
X155479416Y-71197733D01*
X155470000Y-71150336D01*
X155470000Y-69974663D01*
X155479415Y-69927268D01*
X155479611Y-69926794D01*
X155523425Y-69872372D01*
X155546873Y-69859579D01*
X155547355Y-69859379D01*
X155594664Y-69850000D01*
X157055336Y-69850000D01*
X157102732Y-69859415D01*
G37*
%TD.AperFunction*%
%TD*%
%TA.AperFunction,Conductor*%
%TO.N,Camera*%
G36*
X166322732Y-92049415D02*
G01*
X166323203Y-92049610D01*
X166377627Y-92093425D01*
X166390301Y-92116584D01*
X166390499Y-92117062D01*
X166400000Y-92164663D01*
X166400000Y-93615336D01*
X166390498Y-93662938D01*
X166390390Y-93663202D01*
X166390303Y-93663411D01*
X166346389Y-93717755D01*
X166323411Y-93730302D01*
X166322938Y-93730498D01*
X166275336Y-93740000D01*
X164474664Y-93740000D01*
X164427148Y-93730534D01*
X164426674Y-93730338D01*
X164372297Y-93686466D01*
X164359610Y-93663202D01*
X164359502Y-93662942D01*
X164359415Y-93662732D01*
X164350000Y-93615336D01*
X164350000Y-92164663D01*
X164359415Y-92117268D01*
X164359611Y-92116794D01*
X164403425Y-92062372D01*
X164426873Y-92049579D01*
X164427355Y-92049379D01*
X164474664Y-92040000D01*
X166275336Y-92040000D01*
X166322732Y-92049415D01*
G37*
%TD.AperFunction*%
%TD*%
%TA.AperFunction,Conductor*%
%TO.N,F2_ENB*%
G36*
X145662732Y-91929415D02*
G01*
X145663203Y-91929610D01*
X145717627Y-91973425D01*
X145730301Y-91996584D01*
X145730499Y-91997062D01*
X145740000Y-92044663D01*
X145740000Y-92235639D01*
X145738939Y-92251824D01*
X145735888Y-92274998D01*
X145735888Y-92275000D01*
X145738939Y-92298174D01*
X145740000Y-92314360D01*
X145740000Y-93495336D01*
X145730498Y-93542938D01*
X145730390Y-93543202D01*
X145730303Y-93543411D01*
X145686389Y-93597755D01*
X145663411Y-93610302D01*
X145662938Y-93610498D01*
X145615336Y-93620000D01*
X143824664Y-93620000D01*
X143777148Y-93610534D01*
X143776674Y-93610338D01*
X143722297Y-93566466D01*
X143709610Y-93543202D01*
X143709502Y-93542942D01*
X143709415Y-93542732D01*
X143700000Y-93495336D01*
X143700000Y-92044663D01*
X143709415Y-91997268D01*
X143709611Y-91996794D01*
X143753425Y-91942372D01*
X143776873Y-91929579D01*
X143777355Y-91929379D01*
X143824664Y-91920000D01*
X145615336Y-91920000D01*
X145662732Y-91929415D01*
G37*
%TD.AperFunction*%
%TD*%
%TA.AperFunction,Conductor*%
%TO.N,F0_SCL*%
G36*
X145662732Y-79229415D02*
G01*
X145663203Y-79229610D01*
X145717627Y-79273425D01*
X145730301Y-79296584D01*
X145730499Y-79297062D01*
X145740000Y-79344663D01*
X145740000Y-80795336D01*
X145730498Y-80842938D01*
X145730390Y-80843202D01*
X145730303Y-80843411D01*
X145686389Y-80897755D01*
X145663411Y-80910302D01*
X145662938Y-80910498D01*
X145615336Y-80920000D01*
X143824664Y-80920000D01*
X143777148Y-80910534D01*
X143776674Y-80910338D01*
X143722297Y-80866466D01*
X143709610Y-80843202D01*
X143709502Y-80842942D01*
X143709415Y-80842732D01*
X143700000Y-80795336D01*
X143700000Y-79344663D01*
X143709415Y-79297268D01*
X143709611Y-79296794D01*
X143753425Y-79242372D01*
X143776873Y-79229579D01*
X143777355Y-79229379D01*
X143824664Y-79220000D01*
X145615336Y-79220000D01*
X145662732Y-79229415D01*
G37*
%TD.AperFunction*%
%TD*%
%TA.AperFunction,Conductor*%
%TO.N,F1_SDA*%
G36*
X145662732Y-89389415D02*
G01*
X145663203Y-89389610D01*
X145717627Y-89433425D01*
X145730301Y-89456584D01*
X145730499Y-89457062D01*
X145740000Y-89504663D01*
X145740000Y-90955336D01*
X145730498Y-91002938D01*
X145730390Y-91003202D01*
X145730303Y-91003411D01*
X145686389Y-91057755D01*
X145663411Y-91070302D01*
X145662938Y-91070498D01*
X145615336Y-91080000D01*
X143824664Y-91080000D01*
X143777148Y-91070534D01*
X143776674Y-91070338D01*
X143722297Y-91026466D01*
X143709610Y-91003202D01*
X143709502Y-91002942D01*
X143709415Y-91002732D01*
X143700000Y-90955336D01*
X143700000Y-89504663D01*
X143709415Y-89457268D01*
X143709611Y-89456794D01*
X143753425Y-89402372D01*
X143776873Y-89389579D01*
X143777355Y-89389379D01*
X143824664Y-89380000D01*
X145615336Y-89380000D01*
X145662732Y-89389415D01*
G37*
%TD.AperFunction*%
%TD*%
%TA.AperFunction,Conductor*%
%TO.N,F1_ENB*%
G36*
X145662732Y-84309415D02*
G01*
X145663203Y-84309610D01*
X145717627Y-84353425D01*
X145730301Y-84376584D01*
X145730499Y-84377062D01*
X145740000Y-84424663D01*
X145740000Y-85875336D01*
X145730498Y-85922938D01*
X145730390Y-85923202D01*
X145730303Y-85923411D01*
X145686389Y-85977755D01*
X145663411Y-85990302D01*
X145662938Y-85990498D01*
X145615336Y-86000000D01*
X143824664Y-86000000D01*
X143777148Y-85990534D01*
X143776674Y-85990338D01*
X143722297Y-85946466D01*
X143709610Y-85923202D01*
X143709502Y-85922942D01*
X143709415Y-85922732D01*
X143700000Y-85875336D01*
X143700000Y-84424663D01*
X143709415Y-84377268D01*
X143709611Y-84376794D01*
X143753425Y-84322372D01*
X143776873Y-84309579D01*
X143777355Y-84309379D01*
X143824664Y-84300000D01*
X145615336Y-84300000D01*
X145662732Y-84309415D01*
G37*
%TD.AperFunction*%
%TD*%
%TA.AperFunction,Conductor*%
%TO.N,F4_SDA*%
G36*
X166322732Y-89509415D02*
G01*
X166323203Y-89509610D01*
X166377627Y-89553425D01*
X166390301Y-89576584D01*
X166390499Y-89577062D01*
X166400000Y-89624663D01*
X166400000Y-91075336D01*
X166390498Y-91122938D01*
X166390390Y-91123202D01*
X166390303Y-91123411D01*
X166346389Y-91177755D01*
X166323411Y-91190302D01*
X166322938Y-91190498D01*
X166275336Y-91200000D01*
X164474664Y-91200000D01*
X164427148Y-91190534D01*
X164426674Y-91190338D01*
X164372297Y-91146466D01*
X164359610Y-91123202D01*
X164359502Y-91122942D01*
X164359415Y-91122732D01*
X164350000Y-91075336D01*
X164350000Y-89624663D01*
X164359415Y-89577268D01*
X164359611Y-89576794D01*
X164403425Y-89522372D01*
X164426873Y-89509579D01*
X164427355Y-89509379D01*
X164474664Y-89500000D01*
X166275336Y-89500000D01*
X166322732Y-89509415D01*
G37*
%TD.AperFunction*%
%TD*%
%TA.AperFunction,Conductor*%
%TO.N,F2_SDA*%
G36*
X145662732Y-97009415D02*
G01*
X145663203Y-97009610D01*
X145717627Y-97053425D01*
X145730301Y-97076584D01*
X145730499Y-97077062D01*
X145740000Y-97124663D01*
X145740000Y-98575336D01*
X145730498Y-98622938D01*
X145730390Y-98623202D01*
X145730303Y-98623411D01*
X145686389Y-98677755D01*
X145663411Y-98690302D01*
X145662938Y-98690498D01*
X145615336Y-98700000D01*
X143824664Y-98700000D01*
X143777148Y-98690534D01*
X143776674Y-98690338D01*
X143722297Y-98646466D01*
X143709610Y-98623202D01*
X143709502Y-98622942D01*
X143709415Y-98622732D01*
X143700000Y-98575336D01*
X143700000Y-97124663D01*
X143709415Y-97077268D01*
X143709611Y-97076794D01*
X143753425Y-97022372D01*
X143776873Y-97009579D01*
X143777355Y-97009379D01*
X143824664Y-97000000D01*
X145615336Y-97000000D01*
X145662732Y-97009415D01*
G37*
%TD.AperFunction*%
%TD*%
%TA.AperFunction,Conductor*%
%TO.N,+3V3*%
G36*
X154644210Y-69862051D02*
G01*
X154645000Y-69862051D01*
X154645000Y-71270000D01*
X154640000Y-71275000D01*
X152935000Y-71275000D01*
X152935000Y-69860169D01*
X152946162Y-69860182D01*
X152948013Y-69860000D01*
X154623479Y-69860000D01*
X154644210Y-69862051D01*
G37*
%TD.AperFunction*%
%TD*%
%TA.AperFunction,Conductor*%
%TO.N,GND*%
G36*
X152022732Y-69869415D02*
G01*
X152023203Y-69869610D01*
X152077627Y-69913425D01*
X152090301Y-69936584D01*
X152090499Y-69937062D01*
X152100000Y-69984663D01*
X152100000Y-71151000D01*
X152080315Y-71218039D01*
X152027511Y-71263794D01*
X151976000Y-71275000D01*
X150514664Y-71275000D01*
X150467148Y-71265534D01*
X150466674Y-71265338D01*
X150412297Y-71221466D01*
X150399610Y-71198202D01*
X150399416Y-71197733D01*
X150390000Y-71150336D01*
X150390000Y-69984663D01*
X150399415Y-69937268D01*
X150399611Y-69936794D01*
X150443425Y-69882372D01*
X150466873Y-69869579D01*
X150467355Y-69869379D01*
X150514664Y-69860000D01*
X151975336Y-69860000D01*
X152022732Y-69869415D01*
G37*
%TD.AperFunction*%
%TD*%
%TA.AperFunction,Conductor*%
%TO.N,F3_ENB*%
G36*
X166322732Y-76809415D02*
G01*
X166323203Y-76809610D01*
X166377627Y-76853425D01*
X166390301Y-76876584D01*
X166390499Y-76877062D01*
X166400000Y-76924663D01*
X166400000Y-78375336D01*
X166390498Y-78422938D01*
X166390390Y-78423202D01*
X166390303Y-78423411D01*
X166346389Y-78477755D01*
X166323411Y-78490302D01*
X166322938Y-78490498D01*
X166275336Y-78500000D01*
X164474664Y-78500000D01*
X164427148Y-78490534D01*
X164426674Y-78490338D01*
X164372297Y-78446466D01*
X164359610Y-78423202D01*
X164359502Y-78422942D01*
X164359415Y-78422732D01*
X164350000Y-78375336D01*
X164350000Y-76924663D01*
X164359415Y-76877268D01*
X164359611Y-76876794D01*
X164403425Y-76822372D01*
X164426873Y-76809579D01*
X164427355Y-76809379D01*
X164474664Y-76800000D01*
X166275336Y-76800000D01*
X166322732Y-76809415D01*
G37*
%TD.AperFunction*%
%TD*%
%TA.AperFunction,Conductor*%
%TO.N,F3_SDA*%
G36*
X166322732Y-81889415D02*
G01*
X166323203Y-81889610D01*
X166377627Y-81933425D01*
X166390301Y-81956584D01*
X166390499Y-81957062D01*
X166400000Y-82004663D01*
X166400000Y-83455336D01*
X166390498Y-83502938D01*
X166390390Y-83503202D01*
X166390303Y-83503411D01*
X166346389Y-83557755D01*
X166323411Y-83570302D01*
X166322938Y-83570498D01*
X166275336Y-83580000D01*
X164474664Y-83580000D01*
X164427148Y-83570534D01*
X164426674Y-83570338D01*
X164372297Y-83526466D01*
X164359610Y-83503202D01*
X164359502Y-83502942D01*
X164359415Y-83502732D01*
X164350000Y-83455336D01*
X164350000Y-82004663D01*
X164359415Y-81957268D01*
X164359611Y-81956794D01*
X164403425Y-81902372D01*
X164426873Y-81889579D01*
X164427355Y-81889379D01*
X164474664Y-81880000D01*
X166275336Y-81880000D01*
X166322732Y-81889415D01*
G37*
%TD.AperFunction*%
%TD*%
%TA.AperFunction,Conductor*%
%TO.N,GND*%
G36*
X166322732Y-74269415D02*
G01*
X166323203Y-74269610D01*
X166377627Y-74313425D01*
X166390301Y-74336584D01*
X166390499Y-74337062D01*
X166400000Y-74384663D01*
X166400000Y-75835336D01*
X166390498Y-75882938D01*
X166390390Y-75883202D01*
X166390303Y-75883411D01*
X166346389Y-75937755D01*
X166323411Y-75950302D01*
X166322938Y-75950498D01*
X166275336Y-75960000D01*
X164474664Y-75960000D01*
X164427148Y-75950534D01*
X164426674Y-75950338D01*
X164372297Y-75906466D01*
X164359610Y-75883202D01*
X164359502Y-75882942D01*
X164359415Y-75882732D01*
X164350000Y-75835336D01*
X164350000Y-74384663D01*
X164359415Y-74337268D01*
X164359611Y-74336794D01*
X164403425Y-74282372D01*
X164426873Y-74269579D01*
X164427355Y-74269379D01*
X164474664Y-74260000D01*
X166275336Y-74260000D01*
X166322732Y-74269415D01*
G37*
%TD.AperFunction*%
%TD*%
%TA.AperFunction,Conductor*%
%TO.N,SCL1*%
G36*
X159642732Y-69859415D02*
G01*
X159643203Y-69859610D01*
X159697627Y-69903425D01*
X159710301Y-69926584D01*
X159710499Y-69927062D01*
X159720000Y-69974663D01*
X159720000Y-71151000D01*
X159700315Y-71218039D01*
X159647511Y-71263794D01*
X159596000Y-71275000D01*
X158134664Y-71275000D01*
X158087148Y-71265534D01*
X158086674Y-71265338D01*
X158032297Y-71221466D01*
X158019610Y-71198202D01*
X158019416Y-71197733D01*
X158010000Y-71150336D01*
X158010000Y-69974663D01*
X158019415Y-69927268D01*
X158019611Y-69926794D01*
X158063425Y-69872372D01*
X158086873Y-69859579D01*
X158087355Y-69859379D01*
X158134664Y-69850000D01*
X159595336Y-69850000D01*
X159642732Y-69859415D01*
G37*
%TD.AperFunction*%
%TD*%
%TA.AperFunction,Conductor*%
%TO.N,Break_SCL*%
G36*
X166322732Y-94589415D02*
G01*
X166323203Y-94589610D01*
X166377627Y-94633425D01*
X166390301Y-94656584D01*
X166390499Y-94657062D01*
X166400000Y-94704663D01*
X166400000Y-96155336D01*
X166390498Y-96202938D01*
X166390390Y-96203202D01*
X166390303Y-96203411D01*
X166346389Y-96257755D01*
X166323411Y-96270302D01*
X166322938Y-96270498D01*
X166275336Y-96280000D01*
X164474664Y-96280000D01*
X164427148Y-96270534D01*
X164426674Y-96270338D01*
X164372297Y-96226466D01*
X164359610Y-96203202D01*
X164359502Y-96202942D01*
X164359415Y-96202732D01*
X164350000Y-96155336D01*
X164350000Y-94704663D01*
X164359415Y-94657268D01*
X164359611Y-94656794D01*
X164403425Y-94602372D01*
X164426873Y-94589579D01*
X164427355Y-94589379D01*
X164474664Y-94580000D01*
X166275336Y-94580000D01*
X166322732Y-94589415D01*
G37*
%TD.AperFunction*%
%TD*%
%TA.AperFunction,Conductor*%
%TO.N,F4_SCL*%
G36*
X166322732Y-86969415D02*
G01*
X166323203Y-86969610D01*
X166377627Y-87013425D01*
X166390301Y-87036584D01*
X166390499Y-87037062D01*
X166400000Y-87084663D01*
X166400000Y-88535336D01*
X166390498Y-88582938D01*
X166390390Y-88583202D01*
X166390303Y-88583411D01*
X166346389Y-88637755D01*
X166323411Y-88650302D01*
X166322938Y-88650498D01*
X166275336Y-88660000D01*
X164474664Y-88660000D01*
X164427148Y-88650534D01*
X164426674Y-88650338D01*
X164372297Y-88606466D01*
X164359610Y-88583202D01*
X164359502Y-88582942D01*
X164359415Y-88582732D01*
X164350000Y-88535336D01*
X164350000Y-87084663D01*
X164359415Y-87037268D01*
X164359611Y-87036794D01*
X164403425Y-86982372D01*
X164426873Y-86969579D01*
X164427355Y-86969379D01*
X164474664Y-86960000D01*
X166275336Y-86960000D01*
X166322732Y-86969415D01*
G37*
%TD.AperFunction*%
%TD*%
%TA.AperFunction,Conductor*%
%TO.N,F3_SCL*%
G36*
X166322732Y-79349415D02*
G01*
X166323203Y-79349610D01*
X166377627Y-79393425D01*
X166390301Y-79416584D01*
X166390499Y-79417062D01*
X166400000Y-79464663D01*
X166400000Y-80915336D01*
X166390498Y-80962938D01*
X166390390Y-80963202D01*
X166390303Y-80963411D01*
X166346389Y-81017755D01*
X166323411Y-81030302D01*
X166322938Y-81030498D01*
X166275336Y-81040000D01*
X164474664Y-81040000D01*
X164427148Y-81030534D01*
X164426674Y-81030338D01*
X164372297Y-80986466D01*
X164359610Y-80963202D01*
X164359502Y-80962942D01*
X164359415Y-80962732D01*
X164350000Y-80915336D01*
X164350000Y-79464663D01*
X164359415Y-79417268D01*
X164359611Y-79416794D01*
X164403425Y-79362372D01*
X164426873Y-79349579D01*
X164427355Y-79349379D01*
X164474664Y-79340000D01*
X166275336Y-79340000D01*
X166322732Y-79349415D01*
G37*
%TD.AperFunction*%
%TD*%
%TA.AperFunction,Conductor*%
%TO.N,F0_ENB*%
G36*
X145662732Y-76689415D02*
G01*
X145663203Y-76689610D01*
X145717627Y-76733425D01*
X145730301Y-76756584D01*
X145730499Y-76757062D01*
X145740000Y-76804663D01*
X145740000Y-78255336D01*
X145730498Y-78302938D01*
X145730390Y-78303202D01*
X145730303Y-78303411D01*
X145686389Y-78357755D01*
X145663411Y-78370302D01*
X145662938Y-78370498D01*
X145615336Y-78380000D01*
X143824664Y-78380000D01*
X143777148Y-78370534D01*
X143776674Y-78370338D01*
X143722297Y-78326466D01*
X143709610Y-78303202D01*
X143709502Y-78302942D01*
X143709415Y-78302732D01*
X143700000Y-78255336D01*
X143700000Y-76804663D01*
X143709415Y-76757268D01*
X143709611Y-76756794D01*
X143753425Y-76702372D01*
X143776873Y-76689579D01*
X143777355Y-76689379D01*
X143824664Y-76680000D01*
X145615336Y-76680000D01*
X145662732Y-76689415D01*
G37*
%TD.AperFunction*%
%TD*%
%TA.AperFunction,Conductor*%
%TO.N,GND*%
G36*
X166322732Y-99669415D02*
G01*
X166323203Y-99669610D01*
X166377627Y-99713425D01*
X166390301Y-99736584D01*
X166390499Y-99737062D01*
X166400000Y-99784663D01*
X166400000Y-101240336D01*
X166390498Y-101287938D01*
X166390390Y-101288202D01*
X166390303Y-101288411D01*
X166346389Y-101342755D01*
X166323411Y-101355302D01*
X166322938Y-101355498D01*
X166275336Y-101365000D01*
X164474664Y-101365000D01*
X164427148Y-101355534D01*
X164426674Y-101355338D01*
X164372297Y-101311466D01*
X164359610Y-101288202D01*
X164359502Y-101287942D01*
X164359415Y-101287732D01*
X164350000Y-101240336D01*
X164350000Y-99784663D01*
X164359415Y-99737268D01*
X164359611Y-99736794D01*
X164403425Y-99682372D01*
X164426873Y-99669579D01*
X164427355Y-99669379D01*
X164474664Y-99660000D01*
X166275336Y-99660000D01*
X166322732Y-99669415D01*
G37*
%TD.AperFunction*%
%TD*%
%TA.AperFunction,Conductor*%
%TO.N,F1_SCL*%
G36*
X145662732Y-86849415D02*
G01*
X145663203Y-86849610D01*
X145717627Y-86893425D01*
X145730301Y-86916584D01*
X145730499Y-86917062D01*
X145740000Y-86964663D01*
X145740000Y-88415336D01*
X145730498Y-88462938D01*
X145730390Y-88463202D01*
X145730303Y-88463411D01*
X145686389Y-88517755D01*
X145663411Y-88530302D01*
X145662938Y-88530498D01*
X145615336Y-88540000D01*
X143824664Y-88540000D01*
X143777148Y-88530534D01*
X143776674Y-88530338D01*
X143722297Y-88486466D01*
X143709610Y-88463202D01*
X143709502Y-88462942D01*
X143709415Y-88462732D01*
X143700000Y-88415336D01*
X143700000Y-86964663D01*
X143709415Y-86917268D01*
X143709611Y-86916794D01*
X143753425Y-86862372D01*
X143776873Y-86849579D01*
X143777355Y-86849379D01*
X143824664Y-86840000D01*
X145615336Y-86840000D01*
X145662732Y-86849415D01*
G37*
%TD.AperFunction*%
%TD*%
%TA.AperFunction,Conductor*%
%TO.N,F2_SCL*%
G36*
X145662732Y-94469415D02*
G01*
X145663203Y-94469610D01*
X145717627Y-94513425D01*
X145730301Y-94536584D01*
X145730499Y-94537062D01*
X145740000Y-94584663D01*
X145740000Y-96035336D01*
X145730498Y-96082938D01*
X145730390Y-96083202D01*
X145730303Y-96083411D01*
X145686389Y-96137755D01*
X145663411Y-96150302D01*
X145662938Y-96150498D01*
X145615336Y-96160000D01*
X143824664Y-96160000D01*
X143777148Y-96150534D01*
X143776674Y-96150338D01*
X143722297Y-96106466D01*
X143709610Y-96083202D01*
X143709502Y-96082942D01*
X143709415Y-96082732D01*
X143700000Y-96035336D01*
X143700000Y-94584663D01*
X143709415Y-94537268D01*
X143709611Y-94536794D01*
X143753425Y-94482372D01*
X143776873Y-94469579D01*
X143777355Y-94469379D01*
X143824664Y-94460000D01*
X145615336Y-94460000D01*
X145662732Y-94469415D01*
G37*
%TD.AperFunction*%
%TD*%
%TA.AperFunction,Conductor*%
%TO.N,Break_SDA*%
G36*
X166322732Y-97129415D02*
G01*
X166323203Y-97129610D01*
X166377627Y-97173425D01*
X166390301Y-97196584D01*
X166390499Y-97197062D01*
X166400000Y-97244663D01*
X166400000Y-98695336D01*
X166390498Y-98742938D01*
X166390390Y-98743202D01*
X166390303Y-98743411D01*
X166346389Y-98797755D01*
X166323411Y-98810302D01*
X166322938Y-98810498D01*
X166275336Y-98820000D01*
X164474664Y-98820000D01*
X164427148Y-98810534D01*
X164426674Y-98810338D01*
X164372297Y-98766466D01*
X164359610Y-98743202D01*
X164359502Y-98742942D01*
X164359415Y-98742732D01*
X164350000Y-98695336D01*
X164350000Y-97244663D01*
X164359415Y-97197268D01*
X164359611Y-97196794D01*
X164403425Y-97142372D01*
X164426873Y-97129579D01*
X164427355Y-97129379D01*
X164474664Y-97120000D01*
X166275336Y-97120000D01*
X166322732Y-97129415D01*
G37*
%TD.AperFunction*%
%TD*%
M02*
