M48
; DRILL file {KiCad 8.0.2-1} date 2024-05-29T23:20:37-0700
; FORMAT={-:-/ absolute / inch / decimal}
; #@! TF.CreationDate,2024-05-29T23:20:37-07:00
; #@! TF.GenerationSoftware,Kicad,Pcbnew,8.0.2-1
; #@! TF.FileFunction,Plated,1,2,PTH
FMAT,2
INCH
; #@! TA.AperFunction,Plated,PTH,ViaDrill
T1C0.0118
; #@! TA.AperFunction,Plated,PTH,ViaDrill
T2C0.0157
; #@! TA.AperFunction,Plated,PTH,ComponentDrill
T3C0.0394
%
G90
G05
T1
X5.7589Y-3.6329
X5.7785Y-3.7215
X5.7805Y-3.4026
X5.7874Y-3.5089
X5.7874Y-3.5915
X5.81Y-3.4272
X5.8183Y-3.3742
X5.8425Y-3.8248
X5.8564Y-3.567
X5.8986Y-3.4124
X5.9341Y-3.7923
X6.0453Y-3.7392
X6.0472Y-3.7756
X6.0512Y-3.1821
X6.0672Y-3.7161
X6.1307Y-3.444
X6.1358Y-3.4774
X6.1555Y-3.5285
X6.1585Y-3.5669
X6.2431Y-3.9055
X6.2539Y-2.9006
X6.2726Y-3.7382
X6.2726Y-3.7795
X6.2982Y-3.6004
X6.3201Y-3.6329
X6.3268Y-3.3602
X6.3287Y-3.2382
X6.3691Y-3.4872
X6.4242Y-3.5856
X6.4242Y-3.5856
T2
X6.001Y-3.9232
X6.0177Y-3.2392
X6.0531Y-3.0325
X6.0689Y-3.2579
X6.0965Y-3.2904
X6.1191Y-3.4114
X6.1437Y-3.2589
X6.1594Y-3.8543
X6.1732Y-3.2933
X6.1978Y-3.4104
X6.2057Y-2.9517
T3
X5.6579Y-2.9524
X5.6579Y-3.0524
X5.6579Y-3.1524
X5.6579Y-3.2524
X5.6579Y-3.3524
X5.6579Y-3.4524
X5.6579Y-3.5524
X5.6579Y-3.6524
X5.6579Y-3.7524
X5.6579Y-3.8524
X5.6579Y-3.9524
X5.9545Y-2.75
X6.0545Y-2.75
X6.1545Y-2.75
X6.2545Y-2.75
X6.5496Y-2.9571
X6.5496Y-3.0571
X6.5496Y-3.1571
X6.5496Y-3.2571
X6.5496Y-3.3571
X6.5496Y-3.4571
X6.5496Y-3.5571
X6.5496Y-3.6571
X6.5496Y-3.7571
X6.5496Y-3.8571
X6.5496Y-3.9571
M30
