%TF.GenerationSoftware,KiCad,Pcbnew,7.0.1*%
%TF.CreationDate,2024-01-20T21:14:22-07:00*%
%TF.ProjectId,mux_driver_v1,6d75785f-6472-4697-9665-725f76312e6b,rev?*%
%TF.SameCoordinates,Original*%
%TF.FileFunction,Paste,Top*%
%TF.FilePolarity,Positive*%
%FSLAX46Y46*%
G04 Gerber Fmt 4.6, Leading zero omitted, Abs format (unit mm)*
G04 Created by KiCad (PCBNEW 7.0.1) date 2024-01-20 21:14:22*
%MOMM*%
%LPD*%
G01*
G04 APERTURE LIST*
G04 Aperture macros list*
%AMRoundRect*
0 Rectangle with rounded corners*
0 $1 Rounding radius*
0 $2 $3 $4 $5 $6 $7 $8 $9 X,Y pos of 4 corners*
0 Add a 4 corners polygon primitive as box body*
4,1,4,$2,$3,$4,$5,$6,$7,$8,$9,$2,$3,0*
0 Add four circle primitives for the rounded corners*
1,1,$1+$1,$2,$3*
1,1,$1+$1,$4,$5*
1,1,$1+$1,$6,$7*
1,1,$1+$1,$8,$9*
0 Add four rect primitives between the rounded corners*
20,1,$1+$1,$2,$3,$4,$5,0*
20,1,$1+$1,$4,$5,$6,$7,0*
20,1,$1+$1,$6,$7,$8,$9,0*
20,1,$1+$1,$8,$9,$2,$3,0*%
G04 Aperture macros list end*
%ADD10RoundRect,0.150000X0.150000X0.625000X-0.150000X0.625000X-0.150000X-0.625000X0.150000X-0.625000X0*%
%ADD11RoundRect,0.250000X0.350000X0.650000X-0.350000X0.650000X-0.350000X-0.650000X0.350000X-0.650000X0*%
%ADD12R,0.450000X1.475000*%
%ADD13RoundRect,0.200000X-0.200000X-0.275000X0.200000X-0.275000X0.200000X0.275000X-0.200000X0.275000X0*%
%ADD14R,0.800000X0.500000*%
%ADD15R,0.800000X0.400000*%
%ADD16RoundRect,0.020500X-0.764500X-0.184500X0.764500X-0.184500X0.764500X0.184500X-0.764500X0.184500X0*%
%ADD17RoundRect,0.150000X-0.150000X-0.625000X0.150000X-0.625000X0.150000X0.625000X-0.150000X0.625000X0*%
%ADD18RoundRect,0.250000X-0.350000X-0.650000X0.350000X-0.650000X0.350000X0.650000X-0.350000X0.650000X0*%
G04 APERTURE END LIST*
D10*
%TO.C,J1*%
X160520000Y-97725000D03*
X159520000Y-97725000D03*
X158520000Y-97725000D03*
X157520000Y-97725000D03*
D11*
X161820000Y-100250000D03*
X156220000Y-100250000D03*
%TD*%
D12*
%TO.C,IC1*%
X150905000Y-85058000D03*
X151555000Y-85058000D03*
X152205000Y-85058000D03*
X152855000Y-85058000D03*
X153505000Y-85058000D03*
X154155000Y-85058000D03*
X154805000Y-85058000D03*
X155455000Y-85058000D03*
X156105000Y-85058000D03*
X156755000Y-85058000D03*
X157405000Y-85058000D03*
X158055000Y-85058000D03*
X158705000Y-85058000D03*
X159355000Y-85058000D03*
X159355000Y-79182000D03*
X158705000Y-79182000D03*
X158055000Y-79182000D03*
X157405000Y-79182000D03*
X156755000Y-79182000D03*
X156105000Y-79182000D03*
X155455000Y-79182000D03*
X154805000Y-79182000D03*
X154155000Y-79182000D03*
X153505000Y-79182000D03*
X152855000Y-79182000D03*
X152205000Y-79182000D03*
X151555000Y-79182000D03*
X150905000Y-79182000D03*
%TD*%
D13*
%TO.C,R3*%
X147965000Y-87980000D03*
X149615000Y-87980000D03*
%TD*%
D14*
%TO.C,R1*%
X149700000Y-91840000D03*
D15*
X149700000Y-91040000D03*
X149700000Y-90240000D03*
D14*
X149700000Y-89440000D03*
X147900000Y-89440000D03*
D15*
X147900000Y-90240000D03*
X147900000Y-91040000D03*
D14*
X147900000Y-91840000D03*
%TD*%
D16*
%TO.C,U1*%
X152215000Y-88545000D03*
X152215000Y-89195000D03*
X152215000Y-89845000D03*
X152215000Y-90495000D03*
X152215000Y-91145000D03*
X152215000Y-91795000D03*
X152215000Y-92445000D03*
X152215000Y-93095000D03*
X152215000Y-93745000D03*
X152215000Y-94395000D03*
X152215000Y-95045000D03*
X152215000Y-95695000D03*
X157955000Y-95695000D03*
X157955000Y-95045000D03*
X157955000Y-94395000D03*
X157955000Y-93745000D03*
X157955000Y-93095000D03*
X157955000Y-92445000D03*
X157955000Y-91795000D03*
X157955000Y-91145000D03*
X157955000Y-90495000D03*
X157955000Y-89845000D03*
X157955000Y-89195000D03*
X157955000Y-88545000D03*
%TD*%
D17*
%TO.C,J5*%
X157650000Y-76820000D03*
X158650000Y-76820000D03*
X159650000Y-76820000D03*
X160650000Y-76820000D03*
D18*
X156350000Y-74295000D03*
X161950000Y-74295000D03*
%TD*%
D14*
%TO.C,R4*%
X160450000Y-93300000D03*
D15*
X160450000Y-94100000D03*
X160450000Y-94900000D03*
D14*
X160450000Y-95700000D03*
X162250000Y-95700000D03*
D15*
X162250000Y-94900000D03*
X162250000Y-94100000D03*
D14*
X162250000Y-93300000D03*
%TD*%
D17*
%TO.C,J2*%
X149740000Y-76810000D03*
X150740000Y-76810000D03*
X151740000Y-76810000D03*
X152740000Y-76810000D03*
D18*
X148440000Y-74285000D03*
X154040000Y-74285000D03*
%TD*%
D10*
%TO.C,J3*%
X152630000Y-97730000D03*
X151630000Y-97730000D03*
X150630000Y-97730000D03*
X149630000Y-97730000D03*
D11*
X153930000Y-100255000D03*
X148330000Y-100255000D03*
%TD*%
D14*
%TO.C,R2*%
X149690000Y-95660000D03*
D15*
X149690000Y-94860000D03*
X149690000Y-94060000D03*
D14*
X149690000Y-93260000D03*
X147890000Y-93260000D03*
D15*
X147890000Y-94060000D03*
X147890000Y-94860000D03*
D14*
X147890000Y-95660000D03*
%TD*%
M02*
