%TF.GenerationSoftware,KiCad,Pcbnew,8.0.2-1*%
%TF.CreationDate,2024-05-29T23:20:37-07:00*%
%TF.ProjectId,mux_driver_v1,6d75785f-6472-4697-9665-725f76312e6b,rev?*%
%TF.SameCoordinates,Original*%
%TF.FileFunction,Copper,L2,Bot*%
%TF.FilePolarity,Positive*%
%FSLAX46Y46*%
G04 Gerber Fmt 4.6, Leading zero omitted, Abs format (unit mm)*
G04 Created by KiCad (PCBNEW 8.0.2-1) date 2024-05-29 23:20:37*
%MOMM*%
%LPD*%
G01*
G04 APERTURE LIST*
%TA.AperFunction,ComponentPad*%
%ADD10R,1.700000X1.700000*%
%TD*%
%TA.AperFunction,ComponentPad*%
%ADD11O,1.700000X1.700000*%
%TD*%
%TA.AperFunction,ViaPad*%
%ADD12C,0.800000*%
%TD*%
%TA.AperFunction,ViaPad*%
%ADD13C,0.560000*%
%TD*%
%TA.AperFunction,Conductor*%
%ADD14C,0.152400*%
%TD*%
G04 APERTURE END LIST*
D10*
%TO.P,J6,1,Pin_1*%
%TO.N,GND*%
X166360000Y-75110000D03*
D11*
%TO.P,J6,2,Pin_2*%
%TO.N,F3_ENB*%
X166360000Y-77650000D03*
%TO.P,J6,3,Pin_3*%
%TO.N,F3_SCL*%
X166360000Y-80190000D03*
%TO.P,J6,4,Pin_4*%
%TO.N,F3_SDA*%
X166360000Y-82730000D03*
%TO.P,J6,5,Pin_5*%
%TO.N,F4_ENB*%
X166360000Y-85270000D03*
%TO.P,J6,6,Pin_6*%
%TO.N,F4_SCL*%
X166360000Y-87810000D03*
%TO.P,J6,7,Pin_7*%
%TO.N,F4_SDA*%
X166360000Y-90350000D03*
%TO.P,J6,8,Pin_8*%
%TO.N,Camera*%
X166360000Y-92890000D03*
%TO.P,J6,9,Pin_9*%
%TO.N,Break_SCL*%
X166360000Y-95430000D03*
%TO.P,J6,10,Pin_10*%
%TO.N,Break_SDA*%
X166360000Y-97970000D03*
%TO.P,J6,11,Pin_11*%
%TO.N,GND*%
X166360000Y-100510000D03*
%TD*%
D10*
%TO.P,J4,1,Pin_1*%
%TO.N,GND*%
X143710000Y-74990000D03*
D11*
%TO.P,J4,2,Pin_2*%
%TO.N,F0_ENB*%
X143710000Y-77530000D03*
%TO.P,J4,3,Pin_3*%
%TO.N,F0_SCL*%
X143710000Y-80070000D03*
%TO.P,J4,4,Pin_4*%
%TO.N,F0_SDA*%
X143710000Y-82610000D03*
%TO.P,J4,5,Pin_5*%
%TO.N,F1_ENB*%
X143710000Y-85150000D03*
%TO.P,J4,6,Pin_6*%
%TO.N,F1_SCL*%
X143710000Y-87690000D03*
%TO.P,J4,7,Pin_7*%
%TO.N,F1_SDA*%
X143710000Y-90230000D03*
%TO.P,J4,8,Pin_8*%
%TO.N,F2_ENB*%
X143710000Y-92770000D03*
%TO.P,J4,9,Pin_9*%
%TO.N,F2_SCL*%
X143710000Y-95310000D03*
%TO.P,J4,10,Pin_10*%
%TO.N,F2_SDA*%
X143710000Y-97850000D03*
%TO.P,J4,11,Pin_11*%
%TO.N,GND*%
X143710000Y-100390000D03*
%TD*%
D10*
%TO.P,J7,1,Pin_1*%
%TO.N,GND*%
X151245000Y-69850000D03*
D11*
%TO.P,J7,2,Pin_2*%
%TO.N,+3V3*%
X153785000Y-69850000D03*
%TO.P,J7,3,Pin_3*%
%TO.N,SDA1*%
X156325000Y-69850000D03*
%TO.P,J7,4,Pin_4*%
%TO.N,SCL1*%
X158865000Y-69850000D03*
%TD*%
D12*
%TO.N,Camera*%
X157425000Y-86625000D03*
D13*
%TO.N,+3V3*%
X149825000Y-86675000D03*
X147000000Y-91225000D03*
X163175000Y-91075000D03*
X147575000Y-87050000D03*
X163175000Y-91075000D03*
X147000000Y-89125000D03*
X146275000Y-92275000D03*
X158850000Y-73675000D03*
X161775000Y-88575000D03*
X146775000Y-94525000D03*
X150725000Y-96325000D03*
%TO.N,GND*%
X160700000Y-85350000D03*
X153700000Y-80825000D03*
X153600000Y-95900000D03*
X160750000Y-82250000D03*
D12*
X152850000Y-82275000D03*
%TO.N,F0_ENB*%
X154150000Y-82750000D03*
%TO.N,F1_ENB*%
X154850000Y-83575000D03*
%TO.N,F2_ENB*%
X155425000Y-86650000D03*
%TO.N,F3_ENB*%
X156050000Y-82775000D03*
%TO.N,F4_ENB*%
X156800000Y-83650000D03*
%TO.N,SCL0*%
X156450000Y-97900000D03*
D13*
X156425000Y-90600000D03*
D12*
X152425000Y-99650000D03*
D13*
%TO.N,SDA0*%
X158575000Y-99200000D03*
X156350000Y-89625000D03*
D12*
%TO.N,SCL1*%
X157625000Y-74974300D03*
X153750000Y-77025000D03*
D13*
%TO.N,F3_SDA*%
X155850000Y-88325000D03*
X154105700Y-94389452D03*
%TO.N,F1_SDA*%
X148751793Y-90600638D03*
%TO.N,F3_SCL*%
X155719114Y-87478867D03*
X153550000Y-94975000D03*
%TO.N,F2_SCL*%
X148400000Y-97150000D03*
%TO.N,F0_SCL*%
X146825000Y-86425000D03*
X147784779Y-85705700D03*
%TO.N,F4_SCL*%
X159975000Y-91450000D03*
X159325000Y-94950700D03*
%TO.N,F4_SDA*%
X159325000Y-96000000D03*
X160530700Y-92275000D03*
%TD*%
D14*
%TO.N,Camera*%
X157425000Y-86625000D02*
X157425000Y-87700000D01*
X157425000Y-87700000D02*
X162615000Y-92890000D01*
X162615000Y-92890000D02*
X166196800Y-92890000D01*
%TO.N,+3V3*%
X147575000Y-87050000D02*
X147950000Y-86675000D01*
X163175000Y-89975000D02*
X161775000Y-88575000D01*
X146275000Y-92275000D02*
X146275000Y-91950000D01*
X153875000Y-70053200D02*
X153785000Y-70053200D01*
X147000000Y-87625000D02*
X147575000Y-87050000D01*
X158850000Y-73675000D02*
X158525000Y-73350000D01*
X147000000Y-89125000D02*
X147000000Y-87625000D01*
X146275000Y-91950000D02*
X147000000Y-91225000D01*
X158525000Y-73350000D02*
X154800000Y-73350000D01*
X150725000Y-96325000D02*
X148575000Y-96325000D01*
X147950000Y-86675000D02*
X149825000Y-86675000D01*
X153875000Y-72425000D02*
X153875000Y-70053200D01*
X148575000Y-96325000D02*
X146775000Y-94525000D01*
X163175000Y-91075000D02*
X163175000Y-89975000D01*
X154800000Y-73350000D02*
X153875000Y-72425000D01*
%TO.N,F0_ENB*%
X149061292Y-77530000D02*
X143903200Y-77530000D01*
X154150000Y-82750000D02*
X154150000Y-82618708D01*
X154150000Y-82618708D02*
X149061292Y-77530000D01*
%TO.N,F1_ENB*%
X154850000Y-83575000D02*
X150625000Y-83575000D01*
X150625000Y-83575000D02*
X149050000Y-85150000D01*
X149050000Y-85150000D02*
X143903200Y-85150000D01*
%TO.N,F2_ENB*%
X153750000Y-86650000D02*
X147200000Y-93200000D01*
X144333200Y-93200000D02*
X143903200Y-92770000D01*
X155425000Y-86650000D02*
X153750000Y-86650000D01*
X147200000Y-93200000D02*
X144333200Y-93200000D01*
%TO.N,F3_ENB*%
X156050000Y-82775000D02*
X161175000Y-77650000D01*
X161175000Y-77650000D02*
X166196800Y-77650000D01*
%TO.N,F4_ENB*%
X156800000Y-83650000D02*
X160450000Y-83650000D01*
X160450000Y-83650000D02*
X162100000Y-85300000D01*
X162100000Y-85300000D02*
X162130000Y-85270000D01*
X162130000Y-85270000D02*
X166196800Y-85270000D01*
%TO.N,SCL0*%
X156450000Y-90625000D02*
X156450000Y-97900000D01*
X152425000Y-99650000D02*
X154700000Y-99650000D01*
X156425000Y-90600000D02*
X156450000Y-90625000D01*
X154700000Y-99650000D02*
X156450000Y-97900000D01*
%TO.N,SDA0*%
X156350000Y-89625000D02*
X158575000Y-91850000D01*
X158575000Y-91850000D02*
X158575000Y-99200000D01*
%TO.N,SCL1*%
X155800700Y-74974300D02*
X153750000Y-77025000D01*
X157625000Y-74974300D02*
X155800700Y-74974300D01*
%TO.N,F3_SDA*%
X154105700Y-90069300D02*
X155850000Y-88325000D01*
X154105700Y-94389452D02*
X154105700Y-90069300D01*
%TO.N,F1_SDA*%
X144080638Y-90600638D02*
X143903200Y-90423200D01*
X143903200Y-90423200D02*
X143903200Y-90230000D01*
X148751793Y-90600638D02*
X144080638Y-90600638D01*
%TO.N,F3_SCL*%
X155719114Y-87478867D02*
X155614841Y-87478867D01*
X155614841Y-87478867D02*
X153550000Y-89543708D01*
X153550000Y-89543708D02*
X153550000Y-94975000D01*
%TO.N,F2_SCL*%
X146560000Y-95310000D02*
X143903200Y-95310000D01*
X148400000Y-97150000D02*
X146560000Y-95310000D01*
%TO.N,F0_SCL*%
X146825000Y-86425000D02*
X147065479Y-86425000D01*
X147065479Y-86425000D02*
X147784779Y-85705700D01*
%TO.N,F4_SCL*%
X159325000Y-94950700D02*
X159975000Y-94300700D01*
X159975000Y-94300700D02*
X159975000Y-91450000D01*
%TO.N,F4_SDA*%
X160530700Y-94531586D02*
X160530700Y-92275000D01*
X159325000Y-95737286D02*
X160530700Y-94531586D01*
X159325000Y-96000000D02*
X159325000Y-95737286D01*
%TD*%
%TA.AperFunction,Conductor*%
%TO.N,F3_ENB*%
G36*
X166322732Y-76809415D02*
G01*
X166323203Y-76809610D01*
X166377627Y-76853425D01*
X166390301Y-76876584D01*
X166390499Y-76877062D01*
X166400000Y-76924663D01*
X166400000Y-78375336D01*
X166390498Y-78422938D01*
X166390390Y-78423202D01*
X166390303Y-78423411D01*
X166346389Y-78477755D01*
X166323411Y-78490302D01*
X166322938Y-78490498D01*
X166275336Y-78500000D01*
X164474664Y-78500000D01*
X164427148Y-78490534D01*
X164426674Y-78490338D01*
X164372297Y-78446466D01*
X164359610Y-78423202D01*
X164359502Y-78422942D01*
X164359415Y-78422732D01*
X164350000Y-78375336D01*
X164350000Y-76924663D01*
X164359415Y-76877268D01*
X164359611Y-76876794D01*
X164403425Y-76822372D01*
X164426873Y-76809579D01*
X164427355Y-76809379D01*
X164474664Y-76800000D01*
X166275336Y-76800000D01*
X166322732Y-76809415D01*
G37*
%TD.AperFunction*%
%TD*%
%TA.AperFunction,Conductor*%
%TO.N,F3_SCL*%
G36*
X166322732Y-79349415D02*
G01*
X166323203Y-79349610D01*
X166377627Y-79393425D01*
X166390301Y-79416584D01*
X166390499Y-79417062D01*
X166400000Y-79464663D01*
X166400000Y-80915336D01*
X166390498Y-80962938D01*
X166390390Y-80963202D01*
X166390303Y-80963411D01*
X166346389Y-81017755D01*
X166323411Y-81030302D01*
X166322938Y-81030498D01*
X166275336Y-81040000D01*
X164474664Y-81040000D01*
X164427148Y-81030534D01*
X164426674Y-81030338D01*
X164372297Y-80986466D01*
X164359610Y-80963202D01*
X164359502Y-80962942D01*
X164359415Y-80962732D01*
X164350000Y-80915336D01*
X164350000Y-79464663D01*
X164359415Y-79417268D01*
X164359611Y-79416794D01*
X164403425Y-79362372D01*
X164426873Y-79349579D01*
X164427355Y-79349379D01*
X164474664Y-79340000D01*
X166275336Y-79340000D01*
X166322732Y-79349415D01*
G37*
%TD.AperFunction*%
%TD*%
%TA.AperFunction,Conductor*%
%TO.N,F2_SDA*%
G36*
X145662732Y-97009415D02*
G01*
X145663203Y-97009610D01*
X145717627Y-97053425D01*
X145730301Y-97076584D01*
X145730499Y-97077062D01*
X145740000Y-97124663D01*
X145740000Y-98575336D01*
X145730498Y-98622938D01*
X145730390Y-98623202D01*
X145730303Y-98623411D01*
X145686389Y-98677755D01*
X145663411Y-98690302D01*
X145662938Y-98690498D01*
X145615336Y-98700000D01*
X143824664Y-98700000D01*
X143777148Y-98690534D01*
X143776674Y-98690338D01*
X143722297Y-98646466D01*
X143709610Y-98623202D01*
X143709502Y-98622942D01*
X143709415Y-98622732D01*
X143700000Y-98575336D01*
X143700000Y-97124663D01*
X143709415Y-97077268D01*
X143709611Y-97076794D01*
X143753425Y-97022372D01*
X143776873Y-97009579D01*
X143777355Y-97009379D01*
X143824664Y-97000000D01*
X145615336Y-97000000D01*
X145662732Y-97009415D01*
G37*
%TD.AperFunction*%
%TD*%
%TA.AperFunction,Conductor*%
%TO.N,GND*%
G36*
X166400000Y-75960000D02*
G01*
X164380000Y-75960000D01*
X164350000Y-75960000D01*
X164350000Y-74260000D01*
X166400000Y-74260000D01*
X166400000Y-75960000D01*
G37*
%TD.AperFunction*%
%TD*%
%TA.AperFunction,Conductor*%
%TO.N,F4_SDA*%
G36*
X166313203Y-89509329D02*
G01*
X166313713Y-89509539D01*
X166368214Y-89553254D01*
X166380832Y-89576157D01*
X166381044Y-89576663D01*
X166390729Y-89623980D01*
X166399262Y-91074653D01*
X166390065Y-91122250D01*
X166389887Y-91122686D01*
X166346324Y-91177313D01*
X166322760Y-91190287D01*
X166322323Y-91190469D01*
X166274649Y-91200000D01*
X164474664Y-91200000D01*
X164427148Y-91190534D01*
X164426674Y-91190338D01*
X164372297Y-91146466D01*
X164359610Y-91123202D01*
X164359416Y-91122733D01*
X164350000Y-91075336D01*
X164350000Y-89624663D01*
X164359415Y-89577268D01*
X164359611Y-89576794D01*
X164403425Y-89522372D01*
X164426873Y-89509579D01*
X164427355Y-89509379D01*
X164474664Y-89500000D01*
X166266017Y-89500000D01*
X166313203Y-89509329D01*
G37*
%TD.AperFunction*%
%TD*%
%TA.AperFunction,Conductor*%
%TO.N,Break_SCL*%
G36*
X166322732Y-94589415D02*
G01*
X166323203Y-94589610D01*
X166377627Y-94633425D01*
X166390301Y-94656584D01*
X166390499Y-94657062D01*
X166400000Y-94704663D01*
X166400000Y-96155336D01*
X166390498Y-96202938D01*
X166390333Y-96203338D01*
X166390303Y-96203411D01*
X166346389Y-96257755D01*
X166323411Y-96270302D01*
X166322938Y-96270498D01*
X166275336Y-96280000D01*
X164483983Y-96280000D01*
X164436679Y-96270622D01*
X164436175Y-96270414D01*
X164381714Y-96226644D01*
X164369169Y-96203845D01*
X164368953Y-96203332D01*
X164359270Y-96156019D01*
X164359266Y-96155336D01*
X164350737Y-94705342D01*
X164359934Y-94657749D01*
X164360113Y-94657310D01*
X164403675Y-94602686D01*
X164427552Y-94589582D01*
X164427664Y-94589535D01*
X164427993Y-94589400D01*
X164475351Y-94580000D01*
X166275336Y-94580000D01*
X166322732Y-94589415D01*
G37*
%TD.AperFunction*%
%TD*%
%TA.AperFunction,Conductor*%
%TO.N,GND*%
G36*
X145740000Y-101245000D02*
G01*
X143700000Y-101245000D01*
X143700000Y-99540000D01*
X145740000Y-99540000D01*
X145740000Y-101245000D01*
G37*
%TD.AperFunction*%
%TD*%
%TA.AperFunction,Conductor*%
%TO.N,GND*%
G36*
X155673816Y-83316730D02*
G01*
X155675469Y-83317598D01*
X155675471Y-83317599D01*
X155816207Y-83391463D01*
X155816206Y-83391463D01*
X155970528Y-83429500D01*
X156027499Y-83429500D01*
X156094538Y-83449185D01*
X156140293Y-83501989D01*
X156150595Y-83568446D01*
X156140693Y-83649999D01*
X156140693Y-83650000D01*
X156159850Y-83807781D01*
X156216214Y-83956397D01*
X156277686Y-84045454D01*
X156306502Y-84087201D01*
X156306504Y-84087203D01*
X156306506Y-84087205D01*
X156425469Y-84192598D01*
X156425471Y-84192599D01*
X156566207Y-84266463D01*
X156619656Y-84279637D01*
X156720528Y-84304500D01*
X156720529Y-84304500D01*
X156879472Y-84304500D01*
X156930911Y-84291821D01*
X157033793Y-84266463D01*
X157174529Y-84192599D01*
X157293498Y-84087201D01*
X157330040Y-84034259D01*
X157384322Y-83990270D01*
X157432090Y-83980700D01*
X160261658Y-83980700D01*
X160328697Y-84000385D01*
X160349339Y-84017019D01*
X161896943Y-85564624D01*
X161971290Y-85607550D01*
X161972354Y-85608164D01*
X162056462Y-85630700D01*
X162056463Y-85630700D01*
X162056465Y-85630700D01*
X162143534Y-85630700D01*
X162143537Y-85630700D01*
X162180169Y-85620885D01*
X162235498Y-85606061D01*
X162235897Y-85607550D01*
X162270331Y-85600700D01*
X163966500Y-85600700D01*
X164033539Y-85620385D01*
X164079294Y-85673189D01*
X164090500Y-85724700D01*
X164090500Y-85995336D01*
X164094420Y-86035186D01*
X164095473Y-86045896D01*
X164095474Y-86045902D01*
X164104887Y-86093291D01*
X164104888Y-86093293D01*
X164119674Y-86142053D01*
X164119761Y-86142263D01*
X164119824Y-86142415D01*
X164119832Y-86142456D01*
X164119839Y-86142470D01*
X164119846Y-86142468D01*
X164119952Y-86142724D01*
X164119963Y-86142748D01*
X164131790Y-86167455D01*
X164131792Y-86167458D01*
X164144468Y-86190702D01*
X164144470Y-86190705D01*
X164144473Y-86190710D01*
X164204772Y-86262944D01*
X164209352Y-86268430D01*
X164247428Y-86299150D01*
X164263728Y-86312301D01*
X164327513Y-86350145D01*
X164327987Y-86350341D01*
X164376447Y-86365033D01*
X164423963Y-86374499D01*
X164423968Y-86374499D01*
X164423971Y-86374500D01*
X164441238Y-86376203D01*
X164474664Y-86379500D01*
X164474673Y-86379500D01*
X166276000Y-86379500D01*
X166343039Y-86399185D01*
X166388794Y-86451989D01*
X166400000Y-86503500D01*
X166400000Y-86576500D01*
X166380315Y-86643539D01*
X166327511Y-86689294D01*
X166276000Y-86700500D01*
X166275336Y-86700500D01*
X164474664Y-86700500D01*
X164424200Y-86705454D01*
X164424195Y-86705455D01*
X164376883Y-86714834D01*
X164376882Y-86714834D01*
X164327911Y-86729690D01*
X164327907Y-86729692D01*
X164327905Y-86729692D01*
X164327901Y-86729694D01*
X164327419Y-86729894D01*
X164327400Y-86729902D01*
X164302594Y-86741774D01*
X164302567Y-86741788D01*
X164279250Y-86754509D01*
X164279251Y-86754510D01*
X164278952Y-86754673D01*
X164201291Y-86819637D01*
X164201290Y-86819638D01*
X164157476Y-86874060D01*
X164119804Y-86937632D01*
X164119803Y-86937634D01*
X164119610Y-86938101D01*
X164104888Y-86986703D01*
X164104887Y-86986710D01*
X164095475Y-87034084D01*
X164095473Y-87034101D01*
X164090500Y-87084663D01*
X164090500Y-88535336D01*
X164094401Y-88574997D01*
X164095473Y-88585896D01*
X164095474Y-88585902D01*
X164104887Y-88633291D01*
X164116158Y-88670458D01*
X164119674Y-88682053D01*
X164119761Y-88682263D01*
X164119824Y-88682415D01*
X164119832Y-88682456D01*
X164119839Y-88682470D01*
X164119846Y-88682468D01*
X164119952Y-88682724D01*
X164119963Y-88682748D01*
X164131790Y-88707455D01*
X164131792Y-88707458D01*
X164144468Y-88730702D01*
X164144470Y-88730705D01*
X164144473Y-88730710D01*
X164209351Y-88808429D01*
X164263728Y-88852301D01*
X164327513Y-88890145D01*
X164327987Y-88890341D01*
X164376447Y-88905033D01*
X164423963Y-88914499D01*
X164423968Y-88914499D01*
X164423971Y-88914500D01*
X164441238Y-88916203D01*
X164474664Y-88919500D01*
X164474673Y-88919500D01*
X166276000Y-88919500D01*
X166343039Y-88939185D01*
X166388794Y-88991989D01*
X166400000Y-89043500D01*
X166400000Y-89116884D01*
X166380315Y-89183923D01*
X166327511Y-89229678D01*
X166269103Y-89239437D01*
X166269044Y-89240648D01*
X166266022Y-89240500D01*
X166266017Y-89240500D01*
X164474664Y-89240500D01*
X164424200Y-89245454D01*
X164424195Y-89245455D01*
X164376883Y-89254834D01*
X164376882Y-89254834D01*
X164327911Y-89269690D01*
X164327907Y-89269692D01*
X164327905Y-89269692D01*
X164327901Y-89269694D01*
X164327419Y-89269894D01*
X164327400Y-89269902D01*
X164302594Y-89281774D01*
X164302567Y-89281788D01*
X164279250Y-89294509D01*
X164279251Y-89294510D01*
X164278952Y-89294673D01*
X164201291Y-89359637D01*
X164201290Y-89359638D01*
X164157476Y-89414060D01*
X164119804Y-89477632D01*
X164119803Y-89477634D01*
X164119610Y-89478101D01*
X164104888Y-89526703D01*
X164104887Y-89526710D01*
X164095475Y-89574084D01*
X164095473Y-89574101D01*
X164090500Y-89624668D01*
X164090500Y-91075345D01*
X164095471Y-91125883D01*
X164095476Y-91125915D01*
X164104887Y-91173287D01*
X164104887Y-91173289D01*
X164104890Y-91173298D01*
X164119621Y-91221923D01*
X164119626Y-91221935D01*
X164119811Y-91222383D01*
X164119825Y-91222414D01*
X164131767Y-91247409D01*
X164131786Y-91247446D01*
X164144470Y-91270706D01*
X164144471Y-91270707D01*
X164144473Y-91270710D01*
X164206118Y-91344556D01*
X164209352Y-91348430D01*
X164263728Y-91392301D01*
X164327513Y-91430145D01*
X164327987Y-91430341D01*
X164376447Y-91445033D01*
X164423963Y-91454499D01*
X164423968Y-91454499D01*
X164423971Y-91454500D01*
X164441238Y-91456203D01*
X164474664Y-91459500D01*
X164474673Y-91459500D01*
X166276000Y-91459500D01*
X166343039Y-91479185D01*
X166388794Y-91531989D01*
X166400000Y-91583500D01*
X166400000Y-91656500D01*
X166380315Y-91723539D01*
X166327511Y-91769294D01*
X166276000Y-91780500D01*
X166275336Y-91780500D01*
X164474664Y-91780500D01*
X164424200Y-91785454D01*
X164424195Y-91785455D01*
X164376883Y-91794834D01*
X164376882Y-91794834D01*
X164327911Y-91809690D01*
X164327907Y-91809692D01*
X164327905Y-91809692D01*
X164327901Y-91809694D01*
X164327419Y-91809894D01*
X164327400Y-91809902D01*
X164302594Y-91821774D01*
X164302567Y-91821788D01*
X164279250Y-91834509D01*
X164279251Y-91834510D01*
X164278952Y-91834673D01*
X164201291Y-91899637D01*
X164201290Y-91899638D01*
X164157476Y-91954060D01*
X164119804Y-92017632D01*
X164119803Y-92017634D01*
X164119610Y-92018101D01*
X164104888Y-92066703D01*
X164104887Y-92066710D01*
X164095475Y-92114084D01*
X164095473Y-92114101D01*
X164093372Y-92135468D01*
X164090500Y-92164668D01*
X164090500Y-92435300D01*
X164070815Y-92502339D01*
X164018011Y-92548094D01*
X163966500Y-92559300D01*
X162803342Y-92559300D01*
X162736303Y-92539615D01*
X162715661Y-92522981D01*
X158767680Y-88575000D01*
X161235888Y-88575000D01*
X161253782Y-88710920D01*
X161254258Y-88714531D01*
X161254259Y-88714535D01*
X161308113Y-88844553D01*
X161308114Y-88844555D01*
X161308115Y-88844556D01*
X161393790Y-88956210D01*
X161505444Y-89041885D01*
X161505445Y-89041885D01*
X161505446Y-89041886D01*
X161548785Y-89059837D01*
X161635468Y-89095742D01*
X161775000Y-89114112D01*
X161777487Y-89113784D01*
X161779588Y-89114112D01*
X161783129Y-89114112D01*
X161783129Y-89114663D01*
X161846520Y-89124544D01*
X161881361Y-89149041D01*
X162807981Y-90075661D01*
X162841466Y-90136984D01*
X162844300Y-90163342D01*
X162844300Y-90593881D01*
X162824615Y-90660920D01*
X162795793Y-90692252D01*
X162793794Y-90693786D01*
X162793792Y-90693788D01*
X162793790Y-90693790D01*
X162758692Y-90739531D01*
X162708113Y-90805446D01*
X162654259Y-90935464D01*
X162654258Y-90935468D01*
X162636706Y-91068790D01*
X162635888Y-91075000D01*
X162649770Y-91180446D01*
X162654258Y-91214531D01*
X162654259Y-91214535D01*
X162708113Y-91344553D01*
X162708114Y-91344555D01*
X162708115Y-91344556D01*
X162793790Y-91456210D01*
X162905444Y-91541885D01*
X163035468Y-91595742D01*
X163158766Y-91611974D01*
X163174999Y-91614112D01*
X163175000Y-91614112D01*
X163175001Y-91614112D01*
X163189541Y-91612197D01*
X163314532Y-91595742D01*
X163444556Y-91541885D01*
X163556210Y-91456210D01*
X163641885Y-91344556D01*
X163695742Y-91214532D01*
X163714112Y-91075000D01*
X163713294Y-91068790D01*
X163711313Y-91053740D01*
X163695742Y-90935468D01*
X163641885Y-90805444D01*
X163556210Y-90693790D01*
X163556205Y-90693786D01*
X163554207Y-90692252D01*
X163552947Y-90690526D01*
X163550460Y-90688039D01*
X163550847Y-90687651D01*
X163513008Y-90635821D01*
X163505700Y-90593881D01*
X163505700Y-89931465D01*
X163505700Y-89931462D01*
X163483164Y-89847354D01*
X163439626Y-89771945D01*
X163378055Y-89710374D01*
X163373724Y-89706043D01*
X163373713Y-89706033D01*
X162349041Y-88681361D01*
X162315556Y-88620038D01*
X162313784Y-88577489D01*
X162314112Y-88575000D01*
X162295742Y-88435468D01*
X162241885Y-88305444D01*
X162156210Y-88193790D01*
X162044556Y-88108115D01*
X162044555Y-88108114D01*
X162044553Y-88108113D01*
X161914535Y-88054259D01*
X161914533Y-88054258D01*
X161914532Y-88054258D01*
X161844766Y-88045073D01*
X161775001Y-88035888D01*
X161774999Y-88035888D01*
X161635468Y-88054258D01*
X161635464Y-88054259D01*
X161505446Y-88108113D01*
X161393790Y-88193790D01*
X161308113Y-88305446D01*
X161254259Y-88435464D01*
X161254258Y-88435468D01*
X161237707Y-88561187D01*
X161235888Y-88575000D01*
X158767680Y-88575000D01*
X157792019Y-87599339D01*
X157758534Y-87538016D01*
X157755700Y-87511658D01*
X157755700Y-87262235D01*
X157775385Y-87195196D01*
X157797473Y-87169420D01*
X157799527Y-87167599D01*
X157799529Y-87167599D01*
X157918498Y-87062201D01*
X158008787Y-86931395D01*
X158065149Y-86782782D01*
X158084307Y-86625000D01*
X158073435Y-86535464D01*
X158065149Y-86467218D01*
X158057460Y-86446945D01*
X158008787Y-86318605D01*
X157918498Y-86187799D01*
X157918495Y-86187796D01*
X157918493Y-86187794D01*
X157799530Y-86082401D01*
X157658791Y-86008536D01*
X157504472Y-85970500D01*
X157504471Y-85970500D01*
X157345529Y-85970500D01*
X157345528Y-85970500D01*
X157191208Y-86008536D01*
X157050469Y-86082401D01*
X156931506Y-86187794D01*
X156931500Y-86187801D01*
X156841214Y-86318602D01*
X156784850Y-86467218D01*
X156765693Y-86624999D01*
X156765693Y-86625000D01*
X156784850Y-86782781D01*
X156841214Y-86931397D01*
X156896238Y-87011113D01*
X156931502Y-87062201D01*
X156931504Y-87062203D01*
X156931506Y-87062205D01*
X156971523Y-87097657D01*
X157050471Y-87167599D01*
X157050472Y-87167599D01*
X157052527Y-87169420D01*
X157089654Y-87228609D01*
X157094300Y-87262235D01*
X157094300Y-87743539D01*
X157095608Y-87748419D01*
X157116836Y-87827646D01*
X157160374Y-87903055D01*
X157160376Y-87903057D01*
X157229010Y-87971691D01*
X157229016Y-87971696D01*
X159967931Y-90710611D01*
X160001416Y-90771934D01*
X159996432Y-90841626D01*
X159954560Y-90897559D01*
X159896436Y-90921231D01*
X159854268Y-90926782D01*
X159835468Y-90929258D01*
X159835467Y-90929258D01*
X159835464Y-90929259D01*
X159705446Y-90983113D01*
X159593790Y-91068790D01*
X159508113Y-91180446D01*
X159454259Y-91310464D01*
X159454258Y-91310468D01*
X159435888Y-91450000D01*
X159453140Y-91581043D01*
X159454258Y-91589531D01*
X159454259Y-91589535D01*
X159508113Y-91719553D01*
X159508114Y-91719555D01*
X159508115Y-91719556D01*
X159593790Y-91831210D01*
X159595784Y-91832740D01*
X159597042Y-91834462D01*
X159599541Y-91836962D01*
X159599151Y-91837351D01*
X159636988Y-91889167D01*
X159644300Y-91931118D01*
X159644300Y-94112357D01*
X159624615Y-94179396D01*
X159607981Y-94200038D01*
X159431360Y-94376658D01*
X159370037Y-94410143D01*
X159327496Y-94411916D01*
X159325004Y-94411588D01*
X159324999Y-94411588D01*
X159185468Y-94429958D01*
X159185464Y-94429959D01*
X159077152Y-94474823D01*
X159007683Y-94482292D01*
X158945204Y-94451016D01*
X158909552Y-94390927D01*
X158905700Y-94360262D01*
X158905700Y-91806465D01*
X158905700Y-91806462D01*
X158883164Y-91722354D01*
X158839626Y-91646945D01*
X158778055Y-91585374D01*
X158773724Y-91581043D01*
X158773713Y-91581033D01*
X156924041Y-89731361D01*
X156890556Y-89670038D01*
X156888784Y-89627489D01*
X156889112Y-89625000D01*
X156870742Y-89485468D01*
X156818622Y-89359637D01*
X156816886Y-89355446D01*
X156816885Y-89355445D01*
X156816885Y-89355444D01*
X156731210Y-89243790D01*
X156619556Y-89158115D01*
X156619555Y-89158114D01*
X156619553Y-89158113D01*
X156489535Y-89104259D01*
X156489533Y-89104258D01*
X156489532Y-89104258D01*
X156419766Y-89095073D01*
X156350001Y-89085888D01*
X156349999Y-89085888D01*
X156210468Y-89104258D01*
X156210464Y-89104259D01*
X156080446Y-89158113D01*
X155968790Y-89243790D01*
X155883113Y-89355446D01*
X155829259Y-89485464D01*
X155829258Y-89485468D01*
X155810888Y-89624999D01*
X155810888Y-89625000D01*
X155829258Y-89764531D01*
X155829259Y-89764535D01*
X155883113Y-89894553D01*
X155883114Y-89894555D01*
X155883115Y-89894556D01*
X155968790Y-90006210D01*
X156020289Y-90045726D01*
X156061491Y-90102152D01*
X156065646Y-90171898D01*
X156043178Y-90219587D01*
X155958114Y-90330443D01*
X155904259Y-90460464D01*
X155904258Y-90460468D01*
X155886694Y-90593881D01*
X155885888Y-90600000D01*
X155900450Y-90710611D01*
X155904258Y-90739531D01*
X155904259Y-90739535D01*
X155958113Y-90869553D01*
X155958114Y-90869555D01*
X155958115Y-90869556D01*
X156043790Y-90981210D01*
X156070785Y-91001924D01*
X156111988Y-91058349D01*
X156119300Y-91100300D01*
X156119300Y-97262764D01*
X156099615Y-97329803D01*
X156077528Y-97355579D01*
X155956502Y-97462798D01*
X155956500Y-97462801D01*
X155866214Y-97593602D01*
X155809850Y-97742218D01*
X155790693Y-97899999D01*
X155790693Y-97900000D01*
X155804163Y-98010943D01*
X155792702Y-98079867D01*
X155768748Y-98113570D01*
X154599339Y-99282981D01*
X154538016Y-99316466D01*
X154511658Y-99319300D01*
X153057090Y-99319300D01*
X152990051Y-99299615D01*
X152955040Y-99265740D01*
X152918499Y-99212800D01*
X152918493Y-99212794D01*
X152799530Y-99107401D01*
X152658791Y-99033536D01*
X152504472Y-98995500D01*
X152504471Y-98995500D01*
X152345529Y-98995500D01*
X152345528Y-98995500D01*
X152191208Y-99033536D01*
X152050469Y-99107401D01*
X151931506Y-99212794D01*
X151931500Y-99212801D01*
X151841214Y-99343602D01*
X151784850Y-99492218D01*
X151765693Y-99649999D01*
X151765693Y-99650000D01*
X151784850Y-99807781D01*
X151841214Y-99956397D01*
X151864595Y-99990270D01*
X151931502Y-100087201D01*
X151931504Y-100087203D01*
X151931506Y-100087205D01*
X152050469Y-100192598D01*
X152050471Y-100192599D01*
X152191207Y-100266463D01*
X152268368Y-100285481D01*
X152345528Y-100304500D01*
X152345529Y-100304500D01*
X152504472Y-100304500D01*
X152555911Y-100291821D01*
X152658793Y-100266463D01*
X152799529Y-100192599D01*
X152918498Y-100087201D01*
X152955040Y-100034259D01*
X153009322Y-99990270D01*
X153057090Y-99980700D01*
X154743535Y-99980700D01*
X154743537Y-99980700D01*
X154743538Y-99980700D01*
X154827646Y-99958164D01*
X154903055Y-99914626D01*
X154964626Y-99853055D01*
X154964626Y-99853053D01*
X154974830Y-99842850D01*
X154974834Y-99842845D01*
X156234955Y-98582723D01*
X156296276Y-98549240D01*
X156352311Y-98550010D01*
X156364367Y-98552981D01*
X156370526Y-98554499D01*
X156370527Y-98554500D01*
X156370529Y-98554500D01*
X156529472Y-98554500D01*
X156615596Y-98533272D01*
X156683793Y-98516463D01*
X156824529Y-98442599D01*
X156943498Y-98337201D01*
X157033787Y-98206395D01*
X157090149Y-98057782D01*
X157109307Y-97900000D01*
X157090149Y-97742218D01*
X157033787Y-97593605D01*
X156943498Y-97462799D01*
X156824529Y-97357401D01*
X156824528Y-97357400D01*
X156822472Y-97355579D01*
X156785346Y-97296389D01*
X156780700Y-97262764D01*
X156780700Y-91056548D01*
X156800385Y-90989509D01*
X156806324Y-90981062D01*
X156860170Y-90910888D01*
X156891885Y-90869556D01*
X156891886Y-90869552D01*
X156895948Y-90862519D01*
X156898462Y-90863970D01*
X156933513Y-90820456D01*
X156999803Y-90798377D01*
X157067506Y-90815642D01*
X157091936Y-90834616D01*
X158207981Y-91950661D01*
X158241466Y-92011984D01*
X158244300Y-92038342D01*
X158244300Y-98718881D01*
X158224615Y-98785920D01*
X158195793Y-98817252D01*
X158193794Y-98818786D01*
X158193792Y-98818788D01*
X158193790Y-98818790D01*
X158156455Y-98867446D01*
X158108113Y-98930446D01*
X158054259Y-99060464D01*
X158054258Y-99060468D01*
X158035888Y-99199999D01*
X158035888Y-99200000D01*
X158054258Y-99339531D01*
X158054259Y-99339535D01*
X158108113Y-99469553D01*
X158108114Y-99469555D01*
X158108115Y-99469556D01*
X158193790Y-99581210D01*
X158305444Y-99666885D01*
X158435468Y-99720742D01*
X158558766Y-99736974D01*
X158574999Y-99739112D01*
X158575000Y-99739112D01*
X158575001Y-99739112D01*
X158589541Y-99737197D01*
X158714532Y-99720742D01*
X158844556Y-99666885D01*
X158956210Y-99581210D01*
X159041885Y-99469556D01*
X159095742Y-99339532D01*
X159114112Y-99200000D01*
X159095742Y-99060468D01*
X159041885Y-98930444D01*
X158956210Y-98818790D01*
X158956205Y-98818786D01*
X158954207Y-98817252D01*
X158952947Y-98815526D01*
X158950460Y-98813039D01*
X158950847Y-98812651D01*
X158913008Y-98760821D01*
X158905700Y-98718881D01*
X158905700Y-96590437D01*
X158925385Y-96523398D01*
X158978189Y-96477643D01*
X159047347Y-96467699D01*
X159077145Y-96475873D01*
X159185468Y-96520742D01*
X159308766Y-96536974D01*
X159324999Y-96539112D01*
X159325000Y-96539112D01*
X159325001Y-96539112D01*
X159339541Y-96537197D01*
X159464532Y-96520742D01*
X159594556Y-96466885D01*
X159706210Y-96381210D01*
X159791885Y-96269556D01*
X159845742Y-96139532D01*
X159864112Y-96000000D01*
X159845742Y-95860468D01*
X159825826Y-95812387D01*
X159818358Y-95742922D01*
X159849632Y-95680443D01*
X159852679Y-95677285D01*
X160723545Y-94806420D01*
X160723550Y-94806416D01*
X160733753Y-94796212D01*
X160733755Y-94796212D01*
X160795326Y-94734641D01*
X160838864Y-94659232D01*
X160861400Y-94575124D01*
X160861400Y-92756118D01*
X160881085Y-92689079D01*
X160909916Y-92657740D01*
X160910074Y-92657619D01*
X160911910Y-92656210D01*
X160997585Y-92544556D01*
X161051442Y-92414532D01*
X161069812Y-92275000D01*
X161051442Y-92135468D01*
X161048633Y-92128688D01*
X161041165Y-92059221D01*
X161072439Y-91996742D01*
X161132528Y-91961089D01*
X161202353Y-91963582D01*
X161250876Y-91993556D01*
X162346033Y-93088713D01*
X162346043Y-93088724D01*
X162350374Y-93093055D01*
X162411945Y-93154626D01*
X162487354Y-93198164D01*
X162571462Y-93220700D01*
X163966500Y-93220700D01*
X164033539Y-93240385D01*
X164079294Y-93293189D01*
X164090500Y-93344700D01*
X164090500Y-93615336D01*
X164094420Y-93655186D01*
X164095473Y-93665896D01*
X164095474Y-93665902D01*
X164104887Y-93713291D01*
X164104888Y-93713293D01*
X164119674Y-93762053D01*
X164119761Y-93762263D01*
X164119824Y-93762415D01*
X164119832Y-93762456D01*
X164119839Y-93762470D01*
X164119846Y-93762468D01*
X164119952Y-93762724D01*
X164119963Y-93762748D01*
X164131790Y-93787455D01*
X164131792Y-93787458D01*
X164144468Y-93810702D01*
X164144470Y-93810705D01*
X164144473Y-93810710D01*
X164209351Y-93888429D01*
X164263728Y-93932301D01*
X164327513Y-93970145D01*
X164327987Y-93970341D01*
X164376447Y-93985033D01*
X164423963Y-93994499D01*
X164423968Y-93994499D01*
X164423971Y-93994500D01*
X164441238Y-93996203D01*
X164474664Y-93999500D01*
X164474673Y-93999500D01*
X166276000Y-93999500D01*
X166343039Y-94019185D01*
X166388794Y-94071989D01*
X166400000Y-94123500D01*
X166400000Y-94196500D01*
X166380315Y-94263539D01*
X166327511Y-94309294D01*
X166276000Y-94320500D01*
X164475343Y-94320500D01*
X164424835Y-94325465D01*
X164424821Y-94325467D01*
X164377470Y-94334866D01*
X164377458Y-94334869D01*
X164329488Y-94349322D01*
X164329128Y-94349470D01*
X164327983Y-94349945D01*
X164327250Y-94350250D01*
X164327178Y-94350280D01*
X164327128Y-94350301D01*
X164313513Y-94356872D01*
X164302702Y-94362090D01*
X164302693Y-94362095D01*
X164302682Y-94362100D01*
X164278861Y-94375173D01*
X164278825Y-94375194D01*
X164278310Y-94375476D01*
X164278150Y-94375565D01*
X164278149Y-94375566D01*
X164200791Y-94440888D01*
X164157231Y-94495509D01*
X164157230Y-94495510D01*
X164119820Y-94559332D01*
X164119638Y-94559778D01*
X164105150Y-94608502D01*
X164095950Y-94656110D01*
X164091240Y-94706868D01*
X164099770Y-96156859D01*
X164099774Y-96157537D01*
X164099775Y-96157556D01*
X164105039Y-96208045D01*
X164105041Y-96208057D01*
X164114720Y-96255353D01*
X164114723Y-96255362D01*
X164128805Y-96300855D01*
X164129790Y-96304035D01*
X164130007Y-96304551D01*
X164141819Y-96328956D01*
X164152347Y-96348087D01*
X164154359Y-96351744D01*
X164214138Y-96422944D01*
X164219152Y-96428916D01*
X164246380Y-96450799D01*
X164273611Y-96472684D01*
X164337179Y-96510289D01*
X164337331Y-96510351D01*
X164337674Y-96510494D01*
X164337680Y-96510495D01*
X164337683Y-96510497D01*
X164386215Y-96525168D01*
X164433519Y-96534546D01*
X164483983Y-96539500D01*
X164483988Y-96539500D01*
X166276000Y-96539500D01*
X166343039Y-96559185D01*
X166388794Y-96611989D01*
X166400000Y-96663500D01*
X166400000Y-96736500D01*
X166380315Y-96803539D01*
X166327511Y-96849294D01*
X166276000Y-96860500D01*
X166275336Y-96860500D01*
X164474664Y-96860500D01*
X164424200Y-96865454D01*
X164424195Y-96865455D01*
X164376883Y-96874834D01*
X164376882Y-96874834D01*
X164327911Y-96889690D01*
X164327907Y-96889692D01*
X164327905Y-96889692D01*
X164327901Y-96889694D01*
X164327419Y-96889894D01*
X164327400Y-96889902D01*
X164302594Y-96901774D01*
X164302567Y-96901788D01*
X164279250Y-96914509D01*
X164279251Y-96914510D01*
X164278952Y-96914673D01*
X164201291Y-96979637D01*
X164201290Y-96979638D01*
X164157476Y-97034060D01*
X164119804Y-97097632D01*
X164119803Y-97097634D01*
X164119610Y-97098101D01*
X164104888Y-97146703D01*
X164104887Y-97146710D01*
X164095475Y-97194084D01*
X164095473Y-97194101D01*
X164090500Y-97244663D01*
X164090500Y-98695336D01*
X164094420Y-98735186D01*
X164095473Y-98745896D01*
X164095474Y-98745902D01*
X164104887Y-98793291D01*
X164112620Y-98818790D01*
X164119674Y-98842053D01*
X164119761Y-98842263D01*
X164119824Y-98842415D01*
X164119832Y-98842456D01*
X164119839Y-98842470D01*
X164119846Y-98842468D01*
X164119952Y-98842724D01*
X164119963Y-98842748D01*
X164131790Y-98867455D01*
X164131792Y-98867458D01*
X164144468Y-98890702D01*
X164144470Y-98890705D01*
X164144473Y-98890710D01*
X164209351Y-98968429D01*
X164263728Y-99012301D01*
X164327513Y-99050145D01*
X164327987Y-99050341D01*
X164376447Y-99065033D01*
X164423963Y-99074499D01*
X164423968Y-99074499D01*
X164423971Y-99074500D01*
X164441238Y-99076203D01*
X164474664Y-99079500D01*
X164474673Y-99079500D01*
X166276000Y-99079500D01*
X166343039Y-99099185D01*
X166388794Y-99151989D01*
X166400000Y-99203500D01*
X166400000Y-102675336D01*
X166390498Y-102722938D01*
X166390390Y-102723202D01*
X166390303Y-102723411D01*
X166346389Y-102777755D01*
X166323411Y-102790302D01*
X166322938Y-102790498D01*
X166275336Y-102800000D01*
X143824664Y-102800000D01*
X143777148Y-102790534D01*
X143776674Y-102790338D01*
X143722297Y-102746466D01*
X143709610Y-102723202D01*
X143709502Y-102722942D01*
X143709415Y-102722732D01*
X143700000Y-102675336D01*
X143700000Y-101355000D01*
X164350000Y-101355000D01*
X166400000Y-101355000D01*
X166350000Y-99660000D01*
X164350000Y-99660000D01*
X164350000Y-101355000D01*
X143700000Y-101355000D01*
X143700000Y-101245000D01*
X145740000Y-101245000D01*
X145740000Y-99540000D01*
X143700000Y-99540000D01*
X143700000Y-99083500D01*
X143719685Y-99016461D01*
X143772489Y-98970706D01*
X143824000Y-98959500D01*
X145615332Y-98959500D01*
X145615336Y-98959500D01*
X145666134Y-98954480D01*
X145713736Y-98944978D01*
X145762278Y-98930231D01*
X145762751Y-98930035D01*
X145787777Y-98918059D01*
X145810755Y-98905512D01*
X145888227Y-98840855D01*
X145932141Y-98786511D01*
X145969875Y-98723137D01*
X145969962Y-98722928D01*
X145970569Y-98721457D01*
X145970677Y-98721193D01*
X145984978Y-98673736D01*
X145994480Y-98626134D01*
X145999500Y-98575336D01*
X145999500Y-97124663D01*
X145994480Y-97073870D01*
X145984979Y-97026269D01*
X145970245Y-96977753D01*
X145970047Y-96977275D01*
X145969942Y-96977056D01*
X145957943Y-96952008D01*
X145957942Y-96952005D01*
X145945268Y-96928846D01*
X145945266Y-96928844D01*
X145945264Y-96928840D01*
X145880364Y-96851295D01*
X145880358Y-96851289D01*
X145825936Y-96807476D01*
X145825931Y-96807472D01*
X145762471Y-96769847D01*
X145762463Y-96769844D01*
X145761999Y-96769651D01*
X145761990Y-96769648D01*
X145713298Y-96754889D01*
X145713292Y-96754887D01*
X145665913Y-96745475D01*
X145665898Y-96745473D01*
X145665897Y-96745473D01*
X145615336Y-96740500D01*
X143824664Y-96740500D01*
X143824000Y-96740500D01*
X143756961Y-96720815D01*
X143711206Y-96668011D01*
X143700000Y-96616500D01*
X143700000Y-96543500D01*
X143719685Y-96476461D01*
X143772489Y-96430706D01*
X143824000Y-96419500D01*
X145615332Y-96419500D01*
X145615336Y-96419500D01*
X145666134Y-96414480D01*
X145713736Y-96404978D01*
X145762278Y-96390231D01*
X145762751Y-96390035D01*
X145787777Y-96378059D01*
X145810755Y-96365512D01*
X145888227Y-96300855D01*
X145932141Y-96246511D01*
X145969875Y-96183137D01*
X145969962Y-96182928D01*
X145970569Y-96181457D01*
X145970677Y-96181193D01*
X145984978Y-96133736D01*
X145994480Y-96086134D01*
X145999500Y-96035336D01*
X145999500Y-95764700D01*
X146019185Y-95697661D01*
X146071989Y-95651906D01*
X146123500Y-95640700D01*
X146371658Y-95640700D01*
X146438697Y-95660385D01*
X146459339Y-95677019D01*
X147825958Y-97043638D01*
X147859443Y-97104961D01*
X147861217Y-97147499D01*
X147860888Y-97150000D01*
X147876168Y-97266065D01*
X147879258Y-97289531D01*
X147879259Y-97289535D01*
X147933113Y-97419553D01*
X147933114Y-97419555D01*
X147933115Y-97419556D01*
X148018790Y-97531210D01*
X148130444Y-97616885D01*
X148260468Y-97670742D01*
X148383766Y-97686974D01*
X148399999Y-97689112D01*
X148400000Y-97689112D01*
X148400001Y-97689112D01*
X148414541Y-97687197D01*
X148539532Y-97670742D01*
X148669556Y-97616885D01*
X148781210Y-97531210D01*
X148866885Y-97419556D01*
X148920742Y-97289532D01*
X148939112Y-97150000D01*
X148920742Y-97010468D01*
X148870799Y-96889894D01*
X148866886Y-96880446D01*
X148866885Y-96880445D01*
X148866885Y-96880444D01*
X148847503Y-96855185D01*
X148822310Y-96790018D01*
X148836348Y-96721573D01*
X148885162Y-96671583D01*
X148945880Y-96655700D01*
X150243882Y-96655700D01*
X150310921Y-96675385D01*
X150342258Y-96704214D01*
X150343790Y-96706210D01*
X150455444Y-96791885D01*
X150455445Y-96791885D01*
X150455446Y-96791886D01*
X150493075Y-96807472D01*
X150585468Y-96845742D01*
X150697565Y-96860500D01*
X150724999Y-96864112D01*
X150725000Y-96864112D01*
X150725001Y-96864112D01*
X150752435Y-96860500D01*
X150864532Y-96845742D01*
X150994556Y-96791885D01*
X151106210Y-96706210D01*
X151191885Y-96594556D01*
X151245742Y-96464532D01*
X151264112Y-96325000D01*
X151245742Y-96185468D01*
X151191885Y-96055444D01*
X151106210Y-95943790D01*
X150994556Y-95858115D01*
X150994555Y-95858114D01*
X150994553Y-95858113D01*
X150864535Y-95804259D01*
X150864533Y-95804258D01*
X150864532Y-95804258D01*
X150794766Y-95795073D01*
X150725001Y-95785888D01*
X150724999Y-95785888D01*
X150585468Y-95804258D01*
X150585464Y-95804259D01*
X150455446Y-95858113D01*
X150410782Y-95892385D01*
X150343790Y-95943790D01*
X150343788Y-95943791D01*
X150343787Y-95943793D01*
X150342258Y-95945786D01*
X150340535Y-95947043D01*
X150338039Y-95949540D01*
X150337649Y-95949150D01*
X150285831Y-95986989D01*
X150243882Y-95994300D01*
X148763342Y-95994300D01*
X148696303Y-95974615D01*
X148675661Y-95957981D01*
X147349041Y-94631361D01*
X147315556Y-94570038D01*
X147313784Y-94527489D01*
X147314112Y-94525000D01*
X147295742Y-94385468D01*
X147241885Y-94255444D01*
X147156210Y-94143790D01*
X147044556Y-94058115D01*
X147044555Y-94058114D01*
X147044553Y-94058113D01*
X146914535Y-94004259D01*
X146914533Y-94004258D01*
X146914532Y-94004258D01*
X146840391Y-93994497D01*
X146775001Y-93985888D01*
X146774999Y-93985888D01*
X146635468Y-94004258D01*
X146635464Y-94004259D01*
X146505446Y-94058113D01*
X146393790Y-94143790D01*
X146308113Y-94255446D01*
X146254259Y-94385464D01*
X146254258Y-94385467D01*
X146254258Y-94385468D01*
X146253539Y-94390927D01*
X146237070Y-94516016D01*
X146208803Y-94579913D01*
X146150478Y-94618383D01*
X146080613Y-94619214D01*
X146021390Y-94582141D01*
X145992530Y-94524101D01*
X145984979Y-94486269D01*
X145970245Y-94437753D01*
X145970047Y-94437275D01*
X145969942Y-94437056D01*
X145957943Y-94412008D01*
X145957942Y-94412005D01*
X145945268Y-94388846D01*
X145945266Y-94388844D01*
X145945264Y-94388840D01*
X145880364Y-94311295D01*
X145880358Y-94311289D01*
X145825936Y-94267476D01*
X145825931Y-94267472D01*
X145762471Y-94229847D01*
X145762463Y-94229844D01*
X145761999Y-94229651D01*
X145761990Y-94229648D01*
X145713298Y-94214889D01*
X145713292Y-94214887D01*
X145665913Y-94205475D01*
X145665898Y-94205473D01*
X145665897Y-94205473D01*
X145615336Y-94200500D01*
X143824664Y-94200500D01*
X143824000Y-94200500D01*
X143756961Y-94180815D01*
X143711206Y-94128011D01*
X143700000Y-94076500D01*
X143700000Y-94003500D01*
X143719685Y-93936461D01*
X143772489Y-93890706D01*
X143824000Y-93879500D01*
X145615332Y-93879500D01*
X145615336Y-93879500D01*
X145666134Y-93874480D01*
X145713736Y-93864978D01*
X145762278Y-93850231D01*
X145762751Y-93850035D01*
X145787777Y-93838059D01*
X145810755Y-93825512D01*
X145888227Y-93760855D01*
X145932141Y-93706511D01*
X145969875Y-93643137D01*
X145969962Y-93642928D01*
X145970569Y-93641457D01*
X145970677Y-93641193D01*
X145977389Y-93618921D01*
X146015580Y-93560413D01*
X146079340Y-93531840D01*
X146096115Y-93530700D01*
X147243535Y-93530700D01*
X147243537Y-93530700D01*
X147243538Y-93530700D01*
X147327646Y-93508164D01*
X147403055Y-93464626D01*
X147464626Y-93403055D01*
X147464626Y-93403053D01*
X147474830Y-93392850D01*
X147474833Y-93392845D01*
X153850661Y-87017019D01*
X153911984Y-86983534D01*
X153938342Y-86980700D01*
X154792910Y-86980700D01*
X154859949Y-87000385D01*
X154894958Y-87034258D01*
X154905824Y-87050000D01*
X154931500Y-87087199D01*
X154931506Y-87087205D01*
X154943304Y-87097657D01*
X155047012Y-87189535D01*
X155050470Y-87192598D01*
X155050472Y-87192600D01*
X155130276Y-87234485D01*
X155180489Y-87283070D01*
X155196463Y-87351089D01*
X155195589Y-87360465D01*
X155190475Y-87399312D01*
X155162209Y-87463209D01*
X155155217Y-87470809D01*
X153346947Y-89279080D01*
X153285376Y-89340650D01*
X153285374Y-89340653D01*
X153241836Y-89416061D01*
X153219300Y-89500168D01*
X153219300Y-94493881D01*
X153199615Y-94560920D01*
X153170793Y-94592252D01*
X153168794Y-94593786D01*
X153168792Y-94593788D01*
X153168790Y-94593790D01*
X153149347Y-94619129D01*
X153083113Y-94705446D01*
X153029259Y-94835464D01*
X153029258Y-94835468D01*
X153017002Y-94928564D01*
X153010888Y-94975000D01*
X153028259Y-95106947D01*
X153029258Y-95114531D01*
X153029259Y-95114535D01*
X153083113Y-95244553D01*
X153083114Y-95244555D01*
X153083115Y-95244556D01*
X153168790Y-95356210D01*
X153280444Y-95441885D01*
X153410468Y-95495742D01*
X153533766Y-95511974D01*
X153549999Y-95514112D01*
X153550000Y-95514112D01*
X153550001Y-95514112D01*
X153564541Y-95512197D01*
X153689532Y-95495742D01*
X153819556Y-95441885D01*
X153931210Y-95356210D01*
X154016885Y-95244556D01*
X154070742Y-95114532D01*
X154082621Y-95024300D01*
X154110887Y-94960404D01*
X154169212Y-94921933D01*
X154189367Y-94917548D01*
X154245232Y-94910194D01*
X154375256Y-94856337D01*
X154486910Y-94770662D01*
X154572585Y-94659008D01*
X154626442Y-94528984D01*
X154644812Y-94389452D01*
X154644731Y-94388840D01*
X154640969Y-94360262D01*
X154626442Y-94249920D01*
X154572585Y-94119896D01*
X154486910Y-94008242D01*
X154486905Y-94008238D01*
X154484907Y-94006704D01*
X154483647Y-94004978D01*
X154481160Y-94002491D01*
X154481547Y-94002103D01*
X154443708Y-93950273D01*
X154436400Y-93908333D01*
X154436400Y-90257641D01*
X154456085Y-90190602D01*
X154472714Y-90169965D01*
X155743639Y-88899039D01*
X155804960Y-88865556D01*
X155847509Y-88863784D01*
X155850000Y-88864112D01*
X155989532Y-88845742D01*
X156119556Y-88791885D01*
X156231210Y-88706210D01*
X156316885Y-88594556D01*
X156370742Y-88464532D01*
X156389112Y-88325000D01*
X156370742Y-88185468D01*
X156316885Y-88055444D01*
X156231210Y-87943790D01*
X156231208Y-87943789D01*
X156231208Y-87943788D01*
X156206774Y-87925040D01*
X156165571Y-87868612D01*
X156161416Y-87798866D01*
X156183888Y-87751173D01*
X156185999Y-87748423D01*
X156239856Y-87618399D01*
X156258226Y-87478867D01*
X156239856Y-87339335D01*
X156185999Y-87209311D01*
X156100324Y-87097657D01*
X156061073Y-87067539D01*
X156019873Y-87011113D01*
X156015718Y-86941367D01*
X156020620Y-86925193D01*
X156024915Y-86913870D01*
X156065149Y-86807782D01*
X156084307Y-86650000D01*
X156084000Y-86647475D01*
X156065149Y-86492218D01*
X156032240Y-86405446D01*
X156008787Y-86343605D01*
X155918498Y-86212799D01*
X155918495Y-86212796D01*
X155918493Y-86212794D01*
X155799530Y-86107401D01*
X155658791Y-86033536D01*
X155504472Y-85995500D01*
X155504471Y-85995500D01*
X155345529Y-85995500D01*
X155345528Y-85995500D01*
X155191208Y-86033536D01*
X155050469Y-86107401D01*
X154931506Y-86212794D01*
X154931500Y-86212800D01*
X154894960Y-86265740D01*
X154840678Y-86309730D01*
X154792910Y-86319300D01*
X153801149Y-86319300D01*
X153801133Y-86319299D01*
X153793537Y-86319299D01*
X153706463Y-86319299D01*
X153706461Y-86319299D01*
X153644892Y-86335795D01*
X153644893Y-86335796D01*
X153622358Y-86341834D01*
X153622354Y-86341836D01*
X153546948Y-86385372D01*
X153546942Y-86385376D01*
X153485372Y-86446947D01*
X149461950Y-90470368D01*
X149400627Y-90503853D01*
X149330935Y-90498869D01*
X149275002Y-90456997D01*
X149259708Y-90430139D01*
X149218679Y-90331084D01*
X149218678Y-90331083D01*
X149218678Y-90331082D01*
X149133003Y-90219428D01*
X149021349Y-90133753D01*
X149021348Y-90133752D01*
X149021346Y-90133751D01*
X148891328Y-90079897D01*
X148891326Y-90079896D01*
X148891325Y-90079896D01*
X148821559Y-90070711D01*
X148751794Y-90061526D01*
X148751792Y-90061526D01*
X148612261Y-90079896D01*
X148612257Y-90079897D01*
X148482239Y-90133751D01*
X148478026Y-90136984D01*
X148370583Y-90219428D01*
X148370581Y-90219429D01*
X148370580Y-90219431D01*
X148369051Y-90221424D01*
X148367328Y-90222681D01*
X148364832Y-90225178D01*
X148364442Y-90224788D01*
X148312624Y-90262627D01*
X148270675Y-90269938D01*
X146123500Y-90269938D01*
X146056461Y-90250253D01*
X146010706Y-90197449D01*
X145999500Y-90145938D01*
X145999500Y-89504667D01*
X145999056Y-89500170D01*
X145994480Y-89453870D01*
X145984979Y-89406269D01*
X145970245Y-89357753D01*
X145970047Y-89357275D01*
X145969942Y-89357056D01*
X145963717Y-89344062D01*
X145957942Y-89332005D01*
X145945268Y-89308846D01*
X145945266Y-89308844D01*
X145945264Y-89308840D01*
X145880364Y-89231295D01*
X145880358Y-89231289D01*
X145825936Y-89187476D01*
X145825931Y-89187472D01*
X145762471Y-89149847D01*
X145762463Y-89149844D01*
X145761999Y-89149651D01*
X145761990Y-89149648D01*
X145713298Y-89134889D01*
X145713292Y-89134887D01*
X145665913Y-89125475D01*
X145665898Y-89125473D01*
X145665897Y-89125473D01*
X145615336Y-89120500D01*
X143824664Y-89120500D01*
X143824000Y-89120500D01*
X143756961Y-89100815D01*
X143711206Y-89048011D01*
X143700000Y-88996500D01*
X143700000Y-88923500D01*
X143719685Y-88856461D01*
X143772489Y-88810706D01*
X143824000Y-88799500D01*
X145615332Y-88799500D01*
X145615336Y-88799500D01*
X145666134Y-88794480D01*
X145713736Y-88784978D01*
X145762278Y-88770231D01*
X145762751Y-88770035D01*
X145787777Y-88758059D01*
X145810755Y-88745512D01*
X145888227Y-88680855D01*
X145932141Y-88626511D01*
X145969875Y-88563137D01*
X145969962Y-88562928D01*
X145970569Y-88561457D01*
X145970677Y-88561193D01*
X145984978Y-88513736D01*
X145994480Y-88466134D01*
X145999500Y-88415336D01*
X145999500Y-86964663D01*
X145994480Y-86913870D01*
X145984979Y-86866269D01*
X145970245Y-86817753D01*
X145970047Y-86817275D01*
X145969942Y-86817056D01*
X145957943Y-86792008D01*
X145957942Y-86792005D01*
X145945268Y-86768846D01*
X145945266Y-86768844D01*
X145945264Y-86768840D01*
X145880364Y-86691295D01*
X145880358Y-86691289D01*
X145825936Y-86647476D01*
X145825931Y-86647472D01*
X145762471Y-86609847D01*
X145762463Y-86609844D01*
X145761999Y-86609651D01*
X145761990Y-86609648D01*
X145713298Y-86594889D01*
X145713292Y-86594887D01*
X145665913Y-86585475D01*
X145665898Y-86585473D01*
X145665897Y-86585473D01*
X145615336Y-86580500D01*
X143824664Y-86580500D01*
X143824000Y-86580500D01*
X143756961Y-86560815D01*
X143711206Y-86508011D01*
X143700000Y-86456500D01*
X143700000Y-86383500D01*
X143719685Y-86316461D01*
X143772489Y-86270706D01*
X143824000Y-86259500D01*
X145615332Y-86259500D01*
X145615336Y-86259500D01*
X145666134Y-86254480D01*
X145713736Y-86244978D01*
X145762278Y-86230231D01*
X145762751Y-86230035D01*
X145787777Y-86218059D01*
X145810755Y-86205512D01*
X145888227Y-86140855D01*
X145932141Y-86086511D01*
X145969875Y-86023137D01*
X145969962Y-86022928D01*
X145970569Y-86021457D01*
X145970677Y-86021193D01*
X145984978Y-85973736D01*
X145994480Y-85926134D01*
X145999500Y-85875336D01*
X145999500Y-85604700D01*
X146019185Y-85537661D01*
X146071989Y-85491906D01*
X146123500Y-85480700D01*
X147133894Y-85480700D01*
X147200933Y-85500385D01*
X147246688Y-85553189D01*
X147256833Y-85620885D01*
X147245667Y-85705698D01*
X147245667Y-85705704D01*
X147245995Y-85708196D01*
X147245667Y-85710299D01*
X147245667Y-85713827D01*
X147245117Y-85713827D01*
X147235228Y-85777231D01*
X147210737Y-85812060D01*
X147132019Y-85890778D01*
X147070696Y-85924263D01*
X147001004Y-85919279D01*
X146996887Y-85917659D01*
X146964533Y-85904258D01*
X146825001Y-85885888D01*
X146824999Y-85885888D01*
X146685468Y-85904258D01*
X146685464Y-85904259D01*
X146555446Y-85958113D01*
X146443790Y-86043790D01*
X146358113Y-86155446D01*
X146304259Y-86285464D01*
X146304258Y-86285468D01*
X146285888Y-86424999D01*
X146285888Y-86425000D01*
X146304258Y-86564531D01*
X146304259Y-86564535D01*
X146358113Y-86694553D01*
X146358114Y-86694555D01*
X146358115Y-86694556D01*
X146443790Y-86806210D01*
X146555444Y-86891885D01*
X146685468Y-86945742D01*
X146808766Y-86961974D01*
X146824999Y-86964112D01*
X146825000Y-86964112D01*
X146825001Y-86964112D01*
X146842530Y-86961804D01*
X146886865Y-86955967D01*
X146955899Y-86966732D01*
X147008155Y-87013112D01*
X147027041Y-87080381D01*
X147006561Y-87147181D01*
X146990731Y-87166587D01*
X146796947Y-87360372D01*
X146735376Y-87421942D01*
X146735374Y-87421945D01*
X146691836Y-87497353D01*
X146669300Y-87581460D01*
X146669300Y-88643881D01*
X146649615Y-88710920D01*
X146620793Y-88742252D01*
X146618794Y-88743786D01*
X146618792Y-88743788D01*
X146618790Y-88743790D01*
X146573400Y-88802944D01*
X146533113Y-88855446D01*
X146479259Y-88985464D01*
X146479258Y-88985468D01*
X146461957Y-89116884D01*
X146460888Y-89125000D01*
X146476746Y-89245455D01*
X146479258Y-89264531D01*
X146479259Y-89264535D01*
X146533113Y-89394553D01*
X146533114Y-89394555D01*
X146533115Y-89394556D01*
X146618790Y-89506210D01*
X146730444Y-89591885D01*
X146860468Y-89645742D01*
X146983766Y-89661974D01*
X146999999Y-89664112D01*
X147000000Y-89664112D01*
X147000001Y-89664112D01*
X147014541Y-89662197D01*
X147139532Y-89645742D01*
X147269556Y-89591885D01*
X147381210Y-89506210D01*
X147466885Y-89394556D01*
X147520742Y-89264532D01*
X147539112Y-89125000D01*
X147538043Y-89116884D01*
X147528382Y-89043500D01*
X147520742Y-88985468D01*
X147475767Y-88876888D01*
X147466886Y-88855446D01*
X147466885Y-88855445D01*
X147466885Y-88855444D01*
X147381210Y-88743790D01*
X147381205Y-88743786D01*
X147379207Y-88742252D01*
X147377947Y-88740526D01*
X147375460Y-88738039D01*
X147375847Y-88737651D01*
X147338008Y-88685821D01*
X147330700Y-88643881D01*
X147330700Y-87813341D01*
X147350385Y-87746302D01*
X147367010Y-87725669D01*
X147468640Y-87624038D01*
X147529959Y-87590556D01*
X147572509Y-87588784D01*
X147575000Y-87589112D01*
X147714532Y-87570742D01*
X147844556Y-87516885D01*
X147956210Y-87431210D01*
X148041885Y-87319556D01*
X148095742Y-87189532D01*
X148105750Y-87113513D01*
X148134017Y-87049618D01*
X148192341Y-87011147D01*
X148228689Y-87005700D01*
X149343882Y-87005700D01*
X149410921Y-87025385D01*
X149442258Y-87054214D01*
X149443790Y-87056210D01*
X149555444Y-87141885D01*
X149685468Y-87195742D01*
X149808766Y-87211974D01*
X149824999Y-87214112D01*
X149825000Y-87214112D01*
X149825001Y-87214112D01*
X149839541Y-87212197D01*
X149964532Y-87195742D01*
X150094556Y-87141885D01*
X150206210Y-87056210D01*
X150291885Y-86944556D01*
X150345742Y-86814532D01*
X150364112Y-86675000D01*
X150345742Y-86535468D01*
X150291885Y-86405444D01*
X150206210Y-86293790D01*
X150094556Y-86208115D01*
X150094555Y-86208114D01*
X150094553Y-86208113D01*
X149964535Y-86154259D01*
X149964533Y-86154258D01*
X149964532Y-86154258D01*
X149876924Y-86142724D01*
X149825001Y-86135888D01*
X149824999Y-86135888D01*
X149685468Y-86154258D01*
X149685464Y-86154259D01*
X149555446Y-86208113D01*
X149510782Y-86242385D01*
X149443790Y-86293790D01*
X149443788Y-86293791D01*
X149443787Y-86293793D01*
X149442258Y-86295786D01*
X149440535Y-86297043D01*
X149438039Y-86299540D01*
X149437649Y-86299150D01*
X149385831Y-86336989D01*
X149343882Y-86344300D01*
X148195844Y-86344300D01*
X148128805Y-86324615D01*
X148083050Y-86271811D01*
X148073106Y-86202653D01*
X148102131Y-86139097D01*
X148120357Y-86121925D01*
X148130812Y-86113902D01*
X148165989Y-86086910D01*
X148251664Y-85975256D01*
X148305521Y-85845232D01*
X148323891Y-85705700D01*
X148312725Y-85620885D01*
X148323490Y-85551850D01*
X148369870Y-85499594D01*
X148435664Y-85480700D01*
X149093535Y-85480700D01*
X149093537Y-85480700D01*
X149093538Y-85480700D01*
X149177646Y-85458164D01*
X149253055Y-85414626D01*
X149314626Y-85353055D01*
X149314626Y-85353053D01*
X149324830Y-85342850D01*
X149324833Y-85342845D01*
X150725661Y-83942019D01*
X150786984Y-83908534D01*
X150813342Y-83905700D01*
X154217910Y-83905700D01*
X154284949Y-83925385D01*
X154319958Y-83959258D01*
X154326000Y-83968011D01*
X154356500Y-84012199D01*
X154356506Y-84012205D01*
X154475469Y-84117598D01*
X154475471Y-84117599D01*
X154616207Y-84191463D01*
X154663469Y-84203112D01*
X154770528Y-84229500D01*
X154770529Y-84229500D01*
X154929472Y-84229500D01*
X154990292Y-84214509D01*
X155083793Y-84191463D01*
X155224529Y-84117599D01*
X155343498Y-84012201D01*
X155433787Y-83881395D01*
X155490149Y-83732782D01*
X155509307Y-83575000D01*
X155500916Y-83505897D01*
X155493094Y-83441472D01*
X155504555Y-83372549D01*
X155551458Y-83320763D01*
X155618914Y-83302556D01*
X155673816Y-83316730D01*
G37*
%TD.AperFunction*%
%TA.AperFunction,Conductor*%
G36*
X164033539Y-78000385D02*
G01*
X164079294Y-78053189D01*
X164090500Y-78104700D01*
X164090500Y-78375336D01*
X164094420Y-78415186D01*
X164095473Y-78425896D01*
X164095474Y-78425902D01*
X164104887Y-78473291D01*
X164104888Y-78473293D01*
X164119674Y-78522053D01*
X164119761Y-78522263D01*
X164119824Y-78522415D01*
X164119832Y-78522456D01*
X164119839Y-78522470D01*
X164119846Y-78522468D01*
X164119952Y-78522724D01*
X164119963Y-78522748D01*
X164131790Y-78547455D01*
X164131792Y-78547458D01*
X164144468Y-78570702D01*
X164144470Y-78570705D01*
X164144473Y-78570710D01*
X164209351Y-78648429D01*
X164263728Y-78692301D01*
X164327513Y-78730145D01*
X164327987Y-78730341D01*
X164376447Y-78745033D01*
X164423963Y-78754499D01*
X164423968Y-78754499D01*
X164423971Y-78754500D01*
X164441238Y-78756203D01*
X164474664Y-78759500D01*
X164474673Y-78759500D01*
X166276000Y-78759500D01*
X166343039Y-78779185D01*
X166388794Y-78831989D01*
X166400000Y-78883500D01*
X166400000Y-78956500D01*
X166380315Y-79023539D01*
X166327511Y-79069294D01*
X166276000Y-79080500D01*
X166275336Y-79080500D01*
X164474664Y-79080500D01*
X164424200Y-79085454D01*
X164424195Y-79085455D01*
X164376883Y-79094834D01*
X164376882Y-79094834D01*
X164327911Y-79109690D01*
X164327907Y-79109692D01*
X164327905Y-79109692D01*
X164327901Y-79109694D01*
X164327419Y-79109894D01*
X164327400Y-79109902D01*
X164302594Y-79121774D01*
X164302567Y-79121788D01*
X164279250Y-79134509D01*
X164279251Y-79134510D01*
X164278952Y-79134673D01*
X164201291Y-79199637D01*
X164201290Y-79199638D01*
X164157476Y-79254060D01*
X164119804Y-79317632D01*
X164119803Y-79317634D01*
X164119610Y-79318101D01*
X164104888Y-79366703D01*
X164104887Y-79366710D01*
X164095475Y-79414084D01*
X164095473Y-79414101D01*
X164090500Y-79464663D01*
X164090500Y-80915336D01*
X164094420Y-80955186D01*
X164095473Y-80965896D01*
X164095474Y-80965902D01*
X164104887Y-81013291D01*
X164104888Y-81013293D01*
X164119674Y-81062053D01*
X164119761Y-81062263D01*
X164119824Y-81062415D01*
X164119832Y-81062456D01*
X164119839Y-81062470D01*
X164119846Y-81062468D01*
X164119952Y-81062724D01*
X164119963Y-81062748D01*
X164131790Y-81087455D01*
X164131792Y-81087458D01*
X164144468Y-81110702D01*
X164144470Y-81110705D01*
X164144473Y-81110710D01*
X164209351Y-81188429D01*
X164263728Y-81232301D01*
X164327513Y-81270145D01*
X164327987Y-81270341D01*
X164376447Y-81285033D01*
X164423963Y-81294499D01*
X164423968Y-81294499D01*
X164423971Y-81294500D01*
X164441238Y-81296203D01*
X164474664Y-81299500D01*
X164474673Y-81299500D01*
X166276000Y-81299500D01*
X166343039Y-81319185D01*
X166388794Y-81371989D01*
X166400000Y-81423500D01*
X166400000Y-81496500D01*
X166380315Y-81563539D01*
X166327511Y-81609294D01*
X166276000Y-81620500D01*
X166275336Y-81620500D01*
X164474664Y-81620500D01*
X164424200Y-81625454D01*
X164424195Y-81625455D01*
X164376883Y-81634834D01*
X164376882Y-81634834D01*
X164327911Y-81649690D01*
X164327907Y-81649692D01*
X164327905Y-81649692D01*
X164327901Y-81649694D01*
X164327419Y-81649894D01*
X164327400Y-81649902D01*
X164302594Y-81661774D01*
X164302567Y-81661788D01*
X164279250Y-81674509D01*
X164279251Y-81674510D01*
X164278952Y-81674673D01*
X164201291Y-81739637D01*
X164201290Y-81739638D01*
X164157476Y-81794060D01*
X164119804Y-81857632D01*
X164119803Y-81857634D01*
X164119610Y-81858101D01*
X164104888Y-81906703D01*
X164104887Y-81906710D01*
X164095475Y-81954084D01*
X164095473Y-81954101D01*
X164090500Y-82004663D01*
X164090500Y-83455336D01*
X164094128Y-83492218D01*
X164095473Y-83505896D01*
X164095474Y-83505902D01*
X164104887Y-83553291D01*
X164104888Y-83553293D01*
X164119674Y-83602053D01*
X164119761Y-83602263D01*
X164119824Y-83602415D01*
X164119832Y-83602456D01*
X164119839Y-83602470D01*
X164119846Y-83602468D01*
X164119952Y-83602724D01*
X164119963Y-83602748D01*
X164131790Y-83627455D01*
X164131792Y-83627458D01*
X164144468Y-83650702D01*
X164144470Y-83650705D01*
X164144473Y-83650710D01*
X164209351Y-83728429D01*
X164263728Y-83772301D01*
X164327513Y-83810145D01*
X164327987Y-83810341D01*
X164376447Y-83825033D01*
X164423963Y-83834499D01*
X164423968Y-83834499D01*
X164423971Y-83834500D01*
X164441238Y-83836203D01*
X164474664Y-83839500D01*
X164474673Y-83839500D01*
X166276000Y-83839500D01*
X166343039Y-83859185D01*
X166388794Y-83911989D01*
X166400000Y-83963500D01*
X166400000Y-84036500D01*
X166380315Y-84103539D01*
X166327511Y-84149294D01*
X166276000Y-84160500D01*
X166275336Y-84160500D01*
X164474664Y-84160500D01*
X164424200Y-84165454D01*
X164424195Y-84165455D01*
X164376883Y-84174834D01*
X164376882Y-84174834D01*
X164327911Y-84189690D01*
X164327907Y-84189692D01*
X164327905Y-84189692D01*
X164327901Y-84189694D01*
X164327419Y-84189894D01*
X164327400Y-84189902D01*
X164302594Y-84201774D01*
X164302567Y-84201788D01*
X164279250Y-84214509D01*
X164279251Y-84214510D01*
X164278952Y-84214673D01*
X164201291Y-84279637D01*
X164201290Y-84279638D01*
X164157476Y-84334060D01*
X164119804Y-84397632D01*
X164119803Y-84397634D01*
X164119610Y-84398101D01*
X164104888Y-84446703D01*
X164104887Y-84446710D01*
X164095475Y-84494084D01*
X164095473Y-84494101D01*
X164090500Y-84544668D01*
X164090500Y-84815300D01*
X164070815Y-84882339D01*
X164018011Y-84928094D01*
X163966500Y-84939300D01*
X162258342Y-84939300D01*
X162191303Y-84919615D01*
X162170661Y-84902981D01*
X160721696Y-83454016D01*
X160721694Y-83454013D01*
X160653057Y-83385376D01*
X160653055Y-83385374D01*
X160577646Y-83341836D01*
X160553387Y-83335336D01*
X160493539Y-83319300D01*
X160493538Y-83319300D01*
X157432090Y-83319300D01*
X157365051Y-83299615D01*
X157330040Y-83265740D01*
X157293499Y-83212800D01*
X157293493Y-83212794D01*
X157174530Y-83107401D01*
X157033791Y-83033536D01*
X156879472Y-82995500D01*
X156879471Y-82995500D01*
X156822501Y-82995500D01*
X156755462Y-82975815D01*
X156709707Y-82923011D01*
X156699405Y-82856554D01*
X156709307Y-82775000D01*
X156709307Y-82774999D01*
X156695836Y-82664054D01*
X156707297Y-82595131D01*
X156731248Y-82561430D01*
X161275662Y-78017019D01*
X161336985Y-77983534D01*
X161363343Y-77980700D01*
X163966500Y-77980700D01*
X164033539Y-78000385D01*
G37*
%TD.AperFunction*%
%TA.AperFunction,Conductor*%
G36*
X148939989Y-77880385D02*
G01*
X148960631Y-77897019D01*
X153493300Y-82429688D01*
X153526785Y-82491011D01*
X153521801Y-82560703D01*
X153521603Y-82561229D01*
X153517125Y-82573035D01*
X153509850Y-82592219D01*
X153509850Y-82592221D01*
X153490693Y-82749999D01*
X153490693Y-82750000D01*
X153509850Y-82907781D01*
X153566214Y-83056398D01*
X153569510Y-83062677D01*
X153583233Y-83131186D01*
X153557739Y-83196239D01*
X153501122Y-83237181D01*
X153459712Y-83244300D01*
X150581460Y-83244300D01*
X150497353Y-83266836D01*
X150421945Y-83310374D01*
X150421942Y-83310376D01*
X150390483Y-83341836D01*
X150360374Y-83371945D01*
X150360372Y-83371947D01*
X149645115Y-84087205D01*
X148949339Y-84782981D01*
X148888016Y-84816466D01*
X148861658Y-84819300D01*
X146123500Y-84819300D01*
X146056461Y-84799615D01*
X146010706Y-84746811D01*
X145999500Y-84695300D01*
X145999500Y-84424667D01*
X145999500Y-84424663D01*
X145994480Y-84373870D01*
X145984979Y-84326269D01*
X145970245Y-84277753D01*
X145970047Y-84277275D01*
X145969942Y-84277056D01*
X145957943Y-84252008D01*
X145957942Y-84252005D01*
X145945268Y-84228846D01*
X145945266Y-84228844D01*
X145945264Y-84228840D01*
X145880364Y-84151295D01*
X145880358Y-84151289D01*
X145825936Y-84107476D01*
X145825931Y-84107472D01*
X145762471Y-84069847D01*
X145762463Y-84069844D01*
X145761999Y-84069651D01*
X145761990Y-84069648D01*
X145713298Y-84054889D01*
X145713292Y-84054887D01*
X145665913Y-84045475D01*
X145665898Y-84045473D01*
X145665897Y-84045473D01*
X145615336Y-84040500D01*
X143824664Y-84040500D01*
X143824000Y-84040500D01*
X143756961Y-84020815D01*
X143711206Y-83968011D01*
X143700000Y-83916500D01*
X143700000Y-83843500D01*
X143719685Y-83776461D01*
X143772489Y-83730706D01*
X143824000Y-83719500D01*
X145615332Y-83719500D01*
X145615336Y-83719500D01*
X145666134Y-83714480D01*
X145713736Y-83704978D01*
X145762278Y-83690231D01*
X145762751Y-83690035D01*
X145787777Y-83678059D01*
X145810755Y-83665512D01*
X145888227Y-83600855D01*
X145932141Y-83546511D01*
X145969875Y-83483137D01*
X145969962Y-83482928D01*
X145970569Y-83481457D01*
X145970677Y-83481193D01*
X145984978Y-83433736D01*
X145994480Y-83386134D01*
X145999500Y-83335336D01*
X145999500Y-81884663D01*
X145994480Y-81833870D01*
X145984979Y-81786269D01*
X145970245Y-81737753D01*
X145970047Y-81737275D01*
X145969942Y-81737056D01*
X145957943Y-81712008D01*
X145957942Y-81712005D01*
X145945268Y-81688846D01*
X145945266Y-81688844D01*
X145945264Y-81688840D01*
X145880364Y-81611295D01*
X145880358Y-81611289D01*
X145825936Y-81567476D01*
X145825931Y-81567472D01*
X145762471Y-81529847D01*
X145762463Y-81529844D01*
X145761999Y-81529651D01*
X145761990Y-81529648D01*
X145713298Y-81514889D01*
X145713292Y-81514887D01*
X145665913Y-81505475D01*
X145665898Y-81505473D01*
X145665897Y-81505473D01*
X145615336Y-81500500D01*
X143824664Y-81500500D01*
X143824000Y-81500500D01*
X143756961Y-81480815D01*
X143711206Y-81428011D01*
X143700000Y-81376500D01*
X143700000Y-81303500D01*
X143719685Y-81236461D01*
X143772489Y-81190706D01*
X143824000Y-81179500D01*
X145615332Y-81179500D01*
X145615336Y-81179500D01*
X145666134Y-81174480D01*
X145713736Y-81164978D01*
X145762278Y-81150231D01*
X145762751Y-81150035D01*
X145787777Y-81138059D01*
X145810755Y-81125512D01*
X145888227Y-81060855D01*
X145932141Y-81006511D01*
X145969875Y-80943137D01*
X145969962Y-80942928D01*
X145970569Y-80941457D01*
X145970677Y-80941193D01*
X145984978Y-80893736D01*
X145994480Y-80846134D01*
X145999500Y-80795336D01*
X145999500Y-79344663D01*
X145994480Y-79293870D01*
X145984979Y-79246269D01*
X145970245Y-79197753D01*
X145970047Y-79197275D01*
X145969942Y-79197056D01*
X145957943Y-79172008D01*
X145957942Y-79172005D01*
X145945268Y-79148846D01*
X145945266Y-79148844D01*
X145945264Y-79148840D01*
X145880364Y-79071295D01*
X145880358Y-79071289D01*
X145825936Y-79027476D01*
X145825931Y-79027472D01*
X145762471Y-78989847D01*
X145762463Y-78989844D01*
X145761999Y-78989651D01*
X145761990Y-78989648D01*
X145713298Y-78974889D01*
X145713292Y-78974887D01*
X145665913Y-78965475D01*
X145665898Y-78965473D01*
X145665897Y-78965473D01*
X145615336Y-78960500D01*
X143824664Y-78960500D01*
X143824000Y-78960500D01*
X143756961Y-78940815D01*
X143711206Y-78888011D01*
X143700000Y-78836500D01*
X143700000Y-78763500D01*
X143719685Y-78696461D01*
X143772489Y-78650706D01*
X143824000Y-78639500D01*
X145615332Y-78639500D01*
X145615336Y-78639500D01*
X145666134Y-78634480D01*
X145713736Y-78624978D01*
X145762278Y-78610231D01*
X145762751Y-78610035D01*
X145787777Y-78598059D01*
X145810755Y-78585512D01*
X145888227Y-78520855D01*
X145932141Y-78466511D01*
X145969875Y-78403137D01*
X145969962Y-78402928D01*
X145970569Y-78401457D01*
X145970677Y-78401193D01*
X145984978Y-78353736D01*
X145994480Y-78306134D01*
X145999500Y-78255336D01*
X145999500Y-77984700D01*
X146019185Y-77917661D01*
X146071989Y-77871906D01*
X146123500Y-77860700D01*
X148872950Y-77860700D01*
X148939989Y-77880385D01*
G37*
%TD.AperFunction*%
%TA.AperFunction,Conductor*%
G36*
X152608539Y-69869685D02*
G01*
X152654294Y-69922489D01*
X152665500Y-69974000D01*
X152665500Y-71151008D01*
X152671430Y-71206161D01*
X152682639Y-71257683D01*
X152689986Y-71284463D01*
X152733856Y-71361502D01*
X152740089Y-71372448D01*
X152766557Y-71402994D01*
X152785840Y-71425248D01*
X152785843Y-71425251D01*
X152785844Y-71425252D01*
X152819131Y-71457371D01*
X152908849Y-71504303D01*
X152975888Y-71523988D01*
X152975892Y-71523988D01*
X152975894Y-71523989D01*
X152987707Y-71525687D01*
X153049000Y-71534500D01*
X153420300Y-71534500D01*
X153487339Y-71554185D01*
X153533094Y-71606989D01*
X153544300Y-71658500D01*
X153544300Y-72468538D01*
X153566836Y-72552646D01*
X153610374Y-72628055D01*
X153610376Y-72628057D01*
X153679010Y-72696691D01*
X153679015Y-72696695D01*
X154596946Y-73614627D01*
X154672355Y-73658165D01*
X154756463Y-73680701D01*
X154756466Y-73680701D01*
X154851134Y-73680701D01*
X154851150Y-73680700D01*
X158202894Y-73680700D01*
X158269933Y-73700385D01*
X158315688Y-73753189D01*
X158325833Y-73788515D01*
X158329257Y-73814530D01*
X158329259Y-73814535D01*
X158383113Y-73944553D01*
X158383114Y-73944555D01*
X158383115Y-73944556D01*
X158468790Y-74056210D01*
X158580444Y-74141885D01*
X158710468Y-74195742D01*
X158833766Y-74211974D01*
X158849999Y-74214112D01*
X158850000Y-74214112D01*
X158850001Y-74214112D01*
X158864541Y-74212197D01*
X158989532Y-74195742D01*
X159119556Y-74141885D01*
X159231210Y-74056210D01*
X159316885Y-73944556D01*
X159370742Y-73814532D01*
X159389112Y-73675000D01*
X159370742Y-73535468D01*
X159316885Y-73405444D01*
X159231210Y-73293790D01*
X159119556Y-73208115D01*
X159119555Y-73208114D01*
X159119553Y-73208113D01*
X158989535Y-73154259D01*
X158989533Y-73154258D01*
X158989532Y-73154258D01*
X158913120Y-73144198D01*
X158850001Y-73135888D01*
X158850000Y-73135888D01*
X158847501Y-73136217D01*
X158845392Y-73135888D01*
X158841873Y-73135888D01*
X158841873Y-73135339D01*
X158778467Y-73125449D01*
X158743639Y-73100958D01*
X158728057Y-73085376D01*
X158728055Y-73085374D01*
X158652646Y-73041836D01*
X158568539Y-73019300D01*
X158568538Y-73019300D01*
X154988343Y-73019300D01*
X154921304Y-72999615D01*
X154900662Y-72982981D01*
X154242019Y-72324338D01*
X154208534Y-72263015D01*
X154205700Y-72236657D01*
X154205700Y-71658500D01*
X154225385Y-71591461D01*
X154278189Y-71545706D01*
X154329700Y-71534500D01*
X154520332Y-71534500D01*
X154520336Y-71534500D01*
X154571134Y-71529480D01*
X154618736Y-71519978D01*
X154667278Y-71505231D01*
X154667751Y-71505035D01*
X154692777Y-71493059D01*
X154715755Y-71480512D01*
X154793227Y-71415855D01*
X154837141Y-71361511D01*
X154875215Y-71297318D01*
X154875410Y-71296845D01*
X154889978Y-71248736D01*
X154899480Y-71201134D01*
X154904500Y-71150336D01*
X154904500Y-69974663D01*
X154904500Y-69974000D01*
X154924185Y-69906961D01*
X154976989Y-69861206D01*
X155028500Y-69850000D01*
X155086500Y-69850000D01*
X155153539Y-69869685D01*
X155199294Y-69922489D01*
X155210500Y-69974000D01*
X155210500Y-71151008D01*
X155216430Y-71206161D01*
X155227639Y-71257683D01*
X155234986Y-71284463D01*
X155278856Y-71361502D01*
X155285089Y-71372448D01*
X155311557Y-71402994D01*
X155330840Y-71425248D01*
X155330843Y-71425251D01*
X155330844Y-71425252D01*
X155364131Y-71457371D01*
X155453849Y-71504303D01*
X155520888Y-71523988D01*
X155520892Y-71523988D01*
X155520894Y-71523989D01*
X155532707Y-71525687D01*
X155594000Y-71534500D01*
X155594001Y-71534500D01*
X157045332Y-71534500D01*
X157045336Y-71534500D01*
X157096134Y-71529480D01*
X157143736Y-71519978D01*
X157192278Y-71505231D01*
X157192751Y-71505035D01*
X157217777Y-71493059D01*
X157240755Y-71480512D01*
X157318227Y-71415855D01*
X157362141Y-71361511D01*
X157400215Y-71297318D01*
X157400410Y-71296845D01*
X157414978Y-71248736D01*
X157424480Y-71201134D01*
X157429500Y-71150336D01*
X157429500Y-69974663D01*
X157429500Y-69974000D01*
X157449185Y-69906961D01*
X157501989Y-69861206D01*
X157553500Y-69850000D01*
X157626500Y-69850000D01*
X157693539Y-69869685D01*
X157739294Y-69922489D01*
X157750500Y-69974000D01*
X157750500Y-71151008D01*
X157756430Y-71206161D01*
X157767639Y-71257683D01*
X157774986Y-71284463D01*
X157818856Y-71361502D01*
X157825089Y-71372448D01*
X157851557Y-71402994D01*
X157870840Y-71425248D01*
X157870843Y-71425251D01*
X157870844Y-71425252D01*
X157904131Y-71457371D01*
X157993849Y-71504303D01*
X158060888Y-71523988D01*
X158060892Y-71523988D01*
X158060894Y-71523989D01*
X158072707Y-71525687D01*
X158134000Y-71534500D01*
X158134001Y-71534500D01*
X159590332Y-71534500D01*
X159590336Y-71534500D01*
X159641134Y-71529480D01*
X159688736Y-71519978D01*
X159737278Y-71505231D01*
X159737751Y-71505035D01*
X159762777Y-71493059D01*
X159785755Y-71480512D01*
X159863227Y-71415855D01*
X159907141Y-71361511D01*
X159945215Y-71297318D01*
X159945410Y-71296845D01*
X159959978Y-71248736D01*
X159969480Y-71201134D01*
X159974500Y-71150336D01*
X159974500Y-69974663D01*
X159974500Y-69974000D01*
X159994185Y-69906961D01*
X160046989Y-69861206D01*
X160098500Y-69850000D01*
X166275336Y-69850000D01*
X166322732Y-69859415D01*
X166323203Y-69859610D01*
X166377627Y-69903425D01*
X166390301Y-69926584D01*
X166390499Y-69927062D01*
X166400000Y-69974663D01*
X166400000Y-76416500D01*
X166380315Y-76483539D01*
X166327511Y-76529294D01*
X166276000Y-76540500D01*
X166275336Y-76540500D01*
X164474664Y-76540500D01*
X164424200Y-76545454D01*
X164424195Y-76545455D01*
X164376883Y-76554834D01*
X164376882Y-76554834D01*
X164327911Y-76569690D01*
X164327907Y-76569692D01*
X164327905Y-76569692D01*
X164327901Y-76569694D01*
X164327419Y-76569894D01*
X164327400Y-76569902D01*
X164302594Y-76581774D01*
X164302567Y-76581788D01*
X164279250Y-76594509D01*
X164279251Y-76594510D01*
X164278952Y-76594673D01*
X164201291Y-76659637D01*
X164201290Y-76659638D01*
X164157476Y-76714060D01*
X164119804Y-76777632D01*
X164119803Y-76777634D01*
X164119610Y-76778101D01*
X164104888Y-76826703D01*
X164104887Y-76826710D01*
X164095475Y-76874084D01*
X164095473Y-76874101D01*
X164091544Y-76914054D01*
X164090500Y-76924668D01*
X164090500Y-77195300D01*
X164070815Y-77262339D01*
X164018011Y-77308094D01*
X163966500Y-77319300D01*
X161226150Y-77319300D01*
X161226134Y-77319299D01*
X161218538Y-77319299D01*
X161131463Y-77319299D01*
X161131461Y-77319299D01*
X161047354Y-77341835D01*
X160971946Y-77385373D01*
X160971943Y-77385375D01*
X156265044Y-82092274D01*
X156203721Y-82125759D01*
X156147688Y-82124990D01*
X156129472Y-82120500D01*
X156129471Y-82120500D01*
X155970529Y-82120500D01*
X155970528Y-82120500D01*
X155816208Y-82158536D01*
X155675469Y-82232401D01*
X155556506Y-82337794D01*
X155556500Y-82337801D01*
X155466214Y-82468602D01*
X155409850Y-82617218D01*
X155390693Y-82774999D01*
X155390693Y-82775000D01*
X155406905Y-82908527D01*
X155395444Y-82977451D01*
X155348540Y-83029236D01*
X155281084Y-83047443D01*
X155226183Y-83033270D01*
X155224531Y-83032403D01*
X155224529Y-83032401D01*
X155083793Y-82958537D01*
X155083792Y-82958536D01*
X155083789Y-82958535D01*
X154929472Y-82920500D01*
X154929471Y-82920500D01*
X154928572Y-82920500D01*
X154927936Y-82920313D01*
X154922027Y-82919596D01*
X154922146Y-82918613D01*
X154861533Y-82900815D01*
X154815778Y-82848011D01*
X154805476Y-82781554D01*
X154809307Y-82750000D01*
X154809307Y-82749999D01*
X154790149Y-82592218D01*
X154765103Y-82526179D01*
X154733787Y-82443605D01*
X154643498Y-82312799D01*
X154643495Y-82312796D01*
X154643493Y-82312794D01*
X154524530Y-82207401D01*
X154383791Y-82133536D01*
X154229472Y-82095500D01*
X154229471Y-82095500D01*
X154145834Y-82095500D01*
X154078795Y-82075815D01*
X154058153Y-82059181D01*
X149332988Y-77334016D01*
X149332986Y-77334013D01*
X149264349Y-77265376D01*
X149264347Y-77265374D01*
X149188938Y-77221836D01*
X149104831Y-77199300D01*
X149104830Y-77199300D01*
X146123500Y-77199300D01*
X146056461Y-77179615D01*
X146010706Y-77126811D01*
X145999500Y-77075300D01*
X145999500Y-77024999D01*
X153090693Y-77024999D01*
X153090693Y-77025000D01*
X153109850Y-77182781D01*
X153124662Y-77221836D01*
X153166213Y-77331395D01*
X153256502Y-77462201D01*
X153256504Y-77462203D01*
X153256506Y-77462205D01*
X153375469Y-77567598D01*
X153375471Y-77567599D01*
X153516207Y-77641463D01*
X153550843Y-77650000D01*
X153670528Y-77679500D01*
X153670529Y-77679500D01*
X153829472Y-77679500D01*
X153880911Y-77666821D01*
X153983793Y-77641463D01*
X154124529Y-77567599D01*
X154243498Y-77462201D01*
X154333787Y-77331395D01*
X154390149Y-77182782D01*
X154409307Y-77025000D01*
X154395836Y-76914054D01*
X154407297Y-76845131D01*
X154431248Y-76811430D01*
X155901361Y-75341319D01*
X155962684Y-75307834D01*
X155989042Y-75305000D01*
X156992910Y-75305000D01*
X157059949Y-75324685D01*
X157094960Y-75358560D01*
X157131500Y-75411499D01*
X157131506Y-75411505D01*
X157250469Y-75516898D01*
X157250471Y-75516899D01*
X157391207Y-75590763D01*
X157468368Y-75609781D01*
X157545528Y-75628800D01*
X157545529Y-75628800D01*
X157704472Y-75628800D01*
X157755911Y-75616121D01*
X157858793Y-75590763D01*
X157999529Y-75516899D01*
X158118498Y-75411501D01*
X158208787Y-75280695D01*
X158265149Y-75132082D01*
X158284307Y-74974300D01*
X158265149Y-74816518D01*
X158208787Y-74667905D01*
X158118498Y-74537099D01*
X158118495Y-74537096D01*
X158118493Y-74537094D01*
X157999530Y-74431701D01*
X157858791Y-74357836D01*
X157704472Y-74319800D01*
X157704471Y-74319800D01*
X157545529Y-74319800D01*
X157545528Y-74319800D01*
X157391208Y-74357836D01*
X157250469Y-74431701D01*
X157131506Y-74537094D01*
X157131500Y-74537100D01*
X157094960Y-74590040D01*
X157040678Y-74634030D01*
X156992910Y-74643600D01*
X155851849Y-74643600D01*
X155851833Y-74643599D01*
X155844237Y-74643599D01*
X155757163Y-74643599D01*
X155757161Y-74643599D01*
X155695592Y-74660095D01*
X155695593Y-74660096D01*
X155673058Y-74666134D01*
X155673054Y-74666136D01*
X155597648Y-74709672D01*
X155597642Y-74709676D01*
X155536072Y-74771247D01*
X153965044Y-76342274D01*
X153903721Y-76375759D01*
X153847688Y-76374990D01*
X153829472Y-76370500D01*
X153829471Y-76370500D01*
X153670529Y-76370500D01*
X153670528Y-76370500D01*
X153516208Y-76408536D01*
X153375469Y-76482401D01*
X153256506Y-76587794D01*
X153256500Y-76587801D01*
X153166214Y-76718602D01*
X153109850Y-76867218D01*
X153090693Y-77024999D01*
X145999500Y-77024999D01*
X145999500Y-76804667D01*
X145999500Y-76804663D01*
X145994480Y-76753870D01*
X145984979Y-76706269D01*
X145970245Y-76657753D01*
X145970047Y-76657275D01*
X145969942Y-76657056D01*
X145957943Y-76632008D01*
X145957942Y-76632005D01*
X145945268Y-76608846D01*
X145945266Y-76608844D01*
X145945264Y-76608840D01*
X145880364Y-76531295D01*
X145880358Y-76531289D01*
X145825936Y-76487476D01*
X145825931Y-76487472D01*
X145762471Y-76449847D01*
X145762463Y-76449844D01*
X145761999Y-76449651D01*
X145761990Y-76449648D01*
X145713298Y-76434889D01*
X145713292Y-76434887D01*
X145665913Y-76425475D01*
X145665898Y-76425473D01*
X145665897Y-76425473D01*
X145615336Y-76420500D01*
X143824664Y-76420500D01*
X143824000Y-76420500D01*
X143756961Y-76400815D01*
X143711206Y-76348011D01*
X143700000Y-76296500D01*
X143700000Y-69974663D01*
X143709415Y-69927268D01*
X143709611Y-69926794D01*
X143753425Y-69872372D01*
X143776873Y-69859579D01*
X143777355Y-69859379D01*
X143824664Y-69850000D01*
X152541500Y-69850000D01*
X152608539Y-69869685D01*
G37*
%TD.AperFunction*%
%TD*%
%TA.AperFunction,Conductor*%
%TO.N,SDA1*%
G36*
X157092732Y-69859415D02*
G01*
X157093203Y-69859610D01*
X157147627Y-69903425D01*
X157160301Y-69926584D01*
X157160499Y-69927062D01*
X157170000Y-69974663D01*
X157170000Y-71150336D01*
X157160498Y-71197938D01*
X157160303Y-71198411D01*
X157116389Y-71252755D01*
X157093411Y-71265302D01*
X157092938Y-71265498D01*
X157045336Y-71275000D01*
X155594000Y-71275000D01*
X155526961Y-71255315D01*
X155481206Y-71202511D01*
X155470000Y-71151000D01*
X155470000Y-69974663D01*
X155479415Y-69927268D01*
X155479611Y-69926794D01*
X155523425Y-69872372D01*
X155546873Y-69859579D01*
X155547355Y-69859379D01*
X155594664Y-69850000D01*
X157045336Y-69850000D01*
X157092732Y-69859415D01*
G37*
%TD.AperFunction*%
%TD*%
%TA.AperFunction,Conductor*%
%TO.N,F2_SCL*%
G36*
X145662732Y-94469415D02*
G01*
X145663203Y-94469610D01*
X145717627Y-94513425D01*
X145730301Y-94536584D01*
X145730499Y-94537062D01*
X145740000Y-94584663D01*
X145740000Y-96035336D01*
X145730498Y-96082938D01*
X145730390Y-96083202D01*
X145730303Y-96083411D01*
X145686389Y-96137755D01*
X145663411Y-96150302D01*
X145662938Y-96150498D01*
X145615336Y-96160000D01*
X143824664Y-96160000D01*
X143777148Y-96150534D01*
X143776674Y-96150338D01*
X143722297Y-96106466D01*
X143709610Y-96083202D01*
X143709502Y-96082942D01*
X143709415Y-96082732D01*
X143700000Y-96035336D01*
X143700000Y-94584663D01*
X143709415Y-94537268D01*
X143709611Y-94536794D01*
X143753425Y-94482372D01*
X143776873Y-94469579D01*
X143777355Y-94469379D01*
X143824664Y-94460000D01*
X145615336Y-94460000D01*
X145662732Y-94469415D01*
G37*
%TD.AperFunction*%
%TD*%
%TA.AperFunction,Conductor*%
%TO.N,GND*%
G36*
X166400000Y-101355000D02*
G01*
X164350000Y-101355000D01*
X164350000Y-99660000D01*
X166350000Y-99660000D01*
X166400000Y-101355000D01*
G37*
%TD.AperFunction*%
%TD*%
%TA.AperFunction,Conductor*%
%TO.N,F1_SCL*%
G36*
X145662732Y-86849415D02*
G01*
X145663203Y-86849610D01*
X145717627Y-86893425D01*
X145730301Y-86916584D01*
X145730499Y-86917062D01*
X145740000Y-86964663D01*
X145740000Y-88415336D01*
X145730498Y-88462938D01*
X145730390Y-88463202D01*
X145730303Y-88463411D01*
X145686389Y-88517755D01*
X145663411Y-88530302D01*
X145662938Y-88530498D01*
X145615336Y-88540000D01*
X143824664Y-88540000D01*
X143777148Y-88530534D01*
X143776674Y-88530338D01*
X143722297Y-88486466D01*
X143709610Y-88463202D01*
X143709502Y-88462942D01*
X143709415Y-88462732D01*
X143700000Y-88415336D01*
X143700000Y-86964663D01*
X143709415Y-86917268D01*
X143709611Y-86916794D01*
X143753425Y-86862372D01*
X143776873Y-86849579D01*
X143777355Y-86849379D01*
X143824664Y-86840000D01*
X145615336Y-86840000D01*
X145662732Y-86849415D01*
G37*
%TD.AperFunction*%
%TD*%
%TA.AperFunction,Conductor*%
%TO.N,F3_SDA*%
G36*
X166322732Y-81889415D02*
G01*
X166323203Y-81889610D01*
X166377627Y-81933425D01*
X166390301Y-81956584D01*
X166390499Y-81957062D01*
X166400000Y-82004663D01*
X166400000Y-83455336D01*
X166390498Y-83502938D01*
X166390390Y-83503202D01*
X166390303Y-83503411D01*
X166346389Y-83557755D01*
X166323411Y-83570302D01*
X166322938Y-83570498D01*
X166275336Y-83580000D01*
X164474664Y-83580000D01*
X164427148Y-83570534D01*
X164426674Y-83570338D01*
X164372297Y-83526466D01*
X164359610Y-83503202D01*
X164359502Y-83502942D01*
X164359415Y-83502732D01*
X164350000Y-83455336D01*
X164350000Y-82004663D01*
X164359415Y-81957268D01*
X164359611Y-81956794D01*
X164403425Y-81902372D01*
X164426873Y-81889579D01*
X164427355Y-81889379D01*
X164474664Y-81880000D01*
X166275336Y-81880000D01*
X166322732Y-81889415D01*
G37*
%TD.AperFunction*%
%TD*%
%TA.AperFunction,Conductor*%
%TO.N,F0_SDA*%
G36*
X145662732Y-81769415D02*
G01*
X145663203Y-81769610D01*
X145717627Y-81813425D01*
X145730301Y-81836584D01*
X145730499Y-81837062D01*
X145740000Y-81884663D01*
X145740000Y-83335336D01*
X145730498Y-83382938D01*
X145730390Y-83383202D01*
X145730303Y-83383411D01*
X145686389Y-83437755D01*
X145663411Y-83450302D01*
X145662938Y-83450498D01*
X145615336Y-83460000D01*
X143824664Y-83460000D01*
X143777148Y-83450534D01*
X143776674Y-83450338D01*
X143722297Y-83406466D01*
X143709610Y-83383202D01*
X143709502Y-83382942D01*
X143709415Y-83382732D01*
X143700000Y-83335336D01*
X143700000Y-81884663D01*
X143709415Y-81837268D01*
X143709611Y-81836794D01*
X143753425Y-81782372D01*
X143776873Y-81769579D01*
X143777355Y-81769379D01*
X143824664Y-81760000D01*
X145615336Y-81760000D01*
X145662732Y-81769415D01*
G37*
%TD.AperFunction*%
%TD*%
%TA.AperFunction,Conductor*%
%TO.N,F0_SCL*%
G36*
X145662732Y-79229415D02*
G01*
X145663203Y-79229610D01*
X145717627Y-79273425D01*
X145730301Y-79296584D01*
X145730499Y-79297062D01*
X145740000Y-79344663D01*
X145740000Y-80795336D01*
X145730498Y-80842938D01*
X145730390Y-80843202D01*
X145730303Y-80843411D01*
X145686389Y-80897755D01*
X145663411Y-80910302D01*
X145662938Y-80910498D01*
X145615336Y-80920000D01*
X143824664Y-80920000D01*
X143777148Y-80910534D01*
X143776674Y-80910338D01*
X143722297Y-80866466D01*
X143709610Y-80843202D01*
X143709502Y-80842942D01*
X143709415Y-80842732D01*
X143700000Y-80795336D01*
X143700000Y-79344663D01*
X143709415Y-79297268D01*
X143709611Y-79296794D01*
X143753425Y-79242372D01*
X143776873Y-79229579D01*
X143777355Y-79229379D01*
X143824664Y-79220000D01*
X145615336Y-79220000D01*
X145662732Y-79229415D01*
G37*
%TD.AperFunction*%
%TD*%
%TA.AperFunction,Conductor*%
%TO.N,GND*%
G36*
X145740000Y-75840000D02*
G01*
X143700000Y-75840000D01*
X143700000Y-74140000D01*
X145740000Y-74140000D01*
X145740000Y-75840000D01*
G37*
%TD.AperFunction*%
%TD*%
%TA.AperFunction,Conductor*%
%TO.N,F1_ENB*%
G36*
X145662732Y-84309415D02*
G01*
X145663203Y-84309610D01*
X145717627Y-84353425D01*
X145730301Y-84376584D01*
X145730499Y-84377062D01*
X145740000Y-84424663D01*
X145740000Y-85875336D01*
X145730498Y-85922938D01*
X145730390Y-85923202D01*
X145730303Y-85923411D01*
X145686389Y-85977755D01*
X145663411Y-85990302D01*
X145662938Y-85990498D01*
X145615336Y-86000000D01*
X143824664Y-86000000D01*
X143777148Y-85990534D01*
X143776674Y-85990338D01*
X143722297Y-85946466D01*
X143709610Y-85923202D01*
X143709502Y-85922942D01*
X143709415Y-85922732D01*
X143700000Y-85875336D01*
X143700000Y-84424663D01*
X143709415Y-84377268D01*
X143709611Y-84376794D01*
X143753425Y-84322372D01*
X143776873Y-84309579D01*
X143777355Y-84309379D01*
X143824664Y-84300000D01*
X145615336Y-84300000D01*
X145662732Y-84309415D01*
G37*
%TD.AperFunction*%
%TD*%
%TA.AperFunction,Conductor*%
%TO.N,SCL1*%
G36*
X159637732Y-69859415D02*
G01*
X159638203Y-69859610D01*
X159692627Y-69903425D01*
X159705301Y-69926584D01*
X159705499Y-69927062D01*
X159715000Y-69974663D01*
X159715000Y-71150336D01*
X159705498Y-71197938D01*
X159705303Y-71198411D01*
X159661389Y-71252755D01*
X159638411Y-71265302D01*
X159637938Y-71265498D01*
X159590336Y-71275000D01*
X158134000Y-71275000D01*
X158066961Y-71255315D01*
X158021206Y-71202511D01*
X158010000Y-71151000D01*
X158010000Y-69974663D01*
X158019415Y-69927268D01*
X158019611Y-69926794D01*
X158063425Y-69872372D01*
X158086873Y-69859579D01*
X158087355Y-69859379D01*
X158134664Y-69850000D01*
X159590336Y-69850000D01*
X159637732Y-69859415D01*
G37*
%TD.AperFunction*%
%TD*%
%TA.AperFunction,Conductor*%
%TO.N,Break_SDA*%
G36*
X166322732Y-97129415D02*
G01*
X166323203Y-97129610D01*
X166377627Y-97173425D01*
X166390301Y-97196584D01*
X166390499Y-97197062D01*
X166400000Y-97244663D01*
X166400000Y-98695336D01*
X166390498Y-98742938D01*
X166390390Y-98743202D01*
X166390303Y-98743411D01*
X166346389Y-98797755D01*
X166323411Y-98810302D01*
X166322938Y-98810498D01*
X166275336Y-98820000D01*
X164474664Y-98820000D01*
X164427148Y-98810534D01*
X164426674Y-98810338D01*
X164372297Y-98766466D01*
X164359610Y-98743202D01*
X164359502Y-98742942D01*
X164359415Y-98742732D01*
X164350000Y-98695336D01*
X164350000Y-97244663D01*
X164359415Y-97197268D01*
X164359611Y-97196794D01*
X164403425Y-97142372D01*
X164426873Y-97129579D01*
X164427355Y-97129379D01*
X164474664Y-97120000D01*
X166275336Y-97120000D01*
X166322732Y-97129415D01*
G37*
%TD.AperFunction*%
%TD*%
%TA.AperFunction,Conductor*%
%TO.N,F2_ENB*%
G36*
X145662732Y-91929415D02*
G01*
X145663203Y-91929610D01*
X145717627Y-91973425D01*
X145730301Y-91996584D01*
X145730499Y-91997062D01*
X145740000Y-92044663D01*
X145740000Y-92235639D01*
X145738939Y-92251824D01*
X145735888Y-92274998D01*
X145735888Y-92275000D01*
X145738939Y-92298174D01*
X145740000Y-92314360D01*
X145740000Y-93495336D01*
X145730498Y-93542938D01*
X145730390Y-93543202D01*
X145730303Y-93543411D01*
X145686389Y-93597755D01*
X145663411Y-93610302D01*
X145662938Y-93610498D01*
X145615336Y-93620000D01*
X143824664Y-93620000D01*
X143777148Y-93610534D01*
X143776674Y-93610338D01*
X143722297Y-93566466D01*
X143709610Y-93543202D01*
X143709502Y-93542942D01*
X143709415Y-93542732D01*
X143700000Y-93495336D01*
X143700000Y-92044663D01*
X143709415Y-91997268D01*
X143709611Y-91996794D01*
X143753425Y-91942372D01*
X143776873Y-91929579D01*
X143777355Y-91929379D01*
X143824664Y-91920000D01*
X145615336Y-91920000D01*
X145662732Y-91929415D01*
G37*
%TD.AperFunction*%
%TD*%
%TA.AperFunction,Conductor*%
%TO.N,GND*%
G36*
X152095000Y-71275000D02*
G01*
X150400000Y-71275000D01*
X150395000Y-71260000D01*
X150395000Y-69850000D01*
X152095000Y-69850000D01*
X152095000Y-71275000D01*
G37*
%TD.AperFunction*%
%TD*%
%TA.AperFunction,Conductor*%
%TO.N,F4_ENB*%
G36*
X166322732Y-84429415D02*
G01*
X166323203Y-84429610D01*
X166377627Y-84473425D01*
X166390301Y-84496584D01*
X166390499Y-84497062D01*
X166400000Y-84544663D01*
X166400000Y-85995336D01*
X166390498Y-86042938D01*
X166390390Y-86043202D01*
X166390303Y-86043411D01*
X166346389Y-86097755D01*
X166323411Y-86110302D01*
X166322938Y-86110498D01*
X166275336Y-86120000D01*
X164474664Y-86120000D01*
X164427148Y-86110534D01*
X164426674Y-86110338D01*
X164372297Y-86066466D01*
X164359610Y-86043202D01*
X164359502Y-86042942D01*
X164359415Y-86042732D01*
X164350000Y-85995336D01*
X164350000Y-84544663D01*
X164359415Y-84497268D01*
X164359611Y-84496794D01*
X164403425Y-84442372D01*
X164426873Y-84429579D01*
X164427355Y-84429379D01*
X164474664Y-84420000D01*
X166275336Y-84420000D01*
X166322732Y-84429415D01*
G37*
%TD.AperFunction*%
%TD*%
%TA.AperFunction,Conductor*%
%TO.N,F0_ENB*%
G36*
X145662732Y-76689415D02*
G01*
X145663203Y-76689610D01*
X145717627Y-76733425D01*
X145730301Y-76756584D01*
X145730499Y-76757062D01*
X145740000Y-76804663D01*
X145740000Y-78255336D01*
X145730498Y-78302938D01*
X145730390Y-78303202D01*
X145730303Y-78303411D01*
X145686389Y-78357755D01*
X145663411Y-78370302D01*
X145662938Y-78370498D01*
X145615336Y-78380000D01*
X143824664Y-78380000D01*
X143777148Y-78370534D01*
X143776674Y-78370338D01*
X143722297Y-78326466D01*
X143709610Y-78303202D01*
X143709502Y-78302942D01*
X143709415Y-78302732D01*
X143700000Y-78255336D01*
X143700000Y-76804663D01*
X143709415Y-76757268D01*
X143709611Y-76756794D01*
X143753425Y-76702372D01*
X143776873Y-76689579D01*
X143777355Y-76689379D01*
X143824664Y-76680000D01*
X145615336Y-76680000D01*
X145662732Y-76689415D01*
G37*
%TD.AperFunction*%
%TD*%
%TA.AperFunction,Conductor*%
%TO.N,F1_SDA*%
G36*
X145662732Y-89389415D02*
G01*
X145663203Y-89389610D01*
X145717627Y-89433425D01*
X145730301Y-89456584D01*
X145730499Y-89457062D01*
X145740000Y-89504663D01*
X145740000Y-90955336D01*
X145730498Y-91002938D01*
X145730390Y-91003202D01*
X145730303Y-91003411D01*
X145686389Y-91057755D01*
X145663411Y-91070302D01*
X145662938Y-91070498D01*
X145615336Y-91080000D01*
X143824664Y-91080000D01*
X143777148Y-91070534D01*
X143776674Y-91070338D01*
X143722297Y-91026466D01*
X143709610Y-91003202D01*
X143709502Y-91002942D01*
X143709415Y-91002732D01*
X143700000Y-90955336D01*
X143700000Y-89504663D01*
X143709415Y-89457268D01*
X143709611Y-89456794D01*
X143753425Y-89402372D01*
X143776873Y-89389579D01*
X143777355Y-89389379D01*
X143824664Y-89380000D01*
X145615336Y-89380000D01*
X145662732Y-89389415D01*
G37*
%TD.AperFunction*%
%TD*%
%TA.AperFunction,Conductor*%
%TO.N,Camera*%
G36*
X166322732Y-92049415D02*
G01*
X166323203Y-92049610D01*
X166377627Y-92093425D01*
X166390301Y-92116584D01*
X166390499Y-92117062D01*
X166400000Y-92164663D01*
X166400000Y-93615336D01*
X166390498Y-93662938D01*
X166390390Y-93663202D01*
X166390303Y-93663411D01*
X166346389Y-93717755D01*
X166323411Y-93730302D01*
X166322938Y-93730498D01*
X166275336Y-93740000D01*
X164474664Y-93740000D01*
X164427148Y-93730534D01*
X164426674Y-93730338D01*
X164372297Y-93686466D01*
X164359610Y-93663202D01*
X164359502Y-93662942D01*
X164359415Y-93662732D01*
X164350000Y-93615336D01*
X164350000Y-92164663D01*
X164359415Y-92117268D01*
X164359611Y-92116794D01*
X164403425Y-92062372D01*
X164426873Y-92049579D01*
X164427355Y-92049379D01*
X164474664Y-92040000D01*
X166275336Y-92040000D01*
X166322732Y-92049415D01*
G37*
%TD.AperFunction*%
%TD*%
%TA.AperFunction,Conductor*%
%TO.N,F4_SCL*%
G36*
X166322732Y-86969415D02*
G01*
X166323203Y-86969610D01*
X166377627Y-87013425D01*
X166390301Y-87036584D01*
X166390499Y-87037062D01*
X166400000Y-87084663D01*
X166400000Y-88535336D01*
X166390498Y-88582938D01*
X166390390Y-88583202D01*
X166390303Y-88583411D01*
X166346389Y-88637755D01*
X166323411Y-88650302D01*
X166322938Y-88650498D01*
X166275336Y-88660000D01*
X164474664Y-88660000D01*
X164427148Y-88650534D01*
X164426674Y-88650338D01*
X164372297Y-88606466D01*
X164359610Y-88583202D01*
X164359502Y-88582942D01*
X164359415Y-88582732D01*
X164350000Y-88535336D01*
X164350000Y-87084663D01*
X164359415Y-87037268D01*
X164359611Y-87036794D01*
X164403425Y-86982372D01*
X164426873Y-86969579D01*
X164427355Y-86969379D01*
X164474664Y-86960000D01*
X166275336Y-86960000D01*
X166322732Y-86969415D01*
G37*
%TD.AperFunction*%
%TD*%
%TA.AperFunction,Conductor*%
%TO.N,+3V3*%
G36*
X154567732Y-69859415D02*
G01*
X154568203Y-69859610D01*
X154622627Y-69903425D01*
X154635301Y-69926584D01*
X154635499Y-69927062D01*
X154645000Y-69974663D01*
X154645000Y-71150336D01*
X154635498Y-71197938D01*
X154635303Y-71198411D01*
X154591389Y-71252755D01*
X154568411Y-71265302D01*
X154567938Y-71265498D01*
X154520336Y-71275000D01*
X153049000Y-71275000D01*
X152981961Y-71255315D01*
X152936206Y-71202511D01*
X152925000Y-71151000D01*
X152925000Y-69974663D01*
X152934415Y-69927268D01*
X152934611Y-69926794D01*
X152978425Y-69872372D01*
X153001873Y-69859579D01*
X153002355Y-69859379D01*
X153049664Y-69850000D01*
X154520336Y-69850000D01*
X154567732Y-69859415D01*
G37*
%TD.AperFunction*%
%TD*%
M02*
