%TF.GenerationSoftware,KiCad,Pcbnew,7.0.1*%
%TF.CreationDate,2024-01-20T21:14:22-07:00*%
%TF.ProjectId,mux_driver_v1,6d75785f-6472-4697-9665-725f76312e6b,rev?*%
%TF.SameCoordinates,Original*%
%TF.FileFunction,Copper,L1,Top*%
%TF.FilePolarity,Positive*%
%FSLAX46Y46*%
G04 Gerber Fmt 4.6, Leading zero omitted, Abs format (unit mm)*
G04 Created by KiCad (PCBNEW 7.0.1) date 2024-01-20 21:14:22*
%MOMM*%
%LPD*%
G01*
G04 APERTURE LIST*
G04 Aperture macros list*
%AMRoundRect*
0 Rectangle with rounded corners*
0 $1 Rounding radius*
0 $2 $3 $4 $5 $6 $7 $8 $9 X,Y pos of 4 corners*
0 Add a 4 corners polygon primitive as box body*
4,1,4,$2,$3,$4,$5,$6,$7,$8,$9,$2,$3,0*
0 Add four circle primitives for the rounded corners*
1,1,$1+$1,$2,$3*
1,1,$1+$1,$4,$5*
1,1,$1+$1,$6,$7*
1,1,$1+$1,$8,$9*
0 Add four rect primitives between the rounded corners*
20,1,$1+$1,$2,$3,$4,$5,0*
20,1,$1+$1,$4,$5,$6,$7,0*
20,1,$1+$1,$6,$7,$8,$9,0*
20,1,$1+$1,$8,$9,$2,$3,0*%
G04 Aperture macros list end*
%TA.AperFunction,ComponentPad*%
%ADD10R,1.700000X1.700000*%
%TD*%
%TA.AperFunction,ComponentPad*%
%ADD11O,1.700000X1.700000*%
%TD*%
%TA.AperFunction,SMDPad,CuDef*%
%ADD12RoundRect,0.150000X0.150000X0.625000X-0.150000X0.625000X-0.150000X-0.625000X0.150000X-0.625000X0*%
%TD*%
%TA.AperFunction,SMDPad,CuDef*%
%ADD13RoundRect,0.250000X0.350000X0.650000X-0.350000X0.650000X-0.350000X-0.650000X0.350000X-0.650000X0*%
%TD*%
%TA.AperFunction,SMDPad,CuDef*%
%ADD14R,0.450000X1.475000*%
%TD*%
%TA.AperFunction,SMDPad,CuDef*%
%ADD15RoundRect,0.200000X-0.200000X-0.275000X0.200000X-0.275000X0.200000X0.275000X-0.200000X0.275000X0*%
%TD*%
%TA.AperFunction,SMDPad,CuDef*%
%ADD16R,0.800000X0.500000*%
%TD*%
%TA.AperFunction,SMDPad,CuDef*%
%ADD17R,0.800000X0.400000*%
%TD*%
%TA.AperFunction,SMDPad,CuDef*%
%ADD18RoundRect,0.020500X-0.764500X-0.184500X0.764500X-0.184500X0.764500X0.184500X-0.764500X0.184500X0*%
%TD*%
%TA.AperFunction,SMDPad,CuDef*%
%ADD19RoundRect,0.150000X-0.150000X-0.625000X0.150000X-0.625000X0.150000X0.625000X-0.150000X0.625000X0*%
%TD*%
%TA.AperFunction,SMDPad,CuDef*%
%ADD20RoundRect,0.250000X-0.350000X-0.650000X0.350000X-0.650000X0.350000X0.650000X-0.350000X0.650000X0*%
%TD*%
%TA.AperFunction,ViaPad*%
%ADD21C,0.800000*%
%TD*%
%TA.AperFunction,ViaPad*%
%ADD22C,0.560000*%
%TD*%
%TA.AperFunction,Conductor*%
%ADD23C,0.152400*%
%TD*%
G04 APERTURE END LIST*
D10*
%TO.P,J6,1,Pin_1*%
%TO.N,GND*%
X166360000Y-75110000D03*
D11*
%TO.P,J6,2,Pin_2*%
%TO.N,F3_ENB*%
X166360000Y-77650000D03*
%TO.P,J6,3,Pin_3*%
%TO.N,F3_SCL*%
X166360000Y-80190000D03*
%TO.P,J6,4,Pin_4*%
%TO.N,F3_SDA*%
X166360000Y-82730000D03*
%TO.P,J6,5,Pin_5*%
%TO.N,F4_ENB*%
X166360000Y-85270000D03*
%TO.P,J6,6,Pin_6*%
%TO.N,F4_SCL*%
X166360000Y-87810000D03*
%TO.P,J6,7,Pin_7*%
%TO.N,F4_SDA*%
X166360000Y-90350000D03*
%TO.P,J6,8,Pin_8*%
%TO.N,Camera*%
X166360000Y-92890000D03*
%TO.P,J6,9,Pin_9*%
%TO.N,Break_SCL*%
X166360000Y-95430000D03*
%TO.P,J6,10,Pin_10*%
%TO.N,Break_SDA*%
X166360000Y-97970000D03*
%TO.P,J6,11,Pin_11*%
%TO.N,GND*%
X166360000Y-100510000D03*
%TD*%
D10*
%TO.P,J4,1,Pin_1*%
%TO.N,GND*%
X143710000Y-74990000D03*
D11*
%TO.P,J4,2,Pin_2*%
%TO.N,F0_ENB*%
X143710000Y-77530000D03*
%TO.P,J4,3,Pin_3*%
%TO.N,F0_SCL*%
X143710000Y-80070000D03*
%TO.P,J4,4,Pin_4*%
%TO.N,F0_SDA*%
X143710000Y-82610000D03*
%TO.P,J4,5,Pin_5*%
%TO.N,F1_ENB*%
X143710000Y-85150000D03*
%TO.P,J4,6,Pin_6*%
%TO.N,F1_SCL*%
X143710000Y-87690000D03*
%TO.P,J4,7,Pin_7*%
%TO.N,F1_SDA*%
X143710000Y-90230000D03*
%TO.P,J4,8,Pin_8*%
%TO.N,F2_ENB*%
X143710000Y-92770000D03*
%TO.P,J4,9,Pin_9*%
%TO.N,F2_SCL*%
X143710000Y-95310000D03*
%TO.P,J4,10,Pin_10*%
%TO.N,F2_SDA*%
X143710000Y-97850000D03*
%TO.P,J4,11,Pin_11*%
%TO.N,GND*%
X143710000Y-100390000D03*
%TD*%
D12*
%TO.P,J1,1,Pin_1*%
%TO.N,GND*%
X160520000Y-97725000D03*
%TO.P,J1,2,Pin_2*%
%TO.N,+3V3*%
X159520000Y-97725000D03*
%TO.P,J1,3,Pin_3*%
%TO.N,SDA0*%
X158520000Y-97725000D03*
%TO.P,J1,4,Pin_4*%
%TO.N,SCL0*%
X157520000Y-97725000D03*
D13*
%TO.P,J1,MP*%
%TO.N,N/C*%
X161820000Y-100250000D03*
X156220000Y-100250000D03*
%TD*%
D14*
%TO.P,IC1,1,A0*%
%TO.N,GND*%
X150905000Y-85058000D03*
%TO.P,IC1,2,A1*%
%TO.N,+3V3*%
X151555000Y-85058000D03*
%TO.P,IC1,3,A2*%
X152205000Y-85058000D03*
%TO.P,IC1,4,A3*%
%TO.N,GND*%
X152855000Y-85058000D03*
%TO.P,IC1,5,A4*%
%TO.N,+3V3*%
X153505000Y-85058000D03*
%TO.P,IC1,6,LED0*%
%TO.N,F0_ENB*%
X154155000Y-85058000D03*
%TO.P,IC1,7,LED1*%
%TO.N,F1_ENB*%
X154805000Y-85058000D03*
%TO.P,IC1,8,LED2*%
%TO.N,F2_ENB*%
X155455000Y-85058000D03*
%TO.P,IC1,9,LED3*%
%TO.N,F3_ENB*%
X156105000Y-85058000D03*
%TO.P,IC1,10,LED4*%
%TO.N,F4_ENB*%
X156755000Y-85058000D03*
%TO.P,IC1,11,LED5*%
%TO.N,Camera*%
X157405000Y-85058000D03*
%TO.P,IC1,12,LED6*%
%TO.N,unconnected-(IC1-LED6-Pad12)*%
X158055000Y-85058000D03*
%TO.P,IC1,13,LED7*%
%TO.N,unconnected-(IC1-LED7-Pad13)*%
X158705000Y-85058000D03*
%TO.P,IC1,14,VSS*%
%TO.N,GND*%
X159355000Y-85058000D03*
%TO.P,IC1,15,LED8*%
%TO.N,unconnected-(IC1-LED8-Pad15)*%
X159355000Y-79182000D03*
%TO.P,IC1,16,LED9*%
%TO.N,unconnected-(IC1-LED9-Pad16)*%
X158705000Y-79182000D03*
%TO.P,IC1,17,LED10*%
%TO.N,unconnected-(IC1-LED10-Pad17)*%
X158055000Y-79182000D03*
%TO.P,IC1,18,LED11*%
%TO.N,unconnected-(IC1-LED11-Pad18)*%
X157405000Y-79182000D03*
%TO.P,IC1,19,LED12*%
%TO.N,unconnected-(IC1-LED12-Pad19)*%
X156755000Y-79182000D03*
%TO.P,IC1,20,LED13*%
%TO.N,unconnected-(IC1-LED13-Pad20)*%
X156105000Y-79182000D03*
%TO.P,IC1,21,LED14*%
%TO.N,unconnected-(IC1-LED14-Pad21)*%
X155455000Y-79182000D03*
%TO.P,IC1,22,LED15*%
%TO.N,unconnected-(IC1-LED15-Pad22)*%
X154805000Y-79182000D03*
%TO.P,IC1,23,~{OE}*%
%TO.N,GND*%
X154155000Y-79182000D03*
%TO.P,IC1,24,A5*%
X153505000Y-79182000D03*
%TO.P,IC1,25,EXTCLK*%
X152855000Y-79182000D03*
%TO.P,IC1,26,SCL*%
%TO.N,SCL1*%
X152205000Y-79182000D03*
%TO.P,IC1,27,SDA*%
%TO.N,SDA1*%
X151555000Y-79182000D03*
%TO.P,IC1,28,VDD*%
%TO.N,+3V3*%
X150905000Y-79182000D03*
%TD*%
D15*
%TO.P,R3,1*%
%TO.N,+3V3*%
X147965000Y-87980000D03*
%TO.P,R3,2*%
%TO.N,I2C_RESET*%
X149615000Y-87980000D03*
%TD*%
D16*
%TO.P,R1,1,R1.1*%
%TO.N,F1_SCL*%
X149700000Y-91840000D03*
D17*
%TO.P,R1,2,R2.1*%
%TO.N,F1_SDA*%
X149700000Y-91040000D03*
%TO.P,R1,3,R3.1*%
%TO.N,F0_SCL*%
X149700000Y-90240000D03*
D16*
%TO.P,R1,4,R4.1*%
%TO.N,F0_SDA*%
X149700000Y-89440000D03*
%TO.P,R1,5,R4.2*%
%TO.N,+3V3*%
X147900000Y-89440000D03*
D17*
%TO.P,R1,6,R3.2*%
X147900000Y-90240000D03*
%TO.P,R1,7,R2.2*%
X147900000Y-91040000D03*
D16*
%TO.P,R1,8,R1.2*%
X147900000Y-91840000D03*
%TD*%
D18*
%TO.P,U1,1,A0*%
%TO.N,+3V3*%
X152215000Y-88545000D03*
%TO.P,U1,2,A1*%
X152215000Y-89195000D03*
%TO.P,U1,3,~{RESET}*%
%TO.N,I2C_RESET*%
X152215000Y-89845000D03*
%TO.P,U1,4,SD0*%
%TO.N,F0_SDA*%
X152215000Y-90495000D03*
%TO.P,U1,5,SC0*%
%TO.N,F0_SCL*%
X152215000Y-91145000D03*
%TO.P,U1,6,SD1*%
%TO.N,F1_SDA*%
X152215000Y-91795000D03*
%TO.P,U1,7,SC1*%
%TO.N,F1_SCL*%
X152215000Y-92445000D03*
%TO.P,U1,8,SD2*%
%TO.N,F2_SDA*%
X152215000Y-93095000D03*
%TO.P,U1,9,SC2*%
%TO.N,F2_SCL*%
X152215000Y-93745000D03*
%TO.P,U1,10,SD3*%
%TO.N,F3_SDA*%
X152215000Y-94395000D03*
%TO.P,U1,11,SC3*%
%TO.N,F3_SCL*%
X152215000Y-95045000D03*
%TO.P,U1,12,GND*%
%TO.N,GND*%
X152215000Y-95695000D03*
%TO.P,U1,13,SD4*%
%TO.N,F4_SDA*%
X157955000Y-95695000D03*
%TO.P,U1,14,SC4*%
%TO.N,F4_SCL*%
X157955000Y-95045000D03*
%TO.P,U1,15,SD5*%
%TO.N,Break_SDA*%
X157955000Y-94395000D03*
%TO.P,U1,16,SC5*%
%TO.N,Break_SCL*%
X157955000Y-93745000D03*
%TO.P,U1,17,SD6*%
%TO.N,unconnected-(U1-SD6-Pad17)*%
X157955000Y-93095000D03*
%TO.P,U1,18,SC6*%
%TO.N,unconnected-(U1-SC6-Pad18)*%
X157955000Y-92445000D03*
%TO.P,U1,19,SD7*%
%TO.N,unconnected-(U1-SD7-Pad19)*%
X157955000Y-91795000D03*
%TO.P,U1,20,SC7*%
%TO.N,unconnected-(U1-SC7-Pad20)*%
X157955000Y-91145000D03*
%TO.P,U1,21,A2*%
%TO.N,+3V3*%
X157955000Y-90495000D03*
%TO.P,U1,22,SCL*%
%TO.N,SCL0*%
X157955000Y-89845000D03*
%TO.P,U1,23,SDA*%
%TO.N,SDA0*%
X157955000Y-89195000D03*
%TO.P,U1,24,VCC*%
%TO.N,+3V3*%
X157955000Y-88545000D03*
%TD*%
D19*
%TO.P,J5,1,Pin_1*%
%TO.N,GND*%
X157650000Y-76820000D03*
%TO.P,J5,2,Pin_2*%
%TO.N,+3V3*%
X158650000Y-76820000D03*
%TO.P,J5,3,Pin_3*%
%TO.N,SDA1*%
X159650000Y-76820000D03*
%TO.P,J5,4,Pin_4*%
%TO.N,SCL1*%
X160650000Y-76820000D03*
D20*
%TO.P,J5,MP*%
%TO.N,N/C*%
X156350000Y-74295000D03*
X161950000Y-74295000D03*
%TD*%
D16*
%TO.P,R4,1,R1.1*%
%TO.N,Break_SCL*%
X160450000Y-93300000D03*
D17*
%TO.P,R4,2,R2.1*%
%TO.N,Break_SDA*%
X160450000Y-94100000D03*
%TO.P,R4,3,R3.1*%
%TO.N,F4_SCL*%
X160450000Y-94900000D03*
D16*
%TO.P,R4,4,R4.1*%
%TO.N,F4_SDA*%
X160450000Y-95700000D03*
%TO.P,R4,5,R4.2*%
%TO.N,+3V3*%
X162250000Y-95700000D03*
D17*
%TO.P,R4,6,R3.2*%
X162250000Y-94900000D03*
%TO.P,R4,7,R2.2*%
X162250000Y-94100000D03*
D16*
%TO.P,R4,8,R1.2*%
X162250000Y-93300000D03*
%TD*%
D19*
%TO.P,J2,1,Pin_1*%
%TO.N,GND*%
X149740000Y-76810000D03*
%TO.P,J2,2,Pin_2*%
%TO.N,+3V3*%
X150740000Y-76810000D03*
%TO.P,J2,3,Pin_3*%
%TO.N,SDA1*%
X151740000Y-76810000D03*
%TO.P,J2,4,Pin_4*%
%TO.N,SCL1*%
X152740000Y-76810000D03*
D20*
%TO.P,J2,MP*%
%TO.N,N/C*%
X148440000Y-74285000D03*
X154040000Y-74285000D03*
%TD*%
D12*
%TO.P,J3,1,Pin_1*%
%TO.N,GND*%
X152630000Y-97730000D03*
%TO.P,J3,2,Pin_2*%
%TO.N,+3V3*%
X151630000Y-97730000D03*
%TO.P,J3,3,Pin_3*%
%TO.N,SDA0*%
X150630000Y-97730000D03*
%TO.P,J3,4,Pin_4*%
%TO.N,SCL0*%
X149630000Y-97730000D03*
D13*
%TO.P,J3,MP*%
%TO.N,N/C*%
X153930000Y-100255000D03*
X148330000Y-100255000D03*
%TD*%
D16*
%TO.P,R2,1,R1.1*%
%TO.N,F3_SCL*%
X149690000Y-95660000D03*
D17*
%TO.P,R2,2,R2.1*%
%TO.N,F3_SDA*%
X149690000Y-94860000D03*
%TO.P,R2,3,R3.1*%
%TO.N,F2_SCL*%
X149690000Y-94060000D03*
D16*
%TO.P,R2,4,R4.1*%
%TO.N,F2_SDA*%
X149690000Y-93260000D03*
%TO.P,R2,5,R4.2*%
%TO.N,+3V3*%
X147890000Y-93260000D03*
D17*
%TO.P,R2,6,R3.2*%
X147890000Y-94060000D03*
%TO.P,R2,7,R2.2*%
X147890000Y-94860000D03*
D16*
%TO.P,R2,8,R1.2*%
X147890000Y-95660000D03*
%TD*%
D10*
%TO.P,J7,1,Pin_1*%
%TO.N,GND*%
X151245000Y-69850000D03*
D11*
%TO.P,J7,2,Pin_2*%
%TO.N,+3V3*%
X153785000Y-69850000D03*
%TO.P,J7,3,Pin_3*%
%TO.N,SDA1*%
X156325000Y-69850000D03*
%TO.P,J7,4,Pin_4*%
%TO.N,SCL1*%
X158865000Y-69850000D03*
%TD*%
D21*
%TO.N,Camera*%
X157425000Y-86625000D03*
D22*
%TO.N,+3V3*%
X149825000Y-86675000D03*
X147000000Y-91225000D03*
X163175000Y-91075000D03*
X147575000Y-87050000D03*
X163175000Y-91075000D03*
X147000000Y-89125000D03*
X146275000Y-92275000D03*
X158850000Y-73675000D03*
X161775000Y-88575000D03*
X146775000Y-94525000D03*
X150725000Y-96325000D03*
%TO.N,GND*%
X160700000Y-85350000D03*
X153700000Y-80825000D03*
X153600000Y-95900000D03*
X160750000Y-82250000D03*
D21*
X152850000Y-82275000D03*
%TO.N,F0_ENB*%
X154150000Y-82750000D03*
%TO.N,F1_ENB*%
X154850000Y-83575000D03*
%TO.N,F2_ENB*%
X155425000Y-86650000D03*
%TO.N,F3_ENB*%
X156050000Y-82775000D03*
%TO.N,F4_ENB*%
X156800000Y-83650000D03*
%TO.N,SCL0*%
X156450000Y-97900000D03*
D22*
X156425000Y-90600000D03*
D21*
X152425000Y-99650000D03*
D22*
%TO.N,SDA0*%
X158575000Y-99200000D03*
X156350000Y-89625000D03*
D21*
%TO.N,SCL1*%
X157625000Y-74974300D03*
X153750000Y-77025000D03*
D22*
%TO.N,F3_SDA*%
X155850000Y-88325000D03*
X154105700Y-94389452D03*
%TO.N,F1_SDA*%
X148751793Y-90600638D03*
%TO.N,F3_SCL*%
X155719114Y-87478867D03*
X153550000Y-94975000D03*
%TO.N,F2_SCL*%
X148400000Y-97150000D03*
%TO.N,F0_SCL*%
X146825000Y-86425000D03*
X147784779Y-85705700D03*
%TO.N,F4_SCL*%
X159975000Y-91450000D03*
X159325000Y-94950700D03*
%TO.N,F4_SDA*%
X159325000Y-96000000D03*
X160530700Y-92275000D03*
%TD*%
D23*
%TO.N,Camera*%
X157405000Y-85058000D02*
X157405000Y-86605000D01*
X157405000Y-86605000D02*
X157425000Y-86625000D01*
%TO.N,GND*%
X152630000Y-96110000D02*
X152215000Y-95695000D01*
X152855000Y-85058000D02*
X152855000Y-82280000D01*
X153505000Y-79182000D02*
X153505000Y-80630000D01*
X159355000Y-84168100D02*
X155382600Y-80195700D01*
X153505000Y-80630000D02*
X153700000Y-80825000D01*
X152630000Y-97730000D02*
X152630000Y-96110000D01*
X159355000Y-85058000D02*
X159355000Y-84168100D01*
X148910000Y-76810000D02*
X147090000Y-74990000D01*
X160520000Y-97725000D02*
X161225000Y-97725000D01*
X154155000Y-80030000D02*
X154155000Y-79182000D01*
X161225000Y-97725000D02*
X164010000Y-100510000D01*
X160700000Y-82300000D02*
X160750000Y-82250000D01*
X157650000Y-76820000D02*
X155652100Y-76820000D01*
X155652100Y-76820000D02*
X154155000Y-78317100D01*
X149740000Y-76810000D02*
X148910000Y-76810000D01*
X152855000Y-82218100D02*
X152855000Y-82125000D01*
X152855000Y-82125000D02*
X152855000Y-79182000D01*
X152850000Y-82275000D02*
X152855000Y-82270000D01*
X150905000Y-84168100D02*
X152855000Y-82218100D01*
X164010000Y-100510000D02*
X166196800Y-100510000D01*
X154155000Y-79182000D02*
X152855000Y-79182000D01*
X160700000Y-85350000D02*
X159647000Y-85350000D01*
X154155000Y-78317100D02*
X154155000Y-79182000D01*
X152855000Y-82280000D02*
X152850000Y-82275000D01*
X159647000Y-85350000D02*
X159355000Y-85058000D01*
X147090000Y-74990000D02*
X143903200Y-74990000D01*
X150905000Y-85058000D02*
X150905000Y-84168100D01*
X160700000Y-85350000D02*
X160700000Y-82300000D01*
X154320700Y-80195700D02*
X154155000Y-80030000D01*
X153395000Y-95695000D02*
X152215000Y-95695000D01*
X152855000Y-82270000D02*
X152855000Y-82125000D01*
X153600000Y-95900000D02*
X153395000Y-95695000D01*
X155382600Y-80195700D02*
X154320700Y-80195700D01*
%TO.N,F0_ENB*%
X154150000Y-84188100D02*
X154150000Y-82750000D01*
X154155000Y-85058000D02*
X154155000Y-84193100D01*
X154155000Y-84193100D02*
X154150000Y-84188100D01*
%TO.N,F1_ENB*%
X154805000Y-83620000D02*
X154850000Y-83575000D01*
X154805000Y-85058000D02*
X154805000Y-83620000D01*
%TO.N,F2_ENB*%
X155455000Y-85058000D02*
X155455000Y-86620000D01*
X155455000Y-86620000D02*
X155425000Y-86650000D01*
%TO.N,F3_ENB*%
X156105000Y-82830000D02*
X156050000Y-82775000D01*
X156105000Y-85058000D02*
X156105000Y-82830000D01*
%TO.N,F4_ENB*%
X156755000Y-83695000D02*
X156800000Y-83650000D01*
X156755000Y-85058000D02*
X156755000Y-83695000D01*
%TO.N,SCL0*%
X156481403Y-90600000D02*
X156425000Y-90600000D01*
X149630000Y-98107738D02*
X151172262Y-99650000D01*
X157345000Y-97900000D02*
X157520000Y-97725000D01*
X157236403Y-89845000D02*
X156481403Y-90600000D01*
X151172262Y-99650000D02*
X152425000Y-99650000D01*
X149630000Y-97730000D02*
X149630000Y-98107738D01*
X157955000Y-89845000D02*
X157236403Y-89845000D01*
X156450000Y-97900000D02*
X157345000Y-97900000D01*
%TO.N,SDA0*%
X157955000Y-89195000D02*
X156780000Y-89195000D01*
X150630000Y-98355000D02*
X150630000Y-97730000D01*
X158575000Y-99200000D02*
X158575000Y-97780000D01*
X156780000Y-89195000D02*
X156350000Y-89625000D01*
X151056200Y-98781200D02*
X150630000Y-98355000D01*
X157841538Y-98781200D02*
X151056200Y-98781200D01*
X158520000Y-98102738D02*
X157841538Y-98781200D01*
X158575000Y-97780000D02*
X158520000Y-97725000D01*
X158520000Y-97725000D02*
X158520000Y-98102738D01*
%TO.N,SDA1*%
X151555000Y-76995000D02*
X151555000Y-79182000D01*
X151740000Y-76810000D02*
X151740000Y-76432262D01*
X151740000Y-76810000D02*
X151555000Y-76995000D01*
X159650000Y-75850000D02*
X159650000Y-76820000D01*
X155725000Y-72375000D02*
X156325000Y-71775000D01*
X151740000Y-76432262D02*
X152522262Y-75650000D01*
X151740000Y-74840841D02*
X154205841Y-72375000D01*
X154205841Y-72375000D02*
X155725000Y-72375000D01*
X152522262Y-75650000D02*
X159450000Y-75650000D01*
X156325000Y-71775000D02*
X156325000Y-70053200D01*
X151740000Y-76810000D02*
X151740000Y-74840841D01*
X159450000Y-75650000D02*
X159650000Y-75850000D01*
%TO.N,SCL1*%
X160650000Y-76351632D02*
X159272668Y-74974300D01*
X159272668Y-74974300D02*
X157625000Y-74974300D01*
X153750000Y-77025000D02*
X152955000Y-77025000D01*
X157625000Y-74974300D02*
X157625000Y-73100000D01*
X160650000Y-76820000D02*
X160650000Y-76351632D01*
X152740000Y-76810000D02*
X152740000Y-77757100D01*
X157625000Y-73100000D02*
X158865000Y-71860000D01*
X152205000Y-78292100D02*
X152205000Y-79182000D01*
X152740000Y-77757100D02*
X152205000Y-78292100D01*
X158865000Y-71860000D02*
X158865000Y-70053200D01*
X152955000Y-77025000D02*
X152740000Y-76810000D01*
%TO.N,F3_SDA*%
X152215000Y-94395000D02*
X154100152Y-94395000D01*
X149690000Y-94860000D02*
X150615000Y-94860000D01*
X150615000Y-94860000D02*
X151080000Y-94395000D01*
X156111200Y-88063800D02*
X161009568Y-88063800D01*
X154100152Y-94395000D02*
X154105700Y-94389452D01*
X155850000Y-88325000D02*
X156111200Y-88063800D01*
X164395000Y-82730000D02*
X166196800Y-82730000D01*
X163275000Y-85798368D02*
X163275000Y-83850000D01*
X161009568Y-88063800D02*
X163275000Y-85798368D01*
X163275000Y-83850000D02*
X164395000Y-82730000D01*
X151080000Y-94395000D02*
X152215000Y-94395000D01*
%TO.N,F2_SDA*%
X148566200Y-93831400D02*
X148566200Y-96033800D01*
X152050000Y-93260000D02*
X152215000Y-93095000D01*
X149137600Y-93260000D02*
X148566200Y-93831400D01*
X148566200Y-96033800D02*
X146750000Y-97850000D01*
X146750000Y-97850000D02*
X143903200Y-97850000D01*
X149690000Y-93260000D02*
X152050000Y-93260000D01*
X149690000Y-93260000D02*
X149137600Y-93260000D01*
%TO.N,F1_SDA*%
X149700000Y-91040000D02*
X149191155Y-91040000D01*
X150589771Y-91040000D02*
X149700000Y-91040000D01*
X152215000Y-91795000D02*
X151344771Y-91795000D01*
X149191155Y-91040000D02*
X148751793Y-90600638D01*
X151344771Y-91795000D02*
X150589771Y-91040000D01*
%TO.N,F0_SDA*%
X148641200Y-86887935D02*
X148228265Y-86475000D01*
X148641200Y-88381200D02*
X148641200Y-86887935D01*
X147228579Y-83378579D02*
X146460000Y-82610000D01*
X146460000Y-82610000D02*
X143903200Y-82610000D01*
X147767493Y-86475000D02*
X147228579Y-85936086D01*
X151041507Y-90495000D02*
X149986507Y-89440000D01*
X149986507Y-89440000D02*
X149700000Y-89440000D01*
X149700000Y-89440000D02*
X148641200Y-88381200D01*
X147228579Y-85936086D02*
X147228579Y-83378579D01*
X152215000Y-90495000D02*
X151041507Y-90495000D01*
X148228265Y-86475000D02*
X147767493Y-86475000D01*
%TO.N,F3_SCL*%
X162800000Y-85775000D02*
X162800000Y-81000000D01*
X161225000Y-87350000D02*
X162800000Y-85775000D01*
X163610000Y-80190000D02*
X166196800Y-80190000D01*
X162800000Y-81000000D02*
X163610000Y-80190000D01*
X155719114Y-87478867D02*
X155847981Y-87350000D01*
X150881403Y-95660000D02*
X151496403Y-95045000D01*
X153480000Y-95045000D02*
X153550000Y-94975000D01*
X151496403Y-95045000D02*
X152215000Y-95045000D01*
X152215000Y-95045000D02*
X153480000Y-95045000D01*
X149690000Y-95660000D02*
X150881403Y-95660000D01*
X155847981Y-87350000D02*
X161225000Y-87350000D01*
%TO.N,F2_SCL*%
X149690000Y-94060000D02*
X149358600Y-94060000D01*
X150557400Y-93745000D02*
X152215000Y-93745000D01*
X149358600Y-94060000D02*
X148918600Y-94500000D01*
X148918600Y-94500000D02*
X148918600Y-96631400D01*
X149690000Y-94060000D02*
X150242400Y-94060000D01*
X148918600Y-96631400D02*
X148400000Y-97150000D01*
X150242400Y-94060000D02*
X150557400Y-93745000D01*
%TO.N,F0_SCL*%
X150288139Y-90240000D02*
X149700000Y-90240000D01*
X146825000Y-87988448D02*
X146825000Y-86425000D01*
X149700000Y-90240000D02*
X149297600Y-90240000D01*
X151193139Y-91145000D02*
X150288139Y-90240000D01*
X152215000Y-91145000D02*
X151193139Y-91145000D01*
X148250000Y-88731200D02*
X147567752Y-88731200D01*
X146345000Y-80070000D02*
X143903200Y-80070000D01*
X149297600Y-90240000D02*
X149023800Y-89966200D01*
X147784779Y-85705700D02*
X147784779Y-81509779D01*
X149023800Y-89966200D02*
X149023800Y-89505000D01*
X147567752Y-88731200D02*
X146825000Y-87988448D01*
X149023800Y-89505000D02*
X148250000Y-88731200D01*
X147784779Y-81509779D02*
X146345000Y-80070000D01*
%TO.N,F4_SCL*%
X159325000Y-94900000D02*
X160450000Y-94900000D01*
X159975000Y-91450000D02*
X163615000Y-87810000D01*
X157955000Y-95045000D02*
X158100000Y-94900000D01*
X158100000Y-94900000D02*
X159325000Y-94900000D01*
X163615000Y-87810000D02*
X166196800Y-87810000D01*
X159325000Y-94900000D02*
X159325000Y-94950700D01*
%TO.N,F4_SDA*%
X159325000Y-96000000D02*
X159325000Y-95775000D01*
X159275000Y-95700000D02*
X159400000Y-95700000D01*
X159325000Y-96000000D02*
X159325000Y-95750000D01*
X159325000Y-95750000D02*
X159275000Y-95700000D01*
X159325000Y-95775000D02*
X159400000Y-95700000D01*
X159400000Y-95700000D02*
X160450000Y-95700000D01*
X162455700Y-90350000D02*
X166196800Y-90350000D01*
X160530700Y-92275000D02*
X162455700Y-90350000D01*
X157955000Y-95695000D02*
X157960000Y-95700000D01*
X157960000Y-95700000D02*
X159275000Y-95700000D01*
%TO.N,I2C_RESET*%
X149631403Y-87980000D02*
X149615000Y-87980000D01*
X151496403Y-89845000D02*
X149631403Y-87980000D01*
X152215000Y-89845000D02*
X151496403Y-89845000D01*
%TO.N,F1_SCL*%
X145865000Y-87690000D02*
X143903200Y-87690000D01*
X147354614Y-92366200D02*
X146375000Y-91386586D01*
X146375000Y-91386586D02*
X146375000Y-88200000D01*
X146375000Y-88200000D02*
X145865000Y-87690000D01*
X149173800Y-92366200D02*
X147354614Y-92366200D01*
X149700000Y-91840000D02*
X149173800Y-92366200D01*
X152215000Y-92445000D02*
X151496403Y-92445000D01*
X151496403Y-92445000D02*
X150891403Y-91840000D01*
X150891403Y-91840000D02*
X149700000Y-91840000D01*
%TO.N,Break_SDA*%
X162720000Y-97970000D02*
X166196800Y-97970000D01*
X160450000Y-94100000D02*
X160650000Y-94100000D01*
X160155000Y-94395000D02*
X160450000Y-94100000D01*
X157955000Y-94395000D02*
X160155000Y-94395000D01*
X161126200Y-94576200D02*
X161126200Y-96376200D01*
X161126200Y-96376200D02*
X162720000Y-97970000D01*
X160650000Y-94100000D02*
X161126200Y-94576200D01*
%TO.N,Break_SCL*%
X165400600Y-96226200D02*
X166196800Y-95430000D01*
X161478600Y-96131000D02*
X161573800Y-96226200D01*
X159452600Y-93745000D02*
X159897600Y-93300000D01*
X159897600Y-93300000D02*
X160450000Y-93300000D01*
X160450000Y-93300000D02*
X160802400Y-93300000D01*
X160802400Y-93300000D02*
X161478600Y-93976200D01*
X157955000Y-93745000D02*
X159452600Y-93745000D01*
X161573800Y-96226200D02*
X165400600Y-96226200D01*
X161478600Y-93976200D02*
X161478600Y-96131000D01*
%TD*%
%TA.AperFunction,Conductor*%
%TO.N,+3V3*%
G36*
X150006637Y-69856946D02*
G01*
X150068579Y-69873604D01*
X150113910Y-69918985D01*
X150130500Y-69980946D01*
X150130500Y-71150340D01*
X150135473Y-71200898D01*
X150144888Y-71248293D01*
X150159622Y-71296927D01*
X150159810Y-71297383D01*
X150159815Y-71297392D01*
X150183769Y-71342261D01*
X150210625Y-71382499D01*
X150282179Y-71454128D01*
X150322386Y-71481025D01*
X150367260Y-71505039D01*
X150367735Y-71505236D01*
X150416447Y-71520033D01*
X150463963Y-71529499D01*
X150514664Y-71534500D01*
X151976000Y-71534500D01*
X151976001Y-71534500D01*
X151998388Y-71531552D01*
X152043164Y-71525658D01*
X152105164Y-71509045D01*
X152167750Y-71483120D01*
X152221494Y-71441881D01*
X152266881Y-71396494D01*
X152308120Y-71342750D01*
X152334045Y-71280164D01*
X152350658Y-71218164D01*
X152359500Y-71151000D01*
X152359500Y-69984664D01*
X152359500Y-69983674D01*
X152376136Y-69921635D01*
X152421579Y-69876241D01*
X152483636Y-69859674D01*
X152515898Y-69859709D01*
X152934915Y-69860171D01*
X152934915Y-69860170D01*
X152959137Y-69860197D01*
X152959138Y-69860196D01*
X154704062Y-69862118D01*
X155086636Y-69862540D01*
X155148579Y-69879198D01*
X155193910Y-69924579D01*
X155210500Y-69986540D01*
X155210500Y-71150340D01*
X155215473Y-71200898D01*
X155224888Y-71248293D01*
X155239622Y-71296927D01*
X155239810Y-71297383D01*
X155239815Y-71297392D01*
X155263769Y-71342261D01*
X155290625Y-71382499D01*
X155362179Y-71454128D01*
X155402386Y-71481025D01*
X155447260Y-71505039D01*
X155447735Y-71505236D01*
X155496447Y-71520033D01*
X155543963Y-71529499D01*
X155594664Y-71534500D01*
X155798458Y-71534500D01*
X155854753Y-71548015D01*
X155898776Y-71585615D01*
X155920931Y-71639102D01*
X155916389Y-71696818D01*
X155886139Y-71746181D01*
X155624339Y-72007981D01*
X155584111Y-72034861D01*
X155536658Y-72044300D01*
X154225696Y-72044300D01*
X154214889Y-72043828D01*
X154212055Y-72043580D01*
X154176573Y-72040475D01*
X154139427Y-72050429D01*
X154128867Y-72052770D01*
X154090073Y-72059610D01*
X154064686Y-72070126D01*
X154032415Y-72092721D01*
X154023300Y-72098528D01*
X153989992Y-72117760D01*
X153965259Y-72147234D01*
X153957954Y-72155205D01*
X151520205Y-74592954D01*
X151512234Y-74600259D01*
X151482760Y-74624992D01*
X151463528Y-74658300D01*
X151457721Y-74667415D01*
X151435126Y-74699686D01*
X151424610Y-74725073D01*
X151417770Y-74763867D01*
X151415429Y-74774427D01*
X151405475Y-74811573D01*
X151408828Y-74849888D01*
X151409300Y-74860696D01*
X151409300Y-75747104D01*
X151391027Y-75811894D01*
X151362053Y-75838676D01*
X151363164Y-75839787D01*
X151258673Y-75944277D01*
X151200501Y-76058443D01*
X151185500Y-76153164D01*
X151185500Y-77466836D01*
X151200501Y-77561553D01*
X151210785Y-77581736D01*
X151224300Y-77638031D01*
X151224300Y-78142763D01*
X151209658Y-78201216D01*
X151169191Y-78245865D01*
X151146515Y-78261016D01*
X151090265Y-78345199D01*
X151075500Y-78419430D01*
X151075500Y-79944565D01*
X151090266Y-80018801D01*
X151146515Y-80102984D01*
X151229999Y-80158766D01*
X151230699Y-80159234D01*
X151304933Y-80174000D01*
X151805066Y-80173999D01*
X151855811Y-80163906D01*
X151904189Y-80163907D01*
X151933855Y-80169807D01*
X151954933Y-80174000D01*
X152400300Y-80173999D01*
X152462300Y-80190612D01*
X152507687Y-80235999D01*
X152524300Y-80297999D01*
X152524300Y-81633334D01*
X152513376Y-81684225D01*
X152482528Y-81726149D01*
X152356501Y-81837799D01*
X152266212Y-81968605D01*
X152209851Y-82117217D01*
X152190692Y-82275002D01*
X152198543Y-82339664D01*
X152192664Y-82395059D01*
X152163128Y-82442290D01*
X150685205Y-83920213D01*
X150677234Y-83927518D01*
X150647760Y-83952251D01*
X150628528Y-83985559D01*
X150622721Y-83994674D01*
X150600123Y-84026948D01*
X150588678Y-84054583D01*
X150583541Y-84063482D01*
X150545041Y-84104591D01*
X150496516Y-84137014D01*
X150440265Y-84221199D01*
X150425500Y-84295430D01*
X150425500Y-85820565D01*
X150440266Y-85894801D01*
X150496515Y-85978984D01*
X150560658Y-86021843D01*
X150580699Y-86035234D01*
X150654933Y-86050000D01*
X151155066Y-86049999D01*
X151229301Y-86035234D01*
X151313484Y-85978984D01*
X151369734Y-85894801D01*
X151384500Y-85820567D01*
X151384499Y-84295434D01*
X151374342Y-84244367D01*
X151377300Y-84184184D01*
X151408277Y-84132501D01*
X152312618Y-83228161D01*
X152361982Y-83197911D01*
X152419698Y-83193369D01*
X152473185Y-83215524D01*
X152510785Y-83259547D01*
X152524300Y-83315842D01*
X152524300Y-84018763D01*
X152509658Y-84077216D01*
X152469191Y-84121865D01*
X152446515Y-84137016D01*
X152390265Y-84221199D01*
X152375500Y-84295430D01*
X152375500Y-85820565D01*
X152390266Y-85894801D01*
X152446515Y-85978984D01*
X152510658Y-86021843D01*
X152530699Y-86035234D01*
X152604933Y-86050000D01*
X153105066Y-86049999D01*
X153179301Y-86035234D01*
X153263484Y-85978984D01*
X153319734Y-85894801D01*
X153334500Y-85820567D01*
X153334499Y-84295434D01*
X153319734Y-84221199D01*
X153263484Y-84137016D01*
X153240808Y-84121864D01*
X153200342Y-84077216D01*
X153185700Y-84018763D01*
X153185700Y-82907806D01*
X153196624Y-82856915D01*
X153227470Y-82814993D01*
X153295409Y-82754803D01*
X153355283Y-82725651D01*
X153421605Y-82731678D01*
X153475245Y-82771146D01*
X153500731Y-82832673D01*
X153509851Y-82907782D01*
X153566212Y-83056394D01*
X153583469Y-83081395D01*
X153656502Y-83187201D01*
X153775471Y-83292599D01*
X153777528Y-83294421D01*
X153808376Y-83336345D01*
X153819300Y-83387236D01*
X153819300Y-84022104D01*
X153804658Y-84080557D01*
X153764191Y-84125206D01*
X153746515Y-84137016D01*
X153690265Y-84221199D01*
X153675500Y-84295430D01*
X153675500Y-85820565D01*
X153690266Y-85894801D01*
X153746515Y-85978984D01*
X153810658Y-86021843D01*
X153830699Y-86035234D01*
X153904933Y-86050000D01*
X154405066Y-86049999D01*
X154455811Y-86039906D01*
X154504189Y-86039907D01*
X154533855Y-86045807D01*
X154554933Y-86050000D01*
X154807613Y-86049999D01*
X154871762Y-86067882D01*
X154917408Y-86116373D01*
X154931386Y-86181486D01*
X154909662Y-86244439D01*
X154841212Y-86343604D01*
X154784851Y-86492217D01*
X154765692Y-86650000D01*
X154784851Y-86807782D01*
X154841212Y-86956394D01*
X154847663Y-86965740D01*
X154931502Y-87087201D01*
X155050471Y-87192599D01*
X155130279Y-87234485D01*
X155168964Y-87266179D01*
X155191984Y-87310581D01*
X155195590Y-87360466D01*
X155180001Y-87478866D01*
X155198372Y-87618399D01*
X155252228Y-87748422D01*
X155337903Y-87860077D01*
X155362339Y-87878827D01*
X155401414Y-87929750D01*
X155409792Y-87993387D01*
X155385230Y-88052688D01*
X155383114Y-88055445D01*
X155329258Y-88185467D01*
X155310887Y-88325000D01*
X155329258Y-88464532D01*
X155383114Y-88594555D01*
X155468789Y-88706210D01*
X155552224Y-88770231D01*
X155580444Y-88791885D01*
X155710468Y-88845742D01*
X155850000Y-88864112D01*
X155989532Y-88845742D01*
X156119556Y-88791885D01*
X156231210Y-88706210D01*
X156316885Y-88594556D01*
X156368043Y-88471047D01*
X156394922Y-88430819D01*
X156435151Y-88403939D01*
X156482604Y-88394500D01*
X160989713Y-88394500D01*
X161000519Y-88394971D01*
X161038835Y-88398324D01*
X161075989Y-88388367D01*
X161086532Y-88386030D01*
X161124419Y-88379351D01*
X161124420Y-88379349D01*
X161125345Y-88379187D01*
X161150715Y-88368677D01*
X161151480Y-88368140D01*
X161151484Y-88368140D01*
X161182994Y-88346075D01*
X161192096Y-88340276D01*
X161225417Y-88321039D01*
X161250153Y-88291559D01*
X161257439Y-88283608D01*
X163494811Y-86046236D01*
X163502764Y-86038948D01*
X163532239Y-86014217D01*
X163551465Y-85980915D01*
X163557275Y-85971796D01*
X163558441Y-85970130D01*
X163579340Y-85940284D01*
X163579340Y-85940281D01*
X163579878Y-85939514D01*
X163590387Y-85914143D01*
X163590549Y-85913221D01*
X163590551Y-85913219D01*
X163597230Y-85875332D01*
X163599567Y-85864789D01*
X163609524Y-85827635D01*
X163606171Y-85789319D01*
X163605700Y-85778513D01*
X163605700Y-84038342D01*
X163615139Y-83990889D01*
X163642019Y-83950661D01*
X163795792Y-83796888D01*
X163957478Y-83635200D01*
X164003400Y-83606125D01*
X164057345Y-83599482D01*
X164108949Y-83616548D01*
X164148297Y-83654045D01*
X164170623Y-83687497D01*
X164170625Y-83687499D01*
X164242179Y-83759128D01*
X164282386Y-83786025D01*
X164327260Y-83810039D01*
X164327735Y-83810236D01*
X164376447Y-83825033D01*
X164423963Y-83834499D01*
X164474664Y-83839500D01*
X166275500Y-83839500D01*
X166337500Y-83856113D01*
X166382887Y-83901500D01*
X166399500Y-83963500D01*
X166399500Y-84036500D01*
X166382887Y-84098500D01*
X166337500Y-84143887D01*
X166275500Y-84160500D01*
X166275336Y-84160500D01*
X164474664Y-84160500D01*
X164470153Y-84160942D01*
X164424200Y-84165453D01*
X164376886Y-84174833D01*
X164327872Y-84189705D01*
X164327383Y-84189908D01*
X164282837Y-84213722D01*
X164242474Y-84240657D01*
X164203018Y-84273018D01*
X164170657Y-84312474D01*
X164143722Y-84352837D01*
X164119908Y-84397383D01*
X164119705Y-84397872D01*
X164104833Y-84446886D01*
X164095453Y-84494200D01*
X164090500Y-84544665D01*
X164090500Y-85995340D01*
X164095473Y-86045898D01*
X164104888Y-86093293D01*
X164119622Y-86141927D01*
X164119810Y-86142383D01*
X164143770Y-86187263D01*
X164156257Y-86205972D01*
X164170625Y-86227499D01*
X164242179Y-86299128D01*
X164282386Y-86326025D01*
X164327260Y-86350039D01*
X164327735Y-86350236D01*
X164376447Y-86365033D01*
X164423963Y-86374499D01*
X164474664Y-86379500D01*
X166275500Y-86379500D01*
X166337500Y-86396113D01*
X166382887Y-86441500D01*
X166399500Y-86503500D01*
X166399500Y-86576500D01*
X166382887Y-86638500D01*
X166337500Y-86683887D01*
X166275500Y-86700500D01*
X166275336Y-86700500D01*
X164474664Y-86700500D01*
X164470153Y-86700942D01*
X164424200Y-86705453D01*
X164376886Y-86714833D01*
X164327872Y-86729705D01*
X164327383Y-86729908D01*
X164282837Y-86753722D01*
X164242474Y-86780657D01*
X164203018Y-86813018D01*
X164170657Y-86852474D01*
X164143722Y-86892837D01*
X164119908Y-86937383D01*
X164119705Y-86937872D01*
X164104833Y-86986886D01*
X164095453Y-87034200D01*
X164090500Y-87084665D01*
X164090500Y-87355300D01*
X164073887Y-87417300D01*
X164028500Y-87462687D01*
X163966500Y-87479300D01*
X163634846Y-87479300D01*
X163624040Y-87478828D01*
X163585733Y-87475477D01*
X163548581Y-87485430D01*
X163538030Y-87487769D01*
X163499227Y-87494611D01*
X163473848Y-87505123D01*
X163441577Y-87527720D01*
X163432456Y-87533531D01*
X163399150Y-87552760D01*
X163374419Y-87582233D01*
X163367113Y-87590205D01*
X160081360Y-90875958D01*
X160033538Y-90905696D01*
X159977495Y-90911216D01*
X159975001Y-90910887D01*
X159835467Y-90929258D01*
X159705444Y-90983114D01*
X159593789Y-91068789D01*
X159508114Y-91180444D01*
X159454258Y-91310467D01*
X159435887Y-91449999D01*
X159454258Y-91589532D01*
X159508114Y-91719555D01*
X159593789Y-91831210D01*
X159679868Y-91897260D01*
X159705444Y-91916885D01*
X159835468Y-91970742D01*
X159905421Y-91979951D01*
X159958003Y-91999706D01*
X159996474Y-92040635D01*
X160012940Y-92094339D01*
X160008993Y-92118876D01*
X160012089Y-92119284D01*
X160009958Y-92135467D01*
X160009958Y-92135468D01*
X160007732Y-92152375D01*
X159991587Y-92274999D01*
X160009958Y-92414532D01*
X160063814Y-92544556D01*
X160104332Y-92597360D01*
X160128614Y-92654652D01*
X160122008Y-92716526D01*
X160086178Y-92767400D01*
X160030146Y-92794464D01*
X159950698Y-92810266D01*
X159866515Y-92866515D01*
X159811504Y-92948846D01*
X159780633Y-92980745D01*
X159769386Y-92986064D01*
X159724174Y-93017721D01*
X159715059Y-93023528D01*
X159681751Y-93042760D01*
X159657018Y-93072234D01*
X159649713Y-93080205D01*
X159351936Y-93377983D01*
X159311711Y-93404861D01*
X159264258Y-93414300D01*
X159118500Y-93414300D01*
X159056500Y-93397687D01*
X159011113Y-93352300D01*
X158994500Y-93290300D01*
X158994500Y-92883410D01*
X158976753Y-92794190D01*
X158976753Y-92745807D01*
X158982578Y-92716526D01*
X158994500Y-92656588D01*
X158994500Y-92233412D01*
X158978545Y-92153200D01*
X158978544Y-92153199D01*
X158976753Y-92144192D01*
X158976753Y-92095808D01*
X158994500Y-92006589D01*
X158994500Y-91583410D01*
X158976753Y-91494189D01*
X158976753Y-91445806D01*
X158978544Y-91436801D01*
X158978545Y-91436800D01*
X158990333Y-91377539D01*
X158994500Y-91356589D01*
X158994500Y-90933410D01*
X158978545Y-90853200D01*
X158917764Y-90762235D01*
X158826799Y-90701454D01*
X158746590Y-90685500D01*
X158746588Y-90685500D01*
X157163412Y-90685500D01*
X157162944Y-90685500D01*
X157106649Y-90671985D01*
X157062626Y-90634385D01*
X157040471Y-90580898D01*
X157045013Y-90523182D01*
X157075260Y-90473821D01*
X157208266Y-90340816D01*
X157248492Y-90313939D01*
X157295945Y-90304500D01*
X158746590Y-90304500D01*
X158800062Y-90293863D01*
X158826800Y-90288545D01*
X158917764Y-90227764D01*
X158978545Y-90136800D01*
X158990089Y-90078765D01*
X158994500Y-90056590D01*
X158994500Y-89633410D01*
X158976753Y-89544190D01*
X158976753Y-89495807D01*
X158979358Y-89482715D01*
X158994500Y-89406588D01*
X158994500Y-88983412D01*
X158992105Y-88971373D01*
X158978545Y-88903200D01*
X158917764Y-88812235D01*
X158826799Y-88751454D01*
X158746590Y-88735500D01*
X158746588Y-88735500D01*
X157163412Y-88735500D01*
X157163410Y-88735500D01*
X157083200Y-88751454D01*
X156987195Y-88815603D01*
X156949620Y-88849659D01*
X156891168Y-88864300D01*
X156799855Y-88864300D01*
X156789048Y-88863828D01*
X156786214Y-88863580D01*
X156750732Y-88860475D01*
X156713586Y-88870429D01*
X156703026Y-88872770D01*
X156664232Y-88879610D01*
X156638845Y-88890126D01*
X156606574Y-88912721D01*
X156597459Y-88918528D01*
X156564151Y-88937760D01*
X156539418Y-88967234D01*
X156532113Y-88975205D01*
X156456360Y-89050958D01*
X156408538Y-89080696D01*
X156352495Y-89086216D01*
X156350001Y-89085887D01*
X156210467Y-89104258D01*
X156080444Y-89158114D01*
X155968789Y-89243789D01*
X155883114Y-89355444D01*
X155829258Y-89485467D01*
X155810887Y-89624999D01*
X155829258Y-89764532D01*
X155883114Y-89894555D01*
X155968789Y-90006210D01*
X156020287Y-90045725D01*
X156059362Y-90096648D01*
X156067740Y-90160286D01*
X156043177Y-90219587D01*
X155958114Y-90330443D01*
X155904258Y-90460467D01*
X155885887Y-90600000D01*
X155904258Y-90739532D01*
X155958114Y-90869555D01*
X156043789Y-90981210D01*
X156101370Y-91025393D01*
X156155444Y-91066885D01*
X156285468Y-91120742D01*
X156425000Y-91139112D01*
X156564532Y-91120742D01*
X156694556Y-91066885D01*
X156716013Y-91050420D01*
X156779346Y-91025393D01*
X156846344Y-91037584D01*
X156896801Y-91083316D01*
X156915500Y-91148796D01*
X156915500Y-91356590D01*
X156933246Y-91445808D01*
X156933247Y-91494189D01*
X156928426Y-91518428D01*
X156915501Y-91583410D01*
X156915500Y-91583413D01*
X156915500Y-92006590D01*
X156933246Y-92095808D01*
X156933247Y-92144189D01*
X156915500Y-92233413D01*
X156915500Y-92656590D01*
X156933246Y-92745807D01*
X156933247Y-92794188D01*
X156926226Y-92829488D01*
X156915501Y-92883410D01*
X156915500Y-92883413D01*
X156915500Y-93306590D01*
X156933246Y-93395808D01*
X156933247Y-93444189D01*
X156923074Y-93495336D01*
X156915500Y-93533412D01*
X156915500Y-93956588D01*
X156918175Y-93970038D01*
X156933247Y-94045810D01*
X156933247Y-94094190D01*
X156915500Y-94183413D01*
X156915500Y-94606590D01*
X156933246Y-94695807D01*
X156933247Y-94744188D01*
X156915500Y-94833413D01*
X156915500Y-95256587D01*
X156933247Y-95345810D01*
X156933247Y-95394190D01*
X156915500Y-95483413D01*
X156915500Y-95906590D01*
X156931454Y-95986799D01*
X156992235Y-96077764D01*
X157083200Y-96138545D01*
X157163410Y-96154500D01*
X158727603Y-96154500D01*
X158775056Y-96163939D01*
X158815284Y-96190819D01*
X158842164Y-96231047D01*
X158858115Y-96269556D01*
X158943789Y-96381210D01*
X159015341Y-96436113D01*
X159055444Y-96466885D01*
X159185468Y-96520742D01*
X159325000Y-96539112D01*
X159464532Y-96520742D01*
X159594556Y-96466885D01*
X159706210Y-96381210D01*
X159791885Y-96269556D01*
X159795577Y-96260641D01*
X159828378Y-96214867D01*
X159878044Y-96188319D01*
X159934331Y-96186477D01*
X159950696Y-96189732D01*
X159950699Y-96189734D01*
X160024933Y-96204500D01*
X160671500Y-96204499D01*
X160733500Y-96221112D01*
X160778887Y-96266499D01*
X160795500Y-96328499D01*
X160795500Y-96356345D01*
X160795028Y-96367153D01*
X160791675Y-96405467D01*
X160801629Y-96442614D01*
X160803970Y-96453175D01*
X160810810Y-96491970D01*
X160822261Y-96519612D01*
X160827519Y-96539232D01*
X160823482Y-96540313D01*
X160831599Y-96563403D01*
X160817849Y-96628764D01*
X160772188Y-96677511D01*
X160707864Y-96695500D01*
X160338164Y-96695500D01*
X160243443Y-96710501D01*
X160129277Y-96768673D01*
X160038673Y-96859277D01*
X159980501Y-96973443D01*
X159965500Y-97068164D01*
X159965500Y-98381836D01*
X159980501Y-98476556D01*
X160038673Y-98590722D01*
X160129277Y-98681326D01*
X160243443Y-98739498D01*
X160338164Y-98754500D01*
X160338166Y-98754500D01*
X160701834Y-98754500D01*
X160701836Y-98754500D01*
X160796556Y-98739498D01*
X160853638Y-98710412D01*
X160910723Y-98681326D01*
X161001326Y-98590723D01*
X161056950Y-98481556D01*
X161059498Y-98476556D01*
X161074500Y-98381836D01*
X161074500Y-98341542D01*
X161088015Y-98285247D01*
X161125615Y-98241224D01*
X161179102Y-98219069D01*
X161236818Y-98223611D01*
X161286181Y-98253861D01*
X161916138Y-98883819D01*
X161946388Y-98933182D01*
X161950930Y-98990898D01*
X161928775Y-99044385D01*
X161884752Y-99081985D01*
X161828457Y-99095500D01*
X161421748Y-99095500D01*
X161361657Y-99101960D01*
X161361658Y-99101960D01*
X161225733Y-99152658D01*
X161109596Y-99239596D01*
X161022660Y-99355731D01*
X161022656Y-99355736D01*
X160971960Y-99491654D01*
X160965500Y-99551748D01*
X160965500Y-100948251D01*
X160971075Y-101000112D01*
X160971960Y-101008342D01*
X161022658Y-101144267D01*
X161109596Y-101260404D01*
X161225733Y-101347342D01*
X161239141Y-101352343D01*
X161361654Y-101398039D01*
X161361655Y-101398039D01*
X161361658Y-101398040D01*
X161421745Y-101404500D01*
X162218254Y-101404499D01*
X162278342Y-101398040D01*
X162414267Y-101347342D01*
X162530404Y-101260404D01*
X162617342Y-101144267D01*
X162666175Y-101013342D01*
X162668039Y-101008345D01*
X162668039Y-101008344D01*
X162668040Y-101008342D01*
X162674500Y-100948255D01*
X162674499Y-99941540D01*
X162688014Y-99885246D01*
X162725614Y-99841223D01*
X162779101Y-99819068D01*
X162836817Y-99823610D01*
X162886179Y-99853859D01*
X163336819Y-100304500D01*
X163762122Y-100729803D01*
X163769430Y-100737778D01*
X163794151Y-100767239D01*
X163827456Y-100786469D01*
X163836575Y-100792279D01*
X163868848Y-100814876D01*
X163894227Y-100825389D01*
X163933033Y-100832231D01*
X163943595Y-100834572D01*
X163958920Y-100838678D01*
X163998596Y-100849311D01*
X164046207Y-100874097D01*
X164078883Y-100916681D01*
X164090500Y-100969085D01*
X164090500Y-101240340D01*
X164095473Y-101290898D01*
X164104888Y-101338293D01*
X164119622Y-101386927D01*
X164119810Y-101387383D01*
X164128168Y-101403039D01*
X164143769Y-101432261D01*
X164170625Y-101472499D01*
X164242179Y-101544128D01*
X164282386Y-101571025D01*
X164327260Y-101595039D01*
X164327735Y-101595236D01*
X164376447Y-101610033D01*
X164423963Y-101619499D01*
X164474664Y-101624500D01*
X166275500Y-101624500D01*
X166337500Y-101641113D01*
X166382887Y-101686500D01*
X166399500Y-101748500D01*
X166399500Y-102675500D01*
X166382887Y-102737500D01*
X166337500Y-102782887D01*
X166275500Y-102799500D01*
X143824500Y-102799500D01*
X143762500Y-102782887D01*
X143717113Y-102737500D01*
X143700500Y-102675500D01*
X143700500Y-101628500D01*
X143717113Y-101566500D01*
X143762500Y-101521113D01*
X143824500Y-101504500D01*
X145615336Y-101504500D01*
X145666135Y-101499480D01*
X145678034Y-101497104D01*
X145713736Y-101489978D01*
X145762278Y-101475231D01*
X145762751Y-101475035D01*
X145807726Y-101450972D01*
X145847801Y-101424156D01*
X145919154Y-101352804D01*
X145945971Y-101312729D01*
X145970215Y-101267318D01*
X145970410Y-101266845D01*
X145984978Y-101218736D01*
X145994480Y-101171134D01*
X145997136Y-101144263D01*
X145999500Y-101120336D01*
X145999500Y-100953251D01*
X147475500Y-100953251D01*
X147477724Y-100973935D01*
X147481960Y-101013342D01*
X147532658Y-101149267D01*
X147619596Y-101265404D01*
X147735733Y-101352342D01*
X147735736Y-101352343D01*
X147871654Y-101403039D01*
X147871655Y-101403039D01*
X147871658Y-101403040D01*
X147931745Y-101409500D01*
X148728254Y-101409499D01*
X148788342Y-101403040D01*
X148924267Y-101352342D01*
X149040404Y-101265404D01*
X149127342Y-101149267D01*
X149178040Y-101013342D01*
X149184500Y-100953255D01*
X149184499Y-99556746D01*
X149178040Y-99496658D01*
X149127342Y-99360733D01*
X149040404Y-99244596D01*
X148924267Y-99157658D01*
X148924264Y-99157657D01*
X148924263Y-99157656D01*
X148788345Y-99106960D01*
X148762590Y-99104191D01*
X148728255Y-99100500D01*
X148728251Y-99100500D01*
X147931748Y-99100500D01*
X147871658Y-99106959D01*
X147871658Y-99106960D01*
X147735733Y-99157658D01*
X147619596Y-99244596D01*
X147536403Y-99355731D01*
X147532656Y-99360736D01*
X147481960Y-99496654D01*
X147481960Y-99496658D01*
X147475960Y-99552472D01*
X147475500Y-99556748D01*
X147475500Y-100953251D01*
X145999500Y-100953251D01*
X145999500Y-99664664D01*
X145995569Y-99624814D01*
X145994499Y-99613963D01*
X145985033Y-99566447D01*
X145970236Y-99517735D01*
X145970039Y-99517260D01*
X145967769Y-99513019D01*
X145946026Y-99472388D01*
X145919128Y-99432179D01*
X145847495Y-99360622D01*
X145807263Y-99333770D01*
X145762895Y-99310023D01*
X145762436Y-99309832D01*
X145713295Y-99294888D01*
X145665897Y-99285473D01*
X145615336Y-99280500D01*
X143824664Y-99280500D01*
X143824500Y-99280500D01*
X143762500Y-99263887D01*
X143717113Y-99218500D01*
X143700500Y-99156500D01*
X143700500Y-99083500D01*
X143717113Y-99021500D01*
X143762500Y-98976113D01*
X143824500Y-98959500D01*
X145615336Y-98959500D01*
X145666135Y-98954480D01*
X145678034Y-98952104D01*
X145713736Y-98944978D01*
X145762278Y-98930231D01*
X145762751Y-98930035D01*
X145807726Y-98905972D01*
X145847801Y-98879156D01*
X145919154Y-98807804D01*
X145945971Y-98767729D01*
X145970215Y-98722318D01*
X145970410Y-98721845D01*
X145984978Y-98673736D01*
X145994480Y-98626134D01*
X145999500Y-98575336D01*
X145999500Y-98304700D01*
X146016113Y-98242700D01*
X146061500Y-98197313D01*
X146123500Y-98180700D01*
X146730145Y-98180700D01*
X146740951Y-98181171D01*
X146779267Y-98184524D01*
X146816421Y-98174567D01*
X146826964Y-98172230D01*
X146864851Y-98165551D01*
X146864852Y-98165549D01*
X146865777Y-98165387D01*
X146891147Y-98154877D01*
X146891912Y-98154340D01*
X146891916Y-98154340D01*
X146923426Y-98132275D01*
X146932544Y-98126467D01*
X146965849Y-98107239D01*
X146990585Y-98077758D01*
X146997872Y-98069806D01*
X147718421Y-97349258D01*
X147770105Y-97318280D01*
X147830292Y-97315324D01*
X147884766Y-97341089D01*
X147920660Y-97389488D01*
X147925773Y-97401830D01*
X147933115Y-97419557D01*
X148018789Y-97531210D01*
X148100105Y-97593605D01*
X148130444Y-97616885D01*
X148260468Y-97670742D01*
X148400000Y-97689112D01*
X148539532Y-97670742D01*
X148669556Y-97616885D01*
X148781210Y-97531210D01*
X148797592Y-97509861D01*
X148853124Y-97437490D01*
X148901064Y-97399696D01*
X148961229Y-97389358D01*
X149019035Y-97408981D01*
X149060473Y-97453808D01*
X149075500Y-97512976D01*
X149075500Y-98386836D01*
X149090501Y-98481556D01*
X149148673Y-98595722D01*
X149239277Y-98686326D01*
X149353443Y-98744498D01*
X149448164Y-98759500D01*
X149762720Y-98759500D01*
X149810173Y-98768939D01*
X149850401Y-98795819D01*
X150924378Y-99869796D01*
X150931686Y-99877771D01*
X150956413Y-99907239D01*
X150989717Y-99926467D01*
X150998832Y-99932273D01*
X151030346Y-99954340D01*
X151030347Y-99954340D01*
X151031117Y-99954879D01*
X151056489Y-99965388D01*
X151057409Y-99965550D01*
X151057411Y-99965551D01*
X151070066Y-99967782D01*
X151095295Y-99972231D01*
X151105857Y-99974572D01*
X151142995Y-99984524D01*
X151181310Y-99981171D01*
X151192117Y-99980700D01*
X151792910Y-99980700D01*
X151850536Y-99994904D01*
X151894959Y-100034259D01*
X151931502Y-100087201D01*
X151980727Y-100130811D01*
X152050472Y-100192600D01*
X152191205Y-100266462D01*
X152191207Y-100266463D01*
X152345529Y-100304500D01*
X152504470Y-100304500D01*
X152504471Y-100304500D01*
X152658793Y-100266463D01*
X152799529Y-100192599D01*
X152869274Y-100130809D01*
X152918923Y-100103981D01*
X152975323Y-100101935D01*
X153026788Y-100125097D01*
X153062657Y-100168669D01*
X153075500Y-100223625D01*
X153075500Y-100953251D01*
X153077724Y-100973935D01*
X153081960Y-101013342D01*
X153132658Y-101149267D01*
X153219596Y-101265404D01*
X153335733Y-101352342D01*
X153335736Y-101352343D01*
X153471654Y-101403039D01*
X153471655Y-101403039D01*
X153471658Y-101403040D01*
X153531745Y-101409500D01*
X154328254Y-101409499D01*
X154388342Y-101403040D01*
X154524267Y-101352342D01*
X154640404Y-101265404D01*
X154727342Y-101149267D01*
X154778040Y-101013342D01*
X154784500Y-100953255D01*
X154784499Y-99556746D01*
X154778040Y-99496658D01*
X154727342Y-99360733D01*
X154689520Y-99310208D01*
X154665282Y-99246951D01*
X154677905Y-99180395D01*
X154723622Y-99130404D01*
X154788789Y-99111900D01*
X155357468Y-99111900D01*
X155422635Y-99130404D01*
X155468352Y-99180395D01*
X155480975Y-99246951D01*
X155456736Y-99310209D01*
X155422657Y-99355733D01*
X155371960Y-99491654D01*
X155365500Y-99551748D01*
X155365500Y-100948251D01*
X155371075Y-101000112D01*
X155371960Y-101008342D01*
X155422658Y-101144267D01*
X155509596Y-101260404D01*
X155625733Y-101347342D01*
X155639141Y-101352343D01*
X155761654Y-101398039D01*
X155761655Y-101398039D01*
X155761658Y-101398040D01*
X155821745Y-101404500D01*
X156618254Y-101404499D01*
X156678342Y-101398040D01*
X156814267Y-101347342D01*
X156930404Y-101260404D01*
X157017342Y-101144267D01*
X157066175Y-101013342D01*
X157068039Y-101008345D01*
X157068039Y-101008344D01*
X157068040Y-101008342D01*
X157074500Y-100948255D01*
X157074499Y-99551746D01*
X157068040Y-99491658D01*
X157017342Y-99355733D01*
X156990069Y-99319300D01*
X156983264Y-99310209D01*
X156959025Y-99246951D01*
X156971648Y-99180395D01*
X157017365Y-99130404D01*
X157082532Y-99111900D01*
X157821683Y-99111900D01*
X157832489Y-99112371D01*
X157870805Y-99115724D01*
X157882966Y-99112465D01*
X157952346Y-99113977D01*
X158010050Y-99152532D01*
X158038001Y-99216053D01*
X158054258Y-99339532D01*
X158108114Y-99469555D01*
X158193789Y-99581210D01*
X158267628Y-99637868D01*
X158305444Y-99666885D01*
X158435468Y-99720742D01*
X158575000Y-99739112D01*
X158714532Y-99720742D01*
X158844556Y-99666885D01*
X158956210Y-99581210D01*
X159041885Y-99469556D01*
X159095742Y-99339532D01*
X159114112Y-99200000D01*
X159095742Y-99060468D01*
X159041885Y-98930444D01*
X159008750Y-98887261D01*
X158946272Y-98805838D01*
X158948978Y-98803761D01*
X158923834Y-98769475D01*
X158919292Y-98700222D01*
X158952669Y-98639379D01*
X159001326Y-98590723D01*
X159056950Y-98481556D01*
X159059498Y-98476556D01*
X159074500Y-98381836D01*
X159074500Y-97068164D01*
X159059498Y-96973443D01*
X159001326Y-96859277D01*
X158910722Y-96768673D01*
X158796556Y-96710501D01*
X158701836Y-96695500D01*
X158701834Y-96695500D01*
X158338166Y-96695500D01*
X158338164Y-96695500D01*
X158243443Y-96710501D01*
X158129277Y-96768673D01*
X158107681Y-96790270D01*
X158052094Y-96822364D01*
X157987906Y-96822364D01*
X157932319Y-96790270D01*
X157910722Y-96768673D01*
X157796556Y-96710501D01*
X157701836Y-96695500D01*
X157701834Y-96695500D01*
X157338166Y-96695500D01*
X157338164Y-96695500D01*
X157243443Y-96710501D01*
X157129277Y-96768673D01*
X157038673Y-96859277D01*
X156980501Y-96973443D01*
X156965500Y-97068164D01*
X156965500Y-97226267D01*
X156949506Y-97287183D01*
X156905650Y-97332384D01*
X156845245Y-97350210D01*
X156783874Y-97336063D01*
X156683795Y-97283537D01*
X156580911Y-97258179D01*
X156529471Y-97245500D01*
X156370529Y-97245500D01*
X156319088Y-97258179D01*
X156216205Y-97283537D01*
X156075472Y-97357399D01*
X155956501Y-97462800D01*
X155866212Y-97593605D01*
X155809851Y-97742217D01*
X155790692Y-97899999D01*
X155809851Y-98057782D01*
X155866212Y-98206395D01*
X155900494Y-98256060D01*
X155922218Y-98319013D01*
X155908240Y-98384126D01*
X155862594Y-98432617D01*
X155798444Y-98450500D01*
X153308500Y-98450500D01*
X153246500Y-98433887D01*
X153201113Y-98388500D01*
X153184500Y-98326500D01*
X153184500Y-97073164D01*
X153169498Y-96978443D01*
X153111326Y-96864277D01*
X153006836Y-96759787D01*
X153007946Y-96758676D01*
X152978973Y-96731894D01*
X152960700Y-96667104D01*
X152960700Y-96310153D01*
X152975727Y-96250985D01*
X153017165Y-96206158D01*
X153074971Y-96186535D01*
X153135135Y-96196873D01*
X153183076Y-96234667D01*
X153218789Y-96281210D01*
X153316708Y-96356345D01*
X153330444Y-96366885D01*
X153460468Y-96420742D01*
X153600000Y-96439112D01*
X153739532Y-96420742D01*
X153869556Y-96366885D01*
X153981210Y-96281210D01*
X154066885Y-96169556D01*
X154120742Y-96039532D01*
X154139112Y-95900000D01*
X154120742Y-95760468D01*
X154066885Y-95630444D01*
X153981210Y-95518790D01*
X153969593Y-95509876D01*
X153930520Y-95458953D01*
X153922142Y-95395315D01*
X153946704Y-95336016D01*
X154016885Y-95244556D01*
X154070742Y-95114532D01*
X154082621Y-95024299D01*
X154100980Y-94973861D01*
X154138935Y-94935905D01*
X154189373Y-94917548D01*
X154245232Y-94910194D01*
X154375256Y-94856337D01*
X154486910Y-94770662D01*
X154572585Y-94659008D01*
X154626442Y-94528984D01*
X154644812Y-94389452D01*
X154626442Y-94249920D01*
X154572585Y-94119896D01*
X154552860Y-94094190D01*
X154486910Y-94008241D01*
X154375255Y-93922566D01*
X154245232Y-93868710D01*
X154105700Y-93850339D01*
X153966167Y-93868710D01*
X153836144Y-93922566D01*
X153724489Y-94008241D01*
X153718701Y-94015786D01*
X153675169Y-94051512D01*
X153620325Y-94064300D01*
X153378500Y-94064300D01*
X153316500Y-94047687D01*
X153271113Y-94002300D01*
X153254500Y-93940300D01*
X153254500Y-93533410D01*
X153236753Y-93444189D01*
X153236753Y-93395806D01*
X153238544Y-93386801D01*
X153238545Y-93386800D01*
X153254500Y-93306588D01*
X153254500Y-92883412D01*
X153253977Y-92880785D01*
X153236753Y-92794190D01*
X153236753Y-92745807D01*
X153242578Y-92716526D01*
X153254500Y-92656588D01*
X153254500Y-92233412D01*
X153238545Y-92153200D01*
X153238544Y-92153199D01*
X153236753Y-92144192D01*
X153236753Y-92095808D01*
X153254500Y-92006589D01*
X153254500Y-91583410D01*
X153236753Y-91494189D01*
X153236753Y-91445806D01*
X153238544Y-91436801D01*
X153238545Y-91436800D01*
X153250333Y-91377539D01*
X153254500Y-91356589D01*
X153254500Y-90933410D01*
X153236753Y-90844190D01*
X153236753Y-90795807D01*
X153254500Y-90706589D01*
X153254500Y-90283410D01*
X153236753Y-90194190D01*
X153236753Y-90145807D01*
X153254500Y-90056589D01*
X153254500Y-89633410D01*
X153238545Y-89553200D01*
X153177764Y-89462235D01*
X153086799Y-89401454D01*
X153006590Y-89385500D01*
X153006588Y-89385500D01*
X151555945Y-89385500D01*
X151508492Y-89376061D01*
X151468264Y-89349181D01*
X150305818Y-88186735D01*
X150278938Y-88146507D01*
X150269499Y-88099054D01*
X150269499Y-87650253D01*
X150266621Y-87619550D01*
X150266218Y-87618399D01*
X150221369Y-87490227D01*
X150219555Y-87487769D01*
X150140010Y-87379989D01*
X150029773Y-87298631D01*
X149900448Y-87253378D01*
X149869752Y-87250500D01*
X149360253Y-87250500D01*
X149329550Y-87253378D01*
X149200225Y-87298631D01*
X149169534Y-87321283D01*
X149106322Y-87345074D01*
X149040019Y-87332208D01*
X148990294Y-87286500D01*
X148971900Y-87221513D01*
X148971900Y-86907790D01*
X148972372Y-86896982D01*
X148975724Y-86858668D01*
X148965770Y-86821520D01*
X148963429Y-86810958D01*
X148958461Y-86782782D01*
X148956751Y-86773084D01*
X148956750Y-86773082D01*
X148956588Y-86772162D01*
X148946079Y-86746787D01*
X148923477Y-86714510D01*
X148917671Y-86705398D01*
X148898439Y-86672086D01*
X148884779Y-86660624D01*
X148868971Y-86647359D01*
X148860996Y-86640051D01*
X148476147Y-86255202D01*
X148468838Y-86247226D01*
X148466499Y-86244439D01*
X148444114Y-86217761D01*
X148444113Y-86217760D01*
X148410810Y-86198532D01*
X148401688Y-86192721D01*
X148369416Y-86170124D01*
X148344035Y-86159610D01*
X148338940Y-86158712D01*
X148288245Y-86137389D01*
X148251758Y-86096239D01*
X148236656Y-86043356D01*
X148245911Y-85989144D01*
X148251662Y-85975257D01*
X148251664Y-85975256D01*
X148305521Y-85845232D01*
X148323891Y-85705700D01*
X148305521Y-85566168D01*
X148251664Y-85436144D01*
X148251663Y-85436143D01*
X148165989Y-85324489D01*
X148163993Y-85322958D01*
X148128267Y-85279426D01*
X148115479Y-85224582D01*
X148115479Y-81529634D01*
X148115951Y-81518826D01*
X148119303Y-81480512D01*
X148109352Y-81443377D01*
X148107010Y-81432812D01*
X148100167Y-81394006D01*
X148089658Y-81368634D01*
X148089119Y-81367864D01*
X148089119Y-81367863D01*
X148067052Y-81336349D01*
X148061243Y-81327229D01*
X148047543Y-81303500D01*
X148042018Y-81293930D01*
X148012550Y-81269203D01*
X148004575Y-81261895D01*
X146592882Y-79850202D01*
X146585573Y-79842226D01*
X146560848Y-79812760D01*
X146527545Y-79793532D01*
X146518423Y-79787721D01*
X146486151Y-79765124D01*
X146460770Y-79754610D01*
X146421975Y-79747770D01*
X146411414Y-79745429D01*
X146374267Y-79735475D01*
X146338554Y-79738600D01*
X146335951Y-79738828D01*
X146325145Y-79739300D01*
X146123500Y-79739300D01*
X146061500Y-79722687D01*
X146016113Y-79677300D01*
X145999500Y-79615300D01*
X145999500Y-79344664D01*
X145995569Y-79304814D01*
X145994499Y-79293963D01*
X145985033Y-79246447D01*
X145970236Y-79197735D01*
X145970039Y-79197260D01*
X145967769Y-79193019D01*
X145946026Y-79152388D01*
X145919128Y-79112179D01*
X145847495Y-79040622D01*
X145807263Y-79013770D01*
X145762895Y-78990023D01*
X145762436Y-78989832D01*
X145713295Y-78974888D01*
X145665897Y-78965473D01*
X145665896Y-78965472D01*
X145615336Y-78960500D01*
X143824664Y-78960500D01*
X143824500Y-78960500D01*
X143762500Y-78943887D01*
X143717113Y-78898500D01*
X143700500Y-78836500D01*
X143700500Y-78763500D01*
X143717113Y-78701500D01*
X143762500Y-78656113D01*
X143824500Y-78639500D01*
X145615336Y-78639500D01*
X145666135Y-78634480D01*
X145678034Y-78632104D01*
X145713736Y-78624978D01*
X145762278Y-78610231D01*
X145762751Y-78610035D01*
X145807726Y-78585972D01*
X145847801Y-78559156D01*
X145919154Y-78487804D01*
X145945971Y-78447729D01*
X145970215Y-78402318D01*
X145970410Y-78401845D01*
X145984978Y-78353736D01*
X145994480Y-78306134D01*
X145999500Y-78255336D01*
X145999500Y-76804664D01*
X145994499Y-76753963D01*
X145985033Y-76706447D01*
X145970236Y-76657735D01*
X145970039Y-76657260D01*
X145967769Y-76653019D01*
X145946026Y-76612388D01*
X145919128Y-76572179D01*
X145847495Y-76500622D01*
X145807263Y-76473770D01*
X145762895Y-76450023D01*
X145762436Y-76449832D01*
X145713295Y-76434888D01*
X145665897Y-76425473D01*
X145615336Y-76420500D01*
X143824664Y-76420500D01*
X143824500Y-76420500D01*
X143762500Y-76403887D01*
X143717113Y-76358500D01*
X143700500Y-76296500D01*
X143700500Y-76223500D01*
X143717113Y-76161500D01*
X143762500Y-76116113D01*
X143824500Y-76099500D01*
X145502930Y-76099500D01*
X145545962Y-76095907D01*
X145586520Y-76089087D01*
X145667858Y-76060935D01*
X145667862Y-76060933D01*
X145703952Y-76041226D01*
X145736848Y-76019525D01*
X145753093Y-76011027D01*
X145753061Y-76010965D01*
X145758516Y-76008125D01*
X145758522Y-76008123D01*
X145804106Y-75984395D01*
X145845003Y-75957652D01*
X145885013Y-75925411D01*
X145917886Y-75885918D01*
X145945276Y-75845450D01*
X145969723Y-75800254D01*
X145984785Y-75751127D01*
X145994413Y-75703220D01*
X145999500Y-75652090D01*
X145999500Y-75444700D01*
X146016113Y-75382700D01*
X146061500Y-75337313D01*
X146123500Y-75320700D01*
X146901658Y-75320700D01*
X146949111Y-75330139D01*
X146989338Y-75357018D01*
X147832053Y-76199734D01*
X148662122Y-77029803D01*
X148669430Y-77037778D01*
X148694151Y-77067239D01*
X148727456Y-77086469D01*
X148736575Y-77092279D01*
X148768848Y-77114876D01*
X148794227Y-77125389D01*
X148833033Y-77132231D01*
X148843595Y-77134572D01*
X148880733Y-77144524D01*
X148919048Y-77141171D01*
X148929855Y-77140700D01*
X149061500Y-77140700D01*
X149123500Y-77157313D01*
X149168887Y-77202700D01*
X149185500Y-77264700D01*
X149185500Y-77466836D01*
X149200501Y-77561556D01*
X149258673Y-77675722D01*
X149349277Y-77766326D01*
X149463443Y-77824498D01*
X149558164Y-77839500D01*
X149558166Y-77839500D01*
X149921834Y-77839500D01*
X149921836Y-77839500D01*
X150016556Y-77824498D01*
X150073638Y-77795412D01*
X150130723Y-77766326D01*
X150221326Y-77675723D01*
X150255700Y-77608261D01*
X150279498Y-77561556D01*
X150294500Y-77466836D01*
X150294500Y-76153164D01*
X150279498Y-76058443D01*
X150221326Y-75944277D01*
X150130722Y-75853673D01*
X150016556Y-75795501D01*
X149921836Y-75780500D01*
X149921834Y-75780500D01*
X149558166Y-75780500D01*
X149558164Y-75780500D01*
X149463443Y-75795501D01*
X149349277Y-75853673D01*
X149258673Y-75944277D01*
X149200501Y-76058443D01*
X149185500Y-76153164D01*
X149185500Y-76318457D01*
X149171985Y-76374752D01*
X149134385Y-76418775D01*
X149080898Y-76440930D01*
X149023182Y-76436388D01*
X148973819Y-76406138D01*
X148608905Y-76041224D01*
X148218859Y-75651179D01*
X148188610Y-75601817D01*
X148184068Y-75544101D01*
X148206223Y-75490614D01*
X148250246Y-75453014D01*
X148306538Y-75439499D01*
X148838254Y-75439499D01*
X148898342Y-75433040D01*
X149034267Y-75382342D01*
X149150404Y-75295404D01*
X149237342Y-75179267D01*
X149288040Y-75043342D01*
X149294500Y-74983255D01*
X149294499Y-73586746D01*
X149288040Y-73526658D01*
X149237342Y-73390733D01*
X149150404Y-73274596D01*
X149034267Y-73187658D01*
X149034264Y-73187657D01*
X149034263Y-73187656D01*
X148898345Y-73136960D01*
X148872590Y-73134191D01*
X148838255Y-73130500D01*
X148838251Y-73130500D01*
X148041748Y-73130500D01*
X147981657Y-73136960D01*
X147981658Y-73136960D01*
X147845733Y-73187658D01*
X147729596Y-73274596D01*
X147674522Y-73348168D01*
X147642656Y-73390736D01*
X147591960Y-73526654D01*
X147585500Y-73586749D01*
X147585500Y-74718458D01*
X147571985Y-74774753D01*
X147534385Y-74818776D01*
X147480898Y-74840931D01*
X147423182Y-74836389D01*
X147373819Y-74806139D01*
X147337881Y-74770201D01*
X147330572Y-74762225D01*
X147305848Y-74732760D01*
X147272545Y-74713532D01*
X147263423Y-74707721D01*
X147231151Y-74685124D01*
X147205770Y-74674610D01*
X147166975Y-74667770D01*
X147156414Y-74665429D01*
X147119267Y-74655475D01*
X147083554Y-74658600D01*
X147080951Y-74658828D01*
X147070145Y-74659300D01*
X146123500Y-74659300D01*
X146061500Y-74642687D01*
X146016113Y-74597300D01*
X145999500Y-74535300D01*
X145999500Y-74264664D01*
X145996809Y-74237383D01*
X145994499Y-74213963D01*
X145985033Y-74166447D01*
X145970236Y-74117735D01*
X145970039Y-74117260D01*
X145967769Y-74113019D01*
X145946026Y-74072388D01*
X145924827Y-74040699D01*
X145919128Y-74032179D01*
X145847497Y-73960624D01*
X145847495Y-73960622D01*
X145807263Y-73933770D01*
X145762895Y-73910023D01*
X145762436Y-73909832D01*
X145713295Y-73894888D01*
X145665897Y-73885473D01*
X145665896Y-73885472D01*
X145615336Y-73880500D01*
X143824664Y-73880500D01*
X143824500Y-73880500D01*
X143762500Y-73863887D01*
X143717113Y-73818500D01*
X143700500Y-73756500D01*
X143700500Y-69974500D01*
X143717113Y-69912500D01*
X143762500Y-69867113D01*
X143824500Y-69850500D01*
X144154207Y-69850500D01*
X150006637Y-69856946D01*
G37*
%TD.AperFunction*%
%TA.AperFunction,Conductor*%
G36*
X151148980Y-95953951D02*
G01*
X151198048Y-95996667D01*
X151223886Y-96035336D01*
X151252236Y-96077764D01*
X151343200Y-96138545D01*
X151423410Y-96154500D01*
X151423412Y-96154500D01*
X152155457Y-96154500D01*
X152202910Y-96163939D01*
X152243138Y-96190819D01*
X152262981Y-96210662D01*
X152289861Y-96250890D01*
X152299300Y-96298343D01*
X152299300Y-96667104D01*
X152281027Y-96731894D01*
X152252053Y-96758676D01*
X152253164Y-96759787D01*
X152148673Y-96864277D01*
X152090501Y-96978443D01*
X152075500Y-97073164D01*
X152075500Y-98326500D01*
X152058887Y-98388500D01*
X152013500Y-98433887D01*
X151951500Y-98450500D01*
X151308500Y-98450500D01*
X151246500Y-98433887D01*
X151201113Y-98388500D01*
X151184500Y-98326500D01*
X151184500Y-97073164D01*
X151169498Y-96978443D01*
X151111326Y-96864277D01*
X151020722Y-96773673D01*
X150906556Y-96715501D01*
X150811836Y-96700500D01*
X150811834Y-96700500D01*
X150448166Y-96700500D01*
X150448164Y-96700500D01*
X150353443Y-96715501D01*
X150239277Y-96773673D01*
X150217681Y-96795270D01*
X150162094Y-96827364D01*
X150097906Y-96827364D01*
X150042319Y-96795270D01*
X150020722Y-96773673D01*
X149906556Y-96715501D01*
X149811836Y-96700500D01*
X149811834Y-96700500D01*
X149448166Y-96700500D01*
X149448164Y-96700500D01*
X149392698Y-96709285D01*
X149339641Y-96706156D01*
X149292768Y-96681102D01*
X149260690Y-96638726D01*
X149249300Y-96586812D01*
X149249300Y-96288500D01*
X149265913Y-96226500D01*
X149311300Y-96181113D01*
X149373300Y-96164500D01*
X150115058Y-96164499D01*
X150115066Y-96164499D01*
X150189301Y-96149734D01*
X150273484Y-96093484D01*
X150305339Y-96045809D01*
X150349989Y-96005342D01*
X150408442Y-95990700D01*
X150861548Y-95990700D01*
X150872354Y-95991171D01*
X150910670Y-95994524D01*
X150947824Y-95984567D01*
X150958367Y-95982230D01*
X150996254Y-95975551D01*
X150996255Y-95975549D01*
X150997180Y-95975387D01*
X151022547Y-95964878D01*
X151023314Y-95964341D01*
X151023319Y-95964340D01*
X151023823Y-95963986D01*
X151085035Y-95941957D01*
X151148980Y-95953951D01*
G37*
%TD.AperFunction*%
%TA.AperFunction,Conductor*%
G36*
X145978717Y-91250466D02*
G01*
X146026648Y-91296078D01*
X146044300Y-91359844D01*
X146044300Y-91366731D01*
X146043828Y-91377539D01*
X146040475Y-91415853D01*
X146050429Y-91453000D01*
X146052770Y-91463561D01*
X146059610Y-91502356D01*
X146070124Y-91527737D01*
X146092721Y-91560009D01*
X146098532Y-91569131D01*
X146106828Y-91583500D01*
X146117761Y-91602435D01*
X146141430Y-91622296D01*
X146147226Y-91627159D01*
X146155202Y-91634468D01*
X147106730Y-92585996D01*
X147114038Y-92593971D01*
X147138765Y-92623439D01*
X147172077Y-92642671D01*
X147181189Y-92648477D01*
X147213466Y-92671079D01*
X147238837Y-92681587D01*
X147239761Y-92681749D01*
X147239763Y-92681751D01*
X147277660Y-92688432D01*
X147288189Y-92690766D01*
X147325347Y-92700723D01*
X147325348Y-92700722D01*
X147325349Y-92700723D01*
X147352908Y-92698311D01*
X147363651Y-92697371D01*
X147374458Y-92696900D01*
X148961135Y-92696900D01*
X149024885Y-92714542D01*
X149070494Y-92762449D01*
X149084985Y-92826987D01*
X149064235Y-92889792D01*
X149064097Y-92890000D01*
X149051502Y-92908849D01*
X149020634Y-92940745D01*
X149009390Y-92946063D01*
X148964166Y-92977728D01*
X148955049Y-92983535D01*
X148921750Y-93002760D01*
X148897023Y-93032228D01*
X148889718Y-93040199D01*
X148346399Y-93583519D01*
X148338427Y-93590825D01*
X148308959Y-93615552D01*
X148289728Y-93648859D01*
X148283921Y-93657974D01*
X148261326Y-93690245D01*
X148250810Y-93715632D01*
X148243970Y-93754426D01*
X148241629Y-93764986D01*
X148231675Y-93802132D01*
X148235028Y-93840447D01*
X148235500Y-93851255D01*
X148235500Y-95845457D01*
X148226061Y-95892910D01*
X148199181Y-95933138D01*
X146649339Y-97482981D01*
X146609111Y-97509861D01*
X146561658Y-97519300D01*
X146123500Y-97519300D01*
X146061500Y-97502687D01*
X146016113Y-97457300D01*
X145999500Y-97395300D01*
X145999500Y-97124664D01*
X145996233Y-97091542D01*
X145994499Y-97073963D01*
X145985033Y-97026447D01*
X145970236Y-96977735D01*
X145970039Y-96977260D01*
X145967769Y-96973019D01*
X145946026Y-96932388D01*
X145919128Y-96892179D01*
X145847495Y-96820622D01*
X145807263Y-96793770D01*
X145762895Y-96770023D01*
X145762436Y-96769832D01*
X145713295Y-96754888D01*
X145665897Y-96745473D01*
X145665896Y-96745472D01*
X145615336Y-96740500D01*
X143824664Y-96740500D01*
X143824500Y-96740500D01*
X143762500Y-96723887D01*
X143717113Y-96678500D01*
X143700500Y-96616500D01*
X143700500Y-96543500D01*
X143717113Y-96481500D01*
X143762500Y-96436113D01*
X143824500Y-96419500D01*
X145615336Y-96419500D01*
X145666135Y-96414480D01*
X145678034Y-96412104D01*
X145713736Y-96404978D01*
X145762278Y-96390231D01*
X145762751Y-96390035D01*
X145807726Y-96365972D01*
X145847801Y-96339156D01*
X145919154Y-96267804D01*
X145945971Y-96227729D01*
X145970215Y-96182318D01*
X145970410Y-96181845D01*
X145984978Y-96133736D01*
X145985029Y-96133484D01*
X145994480Y-96086135D01*
X145999500Y-96035336D01*
X145999500Y-94584664D01*
X145995569Y-94544814D01*
X145994499Y-94533963D01*
X145985033Y-94486447D01*
X145970236Y-94437735D01*
X145970039Y-94437260D01*
X145967769Y-94433019D01*
X145946026Y-94392388D01*
X145919128Y-94352179D01*
X145847495Y-94280622D01*
X145807263Y-94253770D01*
X145762895Y-94230023D01*
X145762436Y-94229832D01*
X145713295Y-94214888D01*
X145665897Y-94205473D01*
X145665896Y-94205472D01*
X145615336Y-94200500D01*
X143824664Y-94200500D01*
X143824500Y-94200500D01*
X143762500Y-94183887D01*
X143717113Y-94138500D01*
X143700500Y-94076500D01*
X143700500Y-94003500D01*
X143717113Y-93941500D01*
X143762500Y-93896113D01*
X143824500Y-93879500D01*
X145615336Y-93879500D01*
X145666135Y-93874480D01*
X145678034Y-93872104D01*
X145713736Y-93864978D01*
X145762278Y-93850231D01*
X145762751Y-93850035D01*
X145807726Y-93825972D01*
X145847801Y-93799156D01*
X145919154Y-93727804D01*
X145945971Y-93687729D01*
X145970215Y-93642318D01*
X145970410Y-93641845D01*
X145984978Y-93593736D01*
X145994480Y-93546134D01*
X145999500Y-93495336D01*
X145999500Y-92314360D01*
X145998944Y-92297386D01*
X145998008Y-92283106D01*
X145998008Y-92266893D01*
X145998944Y-92252614D01*
X145999500Y-92235640D01*
X145999500Y-92044664D01*
X145994499Y-91993963D01*
X145985033Y-91946447D01*
X145970236Y-91897735D01*
X145970039Y-91897260D01*
X145967769Y-91893019D01*
X145946026Y-91852388D01*
X145919128Y-91812179D01*
X145847495Y-91740622D01*
X145807263Y-91713770D01*
X145762895Y-91690023D01*
X145762436Y-91689832D01*
X145713295Y-91674888D01*
X145665897Y-91665473D01*
X145665896Y-91665472D01*
X145615336Y-91660500D01*
X143824664Y-91660500D01*
X143824500Y-91660500D01*
X143762500Y-91643887D01*
X143717113Y-91598500D01*
X143700500Y-91536500D01*
X143700500Y-91463500D01*
X143717113Y-91401500D01*
X143762500Y-91356113D01*
X143824500Y-91339500D01*
X145615336Y-91339500D01*
X145666135Y-91334480D01*
X145678034Y-91332104D01*
X145713736Y-91324978D01*
X145762278Y-91310231D01*
X145762751Y-91310035D01*
X145807726Y-91285972D01*
X145847801Y-91259156D01*
X145847802Y-91259154D01*
X145851341Y-91256787D01*
X145914154Y-91235996D01*
X145978717Y-91250466D01*
G37*
%TD.AperFunction*%
%TA.AperFunction,Conductor*%
G36*
X164028500Y-90697313D02*
G01*
X164073887Y-90742700D01*
X164090500Y-90804700D01*
X164090500Y-91075340D01*
X164095473Y-91125898D01*
X164104888Y-91173293D01*
X164119622Y-91221927D01*
X164119810Y-91222383D01*
X164134803Y-91250466D01*
X164143769Y-91267261D01*
X164170625Y-91307499D01*
X164242179Y-91379128D01*
X164282386Y-91406025D01*
X164327260Y-91430039D01*
X164327735Y-91430236D01*
X164376447Y-91445033D01*
X164423963Y-91454499D01*
X164474664Y-91459500D01*
X166275500Y-91459500D01*
X166337500Y-91476113D01*
X166382887Y-91521500D01*
X166399500Y-91583500D01*
X166399500Y-91656500D01*
X166382887Y-91718500D01*
X166337500Y-91763887D01*
X166275500Y-91780500D01*
X166275336Y-91780500D01*
X164474664Y-91780500D01*
X164470153Y-91780942D01*
X164424200Y-91785453D01*
X164376886Y-91794833D01*
X164327872Y-91809705D01*
X164327383Y-91809908D01*
X164282837Y-91833722D01*
X164242474Y-91860657D01*
X164203018Y-91893018D01*
X164170657Y-91932474D01*
X164143722Y-91972837D01*
X164119908Y-92017383D01*
X164119705Y-92017872D01*
X164104833Y-92066886D01*
X164095453Y-92114200D01*
X164090500Y-92164665D01*
X164090500Y-93615340D01*
X164095473Y-93665898D01*
X164104888Y-93713293D01*
X164119622Y-93761927D01*
X164119810Y-93762383D01*
X164143769Y-93807261D01*
X164170625Y-93847499D01*
X164242179Y-93919128D01*
X164282386Y-93946025D01*
X164282388Y-93946026D01*
X164324619Y-93968626D01*
X164327260Y-93970039D01*
X164327735Y-93970236D01*
X164376447Y-93985033D01*
X164423963Y-93994499D01*
X164474664Y-93999500D01*
X166275500Y-93999500D01*
X166337500Y-94016113D01*
X166382887Y-94061500D01*
X166399500Y-94123500D01*
X166399500Y-94196500D01*
X166382887Y-94258500D01*
X166337500Y-94303887D01*
X166275500Y-94320500D01*
X166275336Y-94320500D01*
X164474664Y-94320500D01*
X164470153Y-94320942D01*
X164424200Y-94325453D01*
X164376886Y-94334833D01*
X164327872Y-94349705D01*
X164327383Y-94349908D01*
X164282837Y-94373722D01*
X164242474Y-94400657D01*
X164203018Y-94433018D01*
X164170657Y-94472474D01*
X164143722Y-94512837D01*
X164119908Y-94557383D01*
X164119705Y-94557872D01*
X164104833Y-94606886D01*
X164095453Y-94654200D01*
X164090500Y-94704665D01*
X164090500Y-95771500D01*
X164073887Y-95833500D01*
X164028500Y-95878887D01*
X163966500Y-95895500D01*
X161933300Y-95895500D01*
X161871300Y-95878887D01*
X161825913Y-95833500D01*
X161809300Y-95771500D01*
X161809300Y-93996055D01*
X161809772Y-93985247D01*
X161813124Y-93946933D01*
X161806595Y-93922567D01*
X161803172Y-93909795D01*
X161800831Y-93899233D01*
X161793988Y-93860427D01*
X161783479Y-93835055D01*
X161782940Y-93834285D01*
X161782940Y-93834284D01*
X161760873Y-93802770D01*
X161755064Y-93793650D01*
X161737012Y-93762383D01*
X161735839Y-93760351D01*
X161706371Y-93735624D01*
X161698396Y-93728316D01*
X161140818Y-93170738D01*
X161113938Y-93130510D01*
X161104499Y-93083057D01*
X161104499Y-93024935D01*
X161104219Y-93023528D01*
X161089734Y-92950699D01*
X161063007Y-92910699D01*
X161033484Y-92866515D01*
X160956518Y-92815088D01*
X160913026Y-92764390D01*
X160902146Y-92698486D01*
X160927033Y-92636501D01*
X160997585Y-92544556D01*
X161051442Y-92414532D01*
X161069812Y-92275000D01*
X161069483Y-92272503D01*
X161075002Y-92216461D01*
X161104739Y-92168639D01*
X162556360Y-90717019D01*
X162596589Y-90690139D01*
X162644042Y-90680700D01*
X163966500Y-90680700D01*
X164028500Y-90697313D01*
G37*
%TD.AperFunction*%
%TA.AperFunction,Conductor*%
G36*
X146868018Y-88518259D02*
G01*
X146917381Y-88548509D01*
X147319868Y-88950996D01*
X147327176Y-88958971D01*
X147351903Y-88988439D01*
X147385207Y-89007667D01*
X147394322Y-89013473D01*
X147425836Y-89035540D01*
X147425837Y-89035540D01*
X147426607Y-89036079D01*
X147451979Y-89046588D01*
X147452899Y-89046750D01*
X147452901Y-89046751D01*
X147465556Y-89048982D01*
X147490785Y-89053431D01*
X147501347Y-89055772D01*
X147538485Y-89065724D01*
X147576800Y-89062371D01*
X147587607Y-89061900D01*
X148061658Y-89061900D01*
X148109111Y-89071339D01*
X148149339Y-89098219D01*
X148656781Y-89605661D01*
X148683661Y-89645889D01*
X148693100Y-89693342D01*
X148693100Y-89946345D01*
X148692628Y-89957156D01*
X148691065Y-89975015D01*
X148667535Y-90037528D01*
X148614990Y-90078765D01*
X148482236Y-90133753D01*
X148370582Y-90219427D01*
X148284907Y-90331082D01*
X148231051Y-90461105D01*
X148212680Y-90600637D01*
X148231051Y-90740170D01*
X148284907Y-90870193D01*
X148370582Y-90981848D01*
X148459948Y-91050420D01*
X148482237Y-91067523D01*
X148612261Y-91121380D01*
X148751793Y-91139750D01*
X148754282Y-91139422D01*
X148810328Y-91144940D01*
X148858153Y-91174678D01*
X148905397Y-91221923D01*
X148943282Y-91259808D01*
X148950589Y-91267783D01*
X148975306Y-91297239D01*
X149008611Y-91316469D01*
X149017726Y-91322276D01*
X149023985Y-91326658D01*
X149064864Y-91375011D01*
X149076541Y-91437243D01*
X149063137Y-91476263D01*
X149045500Y-91564931D01*
X149045500Y-91911500D01*
X149028887Y-91973500D01*
X148983500Y-92018887D01*
X148921500Y-92035500D01*
X147542956Y-92035500D01*
X147495503Y-92026061D01*
X147455275Y-91999181D01*
X146742019Y-91285925D01*
X146715139Y-91245697D01*
X146705700Y-91198244D01*
X146705700Y-88636190D01*
X146719215Y-88579895D01*
X146756815Y-88535872D01*
X146810302Y-88513717D01*
X146868018Y-88518259D01*
G37*
%TD.AperFunction*%
%TA.AperFunction,Conductor*%
G36*
X147438045Y-86633942D02*
G01*
X147489737Y-86664924D01*
X147519609Y-86694796D01*
X147526917Y-86702771D01*
X147551593Y-86732179D01*
X147551644Y-86732239D01*
X147584956Y-86751471D01*
X147594068Y-86757277D01*
X147626345Y-86779879D01*
X147651716Y-86790387D01*
X147652640Y-86790549D01*
X147652642Y-86790551D01*
X147690539Y-86797232D01*
X147701068Y-86799566D01*
X147738226Y-86809523D01*
X147738227Y-86809522D01*
X147738228Y-86809523D01*
X147776095Y-86806210D01*
X147776530Y-86806171D01*
X147787337Y-86805700D01*
X148039923Y-86805700D01*
X148087376Y-86815139D01*
X148127604Y-86842019D01*
X148274181Y-86988596D01*
X148301061Y-87028824D01*
X148310500Y-87076277D01*
X148310500Y-88276500D01*
X148293887Y-88338500D01*
X148248500Y-88383887D01*
X148186500Y-88400500D01*
X147756094Y-88400500D01*
X147708641Y-88391061D01*
X147668413Y-88364181D01*
X147192019Y-87887787D01*
X147165139Y-87847559D01*
X147155700Y-87800106D01*
X147155700Y-86906118D01*
X147168488Y-86851274D01*
X147204214Y-86807742D01*
X147206210Y-86806210D01*
X147301823Y-86681605D01*
X147303822Y-86683139D01*
X147323375Y-86656765D01*
X147377851Y-86630990D01*
X147438045Y-86633942D01*
G37*
%TD.AperFunction*%
%TA.AperFunction,Conductor*%
G36*
X164251731Y-69872633D02*
G01*
X165098658Y-69873566D01*
X166275467Y-69874862D01*
X166323298Y-69884517D01*
X166323472Y-69884590D01*
X166363446Y-69911519D01*
X166390133Y-69951656D01*
X166399500Y-69998935D01*
X166399500Y-73876500D01*
X166382887Y-73938500D01*
X166337500Y-73983887D01*
X166275500Y-74000500D01*
X166275336Y-74000500D01*
X164474664Y-74000500D01*
X164470153Y-74000942D01*
X164424200Y-74005453D01*
X164376886Y-74014833D01*
X164327872Y-74029705D01*
X164327383Y-74029908D01*
X164282837Y-74053722D01*
X164242474Y-74080657D01*
X164203018Y-74113018D01*
X164170657Y-74152474D01*
X164143722Y-74192837D01*
X164119908Y-74237383D01*
X164119705Y-74237872D01*
X164104833Y-74286886D01*
X164095453Y-74334200D01*
X164090500Y-74384665D01*
X164090500Y-75835340D01*
X164095473Y-75885898D01*
X164104888Y-75933293D01*
X164119622Y-75981927D01*
X164119810Y-75982383D01*
X164119815Y-75982392D01*
X164143769Y-76027261D01*
X164170625Y-76067499D01*
X164242179Y-76139128D01*
X164282386Y-76166025D01*
X164327260Y-76190039D01*
X164327735Y-76190236D01*
X164376447Y-76205033D01*
X164423963Y-76214499D01*
X164474664Y-76219500D01*
X166162930Y-76219500D01*
X166162931Y-76219500D01*
X166211117Y-76215477D01*
X166211129Y-76215631D01*
X166224692Y-76214499D01*
X166275500Y-76214499D01*
X166337500Y-76231112D01*
X166382887Y-76276499D01*
X166399500Y-76338499D01*
X166399500Y-76416500D01*
X166382887Y-76478500D01*
X166337500Y-76523887D01*
X166275500Y-76540500D01*
X166275336Y-76540500D01*
X164474664Y-76540500D01*
X164471364Y-76540824D01*
X164424200Y-76545453D01*
X164376886Y-76554833D01*
X164327872Y-76569705D01*
X164327383Y-76569908D01*
X164282837Y-76593722D01*
X164242474Y-76620657D01*
X164203018Y-76653018D01*
X164170657Y-76692474D01*
X164143722Y-76732837D01*
X164119908Y-76777383D01*
X164119705Y-76777872D01*
X164104833Y-76826886D01*
X164095453Y-76874200D01*
X164090500Y-76924665D01*
X164090500Y-78375340D01*
X164095473Y-78425898D01*
X164104888Y-78473293D01*
X164119622Y-78521927D01*
X164119810Y-78522383D01*
X164119815Y-78522392D01*
X164143769Y-78567261D01*
X164170625Y-78607499D01*
X164242179Y-78679128D01*
X164282386Y-78706025D01*
X164327260Y-78730039D01*
X164327735Y-78730236D01*
X164376447Y-78745033D01*
X164423963Y-78754499D01*
X164474664Y-78759500D01*
X166275500Y-78759500D01*
X166337500Y-78776113D01*
X166382887Y-78821500D01*
X166399500Y-78883500D01*
X166399500Y-78956500D01*
X166382887Y-79018500D01*
X166337500Y-79063887D01*
X166275500Y-79080500D01*
X166275336Y-79080500D01*
X164474664Y-79080500D01*
X164470153Y-79080942D01*
X164424200Y-79085453D01*
X164376886Y-79094833D01*
X164327872Y-79109705D01*
X164327383Y-79109908D01*
X164282837Y-79133722D01*
X164242474Y-79160657D01*
X164203018Y-79193018D01*
X164170657Y-79232474D01*
X164143722Y-79272837D01*
X164119908Y-79317383D01*
X164119705Y-79317872D01*
X164104833Y-79366886D01*
X164095453Y-79414200D01*
X164090500Y-79464665D01*
X164090500Y-79735300D01*
X164073887Y-79797300D01*
X164028500Y-79842687D01*
X163966500Y-79859300D01*
X163629855Y-79859300D01*
X163619048Y-79858828D01*
X163616214Y-79858580D01*
X163580732Y-79855475D01*
X163543586Y-79865429D01*
X163533026Y-79867770D01*
X163494232Y-79874610D01*
X163468845Y-79885126D01*
X163436574Y-79907721D01*
X163427459Y-79913528D01*
X163394151Y-79932760D01*
X163369418Y-79962234D01*
X163362113Y-79970205D01*
X162580205Y-80752113D01*
X162572234Y-80759418D01*
X162542760Y-80784151D01*
X162523528Y-80817459D01*
X162517721Y-80826574D01*
X162495126Y-80858845D01*
X162484610Y-80884232D01*
X162477770Y-80923026D01*
X162475429Y-80933586D01*
X162465475Y-80970732D01*
X162468828Y-81009047D01*
X162469300Y-81019855D01*
X162469300Y-85586658D01*
X162459861Y-85634111D01*
X162432981Y-85674339D01*
X161124339Y-86982981D01*
X161084111Y-87009861D01*
X161036658Y-87019300D01*
X158155094Y-87019300D01*
X158097468Y-87005096D01*
X158053044Y-86965740D01*
X158031998Y-86910246D01*
X158039152Y-86851329D01*
X158065149Y-86782782D01*
X158084307Y-86625000D01*
X158065149Y-86467218D01*
X158008787Y-86318605D01*
X157985914Y-86285468D01*
X157957594Y-86244439D01*
X157935870Y-86181486D01*
X157949847Y-86116373D01*
X157995494Y-86067882D01*
X158059642Y-86049999D01*
X158305066Y-86049999D01*
X158355811Y-86039906D01*
X158404189Y-86039907D01*
X158433855Y-86045807D01*
X158454933Y-86050000D01*
X158955066Y-86049999D01*
X159005811Y-86039906D01*
X159054189Y-86039907D01*
X159083855Y-86045807D01*
X159104933Y-86050000D01*
X159605066Y-86049999D01*
X159679301Y-86035234D01*
X159763484Y-85978984D01*
X159819734Y-85894801D01*
X159833094Y-85827635D01*
X159834500Y-85820569D01*
X159834500Y-85804700D01*
X159851113Y-85742700D01*
X159896500Y-85697313D01*
X159958500Y-85680700D01*
X160218882Y-85680700D01*
X160273726Y-85693488D01*
X160317258Y-85729214D01*
X160318789Y-85731210D01*
X160394522Y-85789321D01*
X160430444Y-85816885D01*
X160560468Y-85870742D01*
X160700000Y-85889112D01*
X160839532Y-85870742D01*
X160969556Y-85816885D01*
X161081210Y-85731210D01*
X161166885Y-85619556D01*
X161220742Y-85489532D01*
X161239112Y-85350000D01*
X161220742Y-85210468D01*
X161166885Y-85080444D01*
X161119968Y-85019300D01*
X161081210Y-84968789D01*
X161079214Y-84967258D01*
X161043488Y-84923726D01*
X161030700Y-84868882D01*
X161030700Y-82769484D01*
X161043488Y-82714640D01*
X161079214Y-82671108D01*
X161131210Y-82631210D01*
X161147485Y-82610000D01*
X161216885Y-82519556D01*
X161270742Y-82389532D01*
X161289112Y-82250000D01*
X161270742Y-82110468D01*
X161216885Y-81980444D01*
X161160446Y-81906891D01*
X161131210Y-81868789D01*
X161019555Y-81783114D01*
X160889532Y-81729258D01*
X160750000Y-81710887D01*
X160610467Y-81729258D01*
X160480444Y-81783114D01*
X160368789Y-81868789D01*
X160283114Y-81980444D01*
X160229258Y-82110467D01*
X160210887Y-82249999D01*
X160229258Y-82389532D01*
X160283114Y-82519555D01*
X160343676Y-82598481D01*
X160362719Y-82634108D01*
X160369300Y-82673967D01*
X160369300Y-84868882D01*
X160356512Y-84923726D01*
X160320786Y-84967258D01*
X160318789Y-84968789D01*
X160317258Y-84970786D01*
X160273726Y-85006512D01*
X160218882Y-85019300D01*
X159958499Y-85019300D01*
X159896499Y-85002687D01*
X159851112Y-84957300D01*
X159834499Y-84895300D01*
X159834499Y-84295435D01*
X159834498Y-84295430D01*
X159819734Y-84221199D01*
X159763484Y-84137016D01*
X159714959Y-84104592D01*
X159676462Y-84063489D01*
X159671325Y-84054591D01*
X159659879Y-84026954D01*
X159659340Y-84026184D01*
X159637273Y-83994670D01*
X159631464Y-83985550D01*
X159627394Y-83978500D01*
X159612239Y-83952251D01*
X159600022Y-83942000D01*
X159582771Y-83927524D01*
X159574796Y-83920216D01*
X156040260Y-80385680D01*
X156010010Y-80336317D01*
X156005468Y-80278601D01*
X156027623Y-80225114D01*
X156071646Y-80187514D01*
X156127939Y-80173999D01*
X156355066Y-80173999D01*
X156405811Y-80163906D01*
X156454189Y-80163907D01*
X156483855Y-80169807D01*
X156504933Y-80174000D01*
X157005066Y-80173999D01*
X157055811Y-80163906D01*
X157104189Y-80163907D01*
X157133855Y-80169807D01*
X157154933Y-80174000D01*
X157655066Y-80173999D01*
X157705811Y-80163906D01*
X157754189Y-80163907D01*
X157783855Y-80169807D01*
X157804933Y-80174000D01*
X158305066Y-80173999D01*
X158355811Y-80163906D01*
X158404189Y-80163907D01*
X158433855Y-80169807D01*
X158454933Y-80174000D01*
X158955066Y-80173999D01*
X159005811Y-80163906D01*
X159054189Y-80163907D01*
X159083855Y-80169807D01*
X159104933Y-80174000D01*
X159605066Y-80173999D01*
X159679301Y-80159234D01*
X159763484Y-80102984D01*
X159819734Y-80018801D01*
X159834500Y-79944567D01*
X159834499Y-78419434D01*
X159819734Y-78345199D01*
X159774355Y-78277285D01*
X159763484Y-78261015D01*
X159679300Y-78204765D01*
X159605069Y-78190000D01*
X159104933Y-78190000D01*
X159054189Y-78200093D01*
X159005812Y-78200093D01*
X158955067Y-78190000D01*
X158454933Y-78190000D01*
X158404189Y-78200093D01*
X158355812Y-78200093D01*
X158305067Y-78190000D01*
X157804933Y-78190000D01*
X157754189Y-78200093D01*
X157705812Y-78200093D01*
X157655067Y-78190000D01*
X157154933Y-78190000D01*
X157104189Y-78200093D01*
X157055812Y-78200093D01*
X157005067Y-78190000D01*
X156504933Y-78190000D01*
X156454189Y-78200093D01*
X156405812Y-78200093D01*
X156355067Y-78190000D01*
X155854933Y-78190000D01*
X155804189Y-78200093D01*
X155755812Y-78200093D01*
X155705067Y-78190000D01*
X155204933Y-78190000D01*
X155154189Y-78200093D01*
X155105812Y-78200093D01*
X155055067Y-78190000D01*
X155049141Y-78190000D01*
X154992846Y-78176485D01*
X154948823Y-78138885D01*
X154926668Y-78085398D01*
X154931210Y-78027682D01*
X154961460Y-77978319D01*
X155271270Y-77668510D01*
X155752760Y-77187019D01*
X155792989Y-77160139D01*
X155840442Y-77150700D01*
X156971500Y-77150700D01*
X157033500Y-77167313D01*
X157078887Y-77212700D01*
X157095500Y-77274700D01*
X157095500Y-77476836D01*
X157110501Y-77571556D01*
X157168673Y-77685722D01*
X157259277Y-77776326D01*
X157373443Y-77834498D01*
X157468164Y-77849500D01*
X157468166Y-77849500D01*
X157831834Y-77849500D01*
X157831836Y-77849500D01*
X157926556Y-77834498D01*
X158001485Y-77796319D01*
X158040723Y-77776326D01*
X158131326Y-77685723D01*
X158179877Y-77590437D01*
X158189498Y-77571556D01*
X158204500Y-77476836D01*
X158204500Y-76163169D01*
X158204499Y-76163164D01*
X158198312Y-76124096D01*
X158201442Y-76071041D01*
X158226496Y-76024168D01*
X158268872Y-75992090D01*
X158320786Y-75980700D01*
X158979214Y-75980700D01*
X159031128Y-75992090D01*
X159073504Y-76024168D01*
X159098558Y-76071041D01*
X159101687Y-76124096D01*
X159095501Y-76163164D01*
X159095500Y-76163169D01*
X159095500Y-77476836D01*
X159110501Y-77571556D01*
X159168673Y-77685722D01*
X159259277Y-77776326D01*
X159373443Y-77834498D01*
X159468164Y-77849500D01*
X159468166Y-77849500D01*
X159831834Y-77849500D01*
X159831836Y-77849500D01*
X159926556Y-77834498D01*
X160001485Y-77796319D01*
X160040723Y-77776326D01*
X160062319Y-77754729D01*
X160117906Y-77722636D01*
X160182094Y-77722636D01*
X160237681Y-77754730D01*
X160259277Y-77776326D01*
X160373443Y-77834498D01*
X160468164Y-77849500D01*
X160468166Y-77849500D01*
X160831834Y-77849500D01*
X160831836Y-77849500D01*
X160926556Y-77834498D01*
X161001485Y-77796319D01*
X161040723Y-77776326D01*
X161131326Y-77685723D01*
X161179877Y-77590437D01*
X161189498Y-77571556D01*
X161204500Y-77476836D01*
X161204500Y-76163164D01*
X161189498Y-76068443D01*
X161131326Y-75954277D01*
X161040722Y-75863673D01*
X160926556Y-75805501D01*
X160831836Y-75790500D01*
X160831834Y-75790500D01*
X160607911Y-75790500D01*
X160560458Y-75781061D01*
X160520230Y-75754181D01*
X159759299Y-74993251D01*
X161095500Y-74993251D01*
X161098589Y-75021984D01*
X161101960Y-75053342D01*
X161152658Y-75189267D01*
X161239596Y-75305404D01*
X161355733Y-75392342D01*
X161382202Y-75402214D01*
X161491654Y-75443039D01*
X161491655Y-75443039D01*
X161491658Y-75443040D01*
X161551745Y-75449500D01*
X162348254Y-75449499D01*
X162408342Y-75443040D01*
X162544267Y-75392342D01*
X162660404Y-75305404D01*
X162747342Y-75189267D01*
X162798040Y-75053342D01*
X162804500Y-74993255D01*
X162804499Y-73596746D01*
X162798040Y-73536658D01*
X162747342Y-73400733D01*
X162660404Y-73284596D01*
X162544267Y-73197658D01*
X162544264Y-73197657D01*
X162544263Y-73197656D01*
X162408345Y-73146960D01*
X162382590Y-73144191D01*
X162348255Y-73140500D01*
X162348251Y-73140500D01*
X161551748Y-73140500D01*
X161491658Y-73146960D01*
X161355733Y-73197658D01*
X161239596Y-73284596D01*
X161152656Y-73400736D01*
X161101960Y-73536654D01*
X161095500Y-73596748D01*
X161095500Y-74993251D01*
X159759299Y-74993251D01*
X159520549Y-74754501D01*
X159513240Y-74746525D01*
X159488516Y-74717060D01*
X159455213Y-74697832D01*
X159446091Y-74692021D01*
X159413819Y-74669424D01*
X159388438Y-74658910D01*
X159349643Y-74652070D01*
X159339082Y-74649729D01*
X159301935Y-74639775D01*
X159266222Y-74642900D01*
X159263619Y-74643128D01*
X159252813Y-74643600D01*
X158257090Y-74643600D01*
X158199464Y-74629396D01*
X158155040Y-74590040D01*
X158118498Y-74537099D01*
X157997472Y-74429879D01*
X157966624Y-74387955D01*
X157955700Y-74337064D01*
X157955700Y-73288342D01*
X157965139Y-73240889D01*
X157992019Y-73200661D01*
X158234596Y-72958084D01*
X159084806Y-72107873D01*
X159092756Y-72100586D01*
X159122239Y-72075849D01*
X159141469Y-72042539D01*
X159147275Y-72033426D01*
X159169340Y-72001916D01*
X159169340Y-72001912D01*
X159169877Y-72001147D01*
X159180387Y-71975777D01*
X159180549Y-71974852D01*
X159180551Y-71974851D01*
X159187230Y-71936964D01*
X159189567Y-71926421D01*
X159199524Y-71889267D01*
X159196171Y-71850951D01*
X159195700Y-71840145D01*
X159195700Y-71658500D01*
X159212313Y-71596500D01*
X159257700Y-71551113D01*
X159319700Y-71534500D01*
X159596001Y-71534500D01*
X159618388Y-71531552D01*
X159663164Y-71525658D01*
X159725164Y-71509045D01*
X159787750Y-71483120D01*
X159841494Y-71441881D01*
X159886881Y-71396494D01*
X159928120Y-71342750D01*
X159954045Y-71280164D01*
X159970658Y-71218164D01*
X159979500Y-71151000D01*
X159979500Y-69992065D01*
X159996136Y-69930026D01*
X160041579Y-69884632D01*
X160103637Y-69868065D01*
X164251731Y-69872633D01*
G37*
%TD.AperFunction*%
%TD*%
%TA.AperFunction,Conductor*%
%TO.N,F4_ENB*%
G36*
X166322828Y-84429455D02*
G01*
X166322995Y-84429524D01*
X166363202Y-84456408D01*
X166390067Y-84496629D01*
X166399500Y-84544068D01*
X166399500Y-85995932D01*
X166390067Y-86043371D01*
X166363202Y-86083592D01*
X166322995Y-86110475D01*
X166322828Y-86110544D01*
X166275336Y-86120000D01*
X164474664Y-86120000D01*
X164427148Y-86110534D01*
X164426673Y-86110337D01*
X164386466Y-86083440D01*
X164359610Y-86043202D01*
X164359416Y-86042733D01*
X164350000Y-85995336D01*
X164350000Y-84544664D01*
X164359379Y-84497355D01*
X164359577Y-84496878D01*
X164386513Y-84456513D01*
X164426878Y-84429577D01*
X164427355Y-84429379D01*
X164474664Y-84420000D01*
X166275336Y-84420000D01*
X166322828Y-84429455D01*
G37*
%TD.AperFunction*%
%TD*%
%TA.AperFunction,Conductor*%
%TO.N,SDA1*%
G36*
X157103371Y-69859933D02*
G01*
X157143592Y-69886798D01*
X157170476Y-69927006D01*
X157170544Y-69927170D01*
X157180000Y-69974664D01*
X157180000Y-71151000D01*
X157163387Y-71213000D01*
X157118000Y-71258387D01*
X157056000Y-71275000D01*
X155594664Y-71275000D01*
X155547148Y-71265534D01*
X155546673Y-71265337D01*
X155506466Y-71238440D01*
X155479610Y-71198202D01*
X155479416Y-71197733D01*
X155470000Y-71150336D01*
X155470000Y-69974664D01*
X155479456Y-69927170D01*
X155479524Y-69927006D01*
X155506408Y-69886798D01*
X155546629Y-69859933D01*
X155594068Y-69850500D01*
X157055932Y-69850500D01*
X157103371Y-69859933D01*
G37*
%TD.AperFunction*%
%TD*%
%TA.AperFunction,Conductor*%
%TO.N,Camera*%
G36*
X166322828Y-92049455D02*
G01*
X166322995Y-92049524D01*
X166363202Y-92076408D01*
X166390067Y-92116629D01*
X166399500Y-92164068D01*
X166399500Y-93615932D01*
X166390067Y-93663371D01*
X166363202Y-93703592D01*
X166322995Y-93730475D01*
X166322828Y-93730544D01*
X166275336Y-93740000D01*
X164474664Y-93740000D01*
X164427148Y-93730534D01*
X164426673Y-93730337D01*
X164386466Y-93703440D01*
X164359610Y-93663202D01*
X164359416Y-93662733D01*
X164350000Y-93615336D01*
X164350000Y-92164664D01*
X164359379Y-92117355D01*
X164359577Y-92116878D01*
X164386513Y-92076513D01*
X164426878Y-92049577D01*
X164427355Y-92049379D01*
X164474664Y-92040000D01*
X166275336Y-92040000D01*
X166322828Y-92049455D01*
G37*
%TD.AperFunction*%
%TD*%
%TA.AperFunction,Conductor*%
%TO.N,F4_SDA*%
G36*
X166322828Y-89509455D02*
G01*
X166322995Y-89509524D01*
X166363202Y-89536408D01*
X166390067Y-89576629D01*
X166399500Y-89624068D01*
X166399500Y-91075932D01*
X166390067Y-91123371D01*
X166363202Y-91163592D01*
X166322995Y-91190475D01*
X166322828Y-91190544D01*
X166275336Y-91200000D01*
X164474664Y-91200000D01*
X164427148Y-91190534D01*
X164426673Y-91190337D01*
X164386466Y-91163440D01*
X164359610Y-91123202D01*
X164359416Y-91122733D01*
X164350000Y-91075336D01*
X164350000Y-89624664D01*
X164359379Y-89577355D01*
X164359577Y-89576878D01*
X164386513Y-89536513D01*
X164426878Y-89509577D01*
X164427355Y-89509379D01*
X164474664Y-89500000D01*
X166275336Y-89500000D01*
X166322828Y-89509455D01*
G37*
%TD.AperFunction*%
%TD*%
%TA.AperFunction,Conductor*%
%TO.N,+3V3*%
G36*
X154626598Y-69862033D02*
G01*
X154645000Y-69862053D01*
X154645000Y-71270000D01*
X154640000Y-71275000D01*
X152935000Y-71275000D01*
X152935000Y-69860170D01*
X152959138Y-69860197D01*
X152960124Y-69860000D01*
X154616384Y-69860000D01*
X154626598Y-69862033D01*
G37*
%TD.AperFunction*%
%TD*%
%TA.AperFunction,Conductor*%
%TO.N,GND*%
G36*
X152022732Y-69869415D02*
G01*
X152023203Y-69869611D01*
X152063440Y-69896466D01*
X152090337Y-69936673D01*
X152090534Y-69937148D01*
X152100000Y-69984664D01*
X152100000Y-71151000D01*
X152083387Y-71213000D01*
X152038000Y-71258387D01*
X151976000Y-71275000D01*
X150514664Y-71275000D01*
X150467148Y-71265534D01*
X150466673Y-71265337D01*
X150426466Y-71238440D01*
X150399610Y-71198202D01*
X150399416Y-71197733D01*
X150390000Y-71150336D01*
X150390000Y-69984664D01*
X150399379Y-69937355D01*
X150399577Y-69936878D01*
X150426513Y-69896513D01*
X150466878Y-69869577D01*
X150467355Y-69869379D01*
X150514664Y-69860000D01*
X151975336Y-69860000D01*
X152022732Y-69869415D01*
G37*
%TD.AperFunction*%
%TD*%
%TA.AperFunction,Conductor*%
%TO.N,F3_ENB*%
G36*
X166322828Y-76809455D02*
G01*
X166322995Y-76809524D01*
X166363202Y-76836408D01*
X166390067Y-76876629D01*
X166399500Y-76924068D01*
X166399500Y-78375932D01*
X166390067Y-78423371D01*
X166363202Y-78463592D01*
X166322995Y-78490475D01*
X166322828Y-78490544D01*
X166275336Y-78500000D01*
X164474664Y-78500000D01*
X164427148Y-78490534D01*
X164426673Y-78490337D01*
X164386466Y-78463440D01*
X164359610Y-78423202D01*
X164359416Y-78422733D01*
X164350000Y-78375336D01*
X164350000Y-76924664D01*
X164359379Y-76877355D01*
X164359577Y-76876878D01*
X164386513Y-76836513D01*
X164426878Y-76809577D01*
X164427355Y-76809379D01*
X164474664Y-76800000D01*
X166275336Y-76800000D01*
X166322828Y-76809455D01*
G37*
%TD.AperFunction*%
%TD*%
%TA.AperFunction,Conductor*%
%TO.N,F3_SDA*%
G36*
X166322828Y-81889455D02*
G01*
X166322995Y-81889524D01*
X166363202Y-81916408D01*
X166390067Y-81956629D01*
X166399500Y-82004068D01*
X166399500Y-83455932D01*
X166390067Y-83503371D01*
X166363202Y-83543592D01*
X166322995Y-83570475D01*
X166322828Y-83570544D01*
X166275336Y-83580000D01*
X164474664Y-83580000D01*
X164427148Y-83570534D01*
X164426673Y-83570337D01*
X164386466Y-83543440D01*
X164359610Y-83503202D01*
X164359416Y-83502733D01*
X164350000Y-83455336D01*
X164350000Y-82004664D01*
X164359379Y-81957355D01*
X164359577Y-81956878D01*
X164386513Y-81916513D01*
X164426878Y-81889577D01*
X164427355Y-81889379D01*
X164474664Y-81880000D01*
X166275336Y-81880000D01*
X166322828Y-81889455D01*
G37*
%TD.AperFunction*%
%TD*%
%TA.AperFunction,Conductor*%
%TO.N,GND*%
G36*
X166322828Y-74269455D02*
G01*
X166322995Y-74269524D01*
X166363202Y-74296408D01*
X166390067Y-74336629D01*
X166399500Y-74384068D01*
X166399500Y-75772290D01*
X166389872Y-75820197D01*
X166362483Y-75860664D01*
X166321586Y-75887408D01*
X166296145Y-75897592D01*
X166274995Y-75908496D01*
X166254989Y-75921353D01*
X166239584Y-75933469D01*
X166203488Y-75953180D01*
X166162930Y-75960000D01*
X164474664Y-75960000D01*
X164427148Y-75950534D01*
X164426673Y-75950337D01*
X164386466Y-75923440D01*
X164359610Y-75883202D01*
X164359416Y-75882733D01*
X164350000Y-75835336D01*
X164350000Y-74384664D01*
X164359379Y-74337355D01*
X164359577Y-74336878D01*
X164386513Y-74296513D01*
X164426878Y-74269577D01*
X164427355Y-74269379D01*
X164474664Y-74260000D01*
X166275336Y-74260000D01*
X166322828Y-74269455D01*
G37*
%TD.AperFunction*%
%TD*%
%TA.AperFunction,Conductor*%
%TO.N,SCL1*%
G36*
X159643371Y-69859933D02*
G01*
X159683592Y-69886798D01*
X159710476Y-69927006D01*
X159710544Y-69927170D01*
X159720000Y-69974664D01*
X159720000Y-71151000D01*
X159703387Y-71213000D01*
X159658000Y-71258387D01*
X159596000Y-71275000D01*
X158134664Y-71275000D01*
X158087148Y-71265534D01*
X158086673Y-71265337D01*
X158046466Y-71238440D01*
X158019610Y-71198202D01*
X158019416Y-71197733D01*
X158010000Y-71150336D01*
X158010000Y-69974664D01*
X158019456Y-69927170D01*
X158019524Y-69927006D01*
X158046408Y-69886798D01*
X158086629Y-69859933D01*
X158134068Y-69850500D01*
X159595932Y-69850500D01*
X159643371Y-69859933D01*
G37*
%TD.AperFunction*%
%TD*%
%TA.AperFunction,Conductor*%
%TO.N,Break_SCL*%
G36*
X166322828Y-94589455D02*
G01*
X166322995Y-94589524D01*
X166363202Y-94616408D01*
X166390067Y-94656629D01*
X166399500Y-94704068D01*
X166399500Y-96155932D01*
X166390067Y-96203371D01*
X166363202Y-96243592D01*
X166322995Y-96270475D01*
X166322828Y-96270544D01*
X166275336Y-96280000D01*
X164474664Y-96280000D01*
X164427148Y-96270534D01*
X164426673Y-96270337D01*
X164386466Y-96243440D01*
X164359610Y-96203202D01*
X164359416Y-96202733D01*
X164350000Y-96155336D01*
X164350000Y-94704664D01*
X164359379Y-94657355D01*
X164359577Y-94656878D01*
X164386513Y-94616513D01*
X164426878Y-94589577D01*
X164427355Y-94589379D01*
X164474664Y-94580000D01*
X166275336Y-94580000D01*
X166322828Y-94589455D01*
G37*
%TD.AperFunction*%
%TD*%
%TA.AperFunction,Conductor*%
%TO.N,F4_SCL*%
G36*
X166322828Y-86969455D02*
G01*
X166322995Y-86969524D01*
X166363202Y-86996408D01*
X166390067Y-87036629D01*
X166399500Y-87084068D01*
X166399500Y-88535932D01*
X166390067Y-88583371D01*
X166363202Y-88623592D01*
X166322995Y-88650475D01*
X166322828Y-88650544D01*
X166275336Y-88660000D01*
X164474664Y-88660000D01*
X164427148Y-88650534D01*
X164426673Y-88650337D01*
X164386466Y-88623440D01*
X164359610Y-88583202D01*
X164359416Y-88582733D01*
X164350000Y-88535336D01*
X164350000Y-87084664D01*
X164359379Y-87037355D01*
X164359577Y-87036878D01*
X164386513Y-86996513D01*
X164426878Y-86969577D01*
X164427355Y-86969379D01*
X164474664Y-86960000D01*
X166275336Y-86960000D01*
X166322828Y-86969455D01*
G37*
%TD.AperFunction*%
%TD*%
%TA.AperFunction,Conductor*%
%TO.N,F3_SCL*%
G36*
X166322828Y-79349455D02*
G01*
X166322995Y-79349524D01*
X166363202Y-79376408D01*
X166390067Y-79416629D01*
X166399500Y-79464068D01*
X166399500Y-80915932D01*
X166390067Y-80963371D01*
X166363202Y-81003592D01*
X166322995Y-81030475D01*
X166322828Y-81030544D01*
X166275336Y-81040000D01*
X164474664Y-81040000D01*
X164427148Y-81030534D01*
X164426673Y-81030337D01*
X164386466Y-81003440D01*
X164359610Y-80963202D01*
X164359416Y-80962733D01*
X164350000Y-80915336D01*
X164350000Y-79464664D01*
X164359379Y-79417355D01*
X164359577Y-79416878D01*
X164386513Y-79376513D01*
X164426878Y-79349577D01*
X164427355Y-79349379D01*
X164474664Y-79340000D01*
X166275336Y-79340000D01*
X166322828Y-79349455D01*
G37*
%TD.AperFunction*%
%TD*%
%TA.AperFunction,Conductor*%
%TO.N,GND*%
G36*
X166322828Y-99669455D02*
G01*
X166322995Y-99669524D01*
X166363202Y-99696408D01*
X166390067Y-99736629D01*
X166399500Y-99784068D01*
X166399500Y-101240932D01*
X166390067Y-101288371D01*
X166363202Y-101328592D01*
X166322995Y-101355475D01*
X166322828Y-101355544D01*
X166275336Y-101365000D01*
X164474664Y-101365000D01*
X164427148Y-101355534D01*
X164426673Y-101355337D01*
X164386466Y-101328440D01*
X164359610Y-101288202D01*
X164359416Y-101287733D01*
X164350000Y-101240336D01*
X164350000Y-99784664D01*
X164359379Y-99737355D01*
X164359577Y-99736878D01*
X164386513Y-99696513D01*
X164426878Y-99669577D01*
X164427355Y-99669379D01*
X164474664Y-99660000D01*
X166275336Y-99660000D01*
X166322828Y-99669455D01*
G37*
%TD.AperFunction*%
%TD*%
%TA.AperFunction,Conductor*%
%TO.N,Break_SDA*%
G36*
X166322828Y-97129455D02*
G01*
X166322995Y-97129524D01*
X166363202Y-97156408D01*
X166390067Y-97196629D01*
X166399500Y-97244068D01*
X166399500Y-98695932D01*
X166390067Y-98743371D01*
X166363202Y-98783592D01*
X166322995Y-98810475D01*
X166322828Y-98810544D01*
X166275336Y-98820000D01*
X164474664Y-98820000D01*
X164427148Y-98810534D01*
X164426673Y-98810337D01*
X164386466Y-98783440D01*
X164359610Y-98743202D01*
X164359416Y-98742733D01*
X164350000Y-98695336D01*
X164350000Y-97244664D01*
X164359379Y-97197355D01*
X164359577Y-97196878D01*
X164386513Y-97156513D01*
X164426878Y-97129577D01*
X164427355Y-97129379D01*
X164474664Y-97120000D01*
X166275336Y-97120000D01*
X166322828Y-97129455D01*
G37*
%TD.AperFunction*%
%TD*%
%TA.AperFunction,Conductor*%
%TO.N,F2_SDA*%
G36*
X145662732Y-97009415D02*
G01*
X145663203Y-97009611D01*
X145703440Y-97036466D01*
X145730337Y-97076673D01*
X145730534Y-97077148D01*
X145740000Y-97124664D01*
X145740000Y-98575336D01*
X145730498Y-98622938D01*
X145730320Y-98623371D01*
X145730303Y-98623411D01*
X145703486Y-98663486D01*
X145663411Y-98690302D01*
X145662938Y-98690498D01*
X145615336Y-98700000D01*
X143824664Y-98700000D01*
X143777171Y-98690544D01*
X143777004Y-98690475D01*
X143736798Y-98663592D01*
X143709933Y-98623371D01*
X143700500Y-98575932D01*
X143700500Y-97124068D01*
X143709933Y-97076629D01*
X143736798Y-97036408D01*
X143777004Y-97009524D01*
X143777171Y-97009455D01*
X143824664Y-97000000D01*
X145615336Y-97000000D01*
X145662732Y-97009415D01*
G37*
%TD.AperFunction*%
%TD*%
%TA.AperFunction,Conductor*%
%TO.N,F0_SDA*%
G36*
X145662732Y-81769415D02*
G01*
X145663203Y-81769611D01*
X145703440Y-81796466D01*
X145730337Y-81836673D01*
X145730534Y-81837148D01*
X145740000Y-81884664D01*
X145740000Y-83335336D01*
X145730498Y-83382938D01*
X145730320Y-83383371D01*
X145730303Y-83383411D01*
X145703486Y-83423486D01*
X145663411Y-83450302D01*
X145662938Y-83450498D01*
X145615336Y-83460000D01*
X143824664Y-83460000D01*
X143777171Y-83450544D01*
X143777004Y-83450475D01*
X143736798Y-83423592D01*
X143709933Y-83383371D01*
X143700500Y-83335932D01*
X143700500Y-81884068D01*
X143709933Y-81836629D01*
X143736798Y-81796408D01*
X143777004Y-81769524D01*
X143777171Y-81769455D01*
X143824664Y-81760000D01*
X145615336Y-81760000D01*
X145662732Y-81769415D01*
G37*
%TD.AperFunction*%
%TD*%
%TA.AperFunction,Conductor*%
%TO.N,F0_ENB*%
G36*
X145662732Y-76689415D02*
G01*
X145663203Y-76689611D01*
X145703440Y-76716466D01*
X145730337Y-76756673D01*
X145730534Y-76757148D01*
X145740000Y-76804664D01*
X145740000Y-78255336D01*
X145730498Y-78302938D01*
X145730320Y-78303371D01*
X145730303Y-78303411D01*
X145703486Y-78343486D01*
X145663411Y-78370302D01*
X145662938Y-78370498D01*
X145615336Y-78380000D01*
X143824664Y-78380000D01*
X143777171Y-78370544D01*
X143777004Y-78370475D01*
X143736798Y-78343592D01*
X143709933Y-78303371D01*
X143700500Y-78255932D01*
X143700500Y-76804068D01*
X143709933Y-76756629D01*
X143736798Y-76716408D01*
X143777004Y-76689524D01*
X143777171Y-76689455D01*
X143824664Y-76680000D01*
X145615336Y-76680000D01*
X145662732Y-76689415D01*
G37*
%TD.AperFunction*%
%TD*%
%TA.AperFunction,Conductor*%
%TO.N,F1_SDA*%
G36*
X145662732Y-89389415D02*
G01*
X145663203Y-89389611D01*
X145703440Y-89416466D01*
X145730337Y-89456673D01*
X145730534Y-89457148D01*
X145740000Y-89504664D01*
X145740000Y-90955336D01*
X145730498Y-91002938D01*
X145730320Y-91003371D01*
X145730303Y-91003411D01*
X145703486Y-91043486D01*
X145663411Y-91070302D01*
X145662938Y-91070498D01*
X145615336Y-91080000D01*
X143824664Y-91080000D01*
X143777171Y-91070544D01*
X143777004Y-91070475D01*
X143736798Y-91043592D01*
X143709933Y-91003371D01*
X143700500Y-90955932D01*
X143700500Y-89504068D01*
X143709933Y-89456629D01*
X143736798Y-89416408D01*
X143777004Y-89389524D01*
X143777171Y-89389455D01*
X143824664Y-89380000D01*
X145615336Y-89380000D01*
X145662732Y-89389415D01*
G37*
%TD.AperFunction*%
%TD*%
%TA.AperFunction,Conductor*%
%TO.N,GND*%
G36*
X145662732Y-74149415D02*
G01*
X145663203Y-74149611D01*
X145703440Y-74176466D01*
X145730337Y-74216673D01*
X145730534Y-74217148D01*
X145740000Y-74264664D01*
X145740000Y-75652090D01*
X145730372Y-75699997D01*
X145702982Y-75740465D01*
X145662085Y-75767208D01*
X145636149Y-75777590D01*
X145614995Y-75788496D01*
X145594989Y-75801353D01*
X145579584Y-75813469D01*
X145543488Y-75833180D01*
X145502930Y-75840000D01*
X143824664Y-75840000D01*
X143777171Y-75830544D01*
X143777004Y-75830475D01*
X143736798Y-75803592D01*
X143709933Y-75763371D01*
X143700500Y-75715932D01*
X143700500Y-74264068D01*
X143709933Y-74216629D01*
X143736798Y-74176408D01*
X143777004Y-74149524D01*
X143777171Y-74149455D01*
X143824664Y-74140000D01*
X145615336Y-74140000D01*
X145662732Y-74149415D01*
G37*
%TD.AperFunction*%
%TD*%
%TA.AperFunction,Conductor*%
%TO.N,F1_SCL*%
G36*
X145662732Y-86849415D02*
G01*
X145663203Y-86849611D01*
X145703440Y-86876466D01*
X145730337Y-86916673D01*
X145730534Y-86917148D01*
X145740000Y-86964664D01*
X145740000Y-88415336D01*
X145730498Y-88462938D01*
X145730320Y-88463371D01*
X145730303Y-88463411D01*
X145703486Y-88503486D01*
X145663411Y-88530302D01*
X145662938Y-88530498D01*
X145615336Y-88540000D01*
X143824664Y-88540000D01*
X143777171Y-88530544D01*
X143777004Y-88530475D01*
X143736798Y-88503592D01*
X143709933Y-88463371D01*
X143700500Y-88415932D01*
X143700500Y-86964068D01*
X143709933Y-86916629D01*
X143736798Y-86876408D01*
X143777004Y-86849524D01*
X143777171Y-86849455D01*
X143824664Y-86840000D01*
X145615336Y-86840000D01*
X145662732Y-86849415D01*
G37*
%TD.AperFunction*%
%TD*%
%TA.AperFunction,Conductor*%
%TO.N,F2_SCL*%
G36*
X145662732Y-94469415D02*
G01*
X145663203Y-94469611D01*
X145703440Y-94496466D01*
X145730337Y-94536673D01*
X145730534Y-94537148D01*
X145740000Y-94584664D01*
X145740000Y-96035336D01*
X145730498Y-96082938D01*
X145730320Y-96083371D01*
X145730303Y-96083411D01*
X145703486Y-96123486D01*
X145663411Y-96150302D01*
X145662938Y-96150498D01*
X145615336Y-96160000D01*
X143824664Y-96160000D01*
X143777171Y-96150544D01*
X143777004Y-96150475D01*
X143736798Y-96123592D01*
X143709933Y-96083371D01*
X143700500Y-96035932D01*
X143700500Y-94584068D01*
X143709933Y-94536629D01*
X143736798Y-94496408D01*
X143777004Y-94469524D01*
X143777171Y-94469455D01*
X143824664Y-94460000D01*
X145615336Y-94460000D01*
X145662732Y-94469415D01*
G37*
%TD.AperFunction*%
%TD*%
%TA.AperFunction,Conductor*%
%TO.N,GND*%
G36*
X145662732Y-99549415D02*
G01*
X145663203Y-99549611D01*
X145703440Y-99576466D01*
X145730337Y-99616673D01*
X145730534Y-99617148D01*
X145740000Y-99664664D01*
X145740000Y-101120336D01*
X145730498Y-101167938D01*
X145730320Y-101168371D01*
X145730303Y-101168411D01*
X145703486Y-101208486D01*
X145663411Y-101235302D01*
X145662938Y-101235498D01*
X145615336Y-101245000D01*
X143824664Y-101245000D01*
X143777171Y-101235544D01*
X143777004Y-101235475D01*
X143736798Y-101208592D01*
X143709933Y-101168371D01*
X143700500Y-101120932D01*
X143700500Y-99664068D01*
X143709933Y-99616629D01*
X143736798Y-99576408D01*
X143777004Y-99549524D01*
X143777171Y-99549455D01*
X143824664Y-99540000D01*
X145615336Y-99540000D01*
X145662732Y-99549415D01*
G37*
%TD.AperFunction*%
%TD*%
%TA.AperFunction,Conductor*%
%TO.N,F0_SCL*%
G36*
X145662732Y-79229415D02*
G01*
X145663203Y-79229611D01*
X145703440Y-79256466D01*
X145730337Y-79296673D01*
X145730534Y-79297148D01*
X145740000Y-79344664D01*
X145740000Y-80795336D01*
X145730498Y-80842938D01*
X145730320Y-80843371D01*
X145730303Y-80843411D01*
X145703486Y-80883486D01*
X145663411Y-80910302D01*
X145662938Y-80910498D01*
X145615336Y-80920000D01*
X143824664Y-80920000D01*
X143777171Y-80910544D01*
X143777004Y-80910475D01*
X143736798Y-80883592D01*
X143709933Y-80843371D01*
X143700500Y-80795932D01*
X143700500Y-79344068D01*
X143709933Y-79296629D01*
X143736798Y-79256408D01*
X143777004Y-79229524D01*
X143777171Y-79229455D01*
X143824664Y-79220000D01*
X145615336Y-79220000D01*
X145662732Y-79229415D01*
G37*
%TD.AperFunction*%
%TD*%
%TA.AperFunction,Conductor*%
%TO.N,F2_ENB*%
G36*
X145662732Y-91929415D02*
G01*
X145663203Y-91929611D01*
X145703440Y-91956466D01*
X145730337Y-91996673D01*
X145730534Y-91997148D01*
X145740000Y-92044664D01*
X145740000Y-92235640D01*
X145738939Y-92251826D01*
X145735887Y-92275000D01*
X145738939Y-92298174D01*
X145740000Y-92314360D01*
X145740000Y-93495336D01*
X145730498Y-93542938D01*
X145730320Y-93543371D01*
X145730303Y-93543411D01*
X145703486Y-93583486D01*
X145663411Y-93610302D01*
X145662938Y-93610498D01*
X145615336Y-93620000D01*
X143824664Y-93620000D01*
X143777171Y-93610544D01*
X143777004Y-93610475D01*
X143736798Y-93583592D01*
X143709933Y-93543371D01*
X143700500Y-93495932D01*
X143700500Y-92044068D01*
X143709933Y-91996629D01*
X143736798Y-91956408D01*
X143777004Y-91929524D01*
X143777171Y-91929455D01*
X143824664Y-91920000D01*
X145615336Y-91920000D01*
X145662732Y-91929415D01*
G37*
%TD.AperFunction*%
%TD*%
%TA.AperFunction,Conductor*%
%TO.N,F1_ENB*%
G36*
X145662732Y-84309415D02*
G01*
X145663203Y-84309611D01*
X145703440Y-84336466D01*
X145730337Y-84376673D01*
X145730534Y-84377148D01*
X145740000Y-84424664D01*
X145740000Y-85875336D01*
X145730498Y-85922938D01*
X145730320Y-85923371D01*
X145730303Y-85923411D01*
X145703486Y-85963486D01*
X145663411Y-85990302D01*
X145662938Y-85990498D01*
X145615336Y-86000000D01*
X143824664Y-86000000D01*
X143777171Y-85990544D01*
X143777004Y-85990475D01*
X143736798Y-85963592D01*
X143709933Y-85923371D01*
X143700500Y-85875932D01*
X143700500Y-84424068D01*
X143709933Y-84376629D01*
X143736798Y-84336408D01*
X143777004Y-84309524D01*
X143777171Y-84309455D01*
X143824664Y-84300000D01*
X145615336Y-84300000D01*
X145662732Y-84309415D01*
G37*
%TD.AperFunction*%
%TD*%
M02*
