%TF.GenerationSoftware,KiCad,Pcbnew,7.0.1*%
%TF.CreationDate,2024-01-20T21:14:22-07:00*%
%TF.ProjectId,mux_driver_v1,6d75785f-6472-4697-9665-725f76312e6b,rev?*%
%TF.SameCoordinates,Original*%
%TF.FileFunction,Copper,L2,Bot*%
%TF.FilePolarity,Positive*%
%FSLAX46Y46*%
G04 Gerber Fmt 4.6, Leading zero omitted, Abs format (unit mm)*
G04 Created by KiCad (PCBNEW 7.0.1) date 2024-01-20 21:14:22*
%MOMM*%
%LPD*%
G01*
G04 APERTURE LIST*
%TA.AperFunction,ComponentPad*%
%ADD10R,1.700000X1.700000*%
%TD*%
%TA.AperFunction,ComponentPad*%
%ADD11O,1.700000X1.700000*%
%TD*%
%TA.AperFunction,ViaPad*%
%ADD12C,0.800000*%
%TD*%
%TA.AperFunction,ViaPad*%
%ADD13C,0.560000*%
%TD*%
%TA.AperFunction,Conductor*%
%ADD14C,0.152400*%
%TD*%
G04 APERTURE END LIST*
D10*
%TO.P,J6,1,Pin_1*%
%TO.N,GND*%
X166360000Y-75110000D03*
D11*
%TO.P,J6,2,Pin_2*%
%TO.N,F3_ENB*%
X166360000Y-77650000D03*
%TO.P,J6,3,Pin_3*%
%TO.N,F3_SCL*%
X166360000Y-80190000D03*
%TO.P,J6,4,Pin_4*%
%TO.N,F3_SDA*%
X166360000Y-82730000D03*
%TO.P,J6,5,Pin_5*%
%TO.N,F4_ENB*%
X166360000Y-85270000D03*
%TO.P,J6,6,Pin_6*%
%TO.N,F4_SCL*%
X166360000Y-87810000D03*
%TO.P,J6,7,Pin_7*%
%TO.N,F4_SDA*%
X166360000Y-90350000D03*
%TO.P,J6,8,Pin_8*%
%TO.N,Camera*%
X166360000Y-92890000D03*
%TO.P,J6,9,Pin_9*%
%TO.N,Break_SCL*%
X166360000Y-95430000D03*
%TO.P,J6,10,Pin_10*%
%TO.N,Break_SDA*%
X166360000Y-97970000D03*
%TO.P,J6,11,Pin_11*%
%TO.N,GND*%
X166360000Y-100510000D03*
%TD*%
D10*
%TO.P,J4,1,Pin_1*%
%TO.N,GND*%
X143710000Y-74990000D03*
D11*
%TO.P,J4,2,Pin_2*%
%TO.N,F0_ENB*%
X143710000Y-77530000D03*
%TO.P,J4,3,Pin_3*%
%TO.N,F0_SCL*%
X143710000Y-80070000D03*
%TO.P,J4,4,Pin_4*%
%TO.N,F0_SDA*%
X143710000Y-82610000D03*
%TO.P,J4,5,Pin_5*%
%TO.N,F1_ENB*%
X143710000Y-85150000D03*
%TO.P,J4,6,Pin_6*%
%TO.N,F1_SCL*%
X143710000Y-87690000D03*
%TO.P,J4,7,Pin_7*%
%TO.N,F1_SDA*%
X143710000Y-90230000D03*
%TO.P,J4,8,Pin_8*%
%TO.N,F2_ENB*%
X143710000Y-92770000D03*
%TO.P,J4,9,Pin_9*%
%TO.N,F2_SCL*%
X143710000Y-95310000D03*
%TO.P,J4,10,Pin_10*%
%TO.N,F2_SDA*%
X143710000Y-97850000D03*
%TO.P,J4,11,Pin_11*%
%TO.N,GND*%
X143710000Y-100390000D03*
%TD*%
D10*
%TO.P,J7,1,Pin_1*%
%TO.N,GND*%
X151245000Y-69850000D03*
D11*
%TO.P,J7,2,Pin_2*%
%TO.N,+3V3*%
X153785000Y-69850000D03*
%TO.P,J7,3,Pin_3*%
%TO.N,SDA1*%
X156325000Y-69850000D03*
%TO.P,J7,4,Pin_4*%
%TO.N,SCL1*%
X158865000Y-69850000D03*
%TD*%
D12*
%TO.N,Camera*%
X157425000Y-86625000D03*
D13*
%TO.N,+3V3*%
X149825000Y-86675000D03*
X147000000Y-91225000D03*
X163175000Y-91075000D03*
X147575000Y-87050000D03*
X163175000Y-91075000D03*
X147000000Y-89125000D03*
X146275000Y-92275000D03*
X158850000Y-73675000D03*
X161775000Y-88575000D03*
X146775000Y-94525000D03*
X150725000Y-96325000D03*
%TO.N,GND*%
X160700000Y-85350000D03*
X153700000Y-80825000D03*
X153600000Y-95900000D03*
X160750000Y-82250000D03*
D12*
X152850000Y-82275000D03*
%TO.N,F0_ENB*%
X154150000Y-82750000D03*
%TO.N,F1_ENB*%
X154850000Y-83575000D03*
%TO.N,F2_ENB*%
X155425000Y-86650000D03*
%TO.N,F3_ENB*%
X156050000Y-82775000D03*
%TO.N,F4_ENB*%
X156800000Y-83650000D03*
%TO.N,SCL0*%
X156450000Y-97900000D03*
D13*
X156425000Y-90600000D03*
D12*
X152425000Y-99650000D03*
D13*
%TO.N,SDA0*%
X158575000Y-99200000D03*
X156350000Y-89625000D03*
D12*
%TO.N,SCL1*%
X157625000Y-74974300D03*
X153750000Y-77025000D03*
D13*
%TO.N,F3_SDA*%
X155850000Y-88325000D03*
X154105700Y-94389452D03*
%TO.N,F1_SDA*%
X148751793Y-90600638D03*
%TO.N,F3_SCL*%
X155719114Y-87478867D03*
X153550000Y-94975000D03*
%TO.N,F2_SCL*%
X148400000Y-97150000D03*
%TO.N,F0_SCL*%
X146825000Y-86425000D03*
X147784779Y-85705700D03*
%TO.N,F4_SCL*%
X159975000Y-91450000D03*
X159325000Y-94950700D03*
%TO.N,F4_SDA*%
X159325000Y-96000000D03*
X160530700Y-92275000D03*
%TD*%
D14*
%TO.N,Camera*%
X157425000Y-86625000D02*
X157425000Y-87700000D01*
X157425000Y-87700000D02*
X162615000Y-92890000D01*
X162615000Y-92890000D02*
X166196800Y-92890000D01*
%TO.N,+3V3*%
X147575000Y-87050000D02*
X147950000Y-86675000D01*
X163175000Y-89975000D02*
X161775000Y-88575000D01*
X146275000Y-92275000D02*
X146275000Y-91950000D01*
X153875000Y-70053200D02*
X153785000Y-70053200D01*
X147000000Y-87625000D02*
X147575000Y-87050000D01*
X158850000Y-73675000D02*
X158525000Y-73350000D01*
X147000000Y-89125000D02*
X147000000Y-87625000D01*
X146275000Y-91950000D02*
X147000000Y-91225000D01*
X158525000Y-73350000D02*
X154800000Y-73350000D01*
X150725000Y-96325000D02*
X148575000Y-96325000D01*
X147950000Y-86675000D02*
X149825000Y-86675000D01*
X153875000Y-72425000D02*
X153875000Y-70053200D01*
X148575000Y-96325000D02*
X146775000Y-94525000D01*
X163175000Y-91075000D02*
X163175000Y-89975000D01*
X154800000Y-73350000D02*
X153875000Y-72425000D01*
%TO.N,F0_ENB*%
X149061292Y-77530000D02*
X143903200Y-77530000D01*
X154150000Y-82750000D02*
X154150000Y-82618708D01*
X154150000Y-82618708D02*
X149061292Y-77530000D01*
%TO.N,F1_ENB*%
X154850000Y-83575000D02*
X150625000Y-83575000D01*
X150625000Y-83575000D02*
X149050000Y-85150000D01*
X149050000Y-85150000D02*
X143903200Y-85150000D01*
%TO.N,F2_ENB*%
X153750000Y-86650000D02*
X147200000Y-93200000D01*
X144333200Y-93200000D02*
X143903200Y-92770000D01*
X155425000Y-86650000D02*
X153750000Y-86650000D01*
X147200000Y-93200000D02*
X144333200Y-93200000D01*
%TO.N,F3_ENB*%
X156050000Y-82775000D02*
X161175000Y-77650000D01*
X161175000Y-77650000D02*
X166196800Y-77650000D01*
%TO.N,F4_ENB*%
X156800000Y-83650000D02*
X160450000Y-83650000D01*
X160450000Y-83650000D02*
X162100000Y-85300000D01*
X162100000Y-85300000D02*
X162130000Y-85270000D01*
X162130000Y-85270000D02*
X166196800Y-85270000D01*
%TO.N,SCL0*%
X156450000Y-90625000D02*
X156450000Y-97900000D01*
X152425000Y-99650000D02*
X154700000Y-99650000D01*
X156425000Y-90600000D02*
X156450000Y-90625000D01*
X154700000Y-99650000D02*
X156450000Y-97900000D01*
%TO.N,SDA0*%
X156350000Y-89625000D02*
X158575000Y-91850000D01*
X158575000Y-91850000D02*
X158575000Y-99200000D01*
%TO.N,SCL1*%
X155800700Y-74974300D02*
X153750000Y-77025000D01*
X157625000Y-74974300D02*
X155800700Y-74974300D01*
%TO.N,F3_SDA*%
X154105700Y-90069300D02*
X155850000Y-88325000D01*
X154105700Y-94389452D02*
X154105700Y-90069300D01*
%TO.N,F1_SDA*%
X144080638Y-90600638D02*
X143903200Y-90423200D01*
X143903200Y-90423200D02*
X143903200Y-90230000D01*
X148751793Y-90600638D02*
X144080638Y-90600638D01*
%TO.N,F3_SCL*%
X155719114Y-87478867D02*
X155614841Y-87478867D01*
X155614841Y-87478867D02*
X153550000Y-89543708D01*
X153550000Y-89543708D02*
X153550000Y-94975000D01*
%TO.N,F2_SCL*%
X146560000Y-95310000D02*
X143903200Y-95310000D01*
X148400000Y-97150000D02*
X146560000Y-95310000D01*
%TO.N,F0_SCL*%
X146825000Y-86425000D02*
X147065479Y-86425000D01*
X147065479Y-86425000D02*
X147784779Y-85705700D01*
%TO.N,F4_SCL*%
X159325000Y-94950700D02*
X159975000Y-94300700D01*
X159975000Y-94300700D02*
X159975000Y-91450000D01*
%TO.N,F4_SDA*%
X160530700Y-94531586D02*
X160530700Y-92275000D01*
X159325000Y-95737286D02*
X160530700Y-94531586D01*
X159325000Y-96000000D02*
X159325000Y-95737286D01*
%TD*%
%TA.AperFunction,Conductor*%
%TO.N,F3_ENB*%
G36*
X166322828Y-76809455D02*
G01*
X166322995Y-76809524D01*
X166363202Y-76836408D01*
X166390067Y-76876629D01*
X166399500Y-76924068D01*
X166399500Y-78375932D01*
X166390067Y-78423371D01*
X166363202Y-78463592D01*
X166322995Y-78490475D01*
X166322828Y-78490544D01*
X166275336Y-78500000D01*
X164474664Y-78500000D01*
X164427148Y-78490534D01*
X164426673Y-78490337D01*
X164386466Y-78463440D01*
X164359610Y-78423202D01*
X164359416Y-78422733D01*
X164350000Y-78375336D01*
X164350000Y-76924664D01*
X164359379Y-76877355D01*
X164359577Y-76876878D01*
X164386513Y-76836513D01*
X164426878Y-76809577D01*
X164427355Y-76809379D01*
X164474664Y-76800000D01*
X166275336Y-76800000D01*
X166322828Y-76809455D01*
G37*
%TD.AperFunction*%
%TD*%
%TA.AperFunction,Conductor*%
%TO.N,F3_SCL*%
G36*
X166322828Y-79349455D02*
G01*
X166322995Y-79349524D01*
X166363202Y-79376408D01*
X166390067Y-79416629D01*
X166399500Y-79464068D01*
X166399500Y-80915932D01*
X166390067Y-80963371D01*
X166363202Y-81003592D01*
X166322995Y-81030475D01*
X166322828Y-81030544D01*
X166275336Y-81040000D01*
X164474664Y-81040000D01*
X164427148Y-81030534D01*
X164426673Y-81030337D01*
X164386466Y-81003440D01*
X164359610Y-80963202D01*
X164359416Y-80962733D01*
X164350000Y-80915336D01*
X164350000Y-79464664D01*
X164359379Y-79417355D01*
X164359577Y-79416878D01*
X164386513Y-79376513D01*
X164426878Y-79349577D01*
X164427355Y-79349379D01*
X164474664Y-79340000D01*
X166275336Y-79340000D01*
X166322828Y-79349455D01*
G37*
%TD.AperFunction*%
%TD*%
%TA.AperFunction,Conductor*%
%TO.N,GND*%
G36*
X166399500Y-75960000D02*
G01*
X164380000Y-75960000D01*
X164350000Y-75960000D01*
X164350000Y-74260000D01*
X166399500Y-74260000D01*
X166399500Y-75960000D01*
G37*
%TD.AperFunction*%
%TD*%
%TA.AperFunction,Conductor*%
%TO.N,F4_SDA*%
G36*
X166313203Y-89509329D02*
G01*
X166313714Y-89509540D01*
X166353872Y-89536198D01*
X166380832Y-89576158D01*
X166381044Y-89576663D01*
X166390729Y-89623980D01*
X166399262Y-91074653D01*
X166390065Y-91122250D01*
X166389887Y-91122686D01*
X166363075Y-91163191D01*
X166322760Y-91190287D01*
X166322323Y-91190469D01*
X166274649Y-91200000D01*
X164474664Y-91200000D01*
X164427148Y-91190534D01*
X164426673Y-91190337D01*
X164386466Y-91163440D01*
X164359610Y-91123202D01*
X164359416Y-91122733D01*
X164350000Y-91075336D01*
X164350000Y-89624664D01*
X164359379Y-89577355D01*
X164359577Y-89576878D01*
X164386513Y-89536513D01*
X164426878Y-89509577D01*
X164427355Y-89509379D01*
X164474664Y-89500000D01*
X166266017Y-89500000D01*
X166313203Y-89509329D01*
G37*
%TD.AperFunction*%
%TD*%
%TA.AperFunction,Conductor*%
%TO.N,Break_SCL*%
G36*
X166322828Y-94589455D02*
G01*
X166322995Y-94589524D01*
X166363202Y-94616408D01*
X166390067Y-94656629D01*
X166399500Y-94704068D01*
X166399500Y-96155932D01*
X166390067Y-96203371D01*
X166363202Y-96243592D01*
X166322995Y-96270475D01*
X166322828Y-96270544D01*
X166275336Y-96280000D01*
X164483983Y-96280000D01*
X164436679Y-96270622D01*
X164436175Y-96270414D01*
X164396083Y-96243757D01*
X164369167Y-96203842D01*
X164368953Y-96203332D01*
X164359270Y-96156019D01*
X164350737Y-94705342D01*
X164359934Y-94657749D01*
X164360114Y-94657309D01*
X164387045Y-94616687D01*
X164427553Y-94589581D01*
X164427693Y-94589524D01*
X164427993Y-94589400D01*
X164475351Y-94580000D01*
X166275336Y-94580000D01*
X166322828Y-94589455D01*
G37*
%TD.AperFunction*%
%TD*%
%TA.AperFunction,Conductor*%
%TO.N,GND*%
G36*
X155673815Y-83316730D02*
G01*
X155678712Y-83319300D01*
X155816207Y-83391463D01*
X155970529Y-83429500D01*
X155970530Y-83429500D01*
X156027499Y-83429500D01*
X156093773Y-83448696D01*
X156139527Y-83500342D01*
X156150595Y-83568446D01*
X156140692Y-83649999D01*
X156159851Y-83807782D01*
X156216212Y-83956394D01*
X156239505Y-83990139D01*
X156306502Y-84087201D01*
X156414421Y-84182810D01*
X156425472Y-84192600D01*
X156563065Y-84264814D01*
X156566207Y-84266463D01*
X156720529Y-84304500D01*
X156879470Y-84304500D01*
X156879471Y-84304500D01*
X157033793Y-84266463D01*
X157174529Y-84192599D01*
X157293498Y-84087201D01*
X157330040Y-84034259D01*
X157374464Y-83994904D01*
X157432090Y-83980700D01*
X160261658Y-83980700D01*
X160309111Y-83990139D01*
X160349339Y-84017019D01*
X161824928Y-85492608D01*
X161907392Y-85575072D01*
X161924184Y-85582902D01*
X161942898Y-85593707D01*
X161958083Y-85604340D01*
X161975980Y-85609135D01*
X161996292Y-85616527D01*
X162013088Y-85624360D01*
X162031560Y-85625975D01*
X162052831Y-85629725D01*
X162070733Y-85634523D01*
X162089193Y-85632908D01*
X162110796Y-85632908D01*
X162129267Y-85634524D01*
X162147167Y-85629727D01*
X162168441Y-85625975D01*
X162186912Y-85624360D01*
X162203703Y-85616528D01*
X162224021Y-85609134D01*
X162234898Y-85606220D01*
X162239745Y-85604922D01*
X162271826Y-85600700D01*
X163966500Y-85600700D01*
X164028500Y-85617313D01*
X164073887Y-85662700D01*
X164090500Y-85724700D01*
X164090500Y-85995340D01*
X164095473Y-86045898D01*
X164104888Y-86093293D01*
X164119622Y-86141927D01*
X164119810Y-86142383D01*
X164143770Y-86187263D01*
X164156257Y-86205972D01*
X164170625Y-86227499D01*
X164242179Y-86299128D01*
X164282386Y-86326025D01*
X164327260Y-86350039D01*
X164327735Y-86350236D01*
X164376447Y-86365033D01*
X164423963Y-86374499D01*
X164474664Y-86379500D01*
X166275500Y-86379500D01*
X166337500Y-86396113D01*
X166382887Y-86441500D01*
X166399500Y-86503500D01*
X166399500Y-86576500D01*
X166382887Y-86638500D01*
X166337500Y-86683887D01*
X166275500Y-86700500D01*
X166275336Y-86700500D01*
X164474664Y-86700500D01*
X164470153Y-86700942D01*
X164424200Y-86705453D01*
X164376886Y-86714833D01*
X164327872Y-86729705D01*
X164327383Y-86729908D01*
X164282837Y-86753722D01*
X164242474Y-86780657D01*
X164203018Y-86813018D01*
X164170657Y-86852474D01*
X164143722Y-86892837D01*
X164119908Y-86937383D01*
X164119705Y-86937872D01*
X164104833Y-86986886D01*
X164095453Y-87034200D01*
X164090500Y-87084665D01*
X164090500Y-88535340D01*
X164095473Y-88585898D01*
X164104888Y-88633293D01*
X164119622Y-88681927D01*
X164119810Y-88682383D01*
X164136973Y-88714532D01*
X164143769Y-88727261D01*
X164170625Y-88767499D01*
X164242179Y-88839128D01*
X164282386Y-88866025D01*
X164327260Y-88890039D01*
X164327735Y-88890236D01*
X164376447Y-88905033D01*
X164423963Y-88914499D01*
X164474664Y-88919500D01*
X166275500Y-88919500D01*
X166337500Y-88936113D01*
X166382887Y-88981500D01*
X166399500Y-89043500D01*
X166399500Y-89116836D01*
X166380811Y-89182301D01*
X166330377Y-89228032D01*
X166272073Y-89238663D01*
X166272073Y-89240500D01*
X166266017Y-89240500D01*
X164474664Y-89240500D01*
X164470153Y-89240942D01*
X164424200Y-89245453D01*
X164376886Y-89254833D01*
X164327872Y-89269705D01*
X164327383Y-89269908D01*
X164282837Y-89293722D01*
X164242474Y-89320657D01*
X164203018Y-89353018D01*
X164170657Y-89392474D01*
X164143722Y-89432837D01*
X164119908Y-89477383D01*
X164119705Y-89477872D01*
X164104833Y-89526886D01*
X164095453Y-89574200D01*
X164090500Y-89624665D01*
X164090500Y-91075340D01*
X164095473Y-91125898D01*
X164104888Y-91173293D01*
X164119622Y-91221927D01*
X164119810Y-91222383D01*
X164119815Y-91222392D01*
X164143769Y-91267261D01*
X164170625Y-91307499D01*
X164242179Y-91379128D01*
X164282386Y-91406025D01*
X164327260Y-91430039D01*
X164327735Y-91430236D01*
X164376447Y-91445033D01*
X164423963Y-91454499D01*
X164474664Y-91459500D01*
X166275500Y-91459500D01*
X166337500Y-91476113D01*
X166382887Y-91521500D01*
X166399500Y-91583500D01*
X166399500Y-91656500D01*
X166382887Y-91718500D01*
X166337500Y-91763887D01*
X166275500Y-91780500D01*
X166275336Y-91780500D01*
X164474664Y-91780500D01*
X164470153Y-91780942D01*
X164424200Y-91785453D01*
X164376886Y-91794833D01*
X164327872Y-91809705D01*
X164327383Y-91809908D01*
X164282837Y-91833722D01*
X164242474Y-91860657D01*
X164203018Y-91893018D01*
X164170657Y-91932474D01*
X164143722Y-91972837D01*
X164119908Y-92017383D01*
X164119705Y-92017872D01*
X164104833Y-92066886D01*
X164095453Y-92114200D01*
X164090500Y-92164665D01*
X164090500Y-92435300D01*
X164073887Y-92497300D01*
X164028500Y-92542687D01*
X163966500Y-92559300D01*
X162803342Y-92559300D01*
X162755889Y-92549861D01*
X162715661Y-92522981D01*
X158767679Y-88574999D01*
X161235887Y-88574999D01*
X161254258Y-88714532D01*
X161308114Y-88844555D01*
X161393789Y-88956210D01*
X161505444Y-89041885D01*
X161635468Y-89095742D01*
X161775000Y-89114112D01*
X161777490Y-89113784D01*
X161833536Y-89119302D01*
X161881361Y-89149041D01*
X162807981Y-90075661D01*
X162834861Y-90115889D01*
X162844300Y-90163342D01*
X162844300Y-90593882D01*
X162831512Y-90648726D01*
X162795786Y-90692258D01*
X162793789Y-90693789D01*
X162708114Y-90805444D01*
X162654258Y-90935467D01*
X162635887Y-91074999D01*
X162654258Y-91214532D01*
X162708114Y-91344555D01*
X162793789Y-91456210D01*
X162898426Y-91536500D01*
X162905444Y-91541885D01*
X163035468Y-91595742D01*
X163175000Y-91614112D01*
X163314532Y-91595742D01*
X163444556Y-91541885D01*
X163556210Y-91456210D01*
X163641885Y-91344556D01*
X163695742Y-91214532D01*
X163714112Y-91075000D01*
X163713294Y-91068790D01*
X163711683Y-91056547D01*
X163695742Y-90935468D01*
X163641885Y-90805444D01*
X163614791Y-90770134D01*
X163556210Y-90693789D01*
X163554214Y-90692258D01*
X163518488Y-90648726D01*
X163505700Y-90593882D01*
X163505700Y-89994855D01*
X163506172Y-89984047D01*
X163509524Y-89945733D01*
X163499573Y-89908598D01*
X163497231Y-89898033D01*
X163490388Y-89859227D01*
X163479879Y-89833855D01*
X163479340Y-89833085D01*
X163479340Y-89833084D01*
X163457273Y-89801570D01*
X163451464Y-89792450D01*
X163432239Y-89759151D01*
X163402771Y-89734424D01*
X163394796Y-89727116D01*
X162349041Y-88681361D01*
X162319302Y-88633536D01*
X162313784Y-88577489D01*
X162314112Y-88575000D01*
X162295742Y-88435468D01*
X162241885Y-88305444D01*
X162156210Y-88193789D01*
X162044555Y-88108114D01*
X161914532Y-88054258D01*
X161775000Y-88035887D01*
X161635467Y-88054258D01*
X161505444Y-88108114D01*
X161393789Y-88193789D01*
X161308114Y-88305444D01*
X161254258Y-88435467D01*
X161235887Y-88574999D01*
X158767679Y-88574999D01*
X157792019Y-87599339D01*
X157765139Y-87559111D01*
X157755700Y-87511658D01*
X157755700Y-87262236D01*
X157766624Y-87211345D01*
X157797472Y-87169421D01*
X157800671Y-87166587D01*
X157918498Y-87062201D01*
X158008787Y-86931395D01*
X158065149Y-86782782D01*
X158084307Y-86625000D01*
X158065149Y-86467218D01*
X158008787Y-86318605D01*
X157918498Y-86187799D01*
X157811829Y-86093298D01*
X157799527Y-86082399D01*
X157658794Y-86008537D01*
X157581631Y-85989518D01*
X157504471Y-85970500D01*
X157345529Y-85970500D01*
X157294088Y-85983178D01*
X157191205Y-86008537D01*
X157050472Y-86082399D01*
X156931501Y-86187800D01*
X156841212Y-86318605D01*
X156784851Y-86467217D01*
X156765692Y-86625000D01*
X156784851Y-86782782D01*
X156841212Y-86931394D01*
X156850297Y-86944556D01*
X156931502Y-87062201D01*
X157049329Y-87166587D01*
X157052528Y-87169421D01*
X157083376Y-87211345D01*
X157094300Y-87262236D01*
X157094300Y-87680145D01*
X157093828Y-87690953D01*
X157090475Y-87729267D01*
X157100429Y-87766414D01*
X157102770Y-87776975D01*
X157109610Y-87815770D01*
X157120124Y-87841151D01*
X157142721Y-87873423D01*
X157148532Y-87882545D01*
X157155042Y-87893821D01*
X157167761Y-87915849D01*
X157178714Y-87925040D01*
X157197226Y-87940573D01*
X157205202Y-87947882D01*
X159967931Y-90710611D01*
X160001011Y-90770134D01*
X159997670Y-90838150D01*
X159958915Y-90894145D01*
X159896436Y-90921231D01*
X159835467Y-90929258D01*
X159705444Y-90983114D01*
X159593789Y-91068789D01*
X159508114Y-91180444D01*
X159454258Y-91310467D01*
X159435887Y-91449999D01*
X159454258Y-91589532D01*
X159508114Y-91719555D01*
X159593789Y-91831210D01*
X159595786Y-91832742D01*
X159631512Y-91876274D01*
X159644300Y-91931118D01*
X159644300Y-94112358D01*
X159634861Y-94159811D01*
X159607983Y-94200036D01*
X159473155Y-94334864D01*
X159431360Y-94376659D01*
X159383538Y-94406396D01*
X159327495Y-94411916D01*
X159325001Y-94411587D01*
X159185467Y-94429958D01*
X159077152Y-94474823D01*
X159017545Y-94483665D01*
X158960809Y-94463364D01*
X158920342Y-94418715D01*
X158905700Y-94360262D01*
X158905700Y-91869855D01*
X158906172Y-91859047D01*
X158909524Y-91820733D01*
X158906143Y-91808115D01*
X158899572Y-91783595D01*
X158897231Y-91773033D01*
X158890388Y-91734227D01*
X158879879Y-91708855D01*
X158879340Y-91708085D01*
X158879340Y-91708084D01*
X158857273Y-91676570D01*
X158851464Y-91667450D01*
X158850323Y-91665473D01*
X158832239Y-91634151D01*
X158802771Y-91609424D01*
X158794796Y-91602116D01*
X156924041Y-89731361D01*
X156894302Y-89683536D01*
X156888784Y-89627489D01*
X156889112Y-89625000D01*
X156870742Y-89485468D01*
X156816885Y-89355444D01*
X156808728Y-89344814D01*
X156731210Y-89243789D01*
X156619555Y-89158114D01*
X156489532Y-89104258D01*
X156350000Y-89085887D01*
X156210467Y-89104258D01*
X156080444Y-89158114D01*
X155968789Y-89243789D01*
X155883114Y-89355444D01*
X155829258Y-89485467D01*
X155810887Y-89624999D01*
X155829258Y-89764532D01*
X155883114Y-89894555D01*
X155968789Y-90006210D01*
X156020287Y-90045725D01*
X156059362Y-90096648D01*
X156067740Y-90160286D01*
X156043177Y-90219587D01*
X155958114Y-90330443D01*
X155904258Y-90460467D01*
X155885887Y-90600000D01*
X155904258Y-90739532D01*
X155958114Y-90869555D01*
X156043789Y-90981210D01*
X156070786Y-91001925D01*
X156106512Y-91045457D01*
X156119300Y-91100301D01*
X156119300Y-97262764D01*
X156108376Y-97313655D01*
X156077528Y-97355579D01*
X156075471Y-97357400D01*
X156075471Y-97357401D01*
X156005314Y-97419555D01*
X155956501Y-97462800D01*
X155866212Y-97593605D01*
X155809851Y-97742217D01*
X155790692Y-97900000D01*
X155804163Y-98010942D01*
X155798284Y-98066337D01*
X155768748Y-98113569D01*
X154599339Y-99282981D01*
X154559111Y-99309861D01*
X154511658Y-99319300D01*
X153057090Y-99319300D01*
X152999464Y-99305096D01*
X152955040Y-99265740D01*
X152918498Y-99212799D01*
X152799527Y-99107399D01*
X152658794Y-99033537D01*
X152519190Y-98999128D01*
X152504471Y-98995500D01*
X152345529Y-98995500D01*
X152330810Y-98999128D01*
X152191205Y-99033537D01*
X152050472Y-99107399D01*
X151931501Y-99212800D01*
X151841212Y-99343605D01*
X151784851Y-99492217D01*
X151765692Y-99649999D01*
X151784851Y-99807782D01*
X151841212Y-99956394D01*
X151858315Y-99981172D01*
X151931502Y-100087201D01*
X152039421Y-100182810D01*
X152050472Y-100192600D01*
X152191205Y-100266462D01*
X152191207Y-100266463D01*
X152345529Y-100304500D01*
X152504470Y-100304500D01*
X152504471Y-100304500D01*
X152658793Y-100266463D01*
X152799529Y-100192599D01*
X152918498Y-100087201D01*
X152955040Y-100034259D01*
X152999464Y-99994904D01*
X153057090Y-99980700D01*
X154680145Y-99980700D01*
X154690951Y-99981171D01*
X154729267Y-99984524D01*
X154766421Y-99974567D01*
X154776964Y-99972230D01*
X154814851Y-99965551D01*
X154814852Y-99965549D01*
X154815777Y-99965387D01*
X154841147Y-99954877D01*
X154841912Y-99954340D01*
X154841916Y-99954340D01*
X154873426Y-99932275D01*
X154882544Y-99926467D01*
X154915849Y-99907239D01*
X154940585Y-99877758D01*
X154947873Y-99869805D01*
X156234955Y-98582723D01*
X156289336Y-98550960D01*
X156352309Y-98550009D01*
X156370529Y-98554500D01*
X156529470Y-98554500D01*
X156529471Y-98554500D01*
X156683793Y-98516463D01*
X156824529Y-98442599D01*
X156943498Y-98337201D01*
X157033787Y-98206395D01*
X157090149Y-98057782D01*
X157109307Y-97900000D01*
X157090149Y-97742218D01*
X157033787Y-97593605D01*
X156943498Y-97462799D01*
X156824529Y-97357401D01*
X156824527Y-97357400D01*
X156822472Y-97355579D01*
X156791624Y-97313655D01*
X156780700Y-97262764D01*
X156780700Y-91056547D01*
X156787281Y-91016688D01*
X156806321Y-90981064D01*
X156891885Y-90869556D01*
X156891885Y-90869554D01*
X156901823Y-90856604D01*
X156902715Y-90857288D01*
X156925585Y-90826448D01*
X156980060Y-90800680D01*
X157040248Y-90803636D01*
X157091936Y-90834616D01*
X158207981Y-91950661D01*
X158234861Y-91990889D01*
X158244300Y-92038342D01*
X158244300Y-98718882D01*
X158231512Y-98773726D01*
X158195786Y-98817258D01*
X158193789Y-98818789D01*
X158108114Y-98930444D01*
X158054258Y-99060467D01*
X158035887Y-99200000D01*
X158054258Y-99339532D01*
X158108114Y-99469555D01*
X158193789Y-99581210D01*
X158283438Y-99649999D01*
X158305444Y-99666885D01*
X158435468Y-99720742D01*
X158575000Y-99739112D01*
X158714532Y-99720742D01*
X158844556Y-99666885D01*
X158956210Y-99581210D01*
X159041885Y-99469556D01*
X159095742Y-99339532D01*
X159114112Y-99200000D01*
X159095742Y-99060468D01*
X159041885Y-98930444D01*
X159008750Y-98887261D01*
X158956210Y-98818789D01*
X158954214Y-98817258D01*
X158918488Y-98773726D01*
X158905700Y-98718882D01*
X158905700Y-96590438D01*
X158920342Y-96531985D01*
X158960809Y-96487336D01*
X159017545Y-96467035D01*
X159077152Y-96475877D01*
X159119051Y-96493231D01*
X159185468Y-96520742D01*
X159325000Y-96539112D01*
X159464532Y-96520742D01*
X159594556Y-96466885D01*
X159706210Y-96381210D01*
X159791885Y-96269556D01*
X159845742Y-96139532D01*
X159864112Y-96000000D01*
X159845742Y-95860468D01*
X159825825Y-95812386D01*
X159816388Y-95764939D01*
X159825827Y-95717486D01*
X159852704Y-95677260D01*
X160750506Y-94779458D01*
X160758456Y-94772172D01*
X160787939Y-94747435D01*
X160807170Y-94714123D01*
X160812966Y-94705024D01*
X160835040Y-94673503D01*
X160835041Y-94673498D01*
X160835580Y-94672729D01*
X160846088Y-94647363D01*
X160852931Y-94608552D01*
X160855269Y-94598000D01*
X160865224Y-94560853D01*
X160865105Y-94559497D01*
X160861872Y-94522539D01*
X160861400Y-94511731D01*
X160861400Y-92756118D01*
X160874188Y-92701274D01*
X160909914Y-92657742D01*
X160911910Y-92656210D01*
X160911909Y-92656210D01*
X160997585Y-92544556D01*
X161051442Y-92414532D01*
X161069812Y-92275000D01*
X161051442Y-92135468D01*
X161048633Y-92128688D01*
X161040722Y-92061839D01*
X161068905Y-92000705D01*
X161124877Y-91963306D01*
X161192142Y-91960663D01*
X161250876Y-91993556D01*
X162367116Y-93109796D01*
X162374424Y-93117771D01*
X162399151Y-93147239D01*
X162432463Y-93166471D01*
X162441575Y-93172277D01*
X162473852Y-93194879D01*
X162499223Y-93205387D01*
X162500147Y-93205549D01*
X162500149Y-93205551D01*
X162538046Y-93212232D01*
X162548595Y-93214572D01*
X162585732Y-93224523D01*
X162585732Y-93224522D01*
X162585733Y-93224523D01*
X162624040Y-93221171D01*
X162634847Y-93220700D01*
X163966500Y-93220700D01*
X164028500Y-93237313D01*
X164073887Y-93282700D01*
X164090500Y-93344700D01*
X164090500Y-93615340D01*
X164095473Y-93665898D01*
X164104888Y-93713293D01*
X164119622Y-93761927D01*
X164119810Y-93762383D01*
X164119815Y-93762392D01*
X164143769Y-93807261D01*
X164170625Y-93847499D01*
X164242179Y-93919128D01*
X164282386Y-93946025D01*
X164327260Y-93970039D01*
X164327735Y-93970236D01*
X164376447Y-93985033D01*
X164423963Y-93994499D01*
X164474664Y-93999500D01*
X166275500Y-93999500D01*
X166337500Y-94016113D01*
X166382887Y-94061500D01*
X166399500Y-94123500D01*
X166399500Y-94196500D01*
X166382887Y-94258500D01*
X166337500Y-94303887D01*
X166275500Y-94320500D01*
X164475346Y-94320500D01*
X164424829Y-94325465D01*
X164377476Y-94334864D01*
X164329268Y-94349412D01*
X164328831Y-94349592D01*
X164283238Y-94373911D01*
X164242728Y-94401018D01*
X164203158Y-94433586D01*
X164170757Y-94473299D01*
X164143827Y-94513919D01*
X164119938Y-94559046D01*
X164119753Y-94559497D01*
X164105147Y-94608514D01*
X164095951Y-94656099D01*
X164091240Y-94706870D01*
X164099774Y-96157551D01*
X164105038Y-96208041D01*
X164105040Y-96208049D01*
X164114723Y-96255362D01*
X164129665Y-96303739D01*
X164129667Y-96303743D01*
X164129668Y-96303747D01*
X164129878Y-96304248D01*
X164154012Y-96348924D01*
X164154014Y-96348927D01*
X164180930Y-96388842D01*
X164215255Y-96422944D01*
X164252403Y-96459851D01*
X164292500Y-96486511D01*
X164337171Y-96510285D01*
X164337179Y-96510289D01*
X164337683Y-96510497D01*
X164386215Y-96525168D01*
X164433519Y-96534546D01*
X164483983Y-96539500D01*
X164483984Y-96539500D01*
X166275500Y-96539500D01*
X166337500Y-96556113D01*
X166382887Y-96601500D01*
X166399500Y-96663500D01*
X166399500Y-96736500D01*
X166382887Y-96798500D01*
X166337500Y-96843887D01*
X166275500Y-96860500D01*
X166275336Y-96860500D01*
X164474664Y-96860500D01*
X164470153Y-96860942D01*
X164424200Y-96865453D01*
X164376886Y-96874833D01*
X164327872Y-96889705D01*
X164327383Y-96889908D01*
X164282837Y-96913722D01*
X164242474Y-96940657D01*
X164203018Y-96973018D01*
X164170657Y-97012474D01*
X164143722Y-97052837D01*
X164119908Y-97097383D01*
X164119705Y-97097872D01*
X164104833Y-97146886D01*
X164095453Y-97194200D01*
X164090500Y-97244665D01*
X164090500Y-98695340D01*
X164095473Y-98745898D01*
X164104888Y-98793293D01*
X164119622Y-98841927D01*
X164119810Y-98842383D01*
X164119815Y-98842392D01*
X164143769Y-98887261D01*
X164170625Y-98927499D01*
X164242179Y-98999128D01*
X164282386Y-99026025D01*
X164327260Y-99050039D01*
X164327735Y-99050236D01*
X164376447Y-99065033D01*
X164423963Y-99074499D01*
X164474664Y-99079500D01*
X166275500Y-99079500D01*
X166337500Y-99096113D01*
X166382887Y-99141500D01*
X166399500Y-99203500D01*
X166399500Y-101338050D01*
X166350000Y-99660000D01*
X164350000Y-99660000D01*
X164350000Y-101355000D01*
X166399500Y-101355000D01*
X166399500Y-102675500D01*
X166382887Y-102737500D01*
X166337500Y-102782887D01*
X166275500Y-102799500D01*
X143824500Y-102799500D01*
X143762500Y-102782887D01*
X143717113Y-102737500D01*
X143700500Y-102675500D01*
X143700500Y-101245000D01*
X145740000Y-101245000D01*
X145740000Y-99540000D01*
X143700500Y-99540000D01*
X143700500Y-99083500D01*
X143717113Y-99021500D01*
X143762500Y-98976113D01*
X143824500Y-98959500D01*
X145615336Y-98959500D01*
X145666135Y-98954480D01*
X145678034Y-98952104D01*
X145713736Y-98944978D01*
X145762278Y-98930231D01*
X145762751Y-98930035D01*
X145807726Y-98905972D01*
X145847801Y-98879156D01*
X145919154Y-98807804D01*
X145945971Y-98767729D01*
X145970215Y-98722318D01*
X145970410Y-98721845D01*
X145984978Y-98673736D01*
X145994480Y-98626134D01*
X145999500Y-98575336D01*
X145999500Y-97124664D01*
X145994499Y-97073963D01*
X145985033Y-97026447D01*
X145970236Y-96977735D01*
X145970039Y-96977260D01*
X145967769Y-96973019D01*
X145946026Y-96932388D01*
X145919128Y-96892179D01*
X145847495Y-96820622D01*
X145807263Y-96793770D01*
X145762895Y-96770023D01*
X145762436Y-96769832D01*
X145713295Y-96754888D01*
X145665897Y-96745473D01*
X145665896Y-96745472D01*
X145615336Y-96740500D01*
X143824664Y-96740500D01*
X143824500Y-96740500D01*
X143762500Y-96723887D01*
X143717113Y-96678500D01*
X143700500Y-96616500D01*
X143700500Y-96543500D01*
X143717113Y-96481500D01*
X143762500Y-96436113D01*
X143824500Y-96419500D01*
X145615336Y-96419500D01*
X145666135Y-96414480D01*
X145678034Y-96412104D01*
X145713736Y-96404978D01*
X145762278Y-96390231D01*
X145762751Y-96390035D01*
X145807726Y-96365972D01*
X145847801Y-96339156D01*
X145919154Y-96267804D01*
X145945971Y-96227729D01*
X145970215Y-96182318D01*
X145970410Y-96181845D01*
X145984978Y-96133736D01*
X145994480Y-96086134D01*
X145999500Y-96035336D01*
X145999500Y-95764700D01*
X146016113Y-95702700D01*
X146061500Y-95657313D01*
X146123500Y-95640700D01*
X146371658Y-95640700D01*
X146419111Y-95650139D01*
X146459339Y-95677019D01*
X147825958Y-97043638D01*
X147855696Y-97091459D01*
X147861217Y-97147502D01*
X147860888Y-97150000D01*
X147879258Y-97289532D01*
X147933114Y-97419555D01*
X148018789Y-97531210D01*
X148100105Y-97593605D01*
X148130444Y-97616885D01*
X148260468Y-97670742D01*
X148400000Y-97689112D01*
X148539532Y-97670742D01*
X148669556Y-97616885D01*
X148781210Y-97531210D01*
X148866885Y-97419556D01*
X148920742Y-97289532D01*
X148939112Y-97150000D01*
X148920742Y-97010468D01*
X148866885Y-96880444D01*
X148847503Y-96855185D01*
X148822477Y-96791854D01*
X148834668Y-96724856D01*
X148880399Y-96674399D01*
X148945880Y-96655700D01*
X150243882Y-96655700D01*
X150298726Y-96668488D01*
X150342258Y-96704214D01*
X150343789Y-96706210D01*
X150426704Y-96769832D01*
X150455444Y-96791885D01*
X150585468Y-96845742D01*
X150725000Y-96864112D01*
X150864532Y-96845742D01*
X150994556Y-96791885D01*
X151106210Y-96706210D01*
X151191885Y-96594556D01*
X151245742Y-96464532D01*
X151264112Y-96325000D01*
X151245742Y-96185468D01*
X151191885Y-96055444D01*
X151160034Y-96013935D01*
X151106210Y-95943789D01*
X150994555Y-95858114D01*
X150864532Y-95804258D01*
X150725000Y-95785887D01*
X150585467Y-95804258D01*
X150455444Y-95858114D01*
X150343789Y-95943789D01*
X150342258Y-95945786D01*
X150298726Y-95981512D01*
X150243882Y-95994300D01*
X148763342Y-95994300D01*
X148715889Y-95984861D01*
X148675661Y-95957981D01*
X147349041Y-94631361D01*
X147319302Y-94583536D01*
X147313784Y-94527489D01*
X147314112Y-94525000D01*
X147295742Y-94385468D01*
X147241885Y-94255444D01*
X147241884Y-94255443D01*
X147156210Y-94143789D01*
X147044555Y-94058114D01*
X146914532Y-94004258D01*
X146775000Y-93985887D01*
X146635467Y-94004258D01*
X146505444Y-94058114D01*
X146393789Y-94143789D01*
X146308114Y-94255444D01*
X146254258Y-94385467D01*
X146237072Y-94516004D01*
X146223187Y-94547747D01*
X146223499Y-94548003D01*
X146246439Y-94605140D01*
X146254258Y-94664532D01*
X146313620Y-94807848D01*
X146322462Y-94867455D01*
X146302161Y-94924191D01*
X146257512Y-94964658D01*
X146199059Y-94979300D01*
X146123500Y-94979300D01*
X146061500Y-94962687D01*
X146016113Y-94917300D01*
X145999500Y-94855300D01*
X145999500Y-94621326D01*
X146013871Y-94565249D01*
X145992523Y-94524047D01*
X145985033Y-94486447D01*
X145970236Y-94437735D01*
X145970039Y-94437260D01*
X145946025Y-94392386D01*
X145919128Y-94352179D01*
X145847497Y-94280624D01*
X145847495Y-94280622D01*
X145807263Y-94253770D01*
X145762895Y-94230023D01*
X145762436Y-94229832D01*
X145713295Y-94214888D01*
X145665897Y-94205473D01*
X145665896Y-94205472D01*
X145615336Y-94200500D01*
X143824664Y-94200500D01*
X143824500Y-94200500D01*
X143762500Y-94183887D01*
X143717113Y-94138500D01*
X143700500Y-94076500D01*
X143700500Y-94003500D01*
X143717113Y-93941500D01*
X143762500Y-93896113D01*
X143824500Y-93879500D01*
X145615336Y-93879500D01*
X145666135Y-93874480D01*
X145678034Y-93872104D01*
X145713736Y-93864978D01*
X145762278Y-93850231D01*
X145762751Y-93850035D01*
X145807726Y-93825972D01*
X145847801Y-93799156D01*
X145919154Y-93727804D01*
X145945971Y-93687729D01*
X145970215Y-93642318D01*
X145970410Y-93641845D01*
X145977399Y-93618762D01*
X146002824Y-93572971D01*
X146044884Y-93541761D01*
X146096078Y-93530700D01*
X147180145Y-93530700D01*
X147190951Y-93531171D01*
X147229267Y-93534524D01*
X147266421Y-93524567D01*
X147276964Y-93522230D01*
X147314851Y-93515551D01*
X147314852Y-93515549D01*
X147315777Y-93515387D01*
X147341147Y-93504877D01*
X147341912Y-93504340D01*
X147341916Y-93504340D01*
X147373426Y-93482275D01*
X147382544Y-93476467D01*
X147386930Y-93473935D01*
X147415849Y-93457239D01*
X147440586Y-93427756D01*
X147447873Y-93419805D01*
X153850660Y-87017019D01*
X153890889Y-86990139D01*
X153938342Y-86980700D01*
X154792910Y-86980700D01*
X154850536Y-86994904D01*
X154894960Y-87034260D01*
X154929751Y-87084665D01*
X154931502Y-87087201D01*
X155050471Y-87192599D01*
X155130279Y-87234485D01*
X155168965Y-87266180D01*
X155191984Y-87310582D01*
X155195590Y-87360467D01*
X155190475Y-87399315D01*
X155178748Y-87437973D01*
X155155217Y-87470809D01*
X153330205Y-89295821D01*
X153322234Y-89303126D01*
X153292760Y-89327859D01*
X153273528Y-89361167D01*
X153267721Y-89370282D01*
X153245126Y-89402553D01*
X153234610Y-89427940D01*
X153227770Y-89466734D01*
X153225429Y-89477294D01*
X153215475Y-89514440D01*
X153218828Y-89552755D01*
X153219300Y-89563563D01*
X153219300Y-94493882D01*
X153206512Y-94548726D01*
X153170786Y-94592258D01*
X153168789Y-94593789D01*
X153083114Y-94705444D01*
X153029258Y-94835467D01*
X153010887Y-94974999D01*
X153029258Y-95114532D01*
X153083114Y-95244555D01*
X153168789Y-95356210D01*
X153264955Y-95430000D01*
X153280444Y-95441885D01*
X153410468Y-95495742D01*
X153550000Y-95514112D01*
X153689532Y-95495742D01*
X153819556Y-95441885D01*
X153931210Y-95356210D01*
X154016885Y-95244556D01*
X154070742Y-95114532D01*
X154082621Y-95024299D01*
X154100980Y-94973861D01*
X154138935Y-94935905D01*
X154189373Y-94917548D01*
X154245232Y-94910194D01*
X154375256Y-94856337D01*
X154486910Y-94770662D01*
X154572585Y-94659008D01*
X154626442Y-94528984D01*
X154644812Y-94389452D01*
X154626442Y-94249920D01*
X154572585Y-94119896D01*
X154539286Y-94076500D01*
X154486910Y-94008241D01*
X154484914Y-94006710D01*
X154449188Y-93963178D01*
X154436400Y-93908334D01*
X154436400Y-90257642D01*
X154445839Y-90210189D01*
X154472719Y-90169961D01*
X154783453Y-89859227D01*
X155743639Y-88899039D01*
X155791461Y-88869302D01*
X155847503Y-88863783D01*
X155850000Y-88864112D01*
X155989532Y-88845742D01*
X156119556Y-88791885D01*
X156231210Y-88706210D01*
X156316885Y-88594556D01*
X156370742Y-88464532D01*
X156389112Y-88325000D01*
X156370742Y-88185468D01*
X156316885Y-88055444D01*
X156301879Y-88035888D01*
X156231210Y-87943789D01*
X156206775Y-87925040D01*
X156167700Y-87874116D01*
X156159322Y-87810478D01*
X156183885Y-87751177D01*
X156185999Y-87748423D01*
X156239856Y-87618399D01*
X156258226Y-87478867D01*
X156239856Y-87339335D01*
X156185999Y-87209311D01*
X156100324Y-87097657D01*
X156061075Y-87067540D01*
X156027155Y-87027527D01*
X156012814Y-86977067D01*
X156020620Y-86925194D01*
X156027071Y-86908185D01*
X156065149Y-86807782D01*
X156084307Y-86650000D01*
X156065149Y-86492218D01*
X156008787Y-86343605D01*
X155918498Y-86212799D01*
X155799529Y-86107401D01*
X155799527Y-86107399D01*
X155658794Y-86033537D01*
X155557364Y-86008537D01*
X155504471Y-85995500D01*
X155345529Y-85995500D01*
X155294088Y-86008178D01*
X155191205Y-86033537D01*
X155050472Y-86107399D01*
X154931501Y-86212799D01*
X154894960Y-86265740D01*
X154850536Y-86305096D01*
X154792910Y-86319300D01*
X153769855Y-86319300D01*
X153759048Y-86318828D01*
X153756214Y-86318580D01*
X153720732Y-86315475D01*
X153683586Y-86325429D01*
X153673026Y-86327770D01*
X153634232Y-86334610D01*
X153608845Y-86345126D01*
X153576574Y-86367721D01*
X153567459Y-86373528D01*
X153534151Y-86392760D01*
X153509418Y-86422234D01*
X153502113Y-86430205D01*
X149461950Y-90470368D01*
X149410264Y-90501348D01*
X149350077Y-90504304D01*
X149295604Y-90478540D01*
X149259709Y-90430142D01*
X149218678Y-90331082D01*
X149218676Y-90331079D01*
X149133003Y-90219427D01*
X149021348Y-90133752D01*
X148891325Y-90079896D01*
X148751793Y-90061525D01*
X148612260Y-90079896D01*
X148482237Y-90133752D01*
X148370582Y-90219427D01*
X148369051Y-90221424D01*
X148325519Y-90257150D01*
X148270675Y-90269938D01*
X146123500Y-90269938D01*
X146061500Y-90253325D01*
X146016113Y-90207938D01*
X145999500Y-90145938D01*
X145999500Y-89504664D01*
X145994499Y-89453963D01*
X145985033Y-89406447D01*
X145970236Y-89357735D01*
X145970039Y-89357260D01*
X145967769Y-89353019D01*
X145946026Y-89312388D01*
X145934943Y-89295821D01*
X145919128Y-89272179D01*
X145847497Y-89200624D01*
X145847495Y-89200622D01*
X145807263Y-89173770D01*
X145762895Y-89150023D01*
X145762436Y-89149832D01*
X145713295Y-89134888D01*
X145665897Y-89125473D01*
X145615336Y-89120500D01*
X143824664Y-89120500D01*
X143824500Y-89120500D01*
X143762500Y-89103887D01*
X143717113Y-89058500D01*
X143700500Y-88996500D01*
X143700500Y-88923500D01*
X143717113Y-88861500D01*
X143762500Y-88816113D01*
X143824500Y-88799500D01*
X145615336Y-88799500D01*
X145666135Y-88794480D01*
X145679134Y-88791885D01*
X145713736Y-88784978D01*
X145762278Y-88770231D01*
X145762751Y-88770035D01*
X145807726Y-88745972D01*
X145847801Y-88719156D01*
X145919154Y-88647804D01*
X145945971Y-88607729D01*
X145970215Y-88562318D01*
X145970410Y-88561845D01*
X145984978Y-88513736D01*
X145994480Y-88466134D01*
X145997511Y-88435468D01*
X145999500Y-88415336D01*
X145999500Y-86964664D01*
X145998642Y-86955967D01*
X145994499Y-86913963D01*
X145985033Y-86866447D01*
X145970236Y-86817735D01*
X145970039Y-86817260D01*
X145967769Y-86813019D01*
X145946026Y-86772388D01*
X145919128Y-86732179D01*
X145847495Y-86660622D01*
X145807263Y-86633770D01*
X145762895Y-86610023D01*
X145762436Y-86609832D01*
X145713295Y-86594888D01*
X145665897Y-86585473D01*
X145615336Y-86580500D01*
X143824664Y-86580500D01*
X143824500Y-86580500D01*
X143762500Y-86563887D01*
X143717113Y-86518500D01*
X143700500Y-86456500D01*
X143700500Y-86383500D01*
X143717113Y-86321500D01*
X143762500Y-86276113D01*
X143824500Y-86259500D01*
X145615336Y-86259500D01*
X145666135Y-86254480D01*
X145678034Y-86252104D01*
X145713736Y-86244978D01*
X145762278Y-86230231D01*
X145762751Y-86230035D01*
X145807726Y-86205972D01*
X145847801Y-86179156D01*
X145919154Y-86107804D01*
X145945971Y-86067729D01*
X145970215Y-86022318D01*
X145970410Y-86021845D01*
X145984978Y-85973736D01*
X145994480Y-85926134D01*
X145999500Y-85875336D01*
X145999500Y-85604700D01*
X146016113Y-85542700D01*
X146061500Y-85497313D01*
X146123500Y-85480700D01*
X147133894Y-85480700D01*
X147200519Y-85500119D01*
X147246276Y-85552295D01*
X147256833Y-85620885D01*
X147245667Y-85705700D01*
X147245995Y-85708195D01*
X147240475Y-85764238D01*
X147210737Y-85812060D01*
X147132019Y-85890778D01*
X147091792Y-85917658D01*
X147044340Y-85927097D01*
X146996889Y-85917659D01*
X146964535Y-85904258D01*
X146825000Y-85885887D01*
X146685467Y-85904258D01*
X146555444Y-85958114D01*
X146443789Y-86043789D01*
X146358114Y-86155444D01*
X146304258Y-86285467D01*
X146285887Y-86425000D01*
X146304258Y-86564532D01*
X146358114Y-86694555D01*
X146443789Y-86806210D01*
X146522300Y-86866453D01*
X146555444Y-86891885D01*
X146685468Y-86945742D01*
X146825000Y-86964112D01*
X146886865Y-86955967D01*
X146947487Y-86963142D01*
X146997340Y-86998374D01*
X147024340Y-87053125D01*
X147021944Y-87114124D01*
X146990731Y-87166587D01*
X146780205Y-87377113D01*
X146772234Y-87384418D01*
X146742760Y-87409151D01*
X146723528Y-87442459D01*
X146717721Y-87451574D01*
X146695126Y-87483845D01*
X146684610Y-87509232D01*
X146677770Y-87548026D01*
X146675429Y-87558586D01*
X146665475Y-87595732D01*
X146668828Y-87634047D01*
X146669300Y-87644855D01*
X146669300Y-88643882D01*
X146656512Y-88698726D01*
X146620786Y-88742258D01*
X146618789Y-88743789D01*
X146533114Y-88855444D01*
X146479258Y-88985467D01*
X146460887Y-89125000D01*
X146479258Y-89264532D01*
X146533114Y-89394555D01*
X146618789Y-89506210D01*
X146686481Y-89558151D01*
X146730444Y-89591885D01*
X146860468Y-89645742D01*
X147000000Y-89664112D01*
X147139532Y-89645742D01*
X147269556Y-89591885D01*
X147381210Y-89506210D01*
X147466885Y-89394556D01*
X147520742Y-89264532D01*
X147539112Y-89125000D01*
X147520742Y-88985468D01*
X147466885Y-88855444D01*
X147454365Y-88839128D01*
X147381210Y-88743789D01*
X147379214Y-88742258D01*
X147343488Y-88698726D01*
X147330700Y-88643882D01*
X147330700Y-87813342D01*
X147340139Y-87765890D01*
X147367018Y-87725662D01*
X147381172Y-87711507D01*
X147468639Y-87624039D01*
X147516461Y-87594302D01*
X147572503Y-87588783D01*
X147575000Y-87589112D01*
X147714532Y-87570742D01*
X147844556Y-87516885D01*
X147956210Y-87431210D01*
X148041885Y-87319556D01*
X148095742Y-87189532D01*
X148105750Y-87113513D01*
X148127114Y-87058576D01*
X148171432Y-87019711D01*
X148228689Y-87005700D01*
X149343882Y-87005700D01*
X149398726Y-87018488D01*
X149442258Y-87054214D01*
X149443789Y-87056210D01*
X149508762Y-87106065D01*
X149555444Y-87141885D01*
X149685468Y-87195742D01*
X149825000Y-87214112D01*
X149964532Y-87195742D01*
X150094556Y-87141885D01*
X150206210Y-87056210D01*
X150291885Y-86944556D01*
X150345742Y-86814532D01*
X150364112Y-86675000D01*
X150345742Y-86535468D01*
X150291885Y-86405444D01*
X150275047Y-86383500D01*
X150206210Y-86293789D01*
X150094555Y-86208114D01*
X149964532Y-86154258D01*
X149825000Y-86135887D01*
X149685467Y-86154258D01*
X149555444Y-86208114D01*
X149443789Y-86293789D01*
X149442258Y-86295786D01*
X149398726Y-86331512D01*
X149343882Y-86344300D01*
X148195844Y-86344300D01*
X148136676Y-86329273D01*
X148091849Y-86287835D01*
X148072226Y-86230029D01*
X148082565Y-86169864D01*
X148120358Y-86121924D01*
X148165989Y-86086910D01*
X148197456Y-86045901D01*
X148251664Y-85975256D01*
X148305521Y-85845232D01*
X148323891Y-85705700D01*
X148318230Y-85662700D01*
X148312725Y-85620885D01*
X148323282Y-85552295D01*
X148369039Y-85500119D01*
X148435664Y-85480700D01*
X149030145Y-85480700D01*
X149040951Y-85481171D01*
X149079267Y-85484524D01*
X149116421Y-85474567D01*
X149126964Y-85472230D01*
X149164851Y-85465551D01*
X149164852Y-85465549D01*
X149165777Y-85465387D01*
X149191147Y-85454877D01*
X149191912Y-85454340D01*
X149191916Y-85454340D01*
X149223426Y-85432275D01*
X149232544Y-85426467D01*
X149265849Y-85407239D01*
X149290586Y-85377756D01*
X149297873Y-85369805D01*
X150725660Y-83942019D01*
X150765889Y-83915139D01*
X150813342Y-83905700D01*
X154217910Y-83905700D01*
X154275536Y-83919904D01*
X154319959Y-83959259D01*
X154333240Y-83978500D01*
X154356501Y-84012200D01*
X154475472Y-84117600D01*
X154584521Y-84174833D01*
X154616207Y-84191463D01*
X154770529Y-84229500D01*
X154929470Y-84229500D01*
X154929471Y-84229500D01*
X155083793Y-84191463D01*
X155224529Y-84117599D01*
X155343498Y-84012201D01*
X155433787Y-83881395D01*
X155490149Y-83732782D01*
X155509307Y-83575000D01*
X155493093Y-83441469D01*
X155503113Y-83375635D01*
X155545749Y-83324476D01*
X155608702Y-83302752D01*
X155673815Y-83316730D01*
G37*
%TD.AperFunction*%
%TA.AperFunction,Conductor*%
G36*
X164028500Y-77997313D02*
G01*
X164073887Y-78042700D01*
X164090500Y-78104700D01*
X164090500Y-78375340D01*
X164095473Y-78425898D01*
X164104888Y-78473293D01*
X164119622Y-78521927D01*
X164119810Y-78522383D01*
X164119815Y-78522392D01*
X164143769Y-78567261D01*
X164170625Y-78607499D01*
X164242179Y-78679128D01*
X164282386Y-78706025D01*
X164327260Y-78730039D01*
X164327735Y-78730236D01*
X164376447Y-78745033D01*
X164423963Y-78754499D01*
X164474664Y-78759500D01*
X166275500Y-78759500D01*
X166337500Y-78776113D01*
X166382887Y-78821500D01*
X166399500Y-78883500D01*
X166399500Y-78956500D01*
X166382887Y-79018500D01*
X166337500Y-79063887D01*
X166275500Y-79080500D01*
X166275336Y-79080500D01*
X164474664Y-79080500D01*
X164470153Y-79080942D01*
X164424200Y-79085453D01*
X164376886Y-79094833D01*
X164327872Y-79109705D01*
X164327383Y-79109908D01*
X164282837Y-79133722D01*
X164242474Y-79160657D01*
X164203018Y-79193018D01*
X164170657Y-79232474D01*
X164143722Y-79272837D01*
X164119908Y-79317383D01*
X164119705Y-79317872D01*
X164104833Y-79366886D01*
X164095453Y-79414200D01*
X164090500Y-79464665D01*
X164090500Y-80915340D01*
X164095473Y-80965898D01*
X164104888Y-81013293D01*
X164119622Y-81061927D01*
X164119810Y-81062383D01*
X164119815Y-81062392D01*
X164143769Y-81107261D01*
X164170625Y-81147499D01*
X164242179Y-81219128D01*
X164282386Y-81246025D01*
X164327260Y-81270039D01*
X164327735Y-81270236D01*
X164376447Y-81285033D01*
X164423963Y-81294499D01*
X164474664Y-81299500D01*
X166275500Y-81299500D01*
X166337500Y-81316113D01*
X166382887Y-81361500D01*
X166399500Y-81423500D01*
X166399500Y-81496500D01*
X166382887Y-81558500D01*
X166337500Y-81603887D01*
X166275500Y-81620500D01*
X166275336Y-81620500D01*
X164474664Y-81620500D01*
X164470153Y-81620942D01*
X164424200Y-81625453D01*
X164376886Y-81634833D01*
X164327872Y-81649705D01*
X164327383Y-81649908D01*
X164282837Y-81673722D01*
X164242474Y-81700657D01*
X164203018Y-81733018D01*
X164170657Y-81772474D01*
X164143722Y-81812837D01*
X164119908Y-81857383D01*
X164119705Y-81857872D01*
X164104833Y-81906886D01*
X164095453Y-81954200D01*
X164090500Y-82004665D01*
X164090500Y-83455340D01*
X164095473Y-83505898D01*
X164104888Y-83553293D01*
X164119622Y-83601927D01*
X164119810Y-83602383D01*
X164119815Y-83602392D01*
X164143769Y-83647261D01*
X164170625Y-83687499D01*
X164242179Y-83759128D01*
X164282386Y-83786025D01*
X164327260Y-83810039D01*
X164327735Y-83810236D01*
X164376447Y-83825033D01*
X164423963Y-83834499D01*
X164474664Y-83839500D01*
X166275500Y-83839500D01*
X166337500Y-83856113D01*
X166382887Y-83901500D01*
X166399500Y-83963500D01*
X166399500Y-84036500D01*
X166382887Y-84098500D01*
X166337500Y-84143887D01*
X166275500Y-84160500D01*
X166275336Y-84160500D01*
X164474664Y-84160500D01*
X164470153Y-84160942D01*
X164424200Y-84165453D01*
X164376886Y-84174833D01*
X164327872Y-84189705D01*
X164327383Y-84189908D01*
X164282837Y-84213722D01*
X164242474Y-84240657D01*
X164203018Y-84273018D01*
X164170657Y-84312474D01*
X164143722Y-84352837D01*
X164119908Y-84397383D01*
X164119705Y-84397872D01*
X164104833Y-84446886D01*
X164095453Y-84494200D01*
X164090500Y-84544665D01*
X164090500Y-84815300D01*
X164073887Y-84877300D01*
X164028500Y-84922687D01*
X163966500Y-84939300D01*
X162258342Y-84939300D01*
X162210889Y-84929861D01*
X162170661Y-84902981D01*
X160697882Y-83430202D01*
X160690573Y-83422226D01*
X160684318Y-83414772D01*
X160665849Y-83392761D01*
X160665848Y-83392760D01*
X160632545Y-83373532D01*
X160623423Y-83367721D01*
X160591151Y-83345124D01*
X160565770Y-83334610D01*
X160526975Y-83327770D01*
X160516414Y-83325429D01*
X160479267Y-83315475D01*
X160443554Y-83318600D01*
X160440951Y-83318828D01*
X160430145Y-83319300D01*
X157432090Y-83319300D01*
X157374464Y-83305096D01*
X157330040Y-83265740D01*
X157319472Y-83250430D01*
X157293498Y-83212799D01*
X157174529Y-83107401D01*
X157174527Y-83107399D01*
X157033794Y-83033537D01*
X156941144Y-83010701D01*
X156879471Y-82995500D01*
X156822501Y-82995500D01*
X156756227Y-82976304D01*
X156710473Y-82924658D01*
X156699405Y-82856554D01*
X156709307Y-82775000D01*
X156695836Y-82664054D01*
X156701715Y-82608659D01*
X156731249Y-82561429D01*
X161275661Y-78017019D01*
X161315890Y-77990139D01*
X161363343Y-77980700D01*
X163966500Y-77980700D01*
X164028500Y-77997313D01*
G37*
%TD.AperFunction*%
%TA.AperFunction,Conductor*%
G36*
X148920403Y-77870139D02*
G01*
X148960631Y-77897019D01*
X153493300Y-82429688D01*
X153519696Y-82468765D01*
X153529594Y-82514871D01*
X153521561Y-82561339D01*
X153509851Y-82592215D01*
X153490692Y-82750000D01*
X153509851Y-82907782D01*
X153571552Y-83070473D01*
X153569132Y-83071390D01*
X153583426Y-83112814D01*
X153569448Y-83177926D01*
X153523802Y-83226417D01*
X153459652Y-83244300D01*
X150644846Y-83244300D01*
X150634040Y-83243828D01*
X150595733Y-83240477D01*
X150558581Y-83250430D01*
X150548030Y-83252769D01*
X150509227Y-83259611D01*
X150483848Y-83270123D01*
X150451577Y-83292720D01*
X150442456Y-83298531D01*
X150409150Y-83317760D01*
X150384419Y-83347233D01*
X150377113Y-83355205D01*
X148949339Y-84782981D01*
X148909111Y-84809861D01*
X148861658Y-84819300D01*
X146123500Y-84819300D01*
X146061500Y-84802687D01*
X146016113Y-84757300D01*
X145999500Y-84695300D01*
X145999500Y-84424664D01*
X145995569Y-84384814D01*
X145994499Y-84373963D01*
X145985033Y-84326447D01*
X145970236Y-84277735D01*
X145970039Y-84277260D01*
X145967769Y-84273019D01*
X145946026Y-84232388D01*
X145919128Y-84192179D01*
X145847495Y-84120622D01*
X145807263Y-84093770D01*
X145762895Y-84070023D01*
X145762436Y-84069832D01*
X145713295Y-84054888D01*
X145665897Y-84045473D01*
X145615336Y-84040500D01*
X143824664Y-84040500D01*
X143824500Y-84040500D01*
X143762500Y-84023887D01*
X143717113Y-83978500D01*
X143700500Y-83916500D01*
X143700500Y-83843500D01*
X143717113Y-83781500D01*
X143762500Y-83736113D01*
X143824500Y-83719500D01*
X145615336Y-83719500D01*
X145666135Y-83714480D01*
X145678034Y-83712104D01*
X145713736Y-83704978D01*
X145762278Y-83690231D01*
X145762751Y-83690035D01*
X145807726Y-83665972D01*
X145847801Y-83639156D01*
X145919154Y-83567804D01*
X145945971Y-83527729D01*
X145970215Y-83482318D01*
X145970410Y-83481845D01*
X145984978Y-83433736D01*
X145993416Y-83391463D01*
X145994480Y-83386135D01*
X145999500Y-83335336D01*
X145999500Y-81884664D01*
X145995569Y-81844814D01*
X145994499Y-81833963D01*
X145985033Y-81786447D01*
X145970236Y-81737735D01*
X145970039Y-81737260D01*
X145967769Y-81733019D01*
X145946026Y-81692388D01*
X145919128Y-81652179D01*
X145847495Y-81580622D01*
X145807263Y-81553770D01*
X145762895Y-81530023D01*
X145762436Y-81529832D01*
X145713295Y-81514888D01*
X145665897Y-81505473D01*
X145615336Y-81500500D01*
X143824664Y-81500500D01*
X143824500Y-81500500D01*
X143762500Y-81483887D01*
X143717113Y-81438500D01*
X143700500Y-81376500D01*
X143700500Y-81303500D01*
X143717113Y-81241500D01*
X143762500Y-81196113D01*
X143824500Y-81179500D01*
X145615336Y-81179500D01*
X145666135Y-81174480D01*
X145678034Y-81172104D01*
X145713736Y-81164978D01*
X145762278Y-81150231D01*
X145762751Y-81150035D01*
X145807726Y-81125972D01*
X145847801Y-81099156D01*
X145919154Y-81027804D01*
X145945971Y-80987729D01*
X145970215Y-80942318D01*
X145970410Y-80941845D01*
X145984978Y-80893736D01*
X145994480Y-80846134D01*
X145999500Y-80795336D01*
X145999500Y-79344664D01*
X145994499Y-79293963D01*
X145985033Y-79246447D01*
X145970236Y-79197735D01*
X145970039Y-79197260D01*
X145967769Y-79193019D01*
X145946026Y-79152388D01*
X145919128Y-79112179D01*
X145847495Y-79040622D01*
X145807263Y-79013770D01*
X145762895Y-78990023D01*
X145762436Y-78989832D01*
X145713295Y-78974888D01*
X145665897Y-78965473D01*
X145665896Y-78965472D01*
X145615336Y-78960500D01*
X143824664Y-78960500D01*
X143824500Y-78960500D01*
X143762500Y-78943887D01*
X143717113Y-78898500D01*
X143700500Y-78836500D01*
X143700500Y-78763500D01*
X143717113Y-78701500D01*
X143762500Y-78656113D01*
X143824500Y-78639500D01*
X145615336Y-78639500D01*
X145666135Y-78634480D01*
X145678034Y-78632104D01*
X145713736Y-78624978D01*
X145762278Y-78610231D01*
X145762751Y-78610035D01*
X145807726Y-78585972D01*
X145847801Y-78559156D01*
X145919154Y-78487804D01*
X145945971Y-78447729D01*
X145970215Y-78402318D01*
X145970410Y-78401845D01*
X145984978Y-78353736D01*
X145994480Y-78306134D01*
X145999500Y-78255336D01*
X145999500Y-77984700D01*
X146016113Y-77922700D01*
X146061500Y-77877313D01*
X146123500Y-77860700D01*
X148872950Y-77860700D01*
X148920403Y-77870139D01*
G37*
%TD.AperFunction*%
%TA.AperFunction,Conductor*%
G36*
X152603500Y-69867113D02*
G01*
X152648887Y-69912500D01*
X152665500Y-69974500D01*
X152665500Y-71151001D01*
X152674341Y-71218162D01*
X152690955Y-71280165D01*
X152707301Y-71319626D01*
X152716880Y-71342750D01*
X152758119Y-71396494D01*
X152803506Y-71441881D01*
X152857250Y-71483120D01*
X152919836Y-71509045D01*
X152981836Y-71525658D01*
X153010868Y-71529480D01*
X153048999Y-71534500D01*
X153049000Y-71534500D01*
X153420300Y-71534500D01*
X153482300Y-71551113D01*
X153527687Y-71596500D01*
X153544300Y-71658500D01*
X153544300Y-72405145D01*
X153543828Y-72415953D01*
X153540475Y-72454267D01*
X153550429Y-72491414D01*
X153552770Y-72501975D01*
X153559610Y-72540770D01*
X153570124Y-72566151D01*
X153592721Y-72598423D01*
X153598532Y-72607545D01*
X153617760Y-72640848D01*
X153647225Y-72665572D01*
X153655201Y-72672881D01*
X154552121Y-73569802D01*
X154559429Y-73577777D01*
X154584151Y-73607239D01*
X154617456Y-73626469D01*
X154626575Y-73632279D01*
X154658848Y-73654876D01*
X154684227Y-73665389D01*
X154723033Y-73672231D01*
X154733595Y-73674572D01*
X154770733Y-73684524D01*
X154809048Y-73681171D01*
X154819855Y-73680700D01*
X158202894Y-73680700D01*
X158260151Y-73694711D01*
X158304469Y-73733577D01*
X158325833Y-73788515D01*
X158329258Y-73814532D01*
X158383114Y-73944555D01*
X158468789Y-74056210D01*
X158580444Y-74141885D01*
X158710468Y-74195742D01*
X158850000Y-74214112D01*
X158989532Y-74195742D01*
X159119556Y-74141885D01*
X159231210Y-74056210D01*
X159316885Y-73944556D01*
X159370742Y-73814532D01*
X159389112Y-73675000D01*
X159370742Y-73535468D01*
X159316885Y-73405444D01*
X159316884Y-73405443D01*
X159231210Y-73293789D01*
X159119555Y-73208114D01*
X158989532Y-73154258D01*
X158833814Y-73133757D01*
X158833847Y-73133501D01*
X158790611Y-73128287D01*
X158741809Y-73093315D01*
X158707545Y-73073532D01*
X158698423Y-73067721D01*
X158666151Y-73045124D01*
X158640770Y-73034610D01*
X158601975Y-73027770D01*
X158591414Y-73025429D01*
X158554267Y-73015475D01*
X158518554Y-73018600D01*
X158515951Y-73018828D01*
X158505145Y-73019300D01*
X154988343Y-73019300D01*
X154940890Y-73009861D01*
X154900662Y-72982981D01*
X154242019Y-72324339D01*
X154215139Y-72284111D01*
X154205700Y-72236658D01*
X154205700Y-71658500D01*
X154222313Y-71596500D01*
X154267700Y-71551113D01*
X154329700Y-71534500D01*
X154520336Y-71534500D01*
X154571135Y-71529480D01*
X154583034Y-71527104D01*
X154618736Y-71519978D01*
X154667278Y-71505231D01*
X154667751Y-71505035D01*
X154712726Y-71480972D01*
X154752801Y-71454156D01*
X154824154Y-71382804D01*
X154850971Y-71342729D01*
X154875215Y-71297318D01*
X154875410Y-71296845D01*
X154889978Y-71248736D01*
X154899480Y-71201134D01*
X154904500Y-71150336D01*
X154904500Y-69974664D01*
X154904500Y-69974500D01*
X154921113Y-69912500D01*
X154966500Y-69867113D01*
X155028500Y-69850500D01*
X155086500Y-69850500D01*
X155148500Y-69867113D01*
X155193887Y-69912500D01*
X155210500Y-69974500D01*
X155210500Y-71151001D01*
X155219341Y-71218162D01*
X155235955Y-71280165D01*
X155252301Y-71319626D01*
X155261880Y-71342750D01*
X155303119Y-71396494D01*
X155348506Y-71441881D01*
X155402250Y-71483120D01*
X155464836Y-71509045D01*
X155526836Y-71525658D01*
X155555868Y-71529480D01*
X155593999Y-71534500D01*
X155594000Y-71534500D01*
X157045336Y-71534500D01*
X157096135Y-71529480D01*
X157108034Y-71527104D01*
X157143736Y-71519978D01*
X157192278Y-71505231D01*
X157192751Y-71505035D01*
X157237726Y-71480972D01*
X157277801Y-71454156D01*
X157349154Y-71382804D01*
X157375971Y-71342729D01*
X157400215Y-71297318D01*
X157400410Y-71296845D01*
X157414978Y-71248736D01*
X157424480Y-71201134D01*
X157429500Y-71150336D01*
X157429500Y-69974664D01*
X157429500Y-69974500D01*
X157446113Y-69912500D01*
X157491500Y-69867113D01*
X157553500Y-69850500D01*
X157626500Y-69850500D01*
X157688500Y-69867113D01*
X157733887Y-69912500D01*
X157750500Y-69974500D01*
X157750500Y-71151001D01*
X157759341Y-71218162D01*
X157775955Y-71280165D01*
X157792301Y-71319626D01*
X157801880Y-71342750D01*
X157843119Y-71396494D01*
X157888506Y-71441881D01*
X157942250Y-71483120D01*
X158004836Y-71509045D01*
X158066836Y-71525658D01*
X158095868Y-71529480D01*
X158133999Y-71534500D01*
X158134000Y-71534500D01*
X159590336Y-71534500D01*
X159641135Y-71529480D01*
X159653034Y-71527104D01*
X159688736Y-71519978D01*
X159737278Y-71505231D01*
X159737751Y-71505035D01*
X159782726Y-71480972D01*
X159822801Y-71454156D01*
X159894154Y-71382804D01*
X159920971Y-71342729D01*
X159945215Y-71297318D01*
X159945410Y-71296845D01*
X159959978Y-71248736D01*
X159969480Y-71201134D01*
X159974500Y-71150336D01*
X159974500Y-69974664D01*
X159974500Y-69974500D01*
X159991113Y-69912500D01*
X160036500Y-69867113D01*
X160098500Y-69850500D01*
X166275500Y-69850500D01*
X166337500Y-69867113D01*
X166382887Y-69912500D01*
X166399500Y-69974500D01*
X166399500Y-76416500D01*
X166382887Y-76478500D01*
X166337500Y-76523887D01*
X166275500Y-76540500D01*
X166275336Y-76540500D01*
X164474664Y-76540500D01*
X164470153Y-76540942D01*
X164424200Y-76545453D01*
X164376886Y-76554833D01*
X164327872Y-76569705D01*
X164327383Y-76569908D01*
X164282837Y-76593722D01*
X164242474Y-76620657D01*
X164203018Y-76653018D01*
X164170657Y-76692474D01*
X164143722Y-76732837D01*
X164119908Y-76777383D01*
X164119705Y-76777872D01*
X164104833Y-76826886D01*
X164095453Y-76874200D01*
X164090500Y-76924665D01*
X164090500Y-77195300D01*
X164073887Y-77257300D01*
X164028500Y-77302687D01*
X163966500Y-77319300D01*
X161194855Y-77319300D01*
X161184048Y-77318828D01*
X161181214Y-77318580D01*
X161145732Y-77315475D01*
X161108580Y-77325429D01*
X161098026Y-77327769D01*
X161059232Y-77334610D01*
X161033843Y-77345126D01*
X161001572Y-77367723D01*
X160992451Y-77373534D01*
X160959151Y-77392760D01*
X160934430Y-77422221D01*
X160927123Y-77430194D01*
X156265044Y-82092274D01*
X156210662Y-82124038D01*
X156147689Y-82124990D01*
X156129472Y-82120500D01*
X156129471Y-82120500D01*
X155970529Y-82120500D01*
X155919088Y-82133178D01*
X155816205Y-82158537D01*
X155675472Y-82232399D01*
X155556501Y-82337800D01*
X155466212Y-82468605D01*
X155409851Y-82617217D01*
X155390692Y-82774999D01*
X155399758Y-82849658D01*
X155406815Y-82907782D01*
X155406906Y-82908526D01*
X155396886Y-82974364D01*
X155354250Y-83025523D01*
X155291297Y-83047247D01*
X155226184Y-83033269D01*
X155083795Y-82958537D01*
X154979301Y-82932782D01*
X154929471Y-82920500D01*
X154929470Y-82920500D01*
X154928572Y-82920500D01*
X154923444Y-82919014D01*
X154914852Y-82916897D01*
X154914937Y-82916550D01*
X154862298Y-82901304D01*
X154816544Y-82849658D01*
X154805476Y-82781554D01*
X154809307Y-82750000D01*
X154809306Y-82749999D01*
X154790149Y-82592218D01*
X154733787Y-82443605D01*
X154643498Y-82312799D01*
X154546627Y-82226978D01*
X154524527Y-82207399D01*
X154383794Y-82133537D01*
X154306632Y-82114518D01*
X154229471Y-82095500D01*
X154229470Y-82095500D01*
X154145834Y-82095500D01*
X154098381Y-82086061D01*
X154058153Y-82059181D01*
X149309174Y-77310202D01*
X149301865Y-77302226D01*
X149277140Y-77272760D01*
X149243837Y-77253532D01*
X149234715Y-77247721D01*
X149202443Y-77225124D01*
X149177062Y-77214610D01*
X149138267Y-77207770D01*
X149127706Y-77205429D01*
X149090559Y-77195475D01*
X149054846Y-77198600D01*
X149052243Y-77198828D01*
X149041437Y-77199300D01*
X146123500Y-77199300D01*
X146061500Y-77182687D01*
X146016113Y-77137300D01*
X145999500Y-77075300D01*
X145999500Y-77025000D01*
X153090692Y-77025000D01*
X153109851Y-77182782D01*
X153166212Y-77331394D01*
X153175691Y-77345126D01*
X153256502Y-77462201D01*
X153333031Y-77530000D01*
X153375472Y-77567600D01*
X153516205Y-77641462D01*
X153516207Y-77641463D01*
X153670529Y-77679500D01*
X153829470Y-77679500D01*
X153829471Y-77679500D01*
X153983793Y-77641463D01*
X154124529Y-77567599D01*
X154243498Y-77462201D01*
X154333787Y-77331395D01*
X154390149Y-77182782D01*
X154409307Y-77025000D01*
X154395835Y-76914054D01*
X154401715Y-76858659D01*
X154431249Y-76811429D01*
X155901361Y-75341319D01*
X155941590Y-75314439D01*
X155989043Y-75305000D01*
X156992910Y-75305000D01*
X157050536Y-75319204D01*
X157094960Y-75358560D01*
X157131501Y-75411500D01*
X157250472Y-75516900D01*
X157391205Y-75590762D01*
X157391207Y-75590763D01*
X157545529Y-75628800D01*
X157704470Y-75628800D01*
X157704471Y-75628800D01*
X157858793Y-75590763D01*
X157999529Y-75516899D01*
X158118498Y-75411501D01*
X158208787Y-75280695D01*
X158265149Y-75132082D01*
X158284307Y-74974300D01*
X158265149Y-74816518D01*
X158208787Y-74667905D01*
X158118498Y-74537099D01*
X157999529Y-74431701D01*
X157999527Y-74431699D01*
X157858794Y-74357837D01*
X157781632Y-74338818D01*
X157704471Y-74319800D01*
X157545529Y-74319800D01*
X157494088Y-74332478D01*
X157391205Y-74357837D01*
X157250472Y-74431699D01*
X157131501Y-74537099D01*
X157094960Y-74590040D01*
X157050536Y-74629396D01*
X156992910Y-74643600D01*
X155820555Y-74643600D01*
X155809748Y-74643128D01*
X155806914Y-74642880D01*
X155771432Y-74639775D01*
X155734286Y-74649729D01*
X155723726Y-74652070D01*
X155684931Y-74658910D01*
X155659551Y-74669423D01*
X155627266Y-74692028D01*
X155618149Y-74697835D01*
X155584851Y-74717060D01*
X155560130Y-74746521D01*
X155552824Y-74754493D01*
X153965044Y-76342274D01*
X153910662Y-76374038D01*
X153847689Y-76374990D01*
X153829472Y-76370500D01*
X153829471Y-76370500D01*
X153670529Y-76370500D01*
X153619088Y-76383178D01*
X153516205Y-76408537D01*
X153375472Y-76482399D01*
X153276700Y-76569905D01*
X153261793Y-76583112D01*
X153256501Y-76587800D01*
X153166212Y-76718605D01*
X153109851Y-76867217D01*
X153090692Y-77025000D01*
X145999500Y-77025000D01*
X145999500Y-76804664D01*
X145995569Y-76764814D01*
X145994499Y-76753963D01*
X145985033Y-76706447D01*
X145970236Y-76657735D01*
X145970039Y-76657260D01*
X145967769Y-76653019D01*
X145946026Y-76612388D01*
X145919128Y-76572179D01*
X145847495Y-76500622D01*
X145807263Y-76473770D01*
X145762895Y-76450023D01*
X145762436Y-76449832D01*
X145713295Y-76434888D01*
X145665897Y-76425473D01*
X145615336Y-76420500D01*
X143824664Y-76420500D01*
X143824500Y-76420500D01*
X143762500Y-76403887D01*
X143717113Y-76358500D01*
X143700500Y-76296500D01*
X143700500Y-69974500D01*
X143717113Y-69912500D01*
X143762500Y-69867113D01*
X143824500Y-69850500D01*
X152541500Y-69850500D01*
X152603500Y-69867113D01*
G37*
%TD.AperFunction*%
%TD*%
%TA.AperFunction,Conductor*%
%TO.N,SDA1*%
G36*
X157093371Y-69859933D02*
G01*
X157133592Y-69886798D01*
X157160476Y-69927006D01*
X157160544Y-69927170D01*
X157170000Y-69974664D01*
X157170000Y-71150336D01*
X157160498Y-71197938D01*
X157160303Y-71198411D01*
X157133486Y-71238486D01*
X157093411Y-71265302D01*
X157092938Y-71265498D01*
X157045336Y-71275000D01*
X155594000Y-71275000D01*
X155532000Y-71258387D01*
X155486613Y-71213000D01*
X155470000Y-71151000D01*
X155470000Y-69974664D01*
X155479456Y-69927170D01*
X155479524Y-69927006D01*
X155506408Y-69886798D01*
X155546629Y-69859933D01*
X155594068Y-69850500D01*
X157045932Y-69850500D01*
X157093371Y-69859933D01*
G37*
%TD.AperFunction*%
%TD*%
%TA.AperFunction,Conductor*%
%TO.N,GND*%
G36*
X166399500Y-101338050D02*
G01*
X166399500Y-101355000D01*
X164350000Y-101355000D01*
X164350000Y-99660000D01*
X166350000Y-99660000D01*
X166399500Y-101338050D01*
G37*
%TD.AperFunction*%
%TD*%
%TA.AperFunction,Conductor*%
%TO.N,F3_SDA*%
G36*
X166322828Y-81889455D02*
G01*
X166322995Y-81889524D01*
X166363202Y-81916408D01*
X166390067Y-81956629D01*
X166399500Y-82004068D01*
X166399500Y-83455932D01*
X166390067Y-83503371D01*
X166363202Y-83543592D01*
X166322995Y-83570475D01*
X166322828Y-83570544D01*
X166275336Y-83580000D01*
X164474664Y-83580000D01*
X164427148Y-83570534D01*
X164426673Y-83570337D01*
X164386466Y-83543440D01*
X164359610Y-83503202D01*
X164359416Y-83502733D01*
X164350000Y-83455336D01*
X164350000Y-82004664D01*
X164359379Y-81957355D01*
X164359577Y-81956878D01*
X164386513Y-81916513D01*
X164426878Y-81889577D01*
X164427355Y-81889379D01*
X164474664Y-81880000D01*
X166275336Y-81880000D01*
X166322828Y-81889455D01*
G37*
%TD.AperFunction*%
%TD*%
%TA.AperFunction,Conductor*%
%TO.N,SCL1*%
G36*
X159638371Y-69859933D02*
G01*
X159678592Y-69886798D01*
X159705476Y-69927006D01*
X159705544Y-69927170D01*
X159715000Y-69974664D01*
X159715000Y-71150336D01*
X159705498Y-71197938D01*
X159705303Y-71198411D01*
X159678486Y-71238486D01*
X159638411Y-71265302D01*
X159637938Y-71265498D01*
X159590336Y-71275000D01*
X158134000Y-71275000D01*
X158072000Y-71258387D01*
X158026613Y-71213000D01*
X158010000Y-71151000D01*
X158010000Y-69974664D01*
X158019456Y-69927170D01*
X158019524Y-69927006D01*
X158046408Y-69886798D01*
X158086629Y-69859933D01*
X158134068Y-69850500D01*
X159590932Y-69850500D01*
X159638371Y-69859933D01*
G37*
%TD.AperFunction*%
%TD*%
%TA.AperFunction,Conductor*%
%TO.N,Break_SDA*%
G36*
X166322828Y-97129455D02*
G01*
X166322995Y-97129524D01*
X166363202Y-97156408D01*
X166390067Y-97196629D01*
X166399500Y-97244068D01*
X166399500Y-98695932D01*
X166390067Y-98743371D01*
X166363202Y-98783592D01*
X166322995Y-98810475D01*
X166322828Y-98810544D01*
X166275336Y-98820000D01*
X164474664Y-98820000D01*
X164427148Y-98810534D01*
X164426673Y-98810337D01*
X164386466Y-98783440D01*
X164359610Y-98743202D01*
X164359416Y-98742733D01*
X164350000Y-98695336D01*
X164350000Y-97244664D01*
X164359379Y-97197355D01*
X164359577Y-97196878D01*
X164386513Y-97156513D01*
X164426878Y-97129577D01*
X164427355Y-97129379D01*
X164474664Y-97120000D01*
X166275336Y-97120000D01*
X166322828Y-97129455D01*
G37*
%TD.AperFunction*%
%TD*%
%TA.AperFunction,Conductor*%
%TO.N,GND*%
G36*
X152095000Y-71275000D02*
G01*
X150400000Y-71275000D01*
X150395000Y-71260000D01*
X150395000Y-69850500D01*
X152095000Y-69850500D01*
X152095000Y-71275000D01*
G37*
%TD.AperFunction*%
%TD*%
%TA.AperFunction,Conductor*%
%TO.N,F4_ENB*%
G36*
X166322828Y-84429455D02*
G01*
X166322995Y-84429524D01*
X166363202Y-84456408D01*
X166390067Y-84496629D01*
X166399500Y-84544068D01*
X166399500Y-85995932D01*
X166390067Y-86043371D01*
X166363202Y-86083592D01*
X166322995Y-86110475D01*
X166322828Y-86110544D01*
X166275336Y-86120000D01*
X164474664Y-86120000D01*
X164427148Y-86110534D01*
X164426673Y-86110337D01*
X164386466Y-86083440D01*
X164359610Y-86043202D01*
X164359416Y-86042733D01*
X164350000Y-85995336D01*
X164350000Y-84544664D01*
X164359379Y-84497355D01*
X164359577Y-84496878D01*
X164386513Y-84456513D01*
X164426878Y-84429577D01*
X164427355Y-84429379D01*
X164474664Y-84420000D01*
X166275336Y-84420000D01*
X166322828Y-84429455D01*
G37*
%TD.AperFunction*%
%TD*%
%TA.AperFunction,Conductor*%
%TO.N,Camera*%
G36*
X166322828Y-92049455D02*
G01*
X166322995Y-92049524D01*
X166363202Y-92076408D01*
X166390067Y-92116629D01*
X166399500Y-92164068D01*
X166399500Y-93615932D01*
X166390067Y-93663371D01*
X166363202Y-93703592D01*
X166322995Y-93730475D01*
X166322828Y-93730544D01*
X166275336Y-93740000D01*
X164474664Y-93740000D01*
X164427148Y-93730534D01*
X164426673Y-93730337D01*
X164386466Y-93703440D01*
X164359610Y-93663202D01*
X164359416Y-93662733D01*
X164350000Y-93615336D01*
X164350000Y-92164664D01*
X164359379Y-92117355D01*
X164359577Y-92116878D01*
X164386513Y-92076513D01*
X164426878Y-92049577D01*
X164427355Y-92049379D01*
X164474664Y-92040000D01*
X166275336Y-92040000D01*
X166322828Y-92049455D01*
G37*
%TD.AperFunction*%
%TD*%
%TA.AperFunction,Conductor*%
%TO.N,F4_SCL*%
G36*
X166322828Y-86969455D02*
G01*
X166322995Y-86969524D01*
X166363202Y-86996408D01*
X166390067Y-87036629D01*
X166399500Y-87084068D01*
X166399500Y-88535932D01*
X166390067Y-88583371D01*
X166363202Y-88623592D01*
X166322995Y-88650475D01*
X166322828Y-88650544D01*
X166275336Y-88660000D01*
X164474664Y-88660000D01*
X164427148Y-88650534D01*
X164426673Y-88650337D01*
X164386466Y-88623440D01*
X164359610Y-88583202D01*
X164359416Y-88582733D01*
X164350000Y-88535336D01*
X164350000Y-87084664D01*
X164359379Y-87037355D01*
X164359577Y-87036878D01*
X164386513Y-86996513D01*
X164426878Y-86969577D01*
X164427355Y-86969379D01*
X164474664Y-86960000D01*
X166275336Y-86960000D01*
X166322828Y-86969455D01*
G37*
%TD.AperFunction*%
%TD*%
%TA.AperFunction,Conductor*%
%TO.N,+3V3*%
G36*
X154568371Y-69859933D02*
G01*
X154608592Y-69886798D01*
X154635476Y-69927006D01*
X154635544Y-69927170D01*
X154645000Y-69974664D01*
X154645000Y-71150336D01*
X154635498Y-71197938D01*
X154635303Y-71198411D01*
X154608486Y-71238486D01*
X154568411Y-71265302D01*
X154567938Y-71265498D01*
X154520336Y-71275000D01*
X153049000Y-71275000D01*
X152987000Y-71258387D01*
X152941613Y-71213000D01*
X152925000Y-71151000D01*
X152925000Y-69974664D01*
X152934456Y-69927170D01*
X152934524Y-69927006D01*
X152961408Y-69886798D01*
X153001629Y-69859933D01*
X153049068Y-69850500D01*
X154520932Y-69850500D01*
X154568371Y-69859933D01*
G37*
%TD.AperFunction*%
%TD*%
%TA.AperFunction,Conductor*%
%TO.N,GND*%
G36*
X145740000Y-101245000D02*
G01*
X143700500Y-101245000D01*
X143700500Y-99540000D01*
X145740000Y-99540000D01*
X145740000Y-101245000D01*
G37*
%TD.AperFunction*%
%TD*%
%TA.AperFunction,Conductor*%
%TO.N,F0_SCL*%
G36*
X145662732Y-79229415D02*
G01*
X145663203Y-79229611D01*
X145703440Y-79256466D01*
X145730337Y-79296673D01*
X145730534Y-79297148D01*
X145740000Y-79344664D01*
X145740000Y-80795336D01*
X145730498Y-80842938D01*
X145730320Y-80843371D01*
X145730303Y-80843411D01*
X145703486Y-80883486D01*
X145663411Y-80910302D01*
X145662938Y-80910498D01*
X145615336Y-80920000D01*
X143824664Y-80920000D01*
X143777171Y-80910544D01*
X143777004Y-80910475D01*
X143736798Y-80883592D01*
X143709933Y-80843371D01*
X143700500Y-80795932D01*
X143700500Y-79344068D01*
X143709933Y-79296629D01*
X143736798Y-79256408D01*
X143777004Y-79229524D01*
X143777171Y-79229455D01*
X143824664Y-79220000D01*
X145615336Y-79220000D01*
X145662732Y-79229415D01*
G37*
%TD.AperFunction*%
%TD*%
%TA.AperFunction,Conductor*%
%TO.N,GND*%
G36*
X145740000Y-75840000D02*
G01*
X143877450Y-75840000D01*
X143870934Y-75832481D01*
X143853712Y-75816061D01*
X143835012Y-75801354D01*
X143815004Y-75788496D01*
X143793851Y-75777591D01*
X143778412Y-75771410D01*
X143737516Y-75744666D01*
X143710128Y-75704199D01*
X143700500Y-75656293D01*
X143700500Y-74140000D01*
X145740000Y-74140000D01*
X145740000Y-75840000D01*
G37*
%TD.AperFunction*%
%TD*%
%TA.AperFunction,Conductor*%
%TO.N,F0_SDA*%
G36*
X145662732Y-81769415D02*
G01*
X145663203Y-81769611D01*
X145703440Y-81796466D01*
X145730337Y-81836673D01*
X145730534Y-81837148D01*
X145740000Y-81884664D01*
X145740000Y-83335336D01*
X145730498Y-83382938D01*
X145730320Y-83383371D01*
X145730303Y-83383411D01*
X145703486Y-83423486D01*
X145663411Y-83450302D01*
X145662938Y-83450498D01*
X145615336Y-83460000D01*
X143824664Y-83460000D01*
X143777171Y-83450544D01*
X143777004Y-83450475D01*
X143736798Y-83423592D01*
X143709933Y-83383371D01*
X143700500Y-83335932D01*
X143700500Y-81884068D01*
X143709933Y-81836629D01*
X143736798Y-81796408D01*
X143777004Y-81769524D01*
X143777171Y-81769455D01*
X143824664Y-81760000D01*
X145615336Y-81760000D01*
X145662732Y-81769415D01*
G37*
%TD.AperFunction*%
%TD*%
%TA.AperFunction,Conductor*%
%TO.N,F1_SCL*%
G36*
X145662732Y-86849415D02*
G01*
X145663203Y-86849611D01*
X145703440Y-86876466D01*
X145730337Y-86916673D01*
X145730534Y-86917148D01*
X145740000Y-86964664D01*
X145740000Y-88415336D01*
X145730498Y-88462938D01*
X145730320Y-88463371D01*
X145730303Y-88463411D01*
X145703486Y-88503486D01*
X145663411Y-88530302D01*
X145662938Y-88530498D01*
X145615336Y-88540000D01*
X143824664Y-88540000D01*
X143777171Y-88530544D01*
X143777004Y-88530475D01*
X143736798Y-88503592D01*
X143709933Y-88463371D01*
X143700500Y-88415932D01*
X143700500Y-86964068D01*
X143709933Y-86916629D01*
X143736798Y-86876408D01*
X143777004Y-86849524D01*
X143777171Y-86849455D01*
X143824664Y-86840000D01*
X145615336Y-86840000D01*
X145662732Y-86849415D01*
G37*
%TD.AperFunction*%
%TD*%
%TA.AperFunction,Conductor*%
%TO.N,F2_ENB*%
G36*
X145662732Y-91929415D02*
G01*
X145663203Y-91929611D01*
X145703440Y-91956466D01*
X145730337Y-91996673D01*
X145730534Y-91997148D01*
X145740000Y-92044664D01*
X145740000Y-92235640D01*
X145738939Y-92251826D01*
X145735887Y-92275000D01*
X145738939Y-92298174D01*
X145740000Y-92314360D01*
X145740000Y-93495336D01*
X145730498Y-93542938D01*
X145730320Y-93543371D01*
X145730303Y-93543411D01*
X145703486Y-93583486D01*
X145663411Y-93610302D01*
X145662938Y-93610498D01*
X145615336Y-93620000D01*
X143824664Y-93620000D01*
X143777171Y-93610544D01*
X143777004Y-93610475D01*
X143736798Y-93583592D01*
X143709933Y-93543371D01*
X143700500Y-93495932D01*
X143700500Y-92044068D01*
X143709933Y-91996629D01*
X143736798Y-91956408D01*
X143777004Y-91929524D01*
X143777171Y-91929455D01*
X143824664Y-91920000D01*
X145615336Y-91920000D01*
X145662732Y-91929415D01*
G37*
%TD.AperFunction*%
%TD*%
%TA.AperFunction,Conductor*%
%TO.N,F0_ENB*%
G36*
X145662732Y-76689415D02*
G01*
X145663203Y-76689611D01*
X145703440Y-76716466D01*
X145730337Y-76756673D01*
X145730534Y-76757148D01*
X145740000Y-76804664D01*
X145740000Y-78255336D01*
X145730498Y-78302938D01*
X145730320Y-78303371D01*
X145730303Y-78303411D01*
X145703486Y-78343486D01*
X145663411Y-78370302D01*
X145662938Y-78370498D01*
X145615336Y-78380000D01*
X143824664Y-78380000D01*
X143777171Y-78370544D01*
X143777004Y-78370475D01*
X143736798Y-78343592D01*
X143709933Y-78303371D01*
X143700500Y-78255932D01*
X143700500Y-76804068D01*
X143709933Y-76756629D01*
X143736798Y-76716408D01*
X143777004Y-76689524D01*
X143777171Y-76689455D01*
X143824664Y-76680000D01*
X145615336Y-76680000D01*
X145662732Y-76689415D01*
G37*
%TD.AperFunction*%
%TD*%
%TA.AperFunction,Conductor*%
%TO.N,F1_ENB*%
G36*
X145662732Y-84309415D02*
G01*
X145663203Y-84309611D01*
X145703440Y-84336466D01*
X145730337Y-84376673D01*
X145730534Y-84377148D01*
X145740000Y-84424664D01*
X145740000Y-85875336D01*
X145730498Y-85922938D01*
X145730320Y-85923371D01*
X145730303Y-85923411D01*
X145703486Y-85963486D01*
X145663411Y-85990302D01*
X145662938Y-85990498D01*
X145615336Y-86000000D01*
X143824664Y-86000000D01*
X143777171Y-85990544D01*
X143777004Y-85990475D01*
X143736798Y-85963592D01*
X143709933Y-85923371D01*
X143700500Y-85875932D01*
X143700500Y-84424068D01*
X143709933Y-84376629D01*
X143736798Y-84336408D01*
X143777004Y-84309524D01*
X143777171Y-84309455D01*
X143824664Y-84300000D01*
X145615336Y-84300000D01*
X145662732Y-84309415D01*
G37*
%TD.AperFunction*%
%TD*%
%TA.AperFunction,Conductor*%
%TO.N,F2_SCL*%
G36*
X145662732Y-94469415D02*
G01*
X145663203Y-94469611D01*
X145703440Y-94496466D01*
X145730337Y-94536673D01*
X145730534Y-94537148D01*
X145740000Y-94584664D01*
X145740000Y-96035336D01*
X145730498Y-96082938D01*
X145730320Y-96083371D01*
X145730303Y-96083411D01*
X145703486Y-96123486D01*
X145663411Y-96150302D01*
X145662938Y-96150498D01*
X145615336Y-96160000D01*
X143824664Y-96160000D01*
X143777171Y-96150544D01*
X143777004Y-96150475D01*
X143736798Y-96123592D01*
X143709933Y-96083371D01*
X143700500Y-96035932D01*
X143700500Y-94584068D01*
X143709933Y-94536629D01*
X143736798Y-94496408D01*
X143777004Y-94469524D01*
X143777171Y-94469455D01*
X143824664Y-94460000D01*
X145615336Y-94460000D01*
X145662732Y-94469415D01*
G37*
%TD.AperFunction*%
%TD*%
%TA.AperFunction,Conductor*%
%TO.N,F2_SDA*%
G36*
X145662732Y-97009415D02*
G01*
X145663203Y-97009611D01*
X145703440Y-97036466D01*
X145730337Y-97076673D01*
X145730534Y-97077148D01*
X145740000Y-97124664D01*
X145740000Y-98575336D01*
X145730498Y-98622938D01*
X145730320Y-98623371D01*
X145730303Y-98623411D01*
X145703486Y-98663486D01*
X145663411Y-98690302D01*
X145662938Y-98690498D01*
X145615336Y-98700000D01*
X143824664Y-98700000D01*
X143777171Y-98690544D01*
X143777004Y-98690475D01*
X143736798Y-98663592D01*
X143709933Y-98623371D01*
X143700500Y-98575932D01*
X143700500Y-97124068D01*
X143709933Y-97076629D01*
X143736798Y-97036408D01*
X143777004Y-97009524D01*
X143777171Y-97009455D01*
X143824664Y-97000000D01*
X145615336Y-97000000D01*
X145662732Y-97009415D01*
G37*
%TD.AperFunction*%
%TD*%
%TA.AperFunction,Conductor*%
%TO.N,F1_SDA*%
G36*
X145662732Y-89389415D02*
G01*
X145663203Y-89389611D01*
X145703440Y-89416466D01*
X145730337Y-89456673D01*
X145730534Y-89457148D01*
X145740000Y-89504664D01*
X145740000Y-90955336D01*
X145730498Y-91002938D01*
X145730320Y-91003371D01*
X145730303Y-91003411D01*
X145703486Y-91043486D01*
X145663411Y-91070302D01*
X145662938Y-91070498D01*
X145615336Y-91080000D01*
X143824664Y-91080000D01*
X143777171Y-91070544D01*
X143777004Y-91070475D01*
X143736798Y-91043592D01*
X143709933Y-91003371D01*
X143700500Y-90955932D01*
X143700500Y-89504068D01*
X143709933Y-89456629D01*
X143736798Y-89416408D01*
X143777004Y-89389524D01*
X143777171Y-89389455D01*
X143824664Y-89380000D01*
X145615336Y-89380000D01*
X145662732Y-89389415D01*
G37*
%TD.AperFunction*%
%TD*%
M02*
