%TF.GenerationSoftware,KiCad,Pcbnew,8.0.2-1*%
%TF.CreationDate,2024-05-29T23:20:37-07:00*%
%TF.ProjectId,mux_driver_v1,6d75785f-6472-4697-9665-725f76312e6b,rev?*%
%TF.SameCoordinates,Original*%
%TF.FileFunction,Soldermask,Bot*%
%TF.FilePolarity,Negative*%
%FSLAX46Y46*%
G04 Gerber Fmt 4.6, Leading zero omitted, Abs format (unit mm)*
G04 Created by KiCad (PCBNEW 8.0.2-1) date 2024-05-29 23:20:37*
%MOMM*%
%LPD*%
G01*
G04 APERTURE LIST*
%ADD10R,1.700000X1.700000*%
%ADD11O,1.700000X1.700000*%
G04 APERTURE END LIST*
D10*
%TO.C,J6*%
X166360000Y-75110000D03*
D11*
X166360000Y-77650000D03*
X166360000Y-80190000D03*
X166360000Y-82730000D03*
X166360000Y-85270000D03*
X166360000Y-87810000D03*
X166360000Y-90350000D03*
X166360000Y-92890000D03*
X166360000Y-95430000D03*
X166360000Y-97970000D03*
X166360000Y-100510000D03*
%TD*%
D10*
%TO.C,J4*%
X143710000Y-74990000D03*
D11*
X143710000Y-77530000D03*
X143710000Y-80070000D03*
X143710000Y-82610000D03*
X143710000Y-85150000D03*
X143710000Y-87690000D03*
X143710000Y-90230000D03*
X143710000Y-92770000D03*
X143710000Y-95310000D03*
X143710000Y-97850000D03*
X143710000Y-100390000D03*
%TD*%
D10*
%TO.C,J7*%
X151245000Y-69850000D03*
D11*
X153785000Y-69850000D03*
X156325000Y-69850000D03*
X158865000Y-69850000D03*
%TD*%
G36*
X145683039Y-94479685D02*
G01*
X145728794Y-94532489D01*
X145740000Y-94584000D01*
X145740000Y-96036000D01*
X145720315Y-96103039D01*
X145667511Y-96148794D01*
X145616000Y-96160000D01*
X143824000Y-96160000D01*
X143756961Y-96140315D01*
X143711206Y-96087511D01*
X143700000Y-96036000D01*
X143700000Y-94584000D01*
X143719685Y-94516961D01*
X143772489Y-94471206D01*
X143824000Y-94460000D01*
X145616000Y-94460000D01*
X145683039Y-94479685D01*
G37*
G36*
X166343039Y-74279685D02*
G01*
X166388794Y-74332489D01*
X166400000Y-74384000D01*
X166400000Y-75836000D01*
X166380315Y-75903039D01*
X166327511Y-75948794D01*
X166276000Y-75960000D01*
X164474000Y-75960000D01*
X164406961Y-75940315D01*
X164361206Y-75887511D01*
X164350000Y-75836000D01*
X164350000Y-74384000D01*
X164369685Y-74316961D01*
X164422489Y-74271206D01*
X164474000Y-74260000D01*
X166276000Y-74260000D01*
X166343039Y-74279685D01*
G37*
G36*
X145683039Y-86859685D02*
G01*
X145728794Y-86912489D01*
X145740000Y-86964000D01*
X145740000Y-88416000D01*
X145720315Y-88483039D01*
X145667511Y-88528794D01*
X145616000Y-88540000D01*
X143824000Y-88540000D01*
X143756961Y-88520315D01*
X143711206Y-88467511D01*
X143700000Y-88416000D01*
X143700000Y-86964000D01*
X143719685Y-86896961D01*
X143772489Y-86851206D01*
X143824000Y-86840000D01*
X145616000Y-86840000D01*
X145683039Y-86859685D01*
G37*
G36*
X166343039Y-99679685D02*
G01*
X166388794Y-99732489D01*
X166400000Y-99784000D01*
X166400000Y-101241000D01*
X166380315Y-101308039D01*
X166327511Y-101353794D01*
X166276000Y-101365000D01*
X164474000Y-101365000D01*
X164406961Y-101345315D01*
X164361206Y-101292511D01*
X164350000Y-101241000D01*
X164350000Y-99784000D01*
X164369685Y-99716961D01*
X164422489Y-99671206D01*
X164474000Y-99660000D01*
X166276000Y-99660000D01*
X166343039Y-99679685D01*
G37*
G36*
X157118039Y-69869685D02*
G01*
X157163794Y-69922489D01*
X157175000Y-69974000D01*
X157175000Y-71151000D01*
X157155315Y-71218039D01*
X157102511Y-71263794D01*
X157051000Y-71275000D01*
X155594000Y-71275000D01*
X155526961Y-71255315D01*
X155481206Y-71202511D01*
X155470000Y-71151000D01*
X155470000Y-69974000D01*
X155489685Y-69906961D01*
X155542489Y-69861206D01*
X155594000Y-69850000D01*
X157051000Y-69850000D01*
X157118039Y-69869685D01*
G37*
G36*
X166343039Y-97139685D02*
G01*
X166388794Y-97192489D01*
X166400000Y-97244000D01*
X166400000Y-98696000D01*
X166380315Y-98763039D01*
X166327511Y-98808794D01*
X166276000Y-98820000D01*
X164474000Y-98820000D01*
X164406961Y-98800315D01*
X164361206Y-98747511D01*
X164350000Y-98696000D01*
X164350000Y-97244000D01*
X164369685Y-97176961D01*
X164422489Y-97131206D01*
X164474000Y-97120000D01*
X166276000Y-97120000D01*
X166343039Y-97139685D01*
G37*
G36*
X145683039Y-81779685D02*
G01*
X145728794Y-81832489D01*
X145740000Y-81884000D01*
X145740000Y-83336000D01*
X145720315Y-83403039D01*
X145667511Y-83448794D01*
X145616000Y-83460000D01*
X143824000Y-83460000D01*
X143756961Y-83440315D01*
X143711206Y-83387511D01*
X143700000Y-83336000D01*
X143700000Y-81884000D01*
X143719685Y-81816961D01*
X143772489Y-81771206D01*
X143824000Y-81760000D01*
X145616000Y-81760000D01*
X145683039Y-81779685D01*
G37*
G36*
X145683039Y-84319685D02*
G01*
X145728794Y-84372489D01*
X145740000Y-84424000D01*
X145740000Y-85876000D01*
X145720315Y-85943039D01*
X145667511Y-85988794D01*
X145616000Y-86000000D01*
X143824000Y-86000000D01*
X143756961Y-85980315D01*
X143711206Y-85927511D01*
X143700000Y-85876000D01*
X143700000Y-84424000D01*
X143719685Y-84356961D01*
X143772489Y-84311206D01*
X143824000Y-84300000D01*
X145616000Y-84300000D01*
X145683039Y-84319685D01*
G37*
G36*
X145683039Y-91939685D02*
G01*
X145728794Y-91992489D01*
X145740000Y-92044000D01*
X145740000Y-93496000D01*
X145720315Y-93563039D01*
X145667511Y-93608794D01*
X145616000Y-93620000D01*
X143824000Y-93620000D01*
X143756961Y-93600315D01*
X143711206Y-93547511D01*
X143700000Y-93496000D01*
X143700000Y-92044000D01*
X143719685Y-91976961D01*
X143772489Y-91931206D01*
X143824000Y-91920000D01*
X145616000Y-91920000D01*
X145683039Y-91939685D01*
G37*
G36*
X166343039Y-79359685D02*
G01*
X166388794Y-79412489D01*
X166400000Y-79464000D01*
X166400000Y-80916000D01*
X166380315Y-80983039D01*
X166327511Y-81028794D01*
X166276000Y-81040000D01*
X164474000Y-81040000D01*
X164406961Y-81020315D01*
X164361206Y-80967511D01*
X164350000Y-80916000D01*
X164350000Y-79464000D01*
X164369685Y-79396961D01*
X164422489Y-79351206D01*
X164474000Y-79340000D01*
X166276000Y-79340000D01*
X166343039Y-79359685D01*
G37*
G36*
X145683039Y-89399685D02*
G01*
X145728794Y-89452489D01*
X145740000Y-89504000D01*
X145740000Y-90956000D01*
X145720315Y-91023039D01*
X145667511Y-91068794D01*
X145616000Y-91080000D01*
X143824000Y-91080000D01*
X143756961Y-91060315D01*
X143711206Y-91007511D01*
X143700000Y-90956000D01*
X143700000Y-89504000D01*
X143719685Y-89436961D01*
X143772489Y-89391206D01*
X143824000Y-89380000D01*
X145616000Y-89380000D01*
X145683039Y-89399685D01*
G37*
G36*
X166343039Y-92059685D02*
G01*
X166388794Y-92112489D01*
X166400000Y-92164000D01*
X166400000Y-93616000D01*
X166380315Y-93683039D01*
X166327511Y-93728794D01*
X166276000Y-93740000D01*
X164474000Y-93740000D01*
X164406961Y-93720315D01*
X164361206Y-93667511D01*
X164350000Y-93616000D01*
X164350000Y-92164000D01*
X164369685Y-92096961D01*
X164422489Y-92051206D01*
X164474000Y-92040000D01*
X166276000Y-92040000D01*
X166343039Y-92059685D01*
G37*
G36*
X166343039Y-81899685D02*
G01*
X166388794Y-81952489D01*
X166400000Y-82004000D01*
X166400000Y-83456000D01*
X166380315Y-83523039D01*
X166327511Y-83568794D01*
X166276000Y-83580000D01*
X164474000Y-83580000D01*
X164406961Y-83560315D01*
X164361206Y-83507511D01*
X164350000Y-83456000D01*
X164350000Y-82004000D01*
X164369685Y-81936961D01*
X164422489Y-81891206D01*
X164474000Y-81880000D01*
X166276000Y-81880000D01*
X166343039Y-81899685D01*
G37*
G36*
X145683039Y-99559685D02*
G01*
X145728794Y-99612489D01*
X145740000Y-99664000D01*
X145740000Y-101121000D01*
X145720315Y-101188039D01*
X145667511Y-101233794D01*
X145616000Y-101245000D01*
X143824000Y-101245000D01*
X143756961Y-101225315D01*
X143711206Y-101172511D01*
X143700000Y-101121000D01*
X143700000Y-99664000D01*
X143719685Y-99596961D01*
X143772489Y-99551206D01*
X143824000Y-99540000D01*
X145616000Y-99540000D01*
X145683039Y-99559685D01*
G37*
G36*
X154578039Y-69869685D02*
G01*
X154623794Y-69922489D01*
X154635000Y-69974000D01*
X154635000Y-71151000D01*
X154615315Y-71218039D01*
X154562511Y-71263794D01*
X154511000Y-71275000D01*
X153054000Y-71275000D01*
X152986961Y-71255315D01*
X152941206Y-71202511D01*
X152930000Y-71151000D01*
X152930000Y-69974000D01*
X152949685Y-69906961D01*
X153002489Y-69861206D01*
X153054000Y-69850000D01*
X154511000Y-69850000D01*
X154578039Y-69869685D01*
G37*
G36*
X166343039Y-86979685D02*
G01*
X166388794Y-87032489D01*
X166400000Y-87084000D01*
X166400000Y-88536000D01*
X166380315Y-88603039D01*
X166327511Y-88648794D01*
X166276000Y-88660000D01*
X164473273Y-88660000D01*
X164406234Y-88640315D01*
X164360479Y-88587511D01*
X164349275Y-88536729D01*
X164340734Y-87084729D01*
X164360024Y-87017575D01*
X164412558Y-86971511D01*
X164464732Y-86960000D01*
X166276000Y-86960000D01*
X166343039Y-86979685D01*
G37*
G36*
X166343039Y-94599685D02*
G01*
X166388794Y-94652489D01*
X166400000Y-94704000D01*
X166400000Y-96156000D01*
X166380315Y-96223039D01*
X166327511Y-96268794D01*
X166276000Y-96280000D01*
X164474000Y-96280000D01*
X164406961Y-96260315D01*
X164361206Y-96207511D01*
X164350000Y-96156000D01*
X164350000Y-94704000D01*
X164369685Y-94636961D01*
X164422489Y-94591206D01*
X164474000Y-94580000D01*
X166276000Y-94580000D01*
X166343039Y-94599685D01*
G37*
G36*
X145683039Y-74159685D02*
G01*
X145728794Y-74212489D01*
X145740000Y-74264000D01*
X145740000Y-75716000D01*
X145720315Y-75783039D01*
X145667511Y-75828794D01*
X145616000Y-75840000D01*
X143824000Y-75840000D01*
X143756961Y-75820315D01*
X143711206Y-75767511D01*
X143700000Y-75716000D01*
X143700000Y-74264000D01*
X143719685Y-74196961D01*
X143772489Y-74151206D01*
X143824000Y-74140000D01*
X145616000Y-74140000D01*
X145683039Y-74159685D01*
G37*
G36*
X166343039Y-76819685D02*
G01*
X166388794Y-76872489D01*
X166400000Y-76924000D01*
X166400000Y-78376000D01*
X166380315Y-78443039D01*
X166327511Y-78488794D01*
X166276000Y-78500000D01*
X164474000Y-78500000D01*
X164406961Y-78480315D01*
X164361206Y-78427511D01*
X164350000Y-78376000D01*
X164350000Y-76924000D01*
X164369685Y-76856961D01*
X164422489Y-76811206D01*
X164474000Y-76800000D01*
X166276000Y-76800000D01*
X166343039Y-76819685D01*
G37*
G36*
X145683039Y-97019685D02*
G01*
X145728794Y-97072489D01*
X145740000Y-97124000D01*
X145740000Y-98576000D01*
X145720315Y-98643039D01*
X145667511Y-98688794D01*
X145616000Y-98700000D01*
X143824000Y-98700000D01*
X143756961Y-98680315D01*
X143711206Y-98627511D01*
X143700000Y-98576000D01*
X143700000Y-97124000D01*
X143719685Y-97056961D01*
X143772489Y-97011206D01*
X143824000Y-97000000D01*
X145616000Y-97000000D01*
X145683039Y-97019685D01*
G37*
G36*
X152043039Y-69869685D02*
G01*
X152088794Y-69922489D01*
X152100000Y-69974000D01*
X152100000Y-71151000D01*
X152080315Y-71218039D01*
X152027511Y-71263794D01*
X151976000Y-71275000D01*
X150519000Y-71275000D01*
X150451961Y-71255315D01*
X150406206Y-71202511D01*
X150395000Y-71151000D01*
X150395000Y-69974000D01*
X150414685Y-69906961D01*
X150467489Y-69861206D01*
X150519000Y-69850000D01*
X151976000Y-69850000D01*
X152043039Y-69869685D01*
G37*
G36*
X166343039Y-89519685D02*
G01*
X166388794Y-89572489D01*
X166400000Y-89624000D01*
X166400000Y-91076000D01*
X166380315Y-91143039D01*
X166327511Y-91188794D01*
X166276000Y-91200000D01*
X164474000Y-91200000D01*
X164406961Y-91180315D01*
X164361206Y-91127511D01*
X164350000Y-91076000D01*
X164350000Y-89624000D01*
X164369685Y-89556961D01*
X164422489Y-89511206D01*
X164474000Y-89500000D01*
X166276000Y-89500000D01*
X166343039Y-89519685D01*
G37*
G36*
X145683039Y-76699685D02*
G01*
X145728794Y-76752489D01*
X145740000Y-76804000D01*
X145740000Y-78256000D01*
X145720315Y-78323039D01*
X145667511Y-78368794D01*
X145616000Y-78380000D01*
X143824000Y-78380000D01*
X143756961Y-78360315D01*
X143711206Y-78307511D01*
X143700000Y-78256000D01*
X143700000Y-76804000D01*
X143719685Y-76736961D01*
X143772489Y-76691206D01*
X143824000Y-76680000D01*
X145616000Y-76680000D01*
X145683039Y-76699685D01*
G37*
G36*
X166343039Y-84439685D02*
G01*
X166388794Y-84492489D01*
X166400000Y-84544000D01*
X166400000Y-85996000D01*
X166380315Y-86063039D01*
X166327511Y-86108794D01*
X166276000Y-86120000D01*
X164474000Y-86120000D01*
X164406961Y-86100315D01*
X164361206Y-86047511D01*
X164350000Y-85996000D01*
X164350000Y-84544000D01*
X164369685Y-84476961D01*
X164422489Y-84431206D01*
X164474000Y-84420000D01*
X166276000Y-84420000D01*
X166343039Y-84439685D01*
G37*
G36*
X145683039Y-79239685D02*
G01*
X145728794Y-79292489D01*
X145740000Y-79344000D01*
X145740000Y-80796000D01*
X145720315Y-80863039D01*
X145667511Y-80908794D01*
X145616000Y-80920000D01*
X143824000Y-80920000D01*
X143756961Y-80900315D01*
X143711206Y-80847511D01*
X143700000Y-80796000D01*
X143700000Y-79344000D01*
X143719685Y-79276961D01*
X143772489Y-79231206D01*
X143824000Y-79220000D01*
X145616000Y-79220000D01*
X145683039Y-79239685D01*
G37*
G36*
X159658039Y-69869685D02*
G01*
X159703794Y-69922489D01*
X159715000Y-69974000D01*
X159715000Y-71151000D01*
X159695315Y-71218039D01*
X159642511Y-71263794D01*
X159591000Y-71275000D01*
X158134000Y-71275000D01*
X158066961Y-71255315D01*
X158021206Y-71202511D01*
X158010000Y-71151000D01*
X158010000Y-69974000D01*
X158029685Y-69906961D01*
X158082489Y-69861206D01*
X158134000Y-69850000D01*
X159591000Y-69850000D01*
X159658039Y-69869685D01*
G37*
M02*
