%TF.GenerationSoftware,KiCad,Pcbnew,8.0.2-1*%
%TF.CreationDate,2024-05-29T23:20:37-07:00*%
%TF.ProjectId,mux_driver_v1,6d75785f-6472-4697-9665-725f76312e6b,rev?*%
%TF.SameCoordinates,Original*%
%TF.FileFunction,Legend,Top*%
%TF.FilePolarity,Positive*%
%FSLAX46Y46*%
G04 Gerber Fmt 4.6, Leading zero omitted, Abs format (unit mm)*
G04 Created by KiCad (PCBNEW 8.0.2-1) date 2024-05-29 23:20:37*
%MOMM*%
%LPD*%
G01*
G04 APERTURE LIST*
G04 Aperture macros list*
%AMRoundRect*
0 Rectangle with rounded corners*
0 $1 Rounding radius*
0 $2 $3 $4 $5 $6 $7 $8 $9 X,Y pos of 4 corners*
0 Add a 4 corners polygon primitive as box body*
4,1,4,$2,$3,$4,$5,$6,$7,$8,$9,$2,$3,0*
0 Add four circle primitives for the rounded corners*
1,1,$1+$1,$2,$3*
1,1,$1+$1,$4,$5*
1,1,$1+$1,$6,$7*
1,1,$1+$1,$8,$9*
0 Add four rect primitives between the rounded corners*
20,1,$1+$1,$2,$3,$4,$5,0*
20,1,$1+$1,$4,$5,$6,$7,0*
20,1,$1+$1,$6,$7,$8,$9,0*
20,1,$1+$1,$8,$9,$2,$3,0*%
G04 Aperture macros list end*
%ADD10C,0.125000*%
%ADD11C,0.187500*%
%ADD12C,0.150000*%
%ADD13C,0.254000*%
%ADD14C,0.120000*%
%ADD15C,0.200000*%
%ADD16C,0.127000*%
%ADD17R,1.700000X1.700000*%
%ADD18O,1.700000X1.700000*%
%ADD19RoundRect,0.150000X0.150000X0.625000X-0.150000X0.625000X-0.150000X-0.625000X0.150000X-0.625000X0*%
%ADD20RoundRect,0.250000X0.350000X0.650000X-0.350000X0.650000X-0.350000X-0.650000X0.350000X-0.650000X0*%
%ADD21R,0.450000X1.475000*%
%ADD22RoundRect,0.200000X-0.200000X-0.275000X0.200000X-0.275000X0.200000X0.275000X-0.200000X0.275000X0*%
%ADD23R,0.800000X0.500000*%
%ADD24R,0.800000X0.400000*%
%ADD25RoundRect,0.020500X-0.764500X-0.184500X0.764500X-0.184500X0.764500X0.184500X-0.764500X0.184500X0*%
%ADD26RoundRect,0.150000X-0.150000X-0.625000X0.150000X-0.625000X0.150000X0.625000X-0.150000X0.625000X0*%
%ADD27RoundRect,0.250000X-0.350000X-0.650000X0.350000X-0.650000X0.350000X0.650000X-0.350000X0.650000X0*%
G04 APERTURE END LIST*
D10*
X164007309Y-95971335D02*
X163673976Y-95709430D01*
X163673976Y-95971335D02*
X164007309Y-95709430D01*
X163983500Y-95542763D02*
X164007309Y-95495144D01*
X164007309Y-95495144D02*
X164007309Y-95399906D01*
X164007309Y-95399906D02*
X163983500Y-95352287D01*
X163983500Y-95352287D02*
X163935880Y-95328478D01*
X163935880Y-95328478D02*
X163912071Y-95328478D01*
X163912071Y-95328478D02*
X163864452Y-95352287D01*
X163864452Y-95352287D02*
X163840642Y-95399906D01*
X163840642Y-95399906D02*
X163840642Y-95471335D01*
X163840642Y-95471335D02*
X163816833Y-95518954D01*
X163816833Y-95518954D02*
X163769214Y-95542763D01*
X163769214Y-95542763D02*
X163745404Y-95542763D01*
X163745404Y-95542763D02*
X163697785Y-95518954D01*
X163697785Y-95518954D02*
X163673976Y-95471335D01*
X163673976Y-95471335D02*
X163673976Y-95399906D01*
X163673976Y-95399906D02*
X163697785Y-95352287D01*
X163983500Y-94899906D02*
X164007309Y-94947525D01*
X164007309Y-94947525D02*
X164007309Y-95042763D01*
X164007309Y-95042763D02*
X163983500Y-95090382D01*
X163983500Y-95090382D02*
X163959690Y-95114192D01*
X163959690Y-95114192D02*
X163912071Y-95138001D01*
X163912071Y-95138001D02*
X163769214Y-95138001D01*
X163769214Y-95138001D02*
X163721595Y-95114192D01*
X163721595Y-95114192D02*
X163697785Y-95090382D01*
X163697785Y-95090382D02*
X163673976Y-95042763D01*
X163673976Y-95042763D02*
X163673976Y-94947525D01*
X163673976Y-94947525D02*
X163697785Y-94899906D01*
X164007309Y-94614192D02*
X163983500Y-94661811D01*
X163983500Y-94661811D02*
X163935880Y-94685621D01*
X163935880Y-94685621D02*
X163507309Y-94685621D01*
X163581119Y-100811811D02*
X163557309Y-100859430D01*
X163557309Y-100859430D02*
X163557309Y-100930859D01*
X163557309Y-100930859D02*
X163581119Y-101002287D01*
X163581119Y-101002287D02*
X163628738Y-101049906D01*
X163628738Y-101049906D02*
X163676357Y-101073716D01*
X163676357Y-101073716D02*
X163771595Y-101097525D01*
X163771595Y-101097525D02*
X163843023Y-101097525D01*
X163843023Y-101097525D02*
X163938261Y-101073716D01*
X163938261Y-101073716D02*
X163985880Y-101049906D01*
X163985880Y-101049906D02*
X164033500Y-101002287D01*
X164033500Y-101002287D02*
X164057309Y-100930859D01*
X164057309Y-100930859D02*
X164057309Y-100883240D01*
X164057309Y-100883240D02*
X164033500Y-100811811D01*
X164033500Y-100811811D02*
X164009690Y-100788002D01*
X164009690Y-100788002D02*
X163843023Y-100788002D01*
X163843023Y-100788002D02*
X163843023Y-100883240D01*
X164057309Y-100573716D02*
X163557309Y-100573716D01*
X163557309Y-100573716D02*
X164057309Y-100288002D01*
X164057309Y-100288002D02*
X163557309Y-100288002D01*
X164057309Y-100049906D02*
X163557309Y-100049906D01*
X163557309Y-100049906D02*
X163557309Y-99930858D01*
X163557309Y-99930858D02*
X163581119Y-99859430D01*
X163581119Y-99859430D02*
X163628738Y-99811811D01*
X163628738Y-99811811D02*
X163676357Y-99788001D01*
X163676357Y-99788001D02*
X163771595Y-99764192D01*
X163771595Y-99764192D02*
X163843023Y-99764192D01*
X163843023Y-99764192D02*
X163938261Y-99788001D01*
X163938261Y-99788001D02*
X163985880Y-99811811D01*
X163985880Y-99811811D02*
X164033500Y-99859430D01*
X164033500Y-99859430D02*
X164057309Y-99930858D01*
X164057309Y-99930858D02*
X164057309Y-100049906D01*
X146329595Y-97167950D02*
X146329595Y-97001283D01*
X146067690Y-97001283D02*
X146567690Y-97001283D01*
X146567690Y-97001283D02*
X146567690Y-97239378D01*
X146520071Y-97406045D02*
X146543880Y-97429854D01*
X146543880Y-97429854D02*
X146567690Y-97477473D01*
X146567690Y-97477473D02*
X146567690Y-97596521D01*
X146567690Y-97596521D02*
X146543880Y-97644140D01*
X146543880Y-97644140D02*
X146520071Y-97667949D01*
X146520071Y-97667949D02*
X146472452Y-97691759D01*
X146472452Y-97691759D02*
X146424833Y-97691759D01*
X146424833Y-97691759D02*
X146353404Y-97667949D01*
X146353404Y-97667949D02*
X146067690Y-97382235D01*
X146067690Y-97382235D02*
X146067690Y-97691759D01*
X146091500Y-97882235D02*
X146067690Y-97929854D01*
X146067690Y-97929854D02*
X146067690Y-98025092D01*
X146067690Y-98025092D02*
X146091500Y-98072711D01*
X146091500Y-98072711D02*
X146139119Y-98096520D01*
X146139119Y-98096520D02*
X146162928Y-98096520D01*
X146162928Y-98096520D02*
X146210547Y-98072711D01*
X146210547Y-98072711D02*
X146234357Y-98025092D01*
X146234357Y-98025092D02*
X146234357Y-97953663D01*
X146234357Y-97953663D02*
X146258166Y-97906044D01*
X146258166Y-97906044D02*
X146305785Y-97882235D01*
X146305785Y-97882235D02*
X146329595Y-97882235D01*
X146329595Y-97882235D02*
X146377214Y-97906044D01*
X146377214Y-97906044D02*
X146401023Y-97953663D01*
X146401023Y-97953663D02*
X146401023Y-98025092D01*
X146401023Y-98025092D02*
X146377214Y-98072711D01*
X146067690Y-98525092D02*
X146567690Y-98525092D01*
X146091500Y-98525092D02*
X146067690Y-98477473D01*
X146067690Y-98477473D02*
X146067690Y-98382235D01*
X146067690Y-98382235D02*
X146091500Y-98334616D01*
X146091500Y-98334616D02*
X146115309Y-98310806D01*
X146115309Y-98310806D02*
X146162928Y-98286997D01*
X146162928Y-98286997D02*
X146305785Y-98286997D01*
X146305785Y-98286997D02*
X146353404Y-98310806D01*
X146353404Y-98310806D02*
X146377214Y-98334616D01*
X146377214Y-98334616D02*
X146401023Y-98382235D01*
X146401023Y-98382235D02*
X146401023Y-98477473D01*
X146401023Y-98477473D02*
X146377214Y-98525092D01*
X146067690Y-98977473D02*
X146329595Y-98977473D01*
X146329595Y-98977473D02*
X146377214Y-98953663D01*
X146377214Y-98953663D02*
X146401023Y-98906044D01*
X146401023Y-98906044D02*
X146401023Y-98810806D01*
X146401023Y-98810806D02*
X146377214Y-98763187D01*
X146091500Y-98977473D02*
X146067690Y-98929854D01*
X146067690Y-98929854D02*
X146067690Y-98810806D01*
X146067690Y-98810806D02*
X146091500Y-98763187D01*
X146091500Y-98763187D02*
X146139119Y-98739378D01*
X146139119Y-98739378D02*
X146186738Y-98739378D01*
X146186738Y-98739378D02*
X146234357Y-98763187D01*
X146234357Y-98763187D02*
X146258166Y-98810806D01*
X146258166Y-98810806D02*
X146258166Y-98929854D01*
X146258166Y-98929854D02*
X146281976Y-98977473D01*
X158352474Y-71983500D02*
X158423902Y-72007309D01*
X158423902Y-72007309D02*
X158542950Y-72007309D01*
X158542950Y-72007309D02*
X158590569Y-71983500D01*
X158590569Y-71983500D02*
X158614378Y-71959690D01*
X158614378Y-71959690D02*
X158638188Y-71912071D01*
X158638188Y-71912071D02*
X158638188Y-71864452D01*
X158638188Y-71864452D02*
X158614378Y-71816833D01*
X158614378Y-71816833D02*
X158590569Y-71793023D01*
X158590569Y-71793023D02*
X158542950Y-71769214D01*
X158542950Y-71769214D02*
X158447712Y-71745404D01*
X158447712Y-71745404D02*
X158400093Y-71721595D01*
X158400093Y-71721595D02*
X158376283Y-71697785D01*
X158376283Y-71697785D02*
X158352474Y-71650166D01*
X158352474Y-71650166D02*
X158352474Y-71602547D01*
X158352474Y-71602547D02*
X158376283Y-71554928D01*
X158376283Y-71554928D02*
X158400093Y-71531119D01*
X158400093Y-71531119D02*
X158447712Y-71507309D01*
X158447712Y-71507309D02*
X158566759Y-71507309D01*
X158566759Y-71507309D02*
X158638188Y-71531119D01*
X159138187Y-71959690D02*
X159114378Y-71983500D01*
X159114378Y-71983500D02*
X159042949Y-72007309D01*
X159042949Y-72007309D02*
X158995330Y-72007309D01*
X158995330Y-72007309D02*
X158923902Y-71983500D01*
X158923902Y-71983500D02*
X158876283Y-71935880D01*
X158876283Y-71935880D02*
X158852473Y-71888261D01*
X158852473Y-71888261D02*
X158828664Y-71793023D01*
X158828664Y-71793023D02*
X158828664Y-71721595D01*
X158828664Y-71721595D02*
X158852473Y-71626357D01*
X158852473Y-71626357D02*
X158876283Y-71578738D01*
X158876283Y-71578738D02*
X158923902Y-71531119D01*
X158923902Y-71531119D02*
X158995330Y-71507309D01*
X158995330Y-71507309D02*
X159042949Y-71507309D01*
X159042949Y-71507309D02*
X159114378Y-71531119D01*
X159114378Y-71531119D02*
X159138187Y-71554928D01*
X159590568Y-72007309D02*
X159352473Y-72007309D01*
X159352473Y-72007309D02*
X159352473Y-71507309D01*
X146354595Y-79367950D02*
X146354595Y-79201283D01*
X146092690Y-79201283D02*
X146592690Y-79201283D01*
X146592690Y-79201283D02*
X146592690Y-79439378D01*
X146592690Y-79725092D02*
X146592690Y-79772711D01*
X146592690Y-79772711D02*
X146568880Y-79820330D01*
X146568880Y-79820330D02*
X146545071Y-79844140D01*
X146545071Y-79844140D02*
X146497452Y-79867949D01*
X146497452Y-79867949D02*
X146402214Y-79891759D01*
X146402214Y-79891759D02*
X146283166Y-79891759D01*
X146283166Y-79891759D02*
X146187928Y-79867949D01*
X146187928Y-79867949D02*
X146140309Y-79844140D01*
X146140309Y-79844140D02*
X146116500Y-79820330D01*
X146116500Y-79820330D02*
X146092690Y-79772711D01*
X146092690Y-79772711D02*
X146092690Y-79725092D01*
X146092690Y-79725092D02*
X146116500Y-79677473D01*
X146116500Y-79677473D02*
X146140309Y-79653664D01*
X146140309Y-79653664D02*
X146187928Y-79629854D01*
X146187928Y-79629854D02*
X146283166Y-79606045D01*
X146283166Y-79606045D02*
X146402214Y-79606045D01*
X146402214Y-79606045D02*
X146497452Y-79629854D01*
X146497452Y-79629854D02*
X146545071Y-79653664D01*
X146545071Y-79653664D02*
X146568880Y-79677473D01*
X146568880Y-79677473D02*
X146592690Y-79725092D01*
X146116500Y-80082235D02*
X146092690Y-80129854D01*
X146092690Y-80129854D02*
X146092690Y-80225092D01*
X146092690Y-80225092D02*
X146116500Y-80272711D01*
X146116500Y-80272711D02*
X146164119Y-80296520D01*
X146164119Y-80296520D02*
X146187928Y-80296520D01*
X146187928Y-80296520D02*
X146235547Y-80272711D01*
X146235547Y-80272711D02*
X146259357Y-80225092D01*
X146259357Y-80225092D02*
X146259357Y-80153663D01*
X146259357Y-80153663D02*
X146283166Y-80106044D01*
X146283166Y-80106044D02*
X146330785Y-80082235D01*
X146330785Y-80082235D02*
X146354595Y-80082235D01*
X146354595Y-80082235D02*
X146402214Y-80106044D01*
X146402214Y-80106044D02*
X146426023Y-80153663D01*
X146426023Y-80153663D02*
X146426023Y-80225092D01*
X146426023Y-80225092D02*
X146402214Y-80272711D01*
X146116500Y-80725092D02*
X146092690Y-80677473D01*
X146092690Y-80677473D02*
X146092690Y-80582235D01*
X146092690Y-80582235D02*
X146116500Y-80534616D01*
X146116500Y-80534616D02*
X146140309Y-80510806D01*
X146140309Y-80510806D02*
X146187928Y-80486997D01*
X146187928Y-80486997D02*
X146330785Y-80486997D01*
X146330785Y-80486997D02*
X146378404Y-80510806D01*
X146378404Y-80510806D02*
X146402214Y-80534616D01*
X146402214Y-80534616D02*
X146426023Y-80582235D01*
X146426023Y-80582235D02*
X146426023Y-80677473D01*
X146426023Y-80677473D02*
X146402214Y-80725092D01*
X146092690Y-81010806D02*
X146116500Y-80963187D01*
X146116500Y-80963187D02*
X146164119Y-80939377D01*
X146164119Y-80939377D02*
X146592690Y-80939377D01*
X153328664Y-71482309D02*
X153638188Y-71482309D01*
X153638188Y-71482309D02*
X153471521Y-71672785D01*
X153471521Y-71672785D02*
X153542950Y-71672785D01*
X153542950Y-71672785D02*
X153590569Y-71696595D01*
X153590569Y-71696595D02*
X153614378Y-71720404D01*
X153614378Y-71720404D02*
X153638188Y-71768023D01*
X153638188Y-71768023D02*
X153638188Y-71887071D01*
X153638188Y-71887071D02*
X153614378Y-71934690D01*
X153614378Y-71934690D02*
X153590569Y-71958500D01*
X153590569Y-71958500D02*
X153542950Y-71982309D01*
X153542950Y-71982309D02*
X153400093Y-71982309D01*
X153400093Y-71982309D02*
X153352474Y-71958500D01*
X153352474Y-71958500D02*
X153328664Y-71934690D01*
X153804854Y-71648976D02*
X153923902Y-71982309D01*
X153923902Y-71982309D02*
X154042949Y-71648976D01*
X154185806Y-71482309D02*
X154495330Y-71482309D01*
X154495330Y-71482309D02*
X154328663Y-71672785D01*
X154328663Y-71672785D02*
X154400092Y-71672785D01*
X154400092Y-71672785D02*
X154447711Y-71696595D01*
X154447711Y-71696595D02*
X154471520Y-71720404D01*
X154471520Y-71720404D02*
X154495330Y-71768023D01*
X154495330Y-71768023D02*
X154495330Y-71887071D01*
X154495330Y-71887071D02*
X154471520Y-71934690D01*
X154471520Y-71934690D02*
X154447711Y-71958500D01*
X154447711Y-71958500D02*
X154400092Y-71982309D01*
X154400092Y-71982309D02*
X154257235Y-71982309D01*
X154257235Y-71982309D02*
X154209616Y-71958500D01*
X154209616Y-71958500D02*
X154185806Y-71934690D01*
X146379595Y-76867950D02*
X146379595Y-76701283D01*
X146117690Y-76701283D02*
X146617690Y-76701283D01*
X146617690Y-76701283D02*
X146617690Y-76939378D01*
X146617690Y-77225092D02*
X146617690Y-77272711D01*
X146617690Y-77272711D02*
X146593880Y-77320330D01*
X146593880Y-77320330D02*
X146570071Y-77344140D01*
X146570071Y-77344140D02*
X146522452Y-77367949D01*
X146522452Y-77367949D02*
X146427214Y-77391759D01*
X146427214Y-77391759D02*
X146308166Y-77391759D01*
X146308166Y-77391759D02*
X146212928Y-77367949D01*
X146212928Y-77367949D02*
X146165309Y-77344140D01*
X146165309Y-77344140D02*
X146141500Y-77320330D01*
X146141500Y-77320330D02*
X146117690Y-77272711D01*
X146117690Y-77272711D02*
X146117690Y-77225092D01*
X146117690Y-77225092D02*
X146141500Y-77177473D01*
X146141500Y-77177473D02*
X146165309Y-77153664D01*
X146165309Y-77153664D02*
X146212928Y-77129854D01*
X146212928Y-77129854D02*
X146308166Y-77106045D01*
X146308166Y-77106045D02*
X146427214Y-77106045D01*
X146427214Y-77106045D02*
X146522452Y-77129854D01*
X146522452Y-77129854D02*
X146570071Y-77153664D01*
X146570071Y-77153664D02*
X146593880Y-77177473D01*
X146593880Y-77177473D02*
X146617690Y-77225092D01*
X146451023Y-77606044D02*
X145951023Y-77606044D01*
X146427214Y-77606044D02*
X146451023Y-77653663D01*
X146451023Y-77653663D02*
X146451023Y-77748901D01*
X146451023Y-77748901D02*
X146427214Y-77796520D01*
X146427214Y-77796520D02*
X146403404Y-77820330D01*
X146403404Y-77820330D02*
X146355785Y-77844139D01*
X146355785Y-77844139D02*
X146212928Y-77844139D01*
X146212928Y-77844139D02*
X146165309Y-77820330D01*
X146165309Y-77820330D02*
X146141500Y-77796520D01*
X146141500Y-77796520D02*
X146117690Y-77748901D01*
X146117690Y-77748901D02*
X146117690Y-77653663D01*
X146117690Y-77653663D02*
X146141500Y-77606044D01*
X146451023Y-78010806D02*
X146117690Y-78106044D01*
X146117690Y-78106044D02*
X146355785Y-78201282D01*
X146355785Y-78201282D02*
X146117690Y-78296520D01*
X146117690Y-78296520D02*
X146451023Y-78391758D01*
X146117690Y-78582235D02*
X146451023Y-78582235D01*
X146355785Y-78582235D02*
X146403404Y-78606045D01*
X146403404Y-78606045D02*
X146427214Y-78629854D01*
X146427214Y-78629854D02*
X146451023Y-78677473D01*
X146451023Y-78677473D02*
X146451023Y-78725092D01*
X163506119Y-75461811D02*
X163482309Y-75509430D01*
X163482309Y-75509430D02*
X163482309Y-75580859D01*
X163482309Y-75580859D02*
X163506119Y-75652287D01*
X163506119Y-75652287D02*
X163553738Y-75699906D01*
X163553738Y-75699906D02*
X163601357Y-75723716D01*
X163601357Y-75723716D02*
X163696595Y-75747525D01*
X163696595Y-75747525D02*
X163768023Y-75747525D01*
X163768023Y-75747525D02*
X163863261Y-75723716D01*
X163863261Y-75723716D02*
X163910880Y-75699906D01*
X163910880Y-75699906D02*
X163958500Y-75652287D01*
X163958500Y-75652287D02*
X163982309Y-75580859D01*
X163982309Y-75580859D02*
X163982309Y-75533240D01*
X163982309Y-75533240D02*
X163958500Y-75461811D01*
X163958500Y-75461811D02*
X163934690Y-75438002D01*
X163934690Y-75438002D02*
X163768023Y-75438002D01*
X163768023Y-75438002D02*
X163768023Y-75533240D01*
X163982309Y-75223716D02*
X163482309Y-75223716D01*
X163482309Y-75223716D02*
X163982309Y-74938002D01*
X163982309Y-74938002D02*
X163482309Y-74938002D01*
X163982309Y-74699906D02*
X163482309Y-74699906D01*
X163482309Y-74699906D02*
X163482309Y-74580858D01*
X163482309Y-74580858D02*
X163506119Y-74509430D01*
X163506119Y-74509430D02*
X163553738Y-74461811D01*
X163553738Y-74461811D02*
X163601357Y-74438001D01*
X163601357Y-74438001D02*
X163696595Y-74414192D01*
X163696595Y-74414192D02*
X163768023Y-74414192D01*
X163768023Y-74414192D02*
X163863261Y-74438001D01*
X163863261Y-74438001D02*
X163910880Y-74461811D01*
X163910880Y-74461811D02*
X163958500Y-74509430D01*
X163958500Y-74509430D02*
X163982309Y-74580858D01*
X163982309Y-74580858D02*
X163982309Y-74699906D01*
X163645404Y-88507049D02*
X163645404Y-88673716D01*
X163907309Y-88673716D02*
X163407309Y-88673716D01*
X163407309Y-88673716D02*
X163407309Y-88435621D01*
X163573976Y-88030859D02*
X163907309Y-88030859D01*
X163383500Y-88149907D02*
X163740642Y-88268954D01*
X163740642Y-88268954D02*
X163740642Y-87959431D01*
X163883500Y-87792764D02*
X163907309Y-87745145D01*
X163907309Y-87745145D02*
X163907309Y-87649907D01*
X163907309Y-87649907D02*
X163883500Y-87602288D01*
X163883500Y-87602288D02*
X163835880Y-87578479D01*
X163835880Y-87578479D02*
X163812071Y-87578479D01*
X163812071Y-87578479D02*
X163764452Y-87602288D01*
X163764452Y-87602288D02*
X163740642Y-87649907D01*
X163740642Y-87649907D02*
X163740642Y-87721336D01*
X163740642Y-87721336D02*
X163716833Y-87768955D01*
X163716833Y-87768955D02*
X163669214Y-87792764D01*
X163669214Y-87792764D02*
X163645404Y-87792764D01*
X163645404Y-87792764D02*
X163597785Y-87768955D01*
X163597785Y-87768955D02*
X163573976Y-87721336D01*
X163573976Y-87721336D02*
X163573976Y-87649907D01*
X163573976Y-87649907D02*
X163597785Y-87602288D01*
X163883500Y-87149907D02*
X163907309Y-87197526D01*
X163907309Y-87197526D02*
X163907309Y-87292764D01*
X163907309Y-87292764D02*
X163883500Y-87340383D01*
X163883500Y-87340383D02*
X163859690Y-87364193D01*
X163859690Y-87364193D02*
X163812071Y-87388002D01*
X163812071Y-87388002D02*
X163669214Y-87388002D01*
X163669214Y-87388002D02*
X163621595Y-87364193D01*
X163621595Y-87364193D02*
X163597785Y-87340383D01*
X163597785Y-87340383D02*
X163573976Y-87292764D01*
X163573976Y-87292764D02*
X163573976Y-87197526D01*
X163573976Y-87197526D02*
X163597785Y-87149907D01*
X163907309Y-86864193D02*
X163883500Y-86911812D01*
X163883500Y-86911812D02*
X163835880Y-86935622D01*
X163835880Y-86935622D02*
X163407309Y-86935622D01*
X146304595Y-94592950D02*
X146304595Y-94426283D01*
X146042690Y-94426283D02*
X146542690Y-94426283D01*
X146542690Y-94426283D02*
X146542690Y-94664378D01*
X146495071Y-94831045D02*
X146518880Y-94854854D01*
X146518880Y-94854854D02*
X146542690Y-94902473D01*
X146542690Y-94902473D02*
X146542690Y-95021521D01*
X146542690Y-95021521D02*
X146518880Y-95069140D01*
X146518880Y-95069140D02*
X146495071Y-95092949D01*
X146495071Y-95092949D02*
X146447452Y-95116759D01*
X146447452Y-95116759D02*
X146399833Y-95116759D01*
X146399833Y-95116759D02*
X146328404Y-95092949D01*
X146328404Y-95092949D02*
X146042690Y-94807235D01*
X146042690Y-94807235D02*
X146042690Y-95116759D01*
X146066500Y-95307235D02*
X146042690Y-95354854D01*
X146042690Y-95354854D02*
X146042690Y-95450092D01*
X146042690Y-95450092D02*
X146066500Y-95497711D01*
X146066500Y-95497711D02*
X146114119Y-95521520D01*
X146114119Y-95521520D02*
X146137928Y-95521520D01*
X146137928Y-95521520D02*
X146185547Y-95497711D01*
X146185547Y-95497711D02*
X146209357Y-95450092D01*
X146209357Y-95450092D02*
X146209357Y-95378663D01*
X146209357Y-95378663D02*
X146233166Y-95331044D01*
X146233166Y-95331044D02*
X146280785Y-95307235D01*
X146280785Y-95307235D02*
X146304595Y-95307235D01*
X146304595Y-95307235D02*
X146352214Y-95331044D01*
X146352214Y-95331044D02*
X146376023Y-95378663D01*
X146376023Y-95378663D02*
X146376023Y-95450092D01*
X146376023Y-95450092D02*
X146352214Y-95497711D01*
X146066500Y-95950092D02*
X146042690Y-95902473D01*
X146042690Y-95902473D02*
X146042690Y-95807235D01*
X146042690Y-95807235D02*
X146066500Y-95759616D01*
X146066500Y-95759616D02*
X146090309Y-95735806D01*
X146090309Y-95735806D02*
X146137928Y-95711997D01*
X146137928Y-95711997D02*
X146280785Y-95711997D01*
X146280785Y-95711997D02*
X146328404Y-95735806D01*
X146328404Y-95735806D02*
X146352214Y-95759616D01*
X146352214Y-95759616D02*
X146376023Y-95807235D01*
X146376023Y-95807235D02*
X146376023Y-95902473D01*
X146376023Y-95902473D02*
X146352214Y-95950092D01*
X146042690Y-96235806D02*
X146066500Y-96188187D01*
X146066500Y-96188187D02*
X146114119Y-96164377D01*
X146114119Y-96164377D02*
X146542690Y-96164377D01*
X163645404Y-83382049D02*
X163645404Y-83548716D01*
X163907309Y-83548716D02*
X163407309Y-83548716D01*
X163407309Y-83548716D02*
X163407309Y-83310621D01*
X163407309Y-83167764D02*
X163407309Y-82858240D01*
X163407309Y-82858240D02*
X163597785Y-83024907D01*
X163597785Y-83024907D02*
X163597785Y-82953478D01*
X163597785Y-82953478D02*
X163621595Y-82905859D01*
X163621595Y-82905859D02*
X163645404Y-82882050D01*
X163645404Y-82882050D02*
X163693023Y-82858240D01*
X163693023Y-82858240D02*
X163812071Y-82858240D01*
X163812071Y-82858240D02*
X163859690Y-82882050D01*
X163859690Y-82882050D02*
X163883500Y-82905859D01*
X163883500Y-82905859D02*
X163907309Y-82953478D01*
X163907309Y-82953478D02*
X163907309Y-83096335D01*
X163907309Y-83096335D02*
X163883500Y-83143954D01*
X163883500Y-83143954D02*
X163859690Y-83167764D01*
X163883500Y-82667764D02*
X163907309Y-82620145D01*
X163907309Y-82620145D02*
X163907309Y-82524907D01*
X163907309Y-82524907D02*
X163883500Y-82477288D01*
X163883500Y-82477288D02*
X163835880Y-82453479D01*
X163835880Y-82453479D02*
X163812071Y-82453479D01*
X163812071Y-82453479D02*
X163764452Y-82477288D01*
X163764452Y-82477288D02*
X163740642Y-82524907D01*
X163740642Y-82524907D02*
X163740642Y-82596336D01*
X163740642Y-82596336D02*
X163716833Y-82643955D01*
X163716833Y-82643955D02*
X163669214Y-82667764D01*
X163669214Y-82667764D02*
X163645404Y-82667764D01*
X163645404Y-82667764D02*
X163597785Y-82643955D01*
X163597785Y-82643955D02*
X163573976Y-82596336D01*
X163573976Y-82596336D02*
X163573976Y-82524907D01*
X163573976Y-82524907D02*
X163597785Y-82477288D01*
X163907309Y-82024907D02*
X163407309Y-82024907D01*
X163883500Y-82024907D02*
X163907309Y-82072526D01*
X163907309Y-82072526D02*
X163907309Y-82167764D01*
X163907309Y-82167764D02*
X163883500Y-82215383D01*
X163883500Y-82215383D02*
X163859690Y-82239193D01*
X163859690Y-82239193D02*
X163812071Y-82263002D01*
X163812071Y-82263002D02*
X163669214Y-82263002D01*
X163669214Y-82263002D02*
X163621595Y-82239193D01*
X163621595Y-82239193D02*
X163597785Y-82215383D01*
X163597785Y-82215383D02*
X163573976Y-82167764D01*
X163573976Y-82167764D02*
X163573976Y-82072526D01*
X163573976Y-82072526D02*
X163597785Y-82024907D01*
X163907309Y-81572526D02*
X163645404Y-81572526D01*
X163645404Y-81572526D02*
X163597785Y-81596336D01*
X163597785Y-81596336D02*
X163573976Y-81643955D01*
X163573976Y-81643955D02*
X163573976Y-81739193D01*
X163573976Y-81739193D02*
X163597785Y-81786812D01*
X163883500Y-81572526D02*
X163907309Y-81620145D01*
X163907309Y-81620145D02*
X163907309Y-81739193D01*
X163907309Y-81739193D02*
X163883500Y-81786812D01*
X163883500Y-81786812D02*
X163835880Y-81810621D01*
X163835880Y-81810621D02*
X163788261Y-81810621D01*
X163788261Y-81810621D02*
X163740642Y-81786812D01*
X163740642Y-81786812D02*
X163716833Y-81739193D01*
X163716833Y-81739193D02*
X163716833Y-81620145D01*
X163716833Y-81620145D02*
X163693023Y-81572526D01*
X146304595Y-84392950D02*
X146304595Y-84226283D01*
X146042690Y-84226283D02*
X146542690Y-84226283D01*
X146542690Y-84226283D02*
X146542690Y-84464378D01*
X146042690Y-84916759D02*
X146042690Y-84631045D01*
X146042690Y-84773902D02*
X146542690Y-84773902D01*
X146542690Y-84773902D02*
X146471261Y-84726283D01*
X146471261Y-84726283D02*
X146423642Y-84678664D01*
X146423642Y-84678664D02*
X146399833Y-84631045D01*
X146376023Y-85131044D02*
X145876023Y-85131044D01*
X146352214Y-85131044D02*
X146376023Y-85178663D01*
X146376023Y-85178663D02*
X146376023Y-85273901D01*
X146376023Y-85273901D02*
X146352214Y-85321520D01*
X146352214Y-85321520D02*
X146328404Y-85345330D01*
X146328404Y-85345330D02*
X146280785Y-85369139D01*
X146280785Y-85369139D02*
X146137928Y-85369139D01*
X146137928Y-85369139D02*
X146090309Y-85345330D01*
X146090309Y-85345330D02*
X146066500Y-85321520D01*
X146066500Y-85321520D02*
X146042690Y-85273901D01*
X146042690Y-85273901D02*
X146042690Y-85178663D01*
X146042690Y-85178663D02*
X146066500Y-85131044D01*
X146376023Y-85535806D02*
X146042690Y-85631044D01*
X146042690Y-85631044D02*
X146280785Y-85726282D01*
X146280785Y-85726282D02*
X146042690Y-85821520D01*
X146042690Y-85821520D02*
X146376023Y-85916758D01*
X146042690Y-86107235D02*
X146376023Y-86107235D01*
X146280785Y-86107235D02*
X146328404Y-86131045D01*
X146328404Y-86131045D02*
X146352214Y-86154854D01*
X146352214Y-86154854D02*
X146376023Y-86202473D01*
X146376023Y-86202473D02*
X146376023Y-86250092D01*
X163670404Y-78357049D02*
X163670404Y-78523716D01*
X163932309Y-78523716D02*
X163432309Y-78523716D01*
X163432309Y-78523716D02*
X163432309Y-78285621D01*
X163432309Y-78142764D02*
X163432309Y-77833240D01*
X163432309Y-77833240D02*
X163622785Y-77999907D01*
X163622785Y-77999907D02*
X163622785Y-77928478D01*
X163622785Y-77928478D02*
X163646595Y-77880859D01*
X163646595Y-77880859D02*
X163670404Y-77857050D01*
X163670404Y-77857050D02*
X163718023Y-77833240D01*
X163718023Y-77833240D02*
X163837071Y-77833240D01*
X163837071Y-77833240D02*
X163884690Y-77857050D01*
X163884690Y-77857050D02*
X163908500Y-77880859D01*
X163908500Y-77880859D02*
X163932309Y-77928478D01*
X163932309Y-77928478D02*
X163932309Y-78071335D01*
X163932309Y-78071335D02*
X163908500Y-78118954D01*
X163908500Y-78118954D02*
X163884690Y-78142764D01*
X163598976Y-77618955D02*
X164098976Y-77618955D01*
X163622785Y-77618955D02*
X163598976Y-77571336D01*
X163598976Y-77571336D02*
X163598976Y-77476098D01*
X163598976Y-77476098D02*
X163622785Y-77428479D01*
X163622785Y-77428479D02*
X163646595Y-77404669D01*
X163646595Y-77404669D02*
X163694214Y-77380860D01*
X163694214Y-77380860D02*
X163837071Y-77380860D01*
X163837071Y-77380860D02*
X163884690Y-77404669D01*
X163884690Y-77404669D02*
X163908500Y-77428479D01*
X163908500Y-77428479D02*
X163932309Y-77476098D01*
X163932309Y-77476098D02*
X163932309Y-77571336D01*
X163932309Y-77571336D02*
X163908500Y-77618955D01*
X163598976Y-77214193D02*
X163932309Y-77118955D01*
X163932309Y-77118955D02*
X163694214Y-77023717D01*
X163694214Y-77023717D02*
X163932309Y-76928479D01*
X163932309Y-76928479D02*
X163598976Y-76833241D01*
X163932309Y-76642764D02*
X163598976Y-76642764D01*
X163694214Y-76642764D02*
X163646595Y-76618954D01*
X163646595Y-76618954D02*
X163622785Y-76595145D01*
X163622785Y-76595145D02*
X163598976Y-76547526D01*
X163598976Y-76547526D02*
X163598976Y-76499907D01*
X146329595Y-89517950D02*
X146329595Y-89351283D01*
X146067690Y-89351283D02*
X146567690Y-89351283D01*
X146567690Y-89351283D02*
X146567690Y-89589378D01*
X146067690Y-90041759D02*
X146067690Y-89756045D01*
X146067690Y-89898902D02*
X146567690Y-89898902D01*
X146567690Y-89898902D02*
X146496261Y-89851283D01*
X146496261Y-89851283D02*
X146448642Y-89803664D01*
X146448642Y-89803664D02*
X146424833Y-89756045D01*
X146091500Y-90232235D02*
X146067690Y-90279854D01*
X146067690Y-90279854D02*
X146067690Y-90375092D01*
X146067690Y-90375092D02*
X146091500Y-90422711D01*
X146091500Y-90422711D02*
X146139119Y-90446520D01*
X146139119Y-90446520D02*
X146162928Y-90446520D01*
X146162928Y-90446520D02*
X146210547Y-90422711D01*
X146210547Y-90422711D02*
X146234357Y-90375092D01*
X146234357Y-90375092D02*
X146234357Y-90303663D01*
X146234357Y-90303663D02*
X146258166Y-90256044D01*
X146258166Y-90256044D02*
X146305785Y-90232235D01*
X146305785Y-90232235D02*
X146329595Y-90232235D01*
X146329595Y-90232235D02*
X146377214Y-90256044D01*
X146377214Y-90256044D02*
X146401023Y-90303663D01*
X146401023Y-90303663D02*
X146401023Y-90375092D01*
X146401023Y-90375092D02*
X146377214Y-90422711D01*
X146067690Y-90875092D02*
X146567690Y-90875092D01*
X146091500Y-90875092D02*
X146067690Y-90827473D01*
X146067690Y-90827473D02*
X146067690Y-90732235D01*
X146067690Y-90732235D02*
X146091500Y-90684616D01*
X146091500Y-90684616D02*
X146115309Y-90660806D01*
X146115309Y-90660806D02*
X146162928Y-90636997D01*
X146162928Y-90636997D02*
X146305785Y-90636997D01*
X146305785Y-90636997D02*
X146353404Y-90660806D01*
X146353404Y-90660806D02*
X146377214Y-90684616D01*
X146377214Y-90684616D02*
X146401023Y-90732235D01*
X146401023Y-90732235D02*
X146401023Y-90827473D01*
X146401023Y-90827473D02*
X146377214Y-90875092D01*
X146067690Y-91327473D02*
X146329595Y-91327473D01*
X146329595Y-91327473D02*
X146377214Y-91303663D01*
X146377214Y-91303663D02*
X146401023Y-91256044D01*
X146401023Y-91256044D02*
X146401023Y-91160806D01*
X146401023Y-91160806D02*
X146377214Y-91113187D01*
X146091500Y-91327473D02*
X146067690Y-91279854D01*
X146067690Y-91279854D02*
X146067690Y-91160806D01*
X146067690Y-91160806D02*
X146091500Y-91113187D01*
X146091500Y-91113187D02*
X146139119Y-91089378D01*
X146139119Y-91089378D02*
X146186738Y-91089378D01*
X146186738Y-91089378D02*
X146234357Y-91113187D01*
X146234357Y-91113187D02*
X146258166Y-91160806D01*
X146258166Y-91160806D02*
X146258166Y-91279854D01*
X146258166Y-91279854D02*
X146281976Y-91327473D01*
X163695404Y-91082049D02*
X163695404Y-91248716D01*
X163957309Y-91248716D02*
X163457309Y-91248716D01*
X163457309Y-91248716D02*
X163457309Y-91010621D01*
X163623976Y-90605859D02*
X163957309Y-90605859D01*
X163433500Y-90724907D02*
X163790642Y-90843954D01*
X163790642Y-90843954D02*
X163790642Y-90534431D01*
X163933500Y-90367764D02*
X163957309Y-90320145D01*
X163957309Y-90320145D02*
X163957309Y-90224907D01*
X163957309Y-90224907D02*
X163933500Y-90177288D01*
X163933500Y-90177288D02*
X163885880Y-90153479D01*
X163885880Y-90153479D02*
X163862071Y-90153479D01*
X163862071Y-90153479D02*
X163814452Y-90177288D01*
X163814452Y-90177288D02*
X163790642Y-90224907D01*
X163790642Y-90224907D02*
X163790642Y-90296336D01*
X163790642Y-90296336D02*
X163766833Y-90343955D01*
X163766833Y-90343955D02*
X163719214Y-90367764D01*
X163719214Y-90367764D02*
X163695404Y-90367764D01*
X163695404Y-90367764D02*
X163647785Y-90343955D01*
X163647785Y-90343955D02*
X163623976Y-90296336D01*
X163623976Y-90296336D02*
X163623976Y-90224907D01*
X163623976Y-90224907D02*
X163647785Y-90177288D01*
X163957309Y-89724907D02*
X163457309Y-89724907D01*
X163933500Y-89724907D02*
X163957309Y-89772526D01*
X163957309Y-89772526D02*
X163957309Y-89867764D01*
X163957309Y-89867764D02*
X163933500Y-89915383D01*
X163933500Y-89915383D02*
X163909690Y-89939193D01*
X163909690Y-89939193D02*
X163862071Y-89963002D01*
X163862071Y-89963002D02*
X163719214Y-89963002D01*
X163719214Y-89963002D02*
X163671595Y-89939193D01*
X163671595Y-89939193D02*
X163647785Y-89915383D01*
X163647785Y-89915383D02*
X163623976Y-89867764D01*
X163623976Y-89867764D02*
X163623976Y-89772526D01*
X163623976Y-89772526D02*
X163647785Y-89724907D01*
X163957309Y-89272526D02*
X163695404Y-89272526D01*
X163695404Y-89272526D02*
X163647785Y-89296336D01*
X163647785Y-89296336D02*
X163623976Y-89343955D01*
X163623976Y-89343955D02*
X163623976Y-89439193D01*
X163623976Y-89439193D02*
X163647785Y-89486812D01*
X163933500Y-89272526D02*
X163957309Y-89320145D01*
X163957309Y-89320145D02*
X163957309Y-89439193D01*
X163957309Y-89439193D02*
X163933500Y-89486812D01*
X163933500Y-89486812D02*
X163885880Y-89510621D01*
X163885880Y-89510621D02*
X163838261Y-89510621D01*
X163838261Y-89510621D02*
X163790642Y-89486812D01*
X163790642Y-89486812D02*
X163766833Y-89439193D01*
X163766833Y-89439193D02*
X163766833Y-89320145D01*
X163766833Y-89320145D02*
X163743023Y-89272526D01*
X164007309Y-98496335D02*
X163673976Y-98234430D01*
X163673976Y-98496335D02*
X164007309Y-98234430D01*
X163983500Y-98067763D02*
X164007309Y-98020144D01*
X164007309Y-98020144D02*
X164007309Y-97924906D01*
X164007309Y-97924906D02*
X163983500Y-97877287D01*
X163983500Y-97877287D02*
X163935880Y-97853478D01*
X163935880Y-97853478D02*
X163912071Y-97853478D01*
X163912071Y-97853478D02*
X163864452Y-97877287D01*
X163864452Y-97877287D02*
X163840642Y-97924906D01*
X163840642Y-97924906D02*
X163840642Y-97996335D01*
X163840642Y-97996335D02*
X163816833Y-98043954D01*
X163816833Y-98043954D02*
X163769214Y-98067763D01*
X163769214Y-98067763D02*
X163745404Y-98067763D01*
X163745404Y-98067763D02*
X163697785Y-98043954D01*
X163697785Y-98043954D02*
X163673976Y-97996335D01*
X163673976Y-97996335D02*
X163673976Y-97924906D01*
X163673976Y-97924906D02*
X163697785Y-97877287D01*
X164007309Y-97424906D02*
X163507309Y-97424906D01*
X163983500Y-97424906D02*
X164007309Y-97472525D01*
X164007309Y-97472525D02*
X164007309Y-97567763D01*
X164007309Y-97567763D02*
X163983500Y-97615382D01*
X163983500Y-97615382D02*
X163959690Y-97639192D01*
X163959690Y-97639192D02*
X163912071Y-97663001D01*
X163912071Y-97663001D02*
X163769214Y-97663001D01*
X163769214Y-97663001D02*
X163721595Y-97639192D01*
X163721595Y-97639192D02*
X163697785Y-97615382D01*
X163697785Y-97615382D02*
X163673976Y-97567763D01*
X163673976Y-97567763D02*
X163673976Y-97472525D01*
X163673976Y-97472525D02*
X163697785Y-97424906D01*
X164007309Y-96972525D02*
X163745404Y-96972525D01*
X163745404Y-96972525D02*
X163697785Y-96996335D01*
X163697785Y-96996335D02*
X163673976Y-97043954D01*
X163673976Y-97043954D02*
X163673976Y-97139192D01*
X163673976Y-97139192D02*
X163697785Y-97186811D01*
X163983500Y-96972525D02*
X164007309Y-97020144D01*
X164007309Y-97020144D02*
X164007309Y-97139192D01*
X164007309Y-97139192D02*
X163983500Y-97186811D01*
X163983500Y-97186811D02*
X163935880Y-97210620D01*
X163935880Y-97210620D02*
X163888261Y-97210620D01*
X163888261Y-97210620D02*
X163840642Y-97186811D01*
X163840642Y-97186811D02*
X163816833Y-97139192D01*
X163816833Y-97139192D02*
X163816833Y-97020144D01*
X163816833Y-97020144D02*
X163793023Y-96972525D01*
X146354595Y-86992950D02*
X146354595Y-86826283D01*
X146092690Y-86826283D02*
X146592690Y-86826283D01*
X146592690Y-86826283D02*
X146592690Y-87064378D01*
X146092690Y-87516759D02*
X146092690Y-87231045D01*
X146092690Y-87373902D02*
X146592690Y-87373902D01*
X146592690Y-87373902D02*
X146521261Y-87326283D01*
X146521261Y-87326283D02*
X146473642Y-87278664D01*
X146473642Y-87278664D02*
X146449833Y-87231045D01*
X146116500Y-87707235D02*
X146092690Y-87754854D01*
X146092690Y-87754854D02*
X146092690Y-87850092D01*
X146092690Y-87850092D02*
X146116500Y-87897711D01*
X146116500Y-87897711D02*
X146164119Y-87921520D01*
X146164119Y-87921520D02*
X146187928Y-87921520D01*
X146187928Y-87921520D02*
X146235547Y-87897711D01*
X146235547Y-87897711D02*
X146259357Y-87850092D01*
X146259357Y-87850092D02*
X146259357Y-87778663D01*
X146259357Y-87778663D02*
X146283166Y-87731044D01*
X146283166Y-87731044D02*
X146330785Y-87707235D01*
X146330785Y-87707235D02*
X146354595Y-87707235D01*
X146354595Y-87707235D02*
X146402214Y-87731044D01*
X146402214Y-87731044D02*
X146426023Y-87778663D01*
X146426023Y-87778663D02*
X146426023Y-87850092D01*
X146426023Y-87850092D02*
X146402214Y-87897711D01*
X146116500Y-88350092D02*
X146092690Y-88302473D01*
X146092690Y-88302473D02*
X146092690Y-88207235D01*
X146092690Y-88207235D02*
X146116500Y-88159616D01*
X146116500Y-88159616D02*
X146140309Y-88135806D01*
X146140309Y-88135806D02*
X146187928Y-88111997D01*
X146187928Y-88111997D02*
X146330785Y-88111997D01*
X146330785Y-88111997D02*
X146378404Y-88135806D01*
X146378404Y-88135806D02*
X146402214Y-88159616D01*
X146402214Y-88159616D02*
X146426023Y-88207235D01*
X146426023Y-88207235D02*
X146426023Y-88302473D01*
X146426023Y-88302473D02*
X146402214Y-88350092D01*
X146092690Y-88635806D02*
X146116500Y-88588187D01*
X146116500Y-88588187D02*
X146164119Y-88564377D01*
X146164119Y-88564377D02*
X146592690Y-88564377D01*
X146668880Y-74713188D02*
X146692690Y-74665569D01*
X146692690Y-74665569D02*
X146692690Y-74594140D01*
X146692690Y-74594140D02*
X146668880Y-74522712D01*
X146668880Y-74522712D02*
X146621261Y-74475093D01*
X146621261Y-74475093D02*
X146573642Y-74451283D01*
X146573642Y-74451283D02*
X146478404Y-74427474D01*
X146478404Y-74427474D02*
X146406976Y-74427474D01*
X146406976Y-74427474D02*
X146311738Y-74451283D01*
X146311738Y-74451283D02*
X146264119Y-74475093D01*
X146264119Y-74475093D02*
X146216500Y-74522712D01*
X146216500Y-74522712D02*
X146192690Y-74594140D01*
X146192690Y-74594140D02*
X146192690Y-74641759D01*
X146192690Y-74641759D02*
X146216500Y-74713188D01*
X146216500Y-74713188D02*
X146240309Y-74736997D01*
X146240309Y-74736997D02*
X146406976Y-74736997D01*
X146406976Y-74736997D02*
X146406976Y-74641759D01*
X146192690Y-74951283D02*
X146692690Y-74951283D01*
X146692690Y-74951283D02*
X146192690Y-75236997D01*
X146192690Y-75236997D02*
X146692690Y-75236997D01*
X146192690Y-75475093D02*
X146692690Y-75475093D01*
X146692690Y-75475093D02*
X146692690Y-75594141D01*
X146692690Y-75594141D02*
X146668880Y-75665569D01*
X146668880Y-75665569D02*
X146621261Y-75713188D01*
X146621261Y-75713188D02*
X146573642Y-75736998D01*
X146573642Y-75736998D02*
X146478404Y-75760807D01*
X146478404Y-75760807D02*
X146406976Y-75760807D01*
X146406976Y-75760807D02*
X146311738Y-75736998D01*
X146311738Y-75736998D02*
X146264119Y-75713188D01*
X146264119Y-75713188D02*
X146216500Y-75665569D01*
X146216500Y-75665569D02*
X146192690Y-75594141D01*
X146192690Y-75594141D02*
X146192690Y-75475093D01*
D11*
X149026926Y-102573464D02*
X149026926Y-101823464D01*
X149348355Y-101894892D02*
X149384069Y-101859178D01*
X149384069Y-101859178D02*
X149455498Y-101823464D01*
X149455498Y-101823464D02*
X149634069Y-101823464D01*
X149634069Y-101823464D02*
X149705498Y-101859178D01*
X149705498Y-101859178D02*
X149741212Y-101894892D01*
X149741212Y-101894892D02*
X149776926Y-101966321D01*
X149776926Y-101966321D02*
X149776926Y-102037750D01*
X149776926Y-102037750D02*
X149741212Y-102144892D01*
X149741212Y-102144892D02*
X149312640Y-102573464D01*
X149312640Y-102573464D02*
X149776926Y-102573464D01*
X150526926Y-102502035D02*
X150491212Y-102537750D01*
X150491212Y-102537750D02*
X150384069Y-102573464D01*
X150384069Y-102573464D02*
X150312641Y-102573464D01*
X150312641Y-102573464D02*
X150205498Y-102537750D01*
X150205498Y-102537750D02*
X150134069Y-102466321D01*
X150134069Y-102466321D02*
X150098355Y-102394892D01*
X150098355Y-102394892D02*
X150062641Y-102252035D01*
X150062641Y-102252035D02*
X150062641Y-102144892D01*
X150062641Y-102144892D02*
X150098355Y-102002035D01*
X150098355Y-102002035D02*
X150134069Y-101930607D01*
X150134069Y-101930607D02*
X150205498Y-101859178D01*
X150205498Y-101859178D02*
X150312641Y-101823464D01*
X150312641Y-101823464D02*
X150384069Y-101823464D01*
X150384069Y-101823464D02*
X150491212Y-101859178D01*
X150491212Y-101859178D02*
X150526926Y-101894892D01*
X151669784Y-102180607D02*
X151776927Y-102216321D01*
X151776927Y-102216321D02*
X151812641Y-102252035D01*
X151812641Y-102252035D02*
X151848355Y-102323464D01*
X151848355Y-102323464D02*
X151848355Y-102430607D01*
X151848355Y-102430607D02*
X151812641Y-102502035D01*
X151812641Y-102502035D02*
X151776927Y-102537750D01*
X151776927Y-102537750D02*
X151705498Y-102573464D01*
X151705498Y-102573464D02*
X151419784Y-102573464D01*
X151419784Y-102573464D02*
X151419784Y-101823464D01*
X151419784Y-101823464D02*
X151669784Y-101823464D01*
X151669784Y-101823464D02*
X151741213Y-101859178D01*
X151741213Y-101859178D02*
X151776927Y-101894892D01*
X151776927Y-101894892D02*
X151812641Y-101966321D01*
X151812641Y-101966321D02*
X151812641Y-102037750D01*
X151812641Y-102037750D02*
X151776927Y-102109178D01*
X151776927Y-102109178D02*
X151741213Y-102144892D01*
X151741213Y-102144892D02*
X151669784Y-102180607D01*
X151669784Y-102180607D02*
X151419784Y-102180607D01*
X152169784Y-102573464D02*
X152169784Y-102073464D01*
X152169784Y-102216321D02*
X152205498Y-102144892D01*
X152205498Y-102144892D02*
X152241213Y-102109178D01*
X152241213Y-102109178D02*
X152312641Y-102073464D01*
X152312641Y-102073464D02*
X152384070Y-102073464D01*
X152919784Y-102537750D02*
X152848356Y-102573464D01*
X152848356Y-102573464D02*
X152705499Y-102573464D01*
X152705499Y-102573464D02*
X152634070Y-102537750D01*
X152634070Y-102537750D02*
X152598356Y-102466321D01*
X152598356Y-102466321D02*
X152598356Y-102180607D01*
X152598356Y-102180607D02*
X152634070Y-102109178D01*
X152634070Y-102109178D02*
X152705499Y-102073464D01*
X152705499Y-102073464D02*
X152848356Y-102073464D01*
X152848356Y-102073464D02*
X152919784Y-102109178D01*
X152919784Y-102109178D02*
X152955499Y-102180607D01*
X152955499Y-102180607D02*
X152955499Y-102252035D01*
X152955499Y-102252035D02*
X152598356Y-102323464D01*
X153598356Y-102573464D02*
X153598356Y-102180607D01*
X153598356Y-102180607D02*
X153562641Y-102109178D01*
X153562641Y-102109178D02*
X153491213Y-102073464D01*
X153491213Y-102073464D02*
X153348356Y-102073464D01*
X153348356Y-102073464D02*
X153276927Y-102109178D01*
X153598356Y-102537750D02*
X153526927Y-102573464D01*
X153526927Y-102573464D02*
X153348356Y-102573464D01*
X153348356Y-102573464D02*
X153276927Y-102537750D01*
X153276927Y-102537750D02*
X153241213Y-102466321D01*
X153241213Y-102466321D02*
X153241213Y-102394892D01*
X153241213Y-102394892D02*
X153276927Y-102323464D01*
X153276927Y-102323464D02*
X153348356Y-102287750D01*
X153348356Y-102287750D02*
X153526927Y-102287750D01*
X153526927Y-102287750D02*
X153598356Y-102252035D01*
X153955498Y-102573464D02*
X153955498Y-101823464D01*
X154026927Y-102287750D02*
X154241212Y-102573464D01*
X154241212Y-102073464D02*
X153955498Y-102359178D01*
X154669784Y-102573464D02*
X154598355Y-102537750D01*
X154598355Y-102537750D02*
X154562641Y-102502035D01*
X154562641Y-102502035D02*
X154526927Y-102430607D01*
X154526927Y-102430607D02*
X154526927Y-102216321D01*
X154526927Y-102216321D02*
X154562641Y-102144892D01*
X154562641Y-102144892D02*
X154598355Y-102109178D01*
X154598355Y-102109178D02*
X154669784Y-102073464D01*
X154669784Y-102073464D02*
X154776927Y-102073464D01*
X154776927Y-102073464D02*
X154848355Y-102109178D01*
X154848355Y-102109178D02*
X154884070Y-102144892D01*
X154884070Y-102144892D02*
X154919784Y-102216321D01*
X154919784Y-102216321D02*
X154919784Y-102430607D01*
X154919784Y-102430607D02*
X154884070Y-102502035D01*
X154884070Y-102502035D02*
X154848355Y-102537750D01*
X154848355Y-102537750D02*
X154776927Y-102573464D01*
X154776927Y-102573464D02*
X154669784Y-102573464D01*
X155562641Y-102073464D02*
X155562641Y-102573464D01*
X155241212Y-102073464D02*
X155241212Y-102466321D01*
X155241212Y-102466321D02*
X155276926Y-102537750D01*
X155276926Y-102537750D02*
X155348355Y-102573464D01*
X155348355Y-102573464D02*
X155455498Y-102573464D01*
X155455498Y-102573464D02*
X155526926Y-102537750D01*
X155526926Y-102537750D02*
X155562641Y-102502035D01*
X155812640Y-102073464D02*
X156098354Y-102073464D01*
X155919783Y-101823464D02*
X155919783Y-102466321D01*
X155919783Y-102466321D02*
X155955497Y-102537750D01*
X155955497Y-102537750D02*
X156026926Y-102573464D01*
X156026926Y-102573464D02*
X156098354Y-102573464D01*
X156312640Y-102537750D02*
X156384068Y-102573464D01*
X156384068Y-102573464D02*
X156526925Y-102573464D01*
X156526925Y-102573464D02*
X156598354Y-102537750D01*
X156598354Y-102537750D02*
X156634068Y-102466321D01*
X156634068Y-102466321D02*
X156634068Y-102430607D01*
X156634068Y-102430607D02*
X156598354Y-102359178D01*
X156598354Y-102359178D02*
X156526925Y-102323464D01*
X156526925Y-102323464D02*
X156419783Y-102323464D01*
X156419783Y-102323464D02*
X156348354Y-102287750D01*
X156348354Y-102287750D02*
X156312640Y-102216321D01*
X156312640Y-102216321D02*
X156312640Y-102180607D01*
X156312640Y-102180607D02*
X156348354Y-102109178D01*
X156348354Y-102109178D02*
X156419783Y-102073464D01*
X156419783Y-102073464D02*
X156526925Y-102073464D01*
X156526925Y-102073464D02*
X156598354Y-102109178D01*
X157419783Y-102073464D02*
X157705497Y-102073464D01*
X157526926Y-102573464D02*
X157526926Y-101930607D01*
X157526926Y-101930607D02*
X157562640Y-101859178D01*
X157562640Y-101859178D02*
X157634069Y-101823464D01*
X157634069Y-101823464D02*
X157705497Y-101823464D01*
X158062640Y-102573464D02*
X157991211Y-102537750D01*
X157991211Y-102537750D02*
X157955497Y-102502035D01*
X157955497Y-102502035D02*
X157919783Y-102430607D01*
X157919783Y-102430607D02*
X157919783Y-102216321D01*
X157919783Y-102216321D02*
X157955497Y-102144892D01*
X157955497Y-102144892D02*
X157991211Y-102109178D01*
X157991211Y-102109178D02*
X158062640Y-102073464D01*
X158062640Y-102073464D02*
X158169783Y-102073464D01*
X158169783Y-102073464D02*
X158241211Y-102109178D01*
X158241211Y-102109178D02*
X158276926Y-102144892D01*
X158276926Y-102144892D02*
X158312640Y-102216321D01*
X158312640Y-102216321D02*
X158312640Y-102430607D01*
X158312640Y-102430607D02*
X158276926Y-102502035D01*
X158276926Y-102502035D02*
X158241211Y-102537750D01*
X158241211Y-102537750D02*
X158169783Y-102573464D01*
X158169783Y-102573464D02*
X158062640Y-102573464D01*
X158634068Y-102573464D02*
X158634068Y-102073464D01*
X158634068Y-102216321D02*
X158669782Y-102144892D01*
X158669782Y-102144892D02*
X158705497Y-102109178D01*
X158705497Y-102109178D02*
X158776925Y-102073464D01*
X158776925Y-102073464D02*
X158848354Y-102073464D01*
X159669783Y-102573464D02*
X159669783Y-101823464D01*
X159669783Y-101823464D02*
X159919783Y-102359178D01*
X159919783Y-102359178D02*
X160169783Y-101823464D01*
X160169783Y-101823464D02*
X160169783Y-102573464D01*
X160848355Y-102073464D02*
X160848355Y-102573464D01*
X160526926Y-102073464D02*
X160526926Y-102466321D01*
X160526926Y-102466321D02*
X160562640Y-102537750D01*
X160562640Y-102537750D02*
X160634069Y-102573464D01*
X160634069Y-102573464D02*
X160741212Y-102573464D01*
X160741212Y-102573464D02*
X160812640Y-102537750D01*
X160812640Y-102537750D02*
X160848355Y-102502035D01*
X161134068Y-102573464D02*
X161526926Y-102073464D01*
X161134068Y-102073464D02*
X161526926Y-102573464D01*
D10*
X146329595Y-81817950D02*
X146329595Y-81651283D01*
X146067690Y-81651283D02*
X146567690Y-81651283D01*
X146567690Y-81651283D02*
X146567690Y-81889378D01*
X146567690Y-82175092D02*
X146567690Y-82222711D01*
X146567690Y-82222711D02*
X146543880Y-82270330D01*
X146543880Y-82270330D02*
X146520071Y-82294140D01*
X146520071Y-82294140D02*
X146472452Y-82317949D01*
X146472452Y-82317949D02*
X146377214Y-82341759D01*
X146377214Y-82341759D02*
X146258166Y-82341759D01*
X146258166Y-82341759D02*
X146162928Y-82317949D01*
X146162928Y-82317949D02*
X146115309Y-82294140D01*
X146115309Y-82294140D02*
X146091500Y-82270330D01*
X146091500Y-82270330D02*
X146067690Y-82222711D01*
X146067690Y-82222711D02*
X146067690Y-82175092D01*
X146067690Y-82175092D02*
X146091500Y-82127473D01*
X146091500Y-82127473D02*
X146115309Y-82103664D01*
X146115309Y-82103664D02*
X146162928Y-82079854D01*
X146162928Y-82079854D02*
X146258166Y-82056045D01*
X146258166Y-82056045D02*
X146377214Y-82056045D01*
X146377214Y-82056045D02*
X146472452Y-82079854D01*
X146472452Y-82079854D02*
X146520071Y-82103664D01*
X146520071Y-82103664D02*
X146543880Y-82127473D01*
X146543880Y-82127473D02*
X146567690Y-82175092D01*
X146091500Y-82532235D02*
X146067690Y-82579854D01*
X146067690Y-82579854D02*
X146067690Y-82675092D01*
X146067690Y-82675092D02*
X146091500Y-82722711D01*
X146091500Y-82722711D02*
X146139119Y-82746520D01*
X146139119Y-82746520D02*
X146162928Y-82746520D01*
X146162928Y-82746520D02*
X146210547Y-82722711D01*
X146210547Y-82722711D02*
X146234357Y-82675092D01*
X146234357Y-82675092D02*
X146234357Y-82603663D01*
X146234357Y-82603663D02*
X146258166Y-82556044D01*
X146258166Y-82556044D02*
X146305785Y-82532235D01*
X146305785Y-82532235D02*
X146329595Y-82532235D01*
X146329595Y-82532235D02*
X146377214Y-82556044D01*
X146377214Y-82556044D02*
X146401023Y-82603663D01*
X146401023Y-82603663D02*
X146401023Y-82675092D01*
X146401023Y-82675092D02*
X146377214Y-82722711D01*
X146067690Y-83175092D02*
X146567690Y-83175092D01*
X146091500Y-83175092D02*
X146067690Y-83127473D01*
X146067690Y-83127473D02*
X146067690Y-83032235D01*
X146067690Y-83032235D02*
X146091500Y-82984616D01*
X146091500Y-82984616D02*
X146115309Y-82960806D01*
X146115309Y-82960806D02*
X146162928Y-82936997D01*
X146162928Y-82936997D02*
X146305785Y-82936997D01*
X146305785Y-82936997D02*
X146353404Y-82960806D01*
X146353404Y-82960806D02*
X146377214Y-82984616D01*
X146377214Y-82984616D02*
X146401023Y-83032235D01*
X146401023Y-83032235D02*
X146401023Y-83127473D01*
X146401023Y-83127473D02*
X146377214Y-83175092D01*
X146067690Y-83627473D02*
X146329595Y-83627473D01*
X146329595Y-83627473D02*
X146377214Y-83603663D01*
X146377214Y-83603663D02*
X146401023Y-83556044D01*
X146401023Y-83556044D02*
X146401023Y-83460806D01*
X146401023Y-83460806D02*
X146377214Y-83413187D01*
X146091500Y-83627473D02*
X146067690Y-83579854D01*
X146067690Y-83579854D02*
X146067690Y-83460806D01*
X146067690Y-83460806D02*
X146091500Y-83413187D01*
X146091500Y-83413187D02*
X146139119Y-83389378D01*
X146139119Y-83389378D02*
X146186738Y-83389378D01*
X146186738Y-83389378D02*
X146234357Y-83413187D01*
X146234357Y-83413187D02*
X146258166Y-83460806D01*
X146258166Y-83460806D02*
X146258166Y-83579854D01*
X146258166Y-83579854D02*
X146281976Y-83627473D01*
X150938188Y-71481119D02*
X150890569Y-71457309D01*
X150890569Y-71457309D02*
X150819140Y-71457309D01*
X150819140Y-71457309D02*
X150747712Y-71481119D01*
X150747712Y-71481119D02*
X150700093Y-71528738D01*
X150700093Y-71528738D02*
X150676283Y-71576357D01*
X150676283Y-71576357D02*
X150652474Y-71671595D01*
X150652474Y-71671595D02*
X150652474Y-71743023D01*
X150652474Y-71743023D02*
X150676283Y-71838261D01*
X150676283Y-71838261D02*
X150700093Y-71885880D01*
X150700093Y-71885880D02*
X150747712Y-71933500D01*
X150747712Y-71933500D02*
X150819140Y-71957309D01*
X150819140Y-71957309D02*
X150866759Y-71957309D01*
X150866759Y-71957309D02*
X150938188Y-71933500D01*
X150938188Y-71933500D02*
X150961997Y-71909690D01*
X150961997Y-71909690D02*
X150961997Y-71743023D01*
X150961997Y-71743023D02*
X150866759Y-71743023D01*
X151176283Y-71957309D02*
X151176283Y-71457309D01*
X151176283Y-71457309D02*
X151461997Y-71957309D01*
X151461997Y-71957309D02*
X151461997Y-71457309D01*
X151700093Y-71957309D02*
X151700093Y-71457309D01*
X151700093Y-71457309D02*
X151819141Y-71457309D01*
X151819141Y-71457309D02*
X151890569Y-71481119D01*
X151890569Y-71481119D02*
X151938188Y-71528738D01*
X151938188Y-71528738D02*
X151961998Y-71576357D01*
X151961998Y-71576357D02*
X151985807Y-71671595D01*
X151985807Y-71671595D02*
X151985807Y-71743023D01*
X151985807Y-71743023D02*
X151961998Y-71838261D01*
X151961998Y-71838261D02*
X151938188Y-71885880D01*
X151938188Y-71885880D02*
X151890569Y-71933500D01*
X151890569Y-71933500D02*
X151819141Y-71957309D01*
X151819141Y-71957309D02*
X151700093Y-71957309D01*
X146643880Y-100163188D02*
X146667690Y-100115569D01*
X146667690Y-100115569D02*
X146667690Y-100044140D01*
X146667690Y-100044140D02*
X146643880Y-99972712D01*
X146643880Y-99972712D02*
X146596261Y-99925093D01*
X146596261Y-99925093D02*
X146548642Y-99901283D01*
X146548642Y-99901283D02*
X146453404Y-99877474D01*
X146453404Y-99877474D02*
X146381976Y-99877474D01*
X146381976Y-99877474D02*
X146286738Y-99901283D01*
X146286738Y-99901283D02*
X146239119Y-99925093D01*
X146239119Y-99925093D02*
X146191500Y-99972712D01*
X146191500Y-99972712D02*
X146167690Y-100044140D01*
X146167690Y-100044140D02*
X146167690Y-100091759D01*
X146167690Y-100091759D02*
X146191500Y-100163188D01*
X146191500Y-100163188D02*
X146215309Y-100186997D01*
X146215309Y-100186997D02*
X146381976Y-100186997D01*
X146381976Y-100186997D02*
X146381976Y-100091759D01*
X146167690Y-100401283D02*
X146667690Y-100401283D01*
X146667690Y-100401283D02*
X146167690Y-100686997D01*
X146167690Y-100686997D02*
X146667690Y-100686997D01*
X146167690Y-100925093D02*
X146667690Y-100925093D01*
X146667690Y-100925093D02*
X146667690Y-101044141D01*
X146667690Y-101044141D02*
X146643880Y-101115569D01*
X146643880Y-101115569D02*
X146596261Y-101163188D01*
X146596261Y-101163188D02*
X146548642Y-101186998D01*
X146548642Y-101186998D02*
X146453404Y-101210807D01*
X146453404Y-101210807D02*
X146381976Y-101210807D01*
X146381976Y-101210807D02*
X146286738Y-101186998D01*
X146286738Y-101186998D02*
X146239119Y-101163188D01*
X146239119Y-101163188D02*
X146191500Y-101115569D01*
X146191500Y-101115569D02*
X146167690Y-101044141D01*
X146167690Y-101044141D02*
X146167690Y-100925093D01*
D11*
X148651926Y-72948464D02*
X148651926Y-72198464D01*
X148973355Y-72269892D02*
X149009069Y-72234178D01*
X149009069Y-72234178D02*
X149080498Y-72198464D01*
X149080498Y-72198464D02*
X149259069Y-72198464D01*
X149259069Y-72198464D02*
X149330498Y-72234178D01*
X149330498Y-72234178D02*
X149366212Y-72269892D01*
X149366212Y-72269892D02*
X149401926Y-72341321D01*
X149401926Y-72341321D02*
X149401926Y-72412750D01*
X149401926Y-72412750D02*
X149366212Y-72519892D01*
X149366212Y-72519892D02*
X148937640Y-72948464D01*
X148937640Y-72948464D02*
X149401926Y-72948464D01*
X150151926Y-72877035D02*
X150116212Y-72912750D01*
X150116212Y-72912750D02*
X150009069Y-72948464D01*
X150009069Y-72948464D02*
X149937641Y-72948464D01*
X149937641Y-72948464D02*
X149830498Y-72912750D01*
X149830498Y-72912750D02*
X149759069Y-72841321D01*
X149759069Y-72841321D02*
X149723355Y-72769892D01*
X149723355Y-72769892D02*
X149687641Y-72627035D01*
X149687641Y-72627035D02*
X149687641Y-72519892D01*
X149687641Y-72519892D02*
X149723355Y-72377035D01*
X149723355Y-72377035D02*
X149759069Y-72305607D01*
X149759069Y-72305607D02*
X149830498Y-72234178D01*
X149830498Y-72234178D02*
X149937641Y-72198464D01*
X149937641Y-72198464D02*
X150009069Y-72198464D01*
X150009069Y-72198464D02*
X150116212Y-72234178D01*
X150116212Y-72234178D02*
X150151926Y-72269892D01*
X151294784Y-72555607D02*
X151401927Y-72591321D01*
X151401927Y-72591321D02*
X151437641Y-72627035D01*
X151437641Y-72627035D02*
X151473355Y-72698464D01*
X151473355Y-72698464D02*
X151473355Y-72805607D01*
X151473355Y-72805607D02*
X151437641Y-72877035D01*
X151437641Y-72877035D02*
X151401927Y-72912750D01*
X151401927Y-72912750D02*
X151330498Y-72948464D01*
X151330498Y-72948464D02*
X151044784Y-72948464D01*
X151044784Y-72948464D02*
X151044784Y-72198464D01*
X151044784Y-72198464D02*
X151294784Y-72198464D01*
X151294784Y-72198464D02*
X151366213Y-72234178D01*
X151366213Y-72234178D02*
X151401927Y-72269892D01*
X151401927Y-72269892D02*
X151437641Y-72341321D01*
X151437641Y-72341321D02*
X151437641Y-72412750D01*
X151437641Y-72412750D02*
X151401927Y-72484178D01*
X151401927Y-72484178D02*
X151366213Y-72519892D01*
X151366213Y-72519892D02*
X151294784Y-72555607D01*
X151294784Y-72555607D02*
X151044784Y-72555607D01*
X151794784Y-72948464D02*
X151794784Y-72448464D01*
X151794784Y-72591321D02*
X151830498Y-72519892D01*
X151830498Y-72519892D02*
X151866213Y-72484178D01*
X151866213Y-72484178D02*
X151937641Y-72448464D01*
X151937641Y-72448464D02*
X152009070Y-72448464D01*
X152544784Y-72912750D02*
X152473356Y-72948464D01*
X152473356Y-72948464D02*
X152330499Y-72948464D01*
X152330499Y-72948464D02*
X152259070Y-72912750D01*
X152259070Y-72912750D02*
X152223356Y-72841321D01*
X152223356Y-72841321D02*
X152223356Y-72555607D01*
X152223356Y-72555607D02*
X152259070Y-72484178D01*
X152259070Y-72484178D02*
X152330499Y-72448464D01*
X152330499Y-72448464D02*
X152473356Y-72448464D01*
X152473356Y-72448464D02*
X152544784Y-72484178D01*
X152544784Y-72484178D02*
X152580499Y-72555607D01*
X152580499Y-72555607D02*
X152580499Y-72627035D01*
X152580499Y-72627035D02*
X152223356Y-72698464D01*
X153223356Y-72948464D02*
X153223356Y-72555607D01*
X153223356Y-72555607D02*
X153187641Y-72484178D01*
X153187641Y-72484178D02*
X153116213Y-72448464D01*
X153116213Y-72448464D02*
X152973356Y-72448464D01*
X152973356Y-72448464D02*
X152901927Y-72484178D01*
X153223356Y-72912750D02*
X153151927Y-72948464D01*
X153151927Y-72948464D02*
X152973356Y-72948464D01*
X152973356Y-72948464D02*
X152901927Y-72912750D01*
X152901927Y-72912750D02*
X152866213Y-72841321D01*
X152866213Y-72841321D02*
X152866213Y-72769892D01*
X152866213Y-72769892D02*
X152901927Y-72698464D01*
X152901927Y-72698464D02*
X152973356Y-72662750D01*
X152973356Y-72662750D02*
X153151927Y-72662750D01*
X153151927Y-72662750D02*
X153223356Y-72627035D01*
X153580498Y-72948464D02*
X153580498Y-72198464D01*
X153651927Y-72662750D02*
X153866212Y-72948464D01*
X153866212Y-72448464D02*
X153580498Y-72734178D01*
X154294784Y-72948464D02*
X154223355Y-72912750D01*
X154223355Y-72912750D02*
X154187641Y-72877035D01*
X154187641Y-72877035D02*
X154151927Y-72805607D01*
X154151927Y-72805607D02*
X154151927Y-72591321D01*
X154151927Y-72591321D02*
X154187641Y-72519892D01*
X154187641Y-72519892D02*
X154223355Y-72484178D01*
X154223355Y-72484178D02*
X154294784Y-72448464D01*
X154294784Y-72448464D02*
X154401927Y-72448464D01*
X154401927Y-72448464D02*
X154473355Y-72484178D01*
X154473355Y-72484178D02*
X154509070Y-72519892D01*
X154509070Y-72519892D02*
X154544784Y-72591321D01*
X154544784Y-72591321D02*
X154544784Y-72805607D01*
X154544784Y-72805607D02*
X154509070Y-72877035D01*
X154509070Y-72877035D02*
X154473355Y-72912750D01*
X154473355Y-72912750D02*
X154401927Y-72948464D01*
X154401927Y-72948464D02*
X154294784Y-72948464D01*
X155187641Y-72448464D02*
X155187641Y-72948464D01*
X154866212Y-72448464D02*
X154866212Y-72841321D01*
X154866212Y-72841321D02*
X154901926Y-72912750D01*
X154901926Y-72912750D02*
X154973355Y-72948464D01*
X154973355Y-72948464D02*
X155080498Y-72948464D01*
X155080498Y-72948464D02*
X155151926Y-72912750D01*
X155151926Y-72912750D02*
X155187641Y-72877035D01*
X155437640Y-72448464D02*
X155723354Y-72448464D01*
X155544783Y-72198464D02*
X155544783Y-72841321D01*
X155544783Y-72841321D02*
X155580497Y-72912750D01*
X155580497Y-72912750D02*
X155651926Y-72948464D01*
X155651926Y-72948464D02*
X155723354Y-72948464D01*
X155937640Y-72912750D02*
X156009068Y-72948464D01*
X156009068Y-72948464D02*
X156151925Y-72948464D01*
X156151925Y-72948464D02*
X156223354Y-72912750D01*
X156223354Y-72912750D02*
X156259068Y-72841321D01*
X156259068Y-72841321D02*
X156259068Y-72805607D01*
X156259068Y-72805607D02*
X156223354Y-72734178D01*
X156223354Y-72734178D02*
X156151925Y-72698464D01*
X156151925Y-72698464D02*
X156044783Y-72698464D01*
X156044783Y-72698464D02*
X155973354Y-72662750D01*
X155973354Y-72662750D02*
X155937640Y-72591321D01*
X155937640Y-72591321D02*
X155937640Y-72555607D01*
X155937640Y-72555607D02*
X155973354Y-72484178D01*
X155973354Y-72484178D02*
X156044783Y-72448464D01*
X156044783Y-72448464D02*
X156151925Y-72448464D01*
X156151925Y-72448464D02*
X156223354Y-72484178D01*
X157044783Y-72448464D02*
X157330497Y-72448464D01*
X157151926Y-72948464D02*
X157151926Y-72305607D01*
X157151926Y-72305607D02*
X157187640Y-72234178D01*
X157187640Y-72234178D02*
X157259069Y-72198464D01*
X157259069Y-72198464D02*
X157330497Y-72198464D01*
X157687640Y-72948464D02*
X157616211Y-72912750D01*
X157616211Y-72912750D02*
X157580497Y-72877035D01*
X157580497Y-72877035D02*
X157544783Y-72805607D01*
X157544783Y-72805607D02*
X157544783Y-72591321D01*
X157544783Y-72591321D02*
X157580497Y-72519892D01*
X157580497Y-72519892D02*
X157616211Y-72484178D01*
X157616211Y-72484178D02*
X157687640Y-72448464D01*
X157687640Y-72448464D02*
X157794783Y-72448464D01*
X157794783Y-72448464D02*
X157866211Y-72484178D01*
X157866211Y-72484178D02*
X157901926Y-72519892D01*
X157901926Y-72519892D02*
X157937640Y-72591321D01*
X157937640Y-72591321D02*
X157937640Y-72805607D01*
X157937640Y-72805607D02*
X157901926Y-72877035D01*
X157901926Y-72877035D02*
X157866211Y-72912750D01*
X157866211Y-72912750D02*
X157794783Y-72948464D01*
X157794783Y-72948464D02*
X157687640Y-72948464D01*
X158259068Y-72948464D02*
X158259068Y-72448464D01*
X158259068Y-72591321D02*
X158294782Y-72519892D01*
X158294782Y-72519892D02*
X158330497Y-72484178D01*
X158330497Y-72484178D02*
X158401925Y-72448464D01*
X158401925Y-72448464D02*
X158473354Y-72448464D01*
X159294783Y-72948464D02*
X159294783Y-72198464D01*
X159294783Y-72198464D02*
X159473354Y-72198464D01*
X159473354Y-72198464D02*
X159580497Y-72234178D01*
X159580497Y-72234178D02*
X159651926Y-72305607D01*
X159651926Y-72305607D02*
X159687640Y-72377035D01*
X159687640Y-72377035D02*
X159723354Y-72519892D01*
X159723354Y-72519892D02*
X159723354Y-72627035D01*
X159723354Y-72627035D02*
X159687640Y-72769892D01*
X159687640Y-72769892D02*
X159651926Y-72841321D01*
X159651926Y-72841321D02*
X159580497Y-72912750D01*
X159580497Y-72912750D02*
X159473354Y-72948464D01*
X159473354Y-72948464D02*
X159294783Y-72948464D01*
X160044783Y-72948464D02*
X160044783Y-72448464D01*
X160044783Y-72591321D02*
X160080497Y-72519892D01*
X160080497Y-72519892D02*
X160116212Y-72484178D01*
X160116212Y-72484178D02*
X160187640Y-72448464D01*
X160187640Y-72448464D02*
X160259069Y-72448464D01*
X160509069Y-72948464D02*
X160509069Y-72448464D01*
X160509069Y-72198464D02*
X160473355Y-72234178D01*
X160473355Y-72234178D02*
X160509069Y-72269892D01*
X160509069Y-72269892D02*
X160544783Y-72234178D01*
X160544783Y-72234178D02*
X160509069Y-72198464D01*
X160509069Y-72198464D02*
X160509069Y-72269892D01*
X160794783Y-72448464D02*
X160973355Y-72948464D01*
X160973355Y-72948464D02*
X161151926Y-72448464D01*
X161723355Y-72912750D02*
X161651927Y-72948464D01*
X161651927Y-72948464D02*
X161509070Y-72948464D01*
X161509070Y-72948464D02*
X161437641Y-72912750D01*
X161437641Y-72912750D02*
X161401927Y-72841321D01*
X161401927Y-72841321D02*
X161401927Y-72555607D01*
X161401927Y-72555607D02*
X161437641Y-72484178D01*
X161437641Y-72484178D02*
X161509070Y-72448464D01*
X161509070Y-72448464D02*
X161651927Y-72448464D01*
X161651927Y-72448464D02*
X161723355Y-72484178D01*
X161723355Y-72484178D02*
X161759070Y-72555607D01*
X161759070Y-72555607D02*
X161759070Y-72627035D01*
X161759070Y-72627035D02*
X161401927Y-72698464D01*
X162080498Y-72948464D02*
X162080498Y-72448464D01*
X162080498Y-72591321D02*
X162116212Y-72519892D01*
X162116212Y-72519892D02*
X162151927Y-72484178D01*
X162151927Y-72484178D02*
X162223355Y-72448464D01*
X162223355Y-72448464D02*
X162294784Y-72448464D01*
D10*
X163670404Y-86007049D02*
X163670404Y-86173716D01*
X163932309Y-86173716D02*
X163432309Y-86173716D01*
X163432309Y-86173716D02*
X163432309Y-85935621D01*
X163598976Y-85530859D02*
X163932309Y-85530859D01*
X163408500Y-85649907D02*
X163765642Y-85768954D01*
X163765642Y-85768954D02*
X163765642Y-85459431D01*
X163598976Y-85268955D02*
X164098976Y-85268955D01*
X163622785Y-85268955D02*
X163598976Y-85221336D01*
X163598976Y-85221336D02*
X163598976Y-85126098D01*
X163598976Y-85126098D02*
X163622785Y-85078479D01*
X163622785Y-85078479D02*
X163646595Y-85054669D01*
X163646595Y-85054669D02*
X163694214Y-85030860D01*
X163694214Y-85030860D02*
X163837071Y-85030860D01*
X163837071Y-85030860D02*
X163884690Y-85054669D01*
X163884690Y-85054669D02*
X163908500Y-85078479D01*
X163908500Y-85078479D02*
X163932309Y-85126098D01*
X163932309Y-85126098D02*
X163932309Y-85221336D01*
X163932309Y-85221336D02*
X163908500Y-85268955D01*
X163598976Y-84864193D02*
X163932309Y-84768955D01*
X163932309Y-84768955D02*
X163694214Y-84673717D01*
X163694214Y-84673717D02*
X163932309Y-84578479D01*
X163932309Y-84578479D02*
X163598976Y-84483241D01*
X163932309Y-84292764D02*
X163598976Y-84292764D01*
X163694214Y-84292764D02*
X163646595Y-84268954D01*
X163646595Y-84268954D02*
X163622785Y-84245145D01*
X163622785Y-84245145D02*
X163598976Y-84197526D01*
X163598976Y-84197526D02*
X163598976Y-84149907D01*
X146329595Y-92092950D02*
X146329595Y-91926283D01*
X146067690Y-91926283D02*
X146567690Y-91926283D01*
X146567690Y-91926283D02*
X146567690Y-92164378D01*
X146520071Y-92331045D02*
X146543880Y-92354854D01*
X146543880Y-92354854D02*
X146567690Y-92402473D01*
X146567690Y-92402473D02*
X146567690Y-92521521D01*
X146567690Y-92521521D02*
X146543880Y-92569140D01*
X146543880Y-92569140D02*
X146520071Y-92592949D01*
X146520071Y-92592949D02*
X146472452Y-92616759D01*
X146472452Y-92616759D02*
X146424833Y-92616759D01*
X146424833Y-92616759D02*
X146353404Y-92592949D01*
X146353404Y-92592949D02*
X146067690Y-92307235D01*
X146067690Y-92307235D02*
X146067690Y-92616759D01*
X146401023Y-92831044D02*
X145901023Y-92831044D01*
X146377214Y-92831044D02*
X146401023Y-92878663D01*
X146401023Y-92878663D02*
X146401023Y-92973901D01*
X146401023Y-92973901D02*
X146377214Y-93021520D01*
X146377214Y-93021520D02*
X146353404Y-93045330D01*
X146353404Y-93045330D02*
X146305785Y-93069139D01*
X146305785Y-93069139D02*
X146162928Y-93069139D01*
X146162928Y-93069139D02*
X146115309Y-93045330D01*
X146115309Y-93045330D02*
X146091500Y-93021520D01*
X146091500Y-93021520D02*
X146067690Y-92973901D01*
X146067690Y-92973901D02*
X146067690Y-92878663D01*
X146067690Y-92878663D02*
X146091500Y-92831044D01*
X146401023Y-93235806D02*
X146067690Y-93331044D01*
X146067690Y-93331044D02*
X146305785Y-93426282D01*
X146305785Y-93426282D02*
X146067690Y-93521520D01*
X146067690Y-93521520D02*
X146401023Y-93616758D01*
X146067690Y-93807235D02*
X146401023Y-93807235D01*
X146305785Y-93807235D02*
X146353404Y-93831045D01*
X146353404Y-93831045D02*
X146377214Y-93854854D01*
X146377214Y-93854854D02*
X146401023Y-93902473D01*
X146401023Y-93902473D02*
X146401023Y-93950092D01*
X163645404Y-80882049D02*
X163645404Y-81048716D01*
X163907309Y-81048716D02*
X163407309Y-81048716D01*
X163407309Y-81048716D02*
X163407309Y-80810621D01*
X163407309Y-80667764D02*
X163407309Y-80358240D01*
X163407309Y-80358240D02*
X163597785Y-80524907D01*
X163597785Y-80524907D02*
X163597785Y-80453478D01*
X163597785Y-80453478D02*
X163621595Y-80405859D01*
X163621595Y-80405859D02*
X163645404Y-80382050D01*
X163645404Y-80382050D02*
X163693023Y-80358240D01*
X163693023Y-80358240D02*
X163812071Y-80358240D01*
X163812071Y-80358240D02*
X163859690Y-80382050D01*
X163859690Y-80382050D02*
X163883500Y-80405859D01*
X163883500Y-80405859D02*
X163907309Y-80453478D01*
X163907309Y-80453478D02*
X163907309Y-80596335D01*
X163907309Y-80596335D02*
X163883500Y-80643954D01*
X163883500Y-80643954D02*
X163859690Y-80667764D01*
X163883500Y-80167764D02*
X163907309Y-80120145D01*
X163907309Y-80120145D02*
X163907309Y-80024907D01*
X163907309Y-80024907D02*
X163883500Y-79977288D01*
X163883500Y-79977288D02*
X163835880Y-79953479D01*
X163835880Y-79953479D02*
X163812071Y-79953479D01*
X163812071Y-79953479D02*
X163764452Y-79977288D01*
X163764452Y-79977288D02*
X163740642Y-80024907D01*
X163740642Y-80024907D02*
X163740642Y-80096336D01*
X163740642Y-80096336D02*
X163716833Y-80143955D01*
X163716833Y-80143955D02*
X163669214Y-80167764D01*
X163669214Y-80167764D02*
X163645404Y-80167764D01*
X163645404Y-80167764D02*
X163597785Y-80143955D01*
X163597785Y-80143955D02*
X163573976Y-80096336D01*
X163573976Y-80096336D02*
X163573976Y-80024907D01*
X163573976Y-80024907D02*
X163597785Y-79977288D01*
X163883500Y-79524907D02*
X163907309Y-79572526D01*
X163907309Y-79572526D02*
X163907309Y-79667764D01*
X163907309Y-79667764D02*
X163883500Y-79715383D01*
X163883500Y-79715383D02*
X163859690Y-79739193D01*
X163859690Y-79739193D02*
X163812071Y-79763002D01*
X163812071Y-79763002D02*
X163669214Y-79763002D01*
X163669214Y-79763002D02*
X163621595Y-79739193D01*
X163621595Y-79739193D02*
X163597785Y-79715383D01*
X163597785Y-79715383D02*
X163573976Y-79667764D01*
X163573976Y-79667764D02*
X163573976Y-79572526D01*
X163573976Y-79572526D02*
X163597785Y-79524907D01*
X163907309Y-79239193D02*
X163883500Y-79286812D01*
X163883500Y-79286812D02*
X163835880Y-79310622D01*
X163835880Y-79310622D02*
X163407309Y-79310622D01*
X155777474Y-71983500D02*
X155848902Y-72007309D01*
X155848902Y-72007309D02*
X155967950Y-72007309D01*
X155967950Y-72007309D02*
X156015569Y-71983500D01*
X156015569Y-71983500D02*
X156039378Y-71959690D01*
X156039378Y-71959690D02*
X156063188Y-71912071D01*
X156063188Y-71912071D02*
X156063188Y-71864452D01*
X156063188Y-71864452D02*
X156039378Y-71816833D01*
X156039378Y-71816833D02*
X156015569Y-71793023D01*
X156015569Y-71793023D02*
X155967950Y-71769214D01*
X155967950Y-71769214D02*
X155872712Y-71745404D01*
X155872712Y-71745404D02*
X155825093Y-71721595D01*
X155825093Y-71721595D02*
X155801283Y-71697785D01*
X155801283Y-71697785D02*
X155777474Y-71650166D01*
X155777474Y-71650166D02*
X155777474Y-71602547D01*
X155777474Y-71602547D02*
X155801283Y-71554928D01*
X155801283Y-71554928D02*
X155825093Y-71531119D01*
X155825093Y-71531119D02*
X155872712Y-71507309D01*
X155872712Y-71507309D02*
X155991759Y-71507309D01*
X155991759Y-71507309D02*
X156063188Y-71531119D01*
X156277473Y-72007309D02*
X156277473Y-71507309D01*
X156277473Y-71507309D02*
X156396521Y-71507309D01*
X156396521Y-71507309D02*
X156467949Y-71531119D01*
X156467949Y-71531119D02*
X156515568Y-71578738D01*
X156515568Y-71578738D02*
X156539378Y-71626357D01*
X156539378Y-71626357D02*
X156563187Y-71721595D01*
X156563187Y-71721595D02*
X156563187Y-71793023D01*
X156563187Y-71793023D02*
X156539378Y-71888261D01*
X156539378Y-71888261D02*
X156515568Y-71935880D01*
X156515568Y-71935880D02*
X156467949Y-71983500D01*
X156467949Y-71983500D02*
X156396521Y-72007309D01*
X156396521Y-72007309D02*
X156277473Y-72007309D01*
X156753664Y-71864452D02*
X156991759Y-71864452D01*
X156706045Y-72007309D02*
X156872711Y-71507309D01*
X156872711Y-71507309D02*
X157039378Y-72007309D01*
X163957309Y-93546335D02*
X163623976Y-93284430D01*
X163623976Y-93546335D02*
X163957309Y-93284430D01*
X163623976Y-93093954D02*
X164123976Y-93093954D01*
X163647785Y-93093954D02*
X163623976Y-93046335D01*
X163623976Y-93046335D02*
X163623976Y-92951097D01*
X163623976Y-92951097D02*
X163647785Y-92903478D01*
X163647785Y-92903478D02*
X163671595Y-92879668D01*
X163671595Y-92879668D02*
X163719214Y-92855859D01*
X163719214Y-92855859D02*
X163862071Y-92855859D01*
X163862071Y-92855859D02*
X163909690Y-92879668D01*
X163909690Y-92879668D02*
X163933500Y-92903478D01*
X163933500Y-92903478D02*
X163957309Y-92951097D01*
X163957309Y-92951097D02*
X163957309Y-93046335D01*
X163957309Y-93046335D02*
X163933500Y-93093954D01*
X163623976Y-92689192D02*
X163957309Y-92593954D01*
X163957309Y-92593954D02*
X163719214Y-92498716D01*
X163719214Y-92498716D02*
X163957309Y-92403478D01*
X163957309Y-92403478D02*
X163623976Y-92308240D01*
X163957309Y-92117763D02*
X163623976Y-92117763D01*
X163719214Y-92117763D02*
X163671595Y-92093953D01*
X163671595Y-92093953D02*
X163647785Y-92070144D01*
X163647785Y-92070144D02*
X163623976Y-92022525D01*
X163623976Y-92022525D02*
X163623976Y-91974906D01*
D12*
X165166666Y-72154819D02*
X165166666Y-72869104D01*
X165166666Y-72869104D02*
X165119047Y-73011961D01*
X165119047Y-73011961D02*
X165023809Y-73107200D01*
X165023809Y-73107200D02*
X164880952Y-73154819D01*
X164880952Y-73154819D02*
X164785714Y-73154819D01*
X166071428Y-72154819D02*
X165880952Y-72154819D01*
X165880952Y-72154819D02*
X165785714Y-72202438D01*
X165785714Y-72202438D02*
X165738095Y-72250057D01*
X165738095Y-72250057D02*
X165642857Y-72392914D01*
X165642857Y-72392914D02*
X165595238Y-72583390D01*
X165595238Y-72583390D02*
X165595238Y-72964342D01*
X165595238Y-72964342D02*
X165642857Y-73059580D01*
X165642857Y-73059580D02*
X165690476Y-73107200D01*
X165690476Y-73107200D02*
X165785714Y-73154819D01*
X165785714Y-73154819D02*
X165976190Y-73154819D01*
X165976190Y-73154819D02*
X166071428Y-73107200D01*
X166071428Y-73107200D02*
X166119047Y-73059580D01*
X166119047Y-73059580D02*
X166166666Y-72964342D01*
X166166666Y-72964342D02*
X166166666Y-72726247D01*
X166166666Y-72726247D02*
X166119047Y-72631009D01*
X166119047Y-72631009D02*
X166071428Y-72583390D01*
X166071428Y-72583390D02*
X165976190Y-72535771D01*
X165976190Y-72535771D02*
X165785714Y-72535771D01*
X165785714Y-72535771D02*
X165690476Y-72583390D01*
X165690476Y-72583390D02*
X165642857Y-72631009D01*
X165642857Y-72631009D02*
X165595238Y-72726247D01*
X144341666Y-72004819D02*
X144341666Y-72719104D01*
X144341666Y-72719104D02*
X144294047Y-72861961D01*
X144294047Y-72861961D02*
X144198809Y-72957200D01*
X144198809Y-72957200D02*
X144055952Y-73004819D01*
X144055952Y-73004819D02*
X143960714Y-73004819D01*
X145246428Y-72338152D02*
X145246428Y-73004819D01*
X145008333Y-71957200D02*
X144770238Y-72671485D01*
X144770238Y-72671485D02*
X145389285Y-72671485D01*
X158641666Y-99224819D02*
X158641666Y-99939104D01*
X158641666Y-99939104D02*
X158594047Y-100081961D01*
X158594047Y-100081961D02*
X158498809Y-100177200D01*
X158498809Y-100177200D02*
X158355952Y-100224819D01*
X158355952Y-100224819D02*
X158260714Y-100224819D01*
X159641666Y-100224819D02*
X159070238Y-100224819D01*
X159355952Y-100224819D02*
X159355952Y-99224819D01*
X159355952Y-99224819D02*
X159260714Y-99367676D01*
X159260714Y-99367676D02*
X159165476Y-99462914D01*
X159165476Y-99462914D02*
X159070238Y-99510533D01*
D13*
X149599318Y-83414762D02*
X148329318Y-83414762D01*
X149478365Y-82084285D02*
X149538842Y-82144761D01*
X149538842Y-82144761D02*
X149599318Y-82326190D01*
X149599318Y-82326190D02*
X149599318Y-82447142D01*
X149599318Y-82447142D02*
X149538842Y-82628571D01*
X149538842Y-82628571D02*
X149417889Y-82749523D01*
X149417889Y-82749523D02*
X149296937Y-82810000D01*
X149296937Y-82810000D02*
X149055032Y-82870476D01*
X149055032Y-82870476D02*
X148873603Y-82870476D01*
X148873603Y-82870476D02*
X148631699Y-82810000D01*
X148631699Y-82810000D02*
X148510746Y-82749523D01*
X148510746Y-82749523D02*
X148389794Y-82628571D01*
X148389794Y-82628571D02*
X148329318Y-82447142D01*
X148329318Y-82447142D02*
X148329318Y-82326190D01*
X148329318Y-82326190D02*
X148389794Y-82144761D01*
X148389794Y-82144761D02*
X148450270Y-82084285D01*
X149599318Y-80874761D02*
X149599318Y-81600476D01*
X149599318Y-81237619D02*
X148329318Y-81237619D01*
X148329318Y-81237619D02*
X148510746Y-81358571D01*
X148510746Y-81358571D02*
X148631699Y-81479523D01*
X148631699Y-81479523D02*
X148692175Y-81600476D01*
D12*
X148623333Y-87004819D02*
X148290000Y-86528628D01*
X148051905Y-87004819D02*
X148051905Y-86004819D01*
X148051905Y-86004819D02*
X148432857Y-86004819D01*
X148432857Y-86004819D02*
X148528095Y-86052438D01*
X148528095Y-86052438D02*
X148575714Y-86100057D01*
X148575714Y-86100057D02*
X148623333Y-86195295D01*
X148623333Y-86195295D02*
X148623333Y-86338152D01*
X148623333Y-86338152D02*
X148575714Y-86433390D01*
X148575714Y-86433390D02*
X148528095Y-86481009D01*
X148528095Y-86481009D02*
X148432857Y-86528628D01*
X148432857Y-86528628D02*
X148051905Y-86528628D01*
X148956667Y-86004819D02*
X149575714Y-86004819D01*
X149575714Y-86004819D02*
X149242381Y-86385771D01*
X149242381Y-86385771D02*
X149385238Y-86385771D01*
X149385238Y-86385771D02*
X149480476Y-86433390D01*
X149480476Y-86433390D02*
X149528095Y-86481009D01*
X149528095Y-86481009D02*
X149575714Y-86576247D01*
X149575714Y-86576247D02*
X149575714Y-86814342D01*
X149575714Y-86814342D02*
X149528095Y-86909580D01*
X149528095Y-86909580D02*
X149480476Y-86957200D01*
X149480476Y-86957200D02*
X149385238Y-87004819D01*
X149385238Y-87004819D02*
X149099524Y-87004819D01*
X149099524Y-87004819D02*
X149004286Y-86957200D01*
X149004286Y-86957200D02*
X148956667Y-86909580D01*
D10*
X151024809Y-90728333D02*
X150786714Y-90894999D01*
X151024809Y-91014047D02*
X150524809Y-91014047D01*
X150524809Y-91014047D02*
X150524809Y-90823571D01*
X150524809Y-90823571D02*
X150548619Y-90775952D01*
X150548619Y-90775952D02*
X150572428Y-90752142D01*
X150572428Y-90752142D02*
X150620047Y-90728333D01*
X150620047Y-90728333D02*
X150691476Y-90728333D01*
X150691476Y-90728333D02*
X150739095Y-90752142D01*
X150739095Y-90752142D02*
X150762904Y-90775952D01*
X150762904Y-90775952D02*
X150786714Y-90823571D01*
X150786714Y-90823571D02*
X150786714Y-91014047D01*
X151024809Y-90252142D02*
X151024809Y-90537856D01*
X151024809Y-90394999D02*
X150524809Y-90394999D01*
X150524809Y-90394999D02*
X150596238Y-90442618D01*
X150596238Y-90442618D02*
X150643857Y-90490237D01*
X150643857Y-90490237D02*
X150667666Y-90537856D01*
D12*
X159363095Y-87929819D02*
X159363095Y-88739342D01*
X159363095Y-88739342D02*
X159410714Y-88834580D01*
X159410714Y-88834580D02*
X159458333Y-88882200D01*
X159458333Y-88882200D02*
X159553571Y-88929819D01*
X159553571Y-88929819D02*
X159744047Y-88929819D01*
X159744047Y-88929819D02*
X159839285Y-88882200D01*
X159839285Y-88882200D02*
X159886904Y-88834580D01*
X159886904Y-88834580D02*
X159934523Y-88739342D01*
X159934523Y-88739342D02*
X159934523Y-87929819D01*
X160934523Y-88929819D02*
X160363095Y-88929819D01*
X160648809Y-88929819D02*
X160648809Y-87929819D01*
X160648809Y-87929819D02*
X160553571Y-88072676D01*
X160553571Y-88072676D02*
X160458333Y-88167914D01*
X160458333Y-88167914D02*
X160363095Y-88215533D01*
X158716666Y-74229819D02*
X158716666Y-74944104D01*
X158716666Y-74944104D02*
X158669047Y-75086961D01*
X158669047Y-75086961D02*
X158573809Y-75182200D01*
X158573809Y-75182200D02*
X158430952Y-75229819D01*
X158430952Y-75229819D02*
X158335714Y-75229819D01*
X159669047Y-74229819D02*
X159192857Y-74229819D01*
X159192857Y-74229819D02*
X159145238Y-74706009D01*
X159145238Y-74706009D02*
X159192857Y-74658390D01*
X159192857Y-74658390D02*
X159288095Y-74610771D01*
X159288095Y-74610771D02*
X159526190Y-74610771D01*
X159526190Y-74610771D02*
X159621428Y-74658390D01*
X159621428Y-74658390D02*
X159669047Y-74706009D01*
X159669047Y-74706009D02*
X159716666Y-74801247D01*
X159716666Y-74801247D02*
X159716666Y-75039342D01*
X159716666Y-75039342D02*
X159669047Y-75134580D01*
X159669047Y-75134580D02*
X159621428Y-75182200D01*
X159621428Y-75182200D02*
X159526190Y-75229819D01*
X159526190Y-75229819D02*
X159288095Y-75229819D01*
X159288095Y-75229819D02*
X159192857Y-75182200D01*
X159192857Y-75182200D02*
X159145238Y-75134580D01*
X161183333Y-92154819D02*
X160850000Y-91678628D01*
X160611905Y-92154819D02*
X160611905Y-91154819D01*
X160611905Y-91154819D02*
X160992857Y-91154819D01*
X160992857Y-91154819D02*
X161088095Y-91202438D01*
X161088095Y-91202438D02*
X161135714Y-91250057D01*
X161135714Y-91250057D02*
X161183333Y-91345295D01*
X161183333Y-91345295D02*
X161183333Y-91488152D01*
X161183333Y-91488152D02*
X161135714Y-91583390D01*
X161135714Y-91583390D02*
X161088095Y-91631009D01*
X161088095Y-91631009D02*
X160992857Y-91678628D01*
X160992857Y-91678628D02*
X160611905Y-91678628D01*
X162040476Y-91488152D02*
X162040476Y-92154819D01*
X161802381Y-91107200D02*
X161564286Y-91821485D01*
X161564286Y-91821485D02*
X162183333Y-91821485D01*
X150791666Y-74254819D02*
X150791666Y-74969104D01*
X150791666Y-74969104D02*
X150744047Y-75111961D01*
X150744047Y-75111961D02*
X150648809Y-75207200D01*
X150648809Y-75207200D02*
X150505952Y-75254819D01*
X150505952Y-75254819D02*
X150410714Y-75254819D01*
X151220238Y-74350057D02*
X151267857Y-74302438D01*
X151267857Y-74302438D02*
X151363095Y-74254819D01*
X151363095Y-74254819D02*
X151601190Y-74254819D01*
X151601190Y-74254819D02*
X151696428Y-74302438D01*
X151696428Y-74302438D02*
X151744047Y-74350057D01*
X151744047Y-74350057D02*
X151791666Y-74445295D01*
X151791666Y-74445295D02*
X151791666Y-74540533D01*
X151791666Y-74540533D02*
X151744047Y-74683390D01*
X151744047Y-74683390D02*
X151172619Y-75254819D01*
X151172619Y-75254819D02*
X151791666Y-75254819D01*
X150766666Y-99099819D02*
X150766666Y-99814104D01*
X150766666Y-99814104D02*
X150719047Y-99956961D01*
X150719047Y-99956961D02*
X150623809Y-100052200D01*
X150623809Y-100052200D02*
X150480952Y-100099819D01*
X150480952Y-100099819D02*
X150385714Y-100099819D01*
X151147619Y-99099819D02*
X151766666Y-99099819D01*
X151766666Y-99099819D02*
X151433333Y-99480771D01*
X151433333Y-99480771D02*
X151576190Y-99480771D01*
X151576190Y-99480771D02*
X151671428Y-99528390D01*
X151671428Y-99528390D02*
X151719047Y-99576009D01*
X151719047Y-99576009D02*
X151766666Y-99671247D01*
X151766666Y-99671247D02*
X151766666Y-99909342D01*
X151766666Y-99909342D02*
X151719047Y-100004580D01*
X151719047Y-100004580D02*
X151671428Y-100052200D01*
X151671428Y-100052200D02*
X151576190Y-100099819D01*
X151576190Y-100099819D02*
X151290476Y-100099819D01*
X151290476Y-100099819D02*
X151195238Y-100052200D01*
X151195238Y-100052200D02*
X151147619Y-100004580D01*
D10*
X150999809Y-94553333D02*
X150761714Y-94719999D01*
X150999809Y-94839047D02*
X150499809Y-94839047D01*
X150499809Y-94839047D02*
X150499809Y-94648571D01*
X150499809Y-94648571D02*
X150523619Y-94600952D01*
X150523619Y-94600952D02*
X150547428Y-94577142D01*
X150547428Y-94577142D02*
X150595047Y-94553333D01*
X150595047Y-94553333D02*
X150666476Y-94553333D01*
X150666476Y-94553333D02*
X150714095Y-94577142D01*
X150714095Y-94577142D02*
X150737904Y-94600952D01*
X150737904Y-94600952D02*
X150761714Y-94648571D01*
X150761714Y-94648571D02*
X150761714Y-94839047D01*
X150547428Y-94362856D02*
X150523619Y-94339047D01*
X150523619Y-94339047D02*
X150499809Y-94291428D01*
X150499809Y-94291428D02*
X150499809Y-94172380D01*
X150499809Y-94172380D02*
X150523619Y-94124761D01*
X150523619Y-94124761D02*
X150547428Y-94100952D01*
X150547428Y-94100952D02*
X150595047Y-94077142D01*
X150595047Y-94077142D02*
X150642666Y-94077142D01*
X150642666Y-94077142D02*
X150714095Y-94100952D01*
X150714095Y-94100952D02*
X150999809Y-94386666D01*
X150999809Y-94386666D02*
X150999809Y-94077142D01*
D12*
X148104819Y-71058333D02*
X148819104Y-71058333D01*
X148819104Y-71058333D02*
X148961961Y-71105952D01*
X148961961Y-71105952D02*
X149057200Y-71201190D01*
X149057200Y-71201190D02*
X149104819Y-71344047D01*
X149104819Y-71344047D02*
X149104819Y-71439285D01*
X148104819Y-70677380D02*
X148104819Y-70010714D01*
X148104819Y-70010714D02*
X149104819Y-70439285D01*
D14*
%TO.C,J6*%
X165030000Y-73780000D02*
X166360000Y-73780000D01*
X165030000Y-75110000D02*
X165030000Y-73780000D01*
X165030000Y-76380000D02*
X165030000Y-101840000D01*
X165030000Y-76380000D02*
X167690000Y-76380000D01*
X165030000Y-101840000D02*
X167690000Y-101840000D01*
X167690000Y-76380000D02*
X167690000Y-101840000D01*
%TO.C,J4*%
X142380000Y-73660000D02*
X143710000Y-73660000D01*
X142380000Y-74990000D02*
X142380000Y-73660000D01*
X142380000Y-76260000D02*
X142380000Y-101720000D01*
X142380000Y-76260000D02*
X145040000Y-76260000D01*
X142380000Y-101720000D02*
X145040000Y-101720000D01*
X145040000Y-76260000D02*
X145040000Y-101720000D01*
%TO.C,J1*%
X162130000Y-99090000D02*
X162130000Y-97940000D01*
X162130000Y-97940000D02*
X161080000Y-97940000D01*
X161080000Y-97940000D02*
X161080000Y-96950000D01*
X160960000Y-101060000D02*
X157080000Y-101060000D01*
X155910000Y-99090000D02*
X155910000Y-97940000D01*
X155910000Y-97940000D02*
X156960000Y-97940000D01*
D15*
%TO.C,IC1*%
X150330000Y-85795000D02*
X150330000Y-84320000D01*
X150280000Y-83970000D02*
X150280000Y-80270000D01*
X159980000Y-83970000D02*
X150280000Y-83970000D01*
X150280000Y-80270000D02*
X159980000Y-80270000D01*
X159980000Y-80270000D02*
X159980000Y-83970000D01*
D14*
%TO.C,R3*%
X148552742Y-87457500D02*
X149027258Y-87457500D01*
X148552742Y-88502500D02*
X149027258Y-88502500D01*
%TO.C,R1*%
X148300000Y-92320000D02*
X149300000Y-92320000D01*
X148300000Y-88960000D02*
X149300000Y-88960000D01*
D16*
%TO.C,U1*%
X152885000Y-88020000D02*
X157285000Y-88020000D01*
X152885000Y-96220000D02*
X157285000Y-96220000D01*
D15*
X150745000Y-88135000D02*
G75*
G02*
X150545000Y-88135000I-100000J0D01*
G01*
X150545000Y-88135000D02*
G75*
G02*
X150745000Y-88135000I100000J0D01*
G01*
D14*
%TO.C,J5*%
X156040000Y-75455000D02*
X156040000Y-76605000D01*
X156040000Y-76605000D02*
X157090000Y-76605000D01*
X157090000Y-76605000D02*
X157090000Y-77595000D01*
X157210000Y-73485000D02*
X161090000Y-73485000D01*
X162260000Y-75455000D02*
X162260000Y-76605000D01*
X162260000Y-76605000D02*
X161210000Y-76605000D01*
%TO.C,R4*%
X161850000Y-92820000D02*
X160850000Y-92820000D01*
X161850000Y-96180000D02*
X160850000Y-96180000D01*
%TO.C,J2*%
X148130000Y-75445000D02*
X148130000Y-76595000D01*
X148130000Y-76595000D02*
X149180000Y-76595000D01*
X149180000Y-76595000D02*
X149180000Y-77585000D01*
X149300000Y-73475000D02*
X153180000Y-73475000D01*
X154350000Y-75445000D02*
X154350000Y-76595000D01*
X154350000Y-76595000D02*
X153300000Y-76595000D01*
%TO.C,J3*%
X154240000Y-99095000D02*
X154240000Y-97945000D01*
X154240000Y-97945000D02*
X153190000Y-97945000D01*
X153190000Y-97945000D02*
X153190000Y-96955000D01*
X153070000Y-101065000D02*
X149190000Y-101065000D01*
X148020000Y-99095000D02*
X148020000Y-97945000D01*
X148020000Y-97945000D02*
X149070000Y-97945000D01*
%TO.C,R2*%
X148290000Y-96140000D02*
X149290000Y-96140000D01*
X148290000Y-92780000D02*
X149290000Y-92780000D01*
%TO.C,J7*%
X149915000Y-71180000D02*
X149915000Y-69850000D01*
X151245000Y-71180000D02*
X149915000Y-71180000D01*
X152515000Y-71180000D02*
X160195000Y-71180000D01*
X152515000Y-71180000D02*
X152515000Y-68520000D01*
X160195000Y-71180000D02*
X160195000Y-68520000D01*
X152515000Y-68520000D02*
X160195000Y-68520000D01*
%TD*%
%LPC*%
D17*
%TO.C,J6*%
X166360000Y-75110000D03*
D18*
X166360000Y-77650000D03*
X166360000Y-80190000D03*
X166360000Y-82730000D03*
X166360000Y-85270000D03*
X166360000Y-87810000D03*
X166360000Y-90350000D03*
X166360000Y-92890000D03*
X166360000Y-95430000D03*
X166360000Y-97970000D03*
X166360000Y-100510000D03*
%TD*%
D17*
%TO.C,J4*%
X143710000Y-74990000D03*
D18*
X143710000Y-77530000D03*
X143710000Y-80070000D03*
X143710000Y-82610000D03*
X143710000Y-85150000D03*
X143710000Y-87690000D03*
X143710000Y-90230000D03*
X143710000Y-92770000D03*
X143710000Y-95310000D03*
X143710000Y-97850000D03*
X143710000Y-100390000D03*
%TD*%
D19*
%TO.C,J1*%
X160520000Y-97725000D03*
X159520000Y-97725000D03*
X158520000Y-97725000D03*
X157520000Y-97725000D03*
D20*
X161820000Y-100250000D03*
X156220000Y-100250000D03*
%TD*%
D21*
%TO.C,IC1*%
X150905000Y-85058000D03*
X151555000Y-85058000D03*
X152205000Y-85058000D03*
X152855000Y-85058000D03*
X153505000Y-85058000D03*
X154155000Y-85058000D03*
X154805000Y-85058000D03*
X155455000Y-85058000D03*
X156105000Y-85058000D03*
X156755000Y-85058000D03*
X157405000Y-85058000D03*
X158055000Y-85058000D03*
X158705000Y-85058000D03*
X159355000Y-85058000D03*
X159355000Y-79182000D03*
X158705000Y-79182000D03*
X158055000Y-79182000D03*
X157405000Y-79182000D03*
X156755000Y-79182000D03*
X156105000Y-79182000D03*
X155455000Y-79182000D03*
X154805000Y-79182000D03*
X154155000Y-79182000D03*
X153505000Y-79182000D03*
X152855000Y-79182000D03*
X152205000Y-79182000D03*
X151555000Y-79182000D03*
X150905000Y-79182000D03*
%TD*%
D22*
%TO.C,R3*%
X147965000Y-87980000D03*
X149615000Y-87980000D03*
%TD*%
D23*
%TO.C,R1*%
X149700000Y-91840000D03*
D24*
X149700000Y-91040000D03*
X149700000Y-90240000D03*
D23*
X149700000Y-89440000D03*
X147900000Y-89440000D03*
D24*
X147900000Y-90240000D03*
X147900000Y-91040000D03*
D23*
X147900000Y-91840000D03*
%TD*%
D25*
%TO.C,U1*%
X152215000Y-88545000D03*
X152215000Y-89195000D03*
X152215000Y-89845000D03*
X152215000Y-90495000D03*
X152215000Y-91145000D03*
X152215000Y-91795000D03*
X152215000Y-92445000D03*
X152215000Y-93095000D03*
X152215000Y-93745000D03*
X152215000Y-94395000D03*
X152215000Y-95045000D03*
X152215000Y-95695000D03*
X157955000Y-95695000D03*
X157955000Y-95045000D03*
X157955000Y-94395000D03*
X157955000Y-93745000D03*
X157955000Y-93095000D03*
X157955000Y-92445000D03*
X157955000Y-91795000D03*
X157955000Y-91145000D03*
X157955000Y-90495000D03*
X157955000Y-89845000D03*
X157955000Y-89195000D03*
X157955000Y-88545000D03*
%TD*%
D26*
%TO.C,J5*%
X157650000Y-76820000D03*
X158650000Y-76820000D03*
X159650000Y-76820000D03*
X160650000Y-76820000D03*
D27*
X156350000Y-74295000D03*
X161950000Y-74295000D03*
%TD*%
D23*
%TO.C,R4*%
X160450000Y-93300000D03*
D24*
X160450000Y-94100000D03*
X160450000Y-94900000D03*
D23*
X160450000Y-95700000D03*
X162250000Y-95700000D03*
D24*
X162250000Y-94900000D03*
X162250000Y-94100000D03*
D23*
X162250000Y-93300000D03*
%TD*%
D26*
%TO.C,J2*%
X149740000Y-76810000D03*
X150740000Y-76810000D03*
X151740000Y-76810000D03*
X152740000Y-76810000D03*
D27*
X148440000Y-74285000D03*
X154040000Y-74285000D03*
%TD*%
D19*
%TO.C,J3*%
X152630000Y-97730000D03*
X151630000Y-97730000D03*
X150630000Y-97730000D03*
X149630000Y-97730000D03*
D20*
X153930000Y-100255000D03*
X148330000Y-100255000D03*
%TD*%
D23*
%TO.C,R2*%
X149690000Y-95660000D03*
D24*
X149690000Y-94860000D03*
X149690000Y-94060000D03*
D23*
X149690000Y-93260000D03*
X147890000Y-93260000D03*
D24*
X147890000Y-94060000D03*
X147890000Y-94860000D03*
D23*
X147890000Y-95660000D03*
%TD*%
D17*
%TO.C,J7*%
X151245000Y-69850000D03*
D18*
X153785000Y-69850000D03*
X156325000Y-69850000D03*
X158865000Y-69850000D03*
%TD*%
G36*
X166343039Y-97139685D02*
G01*
X166388794Y-97192489D01*
X166400000Y-97244000D01*
X166400000Y-98696000D01*
X166380315Y-98763039D01*
X166327511Y-98808794D01*
X166276000Y-98820000D01*
X164474000Y-98820000D01*
X164406961Y-98800315D01*
X164361206Y-98747511D01*
X164350000Y-98696000D01*
X164350000Y-97244000D01*
X164369685Y-97176961D01*
X164422489Y-97131206D01*
X164474000Y-97120000D01*
X166276000Y-97120000D01*
X166343039Y-97139685D01*
G37*
G36*
X152043039Y-69869685D02*
G01*
X152088794Y-69922489D01*
X152100000Y-69974000D01*
X152100000Y-71151000D01*
X152080315Y-71218039D01*
X152027511Y-71263794D01*
X151976000Y-71275000D01*
X150519000Y-71275000D01*
X150451961Y-71255315D01*
X150406206Y-71202511D01*
X150395000Y-71151000D01*
X150395000Y-69974000D01*
X150414685Y-69906961D01*
X150467489Y-69861206D01*
X150519000Y-69850000D01*
X151976000Y-69850000D01*
X152043039Y-69869685D01*
G37*
G36*
X166343039Y-84439685D02*
G01*
X166388794Y-84492489D01*
X166400000Y-84544000D01*
X166400000Y-85996000D01*
X166380315Y-86063039D01*
X166327511Y-86108794D01*
X166276000Y-86120000D01*
X164474000Y-86120000D01*
X164406961Y-86100315D01*
X164361206Y-86047511D01*
X164350000Y-85996000D01*
X164350000Y-84544000D01*
X164369685Y-84476961D01*
X164422489Y-84431206D01*
X164474000Y-84420000D01*
X166276000Y-84420000D01*
X166343039Y-84439685D01*
G37*
G36*
X166343039Y-92059685D02*
G01*
X166388794Y-92112489D01*
X166400000Y-92164000D01*
X166400000Y-93616000D01*
X166380315Y-93683039D01*
X166327511Y-93728794D01*
X166276000Y-93740000D01*
X164474000Y-93740000D01*
X164406961Y-93720315D01*
X164361206Y-93667511D01*
X164350000Y-93616000D01*
X164350000Y-92164000D01*
X164369685Y-92096961D01*
X164422489Y-92051206D01*
X164474000Y-92040000D01*
X166276000Y-92040000D01*
X166343039Y-92059685D01*
G37*
G36*
X166343039Y-76819685D02*
G01*
X166388794Y-76872489D01*
X166400000Y-76924000D01*
X166400000Y-78376000D01*
X166380315Y-78443039D01*
X166327511Y-78488794D01*
X166276000Y-78500000D01*
X164474000Y-78500000D01*
X164406961Y-78480315D01*
X164361206Y-78427511D01*
X164350000Y-78376000D01*
X164350000Y-76924000D01*
X164369685Y-76856961D01*
X164422489Y-76811206D01*
X164474000Y-76800000D01*
X166276000Y-76800000D01*
X166343039Y-76819685D01*
G37*
G36*
X145681455Y-76704930D02*
G01*
X145727210Y-76757734D01*
X145738416Y-76809245D01*
X145738416Y-78261245D01*
X145718731Y-78328284D01*
X145665927Y-78374039D01*
X145614416Y-78385245D01*
X143824000Y-78385245D01*
X143756961Y-78365560D01*
X143711206Y-78312756D01*
X143700000Y-78261245D01*
X143700000Y-76809245D01*
X143719685Y-76742206D01*
X143772489Y-76696451D01*
X143824000Y-76685245D01*
X145614416Y-76685245D01*
X145681455Y-76704930D01*
G37*
G36*
X145686091Y-99564930D02*
G01*
X145731846Y-99617734D01*
X145743051Y-99669609D01*
X145738779Y-101126609D01*
X145718898Y-101193590D01*
X145665961Y-101239190D01*
X145614780Y-101250245D01*
X143824000Y-101250245D01*
X143756961Y-101230560D01*
X143711206Y-101177756D01*
X143700000Y-101126245D01*
X143700000Y-99669245D01*
X143719685Y-99602206D01*
X143772489Y-99556451D01*
X143824000Y-99545245D01*
X145619052Y-99545245D01*
X145686091Y-99564930D01*
G37*
G36*
X166343039Y-89519685D02*
G01*
X166388794Y-89572489D01*
X166400000Y-89624000D01*
X166400000Y-91076000D01*
X166380315Y-91143039D01*
X166327511Y-91188794D01*
X166276000Y-91200000D01*
X164474000Y-91200000D01*
X164406961Y-91180315D01*
X164361206Y-91127511D01*
X164350000Y-91076000D01*
X164350000Y-89624000D01*
X164369685Y-89556961D01*
X164422489Y-89511206D01*
X164474000Y-89500000D01*
X166276000Y-89500000D01*
X166343039Y-89519685D01*
G37*
G36*
X154583039Y-69869685D02*
G01*
X154628794Y-69922489D01*
X154640000Y-69974000D01*
X154640000Y-71151000D01*
X154620315Y-71218039D01*
X154567511Y-71263794D01*
X154516000Y-71275000D01*
X153054000Y-71275000D01*
X152986961Y-71255315D01*
X152941206Y-71202511D01*
X152930000Y-71151000D01*
X152930000Y-69974000D01*
X152949685Y-69906961D01*
X153002489Y-69861206D01*
X153054000Y-69850000D01*
X154516000Y-69850000D01*
X154583039Y-69869685D01*
G37*
G36*
X166343039Y-94599685D02*
G01*
X166388794Y-94652489D01*
X166400000Y-94704000D01*
X166400000Y-96156000D01*
X166380315Y-96223039D01*
X166327511Y-96268794D01*
X166276000Y-96280000D01*
X164474000Y-96280000D01*
X164406961Y-96260315D01*
X164361206Y-96207511D01*
X164350000Y-96156000D01*
X164350000Y-94704000D01*
X164369685Y-94636961D01*
X164422489Y-94591206D01*
X164474000Y-94580000D01*
X166276000Y-94580000D01*
X166343039Y-94599685D01*
G37*
G36*
X145681455Y-97024930D02*
G01*
X145727210Y-97077734D01*
X145738416Y-97129245D01*
X145738416Y-98581245D01*
X145718731Y-98648284D01*
X145665927Y-98694039D01*
X145614416Y-98705245D01*
X143824000Y-98705245D01*
X143756961Y-98685560D01*
X143711206Y-98632756D01*
X143700000Y-98581245D01*
X143700000Y-97129245D01*
X143719685Y-97062206D01*
X143772489Y-97016451D01*
X143824000Y-97005245D01*
X145614416Y-97005245D01*
X145681455Y-97024930D01*
G37*
G36*
X166343039Y-86979685D02*
G01*
X166388794Y-87032489D01*
X166400000Y-87084000D01*
X166400000Y-88536000D01*
X166380315Y-88603039D01*
X166327511Y-88648794D01*
X166276000Y-88660000D01*
X164474000Y-88660000D01*
X164406961Y-88640315D01*
X164361206Y-88587511D01*
X164350000Y-88536000D01*
X164350000Y-87084000D01*
X164369685Y-87016961D01*
X164422489Y-86971206D01*
X164474000Y-86960000D01*
X166276000Y-86960000D01*
X166343039Y-86979685D01*
G37*
G36*
X166343039Y-74279685D02*
G01*
X166388794Y-74332489D01*
X166400000Y-74384000D01*
X166400000Y-75836000D01*
X166380315Y-75903039D01*
X166327511Y-75948794D01*
X166276000Y-75960000D01*
X164474000Y-75960000D01*
X164406961Y-75940315D01*
X164361206Y-75887511D01*
X164350000Y-75836000D01*
X164350000Y-74384000D01*
X164369685Y-74316961D01*
X164422489Y-74271206D01*
X164474000Y-74260000D01*
X166276000Y-74260000D01*
X166343039Y-74279685D01*
G37*
G36*
X157123039Y-69869685D02*
G01*
X157168794Y-69922489D01*
X157180000Y-69974000D01*
X157180000Y-71151000D01*
X157160315Y-71218039D01*
X157107511Y-71263794D01*
X157056000Y-71275000D01*
X155599000Y-71275000D01*
X155531961Y-71255315D01*
X155486206Y-71202511D01*
X155475000Y-71151000D01*
X155475000Y-69974000D01*
X155494685Y-69906961D01*
X155547489Y-69861206D01*
X155599000Y-69850000D01*
X157056000Y-69850000D01*
X157123039Y-69869685D01*
G37*
G36*
X166343039Y-99679685D02*
G01*
X166388794Y-99732489D01*
X166400000Y-99784000D01*
X166400000Y-101241000D01*
X166380315Y-101308039D01*
X166327511Y-101353794D01*
X166276000Y-101365000D01*
X164474000Y-101365000D01*
X164406961Y-101345315D01*
X164361206Y-101292511D01*
X164350000Y-101241000D01*
X164350000Y-99784000D01*
X164369685Y-99716961D01*
X164422489Y-99671206D01*
X164474000Y-99660000D01*
X166276000Y-99660000D01*
X166343039Y-99679685D01*
G37*
G36*
X145681455Y-81784930D02*
G01*
X145727210Y-81837734D01*
X145738416Y-81889245D01*
X145738416Y-83341245D01*
X145718731Y-83408284D01*
X145665927Y-83454039D01*
X145614416Y-83465245D01*
X143824000Y-83465245D01*
X143756961Y-83445560D01*
X143711206Y-83392756D01*
X143700000Y-83341245D01*
X143700000Y-81889245D01*
X143719685Y-81822206D01*
X143772489Y-81776451D01*
X143824000Y-81765245D01*
X145614416Y-81765245D01*
X145681455Y-81784930D01*
G37*
G36*
X145681455Y-94484930D02*
G01*
X145727210Y-94537734D01*
X145738416Y-94589245D01*
X145738416Y-96041245D01*
X145718731Y-96108284D01*
X145665927Y-96154039D01*
X145614416Y-96165245D01*
X143824000Y-96165245D01*
X143756961Y-96145560D01*
X143711206Y-96092756D01*
X143700000Y-96041245D01*
X143700000Y-94589245D01*
X143719685Y-94522206D01*
X143772489Y-94476451D01*
X143824000Y-94465245D01*
X145614416Y-94465245D01*
X145681455Y-94484930D01*
G37*
G36*
X166343039Y-81899685D02*
G01*
X166388794Y-81952489D01*
X166400000Y-82004000D01*
X166400000Y-83456000D01*
X166380315Y-83523039D01*
X166327511Y-83568794D01*
X166276000Y-83580000D01*
X164474000Y-83580000D01*
X164406961Y-83560315D01*
X164361206Y-83507511D01*
X164350000Y-83456000D01*
X164350000Y-82004000D01*
X164369685Y-81936961D01*
X164422489Y-81891206D01*
X164474000Y-81880000D01*
X166276000Y-81880000D01*
X166343039Y-81899685D01*
G37*
G36*
X145681455Y-84324930D02*
G01*
X145727210Y-84377734D01*
X145738416Y-84429245D01*
X145738416Y-85881245D01*
X145718731Y-85948284D01*
X145665927Y-85994039D01*
X145614416Y-86005245D01*
X143824000Y-86005245D01*
X143756961Y-85985560D01*
X143711206Y-85932756D01*
X143700000Y-85881245D01*
X143700000Y-84429245D01*
X143719685Y-84362206D01*
X143772489Y-84316451D01*
X143824000Y-84305245D01*
X145614416Y-84305245D01*
X145681455Y-84324930D01*
G37*
G36*
X166343039Y-79359685D02*
G01*
X166388794Y-79412489D01*
X166400000Y-79464000D01*
X166400000Y-80916000D01*
X166380315Y-80983039D01*
X166327511Y-81028794D01*
X166276000Y-81040000D01*
X164474000Y-81040000D01*
X164406961Y-81020315D01*
X164361206Y-80967511D01*
X164350000Y-80916000D01*
X164350000Y-79464000D01*
X164369685Y-79396961D01*
X164422489Y-79351206D01*
X164474000Y-79340000D01*
X166276000Y-79340000D01*
X166343039Y-79359685D01*
G37*
G36*
X159658039Y-69869685D02*
G01*
X159703794Y-69922489D01*
X159715000Y-69974000D01*
X159715000Y-71151000D01*
X159695315Y-71218039D01*
X159642511Y-71263794D01*
X159591000Y-71275000D01*
X158144000Y-71275000D01*
X158076961Y-71255315D01*
X158031206Y-71202511D01*
X158020000Y-71151000D01*
X158020000Y-69974000D01*
X158039685Y-69906961D01*
X158092489Y-69861206D01*
X158144000Y-69850000D01*
X159591000Y-69850000D01*
X159658039Y-69869685D01*
G37*
G36*
X145681455Y-86864930D02*
G01*
X145727210Y-86917734D01*
X145738416Y-86969245D01*
X145738416Y-88421245D01*
X145718731Y-88488284D01*
X145665927Y-88534039D01*
X145614416Y-88545245D01*
X143824000Y-88545245D01*
X143756961Y-88525560D01*
X143711206Y-88472756D01*
X143700000Y-88421245D01*
X143700000Y-86969245D01*
X143719685Y-86902206D01*
X143772489Y-86856451D01*
X143824000Y-86845245D01*
X145614416Y-86845245D01*
X145681455Y-86864930D01*
G37*
G36*
X145681455Y-74164930D02*
G01*
X145727210Y-74217734D01*
X145738416Y-74269245D01*
X145738416Y-75721245D01*
X145718731Y-75788284D01*
X145665927Y-75834039D01*
X145614416Y-75845245D01*
X143824000Y-75845245D01*
X143756961Y-75825560D01*
X143711206Y-75772756D01*
X143700000Y-75721245D01*
X143700000Y-74269245D01*
X143719685Y-74202206D01*
X143772489Y-74156451D01*
X143824000Y-74145245D01*
X145614416Y-74145245D01*
X145681455Y-74164930D01*
G37*
G36*
X145681455Y-79244930D02*
G01*
X145727210Y-79297734D01*
X145738416Y-79349245D01*
X145738416Y-80801245D01*
X145718731Y-80868284D01*
X145665927Y-80914039D01*
X145614416Y-80925245D01*
X143824000Y-80925245D01*
X143756961Y-80905560D01*
X143711206Y-80852756D01*
X143700000Y-80801245D01*
X143700000Y-79349245D01*
X143719685Y-79282206D01*
X143772489Y-79236451D01*
X143824000Y-79225245D01*
X145614416Y-79225245D01*
X145681455Y-79244930D01*
G37*
G36*
X145681455Y-91944930D02*
G01*
X145727210Y-91997734D01*
X145738416Y-92049245D01*
X145738416Y-93501245D01*
X145718731Y-93568284D01*
X145665927Y-93614039D01*
X145614416Y-93625245D01*
X143824000Y-93625245D01*
X143756961Y-93605560D01*
X143711206Y-93552756D01*
X143700000Y-93501245D01*
X143700000Y-92049245D01*
X143719685Y-91982206D01*
X143772489Y-91936451D01*
X143824000Y-91925245D01*
X145614416Y-91925245D01*
X145681455Y-91944930D01*
G37*
G36*
X145681455Y-89404930D02*
G01*
X145727210Y-89457734D01*
X145738416Y-89509245D01*
X145738416Y-90961245D01*
X145718731Y-91028284D01*
X145665927Y-91074039D01*
X145614416Y-91085245D01*
X143824000Y-91085245D01*
X143756961Y-91065560D01*
X143711206Y-91012756D01*
X143700000Y-90961245D01*
X143700000Y-89509245D01*
X143719685Y-89442206D01*
X143772489Y-89396451D01*
X143824000Y-89385245D01*
X145614416Y-89385245D01*
X145681455Y-89404930D01*
G37*
%LPD*%
M02*
