%TF.GenerationSoftware,KiCad,Pcbnew,8.0.2-1*%
%TF.CreationDate,2024-05-29T23:20:37-07:00*%
%TF.ProjectId,mux_driver_v1,6d75785f-6472-4697-9665-725f76312e6b,rev?*%
%TF.SameCoordinates,Original*%
%TF.FileFunction,Soldermask,Top*%
%TF.FilePolarity,Negative*%
%FSLAX46Y46*%
G04 Gerber Fmt 4.6, Leading zero omitted, Abs format (unit mm)*
G04 Created by KiCad (PCBNEW 8.0.2-1) date 2024-05-29 23:20:37*
%MOMM*%
%LPD*%
G01*
G04 APERTURE LIST*
G04 Aperture macros list*
%AMRoundRect*
0 Rectangle with rounded corners*
0 $1 Rounding radius*
0 $2 $3 $4 $5 $6 $7 $8 $9 X,Y pos of 4 corners*
0 Add a 4 corners polygon primitive as box body*
4,1,4,$2,$3,$4,$5,$6,$7,$8,$9,$2,$3,0*
0 Add four circle primitives for the rounded corners*
1,1,$1+$1,$2,$3*
1,1,$1+$1,$4,$5*
1,1,$1+$1,$6,$7*
1,1,$1+$1,$8,$9*
0 Add four rect primitives between the rounded corners*
20,1,$1+$1,$2,$3,$4,$5,0*
20,1,$1+$1,$4,$5,$6,$7,0*
20,1,$1+$1,$6,$7,$8,$9,0*
20,1,$1+$1,$8,$9,$2,$3,0*%
G04 Aperture macros list end*
%ADD10R,1.700000X1.700000*%
%ADD11O,1.700000X1.700000*%
%ADD12RoundRect,0.150000X0.150000X0.625000X-0.150000X0.625000X-0.150000X-0.625000X0.150000X-0.625000X0*%
%ADD13RoundRect,0.250000X0.350000X0.650000X-0.350000X0.650000X-0.350000X-0.650000X0.350000X-0.650000X0*%
%ADD14R,0.450000X1.475000*%
%ADD15RoundRect,0.200000X-0.200000X-0.275000X0.200000X-0.275000X0.200000X0.275000X-0.200000X0.275000X0*%
%ADD16R,0.800000X0.500000*%
%ADD17R,0.800000X0.400000*%
%ADD18RoundRect,0.020500X-0.764500X-0.184500X0.764500X-0.184500X0.764500X0.184500X-0.764500X0.184500X0*%
%ADD19RoundRect,0.150000X-0.150000X-0.625000X0.150000X-0.625000X0.150000X0.625000X-0.150000X0.625000X0*%
%ADD20RoundRect,0.250000X-0.350000X-0.650000X0.350000X-0.650000X0.350000X0.650000X-0.350000X0.650000X0*%
G04 APERTURE END LIST*
D10*
%TO.C,J6*%
X166360000Y-75110000D03*
D11*
X166360000Y-77650000D03*
X166360000Y-80190000D03*
X166360000Y-82730000D03*
X166360000Y-85270000D03*
X166360000Y-87810000D03*
X166360000Y-90350000D03*
X166360000Y-92890000D03*
X166360000Y-95430000D03*
X166360000Y-97970000D03*
X166360000Y-100510000D03*
%TD*%
D10*
%TO.C,J4*%
X143710000Y-74990000D03*
D11*
X143710000Y-77530000D03*
X143710000Y-80070000D03*
X143710000Y-82610000D03*
X143710000Y-85150000D03*
X143710000Y-87690000D03*
X143710000Y-90230000D03*
X143710000Y-92770000D03*
X143710000Y-95310000D03*
X143710000Y-97850000D03*
X143710000Y-100390000D03*
%TD*%
D12*
%TO.C,J1*%
X160520000Y-97725000D03*
X159520000Y-97725000D03*
X158520000Y-97725000D03*
X157520000Y-97725000D03*
D13*
X161820000Y-100250000D03*
X156220000Y-100250000D03*
%TD*%
D14*
%TO.C,IC1*%
X150905000Y-85058000D03*
X151555000Y-85058000D03*
X152205000Y-85058000D03*
X152855000Y-85058000D03*
X153505000Y-85058000D03*
X154155000Y-85058000D03*
X154805000Y-85058000D03*
X155455000Y-85058000D03*
X156105000Y-85058000D03*
X156755000Y-85058000D03*
X157405000Y-85058000D03*
X158055000Y-85058000D03*
X158705000Y-85058000D03*
X159355000Y-85058000D03*
X159355000Y-79182000D03*
X158705000Y-79182000D03*
X158055000Y-79182000D03*
X157405000Y-79182000D03*
X156755000Y-79182000D03*
X156105000Y-79182000D03*
X155455000Y-79182000D03*
X154805000Y-79182000D03*
X154155000Y-79182000D03*
X153505000Y-79182000D03*
X152855000Y-79182000D03*
X152205000Y-79182000D03*
X151555000Y-79182000D03*
X150905000Y-79182000D03*
%TD*%
D15*
%TO.C,R3*%
X147965000Y-87980000D03*
X149615000Y-87980000D03*
%TD*%
D16*
%TO.C,R1*%
X149700000Y-91840000D03*
D17*
X149700000Y-91040000D03*
X149700000Y-90240000D03*
D16*
X149700000Y-89440000D03*
X147900000Y-89440000D03*
D17*
X147900000Y-90240000D03*
X147900000Y-91040000D03*
D16*
X147900000Y-91840000D03*
%TD*%
D18*
%TO.C,U1*%
X152215000Y-88545000D03*
X152215000Y-89195000D03*
X152215000Y-89845000D03*
X152215000Y-90495000D03*
X152215000Y-91145000D03*
X152215000Y-91795000D03*
X152215000Y-92445000D03*
X152215000Y-93095000D03*
X152215000Y-93745000D03*
X152215000Y-94395000D03*
X152215000Y-95045000D03*
X152215000Y-95695000D03*
X157955000Y-95695000D03*
X157955000Y-95045000D03*
X157955000Y-94395000D03*
X157955000Y-93745000D03*
X157955000Y-93095000D03*
X157955000Y-92445000D03*
X157955000Y-91795000D03*
X157955000Y-91145000D03*
X157955000Y-90495000D03*
X157955000Y-89845000D03*
X157955000Y-89195000D03*
X157955000Y-88545000D03*
%TD*%
D19*
%TO.C,J5*%
X157650000Y-76820000D03*
X158650000Y-76820000D03*
X159650000Y-76820000D03*
X160650000Y-76820000D03*
D20*
X156350000Y-74295000D03*
X161950000Y-74295000D03*
%TD*%
D16*
%TO.C,R4*%
X160450000Y-93300000D03*
D17*
X160450000Y-94100000D03*
X160450000Y-94900000D03*
D16*
X160450000Y-95700000D03*
X162250000Y-95700000D03*
D17*
X162250000Y-94900000D03*
X162250000Y-94100000D03*
D16*
X162250000Y-93300000D03*
%TD*%
D19*
%TO.C,J2*%
X149740000Y-76810000D03*
X150740000Y-76810000D03*
X151740000Y-76810000D03*
X152740000Y-76810000D03*
D20*
X148440000Y-74285000D03*
X154040000Y-74285000D03*
%TD*%
D12*
%TO.C,J3*%
X152630000Y-97730000D03*
X151630000Y-97730000D03*
X150630000Y-97730000D03*
X149630000Y-97730000D03*
D13*
X153930000Y-100255000D03*
X148330000Y-100255000D03*
%TD*%
D16*
%TO.C,R2*%
X149690000Y-95660000D03*
D17*
X149690000Y-94860000D03*
X149690000Y-94060000D03*
D16*
X149690000Y-93260000D03*
X147890000Y-93260000D03*
D17*
X147890000Y-94060000D03*
X147890000Y-94860000D03*
D16*
X147890000Y-95660000D03*
%TD*%
D10*
%TO.C,J7*%
X151245000Y-69850000D03*
D11*
X153785000Y-69850000D03*
X156325000Y-69850000D03*
X158865000Y-69850000D03*
%TD*%
G36*
X166343039Y-97139685D02*
G01*
X166388794Y-97192489D01*
X166400000Y-97244000D01*
X166400000Y-98696000D01*
X166380315Y-98763039D01*
X166327511Y-98808794D01*
X166276000Y-98820000D01*
X164474000Y-98820000D01*
X164406961Y-98800315D01*
X164361206Y-98747511D01*
X164350000Y-98696000D01*
X164350000Y-97244000D01*
X164369685Y-97176961D01*
X164422489Y-97131206D01*
X164474000Y-97120000D01*
X166276000Y-97120000D01*
X166343039Y-97139685D01*
G37*
G36*
X152043039Y-69869685D02*
G01*
X152088794Y-69922489D01*
X152100000Y-69974000D01*
X152100000Y-71151000D01*
X152080315Y-71218039D01*
X152027511Y-71263794D01*
X151976000Y-71275000D01*
X150519000Y-71275000D01*
X150451961Y-71255315D01*
X150406206Y-71202511D01*
X150395000Y-71151000D01*
X150395000Y-69974000D01*
X150414685Y-69906961D01*
X150467489Y-69861206D01*
X150519000Y-69850000D01*
X151976000Y-69850000D01*
X152043039Y-69869685D01*
G37*
G36*
X166343039Y-84439685D02*
G01*
X166388794Y-84492489D01*
X166400000Y-84544000D01*
X166400000Y-85996000D01*
X166380315Y-86063039D01*
X166327511Y-86108794D01*
X166276000Y-86120000D01*
X164474000Y-86120000D01*
X164406961Y-86100315D01*
X164361206Y-86047511D01*
X164350000Y-85996000D01*
X164350000Y-84544000D01*
X164369685Y-84476961D01*
X164422489Y-84431206D01*
X164474000Y-84420000D01*
X166276000Y-84420000D01*
X166343039Y-84439685D01*
G37*
G36*
X166343039Y-92059685D02*
G01*
X166388794Y-92112489D01*
X166400000Y-92164000D01*
X166400000Y-93616000D01*
X166380315Y-93683039D01*
X166327511Y-93728794D01*
X166276000Y-93740000D01*
X164474000Y-93740000D01*
X164406961Y-93720315D01*
X164361206Y-93667511D01*
X164350000Y-93616000D01*
X164350000Y-92164000D01*
X164369685Y-92096961D01*
X164422489Y-92051206D01*
X164474000Y-92040000D01*
X166276000Y-92040000D01*
X166343039Y-92059685D01*
G37*
G36*
X166343039Y-76819685D02*
G01*
X166388794Y-76872489D01*
X166400000Y-76924000D01*
X166400000Y-78376000D01*
X166380315Y-78443039D01*
X166327511Y-78488794D01*
X166276000Y-78500000D01*
X164474000Y-78500000D01*
X164406961Y-78480315D01*
X164361206Y-78427511D01*
X164350000Y-78376000D01*
X164350000Y-76924000D01*
X164369685Y-76856961D01*
X164422489Y-76811206D01*
X164474000Y-76800000D01*
X166276000Y-76800000D01*
X166343039Y-76819685D01*
G37*
G36*
X145681455Y-76704930D02*
G01*
X145727210Y-76757734D01*
X145738416Y-76809245D01*
X145738416Y-78261245D01*
X145718731Y-78328284D01*
X145665927Y-78374039D01*
X145614416Y-78385245D01*
X143824000Y-78385245D01*
X143756961Y-78365560D01*
X143711206Y-78312756D01*
X143700000Y-78261245D01*
X143700000Y-76809245D01*
X143719685Y-76742206D01*
X143772489Y-76696451D01*
X143824000Y-76685245D01*
X145614416Y-76685245D01*
X145681455Y-76704930D01*
G37*
G36*
X145686091Y-99564930D02*
G01*
X145731846Y-99617734D01*
X145743051Y-99669609D01*
X145738779Y-101126609D01*
X145718898Y-101193590D01*
X145665961Y-101239190D01*
X145614780Y-101250245D01*
X143824000Y-101250245D01*
X143756961Y-101230560D01*
X143711206Y-101177756D01*
X143700000Y-101126245D01*
X143700000Y-99669245D01*
X143719685Y-99602206D01*
X143772489Y-99556451D01*
X143824000Y-99545245D01*
X145619052Y-99545245D01*
X145686091Y-99564930D01*
G37*
G36*
X166343039Y-89519685D02*
G01*
X166388794Y-89572489D01*
X166400000Y-89624000D01*
X166400000Y-91076000D01*
X166380315Y-91143039D01*
X166327511Y-91188794D01*
X166276000Y-91200000D01*
X164474000Y-91200000D01*
X164406961Y-91180315D01*
X164361206Y-91127511D01*
X164350000Y-91076000D01*
X164350000Y-89624000D01*
X164369685Y-89556961D01*
X164422489Y-89511206D01*
X164474000Y-89500000D01*
X166276000Y-89500000D01*
X166343039Y-89519685D01*
G37*
G36*
X154583039Y-69869685D02*
G01*
X154628794Y-69922489D01*
X154640000Y-69974000D01*
X154640000Y-71151000D01*
X154620315Y-71218039D01*
X154567511Y-71263794D01*
X154516000Y-71275000D01*
X153054000Y-71275000D01*
X152986961Y-71255315D01*
X152941206Y-71202511D01*
X152930000Y-71151000D01*
X152930000Y-69974000D01*
X152949685Y-69906961D01*
X153002489Y-69861206D01*
X153054000Y-69850000D01*
X154516000Y-69850000D01*
X154583039Y-69869685D01*
G37*
G36*
X166343039Y-94599685D02*
G01*
X166388794Y-94652489D01*
X166400000Y-94704000D01*
X166400000Y-96156000D01*
X166380315Y-96223039D01*
X166327511Y-96268794D01*
X166276000Y-96280000D01*
X164474000Y-96280000D01*
X164406961Y-96260315D01*
X164361206Y-96207511D01*
X164350000Y-96156000D01*
X164350000Y-94704000D01*
X164369685Y-94636961D01*
X164422489Y-94591206D01*
X164474000Y-94580000D01*
X166276000Y-94580000D01*
X166343039Y-94599685D01*
G37*
G36*
X145681455Y-97024930D02*
G01*
X145727210Y-97077734D01*
X145738416Y-97129245D01*
X145738416Y-98581245D01*
X145718731Y-98648284D01*
X145665927Y-98694039D01*
X145614416Y-98705245D01*
X143824000Y-98705245D01*
X143756961Y-98685560D01*
X143711206Y-98632756D01*
X143700000Y-98581245D01*
X143700000Y-97129245D01*
X143719685Y-97062206D01*
X143772489Y-97016451D01*
X143824000Y-97005245D01*
X145614416Y-97005245D01*
X145681455Y-97024930D01*
G37*
G36*
X166343039Y-86979685D02*
G01*
X166388794Y-87032489D01*
X166400000Y-87084000D01*
X166400000Y-88536000D01*
X166380315Y-88603039D01*
X166327511Y-88648794D01*
X166276000Y-88660000D01*
X164474000Y-88660000D01*
X164406961Y-88640315D01*
X164361206Y-88587511D01*
X164350000Y-88536000D01*
X164350000Y-87084000D01*
X164369685Y-87016961D01*
X164422489Y-86971206D01*
X164474000Y-86960000D01*
X166276000Y-86960000D01*
X166343039Y-86979685D01*
G37*
G36*
X166343039Y-74279685D02*
G01*
X166388794Y-74332489D01*
X166400000Y-74384000D01*
X166400000Y-75836000D01*
X166380315Y-75903039D01*
X166327511Y-75948794D01*
X166276000Y-75960000D01*
X164474000Y-75960000D01*
X164406961Y-75940315D01*
X164361206Y-75887511D01*
X164350000Y-75836000D01*
X164350000Y-74384000D01*
X164369685Y-74316961D01*
X164422489Y-74271206D01*
X164474000Y-74260000D01*
X166276000Y-74260000D01*
X166343039Y-74279685D01*
G37*
G36*
X157123039Y-69869685D02*
G01*
X157168794Y-69922489D01*
X157180000Y-69974000D01*
X157180000Y-71151000D01*
X157160315Y-71218039D01*
X157107511Y-71263794D01*
X157056000Y-71275000D01*
X155599000Y-71275000D01*
X155531961Y-71255315D01*
X155486206Y-71202511D01*
X155475000Y-71151000D01*
X155475000Y-69974000D01*
X155494685Y-69906961D01*
X155547489Y-69861206D01*
X155599000Y-69850000D01*
X157056000Y-69850000D01*
X157123039Y-69869685D01*
G37*
G36*
X166343039Y-99679685D02*
G01*
X166388794Y-99732489D01*
X166400000Y-99784000D01*
X166400000Y-101241000D01*
X166380315Y-101308039D01*
X166327511Y-101353794D01*
X166276000Y-101365000D01*
X164474000Y-101365000D01*
X164406961Y-101345315D01*
X164361206Y-101292511D01*
X164350000Y-101241000D01*
X164350000Y-99784000D01*
X164369685Y-99716961D01*
X164422489Y-99671206D01*
X164474000Y-99660000D01*
X166276000Y-99660000D01*
X166343039Y-99679685D01*
G37*
G36*
X145681455Y-81784930D02*
G01*
X145727210Y-81837734D01*
X145738416Y-81889245D01*
X145738416Y-83341245D01*
X145718731Y-83408284D01*
X145665927Y-83454039D01*
X145614416Y-83465245D01*
X143824000Y-83465245D01*
X143756961Y-83445560D01*
X143711206Y-83392756D01*
X143700000Y-83341245D01*
X143700000Y-81889245D01*
X143719685Y-81822206D01*
X143772489Y-81776451D01*
X143824000Y-81765245D01*
X145614416Y-81765245D01*
X145681455Y-81784930D01*
G37*
G36*
X145681455Y-94484930D02*
G01*
X145727210Y-94537734D01*
X145738416Y-94589245D01*
X145738416Y-96041245D01*
X145718731Y-96108284D01*
X145665927Y-96154039D01*
X145614416Y-96165245D01*
X143824000Y-96165245D01*
X143756961Y-96145560D01*
X143711206Y-96092756D01*
X143700000Y-96041245D01*
X143700000Y-94589245D01*
X143719685Y-94522206D01*
X143772489Y-94476451D01*
X143824000Y-94465245D01*
X145614416Y-94465245D01*
X145681455Y-94484930D01*
G37*
G36*
X166343039Y-81899685D02*
G01*
X166388794Y-81952489D01*
X166400000Y-82004000D01*
X166400000Y-83456000D01*
X166380315Y-83523039D01*
X166327511Y-83568794D01*
X166276000Y-83580000D01*
X164474000Y-83580000D01*
X164406961Y-83560315D01*
X164361206Y-83507511D01*
X164350000Y-83456000D01*
X164350000Y-82004000D01*
X164369685Y-81936961D01*
X164422489Y-81891206D01*
X164474000Y-81880000D01*
X166276000Y-81880000D01*
X166343039Y-81899685D01*
G37*
G36*
X145681455Y-84324930D02*
G01*
X145727210Y-84377734D01*
X145738416Y-84429245D01*
X145738416Y-85881245D01*
X145718731Y-85948284D01*
X145665927Y-85994039D01*
X145614416Y-86005245D01*
X143824000Y-86005245D01*
X143756961Y-85985560D01*
X143711206Y-85932756D01*
X143700000Y-85881245D01*
X143700000Y-84429245D01*
X143719685Y-84362206D01*
X143772489Y-84316451D01*
X143824000Y-84305245D01*
X145614416Y-84305245D01*
X145681455Y-84324930D01*
G37*
G36*
X166343039Y-79359685D02*
G01*
X166388794Y-79412489D01*
X166400000Y-79464000D01*
X166400000Y-80916000D01*
X166380315Y-80983039D01*
X166327511Y-81028794D01*
X166276000Y-81040000D01*
X164474000Y-81040000D01*
X164406961Y-81020315D01*
X164361206Y-80967511D01*
X164350000Y-80916000D01*
X164350000Y-79464000D01*
X164369685Y-79396961D01*
X164422489Y-79351206D01*
X164474000Y-79340000D01*
X166276000Y-79340000D01*
X166343039Y-79359685D01*
G37*
G36*
X159658039Y-69869685D02*
G01*
X159703794Y-69922489D01*
X159715000Y-69974000D01*
X159715000Y-71151000D01*
X159695315Y-71218039D01*
X159642511Y-71263794D01*
X159591000Y-71275000D01*
X158144000Y-71275000D01*
X158076961Y-71255315D01*
X158031206Y-71202511D01*
X158020000Y-71151000D01*
X158020000Y-69974000D01*
X158039685Y-69906961D01*
X158092489Y-69861206D01*
X158144000Y-69850000D01*
X159591000Y-69850000D01*
X159658039Y-69869685D01*
G37*
G36*
X145681455Y-86864930D02*
G01*
X145727210Y-86917734D01*
X145738416Y-86969245D01*
X145738416Y-88421245D01*
X145718731Y-88488284D01*
X145665927Y-88534039D01*
X145614416Y-88545245D01*
X143824000Y-88545245D01*
X143756961Y-88525560D01*
X143711206Y-88472756D01*
X143700000Y-88421245D01*
X143700000Y-86969245D01*
X143719685Y-86902206D01*
X143772489Y-86856451D01*
X143824000Y-86845245D01*
X145614416Y-86845245D01*
X145681455Y-86864930D01*
G37*
G36*
X145681455Y-74164930D02*
G01*
X145727210Y-74217734D01*
X145738416Y-74269245D01*
X145738416Y-75721245D01*
X145718731Y-75788284D01*
X145665927Y-75834039D01*
X145614416Y-75845245D01*
X143824000Y-75845245D01*
X143756961Y-75825560D01*
X143711206Y-75772756D01*
X143700000Y-75721245D01*
X143700000Y-74269245D01*
X143719685Y-74202206D01*
X143772489Y-74156451D01*
X143824000Y-74145245D01*
X145614416Y-74145245D01*
X145681455Y-74164930D01*
G37*
G36*
X145681455Y-79244930D02*
G01*
X145727210Y-79297734D01*
X145738416Y-79349245D01*
X145738416Y-80801245D01*
X145718731Y-80868284D01*
X145665927Y-80914039D01*
X145614416Y-80925245D01*
X143824000Y-80925245D01*
X143756961Y-80905560D01*
X143711206Y-80852756D01*
X143700000Y-80801245D01*
X143700000Y-79349245D01*
X143719685Y-79282206D01*
X143772489Y-79236451D01*
X143824000Y-79225245D01*
X145614416Y-79225245D01*
X145681455Y-79244930D01*
G37*
G36*
X145681455Y-91944930D02*
G01*
X145727210Y-91997734D01*
X145738416Y-92049245D01*
X145738416Y-93501245D01*
X145718731Y-93568284D01*
X145665927Y-93614039D01*
X145614416Y-93625245D01*
X143824000Y-93625245D01*
X143756961Y-93605560D01*
X143711206Y-93552756D01*
X143700000Y-93501245D01*
X143700000Y-92049245D01*
X143719685Y-91982206D01*
X143772489Y-91936451D01*
X143824000Y-91925245D01*
X145614416Y-91925245D01*
X145681455Y-91944930D01*
G37*
G36*
X145681455Y-89404930D02*
G01*
X145727210Y-89457734D01*
X145738416Y-89509245D01*
X145738416Y-90961245D01*
X145718731Y-91028284D01*
X145665927Y-91074039D01*
X145614416Y-91085245D01*
X143824000Y-91085245D01*
X143756961Y-91065560D01*
X143711206Y-91012756D01*
X143700000Y-90961245D01*
X143700000Y-89509245D01*
X143719685Y-89442206D01*
X143772489Y-89396451D01*
X143824000Y-89385245D01*
X145614416Y-89385245D01*
X145681455Y-89404930D01*
G37*
M02*
