%TF.GenerationSoftware,KiCad,Pcbnew,7.0.5*%
%TF.CreationDate,2023-08-02T13:43:57-07:00*%
%TF.ProjectId,flight_computer_dev_board_rfm98pw,666c6967-6874-45f6-936f-6d7075746572,rev?*%
%TF.SameCoordinates,Original*%
%TF.FileFunction,Soldermask,Bot*%
%TF.FilePolarity,Negative*%
%FSLAX46Y46*%
G04 Gerber Fmt 4.6, Leading zero omitted, Abs format (unit mm)*
G04 Created by KiCad (PCBNEW 7.0.5) date 2023-08-02 13:43:57*
%MOMM*%
%LPD*%
G01*
G04 APERTURE LIST*
G04 Aperture macros list*
%AMRoundRect*
0 Rectangle with rounded corners*
0 $1 Rounding radius*
0 $2 $3 $4 $5 $6 $7 $8 $9 X,Y pos of 4 corners*
0 Add a 4 corners polygon primitive as box body*
4,1,4,$2,$3,$4,$5,$6,$7,$8,$9,$2,$3,0*
0 Add four circle primitives for the rounded corners*
1,1,$1+$1,$2,$3*
1,1,$1+$1,$4,$5*
1,1,$1+$1,$6,$7*
1,1,$1+$1,$8,$9*
0 Add four rect primitives between the rounded corners*
20,1,$1+$1,$2,$3,$4,$5,0*
20,1,$1+$1,$4,$5,$6,$7,0*
20,1,$1+$1,$6,$7,$8,$9,0*
20,1,$1+$1,$8,$9,$2,$3,0*%
%AMFreePoly0*
4,1,19,0.499999,-0.750000,0.000000,-0.750000,0.000000,-0.744912,-0.071157,-0.744911,-0.207708,-0.704816,-0.327430,-0.627875,-0.420627,-0.520320,-0.479746,-0.390866,-0.500000,-0.250000,-0.500000,0.250000,-0.479746,0.390866,-0.420627,0.520320,-0.327430,0.627875,-0.207708,0.704816,-0.071157,0.744911,0.000000,0.744912,0.000000,0.750000,0.499999,0.750000,0.499999,-0.750000,0.499999,-0.750000,
$1*%
%AMFreePoly1*
4,1,19,0.000000,0.744912,0.071157,0.744911,0.207708,0.704816,0.327430,0.627875,0.420627,0.520320,0.479746,0.390866,0.500000,0.250000,0.500000,-0.250000,0.479746,-0.390866,0.420627,-0.520320,0.327430,-0.627875,0.207708,-0.704816,0.071157,-0.744911,0.000000,-0.744912,0.000000,-0.750000,-0.499999,-0.750000,-0.499999,0.750000,0.000000,0.750000,0.000000,0.744912,0.000000,0.744912,
$1*%
G04 Aperture macros list end*
%ADD10C,2.000000*%
%ADD11R,1.200000X1.800000*%
%ADD12R,0.600000X1.550000*%
%ADD13C,2.050000*%
%ADD14C,2.250000*%
%ADD15C,5.000000*%
%ADD16O,2.416000X1.208000*%
%ADD17R,1.700000X1.700000*%
%ADD18O,1.700000X1.700000*%
%ADD19C,1.000000*%
%ADD20RoundRect,0.050800X0.380000X1.300000X-0.380000X1.300000X-0.380000X-1.300000X0.380000X-1.300000X0*%
%ADD21FreePoly0,135.000000*%
%ADD22FreePoly1,135.000000*%
%ADD23C,2.108200*%
%ADD24C,1.397000*%
%ADD25C,3.251200*%
G04 APERTURE END LIST*
D10*
%TO.C,TP4*%
X170910000Y-126760000D03*
%TD*%
%TO.C,TP3*%
X154880000Y-118320000D03*
%TD*%
D11*
%TO.C,J12*%
X184740000Y-95272500D03*
X179140000Y-95272500D03*
D12*
X183440000Y-92747500D03*
X182440000Y-92747500D03*
X181440000Y-92747500D03*
X180440000Y-92747500D03*
%TD*%
D13*
%TO.C,J6*%
X153170000Y-71210000D03*
D14*
X150630000Y-68670000D03*
X150630000Y-73750000D03*
X155710000Y-68670000D03*
X155710000Y-73750000D03*
%TD*%
D15*
%TO.C,*%
X227414400Y-138100000D03*
%TD*%
%TO.C,*%
X147381083Y-138100000D03*
%TD*%
D10*
%TO.C,TP2*%
X195510000Y-91320000D03*
%TD*%
%TO.C,TP1*%
X192960000Y-79300000D03*
%TD*%
D16*
%TO.C,J8*%
X224920000Y-86970000D03*
X224920000Y-79070000D03*
%TD*%
D17*
%TO.C,J3*%
X204330000Y-60190000D03*
D18*
X204330000Y-62730000D03*
X204330000Y-65270000D03*
X204330000Y-67810000D03*
X204330000Y-70350000D03*
X204330000Y-72890000D03*
%TD*%
D19*
%TO.C,J1*%
X200345000Y-97380000D03*
X196535000Y-97380000D03*
D20*
X200980000Y-99530000D03*
X200980000Y-95230000D03*
X199710000Y-99530000D03*
X199710000Y-95230000D03*
X198440000Y-99530000D03*
X198440000Y-95230000D03*
X197170000Y-99530000D03*
X197170000Y-95230000D03*
X195900000Y-99530000D03*
X195900000Y-95230000D03*
%TD*%
D21*
%TO.C,JP5*%
X179249619Y-109739619D03*
D22*
X178330381Y-108820381D03*
%TD*%
D23*
%TO.C,J5*%
X162858999Y-99605000D03*
X162858999Y-84055000D03*
D24*
X154909000Y-85505001D03*
X156428999Y-88045001D03*
X156428999Y-98155108D03*
X154909000Y-95615108D03*
X168689000Y-96275000D03*
X166149000Y-95005000D03*
X168689000Y-93735000D03*
X166149000Y-92465000D03*
X168689000Y-91195000D03*
X166149000Y-89925000D03*
X168689000Y-88655000D03*
X166149000Y-87385000D03*
D25*
X159809000Y-97545000D03*
X159809000Y-86115000D03*
%TD*%
D21*
%TO.C,JP4*%
X181080000Y-107900000D03*
D22*
X180160762Y-106980762D03*
%TD*%
D21*
%TO.C,JP3*%
X182909619Y-106039619D03*
D22*
X181990381Y-105120381D03*
%TD*%
M02*
