%TF.GenerationSoftware,KiCad,Pcbnew,7.0.1*%
%TF.CreationDate,2023-07-16T20:54:18-07:00*%
%TF.ProjectId,flight_computer_dev_board_rfm98pw,666c6967-6874-45f6-936f-6d7075746572,rev?*%
%TF.SameCoordinates,Original*%
%TF.FileFunction,Copper,L3,Inr*%
%TF.FilePolarity,Positive*%
%FSLAX46Y46*%
G04 Gerber Fmt 4.6, Leading zero omitted, Abs format (unit mm)*
G04 Created by KiCad (PCBNEW 7.0.1) date 2023-07-16 20:54:18*
%MOMM*%
%LPD*%
G01*
G04 APERTURE LIST*
%TA.AperFunction,ComponentPad*%
%ADD10C,2.050000*%
%TD*%
%TA.AperFunction,ComponentPad*%
%ADD11C,2.250000*%
%TD*%
%TA.AperFunction,ComponentPad*%
%ADD12C,5.000000*%
%TD*%
%TA.AperFunction,ComponentPad*%
%ADD13C,2.000000*%
%TD*%
%TA.AperFunction,ComponentPad*%
%ADD14C,0.500000*%
%TD*%
%TA.AperFunction,ComponentPad*%
%ADD15O,2.416000X1.208000*%
%TD*%
%TA.AperFunction,ComponentPad*%
%ADD16R,1.700000X1.700000*%
%TD*%
%TA.AperFunction,ComponentPad*%
%ADD17O,1.700000X1.700000*%
%TD*%
%TA.AperFunction,ComponentPad*%
%ADD18C,1.397000*%
%TD*%
%TA.AperFunction,ComponentPad*%
%ADD19C,2.108200*%
%TD*%
%TA.AperFunction,ViaPad*%
%ADD20C,0.600000*%
%TD*%
%TA.AperFunction,ViaPad*%
%ADD21C,0.800000*%
%TD*%
%TA.AperFunction,ViaPad*%
%ADD22C,0.460000*%
%TD*%
%TA.AperFunction,Conductor*%
%ADD23C,0.250000*%
%TD*%
%TA.AperFunction,Conductor*%
%ADD24C,0.127000*%
%TD*%
G04 APERTURE END LIST*
D10*
%TO.N,Net-(J6-In)*%
%TO.C,J6*%
X153170000Y-71210000D03*
D11*
%TO.N,GND*%
X150630000Y-68670000D03*
X150630000Y-73750000D03*
X155710000Y-68670000D03*
X155710000Y-73750000D03*
%TD*%
D12*
%TO.N,N/C*%
%TO.C,*%
X227414400Y-138100000D03*
%TD*%
%TO.N,N/C*%
%TO.C,*%
X147381083Y-138100000D03*
%TD*%
D13*
%TO.N,/~{RESET}*%
%TO.C,TP2*%
X195510000Y-91320000D03*
%TD*%
D14*
%TO.N,GND*%
%TO.C,IC1*%
X205930000Y-83400812D03*
X204020812Y-85310000D03*
X207839188Y-85310000D03*
X205930000Y-87219188D03*
%TD*%
D13*
%TO.N,/USBBOOT*%
%TO.C,TP1*%
X192960000Y-79300000D03*
%TD*%
D15*
%TO.N,GND*%
%TO.C,J8*%
X224920000Y-86970000D03*
%TO.N,N/C*%
X224920000Y-79070000D03*
%TD*%
D16*
%TO.N,GND*%
%TO.C,J3*%
X204330000Y-60190000D03*
D17*
%TO.N,TX*%
X204330000Y-62730000D03*
%TO.N,RX*%
X204330000Y-65270000D03*
%TO.N,SCL1*%
X204330000Y-67810000D03*
%TO.N,SDA1*%
X204330000Y-70350000D03*
%TO.N,3.3V*%
X204330000Y-72890000D03*
%TD*%
D18*
%TO.N,TX+*%
%TO.C,J5*%
X166490001Y-92230000D03*
%TO.N,TX-*%
X169030001Y-90960000D03*
%TO.N,TCT*%
X166490001Y-89690000D03*
%TO.N,GND*%
X169030001Y-88420000D03*
X166490001Y-87150000D03*
%TO.N,RCT*%
X169030001Y-85880000D03*
%TO.N,Net-(C18-Pad1)*%
X166490001Y-84610000D03*
%TO.N,Net-(C19-Pad1)*%
X169030001Y-83340000D03*
%TO.N,GREENLED*%
X155250001Y-83999892D03*
%TO.N,3.3V*%
X156770000Y-81459892D03*
%TO.N,YELLOWLED*%
X156770000Y-91569999D03*
%TO.N,3.3V*%
X155250001Y-94109999D03*
D19*
%TO.N,N/C*%
X163200000Y-95560000D03*
X163200000Y-80010000D03*
%TD*%
D20*
%TO.N,GND*%
X164550000Y-61340000D03*
X164510000Y-60360000D03*
X164430000Y-59240000D03*
X163890000Y-58230000D03*
X162580000Y-58200000D03*
X161280000Y-58230000D03*
X160210000Y-58640000D03*
X153230000Y-62770000D03*
X153120000Y-63830000D03*
X152860000Y-64860000D03*
X152370000Y-65680000D03*
X152330000Y-66910000D03*
X153940000Y-66910000D03*
X153930000Y-65870000D03*
X154870000Y-65870000D03*
X155990000Y-65870000D03*
X155250000Y-62360000D03*
X155270000Y-61360000D03*
X159190000Y-60740000D03*
X151800000Y-61520000D03*
X151810000Y-60210000D03*
X151920000Y-58970000D03*
X153120000Y-58960000D03*
X154380000Y-58940000D03*
X155580000Y-58990000D03*
X156770000Y-58980000D03*
X158020000Y-58980000D03*
X159110000Y-58990000D03*
D21*
X208290000Y-76340000D03*
X196160000Y-78060000D03*
X201550000Y-106360000D03*
X189070000Y-95910000D03*
X180230000Y-96170000D03*
X168380000Y-108430000D03*
%TO.N,3.3V*%
X162670000Y-103180000D03*
X171390000Y-101650000D03*
X209540000Y-114590000D03*
X211350000Y-107920000D03*
X194910000Y-129920000D03*
X202280000Y-118210000D03*
%TO.N,GND*%
X215270000Y-86050000D03*
D22*
X216640000Y-124190000D03*
X176410000Y-110830000D03*
X184610000Y-84030000D03*
X210400000Y-91930000D03*
D21*
X218140000Y-68160000D03*
D22*
X208679998Y-97590002D03*
X200300000Y-81610000D03*
X216750000Y-116660000D03*
D21*
X213390000Y-77840000D03*
X222660000Y-96000000D03*
D22*
X189950000Y-85580000D03*
X190290000Y-113130000D03*
X198530000Y-90070000D03*
X190150000Y-104470000D03*
D21*
X220400000Y-84690000D03*
D22*
X205900000Y-77570000D03*
X204120000Y-132130000D03*
X224550000Y-101060000D03*
D21*
X211180000Y-71770000D03*
D22*
X195320000Y-84860000D03*
X198680000Y-111010000D03*
X194250000Y-93350000D03*
X202520000Y-91510000D03*
X188490000Y-83380000D03*
X190080000Y-90960000D03*
X216600000Y-107680000D03*
%TO.N,3.3V*%
X216690000Y-110680000D03*
X206340000Y-132250000D03*
X213130000Y-81120000D03*
X188360000Y-86580000D03*
X202010000Y-98770000D03*
D21*
%TO.N,VBUS*%
X221810000Y-92740000D03*
X220550000Y-80800000D03*
X222750000Y-87640000D03*
X224610000Y-132720000D03*
D22*
%TO.N,VCC_RF1*%
X182790000Y-85770000D03*
X215460000Y-109170000D03*
X204390000Y-103840000D03*
X175340000Y-79710000D03*
X190560000Y-93000000D03*
%TO.N,RX+*%
X174250000Y-86940000D03*
X185390000Y-114930000D03*
%TO.N,RX-*%
X175440000Y-83230000D03*
X185400000Y-114150000D03*
%TO.N,TX*%
X204950000Y-79020000D03*
%TO.N,RX*%
X204070000Y-78550000D03*
%TO.N,/USBBOOT*%
X208450000Y-72460000D03*
%TO.N,SDA1*%
X203210000Y-76390000D03*
X186770000Y-84000000D03*
%TO.N,SCL1*%
X187678042Y-86101958D03*
X187600000Y-81760000D03*
X202620000Y-77230000D03*
%TO.N,SDA0*%
X220093000Y-113660000D03*
X204850522Y-82754243D03*
%TO.N,SCL0*%
X204462067Y-83351099D03*
X216810000Y-115170000D03*
%TO.N,ENABLE_BURN*%
X203796738Y-83787000D03*
X216640000Y-112190000D03*
%TO.N,I2C_RESET*%
X202679075Y-82473441D03*
X216770000Y-119590000D03*
X220550000Y-119230000D03*
%TO.N,SPI1_MISO*%
X201127420Y-82797802D03*
X199590000Y-72310000D03*
%TO.N,SPI1_CS0*%
X200340891Y-82659109D03*
X197600000Y-66270000D03*
X183240000Y-66001499D03*
X183240000Y-75080000D03*
%TO.N,SPI1_SCK*%
X197600000Y-68170000D03*
X199392286Y-82407714D03*
%TO.N,SPI1_MOSI*%
X197690000Y-70090000D03*
X198371758Y-82190609D03*
%TO.N,ENAB_RF*%
X202660000Y-85010000D03*
X216670000Y-118060000D03*
%TO.N,VBUS_RESET*%
X219160000Y-121200000D03*
X202849500Y-85860738D03*
%TO.N,BURN_RELAY_A*%
X219110000Y-122540000D03*
X203550000Y-86350000D03*
%TO.N,SWCLK*%
X205044501Y-87897613D03*
%TO.N,SWDIO*%
X205760000Y-88610000D03*
%TO.N,SPI0_MISO*%
X190530000Y-101320000D03*
X196700000Y-103600000D03*
X203030000Y-132220000D03*
X204589411Y-90550000D03*
X197920000Y-117830000D03*
%TO.N,SPI0_CS0*%
X204510000Y-96070000D03*
X204517000Y-100610000D03*
X208510000Y-132220000D03*
X205337798Y-90170000D03*
X206380000Y-113450000D03*
%TO.N,SPI0_SCK*%
X190471573Y-108461573D03*
X205200000Y-132190000D03*
X198038604Y-119261396D03*
X205753603Y-91075929D03*
%TO.N,SPI0_MOSI*%
X189737000Y-107749415D03*
X206276956Y-91906956D03*
X207420000Y-132220000D03*
X198775000Y-120695000D03*
%TO.N,RF1_RST*%
X200910000Y-66380000D03*
X206570000Y-88420000D03*
%TO.N,WDT_WDI*%
X206990000Y-92600000D03*
X206990000Y-94590000D03*
%TO.N,RF1_IO4*%
X198640000Y-83210000D03*
X184080000Y-80820000D03*
X164830000Y-67160000D03*
X207168321Y-87727200D03*
%TO.N,RF1_IO0*%
X207730000Y-87140000D03*
X199794371Y-84205629D03*
X164720000Y-70930000D03*
X183180000Y-81240000D03*
%TO.N,NEOPIX*%
X208534359Y-88793124D03*
X216070000Y-97000000D03*
%TO.N,NEO_PWR*%
X215260000Y-97480000D03*
X208583633Y-89766425D03*
%TO.N,/QSPI_DATA[3]*%
X218280000Y-75430000D03*
X210049974Y-80209974D03*
%TO.N,/QSPI_SCK*%
X217420000Y-76340000D03*
X209174194Y-80114194D03*
%TO.N,/QSPI_DATA[0]*%
X206690000Y-82590000D03*
X216096396Y-76966396D03*
D21*
%TO.N,/QSPI_DATA[2]*%
X213850000Y-73670000D03*
X215330000Y-74330000D03*
D22*
%TO.N,TX+*%
X181770000Y-115640000D03*
%TO.N,TX-*%
X180820000Y-115064124D03*
%TO.N,GREENLED*%
X192900000Y-111130000D03*
X174000000Y-95010000D03*
%TO.N,YELLOWLED*%
X193120000Y-110130000D03*
X174020000Y-95970000D03*
%TO.N,Net-(JP3-B)*%
X179400000Y-102730000D03*
%TO.N,Net-(JP4-B)*%
X178390000Y-103840000D03*
%TO.N,Net-(JP5-B)*%
X177470000Y-106490000D03*
D21*
%TO.N,USB_D-*%
X218210000Y-83080000D03*
X219580000Y-81940000D03*
%TO.N,USB_D+*%
X219320000Y-83080000D03*
X220550000Y-83090000D03*
D22*
%TO.N,SPI0_CS1*%
X209677000Y-87778655D03*
X187828006Y-105790561D03*
X189538604Y-105921396D03*
%TO.N,GNDA*%
X178050000Y-112540000D03*
X176300000Y-88870000D03*
X186830000Y-116670000D03*
X188620000Y-116320000D03*
X190860000Y-121510000D03*
X189770000Y-115360000D03*
%TD*%
D23*
%TO.N,VCC_RF1*%
X183330000Y-85770000D02*
X190560000Y-93000000D01*
X182790000Y-85770000D02*
X183330000Y-85770000D01*
D24*
%TO.N,TX*%
X202940000Y-64120000D02*
X204330000Y-62730000D01*
X204950000Y-79020000D02*
X204950000Y-75750000D01*
X204950000Y-75750000D02*
X202940000Y-73740000D01*
X202940000Y-73740000D02*
X202940000Y-64120000D01*
%TO.N,SDA1*%
X203210000Y-76390000D02*
X203210000Y-77337915D01*
X189160000Y-81610000D02*
X186770000Y-84000000D01*
X203210000Y-77337915D02*
X198937915Y-81610000D01*
X198937915Y-81610000D02*
X189160000Y-81610000D01*
%TO.N,SCL1*%
X202620000Y-77230000D02*
X199900000Y-79950000D01*
X186276500Y-84700416D02*
X186276500Y-83083500D01*
X187678042Y-86101958D02*
X186276500Y-84700416D01*
X199900000Y-79950000D02*
X199286500Y-80563500D01*
X186276500Y-83083500D02*
X187600000Y-81760000D01*
X199286500Y-80563500D02*
X188796500Y-80563500D01*
X188796500Y-80563500D02*
X187600000Y-81760000D01*
%TO.N,SDA0*%
X219930000Y-95320000D02*
X219930000Y-113497000D01*
X219930000Y-113497000D02*
X220093000Y-113660000D01*
X208550000Y-83940000D02*
X219930000Y-95320000D01*
X204850522Y-83047533D02*
X205742989Y-83940000D01*
X204850522Y-82754243D02*
X204850522Y-83047533D01*
X205742989Y-83940000D02*
X208550000Y-83940000D01*
%TO.N,SCL0*%
X205377968Y-84267000D02*
X208307000Y-84267000D01*
X219600000Y-114750000D02*
X219180000Y-115170000D01*
X219600000Y-95560000D02*
X219600000Y-114750000D01*
X208307000Y-84267000D02*
X219600000Y-95560000D01*
X219180000Y-115170000D02*
X216810000Y-115170000D01*
X204462067Y-83351099D02*
X205377968Y-84267000D01*
%TO.N,ENABLE_BURN*%
X204200053Y-83787000D02*
X204257652Y-83844599D01*
X208171552Y-84594000D02*
X219273000Y-95695448D01*
X218410000Y-112180000D02*
X216650000Y-112180000D01*
X205242520Y-84594000D02*
X208171552Y-84594000D01*
X204257652Y-83844599D02*
X204493119Y-83844599D01*
X219273000Y-111317000D02*
X218410000Y-112180000D01*
X204493119Y-83844599D02*
X205242520Y-84594000D01*
X216650000Y-112180000D02*
X216640000Y-112190000D01*
X203796738Y-83787000D02*
X204200053Y-83787000D01*
X219273000Y-95695448D02*
X219273000Y-111317000D01*
%TO.N,I2C_RESET*%
X206873000Y-83613000D02*
X208685448Y-83613000D01*
X202891773Y-82260743D02*
X205520743Y-82260743D01*
X205520743Y-82260743D02*
X206873000Y-83613000D01*
X220586500Y-95514052D02*
X220586500Y-119193500D01*
X210276224Y-85203776D02*
X220586500Y-95514052D01*
X208685448Y-83613000D02*
X210276224Y-85203776D01*
X202679075Y-82473441D02*
X202891773Y-82260743D01*
X220586500Y-119193500D02*
X220550000Y-119230000D01*
%TO.N,ENAB_RF*%
X205010000Y-106400000D02*
X216670000Y-118060000D01*
X202660000Y-85010000D02*
X202356500Y-85313500D01*
X202356500Y-85313500D02*
X202356500Y-90276500D01*
X202356500Y-90276500D02*
X205010000Y-92930000D01*
X205010000Y-92930000D02*
X205010000Y-106400000D01*
%TO.N,VBUS_RESET*%
X202850000Y-90307552D02*
X205630000Y-93087552D01*
X219160000Y-119852085D02*
X219160000Y-121200000D01*
X202850000Y-85861238D02*
X202850000Y-90307552D01*
X202849500Y-85860738D02*
X202850000Y-85861238D01*
X205630000Y-93087552D02*
X205630000Y-106322085D01*
X205630000Y-106322085D02*
X219160000Y-119852085D01*
%TO.N,BURN_RELAY_A*%
X216330000Y-115990000D02*
X218970000Y-115990000D01*
X203550000Y-86350000D02*
X203392383Y-86507617D01*
X219653500Y-121996500D02*
X219110000Y-122540000D01*
X205957000Y-92952104D02*
X205957000Y-105617000D01*
X219653500Y-116673500D02*
X219653500Y-121996500D01*
X203392383Y-90387487D02*
X205957000Y-92952104D01*
X203392383Y-86507617D02*
X203392383Y-90387487D01*
X205957000Y-105617000D02*
X216330000Y-115990000D01*
X218970000Y-115990000D02*
X219653500Y-116673500D01*
%TO.N,SPI0_MISO*%
X197545104Y-118204896D02*
X197545104Y-126735104D01*
X197920000Y-117830000D02*
X197545104Y-118204896D01*
X197545104Y-126735104D02*
X203030000Y-132220000D01*
%TO.N,SPI0_SCK*%
X205200000Y-128080000D02*
X205200000Y-132190000D01*
X198038604Y-119261396D02*
X198038604Y-120918604D01*
X198038604Y-120918604D02*
X205200000Y-128080000D01*
%TO.N,SPI0_MOSI*%
X198775000Y-120695000D02*
X207420000Y-129340000D01*
X207420000Y-129340000D02*
X207420000Y-132220000D01*
%TO.N,RF1_RST*%
X207920000Y-86250000D02*
X206436072Y-86250000D01*
X203592323Y-84280500D02*
X202180000Y-82868177D01*
X207173436Y-88420000D02*
X208240000Y-87353436D01*
X208240000Y-86570000D02*
X207920000Y-86250000D01*
X206570000Y-88420000D02*
X207173436Y-88420000D01*
X204466572Y-84280500D02*
X203592323Y-84280500D01*
X202180000Y-82868177D02*
X202180000Y-78880000D01*
X200910000Y-72760000D02*
X200910000Y-66380000D01*
X202180000Y-78880000D02*
X204020000Y-77040000D01*
X204020000Y-77040000D02*
X204020000Y-75870000D01*
X208240000Y-87353436D02*
X208240000Y-86570000D01*
X206436072Y-86250000D02*
X204466572Y-84280500D01*
X204020000Y-75870000D02*
X200910000Y-72760000D01*
%TO.N,RF1_IO4*%
X207123522Y-87771999D02*
X205671999Y-87771999D01*
X207168321Y-87727200D02*
X207123522Y-87771999D01*
X203570000Y-85670000D02*
X203550000Y-85670000D01*
X200600000Y-84610000D02*
X200510871Y-84699129D01*
X202873463Y-84486536D02*
X200723464Y-84486536D01*
X203507312Y-85627312D02*
X203507312Y-85120385D01*
X200723464Y-84486536D02*
X200600000Y-84610000D01*
X203507312Y-85120385D02*
X202873463Y-84486536D01*
X205671999Y-87771999D02*
X203570000Y-85670000D01*
X199589956Y-84699129D02*
X198640000Y-83749173D01*
X203550000Y-85670000D02*
X203507312Y-85627312D01*
X200510871Y-84699129D02*
X199589956Y-84699129D01*
X198640000Y-83749173D02*
X198640000Y-83210000D01*
%TO.N,RF1_IO0*%
X200030000Y-83970000D02*
X199794371Y-84205629D01*
X203645875Y-84796500D02*
X202819375Y-83970000D01*
X202819375Y-83970000D02*
X200030000Y-83970000D01*
X206300624Y-86577000D02*
X204520124Y-84796500D01*
X207730000Y-87140000D02*
X207167000Y-86577000D01*
X204520124Y-84796500D02*
X203645875Y-84796500D01*
X207167000Y-86577000D02*
X206300624Y-86577000D01*
%TO.N,NEOPIX*%
X212280000Y-92484466D02*
X212280000Y-93360000D01*
X208534359Y-88793124D02*
X208588658Y-88793124D01*
X212280000Y-93360000D02*
X215920000Y-97000000D01*
X215920000Y-97000000D02*
X216070000Y-97000000D01*
X208588658Y-88793124D02*
X212280000Y-92484466D01*
%TO.N,NEO_PWR*%
X208583633Y-90811548D02*
X215252085Y-97480000D01*
X208583633Y-89766425D02*
X208583633Y-90811548D01*
X215252085Y-97480000D02*
X215260000Y-97480000D01*
%TO.N,TX+*%
X166490001Y-102690001D02*
X166490001Y-92230000D01*
X181770000Y-115640000D02*
X179440000Y-115640000D01*
X179440000Y-115640000D02*
X166490001Y-102690001D01*
%TO.N,TX-*%
X180820000Y-115064124D02*
X179584124Y-115064124D01*
X179584124Y-115064124D02*
X169030001Y-104510001D01*
X169030001Y-104510001D02*
X169030001Y-90960000D01*
%TD*%
%TA.AperFunction,Conductor*%
%TO.N,3.3V*%
G36*
X210609025Y-87829090D02*
G01*
X218672681Y-95892745D01*
X218699561Y-95932973D01*
X218709000Y-95980426D01*
X218709000Y-111032022D01*
X218699561Y-111079475D01*
X218672681Y-111119703D01*
X218212702Y-111579681D01*
X218172474Y-111606561D01*
X218125021Y-111616000D01*
X217135246Y-111616000D01*
X217069275Y-111596994D01*
X216958957Y-111527677D01*
X216803580Y-111473308D01*
X216639999Y-111454877D01*
X216476419Y-111473308D01*
X216321042Y-111527677D01*
X216181658Y-111615257D01*
X216065257Y-111731658D01*
X215977677Y-111871042D01*
X215923308Y-112026419D01*
X215904877Y-112190000D01*
X215923308Y-112353580D01*
X215977677Y-112508957D01*
X216065257Y-112648341D01*
X216181658Y-112764742D01*
X216321042Y-112852322D01*
X216476419Y-112906691D01*
X216639999Y-112925122D01*
X216639999Y-112925121D01*
X216640000Y-112925122D01*
X216803580Y-112906691D01*
X216958957Y-112852322D01*
X217024653Y-112811043D01*
X217101105Y-112763006D01*
X217167076Y-112744000D01*
X218364906Y-112744000D01*
X218381089Y-112745060D01*
X218410000Y-112748867D01*
X218557234Y-112729483D01*
X218694433Y-112672653D01*
X218782668Y-112604949D01*
X218782668Y-112604948D01*
X218812250Y-112582250D01*
X218813621Y-112580462D01*
X218861562Y-112542667D01*
X218921727Y-112532327D01*
X218979534Y-112551949D01*
X219020973Y-112596777D01*
X219036000Y-112655945D01*
X219036000Y-114465021D01*
X219026561Y-114512474D01*
X218999681Y-114552702D01*
X218982702Y-114569681D01*
X218942474Y-114596561D01*
X218895021Y-114606000D01*
X217321161Y-114606000D01*
X217255190Y-114586994D01*
X217128957Y-114507677D01*
X216973580Y-114453308D01*
X216810000Y-114434877D01*
X216646419Y-114453308D01*
X216491042Y-114507677D01*
X216351658Y-114595257D01*
X216235257Y-114711658D01*
X216169042Y-114817041D01*
X216130020Y-114856064D01*
X216077932Y-114874290D01*
X216023094Y-114868112D01*
X215976367Y-114838751D01*
X211305294Y-110167678D01*
X210307616Y-109170000D01*
X214724877Y-109170000D01*
X214743308Y-109333580D01*
X214797677Y-109488957D01*
X214885257Y-109628341D01*
X215001658Y-109744742D01*
X215141042Y-109832322D01*
X215296419Y-109886691D01*
X215460000Y-109905122D01*
X215623580Y-109886691D01*
X215778957Y-109832322D01*
X215918341Y-109744742D01*
X216034742Y-109628341D01*
X216122322Y-109488957D01*
X216176691Y-109333580D01*
X216195122Y-109170000D01*
X216176691Y-109006420D01*
X216161223Y-108962216D01*
X216122322Y-108851042D01*
X216034742Y-108711658D01*
X215918341Y-108595257D01*
X215778957Y-108507677D01*
X215623580Y-108453308D01*
X215460000Y-108434877D01*
X215296419Y-108453308D01*
X215141042Y-108507677D01*
X215001658Y-108595257D01*
X214885257Y-108711658D01*
X214797677Y-108851042D01*
X214743308Y-109006419D01*
X214724877Y-109170000D01*
X210307616Y-109170000D01*
X208817616Y-107680000D01*
X215864877Y-107680000D01*
X215883308Y-107843580D01*
X215937677Y-107998957D01*
X216025257Y-108138341D01*
X216141658Y-108254742D01*
X216281042Y-108342322D01*
X216436419Y-108396691D01*
X216600000Y-108415122D01*
X216763580Y-108396691D01*
X216918957Y-108342322D01*
X217058341Y-108254742D01*
X217174742Y-108138341D01*
X217262322Y-107998957D01*
X217316691Y-107843580D01*
X217335122Y-107680000D01*
X217331274Y-107645848D01*
X217316691Y-107516419D01*
X217262322Y-107361042D01*
X217174742Y-107221658D01*
X217058341Y-107105257D01*
X216918957Y-107017677D01*
X216763580Y-106963308D01*
X216600000Y-106944877D01*
X216436419Y-106963308D01*
X216281042Y-107017677D01*
X216141658Y-107105257D01*
X216025257Y-107221658D01*
X215937677Y-107361042D01*
X215883308Y-107516419D01*
X215864877Y-107680000D01*
X208817616Y-107680000D01*
X206557319Y-105419702D01*
X206530439Y-105379474D01*
X206521000Y-105332021D01*
X206521000Y-97590002D01*
X207944875Y-97590002D01*
X207963306Y-97753582D01*
X208017675Y-97908959D01*
X208105255Y-98048343D01*
X208221656Y-98164744D01*
X208361040Y-98252324D01*
X208516417Y-98306693D01*
X208679997Y-98325124D01*
X208679997Y-98325123D01*
X208679998Y-98325124D01*
X208843578Y-98306693D01*
X208998955Y-98252324D01*
X209138339Y-98164744D01*
X209254740Y-98048343D01*
X209342320Y-97908959D01*
X209396689Y-97753582D01*
X209415120Y-97590002D01*
X209396689Y-97426422D01*
X209395900Y-97424168D01*
X209342320Y-97271044D01*
X209254740Y-97131660D01*
X209138339Y-97015259D01*
X208998955Y-96927679D01*
X208843578Y-96873310D01*
X208679998Y-96854879D01*
X208516417Y-96873310D01*
X208361040Y-96927679D01*
X208221656Y-97015259D01*
X208105255Y-97131660D01*
X208017675Y-97271044D01*
X207963306Y-97426421D01*
X207944875Y-97590002D01*
X206521000Y-97590002D01*
X206521000Y-95374581D01*
X206534833Y-95317667D01*
X206573245Y-95273451D01*
X206627666Y-95251799D01*
X206685955Y-95257540D01*
X206826419Y-95306691D01*
X206990000Y-95325122D01*
X207153580Y-95306691D01*
X207308957Y-95252322D01*
X207448341Y-95164742D01*
X207564742Y-95048341D01*
X207652322Y-94908957D01*
X207706691Y-94753580D01*
X207725122Y-94590000D01*
X207706691Y-94426420D01*
X207661899Y-94298413D01*
X207652322Y-94271042D01*
X207564742Y-94131658D01*
X207448341Y-94015257D01*
X207308957Y-93927677D01*
X207153580Y-93873308D01*
X206990000Y-93854877D01*
X206826419Y-93873308D01*
X206685955Y-93922460D01*
X206627666Y-93928201D01*
X206573245Y-93906549D01*
X206534833Y-93862333D01*
X206521000Y-93805419D01*
X206521000Y-93384581D01*
X206534833Y-93327667D01*
X206573245Y-93283451D01*
X206627666Y-93261799D01*
X206685955Y-93267540D01*
X206826419Y-93316691D01*
X206990000Y-93335122D01*
X207153580Y-93316691D01*
X207308957Y-93262322D01*
X207448341Y-93174742D01*
X207564742Y-93058341D01*
X207652322Y-92918957D01*
X207706691Y-92763580D01*
X207725122Y-92600000D01*
X207718548Y-92541658D01*
X207706691Y-92436419D01*
X207652322Y-92281042D01*
X207564742Y-92141658D01*
X207448341Y-92025257D01*
X207308957Y-91937677D01*
X207153579Y-91883308D01*
X207105823Y-91877927D01*
X207053735Y-91859700D01*
X207014714Y-91820678D01*
X206996488Y-91768590D01*
X206993647Y-91743375D01*
X206939278Y-91587998D01*
X206851698Y-91448614D01*
X206735297Y-91332213D01*
X206595914Y-91244634D01*
X206567839Y-91234810D01*
X206521113Y-91205449D01*
X206491753Y-91158722D01*
X206485575Y-91103883D01*
X206488725Y-91075929D01*
X206488302Y-91072179D01*
X206470294Y-90912348D01*
X206415925Y-90756971D01*
X206328345Y-90617587D01*
X206211946Y-90501188D01*
X206113235Y-90439164D01*
X206067487Y-90387972D01*
X206055987Y-90320286D01*
X206072920Y-90169999D01*
X206054489Y-90006419D01*
X206000120Y-89851042D01*
X205912540Y-89711658D01*
X205796141Y-89595259D01*
X205753140Y-89568240D01*
X205711264Y-89524441D01*
X205695143Y-89466029D01*
X205708627Y-89406951D01*
X205748496Y-89361318D01*
X205805229Y-89340026D01*
X205851943Y-89334762D01*
X205923580Y-89326691D01*
X206078957Y-89272322D01*
X206112151Y-89251465D01*
X206218340Y-89184743D01*
X206218341Y-89184742D01*
X206247594Y-89155488D01*
X206307683Y-89122277D01*
X206376230Y-89126126D01*
X206406420Y-89136691D01*
X206529105Y-89150514D01*
X206569999Y-89155122D01*
X206569999Y-89155121D01*
X206570000Y-89155122D01*
X206733580Y-89136691D01*
X206888957Y-89082322D01*
X206930683Y-89056104D01*
X207015190Y-89003006D01*
X207081161Y-88984000D01*
X207128342Y-88984000D01*
X207144525Y-88985060D01*
X207173436Y-88988867D01*
X207320670Y-88969483D01*
X207457869Y-88912653D01*
X207546104Y-88844949D01*
X207546104Y-88844948D01*
X207575686Y-88822250D01*
X207586304Y-88808411D01*
X207631711Y-88771780D01*
X207688849Y-88759968D01*
X207745063Y-88775594D01*
X207787909Y-88815198D01*
X207807899Y-88870013D01*
X207817667Y-88956704D01*
X207872036Y-89112081D01*
X207960589Y-89253013D01*
X207979595Y-89318984D01*
X207960590Y-89384955D01*
X207921309Y-89447470D01*
X207866941Y-89602844D01*
X207848510Y-89766425D01*
X207866941Y-89930005D01*
X207921310Y-90085382D01*
X208000627Y-90211615D01*
X208019633Y-90277586D01*
X208019633Y-90766454D01*
X208018572Y-90782640D01*
X208014765Y-90811548D01*
X208025010Y-90889359D01*
X208034150Y-90958782D01*
X208090980Y-91095981D01*
X208120931Y-91135015D01*
X208136789Y-91155682D01*
X208181381Y-91213797D01*
X208204516Y-91231548D01*
X208216712Y-91242244D01*
X214503137Y-97528668D01*
X214527176Y-97562547D01*
X214538676Y-97602465D01*
X214543308Y-97643581D01*
X214597677Y-97798957D01*
X214685257Y-97938341D01*
X214801658Y-98054742D01*
X214941042Y-98142322D01*
X215096419Y-98196691D01*
X215260000Y-98215122D01*
X215423580Y-98196691D01*
X215578957Y-98142322D01*
X215718341Y-98054742D01*
X215834742Y-97938341D01*
X215922322Y-97798957D01*
X215922324Y-97798950D01*
X215928089Y-97789776D01*
X215979283Y-97744027D01*
X216046969Y-97732527D01*
X216070000Y-97735122D01*
X216070000Y-97735121D01*
X216070001Y-97735122D01*
X216233580Y-97716691D01*
X216388957Y-97662322D01*
X216528341Y-97574742D01*
X216644742Y-97458341D01*
X216732322Y-97318957D01*
X216786691Y-97163580D01*
X216790287Y-97131661D01*
X216805122Y-97000000D01*
X216799425Y-96949442D01*
X216786691Y-96836419D01*
X216732322Y-96681042D01*
X216644742Y-96541658D01*
X216528341Y-96425257D01*
X216388957Y-96337677D01*
X216233580Y-96283308D01*
X216070001Y-96264877D01*
X216050691Y-96267053D01*
X215995854Y-96260873D01*
X215949129Y-96231513D01*
X212880319Y-93162702D01*
X212853439Y-93122474D01*
X212844000Y-93075021D01*
X212844000Y-92529560D01*
X212845061Y-92513374D01*
X212848867Y-92484465D01*
X212846611Y-92467336D01*
X212829483Y-92337232D01*
X212772653Y-92200033D01*
X212772652Y-92200032D01*
X212772652Y-92200031D01*
X212700006Y-92105355D01*
X212699997Y-92105345D01*
X212688285Y-92090082D01*
X212682250Y-92082216D01*
X212662563Y-92067110D01*
X212659114Y-92064463D01*
X212646919Y-92053768D01*
X209285331Y-88692180D01*
X209261286Y-88658289D01*
X209256702Y-88642369D01*
X209255665Y-88642733D01*
X209245976Y-88615044D01*
X209242126Y-88546497D01*
X209275336Y-88486408D01*
X209335425Y-88453198D01*
X209403970Y-88457047D01*
X209513420Y-88495346D01*
X209677000Y-88513777D01*
X209840580Y-88495346D01*
X209995957Y-88440977D01*
X210135341Y-88353397D01*
X210251742Y-88236996D01*
X210339322Y-88097612D01*
X210393691Y-87942235D01*
X210398124Y-87902888D01*
X210424396Y-87839459D01*
X210480389Y-87799730D01*
X210548936Y-87795880D01*
X210609025Y-87829090D01*
G37*
%TD.AperFunction*%
%TA.AperFunction,Conductor*%
G36*
X228288992Y-47778803D02*
G01*
X228341507Y-47790633D01*
X228384059Y-47823600D01*
X231109469Y-51106745D01*
X231114110Y-51112335D01*
X231135334Y-51149435D01*
X231142700Y-51191537D01*
X231142700Y-57245588D01*
X231133261Y-57293041D01*
X231106381Y-57333269D01*
X226267208Y-62172441D01*
X226245311Y-62187978D01*
X226224598Y-62213950D01*
X226215345Y-62224304D01*
X226212252Y-62227396D01*
X226209922Y-62231105D01*
X226201889Y-62242426D01*
X226181176Y-62268400D01*
X226176517Y-62279647D01*
X226172800Y-62312641D01*
X226170475Y-62326333D01*
X226169500Y-62330607D01*
X226169500Y-62334978D01*
X226168721Y-62348859D01*
X226165002Y-62381865D01*
X226169500Y-62408332D01*
X226169500Y-77955488D01*
X226155032Y-78013616D01*
X226115003Y-78058179D01*
X226058755Y-78078778D01*
X225999417Y-78070606D01*
X225836589Y-78005420D01*
X225836587Y-78005419D01*
X225629467Y-77965500D01*
X224263387Y-77965500D01*
X224263382Y-77965500D01*
X224106023Y-77980526D01*
X223903633Y-78039952D01*
X223716142Y-78136610D01*
X223550342Y-78266998D01*
X223412206Y-78426415D01*
X223306740Y-78609087D01*
X223237752Y-78808417D01*
X223207733Y-79017205D01*
X223207733Y-79017207D01*
X223212762Y-79122793D01*
X223217769Y-79227902D01*
X223267500Y-79432894D01*
X223355122Y-79624761D01*
X223447953Y-79755122D01*
X223477478Y-79796584D01*
X223630138Y-79942145D01*
X223807587Y-80056184D01*
X224003411Y-80134580D01*
X224210533Y-80174500D01*
X224527236Y-80174500D01*
X224587217Y-80189972D01*
X224632230Y-80232528D01*
X224651041Y-80291548D01*
X224638956Y-80352300D01*
X224624999Y-80381283D01*
X224602119Y-80428794D01*
X224569500Y-80571706D01*
X224569500Y-80718294D01*
X224602119Y-80861207D01*
X224665719Y-80993275D01*
X224687546Y-81020644D01*
X224757117Y-81107883D01*
X224812009Y-81151658D01*
X224871724Y-81199280D01*
X224953627Y-81238722D01*
X225003794Y-81262881D01*
X225146706Y-81295500D01*
X225197410Y-81295500D01*
X225220000Y-81295500D01*
X225259882Y-81295500D01*
X225835989Y-81295500D01*
X225865067Y-81298958D01*
X225921388Y-81312544D01*
X225951611Y-81324185D01*
X225967279Y-81332717D01*
X226007277Y-81354498D01*
X226033453Y-81373569D01*
X226055373Y-81394428D01*
X226079368Y-81417263D01*
X226099714Y-81442466D01*
X226132744Y-81496557D01*
X226145869Y-81526167D01*
X226163764Y-81586964D01*
X226168773Y-81618967D01*
X226170201Y-81677771D01*
X226169371Y-81686215D01*
X226169433Y-81702821D01*
X226168729Y-81716482D01*
X226166019Y-81741790D01*
X226169676Y-81766856D01*
X226174442Y-83019684D01*
X226174443Y-83020156D01*
X226174443Y-84272753D01*
X226170915Y-84297258D01*
X226173737Y-84323592D01*
X226174443Y-84336803D01*
X226174443Y-84355686D01*
X226175071Y-84361946D01*
X226173651Y-84420513D01*
X226168644Y-84452512D01*
X226150755Y-84513304D01*
X226137630Y-84542917D01*
X226104608Y-84597001D01*
X226084263Y-84622204D01*
X226038358Y-84665894D01*
X226012181Y-84684969D01*
X225956531Y-84715279D01*
X225926309Y-84726923D01*
X225891511Y-84735320D01*
X225867805Y-84741040D01*
X225838720Y-84744500D01*
X225146706Y-84744500D01*
X225003792Y-84777119D01*
X224871724Y-84840719D01*
X224757117Y-84932117D01*
X224665719Y-85046724D01*
X224602119Y-85178792D01*
X224575861Y-85293836D01*
X224569500Y-85321706D01*
X224569500Y-85468294D01*
X224602119Y-85611206D01*
X224636075Y-85681716D01*
X224638956Y-85687698D01*
X224651041Y-85748452D01*
X224632230Y-85807472D01*
X224587217Y-85850028D01*
X224527236Y-85865500D01*
X224263382Y-85865500D01*
X224106023Y-85880526D01*
X223903633Y-85939952D01*
X223716142Y-86036610D01*
X223550342Y-86166998D01*
X223412206Y-86326415D01*
X223306740Y-86509087D01*
X223233879Y-86719609D01*
X223231432Y-86718762D01*
X223218338Y-86752138D01*
X223176258Y-86790198D01*
X223121630Y-86805530D01*
X223065891Y-86794923D01*
X223029801Y-86778854D01*
X222844648Y-86739500D01*
X222844646Y-86739500D01*
X222655354Y-86739500D01*
X222655352Y-86739500D01*
X222470197Y-86778855D01*
X222297269Y-86855848D01*
X222144129Y-86967110D01*
X222017466Y-87107783D01*
X221922820Y-87271715D01*
X221864326Y-87451742D01*
X221844540Y-87640000D01*
X221864326Y-87828257D01*
X221922820Y-88008284D01*
X222017466Y-88172216D01*
X222144129Y-88312889D01*
X222297269Y-88424151D01*
X222470197Y-88501144D01*
X222655352Y-88540500D01*
X222655354Y-88540500D01*
X222844646Y-88540500D01*
X222844648Y-88540500D01*
X222970369Y-88513777D01*
X223029803Y-88501144D01*
X223202730Y-88424151D01*
X223249052Y-88390496D01*
X223355870Y-88312889D01*
X223482533Y-88172216D01*
X223493449Y-88153309D01*
X223577179Y-88008284D01*
X223581291Y-87995627D01*
X223610297Y-87947524D01*
X223657551Y-87917154D01*
X223713357Y-87910750D01*
X223766263Y-87929627D01*
X223807584Y-87956183D01*
X223873044Y-87982389D01*
X224003411Y-88034580D01*
X224210533Y-88074500D01*
X225576613Y-88074500D01*
X225576618Y-88074500D01*
X225674966Y-88065108D01*
X225733979Y-88059473D01*
X225936368Y-88000047D01*
X225988680Y-87973077D01*
X226049926Y-87959373D01*
X226110038Y-87977413D01*
X226153617Y-88022576D01*
X226169500Y-88083294D01*
X226169500Y-127681668D01*
X226165002Y-127708134D01*
X226168721Y-127741141D01*
X226169500Y-127755022D01*
X226169500Y-127759389D01*
X226170473Y-127763653D01*
X226172800Y-127777356D01*
X226176517Y-127810354D01*
X226181176Y-127821600D01*
X226201888Y-127847573D01*
X226209928Y-127858903D01*
X226212252Y-127862601D01*
X226215336Y-127865685D01*
X226224601Y-127876052D01*
X226245312Y-127902022D01*
X226267213Y-127917562D01*
X231106381Y-132756731D01*
X231133261Y-132796959D01*
X231142700Y-132844412D01*
X231142700Y-138046741D01*
X231140771Y-138068529D01*
X231077299Y-138424135D01*
X231074945Y-138434656D01*
X230976741Y-138798544D01*
X230973482Y-138808820D01*
X230844045Y-139162797D01*
X230839906Y-139172751D01*
X230680211Y-139514151D01*
X230675223Y-139523708D01*
X230486480Y-139849943D01*
X230480681Y-139859031D01*
X230264316Y-140167639D01*
X230257750Y-140176189D01*
X230015386Y-140464852D01*
X230008101Y-140472799D01*
X229741599Y-140739301D01*
X229733652Y-140746586D01*
X229444989Y-140988950D01*
X229436439Y-140995516D01*
X229127831Y-141211881D01*
X229118743Y-141217680D01*
X228792508Y-141406423D01*
X228782951Y-141411411D01*
X228441551Y-141571106D01*
X228431597Y-141575245D01*
X228077620Y-141704682D01*
X228067344Y-141707941D01*
X227703456Y-141806145D01*
X227692935Y-141808499D01*
X227337329Y-141871971D01*
X227315541Y-141873900D01*
X147405254Y-141873900D01*
X147400683Y-141873025D01*
X147343154Y-141873878D01*
X147337326Y-141873828D01*
X146980930Y-141862350D01*
X146969309Y-141861427D01*
X146618481Y-141816901D01*
X146606997Y-141814891D01*
X146261902Y-141737616D01*
X146250659Y-141734537D01*
X146158830Y-141704682D01*
X145914341Y-141625194D01*
X145903440Y-141621074D01*
X145741157Y-141550851D01*
X145578882Y-141480632D01*
X145568413Y-141475505D01*
X145258472Y-141305202D01*
X145248530Y-141299114D01*
X144955953Y-141100457D01*
X144946628Y-141093463D01*
X144674004Y-140868214D01*
X144665375Y-140860374D01*
X144415102Y-140610509D01*
X144407249Y-140601894D01*
X144181553Y-140329638D01*
X144174543Y-140320323D01*
X143975410Y-140028071D01*
X143969306Y-140018139D01*
X143798503Y-139708488D01*
X143793358Y-139698027D01*
X143685075Y-139448904D01*
X143652378Y-139373678D01*
X143648247Y-139362800D01*
X143549838Y-139061789D01*
X143543700Y-139023258D01*
X143543700Y-138100000D01*
X144375497Y-138100000D01*
X144395821Y-138448927D01*
X144456512Y-138793130D01*
X144456514Y-138793136D01*
X144556757Y-139127971D01*
X144658048Y-139362790D01*
X144695195Y-139448906D01*
X144869952Y-139751595D01*
X144949935Y-139859031D01*
X145078671Y-140031953D01*
X145318525Y-140286183D01*
X145586272Y-140510849D01*
X145586276Y-140510852D01*
X145586279Y-140510854D01*
X145878289Y-140702913D01*
X146190628Y-140859776D01*
X146340355Y-140914271D01*
X146519072Y-140979319D01*
X146859169Y-141059923D01*
X147206324Y-141100500D01*
X147555837Y-141100500D01*
X147555842Y-141100500D01*
X147902997Y-141059923D01*
X148243094Y-140979319D01*
X148541351Y-140870762D01*
X148571537Y-140859776D01*
X148883876Y-140702913D01*
X149024369Y-140610509D01*
X149175894Y-140510849D01*
X149443641Y-140286183D01*
X149683495Y-140031953D01*
X149892213Y-139751596D01*
X150066972Y-139448904D01*
X150205409Y-139127971D01*
X150305652Y-138793136D01*
X150366345Y-138448927D01*
X150386668Y-138100000D01*
X224408814Y-138100000D01*
X224429138Y-138448927D01*
X224489829Y-138793130D01*
X224489831Y-138793136D01*
X224590074Y-139127971D01*
X224691365Y-139362790D01*
X224728512Y-139448906D01*
X224903269Y-139751595D01*
X224983252Y-139859031D01*
X225111988Y-140031953D01*
X225351842Y-140286183D01*
X225619589Y-140510849D01*
X225619593Y-140510852D01*
X225619596Y-140510854D01*
X225911606Y-140702913D01*
X226223945Y-140859776D01*
X226373672Y-140914271D01*
X226552389Y-140979319D01*
X226892486Y-141059923D01*
X227239641Y-141100500D01*
X227589154Y-141100500D01*
X227589159Y-141100500D01*
X227936314Y-141059923D01*
X228276411Y-140979319D01*
X228574668Y-140870762D01*
X228604854Y-140859776D01*
X228917193Y-140702913D01*
X229057686Y-140610509D01*
X229209211Y-140510849D01*
X229476958Y-140286183D01*
X229716812Y-140031953D01*
X229925530Y-139751596D01*
X230100289Y-139448904D01*
X230238726Y-139127971D01*
X230338969Y-138793136D01*
X230399662Y-138448927D01*
X230419985Y-138100000D01*
X230399662Y-137751073D01*
X230338969Y-137406864D01*
X230238726Y-137072029D01*
X230100289Y-136751096D01*
X229925530Y-136448404D01*
X229716812Y-136168047D01*
X229476958Y-135913817D01*
X229209211Y-135689151D01*
X229209207Y-135689148D01*
X229209203Y-135689145D01*
X228917193Y-135497086D01*
X228604854Y-135340223D01*
X228276414Y-135220682D01*
X228276413Y-135220681D01*
X228276411Y-135220681D01*
X228089557Y-135176396D01*
X227936315Y-135140077D01*
X227878454Y-135133314D01*
X227589159Y-135099500D01*
X227239641Y-135099500D01*
X226991673Y-135128483D01*
X226892484Y-135140077D01*
X226552385Y-135220682D01*
X226223945Y-135340223D01*
X225911606Y-135497086D01*
X225619596Y-135689145D01*
X225619588Y-135689151D01*
X225619589Y-135689151D01*
X225351842Y-135913817D01*
X225351838Y-135913820D01*
X225351837Y-135913822D01*
X225111989Y-136168045D01*
X224903269Y-136448404D01*
X224728512Y-136751093D01*
X224728511Y-136751096D01*
X224590074Y-137072029D01*
X224531727Y-137266920D01*
X224489829Y-137406869D01*
X224429138Y-137751072D01*
X224408814Y-138100000D01*
X150386668Y-138100000D01*
X150366345Y-137751073D01*
X150305652Y-137406864D01*
X150205409Y-137072029D01*
X150066972Y-136751096D01*
X149892213Y-136448404D01*
X149683495Y-136168047D01*
X149443641Y-135913817D01*
X149175894Y-135689151D01*
X149175890Y-135689148D01*
X149175886Y-135689145D01*
X148883876Y-135497086D01*
X148571537Y-135340223D01*
X148243097Y-135220682D01*
X148243096Y-135220681D01*
X148243094Y-135220681D01*
X148056240Y-135176396D01*
X147902998Y-135140077D01*
X147845137Y-135133314D01*
X147555842Y-135099500D01*
X147206324Y-135099500D01*
X146958356Y-135128483D01*
X146859167Y-135140077D01*
X146519068Y-135220682D01*
X146190628Y-135340223D01*
X145878289Y-135497086D01*
X145586279Y-135689145D01*
X145586271Y-135689151D01*
X145586272Y-135689151D01*
X145318525Y-135913817D01*
X145318521Y-135913820D01*
X145318520Y-135913822D01*
X145078672Y-136168045D01*
X144869952Y-136448404D01*
X144695195Y-136751093D01*
X144695194Y-136751096D01*
X144556757Y-137072029D01*
X144498410Y-137266920D01*
X144456512Y-137406869D01*
X144395821Y-137751072D01*
X144375497Y-138100000D01*
X143543700Y-138100000D01*
X143543700Y-132844411D01*
X143553139Y-132796958D01*
X143580019Y-132756730D01*
X144781493Y-131555256D01*
X148422787Y-127913960D01*
X148444686Y-127898423D01*
X148448222Y-127893988D01*
X148448224Y-127893988D01*
X148465397Y-127872452D01*
X148474662Y-127862085D01*
X148477748Y-127859001D01*
X148480069Y-127855306D01*
X148488115Y-127843966D01*
X148505290Y-127822431D01*
X148505290Y-127822428D01*
X148508830Y-127817990D01*
X148513479Y-127806766D01*
X148514114Y-127801126D01*
X148514116Y-127801124D01*
X148517198Y-127773753D01*
X148519527Y-127760049D01*
X148520500Y-127755790D01*
X148520500Y-127751422D01*
X148521279Y-127737541D01*
X148524997Y-127704534D01*
X148520500Y-127678068D01*
X148520500Y-121509999D01*
X190124877Y-121509999D01*
X190143308Y-121673580D01*
X190197677Y-121828957D01*
X190285257Y-121968341D01*
X190401658Y-122084742D01*
X190541042Y-122172322D01*
X190696419Y-122226691D01*
X190860000Y-122245122D01*
X191023580Y-122226691D01*
X191178957Y-122172322D01*
X191318341Y-122084742D01*
X191434742Y-121968341D01*
X191522322Y-121828957D01*
X191576691Y-121673580D01*
X191595122Y-121510000D01*
X191578624Y-121363580D01*
X191576691Y-121346419D01*
X191522322Y-121191042D01*
X191434742Y-121051658D01*
X191318341Y-120935257D01*
X191178957Y-120847677D01*
X191023580Y-120793308D01*
X190860000Y-120774877D01*
X190696419Y-120793308D01*
X190541042Y-120847677D01*
X190401658Y-120935257D01*
X190285257Y-121051658D01*
X190197677Y-121191042D01*
X190143308Y-121346419D01*
X190124877Y-121509999D01*
X148520500Y-121509999D01*
X148520500Y-118204895D01*
X196976236Y-118204895D01*
X196980043Y-118233804D01*
X196981104Y-118249990D01*
X196981104Y-126690010D01*
X196980043Y-126706196D01*
X196976237Y-126735104D01*
X196981104Y-126772071D01*
X196995621Y-126882338D01*
X197052451Y-127019537D01*
X197142853Y-127137353D01*
X197165987Y-127155104D01*
X197178183Y-127165800D01*
X202272132Y-132259748D01*
X202296171Y-132293627D01*
X202307671Y-132333545D01*
X202313308Y-132383581D01*
X202367677Y-132538957D01*
X202455257Y-132678341D01*
X202571658Y-132794742D01*
X202711042Y-132882322D01*
X202866419Y-132936691D01*
X203030000Y-132955122D01*
X203193580Y-132936691D01*
X203348957Y-132882322D01*
X203488341Y-132794742D01*
X203540569Y-132742513D01*
X203587294Y-132713155D01*
X203642132Y-132706976D01*
X203694220Y-132725202D01*
X203801042Y-132792322D01*
X203956419Y-132846691D01*
X204120000Y-132865122D01*
X204283580Y-132846691D01*
X204438957Y-132792322D01*
X204558063Y-132717483D01*
X204610150Y-132699258D01*
X204664989Y-132705437D01*
X204711715Y-132734798D01*
X204741659Y-132764742D01*
X204881042Y-132852322D01*
X205036419Y-132906691D01*
X205200000Y-132925122D01*
X205363580Y-132906691D01*
X205518957Y-132852322D01*
X205658341Y-132764742D01*
X205774742Y-132648341D01*
X205862322Y-132508957D01*
X205916691Y-132353580D01*
X205935122Y-132190000D01*
X205920071Y-132056419D01*
X205916691Y-132026419D01*
X205862322Y-131871042D01*
X205783006Y-131744810D01*
X205764000Y-131678839D01*
X205764000Y-128780978D01*
X205777515Y-128724683D01*
X205815115Y-128680660D01*
X205868602Y-128658505D01*
X205926318Y-128663047D01*
X205975681Y-128693297D01*
X206819681Y-129537297D01*
X206846561Y-129577525D01*
X206856000Y-129624978D01*
X206856000Y-131708839D01*
X206836994Y-131774810D01*
X206757677Y-131901042D01*
X206703308Y-132056419D01*
X206684877Y-132220000D01*
X206703308Y-132383580D01*
X206757677Y-132538957D01*
X206845257Y-132678341D01*
X206961658Y-132794742D01*
X207101042Y-132882322D01*
X207256419Y-132936691D01*
X207420000Y-132955122D01*
X207583580Y-132936691D01*
X207738957Y-132882322D01*
X207766331Y-132865122D01*
X207890172Y-132787309D01*
X207890649Y-132788068D01*
X207932904Y-132763671D01*
X207997096Y-132763671D01*
X208039350Y-132788068D01*
X208039828Y-132787309D01*
X208191042Y-132882322D01*
X208346419Y-132936691D01*
X208510000Y-132955122D01*
X208673580Y-132936691D01*
X208828957Y-132882322D01*
X208968341Y-132794742D01*
X209043083Y-132720000D01*
X223704540Y-132720000D01*
X223724326Y-132908257D01*
X223782820Y-133088284D01*
X223877466Y-133252216D01*
X224004129Y-133392889D01*
X224157269Y-133504151D01*
X224330197Y-133581144D01*
X224515352Y-133620500D01*
X224515354Y-133620500D01*
X224704646Y-133620500D01*
X224704648Y-133620500D01*
X224828084Y-133594262D01*
X224889803Y-133581144D01*
X225062730Y-133504151D01*
X225215871Y-133392888D01*
X225342533Y-133252216D01*
X225437179Y-133088284D01*
X225495674Y-132908256D01*
X225515460Y-132720000D01*
X225495674Y-132531744D01*
X225447533Y-132383581D01*
X225437179Y-132351715D01*
X225342533Y-132187783D01*
X225215870Y-132047110D01*
X225062730Y-131935848D01*
X224889802Y-131858855D01*
X224704648Y-131819500D01*
X224704646Y-131819500D01*
X224515354Y-131819500D01*
X224515352Y-131819500D01*
X224330197Y-131858855D01*
X224157269Y-131935848D01*
X224004129Y-132047110D01*
X223877466Y-132187783D01*
X223782820Y-132351715D01*
X223724326Y-132531742D01*
X223704540Y-132720000D01*
X209043083Y-132720000D01*
X209084742Y-132678341D01*
X209172322Y-132538957D01*
X209226691Y-132383580D01*
X209245122Y-132220000D01*
X209226691Y-132056420D01*
X209223433Y-132047110D01*
X209172322Y-131901042D01*
X209084742Y-131761658D01*
X208968341Y-131645257D01*
X208828957Y-131557677D01*
X208673580Y-131503308D01*
X208510000Y-131484877D01*
X208346419Y-131503308D01*
X208191043Y-131557677D01*
X208173970Y-131568405D01*
X208111476Y-131587361D01*
X208048018Y-131571937D01*
X208001197Y-131526411D01*
X207984000Y-131463410D01*
X207984000Y-129385094D01*
X207985061Y-129368908D01*
X207988867Y-129339999D01*
X207986611Y-129322870D01*
X207969483Y-129192766D01*
X207912653Y-129055567D01*
X207822250Y-128937750D01*
X207799104Y-128919989D01*
X207786912Y-128909296D01*
X203067616Y-124189999D01*
X215904877Y-124189999D01*
X215923308Y-124353580D01*
X215977677Y-124508957D01*
X216065257Y-124648341D01*
X216181658Y-124764742D01*
X216321042Y-124852322D01*
X216476419Y-124906691D01*
X216640000Y-124925122D01*
X216803580Y-124906691D01*
X216958957Y-124852322D01*
X217098341Y-124764742D01*
X217214742Y-124648341D01*
X217302322Y-124508957D01*
X217356691Y-124353580D01*
X217375122Y-124190000D01*
X217356691Y-124026420D01*
X217302322Y-123871043D01*
X217302322Y-123871042D01*
X217214742Y-123731658D01*
X217098341Y-123615257D01*
X216958957Y-123527677D01*
X216803580Y-123473308D01*
X216640000Y-123454877D01*
X216476419Y-123473308D01*
X216321042Y-123527677D01*
X216181658Y-123615257D01*
X216065257Y-123731658D01*
X215977677Y-123871042D01*
X215923308Y-124026419D01*
X215904877Y-124189999D01*
X203067616Y-124189999D01*
X199532867Y-120655250D01*
X199508828Y-120621370D01*
X199497328Y-120581451D01*
X199491691Y-120531420D01*
X199437322Y-120376042D01*
X199349742Y-120236658D01*
X199233341Y-120120257D01*
X199093957Y-120032677D01*
X198938580Y-119978308D01*
X198774999Y-119959877D01*
X198740488Y-119963766D01*
X198672803Y-119952266D01*
X198621610Y-119906518D01*
X198602604Y-119840546D01*
X198602604Y-119772557D01*
X198621610Y-119706586D01*
X198700926Y-119580353D01*
X198755295Y-119424976D01*
X198773726Y-119261396D01*
X198755295Y-119097815D01*
X198700926Y-118942438D01*
X198613346Y-118803054D01*
X198496947Y-118686655D01*
X198380409Y-118613430D01*
X198337853Y-118568416D01*
X198322381Y-118508432D01*
X198337856Y-118448450D01*
X198369170Y-118415330D01*
X198368462Y-118414622D01*
X198494742Y-118288341D01*
X198582322Y-118148957D01*
X198636691Y-117993580D01*
X198655122Y-117829999D01*
X198636691Y-117666419D01*
X198582322Y-117511042D01*
X198494742Y-117371658D01*
X198378341Y-117255257D01*
X198238957Y-117167677D01*
X198083580Y-117113308D01*
X197920000Y-117094877D01*
X197756419Y-117113308D01*
X197601042Y-117167677D01*
X197461658Y-117255257D01*
X197345257Y-117371658D01*
X197257677Y-117511042D01*
X197203308Y-117666418D01*
X197198131Y-117712366D01*
X197182874Y-117759471D01*
X197150402Y-117796852D01*
X197142854Y-117802643D01*
X197107702Y-117848454D01*
X197107692Y-117848469D01*
X197052451Y-117920462D01*
X196995621Y-118057662D01*
X196976236Y-118204895D01*
X148520500Y-118204895D01*
X148520500Y-116670000D01*
X186094877Y-116670000D01*
X186113308Y-116833580D01*
X186167677Y-116988957D01*
X186255257Y-117128341D01*
X186371658Y-117244742D01*
X186511042Y-117332322D01*
X186666419Y-117386691D01*
X186830000Y-117405122D01*
X186993580Y-117386691D01*
X187148957Y-117332322D01*
X187288341Y-117244742D01*
X187404742Y-117128341D01*
X187492322Y-116988957D01*
X187546691Y-116833580D01*
X187565122Y-116670000D01*
X187553671Y-116568370D01*
X187546691Y-116506419D01*
X187492322Y-116351042D01*
X187472817Y-116320000D01*
X187884877Y-116320000D01*
X187903308Y-116483580D01*
X187957677Y-116638957D01*
X188045257Y-116778341D01*
X188161658Y-116894742D01*
X188301042Y-116982322D01*
X188456419Y-117036691D01*
X188620000Y-117055122D01*
X188783580Y-117036691D01*
X188938957Y-116982322D01*
X189078341Y-116894742D01*
X189194742Y-116778341D01*
X189282322Y-116638957D01*
X189336691Y-116483580D01*
X189355122Y-116320000D01*
X189346658Y-116244883D01*
X189338364Y-116171266D01*
X189347023Y-116109929D01*
X189384271Y-116060435D01*
X189440814Y-116035134D01*
X189502537Y-116040340D01*
X189581566Y-116067994D01*
X189606420Y-116076691D01*
X189769999Y-116095122D01*
X189769999Y-116095121D01*
X189770000Y-116095122D01*
X189933580Y-116076691D01*
X190088957Y-116022322D01*
X190228341Y-115934742D01*
X190344742Y-115818341D01*
X190432322Y-115678957D01*
X190486691Y-115523580D01*
X190505122Y-115360000D01*
X190500732Y-115321042D01*
X190486691Y-115196419D01*
X190432322Y-115041042D01*
X190344742Y-114901658D01*
X190228341Y-114785257D01*
X190088957Y-114697677D01*
X189933580Y-114643308D01*
X189770000Y-114624877D01*
X189606419Y-114643308D01*
X189451042Y-114697677D01*
X189311658Y-114785257D01*
X189195257Y-114901658D01*
X189107677Y-115041042D01*
X189053308Y-115196419D01*
X189034877Y-115360000D01*
X189051635Y-115508734D01*
X189042976Y-115570070D01*
X189005728Y-115619564D01*
X188949186Y-115644865D01*
X188887460Y-115639658D01*
X188783580Y-115603308D01*
X188620000Y-115584877D01*
X188456419Y-115603308D01*
X188301042Y-115657677D01*
X188161658Y-115745257D01*
X188045257Y-115861658D01*
X187957677Y-116001042D01*
X187903308Y-116156419D01*
X187884877Y-116320000D01*
X187472817Y-116320000D01*
X187404742Y-116211658D01*
X187288341Y-116095257D01*
X187148957Y-116007677D01*
X186993580Y-115953308D01*
X186830000Y-115934877D01*
X186666419Y-115953308D01*
X186511042Y-116007677D01*
X186371658Y-116095257D01*
X186255257Y-116211658D01*
X186167677Y-116351042D01*
X186113308Y-116506419D01*
X186094877Y-116670000D01*
X148520500Y-116670000D01*
X148520500Y-108430000D01*
X167474540Y-108430000D01*
X167494326Y-108618257D01*
X167552820Y-108798284D01*
X167647466Y-108962216D01*
X167774129Y-109102889D01*
X167927269Y-109214151D01*
X168100197Y-109291144D01*
X168285352Y-109330500D01*
X168285354Y-109330500D01*
X168474646Y-109330500D01*
X168474648Y-109330500D01*
X168598083Y-109304262D01*
X168659803Y-109291144D01*
X168832730Y-109214151D01*
X168856756Y-109196695D01*
X168985870Y-109102889D01*
X169112533Y-108962216D01*
X169207179Y-108798284D01*
X169235325Y-108711659D01*
X169265674Y-108618256D01*
X169285460Y-108430000D01*
X169265674Y-108241744D01*
X169207179Y-108061716D01*
X169207179Y-108061715D01*
X169112533Y-107897783D01*
X168985870Y-107757110D01*
X168832730Y-107645848D01*
X168659802Y-107568855D01*
X168474648Y-107529500D01*
X168474646Y-107529500D01*
X168285354Y-107529500D01*
X168285352Y-107529500D01*
X168100197Y-107568855D01*
X167927269Y-107645848D01*
X167774129Y-107757110D01*
X167647466Y-107897783D01*
X167552820Y-108061715D01*
X167494326Y-108241742D01*
X167474540Y-108430000D01*
X148520500Y-108430000D01*
X148520500Y-95560000D01*
X161640593Y-95560000D01*
X161644659Y-95611658D01*
X161659792Y-95803946D01*
X161716915Y-96041883D01*
X161775967Y-96184445D01*
X161810558Y-96267956D01*
X161938413Y-96476596D01*
X162097333Y-96662667D01*
X162283404Y-96821587D01*
X162492044Y-96949442D01*
X162650941Y-97015259D01*
X162718116Y-97043084D01*
X162793286Y-97061130D01*
X162956055Y-97100208D01*
X163200000Y-97119407D01*
X163443945Y-97100208D01*
X163681883Y-97043084D01*
X163907956Y-96949442D01*
X164116596Y-96821587D01*
X164302667Y-96662667D01*
X164461587Y-96476596D01*
X164589442Y-96267956D01*
X164683084Y-96041883D01*
X164740208Y-95803945D01*
X164759407Y-95560000D01*
X164740208Y-95316055D01*
X164697666Y-95138855D01*
X164683084Y-95078116D01*
X164647444Y-94992074D01*
X164589442Y-94852044D01*
X164461587Y-94643404D01*
X164302667Y-94457333D01*
X164116596Y-94298413D01*
X163907956Y-94170558D01*
X163814043Y-94131658D01*
X163681883Y-94076915D01*
X163443946Y-94019792D01*
X163200000Y-94000593D01*
X162956053Y-94019792D01*
X162718116Y-94076915D01*
X162492042Y-94170559D01*
X162283405Y-94298412D01*
X162097333Y-94457333D01*
X161970775Y-94605512D01*
X161922363Y-94640181D01*
X161890325Y-94644582D01*
X161897950Y-94679031D01*
X161879768Y-94739103D01*
X161810558Y-94852044D01*
X161716915Y-95078116D01*
X161659792Y-95316053D01*
X161644209Y-95514051D01*
X161640593Y-95560000D01*
X148520500Y-95560000D01*
X148520500Y-95115789D01*
X154597761Y-95115789D01*
X154597762Y-95115790D01*
X154713491Y-95187446D01*
X154920611Y-95267684D01*
X155138946Y-95308499D01*
X155361056Y-95308499D01*
X155579390Y-95267684D01*
X155786507Y-95187447D01*
X155902239Y-95115789D01*
X155250002Y-94463552D01*
X155250001Y-94463552D01*
X154597761Y-95115789D01*
X148520500Y-95115789D01*
X148520500Y-94109999D01*
X154046367Y-94109999D01*
X154066860Y-94331168D01*
X154127644Y-94544800D01*
X154226651Y-94743631D01*
X154242211Y-94764234D01*
X154896448Y-94110000D01*
X154896448Y-94109999D01*
X155603554Y-94109999D01*
X156257789Y-94764234D01*
X156257790Y-94764234D01*
X156273350Y-94743630D01*
X156372357Y-94544800D01*
X156433141Y-94331168D01*
X156453634Y-94109999D01*
X156433141Y-93888829D01*
X156372356Y-93675195D01*
X156319401Y-93568848D01*
X158266129Y-93568848D01*
X158296229Y-93842407D01*
X158337585Y-94000593D01*
X158365840Y-94108671D01*
X158473476Y-94361961D01*
X158573725Y-94526225D01*
X158616846Y-94596881D01*
X158685212Y-94679031D01*
X158792890Y-94808419D01*
X158997860Y-94992073D01*
X159227385Y-95143926D01*
X159476575Y-95260741D01*
X159740117Y-95340029D01*
X160012395Y-95380100D01*
X160218712Y-95380100D01*
X160218716Y-95380100D01*
X160424479Y-95365040D01*
X160586460Y-95328957D01*
X160693105Y-95305201D01*
X160950157Y-95206887D01*
X161190154Y-95072193D01*
X161407983Y-94903992D01*
X161599000Y-94705866D01*
X161673193Y-94602162D01*
X161721441Y-94562023D01*
X161759899Y-94554936D01*
X161752491Y-94526225D01*
X161766207Y-94468282D01*
X161768639Y-94463552D01*
X161884972Y-94237283D01*
X161973833Y-93976812D01*
X162023821Y-93706179D01*
X162033872Y-93431151D01*
X162003772Y-93157591D01*
X161934162Y-92891329D01*
X161826526Y-92638039D01*
X161683157Y-92403121D01*
X161677805Y-92396690D01*
X161581562Y-92281042D01*
X161539084Y-92229999D01*
X165285864Y-92229999D01*
X165306366Y-92451262D01*
X165367176Y-92664984D01*
X165466220Y-92863893D01*
X165600133Y-93041223D01*
X165764343Y-93190920D01*
X165867279Y-93254655D01*
X165910330Y-93299743D01*
X165926001Y-93360082D01*
X165926001Y-102644907D01*
X165924940Y-102661093D01*
X165921134Y-102690001D01*
X165926001Y-102726968D01*
X165940518Y-102837235D01*
X165997348Y-102974434D01*
X166087750Y-103092250D01*
X166110884Y-103110001D01*
X166123080Y-103120697D01*
X179009299Y-116006915D01*
X179019994Y-116019110D01*
X179037749Y-116042250D01*
X179106655Y-116095122D01*
X179144312Y-116124017D01*
X179155567Y-116132653D01*
X179292766Y-116189483D01*
X179422870Y-116206611D01*
X179439999Y-116208867D01*
X179439999Y-116208866D01*
X179440000Y-116208867D01*
X179468910Y-116205060D01*
X179485094Y-116204000D01*
X181258839Y-116204000D01*
X181324810Y-116223006D01*
X181451042Y-116302322D01*
X181606419Y-116356691D01*
X181770000Y-116375122D01*
X181933580Y-116356691D01*
X182088957Y-116302322D01*
X182228341Y-116214742D01*
X182344742Y-116098341D01*
X182432322Y-115958957D01*
X182486691Y-115803580D01*
X182505122Y-115640000D01*
X182505083Y-115639658D01*
X182486691Y-115476419D01*
X182432322Y-115321042D01*
X182344742Y-115181658D01*
X182228341Y-115065257D01*
X182088957Y-114977677D01*
X181952705Y-114930000D01*
X184654877Y-114930000D01*
X184673308Y-115093580D01*
X184727677Y-115248957D01*
X184815257Y-115388341D01*
X184931658Y-115504742D01*
X185071042Y-115592322D01*
X185226419Y-115646691D01*
X185390000Y-115665122D01*
X185553580Y-115646691D01*
X185708957Y-115592322D01*
X185848341Y-115504742D01*
X185964742Y-115388341D01*
X186052322Y-115248957D01*
X186106691Y-115093580D01*
X186125122Y-114930000D01*
X186108814Y-114785258D01*
X186106691Y-114766419D01*
X186047708Y-114597856D01*
X186049340Y-114597284D01*
X186035129Y-114547956D01*
X186054134Y-114481986D01*
X186062322Y-114468957D01*
X186116691Y-114313580D01*
X186135122Y-114150000D01*
X186116691Y-113986420D01*
X186067797Y-113846691D01*
X186062322Y-113831042D01*
X185974742Y-113691658D01*
X185858341Y-113575257D01*
X185718957Y-113487677D01*
X185563580Y-113433308D01*
X185400000Y-113414877D01*
X185236419Y-113433308D01*
X185081042Y-113487677D01*
X184941658Y-113575257D01*
X184825257Y-113691658D01*
X184737677Y-113831042D01*
X184683308Y-113986419D01*
X184664877Y-114149999D01*
X184683308Y-114313580D01*
X184742292Y-114482143D01*
X184740660Y-114482713D01*
X184754870Y-114532044D01*
X184735867Y-114598009D01*
X184727677Y-114611043D01*
X184673308Y-114766419D01*
X184654877Y-114930000D01*
X181952705Y-114930000D01*
X181933580Y-114923308D01*
X181769999Y-114904877D01*
X181645263Y-114918931D01*
X181590425Y-114912752D01*
X181543699Y-114883392D01*
X181514339Y-114836667D01*
X181482322Y-114745167D01*
X181418321Y-114643309D01*
X181394742Y-114605782D01*
X181278341Y-114489381D01*
X181138957Y-114401801D01*
X180983580Y-114347432D01*
X180820000Y-114329001D01*
X180656419Y-114347432D01*
X180501042Y-114401801D01*
X180374810Y-114481118D01*
X180308839Y-114500124D01*
X179869103Y-114500124D01*
X179821650Y-114490685D01*
X179781422Y-114463805D01*
X178558031Y-113240414D01*
X178525937Y-113184826D01*
X178525937Y-113130000D01*
X189554877Y-113130000D01*
X189573308Y-113293580D01*
X189627677Y-113448957D01*
X189715257Y-113588341D01*
X189831658Y-113704742D01*
X189971042Y-113792322D01*
X190126419Y-113846691D01*
X190290000Y-113865122D01*
X190453580Y-113846691D01*
X190608957Y-113792322D01*
X190748341Y-113704742D01*
X190864742Y-113588341D01*
X190951667Y-113449999D01*
X205644877Y-113449999D01*
X205663308Y-113613580D01*
X205717677Y-113768957D01*
X205805257Y-113908341D01*
X205921658Y-114024742D01*
X206061042Y-114112322D01*
X206216419Y-114166691D01*
X206380000Y-114185122D01*
X206543580Y-114166691D01*
X206698957Y-114112322D01*
X206838341Y-114024742D01*
X206954742Y-113908341D01*
X207042322Y-113768957D01*
X207096691Y-113613580D01*
X207115122Y-113450000D01*
X207115004Y-113448957D01*
X207096691Y-113286419D01*
X207042322Y-113131042D01*
X206954742Y-112991658D01*
X206838341Y-112875257D01*
X206698957Y-112787677D01*
X206543580Y-112733308D01*
X206380000Y-112714877D01*
X206216419Y-112733308D01*
X206061042Y-112787677D01*
X205921658Y-112875257D01*
X205805257Y-112991658D01*
X205717677Y-113131042D01*
X205663308Y-113286419D01*
X205644877Y-113449999D01*
X190951667Y-113449999D01*
X190952322Y-113448957D01*
X191006691Y-113293580D01*
X191025122Y-113130000D01*
X191006691Y-112966420D01*
X190966766Y-112852322D01*
X190952322Y-112811042D01*
X190864742Y-112671658D01*
X190748341Y-112555257D01*
X190608957Y-112467677D01*
X190453580Y-112413308D01*
X190290000Y-112394877D01*
X190126419Y-112413308D01*
X189971042Y-112467677D01*
X189831658Y-112555257D01*
X189715257Y-112671658D01*
X189627677Y-112811042D01*
X189573308Y-112966419D01*
X189554877Y-113130000D01*
X178525937Y-113130000D01*
X178525937Y-113120639D01*
X178558029Y-113065053D01*
X178624742Y-112998341D01*
X178702080Y-112875258D01*
X178712322Y-112858957D01*
X178766691Y-112703580D01*
X178785122Y-112540000D01*
X178766691Y-112376419D01*
X178712322Y-112221042D01*
X178624742Y-112081658D01*
X178508341Y-111965257D01*
X178368957Y-111877677D01*
X178213580Y-111823308D01*
X178050000Y-111804877D01*
X177886419Y-111823308D01*
X177731042Y-111877677D01*
X177591660Y-111965256D01*
X177524947Y-112031969D01*
X177469359Y-112064062D01*
X177405172Y-112064062D01*
X177349585Y-112031968D01*
X176883031Y-111565414D01*
X176850937Y-111509826D01*
X176850937Y-111445639D01*
X176883029Y-111390053D01*
X176984742Y-111288341D01*
X177056851Y-111173580D01*
X177072322Y-111148957D01*
X177078956Y-111129999D01*
X192164877Y-111129999D01*
X192183308Y-111293580D01*
X192237677Y-111448957D01*
X192325257Y-111588341D01*
X192441658Y-111704742D01*
X192581042Y-111792322D01*
X192736419Y-111846691D01*
X192899999Y-111865122D01*
X192899999Y-111865121D01*
X192900000Y-111865122D01*
X193063580Y-111846691D01*
X193218957Y-111792322D01*
X193358341Y-111704742D01*
X193474742Y-111588341D01*
X193562322Y-111448957D01*
X193616691Y-111293580D01*
X193635122Y-111130000D01*
X193621601Y-111010000D01*
X197944877Y-111010000D01*
X197963308Y-111173580D01*
X198017677Y-111328957D01*
X198105257Y-111468341D01*
X198221658Y-111584742D01*
X198361042Y-111672322D01*
X198516419Y-111726691D01*
X198680000Y-111745122D01*
X198843580Y-111726691D01*
X198998957Y-111672322D01*
X199138341Y-111584742D01*
X199254742Y-111468341D01*
X199342322Y-111328957D01*
X199396691Y-111173580D01*
X199415122Y-111010000D01*
X199396691Y-110846420D01*
X199390945Y-110830000D01*
X199342322Y-110691042D01*
X199254742Y-110551658D01*
X199138341Y-110435257D01*
X198998957Y-110347677D01*
X198843580Y-110293308D01*
X198680000Y-110274877D01*
X198516419Y-110293308D01*
X198361042Y-110347677D01*
X198221658Y-110435257D01*
X198105257Y-110551658D01*
X198017677Y-110691042D01*
X197963308Y-110846419D01*
X197944877Y-111010000D01*
X193621601Y-111010000D01*
X193616691Y-110966420D01*
X193564652Y-110817704D01*
X193560803Y-110749157D01*
X193594012Y-110689070D01*
X193694742Y-110588341D01*
X193782322Y-110448957D01*
X193836691Y-110293580D01*
X193855122Y-110130000D01*
X193836691Y-109966420D01*
X193808792Y-109886691D01*
X193782322Y-109811042D01*
X193694742Y-109671658D01*
X193578341Y-109555257D01*
X193438957Y-109467677D01*
X193283580Y-109413308D01*
X193120000Y-109394877D01*
X192956419Y-109413308D01*
X192801042Y-109467677D01*
X192661658Y-109555257D01*
X192545257Y-109671658D01*
X192457677Y-109811042D01*
X192403308Y-109966419D01*
X192384877Y-110129999D01*
X192403278Y-110293308D01*
X192403309Y-110293580D01*
X192455347Y-110442294D01*
X192459196Y-110510842D01*
X192425986Y-110570930D01*
X192325257Y-110671658D01*
X192237677Y-110811042D01*
X192183308Y-110966419D01*
X192164877Y-111129999D01*
X177078956Y-111129999D01*
X177126691Y-110993580D01*
X177145122Y-110830000D01*
X177126691Y-110666419D01*
X177072322Y-110511042D01*
X176984742Y-110371658D01*
X176868341Y-110255257D01*
X176728957Y-110167677D01*
X176573580Y-110113308D01*
X176410000Y-110094877D01*
X176246419Y-110113308D01*
X176091042Y-110167677D01*
X175951660Y-110255255D01*
X175849947Y-110356969D01*
X175794359Y-110389062D01*
X175730172Y-110389062D01*
X175674585Y-110356968D01*
X173067032Y-107749415D01*
X189001877Y-107749415D01*
X189020308Y-107912995D01*
X189074677Y-108068372D01*
X189162257Y-108207756D01*
X189278658Y-108324157D01*
X189418042Y-108411737D01*
X189573419Y-108466106D01*
X189640799Y-108473698D01*
X189692886Y-108491924D01*
X189731908Y-108530945D01*
X189750135Y-108583032D01*
X189754881Y-108625154D01*
X189809250Y-108780530D01*
X189896830Y-108919914D01*
X190013231Y-109036315D01*
X190152615Y-109123895D01*
X190307992Y-109178264D01*
X190471572Y-109196695D01*
X190471572Y-109196694D01*
X190471573Y-109196695D01*
X190635153Y-109178264D01*
X190790530Y-109123895D01*
X190929914Y-109036315D01*
X191046315Y-108919914D01*
X191133895Y-108780530D01*
X191188264Y-108625153D01*
X191206695Y-108461573D01*
X191188264Y-108297993D01*
X191133895Y-108142616D01*
X191133895Y-108142615D01*
X191046315Y-108003231D01*
X190929914Y-107886830D01*
X190790530Y-107799250D01*
X190635153Y-107744881D01*
X190567771Y-107737289D01*
X190515683Y-107719062D01*
X190476661Y-107680040D01*
X190458436Y-107627956D01*
X190453691Y-107585835D01*
X190399322Y-107430458D01*
X190399322Y-107430457D01*
X190311742Y-107291073D01*
X190195341Y-107174672D01*
X190055957Y-107087092D01*
X189900580Y-107032723D01*
X189737000Y-107014292D01*
X189573419Y-107032723D01*
X189418042Y-107087092D01*
X189278658Y-107174672D01*
X189162257Y-107291073D01*
X189074677Y-107430457D01*
X189020308Y-107585834D01*
X189001877Y-107749415D01*
X173067032Y-107749415D01*
X171807616Y-106489999D01*
X176734877Y-106489999D01*
X176753308Y-106653580D01*
X176807677Y-106808957D01*
X176895257Y-106948341D01*
X177011658Y-107064742D01*
X177151042Y-107152322D01*
X177306419Y-107206691D01*
X177470000Y-107225122D01*
X177633580Y-107206691D01*
X177788957Y-107152322D01*
X177928341Y-107064742D01*
X178044742Y-106948341D01*
X178132322Y-106808957D01*
X178186691Y-106653580D01*
X178205122Y-106490000D01*
X178194981Y-106400000D01*
X178186691Y-106326419D01*
X178132322Y-106171042D01*
X178044742Y-106031658D01*
X177928341Y-105915257D01*
X177788957Y-105827677D01*
X177682886Y-105790561D01*
X187092883Y-105790561D01*
X187111314Y-105954141D01*
X187165683Y-106109518D01*
X187253263Y-106248902D01*
X187369664Y-106365303D01*
X187509048Y-106452883D01*
X187664425Y-106507252D01*
X187828006Y-106525683D01*
X187991586Y-106507252D01*
X188146963Y-106452883D01*
X188286347Y-106365303D01*
X188402748Y-106248902D01*
X188490328Y-106109518D01*
X188544697Y-105954141D01*
X188548387Y-105921395D01*
X188803481Y-105921395D01*
X188821912Y-106084976D01*
X188876281Y-106240353D01*
X188963861Y-106379737D01*
X189080262Y-106496138D01*
X189219646Y-106583718D01*
X189375023Y-106638087D01*
X189538604Y-106656518D01*
X189702184Y-106638087D01*
X189857561Y-106583718D01*
X189996945Y-106496138D01*
X190113346Y-106379737D01*
X190125747Y-106360000D01*
X200644540Y-106360000D01*
X200664326Y-106548257D01*
X200722820Y-106728284D01*
X200817466Y-106892216D01*
X200944129Y-107032889D01*
X201097269Y-107144151D01*
X201270197Y-107221144D01*
X201455352Y-107260500D01*
X201455354Y-107260500D01*
X201644646Y-107260500D01*
X201644648Y-107260500D01*
X201768084Y-107234262D01*
X201829803Y-107221144D01*
X202002730Y-107144151D01*
X202155871Y-107032888D01*
X202282533Y-106892216D01*
X202377179Y-106728284D01*
X202435674Y-106548256D01*
X202455460Y-106360000D01*
X202435674Y-106171744D01*
X202405332Y-106078363D01*
X202377179Y-105991715D01*
X202282533Y-105827783D01*
X202155870Y-105687110D01*
X202002730Y-105575848D01*
X201829802Y-105498855D01*
X201644648Y-105459500D01*
X201644646Y-105459500D01*
X201455354Y-105459500D01*
X201455352Y-105459500D01*
X201270197Y-105498855D01*
X201097269Y-105575848D01*
X200944129Y-105687110D01*
X200817466Y-105827783D01*
X200722820Y-105991715D01*
X200664326Y-106171742D01*
X200644540Y-106360000D01*
X190125747Y-106360000D01*
X190200926Y-106240353D01*
X190255295Y-106084976D01*
X190273726Y-105921396D01*
X190273034Y-105915258D01*
X190255295Y-105757815D01*
X190200926Y-105602438D01*
X190113346Y-105463054D01*
X190067316Y-105417024D01*
X190034106Y-105356935D01*
X190037956Y-105288388D01*
X190077684Y-105232396D01*
X190141114Y-105206123D01*
X190149999Y-105205121D01*
X190150000Y-105205122D01*
X190313580Y-105186691D01*
X190468957Y-105132322D01*
X190608341Y-105044742D01*
X190724742Y-104928341D01*
X190812322Y-104788957D01*
X190866691Y-104633580D01*
X190885122Y-104470000D01*
X190866691Y-104306420D01*
X190851260Y-104262322D01*
X190812322Y-104151042D01*
X190724742Y-104011658D01*
X190608341Y-103895257D01*
X190468957Y-103807677D01*
X190313580Y-103753308D01*
X190150000Y-103734877D01*
X189986419Y-103753308D01*
X189831042Y-103807677D01*
X189691658Y-103895257D01*
X189575257Y-104011658D01*
X189487677Y-104151042D01*
X189433308Y-104306419D01*
X189414877Y-104469999D01*
X189433308Y-104633580D01*
X189487677Y-104788957D01*
X189575257Y-104928341D01*
X189621287Y-104974371D01*
X189654497Y-105034459D01*
X189650648Y-105103006D01*
X189610919Y-105158999D01*
X189547490Y-105185272D01*
X189375023Y-105204704D01*
X189219646Y-105259073D01*
X189080262Y-105346653D01*
X188963861Y-105463054D01*
X188876281Y-105602438D01*
X188821912Y-105757815D01*
X188803481Y-105921395D01*
X188548387Y-105921395D01*
X188563128Y-105790561D01*
X188544697Y-105626981D01*
X188536109Y-105602439D01*
X188490328Y-105471603D01*
X188402748Y-105332219D01*
X188286347Y-105215818D01*
X188146963Y-105128238D01*
X187991586Y-105073869D01*
X187828006Y-105055438D01*
X187664425Y-105073869D01*
X187509048Y-105128238D01*
X187369664Y-105215818D01*
X187253263Y-105332219D01*
X187165683Y-105471603D01*
X187111314Y-105626980D01*
X187092883Y-105790561D01*
X177682886Y-105790561D01*
X177633580Y-105773308D01*
X177470000Y-105754877D01*
X177306419Y-105773308D01*
X177151042Y-105827677D01*
X177011658Y-105915257D01*
X176895257Y-106031658D01*
X176807677Y-106171042D01*
X176753308Y-106326419D01*
X176734877Y-106489999D01*
X171807616Y-106489999D01*
X169630320Y-104312703D01*
X169603440Y-104272475D01*
X169594001Y-104225022D01*
X169594001Y-103839999D01*
X177654877Y-103839999D01*
X177673308Y-104003580D01*
X177727677Y-104158957D01*
X177815257Y-104298341D01*
X177931658Y-104414742D01*
X178071042Y-104502322D01*
X178226419Y-104556691D01*
X178390000Y-104575122D01*
X178553580Y-104556691D01*
X178708957Y-104502322D01*
X178848341Y-104414742D01*
X178964742Y-104298341D01*
X179052322Y-104158957D01*
X179106691Y-104003580D01*
X179125122Y-103840000D01*
X179106691Y-103676420D01*
X179082031Y-103605948D01*
X179081697Y-103599999D01*
X195964877Y-103599999D01*
X195983308Y-103763580D01*
X196037677Y-103918957D01*
X196125257Y-104058341D01*
X196241658Y-104174742D01*
X196381042Y-104262322D01*
X196536419Y-104316691D01*
X196699999Y-104335122D01*
X196699999Y-104335121D01*
X196700000Y-104335122D01*
X196863580Y-104316691D01*
X197018957Y-104262322D01*
X197158341Y-104174742D01*
X197274742Y-104058341D01*
X197362322Y-103918957D01*
X197416691Y-103763580D01*
X197435122Y-103600000D01*
X197417878Y-103446959D01*
X197416691Y-103436419D01*
X197362322Y-103281042D01*
X197274742Y-103141658D01*
X197158341Y-103025257D01*
X197018957Y-102937677D01*
X196863580Y-102883308D01*
X196700000Y-102864877D01*
X196536419Y-102883308D01*
X196381042Y-102937677D01*
X196241658Y-103025257D01*
X196125257Y-103141658D01*
X196037677Y-103281042D01*
X195983308Y-103436419D01*
X195964877Y-103599999D01*
X179081697Y-103599999D01*
X179078182Y-103537404D01*
X179111391Y-103477315D01*
X179171479Y-103444104D01*
X179222330Y-103446959D01*
X179222537Y-103445127D01*
X179400000Y-103465122D01*
X179563580Y-103446691D01*
X179718957Y-103392322D01*
X179858341Y-103304742D01*
X179974742Y-103188341D01*
X180062322Y-103048957D01*
X180116691Y-102893580D01*
X180135122Y-102730000D01*
X180134780Y-102726969D01*
X180116691Y-102566419D01*
X180062322Y-102411042D01*
X179974742Y-102271658D01*
X179858341Y-102155257D01*
X179718957Y-102067677D01*
X179563580Y-102013308D01*
X179400000Y-101994877D01*
X179236419Y-102013308D01*
X179081042Y-102067677D01*
X178941658Y-102155257D01*
X178825257Y-102271658D01*
X178737677Y-102411042D01*
X178683308Y-102566419D01*
X178664877Y-102729999D01*
X178683308Y-102893580D01*
X178707967Y-102964049D01*
X178711818Y-103032594D01*
X178678611Y-103092682D01*
X178618526Y-103125893D01*
X178567669Y-103123040D01*
X178567463Y-103124873D01*
X178390000Y-103104877D01*
X178226419Y-103123308D01*
X178071042Y-103177677D01*
X177931658Y-103265257D01*
X177815257Y-103381658D01*
X177727677Y-103521042D01*
X177673308Y-103676419D01*
X177654877Y-103839999D01*
X169594001Y-103839999D01*
X169594001Y-101320000D01*
X189794877Y-101320000D01*
X189813308Y-101483580D01*
X189867677Y-101638957D01*
X189955257Y-101778341D01*
X190071658Y-101894742D01*
X190211042Y-101982322D01*
X190366419Y-102036691D01*
X190530000Y-102055122D01*
X190693580Y-102036691D01*
X190848957Y-101982322D01*
X190988341Y-101894742D01*
X191104742Y-101778341D01*
X191192322Y-101638957D01*
X191246691Y-101483580D01*
X191265122Y-101320000D01*
X191246691Y-101156420D01*
X191192322Y-101001043D01*
X191192322Y-101001042D01*
X191104742Y-100861658D01*
X190988341Y-100745257D01*
X190848957Y-100657677D01*
X190693580Y-100603308D01*
X190530000Y-100584877D01*
X190366419Y-100603308D01*
X190211042Y-100657677D01*
X190071658Y-100745257D01*
X189955257Y-100861658D01*
X189867677Y-101001042D01*
X189813308Y-101156419D01*
X189794877Y-101320000D01*
X169594001Y-101320000D01*
X169594001Y-97424168D01*
X195776648Y-97424168D01*
X195792120Y-97511907D01*
X195807277Y-97597866D01*
X195874446Y-97753582D01*
X195877136Y-97759818D01*
X195982461Y-97901294D01*
X196117570Y-98014665D01*
X196117571Y-98014665D01*
X196117573Y-98014667D01*
X196275189Y-98093824D01*
X196275190Y-98093824D01*
X196275192Y-98093825D01*
X196446810Y-98134500D01*
X196446812Y-98134500D01*
X196578938Y-98134500D01*
X196578941Y-98134500D01*
X196710184Y-98119160D01*
X196875924Y-98058836D01*
X197023285Y-97961915D01*
X197144322Y-97833623D01*
X197164337Y-97798957D01*
X197232508Y-97680879D01*
X197232507Y-97680879D01*
X197232510Y-97680876D01*
X197283095Y-97511909D01*
X197288206Y-97424168D01*
X199586648Y-97424168D01*
X199602120Y-97511907D01*
X199617277Y-97597866D01*
X199684446Y-97753582D01*
X199687136Y-97759818D01*
X199792461Y-97901294D01*
X199927570Y-98014665D01*
X199927571Y-98014665D01*
X199927573Y-98014667D01*
X200085189Y-98093824D01*
X200085190Y-98093824D01*
X200085192Y-98093825D01*
X200256810Y-98134500D01*
X200256812Y-98134500D01*
X200388938Y-98134500D01*
X200388941Y-98134500D01*
X200520184Y-98119160D01*
X200685924Y-98058836D01*
X200833285Y-97961915D01*
X200954322Y-97833623D01*
X200974337Y-97798957D01*
X201042508Y-97680879D01*
X201042507Y-97680879D01*
X201042510Y-97680876D01*
X201093095Y-97511909D01*
X201103351Y-97335831D01*
X201072723Y-97162134D01*
X201002864Y-97000182D01*
X200897539Y-96858706D01*
X200897538Y-96858705D01*
X200762429Y-96745334D01*
X200604807Y-96666174D01*
X200433190Y-96625500D01*
X200433188Y-96625500D01*
X200301059Y-96625500D01*
X200242693Y-96632322D01*
X200169813Y-96640840D01*
X200004074Y-96701164D01*
X199856715Y-96798084D01*
X199735676Y-96926377D01*
X199647491Y-97079120D01*
X199596905Y-97248092D01*
X199586648Y-97424168D01*
X197288206Y-97424168D01*
X197293351Y-97335831D01*
X197262723Y-97162134D01*
X197192864Y-97000182D01*
X197087539Y-96858706D01*
X197087538Y-96858705D01*
X196952429Y-96745334D01*
X196794807Y-96666174D01*
X196623190Y-96625500D01*
X196623188Y-96625500D01*
X196491059Y-96625500D01*
X196432693Y-96632322D01*
X196359813Y-96640840D01*
X196194074Y-96701164D01*
X196046715Y-96798084D01*
X195925676Y-96926377D01*
X195837491Y-97079120D01*
X195786905Y-97248092D01*
X195776648Y-97424168D01*
X169594001Y-97424168D01*
X169594001Y-95010000D01*
X173264877Y-95010000D01*
X173283308Y-95173580D01*
X173337677Y-95328957D01*
X173407414Y-95439944D01*
X173426420Y-95505915D01*
X173407414Y-95571886D01*
X173357677Y-95651042D01*
X173303308Y-95806419D01*
X173284877Y-95969999D01*
X173303308Y-96133580D01*
X173357677Y-96288957D01*
X173445257Y-96428341D01*
X173561658Y-96544742D01*
X173701042Y-96632322D01*
X173856419Y-96686691D01*
X174020000Y-96705122D01*
X174183580Y-96686691D01*
X174338957Y-96632322D01*
X174478341Y-96544742D01*
X174594742Y-96428341D01*
X174682322Y-96288957D01*
X174723947Y-96169999D01*
X179324540Y-96169999D01*
X179344326Y-96358257D01*
X179402820Y-96538284D01*
X179497466Y-96702216D01*
X179624129Y-96842889D01*
X179777269Y-96954151D01*
X179950197Y-97031144D01*
X180135352Y-97070500D01*
X180135354Y-97070500D01*
X180324646Y-97070500D01*
X180324648Y-97070500D01*
X180453629Y-97043084D01*
X180509803Y-97031144D01*
X180682730Y-96954151D01*
X180810744Y-96861144D01*
X180835870Y-96842889D01*
X180855051Y-96821587D01*
X180962533Y-96702216D01*
X181057179Y-96538284D01*
X181115674Y-96358256D01*
X181135460Y-96170000D01*
X181115674Y-95981744D01*
X181092362Y-95910000D01*
X188164540Y-95910000D01*
X188184326Y-96098257D01*
X188242820Y-96278284D01*
X188337466Y-96442216D01*
X188464129Y-96582889D01*
X188617269Y-96694151D01*
X188790197Y-96771144D01*
X188975352Y-96810500D01*
X188975354Y-96810500D01*
X189164646Y-96810500D01*
X189164648Y-96810500D01*
X189288609Y-96784151D01*
X189349803Y-96771144D01*
X189522730Y-96694151D01*
X189551996Y-96672888D01*
X189675870Y-96582889D01*
X189802533Y-96442216D01*
X189897179Y-96278284D01*
X189912376Y-96231513D01*
X189955674Y-96098256D01*
X189975460Y-95910000D01*
X189955674Y-95721744D01*
X189903120Y-95559999D01*
X189897179Y-95541715D01*
X189802533Y-95377783D01*
X189675870Y-95237110D01*
X189522730Y-95125848D01*
X189349802Y-95048855D01*
X189164648Y-95009500D01*
X189164646Y-95009500D01*
X188975354Y-95009500D01*
X188975352Y-95009500D01*
X188790197Y-95048855D01*
X188617269Y-95125848D01*
X188464129Y-95237110D01*
X188337466Y-95377783D01*
X188242820Y-95541715D01*
X188184326Y-95721742D01*
X188164540Y-95910000D01*
X181092362Y-95910000D01*
X181085332Y-95888363D01*
X181057179Y-95801715D01*
X180962533Y-95637783D01*
X180835870Y-95497110D01*
X180682730Y-95385848D01*
X180509802Y-95308855D01*
X180324648Y-95269500D01*
X180324646Y-95269500D01*
X180135354Y-95269500D01*
X180135352Y-95269500D01*
X179950197Y-95308855D01*
X179777269Y-95385848D01*
X179624129Y-95497110D01*
X179497466Y-95637783D01*
X179402820Y-95801715D01*
X179344326Y-95981742D01*
X179324540Y-96169999D01*
X174723947Y-96169999D01*
X174736691Y-96133580D01*
X174755122Y-95970000D01*
X174746417Y-95892745D01*
X174736691Y-95806419D01*
X174682322Y-95651042D01*
X174612585Y-95540055D01*
X174593579Y-95474083D01*
X174612584Y-95408115D01*
X174662322Y-95328957D01*
X174716691Y-95173580D01*
X174735122Y-95010000D01*
X174717325Y-94852044D01*
X174716691Y-94846419D01*
X174662322Y-94691042D01*
X174574742Y-94551658D01*
X174458341Y-94435257D01*
X174318957Y-94347677D01*
X174163580Y-94293308D01*
X174000000Y-94274877D01*
X173836419Y-94293308D01*
X173681042Y-94347677D01*
X173541658Y-94435257D01*
X173425257Y-94551658D01*
X173337677Y-94691042D01*
X173283308Y-94846419D01*
X173264877Y-95010000D01*
X169594001Y-95010000D01*
X169594001Y-92090082D01*
X169609672Y-92029743D01*
X169652723Y-91984655D01*
X169679071Y-91968341D01*
X169755656Y-91920922D01*
X169897887Y-91791261D01*
X169919868Y-91771223D01*
X169919869Y-91771222D01*
X170053779Y-91593896D01*
X170053779Y-91593894D01*
X170053781Y-91593893D01*
X170152825Y-91394984D01*
X170213635Y-91181262D01*
X170221537Y-91095980D01*
X170234138Y-90960000D01*
X170215492Y-90758775D01*
X170213635Y-90738737D01*
X170152825Y-90525015D01*
X170053781Y-90326106D01*
X169919868Y-90148776D01*
X169755656Y-89999077D01*
X169566733Y-89882102D01*
X169566731Y-89882101D01*
X169369325Y-89805625D01*
X169320957Y-89771831D01*
X169293683Y-89719504D01*
X169293683Y-89660496D01*
X169320957Y-89608169D01*
X169369325Y-89574374D01*
X169566731Y-89497899D01*
X169755656Y-89380922D01*
X169839585Y-89304411D01*
X169919868Y-89231223D01*
X169919869Y-89231222D01*
X170053779Y-89053896D01*
X170053779Y-89053894D01*
X170053781Y-89053893D01*
X170145348Y-88870000D01*
X175564877Y-88870000D01*
X175583308Y-89033580D01*
X175637677Y-89188957D01*
X175725257Y-89328341D01*
X175841658Y-89444742D01*
X175981042Y-89532322D01*
X176136419Y-89586691D01*
X176300000Y-89605122D01*
X176463580Y-89586691D01*
X176618957Y-89532322D01*
X176758341Y-89444742D01*
X176874742Y-89328341D01*
X176962322Y-89188957D01*
X177016691Y-89033580D01*
X177035122Y-88870000D01*
X177016691Y-88706420D01*
X177011708Y-88692180D01*
X176962322Y-88551042D01*
X176874742Y-88411658D01*
X176758341Y-88295257D01*
X176618957Y-88207677D01*
X176463580Y-88153308D01*
X176300000Y-88134877D01*
X176136419Y-88153308D01*
X175981042Y-88207677D01*
X175841658Y-88295257D01*
X175725257Y-88411658D01*
X175637677Y-88551042D01*
X175583308Y-88706419D01*
X175564877Y-88870000D01*
X170145348Y-88870000D01*
X170152825Y-88854984D01*
X170213635Y-88641262D01*
X170222416Y-88546497D01*
X170234138Y-88420000D01*
X170213635Y-88198740D01*
X170213635Y-88198737D01*
X170152825Y-87985015D01*
X170053781Y-87786106D01*
X169919868Y-87608776D01*
X169755656Y-87459077D01*
X169566733Y-87342102D01*
X169566731Y-87342101D01*
X169369325Y-87265625D01*
X169320957Y-87231831D01*
X169293683Y-87179504D01*
X169293683Y-87120496D01*
X169320957Y-87068169D01*
X169369325Y-87034374D01*
X169566731Y-86957899D01*
X169595641Y-86939999D01*
X173514877Y-86939999D01*
X173533308Y-87103580D01*
X173587677Y-87258957D01*
X173675257Y-87398341D01*
X173791658Y-87514742D01*
X173931042Y-87602322D01*
X174086419Y-87656691D01*
X174250000Y-87675122D01*
X174413580Y-87656691D01*
X174568957Y-87602322D01*
X174708341Y-87514742D01*
X174824742Y-87398341D01*
X174912322Y-87258957D01*
X174966691Y-87103580D01*
X174985122Y-86940000D01*
X174975640Y-86855849D01*
X174966691Y-86776419D01*
X174912322Y-86621042D01*
X174824742Y-86481658D01*
X174708341Y-86365257D01*
X174568957Y-86277677D01*
X174413580Y-86223308D01*
X174250000Y-86204877D01*
X174086419Y-86223308D01*
X173931042Y-86277677D01*
X173791658Y-86365257D01*
X173675257Y-86481658D01*
X173587677Y-86621042D01*
X173533308Y-86776419D01*
X173514877Y-86939999D01*
X169595641Y-86939999D01*
X169755656Y-86840922D01*
X169794479Y-86805530D01*
X169919868Y-86691223D01*
X169967075Y-86628711D01*
X170053779Y-86513896D01*
X170053779Y-86513894D01*
X170053781Y-86513893D01*
X170152825Y-86314984D01*
X170213635Y-86101262D01*
X170223423Y-85995627D01*
X170234138Y-85880000D01*
X170223945Y-85770000D01*
X182054877Y-85770000D01*
X182073308Y-85933580D01*
X182127677Y-86088957D01*
X182215257Y-86228341D01*
X182331658Y-86344742D01*
X182471042Y-86432322D01*
X182626419Y-86486691D01*
X182790000Y-86505122D01*
X182953580Y-86486691D01*
X183034506Y-86458372D01*
X183103054Y-86454523D01*
X183163142Y-86487732D01*
X186494909Y-89819500D01*
X189825621Y-93150212D01*
X189854981Y-93196938D01*
X189897677Y-93318957D01*
X189985257Y-93458341D01*
X190101658Y-93574742D01*
X190241042Y-93662322D01*
X190396419Y-93716691D01*
X190560000Y-93735122D01*
X190723580Y-93716691D01*
X190878957Y-93662322D01*
X191018341Y-93574742D01*
X191134742Y-93458341D01*
X191202817Y-93350000D01*
X193514877Y-93350000D01*
X193533308Y-93513580D01*
X193587677Y-93668957D01*
X193675257Y-93808341D01*
X193791658Y-93924742D01*
X193931042Y-94012322D01*
X194086419Y-94066691D01*
X194250000Y-94085122D01*
X194413580Y-94066691D01*
X194568957Y-94012322D01*
X194708341Y-93924742D01*
X194824742Y-93808341D01*
X194912322Y-93668957D01*
X194966691Y-93513580D01*
X194985122Y-93350000D01*
X194966691Y-93186420D01*
X194956603Y-93157591D01*
X194912323Y-93031045D01*
X194907386Y-93023188D01*
X194834892Y-92907813D01*
X194816178Y-92850330D01*
X194826867Y-92790828D01*
X194864420Y-92743452D01*
X194919911Y-92719463D01*
X194980150Y-92724562D01*
X195140386Y-92779571D01*
X195385665Y-92820500D01*
X195634335Y-92820500D01*
X195879614Y-92779571D01*
X196114810Y-92698828D01*
X196333509Y-92580474D01*
X196529744Y-92427738D01*
X196698164Y-92244785D01*
X196834173Y-92036607D01*
X196934063Y-91808881D01*
X196995108Y-91567821D01*
X197015643Y-91320000D01*
X196995108Y-91072179D01*
X196934063Y-90831119D01*
X196834173Y-90603393D01*
X196698164Y-90395215D01*
X196529744Y-90212262D01*
X196448180Y-90148778D01*
X196346966Y-90069999D01*
X197794877Y-90069999D01*
X197813308Y-90233580D01*
X197867677Y-90388957D01*
X197955257Y-90528341D01*
X198071658Y-90644742D01*
X198211042Y-90732322D01*
X198366419Y-90786691D01*
X198530000Y-90805122D01*
X198693580Y-90786691D01*
X198848957Y-90732322D01*
X198988341Y-90644742D01*
X199104742Y-90528341D01*
X199192322Y-90388957D01*
X199246691Y-90233580D01*
X199265122Y-90070000D01*
X199246691Y-89906420D01*
X199240132Y-89887676D01*
X199192322Y-89751042D01*
X199104742Y-89611658D01*
X198988341Y-89495257D01*
X198848957Y-89407677D01*
X198693580Y-89353308D01*
X198530000Y-89334877D01*
X198366419Y-89353308D01*
X198211042Y-89407677D01*
X198071658Y-89495257D01*
X197955257Y-89611658D01*
X197867677Y-89751042D01*
X197813308Y-89906419D01*
X197794877Y-90069999D01*
X196346966Y-90069999D01*
X196333514Y-90059529D01*
X196333510Y-90059526D01*
X196333509Y-90059526D01*
X196114810Y-89941172D01*
X196114806Y-89941170D01*
X196114805Y-89941170D01*
X195879615Y-89860429D01*
X195634335Y-89819500D01*
X195385665Y-89819500D01*
X195140384Y-89860429D01*
X194905194Y-89941170D01*
X194686485Y-90059529D01*
X194490259Y-90212259D01*
X194490256Y-90212261D01*
X194490256Y-90212262D01*
X194321836Y-90395215D01*
X194303204Y-90423734D01*
X194185825Y-90603395D01*
X194120531Y-90752253D01*
X194085937Y-90831119D01*
X194053608Y-90958782D01*
X194024891Y-91072183D01*
X194004356Y-91320000D01*
X194024891Y-91567816D01*
X194024891Y-91567819D01*
X194024892Y-91567821D01*
X194085937Y-91808881D01*
X194116631Y-91878856D01*
X194185825Y-92036604D01*
X194185827Y-92036607D01*
X194321836Y-92244785D01*
X194485288Y-92422341D01*
X194513933Y-92474608D01*
X194514884Y-92534202D01*
X194487919Y-92587355D01*
X194439270Y-92621788D01*
X194380175Y-92629544D01*
X194250000Y-92614877D01*
X194086419Y-92633308D01*
X193931042Y-92687677D01*
X193791658Y-92775257D01*
X193675257Y-92891658D01*
X193587677Y-93031042D01*
X193533308Y-93186419D01*
X193514877Y-93350000D01*
X191202817Y-93350000D01*
X191222322Y-93318957D01*
X191276691Y-93163580D01*
X191295122Y-93000000D01*
X191279787Y-92863896D01*
X191276691Y-92836419D01*
X191222322Y-92681042D01*
X191134742Y-92541658D01*
X191018341Y-92425257D01*
X190878957Y-92337677D01*
X190756936Y-92294980D01*
X190710210Y-92265620D01*
X190292526Y-91847936D01*
X190261053Y-91794583D01*
X190259316Y-91732662D01*
X190287747Y-91677628D01*
X190339249Y-91643214D01*
X190398957Y-91622322D01*
X190538341Y-91534742D01*
X190654742Y-91418341D01*
X190742322Y-91278957D01*
X190796691Y-91123580D01*
X190815122Y-90960000D01*
X190805902Y-90878169D01*
X190796691Y-90796419D01*
X190742322Y-90641042D01*
X190654742Y-90501658D01*
X190538341Y-90385257D01*
X190398957Y-90297677D01*
X190243580Y-90243308D01*
X190080000Y-90224877D01*
X189916419Y-90243308D01*
X189761042Y-90297677D01*
X189621658Y-90385257D01*
X189505257Y-90501658D01*
X189417678Y-90641040D01*
X189396785Y-90700749D01*
X189362370Y-90752253D01*
X189307336Y-90780683D01*
X189245416Y-90778946D01*
X189192063Y-90747473D01*
X186579468Y-88134878D01*
X183830802Y-85386211D01*
X183817906Y-85370113D01*
X183766775Y-85322098D01*
X183763978Y-85319387D01*
X183744470Y-85299879D01*
X183741290Y-85297412D01*
X183732424Y-85289839D01*
X183700582Y-85259938D01*
X183683024Y-85250285D01*
X183666764Y-85239604D01*
X183650936Y-85227327D01*
X183610851Y-85209980D01*
X183600361Y-85204841D01*
X183562091Y-85183802D01*
X183542691Y-85178821D01*
X183524284Y-85172519D01*
X183505897Y-85164562D01*
X183462758Y-85157729D01*
X183451324Y-85155361D01*
X183409019Y-85144500D01*
X183388984Y-85144500D01*
X183369586Y-85142973D01*
X183362162Y-85141797D01*
X183349805Y-85139840D01*
X183349804Y-85139840D01*
X183316751Y-85142964D01*
X183306325Y-85143950D01*
X183294656Y-85144500D01*
X183203283Y-85144500D01*
X183137312Y-85125494D01*
X183108957Y-85107677D01*
X182953580Y-85053308D01*
X182790000Y-85034877D01*
X182626419Y-85053308D01*
X182471042Y-85107677D01*
X182331658Y-85195257D01*
X182215257Y-85311658D01*
X182127677Y-85451042D01*
X182073308Y-85606419D01*
X182054877Y-85770000D01*
X170223945Y-85770000D01*
X170216337Y-85687897D01*
X170213635Y-85658737D01*
X170152825Y-85445015D01*
X170053781Y-85246106D01*
X169919868Y-85068776D01*
X169755656Y-84919077D01*
X169566733Y-84802102D01*
X169566731Y-84802101D01*
X169369325Y-84725625D01*
X169320957Y-84691831D01*
X169293683Y-84639504D01*
X169293683Y-84580496D01*
X169320957Y-84528169D01*
X169369325Y-84494374D01*
X169566731Y-84417899D01*
X169755656Y-84300922D01*
X169843157Y-84221154D01*
X169919868Y-84151223D01*
X169919869Y-84151222D01*
X170011412Y-84029999D01*
X183874877Y-84029999D01*
X183893308Y-84193580D01*
X183947677Y-84348957D01*
X184035257Y-84488341D01*
X184151658Y-84604742D01*
X184291042Y-84692322D01*
X184446419Y-84746691D01*
X184610000Y-84765122D01*
X184773580Y-84746691D01*
X184905826Y-84700416D01*
X185707632Y-84700416D01*
X185717731Y-84777119D01*
X185727017Y-84847650D01*
X185783847Y-84984849D01*
X185809903Y-85018806D01*
X185836377Y-85053309D01*
X185874249Y-85102665D01*
X185897383Y-85120416D01*
X185909579Y-85131112D01*
X186920174Y-86141707D01*
X186944213Y-86175586D01*
X186955713Y-86215504D01*
X186961350Y-86265539D01*
X187015719Y-86420915D01*
X187103299Y-86560299D01*
X187219700Y-86676700D01*
X187359084Y-86764280D01*
X187514461Y-86818649D01*
X187678042Y-86837080D01*
X187841622Y-86818649D01*
X187996999Y-86764280D01*
X188136383Y-86676700D01*
X188252784Y-86560299D01*
X188340364Y-86420915D01*
X188394733Y-86265538D01*
X188413164Y-86101958D01*
X188396155Y-85951000D01*
X188394733Y-85938377D01*
X188340364Y-85783000D01*
X188252784Y-85643616D01*
X188189168Y-85580000D01*
X189214877Y-85580000D01*
X189233308Y-85743580D01*
X189287677Y-85898957D01*
X189375257Y-86038341D01*
X189491658Y-86154742D01*
X189631042Y-86242322D01*
X189786419Y-86296691D01*
X189950000Y-86315122D01*
X190113580Y-86296691D01*
X190268957Y-86242322D01*
X190408341Y-86154742D01*
X190524742Y-86038341D01*
X190612322Y-85898957D01*
X190666691Y-85743580D01*
X190685122Y-85580000D01*
X190678623Y-85522322D01*
X190666691Y-85416419D01*
X190612322Y-85261042D01*
X190524742Y-85121658D01*
X190408341Y-85005257D01*
X190268957Y-84917677D01*
X190113580Y-84863308D01*
X190084212Y-84859999D01*
X194584877Y-84859999D01*
X194603308Y-85023580D01*
X194657677Y-85178957D01*
X194745257Y-85318341D01*
X194861658Y-85434742D01*
X195001042Y-85522322D01*
X195156419Y-85576691D01*
X195320000Y-85595122D01*
X195483580Y-85576691D01*
X195638957Y-85522322D01*
X195778341Y-85434742D01*
X195894742Y-85318341D01*
X195982322Y-85178957D01*
X196036691Y-85023580D01*
X196055122Y-84860000D01*
X196053730Y-84847650D01*
X196036691Y-84696419D01*
X195982322Y-84541042D01*
X195894742Y-84401658D01*
X195778341Y-84285257D01*
X195638957Y-84197677D01*
X195483580Y-84143308D01*
X195320000Y-84124877D01*
X195156419Y-84143308D01*
X195001042Y-84197677D01*
X194861658Y-84285257D01*
X194745257Y-84401658D01*
X194657677Y-84541042D01*
X194603308Y-84696419D01*
X194584877Y-84859999D01*
X190084212Y-84859999D01*
X189950000Y-84844877D01*
X189786419Y-84863308D01*
X189631042Y-84917677D01*
X189491658Y-85005257D01*
X189375257Y-85121658D01*
X189287677Y-85261042D01*
X189233308Y-85416419D01*
X189214877Y-85580000D01*
X188189168Y-85580000D01*
X188136383Y-85527215D01*
X187996999Y-85439635D01*
X187841623Y-85385266D01*
X187791588Y-85379629D01*
X187751670Y-85368129D01*
X187717791Y-85344090D01*
X187166398Y-84792697D01*
X187137037Y-84745970D01*
X187130859Y-84691132D01*
X187149086Y-84639043D01*
X187188105Y-84600023D01*
X187228341Y-84574742D01*
X187344742Y-84458341D01*
X187432322Y-84318957D01*
X187486691Y-84163580D01*
X187492328Y-84113546D01*
X187503827Y-84073628D01*
X187527864Y-84039751D01*
X187734587Y-83833028D01*
X187790171Y-83800936D01*
X187854358Y-83800936D01*
X187909946Y-83833030D01*
X188031658Y-83954742D01*
X188171042Y-84042322D01*
X188326419Y-84096691D01*
X188490000Y-84115122D01*
X188653580Y-84096691D01*
X188808957Y-84042322D01*
X188948341Y-83954742D01*
X189064742Y-83838341D01*
X189152322Y-83698957D01*
X189206691Y-83543580D01*
X189225122Y-83380000D01*
X189206691Y-83216420D01*
X189196578Y-83187520D01*
X189152322Y-83061042D01*
X189064742Y-82921658D01*
X188943030Y-82799946D01*
X188910936Y-82744358D01*
X188910936Y-82680171D01*
X188943028Y-82624586D01*
X189357296Y-82210319D01*
X189397525Y-82183439D01*
X189444978Y-82174000D01*
X197523952Y-82174000D01*
X197581894Y-82188370D01*
X197626406Y-82228149D01*
X197647172Y-82284117D01*
X197655066Y-82354189D01*
X197709435Y-82509566D01*
X197797015Y-82648950D01*
X197913416Y-82765351D01*
X197918421Y-82768496D01*
X197957442Y-82807517D01*
X197975668Y-82859606D01*
X197969490Y-82914442D01*
X197940688Y-82996755D01*
X197923308Y-83046423D01*
X197904877Y-83210000D01*
X197923308Y-83373580D01*
X197977677Y-83528957D01*
X198055134Y-83652230D01*
X198071284Y-83691739D01*
X198073079Y-83734384D01*
X198071132Y-83749170D01*
X198084723Y-83852395D01*
X198090517Y-83896407D01*
X198147347Y-84033606D01*
X198209895Y-84115122D01*
X198237596Y-84151223D01*
X198237750Y-84151423D01*
X198246040Y-84157784D01*
X198260884Y-84169174D01*
X198273079Y-84179869D01*
X199159258Y-85066048D01*
X199169953Y-85078243D01*
X199187706Y-85101379D01*
X199217287Y-85124077D01*
X199217288Y-85124078D01*
X199305523Y-85191783D01*
X199305524Y-85191783D01*
X199305525Y-85191784D01*
X199349455Y-85209980D01*
X199442722Y-85248612D01*
X199589956Y-85267997D01*
X199618872Y-85264189D01*
X199635058Y-85263129D01*
X200465777Y-85263129D01*
X200481960Y-85264189D01*
X200510871Y-85267996D01*
X200658105Y-85248612D01*
X200795304Y-85191782D01*
X200883539Y-85124078D01*
X200883539Y-85124077D01*
X200883541Y-85124076D01*
X200888310Y-85120416D01*
X200913121Y-85101379D01*
X200914907Y-85099052D01*
X200958439Y-85063324D01*
X201013284Y-85050536D01*
X201680858Y-85050536D01*
X201747483Y-85069955D01*
X201793240Y-85122131D01*
X201803797Y-85190721D01*
X201787632Y-85313499D01*
X201791439Y-85342408D01*
X201792500Y-85358594D01*
X201792500Y-90231406D01*
X201791439Y-90247592D01*
X201787632Y-90276500D01*
X201797146Y-90348760D01*
X201807017Y-90423734D01*
X201863847Y-90560933D01*
X201904758Y-90614250D01*
X201924186Y-90639570D01*
X201924191Y-90639578D01*
X201954248Y-90678748D01*
X201954250Y-90678750D01*
X201977384Y-90696501D01*
X201989579Y-90707196D01*
X202051968Y-90769585D01*
X202084062Y-90825172D01*
X202084062Y-90889359D01*
X202051969Y-90944947D01*
X201945255Y-91051660D01*
X201857677Y-91191042D01*
X201803308Y-91346419D01*
X201784877Y-91510000D01*
X201803308Y-91673580D01*
X201857677Y-91828957D01*
X201945257Y-91968341D01*
X202061658Y-92084742D01*
X202201042Y-92172322D01*
X202356419Y-92226691D01*
X202520000Y-92245122D01*
X202683580Y-92226691D01*
X202838957Y-92172322D01*
X202960411Y-92096008D01*
X202978338Y-92084744D01*
X202978338Y-92084743D01*
X202978341Y-92084742D01*
X203085053Y-91978029D01*
X203140639Y-91945937D01*
X203204826Y-91945937D01*
X203260414Y-91978031D01*
X204409681Y-93127298D01*
X204436561Y-93167526D01*
X204446000Y-93214979D01*
X204446000Y-95231276D01*
X204431630Y-95289219D01*
X204391849Y-95333731D01*
X204358678Y-95346037D01*
X204359608Y-95348694D01*
X204191042Y-95407677D01*
X204051658Y-95495257D01*
X203935257Y-95611658D01*
X203847677Y-95751042D01*
X203793308Y-95906419D01*
X203774877Y-96069999D01*
X203793308Y-96233580D01*
X203847677Y-96388957D01*
X203935257Y-96528341D01*
X204051658Y-96644742D01*
X204191042Y-96732322D01*
X204359608Y-96791306D01*
X204358678Y-96793962D01*
X204391849Y-96806269D01*
X204431630Y-96850781D01*
X204446000Y-96908724D01*
X204446000Y-99772931D01*
X204435654Y-99822518D01*
X204406342Y-99863829D01*
X204362955Y-99889972D01*
X204198042Y-99947677D01*
X204058658Y-100035257D01*
X203942257Y-100151658D01*
X203854677Y-100291042D01*
X203800308Y-100446419D01*
X203781877Y-100610000D01*
X203800308Y-100773580D01*
X203854677Y-100928957D01*
X203942257Y-101068341D01*
X204058658Y-101184742D01*
X204198042Y-101272322D01*
X204362955Y-101330028D01*
X204406342Y-101356171D01*
X204435654Y-101397482D01*
X204446000Y-101447069D01*
X204446000Y-102987755D01*
X204431630Y-103045696D01*
X204391852Y-103090209D01*
X204335884Y-103110975D01*
X204226419Y-103123308D01*
X204071042Y-103177677D01*
X203931658Y-103265257D01*
X203815257Y-103381658D01*
X203727677Y-103521042D01*
X203673308Y-103676419D01*
X203654877Y-103839999D01*
X203673308Y-104003580D01*
X203727677Y-104158957D01*
X203815257Y-104298341D01*
X203931658Y-104414742D01*
X204071042Y-104502322D01*
X204226419Y-104556691D01*
X204335884Y-104569025D01*
X204391852Y-104589791D01*
X204431630Y-104634304D01*
X204446000Y-104692245D01*
X204446000Y-106354906D01*
X204444939Y-106371092D01*
X204441133Y-106400000D01*
X204446000Y-106436967D01*
X204460517Y-106547234D01*
X204517347Y-106684433D01*
X204607749Y-106802249D01*
X204630883Y-106820000D01*
X204643079Y-106830696D01*
X210280061Y-112467678D01*
X215912132Y-118099748D01*
X215936171Y-118133627D01*
X215947671Y-118173545D01*
X215953308Y-118223581D01*
X216007677Y-118378957D01*
X216095257Y-118518341D01*
X216211658Y-118634742D01*
X216351040Y-118722321D01*
X216351043Y-118722322D01*
X216382153Y-118733208D01*
X216438145Y-118772935D01*
X216464419Y-118836365D01*
X216452919Y-118904050D01*
X216407171Y-118955243D01*
X216311657Y-119015258D01*
X216195257Y-119131658D01*
X216107677Y-119271042D01*
X216053308Y-119426419D01*
X216034877Y-119590000D01*
X216053308Y-119753580D01*
X216107677Y-119908957D01*
X216195257Y-120048341D01*
X216311658Y-120164742D01*
X216451042Y-120252322D01*
X216606419Y-120306691D01*
X216770000Y-120325122D01*
X216933580Y-120306691D01*
X217088957Y-120252322D01*
X217228341Y-120164742D01*
X217344742Y-120048341D01*
X217432322Y-119908957D01*
X217486691Y-119753580D01*
X217505122Y-119590000D01*
X217486691Y-119426420D01*
X217432322Y-119271043D01*
X217427771Y-119263801D01*
X217409112Y-119207097D01*
X217419111Y-119148243D01*
X217455452Y-119100882D01*
X217509712Y-119075991D01*
X217569314Y-119079338D01*
X217620446Y-119110148D01*
X218559681Y-120049382D01*
X218586561Y-120089610D01*
X218596000Y-120137063D01*
X218596000Y-120688839D01*
X218576994Y-120754810D01*
X218497677Y-120881042D01*
X218443308Y-121036419D01*
X218424877Y-121199999D01*
X218443308Y-121363580D01*
X218497677Y-121518957D01*
X218585257Y-121658341D01*
X218689415Y-121762499D01*
X218718775Y-121809225D01*
X218724954Y-121864062D01*
X218706729Y-121916151D01*
X218667708Y-121955173D01*
X218651657Y-121965258D01*
X218535257Y-122081658D01*
X218447677Y-122221042D01*
X218393308Y-122376419D01*
X218374877Y-122540000D01*
X218393308Y-122703580D01*
X218447677Y-122858957D01*
X218535257Y-122998341D01*
X218651658Y-123114742D01*
X218791042Y-123202322D01*
X218946419Y-123256691D01*
X219110000Y-123275122D01*
X219273580Y-123256691D01*
X219428957Y-123202322D01*
X219568341Y-123114742D01*
X219684742Y-122998341D01*
X219772322Y-122858957D01*
X219826691Y-122703580D01*
X219832328Y-122653539D01*
X219843828Y-122613627D01*
X219867861Y-122579753D01*
X220020432Y-122427183D01*
X220032600Y-122416512D01*
X220055750Y-122398750D01*
X220146153Y-122280933D01*
X220202983Y-122143734D01*
X220217500Y-122033468D01*
X220222367Y-121996500D01*
X220218560Y-121967589D01*
X220217500Y-121951406D01*
X220217500Y-120062345D01*
X220231333Y-120005431D01*
X220269745Y-119961216D01*
X220324166Y-119939563D01*
X220382453Y-119945302D01*
X220386420Y-119946691D01*
X220495473Y-119958978D01*
X220549999Y-119965122D01*
X220549999Y-119965121D01*
X220550000Y-119965122D01*
X220713580Y-119946691D01*
X220868957Y-119892322D01*
X221008341Y-119804742D01*
X221124742Y-119688341D01*
X221212322Y-119548957D01*
X221266691Y-119393580D01*
X221285122Y-119230000D01*
X221270574Y-119100882D01*
X221266691Y-119066419D01*
X221212322Y-118911042D01*
X221169506Y-118842900D01*
X221150500Y-118776929D01*
X221150500Y-101059999D01*
X223814877Y-101059999D01*
X223833308Y-101223580D01*
X223887677Y-101378957D01*
X223975257Y-101518341D01*
X224091658Y-101634742D01*
X224231042Y-101722322D01*
X224386419Y-101776691D01*
X224550000Y-101795122D01*
X224713580Y-101776691D01*
X224868957Y-101722322D01*
X225008341Y-101634742D01*
X225124742Y-101518341D01*
X225212322Y-101378957D01*
X225266691Y-101223580D01*
X225285122Y-101060000D01*
X225266691Y-100896420D01*
X225254527Y-100861658D01*
X225212322Y-100741042D01*
X225124742Y-100601658D01*
X225008341Y-100485257D01*
X224868957Y-100397677D01*
X224713580Y-100343308D01*
X224550000Y-100324877D01*
X224386419Y-100343308D01*
X224231042Y-100397677D01*
X224091658Y-100485257D01*
X223975257Y-100601658D01*
X223887677Y-100741042D01*
X223833308Y-100896419D01*
X223814877Y-101059999D01*
X221150500Y-101059999D01*
X221150500Y-95999999D01*
X221754540Y-95999999D01*
X221774326Y-96188257D01*
X221832820Y-96368284D01*
X221927466Y-96532216D01*
X222054129Y-96672889D01*
X222207269Y-96784151D01*
X222380197Y-96861144D01*
X222565352Y-96900500D01*
X222565354Y-96900500D01*
X222754646Y-96900500D01*
X222754648Y-96900500D01*
X222882566Y-96873310D01*
X222939803Y-96861144D01*
X223112730Y-96784151D01*
X223221505Y-96705122D01*
X223265870Y-96672889D01*
X223271915Y-96666176D01*
X223392533Y-96532216D01*
X223487179Y-96368284D01*
X223545674Y-96188256D01*
X223565460Y-96000000D01*
X223545674Y-95811744D01*
X223493459Y-95651043D01*
X223487179Y-95631715D01*
X223392533Y-95467783D01*
X223265870Y-95327110D01*
X223112730Y-95215848D01*
X222939802Y-95138855D01*
X222754648Y-95099500D01*
X222754646Y-95099500D01*
X222565354Y-95099500D01*
X222565352Y-95099500D01*
X222380197Y-95138855D01*
X222207269Y-95215848D01*
X222054129Y-95327110D01*
X221927466Y-95467783D01*
X221832820Y-95631715D01*
X221774326Y-95811742D01*
X221754540Y-95999999D01*
X221150500Y-95999999D01*
X221150500Y-95559146D01*
X221151561Y-95542960D01*
X221151944Y-95540055D01*
X221155367Y-95514052D01*
X221135983Y-95366818D01*
X221079153Y-95229619D01*
X221058570Y-95202795D01*
X220988750Y-95111802D01*
X220965604Y-95094041D01*
X220953412Y-95083348D01*
X218610064Y-92740000D01*
X220904540Y-92740000D01*
X220924326Y-92928257D01*
X220982820Y-93108284D01*
X221077466Y-93272216D01*
X221204129Y-93412889D01*
X221357269Y-93524151D01*
X221530197Y-93601144D01*
X221715352Y-93640500D01*
X221715354Y-93640500D01*
X221904646Y-93640500D01*
X221904648Y-93640500D01*
X222028084Y-93614262D01*
X222089803Y-93601144D01*
X222262730Y-93524151D01*
X222415871Y-93412888D01*
X222542533Y-93272216D01*
X222637179Y-93108284D01*
X222695674Y-92928256D01*
X222715460Y-92740000D01*
X222695674Y-92551744D01*
X222658202Y-92436419D01*
X222637179Y-92371715D01*
X222542533Y-92207783D01*
X222415870Y-92067110D01*
X222262730Y-91955848D01*
X222089802Y-91878855D01*
X221904648Y-91839500D01*
X221904646Y-91839500D01*
X221715354Y-91839500D01*
X221715352Y-91839500D01*
X221530197Y-91878855D01*
X221357269Y-91955848D01*
X221204129Y-92067110D01*
X221077466Y-92207783D01*
X220982820Y-92371715D01*
X220924326Y-92551742D01*
X220904540Y-92740000D01*
X218610064Y-92740000D01*
X211920065Y-86050000D01*
X214364540Y-86050000D01*
X214369928Y-86101260D01*
X214384326Y-86238257D01*
X214442820Y-86418284D01*
X214537466Y-86582216D01*
X214664129Y-86722889D01*
X214817269Y-86834151D01*
X214990197Y-86911144D01*
X215175352Y-86950500D01*
X215175354Y-86950500D01*
X215364646Y-86950500D01*
X215364648Y-86950500D01*
X215488083Y-86924262D01*
X215549803Y-86911144D01*
X215722730Y-86834151D01*
X215744067Y-86818649D01*
X215875870Y-86722889D01*
X216002533Y-86582216D01*
X216097179Y-86418284D01*
X216114408Y-86365258D01*
X216155674Y-86238256D01*
X216175460Y-86050000D01*
X216155674Y-85861744D01*
X216101947Y-85696390D01*
X216097179Y-85681715D01*
X216002533Y-85517783D01*
X215875870Y-85377110D01*
X215722730Y-85265848D01*
X215549802Y-85188855D01*
X215364648Y-85149500D01*
X215364646Y-85149500D01*
X215175354Y-85149500D01*
X215175352Y-85149500D01*
X214990197Y-85188855D01*
X214817269Y-85265848D01*
X214664129Y-85377110D01*
X214537466Y-85517783D01*
X214442820Y-85681715D01*
X214384326Y-85861742D01*
X214376106Y-85939952D01*
X214364540Y-86050000D01*
X211920065Y-86050000D01*
X210648892Y-84778827D01*
X209116144Y-83246079D01*
X209105448Y-83233883D01*
X209105423Y-83233851D01*
X209087698Y-83210750D01*
X209057422Y-83187519D01*
X208969881Y-83120347D01*
X208872475Y-83080000D01*
X217304540Y-83080000D01*
X217324326Y-83268257D01*
X217382820Y-83448284D01*
X217477466Y-83612216D01*
X217604129Y-83752889D01*
X217757269Y-83864151D01*
X217930197Y-83941144D01*
X218115352Y-83980500D01*
X218115354Y-83980500D01*
X218304646Y-83980500D01*
X218304648Y-83980500D01*
X218463706Y-83946691D01*
X218489803Y-83941144D01*
X218662730Y-83864151D01*
X218692114Y-83842801D01*
X218739219Y-83821829D01*
X218790781Y-83821829D01*
X218837885Y-83842801D01*
X218867270Y-83864151D01*
X219009786Y-83927604D01*
X219040197Y-83941144D01*
X219225352Y-83980500D01*
X219225354Y-83980500D01*
X219414646Y-83980500D01*
X219414648Y-83980500D01*
X219551420Y-83951428D01*
X219613040Y-83954010D01*
X219665794Y-83985958D01*
X219696632Y-84039369D01*
X219697926Y-84101030D01*
X219669354Y-84155686D01*
X219667468Y-84157779D01*
X219572820Y-84321715D01*
X219514326Y-84501742D01*
X219494540Y-84690000D01*
X219514326Y-84878257D01*
X219572820Y-85058284D01*
X219667466Y-85222216D01*
X219794129Y-85362889D01*
X219947269Y-85474151D01*
X220120197Y-85551144D01*
X220305352Y-85590500D01*
X220305354Y-85590500D01*
X220494646Y-85590500D01*
X220494648Y-85590500D01*
X220618083Y-85564262D01*
X220679803Y-85551144D01*
X220852730Y-85474151D01*
X220892831Y-85445016D01*
X221005870Y-85362889D01*
X221042952Y-85321706D01*
X221132533Y-85222216D01*
X221227179Y-85058284D01*
X221285674Y-84878256D01*
X221305460Y-84690000D01*
X221285674Y-84501744D01*
X221232081Y-84336803D01*
X221227179Y-84321715D01*
X221132535Y-84157786D01*
X221056758Y-84073628D01*
X221018960Y-84031649D01*
X220988996Y-83970211D01*
X220996141Y-83902228D01*
X221038227Y-83848361D01*
X221074745Y-83821829D01*
X221155871Y-83762888D01*
X221282533Y-83622216D01*
X221377179Y-83458284D01*
X221435674Y-83278256D01*
X221455460Y-83090000D01*
X221435674Y-82901744D01*
X221391357Y-82765351D01*
X221377179Y-82721715D01*
X221282533Y-82557783D01*
X221155870Y-82417110D01*
X221002730Y-82305848D01*
X220829802Y-82228855D01*
X220644648Y-82189500D01*
X220644646Y-82189500D01*
X220596953Y-82189500D01*
X220531243Y-82170658D01*
X220485503Y-82119858D01*
X220473632Y-82052539D01*
X220473892Y-82050059D01*
X220485460Y-81940000D01*
X220474682Y-81837461D01*
X220486554Y-81770142D01*
X220532294Y-81719342D01*
X220598004Y-81700500D01*
X220644648Y-81700500D01*
X220768083Y-81674262D01*
X220829803Y-81661144D01*
X221002730Y-81584151D01*
X221022295Y-81569936D01*
X221155870Y-81472889D01*
X221167574Y-81459891D01*
X221282533Y-81332216D01*
X221377179Y-81168284D01*
X221435674Y-80988256D01*
X221455460Y-80800000D01*
X221435674Y-80611744D01*
X221381535Y-80445122D01*
X221377179Y-80431715D01*
X221282533Y-80267783D01*
X221155870Y-80127110D01*
X221002730Y-80015848D01*
X220829802Y-79938855D01*
X220644648Y-79899500D01*
X220644646Y-79899500D01*
X220455354Y-79899500D01*
X220455352Y-79899500D01*
X220270197Y-79938855D01*
X220097269Y-80015848D01*
X219944129Y-80127110D01*
X219817466Y-80267783D01*
X219722820Y-80431715D01*
X219664326Y-80611742D01*
X219644540Y-80800000D01*
X219655317Y-80902539D01*
X219643446Y-80969858D01*
X219597706Y-81020658D01*
X219531996Y-81039500D01*
X219485352Y-81039500D01*
X219300197Y-81078855D01*
X219127269Y-81155848D01*
X218974129Y-81267110D01*
X218847466Y-81407783D01*
X218752820Y-81571715D01*
X218694326Y-81751742D01*
X218678500Y-81902322D01*
X218674540Y-81940000D01*
X218688937Y-82076986D01*
X218691907Y-82105236D01*
X218681866Y-82168632D01*
X218641472Y-82218515D01*
X218581548Y-82241518D01*
X218518151Y-82231477D01*
X218489801Y-82218854D01*
X218304648Y-82179500D01*
X218304646Y-82179500D01*
X218115354Y-82179500D01*
X218115352Y-82179500D01*
X217930197Y-82218855D01*
X217757269Y-82295848D01*
X217604129Y-82407110D01*
X217477466Y-82547783D01*
X217382820Y-82711715D01*
X217324326Y-82891742D01*
X217304540Y-83080000D01*
X208872475Y-83080000D01*
X208832682Y-83063517D01*
X208813883Y-83061042D01*
X208685448Y-83044132D01*
X208659967Y-83047487D01*
X208656537Y-83047939D01*
X208640354Y-83049000D01*
X207478080Y-83049000D01*
X207421166Y-83035167D01*
X207376950Y-82996755D01*
X207355297Y-82942334D01*
X207361039Y-82884045D01*
X207406691Y-82753580D01*
X207425122Y-82590000D01*
X207406691Y-82426420D01*
X207403433Y-82417110D01*
X207352322Y-82271042D01*
X207264742Y-82131658D01*
X207148341Y-82015257D01*
X207008957Y-81927677D01*
X206853580Y-81873308D01*
X206690000Y-81854877D01*
X206526419Y-81873308D01*
X206371045Y-81927676D01*
X206273770Y-81988798D01*
X206231659Y-82015258D01*
X206231658Y-82015258D01*
X206219830Y-82022691D01*
X206217938Y-82019680D01*
X206184334Y-82039070D01*
X206120160Y-82039059D01*
X206064587Y-82006970D01*
X205951431Y-81893814D01*
X205940743Y-81881626D01*
X205934361Y-81873309D01*
X205922993Y-81858493D01*
X205918280Y-81854877D01*
X205805176Y-81768090D01*
X205667977Y-81711260D01*
X205603877Y-81702821D01*
X205557711Y-81696743D01*
X205520743Y-81691876D01*
X205491832Y-81695682D01*
X205475649Y-81696743D01*
X202936866Y-81696743D01*
X202920680Y-81695682D01*
X202891773Y-81691876D01*
X202884185Y-81692874D01*
X202815596Y-81682318D01*
X202763420Y-81636561D01*
X202744000Y-81569936D01*
X202744000Y-80114194D01*
X208439071Y-80114194D01*
X208457502Y-80277774D01*
X208511871Y-80433151D01*
X208599451Y-80572535D01*
X208715852Y-80688936D01*
X208855236Y-80776516D01*
X209010613Y-80830885D01*
X209174194Y-80849316D01*
X209337774Y-80830885D01*
X209491659Y-80777037D01*
X209546497Y-80770859D01*
X209598585Y-80789085D01*
X209731016Y-80872296D01*
X209886393Y-80926665D01*
X210049974Y-80945096D01*
X210213554Y-80926665D01*
X210368931Y-80872296D01*
X210508315Y-80784716D01*
X210624716Y-80668315D01*
X210712296Y-80528931D01*
X210766665Y-80373554D01*
X210785096Y-80209974D01*
X210775760Y-80127112D01*
X210766665Y-80046393D01*
X210712296Y-79891016D01*
X210624716Y-79751632D01*
X210508315Y-79635231D01*
X210368931Y-79547651D01*
X210213554Y-79493282D01*
X210049974Y-79474851D01*
X209886396Y-79493282D01*
X209732507Y-79547130D01*
X209677670Y-79553308D01*
X209625582Y-79535082D01*
X209493151Y-79451871D01*
X209337774Y-79397502D01*
X209174194Y-79379071D01*
X209010613Y-79397502D01*
X208855236Y-79451871D01*
X208715852Y-79539451D01*
X208599451Y-79655852D01*
X208511871Y-79795236D01*
X208457502Y-79950613D01*
X208439071Y-80114194D01*
X202744000Y-80114194D01*
X202744000Y-79164979D01*
X202753439Y-79117526D01*
X202780319Y-79077298D01*
X202950284Y-78907333D01*
X203159519Y-78698096D01*
X203212872Y-78666624D01*
X203274792Y-78664887D01*
X203329827Y-78693318D01*
X203364241Y-78744823D01*
X203407677Y-78868957D01*
X203495257Y-79008341D01*
X203611658Y-79124742D01*
X203751042Y-79212322D01*
X203906419Y-79266691D01*
X204069999Y-79285122D01*
X204069999Y-79285121D01*
X204070000Y-79285122D01*
X204164270Y-79274500D01*
X204231955Y-79286000D01*
X204283148Y-79331748D01*
X204375259Y-79478343D01*
X204491658Y-79594742D01*
X204631042Y-79682322D01*
X204786419Y-79736691D01*
X204950000Y-79755122D01*
X205113580Y-79736691D01*
X205268957Y-79682322D01*
X205408341Y-79594742D01*
X205524742Y-79478341D01*
X205612322Y-79338957D01*
X205666691Y-79183580D01*
X205685122Y-79020000D01*
X205666691Y-78856420D01*
X205650839Y-78811119D01*
X205612322Y-78701042D01*
X205533006Y-78574810D01*
X205514000Y-78508839D01*
X205514000Y-78383624D01*
X205527833Y-78326710D01*
X205566245Y-78282494D01*
X205620667Y-78260841D01*
X205678955Y-78266583D01*
X205736420Y-78286691D01*
X205900000Y-78305122D01*
X206063580Y-78286691D01*
X206218957Y-78232322D01*
X206358341Y-78144742D01*
X206474742Y-78028341D01*
X206562322Y-77888957D01*
X206579453Y-77840000D01*
X212484540Y-77840000D01*
X212493071Y-77921170D01*
X212504326Y-78028257D01*
X212562820Y-78208284D01*
X212657466Y-78372216D01*
X212784129Y-78512889D01*
X212937269Y-78624151D01*
X213110197Y-78701144D01*
X213295352Y-78740500D01*
X213295354Y-78740500D01*
X213484646Y-78740500D01*
X213484648Y-78740500D01*
X213611296Y-78713580D01*
X213669803Y-78701144D01*
X213842730Y-78624151D01*
X213898829Y-78583393D01*
X213995870Y-78512889D01*
X214122533Y-78372216D01*
X214217179Y-78208284D01*
X214240467Y-78136610D01*
X214275674Y-78028256D01*
X214295460Y-77840000D01*
X214275674Y-77651744D01*
X214217179Y-77471716D01*
X214217179Y-77471715D01*
X214122533Y-77307783D01*
X213995870Y-77167110D01*
X213842730Y-77055848D01*
X213669802Y-76978855D01*
X213611181Y-76966395D01*
X215361273Y-76966395D01*
X215379704Y-77129976D01*
X215434073Y-77285353D01*
X215521653Y-77424737D01*
X215638054Y-77541138D01*
X215777438Y-77628718D01*
X215932815Y-77683087D01*
X216096396Y-77701518D01*
X216259976Y-77683087D01*
X216415353Y-77628718D01*
X216554737Y-77541138D01*
X216671138Y-77424737D01*
X216758718Y-77285353D01*
X216813087Y-77129976D01*
X216823462Y-77037894D01*
X216845552Y-76980023D01*
X216892880Y-76940058D01*
X216953634Y-76927973D01*
X217012653Y-76946784D01*
X217101042Y-77002322D01*
X217256419Y-77056691D01*
X217419999Y-77075122D01*
X217419999Y-77075121D01*
X217420000Y-77075122D01*
X217583580Y-77056691D01*
X217738957Y-77002322D01*
X217878341Y-76914742D01*
X217994742Y-76798341D01*
X218082322Y-76658957D01*
X218136691Y-76503580D01*
X218155122Y-76340000D01*
X218153587Y-76326373D01*
X218150969Y-76303136D01*
X218157148Y-76248296D01*
X218186510Y-76201569D01*
X218233238Y-76172209D01*
X218266318Y-76168482D01*
X218266116Y-76166687D01*
X218443580Y-76146691D01*
X218598957Y-76092322D01*
X218738341Y-76004742D01*
X218854742Y-75888341D01*
X218942322Y-75748957D01*
X218996691Y-75593580D01*
X219015123Y-75429999D01*
X218996691Y-75266419D01*
X218942322Y-75111042D01*
X218854742Y-74971658D01*
X218738341Y-74855257D01*
X218598957Y-74767677D01*
X218443580Y-74713308D01*
X218280000Y-74694877D01*
X218116419Y-74713308D01*
X217961042Y-74767677D01*
X217821658Y-74855257D01*
X217705257Y-74971658D01*
X217617677Y-75111042D01*
X217563308Y-75266419D01*
X217544877Y-75429999D01*
X217549031Y-75466863D01*
X217542854Y-75521698D01*
X217513498Y-75568423D01*
X217466777Y-75597785D01*
X217433681Y-75601517D01*
X217433884Y-75603313D01*
X217256419Y-75623308D01*
X217101042Y-75677677D01*
X216961658Y-75765257D01*
X216845257Y-75881658D01*
X216757677Y-76021042D01*
X216703308Y-76176420D01*
X216692933Y-76268501D01*
X216670842Y-76326373D01*
X216623515Y-76366337D01*
X216562761Y-76378422D01*
X216503742Y-76359611D01*
X216415353Y-76304073D01*
X216259976Y-76249704D01*
X216096396Y-76231273D01*
X215932815Y-76249704D01*
X215777438Y-76304073D01*
X215638054Y-76391653D01*
X215521653Y-76508054D01*
X215434073Y-76647438D01*
X215379704Y-76802815D01*
X215361273Y-76966395D01*
X213611181Y-76966395D01*
X213484648Y-76939500D01*
X213484646Y-76939500D01*
X213295354Y-76939500D01*
X213295352Y-76939500D01*
X213110197Y-76978855D01*
X212937269Y-77055848D01*
X212784129Y-77167110D01*
X212657466Y-77307783D01*
X212562820Y-77471715D01*
X212504326Y-77651742D01*
X212485243Y-77833309D01*
X212484540Y-77840000D01*
X206579453Y-77840000D01*
X206616691Y-77733580D01*
X206616691Y-77733579D01*
X206635122Y-77570000D01*
X206630365Y-77527784D01*
X206616691Y-77406419D01*
X206562322Y-77251042D01*
X206474742Y-77111658D01*
X206358341Y-76995257D01*
X206218957Y-76907677D01*
X206063580Y-76853308D01*
X205900000Y-76834877D01*
X205736420Y-76853308D01*
X205678955Y-76873417D01*
X205620667Y-76879159D01*
X205566245Y-76857506D01*
X205527833Y-76813290D01*
X205514000Y-76756376D01*
X205514000Y-76339999D01*
X207384540Y-76339999D01*
X207404326Y-76528257D01*
X207462820Y-76708284D01*
X207557466Y-76872216D01*
X207684129Y-77012889D01*
X207837269Y-77124151D01*
X208010197Y-77201144D01*
X208195352Y-77240500D01*
X208195354Y-77240500D01*
X208384646Y-77240500D01*
X208384648Y-77240500D01*
X208508084Y-77214262D01*
X208569803Y-77201144D01*
X208742730Y-77124151D01*
X208836740Y-77055849D01*
X208895870Y-77012889D01*
X208926515Y-76978855D01*
X209022533Y-76872216D01*
X209117179Y-76708284D01*
X209175674Y-76528256D01*
X209195460Y-76340000D01*
X209175674Y-76151744D01*
X209145332Y-76058363D01*
X209117179Y-75971715D01*
X209022533Y-75807783D01*
X208895870Y-75667110D01*
X208742730Y-75555848D01*
X208569802Y-75478855D01*
X208384648Y-75439500D01*
X208384646Y-75439500D01*
X208195354Y-75439500D01*
X208195352Y-75439500D01*
X208010197Y-75478855D01*
X207837269Y-75555848D01*
X207684129Y-75667110D01*
X207557466Y-75807783D01*
X207462820Y-75971715D01*
X207404326Y-76151742D01*
X207384540Y-76339999D01*
X205514000Y-76339999D01*
X205514000Y-75795094D01*
X205515061Y-75778908D01*
X205518867Y-75749999D01*
X205512079Y-75698443D01*
X205499483Y-75602766D01*
X205442653Y-75465567D01*
X205438318Y-75459918D01*
X205415364Y-75430001D01*
X205415362Y-75430000D01*
X205352249Y-75347748D01*
X205329105Y-75329989D01*
X205316911Y-75319295D01*
X204437824Y-74440207D01*
X204404444Y-74379364D01*
X204408983Y-74310115D01*
X204450019Y-74254150D01*
X204514699Y-74228998D01*
X204565318Y-74224569D01*
X204793492Y-74163430D01*
X205007576Y-74063600D01*
X205201081Y-73928106D01*
X205368106Y-73761081D01*
X205431882Y-73670000D01*
X212944540Y-73670000D01*
X212964326Y-73858257D01*
X213022820Y-74038284D01*
X213117466Y-74202216D01*
X213244129Y-74342889D01*
X213397269Y-74454151D01*
X213570197Y-74531144D01*
X213755352Y-74570500D01*
X213755354Y-74570500D01*
X213944646Y-74570500D01*
X213944648Y-74570500D01*
X214096828Y-74538153D01*
X214129803Y-74531144D01*
X214282423Y-74463192D01*
X214350117Y-74453678D01*
X214412565Y-74481481D01*
X214450791Y-74538153D01*
X214502820Y-74698284D01*
X214597466Y-74862216D01*
X214724129Y-75002889D01*
X214877269Y-75114151D01*
X215050197Y-75191144D01*
X215235352Y-75230500D01*
X215235354Y-75230500D01*
X215424646Y-75230500D01*
X215424648Y-75230500D01*
X215554932Y-75202807D01*
X215609803Y-75191144D01*
X215782730Y-75114151D01*
X215935871Y-75002888D01*
X216062533Y-74862216D01*
X216157179Y-74698284D01*
X216215674Y-74518256D01*
X216235460Y-74330000D01*
X216215674Y-74141744D01*
X216157179Y-73961716D01*
X216157179Y-73961715D01*
X216062533Y-73797783D01*
X215935870Y-73657110D01*
X215782730Y-73545848D01*
X215609802Y-73468855D01*
X215424648Y-73429500D01*
X215424646Y-73429500D01*
X215235354Y-73429500D01*
X215235352Y-73429500D01*
X215050201Y-73468854D01*
X214897576Y-73536808D01*
X214829883Y-73546321D01*
X214767434Y-73518518D01*
X214729209Y-73461846D01*
X214677179Y-73301715D01*
X214582533Y-73137783D01*
X214455870Y-72997110D01*
X214302730Y-72885848D01*
X214129802Y-72808855D01*
X213944648Y-72769500D01*
X213944646Y-72769500D01*
X213755354Y-72769500D01*
X213755352Y-72769500D01*
X213570197Y-72808855D01*
X213397269Y-72885848D01*
X213244129Y-72997110D01*
X213117466Y-73137783D01*
X213022820Y-73301715D01*
X212964326Y-73481742D01*
X212944540Y-73670000D01*
X205431882Y-73670000D01*
X205503600Y-73567576D01*
X205603430Y-73353492D01*
X205660636Y-73140000D01*
X204204000Y-73140000D01*
X204142000Y-73123387D01*
X204096613Y-73078000D01*
X204080000Y-73016000D01*
X204080000Y-72764000D01*
X204096613Y-72702000D01*
X204142000Y-72656613D01*
X204204000Y-72640000D01*
X205660636Y-72640000D01*
X205660635Y-72639999D01*
X205612404Y-72459999D01*
X207714877Y-72459999D01*
X207733308Y-72623580D01*
X207787677Y-72778957D01*
X207875257Y-72918341D01*
X207991658Y-73034742D01*
X208131042Y-73122322D01*
X208286419Y-73176691D01*
X208450000Y-73195122D01*
X208613580Y-73176691D01*
X208768957Y-73122322D01*
X208908341Y-73034742D01*
X209024742Y-72918341D01*
X209112322Y-72778957D01*
X209166691Y-72623580D01*
X209185122Y-72460000D01*
X209166691Y-72296420D01*
X209165153Y-72292026D01*
X209112322Y-72141042D01*
X209024742Y-72001658D01*
X208908341Y-71885257D01*
X208768957Y-71797677D01*
X208689861Y-71770000D01*
X210274540Y-71770000D01*
X210283147Y-71851893D01*
X210294326Y-71958257D01*
X210352820Y-72138284D01*
X210447466Y-72302216D01*
X210574129Y-72442889D01*
X210727269Y-72554151D01*
X210900197Y-72631144D01*
X211085352Y-72670500D01*
X211085354Y-72670500D01*
X211274646Y-72670500D01*
X211274648Y-72670500D01*
X211418143Y-72639999D01*
X211459803Y-72631144D01*
X211632730Y-72554151D01*
X211743627Y-72473580D01*
X211785870Y-72442889D01*
X211800621Y-72426507D01*
X211912533Y-72302216D01*
X212007179Y-72138284D01*
X212065674Y-71958256D01*
X212085460Y-71770000D01*
X212065674Y-71581744D01*
X212022666Y-71449379D01*
X212007179Y-71401715D01*
X211912533Y-71237783D01*
X211785870Y-71097110D01*
X211632730Y-70985848D01*
X211459802Y-70908855D01*
X211274648Y-70869500D01*
X211274646Y-70869500D01*
X211085354Y-70869500D01*
X211085352Y-70869500D01*
X210900197Y-70908855D01*
X210727269Y-70985848D01*
X210574129Y-71097110D01*
X210447466Y-71237783D01*
X210352820Y-71401715D01*
X210294326Y-71581742D01*
X210278191Y-71735258D01*
X210274540Y-71770000D01*
X208689861Y-71770000D01*
X208613580Y-71743308D01*
X208450000Y-71724877D01*
X208286419Y-71743308D01*
X208131042Y-71797677D01*
X207991658Y-71885257D01*
X207875257Y-72001658D01*
X207787677Y-72141042D01*
X207733308Y-72296419D01*
X207714877Y-72459999D01*
X205612404Y-72459999D01*
X205603430Y-72426507D01*
X205503599Y-72212421D01*
X205368109Y-72018921D01*
X205201081Y-71851893D01*
X205015404Y-71721880D01*
X204976539Y-71677562D01*
X204962528Y-71620305D01*
X204976539Y-71563048D01*
X205015402Y-71518732D01*
X205201401Y-71388495D01*
X205368495Y-71221401D01*
X205504035Y-71027830D01*
X205603903Y-70813663D01*
X205665063Y-70585408D01*
X205685659Y-70350000D01*
X205665063Y-70114592D01*
X205603903Y-69886337D01*
X205504035Y-69672171D01*
X205368495Y-69478599D01*
X205201401Y-69311505D01*
X205015839Y-69181573D01*
X204976975Y-69137257D01*
X204962964Y-69080000D01*
X204976975Y-69022743D01*
X205015839Y-68978426D01*
X205201401Y-68848495D01*
X205368495Y-68681401D01*
X205504035Y-68487830D01*
X205603903Y-68273663D01*
X205634359Y-68160000D01*
X217234540Y-68160000D01*
X217254326Y-68348257D01*
X217312820Y-68528284D01*
X217407466Y-68692216D01*
X217534129Y-68832889D01*
X217687269Y-68944151D01*
X217860197Y-69021144D01*
X218045352Y-69060500D01*
X218045354Y-69060500D01*
X218234646Y-69060500D01*
X218234648Y-69060500D01*
X218358084Y-69034262D01*
X218419803Y-69021144D01*
X218592730Y-68944151D01*
X218592729Y-68944151D01*
X218745870Y-68832889D01*
X218872533Y-68692216D01*
X218967179Y-68528284D01*
X219004010Y-68414930D01*
X219025674Y-68348256D01*
X219045460Y-68160000D01*
X219025674Y-67971744D01*
X218967179Y-67791716D01*
X218967179Y-67791715D01*
X218872533Y-67627783D01*
X218745870Y-67487110D01*
X218592730Y-67375848D01*
X218419802Y-67298855D01*
X218234648Y-67259500D01*
X218234646Y-67259500D01*
X218045354Y-67259500D01*
X218045352Y-67259500D01*
X217860197Y-67298855D01*
X217687269Y-67375848D01*
X217534129Y-67487110D01*
X217407466Y-67627783D01*
X217312820Y-67791715D01*
X217254326Y-67971742D01*
X217234540Y-68160000D01*
X205634359Y-68160000D01*
X205665063Y-68045408D01*
X205685659Y-67810000D01*
X205665063Y-67574592D01*
X205603903Y-67346337D01*
X205504035Y-67132171D01*
X205368495Y-66938599D01*
X205201401Y-66771505D01*
X205015839Y-66641573D01*
X204976975Y-66597257D01*
X204962964Y-66540000D01*
X204976975Y-66482743D01*
X205015839Y-66438426D01*
X205201401Y-66308495D01*
X205368495Y-66141401D01*
X205504035Y-65947830D01*
X205603903Y-65733663D01*
X205665063Y-65505408D01*
X205685659Y-65270000D01*
X205665063Y-65034592D01*
X205603903Y-64806337D01*
X205504035Y-64592171D01*
X205368495Y-64398599D01*
X205201401Y-64231505D01*
X205015839Y-64101573D01*
X204976974Y-64057255D01*
X204962964Y-63999999D01*
X204976975Y-63942742D01*
X205015837Y-63898428D01*
X205201401Y-63768495D01*
X205368495Y-63601401D01*
X205504035Y-63407830D01*
X205603903Y-63193663D01*
X205665063Y-62965408D01*
X205685659Y-62730000D01*
X205683867Y-62709523D01*
X205665063Y-62494592D01*
X205645204Y-62420476D01*
X205603903Y-62266337D01*
X205504035Y-62052171D01*
X205368495Y-61858599D01*
X205246568Y-61736672D01*
X205215273Y-61683927D01*
X205213084Y-61622634D01*
X205240537Y-61567789D01*
X205290916Y-61532810D01*
X205422331Y-61483796D01*
X205537546Y-61397546D01*
X205623796Y-61282331D01*
X205674091Y-61147483D01*
X205680500Y-61087873D01*
X205680499Y-59292128D01*
X205674091Y-59232517D01*
X205623796Y-59097669D01*
X205537546Y-58982454D01*
X205422331Y-58896204D01*
X205287483Y-58845909D01*
X205227873Y-58839500D01*
X205227869Y-58839500D01*
X203432130Y-58839500D01*
X203372515Y-58845909D01*
X203237669Y-58896204D01*
X203122454Y-58982454D01*
X203036204Y-59097668D01*
X202985909Y-59232516D01*
X202979500Y-59292130D01*
X202979500Y-61087869D01*
X202985909Y-61147484D01*
X202998315Y-61180745D01*
X203036204Y-61282331D01*
X203122454Y-61397546D01*
X203237669Y-61483796D01*
X203334737Y-61520000D01*
X203369082Y-61532810D01*
X203419462Y-61567789D01*
X203446915Y-61622634D01*
X203444726Y-61683926D01*
X203413431Y-61736673D01*
X203291503Y-61858601D01*
X203155965Y-62052170D01*
X203056097Y-62266336D01*
X202994936Y-62494592D01*
X202974340Y-62729999D01*
X202994936Y-62965407D01*
X203040235Y-63134466D01*
X203040235Y-63198653D01*
X203008141Y-63254240D01*
X202573080Y-63689301D01*
X202560888Y-63699994D01*
X202537749Y-63717750D01*
X202502598Y-63763558D01*
X202502588Y-63763573D01*
X202447347Y-63835566D01*
X202390517Y-63972766D01*
X202371132Y-64119999D01*
X202374939Y-64148908D01*
X202376000Y-64165094D01*
X202376000Y-73129021D01*
X202362485Y-73185316D01*
X202324885Y-73229339D01*
X202271398Y-73251494D01*
X202213682Y-73246952D01*
X202164319Y-73216702D01*
X201510319Y-72562702D01*
X201483439Y-72522474D01*
X201474000Y-72475021D01*
X201474000Y-66891161D01*
X201493006Y-66825190D01*
X201572322Y-66698957D01*
X201626691Y-66543580D01*
X201645122Y-66380000D01*
X201626691Y-66216419D01*
X201572322Y-66061042D01*
X201484742Y-65921658D01*
X201368341Y-65805257D01*
X201228957Y-65717677D01*
X201073580Y-65663308D01*
X200910000Y-65644877D01*
X200746419Y-65663308D01*
X200591042Y-65717677D01*
X200451658Y-65805257D01*
X200335257Y-65921658D01*
X200247677Y-66061042D01*
X200193308Y-66216419D01*
X200174877Y-66380000D01*
X200193308Y-66543580D01*
X200247677Y-66698957D01*
X200326994Y-66825190D01*
X200346000Y-66891161D01*
X200346000Y-71733554D01*
X200332485Y-71789849D01*
X200294885Y-71833872D01*
X200241398Y-71856027D01*
X200183682Y-71851485D01*
X200134319Y-71821235D01*
X200048341Y-71735257D01*
X199908957Y-71647677D01*
X199753580Y-71593308D01*
X199590000Y-71574877D01*
X199426419Y-71593308D01*
X199271042Y-71647677D01*
X199131658Y-71735257D01*
X199015257Y-71851658D01*
X198927677Y-71991042D01*
X198873308Y-72146419D01*
X198854877Y-72310000D01*
X198873308Y-72473580D01*
X198927677Y-72628957D01*
X199015257Y-72768341D01*
X199131658Y-72884742D01*
X199271042Y-72972322D01*
X199426419Y-73026691D01*
X199590000Y-73045122D01*
X199753580Y-73026691D01*
X199908957Y-72972322D01*
X200012545Y-72907234D01*
X200048338Y-72884744D01*
X200048338Y-72884743D01*
X200048341Y-72884742D01*
X200143784Y-72789298D01*
X200203306Y-72756220D01*
X200271322Y-72759561D01*
X200327317Y-72798316D01*
X200354403Y-72860795D01*
X200360517Y-72907234D01*
X200417347Y-73044433D01*
X200477111Y-73122321D01*
X200477112Y-73122322D01*
X200477117Y-73122330D01*
X200507748Y-73162248D01*
X200507750Y-73162250D01*
X200526570Y-73176691D01*
X200530884Y-73180001D01*
X200543079Y-73190696D01*
X201770061Y-74417678D01*
X202897174Y-75544790D01*
X202926535Y-75591516D01*
X202932713Y-75646354D01*
X202914487Y-75698443D01*
X202875465Y-75737465D01*
X202751657Y-75815258D01*
X202635257Y-75931658D01*
X202547677Y-76071042D01*
X202493308Y-76226419D01*
X202474877Y-76389999D01*
X202476472Y-76404156D01*
X202470292Y-76458993D01*
X202440932Y-76505717D01*
X202394207Y-76535077D01*
X202301042Y-76567678D01*
X202161658Y-76655257D01*
X202045257Y-76771658D01*
X201957677Y-76911042D01*
X201903308Y-77066419D01*
X201897671Y-77116452D01*
X201886171Y-77156370D01*
X201862132Y-77190249D01*
X199527332Y-79525051D01*
X199089202Y-79963181D01*
X199048974Y-79990061D01*
X199001521Y-79999500D01*
X194481473Y-79999500D01*
X194422456Y-79984555D01*
X194377664Y-79943322D01*
X194357897Y-79885740D01*
X194367917Y-79825690D01*
X194381275Y-79795236D01*
X194384063Y-79788881D01*
X194445108Y-79547821D01*
X194465643Y-79300000D01*
X194445108Y-79052179D01*
X194384063Y-78811119D01*
X194284173Y-78583393D01*
X194148164Y-78375215D01*
X193979744Y-78192262D01*
X193957612Y-78175036D01*
X193809815Y-78060000D01*
X195254540Y-78060000D01*
X195274326Y-78248257D01*
X195332820Y-78428284D01*
X195427466Y-78592216D01*
X195554129Y-78732889D01*
X195707269Y-78844151D01*
X195880197Y-78921144D01*
X196065352Y-78960500D01*
X196065354Y-78960500D01*
X196254646Y-78960500D01*
X196254648Y-78960500D01*
X196378083Y-78934262D01*
X196439803Y-78921144D01*
X196612730Y-78844151D01*
X196765871Y-78732888D01*
X196892533Y-78592216D01*
X196987179Y-78428284D01*
X197045674Y-78248256D01*
X197065460Y-78060000D01*
X197045674Y-77871744D01*
X196987179Y-77691716D01*
X196987179Y-77691715D01*
X196892533Y-77527783D01*
X196765870Y-77387110D01*
X196612730Y-77275848D01*
X196439802Y-77198855D01*
X196254648Y-77159500D01*
X196254646Y-77159500D01*
X196065354Y-77159500D01*
X196065352Y-77159500D01*
X195880197Y-77198855D01*
X195707269Y-77275848D01*
X195554129Y-77387110D01*
X195427466Y-77527783D01*
X195332820Y-77691715D01*
X195274326Y-77871742D01*
X195254540Y-78060000D01*
X193809815Y-78060000D01*
X193783514Y-78039529D01*
X193783510Y-78039526D01*
X193783509Y-78039526D01*
X193564810Y-77921172D01*
X193564806Y-77921170D01*
X193564805Y-77921170D01*
X193329615Y-77840429D01*
X193084335Y-77799500D01*
X192835665Y-77799500D01*
X192590384Y-77840429D01*
X192355194Y-77921170D01*
X192136485Y-78039529D01*
X191940259Y-78192259D01*
X191940256Y-78192261D01*
X191940256Y-78192262D01*
X191771836Y-78375215D01*
X191737164Y-78428284D01*
X191635825Y-78583395D01*
X191570252Y-78732888D01*
X191535937Y-78811119D01*
X191489800Y-78993308D01*
X191474891Y-79052183D01*
X191454356Y-79300000D01*
X191474891Y-79547816D01*
X191474891Y-79547819D01*
X191474892Y-79547821D01*
X191486774Y-79594742D01*
X191535937Y-79788882D01*
X191552083Y-79825690D01*
X191562103Y-79885740D01*
X191542336Y-79943322D01*
X191497544Y-79984555D01*
X191438527Y-79999500D01*
X188841601Y-79999500D01*
X188825415Y-79998439D01*
X188796500Y-79994632D01*
X188796499Y-79994632D01*
X188666373Y-80011764D01*
X188666372Y-80011763D01*
X188666372Y-80011764D01*
X188649266Y-80014016D01*
X188622696Y-80025022D01*
X188622694Y-80025023D01*
X188622693Y-80025024D01*
X188547465Y-80056184D01*
X188512064Y-80070847D01*
X188438740Y-80127110D01*
X188438739Y-80127113D01*
X188394249Y-80161250D01*
X188376494Y-80184388D01*
X188365801Y-80196580D01*
X187560249Y-81002132D01*
X187526370Y-81026171D01*
X187486452Y-81037671D01*
X187436419Y-81043308D01*
X187281042Y-81097677D01*
X187141658Y-81185257D01*
X187025257Y-81301658D01*
X186937677Y-81441042D01*
X186883308Y-81596419D01*
X186877671Y-81646452D01*
X186866171Y-81686370D01*
X186842132Y-81720249D01*
X185909580Y-82652801D01*
X185897388Y-82663494D01*
X185874249Y-82681250D01*
X185839098Y-82727058D01*
X185839088Y-82727073D01*
X185783847Y-82799066D01*
X185727017Y-82936266D01*
X185707632Y-83083499D01*
X185711439Y-83112408D01*
X185712500Y-83128594D01*
X185712500Y-84655322D01*
X185711439Y-84671508D01*
X185707632Y-84700416D01*
X184905826Y-84700416D01*
X184928957Y-84692322D01*
X185068341Y-84604742D01*
X185184742Y-84488341D01*
X185272322Y-84348957D01*
X185326691Y-84193580D01*
X185345122Y-84030000D01*
X185339049Y-83976104D01*
X185326691Y-83866419D01*
X185272322Y-83711042D01*
X185184742Y-83571658D01*
X185068341Y-83455257D01*
X184928957Y-83367677D01*
X184773580Y-83313308D01*
X184610000Y-83294877D01*
X184446419Y-83313308D01*
X184291042Y-83367677D01*
X184151658Y-83455257D01*
X184035257Y-83571658D01*
X183947677Y-83711042D01*
X183893308Y-83866419D01*
X183874877Y-84029999D01*
X170011412Y-84029999D01*
X170053779Y-83973896D01*
X170053779Y-83973894D01*
X170053781Y-83973893D01*
X170152825Y-83774984D01*
X170213635Y-83561262D01*
X170219319Y-83499921D01*
X170234138Y-83340000D01*
X170223945Y-83229999D01*
X174704877Y-83229999D01*
X174723308Y-83393580D01*
X174777677Y-83548957D01*
X174865257Y-83688341D01*
X174981658Y-83804742D01*
X175121042Y-83892322D01*
X175276419Y-83946691D01*
X175440000Y-83965122D01*
X175603580Y-83946691D01*
X175758957Y-83892322D01*
X175898341Y-83804742D01*
X176014742Y-83688341D01*
X176102322Y-83548957D01*
X176156691Y-83393580D01*
X176175122Y-83230000D01*
X176166230Y-83151085D01*
X176156691Y-83066419D01*
X176102322Y-82911042D01*
X176014742Y-82771658D01*
X175898341Y-82655257D01*
X175758957Y-82567677D01*
X175603580Y-82513308D01*
X175440000Y-82494877D01*
X175276419Y-82513308D01*
X175121042Y-82567677D01*
X174981658Y-82655257D01*
X174865257Y-82771658D01*
X174777677Y-82911042D01*
X174723308Y-83066419D01*
X174704877Y-83229999D01*
X170223945Y-83229999D01*
X170216632Y-83151085D01*
X170213635Y-83118737D01*
X170152825Y-82905015D01*
X170053781Y-82706106D01*
X169919868Y-82528776D01*
X169755656Y-82379077D01*
X169566733Y-82262102D01*
X169566731Y-82262101D01*
X169359529Y-82181830D01*
X169141105Y-82141000D01*
X168918897Y-82141000D01*
X168712938Y-82179500D01*
X168700473Y-82181830D01*
X168493268Y-82262102D01*
X168304345Y-82379077D01*
X168140133Y-82528776D01*
X168006220Y-82706106D01*
X167907176Y-82905015D01*
X167846366Y-83118737D01*
X167825864Y-83339999D01*
X167846366Y-83561262D01*
X167907176Y-83774984D01*
X168006220Y-83973893D01*
X168140133Y-84151223D01*
X168304345Y-84300922D01*
X168493272Y-84417900D01*
X168690673Y-84494374D01*
X168739044Y-84528169D01*
X168766318Y-84580496D01*
X168766318Y-84639504D01*
X168739044Y-84691831D01*
X168690673Y-84725626D01*
X168493272Y-84802099D01*
X168304345Y-84919077D01*
X168140133Y-85068776D01*
X168006220Y-85246106D01*
X167907176Y-85445015D01*
X167846366Y-85658737D01*
X167825864Y-85879999D01*
X167846366Y-86101262D01*
X167907176Y-86314984D01*
X168006220Y-86513893D01*
X168140133Y-86691223D01*
X168304345Y-86840922D01*
X168493272Y-86957900D01*
X168690673Y-87034374D01*
X168739044Y-87068169D01*
X168766318Y-87120496D01*
X168766318Y-87179504D01*
X168739044Y-87231831D01*
X168690673Y-87265626D01*
X168493272Y-87342099D01*
X168304345Y-87459077D01*
X168140133Y-87608776D01*
X168006220Y-87786106D01*
X167907176Y-87985015D01*
X167846366Y-88198737D01*
X167825864Y-88420000D01*
X167846366Y-88641262D01*
X167907176Y-88854984D01*
X168006220Y-89053893D01*
X168140133Y-89231223D01*
X168304345Y-89380922D01*
X168493272Y-89497900D01*
X168690673Y-89574374D01*
X168739044Y-89608169D01*
X168766318Y-89660496D01*
X168766318Y-89719504D01*
X168739044Y-89771831D01*
X168690673Y-89805626D01*
X168493272Y-89882099D01*
X168304345Y-89999077D01*
X168140133Y-90148776D01*
X168006220Y-90326106D01*
X167907176Y-90525015D01*
X167846366Y-90738737D01*
X167825864Y-90960000D01*
X167846366Y-91181262D01*
X167907176Y-91394984D01*
X168006220Y-91593893D01*
X168140133Y-91771223D01*
X168304343Y-91920920D01*
X168304345Y-91920921D01*
X168304346Y-91920922D01*
X168380931Y-91968341D01*
X168407279Y-91984655D01*
X168450330Y-92029743D01*
X168466001Y-92090082D01*
X168466001Y-103569022D01*
X168452486Y-103625317D01*
X168414886Y-103669340D01*
X168361399Y-103691495D01*
X168303683Y-103686953D01*
X168254320Y-103656703D01*
X167090320Y-102492703D01*
X167063440Y-102452475D01*
X167054001Y-102405022D01*
X167054001Y-93360082D01*
X167069672Y-93299743D01*
X167112723Y-93254655D01*
X167176802Y-93214979D01*
X167215656Y-93190922D01*
X167379869Y-93041222D01*
X167513779Y-92863896D01*
X167513779Y-92863894D01*
X167513781Y-92863893D01*
X167612825Y-92664984D01*
X167673635Y-92451262D01*
X167684201Y-92337232D01*
X167694138Y-92230000D01*
X167675166Y-92025257D01*
X167673635Y-92008737D01*
X167612825Y-91795015D01*
X167513781Y-91596106D01*
X167379868Y-91418776D01*
X167215656Y-91269077D01*
X167026733Y-91152102D01*
X167026731Y-91152101D01*
X166829325Y-91075625D01*
X166780957Y-91041831D01*
X166753683Y-90989504D01*
X166753683Y-90930496D01*
X166780957Y-90878169D01*
X166829325Y-90844374D01*
X167026731Y-90767899D01*
X167215656Y-90650922D01*
X167379869Y-90501222D01*
X167513779Y-90323896D01*
X167513779Y-90323894D01*
X167513781Y-90323893D01*
X167612825Y-90124984D01*
X167673635Y-89911262D01*
X167682566Y-89814877D01*
X167694138Y-89690000D01*
X167673635Y-89468740D01*
X167673635Y-89468737D01*
X167612825Y-89255015D01*
X167513781Y-89056106D01*
X167379868Y-88878776D01*
X167215656Y-88729077D01*
X167026733Y-88612102D01*
X167026731Y-88612101D01*
X166829325Y-88535625D01*
X166780957Y-88501831D01*
X166753683Y-88449504D01*
X166753683Y-88390496D01*
X166780957Y-88338169D01*
X166829325Y-88304374D01*
X167026731Y-88227899D01*
X167215656Y-88110922D01*
X167312567Y-88022576D01*
X167379868Y-87961223D01*
X167383257Y-87956735D01*
X167513779Y-87783896D01*
X167513779Y-87783894D01*
X167513781Y-87783893D01*
X167612825Y-87584984D01*
X167673635Y-87371262D01*
X167683423Y-87265627D01*
X167694138Y-87150000D01*
X167676290Y-86957389D01*
X167673635Y-86928737D01*
X167612825Y-86715015D01*
X167513781Y-86516106D01*
X167379868Y-86338776D01*
X167215656Y-86189077D01*
X167026733Y-86072102D01*
X167026731Y-86072101D01*
X166829325Y-85995625D01*
X166780957Y-85961831D01*
X166753683Y-85909504D01*
X166753683Y-85850496D01*
X166780957Y-85798169D01*
X166829325Y-85764374D01*
X167026731Y-85687899D01*
X167215656Y-85570922D01*
X167379869Y-85421222D01*
X167513779Y-85243896D01*
X167513779Y-85243894D01*
X167513781Y-85243893D01*
X167612825Y-85044984D01*
X167673635Y-84831262D01*
X167678652Y-84777119D01*
X167694138Y-84610000D01*
X167673635Y-84388740D01*
X167673635Y-84388737D01*
X167612825Y-84175015D01*
X167513781Y-83976106D01*
X167379868Y-83798776D01*
X167215656Y-83649077D01*
X167026733Y-83532102D01*
X167026731Y-83532101D01*
X166819529Y-83451830D01*
X166601105Y-83411000D01*
X166378897Y-83411000D01*
X166224674Y-83439829D01*
X166160473Y-83451830D01*
X165953268Y-83532102D01*
X165764345Y-83649077D01*
X165600133Y-83798776D01*
X165466220Y-83976106D01*
X165367176Y-84175015D01*
X165306366Y-84388737D01*
X165285864Y-84610000D01*
X165306366Y-84831262D01*
X165367176Y-85044984D01*
X165466220Y-85243893D01*
X165600133Y-85421223D01*
X165764345Y-85570922D01*
X165953272Y-85687900D01*
X166150673Y-85764374D01*
X166199044Y-85798169D01*
X166226318Y-85850496D01*
X166226318Y-85909504D01*
X166199044Y-85961831D01*
X166150673Y-85995626D01*
X165953272Y-86072099D01*
X165764345Y-86189077D01*
X165600133Y-86338776D01*
X165466220Y-86516106D01*
X165367176Y-86715015D01*
X165306366Y-86928737D01*
X165288598Y-87120496D01*
X165285864Y-87150000D01*
X165287350Y-87166042D01*
X165306366Y-87371262D01*
X165367176Y-87584984D01*
X165466220Y-87783893D01*
X165600133Y-87961223D01*
X165764345Y-88110922D01*
X165953272Y-88227900D01*
X166150673Y-88304374D01*
X166199044Y-88338169D01*
X166226318Y-88390496D01*
X166226318Y-88449504D01*
X166199044Y-88501831D01*
X166150673Y-88535626D01*
X165953272Y-88612099D01*
X165764345Y-88729077D01*
X165600133Y-88878776D01*
X165466220Y-89056106D01*
X165367176Y-89255015D01*
X165306366Y-89468737D01*
X165285864Y-89689999D01*
X165306366Y-89911262D01*
X165367176Y-90124984D01*
X165466220Y-90323893D01*
X165600133Y-90501223D01*
X165764345Y-90650922D01*
X165953272Y-90767900D01*
X166150673Y-90844374D01*
X166199044Y-90878169D01*
X166226318Y-90930496D01*
X166226318Y-90989504D01*
X166199044Y-91041831D01*
X166150673Y-91075626D01*
X165953272Y-91152099D01*
X165764345Y-91269077D01*
X165600133Y-91418776D01*
X165466220Y-91596106D01*
X165367176Y-91795015D01*
X165306366Y-92008737D01*
X165285864Y-92229999D01*
X161539084Y-92229999D01*
X161507112Y-92191581D01*
X161302142Y-92007927D01*
X161072617Y-91856074D01*
X160885996Y-91768590D01*
X160823426Y-91739258D01*
X160605119Y-91673580D01*
X160559885Y-91659971D01*
X160287607Y-91619900D01*
X160081290Y-91619900D01*
X160081286Y-91619900D01*
X159875522Y-91634959D01*
X159606898Y-91694798D01*
X159349845Y-91793112D01*
X159109848Y-91927807D01*
X158892017Y-92096008D01*
X158701004Y-92294130D01*
X158540865Y-92517964D01*
X158415030Y-92762715D01*
X158326168Y-93023188D01*
X158276180Y-93293820D01*
X158266129Y-93568848D01*
X156319401Y-93568848D01*
X156273351Y-93476367D01*
X156257790Y-93455761D01*
X155603554Y-94109999D01*
X154896448Y-94109999D01*
X154242211Y-93455761D01*
X154242210Y-93455761D01*
X154226650Y-93476366D01*
X154127645Y-93675195D01*
X154066860Y-93888829D01*
X154046367Y-94109999D01*
X148520500Y-94109999D01*
X148520500Y-93104207D01*
X154597761Y-93104207D01*
X155250001Y-93756446D01*
X155250002Y-93756446D01*
X155902239Y-93104207D01*
X155902238Y-93104206D01*
X155786510Y-93032551D01*
X155579390Y-92952313D01*
X155361056Y-92911499D01*
X155138946Y-92911499D01*
X154920611Y-92952313D01*
X154713493Y-93032551D01*
X154597761Y-93104207D01*
X148520500Y-93104207D01*
X148520500Y-91569998D01*
X155565863Y-91569998D01*
X155586365Y-91791261D01*
X155647175Y-92004983D01*
X155746219Y-92203892D01*
X155880132Y-92381222D01*
X156044344Y-92530921D01*
X156124376Y-92580474D01*
X156233270Y-92647898D01*
X156440472Y-92728169D01*
X156658896Y-92768999D01*
X156881102Y-92768999D01*
X156881104Y-92768999D01*
X157099528Y-92728169D01*
X157306730Y-92647898D01*
X157495655Y-92530921D01*
X157659868Y-92381221D01*
X157793778Y-92203895D01*
X157793778Y-92203893D01*
X157793780Y-92203892D01*
X157892824Y-92004983D01*
X157953634Y-91791261D01*
X157958071Y-91743375D01*
X157974137Y-91569999D01*
X157953634Y-91348739D01*
X157953634Y-91348736D01*
X157892824Y-91135014D01*
X157793780Y-90936105D01*
X157659867Y-90758775D01*
X157495655Y-90609076D01*
X157306732Y-90492101D01*
X157306730Y-90492100D01*
X157099528Y-90411829D01*
X156881104Y-90370999D01*
X156658896Y-90370999D01*
X156440472Y-90411828D01*
X156440472Y-90411829D01*
X156233267Y-90492101D01*
X156044344Y-90609076D01*
X155880132Y-90758775D01*
X155746219Y-90936105D01*
X155647175Y-91135014D01*
X155586365Y-91348736D01*
X155565863Y-91569998D01*
X148520500Y-91569998D01*
X148520500Y-83999891D01*
X154045864Y-83999891D01*
X154066366Y-84221154D01*
X154127176Y-84434876D01*
X154226220Y-84633785D01*
X154360133Y-84811115D01*
X154524345Y-84960814D01*
X154673729Y-85053308D01*
X154713271Y-85077791D01*
X154920473Y-85158062D01*
X155138897Y-85198892D01*
X155361103Y-85198892D01*
X155361105Y-85198892D01*
X155579529Y-85158062D01*
X155786731Y-85077791D01*
X155975656Y-84960814D01*
X156139869Y-84811114D01*
X156273779Y-84633788D01*
X156273779Y-84633786D01*
X156273781Y-84633785D01*
X156372825Y-84434876D01*
X156433635Y-84221154D01*
X156437993Y-84174121D01*
X156454138Y-83999892D01*
X156437638Y-83821829D01*
X156433635Y-83778629D01*
X156372825Y-83564907D01*
X156273781Y-83365998D01*
X156139868Y-83188668D01*
X155975656Y-83038969D01*
X155786733Y-82921994D01*
X155786731Y-82921993D01*
X155579529Y-82841722D01*
X155361105Y-82800892D01*
X155138897Y-82800892D01*
X154920473Y-82841721D01*
X154920473Y-82841722D01*
X154713268Y-82921994D01*
X154524345Y-83038969D01*
X154360133Y-83188668D01*
X154226220Y-83365998D01*
X154127176Y-83564907D01*
X154066366Y-83778629D01*
X154045864Y-83999891D01*
X148520500Y-83999891D01*
X148520500Y-82465682D01*
X156117760Y-82465682D01*
X156117761Y-82465683D01*
X156233490Y-82537339D01*
X156440610Y-82617577D01*
X156658945Y-82658392D01*
X156881055Y-82658392D01*
X157099389Y-82617577D01*
X157306506Y-82537340D01*
X157422238Y-82465682D01*
X157095404Y-82138848D01*
X158266129Y-82138848D01*
X158296229Y-82412407D01*
X158331621Y-82547783D01*
X158365840Y-82678671D01*
X158473476Y-82931961D01*
X158583602Y-83112408D01*
X158616846Y-83166881D01*
X158716285Y-83286369D01*
X158792890Y-83378419D01*
X158997860Y-83562073D01*
X159227385Y-83713926D01*
X159476575Y-83830741D01*
X159740117Y-83910029D01*
X160012395Y-83950100D01*
X160218712Y-83950100D01*
X160218716Y-83950100D01*
X160424479Y-83935040D01*
X160571776Y-83902228D01*
X160693105Y-83875201D01*
X160950157Y-83776887D01*
X161190154Y-83642193D01*
X161407983Y-83473992D01*
X161599000Y-83275866D01*
X161759134Y-83052040D01*
X161884972Y-82807283D01*
X161973833Y-82546812D01*
X162023821Y-82276179D01*
X162033872Y-82001151D01*
X162003772Y-81727591D01*
X161934162Y-81461329D01*
X161826526Y-81208039D01*
X161755992Y-81092466D01*
X161737998Y-81034172D01*
X161747208Y-80988193D01*
X161711622Y-80983635D01*
X161661978Y-80947671D01*
X161580126Y-80849316D01*
X161507112Y-80761581D01*
X161302142Y-80577927D01*
X161072617Y-80426074D01*
X160896705Y-80343610D01*
X160823426Y-80309258D01*
X160639172Y-80253824D01*
X160559885Y-80229971D01*
X160287607Y-80189900D01*
X160081290Y-80189900D01*
X160081286Y-80189900D01*
X159875522Y-80204959D01*
X159606898Y-80264798D01*
X159349845Y-80363112D01*
X159109848Y-80497807D01*
X158892017Y-80666008D01*
X158701004Y-80864130D01*
X158540865Y-81087964D01*
X158415030Y-81332715D01*
X158326168Y-81593188D01*
X158276180Y-81863820D01*
X158266129Y-82138848D01*
X157095404Y-82138848D01*
X156770001Y-81813445D01*
X156770000Y-81813445D01*
X156117760Y-82465682D01*
X148520500Y-82465682D01*
X148520500Y-81459891D01*
X155566366Y-81459891D01*
X155586859Y-81681061D01*
X155647643Y-81894693D01*
X155746650Y-82093524D01*
X155762210Y-82114127D01*
X156416447Y-81459893D01*
X156416447Y-81459892D01*
X157123553Y-81459892D01*
X157777788Y-82114127D01*
X157777789Y-82114127D01*
X157793349Y-82093523D01*
X157892356Y-81894693D01*
X157953140Y-81681061D01*
X157973633Y-81459891D01*
X157953140Y-81238722D01*
X157892355Y-81025088D01*
X157793350Y-80826260D01*
X157777789Y-80805654D01*
X157777788Y-80805654D01*
X157123553Y-81459892D01*
X156416447Y-81459892D01*
X155762210Y-80805654D01*
X155762209Y-80805654D01*
X155746649Y-80826259D01*
X155647644Y-81025088D01*
X155586859Y-81238722D01*
X155566366Y-81459891D01*
X148520500Y-81459891D01*
X148520500Y-80454100D01*
X156117760Y-80454100D01*
X156770000Y-81106339D01*
X156770001Y-81106339D01*
X157422238Y-80454100D01*
X157422237Y-80454099D01*
X157306509Y-80382444D01*
X157099389Y-80302206D01*
X156881055Y-80261392D01*
X156658945Y-80261392D01*
X156440610Y-80302206D01*
X156233492Y-80382444D01*
X156117760Y-80454100D01*
X148520500Y-80454100D01*
X148520500Y-80009999D01*
X161640593Y-80009999D01*
X161659792Y-80253946D01*
X161716915Y-80491883D01*
X161752556Y-80577927D01*
X161810558Y-80717956D01*
X161842977Y-80770859D01*
X161863017Y-80803561D01*
X161881134Y-80862125D01*
X161871851Y-80908024D01*
X161906310Y-80912119D01*
X161956128Y-80947338D01*
X161956849Y-80948182D01*
X162097333Y-81112667D01*
X162283404Y-81271587D01*
X162492044Y-81399442D01*
X162659064Y-81468623D01*
X162718116Y-81493084D01*
X162790643Y-81510496D01*
X162956055Y-81550208D01*
X163200000Y-81569407D01*
X163443945Y-81550208D01*
X163681883Y-81493084D01*
X163907956Y-81399442D01*
X164116596Y-81271587D01*
X164153580Y-81240000D01*
X182444877Y-81240000D01*
X182463308Y-81403580D01*
X182517677Y-81558957D01*
X182605257Y-81698341D01*
X182721658Y-81814742D01*
X182861042Y-81902322D01*
X183016419Y-81956691D01*
X183180000Y-81975122D01*
X183343580Y-81956691D01*
X183498957Y-81902322D01*
X183638341Y-81814742D01*
X183754742Y-81698341D01*
X183818835Y-81596335D01*
X183870025Y-81550590D01*
X183937711Y-81539090D01*
X184080000Y-81555122D01*
X184243580Y-81536691D01*
X184398957Y-81482322D01*
X184538341Y-81394742D01*
X184654742Y-81278341D01*
X184742322Y-81138957D01*
X184796691Y-80983580D01*
X184815122Y-80820000D01*
X184796691Y-80656420D01*
X184781057Y-80611742D01*
X184742322Y-80501042D01*
X184654742Y-80361658D01*
X184538341Y-80245257D01*
X184398957Y-80157677D01*
X184243580Y-80103308D01*
X184080000Y-80084877D01*
X183916419Y-80103308D01*
X183761042Y-80157677D01*
X183621658Y-80245257D01*
X183505259Y-80361656D01*
X183441166Y-80463661D01*
X183389974Y-80509409D01*
X183322289Y-80520909D01*
X183180000Y-80504877D01*
X183016419Y-80523308D01*
X182861042Y-80577677D01*
X182721658Y-80665257D01*
X182605257Y-80781658D01*
X182517677Y-80921042D01*
X182463308Y-81076419D01*
X182444877Y-81240000D01*
X164153580Y-81240000D01*
X164302667Y-81112667D01*
X164461587Y-80926596D01*
X164589442Y-80717956D01*
X164683084Y-80491883D01*
X164740208Y-80253945D01*
X164759407Y-80010000D01*
X164740208Y-79766055D01*
X164726750Y-79710000D01*
X174604877Y-79710000D01*
X174623308Y-79873580D01*
X174677677Y-80028957D01*
X174765257Y-80168341D01*
X174881658Y-80284742D01*
X175021042Y-80372322D01*
X175176419Y-80426691D01*
X175339999Y-80445122D01*
X175339999Y-80445121D01*
X175340000Y-80445122D01*
X175503580Y-80426691D01*
X175658957Y-80372322D01*
X175798341Y-80284742D01*
X175914742Y-80168341D01*
X176002322Y-80028957D01*
X176056691Y-79873580D01*
X176075122Y-79710000D01*
X176060755Y-79582489D01*
X176056691Y-79546419D01*
X176002322Y-79391042D01*
X175914742Y-79251658D01*
X175798341Y-79135257D01*
X175658957Y-79047677D01*
X175503580Y-78993308D01*
X175340000Y-78974877D01*
X175176419Y-78993308D01*
X175021042Y-79047677D01*
X174881658Y-79135257D01*
X174765257Y-79251658D01*
X174677677Y-79391042D01*
X174623308Y-79546419D01*
X174604877Y-79710000D01*
X164726750Y-79710000D01*
X164687815Y-79547821D01*
X164683084Y-79528116D01*
X164651502Y-79451871D01*
X164589442Y-79302044D01*
X164461587Y-79093404D01*
X164302667Y-78907333D01*
X164116596Y-78748413D01*
X163907956Y-78620558D01*
X163797510Y-78574810D01*
X163681883Y-78526915D01*
X163443946Y-78469792D01*
X163200000Y-78450593D01*
X162956053Y-78469792D01*
X162718116Y-78526915D01*
X162492042Y-78620559D01*
X162283405Y-78748412D01*
X162097333Y-78907333D01*
X161938412Y-79093405D01*
X161810559Y-79302042D01*
X161716915Y-79528116D01*
X161659792Y-79766053D01*
X161640593Y-80009999D01*
X148520500Y-80009999D01*
X148520500Y-73750000D01*
X148999474Y-73750000D01*
X149019548Y-74005071D01*
X149079277Y-74253860D01*
X149124536Y-74363122D01*
X149177191Y-74490243D01*
X149310877Y-74708399D01*
X149477044Y-74902956D01*
X149671601Y-75069123D01*
X149889757Y-75202809D01*
X150043328Y-75266420D01*
X150126139Y-75300722D01*
X150203501Y-75319295D01*
X150374930Y-75360452D01*
X150630000Y-75380526D01*
X150885070Y-75360452D01*
X151133860Y-75300722D01*
X151370243Y-75202809D01*
X151588399Y-75069123D01*
X151782956Y-74902956D01*
X151949123Y-74708399D01*
X152082809Y-74490243D01*
X152180722Y-74253860D01*
X152240452Y-74005070D01*
X152260526Y-73750000D01*
X154079474Y-73750000D01*
X154099548Y-74005071D01*
X154159277Y-74253860D01*
X154204536Y-74363122D01*
X154257191Y-74490243D01*
X154390877Y-74708399D01*
X154557044Y-74902956D01*
X154751601Y-75069123D01*
X154969757Y-75202809D01*
X155123328Y-75266420D01*
X155206139Y-75300722D01*
X155283501Y-75319295D01*
X155454930Y-75360452D01*
X155710000Y-75380526D01*
X155965070Y-75360452D01*
X156213860Y-75300722D01*
X156450243Y-75202809D01*
X156650649Y-75080000D01*
X182504877Y-75080000D01*
X182523308Y-75243580D01*
X182577677Y-75398957D01*
X182665257Y-75538341D01*
X182781658Y-75654742D01*
X182921042Y-75742322D01*
X183076419Y-75796691D01*
X183240000Y-75815122D01*
X183403580Y-75796691D01*
X183558957Y-75742322D01*
X183698341Y-75654742D01*
X183814742Y-75538341D01*
X183902322Y-75398957D01*
X183956691Y-75243580D01*
X183975122Y-75080000D01*
X183956691Y-74916420D01*
X183951979Y-74902955D01*
X183902322Y-74761042D01*
X183814742Y-74621658D01*
X183698341Y-74505257D01*
X183558957Y-74417677D01*
X183403580Y-74363308D01*
X183240000Y-74344877D01*
X183076419Y-74363308D01*
X182921042Y-74417677D01*
X182781658Y-74505257D01*
X182665257Y-74621658D01*
X182577677Y-74761042D01*
X182523308Y-74916419D01*
X182504877Y-75080000D01*
X156650649Y-75080000D01*
X156668399Y-75069123D01*
X156862956Y-74902956D01*
X157029123Y-74708399D01*
X157162809Y-74490243D01*
X157260722Y-74253860D01*
X157320452Y-74005070D01*
X157340526Y-73750000D01*
X157320452Y-73494930D01*
X157274065Y-73301715D01*
X157260722Y-73246139D01*
X157231955Y-73176691D01*
X157162809Y-73009757D01*
X157029123Y-72791601D01*
X156862956Y-72597044D01*
X156668399Y-72430877D01*
X156450243Y-72297191D01*
X156362924Y-72261022D01*
X156213860Y-72199277D01*
X155965071Y-72139548D01*
X155710000Y-72119474D01*
X155454928Y-72139548D01*
X155206139Y-72199277D01*
X154995330Y-72286598D01*
X154971619Y-72296420D01*
X154969755Y-72297192D01*
X154751602Y-72430876D01*
X154557044Y-72597044D01*
X154390876Y-72791602D01*
X154257192Y-73009755D01*
X154159277Y-73246139D01*
X154099548Y-73494928D01*
X154079474Y-73750000D01*
X152260526Y-73750000D01*
X152240452Y-73494930D01*
X152194065Y-73301715D01*
X152180722Y-73246139D01*
X152151955Y-73176691D01*
X152082809Y-73009757D01*
X151949123Y-72791601D01*
X151782956Y-72597044D01*
X151588399Y-72430877D01*
X151370243Y-72297191D01*
X151282924Y-72261022D01*
X151133860Y-72199277D01*
X150885071Y-72139548D01*
X150630000Y-72119474D01*
X150374928Y-72139548D01*
X150126139Y-72199277D01*
X149915330Y-72286598D01*
X149891619Y-72296420D01*
X149889755Y-72297192D01*
X149671602Y-72430876D01*
X149477044Y-72597044D01*
X149310876Y-72791602D01*
X149177192Y-73009755D01*
X149079277Y-73246139D01*
X149019548Y-73494928D01*
X148999474Y-73750000D01*
X148520500Y-73750000D01*
X148520500Y-71210000D01*
X151639783Y-71210000D01*
X151658623Y-71449380D01*
X151714676Y-71682863D01*
X151762235Y-71797678D01*
X151806567Y-71904704D01*
X151932028Y-72109439D01*
X152087973Y-72292027D01*
X152270561Y-72447972D01*
X152475296Y-72573433D01*
X152609342Y-72628957D01*
X152697136Y-72665323D01*
X152770898Y-72683031D01*
X152930621Y-72721377D01*
X153170000Y-72740217D01*
X153409379Y-72721377D01*
X153642863Y-72665323D01*
X153864704Y-72573433D01*
X154069439Y-72447972D01*
X154252027Y-72292027D01*
X154407972Y-72109439D01*
X154533433Y-71904704D01*
X154625323Y-71682863D01*
X154681377Y-71449379D01*
X154700217Y-71210000D01*
X154681377Y-70970621D01*
X154671625Y-70930000D01*
X163984877Y-70930000D01*
X164003308Y-71093580D01*
X164057677Y-71248957D01*
X164145257Y-71388341D01*
X164261658Y-71504742D01*
X164401042Y-71592322D01*
X164556419Y-71646691D01*
X164720000Y-71665122D01*
X164883580Y-71646691D01*
X165038957Y-71592322D01*
X165178341Y-71504742D01*
X165294742Y-71388341D01*
X165382322Y-71248957D01*
X165436691Y-71093580D01*
X165455122Y-70930000D01*
X165442014Y-70813662D01*
X165436691Y-70766419D01*
X165382322Y-70611042D01*
X165294742Y-70471658D01*
X165178341Y-70355257D01*
X165038957Y-70267677D01*
X164883580Y-70213308D01*
X164720000Y-70194877D01*
X164556419Y-70213308D01*
X164401042Y-70267677D01*
X164261658Y-70355257D01*
X164145257Y-70471658D01*
X164057677Y-70611042D01*
X164003308Y-70766419D01*
X163984877Y-70930000D01*
X154671625Y-70930000D01*
X154625323Y-70737137D01*
X154533433Y-70515296D01*
X154407972Y-70310561D01*
X154252027Y-70127973D01*
X154069439Y-69972028D01*
X153864704Y-69846567D01*
X153799727Y-69819652D01*
X153642863Y-69754676D01*
X153409380Y-69698623D01*
X153170000Y-69679783D01*
X152930619Y-69698623D01*
X152697136Y-69754676D01*
X152475296Y-69846567D01*
X152270560Y-69972028D01*
X152087973Y-70127973D01*
X151932028Y-70310560D01*
X151806567Y-70515296D01*
X151714676Y-70737136D01*
X151658623Y-70970619D01*
X151639783Y-71210000D01*
X148520500Y-71210000D01*
X148520500Y-68670000D01*
X148999474Y-68670000D01*
X149001222Y-68692216D01*
X149019548Y-68925071D01*
X149079277Y-69173860D01*
X149136292Y-69311505D01*
X149177191Y-69410243D01*
X149310877Y-69628399D01*
X149477044Y-69822956D01*
X149671601Y-69989123D01*
X149889757Y-70122809D01*
X150063745Y-70194877D01*
X150126139Y-70220722D01*
X150204739Y-70239592D01*
X150374930Y-70280452D01*
X150630000Y-70300526D01*
X150885070Y-70280452D01*
X151133860Y-70220722D01*
X151370243Y-70122809D01*
X151588399Y-69989123D01*
X151782956Y-69822956D01*
X151949123Y-69628399D01*
X152082809Y-69410243D01*
X152180722Y-69173860D01*
X152240452Y-68925070D01*
X152260526Y-68670000D01*
X152240452Y-68414930D01*
X152180722Y-68166140D01*
X152082809Y-67929757D01*
X152056111Y-67886190D01*
X152037843Y-67820359D01*
X152057217Y-67754842D01*
X152108351Y-67709531D01*
X152175721Y-67698182D01*
X152330000Y-67715565D01*
X152509255Y-67695368D01*
X152679522Y-67635789D01*
X152832262Y-67539816D01*
X152959816Y-67412262D01*
X153030006Y-67300554D01*
X153075019Y-67257999D01*
X153135000Y-67242527D01*
X153194981Y-67257999D01*
X153239994Y-67300555D01*
X153310185Y-67412264D01*
X153437735Y-67539814D01*
X153437737Y-67539815D01*
X153437738Y-67539816D01*
X153590478Y-67635789D01*
X153760745Y-67695368D01*
X153940000Y-67715565D01*
X154119255Y-67695368D01*
X154149123Y-67684916D01*
X154209195Y-67679441D01*
X154264748Y-67702963D01*
X154302626Y-67749916D01*
X154313864Y-67809187D01*
X154295803Y-67866747D01*
X154257191Y-67929756D01*
X154159277Y-68166139D01*
X154099548Y-68414928D01*
X154079474Y-68669999D01*
X154079474Y-68670000D01*
X154081222Y-68692216D01*
X154099548Y-68925071D01*
X154159277Y-69173860D01*
X154216292Y-69311505D01*
X154257191Y-69410243D01*
X154390877Y-69628399D01*
X154557044Y-69822956D01*
X154751601Y-69989123D01*
X154969757Y-70122809D01*
X155143745Y-70194877D01*
X155206139Y-70220722D01*
X155284739Y-70239592D01*
X155454930Y-70280452D01*
X155710000Y-70300526D01*
X155965070Y-70280452D01*
X156213860Y-70220722D01*
X156450243Y-70122809D01*
X156503782Y-70090000D01*
X196954877Y-70090000D01*
X196973308Y-70253580D01*
X197027677Y-70408957D01*
X197115257Y-70548341D01*
X197231658Y-70664742D01*
X197371042Y-70752322D01*
X197526419Y-70806691D01*
X197690000Y-70825122D01*
X197853580Y-70806691D01*
X198008957Y-70752322D01*
X198148341Y-70664742D01*
X198264742Y-70548341D01*
X198352322Y-70408957D01*
X198406691Y-70253580D01*
X198425122Y-70090000D01*
X198406691Y-69926420D01*
X198392665Y-69886337D01*
X198352322Y-69771042D01*
X198264742Y-69631658D01*
X198148341Y-69515257D01*
X198008957Y-69427677D01*
X197853580Y-69373308D01*
X197690000Y-69354877D01*
X197526419Y-69373308D01*
X197371042Y-69427677D01*
X197231658Y-69515257D01*
X197115257Y-69631658D01*
X197027677Y-69771042D01*
X196973308Y-69926419D01*
X196954877Y-70090000D01*
X156503782Y-70090000D01*
X156668399Y-69989123D01*
X156862956Y-69822956D01*
X157029123Y-69628399D01*
X157162809Y-69410243D01*
X157260722Y-69173860D01*
X157320452Y-68925070D01*
X157340526Y-68670000D01*
X157320452Y-68414930D01*
X157261649Y-68170000D01*
X196864877Y-68170000D01*
X196883308Y-68333580D01*
X196937677Y-68488957D01*
X197025257Y-68628341D01*
X197141658Y-68744742D01*
X197281042Y-68832322D01*
X197436419Y-68886691D01*
X197600000Y-68905122D01*
X197763580Y-68886691D01*
X197918957Y-68832322D01*
X198058341Y-68744742D01*
X198174742Y-68628341D01*
X198262322Y-68488957D01*
X198316691Y-68333580D01*
X198335122Y-68170000D01*
X198316691Y-68006420D01*
X198304557Y-67971744D01*
X198262322Y-67851042D01*
X198174742Y-67711658D01*
X198058341Y-67595257D01*
X197918957Y-67507677D01*
X197763580Y-67453308D01*
X197599999Y-67434877D01*
X197436419Y-67453308D01*
X197281042Y-67507677D01*
X197141658Y-67595257D01*
X197025257Y-67711658D01*
X196937677Y-67851042D01*
X196883308Y-68006419D01*
X196864877Y-68170000D01*
X157261649Y-68170000D01*
X157260722Y-68166140D01*
X157162809Y-67929757D01*
X157029123Y-67711601D01*
X156862956Y-67517044D01*
X156668399Y-67350877D01*
X156450243Y-67217191D01*
X156362924Y-67181022D01*
X156312171Y-67159999D01*
X164094877Y-67159999D01*
X164113308Y-67323580D01*
X164167677Y-67478957D01*
X164255257Y-67618341D01*
X164371658Y-67734742D01*
X164511042Y-67822322D01*
X164666419Y-67876691D01*
X164830000Y-67895122D01*
X164993580Y-67876691D01*
X165148957Y-67822322D01*
X165288341Y-67734742D01*
X165404742Y-67618341D01*
X165492322Y-67478957D01*
X165546691Y-67323580D01*
X165565122Y-67160000D01*
X165561986Y-67132171D01*
X165546691Y-66996419D01*
X165492322Y-66841042D01*
X165404742Y-66701658D01*
X165288341Y-66585257D01*
X165148957Y-66497677D01*
X164993580Y-66443308D01*
X164830000Y-66424877D01*
X164666419Y-66443308D01*
X164511042Y-66497677D01*
X164371658Y-66585257D01*
X164255257Y-66701658D01*
X164167677Y-66841042D01*
X164113308Y-66996419D01*
X164094877Y-67159999D01*
X156312171Y-67159999D01*
X156213860Y-67119277D01*
X155965071Y-67059548D01*
X155710000Y-67039474D01*
X155454928Y-67059548D01*
X155206139Y-67119277D01*
X154969756Y-67217191D01*
X154898472Y-67260874D01*
X154840912Y-67278935D01*
X154781641Y-67267697D01*
X154734688Y-67229819D01*
X154711166Y-67174267D01*
X154716641Y-67114193D01*
X154725368Y-67089255D01*
X154745565Y-66910000D01*
X154734620Y-66812861D01*
X154740799Y-66758023D01*
X154770162Y-66711295D01*
X154816892Y-66681935D01*
X154856159Y-66677513D01*
X154856116Y-66677130D01*
X154974232Y-66663821D01*
X155049255Y-66655368D01*
X155219522Y-66595789D01*
X155364030Y-66504988D01*
X155430000Y-66485983D01*
X155495969Y-66504988D01*
X155640478Y-66595789D01*
X155810745Y-66655368D01*
X155990000Y-66675565D01*
X156169255Y-66655368D01*
X156339522Y-66595789D01*
X156492262Y-66499816D01*
X156619816Y-66372262D01*
X156715789Y-66219522D01*
X156775368Y-66049255D01*
X156780749Y-66001498D01*
X182504877Y-66001498D01*
X182523308Y-66165079D01*
X182577677Y-66320456D01*
X182665257Y-66459840D01*
X182781658Y-66576241D01*
X182921042Y-66663821D01*
X183076419Y-66718190D01*
X183240000Y-66736621D01*
X183403580Y-66718190D01*
X183558957Y-66663821D01*
X183698341Y-66576241D01*
X183814742Y-66459840D01*
X183902322Y-66320456D01*
X183919977Y-66270000D01*
X196864877Y-66270000D01*
X196883308Y-66433580D01*
X196937677Y-66588957D01*
X197025257Y-66728341D01*
X197141658Y-66844742D01*
X197281042Y-66932322D01*
X197436419Y-66986691D01*
X197600000Y-67005122D01*
X197763580Y-66986691D01*
X197918957Y-66932322D01*
X198058341Y-66844742D01*
X198174742Y-66728341D01*
X198262322Y-66588957D01*
X198316691Y-66433580D01*
X198335122Y-66270000D01*
X198316691Y-66106420D01*
X198300812Y-66061042D01*
X198262322Y-65951042D01*
X198174742Y-65811658D01*
X198058341Y-65695257D01*
X197918957Y-65607677D01*
X197763580Y-65553308D01*
X197600000Y-65534877D01*
X197436419Y-65553308D01*
X197281042Y-65607677D01*
X197141658Y-65695257D01*
X197025257Y-65811658D01*
X196937677Y-65951042D01*
X196883308Y-66106419D01*
X196864877Y-66270000D01*
X183919977Y-66270000D01*
X183956691Y-66165079D01*
X183975122Y-66001499D01*
X183956691Y-65837919D01*
X183947502Y-65811659D01*
X183902322Y-65682541D01*
X183814742Y-65543157D01*
X183698341Y-65426756D01*
X183558957Y-65339176D01*
X183403580Y-65284807D01*
X183240000Y-65266376D01*
X183076419Y-65284807D01*
X182921042Y-65339176D01*
X182781658Y-65426756D01*
X182665257Y-65543157D01*
X182577677Y-65682541D01*
X182523308Y-65837918D01*
X182504877Y-66001498D01*
X156780749Y-66001498D01*
X156795565Y-65870000D01*
X156775368Y-65690745D01*
X156715789Y-65520478D01*
X156619816Y-65367738D01*
X156619815Y-65367737D01*
X156619814Y-65367735D01*
X156492264Y-65240185D01*
X156339525Y-65144213D01*
X156339522Y-65144211D01*
X156169255Y-65084632D01*
X156169253Y-65084631D01*
X156169251Y-65084631D01*
X155990000Y-65064434D01*
X155810748Y-65084631D01*
X155810745Y-65084631D01*
X155810745Y-65084632D01*
X155640478Y-65144211D01*
X155640476Y-65144211D01*
X155640476Y-65144212D01*
X155495972Y-65235010D01*
X155430000Y-65254016D01*
X155364028Y-65235010D01*
X155219525Y-65144213D01*
X155219522Y-65144211D01*
X155049255Y-65084632D01*
X155049253Y-65084631D01*
X155049251Y-65084631D01*
X154870000Y-65064434D01*
X154690748Y-65084631D01*
X154690745Y-65084631D01*
X154690745Y-65084632D01*
X154520478Y-65144211D01*
X154520477Y-65144211D01*
X154520473Y-65144213D01*
X154465971Y-65178459D01*
X154400000Y-65197465D01*
X154334029Y-65178459D01*
X154279526Y-65144213D01*
X154279524Y-65144212D01*
X154279522Y-65144211D01*
X154109255Y-65084632D01*
X154109253Y-65084631D01*
X154109251Y-65084631D01*
X153929999Y-65064434D01*
X153793347Y-65079831D01*
X153738509Y-65073652D01*
X153691782Y-65044292D01*
X153662422Y-64997565D01*
X153656244Y-64942727D01*
X153664001Y-64873884D01*
X153665565Y-64860000D01*
X153645368Y-64680745D01*
X153607843Y-64573507D01*
X153603994Y-64504961D01*
X153637201Y-64444876D01*
X153749816Y-64332262D01*
X153845789Y-64179522D01*
X153905368Y-64009255D01*
X153925565Y-63830000D01*
X153905368Y-63650745D01*
X153845789Y-63480478D01*
X153837765Y-63467708D01*
X153823466Y-63444950D01*
X153805240Y-63392861D01*
X153811419Y-63338023D01*
X153840776Y-63291300D01*
X153859816Y-63272262D01*
X153955789Y-63119522D01*
X154015368Y-62949255D01*
X154035565Y-62770000D01*
X154015368Y-62590745D01*
X153955789Y-62420478D01*
X153917787Y-62359999D01*
X154444434Y-62359999D01*
X154464631Y-62539251D01*
X154464631Y-62539253D01*
X154464632Y-62539255D01*
X154524211Y-62709522D01*
X154524212Y-62709523D01*
X154620185Y-62862264D01*
X154747735Y-62989814D01*
X154747737Y-62989815D01*
X154747738Y-62989816D01*
X154900478Y-63085789D01*
X155070745Y-63145368D01*
X155250000Y-63165565D01*
X155429255Y-63145368D01*
X155599522Y-63085789D01*
X155752262Y-62989816D01*
X155879816Y-62862262D01*
X155975789Y-62709522D01*
X156035368Y-62539255D01*
X156055565Y-62360000D01*
X156035368Y-62180745D01*
X155975789Y-62010478D01*
X155932690Y-61941886D01*
X155913684Y-61875913D01*
X155932689Y-61809944D01*
X155995789Y-61709522D01*
X156055368Y-61539255D01*
X156075565Y-61360000D01*
X156073311Y-61339999D01*
X156055368Y-61180748D01*
X156055368Y-61180745D01*
X155995789Y-61010478D01*
X155899816Y-60857738D01*
X155899815Y-60857737D01*
X155899814Y-60857735D01*
X155772264Y-60730185D01*
X155709867Y-60690979D01*
X155619522Y-60634211D01*
X155449255Y-60574632D01*
X155449253Y-60574631D01*
X155449251Y-60574631D01*
X155270000Y-60554434D01*
X155090748Y-60574631D01*
X155090745Y-60574631D01*
X155090745Y-60574632D01*
X154920478Y-60634211D01*
X154920476Y-60634211D01*
X154920476Y-60634212D01*
X154767735Y-60730185D01*
X154640185Y-60857735D01*
X154583594Y-60947800D01*
X154544211Y-61010478D01*
X154516552Y-61089522D01*
X154484631Y-61180748D01*
X154464434Y-61359999D01*
X154484631Y-61539251D01*
X154484631Y-61539253D01*
X154484632Y-61539255D01*
X154544211Y-61709522D01*
X154544212Y-61709523D01*
X154544213Y-61709526D01*
X154587309Y-61778114D01*
X154606315Y-61844085D01*
X154587309Y-61910056D01*
X154524213Y-62010473D01*
X154524212Y-62010476D01*
X154524211Y-62010478D01*
X154509622Y-62052171D01*
X154464631Y-62180748D01*
X154444434Y-62359999D01*
X153917787Y-62359999D01*
X153859816Y-62267738D01*
X153859815Y-62267737D01*
X153859814Y-62267735D01*
X153732264Y-62140185D01*
X153592190Y-62052171D01*
X153579522Y-62044211D01*
X153409255Y-61984632D01*
X153409253Y-61984631D01*
X153409251Y-61984631D01*
X153230000Y-61964434D01*
X153050748Y-61984631D01*
X153050745Y-61984631D01*
X153050745Y-61984632D01*
X152880478Y-62044211D01*
X152880476Y-62044211D01*
X152880476Y-62044212D01*
X152727735Y-62140185D01*
X152600185Y-62267735D01*
X152532016Y-62376226D01*
X152504211Y-62420478D01*
X152462651Y-62539251D01*
X152444631Y-62590748D01*
X152424434Y-62770000D01*
X152444631Y-62949251D01*
X152444631Y-62949253D01*
X152444632Y-62949255D01*
X152504211Y-63119522D01*
X152504212Y-63119523D01*
X152526533Y-63155047D01*
X152544759Y-63207135D01*
X152538581Y-63261972D01*
X152509222Y-63308699D01*
X152490183Y-63327737D01*
X152394212Y-63480476D01*
X152334631Y-63650748D01*
X152314434Y-63829999D01*
X152334631Y-64009255D01*
X152372155Y-64116490D01*
X152376005Y-64185038D01*
X152342795Y-64245126D01*
X152230185Y-64357735D01*
X152134212Y-64510476D01*
X152134211Y-64510478D01*
X152074632Y-64680745D01*
X152074631Y-64680748D01*
X152052870Y-64873884D01*
X152049494Y-64873503D01*
X152041874Y-64918325D01*
X151996130Y-64969509D01*
X151867736Y-65050184D01*
X151740185Y-65177735D01*
X151672908Y-65284807D01*
X151644211Y-65330478D01*
X151641167Y-65339177D01*
X151584631Y-65500748D01*
X151564434Y-65680000D01*
X151584631Y-65859251D01*
X151584631Y-65859253D01*
X151584632Y-65859255D01*
X151644211Y-66029522D01*
X151644212Y-66029523D01*
X151740183Y-66182262D01*
X151745237Y-66187315D01*
X151777333Y-66242902D01*
X151777334Y-66307090D01*
X151745241Y-66362679D01*
X151700185Y-66407735D01*
X151604212Y-66560476D01*
X151604211Y-66560478D01*
X151577797Y-66635965D01*
X151544631Y-66730748D01*
X151524434Y-66910000D01*
X151544753Y-67090336D01*
X151535417Y-67153274D01*
X151496096Y-67203296D01*
X151437143Y-67227232D01*
X151374080Y-67218780D01*
X151133860Y-67119277D01*
X150885071Y-67059548D01*
X150630000Y-67039474D01*
X150374928Y-67059548D01*
X150126139Y-67119277D01*
X149889755Y-67217192D01*
X149671602Y-67350876D01*
X149477044Y-67517044D01*
X149310876Y-67711602D01*
X149177192Y-67929755D01*
X149079277Y-68166139D01*
X149019548Y-68414928D01*
X148999474Y-68669999D01*
X148999474Y-68670000D01*
X148520500Y-68670000D01*
X148520500Y-62411932D01*
X148524997Y-62385465D01*
X148522128Y-62360000D01*
X148521278Y-62352458D01*
X148520500Y-62338578D01*
X148520500Y-62334211D01*
X148519678Y-62330610D01*
X148519529Y-62329957D01*
X148517199Y-62316251D01*
X148514116Y-62288876D01*
X148514115Y-62288874D01*
X148513480Y-62283237D01*
X148508828Y-62272006D01*
X148504307Y-62266337D01*
X148488113Y-62246030D01*
X148480068Y-62234691D01*
X148477748Y-62230999D01*
X148474655Y-62227906D01*
X148465395Y-62217544D01*
X148444687Y-62191577D01*
X148422788Y-62176039D01*
X147766748Y-61519999D01*
X150994434Y-61519999D01*
X151014631Y-61699251D01*
X151014631Y-61699253D01*
X151014632Y-61699255D01*
X151074211Y-61869522D01*
X151078227Y-61875913D01*
X151170185Y-62022264D01*
X151297735Y-62149814D01*
X151297737Y-62149815D01*
X151297738Y-62149816D01*
X151450478Y-62245789D01*
X151620745Y-62305368D01*
X151800000Y-62325565D01*
X151979255Y-62305368D01*
X152149522Y-62245789D01*
X152302262Y-62149816D01*
X152429816Y-62022262D01*
X152525789Y-61869522D01*
X152585368Y-61699255D01*
X152605565Y-61520000D01*
X152585368Y-61340745D01*
X152525789Y-61170478D01*
X152429816Y-61017738D01*
X152429815Y-61017737D01*
X152429814Y-61017735D01*
X152369759Y-60957680D01*
X152337665Y-60902092D01*
X152337665Y-60837904D01*
X152369758Y-60782319D01*
X152439816Y-60712262D01*
X152535789Y-60559522D01*
X152595368Y-60389255D01*
X152615565Y-60210000D01*
X152595368Y-60030745D01*
X152535789Y-59860478D01*
X152490350Y-59788162D01*
X152471376Y-59724976D01*
X152487497Y-59660998D01*
X152534150Y-59614345D01*
X152598127Y-59598224D01*
X152661317Y-59617199D01*
X152703697Y-59643827D01*
X152770478Y-59685789D01*
X152940745Y-59745368D01*
X153120000Y-59765565D01*
X153299255Y-59745368D01*
X153469522Y-59685789D01*
X153622262Y-59589816D01*
X153672320Y-59539757D01*
X153727906Y-59507665D01*
X153792094Y-59507665D01*
X153847682Y-59539760D01*
X153877736Y-59569815D01*
X153899681Y-59583604D01*
X154030478Y-59665789D01*
X154200745Y-59725368D01*
X154380000Y-59745565D01*
X154559255Y-59725368D01*
X154729522Y-59665789D01*
X154882262Y-59569816D01*
X154882262Y-59569815D01*
X154887872Y-59566291D01*
X154939960Y-59548065D01*
X154994799Y-59554243D01*
X155041525Y-59583604D01*
X155077735Y-59619814D01*
X155077737Y-59619815D01*
X155077738Y-59619816D01*
X155230478Y-59715789D01*
X155400745Y-59775368D01*
X155514323Y-59788165D01*
X155579999Y-59795565D01*
X155579999Y-59795564D01*
X155580000Y-59795565D01*
X155759255Y-59775368D01*
X155929522Y-59715789D01*
X156082262Y-59619816D01*
X156092317Y-59609760D01*
X156147901Y-59577666D01*
X156212091Y-59577665D01*
X156255640Y-59602808D01*
X156255908Y-59602383D01*
X156267271Y-59609523D01*
X156267680Y-59609759D01*
X156267735Y-59609814D01*
X156267737Y-59609815D01*
X156267738Y-59609816D01*
X156420478Y-59705789D01*
X156590745Y-59765368D01*
X156725186Y-59780515D01*
X156769999Y-59785565D01*
X156769999Y-59785564D01*
X156770000Y-59785565D01*
X156949255Y-59765368D01*
X157119522Y-59705789D01*
X157272262Y-59609816D01*
X157307318Y-59574759D01*
X157362906Y-59542665D01*
X157427094Y-59542665D01*
X157482682Y-59574760D01*
X157517736Y-59609815D01*
X157533653Y-59619816D01*
X157670478Y-59705789D01*
X157840745Y-59765368D01*
X157975186Y-59780515D01*
X158019999Y-59785565D01*
X158019999Y-59785564D01*
X158020000Y-59785565D01*
X158199255Y-59765368D01*
X158369522Y-59705789D01*
X158491070Y-59629414D01*
X158557042Y-59610409D01*
X158623014Y-59629415D01*
X158697788Y-59676398D01*
X158760478Y-59715789D01*
X158892414Y-59761955D01*
X158942984Y-59795336D01*
X158971699Y-59848697D01*
X158971700Y-59909293D01*
X158942986Y-59962654D01*
X158892414Y-59996037D01*
X158840479Y-60014210D01*
X158687735Y-60110185D01*
X158560185Y-60237735D01*
X158464212Y-60390476D01*
X158404631Y-60560748D01*
X158384434Y-60739999D01*
X158404631Y-60919251D01*
X158404631Y-60919253D01*
X158404632Y-60919255D01*
X158464211Y-61089522D01*
X158508965Y-61160748D01*
X158560185Y-61242264D01*
X158687735Y-61369814D01*
X158687737Y-61369815D01*
X158687738Y-61369816D01*
X158840478Y-61465789D01*
X159010745Y-61525368D01*
X159190000Y-61545565D01*
X159369255Y-61525368D01*
X159539522Y-61465789D01*
X159692262Y-61369816D01*
X159819816Y-61242262D01*
X159915789Y-61089522D01*
X159975368Y-60919255D01*
X159995565Y-60740000D01*
X159975368Y-60560745D01*
X159915789Y-60390478D01*
X159819816Y-60237738D01*
X159819815Y-60237737D01*
X159819814Y-60237735D01*
X159692264Y-60110185D01*
X159539519Y-60014209D01*
X159407586Y-59968044D01*
X159357014Y-59934662D01*
X159328299Y-59881301D01*
X159328300Y-59820704D01*
X159357015Y-59767343D01*
X159407584Y-59733962D01*
X159459522Y-59715789D01*
X159612262Y-59619816D01*
X159739816Y-59492262D01*
X159774097Y-59437702D01*
X159813118Y-59398681D01*
X159865207Y-59380454D01*
X159920042Y-59386631D01*
X160030745Y-59425368D01*
X160210000Y-59445565D01*
X160389255Y-59425368D01*
X160559522Y-59365789D01*
X160712262Y-59269816D01*
X160839816Y-59142262D01*
X160867836Y-59097668D01*
X160899596Y-59047123D01*
X160938618Y-59008100D01*
X160990706Y-58989874D01*
X161045542Y-58996051D01*
X161100745Y-59015368D01*
X161280000Y-59035565D01*
X161459255Y-59015368D01*
X161629522Y-58955789D01*
X161782262Y-58859816D01*
X161812264Y-58829814D01*
X161857319Y-58784760D01*
X161912906Y-58752666D01*
X161977094Y-58752666D01*
X162032681Y-58784760D01*
X162077735Y-58829814D01*
X162077737Y-58829815D01*
X162077738Y-58829816D01*
X162230478Y-58925789D01*
X162400745Y-58985368D01*
X162580000Y-59005565D01*
X162759255Y-58985368D01*
X162929522Y-58925789D01*
X163082262Y-58829816D01*
X163132320Y-58779757D01*
X163187906Y-58747665D01*
X163252094Y-58747665D01*
X163307679Y-58779757D01*
X163387738Y-58859816D01*
X163492733Y-58925789D01*
X163540480Y-58955790D01*
X163558721Y-58962173D01*
X163605447Y-58991533D01*
X163634808Y-59038259D01*
X163640986Y-59093097D01*
X163624434Y-59239999D01*
X163644631Y-59419251D01*
X163644631Y-59419253D01*
X163644632Y-59419255D01*
X163704211Y-59589522D01*
X163732590Y-59634687D01*
X163800185Y-59742264D01*
X163823949Y-59766028D01*
X163853309Y-59812754D01*
X163859488Y-59867592D01*
X163841262Y-59919680D01*
X163784213Y-60010474D01*
X163784212Y-60010475D01*
X163784211Y-60010478D01*
X163749322Y-60110185D01*
X163724631Y-60180748D01*
X163704434Y-60360000D01*
X163724631Y-60539251D01*
X163724631Y-60539253D01*
X163724632Y-60539255D01*
X163784211Y-60709522D01*
X163823669Y-60772319D01*
X163851026Y-60815857D01*
X163870032Y-60881828D01*
X163851027Y-60947800D01*
X163824211Y-60990477D01*
X163764631Y-61160748D01*
X163744434Y-61339999D01*
X163764631Y-61519251D01*
X163764631Y-61519253D01*
X163764632Y-61519255D01*
X163824211Y-61689522D01*
X163853838Y-61736673D01*
X163920185Y-61842264D01*
X164047735Y-61969814D01*
X164047737Y-61969815D01*
X164047738Y-61969816D01*
X164200478Y-62065789D01*
X164370745Y-62125368D01*
X164550000Y-62145565D01*
X164729255Y-62125368D01*
X164899522Y-62065789D01*
X165052262Y-61969816D01*
X165179816Y-61842262D01*
X165275789Y-61689522D01*
X165335368Y-61519255D01*
X165355565Y-61340000D01*
X165335368Y-61160745D01*
X165275789Y-60990478D01*
X165208973Y-60884141D01*
X165189967Y-60818168D01*
X165208972Y-60752199D01*
X165235789Y-60709522D01*
X165295368Y-60539255D01*
X165315565Y-60360000D01*
X165295368Y-60180745D01*
X165235789Y-60010478D01*
X165139816Y-59857738D01*
X165139815Y-59857737D01*
X165139814Y-59857735D01*
X165116050Y-59833971D01*
X165086689Y-59787244D01*
X165080511Y-59732406D01*
X165098737Y-59680319D01*
X165155789Y-59589522D01*
X165215368Y-59419255D01*
X165235565Y-59240000D01*
X165215368Y-59060745D01*
X165155789Y-58890478D01*
X165059816Y-58737738D01*
X165059815Y-58737737D01*
X165059814Y-58737735D01*
X164932264Y-58610185D01*
X164779521Y-58514210D01*
X164761276Y-58507826D01*
X164714550Y-58478465D01*
X164685191Y-58431738D01*
X164679013Y-58376901D01*
X164679143Y-58375755D01*
X164695565Y-58230000D01*
X164675368Y-58050745D01*
X164615789Y-57880478D01*
X164519816Y-57727738D01*
X164519815Y-57727737D01*
X164519814Y-57727735D01*
X164392264Y-57600185D01*
X164305809Y-57545862D01*
X164239522Y-57504211D01*
X164069255Y-57444632D01*
X164069253Y-57444631D01*
X164069251Y-57444631D01*
X163889999Y-57424434D01*
X163710748Y-57444631D01*
X163710745Y-57444631D01*
X163710745Y-57444632D01*
X163540478Y-57504211D01*
X163540476Y-57504211D01*
X163540476Y-57504212D01*
X163387735Y-57600185D01*
X163337681Y-57650240D01*
X163282094Y-57682334D01*
X163217906Y-57682334D01*
X163162319Y-57650240D01*
X163082264Y-57570185D01*
X162977268Y-57504212D01*
X162929522Y-57474211D01*
X162759255Y-57414632D01*
X162759253Y-57414631D01*
X162759251Y-57414631D01*
X162580000Y-57394434D01*
X162400748Y-57414631D01*
X162400745Y-57414631D01*
X162400745Y-57414632D01*
X162230478Y-57474211D01*
X162230476Y-57474211D01*
X162230476Y-57474212D01*
X162077738Y-57570183D01*
X162002680Y-57645241D01*
X161947092Y-57677334D01*
X161882904Y-57677334D01*
X161827317Y-57645239D01*
X161782263Y-57600184D01*
X161632052Y-57505801D01*
X161629522Y-57504211D01*
X161459255Y-57444632D01*
X161459253Y-57444631D01*
X161459251Y-57444631D01*
X161279999Y-57424434D01*
X161100748Y-57444631D01*
X161100745Y-57444631D01*
X161100745Y-57444632D01*
X160930478Y-57504211D01*
X160930476Y-57504211D01*
X160930476Y-57504212D01*
X160777735Y-57600185D01*
X160650183Y-57727737D01*
X160590402Y-57822878D01*
X160551381Y-57861899D01*
X160499293Y-57880125D01*
X160444455Y-57873947D01*
X160389253Y-57854631D01*
X160210000Y-57834434D01*
X160030748Y-57854631D01*
X160030745Y-57854631D01*
X160030745Y-57854632D01*
X159860478Y-57914211D01*
X159860476Y-57914211D01*
X159860476Y-57914212D01*
X159707738Y-58010183D01*
X159580182Y-58137740D01*
X159545901Y-58192298D01*
X159506879Y-58231319D01*
X159454791Y-58249545D01*
X159399954Y-58243367D01*
X159289252Y-58204631D01*
X159109999Y-58184434D01*
X158930748Y-58204631D01*
X158930745Y-58204631D01*
X158930745Y-58204632D01*
X158760478Y-58264211D01*
X158760477Y-58264211D01*
X158760473Y-58264213D01*
X158638928Y-58340584D01*
X158572957Y-58359590D01*
X158506986Y-58340584D01*
X158369525Y-58254213D01*
X158369522Y-58254211D01*
X158199255Y-58194632D01*
X158199253Y-58194631D01*
X158199251Y-58194631D01*
X158019999Y-58174434D01*
X157840748Y-58194631D01*
X157840745Y-58194631D01*
X157840745Y-58194632D01*
X157670478Y-58254211D01*
X157670476Y-58254211D01*
X157670476Y-58254212D01*
X157517735Y-58350185D01*
X157482681Y-58385240D01*
X157427094Y-58417334D01*
X157362906Y-58417334D01*
X157307319Y-58385240D01*
X157272264Y-58350185D01*
X157135438Y-58264212D01*
X157119522Y-58254211D01*
X156949255Y-58194632D01*
X156949253Y-58194631D01*
X156949251Y-58194631D01*
X156769999Y-58174434D01*
X156590748Y-58194631D01*
X156590745Y-58194631D01*
X156590745Y-58194632D01*
X156420478Y-58254211D01*
X156420476Y-58254211D01*
X156420476Y-58254212D01*
X156267735Y-58350185D01*
X156257681Y-58360240D01*
X156202094Y-58392334D01*
X156137906Y-58392334D01*
X156094359Y-58367191D01*
X156094092Y-58367617D01*
X156082719Y-58360471D01*
X156082319Y-58360240D01*
X156082264Y-58360185D01*
X156002689Y-58310185D01*
X155929522Y-58264211D01*
X155759255Y-58204632D01*
X155759253Y-58204631D01*
X155759251Y-58204631D01*
X155579999Y-58184434D01*
X155400748Y-58204631D01*
X155400745Y-58204631D01*
X155400745Y-58204632D01*
X155230478Y-58264211D01*
X155230477Y-58264211D01*
X155230473Y-58264213D01*
X155072126Y-58363708D01*
X155020038Y-58381934D01*
X154965200Y-58375755D01*
X154918474Y-58346395D01*
X154882264Y-58310185D01*
X154793183Y-58254212D01*
X154729522Y-58214211D01*
X154559255Y-58154632D01*
X154559253Y-58154631D01*
X154559251Y-58154631D01*
X154380000Y-58134434D01*
X154200748Y-58154631D01*
X154200745Y-58154631D01*
X154200745Y-58154632D01*
X154030478Y-58214211D01*
X154030476Y-58214211D01*
X154030476Y-58214212D01*
X153877738Y-58310183D01*
X153827680Y-58360241D01*
X153772091Y-58392334D01*
X153707904Y-58392333D01*
X153652317Y-58360239D01*
X153622263Y-58330184D01*
X153485438Y-58244212D01*
X153469522Y-58234211D01*
X153299255Y-58174632D01*
X153299253Y-58174631D01*
X153299251Y-58174631D01*
X153119999Y-58154434D01*
X152940748Y-58174631D01*
X152940745Y-58174631D01*
X152940745Y-58174632D01*
X152770478Y-58234211D01*
X152770476Y-58234211D01*
X152770476Y-58234212D01*
X152617735Y-58330185D01*
X152602681Y-58345240D01*
X152547094Y-58377334D01*
X152482906Y-58377334D01*
X152427319Y-58345240D01*
X152422264Y-58340185D01*
X152301353Y-58264212D01*
X152269522Y-58244211D01*
X152099255Y-58184632D01*
X152099253Y-58184631D01*
X152099251Y-58184631D01*
X151919999Y-58164434D01*
X151740748Y-58184631D01*
X151740745Y-58184631D01*
X151740745Y-58184632D01*
X151570478Y-58244211D01*
X151570476Y-58244211D01*
X151570476Y-58244212D01*
X151417735Y-58340185D01*
X151290185Y-58467735D01*
X151194212Y-58620476D01*
X151194211Y-58620478D01*
X151138476Y-58779759D01*
X151134631Y-58790748D01*
X151114434Y-58970000D01*
X151134631Y-59149251D01*
X151134631Y-59149253D01*
X151134632Y-59149255D01*
X151194211Y-59319522D01*
X151260719Y-59425368D01*
X151285991Y-59465589D01*
X151304217Y-59517677D01*
X151298039Y-59572515D01*
X151268679Y-59619242D01*
X151180183Y-59707738D01*
X151084212Y-59860476D01*
X151084211Y-59860478D01*
X151024632Y-60030745D01*
X151024631Y-60030748D01*
X151004434Y-60209999D01*
X151024631Y-60389251D01*
X151024631Y-60389253D01*
X151024632Y-60389255D01*
X151084211Y-60559522D01*
X151131141Y-60634211D01*
X151180185Y-60712264D01*
X151240240Y-60772319D01*
X151272334Y-60827906D01*
X151272334Y-60892094D01*
X151240240Y-60947681D01*
X151170185Y-61017735D01*
X151074212Y-61170476D01*
X151074211Y-61170478D01*
X151049093Y-61242262D01*
X151014631Y-61340748D01*
X150994434Y-61519999D01*
X147766748Y-61519999D01*
X143580019Y-57333270D01*
X143553139Y-57293042D01*
X143543700Y-57245589D01*
X143543700Y-52635158D01*
X143544964Y-52628402D01*
X143544545Y-52609764D01*
X143544546Y-52609762D01*
X143543730Y-52573534D01*
X143543700Y-52570747D01*
X143543700Y-52567045D01*
X143543711Y-52565371D01*
X143546247Y-52377502D01*
X145616857Y-52377502D01*
X145631030Y-52631972D01*
X145681324Y-52881817D01*
X145762896Y-53111209D01*
X145766716Y-53121951D01*
X145885460Y-53347462D01*
X146035131Y-53553746D01*
X146212674Y-53736594D01*
X146266453Y-53778084D01*
X146414458Y-53892267D01*
X146414461Y-53892268D01*
X146414464Y-53892271D01*
X146636382Y-54017599D01*
X146873896Y-54110020D01*
X147122158Y-54167647D01*
X147225106Y-54176436D01*
X147241002Y-54178992D01*
X147241751Y-54178998D01*
X147241752Y-54178999D01*
X147252011Y-54179092D01*
X147261412Y-54179535D01*
X147288865Y-54181877D01*
X147288865Y-54181876D01*
X147296946Y-54182566D01*
X147316166Y-54179675D01*
X149951503Y-54203639D01*
X149954351Y-54204221D01*
X149976475Y-54204221D01*
X150014875Y-54204221D01*
X150016008Y-54204226D01*
X150037128Y-54204419D01*
X150037130Y-54204418D01*
X150048486Y-54204522D01*
X150051662Y-54204178D01*
X150145132Y-54204181D01*
X150400061Y-54167533D01*
X150647179Y-54094978D01*
X150881456Y-53987992D01*
X151098122Y-53848754D01*
X151292767Y-53680097D01*
X151461428Y-53485456D01*
X151600672Y-53268793D01*
X151707663Y-53034519D01*
X151780224Y-52787402D01*
X151816878Y-52532475D01*
X151816878Y-52428774D01*
X221839158Y-52428774D01*
X221872000Y-52683200D01*
X221941070Y-52930259D01*
X222044937Y-53164826D01*
X222181441Y-53382027D01*
X222269895Y-53485913D01*
X222347748Y-53577349D01*
X222540404Y-53746739D01*
X222755407Y-53886677D01*
X222988292Y-53994258D01*
X223234223Y-54067246D01*
X223488091Y-54104127D01*
X223614236Y-54104219D01*
X223615621Y-54104228D01*
X227401399Y-54153394D01*
X227405416Y-54154221D01*
X227426475Y-54154221D01*
X227464319Y-54154221D01*
X227465935Y-54154231D01*
X227486347Y-54154498D01*
X227486348Y-54154497D01*
X227496735Y-54154633D01*
X227501015Y-54154178D01*
X227595132Y-54154181D01*
X227850061Y-54117533D01*
X228097179Y-54044978D01*
X228331456Y-53937992D01*
X228548122Y-53798754D01*
X228742767Y-53630097D01*
X228911428Y-53435456D01*
X229050672Y-53218793D01*
X229157663Y-52984519D01*
X229230224Y-52737402D01*
X229266878Y-52482475D01*
X229266878Y-52224925D01*
X229230224Y-51969998D01*
X229157663Y-51722881D01*
X229104167Y-51605743D01*
X229050674Y-51488610D01*
X228979810Y-51378346D01*
X228911428Y-51271944D01*
X228742767Y-51077303D01*
X228548122Y-50908646D01*
X228331456Y-50769408D01*
X228331451Y-50769405D01*
X228331450Y-50769405D01*
X228148234Y-50685737D01*
X228097179Y-50662422D01*
X227850061Y-50589867D01*
X227850059Y-50589866D01*
X227850057Y-50589866D01*
X227595132Y-50553219D01*
X227501841Y-50553220D01*
X227501776Y-50553214D01*
X227464800Y-50553221D01*
X227464777Y-50553222D01*
X227464775Y-50553222D01*
X227401999Y-50553223D01*
X227401941Y-50553235D01*
X223672788Y-50554013D01*
X223668919Y-50553953D01*
X223544495Y-50550095D01*
X223289580Y-50578901D01*
X223041457Y-50644050D01*
X222805275Y-50744187D01*
X222585942Y-50877231D01*
X222388006Y-51040425D01*
X222215582Y-51230375D01*
X222072259Y-51443130D01*
X221961001Y-51674282D01*
X221884127Y-51919025D01*
X221843228Y-52172280D01*
X221839158Y-52428774D01*
X151816878Y-52428774D01*
X151816878Y-52274925D01*
X151780224Y-52019998D01*
X151707663Y-51772881D01*
X151620077Y-51581097D01*
X151600674Y-51538610D01*
X151568538Y-51488607D01*
X151461428Y-51321944D01*
X151292767Y-51127303D01*
X151098122Y-50958646D01*
X150881456Y-50819408D01*
X150881451Y-50819405D01*
X150881450Y-50819405D01*
X150647183Y-50712424D01*
X150647184Y-50712424D01*
X150647179Y-50712422D01*
X150400061Y-50639867D01*
X150400059Y-50639866D01*
X150400057Y-50639866D01*
X150145132Y-50603219D01*
X150051324Y-50603220D01*
X150048404Y-50602906D01*
X150015980Y-50603216D01*
X150014801Y-50603222D01*
X149954518Y-50603223D01*
X149951535Y-50603831D01*
X147371404Y-50628468D01*
X147359125Y-50626425D01*
X147312523Y-50628913D01*
X147307098Y-50629083D01*
X147286769Y-50629277D01*
X147276572Y-50630751D01*
X147178192Y-50636014D01*
X146928231Y-50685735D01*
X146687904Y-50770574D01*
X146462120Y-50888799D01*
X146255492Y-51037996D01*
X146072236Y-51215120D01*
X145916099Y-51416549D01*
X145790260Y-51638181D01*
X145697292Y-51875484D01*
X145639097Y-52123610D01*
X145616857Y-52377502D01*
X143546247Y-52377502D01*
X143547200Y-52306890D01*
X143549701Y-52121636D01*
X143550140Y-52112769D01*
X143588037Y-51670580D01*
X143589118Y-51661722D01*
X143616608Y-51488607D01*
X143658725Y-51223382D01*
X143660440Y-51214636D01*
X143761392Y-50782465D01*
X143763718Y-50773906D01*
X143895513Y-50350056D01*
X143898446Y-50341697D01*
X144060382Y-49928438D01*
X144063925Y-49920275D01*
X144255160Y-49519751D01*
X144259265Y-49511894D01*
X144478826Y-49126139D01*
X144483493Y-49118587D01*
X144730217Y-48749651D01*
X144735417Y-48742450D01*
X145008047Y-48392206D01*
X145013754Y-48385395D01*
X145310869Y-48055670D01*
X145317043Y-48049296D01*
X145551981Y-47823580D01*
X145591256Y-47798103D01*
X145637178Y-47789003D01*
X149976630Y-47764224D01*
X149977339Y-47764222D01*
X185513772Y-47764222D01*
X185558952Y-47764222D01*
X186870610Y-47764222D01*
X186915790Y-47764222D01*
X196421010Y-47764222D01*
X196466190Y-47764222D01*
X197578772Y-47764222D01*
X197623952Y-47764222D01*
X223001066Y-47764222D01*
X228288992Y-47778803D01*
G37*
%TD.AperFunction*%
%TD*%
M02*
