%TF.GenerationSoftware,KiCad,Pcbnew,7.0.5*%
%TF.CreationDate,2023-08-02T13:43:56-07:00*%
%TF.ProjectId,flight_computer_dev_board_rfm98pw,666c6967-6874-45f6-936f-6d7075746572,rev?*%
%TF.SameCoordinates,Original*%
%TF.FileFunction,Soldermask,Top*%
%TF.FilePolarity,Negative*%
%FSLAX46Y46*%
G04 Gerber Fmt 4.6, Leading zero omitted, Abs format (unit mm)*
G04 Created by KiCad (PCBNEW 7.0.5) date 2023-08-02 13:43:56*
%MOMM*%
%LPD*%
G01*
G04 APERTURE LIST*
G04 Aperture macros list*
%AMRoundRect*
0 Rectangle with rounded corners*
0 $1 Rounding radius*
0 $2 $3 $4 $5 $6 $7 $8 $9 X,Y pos of 4 corners*
0 Add a 4 corners polygon primitive as box body*
4,1,4,$2,$3,$4,$5,$6,$7,$8,$9,$2,$3,0*
0 Add four circle primitives for the rounded corners*
1,1,$1+$1,$2,$3*
1,1,$1+$1,$4,$5*
1,1,$1+$1,$6,$7*
1,1,$1+$1,$8,$9*
0 Add four rect primitives between the rounded corners*
20,1,$1+$1,$2,$3,$4,$5,0*
20,1,$1+$1,$4,$5,$6,$7,0*
20,1,$1+$1,$6,$7,$8,$9,0*
20,1,$1+$1,$8,$9,$2,$3,0*%
%AMRotRect*
0 Rectangle, with rotation*
0 The origin of the aperture is its center*
0 $1 length*
0 $2 width*
0 $3 Rotation angle, in degrees counterclockwise*
0 Add horizontal line*
21,1,$1,$2,0,0,$3*%
%AMFreePoly0*
4,1,19,0.499999,-0.750000,0.000000,-0.750000,0.000000,-0.744912,-0.071157,-0.744911,-0.207708,-0.704816,-0.327430,-0.627875,-0.420627,-0.520320,-0.479746,-0.390866,-0.500000,-0.250000,-0.500000,0.250000,-0.479746,0.390866,-0.420627,0.520320,-0.327430,0.627875,-0.207708,0.704816,-0.071157,0.744911,0.000000,0.744912,0.000000,0.750000,0.499999,0.750000,0.499999,-0.750000,0.499999,-0.750000,
$1*%
%AMFreePoly1*
4,1,19,0.000000,0.744912,0.071157,0.744911,0.207708,0.704816,0.327430,0.627875,0.420627,0.520320,0.479746,0.390866,0.500000,0.250000,0.500000,-0.250000,0.479746,-0.390866,0.420627,-0.520320,0.327430,-0.627875,0.207708,-0.704816,0.071157,-0.744911,0.000000,-0.744912,0.000000,-0.750000,-0.499999,-0.750000,-0.499999,0.750000,0.000000,0.750000,0.000000,0.744912,0.000000,0.744912,
$1*%
%AMFreePoly2*
4,1,19,0.550000,-0.750000,0.000000,-0.750000,0.000000,-0.744911,-0.071157,-0.744911,-0.207708,-0.704816,-0.327430,-0.627875,-0.420627,-0.520320,-0.479746,-0.390866,-0.500000,-0.250000,-0.500000,0.250000,-0.479746,0.390866,-0.420627,0.520320,-0.327430,0.627875,-0.207708,0.704816,-0.071157,0.744911,0.000000,0.744911,0.000000,0.750000,0.550000,0.750000,0.550000,-0.750000,0.550000,-0.750000,
$1*%
%AMFreePoly3*
4,1,19,0.000000,0.744911,0.071157,0.744911,0.207708,0.704816,0.327430,0.627875,0.420627,0.520320,0.479746,0.390866,0.500000,0.250000,0.500000,-0.250000,0.479746,-0.390866,0.420627,-0.520320,0.327430,-0.627875,0.207708,-0.704816,0.071157,-0.744911,0.000000,-0.744911,0.000000,-0.750000,-0.550000,-0.750000,-0.550000,0.750000,0.000000,0.750000,0.000000,0.744911,0.000000,0.744911,
$1*%
G04 Aperture macros list end*
%ADD10C,0.200000*%
%ADD11C,0.150000*%
%ADD12C,0.500000*%
%ADD13C,0.250000*%
%ADD14RoundRect,0.075000X-0.437500X-0.075000X0.437500X-0.075000X0.437500X0.075000X-0.437500X0.075000X0*%
%ADD15RoundRect,0.075000X-0.075000X-0.437500X0.075000X-0.437500X0.075000X0.437500X-0.075000X0.437500X0*%
%ADD16R,4.250000X4.250000*%
%ADD17RoundRect,0.200000X-0.275000X0.200000X-0.275000X-0.200000X0.275000X-0.200000X0.275000X0.200000X0*%
%ADD18FreePoly0,225.000000*%
%ADD19FreePoly1,225.000000*%
%ADD20RoundRect,0.140000X0.140000X0.170000X-0.140000X0.170000X-0.140000X-0.170000X0.140000X-0.170000X0*%
%ADD21RoundRect,0.140000X-0.140000X-0.170000X0.140000X-0.170000X0.140000X0.170000X-0.140000X0.170000X0*%
%ADD22R,1.000000X1.150000*%
%ADD23RoundRect,0.150000X-0.512500X-0.150000X0.512500X-0.150000X0.512500X0.150000X-0.512500X0.150000X0*%
%ADD24C,2.000000*%
%ADD25RoundRect,0.200000X0.200000X0.275000X-0.200000X0.275000X-0.200000X-0.275000X0.200000X-0.275000X0*%
%ADD26RoundRect,0.200000X-0.200000X-0.275000X0.200000X-0.275000X0.200000X0.275000X-0.200000X0.275000X0*%
%ADD27RoundRect,0.200000X0.275000X-0.200000X0.275000X0.200000X-0.275000X0.200000X-0.275000X-0.200000X0*%
%ADD28FreePoly2,180.000000*%
%ADD29R,1.000000X1.500000*%
%ADD30FreePoly3,180.000000*%
%ADD31RoundRect,0.150000X-0.150000X-0.625000X0.150000X-0.625000X0.150000X0.625000X-0.150000X0.625000X0*%
%ADD32RoundRect,0.250000X-0.350000X-0.650000X0.350000X-0.650000X0.350000X0.650000X-0.350000X0.650000X0*%
%ADD33R,0.600000X1.550000*%
%ADD34R,1.200000X1.800000*%
%ADD35RoundRect,0.150000X0.150000X-0.512500X0.150000X0.512500X-0.150000X0.512500X-0.150000X-0.512500X0*%
%ADD36RoundRect,0.225000X-0.250000X0.225000X-0.250000X-0.225000X0.250000X-0.225000X0.250000X0.225000X0*%
%ADD37RoundRect,0.225000X0.250000X-0.225000X0.250000X0.225000X-0.250000X0.225000X-0.250000X-0.225000X0*%
%ADD38RoundRect,0.218750X0.026517X-0.335876X0.335876X-0.026517X-0.026517X0.335876X-0.335876X0.026517X0*%
%ADD39RotRect,0.800000X0.500000X135.000000*%
%ADD40RotRect,0.800000X0.400000X135.000000*%
%ADD41RoundRect,0.140000X-0.021213X0.219203X-0.219203X0.021213X0.021213X-0.219203X0.219203X-0.021213X0*%
%ADD42RoundRect,0.135000X0.185000X-0.135000X0.185000X0.135000X-0.185000X0.135000X-0.185000X-0.135000X0*%
%ADD43C,2.050000*%
%ADD44C,2.250000*%
%ADD45R,2.000000X1.500000*%
%ADD46R,2.000000X3.800000*%
%ADD47R,1.550000X0.600000*%
%ADD48R,1.800000X1.200000*%
%ADD49RoundRect,0.250000X0.159099X-0.512652X0.512652X-0.159099X-0.159099X0.512652X-0.512652X0.159099X0*%
%ADD50RoundRect,0.140000X0.021213X-0.219203X0.219203X-0.021213X-0.021213X0.219203X-0.219203X0.021213X0*%
%ADD51RoundRect,0.250000X0.512652X0.159099X0.159099X0.512652X-0.512652X-0.159099X-0.159099X-0.512652X0*%
%ADD52RoundRect,0.218750X0.218750X0.256250X-0.218750X0.256250X-0.218750X-0.256250X0.218750X-0.256250X0*%
%ADD53RoundRect,0.200000X-0.335876X-0.053033X-0.053033X-0.335876X0.335876X0.053033X0.053033X0.335876X0*%
%ADD54RoundRect,0.218750X-0.218750X-0.256250X0.218750X-0.256250X0.218750X0.256250X-0.218750X0.256250X0*%
%ADD55RoundRect,0.225000X-0.017678X0.335876X-0.335876X0.017678X0.017678X-0.335876X0.335876X-0.017678X0*%
%ADD56RoundRect,0.050800X-0.450000X-0.450000X0.450000X-0.450000X0.450000X0.450000X-0.450000X0.450000X0*%
%ADD57RoundRect,0.140000X-0.170000X0.140000X-0.170000X-0.140000X0.170000X-0.140000X0.170000X0.140000X0*%
%ADD58RoundRect,0.225000X0.017678X-0.335876X0.335876X-0.017678X-0.017678X0.335876X-0.335876X0.017678X0*%
%ADD59RotRect,1.400000X1.200000X315.000000*%
%ADD60RoundRect,0.135000X-0.035355X0.226274X-0.226274X0.035355X0.035355X-0.226274X0.226274X-0.035355X0*%
%ADD61RoundRect,0.225000X-0.335876X-0.017678X-0.017678X-0.335876X0.335876X0.017678X0.017678X0.335876X0*%
%ADD62RoundRect,0.200000X0.053033X-0.335876X0.335876X-0.053033X-0.053033X0.335876X-0.335876X0.053033X0*%
%ADD63RotRect,1.150000X1.000000X315.000000*%
%ADD64RoundRect,0.140000X0.219203X0.021213X0.021213X0.219203X-0.219203X-0.021213X-0.021213X-0.219203X0*%
%ADD65FreePoly0,0.000000*%
%ADD66FreePoly1,0.000000*%
%ADD67C,5.000000*%
%ADD68RoundRect,0.200000X0.335876X0.053033X0.053033X0.335876X-0.335876X-0.053033X-0.053033X-0.335876X0*%
%ADD69RoundRect,0.063500X1.000000X0.650000X-1.000000X0.650000X-1.000000X-0.650000X1.000000X-0.650000X0*%
%ADD70RoundRect,0.063500X2.849999X2.400000X-2.849999X2.400000X-2.849999X-2.400000X2.849999X-2.400000X0*%
%ADD71RoundRect,0.087500X-0.225000X-0.087500X0.225000X-0.087500X0.225000X0.087500X-0.225000X0.087500X0*%
%ADD72RoundRect,0.087500X-0.087500X-0.225000X0.087500X-0.225000X0.087500X0.225000X-0.087500X0.225000X0*%
%ADD73RoundRect,0.150000X-0.565685X0.353553X0.353553X-0.565685X0.565685X-0.353553X-0.353553X0.565685X0*%
%ADD74RoundRect,0.140000X-0.219203X-0.021213X-0.021213X-0.219203X0.219203X0.021213X0.021213X0.219203X0*%
%ADD75R,1.500000X0.900000*%
%ADD76RoundRect,0.125000X-0.125000X-0.125000X0.125000X-0.125000X0.125000X0.125000X-0.125000X0.125000X0*%
%ADD77RoundRect,0.125000X0.000000X-0.176777X0.176777X0.000000X0.000000X0.176777X-0.176777X0.000000X0*%
%ADD78R,0.850000X1.100000*%
%ADD79R,0.750000X1.100000*%
%ADD80R,1.200000X1.000000*%
%ADD81R,1.550000X1.350000*%
%ADD82R,1.900000X1.350000*%
%ADD83R,1.170000X1.800000*%
%ADD84RoundRect,0.150000X0.625000X-0.150000X0.625000X0.150000X-0.625000X0.150000X-0.625000X-0.150000X0*%
%ADD85RoundRect,0.250000X0.650000X-0.350000X0.650000X0.350000X-0.650000X0.350000X-0.650000X-0.350000X0*%
%ADD86RoundRect,0.050000X-0.309359X0.238649X0.238649X-0.309359X0.309359X-0.238649X-0.238649X0.309359X0*%
%ADD87RoundRect,0.050000X-0.309359X-0.238649X-0.238649X-0.309359X0.309359X0.238649X0.238649X0.309359X0*%
%ADD88RotRect,3.200000X3.200000X315.000000*%
%ADD89RoundRect,0.317500X1.157500X0.317500X-1.157500X0.317500X-1.157500X-0.317500X1.157500X-0.317500X0*%
%ADD90R,0.375000X0.350000*%
%ADD91R,0.350000X0.375000*%
%ADD92RoundRect,0.225000X0.225000X0.250000X-0.225000X0.250000X-0.225000X-0.250000X0.225000X-0.250000X0*%
%ADD93RoundRect,0.150000X0.350000X-0.150000X0.350000X0.150000X-0.350000X0.150000X-0.350000X-0.150000X0*%
%ADD94RoundRect,0.250000X0.650000X-0.375000X0.650000X0.375000X-0.650000X0.375000X-0.650000X-0.375000X0*%
%ADD95RoundRect,0.150000X0.406586X0.618718X-0.618718X-0.406586X-0.406586X-0.618718X0.618718X0.406586X0*%
%ADD96RoundRect,0.200000X-0.053033X0.335876X-0.335876X0.053033X0.053033X-0.335876X0.335876X-0.053033X0*%
%ADD97RoundRect,0.225000X0.335876X0.017678X0.017678X0.335876X-0.335876X-0.017678X-0.017678X-0.335876X0*%
%ADD98R,1.380000X0.450000*%
%ADD99O,2.416000X1.208000*%
%ADD100R,2.100000X1.475000*%
%ADD101R,1.900000X1.375000*%
%ADD102RoundRect,0.075000X-0.415425X-0.521491X0.521491X0.415425X0.415425X0.521491X-0.521491X-0.415425X0*%
%ADD103RoundRect,0.075000X0.415425X-0.521491X0.521491X-0.415425X-0.415425X0.521491X-0.521491X0.415425X0*%
%ADD104R,1.700000X1.700000*%
%ADD105O,1.700000X1.700000*%
%ADD106C,1.000000*%
%ADD107C,2.108200*%
%ADD108C,1.397000*%
%ADD109C,3.251200*%
G04 APERTURE END LIST*
D10*
X187840000Y-52410000D02*
X186360000Y-50930000D01*
D11*
X153291978Y-52405459D02*
G75*
G03*
X153291978Y-52405459I-2692408J0D01*
G01*
D10*
X189040000Y-51820000D02*
X186340000Y-51820000D01*
X186340000Y-51820000D02*
X187190000Y-52670000D01*
X186340000Y-54520000D02*
X189040000Y-54520000D01*
X189040000Y-54520000D02*
X189040000Y-51820000D01*
D11*
X146799570Y-55127504D02*
X150599570Y-55134011D01*
D10*
X189040000Y-54520000D02*
X189890000Y-55370000D01*
X186340000Y-54520000D02*
X186340000Y-51820000D01*
D11*
X223543845Y-55035798D02*
X227343845Y-55042305D01*
X149506967Y-52430757D02*
G75*
G03*
X149506967Y-52430757I-2707397J0D01*
G01*
X230036253Y-52313753D02*
G75*
G03*
X230036253Y-52313753I-2692408J0D01*
G01*
X227393845Y-49635798D02*
X223593845Y-49642305D01*
X150649570Y-49727504D02*
X146849570Y-49734011D01*
D10*
X189890000Y-55370000D02*
X189890000Y-52670000D01*
X189040000Y-51820000D02*
X189890000Y-52670000D01*
X187190000Y-52670000D02*
X187190000Y-55370000D01*
X187190000Y-55370000D02*
X186340000Y-54520000D01*
X189890000Y-52670000D02*
X187190000Y-52670000D01*
X187190000Y-55370000D02*
X189890000Y-55370000D01*
X188520000Y-52390000D02*
X189990000Y-50920000D01*
D11*
X226251242Y-52339051D02*
G75*
G03*
X226251242Y-52339051I-2707397J0D01*
G01*
D12*
X213498571Y-50289714D02*
X213593809Y-50194476D01*
X213593809Y-50194476D02*
X213784285Y-50099238D01*
X213784285Y-50099238D02*
X214260476Y-50099238D01*
X214260476Y-50099238D02*
X214450952Y-50194476D01*
X214450952Y-50194476D02*
X214546190Y-50289714D01*
X214546190Y-50289714D02*
X214641428Y-50480190D01*
X214641428Y-50480190D02*
X214641428Y-50670666D01*
X214641428Y-50670666D02*
X214546190Y-50956380D01*
X214546190Y-50956380D02*
X213403333Y-52099238D01*
X213403333Y-52099238D02*
X214641428Y-52099238D01*
X205367143Y-51481857D02*
X207224286Y-51481857D01*
X207224286Y-51481857D02*
X206224286Y-52624714D01*
X206224286Y-52624714D02*
X206652857Y-52624714D01*
X206652857Y-52624714D02*
X206938572Y-52767571D01*
X206938572Y-52767571D02*
X207081429Y-52910428D01*
X207081429Y-52910428D02*
X207224286Y-53196142D01*
X207224286Y-53196142D02*
X207224286Y-53910428D01*
X207224286Y-53910428D02*
X207081429Y-54196142D01*
X207081429Y-54196142D02*
X206938572Y-54339000D01*
X206938572Y-54339000D02*
X206652857Y-54481857D01*
X206652857Y-54481857D02*
X205795714Y-54481857D01*
X205795714Y-54481857D02*
X205510000Y-54339000D01*
X205510000Y-54339000D02*
X205367143Y-54196142D01*
X208510000Y-54481857D02*
X208510000Y-51481857D01*
X208510000Y-51481857D02*
X209652857Y-51481857D01*
X209652857Y-51481857D02*
X209938572Y-51624714D01*
X209938572Y-51624714D02*
X210081429Y-51767571D01*
X210081429Y-51767571D02*
X210224286Y-52053285D01*
X210224286Y-52053285D02*
X210224286Y-52481857D01*
X210224286Y-52481857D02*
X210081429Y-52767571D01*
X210081429Y-52767571D02*
X209938572Y-52910428D01*
X209938572Y-52910428D02*
X209652857Y-53053285D01*
X209652857Y-53053285D02*
X208510000Y-53053285D01*
X211224286Y-52481857D02*
X211938572Y-54481857D01*
X212652857Y-52481857D02*
X211938572Y-54481857D01*
X211938572Y-54481857D02*
X211652857Y-55196142D01*
X211652857Y-55196142D02*
X211510000Y-55339000D01*
X211510000Y-55339000D02*
X211224286Y-55481857D01*
D11*
X159263922Y-52559819D02*
X159835350Y-52559819D01*
X159549636Y-53559819D02*
X159549636Y-52559819D01*
X160168684Y-53559819D02*
X160168684Y-52559819D01*
X160597255Y-53559819D02*
X160597255Y-53036009D01*
X160597255Y-53036009D02*
X160549636Y-52940771D01*
X160549636Y-52940771D02*
X160454398Y-52893152D01*
X160454398Y-52893152D02*
X160311541Y-52893152D01*
X160311541Y-52893152D02*
X160216303Y-52940771D01*
X160216303Y-52940771D02*
X160168684Y-52988390D01*
X161454398Y-53512200D02*
X161359160Y-53559819D01*
X161359160Y-53559819D02*
X161168684Y-53559819D01*
X161168684Y-53559819D02*
X161073446Y-53512200D01*
X161073446Y-53512200D02*
X161025827Y-53416961D01*
X161025827Y-53416961D02*
X161025827Y-53036009D01*
X161025827Y-53036009D02*
X161073446Y-52940771D01*
X161073446Y-52940771D02*
X161168684Y-52893152D01*
X161168684Y-52893152D02*
X161359160Y-52893152D01*
X161359160Y-52893152D02*
X161454398Y-52940771D01*
X161454398Y-52940771D02*
X161502017Y-53036009D01*
X161502017Y-53036009D02*
X161502017Y-53131247D01*
X161502017Y-53131247D02*
X161025827Y-53226485D01*
X162644875Y-53512200D02*
X162787732Y-53559819D01*
X162787732Y-53559819D02*
X163025827Y-53559819D01*
X163025827Y-53559819D02*
X163121065Y-53512200D01*
X163121065Y-53512200D02*
X163168684Y-53464580D01*
X163168684Y-53464580D02*
X163216303Y-53369342D01*
X163216303Y-53369342D02*
X163216303Y-53274104D01*
X163216303Y-53274104D02*
X163168684Y-53178866D01*
X163168684Y-53178866D02*
X163121065Y-53131247D01*
X163121065Y-53131247D02*
X163025827Y-53083628D01*
X163025827Y-53083628D02*
X162835351Y-53036009D01*
X162835351Y-53036009D02*
X162740113Y-52988390D01*
X162740113Y-52988390D02*
X162692494Y-52940771D01*
X162692494Y-52940771D02*
X162644875Y-52845533D01*
X162644875Y-52845533D02*
X162644875Y-52750295D01*
X162644875Y-52750295D02*
X162692494Y-52655057D01*
X162692494Y-52655057D02*
X162740113Y-52607438D01*
X162740113Y-52607438D02*
X162835351Y-52559819D01*
X162835351Y-52559819D02*
X163073446Y-52559819D01*
X163073446Y-52559819D02*
X163216303Y-52607438D01*
X163644875Y-52893152D02*
X163644875Y-53893152D01*
X163644875Y-52940771D02*
X163740113Y-52893152D01*
X163740113Y-52893152D02*
X163930589Y-52893152D01*
X163930589Y-52893152D02*
X164025827Y-52940771D01*
X164025827Y-52940771D02*
X164073446Y-52988390D01*
X164073446Y-52988390D02*
X164121065Y-53083628D01*
X164121065Y-53083628D02*
X164121065Y-53369342D01*
X164121065Y-53369342D02*
X164073446Y-53464580D01*
X164073446Y-53464580D02*
X164025827Y-53512200D01*
X164025827Y-53512200D02*
X163930589Y-53559819D01*
X163930589Y-53559819D02*
X163740113Y-53559819D01*
X163740113Y-53559819D02*
X163644875Y-53512200D01*
X164978208Y-53559819D02*
X164978208Y-53036009D01*
X164978208Y-53036009D02*
X164930589Y-52940771D01*
X164930589Y-52940771D02*
X164835351Y-52893152D01*
X164835351Y-52893152D02*
X164644875Y-52893152D01*
X164644875Y-52893152D02*
X164549637Y-52940771D01*
X164978208Y-53512200D02*
X164882970Y-53559819D01*
X164882970Y-53559819D02*
X164644875Y-53559819D01*
X164644875Y-53559819D02*
X164549637Y-53512200D01*
X164549637Y-53512200D02*
X164502018Y-53416961D01*
X164502018Y-53416961D02*
X164502018Y-53321723D01*
X164502018Y-53321723D02*
X164549637Y-53226485D01*
X164549637Y-53226485D02*
X164644875Y-53178866D01*
X164644875Y-53178866D02*
X164882970Y-53178866D01*
X164882970Y-53178866D02*
X164978208Y-53131247D01*
X165882970Y-53512200D02*
X165787732Y-53559819D01*
X165787732Y-53559819D02*
X165597256Y-53559819D01*
X165597256Y-53559819D02*
X165502018Y-53512200D01*
X165502018Y-53512200D02*
X165454399Y-53464580D01*
X165454399Y-53464580D02*
X165406780Y-53369342D01*
X165406780Y-53369342D02*
X165406780Y-53083628D01*
X165406780Y-53083628D02*
X165454399Y-52988390D01*
X165454399Y-52988390D02*
X165502018Y-52940771D01*
X165502018Y-52940771D02*
X165597256Y-52893152D01*
X165597256Y-52893152D02*
X165787732Y-52893152D01*
X165787732Y-52893152D02*
X165882970Y-52940771D01*
X166692494Y-53512200D02*
X166597256Y-53559819D01*
X166597256Y-53559819D02*
X166406780Y-53559819D01*
X166406780Y-53559819D02*
X166311542Y-53512200D01*
X166311542Y-53512200D02*
X166263923Y-53416961D01*
X166263923Y-53416961D02*
X166263923Y-53036009D01*
X166263923Y-53036009D02*
X166311542Y-52940771D01*
X166311542Y-52940771D02*
X166406780Y-52893152D01*
X166406780Y-52893152D02*
X166597256Y-52893152D01*
X166597256Y-52893152D02*
X166692494Y-52940771D01*
X166692494Y-52940771D02*
X166740113Y-53036009D01*
X166740113Y-53036009D02*
X166740113Y-53131247D01*
X166740113Y-53131247D02*
X166263923Y-53226485D01*
X167597256Y-53512200D02*
X167502018Y-53559819D01*
X167502018Y-53559819D02*
X167311542Y-53559819D01*
X167311542Y-53559819D02*
X167216304Y-53512200D01*
X167216304Y-53512200D02*
X167168685Y-53464580D01*
X167168685Y-53464580D02*
X167121066Y-53369342D01*
X167121066Y-53369342D02*
X167121066Y-53083628D01*
X167121066Y-53083628D02*
X167168685Y-52988390D01*
X167168685Y-52988390D02*
X167216304Y-52940771D01*
X167216304Y-52940771D02*
X167311542Y-52893152D01*
X167311542Y-52893152D02*
X167502018Y-52893152D01*
X167502018Y-52893152D02*
X167597256Y-52940771D01*
X168025828Y-53559819D02*
X168025828Y-52893152D01*
X168025828Y-53083628D02*
X168073447Y-52988390D01*
X168073447Y-52988390D02*
X168121066Y-52940771D01*
X168121066Y-52940771D02*
X168216304Y-52893152D01*
X168216304Y-52893152D02*
X168311542Y-52893152D01*
X169073447Y-53559819D02*
X169073447Y-53036009D01*
X169073447Y-53036009D02*
X169025828Y-52940771D01*
X169025828Y-52940771D02*
X168930590Y-52893152D01*
X168930590Y-52893152D02*
X168740114Y-52893152D01*
X168740114Y-52893152D02*
X168644876Y-52940771D01*
X169073447Y-53512200D02*
X168978209Y-53559819D01*
X168978209Y-53559819D02*
X168740114Y-53559819D01*
X168740114Y-53559819D02*
X168644876Y-53512200D01*
X168644876Y-53512200D02*
X168597257Y-53416961D01*
X168597257Y-53416961D02*
X168597257Y-53321723D01*
X168597257Y-53321723D02*
X168644876Y-53226485D01*
X168644876Y-53226485D02*
X168740114Y-53178866D01*
X168740114Y-53178866D02*
X168978209Y-53178866D01*
X168978209Y-53178866D02*
X169073447Y-53131247D01*
X169406781Y-52893152D02*
X169787733Y-52893152D01*
X169549638Y-53559819D02*
X169549638Y-52702676D01*
X169549638Y-52702676D02*
X169597257Y-52607438D01*
X169597257Y-52607438D02*
X169692495Y-52559819D01*
X169692495Y-52559819D02*
X169787733Y-52559819D01*
X169978210Y-52893152D02*
X170359162Y-52893152D01*
X170121067Y-52559819D02*
X170121067Y-53416961D01*
X170121067Y-53416961D02*
X170168686Y-53512200D01*
X170168686Y-53512200D02*
X170263924Y-53559819D01*
X170263924Y-53559819D02*
X170359162Y-53559819D01*
X172025829Y-53464580D02*
X171978210Y-53512200D01*
X171978210Y-53512200D02*
X171835353Y-53559819D01*
X171835353Y-53559819D02*
X171740115Y-53559819D01*
X171740115Y-53559819D02*
X171597258Y-53512200D01*
X171597258Y-53512200D02*
X171502020Y-53416961D01*
X171502020Y-53416961D02*
X171454401Y-53321723D01*
X171454401Y-53321723D02*
X171406782Y-53131247D01*
X171406782Y-53131247D02*
X171406782Y-52988390D01*
X171406782Y-52988390D02*
X171454401Y-52797914D01*
X171454401Y-52797914D02*
X171502020Y-52702676D01*
X171502020Y-52702676D02*
X171597258Y-52607438D01*
X171597258Y-52607438D02*
X171740115Y-52559819D01*
X171740115Y-52559819D02*
X171835353Y-52559819D01*
X171835353Y-52559819D02*
X171978210Y-52607438D01*
X171978210Y-52607438D02*
X172025829Y-52655057D01*
X172597258Y-53559819D02*
X172502020Y-53512200D01*
X172502020Y-53512200D02*
X172454401Y-53464580D01*
X172454401Y-53464580D02*
X172406782Y-53369342D01*
X172406782Y-53369342D02*
X172406782Y-53083628D01*
X172406782Y-53083628D02*
X172454401Y-52988390D01*
X172454401Y-52988390D02*
X172502020Y-52940771D01*
X172502020Y-52940771D02*
X172597258Y-52893152D01*
X172597258Y-52893152D02*
X172740115Y-52893152D01*
X172740115Y-52893152D02*
X172835353Y-52940771D01*
X172835353Y-52940771D02*
X172882972Y-52988390D01*
X172882972Y-52988390D02*
X172930591Y-53083628D01*
X172930591Y-53083628D02*
X172930591Y-53369342D01*
X172930591Y-53369342D02*
X172882972Y-53464580D01*
X172882972Y-53464580D02*
X172835353Y-53512200D01*
X172835353Y-53512200D02*
X172740115Y-53559819D01*
X172740115Y-53559819D02*
X172597258Y-53559819D01*
X173359163Y-53559819D02*
X173359163Y-52893152D01*
X173359163Y-52988390D02*
X173406782Y-52940771D01*
X173406782Y-52940771D02*
X173502020Y-52893152D01*
X173502020Y-52893152D02*
X173644877Y-52893152D01*
X173644877Y-52893152D02*
X173740115Y-52940771D01*
X173740115Y-52940771D02*
X173787734Y-53036009D01*
X173787734Y-53036009D02*
X173787734Y-53559819D01*
X173787734Y-53036009D02*
X173835353Y-52940771D01*
X173835353Y-52940771D02*
X173930591Y-52893152D01*
X173930591Y-52893152D02*
X174073448Y-52893152D01*
X174073448Y-52893152D02*
X174168687Y-52940771D01*
X174168687Y-52940771D02*
X174216306Y-53036009D01*
X174216306Y-53036009D02*
X174216306Y-53559819D01*
X174692496Y-52893152D02*
X174692496Y-53893152D01*
X174692496Y-52940771D02*
X174787734Y-52893152D01*
X174787734Y-52893152D02*
X174978210Y-52893152D01*
X174978210Y-52893152D02*
X175073448Y-52940771D01*
X175073448Y-52940771D02*
X175121067Y-52988390D01*
X175121067Y-52988390D02*
X175168686Y-53083628D01*
X175168686Y-53083628D02*
X175168686Y-53369342D01*
X175168686Y-53369342D02*
X175121067Y-53464580D01*
X175121067Y-53464580D02*
X175073448Y-53512200D01*
X175073448Y-53512200D02*
X174978210Y-53559819D01*
X174978210Y-53559819D02*
X174787734Y-53559819D01*
X174787734Y-53559819D02*
X174692496Y-53512200D01*
X176025829Y-53559819D02*
X176025829Y-53036009D01*
X176025829Y-53036009D02*
X175978210Y-52940771D01*
X175978210Y-52940771D02*
X175882972Y-52893152D01*
X175882972Y-52893152D02*
X175692496Y-52893152D01*
X175692496Y-52893152D02*
X175597258Y-52940771D01*
X176025829Y-53512200D02*
X175930591Y-53559819D01*
X175930591Y-53559819D02*
X175692496Y-53559819D01*
X175692496Y-53559819D02*
X175597258Y-53512200D01*
X175597258Y-53512200D02*
X175549639Y-53416961D01*
X175549639Y-53416961D02*
X175549639Y-53321723D01*
X175549639Y-53321723D02*
X175597258Y-53226485D01*
X175597258Y-53226485D02*
X175692496Y-53178866D01*
X175692496Y-53178866D02*
X175930591Y-53178866D01*
X175930591Y-53178866D02*
X176025829Y-53131247D01*
X176502020Y-52893152D02*
X176502020Y-53559819D01*
X176502020Y-52988390D02*
X176549639Y-52940771D01*
X176549639Y-52940771D02*
X176644877Y-52893152D01*
X176644877Y-52893152D02*
X176787734Y-52893152D01*
X176787734Y-52893152D02*
X176882972Y-52940771D01*
X176882972Y-52940771D02*
X176930591Y-53036009D01*
X176930591Y-53036009D02*
X176930591Y-53559819D01*
X177311544Y-52893152D02*
X177549639Y-53559819D01*
X177787734Y-52893152D02*
X177549639Y-53559819D01*
X177549639Y-53559819D02*
X177454401Y-53797914D01*
X177454401Y-53797914D02*
X177406782Y-53845533D01*
X177406782Y-53845533D02*
X177311544Y-53893152D01*
X179406782Y-53559819D02*
X178930592Y-53559819D01*
X178930592Y-53559819D02*
X178930592Y-52559819D01*
X180216306Y-53559819D02*
X179740116Y-53559819D01*
X179740116Y-53559819D02*
X179740116Y-52559819D01*
X181121068Y-53464580D02*
X181073449Y-53512200D01*
X181073449Y-53512200D02*
X180930592Y-53559819D01*
X180930592Y-53559819D02*
X180835354Y-53559819D01*
X180835354Y-53559819D02*
X180692497Y-53512200D01*
X180692497Y-53512200D02*
X180597259Y-53416961D01*
X180597259Y-53416961D02*
X180549640Y-53321723D01*
X180549640Y-53321723D02*
X180502021Y-53131247D01*
X180502021Y-53131247D02*
X180502021Y-52988390D01*
X180502021Y-52988390D02*
X180549640Y-52797914D01*
X180549640Y-52797914D02*
X180597259Y-52702676D01*
X180597259Y-52702676D02*
X180692497Y-52607438D01*
X180692497Y-52607438D02*
X180835354Y-52559819D01*
X180835354Y-52559819D02*
X180930592Y-52559819D01*
X180930592Y-52559819D02*
X181073449Y-52607438D01*
X181073449Y-52607438D02*
X181121068Y-52655057D01*
D13*
X159205709Y-49464619D02*
X159205709Y-48464619D01*
X159205709Y-48464619D02*
X159586661Y-48464619D01*
X159586661Y-48464619D02*
X159681899Y-48512238D01*
X159681899Y-48512238D02*
X159729518Y-48559857D01*
X159729518Y-48559857D02*
X159777137Y-48655095D01*
X159777137Y-48655095D02*
X159777137Y-48797952D01*
X159777137Y-48797952D02*
X159729518Y-48893190D01*
X159729518Y-48893190D02*
X159681899Y-48940809D01*
X159681899Y-48940809D02*
X159586661Y-48988428D01*
X159586661Y-48988428D02*
X159205709Y-48988428D01*
X160110471Y-48797952D02*
X160348566Y-49464619D01*
X160586661Y-48797952D02*
X160348566Y-49464619D01*
X160348566Y-49464619D02*
X160253328Y-49702714D01*
X160253328Y-49702714D02*
X160205709Y-49750333D01*
X160205709Y-49750333D02*
X160110471Y-49797952D01*
X160919995Y-49417000D02*
X161062852Y-49464619D01*
X161062852Y-49464619D02*
X161300947Y-49464619D01*
X161300947Y-49464619D02*
X161396185Y-49417000D01*
X161396185Y-49417000D02*
X161443804Y-49369380D01*
X161443804Y-49369380D02*
X161491423Y-49274142D01*
X161491423Y-49274142D02*
X161491423Y-49178904D01*
X161491423Y-49178904D02*
X161443804Y-49083666D01*
X161443804Y-49083666D02*
X161396185Y-49036047D01*
X161396185Y-49036047D02*
X161300947Y-48988428D01*
X161300947Y-48988428D02*
X161110471Y-48940809D01*
X161110471Y-48940809D02*
X161015233Y-48893190D01*
X161015233Y-48893190D02*
X160967614Y-48845571D01*
X160967614Y-48845571D02*
X160919995Y-48750333D01*
X160919995Y-48750333D02*
X160919995Y-48655095D01*
X160919995Y-48655095D02*
X160967614Y-48559857D01*
X160967614Y-48559857D02*
X161015233Y-48512238D01*
X161015233Y-48512238D02*
X161110471Y-48464619D01*
X161110471Y-48464619D02*
X161348566Y-48464619D01*
X161348566Y-48464619D02*
X161491423Y-48512238D01*
X162348566Y-48797952D02*
X162348566Y-49797952D01*
X162348566Y-49417000D02*
X162253328Y-49464619D01*
X162253328Y-49464619D02*
X162062852Y-49464619D01*
X162062852Y-49464619D02*
X161967614Y-49417000D01*
X161967614Y-49417000D02*
X161919995Y-49369380D01*
X161919995Y-49369380D02*
X161872376Y-49274142D01*
X161872376Y-49274142D02*
X161872376Y-48988428D01*
X161872376Y-48988428D02*
X161919995Y-48893190D01*
X161919995Y-48893190D02*
X161967614Y-48845571D01*
X161967614Y-48845571D02*
X162062852Y-48797952D01*
X162062852Y-48797952D02*
X162253328Y-48797952D01*
X162253328Y-48797952D02*
X162348566Y-48845571D01*
X163253328Y-48797952D02*
X163253328Y-49464619D01*
X162824757Y-48797952D02*
X162824757Y-49321761D01*
X162824757Y-49321761D02*
X162872376Y-49417000D01*
X162872376Y-49417000D02*
X162967614Y-49464619D01*
X162967614Y-49464619D02*
X163110471Y-49464619D01*
X163110471Y-49464619D02*
X163205709Y-49417000D01*
X163205709Y-49417000D02*
X163253328Y-49369380D01*
X164158090Y-49464619D02*
X164158090Y-48940809D01*
X164158090Y-48940809D02*
X164110471Y-48845571D01*
X164110471Y-48845571D02*
X164015233Y-48797952D01*
X164015233Y-48797952D02*
X163824757Y-48797952D01*
X163824757Y-48797952D02*
X163729519Y-48845571D01*
X164158090Y-49417000D02*
X164062852Y-49464619D01*
X164062852Y-49464619D02*
X163824757Y-49464619D01*
X163824757Y-49464619D02*
X163729519Y-49417000D01*
X163729519Y-49417000D02*
X163681900Y-49321761D01*
X163681900Y-49321761D02*
X163681900Y-49226523D01*
X163681900Y-49226523D02*
X163729519Y-49131285D01*
X163729519Y-49131285D02*
X163824757Y-49083666D01*
X163824757Y-49083666D02*
X164062852Y-49083666D01*
X164062852Y-49083666D02*
X164158090Y-49036047D01*
X164634281Y-49464619D02*
X164634281Y-48797952D01*
X164634281Y-48988428D02*
X164681900Y-48893190D01*
X164681900Y-48893190D02*
X164729519Y-48845571D01*
X164729519Y-48845571D02*
X164824757Y-48797952D01*
X164824757Y-48797952D02*
X164919995Y-48797952D01*
X165634281Y-49417000D02*
X165539043Y-49464619D01*
X165539043Y-49464619D02*
X165348567Y-49464619D01*
X165348567Y-49464619D02*
X165253329Y-49417000D01*
X165253329Y-49417000D02*
X165205710Y-49321761D01*
X165205710Y-49321761D02*
X165205710Y-48940809D01*
X165205710Y-48940809D02*
X165253329Y-48845571D01*
X165253329Y-48845571D02*
X165348567Y-48797952D01*
X165348567Y-48797952D02*
X165539043Y-48797952D01*
X165539043Y-48797952D02*
X165634281Y-48845571D01*
X165634281Y-48845571D02*
X165681900Y-48940809D01*
X165681900Y-48940809D02*
X165681900Y-49036047D01*
X165681900Y-49036047D02*
X165205710Y-49131285D01*
X166539043Y-49464619D02*
X166539043Y-48464619D01*
X166539043Y-49417000D02*
X166443805Y-49464619D01*
X166443805Y-49464619D02*
X166253329Y-49464619D01*
X166253329Y-49464619D02*
X166158091Y-49417000D01*
X166158091Y-49417000D02*
X166110472Y-49369380D01*
X166110472Y-49369380D02*
X166062853Y-49274142D01*
X166062853Y-49274142D02*
X166062853Y-48988428D01*
X166062853Y-48988428D02*
X166110472Y-48893190D01*
X166110472Y-48893190D02*
X166158091Y-48845571D01*
X166158091Y-48845571D02*
X166253329Y-48797952D01*
X166253329Y-48797952D02*
X166443805Y-48797952D01*
X166443805Y-48797952D02*
X166539043Y-48845571D01*
X168110472Y-48940809D02*
X167777139Y-48940809D01*
X167777139Y-49464619D02*
X167777139Y-48464619D01*
X167777139Y-48464619D02*
X168253329Y-48464619D01*
X168777139Y-49464619D02*
X168681901Y-49417000D01*
X168681901Y-49417000D02*
X168634282Y-49321761D01*
X168634282Y-49321761D02*
X168634282Y-48464619D01*
X169158092Y-49464619D02*
X169158092Y-48797952D01*
X169158092Y-48464619D02*
X169110473Y-48512238D01*
X169110473Y-48512238D02*
X169158092Y-48559857D01*
X169158092Y-48559857D02*
X169205711Y-48512238D01*
X169205711Y-48512238D02*
X169158092Y-48464619D01*
X169158092Y-48464619D02*
X169158092Y-48559857D01*
X170062853Y-48797952D02*
X170062853Y-49607476D01*
X170062853Y-49607476D02*
X170015234Y-49702714D01*
X170015234Y-49702714D02*
X169967615Y-49750333D01*
X169967615Y-49750333D02*
X169872377Y-49797952D01*
X169872377Y-49797952D02*
X169729520Y-49797952D01*
X169729520Y-49797952D02*
X169634282Y-49750333D01*
X170062853Y-49417000D02*
X169967615Y-49464619D01*
X169967615Y-49464619D02*
X169777139Y-49464619D01*
X169777139Y-49464619D02*
X169681901Y-49417000D01*
X169681901Y-49417000D02*
X169634282Y-49369380D01*
X169634282Y-49369380D02*
X169586663Y-49274142D01*
X169586663Y-49274142D02*
X169586663Y-48988428D01*
X169586663Y-48988428D02*
X169634282Y-48893190D01*
X169634282Y-48893190D02*
X169681901Y-48845571D01*
X169681901Y-48845571D02*
X169777139Y-48797952D01*
X169777139Y-48797952D02*
X169967615Y-48797952D01*
X169967615Y-48797952D02*
X170062853Y-48845571D01*
X170539044Y-49464619D02*
X170539044Y-48464619D01*
X170967615Y-49464619D02*
X170967615Y-48940809D01*
X170967615Y-48940809D02*
X170919996Y-48845571D01*
X170919996Y-48845571D02*
X170824758Y-48797952D01*
X170824758Y-48797952D02*
X170681901Y-48797952D01*
X170681901Y-48797952D02*
X170586663Y-48845571D01*
X170586663Y-48845571D02*
X170539044Y-48893190D01*
X171300949Y-48797952D02*
X171681901Y-48797952D01*
X171443806Y-48464619D02*
X171443806Y-49321761D01*
X171443806Y-49321761D02*
X171491425Y-49417000D01*
X171491425Y-49417000D02*
X171586663Y-49464619D01*
X171586663Y-49464619D02*
X171681901Y-49464619D01*
X173348568Y-49369380D02*
X173300949Y-49417000D01*
X173300949Y-49417000D02*
X173158092Y-49464619D01*
X173158092Y-49464619D02*
X173062854Y-49464619D01*
X173062854Y-49464619D02*
X172919997Y-49417000D01*
X172919997Y-49417000D02*
X172824759Y-49321761D01*
X172824759Y-49321761D02*
X172777140Y-49226523D01*
X172777140Y-49226523D02*
X172729521Y-49036047D01*
X172729521Y-49036047D02*
X172729521Y-48893190D01*
X172729521Y-48893190D02*
X172777140Y-48702714D01*
X172777140Y-48702714D02*
X172824759Y-48607476D01*
X172824759Y-48607476D02*
X172919997Y-48512238D01*
X172919997Y-48512238D02*
X173062854Y-48464619D01*
X173062854Y-48464619D02*
X173158092Y-48464619D01*
X173158092Y-48464619D02*
X173300949Y-48512238D01*
X173300949Y-48512238D02*
X173348568Y-48559857D01*
X173919997Y-49464619D02*
X173824759Y-49417000D01*
X173824759Y-49417000D02*
X173777140Y-49369380D01*
X173777140Y-49369380D02*
X173729521Y-49274142D01*
X173729521Y-49274142D02*
X173729521Y-48988428D01*
X173729521Y-48988428D02*
X173777140Y-48893190D01*
X173777140Y-48893190D02*
X173824759Y-48845571D01*
X173824759Y-48845571D02*
X173919997Y-48797952D01*
X173919997Y-48797952D02*
X174062854Y-48797952D01*
X174062854Y-48797952D02*
X174158092Y-48845571D01*
X174158092Y-48845571D02*
X174205711Y-48893190D01*
X174205711Y-48893190D02*
X174253330Y-48988428D01*
X174253330Y-48988428D02*
X174253330Y-49274142D01*
X174253330Y-49274142D02*
X174205711Y-49369380D01*
X174205711Y-49369380D02*
X174158092Y-49417000D01*
X174158092Y-49417000D02*
X174062854Y-49464619D01*
X174062854Y-49464619D02*
X173919997Y-49464619D01*
X174681902Y-48797952D02*
X174681902Y-49464619D01*
X174681902Y-48893190D02*
X174729521Y-48845571D01*
X174729521Y-48845571D02*
X174824759Y-48797952D01*
X174824759Y-48797952D02*
X174967616Y-48797952D01*
X174967616Y-48797952D02*
X175062854Y-48845571D01*
X175062854Y-48845571D02*
X175110473Y-48940809D01*
X175110473Y-48940809D02*
X175110473Y-49464619D01*
X175443807Y-48797952D02*
X175824759Y-48797952D01*
X175586664Y-48464619D02*
X175586664Y-49321761D01*
X175586664Y-49321761D02*
X175634283Y-49417000D01*
X175634283Y-49417000D02*
X175729521Y-49464619D01*
X175729521Y-49464619D02*
X175824759Y-49464619D01*
X176158093Y-49464619D02*
X176158093Y-48797952D01*
X176158093Y-48988428D02*
X176205712Y-48893190D01*
X176205712Y-48893190D02*
X176253331Y-48845571D01*
X176253331Y-48845571D02*
X176348569Y-48797952D01*
X176348569Y-48797952D02*
X176443807Y-48797952D01*
X176919998Y-49464619D02*
X176824760Y-49417000D01*
X176824760Y-49417000D02*
X176777141Y-49369380D01*
X176777141Y-49369380D02*
X176729522Y-49274142D01*
X176729522Y-49274142D02*
X176729522Y-48988428D01*
X176729522Y-48988428D02*
X176777141Y-48893190D01*
X176777141Y-48893190D02*
X176824760Y-48845571D01*
X176824760Y-48845571D02*
X176919998Y-48797952D01*
X176919998Y-48797952D02*
X177062855Y-48797952D01*
X177062855Y-48797952D02*
X177158093Y-48845571D01*
X177158093Y-48845571D02*
X177205712Y-48893190D01*
X177205712Y-48893190D02*
X177253331Y-48988428D01*
X177253331Y-48988428D02*
X177253331Y-49274142D01*
X177253331Y-49274142D02*
X177205712Y-49369380D01*
X177205712Y-49369380D02*
X177158093Y-49417000D01*
X177158093Y-49417000D02*
X177062855Y-49464619D01*
X177062855Y-49464619D02*
X176919998Y-49464619D01*
X177824760Y-49464619D02*
X177729522Y-49417000D01*
X177729522Y-49417000D02*
X177681903Y-49321761D01*
X177681903Y-49321761D02*
X177681903Y-48464619D01*
X178348570Y-49464619D02*
X178253332Y-49417000D01*
X178253332Y-49417000D02*
X178205713Y-49321761D01*
X178205713Y-49321761D02*
X178205713Y-48464619D01*
X179110475Y-49417000D02*
X179015237Y-49464619D01*
X179015237Y-49464619D02*
X178824761Y-49464619D01*
X178824761Y-49464619D02*
X178729523Y-49417000D01*
X178729523Y-49417000D02*
X178681904Y-49321761D01*
X178681904Y-49321761D02*
X178681904Y-48940809D01*
X178681904Y-48940809D02*
X178729523Y-48845571D01*
X178729523Y-48845571D02*
X178824761Y-48797952D01*
X178824761Y-48797952D02*
X179015237Y-48797952D01*
X179015237Y-48797952D02*
X179110475Y-48845571D01*
X179110475Y-48845571D02*
X179158094Y-48940809D01*
X179158094Y-48940809D02*
X179158094Y-49036047D01*
X179158094Y-49036047D02*
X178681904Y-49131285D01*
X179586666Y-49464619D02*
X179586666Y-48797952D01*
X179586666Y-48988428D02*
X179634285Y-48893190D01*
X179634285Y-48893190D02*
X179681904Y-48845571D01*
X179681904Y-48845571D02*
X179777142Y-48797952D01*
X179777142Y-48797952D02*
X179872380Y-48797952D01*
X180967619Y-49464619D02*
X180967619Y-48464619D01*
X180967619Y-48464619D02*
X181205714Y-48464619D01*
X181205714Y-48464619D02*
X181348571Y-48512238D01*
X181348571Y-48512238D02*
X181443809Y-48607476D01*
X181443809Y-48607476D02*
X181491428Y-48702714D01*
X181491428Y-48702714D02*
X181539047Y-48893190D01*
X181539047Y-48893190D02*
X181539047Y-49036047D01*
X181539047Y-49036047D02*
X181491428Y-49226523D01*
X181491428Y-49226523D02*
X181443809Y-49321761D01*
X181443809Y-49321761D02*
X181348571Y-49417000D01*
X181348571Y-49417000D02*
X181205714Y-49464619D01*
X181205714Y-49464619D02*
X180967619Y-49464619D01*
X182348571Y-49417000D02*
X182253333Y-49464619D01*
X182253333Y-49464619D02*
X182062857Y-49464619D01*
X182062857Y-49464619D02*
X181967619Y-49417000D01*
X181967619Y-49417000D02*
X181920000Y-49321761D01*
X181920000Y-49321761D02*
X181920000Y-48940809D01*
X181920000Y-48940809D02*
X181967619Y-48845571D01*
X181967619Y-48845571D02*
X182062857Y-48797952D01*
X182062857Y-48797952D02*
X182253333Y-48797952D01*
X182253333Y-48797952D02*
X182348571Y-48845571D01*
X182348571Y-48845571D02*
X182396190Y-48940809D01*
X182396190Y-48940809D02*
X182396190Y-49036047D01*
X182396190Y-49036047D02*
X181920000Y-49131285D01*
X182729524Y-48797952D02*
X182967619Y-49464619D01*
X182967619Y-49464619D02*
X183205714Y-48797952D01*
X183967619Y-49417000D02*
X183872381Y-49464619D01*
X183872381Y-49464619D02*
X183681905Y-49464619D01*
X183681905Y-49464619D02*
X183586667Y-49417000D01*
X183586667Y-49417000D02*
X183539048Y-49321761D01*
X183539048Y-49321761D02*
X183539048Y-48940809D01*
X183539048Y-48940809D02*
X183586667Y-48845571D01*
X183586667Y-48845571D02*
X183681905Y-48797952D01*
X183681905Y-48797952D02*
X183872381Y-48797952D01*
X183872381Y-48797952D02*
X183967619Y-48845571D01*
X183967619Y-48845571D02*
X184015238Y-48940809D01*
X184015238Y-48940809D02*
X184015238Y-49036047D01*
X184015238Y-49036047D02*
X183539048Y-49131285D01*
X184586667Y-49464619D02*
X184491429Y-49417000D01*
X184491429Y-49417000D02*
X184443810Y-49321761D01*
X184443810Y-49321761D02*
X184443810Y-48464619D01*
X185110477Y-49464619D02*
X185015239Y-49417000D01*
X185015239Y-49417000D02*
X184967620Y-49369380D01*
X184967620Y-49369380D02*
X184920001Y-49274142D01*
X184920001Y-49274142D02*
X184920001Y-48988428D01*
X184920001Y-48988428D02*
X184967620Y-48893190D01*
X184967620Y-48893190D02*
X185015239Y-48845571D01*
X185015239Y-48845571D02*
X185110477Y-48797952D01*
X185110477Y-48797952D02*
X185253334Y-48797952D01*
X185253334Y-48797952D02*
X185348572Y-48845571D01*
X185348572Y-48845571D02*
X185396191Y-48893190D01*
X185396191Y-48893190D02*
X185443810Y-48988428D01*
X185443810Y-48988428D02*
X185443810Y-49274142D01*
X185443810Y-49274142D02*
X185396191Y-49369380D01*
X185396191Y-49369380D02*
X185348572Y-49417000D01*
X185348572Y-49417000D02*
X185253334Y-49464619D01*
X185253334Y-49464619D02*
X185110477Y-49464619D01*
X185872382Y-48797952D02*
X185872382Y-49797952D01*
X185872382Y-48845571D02*
X185967620Y-48797952D01*
X185967620Y-48797952D02*
X186158096Y-48797952D01*
X186158096Y-48797952D02*
X186253334Y-48845571D01*
X186253334Y-48845571D02*
X186300953Y-48893190D01*
X186300953Y-48893190D02*
X186348572Y-48988428D01*
X186348572Y-48988428D02*
X186348572Y-49274142D01*
X186348572Y-49274142D02*
X186300953Y-49369380D01*
X186300953Y-49369380D02*
X186253334Y-49417000D01*
X186253334Y-49417000D02*
X186158096Y-49464619D01*
X186158096Y-49464619D02*
X185967620Y-49464619D01*
X185967620Y-49464619D02*
X185872382Y-49417000D01*
X186777144Y-49464619D02*
X186777144Y-48797952D01*
X186777144Y-48893190D02*
X186824763Y-48845571D01*
X186824763Y-48845571D02*
X186920001Y-48797952D01*
X186920001Y-48797952D02*
X187062858Y-48797952D01*
X187062858Y-48797952D02*
X187158096Y-48845571D01*
X187158096Y-48845571D02*
X187205715Y-48940809D01*
X187205715Y-48940809D02*
X187205715Y-49464619D01*
X187205715Y-48940809D02*
X187253334Y-48845571D01*
X187253334Y-48845571D02*
X187348572Y-48797952D01*
X187348572Y-48797952D02*
X187491429Y-48797952D01*
X187491429Y-48797952D02*
X187586668Y-48845571D01*
X187586668Y-48845571D02*
X187634287Y-48940809D01*
X187634287Y-48940809D02*
X187634287Y-49464619D01*
X188491429Y-49417000D02*
X188396191Y-49464619D01*
X188396191Y-49464619D02*
X188205715Y-49464619D01*
X188205715Y-49464619D02*
X188110477Y-49417000D01*
X188110477Y-49417000D02*
X188062858Y-49321761D01*
X188062858Y-49321761D02*
X188062858Y-48940809D01*
X188062858Y-48940809D02*
X188110477Y-48845571D01*
X188110477Y-48845571D02*
X188205715Y-48797952D01*
X188205715Y-48797952D02*
X188396191Y-48797952D01*
X188396191Y-48797952D02*
X188491429Y-48845571D01*
X188491429Y-48845571D02*
X188539048Y-48940809D01*
X188539048Y-48940809D02*
X188539048Y-49036047D01*
X188539048Y-49036047D02*
X188062858Y-49131285D01*
X188967620Y-48797952D02*
X188967620Y-49464619D01*
X188967620Y-48893190D02*
X189015239Y-48845571D01*
X189015239Y-48845571D02*
X189110477Y-48797952D01*
X189110477Y-48797952D02*
X189253334Y-48797952D01*
X189253334Y-48797952D02*
X189348572Y-48845571D01*
X189348572Y-48845571D02*
X189396191Y-48940809D01*
X189396191Y-48940809D02*
X189396191Y-49464619D01*
X189729525Y-48797952D02*
X190110477Y-48797952D01*
X189872382Y-48464619D02*
X189872382Y-49321761D01*
X189872382Y-49321761D02*
X189920001Y-49417000D01*
X189920001Y-49417000D02*
X190015239Y-49464619D01*
X190015239Y-49464619D02*
X190110477Y-49464619D01*
X191539049Y-48940809D02*
X191681906Y-48988428D01*
X191681906Y-48988428D02*
X191729525Y-49036047D01*
X191729525Y-49036047D02*
X191777144Y-49131285D01*
X191777144Y-49131285D02*
X191777144Y-49274142D01*
X191777144Y-49274142D02*
X191729525Y-49369380D01*
X191729525Y-49369380D02*
X191681906Y-49417000D01*
X191681906Y-49417000D02*
X191586668Y-49464619D01*
X191586668Y-49464619D02*
X191205716Y-49464619D01*
X191205716Y-49464619D02*
X191205716Y-48464619D01*
X191205716Y-48464619D02*
X191539049Y-48464619D01*
X191539049Y-48464619D02*
X191634287Y-48512238D01*
X191634287Y-48512238D02*
X191681906Y-48559857D01*
X191681906Y-48559857D02*
X191729525Y-48655095D01*
X191729525Y-48655095D02*
X191729525Y-48750333D01*
X191729525Y-48750333D02*
X191681906Y-48845571D01*
X191681906Y-48845571D02*
X191634287Y-48893190D01*
X191634287Y-48893190D02*
X191539049Y-48940809D01*
X191539049Y-48940809D02*
X191205716Y-48940809D01*
X192348573Y-49464619D02*
X192253335Y-49417000D01*
X192253335Y-49417000D02*
X192205716Y-49369380D01*
X192205716Y-49369380D02*
X192158097Y-49274142D01*
X192158097Y-49274142D02*
X192158097Y-48988428D01*
X192158097Y-48988428D02*
X192205716Y-48893190D01*
X192205716Y-48893190D02*
X192253335Y-48845571D01*
X192253335Y-48845571D02*
X192348573Y-48797952D01*
X192348573Y-48797952D02*
X192491430Y-48797952D01*
X192491430Y-48797952D02*
X192586668Y-48845571D01*
X192586668Y-48845571D02*
X192634287Y-48893190D01*
X192634287Y-48893190D02*
X192681906Y-48988428D01*
X192681906Y-48988428D02*
X192681906Y-49274142D01*
X192681906Y-49274142D02*
X192634287Y-49369380D01*
X192634287Y-49369380D02*
X192586668Y-49417000D01*
X192586668Y-49417000D02*
X192491430Y-49464619D01*
X192491430Y-49464619D02*
X192348573Y-49464619D01*
X193539049Y-49464619D02*
X193539049Y-48940809D01*
X193539049Y-48940809D02*
X193491430Y-48845571D01*
X193491430Y-48845571D02*
X193396192Y-48797952D01*
X193396192Y-48797952D02*
X193205716Y-48797952D01*
X193205716Y-48797952D02*
X193110478Y-48845571D01*
X193539049Y-49417000D02*
X193443811Y-49464619D01*
X193443811Y-49464619D02*
X193205716Y-49464619D01*
X193205716Y-49464619D02*
X193110478Y-49417000D01*
X193110478Y-49417000D02*
X193062859Y-49321761D01*
X193062859Y-49321761D02*
X193062859Y-49226523D01*
X193062859Y-49226523D02*
X193110478Y-49131285D01*
X193110478Y-49131285D02*
X193205716Y-49083666D01*
X193205716Y-49083666D02*
X193443811Y-49083666D01*
X193443811Y-49083666D02*
X193539049Y-49036047D01*
X194015240Y-49464619D02*
X194015240Y-48797952D01*
X194015240Y-48988428D02*
X194062859Y-48893190D01*
X194062859Y-48893190D02*
X194110478Y-48845571D01*
X194110478Y-48845571D02*
X194205716Y-48797952D01*
X194205716Y-48797952D02*
X194300954Y-48797952D01*
X195062859Y-49464619D02*
X195062859Y-48464619D01*
X195062859Y-49417000D02*
X194967621Y-49464619D01*
X194967621Y-49464619D02*
X194777145Y-49464619D01*
X194777145Y-49464619D02*
X194681907Y-49417000D01*
X194681907Y-49417000D02*
X194634288Y-49369380D01*
X194634288Y-49369380D02*
X194586669Y-49274142D01*
X194586669Y-49274142D02*
X194586669Y-48988428D01*
X194586669Y-48988428D02*
X194634288Y-48893190D01*
X194634288Y-48893190D02*
X194681907Y-48845571D01*
X194681907Y-48845571D02*
X194777145Y-48797952D01*
X194777145Y-48797952D02*
X194967621Y-48797952D01*
X194967621Y-48797952D02*
X195062859Y-48845571D01*
X196158098Y-48464619D02*
X196491431Y-49464619D01*
X196491431Y-49464619D02*
X196824764Y-48464619D01*
X197681907Y-49464619D02*
X197110479Y-49464619D01*
X197396193Y-49464619D02*
X197396193Y-48464619D01*
X197396193Y-48464619D02*
X197300955Y-48607476D01*
X197300955Y-48607476D02*
X197205717Y-48702714D01*
X197205717Y-48702714D02*
X197110479Y-48750333D01*
X199205717Y-48940809D02*
X199348574Y-48988428D01*
X199348574Y-48988428D02*
X199396193Y-49036047D01*
X199396193Y-49036047D02*
X199443812Y-49131285D01*
X199443812Y-49131285D02*
X199443812Y-49274142D01*
X199443812Y-49274142D02*
X199396193Y-49369380D01*
X199396193Y-49369380D02*
X199348574Y-49417000D01*
X199348574Y-49417000D02*
X199253336Y-49464619D01*
X199253336Y-49464619D02*
X198872384Y-49464619D01*
X198872384Y-49464619D02*
X198872384Y-48464619D01*
X198872384Y-48464619D02*
X199205717Y-48464619D01*
X199205717Y-48464619D02*
X199300955Y-48512238D01*
X199300955Y-48512238D02*
X199348574Y-48559857D01*
X199348574Y-48559857D02*
X199396193Y-48655095D01*
X199396193Y-48655095D02*
X199396193Y-48750333D01*
X199396193Y-48750333D02*
X199348574Y-48845571D01*
X199348574Y-48845571D02*
X199300955Y-48893190D01*
X199300955Y-48893190D02*
X199205717Y-48940809D01*
X199205717Y-48940809D02*
X198872384Y-48940809D01*
X199777146Y-48797952D02*
X200015241Y-49464619D01*
X200253336Y-48797952D02*
X200015241Y-49464619D01*
X200015241Y-49464619D02*
X199920003Y-49702714D01*
X199920003Y-49702714D02*
X199872384Y-49750333D01*
X199872384Y-49750333D02*
X199777146Y-49797952D01*
X201396194Y-49464619D02*
X201396194Y-48464619D01*
X201396194Y-48464619D02*
X201967622Y-49464619D01*
X201967622Y-49464619D02*
X201967622Y-48464619D01*
X202443813Y-49464619D02*
X202443813Y-48797952D01*
X202443813Y-48464619D02*
X202396194Y-48512238D01*
X202396194Y-48512238D02*
X202443813Y-48559857D01*
X202443813Y-48559857D02*
X202491432Y-48512238D01*
X202491432Y-48512238D02*
X202443813Y-48464619D01*
X202443813Y-48464619D02*
X202443813Y-48559857D01*
X203348574Y-49417000D02*
X203253336Y-49464619D01*
X203253336Y-49464619D02*
X203062860Y-49464619D01*
X203062860Y-49464619D02*
X202967622Y-49417000D01*
X202967622Y-49417000D02*
X202920003Y-49369380D01*
X202920003Y-49369380D02*
X202872384Y-49274142D01*
X202872384Y-49274142D02*
X202872384Y-48988428D01*
X202872384Y-48988428D02*
X202920003Y-48893190D01*
X202920003Y-48893190D02*
X202967622Y-48845571D01*
X202967622Y-48845571D02*
X203062860Y-48797952D01*
X203062860Y-48797952D02*
X203253336Y-48797952D01*
X203253336Y-48797952D02*
X203348574Y-48845571D01*
X203920003Y-49464619D02*
X203824765Y-49417000D01*
X203824765Y-49417000D02*
X203777146Y-49369380D01*
X203777146Y-49369380D02*
X203729527Y-49274142D01*
X203729527Y-49274142D02*
X203729527Y-48988428D01*
X203729527Y-48988428D02*
X203777146Y-48893190D01*
X203777146Y-48893190D02*
X203824765Y-48845571D01*
X203824765Y-48845571D02*
X203920003Y-48797952D01*
X203920003Y-48797952D02*
X204062860Y-48797952D01*
X204062860Y-48797952D02*
X204158098Y-48845571D01*
X204158098Y-48845571D02*
X204205717Y-48893190D01*
X204205717Y-48893190D02*
X204253336Y-48988428D01*
X204253336Y-48988428D02*
X204253336Y-49274142D01*
X204253336Y-49274142D02*
X204205717Y-49369380D01*
X204205717Y-49369380D02*
X204158098Y-49417000D01*
X204158098Y-49417000D02*
X204062860Y-49464619D01*
X204062860Y-49464619D02*
X203920003Y-49464619D01*
X204824765Y-49464619D02*
X204729527Y-49417000D01*
X204729527Y-49417000D02*
X204681908Y-49321761D01*
X204681908Y-49321761D02*
X204681908Y-48464619D01*
X205586670Y-49417000D02*
X205491432Y-49464619D01*
X205491432Y-49464619D02*
X205300956Y-49464619D01*
X205300956Y-49464619D02*
X205205718Y-49417000D01*
X205205718Y-49417000D02*
X205158099Y-49321761D01*
X205158099Y-49321761D02*
X205158099Y-48940809D01*
X205158099Y-48940809D02*
X205205718Y-48845571D01*
X205205718Y-48845571D02*
X205300956Y-48797952D01*
X205300956Y-48797952D02*
X205491432Y-48797952D01*
X205491432Y-48797952D02*
X205586670Y-48845571D01*
X205586670Y-48845571D02*
X205634289Y-48940809D01*
X205634289Y-48940809D02*
X205634289Y-49036047D01*
X205634289Y-49036047D02*
X205158099Y-49131285D01*
X206824766Y-49464619D02*
X206824766Y-48464619D01*
X206824766Y-48464619D02*
X207158099Y-49178904D01*
X207158099Y-49178904D02*
X207491432Y-48464619D01*
X207491432Y-48464619D02*
X207491432Y-49464619D01*
X208396194Y-49464619D02*
X208396194Y-48940809D01*
X208396194Y-48940809D02*
X208348575Y-48845571D01*
X208348575Y-48845571D02*
X208253337Y-48797952D01*
X208253337Y-48797952D02*
X208062861Y-48797952D01*
X208062861Y-48797952D02*
X207967623Y-48845571D01*
X208396194Y-49417000D02*
X208300956Y-49464619D01*
X208300956Y-49464619D02*
X208062861Y-49464619D01*
X208062861Y-49464619D02*
X207967623Y-49417000D01*
X207967623Y-49417000D02*
X207920004Y-49321761D01*
X207920004Y-49321761D02*
X207920004Y-49226523D01*
X207920004Y-49226523D02*
X207967623Y-49131285D01*
X207967623Y-49131285D02*
X208062861Y-49083666D01*
X208062861Y-49083666D02*
X208300956Y-49083666D01*
X208300956Y-49083666D02*
X208396194Y-49036047D01*
X209300956Y-48797952D02*
X209300956Y-49607476D01*
X209300956Y-49607476D02*
X209253337Y-49702714D01*
X209253337Y-49702714D02*
X209205718Y-49750333D01*
X209205718Y-49750333D02*
X209110480Y-49797952D01*
X209110480Y-49797952D02*
X208967623Y-49797952D01*
X208967623Y-49797952D02*
X208872385Y-49750333D01*
X209300956Y-49417000D02*
X209205718Y-49464619D01*
X209205718Y-49464619D02*
X209015242Y-49464619D01*
X209015242Y-49464619D02*
X208920004Y-49417000D01*
X208920004Y-49417000D02*
X208872385Y-49369380D01*
X208872385Y-49369380D02*
X208824766Y-49274142D01*
X208824766Y-49274142D02*
X208824766Y-48988428D01*
X208824766Y-48988428D02*
X208872385Y-48893190D01*
X208872385Y-48893190D02*
X208920004Y-48845571D01*
X208920004Y-48845571D02*
X209015242Y-48797952D01*
X209015242Y-48797952D02*
X209205718Y-48797952D01*
X209205718Y-48797952D02*
X209300956Y-48845571D01*
X210205718Y-48797952D02*
X210205718Y-49607476D01*
X210205718Y-49607476D02*
X210158099Y-49702714D01*
X210158099Y-49702714D02*
X210110480Y-49750333D01*
X210110480Y-49750333D02*
X210015242Y-49797952D01*
X210015242Y-49797952D02*
X209872385Y-49797952D01*
X209872385Y-49797952D02*
X209777147Y-49750333D01*
X210205718Y-49417000D02*
X210110480Y-49464619D01*
X210110480Y-49464619D02*
X209920004Y-49464619D01*
X209920004Y-49464619D02*
X209824766Y-49417000D01*
X209824766Y-49417000D02*
X209777147Y-49369380D01*
X209777147Y-49369380D02*
X209729528Y-49274142D01*
X209729528Y-49274142D02*
X209729528Y-48988428D01*
X209729528Y-48988428D02*
X209777147Y-48893190D01*
X209777147Y-48893190D02*
X209824766Y-48845571D01*
X209824766Y-48845571D02*
X209920004Y-48797952D01*
X209920004Y-48797952D02*
X210110480Y-48797952D01*
X210110480Y-48797952D02*
X210205718Y-48845571D01*
X211110480Y-49464619D02*
X211110480Y-48940809D01*
X211110480Y-48940809D02*
X211062861Y-48845571D01*
X211062861Y-48845571D02*
X210967623Y-48797952D01*
X210967623Y-48797952D02*
X210777147Y-48797952D01*
X210777147Y-48797952D02*
X210681909Y-48845571D01*
X211110480Y-49417000D02*
X211015242Y-49464619D01*
X211015242Y-49464619D02*
X210777147Y-49464619D01*
X210777147Y-49464619D02*
X210681909Y-49417000D01*
X210681909Y-49417000D02*
X210634290Y-49321761D01*
X210634290Y-49321761D02*
X210634290Y-49226523D01*
X210634290Y-49226523D02*
X210681909Y-49131285D01*
X210681909Y-49131285D02*
X210777147Y-49083666D01*
X210777147Y-49083666D02*
X211015242Y-49083666D01*
X211015242Y-49083666D02*
X211110480Y-49036047D01*
X211586671Y-49464619D02*
X211586671Y-48797952D01*
X211586671Y-48988428D02*
X211634290Y-48893190D01*
X211634290Y-48893190D02*
X211681909Y-48845571D01*
X211681909Y-48845571D02*
X211777147Y-48797952D01*
X211777147Y-48797952D02*
X211872385Y-48797952D01*
X212634290Y-49464619D02*
X212634290Y-48464619D01*
X212634290Y-49417000D02*
X212539052Y-49464619D01*
X212539052Y-49464619D02*
X212348576Y-49464619D01*
X212348576Y-49464619D02*
X212253338Y-49417000D01*
X212253338Y-49417000D02*
X212205719Y-49369380D01*
X212205719Y-49369380D02*
X212158100Y-49274142D01*
X212158100Y-49274142D02*
X212158100Y-48988428D01*
X212158100Y-48988428D02*
X212205719Y-48893190D01*
X212205719Y-48893190D02*
X212253338Y-48845571D01*
X212253338Y-48845571D02*
X212348576Y-48797952D01*
X212348576Y-48797952D02*
X212539052Y-48797952D01*
X212539052Y-48797952D02*
X212634290Y-48845571D01*
%TO.C,G\u002A\u002A\u002A*%
G36*
X199620334Y-50355565D02*
G01*
X199828168Y-50366891D01*
X200003889Y-50386690D01*
X200153499Y-50415801D01*
X200283002Y-50455060D01*
X200367669Y-50490315D01*
X200521673Y-50583331D01*
X200652262Y-50704203D01*
X200749839Y-50843813D01*
X200759384Y-50862427D01*
X200814015Y-50973444D01*
X200814015Y-51843919D01*
X200813941Y-52064303D01*
X200813565Y-52244691D01*
X200812655Y-52389729D01*
X200810981Y-52504060D01*
X200808310Y-52592329D01*
X200804410Y-52659181D01*
X200799051Y-52709259D01*
X200792001Y-52747209D01*
X200783028Y-52777674D01*
X200771901Y-52805300D01*
X200765374Y-52819681D01*
X200694072Y-52937753D01*
X200596415Y-53050432D01*
X200485612Y-53144255D01*
X200394708Y-53197450D01*
X200364950Y-53210463D01*
X200335662Y-53221195D01*
X200302299Y-53229925D01*
X200260311Y-53236936D01*
X200205151Y-53242508D01*
X200132272Y-53246923D01*
X200037124Y-53250461D01*
X199915161Y-53253405D01*
X199761835Y-53256035D01*
X199572597Y-53258632D01*
X199363224Y-53261230D01*
X198448109Y-53272390D01*
X198296919Y-53344006D01*
X198169903Y-53418755D01*
X198047139Y-53516928D01*
X197941122Y-53627009D01*
X197864344Y-53737482D01*
X197858969Y-53747688D01*
X197817011Y-53840902D01*
X197786124Y-53938344D01*
X197764912Y-54048737D01*
X197751981Y-54180804D01*
X197745936Y-54343266D01*
X197745034Y-54460032D01*
X197745034Y-54823620D01*
X197438136Y-54822127D01*
X197298879Y-54819165D01*
X197178414Y-54812166D01*
X197086037Y-54801832D01*
X197039644Y-54791966D01*
X196894540Y-54727350D01*
X196769404Y-54629565D01*
X196662942Y-54496684D01*
X196573863Y-54326777D01*
X196500873Y-54117915D01*
X196451815Y-53914728D01*
X196402593Y-53581746D01*
X196393612Y-53257385D01*
X196425110Y-52932391D01*
X196484634Y-52645814D01*
X196557431Y-52436491D01*
X196660560Y-52257242D01*
X196792418Y-52110153D01*
X196951402Y-51997310D01*
X197003611Y-51970697D01*
X197131238Y-51910879D01*
X199385544Y-51888559D01*
X199385544Y-51710000D01*
X198663993Y-51704108D01*
X197942443Y-51698217D01*
X197949758Y-51280031D01*
X197952740Y-51131132D01*
X197953873Y-51095760D01*
X198300776Y-51095760D01*
X198316177Y-51160561D01*
X198354071Y-51220168D01*
X198362590Y-51230520D01*
X198442115Y-51304752D01*
X198524419Y-51336718D01*
X198617558Y-51328481D01*
X198671536Y-51309585D01*
X198736159Y-51267705D01*
X198790055Y-51208966D01*
X198793495Y-51203566D01*
X198832517Y-51104535D01*
X198833434Y-51008842D01*
X198802407Y-50922723D01*
X198745597Y-50852410D01*
X198669164Y-50804140D01*
X198579270Y-50784147D01*
X198482076Y-50798665D01*
X198421634Y-50827254D01*
X198347954Y-50887129D01*
X198310638Y-50959706D01*
X198302832Y-51006924D01*
X198300776Y-51095760D01*
X197953873Y-51095760D01*
X197956323Y-51019225D01*
X197961376Y-50936661D01*
X197968771Y-50875793D01*
X197979379Y-50828973D01*
X197994070Y-50788553D01*
X198009499Y-50755380D01*
X198083318Y-50648984D01*
X198192344Y-50559402D01*
X198337692Y-50486304D01*
X198520473Y-50429362D01*
X198741803Y-50388245D01*
X199002793Y-50362626D01*
X199304559Y-50352175D01*
X199374384Y-50351877D01*
X199620334Y-50355565D01*
G37*
G36*
X201356598Y-51900698D02*
G01*
X201514172Y-51902570D01*
X201635501Y-51908311D01*
X201728926Y-51919610D01*
X201802789Y-51938157D01*
X201865431Y-51965640D01*
X201925193Y-52003747D01*
X201947533Y-52020334D01*
X202042519Y-52116913D01*
X202129157Y-52253238D01*
X202205948Y-52424941D01*
X202271390Y-52627657D01*
X202323985Y-52857020D01*
X202362232Y-53108663D01*
X202378030Y-53273279D01*
X202380772Y-53473291D01*
X202361680Y-53684060D01*
X202323210Y-53897086D01*
X202267821Y-54103874D01*
X202197971Y-54295926D01*
X202116117Y-54464743D01*
X202024718Y-54601829D01*
X201978908Y-54653135D01*
X201942568Y-54688956D01*
X201908347Y-54719372D01*
X201872428Y-54744824D01*
X201830995Y-54765754D01*
X201780231Y-54782605D01*
X201716319Y-54795819D01*
X201635444Y-54805838D01*
X201533788Y-54813104D01*
X201407536Y-54818060D01*
X201252870Y-54821147D01*
X201065975Y-54822808D01*
X200843033Y-54823485D01*
X200580229Y-54823619D01*
X200507362Y-54823620D01*
X199371817Y-54823620D01*
X199378680Y-54918480D01*
X199385544Y-55013339D01*
X200105359Y-55019228D01*
X200825175Y-55025117D01*
X200825175Y-55333235D01*
X200822479Y-55501337D01*
X200812897Y-55633618D01*
X200794187Y-55738655D01*
X200764107Y-55825023D01*
X200720414Y-55901301D01*
X200660866Y-55976063D01*
X200655578Y-55981983D01*
X200533581Y-56089144D01*
X200375348Y-56183598D01*
X200187920Y-56263583D01*
X199978337Y-56327337D01*
X199753641Y-56373097D01*
X199520872Y-56399102D01*
X199287072Y-56403590D01*
X199059280Y-56384799D01*
X199050746Y-56383589D01*
X198924329Y-56359809D01*
X198778860Y-56323761D01*
X198630680Y-56280201D01*
X198496134Y-56233884D01*
X198402783Y-56195000D01*
X198277443Y-56121106D01*
X198160034Y-56025431D01*
X198062474Y-55919110D01*
X197998528Y-55817307D01*
X197985063Y-55787493D01*
X197974138Y-55758520D01*
X197965487Y-55725584D01*
X197958842Y-55683884D01*
X197953938Y-55628616D01*
X197953403Y-55617131D01*
X199930084Y-55617131D01*
X199934155Y-55712929D01*
X199973516Y-55805890D01*
X200004387Y-55845189D01*
X200085754Y-55911664D01*
X200171453Y-55935834D01*
X200269511Y-55919386D01*
X200300886Y-55907477D01*
X200386643Y-55851652D01*
X200440159Y-55775604D01*
X200463194Y-55688032D01*
X200457509Y-55597637D01*
X200424863Y-55513120D01*
X200367017Y-55443180D01*
X200285731Y-55396519D01*
X200194495Y-55381617D01*
X200093508Y-55400738D01*
X200013370Y-55452232D01*
X199957692Y-55527298D01*
X199930084Y-55617131D01*
X197953403Y-55617131D01*
X197950506Y-55554978D01*
X197948280Y-55458166D01*
X197946992Y-55333379D01*
X197946377Y-55175813D01*
X197946166Y-54980666D01*
X197946131Y-54874677D01*
X197946197Y-54658690D01*
X197946674Y-54482459D01*
X197947795Y-54341103D01*
X197949790Y-54229740D01*
X197952892Y-54143487D01*
X197957331Y-54077463D01*
X197963341Y-54026784D01*
X197971151Y-53986568D01*
X197980995Y-53951934D01*
X197991297Y-53922800D01*
X198070223Y-53773435D01*
X198184836Y-53644220D01*
X198327907Y-53543018D01*
X198351884Y-53530486D01*
X198488719Y-53462109D01*
X199271929Y-53461667D01*
X199462163Y-53460931D01*
X199644666Y-53459044D01*
X199813000Y-53456159D01*
X199960726Y-53452432D01*
X200081405Y-53448017D01*
X200168600Y-53443070D01*
X200207497Y-53439197D01*
X200404097Y-53389085D01*
X200581480Y-53300165D01*
X200735147Y-53175774D01*
X200860596Y-53019248D01*
X200920958Y-52910224D01*
X200992573Y-52759033D01*
X200999480Y-52329376D01*
X201006386Y-51899719D01*
X201356598Y-51900698D01*
G37*
%TD*%
D14*
%TO.C,U9*%
X161885000Y-117670000D03*
X161885000Y-118320000D03*
X161885000Y-118970000D03*
X161885000Y-119620000D03*
X161885000Y-120270000D03*
X161885000Y-120920000D03*
X161885000Y-121570000D03*
D15*
X162772500Y-122457500D03*
X163422500Y-122457500D03*
X164072500Y-122457500D03*
X164722500Y-122457500D03*
X165372500Y-122457500D03*
X166022500Y-122457500D03*
X166672500Y-122457500D03*
D14*
X167560000Y-121570000D03*
X167560000Y-120920000D03*
X167560000Y-120270000D03*
X167560000Y-119620000D03*
X167560000Y-118970000D03*
X167560000Y-118320000D03*
X167560000Y-117670000D03*
D15*
X166672500Y-116782500D03*
X166022500Y-116782500D03*
X165372500Y-116782500D03*
X164722500Y-116782500D03*
X164072500Y-116782500D03*
X163422500Y-116782500D03*
X162772500Y-116782500D03*
D16*
X164722500Y-119620000D03*
%TD*%
D17*
%TO.C,R28*%
X184390000Y-105740000D03*
X184390000Y-107390000D03*
%TD*%
D18*
%TO.C,JP8*%
X200359239Y-114570761D03*
D19*
X199440001Y-115489999D03*
%TD*%
D20*
%TO.C,C40*%
X168940000Y-129360000D03*
X167980000Y-129360000D03*
%TD*%
%TO.C,C39*%
X163410000Y-129420000D03*
X162450000Y-129420000D03*
%TD*%
D21*
%TO.C,C38*%
X171080000Y-115670000D03*
X172040000Y-115670000D03*
%TD*%
%TO.C,C37*%
X172180000Y-120200000D03*
X173140000Y-120200000D03*
%TD*%
D22*
%TO.C,Y3*%
X172260000Y-118825000D03*
X172260000Y-117075000D03*
X170860000Y-117075000D03*
X170860000Y-118825000D03*
%TD*%
D23*
%TO.C,U10*%
X174350000Y-123060000D03*
X174350000Y-124010000D03*
X174350000Y-124960000D03*
X176625000Y-124960000D03*
X176625000Y-124010000D03*
X176625000Y-123060000D03*
%TD*%
D24*
%TO.C,TP4*%
X170910000Y-126760000D03*
%TD*%
%TO.C,TP3*%
X154880000Y-118320000D03*
%TD*%
D25*
%TO.C,R27*%
X175725000Y-126600000D03*
X174075000Y-126600000D03*
%TD*%
D26*
%TO.C,R26*%
X164850000Y-125070000D03*
X166500000Y-125070000D03*
%TD*%
D27*
%TO.C,R25*%
X169290000Y-123855000D03*
X169290000Y-122205000D03*
%TD*%
%TO.C,R24*%
X158270000Y-119795000D03*
X158270000Y-118145000D03*
%TD*%
D17*
%TO.C,R23*%
X161020000Y-113325000D03*
X161020000Y-114975000D03*
%TD*%
D28*
%TO.C,JP7*%
X172860000Y-79970000D03*
D29*
X171560000Y-79970000D03*
D30*
X170260000Y-79970000D03*
%TD*%
D31*
%TO.C,J13*%
X163070000Y-131390000D03*
X164070000Y-131390000D03*
X165070000Y-131390000D03*
X166070000Y-131390000D03*
D32*
X167370000Y-135265000D03*
X161770000Y-135265000D03*
%TD*%
D33*
%TO.C,J11*%
X180440000Y-92745000D03*
X181440000Y-92745000D03*
X182440000Y-92745000D03*
X183440000Y-92745000D03*
D34*
X179140000Y-90220000D03*
X184740000Y-90220000D03*
%TD*%
%TO.C,J10*%
X182700000Y-80030000D03*
X188300000Y-80030000D03*
D33*
X184000000Y-77505000D03*
X185000000Y-77505000D03*
X186000000Y-77505000D03*
X187000000Y-77505000D03*
%TD*%
D35*
%TO.C,D8*%
X164750000Y-129047500D03*
X166650000Y-129047500D03*
X165700000Y-126772500D03*
%TD*%
D36*
%TO.C,C43*%
X175750000Y-119995000D03*
X175750000Y-121545000D03*
%TD*%
D37*
%TO.C,C42*%
X178580000Y-124755000D03*
X178580000Y-123205000D03*
%TD*%
%TO.C,C41*%
X180150000Y-125535000D03*
X180150000Y-123985000D03*
%TD*%
D38*
%TO.C,D5*%
X210684189Y-90795812D03*
X211797883Y-89682118D03*
%TD*%
D39*
%TO.C,R22*%
X178537868Y-104804924D03*
D40*
X179103553Y-104239239D03*
X179669239Y-103673553D03*
D39*
X180234924Y-103107868D03*
X178962132Y-101835076D03*
D40*
X178396447Y-102400761D03*
X177830761Y-102966447D03*
D39*
X177265076Y-103532132D03*
%TD*%
D41*
%TO.C,C11*%
X203079411Y-89110589D03*
X202400589Y-89789411D03*
%TD*%
D37*
%TO.C,C13*%
X217210000Y-89295000D03*
X217210000Y-87745000D03*
%TD*%
D26*
%TO.C,R7*%
X215520000Y-81480000D03*
X217170000Y-81480000D03*
%TD*%
D21*
%TO.C,C17*%
X171960000Y-91780000D03*
X172920000Y-91780000D03*
%TD*%
D42*
%TO.C,R15*%
X206960000Y-120650000D03*
X206960000Y-119630000D03*
%TD*%
D43*
%TO.C,J6*%
X153170000Y-71210000D03*
D44*
X150630000Y-68670000D03*
X150630000Y-73750000D03*
X155710000Y-68670000D03*
X155710000Y-73750000D03*
%TD*%
D36*
%TO.C,C16*%
X152910000Y-60185000D03*
X152910000Y-61735000D03*
%TD*%
D27*
%TO.C,R18*%
X175600000Y-95205000D03*
X175600000Y-93555000D03*
%TD*%
D45*
%TO.C,IC2*%
X224780000Y-95970000D03*
X224780000Y-93670000D03*
X224780000Y-91370000D03*
D46*
X218480000Y-93670000D03*
%TD*%
D47*
%TO.C,J9*%
X224995000Y-75920000D03*
X224995000Y-74920000D03*
X224995000Y-73920000D03*
X224995000Y-72920000D03*
D48*
X222470000Y-77220000D03*
X222470000Y-71620000D03*
%TD*%
D49*
%TO.C,C24*%
X179108249Y-114571751D03*
X180451751Y-113228249D03*
%TD*%
D50*
%TO.C,C4*%
X202780589Y-90849411D03*
X203459411Y-90170589D03*
%TD*%
D51*
%TO.C,C25*%
X193341751Y-119711751D03*
X191998249Y-118368249D03*
%TD*%
D52*
%TO.C,D1*%
X209157500Y-63130000D03*
X207582500Y-63130000D03*
%TD*%
D39*
%TO.C,R6*%
X201245736Y-79979848D03*
D40*
X201811421Y-79414163D03*
X202377107Y-78848477D03*
D39*
X202942792Y-78282792D03*
X201670000Y-77010000D03*
D40*
X201104315Y-77575685D03*
X200538629Y-78141371D03*
D39*
X199972944Y-78707056D03*
%TD*%
D53*
%TO.C,FB1*%
X195676637Y-114936637D03*
X196843363Y-116103363D03*
%TD*%
D37*
%TO.C,C12*%
X218810000Y-89315000D03*
X218810000Y-87765000D03*
%TD*%
D54*
%TO.C,D3*%
X220382500Y-89190000D03*
X221957500Y-89190000D03*
%TD*%
D55*
%TO.C,C20*%
X185068008Y-119961992D03*
X183971992Y-121058008D03*
%TD*%
D21*
%TO.C,C18*%
X171890000Y-95310000D03*
X172850000Y-95310000D03*
%TD*%
D56*
%TO.C,SW2*%
X202480000Y-93910000D03*
X198380000Y-93910000D03*
X202480000Y-95510000D03*
X198380000Y-95510000D03*
%TD*%
D21*
%TO.C,C32*%
X189040000Y-86550000D03*
X190000000Y-86550000D03*
%TD*%
%TO.C,C19*%
X171890000Y-96340000D03*
X172850000Y-96340000D03*
%TD*%
D57*
%TO.C,C34*%
X190300000Y-82430000D03*
X190300000Y-83390000D03*
%TD*%
D25*
%TO.C,L1*%
X156065000Y-60190000D03*
X154415000Y-60190000D03*
%TD*%
D58*
%TO.C,C3*%
X210853984Y-79396016D03*
X211950000Y-78300000D03*
%TD*%
D59*
%TO.C,Y2*%
X193601142Y-105773223D03*
X195156777Y-107328858D03*
X196358858Y-106126777D03*
X194803223Y-104571142D03*
%TD*%
D60*
%TO.C,R2*%
X201460624Y-90269376D03*
X200739376Y-90990624D03*
%TD*%
D25*
%TO.C,R17*%
X173815000Y-90500000D03*
X172165000Y-90500000D03*
%TD*%
D61*
%TO.C,C22*%
X190801992Y-119721992D03*
X191898008Y-120818008D03*
%TD*%
D62*
%TO.C,R21*%
X192256637Y-104563363D03*
X193423363Y-103396637D03*
%TD*%
D63*
%TO.C,Y1*%
X198642614Y-88692512D03*
X199880051Y-89929949D03*
X200870000Y-88940000D03*
X199632563Y-87702563D03*
%TD*%
D58*
%TO.C,C8*%
X211931992Y-80468008D03*
X213028008Y-79371992D03*
%TD*%
D64*
%TO.C,C10*%
X201909411Y-82689411D03*
X201230589Y-82010589D03*
%TD*%
D65*
%TO.C,JP1*%
X217730000Y-129510000D03*
D66*
X219030000Y-129510000D03*
%TD*%
D67*
%TO.C,*%
X227414400Y-138100000D03*
%TD*%
%TO.C,*%
X147381083Y-138100000D03*
%TD*%
D36*
%TO.C,C15*%
X157560000Y-60175000D03*
X157560000Y-61725000D03*
%TD*%
D49*
%TO.C,C27*%
X196578249Y-113161751D03*
X197921751Y-111818249D03*
%TD*%
D68*
%TO.C,R12*%
X220143363Y-72943363D03*
X218976637Y-71776637D03*
%TD*%
D25*
%TO.C,R14*%
X173805000Y-87400000D03*
X172155000Y-87400000D03*
%TD*%
D69*
%TO.C,U4*%
X160910000Y-60001499D03*
X160910000Y-62001499D03*
X160910000Y-64001499D03*
X160910000Y-66001499D03*
X160910000Y-68001499D03*
X160910000Y-70001499D03*
X160910000Y-72001499D03*
X160910000Y-74001499D03*
X195910000Y-74001499D03*
X195910000Y-72001499D03*
X195910000Y-70001499D03*
X195910000Y-68001499D03*
X195910000Y-66001499D03*
X195910000Y-64001499D03*
X195910000Y-62001499D03*
X195910000Y-60001499D03*
D70*
X172477500Y-65251499D03*
%TD*%
D27*
%TO.C,R19*%
X174090000Y-96125000D03*
X174090000Y-94475000D03*
%TD*%
D35*
%TO.C,U1*%
X187320000Y-104777500D03*
X188270000Y-104777500D03*
X189220000Y-104777500D03*
X189220000Y-102502500D03*
X187320000Y-102502500D03*
%TD*%
D26*
%TO.C,R4*%
X210685000Y-63130000D03*
X212335000Y-63130000D03*
%TD*%
D62*
%TO.C,R20*%
X182866637Y-120003363D03*
X184033363Y-118836637D03*
%TD*%
D24*
%TO.C,TP2*%
X195510000Y-91320000D03*
%TD*%
D71*
%TO.C,U7*%
X187257500Y-87970000D03*
X187257500Y-88470000D03*
X187257500Y-88970000D03*
X187257500Y-89470000D03*
D72*
X187920000Y-89632500D03*
X188420000Y-89632500D03*
X188920000Y-89632500D03*
D71*
X189582500Y-89470000D03*
X189582500Y-88970000D03*
X189582500Y-88470000D03*
X189582500Y-87970000D03*
D72*
X188920000Y-87807500D03*
X188420000Y-87807500D03*
X187920000Y-87807500D03*
%TD*%
D41*
%TO.C,C2*%
X198499411Y-86870589D03*
X197820589Y-87549411D03*
%TD*%
D65*
%TO.C,JP6*%
X154540000Y-64220000D03*
D66*
X155840000Y-64220000D03*
%TD*%
D58*
%TO.C,C28*%
X195421992Y-111748008D03*
X196518008Y-110651992D03*
%TD*%
D61*
%TO.C,C6*%
X212811992Y-85251992D03*
X213908008Y-86348008D03*
%TD*%
D64*
%TO.C,C9*%
X205989411Y-78729411D03*
X205310589Y-78050589D03*
%TD*%
D73*
%TO.C,U6*%
X214631454Y-70767377D03*
X213733428Y-71665403D03*
X212835403Y-72563428D03*
X211937377Y-73461454D03*
X217028546Y-78552623D03*
X217926572Y-77654597D03*
X218824597Y-76756572D03*
X219722623Y-75858546D03*
%TD*%
D52*
%TO.C,D2*%
X209137500Y-64730000D03*
X207562500Y-64730000D03*
%TD*%
D53*
%TO.C,FB2*%
X179196637Y-109776637D03*
X180363363Y-110943363D03*
%TD*%
D74*
%TO.C,C7*%
X208890589Y-90770589D03*
X209569411Y-91449411D03*
%TD*%
D26*
%TO.C,R8*%
X215525000Y-83070000D03*
X217175000Y-83070000D03*
%TD*%
D75*
%TO.C,LED1*%
X218160000Y-99190000D03*
X218160000Y-102490000D03*
X223060000Y-102490000D03*
X223060000Y-99190000D03*
%TD*%
D76*
%TO.C,D7*%
X221160000Y-132720000D03*
X223360000Y-132720000D03*
%TD*%
D62*
%TO.C,R11*%
X209546637Y-89703363D03*
X210713363Y-88536637D03*
%TD*%
D74*
%TO.C,C1*%
X201330589Y-87440589D03*
X202009411Y-88119411D03*
%TD*%
D77*
%TO.C,D4*%
X208964683Y-71637817D03*
X210520317Y-70082183D03*
%TD*%
D26*
%TO.C,R3*%
X210685000Y-64750000D03*
X212335000Y-64750000D03*
%TD*%
D78*
%TO.C,J4*%
X209635000Y-133480000D03*
X208535000Y-133480000D03*
X207435000Y-133480000D03*
X206335000Y-133480000D03*
X205235000Y-133480000D03*
X204135000Y-133480000D03*
X203035000Y-133480000D03*
D79*
X201985000Y-133480000D03*
D80*
X212270000Y-127330000D03*
X212270000Y-123630000D03*
D81*
X212095000Y-133355000D03*
D82*
X208770000Y-122655000D03*
X202800000Y-122655000D03*
D83*
X200775000Y-133130000D03*
%TD*%
D68*
%TO.C,R1*%
X205323363Y-92633363D03*
X204156637Y-91466637D03*
%TD*%
D84*
%TO.C,J7*%
X220050000Y-68150000D03*
X220050000Y-67150000D03*
X220050000Y-66150000D03*
X220050000Y-65150000D03*
D85*
X223925000Y-69450000D03*
X223925000Y-63850000D03*
%TD*%
D55*
%TO.C,C21*%
X181678008Y-116701992D03*
X180581992Y-117798008D03*
%TD*%
D61*
%TO.C,C23*%
X193311992Y-117171992D03*
X194408008Y-118268008D03*
%TD*%
D86*
%TO.C,IC1*%
X205337798Y-81040843D03*
X205054955Y-81323686D03*
X204772113Y-81606528D03*
X204489270Y-81889371D03*
X204206427Y-82172214D03*
X203923585Y-82455056D03*
X203640742Y-82737899D03*
X203357899Y-83020742D03*
X203075056Y-83303585D03*
X202792214Y-83586427D03*
X202509371Y-83869270D03*
X202226528Y-84152113D03*
X201943686Y-84434955D03*
X201660843Y-84717798D03*
D87*
X201660843Y-85902202D03*
X201943686Y-86185045D03*
X202226528Y-86467887D03*
X202509371Y-86750730D03*
X202792214Y-87033573D03*
X203075056Y-87316415D03*
X203357899Y-87599258D03*
X203640742Y-87882101D03*
X203923585Y-88164944D03*
X204206427Y-88447786D03*
X204489270Y-88730629D03*
X204772113Y-89013472D03*
X205054955Y-89296314D03*
X205337798Y-89579157D03*
D86*
X206522202Y-89579157D03*
X206805045Y-89296314D03*
X207087887Y-89013472D03*
X207370730Y-88730629D03*
X207653573Y-88447786D03*
X207936415Y-88164944D03*
X208219258Y-87882101D03*
X208502101Y-87599258D03*
X208784944Y-87316415D03*
X209067786Y-87033573D03*
X209350629Y-86750730D03*
X209633472Y-86467887D03*
X209916314Y-86185045D03*
X210199157Y-85902202D03*
D87*
X210199157Y-84717798D03*
X209916314Y-84434955D03*
X209633472Y-84152113D03*
X209350629Y-83869270D03*
X209067786Y-83586427D03*
X208784944Y-83303585D03*
X208502101Y-83020742D03*
X208219258Y-82737899D03*
X207936415Y-82455056D03*
X207653573Y-82172214D03*
X207370730Y-81889371D03*
X207087887Y-81606528D03*
X206805045Y-81323686D03*
X206522202Y-81040843D03*
D88*
X205930000Y-85310000D03*
%TD*%
D21*
%TO.C,C31*%
X187860000Y-85190000D03*
X188820000Y-85190000D03*
%TD*%
D89*
%TO.C,U5*%
X177385000Y-74000000D03*
X177385000Y-72000000D03*
X177385000Y-70000000D03*
X177385000Y-68000000D03*
X177385000Y-66000000D03*
X177385000Y-64000000D03*
X177385000Y-62000000D03*
X177385000Y-60000000D03*
X162335000Y-60000000D03*
X162335000Y-62000000D03*
X162335000Y-64000000D03*
X162335000Y-66000000D03*
X162335000Y-68000000D03*
X162335000Y-70000000D03*
X162335000Y-72000000D03*
X162335000Y-74000000D03*
%TD*%
D64*
%TO.C,C5*%
X214538822Y-85218822D03*
X213860000Y-84540000D03*
%TD*%
D25*
%TO.C,R16*%
X173805000Y-88950000D03*
X172155000Y-88950000D03*
%TD*%
D90*
%TO.C,U8*%
X187557500Y-82470000D03*
X187557500Y-82970000D03*
X187557500Y-83470000D03*
X187557500Y-83970000D03*
D91*
X188070000Y-83982500D03*
X188570000Y-83982500D03*
D90*
X189082500Y-83970000D03*
X189082500Y-83470000D03*
X189082500Y-82970000D03*
X189082500Y-82470000D03*
D91*
X188570000Y-82457500D03*
X188070000Y-82457500D03*
%TD*%
D65*
%TO.C,JP2*%
X217700000Y-132720000D03*
D66*
X219000000Y-132720000D03*
%TD*%
D56*
%TO.C,SW1*%
X197450000Y-83260000D03*
X193350000Y-83260000D03*
X197450000Y-84860000D03*
X193350000Y-84860000D03*
%TD*%
D21*
%TO.C,C36*%
X171940000Y-92840000D03*
X172900000Y-92840000D03*
%TD*%
D74*
%TO.C,C29*%
X192910589Y-107160589D03*
X193589411Y-107839411D03*
%TD*%
D92*
%TO.C,C14*%
X174405000Y-76950000D03*
X172855000Y-76950000D03*
%TD*%
D93*
%TO.C,J2*%
X217950000Y-124180000D03*
X217950000Y-122680000D03*
X217950000Y-121180000D03*
X217950000Y-119680000D03*
X217950000Y-118180000D03*
X217950000Y-116680000D03*
X217950000Y-115180000D03*
X217950000Y-113680000D03*
X217950000Y-112180000D03*
X217950000Y-110680000D03*
X217950000Y-109180000D03*
X217950000Y-107680000D03*
D94*
X223140000Y-126785000D03*
X223140000Y-105075000D03*
%TD*%
D57*
%TO.C,C33*%
X185690000Y-83040000D03*
X185690000Y-84000000D03*
%TD*%
D24*
%TO.C,TP1*%
X192960000Y-79300000D03*
%TD*%
D53*
%TO.C,R5*%
X202296637Y-100356637D03*
X203463363Y-101523363D03*
%TD*%
D95*
%TO.C,U3*%
X212627838Y-98956238D03*
X211729813Y-98058213D03*
X210831787Y-97160187D03*
X209933762Y-96262162D03*
X206292162Y-99903762D03*
X207190187Y-100801787D03*
X208088213Y-101699813D03*
X208986238Y-102597838D03*
%TD*%
D96*
%TO.C,R10*%
X212553363Y-67806637D03*
X211386637Y-68973363D03*
%TD*%
D97*
%TO.C,C26*%
X195528008Y-117148008D03*
X194431992Y-116051992D03*
%TD*%
D41*
%TO.C,C30*%
X197249411Y-107470589D03*
X196570589Y-108149411D03*
%TD*%
D98*
%TO.C,J8*%
X222260000Y-81720000D03*
X222260000Y-82370000D03*
X222260000Y-83020000D03*
X222260000Y-83670000D03*
X222260000Y-84320000D03*
D99*
X224920000Y-86970000D03*
D100*
X222620000Y-85482500D03*
D101*
X224920000Y-83957500D03*
X224920000Y-82082500D03*
D100*
X222620000Y-80557500D03*
D99*
X224920000Y-79070000D03*
%TD*%
D27*
%TO.C,R13*%
X180500000Y-79325000D03*
X180500000Y-77675000D03*
%TD*%
D102*
%TO.C,U2*%
X182484248Y-114327576D03*
X182837802Y-114681130D03*
X183191355Y-115034683D03*
X183544909Y-115388237D03*
X183898462Y-115741790D03*
X184252015Y-116095343D03*
X184605569Y-116448897D03*
X184959122Y-116802450D03*
X185312675Y-117156003D03*
X185666229Y-117509557D03*
X186019782Y-117863110D03*
X186373336Y-118216664D03*
D103*
X188370912Y-118216664D03*
X188724466Y-117863110D03*
X189078019Y-117509557D03*
X189431573Y-117156003D03*
X189785126Y-116802450D03*
X190138679Y-116448897D03*
X190492233Y-116095343D03*
X190845786Y-115741790D03*
X191199339Y-115388237D03*
X191552893Y-115034683D03*
X191906446Y-114681130D03*
X192260000Y-114327576D03*
D102*
X192260000Y-112330000D03*
X191906446Y-111976446D03*
X191552893Y-111622893D03*
X191199339Y-111269339D03*
X190845786Y-110915786D03*
X190492233Y-110562233D03*
X190138679Y-110208679D03*
X189785126Y-109855126D03*
X189431573Y-109501573D03*
X189078019Y-109148019D03*
X188724466Y-108794466D03*
X188370912Y-108440912D03*
D103*
X186373336Y-108440912D03*
X186019782Y-108794466D03*
X185666229Y-109148019D03*
X185312675Y-109501573D03*
X184959122Y-109855126D03*
X184605569Y-110208679D03*
X184252015Y-110562233D03*
X183898462Y-110915786D03*
X183544909Y-111269339D03*
X183191355Y-111622893D03*
X182837802Y-111976446D03*
X182484248Y-112330000D03*
%TD*%
D104*
%TO.C,J3*%
X204330000Y-60190000D03*
D105*
X204330000Y-62730000D03*
X204330000Y-65270000D03*
X204330000Y-67810000D03*
X204330000Y-70350000D03*
X204330000Y-72890000D03*
%TD*%
D21*
%TO.C,C35*%
X187970000Y-90950000D03*
X188930000Y-90950000D03*
%TD*%
D25*
%TO.C,R9*%
X225065000Y-89180000D03*
X223415000Y-89180000D03*
%TD*%
D106*
%TO.C,J1*%
X200345000Y-97380000D03*
X196535000Y-97380000D03*
%TD*%
D107*
%TO.C,J5*%
X162858999Y-99605000D03*
X162858999Y-84055000D03*
D108*
X154909000Y-85505001D03*
X156428999Y-88045001D03*
X156428999Y-98155108D03*
X154909000Y-95615108D03*
X168689000Y-96275000D03*
X166149000Y-95005000D03*
X168689000Y-93735000D03*
X166149000Y-92465000D03*
X168689000Y-91195000D03*
X166149000Y-89925000D03*
X168689000Y-88655000D03*
X166149000Y-87385000D03*
D109*
X159809000Y-97545000D03*
X159809000Y-86115000D03*
%TD*%
G36*
X223442946Y-49636608D02*
G01*
X227340577Y-49627935D01*
X227345324Y-49628103D01*
X227995056Y-49675724D01*
X228034308Y-49685079D01*
X228603298Y-49922159D01*
X228626284Y-49934683D01*
X229087963Y-50252515D01*
X229109748Y-50271542D01*
X229591266Y-50801213D01*
X229606523Y-50821893D01*
X229784671Y-51123518D01*
X229798292Y-51156534D01*
X230040144Y-52107334D01*
X230044024Y-52136891D01*
X230049533Y-52598528D01*
X230041700Y-52643789D01*
X229704374Y-53554689D01*
X229695615Y-53573445D01*
X229508374Y-53901118D01*
X229490183Y-53925536D01*
X229067070Y-54369468D01*
X229051462Y-54383337D01*
X228668419Y-54670619D01*
X228650301Y-54681943D01*
X228355842Y-54832900D01*
X228330826Y-54842522D01*
X227609798Y-55034797D01*
X227577332Y-55039051D01*
X223255209Y-55039051D01*
X223232669Y-55037019D01*
X222714324Y-54942774D01*
X222675648Y-54928936D01*
X222201010Y-54665106D01*
X222194995Y-54661303D01*
X221850124Y-54414967D01*
X221845818Y-54411600D01*
X221644413Y-54239536D01*
X221643326Y-54238586D01*
X221337547Y-53964992D01*
X221312165Y-53933606D01*
X221124041Y-53604387D01*
X221120921Y-53598151D01*
X220951003Y-53205589D01*
X220941609Y-53171166D01*
X220893825Y-52788894D01*
X220893824Y-52788894D01*
X220838383Y-52354226D01*
X220838198Y-52323859D01*
X220840520Y-52303706D01*
X222041620Y-52303706D01*
X222057452Y-52552834D01*
X222057453Y-52552843D01*
X222112444Y-52796323D01*
X222112446Y-52796327D01*
X222205226Y-53028084D01*
X222333453Y-53242265D01*
X222493911Y-53433495D01*
X222682565Y-53596968D01*
X222682564Y-53596968D01*
X222894676Y-53728581D01*
X222894681Y-53728583D01*
X223124924Y-53825029D01*
X223124926Y-53825030D01*
X223367520Y-53883888D01*
X223616375Y-53903722D01*
X223616373Y-53903722D01*
X227466354Y-53953722D01*
X227716668Y-53934027D01*
X227716677Y-53934025D01*
X227960798Y-53875423D01*
X228192770Y-53779341D01*
X228406854Y-53648155D01*
X228597773Y-53485099D01*
X228760831Y-53294186D01*
X228760836Y-53294180D01*
X228892021Y-53080110D01*
X228988109Y-52848138D01*
X229046721Y-52604002D01*
X229066421Y-52353700D01*
X229046721Y-52103397D01*
X228988109Y-51859261D01*
X228892021Y-51627289D01*
X228760836Y-51413219D01*
X228760831Y-51413213D01*
X228597773Y-51222300D01*
X228406854Y-51059244D01*
X228192770Y-50928058D01*
X227960798Y-50831976D01*
X227716666Y-50773372D01*
X227466347Y-50753721D01*
X223666345Y-50754514D01*
X223416992Y-50766397D01*
X223172646Y-50817529D01*
X222939457Y-50906622D01*
X222723278Y-51031438D01*
X222723270Y-51031444D01*
X222529528Y-51188847D01*
X222363086Y-51374888D01*
X222228126Y-51584894D01*
X222128044Y-51813579D01*
X222065349Y-52055215D01*
X222065348Y-52055217D01*
X222041620Y-52303702D01*
X222041620Y-52303706D01*
X220840520Y-52303706D01*
X220905629Y-51738728D01*
X220909649Y-51718538D01*
X221005735Y-51382236D01*
X221008346Y-51374863D01*
X221188731Y-50951064D01*
X221201313Y-50928340D01*
X221524068Y-50465489D01*
X221553518Y-50435508D01*
X221893849Y-50189047D01*
X222176255Y-49953709D01*
X222215469Y-49931518D01*
X222963430Y-49670967D01*
X222984165Y-49665668D01*
X223256197Y-49620329D01*
X223291086Y-49619415D01*
X223442946Y-49636608D01*
G37*
G36*
X146698671Y-49728314D02*
G01*
X150596302Y-49719641D01*
X150601049Y-49719809D01*
X151250781Y-49767430D01*
X151290033Y-49776785D01*
X151859023Y-50013865D01*
X151882009Y-50026389D01*
X152343688Y-50344221D01*
X152365473Y-50363248D01*
X152846991Y-50892919D01*
X152862248Y-50913599D01*
X153040396Y-51215224D01*
X153054017Y-51248240D01*
X153295869Y-52199040D01*
X153299749Y-52228597D01*
X153305258Y-52690234D01*
X153297425Y-52735495D01*
X152960099Y-53646395D01*
X152951340Y-53665151D01*
X152764099Y-53992824D01*
X152745908Y-54017242D01*
X152322795Y-54461174D01*
X152307187Y-54475043D01*
X151924144Y-54762325D01*
X151906026Y-54773649D01*
X151611567Y-54924606D01*
X151586551Y-54934228D01*
X150865523Y-55126503D01*
X150833057Y-55130757D01*
X146510934Y-55130757D01*
X146488394Y-55128725D01*
X145970049Y-55034480D01*
X145931373Y-55020642D01*
X145456735Y-54756812D01*
X145450720Y-54753009D01*
X145105849Y-54506673D01*
X145101543Y-54503306D01*
X144900138Y-54331242D01*
X144899051Y-54330292D01*
X144593272Y-54056698D01*
X144567890Y-54025312D01*
X144379766Y-53696093D01*
X144376646Y-53689857D01*
X144206728Y-53297295D01*
X144197334Y-53262872D01*
X144149550Y-52880600D01*
X144149549Y-52880600D01*
X144101697Y-52505434D01*
X145824909Y-52505434D01*
X145824910Y-52505448D01*
X145860231Y-52752168D01*
X145860232Y-52752174D01*
X145933953Y-52990276D01*
X145933954Y-52990279D01*
X146044225Y-53213790D01*
X146044232Y-53213801D01*
X146188315Y-53417174D01*
X146362615Y-53595336D01*
X146362618Y-53595338D01*
X146562795Y-53743847D01*
X146783847Y-53858993D01*
X147020281Y-53937913D01*
X147266151Y-53978711D01*
X147266163Y-53978712D01*
X150016357Y-54003721D01*
X150266668Y-53984027D01*
X150266677Y-53984025D01*
X150510798Y-53925423D01*
X150742770Y-53829341D01*
X150956854Y-53698155D01*
X151147773Y-53535099D01*
X151310831Y-53344186D01*
X151310836Y-53344180D01*
X151442021Y-53130110D01*
X151538109Y-52898138D01*
X151596721Y-52654002D01*
X151616421Y-52403699D01*
X151596721Y-52153397D01*
X151538109Y-51909261D01*
X151442021Y-51677289D01*
X151310836Y-51463219D01*
X151310831Y-51463213D01*
X151147773Y-51272300D01*
X150956854Y-51109244D01*
X150742770Y-50978058D01*
X150510798Y-50881976D01*
X150266666Y-50823372D01*
X150016344Y-50803721D01*
X147316138Y-50829506D01*
X147316136Y-50829506D01*
X147069065Y-50862404D01*
X146830264Y-50933780D01*
X146830255Y-50933783D01*
X146605667Y-51041855D01*
X146605663Y-51041857D01*
X146400881Y-51183937D01*
X146400878Y-51183940D01*
X146221015Y-51356479D01*
X146221009Y-51356487D01*
X146070549Y-51555184D01*
X146070546Y-51555188D01*
X145953231Y-51775104D01*
X145871995Y-52010741D01*
X145871994Y-52010745D01*
X145828862Y-52256227D01*
X145824909Y-52505434D01*
X144101697Y-52505434D01*
X144094108Y-52445932D01*
X144093923Y-52415565D01*
X144161354Y-51830434D01*
X144165374Y-51810244D01*
X144261460Y-51473942D01*
X144264071Y-51466569D01*
X144444456Y-51042770D01*
X144457038Y-51020046D01*
X144779793Y-50557195D01*
X144809243Y-50527214D01*
X145149574Y-50280753D01*
X145431980Y-50045415D01*
X145471194Y-50023224D01*
X146219155Y-49762673D01*
X146239890Y-49757374D01*
X146511922Y-49712035D01*
X146546811Y-49711121D01*
X146698671Y-49728314D01*
G37*
M02*
