M48
; DRILL file {KiCad 7.0.5} date Wed Aug  2 13:43:57 2023
; FORMAT={-:-/ absolute / inch / decimal}
; #@! TF.CreationDate,2023-08-02T13:43:57-07:00
; #@! TF.GenerationSoftware,Kicad,Pcbnew,7.0.5
; #@! TF.FileFunction,Plated,1,4,PTH
FMAT,2
INCH
; #@! TA.AperFunction,Plated,PTH,ViaDrill
T1C0.0079
; #@! TA.AperFunction,Plated,PTH,ComponentDrill
T2C0.0079
; #@! TA.AperFunction,Plated,PTH,ViaDrill
T3C0.0118
; #@! TA.AperFunction,Plated,PTH,ViaDrill
T4C0.0157
; #@! TA.AperFunction,Plated,PTH,ComponentDrill
T5C0.0276
; #@! TA.AperFunction,Plated,PTH,ComponentDrill
T6C0.0350
; #@! TA.AperFunction,Plated,PTH,ComponentDrill
T7C0.0394
; #@! TA.AperFunction,Plated,PTH,ComponentDrill
T8C0.0591
; #@! TA.AperFunction,Plated,PTH,ComponentDrill
T9C0.0630
; #@! TA.AperFunction,Plated,PTH,ComponentDrill
T10C0.0669
; #@! TA.AperFunction,Plated,PTH,ComponentDrill
T11C0.1260
%
G90
G05
T1
X6.3197Y-4.7142
X6.3772Y-4.5291
X6.3913Y-5.0476
X6.4354Y-4.8807
X6.4362Y-4.7295
X6.4374Y-4.6673
X6.485Y-2.7925
X6.4894Y-2.6441
X6.5244Y-5.0409
X6.5323Y-4.7295
X6.5339Y-4.6665
X6.5382Y-4.4484
X6.5665Y-4.448
X6.5969Y-4.4413
X6.6413Y-4.7638
X6.6524Y-4.3469
X6.6551Y-4.9315
X6.6587Y-4.374
X6.6642Y-4.4024
X6.6976Y-5.1382
X6.8059Y-4.8882
X6.8335Y-3.8846
X6.8433Y-3.6209
X6.8445Y-4.5657
X6.8484Y-4.2441
X6.8512Y-3.8559
X6.8634Y-4.2689
X6.8685Y-3.8201
X6.8711Y-4.2984
X6.8756Y-3.9154
X6.8854Y-4.498
X6.9031Y-3.1382
X6.9453Y-4.3634
X6.9669Y-3.0354
X6.9791Y-4.7283
X6.987Y-4.1925
X7.0098Y-4.4307
X7.0232Y-4.0882
X7.063Y-4.0445
X7.0783Y-3.1984
X7.0894Y-5.0
X7.1035Y-3.5764
X7.1091Y-3.0
X7.1189Y-4.5301
X7.1433Y-3.5835
X7.1563Y-4.5528
X7.1827Y-3.5882
X7.1965Y-3.3768
X7.2142Y-2.5985
X7.2555Y-4.0579
X7.2587Y-2.756
X7.2587Y-2.8843
X7.2681Y-3.3083
X7.2988Y-4.5248
X7.2992Y-4.4941
X7.3224Y-2.6772
X7.3232Y-2.8874
X7.3244Y-4.3657
X7.3256Y-4.1024
X7.3433Y-4.3413
X7.3531Y-3.3071
X7.3555Y-4.5933
X7.3858Y-3.2189
X7.3889Y-3.3898
X7.3948Y-4.165
X7.4157Y-3.4087
X7.4209Y-3.2827
X7.426Y-4.5795
X7.4621Y-4.1701
X7.47Y-4.2421
X7.4713Y-4.5417
X7.4783Y-3.3693
X7.4835Y-3.5811
X7.4862Y-4.113
X7.4917Y-4.4539
X7.4989Y-4.2701
X7.5012Y-3.989
X7.5024Y-3.6614
X7.5142Y-4.7839
X7.5568Y-4.2579
X7.5945Y-4.3752
X7.6031Y-4.3358
X7.6459Y-4.3494
X7.6476Y-3.6752
X7.6898Y-3.3409
X7.7441Y-4.0787
X7.7795Y-2.6091
X7.7795Y-2.6839
X7.7831Y-2.7594
X7.7921Y-4.639
X7.7968Y-4.6953
X7.8099Y-3.2359
X7.8161Y-3.5461
X7.8205Y-3.276
X7.822Y-4.3705
X7.8258Y-4.7518
X7.8501Y-3.2444
X7.8579Y-2.8469
X7.8659Y-3.3152
X7.8858Y-3.213
X7.8874Y-3.2543
X7.9098Y-2.6134
X7.9184Y-3.2598
X7.9531Y-3.8886
X7.9732Y-3.6028
X7.9772Y-3.0406
X7.9787Y-3.3469
X7.9795Y-3.247
X7.9862Y-3.3803
X7.9933Y-5.2055
X8.0004Y-3.0075
X8.0138Y-3.3996
X8.0235Y-3.2987
X8.0343Y-3.0925
X8.0362Y-5.202
X8.0469Y-4.0882
X8.0497Y-3.2815
X8.0516Y-3.7823
X8.0519Y-3.961
X8.0547Y-3.565
X8.065Y-3.258
X8.0689Y-3.111
X8.0726Y-3.4605
X8.0787Y-5.2043
X8.0842Y-3.55
X8.1005Y-3.5857
X8.1008Y-3.4886
X8.1063Y-3.0539
X8.1211Y-3.6184
X8.1236Y-5.2067
X8.1252Y-4.4665
X8.1327Y-3.4811
X8.1374Y-3.2516
X8.1492Y-3.6457
X8.1492Y-3.724
X8.1562Y-3.4538
X8.1661Y-5.2055
X8.1783Y-3.4307
X8.2067Y-2.8528
X8.2091Y-5.2055
X8.21Y-3.4958
X8.212Y-3.5341
X8.2157Y-3.8421
X8.2352Y-3.1541
X8.2539Y-3.6969
X8.255Y-3.4559
X8.2697Y-3.1579
X8.2835Y-3.6193
X8.3807Y-3.5693
X8.3909Y-3.1937
X8.4748Y-3.8378
X8.4827Y-4.298
X8.5067Y-3.8189
X8.5077Y-3.0302
X8.5276Y-4.2394
X8.5291Y-4.4169
X8.5291Y-4.8894
X8.5303Y-4.648
X8.5311Y-4.3575
X8.5335Y-4.5929
X8.5343Y-4.7083
X8.5358Y-4.5343
X8.5598Y-3.0055
X8.5937Y-2.9697
X8.6264Y-4.8244
X8.6283Y-4.7717
X8.6651Y-4.4748
X8.6831Y-4.6941
X8.8406Y-3.9787
T2
X8.0323Y-3.3587
X8.1075Y-3.2835
X8.1075Y-3.4338
X8.1826Y-3.3587
T3
X5.9764Y-2.422
X5.9768Y-2.3705
X5.9811Y-2.3217
X5.9972Y-2.6343
X5.9988Y-2.5858
X6.0181Y-2.5535
X6.0283Y-2.3213
X6.0283Y-2.513
X6.0327Y-2.4713
X6.0602Y-2.5933
X6.0606Y-2.6343
X6.078Y-2.3205
X6.0972Y-2.5933
X6.1122Y-2.4551
X6.113Y-2.4157
X6.1252Y-2.3224
X6.1413Y-2.5933
X6.172Y-2.322
X6.2213Y-2.322
X6.2642Y-2.3224
X6.2673Y-2.3913
X6.3075Y-2.3087
X6.3496Y-2.2925
X6.4008Y-2.2913
X6.4524Y-2.2925
X6.4736Y-2.3323
X6.4768Y-2.3764
X6.4783Y-2.415
T4
X6.4043Y-4.0622
X6.6291Y-4.2689
X6.7476Y-4.002
X7.0957Y-3.7862
X7.4437Y-3.776
X7.6736Y-5.115
X7.7228Y-3.0732
X7.935Y-4.1874
X7.9638Y-4.6539
X8.2004Y-3.0055
X8.2496Y-4.5114
X8.3142Y-2.8256
X8.3209Y-4.2488
X8.4012Y-3.0646
X8.4193Y-2.9004
X8.4752Y-3.3878
X8.4776Y-2.9264
X8.5882Y-2.6835
X8.5909Y-3.2709
X8.6346Y-3.2709
X8.6449Y-3.226
X8.6492Y-2.772
X8.6772Y-3.3343
X8.6831Y-3.1811
X8.6831Y-3.2713
X8.7177Y-2.9752
X8.7327Y-3.6512
X8.7661Y-3.7795
X8.7697Y-3.4504
X8.7988Y-2.9093
X8.7988Y-2.9506
X8.8429Y-5.2252
X8.8504Y-3.0327
T6
X6.0988Y-3.3663
X6.0988Y-3.7644
X6.1586Y-3.4663
X6.1586Y-3.8644
X6.5413Y-3.4404
X6.5413Y-3.5404
X6.5413Y-3.6404
X6.5413Y-3.7404
X6.6413Y-3.4904
X6.6413Y-3.5904
X6.6413Y-3.6904
X6.6413Y-3.7904
T7
X6.0976Y-4.6583
X6.7287Y-4.9906
X7.5969Y-3.122
X7.6972Y-3.5953
X8.0445Y-2.3697
X8.0445Y-2.4697
X8.0445Y-2.5697
X8.0445Y-2.6697
X8.0445Y-2.7697
X8.0445Y-2.8697
T8
X6.0303Y-2.8035
T9
X6.4118Y-3.3093
X6.4118Y-3.9215
T10
X5.9303Y-2.7035
X5.9303Y-2.9035
X6.1303Y-2.7035
X6.1303Y-2.9035
T11
X5.8024Y-5.437
X8.9533Y-5.437
T5
G00X8.8433Y-3.113
M15
G01X8.8669Y-3.113
M16
G05
G00X8.8433Y-3.424
M15
G01X8.8669Y-3.424
M16
G05
T0
M30
