%TF.GenerationSoftware,KiCad,Pcbnew,7.0.1*%
%TF.CreationDate,2023-07-16T20:54:18-07:00*%
%TF.ProjectId,flight_computer_dev_board_rfm98pw,666c6967-6874-45f6-936f-6d7075746572,rev?*%
%TF.SameCoordinates,Original*%
%TF.FileFunction,Copper,L4,Bot*%
%TF.FilePolarity,Positive*%
%FSLAX46Y46*%
G04 Gerber Fmt 4.6, Leading zero omitted, Abs format (unit mm)*
G04 Created by KiCad (PCBNEW 7.0.1) date 2023-07-16 20:54:18*
%MOMM*%
%LPD*%
G01*
G04 APERTURE LIST*
G04 Aperture macros list*
%AMRotRect*
0 Rectangle, with rotation*
0 The origin of the aperture is its center*
0 $1 length*
0 $2 width*
0 $3 Rotation angle, in degrees counterclockwise*
0 Add horizontal line*
21,1,$1,$2,0,0,$3*%
%AMFreePoly0*
4,1,19,0.499999,-0.750000,0.000000,-0.750000,0.000000,-0.744912,-0.071157,-0.744911,-0.207708,-0.704816,-0.327430,-0.627875,-0.420627,-0.520320,-0.479746,-0.390866,-0.500000,-0.250000,-0.500000,0.250000,-0.479746,0.390866,-0.420627,0.520320,-0.327430,0.627875,-0.207708,0.704816,-0.071157,0.744911,0.000000,0.744912,0.000000,0.750000,0.499999,0.750000,0.499999,-0.750000,0.499999,-0.750000,
$1*%
%AMFreePoly1*
4,1,19,0.000000,0.744912,0.071157,0.744911,0.207708,0.704816,0.327430,0.627875,0.420627,0.520320,0.479746,0.390866,0.500000,0.250000,0.500000,-0.250000,0.479746,-0.390866,0.420627,-0.520320,0.327430,-0.627875,0.207708,-0.704816,0.071157,-0.744911,0.000000,-0.744912,0.000000,-0.750000,-0.499999,-0.750000,-0.499999,0.750000,0.000000,0.750000,0.000000,0.744912,0.000000,0.744912,
$1*%
G04 Aperture macros list end*
%TA.AperFunction,ComponentPad*%
%ADD10C,2.050000*%
%TD*%
%TA.AperFunction,ComponentPad*%
%ADD11C,2.250000*%
%TD*%
%TA.AperFunction,ComponentPad*%
%ADD12C,5.000000*%
%TD*%
%TA.AperFunction,ComponentPad*%
%ADD13C,2.000000*%
%TD*%
%TA.AperFunction,ComponentPad*%
%ADD14C,0.500000*%
%TD*%
%TA.AperFunction,SMDPad,CuDef*%
%ADD15RotRect,3.200000X3.200000X315.000000*%
%TD*%
%TA.AperFunction,ComponentPad*%
%ADD16O,2.416000X1.208000*%
%TD*%
%TA.AperFunction,ComponentPad*%
%ADD17R,1.700000X1.700000*%
%TD*%
%TA.AperFunction,ComponentPad*%
%ADD18O,1.700000X1.700000*%
%TD*%
%TA.AperFunction,SMDPad,CuDef*%
%ADD19R,0.760000X2.600000*%
%TD*%
%TA.AperFunction,SMDPad,CuDef*%
%ADD20FreePoly0,135.000000*%
%TD*%
%TA.AperFunction,SMDPad,CuDef*%
%ADD21FreePoly1,135.000000*%
%TD*%
%TA.AperFunction,ComponentPad*%
%ADD22C,1.397000*%
%TD*%
%TA.AperFunction,ComponentPad*%
%ADD23C,2.108200*%
%TD*%
%TA.AperFunction,ViaPad*%
%ADD24C,0.600000*%
%TD*%
%TA.AperFunction,ViaPad*%
%ADD25C,0.800000*%
%TD*%
%TA.AperFunction,ViaPad*%
%ADD26C,0.460000*%
%TD*%
%TA.AperFunction,Conductor*%
%ADD27C,0.250000*%
%TD*%
%TA.AperFunction,Conductor*%
%ADD28C,0.127000*%
%TD*%
G04 APERTURE END LIST*
D10*
%TO.P,J6,1,In*%
%TO.N,Net-(J6-In)*%
X153170000Y-71210000D03*
D11*
%TO.P,J6,2,Ext*%
%TO.N,GND*%
X150630000Y-68670000D03*
X150630000Y-73750000D03*
X155710000Y-68670000D03*
X155710000Y-73750000D03*
%TD*%
D12*
%TO.P,,1*%
%TO.N,N/C*%
X227414400Y-138100000D03*
%TD*%
%TO.P,,1*%
%TO.N,N/C*%
X147381083Y-138100000D03*
%TD*%
D13*
%TO.P,TP2,1,1*%
%TO.N,/~{RESET}*%
X195510000Y-91320000D03*
%TD*%
D14*
%TO.P,IC1,57,GND*%
%TO.N,GND*%
X205930000Y-83400812D03*
X204020812Y-85310000D03*
D15*
X205930000Y-85310000D03*
D14*
X207839188Y-85310000D03*
X205930000Y-87219188D03*
%TD*%
D13*
%TO.P,TP1,1,1*%
%TO.N,/USBBOOT*%
X192960000Y-79300000D03*
%TD*%
D16*
%TO.P,J8,SH1,Shield*%
%TO.N,GND*%
X224920000Y-86970000D03*
%TO.P,J8,SH6*%
%TO.N,N/C*%
X224920000Y-79070000D03*
%TD*%
D17*
%TO.P,J3,1,Pin_1*%
%TO.N,GND*%
X204330000Y-60190000D03*
D18*
%TO.P,J3,2,Pin_2*%
%TO.N,TX*%
X204330000Y-62730000D03*
%TO.P,J3,3,Pin_3*%
%TO.N,RX*%
X204330000Y-65270000D03*
%TO.P,J3,4,Pin_4*%
%TO.N,SCL1*%
X204330000Y-67810000D03*
%TO.P,J3,5,Pin_5*%
%TO.N,SDA1*%
X204330000Y-70350000D03*
%TO.P,J3,6,Pin_6*%
%TO.N,3.3V*%
X204330000Y-72890000D03*
%TD*%
D19*
%TO.P,J1,1,VTref*%
%TO.N,3.3V*%
X200980000Y-99530000D03*
%TO.P,J1,2,SWDIO/TMS*%
%TO.N,SWDIO*%
X200980000Y-95230000D03*
%TO.P,J1,3,GND*%
%TO.N,GND*%
X199710000Y-99530000D03*
%TO.P,J1,4,SWDCLK/TCK*%
%TO.N,SWCLK*%
X199710000Y-95230000D03*
%TO.P,J1,5,GND*%
%TO.N,GND*%
X198440000Y-99530000D03*
%TO.P,J1,6,SWO/TDO*%
%TO.N,unconnected-(J1-SWO{slash}TDO-Pad6)*%
X198440000Y-95230000D03*
%TO.P,J1,7,KEY*%
%TO.N,unconnected-(J1-KEY-Pad7)*%
X197170000Y-99530000D03*
%TO.P,J1,8,NC/TDI*%
%TO.N,unconnected-(J1-NC{slash}TDI-Pad8)*%
X197170000Y-95230000D03*
%TO.P,J1,9,GNDDetect*%
%TO.N,GND*%
X195900000Y-99530000D03*
%TO.P,J1,10,~{RESET}*%
%TO.N,/~{RESET}*%
X195900000Y-95230000D03*
%TD*%
D20*
%TO.P,JP5,1,A*%
%TO.N,Net-(JP3-A)*%
X179249619Y-109739619D03*
D21*
%TO.P,JP5,2,B*%
%TO.N,Net-(JP5-B)*%
X178330381Y-108820381D03*
%TD*%
D22*
%TO.P,J5,1*%
%TO.N,TX+*%
X166490001Y-92230000D03*
%TO.P,J5,2*%
%TO.N,TX-*%
X169030001Y-90960000D03*
%TO.P,J5,3*%
%TO.N,TCT*%
X166490001Y-89690000D03*
%TO.P,J5,4*%
%TO.N,GND*%
X169030001Y-88420000D03*
%TO.P,J5,5*%
X166490001Y-87150000D03*
%TO.P,J5,6*%
%TO.N,RCT*%
X169030001Y-85880000D03*
%TO.P,J5,7*%
%TO.N,Net-(C18-Pad1)*%
X166490001Y-84610000D03*
%TO.P,J5,8*%
%TO.N,Net-(C19-Pad1)*%
X169030001Y-83340000D03*
%TO.P,J5,9*%
%TO.N,GREENLED*%
X155250001Y-83999892D03*
%TO.P,J5,10*%
%TO.N,3.3V*%
X156770000Y-81459892D03*
%TO.P,J5,11*%
%TO.N,YELLOWLED*%
X156770000Y-91569999D03*
%TO.P,J5,12*%
%TO.N,3.3V*%
X155250001Y-94109999D03*
D23*
%TO.P,J5,15*%
%TO.N,N/C*%
X163200000Y-95560000D03*
%TO.P,J5,16*%
X163200000Y-80010000D03*
%TD*%
D20*
%TO.P,JP4,1,A*%
%TO.N,Net-(JP3-A)*%
X181080000Y-107900000D03*
D21*
%TO.P,JP4,2,B*%
%TO.N,Net-(JP4-B)*%
X180160762Y-106980762D03*
%TD*%
D20*
%TO.P,JP3,1,A*%
%TO.N,Net-(JP3-A)*%
X182909619Y-106039619D03*
D21*
%TO.P,JP3,2,B*%
%TO.N,Net-(JP3-B)*%
X181990381Y-105120381D03*
%TD*%
D24*
%TO.N,GND*%
X164550000Y-61340000D03*
X164510000Y-60360000D03*
X164430000Y-59240000D03*
X163890000Y-58230000D03*
X162580000Y-58200000D03*
X161280000Y-58230000D03*
X160210000Y-58640000D03*
X153230000Y-62770000D03*
X153120000Y-63830000D03*
X152860000Y-64860000D03*
X152370000Y-65680000D03*
X152330000Y-66910000D03*
X153940000Y-66910000D03*
X153930000Y-65870000D03*
X154870000Y-65870000D03*
X155990000Y-65870000D03*
X155250000Y-62360000D03*
X155270000Y-61360000D03*
X159190000Y-60740000D03*
X151800000Y-61520000D03*
X151810000Y-60210000D03*
X151920000Y-58970000D03*
X153120000Y-58960000D03*
X154380000Y-58940000D03*
X155580000Y-58990000D03*
X156770000Y-58980000D03*
X158020000Y-58980000D03*
X159110000Y-58990000D03*
D25*
X208290000Y-76340000D03*
X196160000Y-78060000D03*
X201550000Y-106360000D03*
X189070000Y-95910000D03*
X180230000Y-96170000D03*
X168380000Y-108430000D03*
%TO.N,3.3V*%
X162670000Y-103180000D03*
X171390000Y-101650000D03*
X209540000Y-114590000D03*
X211350000Y-107920000D03*
X194910000Y-129920000D03*
X202280000Y-118210000D03*
%TO.N,GND*%
X215270000Y-86050000D03*
D26*
X216640000Y-124190000D03*
X176410000Y-110830000D03*
X184610000Y-84030000D03*
X210400000Y-91930000D03*
D25*
X218140000Y-68160000D03*
D26*
X208679998Y-97590002D03*
X200300000Y-81610000D03*
X216750000Y-116660000D03*
D25*
X213390000Y-77840000D03*
X222660000Y-96000000D03*
D26*
X189950000Y-85580000D03*
X190290000Y-113130000D03*
X198530000Y-90070000D03*
X190150000Y-104470000D03*
D25*
X220400000Y-84690000D03*
D26*
X205900000Y-77570000D03*
X204120000Y-132130000D03*
X224550000Y-101060000D03*
D25*
X211180000Y-71770000D03*
D26*
X195320000Y-84860000D03*
X198680000Y-111010000D03*
X194250000Y-93350000D03*
X202520000Y-91510000D03*
X188490000Y-83380000D03*
X190080000Y-90960000D03*
X216600000Y-107680000D03*
%TO.N,3.3V*%
X216690000Y-110680000D03*
X206340000Y-132250000D03*
X213130000Y-81120000D03*
X188360000Y-86580000D03*
X202010000Y-98770000D03*
D25*
%TO.N,VBUS*%
X221810000Y-92740000D03*
X220550000Y-80800000D03*
X222750000Y-87640000D03*
X224610000Y-132720000D03*
D26*
%TO.N,VCC_RF1*%
X182790000Y-85770000D03*
X215460000Y-109170000D03*
X204390000Y-103840000D03*
X175340000Y-79710000D03*
X190560000Y-93000000D03*
%TO.N,RX+*%
X174250000Y-86940000D03*
X185390000Y-114930000D03*
%TO.N,RX-*%
X175440000Y-83230000D03*
X185400000Y-114150000D03*
%TO.N,TX*%
X204950000Y-79020000D03*
%TO.N,RX*%
X204070000Y-78550000D03*
%TO.N,/USBBOOT*%
X208450000Y-72460000D03*
%TO.N,SDA1*%
X203210000Y-76390000D03*
X186770000Y-84000000D03*
%TO.N,SCL1*%
X187678042Y-86101958D03*
X187600000Y-81760000D03*
X202620000Y-77230000D03*
%TO.N,SDA0*%
X220093000Y-113660000D03*
X204850522Y-82754243D03*
%TO.N,SCL0*%
X204462067Y-83351099D03*
X216810000Y-115170000D03*
%TO.N,ENABLE_BURN*%
X203796738Y-83787000D03*
X216640000Y-112190000D03*
%TO.N,I2C_RESET*%
X202679075Y-82473441D03*
X216770000Y-119590000D03*
X220550000Y-119230000D03*
%TO.N,SPI1_MISO*%
X201127420Y-82797802D03*
X199590000Y-72310000D03*
%TO.N,SPI1_CS0*%
X200340891Y-82659109D03*
X197600000Y-66270000D03*
X183240000Y-66001499D03*
X183240000Y-75080000D03*
%TO.N,SPI1_SCK*%
X197600000Y-68170000D03*
X199392286Y-82407714D03*
%TO.N,SPI1_MOSI*%
X197690000Y-70090000D03*
X198371758Y-82190609D03*
%TO.N,ENAB_RF*%
X202660000Y-85010000D03*
X216670000Y-118060000D03*
%TO.N,VBUS_RESET*%
X219160000Y-121200000D03*
X202849500Y-85860738D03*
%TO.N,BURN_RELAY_A*%
X219110000Y-122540000D03*
X203550000Y-86350000D03*
%TO.N,SWCLK*%
X205044501Y-87897613D03*
%TO.N,SWDIO*%
X205760000Y-88610000D03*
%TO.N,SPI0_MISO*%
X190530000Y-101320000D03*
X196700000Y-103600000D03*
X203030000Y-132220000D03*
X204589411Y-90550000D03*
X197920000Y-117830000D03*
%TO.N,SPI0_CS0*%
X204510000Y-96070000D03*
X204517000Y-100610000D03*
X208510000Y-132220000D03*
X205337798Y-90170000D03*
X206380000Y-113450000D03*
%TO.N,SPI0_SCK*%
X190471573Y-108461573D03*
X205200000Y-132190000D03*
X198038604Y-119261396D03*
X205753603Y-91075929D03*
%TO.N,SPI0_MOSI*%
X189737000Y-107749415D03*
X206276956Y-91906956D03*
X207420000Y-132220000D03*
X198775000Y-120695000D03*
%TO.N,RF1_RST*%
X200910000Y-66380000D03*
X206570000Y-88420000D03*
%TO.N,WDT_WDI*%
X206990000Y-92600000D03*
X206990000Y-94590000D03*
%TO.N,RF1_IO4*%
X198640000Y-83210000D03*
X184080000Y-80820000D03*
X164830000Y-67160000D03*
X207168321Y-87727200D03*
%TO.N,RF1_IO0*%
X207730000Y-87140000D03*
X199794371Y-84205629D03*
X164720000Y-70930000D03*
X183180000Y-81240000D03*
%TO.N,NEOPIX*%
X208534359Y-88793124D03*
X216070000Y-97000000D03*
%TO.N,NEO_PWR*%
X215260000Y-97480000D03*
X208583633Y-89766425D03*
%TO.N,/QSPI_DATA[3]*%
X218280000Y-75430000D03*
X210049974Y-80209974D03*
%TO.N,/QSPI_SCK*%
X217420000Y-76340000D03*
X209174194Y-80114194D03*
%TO.N,/QSPI_DATA[0]*%
X206690000Y-82590000D03*
X216096396Y-76966396D03*
D25*
%TO.N,/QSPI_DATA[2]*%
X213850000Y-73670000D03*
X215330000Y-74330000D03*
D26*
%TO.N,TX+*%
X181770000Y-115640000D03*
%TO.N,TX-*%
X180820000Y-115064124D03*
%TO.N,GREENLED*%
X192900000Y-111130000D03*
X174000000Y-95010000D03*
%TO.N,YELLOWLED*%
X193120000Y-110130000D03*
X174020000Y-95970000D03*
%TO.N,Net-(JP3-B)*%
X179400000Y-102730000D03*
%TO.N,Net-(JP4-B)*%
X178390000Y-103840000D03*
%TO.N,Net-(JP5-B)*%
X177470000Y-106490000D03*
D25*
%TO.N,USB_D-*%
X218210000Y-83080000D03*
X219580000Y-81940000D03*
%TO.N,USB_D+*%
X219320000Y-83080000D03*
X220550000Y-83090000D03*
D26*
%TO.N,SPI0_CS1*%
X209677000Y-87778655D03*
X187828006Y-105790561D03*
X189538604Y-105921396D03*
%TO.N,GNDA*%
X178050000Y-112540000D03*
X176300000Y-88870000D03*
X186830000Y-116670000D03*
X188620000Y-116320000D03*
X190860000Y-121510000D03*
X189770000Y-115360000D03*
%TD*%
D27*
%TO.N,3.3V*%
X200980000Y-99530000D02*
X201250000Y-99530000D01*
X201250000Y-99530000D02*
X202010000Y-98770000D01*
%TO.N,VBUS*%
X225670000Y-98590000D02*
X225745000Y-98665000D01*
X224130000Y-97570000D02*
X224650000Y-97570000D01*
X221810000Y-96175305D02*
X223204695Y-97570000D01*
X223204695Y-97570000D02*
X224130000Y-97570000D01*
X224650000Y-97570000D02*
X225670000Y-98590000D01*
X225745000Y-131585000D02*
X224610000Y-132720000D01*
X225745000Y-98665000D02*
X225745000Y-131585000D01*
X221810000Y-92740000D02*
X221810000Y-96175305D01*
%TO.N,VCC_RF1*%
X210130000Y-103840000D02*
X215460000Y-109170000D01*
X176730000Y-79710000D02*
X182790000Y-85770000D01*
X175340000Y-79710000D02*
X176730000Y-79710000D01*
X204390000Y-103840000D02*
X210130000Y-103840000D01*
D28*
%TO.N,/USBBOOT*%
X192960000Y-79300000D02*
X201610000Y-79300000D01*
X201610000Y-79300000D02*
X208450000Y-72460000D01*
%TO.N,SPI1_CS0*%
X183240000Y-75080000D02*
X183240000Y-66001499D01*
%TO.N,SWCLK*%
X205044501Y-87897613D02*
X204756601Y-87897613D01*
X199710000Y-92944214D02*
X199710000Y-95230000D01*
X204756601Y-87897613D02*
X199710000Y-92944214D01*
%TO.N,SWDIO*%
X205760000Y-88610000D02*
X204630000Y-88610000D01*
X200980000Y-92260000D02*
X200980000Y-95230000D01*
X204630000Y-88610000D02*
X200980000Y-92260000D01*
D27*
%TO.N,/~{RESET}*%
X195900000Y-91710000D02*
X195510000Y-91320000D01*
X195900000Y-95230000D02*
X195900000Y-91710000D01*
D28*
%TO.N,SPI0_CS0*%
X205337798Y-90572202D02*
X204510000Y-91400000D01*
X203896500Y-101230500D02*
X204517000Y-100610000D01*
X203896500Y-110966500D02*
X203896500Y-101230500D01*
X205337798Y-90170000D02*
X205337798Y-90572202D01*
X204510000Y-91400000D02*
X204510000Y-96070000D01*
X206380000Y-113450000D02*
X203896500Y-110966500D01*
%TO.N,WDT_WDI*%
X206990000Y-92600000D02*
X206990000Y-94590000D01*
%TO.N,RF1_IO4*%
X198640000Y-83210000D02*
X196696500Y-81266500D01*
X196696500Y-81266500D02*
X184526500Y-81266500D01*
X184526500Y-81266500D02*
X184080000Y-80820000D01*
%TO.N,RF1_IO0*%
X186000000Y-81593500D02*
X188612129Y-84205629D01*
X188612129Y-84205629D02*
X199794371Y-84205629D01*
X183180000Y-81240000D02*
X183533500Y-81593500D01*
X183533500Y-81593500D02*
X186000000Y-81593500D01*
%TO.N,/QSPI_DATA[3]*%
X218280000Y-75430000D02*
X214829948Y-75430000D01*
X214829948Y-75430000D02*
X210049974Y-80209974D01*
%TO.N,/QSPI_SCK*%
X209845559Y-80703474D02*
X211464857Y-80703474D01*
X214680000Y-76340000D02*
X217420000Y-76340000D01*
X209174194Y-80114194D02*
X209256279Y-80114194D01*
X214053500Y-78114831D02*
X214053500Y-76966500D01*
X211464857Y-80703474D02*
X214053500Y-78114831D01*
X214053500Y-76966500D02*
X214680000Y-76340000D01*
X209256279Y-80114194D02*
X209845559Y-80703474D01*
%TO.N,/QSPI_DATA[0]*%
X208200000Y-81080000D02*
X206690000Y-82590000D01*
X215673604Y-76966396D02*
X211560000Y-81080000D01*
X216096396Y-76966396D02*
X215673604Y-76966396D01*
X211560000Y-81080000D02*
X208200000Y-81080000D01*
%TO.N,/QSPI_DATA[2]*%
X214510000Y-74330000D02*
X215330000Y-74330000D01*
X213850000Y-73670000D02*
X214510000Y-74330000D01*
%TO.N,GREENLED*%
X173526500Y-95483500D02*
X173526500Y-96174415D01*
X173526500Y-96174415D02*
X174702085Y-97350000D01*
X192836500Y-111193500D02*
X192900000Y-111130000D01*
X176900000Y-97350000D02*
X190743500Y-111193500D01*
X190743500Y-111193500D02*
X192836500Y-111193500D01*
X174000000Y-95010000D02*
X173526500Y-95483500D01*
X174702085Y-97350000D02*
X176900000Y-97350000D01*
%TO.N,YELLOWLED*%
X193120000Y-110130000D02*
X191350000Y-110130000D01*
X191350000Y-110130000D02*
X177190000Y-95970000D01*
X177190000Y-95970000D02*
X174020000Y-95970000D01*
%TO.N,Net-(JP3-A)*%
X179249619Y-109739619D02*
X179249619Y-109699619D01*
X179249619Y-109699619D02*
X182909619Y-106039619D01*
%TO.N,Net-(JP3-B)*%
X181990381Y-105120381D02*
X181790381Y-105120381D01*
X181790381Y-105120381D02*
X179400000Y-102730000D01*
%TO.N,Net-(JP4-B)*%
X180160762Y-105610762D02*
X178390000Y-103840000D01*
X180160762Y-106980762D02*
X180160762Y-105610762D01*
%TO.N,Net-(JP5-B)*%
X178330381Y-108820381D02*
X178330381Y-107350381D01*
X178330381Y-107350381D02*
X177470000Y-106490000D01*
D27*
%TO.N,USB_D-*%
X219350000Y-81940000D02*
X218210000Y-83080000D01*
X219580000Y-81940000D02*
X219350000Y-81940000D01*
%TO.N,USB_D+*%
X220540000Y-83080000D02*
X220550000Y-83090000D01*
X219320000Y-83080000D02*
X220540000Y-83080000D01*
D28*
%TO.N,SPI0_CS1*%
X187958841Y-105921396D02*
X187828006Y-105790561D01*
X189538604Y-105921396D02*
X187958841Y-105921396D01*
%TO.N,GNDA*%
X173199500Y-108659500D02*
X173199500Y-91970500D01*
X173199500Y-91970500D02*
X176300000Y-88870000D01*
X174890000Y-110350000D02*
X173199500Y-108659500D01*
X177080000Y-112540000D02*
X174890000Y-110350000D01*
X178050000Y-112540000D02*
X177080000Y-112540000D01*
%TD*%
%TA.AperFunction,Conductor*%
%TO.N,GNDA*%
G36*
X192622869Y-111806958D02*
G01*
X192650462Y-111816613D01*
X192736420Y-111846691D01*
X192845473Y-111858978D01*
X192899999Y-111865122D01*
X192899999Y-111865121D01*
X192900000Y-111865122D01*
X193063580Y-111846691D01*
X193170040Y-111809439D01*
X193177131Y-111806958D01*
X193218085Y-111800000D01*
X193968638Y-111800000D01*
X194016091Y-111809439D01*
X194056319Y-111836319D01*
X198073681Y-115853681D01*
X198100561Y-115893909D01*
X198110000Y-115941362D01*
X198110000Y-116977530D01*
X198090994Y-117043502D01*
X198039801Y-117089250D01*
X197972115Y-117100749D01*
X197968694Y-117100364D01*
X197919999Y-117094877D01*
X197756419Y-117113308D01*
X197601042Y-117167677D01*
X197461658Y-117255257D01*
X197345257Y-117371658D01*
X197257677Y-117511042D01*
X197203308Y-117666419D01*
X197184877Y-117829999D01*
X197203308Y-117993580D01*
X197257677Y-118148957D01*
X197345257Y-118288341D01*
X197355776Y-118298860D01*
X197387870Y-118354447D01*
X197387870Y-118418635D01*
X197355776Y-118474222D01*
X192389999Y-123440000D01*
X192384428Y-123453452D01*
X192357548Y-123493681D01*
X192317320Y-123520561D01*
X192269867Y-123530000D01*
X183581362Y-123530000D01*
X183533909Y-123520561D01*
X183493681Y-123493681D01*
X177186319Y-117186319D01*
X177159439Y-117146091D01*
X177150000Y-117098638D01*
X177150000Y-115064123D01*
X180084877Y-115064123D01*
X180103308Y-115227704D01*
X180157677Y-115383081D01*
X180245257Y-115522465D01*
X180361658Y-115638866D01*
X180501042Y-115726446D01*
X180656419Y-115780815D01*
X180819999Y-115799246D01*
X180819999Y-115799245D01*
X180820000Y-115799246D01*
X180889902Y-115791370D01*
X180944735Y-115785192D01*
X180999573Y-115791370D01*
X181046300Y-115820730D01*
X181075660Y-115867457D01*
X181107677Y-115958957D01*
X181195257Y-116098341D01*
X181311658Y-116214742D01*
X181451042Y-116302322D01*
X181606419Y-116356691D01*
X181770000Y-116375122D01*
X181933580Y-116356691D01*
X182088957Y-116302322D01*
X182228341Y-116214742D01*
X182344742Y-116098341D01*
X182432322Y-115958957D01*
X182486691Y-115803580D01*
X182505122Y-115640000D01*
X182486691Y-115476420D01*
X182432322Y-115321043D01*
X182432322Y-115321042D01*
X182344742Y-115181658D01*
X182228341Y-115065257D01*
X182088957Y-114977677D01*
X181952705Y-114930000D01*
X184654877Y-114930000D01*
X184673308Y-115093580D01*
X184727677Y-115248957D01*
X184815257Y-115388341D01*
X184931658Y-115504742D01*
X185071042Y-115592322D01*
X185226419Y-115646691D01*
X185390000Y-115665122D01*
X185553580Y-115646691D01*
X185708957Y-115592322D01*
X185848341Y-115504742D01*
X185964742Y-115388341D01*
X186052322Y-115248957D01*
X186106691Y-115093580D01*
X186125122Y-114930000D01*
X186106691Y-114766420D01*
X186106691Y-114766419D01*
X186047708Y-114597856D01*
X186049340Y-114597284D01*
X186035129Y-114547956D01*
X186054134Y-114481986D01*
X186062322Y-114468957D01*
X186116691Y-114313580D01*
X186135122Y-114150000D01*
X186116691Y-113986420D01*
X186067797Y-113846691D01*
X186062322Y-113831042D01*
X185974742Y-113691658D01*
X185858341Y-113575257D01*
X185718957Y-113487677D01*
X185563580Y-113433308D01*
X185400000Y-113414877D01*
X185236419Y-113433308D01*
X185081042Y-113487677D01*
X184941658Y-113575257D01*
X184825257Y-113691658D01*
X184737677Y-113831042D01*
X184683308Y-113986419D01*
X184664877Y-114149999D01*
X184683308Y-114313580D01*
X184742292Y-114482143D01*
X184740660Y-114482713D01*
X184754870Y-114532044D01*
X184735867Y-114598009D01*
X184727677Y-114611043D01*
X184673308Y-114766419D01*
X184654877Y-114930000D01*
X181952705Y-114930000D01*
X181933580Y-114923308D01*
X181769999Y-114904877D01*
X181645263Y-114918931D01*
X181590425Y-114912752D01*
X181543699Y-114883392D01*
X181514339Y-114836667D01*
X181482322Y-114745167D01*
X181468771Y-114723601D01*
X181394742Y-114605782D01*
X181278341Y-114489381D01*
X181138957Y-114401801D01*
X180983580Y-114347432D01*
X180820000Y-114329001D01*
X180656419Y-114347432D01*
X180501042Y-114401801D01*
X180361658Y-114489381D01*
X180245257Y-114605782D01*
X180157677Y-114745166D01*
X180103308Y-114900543D01*
X180084877Y-115064123D01*
X177150000Y-115064123D01*
X177150000Y-113130000D01*
X189554877Y-113130000D01*
X189573308Y-113293580D01*
X189627677Y-113448957D01*
X189715257Y-113588341D01*
X189831658Y-113704742D01*
X189971042Y-113792322D01*
X190126419Y-113846691D01*
X190290000Y-113865122D01*
X190453580Y-113846691D01*
X190608957Y-113792322D01*
X190748341Y-113704742D01*
X190864742Y-113588341D01*
X190952322Y-113448957D01*
X191006691Y-113293580D01*
X191025122Y-113130000D01*
X191006691Y-112966420D01*
X190952322Y-112811043D01*
X190952322Y-112811042D01*
X190864742Y-112671658D01*
X190748341Y-112555257D01*
X190608957Y-112467677D01*
X190453580Y-112413308D01*
X190290000Y-112394877D01*
X190126419Y-112413308D01*
X189971042Y-112467677D01*
X189831658Y-112555257D01*
X189715257Y-112671658D01*
X189627677Y-112811042D01*
X189573308Y-112966419D01*
X189554877Y-113130000D01*
X177150000Y-113130000D01*
X177150000Y-111924000D01*
X177166613Y-111862000D01*
X177212000Y-111816613D01*
X177274000Y-111800000D01*
X192581915Y-111800000D01*
X192622869Y-111806958D01*
G37*
%TD.AperFunction*%
%TD*%
%TA.AperFunction,Conductor*%
%TO.N,GND*%
G36*
X190326502Y-112907688D02*
G01*
X190353571Y-112913866D01*
X190375054Y-112921384D01*
X190375057Y-112921385D01*
X190400069Y-112933431D01*
X190419347Y-112945544D01*
X190441057Y-112962857D01*
X190457141Y-112978941D01*
X190474452Y-113000646D01*
X190486567Y-113019928D01*
X190498615Y-113044947D01*
X190506131Y-113066428D01*
X190512309Y-113093498D01*
X190514857Y-113116114D01*
X190514858Y-113143875D01*
X190512310Y-113166497D01*
X190506129Y-113193577D01*
X190498612Y-113215057D01*
X190486566Y-113240069D01*
X190474453Y-113259347D01*
X190457140Y-113281057D01*
X190441057Y-113297140D01*
X190419347Y-113314453D01*
X190400069Y-113326566D01*
X190375057Y-113338612D01*
X190353577Y-113346129D01*
X190326497Y-113352310D01*
X190303876Y-113354858D01*
X190276113Y-113354857D01*
X190253499Y-113352309D01*
X190226430Y-113346131D01*
X190204944Y-113338613D01*
X190179925Y-113326565D01*
X190160649Y-113314453D01*
X190138940Y-113297140D01*
X190122857Y-113281057D01*
X190105544Y-113259347D01*
X190093431Y-113240069D01*
X190081385Y-113215057D01*
X190073866Y-113193571D01*
X190067688Y-113166502D01*
X190065139Y-113143873D01*
X190065140Y-113116114D01*
X190067689Y-113093494D01*
X190073866Y-113066430D01*
X190081384Y-113044944D01*
X190093429Y-113019930D01*
X190105547Y-113000645D01*
X190122853Y-112978944D01*
X190138944Y-112962853D01*
X190160645Y-112945547D01*
X190179930Y-112933429D01*
X190204941Y-112921385D01*
X190226431Y-112913865D01*
X190253494Y-112907689D01*
X190276118Y-112905139D01*
X190303873Y-112905139D01*
X190326502Y-112907688D01*
G37*
%TD.AperFunction*%
%TA.AperFunction,Conductor*%
G36*
X173925818Y-97390462D02*
G01*
X173975181Y-97420712D01*
X174271384Y-97716915D01*
X174282079Y-97729110D01*
X174299835Y-97752250D01*
X174360706Y-97798957D01*
X174417652Y-97842653D01*
X174554851Y-97899483D01*
X174684955Y-97916611D01*
X174702084Y-97918867D01*
X174702084Y-97918866D01*
X174702085Y-97918867D01*
X174730995Y-97915060D01*
X174747179Y-97914000D01*
X176615021Y-97914000D01*
X176662474Y-97923439D01*
X176702702Y-97950319D01*
X182507119Y-103754736D01*
X182538902Y-103809185D01*
X182539802Y-103872225D01*
X182509587Y-103927559D01*
X182456067Y-103960883D01*
X182393079Y-103963583D01*
X182310682Y-103945658D01*
X182263070Y-103938812D01*
X182239265Y-103935390D01*
X182167118Y-103935390D01*
X182023704Y-103945649D01*
X181883079Y-103976240D01*
X181748363Y-104026486D01*
X181665375Y-104071801D01*
X181614794Y-104086653D01*
X181562614Y-104079151D01*
X181518267Y-104050650D01*
X180157867Y-102690250D01*
X180133828Y-102656370D01*
X180122328Y-102616451D01*
X180116691Y-102566420D01*
X180062322Y-102411042D01*
X179974742Y-102271658D01*
X179858341Y-102155257D01*
X179718957Y-102067677D01*
X179563580Y-102013308D01*
X179400000Y-101994877D01*
X179236419Y-102013308D01*
X179081042Y-102067677D01*
X178941658Y-102155257D01*
X178825257Y-102271658D01*
X178737677Y-102411042D01*
X178683308Y-102566419D01*
X178664877Y-102729999D01*
X178683308Y-102893580D01*
X178707967Y-102964049D01*
X178711818Y-103032594D01*
X178678611Y-103092682D01*
X178618526Y-103125893D01*
X178567669Y-103123040D01*
X178567463Y-103124873D01*
X178390000Y-103104877D01*
X178226419Y-103123308D01*
X178071042Y-103177677D01*
X177931658Y-103265257D01*
X177815257Y-103381658D01*
X177727677Y-103521042D01*
X177673308Y-103676419D01*
X177654877Y-103839999D01*
X177673308Y-104003580D01*
X177727677Y-104158957D01*
X177815257Y-104298341D01*
X177931658Y-104414742D01*
X178071042Y-104502322D01*
X178226420Y-104556691D01*
X178276451Y-104562328D01*
X178316370Y-104573828D01*
X178350250Y-104597867D01*
X179560443Y-105808060D01*
X179587323Y-105848288D01*
X179596762Y-105895741D01*
X179596762Y-106071200D01*
X179587323Y-106118653D01*
X179560443Y-106158881D01*
X179326865Y-106392458D01*
X179320388Y-106398489D01*
X179269247Y-106442803D01*
X179222012Y-106497316D01*
X179222004Y-106497327D01*
X179161929Y-106577579D01*
X179135839Y-106612431D01*
X179066867Y-106738744D01*
X179016621Y-106873459D01*
X178998056Y-106958801D01*
X178964831Y-107019863D01*
X178903967Y-107053450D01*
X178834594Y-107049005D01*
X178778513Y-107007927D01*
X178732630Y-106948130D01*
X178709491Y-106930375D01*
X178697296Y-106919680D01*
X178227867Y-106450250D01*
X178203828Y-106416370D01*
X178192328Y-106376451D01*
X178186691Y-106326420D01*
X178132322Y-106171042D01*
X178044742Y-106031658D01*
X177928341Y-105915257D01*
X177788957Y-105827677D01*
X177633580Y-105773308D01*
X177470000Y-105754877D01*
X177306419Y-105773308D01*
X177151042Y-105827677D01*
X177011658Y-105915257D01*
X176895257Y-106031658D01*
X176807677Y-106171042D01*
X176753308Y-106326419D01*
X176734877Y-106489999D01*
X176753308Y-106653580D01*
X176807677Y-106808957D01*
X176895257Y-106948341D01*
X177011658Y-107064742D01*
X177151042Y-107152322D01*
X177306420Y-107206691D01*
X177356451Y-107212328D01*
X177396370Y-107223828D01*
X177430250Y-107247867D01*
X177730062Y-107547678D01*
X177756942Y-107587906D01*
X177766381Y-107635359D01*
X177766381Y-107910819D01*
X177756942Y-107958272D01*
X177730062Y-107998500D01*
X177496484Y-108232077D01*
X177490007Y-108238108D01*
X177438866Y-108282422D01*
X177391631Y-108336935D01*
X177391623Y-108336946D01*
X177316006Y-108437960D01*
X177305458Y-108452050D01*
X177236486Y-108578363D01*
X177186240Y-108713079D01*
X177155649Y-108853704D01*
X177145390Y-108997118D01*
X177145390Y-109044140D01*
X177145390Y-109069266D01*
X177147573Y-109084448D01*
X177155658Y-109140682D01*
X177186221Y-109281175D01*
X177236515Y-109416017D01*
X177305414Y-109542196D01*
X177305419Y-109542205D01*
X177305422Y-109542209D01*
X177318707Y-109562881D01*
X177344428Y-109602902D01*
X177391676Y-109657429D01*
X177796057Y-110061810D01*
X177903135Y-110143974D01*
X177926023Y-110166862D01*
X178008189Y-110273942D01*
X178412569Y-110678322D01*
X178414504Y-110679999D01*
X178467099Y-110725573D01*
X178527791Y-110764578D01*
X178527798Y-110764582D01*
X178527803Y-110764585D01*
X178653982Y-110833484D01*
X178788824Y-110883778D01*
X178788827Y-110883778D01*
X178788828Y-110883779D01*
X178929320Y-110914342D01*
X179000734Y-110924610D01*
X179072882Y-110924609D01*
X179216294Y-110914351D01*
X179356922Y-110883759D01*
X179491635Y-110833514D01*
X179617953Y-110764540D01*
X179733054Y-110678377D01*
X179787579Y-110631131D01*
X179831905Y-110579974D01*
X179837910Y-110573525D01*
X180083525Y-110327910D01*
X180089974Y-110321905D01*
X180141131Y-110277579D01*
X180188377Y-110223054D01*
X180274540Y-110107953D01*
X180343514Y-109981635D01*
X180393759Y-109846922D01*
X180424351Y-109706294D01*
X180434609Y-109562882D01*
X180434610Y-109490734D01*
X180424342Y-109419320D01*
X180421438Y-109405971D01*
X180423627Y-109344677D01*
X180454921Y-109291932D01*
X180639901Y-109106952D01*
X180692647Y-109075657D01*
X180753937Y-109073469D01*
X180759701Y-109074723D01*
X180831115Y-109084991D01*
X180903263Y-109084990D01*
X181046675Y-109074732D01*
X181187303Y-109044140D01*
X181322016Y-108993895D01*
X181448334Y-108924921D01*
X181563435Y-108838758D01*
X181617960Y-108791512D01*
X181662286Y-108740355D01*
X181668291Y-108733906D01*
X181913906Y-108488291D01*
X181920355Y-108482286D01*
X181971512Y-108437960D01*
X182018758Y-108383435D01*
X182104921Y-108268334D01*
X182173895Y-108142016D01*
X182224140Y-108007303D01*
X182254732Y-107866675D01*
X182264990Y-107723263D01*
X182264991Y-107651115D01*
X182254723Y-107579701D01*
X182253469Y-107573937D01*
X182255657Y-107512647D01*
X182286952Y-107459901D01*
X182495764Y-107251089D01*
X182544284Y-107221118D01*
X182601088Y-107216034D01*
X182660734Y-107224610D01*
X182732882Y-107224609D01*
X182876294Y-107214351D01*
X183016922Y-107183759D01*
X183151635Y-107133514D01*
X183277953Y-107064540D01*
X183393054Y-106978377D01*
X183447579Y-106931131D01*
X183491905Y-106879974D01*
X183497910Y-106873525D01*
X183743525Y-106627910D01*
X183749974Y-106621905D01*
X183801131Y-106577579D01*
X183848377Y-106523054D01*
X183934540Y-106407953D01*
X184003514Y-106281635D01*
X184053759Y-106146922D01*
X184084351Y-106006294D01*
X184094609Y-105862882D01*
X184094610Y-105790734D01*
X184084342Y-105719320D01*
X184066416Y-105636918D01*
X184069115Y-105573932D01*
X184102439Y-105520413D01*
X184157774Y-105490197D01*
X184220814Y-105491097D01*
X184275263Y-105522880D01*
X189835203Y-111082819D01*
X189865453Y-111132182D01*
X189869995Y-111189898D01*
X189847840Y-111243385D01*
X189803817Y-111280985D01*
X189747522Y-111294500D01*
X177273999Y-111294500D01*
X177143169Y-111311724D01*
X177081161Y-111328339D01*
X176959250Y-111378836D01*
X176908142Y-111418053D01*
X176854188Y-111441793D01*
X176795368Y-111437938D01*
X176744975Y-111407358D01*
X173799819Y-108462202D01*
X173772939Y-108421974D01*
X173763500Y-108374521D01*
X173763500Y-97508393D01*
X173777015Y-97452098D01*
X173814615Y-97408075D01*
X173868102Y-97385920D01*
X173925818Y-97390462D01*
G37*
%TD.AperFunction*%
%TA.AperFunction,Conductor*%
G36*
X196458974Y-81839939D02*
G01*
X196499202Y-81866819D01*
X197882132Y-83249749D01*
X197906171Y-83283628D01*
X197917671Y-83323546D01*
X197923308Y-83373580D01*
X197959383Y-83476674D01*
X197965125Y-83534963D01*
X197943472Y-83589384D01*
X197899256Y-83627796D01*
X197842342Y-83641629D01*
X188897107Y-83641629D01*
X188849654Y-83632190D01*
X188809426Y-83605310D01*
X187841807Y-82637690D01*
X187810334Y-82584336D01*
X187808597Y-82522416D01*
X187837029Y-82467382D01*
X187888532Y-82432968D01*
X187918957Y-82422322D01*
X188058341Y-82334742D01*
X188174742Y-82218341D01*
X188262322Y-82078957D01*
X188283260Y-82019120D01*
X188320203Y-81913545D01*
X188346346Y-81870158D01*
X188387657Y-81840846D01*
X188437244Y-81830500D01*
X196411521Y-81830500D01*
X196458974Y-81839939D01*
G37*
%TD.AperFunction*%
%TA.AperFunction,Conductor*%
G36*
X230926583Y-57283515D02*
G01*
X230970606Y-57321115D01*
X230992761Y-57374602D01*
X230988219Y-57432318D01*
X230957969Y-57481681D01*
X226267208Y-62172441D01*
X226245311Y-62187978D01*
X226224598Y-62213950D01*
X226215345Y-62224304D01*
X226212252Y-62227396D01*
X226209922Y-62231105D01*
X226201889Y-62242426D01*
X226181176Y-62268400D01*
X226176517Y-62279647D01*
X226172800Y-62312641D01*
X226170475Y-62326333D01*
X226169500Y-62330607D01*
X226169500Y-62334978D01*
X226168721Y-62348859D01*
X226165002Y-62381865D01*
X226169500Y-62408332D01*
X226169500Y-77955488D01*
X226155032Y-78013616D01*
X226115003Y-78058179D01*
X226058755Y-78078778D01*
X225999417Y-78070606D01*
X225836589Y-78005420D01*
X225836587Y-78005419D01*
X225629467Y-77965500D01*
X224263387Y-77965500D01*
X224263382Y-77965500D01*
X224106023Y-77980526D01*
X223903633Y-78039952D01*
X223716142Y-78136610D01*
X223550342Y-78266998D01*
X223412206Y-78426415D01*
X223306740Y-78609087D01*
X223237752Y-78808417D01*
X223207733Y-79017205D01*
X223207733Y-79017207D01*
X223212855Y-79124742D01*
X223217769Y-79227902D01*
X223267500Y-79432894D01*
X223355122Y-79624761D01*
X223447953Y-79755122D01*
X223477478Y-79796584D01*
X223630138Y-79942145D01*
X223807587Y-80056184D01*
X224003411Y-80134580D01*
X224210533Y-80174500D01*
X224527236Y-80174500D01*
X224587217Y-80189972D01*
X224632230Y-80232528D01*
X224651041Y-80291548D01*
X224638956Y-80352300D01*
X224610906Y-80410547D01*
X224602119Y-80428794D01*
X224569500Y-80571706D01*
X224569500Y-80718294D01*
X224602119Y-80861207D01*
X224665719Y-80993275D01*
X224665721Y-80993277D01*
X224757117Y-81107883D01*
X224817263Y-81155848D01*
X224871724Y-81199280D01*
X224953434Y-81238629D01*
X225003794Y-81262881D01*
X225146706Y-81295500D01*
X225197410Y-81295500D01*
X225220000Y-81295500D01*
X225259882Y-81295500D01*
X225835989Y-81295500D01*
X225865067Y-81298958D01*
X225921388Y-81312544D01*
X225951611Y-81324185D01*
X225967279Y-81332717D01*
X226007277Y-81354498D01*
X226033453Y-81373569D01*
X226055373Y-81394428D01*
X226079368Y-81417263D01*
X226099714Y-81442466D01*
X226132744Y-81496557D01*
X226145869Y-81526167D01*
X226163764Y-81586964D01*
X226168773Y-81618967D01*
X226170201Y-81677771D01*
X226169371Y-81686215D01*
X226169433Y-81702821D01*
X226168729Y-81716482D01*
X226166019Y-81741790D01*
X226169676Y-81766856D01*
X226174442Y-83019684D01*
X226174443Y-83020156D01*
X226174443Y-84272753D01*
X226170915Y-84297258D01*
X226173737Y-84323592D01*
X226174443Y-84336803D01*
X226174443Y-84355686D01*
X226175071Y-84361946D01*
X226173651Y-84420513D01*
X226168644Y-84452512D01*
X226150755Y-84513304D01*
X226137630Y-84542917D01*
X226104608Y-84597001D01*
X226084263Y-84622204D01*
X226038358Y-84665894D01*
X226012181Y-84684969D01*
X225956531Y-84715279D01*
X225926309Y-84726923D01*
X225892332Y-84735122D01*
X225867805Y-84741040D01*
X225838720Y-84744500D01*
X225146706Y-84744500D01*
X225003792Y-84777119D01*
X224871724Y-84840719D01*
X224757117Y-84932117D01*
X224665719Y-85046724D01*
X224602119Y-85178792D01*
X224569500Y-85321706D01*
X224569500Y-85468294D01*
X224602119Y-85611208D01*
X224639196Y-85688199D01*
X224651281Y-85748953D01*
X224632470Y-85807972D01*
X224587457Y-85850528D01*
X224527476Y-85866000D01*
X224263411Y-85866000D01*
X224106113Y-85881019D01*
X223903819Y-85940419D01*
X223716414Y-86037032D01*
X223550688Y-86167361D01*
X223412615Y-86326705D01*
X223307197Y-86509296D01*
X223234367Y-86719727D01*
X223231938Y-86718886D01*
X223218823Y-86752335D01*
X223176743Y-86790404D01*
X223122110Y-86805741D01*
X223066365Y-86795134D01*
X223029802Y-86778855D01*
X222844648Y-86739500D01*
X222844646Y-86739500D01*
X222655354Y-86739500D01*
X222655352Y-86739500D01*
X222470197Y-86778855D01*
X222297269Y-86855848D01*
X222144129Y-86967110D01*
X222017466Y-87107783D01*
X221922820Y-87271715D01*
X221864326Y-87451742D01*
X221844540Y-87640000D01*
X221864326Y-87828257D01*
X221922820Y-88008284D01*
X222017466Y-88172216D01*
X222144129Y-88312889D01*
X222297269Y-88424151D01*
X222470197Y-88501144D01*
X222655352Y-88540500D01*
X222655354Y-88540500D01*
X222844646Y-88540500D01*
X222844648Y-88540500D01*
X222970369Y-88513777D01*
X223029803Y-88501144D01*
X223202730Y-88424151D01*
X223325735Y-88334783D01*
X223355870Y-88312889D01*
X223482533Y-88172216D01*
X223577178Y-88008286D01*
X223581451Y-87995135D01*
X223610458Y-87947032D01*
X223657712Y-87916663D01*
X223713518Y-87910259D01*
X223766423Y-87929136D01*
X223807814Y-87955737D01*
X224003554Y-88034099D01*
X224210580Y-88074000D01*
X224670000Y-88074000D01*
X224670000Y-86844000D01*
X224686613Y-86782000D01*
X224732000Y-86736613D01*
X224794000Y-86720000D01*
X225046000Y-86720000D01*
X225108000Y-86736613D01*
X225153387Y-86782000D01*
X225170000Y-86844000D01*
X225170000Y-88074000D01*
X225576589Y-88074000D01*
X225733886Y-88058980D01*
X225936180Y-87999580D01*
X225988680Y-87972515D01*
X226049926Y-87958810D01*
X226110038Y-87976850D01*
X226153617Y-88022013D01*
X226169500Y-88082731D01*
X226169500Y-97905548D01*
X226155985Y-97961843D01*
X226118385Y-98005866D01*
X226064898Y-98028021D01*
X226007182Y-98023479D01*
X225957819Y-97993229D01*
X225608170Y-97643580D01*
X225150802Y-97186211D01*
X225137906Y-97170113D01*
X225086775Y-97122098D01*
X225083978Y-97119387D01*
X225064470Y-97099879D01*
X225061290Y-97097412D01*
X225052424Y-97089839D01*
X225020582Y-97059938D01*
X225003024Y-97050285D01*
X224986764Y-97039604D01*
X224970936Y-97027327D01*
X224930851Y-97009980D01*
X224920361Y-97004841D01*
X224882091Y-96983802D01*
X224862691Y-96978821D01*
X224844284Y-96972519D01*
X224825897Y-96964562D01*
X224782758Y-96957729D01*
X224771324Y-96955361D01*
X224729019Y-96944500D01*
X224708984Y-96944500D01*
X224689586Y-96942973D01*
X224682162Y-96941797D01*
X224669805Y-96939840D01*
X224669804Y-96939840D01*
X224636751Y-96942964D01*
X224626325Y-96943950D01*
X224614656Y-96944500D01*
X224209019Y-96944500D01*
X223515147Y-96944500D01*
X223467694Y-96935061D01*
X223427466Y-96908181D01*
X222471819Y-95952533D01*
X222444939Y-95912305D01*
X222435500Y-95864852D01*
X222435500Y-93438687D01*
X222443736Y-93394249D01*
X222467347Y-93355717D01*
X222542533Y-93272216D01*
X222637179Y-93108284D01*
X222695674Y-92928256D01*
X222715460Y-92740000D01*
X222695674Y-92551744D01*
X222656455Y-92431041D01*
X222637179Y-92371715D01*
X222542533Y-92207783D01*
X222415870Y-92067110D01*
X222262730Y-91955848D01*
X222089802Y-91878855D01*
X221904648Y-91839500D01*
X221904646Y-91839500D01*
X221715354Y-91839500D01*
X221715352Y-91839500D01*
X221530197Y-91878855D01*
X221357269Y-91955848D01*
X221204129Y-92067110D01*
X221077466Y-92207783D01*
X220982820Y-92371715D01*
X220924326Y-92551742D01*
X220904540Y-92740000D01*
X220924326Y-92928257D01*
X220982820Y-93108284D01*
X221077464Y-93272213D01*
X221077467Y-93272216D01*
X221152652Y-93355717D01*
X221176264Y-93394249D01*
X221184500Y-93438687D01*
X221184500Y-96092561D01*
X221182235Y-96113067D01*
X221184439Y-96183178D01*
X221184500Y-96187073D01*
X221184500Y-96214654D01*
X221185003Y-96218639D01*
X221185918Y-96230272D01*
X221187290Y-96273931D01*
X221192879Y-96293165D01*
X221196825Y-96312221D01*
X221199335Y-96332097D01*
X221215414Y-96372709D01*
X221219197Y-96383756D01*
X221231382Y-96425696D01*
X221241580Y-96442940D01*
X221250136Y-96460405D01*
X221257514Y-96479037D01*
X221257515Y-96479038D01*
X221283180Y-96514364D01*
X221289593Y-96524127D01*
X221311826Y-96561721D01*
X221311829Y-96561724D01*
X221311830Y-96561725D01*
X221325995Y-96575890D01*
X221338627Y-96590680D01*
X221350406Y-96606892D01*
X221384058Y-96634731D01*
X221392699Y-96642594D01*
X222703892Y-97953787D01*
X222716793Y-97969889D01*
X222718907Y-97971874D01*
X222718909Y-97971877D01*
X222755103Y-98005866D01*
X222767935Y-98017916D01*
X222770730Y-98020625D01*
X222790225Y-98040120D01*
X222793399Y-98042582D01*
X222802263Y-98050153D01*
X222834113Y-98080062D01*
X222844609Y-98085832D01*
X222851669Y-98089714D01*
X222867926Y-98100392D01*
X222883759Y-98112674D01*
X222899880Y-98119649D01*
X222923851Y-98130023D01*
X222934338Y-98135160D01*
X222972603Y-98156197D01*
X222992011Y-98161180D01*
X223010405Y-98167478D01*
X223028800Y-98175438D01*
X223071949Y-98182271D01*
X223083375Y-98184638D01*
X223098917Y-98188629D01*
X223125675Y-98195500D01*
X223125676Y-98195500D01*
X223145711Y-98195500D01*
X223165108Y-98197026D01*
X223184891Y-98200160D01*
X223228369Y-98196050D01*
X223240039Y-98195500D01*
X224050981Y-98195500D01*
X224169350Y-98195500D01*
X224339548Y-98195500D01*
X224387001Y-98204939D01*
X224427229Y-98231819D01*
X225083181Y-98887772D01*
X225110061Y-98928000D01*
X225119500Y-98975453D01*
X225119500Y-131274547D01*
X225110061Y-131322000D01*
X225083181Y-131362228D01*
X224662228Y-131783181D01*
X224622000Y-131810061D01*
X224574547Y-131819500D01*
X224515352Y-131819500D01*
X224330197Y-131858855D01*
X224157269Y-131935848D01*
X224004129Y-132047110D01*
X223877466Y-132187783D01*
X223782820Y-132351715D01*
X223724326Y-132531742D01*
X223704540Y-132720000D01*
X223724326Y-132908257D01*
X223782820Y-133088284D01*
X223877466Y-133252216D01*
X224004129Y-133392889D01*
X224157269Y-133504151D01*
X224330197Y-133581144D01*
X224515352Y-133620500D01*
X224515354Y-133620500D01*
X224704646Y-133620500D01*
X224704648Y-133620500D01*
X224828084Y-133594262D01*
X224889803Y-133581144D01*
X225062730Y-133504151D01*
X225215871Y-133392888D01*
X225342533Y-133252216D01*
X225437179Y-133088284D01*
X225495674Y-132908256D01*
X225513322Y-132740341D01*
X225524720Y-132699927D01*
X225548957Y-132665632D01*
X226128789Y-132085800D01*
X226144885Y-132072906D01*
X226146873Y-132070787D01*
X226146877Y-132070786D01*
X226192948Y-132021723D01*
X226195566Y-132019023D01*
X226215120Y-131999471D01*
X226217581Y-131996298D01*
X226225156Y-131987427D01*
X226255062Y-131955582D01*
X226264717Y-131938018D01*
X226275394Y-131921764D01*
X226287673Y-131905936D01*
X226305018Y-131865852D01*
X226310160Y-131855356D01*
X226331197Y-131817092D01*
X226336179Y-131797684D01*
X226342481Y-131779280D01*
X226350437Y-131760896D01*
X226357269Y-131717752D01*
X226359633Y-131706338D01*
X226370500Y-131664019D01*
X226370500Y-131643984D01*
X226372027Y-131624585D01*
X226373504Y-131615257D01*
X226375160Y-131604804D01*
X226371050Y-131561325D01*
X226370500Y-131549656D01*
X226370500Y-128320211D01*
X226384015Y-128263916D01*
X226421615Y-128219893D01*
X226475102Y-128197738D01*
X226532818Y-128202280D01*
X226582180Y-128232529D01*
X228942538Y-130592888D01*
X231106381Y-132756731D01*
X231133261Y-132796959D01*
X231142700Y-132844412D01*
X231142700Y-134816000D01*
X231126087Y-134878000D01*
X231080700Y-134923387D01*
X231018700Y-134940000D01*
X143667700Y-134940000D01*
X143605700Y-134923387D01*
X143560313Y-134878000D01*
X143543700Y-134816000D01*
X143543700Y-132844411D01*
X143553139Y-132796958D01*
X143580019Y-132756730D01*
X144116749Y-132220000D01*
X202294877Y-132220000D01*
X202313308Y-132383580D01*
X202367677Y-132538957D01*
X202455257Y-132678341D01*
X202571658Y-132794742D01*
X202711042Y-132882322D01*
X202866419Y-132936691D01*
X203030000Y-132955122D01*
X203193580Y-132936691D01*
X203348957Y-132882322D01*
X203488341Y-132794742D01*
X203604742Y-132678341D01*
X203692322Y-132538957D01*
X203746691Y-132383580D01*
X203765122Y-132220000D01*
X203761742Y-132190000D01*
X204464877Y-132190000D01*
X204483308Y-132353580D01*
X204537677Y-132508957D01*
X204625257Y-132648341D01*
X204741658Y-132764742D01*
X204881042Y-132852322D01*
X205036419Y-132906691D01*
X205200000Y-132925122D01*
X205363580Y-132906691D01*
X205518957Y-132852322D01*
X205531546Y-132844412D01*
X205670172Y-132757309D01*
X205671623Y-132759619D01*
X205707896Y-132738673D01*
X205772089Y-132738669D01*
X205827679Y-132770762D01*
X205870140Y-132813223D01*
X205881661Y-132824744D01*
X206021042Y-132912322D01*
X206176419Y-132966691D01*
X206340000Y-132985122D01*
X206503580Y-132966691D01*
X206658957Y-132912322D01*
X206706702Y-132882322D01*
X206798340Y-132824743D01*
X206809860Y-132813223D01*
X206856586Y-132783861D01*
X206911425Y-132777682D01*
X206963514Y-132795907D01*
X207040707Y-132844411D01*
X207101045Y-132882323D01*
X207256419Y-132936691D01*
X207420000Y-132955122D01*
X207583580Y-132936691D01*
X207738957Y-132882322D01*
X207738957Y-132882321D01*
X207890172Y-132787309D01*
X207890649Y-132788068D01*
X207932904Y-132763671D01*
X207997096Y-132763671D01*
X208039350Y-132788068D01*
X208039828Y-132787309D01*
X208191042Y-132882322D01*
X208346419Y-132936691D01*
X208510000Y-132955122D01*
X208673580Y-132936691D01*
X208828957Y-132882322D01*
X208968341Y-132794742D01*
X209084742Y-132678341D01*
X209172322Y-132538957D01*
X209226691Y-132383580D01*
X209245122Y-132220000D01*
X209226691Y-132056420D01*
X209223433Y-132047110D01*
X209172322Y-131901042D01*
X209084742Y-131761658D01*
X208968341Y-131645257D01*
X208828957Y-131557677D01*
X208673580Y-131503308D01*
X208510000Y-131484877D01*
X208346419Y-131503308D01*
X208191042Y-131557677D01*
X208039828Y-131652691D01*
X208039350Y-131651931D01*
X207997094Y-131676329D01*
X207932906Y-131676329D01*
X207890649Y-131651931D01*
X207890172Y-131652691D01*
X207738957Y-131557677D01*
X207583580Y-131503308D01*
X207420000Y-131484877D01*
X207256419Y-131503308D01*
X207101042Y-131557677D01*
X206961657Y-131645258D01*
X206950135Y-131656780D01*
X206903409Y-131686139D01*
X206848572Y-131692317D01*
X206796485Y-131674091D01*
X206658957Y-131587677D01*
X206503580Y-131533308D01*
X206340000Y-131514877D01*
X206176419Y-131533308D01*
X206021045Y-131587676D01*
X205931432Y-131643984D01*
X205881659Y-131675258D01*
X205881658Y-131675258D01*
X205869830Y-131682691D01*
X205868379Y-131680381D01*
X205832083Y-131701332D01*
X205767901Y-131701327D01*
X205712319Y-131669235D01*
X205658341Y-131615257D01*
X205518957Y-131527677D01*
X205363580Y-131473308D01*
X205200000Y-131454877D01*
X205036419Y-131473308D01*
X204881042Y-131527677D01*
X204741658Y-131615257D01*
X204625257Y-131731658D01*
X204537677Y-131871042D01*
X204483308Y-132026419D01*
X204464877Y-132190000D01*
X203761742Y-132190000D01*
X203746691Y-132056420D01*
X203743433Y-132047110D01*
X203692322Y-131901042D01*
X203604742Y-131761658D01*
X203488341Y-131645257D01*
X203348957Y-131557677D01*
X203193580Y-131503308D01*
X203030000Y-131484877D01*
X202866419Y-131503308D01*
X202711042Y-131557677D01*
X202571658Y-131645257D01*
X202455257Y-131761658D01*
X202367677Y-131901042D01*
X202313308Y-132056419D01*
X202294877Y-132220000D01*
X144116749Y-132220000D01*
X144787093Y-131549656D01*
X146416749Y-129919999D01*
X194004540Y-129919999D01*
X194024326Y-130108257D01*
X194082820Y-130288284D01*
X194177466Y-130452216D01*
X194304129Y-130592889D01*
X194457269Y-130704151D01*
X194630197Y-130781144D01*
X194815352Y-130820500D01*
X194815354Y-130820500D01*
X195004646Y-130820500D01*
X195004648Y-130820500D01*
X195128084Y-130794262D01*
X195189803Y-130781144D01*
X195362730Y-130704151D01*
X195515871Y-130592888D01*
X195642533Y-130452216D01*
X195737179Y-130288284D01*
X195795674Y-130108256D01*
X195815460Y-129920000D01*
X195795674Y-129731744D01*
X195737179Y-129551716D01*
X195737179Y-129551715D01*
X195642533Y-129387783D01*
X195515870Y-129247110D01*
X195362730Y-129135848D01*
X195189802Y-129058855D01*
X195004648Y-129019500D01*
X195004646Y-129019500D01*
X194815354Y-129019500D01*
X194815352Y-129019500D01*
X194630197Y-129058855D01*
X194457269Y-129135848D01*
X194304129Y-129247110D01*
X194177466Y-129387783D01*
X194082820Y-129551715D01*
X194024326Y-129731742D01*
X194004540Y-129919999D01*
X146416749Y-129919999D01*
X148422787Y-127913960D01*
X148444686Y-127898423D01*
X148448222Y-127893988D01*
X148448224Y-127893988D01*
X148465397Y-127872452D01*
X148474662Y-127862085D01*
X148477748Y-127859001D01*
X148480069Y-127855306D01*
X148488115Y-127843966D01*
X148505290Y-127822431D01*
X148505290Y-127822428D01*
X148508830Y-127817990D01*
X148513479Y-127806766D01*
X148514114Y-127801126D01*
X148514116Y-127801124D01*
X148517198Y-127773753D01*
X148519527Y-127760049D01*
X148520500Y-127755790D01*
X148520500Y-127751422D01*
X148521279Y-127737541D01*
X148524997Y-127704534D01*
X148520500Y-127678068D01*
X148520500Y-108659500D01*
X172630632Y-108659500D01*
X172640427Y-108733892D01*
X172650017Y-108806734D01*
X172706847Y-108943933D01*
X172754793Y-109006419D01*
X172763519Y-109017791D01*
X172763523Y-109017798D01*
X172795198Y-109059076D01*
X172797250Y-109061750D01*
X172820383Y-109079500D01*
X172832579Y-109090196D01*
X176608181Y-112865798D01*
X176635061Y-112906026D01*
X176644500Y-112953479D01*
X176644500Y-117098638D01*
X176654213Y-117197259D01*
X176663651Y-117244710D01*
X176692417Y-117339537D01*
X176702130Y-117357708D01*
X176739134Y-117426935D01*
X176766014Y-117467163D01*
X176809011Y-117519555D01*
X176828879Y-117543764D01*
X183136235Y-123851120D01*
X183136239Y-123851123D01*
X183212837Y-123913986D01*
X183253065Y-123940866D01*
X183340460Y-123987581D01*
X183340462Y-123987582D01*
X183435289Y-124016348D01*
X183466637Y-124022583D01*
X183482744Y-124025787D01*
X183581362Y-124035500D01*
X192269867Y-124035500D01*
X192368485Y-124025787D01*
X192400264Y-124019465D01*
X192415939Y-124016348D01*
X192510766Y-123987582D01*
X192510766Y-123987581D01*
X192510769Y-123987581D01*
X192598164Y-123940866D01*
X192638392Y-123913986D01*
X192714993Y-123851121D01*
X192777857Y-123774521D01*
X192786160Y-123762092D01*
X192801580Y-123743302D01*
X194004882Y-122540000D01*
X218374877Y-122540000D01*
X218393308Y-122703580D01*
X218447677Y-122858957D01*
X218535257Y-122998341D01*
X218651658Y-123114742D01*
X218791042Y-123202322D01*
X218946419Y-123256691D01*
X219110000Y-123275122D01*
X219273580Y-123256691D01*
X219428957Y-123202322D01*
X219568341Y-123114742D01*
X219684742Y-122998341D01*
X219772322Y-122858957D01*
X219826691Y-122703580D01*
X219845122Y-122540000D01*
X219826691Y-122376420D01*
X219772322Y-122221043D01*
X219772322Y-122221042D01*
X219684742Y-122081658D01*
X219580584Y-121977500D01*
X219551223Y-121930773D01*
X219545045Y-121875934D01*
X219563272Y-121823845D01*
X219602295Y-121784824D01*
X219618341Y-121774742D01*
X219734742Y-121658341D01*
X219822322Y-121518957D01*
X219876691Y-121363580D01*
X219895122Y-121200000D01*
X219876691Y-121036420D01*
X219822322Y-120881043D01*
X219822322Y-120881042D01*
X219734742Y-120741658D01*
X219618341Y-120625257D01*
X219478957Y-120537677D01*
X219323580Y-120483308D01*
X219160000Y-120464877D01*
X218996419Y-120483308D01*
X218841042Y-120537677D01*
X218701658Y-120625257D01*
X218585257Y-120741658D01*
X218497677Y-120881042D01*
X218443308Y-121036419D01*
X218424877Y-121199999D01*
X218443308Y-121363580D01*
X218497677Y-121518957D01*
X218585257Y-121658341D01*
X218689415Y-121762499D01*
X218718775Y-121809225D01*
X218724954Y-121864062D01*
X218706729Y-121916151D01*
X218667708Y-121955173D01*
X218651657Y-121965258D01*
X218535257Y-122081658D01*
X218447677Y-122221042D01*
X218393308Y-122376419D01*
X218374877Y-122540000D01*
X194004882Y-122540000D01*
X197130008Y-119414873D01*
X197183359Y-119383402D01*
X197245279Y-119381665D01*
X197300314Y-119410096D01*
X197334728Y-119461601D01*
X197376281Y-119580353D01*
X197463861Y-119719737D01*
X197580262Y-119836138D01*
X197719646Y-119923718D01*
X197875023Y-119978087D01*
X198038603Y-119996518D01*
X198038603Y-119996517D01*
X198038604Y-119996518D01*
X198139274Y-119985175D01*
X198199321Y-119993308D01*
X198248345Y-120028926D01*
X198274638Y-120083521D01*
X198271919Y-120144056D01*
X198240840Y-120196075D01*
X198200257Y-120236657D01*
X198112677Y-120376042D01*
X198058308Y-120531419D01*
X198039877Y-120695000D01*
X198058308Y-120858580D01*
X198112677Y-121013957D01*
X198200257Y-121153341D01*
X198316658Y-121269742D01*
X198456042Y-121357322D01*
X198611419Y-121411691D01*
X198775000Y-121430122D01*
X198938580Y-121411691D01*
X199093957Y-121357322D01*
X199233341Y-121269742D01*
X199349742Y-121153341D01*
X199437322Y-121013957D01*
X199491691Y-120858580D01*
X199510122Y-120695000D01*
X199491691Y-120531420D01*
X199474856Y-120483309D01*
X199437322Y-120376042D01*
X199349742Y-120236658D01*
X199233341Y-120120257D01*
X199093957Y-120032677D01*
X198938580Y-119978308D01*
X198774999Y-119959877D01*
X198674328Y-119971220D01*
X198614280Y-119963086D01*
X198565257Y-119927468D01*
X198538965Y-119872872D01*
X198541684Y-119812337D01*
X198572765Y-119760318D01*
X198579503Y-119753580D01*
X198613346Y-119719737D01*
X198700926Y-119580353D01*
X198755295Y-119424976D01*
X198773726Y-119261396D01*
X198755295Y-119097816D01*
X198726406Y-119015257D01*
X198700926Y-118942438D01*
X198613346Y-118803054D01*
X198496947Y-118686655D01*
X198380409Y-118613430D01*
X198337853Y-118568416D01*
X198322381Y-118508432D01*
X198337856Y-118448450D01*
X198369170Y-118415330D01*
X198368462Y-118414622D01*
X198494742Y-118288341D01*
X198543967Y-118209999D01*
X201374540Y-118209999D01*
X201394326Y-118398257D01*
X201452820Y-118578284D01*
X201547466Y-118742216D01*
X201674129Y-118882889D01*
X201827269Y-118994151D01*
X202000197Y-119071144D01*
X202185352Y-119110500D01*
X202185354Y-119110500D01*
X202374646Y-119110500D01*
X202374648Y-119110500D01*
X202498083Y-119084262D01*
X202559803Y-119071144D01*
X202732730Y-118994151D01*
X202732729Y-118994151D01*
X202885870Y-118882889D01*
X203012533Y-118742216D01*
X203107179Y-118578284D01*
X203110625Y-118567677D01*
X203165674Y-118398256D01*
X203185460Y-118210000D01*
X203169695Y-118060000D01*
X215934877Y-118060000D01*
X215953308Y-118223580D01*
X216007677Y-118378957D01*
X216095257Y-118518341D01*
X216211658Y-118634742D01*
X216351040Y-118722321D01*
X216351043Y-118722322D01*
X216382153Y-118733208D01*
X216438145Y-118772935D01*
X216464419Y-118836365D01*
X216452919Y-118904050D01*
X216407171Y-118955243D01*
X216311657Y-119015258D01*
X216195257Y-119131658D01*
X216107677Y-119271042D01*
X216053308Y-119426419D01*
X216034877Y-119590000D01*
X216053308Y-119753580D01*
X216107677Y-119908957D01*
X216195257Y-120048341D01*
X216311658Y-120164742D01*
X216451042Y-120252322D01*
X216606419Y-120306691D01*
X216770000Y-120325122D01*
X216933580Y-120306691D01*
X217088957Y-120252322D01*
X217228341Y-120164742D01*
X217344742Y-120048341D01*
X217432322Y-119908957D01*
X217486691Y-119753580D01*
X217505122Y-119590000D01*
X217486691Y-119426420D01*
X217482651Y-119414875D01*
X217432322Y-119271042D01*
X217406534Y-119230000D01*
X219814877Y-119230000D01*
X219833308Y-119393580D01*
X219887677Y-119548957D01*
X219975257Y-119688341D01*
X220091658Y-119804742D01*
X220231042Y-119892322D01*
X220386419Y-119946691D01*
X220549999Y-119965122D01*
X220549999Y-119965121D01*
X220550000Y-119965122D01*
X220713580Y-119946691D01*
X220868957Y-119892322D01*
X221008341Y-119804742D01*
X221124742Y-119688341D01*
X221212322Y-119548957D01*
X221266691Y-119393580D01*
X221285122Y-119230000D01*
X221271658Y-119110500D01*
X221266691Y-119066419D01*
X221212322Y-118911042D01*
X221124742Y-118771658D01*
X221008341Y-118655257D01*
X220868957Y-118567677D01*
X220713580Y-118513308D01*
X220549999Y-118494877D01*
X220386419Y-118513308D01*
X220231042Y-118567677D01*
X220091658Y-118655257D01*
X219975257Y-118771658D01*
X219887677Y-118911042D01*
X219833308Y-119066419D01*
X219814877Y-119230000D01*
X217406534Y-119230000D01*
X217344742Y-119131658D01*
X217228341Y-119015257D01*
X217088957Y-118927677D01*
X217057845Y-118916791D01*
X217001853Y-118877062D01*
X216975580Y-118813633D01*
X216987080Y-118745948D01*
X217032829Y-118694756D01*
X217128341Y-118634742D01*
X217244742Y-118518341D01*
X217332322Y-118378957D01*
X217386691Y-118223580D01*
X217405122Y-118060000D01*
X217386691Y-117896419D01*
X217332322Y-117741042D01*
X217244742Y-117601658D01*
X217128341Y-117485257D01*
X216988957Y-117397677D01*
X216833580Y-117343308D01*
X216670000Y-117324877D01*
X216506419Y-117343308D01*
X216351042Y-117397677D01*
X216211658Y-117485257D01*
X216095257Y-117601658D01*
X216007677Y-117741042D01*
X215953308Y-117896419D01*
X215934877Y-118060000D01*
X203169695Y-118060000D01*
X203165674Y-118021744D01*
X203107179Y-117841716D01*
X203107179Y-117841715D01*
X203012533Y-117677783D01*
X202885870Y-117537110D01*
X202732730Y-117425848D01*
X202559802Y-117348855D01*
X202374648Y-117309500D01*
X202374646Y-117309500D01*
X202185354Y-117309500D01*
X202185352Y-117309500D01*
X202000197Y-117348855D01*
X201827269Y-117425848D01*
X201674129Y-117537110D01*
X201547466Y-117677783D01*
X201452820Y-117841715D01*
X201394326Y-118021742D01*
X201374540Y-118209999D01*
X198543967Y-118209999D01*
X198582322Y-118148957D01*
X198636691Y-117993580D01*
X198655122Y-117829999D01*
X198636691Y-117666419D01*
X198582323Y-117511045D01*
X198566119Y-117485257D01*
X198528703Y-117425709D01*
X198510003Y-117368426D01*
X198520512Y-117309092D01*
X198576738Y-117183441D01*
X198595744Y-117117469D01*
X198605621Y-117047499D01*
X198615500Y-116977534D01*
X198615500Y-115941362D01*
X198605787Y-115842744D01*
X198596348Y-115795291D01*
X198596348Y-115795289D01*
X198567582Y-115700462D01*
X198529031Y-115628341D01*
X198520866Y-115613065D01*
X198493986Y-115572837D01*
X198431123Y-115496239D01*
X198431120Y-115496235D01*
X197524885Y-114590000D01*
X208634540Y-114590000D01*
X208654326Y-114778257D01*
X208712820Y-114958284D01*
X208807466Y-115122216D01*
X208934129Y-115262889D01*
X209087269Y-115374151D01*
X209260197Y-115451144D01*
X209445352Y-115490500D01*
X209445354Y-115490500D01*
X209634646Y-115490500D01*
X209634648Y-115490500D01*
X209758084Y-115464262D01*
X209819803Y-115451144D01*
X209992730Y-115374151D01*
X209992729Y-115374151D01*
X210145870Y-115262889D01*
X210229508Y-115170000D01*
X216074877Y-115170000D01*
X216093308Y-115333580D01*
X216147677Y-115488957D01*
X216235257Y-115628341D01*
X216351658Y-115744742D01*
X216491042Y-115832322D01*
X216646419Y-115886691D01*
X216810000Y-115905122D01*
X216973580Y-115886691D01*
X217128957Y-115832322D01*
X217268341Y-115744742D01*
X217384742Y-115628341D01*
X217472322Y-115488957D01*
X217526691Y-115333580D01*
X217545122Y-115170000D01*
X217526691Y-115006420D01*
X217509847Y-114958284D01*
X217472322Y-114851042D01*
X217384742Y-114711658D01*
X217268341Y-114595257D01*
X217128957Y-114507677D01*
X216973580Y-114453308D01*
X216810000Y-114434877D01*
X216646419Y-114453308D01*
X216491042Y-114507677D01*
X216351658Y-114595257D01*
X216235257Y-114711658D01*
X216147677Y-114851042D01*
X216093308Y-115006419D01*
X216074877Y-115170000D01*
X210229508Y-115170000D01*
X210272533Y-115122216D01*
X210367179Y-114958284D01*
X210402024Y-114851042D01*
X210425674Y-114778256D01*
X210445460Y-114590000D01*
X210425674Y-114401744D01*
X210395332Y-114308363D01*
X210367179Y-114221715D01*
X210272533Y-114057783D01*
X210145870Y-113917110D01*
X209992730Y-113805848D01*
X209819802Y-113728855D01*
X209634648Y-113689500D01*
X209634646Y-113689500D01*
X209445354Y-113689500D01*
X209445352Y-113689500D01*
X209260197Y-113728855D01*
X209087269Y-113805848D01*
X208934129Y-113917110D01*
X208807466Y-114057783D01*
X208712820Y-114221715D01*
X208654326Y-114401742D01*
X208634540Y-114590000D01*
X197524885Y-114590000D01*
X194413764Y-111478879D01*
X194363877Y-111437938D01*
X194337163Y-111416014D01*
X194296935Y-111389134D01*
X194277669Y-111378836D01*
X194209537Y-111342417D01*
X194114710Y-111313651D01*
X194067259Y-111304213D01*
X193968638Y-111294500D01*
X193755344Y-111294500D01*
X193689372Y-111275494D01*
X193643624Y-111224302D01*
X193632124Y-111156617D01*
X193635123Y-111130000D01*
X193616700Y-110966500D01*
X203327632Y-110966500D01*
X203342947Y-111082819D01*
X203347017Y-111113734D01*
X203403847Y-111250933D01*
X203403848Y-111250935D01*
X203430503Y-111285675D01*
X203430510Y-111285682D01*
X203494249Y-111368749D01*
X203517383Y-111386500D01*
X203529579Y-111397196D01*
X205622132Y-113489748D01*
X205646171Y-113523627D01*
X205657671Y-113563545D01*
X205663308Y-113613581D01*
X205717677Y-113768957D01*
X205805257Y-113908341D01*
X205921658Y-114024742D01*
X206061042Y-114112322D01*
X206216419Y-114166691D01*
X206380000Y-114185122D01*
X206543580Y-114166691D01*
X206698957Y-114112322D01*
X206838341Y-114024742D01*
X206954742Y-113908341D01*
X207042322Y-113768957D01*
X207080448Y-113659999D01*
X219357877Y-113659999D01*
X219376308Y-113823580D01*
X219430677Y-113978957D01*
X219518257Y-114118341D01*
X219634658Y-114234742D01*
X219774042Y-114322322D01*
X219929419Y-114376691D01*
X220093000Y-114395122D01*
X220256580Y-114376691D01*
X220411957Y-114322322D01*
X220551341Y-114234742D01*
X220667742Y-114118341D01*
X220755322Y-113978957D01*
X220809691Y-113823580D01*
X220828122Y-113660000D01*
X220812756Y-113523627D01*
X220809691Y-113496419D01*
X220755322Y-113341042D01*
X220667742Y-113201658D01*
X220551341Y-113085257D01*
X220411957Y-112997677D01*
X220256580Y-112943308D01*
X220093000Y-112924877D01*
X219929419Y-112943308D01*
X219774042Y-112997677D01*
X219634658Y-113085257D01*
X219518257Y-113201658D01*
X219430677Y-113341042D01*
X219376308Y-113496419D01*
X219357877Y-113659999D01*
X207080448Y-113659999D01*
X207096691Y-113613580D01*
X207115122Y-113450000D01*
X207102845Y-113341042D01*
X207096691Y-113286419D01*
X207042322Y-113131042D01*
X206954742Y-112991658D01*
X206838341Y-112875257D01*
X206698957Y-112787677D01*
X206543581Y-112733308D01*
X206493545Y-112727671D01*
X206453627Y-112716171D01*
X206419748Y-112692132D01*
X205917616Y-112190000D01*
X215904877Y-112190000D01*
X215923308Y-112353580D01*
X215977677Y-112508957D01*
X216065257Y-112648341D01*
X216181658Y-112764742D01*
X216321042Y-112852322D01*
X216476419Y-112906691D01*
X216639999Y-112925122D01*
X216639999Y-112925121D01*
X216640000Y-112925122D01*
X216803580Y-112906691D01*
X216958957Y-112852322D01*
X217098341Y-112764742D01*
X217214742Y-112648341D01*
X217302322Y-112508957D01*
X217356691Y-112353580D01*
X217375122Y-112190000D01*
X217356691Y-112026420D01*
X217302322Y-111871043D01*
X217302322Y-111871042D01*
X217214742Y-111731658D01*
X217098341Y-111615257D01*
X217003558Y-111555702D01*
X216961001Y-111510689D01*
X216945529Y-111450708D01*
X216961002Y-111390726D01*
X217003558Y-111345714D01*
X217008955Y-111342322D01*
X217008957Y-111342322D01*
X217148341Y-111254742D01*
X217264742Y-111138341D01*
X217352322Y-110998957D01*
X217406691Y-110843580D01*
X217425122Y-110680000D01*
X217406691Y-110516420D01*
X217352322Y-110361043D01*
X217352322Y-110361042D01*
X217264742Y-110221658D01*
X217148341Y-110105257D01*
X217008957Y-110017677D01*
X216853580Y-109963308D01*
X216690000Y-109944877D01*
X216526419Y-109963308D01*
X216371042Y-110017677D01*
X216231658Y-110105257D01*
X216115257Y-110221658D01*
X216027677Y-110361042D01*
X215973308Y-110516419D01*
X215954877Y-110679999D01*
X215973308Y-110843580D01*
X216027677Y-110998957D01*
X216115257Y-111138341D01*
X216231658Y-111254742D01*
X216326441Y-111314297D01*
X216368997Y-111359309D01*
X216384470Y-111419291D01*
X216368998Y-111479272D01*
X216326442Y-111524285D01*
X216181656Y-111615259D01*
X216065257Y-111731658D01*
X215977677Y-111871042D01*
X215923308Y-112026419D01*
X215904877Y-112190000D01*
X205917616Y-112190000D01*
X204496819Y-110769202D01*
X204469939Y-110728974D01*
X204460500Y-110681521D01*
X204460500Y-107920000D01*
X210444540Y-107920000D01*
X210464326Y-108108257D01*
X210522820Y-108288284D01*
X210617466Y-108452216D01*
X210744129Y-108592889D01*
X210897269Y-108704151D01*
X211070197Y-108781144D01*
X211255352Y-108820500D01*
X211255354Y-108820500D01*
X211444646Y-108820500D01*
X211444648Y-108820500D01*
X211581025Y-108791512D01*
X211629803Y-108781144D01*
X211802730Y-108704151D01*
X211911462Y-108625153D01*
X211955870Y-108592889D01*
X212082533Y-108452216D01*
X212177179Y-108288284D01*
X212198654Y-108222191D01*
X212235674Y-108108256D01*
X212255460Y-107920000D01*
X212235674Y-107731744D01*
X212188265Y-107585835D01*
X212177179Y-107551715D01*
X212082533Y-107387783D01*
X211955870Y-107247110D01*
X211802730Y-107135848D01*
X211629802Y-107058855D01*
X211444648Y-107019500D01*
X211444646Y-107019500D01*
X211255354Y-107019500D01*
X211255352Y-107019500D01*
X211070197Y-107058855D01*
X210897269Y-107135848D01*
X210744129Y-107247110D01*
X210617466Y-107387783D01*
X210522820Y-107551715D01*
X210464326Y-107731742D01*
X210444540Y-107920000D01*
X204460500Y-107920000D01*
X204460500Y-104677244D01*
X204470846Y-104627657D01*
X204500158Y-104586346D01*
X204543545Y-104560203D01*
X204708957Y-104502322D01*
X204737312Y-104484506D01*
X204803283Y-104465500D01*
X209819548Y-104465500D01*
X209867001Y-104474939D01*
X209907229Y-104501819D01*
X214725621Y-109320212D01*
X214754981Y-109366938D01*
X214797677Y-109488957D01*
X214885257Y-109628341D01*
X215001658Y-109744742D01*
X215141042Y-109832322D01*
X215296419Y-109886691D01*
X215460000Y-109905122D01*
X215623580Y-109886691D01*
X215778957Y-109832322D01*
X215918341Y-109744742D01*
X216034742Y-109628341D01*
X216122322Y-109488957D01*
X216176691Y-109333580D01*
X216195122Y-109170000D01*
X216176691Y-109006420D01*
X216172308Y-108993895D01*
X216122322Y-108851042D01*
X216034742Y-108711658D01*
X215918341Y-108595257D01*
X215778957Y-108507677D01*
X215656938Y-108464981D01*
X215610212Y-108435621D01*
X210630802Y-103456211D01*
X210617906Y-103440113D01*
X210566775Y-103392098D01*
X210563978Y-103389387D01*
X210544470Y-103369879D01*
X210541290Y-103367412D01*
X210532424Y-103359839D01*
X210500582Y-103329938D01*
X210483024Y-103320285D01*
X210466764Y-103309604D01*
X210450936Y-103297327D01*
X210410851Y-103279980D01*
X210400361Y-103274841D01*
X210362091Y-103253802D01*
X210342691Y-103248821D01*
X210324284Y-103242519D01*
X210305897Y-103234562D01*
X210262758Y-103227729D01*
X210251324Y-103225361D01*
X210209019Y-103214500D01*
X210188984Y-103214500D01*
X210169586Y-103212973D01*
X210162162Y-103211797D01*
X210149805Y-103209840D01*
X210149804Y-103209840D01*
X210116751Y-103212964D01*
X210106325Y-103213950D01*
X210094656Y-103214500D01*
X204803283Y-103214500D01*
X204737312Y-103195494D01*
X204708957Y-103177677D01*
X204543545Y-103119797D01*
X204500158Y-103093654D01*
X204470846Y-103052343D01*
X204460500Y-103002756D01*
X204460500Y-101515480D01*
X204469939Y-101468028D01*
X204496818Y-101427799D01*
X204556749Y-101367867D01*
X204590629Y-101343828D01*
X204630549Y-101332328D01*
X204656382Y-101329417D01*
X204680580Y-101326691D01*
X204835957Y-101272322D01*
X204975341Y-101184742D01*
X205091742Y-101068341D01*
X205179322Y-100928957D01*
X205233691Y-100773580D01*
X205252122Y-100610000D01*
X205233691Y-100446420D01*
X205179322Y-100291043D01*
X205179322Y-100291042D01*
X205091742Y-100151658D01*
X204975341Y-100035257D01*
X204835957Y-99947677D01*
X204680580Y-99893308D01*
X204517000Y-99874877D01*
X204353419Y-99893308D01*
X204198042Y-99947677D01*
X204058658Y-100035257D01*
X203942257Y-100151658D01*
X203854677Y-100291042D01*
X203800308Y-100446419D01*
X203794671Y-100496452D01*
X203783171Y-100536370D01*
X203759132Y-100570249D01*
X203529580Y-100799801D01*
X203517388Y-100810494D01*
X203494249Y-100828250D01*
X203459098Y-100874058D01*
X203459088Y-100874073D01*
X203403847Y-100946066D01*
X203347017Y-101083266D01*
X203327632Y-101230499D01*
X203331439Y-101259408D01*
X203332500Y-101275594D01*
X203332500Y-110921406D01*
X203331439Y-110937592D01*
X203327632Y-110966500D01*
X193616700Y-110966500D01*
X193616691Y-110966420D01*
X193598468Y-110914341D01*
X193564652Y-110817704D01*
X193560803Y-110749157D01*
X193594012Y-110689070D01*
X193694742Y-110588341D01*
X193782322Y-110448957D01*
X193836691Y-110293580D01*
X193855122Y-110130000D01*
X193852637Y-110107949D01*
X193836691Y-109966419D01*
X193782322Y-109811042D01*
X193694742Y-109671658D01*
X193578341Y-109555257D01*
X193438957Y-109467677D01*
X193283580Y-109413308D01*
X193120000Y-109394877D01*
X192956419Y-109413308D01*
X192801042Y-109467677D01*
X192674810Y-109546994D01*
X192608839Y-109566000D01*
X191634979Y-109566000D01*
X191587526Y-109556561D01*
X191547298Y-109529681D01*
X191074261Y-109056644D01*
X191044901Y-109009918D01*
X191038722Y-108955080D01*
X191056948Y-108902991D01*
X191133895Y-108780530D01*
X191188264Y-108625153D01*
X191206695Y-108461573D01*
X191188264Y-108297993D01*
X191182815Y-108282422D01*
X191133895Y-108142615D01*
X191046315Y-108003231D01*
X190929914Y-107886830D01*
X190790530Y-107799250D01*
X190635153Y-107744881D01*
X190567771Y-107737289D01*
X190515683Y-107719062D01*
X190476661Y-107680040D01*
X190458436Y-107627956D01*
X190453691Y-107585835D01*
X190409624Y-107459899D01*
X190399322Y-107430457D01*
X190311742Y-107291073D01*
X190195341Y-107174672D01*
X190055957Y-107087092D01*
X189900580Y-107032723D01*
X189737000Y-107014292D01*
X189573419Y-107032723D01*
X189418042Y-107087092D01*
X189309346Y-107155390D01*
X189257258Y-107173616D01*
X189202420Y-107167437D01*
X189155694Y-107138077D01*
X188714694Y-106697077D01*
X188684444Y-106647714D01*
X188679902Y-106589998D01*
X188702057Y-106536511D01*
X188746080Y-106498911D01*
X188802375Y-106485396D01*
X189027443Y-106485396D01*
X189093414Y-106504402D01*
X189219646Y-106583718D01*
X189375023Y-106638087D01*
X189538604Y-106656518D01*
X189702184Y-106638087D01*
X189857561Y-106583718D01*
X189996945Y-106496138D01*
X190113346Y-106379737D01*
X190200926Y-106240353D01*
X190255295Y-106084976D01*
X190273726Y-105921396D01*
X190273034Y-105915258D01*
X190255295Y-105757815D01*
X190200926Y-105602438D01*
X190113346Y-105463054D01*
X189996945Y-105346653D01*
X189857561Y-105259073D01*
X189702184Y-105204704D01*
X189538604Y-105186273D01*
X189375023Y-105204704D01*
X189219646Y-105259073D01*
X189093414Y-105338390D01*
X189027443Y-105357396D01*
X188479287Y-105357396D01*
X188431834Y-105347957D01*
X188391606Y-105321077D01*
X188286347Y-105215818D01*
X188146963Y-105128238D01*
X187991586Y-105073869D01*
X187828006Y-105055438D01*
X187664425Y-105073869D01*
X187509048Y-105128238D01*
X187369732Y-105215776D01*
X187317644Y-105234002D01*
X187262806Y-105227823D01*
X187216080Y-105198463D01*
X185617616Y-103599999D01*
X195964877Y-103599999D01*
X195983308Y-103763580D01*
X196037677Y-103918957D01*
X196125257Y-104058341D01*
X196241658Y-104174742D01*
X196381042Y-104262322D01*
X196536419Y-104316691D01*
X196699999Y-104335122D01*
X196699999Y-104335121D01*
X196700000Y-104335122D01*
X196863580Y-104316691D01*
X197018957Y-104262322D01*
X197158341Y-104174742D01*
X197274742Y-104058341D01*
X197362322Y-103918957D01*
X197416691Y-103763580D01*
X197435122Y-103600000D01*
X197418483Y-103452328D01*
X197416691Y-103436419D01*
X197362322Y-103281042D01*
X197274742Y-103141658D01*
X197158341Y-103025257D01*
X197018957Y-102937677D01*
X196863580Y-102883308D01*
X196700000Y-102864877D01*
X196536419Y-102883308D01*
X196381042Y-102937677D01*
X196241658Y-103025257D01*
X196125257Y-103141658D01*
X196037677Y-103281042D01*
X195983308Y-103436419D01*
X195964877Y-103599999D01*
X185617616Y-103599999D01*
X183337617Y-101320000D01*
X189794877Y-101320000D01*
X189813308Y-101483580D01*
X189867677Y-101638957D01*
X189955257Y-101778341D01*
X190071658Y-101894742D01*
X190211042Y-101982322D01*
X190366419Y-102036691D01*
X190530000Y-102055122D01*
X190693580Y-102036691D01*
X190848957Y-101982322D01*
X190988341Y-101894742D01*
X191104742Y-101778341D01*
X191192322Y-101638957D01*
X191246691Y-101483580D01*
X191265122Y-101320000D01*
X191246691Y-101156420D01*
X191233171Y-101117783D01*
X191192322Y-101001042D01*
X191104742Y-100861658D01*
X190988341Y-100745257D01*
X190848957Y-100657677D01*
X190693580Y-100603308D01*
X190530000Y-100584877D01*
X190366419Y-100603308D01*
X190211042Y-100657677D01*
X190071658Y-100745257D01*
X189955257Y-100861658D01*
X189867677Y-101001042D01*
X189813308Y-101156419D01*
X189794877Y-101320000D01*
X183337617Y-101320000D01*
X181797617Y-99780000D01*
X195020000Y-99780000D01*
X195020000Y-100877824D01*
X195026402Y-100937375D01*
X195076647Y-101072089D01*
X195162811Y-101187188D01*
X195277910Y-101273352D01*
X195412624Y-101323597D01*
X195472176Y-101330000D01*
X195650000Y-101330000D01*
X195650000Y-99780000D01*
X195020000Y-99780000D01*
X181797617Y-99780000D01*
X177620696Y-95603079D01*
X177610000Y-95590883D01*
X177592249Y-95567749D01*
X177547917Y-95533733D01*
X177547916Y-95533732D01*
X177474433Y-95477347D01*
X177474432Y-95477346D01*
X177337234Y-95420517D01*
X177320104Y-95418261D01*
X177190000Y-95401132D01*
X177164519Y-95404487D01*
X177161089Y-95404939D01*
X177144906Y-95406000D01*
X174810125Y-95406000D01*
X174753211Y-95392167D01*
X174708995Y-95353755D01*
X174687342Y-95299334D01*
X174693084Y-95241045D01*
X174716691Y-95173580D01*
X174735122Y-95010000D01*
X174716691Y-94846419D01*
X174662322Y-94691042D01*
X174574742Y-94551658D01*
X174458341Y-94435257D01*
X174318957Y-94347677D01*
X174163580Y-94293308D01*
X174000000Y-94274877D01*
X173901384Y-94285989D01*
X173833699Y-94274489D01*
X173782506Y-94228741D01*
X173763500Y-94162769D01*
X173763500Y-93000000D01*
X189824877Y-93000000D01*
X189843308Y-93163580D01*
X189897677Y-93318957D01*
X189985257Y-93458341D01*
X190101658Y-93574742D01*
X190241042Y-93662322D01*
X190396419Y-93716691D01*
X190560000Y-93735122D01*
X190723580Y-93716691D01*
X190878957Y-93662322D01*
X191018341Y-93574742D01*
X191134742Y-93458341D01*
X191222322Y-93318957D01*
X191276691Y-93163580D01*
X191295122Y-93000000D01*
X191279787Y-92863896D01*
X191276691Y-92836419D01*
X191222322Y-92681042D01*
X191134742Y-92541658D01*
X191018341Y-92425257D01*
X190878957Y-92337677D01*
X190723580Y-92283308D01*
X190560000Y-92264877D01*
X190396419Y-92283308D01*
X190241042Y-92337677D01*
X190101658Y-92425257D01*
X189985257Y-92541658D01*
X189897677Y-92681042D01*
X189843308Y-92836419D01*
X189824877Y-93000000D01*
X173763500Y-93000000D01*
X173763500Y-92255479D01*
X173772939Y-92208026D01*
X173799819Y-92167798D01*
X174219544Y-91748073D01*
X174647616Y-91320000D01*
X194004356Y-91320000D01*
X194024891Y-91567816D01*
X194024891Y-91567819D01*
X194024892Y-91567821D01*
X194085937Y-91808881D01*
X194116631Y-91878856D01*
X194185825Y-92036604D01*
X194185827Y-92036607D01*
X194321836Y-92244785D01*
X194490256Y-92427738D01*
X194501411Y-92436420D01*
X194686485Y-92580470D01*
X194686487Y-92580471D01*
X194686491Y-92580474D01*
X194905190Y-92698828D01*
X194988014Y-92727261D01*
X195140384Y-92779571D01*
X195170908Y-92784664D01*
X195223936Y-92807057D01*
X195261139Y-92850982D01*
X195274500Y-92906973D01*
X195274500Y-93426506D01*
X195261384Y-93482010D01*
X195224811Y-93525772D01*
X195162456Y-93572451D01*
X195076204Y-93687668D01*
X195025909Y-93822516D01*
X195019500Y-93882130D01*
X195019500Y-96577869D01*
X195025909Y-96637484D01*
X195035302Y-96662667D01*
X195076204Y-96772331D01*
X195162454Y-96887546D01*
X195277669Y-96973796D01*
X195412517Y-97024091D01*
X195472127Y-97030500D01*
X195685486Y-97030499D01*
X195741136Y-97043688D01*
X195784948Y-97080450D01*
X195807602Y-97132965D01*
X195804277Y-97190061D01*
X195786905Y-97248090D01*
X195776648Y-97424168D01*
X195791500Y-97508393D01*
X195804914Y-97584469D01*
X195802574Y-97638093D01*
X195777789Y-97685705D01*
X195735204Y-97718382D01*
X195682799Y-97730000D01*
X195472176Y-97730000D01*
X195412624Y-97736402D01*
X195277910Y-97786647D01*
X195162811Y-97872811D01*
X195076647Y-97987910D01*
X195026402Y-98122624D01*
X195020000Y-98182176D01*
X195020000Y-99280000D01*
X196026000Y-99280000D01*
X196088000Y-99296613D01*
X196133387Y-99342000D01*
X196150000Y-99404000D01*
X196150000Y-101330000D01*
X196327824Y-101330000D01*
X196387375Y-101323597D01*
X196490951Y-101284966D01*
X196534285Y-101277148D01*
X196577615Y-101284965D01*
X196682517Y-101324091D01*
X196742127Y-101330500D01*
X197597872Y-101330499D01*
X197657483Y-101324091D01*
X197762383Y-101284965D01*
X197805715Y-101277148D01*
X197849049Y-101284966D01*
X197952624Y-101323597D01*
X198012176Y-101330000D01*
X198190000Y-101330000D01*
X198190000Y-99780000D01*
X198690000Y-99780000D01*
X198690000Y-101330000D01*
X198867824Y-101330000D01*
X198927375Y-101323597D01*
X199031666Y-101284699D01*
X199075000Y-101276881D01*
X199118334Y-101284699D01*
X199222624Y-101323597D01*
X199282176Y-101330000D01*
X199460000Y-101330000D01*
X199460000Y-99780000D01*
X198690000Y-99780000D01*
X198190000Y-99780000D01*
X198190000Y-97730000D01*
X198012176Y-97730000D01*
X197952622Y-97736402D01*
X197849048Y-97775033D01*
X197805715Y-97782851D01*
X197762382Y-97775033D01*
X197657485Y-97735909D01*
X197637612Y-97733772D01*
X197597873Y-97729500D01*
X197597869Y-97729500D01*
X197384513Y-97729500D01*
X197328862Y-97716310D01*
X197285050Y-97679548D01*
X197262397Y-97627032D01*
X197265721Y-97569940D01*
X197283095Y-97511909D01*
X197293351Y-97335831D01*
X197265173Y-97176029D01*
X197267514Y-97122406D01*
X197292299Y-97074794D01*
X197334884Y-97042117D01*
X197387289Y-97030499D01*
X197597870Y-97030499D01*
X197597872Y-97030499D01*
X197657483Y-97024091D01*
X197761668Y-96985232D01*
X197804999Y-96977414D01*
X197848328Y-96985231D01*
X197952517Y-97024091D01*
X198012127Y-97030500D01*
X198867872Y-97030499D01*
X198927483Y-97024091D01*
X199031668Y-96985232D01*
X199074999Y-96977414D01*
X199118328Y-96985231D01*
X199222517Y-97024091D01*
X199282127Y-97030500D01*
X199495486Y-97030499D01*
X199551136Y-97043688D01*
X199594948Y-97080450D01*
X199617602Y-97132965D01*
X199614277Y-97190061D01*
X199596905Y-97248090D01*
X199586648Y-97424168D01*
X199601500Y-97508393D01*
X199614914Y-97584469D01*
X199612574Y-97638093D01*
X199587789Y-97685705D01*
X199545204Y-97718382D01*
X199492799Y-97730000D01*
X199282176Y-97730000D01*
X199222622Y-97736402D01*
X199118333Y-97775300D01*
X199075000Y-97783118D01*
X199031667Y-97775300D01*
X198927377Y-97736402D01*
X198867824Y-97730000D01*
X198690000Y-97730000D01*
X198690000Y-99280000D01*
X199836000Y-99280000D01*
X199898000Y-99296613D01*
X199943387Y-99342000D01*
X199960000Y-99404000D01*
X199960000Y-101330000D01*
X200137824Y-101330000D01*
X200197375Y-101323597D01*
X200300951Y-101284966D01*
X200344285Y-101277148D01*
X200387615Y-101284965D01*
X200492517Y-101324091D01*
X200552127Y-101330500D01*
X201407872Y-101330499D01*
X201467483Y-101324091D01*
X201602331Y-101273796D01*
X201717546Y-101187546D01*
X201803796Y-101072331D01*
X201854091Y-100937483D01*
X201860500Y-100877873D01*
X201860499Y-99855450D01*
X201869938Y-99807998D01*
X201896815Y-99767773D01*
X202160212Y-99504376D01*
X202206933Y-99475018D01*
X202328957Y-99432322D01*
X202468341Y-99344742D01*
X202584742Y-99228341D01*
X202672322Y-99088957D01*
X202726691Y-98933580D01*
X202745122Y-98770000D01*
X202726691Y-98606420D01*
X202672322Y-98451043D01*
X202672322Y-98451042D01*
X202584742Y-98311658D01*
X202468341Y-98195257D01*
X202328957Y-98107677D01*
X202173580Y-98053308D01*
X202009998Y-98034877D01*
X201923010Y-98044678D01*
X201859927Y-98035280D01*
X201809860Y-97995769D01*
X201717546Y-97872454D01*
X201602331Y-97786204D01*
X201467483Y-97735909D01*
X201460163Y-97735122D01*
X201407873Y-97729500D01*
X201407869Y-97729500D01*
X201194513Y-97729500D01*
X201138862Y-97716310D01*
X201095050Y-97679548D01*
X201072397Y-97627032D01*
X201075721Y-97569940D01*
X201093095Y-97511909D01*
X201094954Y-97480000D01*
X214524877Y-97480000D01*
X214543308Y-97643580D01*
X214597677Y-97798957D01*
X214685257Y-97938341D01*
X214801658Y-98054742D01*
X214941042Y-98142322D01*
X215096419Y-98196691D01*
X215260000Y-98215122D01*
X215423580Y-98196691D01*
X215578957Y-98142322D01*
X215718341Y-98054742D01*
X215834742Y-97938341D01*
X215922322Y-97798957D01*
X215922324Y-97798950D01*
X215928089Y-97789776D01*
X215979283Y-97744027D01*
X216046969Y-97732527D01*
X216070000Y-97735122D01*
X216070000Y-97735121D01*
X216070001Y-97735122D01*
X216233580Y-97716691D01*
X216388957Y-97662322D01*
X216528341Y-97574742D01*
X216644742Y-97458341D01*
X216732322Y-97318957D01*
X216786691Y-97163580D01*
X216799986Y-97045585D01*
X216805122Y-97000000D01*
X216802169Y-96973795D01*
X216786691Y-96836419D01*
X216732322Y-96681042D01*
X216644742Y-96541658D01*
X216528341Y-96425257D01*
X216388957Y-96337677D01*
X216233580Y-96283308D01*
X216070000Y-96264877D01*
X215906419Y-96283308D01*
X215751042Y-96337677D01*
X215611658Y-96425257D01*
X215495258Y-96541657D01*
X215401908Y-96690224D01*
X215350716Y-96735972D01*
X215283031Y-96747472D01*
X215260000Y-96744877D01*
X215096419Y-96763308D01*
X214941042Y-96817677D01*
X214801658Y-96905257D01*
X214685257Y-97021658D01*
X214597677Y-97161042D01*
X214543308Y-97316419D01*
X214524877Y-97480000D01*
X201094954Y-97480000D01*
X201103351Y-97335831D01*
X201075173Y-97176029D01*
X201077514Y-97122406D01*
X201102299Y-97074794D01*
X201144884Y-97042117D01*
X201197289Y-97030499D01*
X201407870Y-97030499D01*
X201407872Y-97030499D01*
X201467483Y-97024091D01*
X201602331Y-96973796D01*
X201717546Y-96887546D01*
X201803796Y-96772331D01*
X201854091Y-96637483D01*
X201860500Y-96577873D01*
X201860499Y-93882128D01*
X201854091Y-93822517D01*
X201803796Y-93687669D01*
X201717546Y-93572454D01*
X201712730Y-93568849D01*
X201615000Y-93495688D01*
X201602331Y-93486204D01*
X201602330Y-93486203D01*
X201593689Y-93479735D01*
X201557116Y-93435972D01*
X201544000Y-93380468D01*
X201544000Y-92544979D01*
X201553439Y-92497526D01*
X201580319Y-92457298D01*
X202608709Y-91428908D01*
X203650272Y-90387344D01*
X203702289Y-90356266D01*
X203762824Y-90353547D01*
X203817419Y-90379839D01*
X203853037Y-90428862D01*
X203861171Y-90488910D01*
X203854288Y-90549999D01*
X203872719Y-90713580D01*
X203927088Y-90868957D01*
X204008969Y-90999271D01*
X204027536Y-91054820D01*
X204018536Y-91112694D01*
X203960517Y-91252764D01*
X203941132Y-91399999D01*
X203944939Y-91428908D01*
X203946000Y-91445094D01*
X203946000Y-95558839D01*
X203926994Y-95624810D01*
X203847677Y-95751042D01*
X203793308Y-95906419D01*
X203774877Y-96069999D01*
X203793308Y-96233580D01*
X203847677Y-96388957D01*
X203935257Y-96528341D01*
X204051658Y-96644742D01*
X204191042Y-96732322D01*
X204346419Y-96786691D01*
X204510000Y-96805122D01*
X204673580Y-96786691D01*
X204828957Y-96732322D01*
X204968341Y-96644742D01*
X205084742Y-96528341D01*
X205172322Y-96388957D01*
X205226691Y-96233580D01*
X205245122Y-96070000D01*
X205226691Y-95906420D01*
X205190833Y-95803945D01*
X205172322Y-95751042D01*
X205093006Y-95624810D01*
X205074000Y-95558839D01*
X205074000Y-91728772D01*
X205087515Y-91672477D01*
X205125115Y-91628454D01*
X205178602Y-91606299D01*
X205236318Y-91610841D01*
X205285681Y-91641091D01*
X205295261Y-91650671D01*
X205365490Y-91694798D01*
X205434646Y-91738251D01*
X205462718Y-91748074D01*
X205509444Y-91777433D01*
X205538804Y-91824160D01*
X205544983Y-91878998D01*
X205541833Y-91906954D01*
X205560264Y-92070536D01*
X205614633Y-92225913D01*
X205702213Y-92365297D01*
X205818614Y-92481698D01*
X205957998Y-92569278D01*
X206010894Y-92587787D01*
X206113376Y-92623647D01*
X206161134Y-92629027D01*
X206213217Y-92647252D01*
X206252240Y-92686274D01*
X206270467Y-92738362D01*
X206273308Y-92763580D01*
X206327677Y-92918957D01*
X206406994Y-93045190D01*
X206426000Y-93111161D01*
X206426000Y-94078839D01*
X206406994Y-94144810D01*
X206327677Y-94271042D01*
X206273308Y-94426419D01*
X206254877Y-94590000D01*
X206273308Y-94753580D01*
X206327677Y-94908957D01*
X206415257Y-95048341D01*
X206531658Y-95164742D01*
X206671042Y-95252322D01*
X206826419Y-95306691D01*
X206990000Y-95325122D01*
X207153580Y-95306691D01*
X207308957Y-95252322D01*
X207448341Y-95164742D01*
X207564742Y-95048341D01*
X207652322Y-94908957D01*
X207706691Y-94753580D01*
X207725122Y-94590000D01*
X207706691Y-94426420D01*
X207673393Y-94331261D01*
X207652322Y-94271042D01*
X207573006Y-94144810D01*
X207554000Y-94078839D01*
X207554000Y-93111161D01*
X207573006Y-93045190D01*
X207652322Y-92918957D01*
X207706691Y-92763580D01*
X207720836Y-92638039D01*
X207725122Y-92600000D01*
X207721660Y-92569278D01*
X207706691Y-92436419D01*
X207652322Y-92281042D01*
X207564742Y-92141658D01*
X207448341Y-92025257D01*
X207308957Y-91937677D01*
X207153579Y-91883308D01*
X207105823Y-91877927D01*
X207053735Y-91859700D01*
X207014714Y-91820678D01*
X206996488Y-91768590D01*
X206993647Y-91743375D01*
X206939278Y-91587998D01*
X206851698Y-91448614D01*
X206735297Y-91332213D01*
X206595914Y-91244634D01*
X206567839Y-91234810D01*
X206521113Y-91205449D01*
X206491753Y-91158722D01*
X206485575Y-91103883D01*
X206488725Y-91075926D01*
X206470294Y-90912348D01*
X206415925Y-90756971D01*
X206328345Y-90617587D01*
X206211946Y-90501188D01*
X206113235Y-90439164D01*
X206067487Y-90387972D01*
X206055987Y-90320286D01*
X206072920Y-90169999D01*
X206054489Y-90006419D01*
X206000120Y-89851042D01*
X205912540Y-89711658D01*
X205796141Y-89595259D01*
X205753140Y-89568240D01*
X205711264Y-89524441D01*
X205695143Y-89466029D01*
X205708627Y-89406951D01*
X205748496Y-89361318D01*
X205805229Y-89340026D01*
X205851943Y-89334762D01*
X205923580Y-89326691D01*
X206078957Y-89272322D01*
X206177635Y-89210319D01*
X206218340Y-89184743D01*
X206229083Y-89174000D01*
X206247594Y-89155488D01*
X206307683Y-89122277D01*
X206376230Y-89126126D01*
X206406420Y-89136691D01*
X206529105Y-89150514D01*
X206569999Y-89155122D01*
X206569999Y-89155121D01*
X206570000Y-89155122D01*
X206733580Y-89136691D01*
X206888957Y-89082322D01*
X207028341Y-88994742D01*
X207144742Y-88878341D01*
X207198287Y-88793124D01*
X207799236Y-88793124D01*
X207817667Y-88956704D01*
X207872036Y-89112081D01*
X207960589Y-89253013D01*
X207979595Y-89318984D01*
X207960590Y-89384955D01*
X207921309Y-89447470D01*
X207866941Y-89602844D01*
X207848510Y-89766425D01*
X207866941Y-89930005D01*
X207921310Y-90085382D01*
X208008890Y-90224766D01*
X208125291Y-90341167D01*
X208264675Y-90428747D01*
X208420052Y-90483116D01*
X208583633Y-90501547D01*
X208747213Y-90483116D01*
X208902590Y-90428747D01*
X209041974Y-90341167D01*
X209158375Y-90224766D01*
X209245955Y-90085382D01*
X209300324Y-89930005D01*
X209318755Y-89766425D01*
X209300324Y-89602845D01*
X209297669Y-89595258D01*
X209245956Y-89447470D01*
X209244242Y-89444742D01*
X209158375Y-89308084D01*
X209158374Y-89308083D01*
X209157402Y-89306536D01*
X209138396Y-89240564D01*
X209157401Y-89174595D01*
X209196681Y-89112081D01*
X209251050Y-88956704D01*
X209269481Y-88793124D01*
X209251050Y-88629544D01*
X209245975Y-88615042D01*
X209242126Y-88546498D01*
X209275335Y-88486408D01*
X209335424Y-88453198D01*
X209403970Y-88457047D01*
X209513420Y-88495346D01*
X209677000Y-88513777D01*
X209840580Y-88495346D01*
X209995957Y-88440977D01*
X210135341Y-88353397D01*
X210251742Y-88236996D01*
X210339322Y-88097612D01*
X210393691Y-87942235D01*
X210412122Y-87778655D01*
X210393691Y-87615075D01*
X210387835Y-87598341D01*
X210339322Y-87459697D01*
X210251742Y-87320313D01*
X210135341Y-87203912D01*
X209995957Y-87116332D01*
X209840580Y-87061963D01*
X209676999Y-87043532D01*
X209513419Y-87061963D01*
X209358042Y-87116332D01*
X209218658Y-87203912D01*
X209102257Y-87320313D01*
X209014677Y-87459697D01*
X208960308Y-87615074D01*
X208941877Y-87778655D01*
X208960308Y-87942232D01*
X208965383Y-87956735D01*
X208969232Y-88025282D01*
X208936022Y-88085370D01*
X208875933Y-88118580D01*
X208807386Y-88114730D01*
X208697939Y-88076432D01*
X208534359Y-88058001D01*
X208370778Y-88076432D01*
X208215401Y-88130801D01*
X208076017Y-88218381D01*
X207959616Y-88334782D01*
X207872036Y-88474166D01*
X207817667Y-88629543D01*
X207799236Y-88793124D01*
X207198287Y-88793124D01*
X207232322Y-88738957D01*
X207286691Y-88583580D01*
X207292497Y-88532047D01*
X207318768Y-88468622D01*
X207374758Y-88428894D01*
X207487278Y-88389522D01*
X207626662Y-88301942D01*
X207743063Y-88185541D01*
X207830643Y-88046157D01*
X207877688Y-87911709D01*
X207907046Y-87864988D01*
X207953767Y-87835630D01*
X208048957Y-87802322D01*
X208188341Y-87714742D01*
X208304742Y-87598341D01*
X208392322Y-87458957D01*
X208446691Y-87303580D01*
X208465122Y-87140000D01*
X208461018Y-87103580D01*
X208446691Y-86976419D01*
X208392322Y-86821042D01*
X208304742Y-86681658D01*
X208188341Y-86565257D01*
X208048957Y-86477677D01*
X208000555Y-86460741D01*
X207949050Y-86426327D01*
X207920619Y-86371292D01*
X207922356Y-86309372D01*
X207953829Y-86256019D01*
X208580110Y-85629739D01*
X208617695Y-85583098D01*
X208677422Y-85452315D01*
X208697883Y-85310000D01*
X208677422Y-85167684D01*
X208617695Y-85036901D01*
X208580110Y-84990260D01*
X207591701Y-84001852D01*
X204621852Y-86971701D01*
X204713792Y-87063641D01*
X204743153Y-87110367D01*
X204749331Y-87165206D01*
X204731105Y-87217294D01*
X204692083Y-87256315D01*
X204627826Y-87296691D01*
X204586160Y-87322871D01*
X204544068Y-87364961D01*
X204503844Y-87391837D01*
X204472168Y-87404957D01*
X204400831Y-87459696D01*
X204400830Y-87459699D01*
X204354350Y-87495363D01*
X204336595Y-87518501D01*
X204325902Y-87530693D01*
X199343080Y-92513515D01*
X199330888Y-92524208D01*
X199307749Y-92541964D01*
X199272598Y-92587772D01*
X199272588Y-92587787D01*
X199217347Y-92659780D01*
X199160517Y-92796980D01*
X199141132Y-92944213D01*
X199144939Y-92973122D01*
X199146000Y-92989308D01*
X199146000Y-93338817D01*
X199131876Y-93396292D01*
X199092720Y-93440673D01*
X199037454Y-93461850D01*
X198978667Y-93454999D01*
X198927485Y-93435909D01*
X198907612Y-93433772D01*
X198867873Y-93429500D01*
X198867869Y-93429500D01*
X198012130Y-93429500D01*
X197952515Y-93435909D01*
X197848333Y-93474767D01*
X197805000Y-93482585D01*
X197761667Y-93474767D01*
X197657485Y-93435909D01*
X197637612Y-93433772D01*
X197597873Y-93429500D01*
X197597869Y-93429500D01*
X196742130Y-93429500D01*
X196667030Y-93437574D01*
X196666764Y-93435099D01*
X196634042Y-93438912D01*
X196578777Y-93417733D01*
X196539624Y-93373353D01*
X196525500Y-93315879D01*
X196525500Y-92480733D01*
X196533983Y-92435658D01*
X196558270Y-92396750D01*
X196698164Y-92244785D01*
X196834173Y-92036607D01*
X196934063Y-91808881D01*
X196995108Y-91567821D01*
X197015643Y-91320000D01*
X196995108Y-91072179D01*
X196934063Y-90831119D01*
X196834173Y-90603393D01*
X196698164Y-90395215D01*
X196529744Y-90212262D01*
X196448180Y-90148778D01*
X196333514Y-90059529D01*
X196333510Y-90059526D01*
X196333509Y-90059526D01*
X196114810Y-89941172D01*
X196114806Y-89941170D01*
X196114805Y-89941170D01*
X195879615Y-89860429D01*
X195634335Y-89819500D01*
X195385665Y-89819500D01*
X195140384Y-89860429D01*
X194905194Y-89941170D01*
X194686485Y-90059529D01*
X194490259Y-90212259D01*
X194490256Y-90212261D01*
X194490256Y-90212262D01*
X194321836Y-90395215D01*
X194293123Y-90439164D01*
X194185825Y-90603395D01*
X194126458Y-90738740D01*
X194085937Y-90831119D01*
X194059351Y-90936105D01*
X194024891Y-91072183D01*
X194004356Y-91320000D01*
X174647616Y-91320000D01*
X176339750Y-89627864D01*
X176373627Y-89603827D01*
X176413539Y-89592328D01*
X176463580Y-89586691D01*
X176618957Y-89532322D01*
X176758341Y-89444742D01*
X176874742Y-89328341D01*
X176962322Y-89188957D01*
X177016691Y-89033580D01*
X177035122Y-88870000D01*
X177030643Y-88830250D01*
X177016691Y-88706419D01*
X176962322Y-88551042D01*
X176874742Y-88411658D01*
X176758341Y-88295257D01*
X176618957Y-88207677D01*
X176463580Y-88153308D01*
X176300000Y-88134877D01*
X176136419Y-88153308D01*
X175981042Y-88207677D01*
X175841658Y-88295257D01*
X175725257Y-88411658D01*
X175637677Y-88551042D01*
X175583308Y-88706419D01*
X175577671Y-88756453D01*
X175566171Y-88796371D01*
X175542132Y-88830250D01*
X172832580Y-91539801D01*
X172820388Y-91550494D01*
X172797249Y-91568250D01*
X172762098Y-91614058D01*
X172762088Y-91614073D01*
X172706847Y-91686066D01*
X172650017Y-91823266D01*
X172630632Y-91970499D01*
X172634439Y-91999408D01*
X172635500Y-92015594D01*
X172635500Y-108614406D01*
X172634439Y-108630592D01*
X172630632Y-108659500D01*
X148520500Y-108659500D01*
X148520500Y-103180000D01*
X161764540Y-103180000D01*
X161784326Y-103368257D01*
X161842820Y-103548284D01*
X161937466Y-103712216D01*
X162064129Y-103852889D01*
X162217269Y-103964151D01*
X162390197Y-104041144D01*
X162575352Y-104080500D01*
X162575354Y-104080500D01*
X162764646Y-104080500D01*
X162764648Y-104080500D01*
X162905080Y-104050650D01*
X162949803Y-104041144D01*
X163122730Y-103964151D01*
X163173095Y-103927559D01*
X163275870Y-103852889D01*
X163356285Y-103763580D01*
X163402533Y-103712216D01*
X163497179Y-103548284D01*
X163555674Y-103368256D01*
X163575460Y-103180000D01*
X163555674Y-102991744D01*
X163520441Y-102883308D01*
X163497179Y-102811715D01*
X163402533Y-102647783D01*
X163275870Y-102507110D01*
X163122730Y-102395848D01*
X162949802Y-102318855D01*
X162764648Y-102279500D01*
X162764646Y-102279500D01*
X162575354Y-102279500D01*
X162575352Y-102279500D01*
X162390197Y-102318855D01*
X162217269Y-102395848D01*
X162064129Y-102507110D01*
X161937466Y-102647783D01*
X161842820Y-102811715D01*
X161784326Y-102991742D01*
X161764540Y-103180000D01*
X148520500Y-103180000D01*
X148520500Y-101649999D01*
X170484540Y-101649999D01*
X170504326Y-101838257D01*
X170562820Y-102018284D01*
X170657466Y-102182216D01*
X170784129Y-102322889D01*
X170937269Y-102434151D01*
X171110197Y-102511144D01*
X171295352Y-102550500D01*
X171295354Y-102550500D01*
X171484646Y-102550500D01*
X171484648Y-102550500D01*
X171608084Y-102524262D01*
X171669803Y-102511144D01*
X171842730Y-102434151D01*
X171874537Y-102411042D01*
X171995870Y-102322889D01*
X172122533Y-102182216D01*
X172217179Y-102018284D01*
X172257320Y-101894742D01*
X172275674Y-101838256D01*
X172295460Y-101650000D01*
X172275674Y-101461744D01*
X172237361Y-101343828D01*
X172217179Y-101281715D01*
X172122533Y-101117783D01*
X171995870Y-100977110D01*
X171842730Y-100865848D01*
X171669802Y-100788855D01*
X171484648Y-100749500D01*
X171484646Y-100749500D01*
X171295354Y-100749500D01*
X171295352Y-100749500D01*
X171110197Y-100788855D01*
X170937269Y-100865848D01*
X170784129Y-100977110D01*
X170657466Y-101117783D01*
X170562820Y-101281715D01*
X170504326Y-101461742D01*
X170484540Y-101649999D01*
X148520500Y-101649999D01*
X148520500Y-95559999D01*
X161640593Y-95559999D01*
X161659792Y-95803946D01*
X161716915Y-96041883D01*
X161775442Y-96183178D01*
X161810558Y-96267956D01*
X161938413Y-96476596D01*
X162097333Y-96662667D01*
X162283404Y-96821587D01*
X162492044Y-96949442D01*
X162659064Y-97018623D01*
X162718116Y-97043084D01*
X162788319Y-97059938D01*
X162956055Y-97100208D01*
X163200000Y-97119407D01*
X163443945Y-97100208D01*
X163681883Y-97043084D01*
X163907956Y-96949442D01*
X164116596Y-96821587D01*
X164302667Y-96662667D01*
X164461587Y-96476596D01*
X164589442Y-96267956D01*
X164683084Y-96041883D01*
X164740208Y-95803945D01*
X164759407Y-95560000D01*
X164740208Y-95316055D01*
X164683084Y-95078117D01*
X164680630Y-95072193D01*
X164647444Y-94992074D01*
X164589442Y-94852044D01*
X164461587Y-94643404D01*
X164302667Y-94457333D01*
X164116596Y-94298413D01*
X163907956Y-94170558D01*
X163814045Y-94131659D01*
X163681883Y-94076915D01*
X163443946Y-94019792D01*
X163200000Y-94000593D01*
X162956053Y-94019792D01*
X162718116Y-94076915D01*
X162516502Y-94160427D01*
X162510849Y-94162769D01*
X162492042Y-94170559D01*
X162283405Y-94298412D01*
X162097333Y-94457333D01*
X161970775Y-94605512D01*
X161922363Y-94640181D01*
X161890325Y-94644582D01*
X161897950Y-94679031D01*
X161879768Y-94739103D01*
X161810558Y-94852044D01*
X161716915Y-95078116D01*
X161659792Y-95316053D01*
X161640593Y-95559999D01*
X148520500Y-95559999D01*
X148520500Y-94109998D01*
X154045864Y-94109998D01*
X154066366Y-94331261D01*
X154127176Y-94544983D01*
X154226220Y-94743892D01*
X154360133Y-94921222D01*
X154524345Y-95070921D01*
X154675873Y-95164742D01*
X154713271Y-95187898D01*
X154920473Y-95268169D01*
X155138897Y-95308999D01*
X155361103Y-95308999D01*
X155361105Y-95308999D01*
X155579529Y-95268169D01*
X155786731Y-95187898D01*
X155975656Y-95070921D01*
X156139869Y-94921221D01*
X156273779Y-94743895D01*
X156273779Y-94743893D01*
X156273781Y-94743892D01*
X156372825Y-94544983D01*
X156433635Y-94331261D01*
X156437830Y-94285989D01*
X156454138Y-94109999D01*
X156433635Y-93888739D01*
X156433635Y-93888735D01*
X156372825Y-93675014D01*
X156319961Y-93568848D01*
X158266129Y-93568848D01*
X158296229Y-93842407D01*
X158337585Y-94000593D01*
X158365840Y-94108671D01*
X158473476Y-94361961D01*
X158573725Y-94526225D01*
X158616846Y-94596881D01*
X158685212Y-94679031D01*
X158792890Y-94808419D01*
X158997860Y-94992073D01*
X159227385Y-95143926D01*
X159476575Y-95260741D01*
X159740117Y-95340029D01*
X160012395Y-95380100D01*
X160218712Y-95380100D01*
X160218716Y-95380100D01*
X160424479Y-95365040D01*
X160586460Y-95328957D01*
X160693105Y-95305201D01*
X160950157Y-95206887D01*
X161190154Y-95072193D01*
X161407983Y-94903992D01*
X161599000Y-94705866D01*
X161673193Y-94602162D01*
X161721441Y-94562023D01*
X161759899Y-94554936D01*
X161752491Y-94526225D01*
X161766207Y-94468282D01*
X161884972Y-94237283D01*
X161973833Y-93976812D01*
X162023821Y-93706179D01*
X162033872Y-93431151D01*
X162003772Y-93157591D01*
X161934162Y-92891329D01*
X161826526Y-92638039D01*
X161683157Y-92403121D01*
X161539084Y-92229999D01*
X165285864Y-92229999D01*
X165306366Y-92451262D01*
X165367176Y-92664984D01*
X165466220Y-92863893D01*
X165600133Y-93041223D01*
X165764345Y-93190922D01*
X165895636Y-93272213D01*
X165953271Y-93307899D01*
X166160473Y-93388170D01*
X166378897Y-93429000D01*
X166601103Y-93429000D01*
X166601105Y-93429000D01*
X166819529Y-93388170D01*
X167026731Y-93307899D01*
X167215656Y-93190922D01*
X167379869Y-93041222D01*
X167513779Y-92863896D01*
X167513779Y-92863894D01*
X167513781Y-92863893D01*
X167612825Y-92664984D01*
X167673635Y-92451262D01*
X167681006Y-92371715D01*
X167694138Y-92230000D01*
X167673635Y-92008740D01*
X167673635Y-92008737D01*
X167612825Y-91795015D01*
X167513781Y-91596106D01*
X167379868Y-91418776D01*
X167215656Y-91269077D01*
X167026733Y-91152102D01*
X167026731Y-91152101D01*
X166829325Y-91075625D01*
X166780957Y-91041831D01*
X166753683Y-90989504D01*
X166753683Y-90960000D01*
X167825864Y-90960000D01*
X167846366Y-91181262D01*
X167907176Y-91394984D01*
X168006220Y-91593893D01*
X168140133Y-91771223D01*
X168304345Y-91920922D01*
X168384417Y-91970500D01*
X168493271Y-92037899D01*
X168700473Y-92118170D01*
X168918897Y-92159000D01*
X169141103Y-92159000D01*
X169141105Y-92159000D01*
X169359529Y-92118170D01*
X169566731Y-92037899D01*
X169755656Y-91920922D01*
X169770978Y-91906954D01*
X169919868Y-91771223D01*
X169919869Y-91771222D01*
X170053779Y-91593896D01*
X170053779Y-91593894D01*
X170053781Y-91593893D01*
X170152825Y-91394984D01*
X170213635Y-91181262D01*
X170219722Y-91115567D01*
X170234138Y-90960000D01*
X170215492Y-90758775D01*
X170213635Y-90738737D01*
X170152825Y-90525015D01*
X170053781Y-90326106D01*
X169919868Y-90148776D01*
X169755656Y-89999077D01*
X169566733Y-89882102D01*
X169566731Y-89882101D01*
X169368631Y-89805356D01*
X169320263Y-89771562D01*
X169292989Y-89719235D01*
X169292989Y-89660227D01*
X169320263Y-89607900D01*
X169368635Y-89574104D01*
X169566505Y-89497449D01*
X169682239Y-89425790D01*
X169030002Y-88773553D01*
X169030001Y-88773553D01*
X168377761Y-89425790D01*
X168377762Y-89425791D01*
X168493491Y-89497447D01*
X168691367Y-89574104D01*
X168739738Y-89607900D01*
X168767012Y-89660227D01*
X168767012Y-89719235D01*
X168739738Y-89771561D01*
X168691367Y-89805357D01*
X168493272Y-89882099D01*
X168304345Y-89999077D01*
X168140133Y-90148776D01*
X168006220Y-90326106D01*
X167907176Y-90525015D01*
X167846366Y-90738737D01*
X167825864Y-90960000D01*
X166753683Y-90960000D01*
X166753683Y-90930496D01*
X166780957Y-90878169D01*
X166829325Y-90844374D01*
X167026731Y-90767899D01*
X167215656Y-90650922D01*
X167353769Y-90525015D01*
X167379868Y-90501223D01*
X167379869Y-90501222D01*
X167513779Y-90323896D01*
X167513779Y-90323894D01*
X167513781Y-90323893D01*
X167612825Y-90124984D01*
X167673635Y-89911262D01*
X167682682Y-89813626D01*
X167694138Y-89690000D01*
X167673635Y-89468740D01*
X167673635Y-89468737D01*
X167612825Y-89255015D01*
X167513781Y-89056106D01*
X167379868Y-88878776D01*
X167215656Y-88729077D01*
X167026733Y-88612102D01*
X167026731Y-88612101D01*
X166828631Y-88535356D01*
X166780263Y-88501562D01*
X166752989Y-88449235D01*
X166752989Y-88420000D01*
X167826367Y-88420000D01*
X167846860Y-88641169D01*
X167907644Y-88854801D01*
X168006651Y-89053632D01*
X168022211Y-89074235D01*
X168676448Y-88420001D01*
X168676448Y-88420000D01*
X169383554Y-88420000D01*
X170037789Y-89074235D01*
X170037790Y-89074235D01*
X170053350Y-89053631D01*
X170152357Y-88854801D01*
X170213141Y-88641169D01*
X170233634Y-88420000D01*
X170213141Y-88198830D01*
X170152356Y-87985196D01*
X170053351Y-87786368D01*
X170037790Y-87765762D01*
X170037789Y-87765762D01*
X169383554Y-88420000D01*
X168676448Y-88420000D01*
X168022211Y-87765762D01*
X168022210Y-87765762D01*
X168006650Y-87786367D01*
X167907645Y-87985196D01*
X167846860Y-88198830D01*
X167826367Y-88420000D01*
X166752989Y-88420000D01*
X166752989Y-88390227D01*
X166780263Y-88337900D01*
X166828635Y-88304104D01*
X167026505Y-88227449D01*
X167142239Y-88155790D01*
X166490002Y-87503553D01*
X166490001Y-87503553D01*
X165837761Y-88155790D01*
X165837762Y-88155791D01*
X165953491Y-88227447D01*
X166151367Y-88304104D01*
X166199738Y-88337900D01*
X166227012Y-88390227D01*
X166227012Y-88449235D01*
X166199738Y-88501561D01*
X166151367Y-88535357D01*
X165953272Y-88612099D01*
X165764345Y-88729077D01*
X165600133Y-88878776D01*
X165466220Y-89056106D01*
X165367176Y-89255015D01*
X165306366Y-89468737D01*
X165285864Y-89689999D01*
X165306366Y-89911262D01*
X165367176Y-90124984D01*
X165466220Y-90323893D01*
X165600133Y-90501223D01*
X165764345Y-90650922D01*
X165953272Y-90767900D01*
X166150673Y-90844374D01*
X166199044Y-90878169D01*
X166226318Y-90930496D01*
X166226318Y-90989504D01*
X166199044Y-91041831D01*
X166150673Y-91075626D01*
X165953272Y-91152099D01*
X165764345Y-91269077D01*
X165600133Y-91418776D01*
X165466220Y-91596106D01*
X165367176Y-91795015D01*
X165306366Y-92008737D01*
X165285864Y-92229999D01*
X161539084Y-92229999D01*
X161507112Y-92191581D01*
X161302142Y-92007927D01*
X161072617Y-91856074D01*
X160885996Y-91768590D01*
X160823426Y-91739258D01*
X160601453Y-91672477D01*
X160559885Y-91659971D01*
X160287607Y-91619900D01*
X160081290Y-91619900D01*
X160081286Y-91619900D01*
X159875522Y-91634959D01*
X159606898Y-91694798D01*
X159349845Y-91793112D01*
X159109848Y-91927807D01*
X158892017Y-92096008D01*
X158701004Y-92294130D01*
X158540865Y-92517964D01*
X158415030Y-92762715D01*
X158326168Y-93023188D01*
X158276180Y-93293820D01*
X158266129Y-93568848D01*
X156319961Y-93568848D01*
X156273781Y-93476105D01*
X156139868Y-93298775D01*
X155975656Y-93149076D01*
X155786733Y-93032101D01*
X155786731Y-93032100D01*
X155579529Y-92951829D01*
X155361105Y-92910999D01*
X155138897Y-92910999D01*
X154920472Y-92951829D01*
X154920473Y-92951829D01*
X154713268Y-93032101D01*
X154524345Y-93149076D01*
X154360133Y-93298775D01*
X154226220Y-93476105D01*
X154127176Y-93675014D01*
X154066367Y-93888735D01*
X154045864Y-94109998D01*
X148520500Y-94109998D01*
X148520500Y-91569998D01*
X155565863Y-91569998D01*
X155586365Y-91791261D01*
X155647175Y-92004983D01*
X155746219Y-92203892D01*
X155880132Y-92381222D01*
X156044344Y-92530921D01*
X156136187Y-92587787D01*
X156233270Y-92647898D01*
X156440472Y-92728169D01*
X156658896Y-92768999D01*
X156881102Y-92768999D01*
X156881104Y-92768999D01*
X157099528Y-92728169D01*
X157306730Y-92647898D01*
X157495655Y-92530921D01*
X157599319Y-92436419D01*
X157659867Y-92381222D01*
X157667046Y-92371716D01*
X157793778Y-92203895D01*
X157793778Y-92203893D01*
X157793780Y-92203892D01*
X157892824Y-92004983D01*
X157953634Y-91791261D01*
X157958071Y-91743375D01*
X157974137Y-91569999D01*
X157953634Y-91348739D01*
X157953634Y-91348736D01*
X157892824Y-91135014D01*
X157793780Y-90936105D01*
X157659867Y-90758775D01*
X157495655Y-90609076D01*
X157306732Y-90492101D01*
X157306730Y-90492100D01*
X157099528Y-90411829D01*
X156881104Y-90370999D01*
X156658896Y-90370999D01*
X156440472Y-90411828D01*
X156440472Y-90411829D01*
X156233267Y-90492101D01*
X156044344Y-90609076D01*
X155880132Y-90758775D01*
X155746219Y-90936105D01*
X155647175Y-91135014D01*
X155586365Y-91348736D01*
X155565863Y-91569998D01*
X148520500Y-91569998D01*
X148520500Y-87150000D01*
X165286367Y-87150000D01*
X165306860Y-87371169D01*
X165367644Y-87584801D01*
X165466651Y-87783632D01*
X165482211Y-87804235D01*
X166136448Y-87150001D01*
X166136448Y-87150000D01*
X166843554Y-87150000D01*
X167497789Y-87804235D01*
X167497790Y-87804235D01*
X167513350Y-87783631D01*
X167612357Y-87584801D01*
X167673141Y-87371169D01*
X167693634Y-87150000D01*
X167673141Y-86928830D01*
X167612356Y-86715196D01*
X167513351Y-86516368D01*
X167497790Y-86495762D01*
X166843554Y-87150000D01*
X166136448Y-87150000D01*
X165482211Y-86495762D01*
X165482210Y-86495762D01*
X165466650Y-86516367D01*
X165367645Y-86715196D01*
X165306860Y-86928830D01*
X165286367Y-87150000D01*
X148520500Y-87150000D01*
X148520500Y-83999891D01*
X154045864Y-83999891D01*
X154066366Y-84221154D01*
X154127176Y-84434876D01*
X154226220Y-84633785D01*
X154360133Y-84811115D01*
X154524345Y-84960814D01*
X154645164Y-85035621D01*
X154713271Y-85077791D01*
X154920473Y-85158062D01*
X155138897Y-85198892D01*
X155361103Y-85198892D01*
X155361105Y-85198892D01*
X155579529Y-85158062D01*
X155786731Y-85077791D01*
X155975656Y-84960814D01*
X156139869Y-84811114D01*
X156273779Y-84633788D01*
X156273779Y-84633786D01*
X156273781Y-84633785D01*
X156285624Y-84610000D01*
X165285864Y-84610000D01*
X165306366Y-84831262D01*
X165367176Y-85044984D01*
X165466220Y-85243893D01*
X165600133Y-85421223D01*
X165764345Y-85570922D01*
X165953267Y-85687897D01*
X165953269Y-85687897D01*
X165953271Y-85687899D01*
X166151371Y-85764643D01*
X166199738Y-85798437D01*
X166227012Y-85850764D01*
X166227012Y-85909772D01*
X166199738Y-85962098D01*
X166151367Y-85995894D01*
X165953497Y-86072549D01*
X165837761Y-86144208D01*
X166490001Y-86796447D01*
X166490002Y-86796447D01*
X167142239Y-86144208D01*
X167142238Y-86144207D01*
X167026510Y-86072552D01*
X166828634Y-85995895D01*
X166780263Y-85962099D01*
X166752989Y-85909772D01*
X166752989Y-85880000D01*
X167825864Y-85880000D01*
X167826944Y-85891659D01*
X167846366Y-86101262D01*
X167907176Y-86314984D01*
X168006220Y-86513893D01*
X168140133Y-86691223D01*
X168304345Y-86840922D01*
X168493267Y-86957897D01*
X168493269Y-86957897D01*
X168493271Y-86957899D01*
X168691371Y-87034643D01*
X168739738Y-87068437D01*
X168767012Y-87120764D01*
X168767012Y-87179772D01*
X168739738Y-87232098D01*
X168691367Y-87265894D01*
X168493497Y-87342549D01*
X168377761Y-87414208D01*
X169030001Y-88066447D01*
X169030002Y-88066447D01*
X169682239Y-87414208D01*
X169682238Y-87414207D01*
X169566510Y-87342552D01*
X169368634Y-87265895D01*
X169320263Y-87232099D01*
X169292989Y-87179772D01*
X169292989Y-87120764D01*
X169320263Y-87068437D01*
X169368628Y-87034644D01*
X169566731Y-86957899D01*
X169595641Y-86939999D01*
X173514877Y-86939999D01*
X173533308Y-87103580D01*
X173587677Y-87258957D01*
X173675257Y-87398341D01*
X173791658Y-87514742D01*
X173931042Y-87602322D01*
X174086419Y-87656691D01*
X174250000Y-87675122D01*
X174413580Y-87656691D01*
X174568957Y-87602322D01*
X174708341Y-87514742D01*
X174824742Y-87398341D01*
X174912322Y-87258957D01*
X174966691Y-87103580D01*
X174985122Y-86940000D01*
X174983863Y-86928830D01*
X174966691Y-86776419D01*
X174912322Y-86621042D01*
X174824742Y-86481658D01*
X174708341Y-86365257D01*
X174568957Y-86277677D01*
X174413580Y-86223308D01*
X174250000Y-86204877D01*
X174086419Y-86223308D01*
X173931042Y-86277677D01*
X173791658Y-86365257D01*
X173675257Y-86481658D01*
X173587677Y-86621042D01*
X173533308Y-86776419D01*
X173514877Y-86939999D01*
X169595641Y-86939999D01*
X169755656Y-86840922D01*
X169866911Y-86739500D01*
X169919868Y-86691223D01*
X169919869Y-86691222D01*
X170053779Y-86513896D01*
X170053779Y-86513894D01*
X170053781Y-86513893D01*
X170152825Y-86314984D01*
X170213635Y-86101262D01*
X170218802Y-86045500D01*
X170234138Y-85880000D01*
X170213635Y-85658740D01*
X170213635Y-85658737D01*
X170152825Y-85445015D01*
X170053781Y-85246106D01*
X169919868Y-85068776D01*
X169755656Y-84919077D01*
X169566733Y-84802102D01*
X169566731Y-84802101D01*
X169369325Y-84725625D01*
X169320957Y-84691831D01*
X169293683Y-84639504D01*
X169293683Y-84580496D01*
X169320957Y-84528169D01*
X169369325Y-84494374D01*
X169566731Y-84417899D01*
X169755656Y-84300922D01*
X169843157Y-84221154D01*
X169919868Y-84151223D01*
X169954051Y-84105957D01*
X170053779Y-83973896D01*
X170053779Y-83973894D01*
X170053781Y-83973893D01*
X170152825Y-83774984D01*
X170213635Y-83561262D01*
X170219319Y-83499921D01*
X170234138Y-83340000D01*
X170223945Y-83229999D01*
X174704877Y-83229999D01*
X174723308Y-83393580D01*
X174777677Y-83548957D01*
X174865257Y-83688341D01*
X174981658Y-83804742D01*
X175121042Y-83892322D01*
X175276419Y-83946691D01*
X175440000Y-83965122D01*
X175603580Y-83946691D01*
X175758957Y-83892322D01*
X175898341Y-83804742D01*
X176014742Y-83688341D01*
X176102322Y-83548957D01*
X176156691Y-83393580D01*
X176175122Y-83230000D01*
X176166230Y-83151085D01*
X176156691Y-83066419D01*
X176102322Y-82911042D01*
X176014742Y-82771658D01*
X175898341Y-82655257D01*
X175758957Y-82567677D01*
X175603580Y-82513308D01*
X175440000Y-82494877D01*
X175276419Y-82513308D01*
X175121042Y-82567677D01*
X174981658Y-82655257D01*
X174865257Y-82771658D01*
X174777677Y-82911042D01*
X174723308Y-83066419D01*
X174704877Y-83229999D01*
X170223945Y-83229999D01*
X170215606Y-83140013D01*
X170213635Y-83118737D01*
X170152825Y-82905015D01*
X170053781Y-82706106D01*
X169919868Y-82528776D01*
X169755656Y-82379077D01*
X169566733Y-82262102D01*
X169566731Y-82262101D01*
X169359529Y-82181830D01*
X169141105Y-82141000D01*
X168918897Y-82141000D01*
X168760239Y-82170658D01*
X168700473Y-82181830D01*
X168493268Y-82262102D01*
X168304345Y-82379077D01*
X168140133Y-82528776D01*
X168006220Y-82706106D01*
X167907176Y-82905015D01*
X167846366Y-83118737D01*
X167825864Y-83339999D01*
X167846366Y-83561262D01*
X167907176Y-83774984D01*
X168006220Y-83973893D01*
X168140133Y-84151223D01*
X168304345Y-84300922D01*
X168493272Y-84417900D01*
X168690673Y-84494374D01*
X168739044Y-84528169D01*
X168766318Y-84580496D01*
X168766318Y-84639504D01*
X168739044Y-84691831D01*
X168690673Y-84725626D01*
X168493272Y-84802099D01*
X168304345Y-84919077D01*
X168140133Y-85068776D01*
X168006220Y-85246106D01*
X167907176Y-85445015D01*
X167846366Y-85658737D01*
X167827161Y-85866000D01*
X167825864Y-85880000D01*
X166752989Y-85880000D01*
X166752989Y-85850764D01*
X166780263Y-85798437D01*
X166828628Y-85764644D01*
X167026731Y-85687899D01*
X167215656Y-85570922D01*
X167379869Y-85421222D01*
X167513779Y-85243896D01*
X167513779Y-85243894D01*
X167513781Y-85243893D01*
X167612825Y-85044984D01*
X167673635Y-84831262D01*
X167678895Y-84774496D01*
X167694138Y-84610000D01*
X167676579Y-84420513D01*
X167673635Y-84388737D01*
X167612825Y-84175015D01*
X167513781Y-83976106D01*
X167379868Y-83798776D01*
X167215656Y-83649077D01*
X167026733Y-83532102D01*
X167026731Y-83532101D01*
X166819529Y-83451830D01*
X166601105Y-83411000D01*
X166378897Y-83411000D01*
X166224674Y-83439829D01*
X166160473Y-83451830D01*
X165953268Y-83532102D01*
X165764345Y-83649077D01*
X165600133Y-83798776D01*
X165466220Y-83976106D01*
X165367176Y-84175015D01*
X165306366Y-84388737D01*
X165285864Y-84610000D01*
X156285624Y-84610000D01*
X156372825Y-84434876D01*
X156433635Y-84221154D01*
X156440192Y-84150392D01*
X156454138Y-83999892D01*
X156436490Y-83809440D01*
X156433635Y-83778629D01*
X156372825Y-83564907D01*
X156273781Y-83365998D01*
X156139868Y-83188668D01*
X155975656Y-83038969D01*
X155786733Y-82921994D01*
X155786731Y-82921993D01*
X155579529Y-82841722D01*
X155361105Y-82800892D01*
X155138897Y-82800892D01*
X154926181Y-82840655D01*
X154920473Y-82841722D01*
X154713268Y-82921994D01*
X154524345Y-83038969D01*
X154360133Y-83188668D01*
X154226220Y-83365998D01*
X154127176Y-83564907D01*
X154066366Y-83778629D01*
X154045864Y-83999891D01*
X148520500Y-83999891D01*
X148520500Y-81459891D01*
X155565863Y-81459891D01*
X155586365Y-81681154D01*
X155647175Y-81894876D01*
X155746219Y-82093785D01*
X155880132Y-82271115D01*
X156044344Y-82420814D01*
X156161721Y-82493490D01*
X156233270Y-82537791D01*
X156440472Y-82618062D01*
X156658896Y-82658892D01*
X156881102Y-82658892D01*
X156881104Y-82658892D01*
X157099528Y-82618062D01*
X157306730Y-82537791D01*
X157495655Y-82420814D01*
X157659868Y-82271114D01*
X157759750Y-82138848D01*
X158266129Y-82138848D01*
X158296229Y-82412407D01*
X158331621Y-82547783D01*
X158365840Y-82678671D01*
X158473476Y-82931961D01*
X158586257Y-83116759D01*
X158616846Y-83166881D01*
X158709898Y-83278694D01*
X158792890Y-83378419D01*
X158997860Y-83562073D01*
X159227385Y-83713926D01*
X159476575Y-83830741D01*
X159740117Y-83910029D01*
X160012395Y-83950100D01*
X160218712Y-83950100D01*
X160218716Y-83950100D01*
X160424479Y-83935040D01*
X160536761Y-83910028D01*
X160693105Y-83875201D01*
X160950157Y-83776887D01*
X161190154Y-83642193D01*
X161407983Y-83473992D01*
X161599000Y-83275866D01*
X161759134Y-83052040D01*
X161884972Y-82807283D01*
X161973833Y-82546812D01*
X162023821Y-82276179D01*
X162033872Y-82001151D01*
X162003772Y-81727591D01*
X161934162Y-81461329D01*
X161826526Y-81208039D01*
X161755992Y-81092466D01*
X161737998Y-81034172D01*
X161747208Y-80988193D01*
X161711622Y-80983635D01*
X161661978Y-80947671D01*
X161584810Y-80854945D01*
X161507112Y-80761581D01*
X161302142Y-80577927D01*
X161072617Y-80426074D01*
X160896705Y-80343610D01*
X160823426Y-80309258D01*
X160626163Y-80249911D01*
X160559885Y-80229971D01*
X160287607Y-80189900D01*
X160081290Y-80189900D01*
X160081286Y-80189900D01*
X159875522Y-80204959D01*
X159606898Y-80264798D01*
X159349845Y-80363112D01*
X159109848Y-80497807D01*
X158892017Y-80666008D01*
X158701004Y-80864130D01*
X158540865Y-81087964D01*
X158415030Y-81332715D01*
X158326168Y-81593188D01*
X158276180Y-81863820D01*
X158266129Y-82138848D01*
X157759750Y-82138848D01*
X157793778Y-82093788D01*
X157793778Y-82093786D01*
X157793780Y-82093785D01*
X157892824Y-81894876D01*
X157953634Y-81681154D01*
X157959396Y-81618967D01*
X157974137Y-81459892D01*
X157953634Y-81238632D01*
X157953634Y-81238629D01*
X157892824Y-81024907D01*
X157793780Y-80825998D01*
X157659867Y-80648668D01*
X157495655Y-80498969D01*
X157306732Y-80381994D01*
X157306730Y-80381993D01*
X157099528Y-80301722D01*
X156881104Y-80260892D01*
X156658896Y-80260892D01*
X156494899Y-80291548D01*
X156440472Y-80301722D01*
X156233267Y-80381994D01*
X156044344Y-80498969D01*
X155880132Y-80648668D01*
X155746219Y-80825998D01*
X155647175Y-81024907D01*
X155586365Y-81238629D01*
X155565863Y-81459891D01*
X148520500Y-81459891D01*
X148520500Y-80009999D01*
X161640593Y-80009999D01*
X161659792Y-80253946D01*
X161716915Y-80491883D01*
X161752556Y-80577927D01*
X161810558Y-80717956D01*
X161844808Y-80773847D01*
X161863017Y-80803561D01*
X161881134Y-80862125D01*
X161871851Y-80908024D01*
X161906310Y-80912119D01*
X161956128Y-80947338D01*
X161956849Y-80948182D01*
X162097333Y-81112667D01*
X162283404Y-81271587D01*
X162492044Y-81399442D01*
X162659064Y-81468623D01*
X162718116Y-81493084D01*
X162764539Y-81504229D01*
X162956055Y-81550208D01*
X163200000Y-81569407D01*
X163443945Y-81550208D01*
X163681883Y-81493084D01*
X163907956Y-81399442D01*
X164116596Y-81271587D01*
X164302667Y-81112667D01*
X164461587Y-80926596D01*
X164589442Y-80717956D01*
X164683084Y-80491883D01*
X164740208Y-80253945D01*
X164759407Y-80010000D01*
X164740208Y-79766055D01*
X164726750Y-79710000D01*
X174604877Y-79710000D01*
X174623308Y-79873580D01*
X174677677Y-80028957D01*
X174765257Y-80168341D01*
X174881658Y-80284742D01*
X175021042Y-80372322D01*
X175176419Y-80426691D01*
X175339999Y-80445122D01*
X175339999Y-80445121D01*
X175340000Y-80445122D01*
X175503580Y-80426691D01*
X175658957Y-80372322D01*
X175667640Y-80366866D01*
X175687312Y-80354506D01*
X175753283Y-80335500D01*
X176419548Y-80335500D01*
X176467001Y-80344939D01*
X176507228Y-80371818D01*
X179286494Y-83151085D01*
X182055621Y-85920212D01*
X182084981Y-85966938D01*
X182127677Y-86088957D01*
X182215257Y-86228341D01*
X182331658Y-86344742D01*
X182471042Y-86432322D01*
X182626419Y-86486691D01*
X182789999Y-86505122D01*
X182789999Y-86505121D01*
X182790000Y-86505122D01*
X182953580Y-86486691D01*
X183108957Y-86432322D01*
X183248341Y-86344742D01*
X183364742Y-86228341D01*
X183444153Y-86101958D01*
X186942919Y-86101958D01*
X186961350Y-86265538D01*
X187015719Y-86420915D01*
X187103299Y-86560299D01*
X187219700Y-86676700D01*
X187359084Y-86764280D01*
X187514461Y-86818649D01*
X187531492Y-86820567D01*
X187598518Y-86828119D01*
X187661943Y-86854389D01*
X187686738Y-86889331D01*
X187690245Y-86887128D01*
X187785257Y-87038341D01*
X187901658Y-87154742D01*
X188041042Y-87242322D01*
X188196419Y-87296691D01*
X188359999Y-87315122D01*
X188359999Y-87315121D01*
X188360000Y-87315122D01*
X188523580Y-87296691D01*
X188678957Y-87242322D01*
X188818341Y-87154742D01*
X188934742Y-87038341D01*
X189022322Y-86898957D01*
X189076691Y-86743580D01*
X189095122Y-86580000D01*
X189077467Y-86423309D01*
X189076691Y-86416419D01*
X189022322Y-86261042D01*
X188934742Y-86121658D01*
X188818341Y-86005257D01*
X188678957Y-85917677D01*
X188523579Y-85863308D01*
X188439522Y-85853837D01*
X188376089Y-85827561D01*
X188351304Y-85792626D01*
X188347797Y-85794830D01*
X188252784Y-85643616D01*
X188136383Y-85527215D01*
X187996999Y-85439635D01*
X187841622Y-85385266D01*
X187678042Y-85366835D01*
X187514461Y-85385266D01*
X187359084Y-85439635D01*
X187219700Y-85527215D01*
X187103299Y-85643616D01*
X187015719Y-85783000D01*
X186961350Y-85938377D01*
X186942919Y-86101958D01*
X183444153Y-86101958D01*
X183452322Y-86088957D01*
X183506691Y-85933580D01*
X183525122Y-85770000D01*
X183519125Y-85716776D01*
X183506691Y-85606419D01*
X183452322Y-85451042D01*
X183364742Y-85311658D01*
X183248341Y-85195257D01*
X183108957Y-85107677D01*
X182986938Y-85064981D01*
X182940212Y-85035621D01*
X182914591Y-85010000D01*
X201924877Y-85010000D01*
X201943308Y-85173580D01*
X201997677Y-85328957D01*
X202085257Y-85468340D01*
X202124700Y-85507783D01*
X202157911Y-85567871D01*
X202154062Y-85636418D01*
X202132808Y-85697158D01*
X202114377Y-85860738D01*
X202132808Y-86024318D01*
X202187177Y-86179695D01*
X202274757Y-86319079D01*
X202391158Y-86435480D01*
X202530542Y-86523060D01*
X202685919Y-86577429D01*
X202708738Y-86580000D01*
X202785192Y-86588614D01*
X202848621Y-86614886D01*
X202879103Y-86657845D01*
X202880245Y-86657128D01*
X202975257Y-86808341D01*
X203091658Y-86924742D01*
X203231042Y-87012322D01*
X203386419Y-87066691D01*
X203550000Y-87085122D01*
X203713580Y-87066691D01*
X203868957Y-87012322D01*
X204008341Y-86924742D01*
X204124742Y-86808341D01*
X204133040Y-86795134D01*
X204207786Y-86676177D01*
X204252799Y-86633620D01*
X204252836Y-86633610D01*
X207238148Y-83648299D01*
X207016478Y-83426629D01*
X206987117Y-83379902D01*
X206980939Y-83325063D01*
X206999166Y-83272975D01*
X207038185Y-83233956D01*
X207148341Y-83164742D01*
X207233083Y-83080000D01*
X217304540Y-83080000D01*
X217324326Y-83268257D01*
X217382820Y-83448284D01*
X217477466Y-83612216D01*
X217604129Y-83752889D01*
X217757269Y-83864151D01*
X217930197Y-83941144D01*
X218115352Y-83980500D01*
X218115354Y-83980500D01*
X218304646Y-83980500D01*
X218304648Y-83980500D01*
X218442756Y-83951144D01*
X218489803Y-83941144D01*
X218662730Y-83864151D01*
X218692114Y-83842801D01*
X218739219Y-83821829D01*
X218790781Y-83821829D01*
X218837885Y-83842801D01*
X218867270Y-83864151D01*
X219026487Y-83935040D01*
X219040197Y-83941144D01*
X219225352Y-83980500D01*
X219225354Y-83980500D01*
X219414646Y-83980500D01*
X219414648Y-83980500D01*
X219552756Y-83951144D01*
X219599803Y-83941144D01*
X219772730Y-83864151D01*
X219772731Y-83864150D01*
X219855233Y-83804210D01*
X219902337Y-83783238D01*
X219953899Y-83783238D01*
X220001003Y-83804210D01*
X220097269Y-83874151D01*
X220270197Y-83951144D01*
X220455352Y-83990500D01*
X220455354Y-83990500D01*
X220644646Y-83990500D01*
X220644648Y-83990500D01*
X220768083Y-83964262D01*
X220829803Y-83951144D01*
X221002730Y-83874151D01*
X221045878Y-83842802D01*
X221155870Y-83762889D01*
X221282533Y-83622216D01*
X221377179Y-83458284D01*
X221389330Y-83420888D01*
X221435674Y-83278256D01*
X221455460Y-83090000D01*
X221435674Y-82901744D01*
X221387748Y-82754243D01*
X221377179Y-82721715D01*
X221282533Y-82557783D01*
X221155870Y-82417110D01*
X221002730Y-82305848D01*
X220829802Y-82228855D01*
X220644648Y-82189500D01*
X220644646Y-82189500D01*
X220596953Y-82189500D01*
X220531243Y-82170658D01*
X220485503Y-82119858D01*
X220473632Y-82052539D01*
X220477567Y-82015099D01*
X220485460Y-81940000D01*
X220474682Y-81837461D01*
X220486554Y-81770142D01*
X220532294Y-81719342D01*
X220598004Y-81700500D01*
X220644648Y-81700500D01*
X220775949Y-81672591D01*
X220829803Y-81661144D01*
X221002730Y-81584151D01*
X221019847Y-81571715D01*
X221155870Y-81472889D01*
X221167574Y-81459891D01*
X221282533Y-81332216D01*
X221377179Y-81168284D01*
X221435674Y-80988256D01*
X221455460Y-80800000D01*
X221435674Y-80611744D01*
X221385615Y-80457678D01*
X221377179Y-80431715D01*
X221282533Y-80267783D01*
X221155870Y-80127110D01*
X221002730Y-80015848D01*
X220829802Y-79938855D01*
X220644648Y-79899500D01*
X220644646Y-79899500D01*
X220455354Y-79899500D01*
X220455352Y-79899500D01*
X220270197Y-79938855D01*
X220097269Y-80015848D01*
X219944129Y-80127110D01*
X219817466Y-80267783D01*
X219722820Y-80431715D01*
X219664326Y-80611742D01*
X219644540Y-80800000D01*
X219655317Y-80902539D01*
X219643446Y-80969858D01*
X219597706Y-81020658D01*
X219531996Y-81039500D01*
X219485352Y-81039500D01*
X219300197Y-81078855D01*
X219127269Y-81155848D01*
X218974129Y-81267110D01*
X218847465Y-81407785D01*
X218752821Y-81571715D01*
X218723094Y-81663201D01*
X218692845Y-81712562D01*
X218262228Y-82143181D01*
X218222000Y-82170061D01*
X218174547Y-82179500D01*
X218115352Y-82179500D01*
X217930197Y-82218855D01*
X217757269Y-82295848D01*
X217604129Y-82407110D01*
X217477466Y-82547783D01*
X217382820Y-82711715D01*
X217324326Y-82891742D01*
X217304540Y-83080000D01*
X207233083Y-83080000D01*
X207264742Y-83048341D01*
X207352322Y-82908957D01*
X207406691Y-82753580D01*
X207412328Y-82703546D01*
X207423828Y-82663628D01*
X207447864Y-82629751D01*
X208397297Y-81680318D01*
X208437525Y-81653439D01*
X208484978Y-81644000D01*
X211514906Y-81644000D01*
X211531089Y-81645060D01*
X211560000Y-81648867D01*
X211707234Y-81629483D01*
X211844433Y-81572653D01*
X211932668Y-81504949D01*
X211932668Y-81504948D01*
X211932706Y-81504919D01*
X211933606Y-81504229D01*
X211933565Y-81504260D01*
X211955605Y-81487349D01*
X211955606Y-81487347D01*
X211962250Y-81482250D01*
X211980003Y-81459112D01*
X211990690Y-81446925D01*
X212206560Y-81231055D01*
X212259911Y-81199584D01*
X212321831Y-81197847D01*
X212376866Y-81226278D01*
X212411280Y-81277783D01*
X212467677Y-81438957D01*
X212555257Y-81578341D01*
X212671658Y-81694742D01*
X212811042Y-81782322D01*
X212966419Y-81836691D01*
X213130000Y-81855122D01*
X213293580Y-81836691D01*
X213448957Y-81782322D01*
X213588341Y-81694742D01*
X213704742Y-81578341D01*
X213792322Y-81438957D01*
X213846691Y-81283580D01*
X213865122Y-81120000D01*
X213846691Y-80956420D01*
X213843808Y-80948182D01*
X213792322Y-80801042D01*
X213704742Y-80661658D01*
X213588341Y-80545257D01*
X213448957Y-80457677D01*
X213287783Y-80401280D01*
X213236278Y-80366866D01*
X213207847Y-80311831D01*
X213209584Y-80249911D01*
X213241055Y-80196560D01*
X215745651Y-77691964D01*
X215805738Y-77658756D01*
X215874286Y-77662606D01*
X215932816Y-77683087D01*
X216096395Y-77701518D01*
X216096395Y-77701517D01*
X216096396Y-77701518D01*
X216259976Y-77683087D01*
X216415353Y-77628718D01*
X216554737Y-77541138D01*
X216671138Y-77424737D01*
X216758718Y-77285353D01*
X216813087Y-77129976D01*
X216823462Y-77037894D01*
X216845552Y-76980023D01*
X216892880Y-76940058D01*
X216953634Y-76927973D01*
X217012653Y-76946784D01*
X217101042Y-77002322D01*
X217256419Y-77056691D01*
X217419999Y-77075122D01*
X217419999Y-77075121D01*
X217420000Y-77075122D01*
X217583580Y-77056691D01*
X217738957Y-77002322D01*
X217878341Y-76914742D01*
X217994742Y-76798341D01*
X218082322Y-76658957D01*
X218136691Y-76503580D01*
X218155122Y-76340000D01*
X218155122Y-76339999D01*
X218150969Y-76303136D01*
X218157148Y-76248296D01*
X218186510Y-76201569D01*
X218233238Y-76172209D01*
X218266318Y-76168482D01*
X218266116Y-76166687D01*
X218443580Y-76146691D01*
X218598957Y-76092322D01*
X218738341Y-76004742D01*
X218854742Y-75888341D01*
X218942322Y-75748957D01*
X218996691Y-75593580D01*
X219015122Y-75430000D01*
X218996691Y-75266419D01*
X218942322Y-75111042D01*
X218854742Y-74971658D01*
X218738341Y-74855257D01*
X218598957Y-74767677D01*
X218443580Y-74713308D01*
X218280000Y-74694877D01*
X218116419Y-74713308D01*
X217961042Y-74767677D01*
X217834810Y-74846994D01*
X217768839Y-74866000D01*
X216273356Y-74866000D01*
X216217061Y-74852485D01*
X216173038Y-74814885D01*
X216150883Y-74761398D01*
X216155425Y-74703682D01*
X216157179Y-74698284D01*
X216215674Y-74518256D01*
X216235460Y-74330000D01*
X216215674Y-74141744D01*
X216157179Y-73961716D01*
X216157179Y-73961715D01*
X216062533Y-73797783D01*
X215935870Y-73657110D01*
X215782730Y-73545848D01*
X215609802Y-73468855D01*
X215424648Y-73429500D01*
X215424646Y-73429500D01*
X215235354Y-73429500D01*
X215235352Y-73429500D01*
X215050201Y-73468854D01*
X214897576Y-73536808D01*
X214829883Y-73546321D01*
X214767434Y-73518518D01*
X214729209Y-73461846D01*
X214677179Y-73301715D01*
X214582533Y-73137783D01*
X214455870Y-72997110D01*
X214302730Y-72885848D01*
X214129802Y-72808855D01*
X213944648Y-72769500D01*
X213944646Y-72769500D01*
X213755354Y-72769500D01*
X213755352Y-72769500D01*
X213570197Y-72808855D01*
X213397269Y-72885848D01*
X213244129Y-72997110D01*
X213117466Y-73137783D01*
X213022820Y-73301715D01*
X212964326Y-73481742D01*
X212944540Y-73670000D01*
X212964326Y-73858257D01*
X213022820Y-74038284D01*
X213117466Y-74202216D01*
X213244129Y-74342889D01*
X213397269Y-74454151D01*
X213570197Y-74531144D01*
X213755352Y-74570500D01*
X213901521Y-74570500D01*
X213948974Y-74579939D01*
X213989202Y-74606819D01*
X214079302Y-74696919D01*
X214089997Y-74709114D01*
X214107749Y-74732249D01*
X214130879Y-74749997D01*
X214130889Y-74750006D01*
X214225565Y-74822652D01*
X214225566Y-74822652D01*
X214225567Y-74822653D01*
X214346934Y-74872925D01*
X214395334Y-74908821D01*
X214421098Y-74963295D01*
X214418142Y-75023481D01*
X214387162Y-75075167D01*
X210010223Y-79452106D01*
X209976344Y-79476145D01*
X209936426Y-79487645D01*
X209886395Y-79493282D01*
X209732507Y-79547130D01*
X209677670Y-79553308D01*
X209625582Y-79535082D01*
X209493151Y-79451871D01*
X209337774Y-79397502D01*
X209174194Y-79379071D01*
X209010613Y-79397502D01*
X208855236Y-79451871D01*
X208715852Y-79539451D01*
X208599451Y-79655852D01*
X208511871Y-79795236D01*
X208457502Y-79950613D01*
X208439071Y-80114194D01*
X208457502Y-80277771D01*
X208483142Y-80351046D01*
X208488882Y-80409334D01*
X208467229Y-80463755D01*
X208423014Y-80502167D01*
X208366100Y-80516000D01*
X208245093Y-80516000D01*
X208228907Y-80514939D01*
X208200000Y-80511133D01*
X208171093Y-80514939D01*
X208171087Y-80514939D01*
X208052766Y-80530517D01*
X207915566Y-80587347D01*
X207797748Y-80677750D01*
X207779993Y-80700889D01*
X207769300Y-80713082D01*
X206650249Y-81832132D01*
X206616370Y-81856171D01*
X206576452Y-81867671D01*
X206526419Y-81873308D01*
X206371042Y-81927677D01*
X206231658Y-82015257D01*
X206115257Y-82131658D01*
X206027677Y-82271042D01*
X205973308Y-82426419D01*
X205971499Y-82442477D01*
X205953939Y-82493490D01*
X205916378Y-82532218D01*
X205865925Y-82551329D01*
X205787682Y-82562578D01*
X205712771Y-82596789D01*
X205645702Y-82607015D01*
X205583290Y-82580414D01*
X205544219Y-82524950D01*
X205512844Y-82435286D01*
X205481922Y-82386074D01*
X205425264Y-82295901D01*
X205308863Y-82179500D01*
X205169479Y-82091920D01*
X205014102Y-82037551D01*
X204850522Y-82019120D01*
X204686941Y-82037551D01*
X204531564Y-82091920D01*
X204392180Y-82179500D01*
X204275779Y-82295901D01*
X204188199Y-82435285D01*
X204133830Y-82590662D01*
X204127912Y-82643187D01*
X204109686Y-82695274D01*
X204070666Y-82734295D01*
X204003726Y-82776357D01*
X203887324Y-82892758D01*
X203818398Y-83002454D01*
X203779376Y-83041476D01*
X203727289Y-83059702D01*
X203633157Y-83070308D01*
X203477780Y-83124677D01*
X203338396Y-83212257D01*
X203221995Y-83328658D01*
X203134415Y-83468042D01*
X203080046Y-83623419D01*
X203061615Y-83787000D01*
X203080046Y-83950580D01*
X203134415Y-84105957D01*
X203197760Y-84206771D01*
X203216735Y-84269960D01*
X203200614Y-84333937D01*
X203153961Y-84380590D01*
X203089984Y-84396711D01*
X203026794Y-84377736D01*
X203019944Y-84373432D01*
X202978957Y-84347678D01*
X202978954Y-84347676D01*
X202823580Y-84293308D01*
X202660000Y-84274877D01*
X202496419Y-84293308D01*
X202341042Y-84347677D01*
X202201658Y-84435257D01*
X202085257Y-84551658D01*
X201997677Y-84691042D01*
X201943308Y-84846419D01*
X201924877Y-85010000D01*
X182914591Y-85010000D01*
X179144591Y-81240000D01*
X182444877Y-81240000D01*
X182463308Y-81403580D01*
X182517677Y-81558957D01*
X182605257Y-81698341D01*
X182721658Y-81814742D01*
X182861042Y-81902322D01*
X182933503Y-81927677D01*
X183016420Y-81956691D01*
X183057095Y-81961273D01*
X183118696Y-81986117D01*
X183131249Y-81995749D01*
X183131250Y-81995750D01*
X183249067Y-82086153D01*
X183386266Y-82142983D01*
X183496532Y-82157500D01*
X183496534Y-82157500D01*
X183533500Y-82162367D01*
X183562410Y-82158560D01*
X183578594Y-82157500D01*
X185715021Y-82157500D01*
X185762474Y-82166939D01*
X185802702Y-82193819D01*
X186320599Y-82711716D01*
X186681182Y-83072298D01*
X186714392Y-83132384D01*
X186710544Y-83200930D01*
X186670819Y-83256922D01*
X186619437Y-83278208D01*
X186619608Y-83278694D01*
X186610963Y-83281719D01*
X186607393Y-83283198D01*
X186606424Y-83283307D01*
X186451042Y-83337677D01*
X186311658Y-83425257D01*
X186195257Y-83541658D01*
X186107677Y-83681042D01*
X186053308Y-83836419D01*
X186034877Y-84000000D01*
X186053308Y-84163580D01*
X186107677Y-84318957D01*
X186195257Y-84458341D01*
X186311658Y-84574742D01*
X186451042Y-84662322D01*
X186606419Y-84716691D01*
X186770000Y-84735122D01*
X186933580Y-84716691D01*
X187088957Y-84662322D01*
X187228341Y-84574742D01*
X187344742Y-84458341D01*
X187432322Y-84318957D01*
X187486691Y-84163580D01*
X187486799Y-84162615D01*
X187488275Y-84159053D01*
X187491306Y-84150392D01*
X187491792Y-84150562D01*
X187513073Y-84099186D01*
X187569065Y-84059457D01*
X187637612Y-84055607D01*
X187697701Y-84088817D01*
X188181428Y-84572544D01*
X188192123Y-84584739D01*
X188209878Y-84607879D01*
X188310346Y-84684969D01*
X188318262Y-84691043D01*
X188327696Y-84698282D01*
X188464895Y-84755112D01*
X188594999Y-84772240D01*
X188612128Y-84774496D01*
X188612128Y-84774495D01*
X188612129Y-84774496D01*
X188641039Y-84770689D01*
X188657223Y-84769629D01*
X199283210Y-84769629D01*
X199349181Y-84788635D01*
X199475413Y-84867951D01*
X199630790Y-84922320D01*
X199794371Y-84940751D01*
X199957951Y-84922320D01*
X200113328Y-84867951D01*
X200252712Y-84780371D01*
X200369113Y-84663970D01*
X200456693Y-84524586D01*
X200511062Y-84369209D01*
X200529493Y-84205629D01*
X200524755Y-84163580D01*
X200511062Y-84042048D01*
X200456693Y-83886671D01*
X200369113Y-83747287D01*
X200252714Y-83630888D01*
X200234523Y-83619458D01*
X200190010Y-83570759D01*
X200176776Y-83506122D01*
X200198567Y-83443847D01*
X200249215Y-83401564D01*
X200314380Y-83391244D01*
X200324164Y-83392346D01*
X200340891Y-83394231D01*
X200340891Y-83394230D01*
X200340892Y-83394231D01*
X200399503Y-83387627D01*
X200504471Y-83375800D01*
X200557163Y-83357361D01*
X200611999Y-83351183D01*
X200664088Y-83369409D01*
X200808462Y-83460124D01*
X200963839Y-83514493D01*
X201127420Y-83532924D01*
X201291000Y-83514493D01*
X201446377Y-83460124D01*
X201585761Y-83372544D01*
X201702162Y-83256143D01*
X201789742Y-83116759D01*
X201844111Y-82961382D01*
X201846829Y-82937253D01*
X201868120Y-82880524D01*
X201913753Y-82840655D01*
X201972831Y-82827170D01*
X202031244Y-82843291D01*
X202075043Y-82885168D01*
X202104332Y-82931782D01*
X202220733Y-83048183D01*
X202360117Y-83135763D01*
X202515494Y-83190132D01*
X202679075Y-83208563D01*
X202842655Y-83190132D01*
X202998032Y-83135763D01*
X203137416Y-83048183D01*
X203253817Y-82931782D01*
X203341397Y-82792398D01*
X203395766Y-82637021D01*
X203414197Y-82473441D01*
X203399101Y-82339460D01*
X203395766Y-82309860D01*
X203341397Y-82154483D01*
X203253817Y-82015099D01*
X203137416Y-81898698D01*
X202998032Y-81811118D01*
X202842655Y-81756749D01*
X202679075Y-81738318D01*
X202515494Y-81756749D01*
X202360117Y-81811118D01*
X202220733Y-81898698D01*
X202104332Y-82015099D01*
X202016752Y-82154483D01*
X201962383Y-82309860D01*
X201959665Y-82333988D01*
X201938373Y-82390720D01*
X201892739Y-82430588D01*
X201833661Y-82444072D01*
X201775249Y-82427950D01*
X201731451Y-82386074D01*
X201702162Y-82339460D01*
X201585761Y-82223059D01*
X201446377Y-82135479D01*
X201291000Y-82081110D01*
X201127420Y-82062679D01*
X200963840Y-82081110D01*
X200911145Y-82099549D01*
X200856308Y-82105727D01*
X200804221Y-82087501D01*
X200659848Y-81996786D01*
X200504471Y-81942417D01*
X200340891Y-81923986D01*
X200177312Y-81942417D01*
X200089925Y-81972995D01*
X200021378Y-81976844D01*
X199961290Y-81943634D01*
X199850627Y-81832971D01*
X199711243Y-81745391D01*
X199555866Y-81691022D01*
X199392286Y-81672591D01*
X199228708Y-81691022D01*
X199062639Y-81749132D01*
X198994092Y-81752981D01*
X198934004Y-81719771D01*
X198830099Y-81615866D01*
X198690715Y-81528286D01*
X198535338Y-81473917D01*
X198371758Y-81455486D01*
X198208177Y-81473917D01*
X198052800Y-81528286D01*
X197954198Y-81590242D01*
X197902110Y-81608468D01*
X197847272Y-81602289D01*
X197800546Y-81572929D01*
X197127196Y-80899579D01*
X197116500Y-80887383D01*
X197110415Y-80879453D01*
X197098750Y-80864250D01*
X197055267Y-80830885D01*
X196980933Y-80773847D01*
X196843734Y-80717017D01*
X196826604Y-80714761D01*
X196696500Y-80697632D01*
X196671019Y-80700987D01*
X196667589Y-80701439D01*
X196651406Y-80702500D01*
X193962233Y-80702500D01*
X193903216Y-80687555D01*
X193858424Y-80646322D01*
X193838657Y-80588740D01*
X193848677Y-80528690D01*
X193886071Y-80480647D01*
X193947093Y-80433151D01*
X193979744Y-80407738D01*
X194148164Y-80224785D01*
X194284173Y-80016607D01*
X194318571Y-79938186D01*
X194345661Y-79899119D01*
X194385464Y-79873115D01*
X194432126Y-79864000D01*
X201564906Y-79864000D01*
X201581089Y-79865060D01*
X201610000Y-79868867D01*
X201757234Y-79849483D01*
X201894433Y-79792653D01*
X201982668Y-79724949D01*
X201982668Y-79724948D01*
X201982676Y-79724942D01*
X201986653Y-79721891D01*
X201986642Y-79721900D01*
X202005605Y-79707349D01*
X202005606Y-79707347D01*
X202012250Y-79702250D01*
X202030003Y-79679112D01*
X202040690Y-79666925D01*
X203134857Y-78572758D01*
X203194943Y-78539550D01*
X203263490Y-78543399D01*
X203319482Y-78583127D01*
X203345756Y-78646556D01*
X203353308Y-78713579D01*
X203407677Y-78868957D01*
X203495257Y-79008341D01*
X203611658Y-79124742D01*
X203751042Y-79212322D01*
X203906419Y-79266691D01*
X204069999Y-79285122D01*
X204069999Y-79285121D01*
X204070000Y-79285122D01*
X204164270Y-79274500D01*
X204231955Y-79286000D01*
X204283148Y-79331748D01*
X204375259Y-79478343D01*
X204491658Y-79594742D01*
X204631042Y-79682322D01*
X204786419Y-79736691D01*
X204950000Y-79755122D01*
X205113580Y-79736691D01*
X205268957Y-79682322D01*
X205408341Y-79594742D01*
X205524742Y-79478341D01*
X205612322Y-79338957D01*
X205666691Y-79183580D01*
X205685122Y-79020000D01*
X205666691Y-78856420D01*
X205650839Y-78811119D01*
X205612322Y-78701042D01*
X205524742Y-78561658D01*
X205408341Y-78445257D01*
X205268957Y-78357677D01*
X205113580Y-78303308D01*
X204949999Y-78284877D01*
X204855727Y-78295499D01*
X204788042Y-78283999D01*
X204736850Y-78238250D01*
X204644742Y-78091658D01*
X204528341Y-77975257D01*
X204388957Y-77887677D01*
X204233579Y-77833308D01*
X204166556Y-77825756D01*
X204103127Y-77799482D01*
X204063399Y-77743490D01*
X204059550Y-77674943D01*
X204092758Y-77614857D01*
X208489751Y-73217864D01*
X208523628Y-73193828D01*
X208563546Y-73182328D01*
X208613580Y-73176691D01*
X208768957Y-73122322D01*
X208908341Y-73034742D01*
X209024742Y-72918341D01*
X209112322Y-72778957D01*
X209166691Y-72623580D01*
X209185122Y-72460000D01*
X209181886Y-72431284D01*
X209166691Y-72296419D01*
X209112322Y-72141042D01*
X209024742Y-72001658D01*
X208908341Y-71885257D01*
X208768957Y-71797677D01*
X208613580Y-71743308D01*
X208450000Y-71724877D01*
X208286419Y-71743308D01*
X208131042Y-71797677D01*
X207991658Y-71885257D01*
X207875257Y-72001658D01*
X207787677Y-72141042D01*
X207733308Y-72296419D01*
X207727671Y-72346452D01*
X207716171Y-72386370D01*
X207692132Y-72420249D01*
X204047490Y-76064891D01*
X204000763Y-76094252D01*
X203945925Y-76100430D01*
X203893836Y-76082203D01*
X203854817Y-76043184D01*
X203784742Y-75931659D01*
X203784740Y-75931657D01*
X203784739Y-75931655D01*
X203668341Y-75815257D01*
X203528957Y-75727677D01*
X203373580Y-75673308D01*
X203209999Y-75654877D01*
X203046419Y-75673308D01*
X202891042Y-75727677D01*
X202751658Y-75815257D01*
X202635257Y-75931658D01*
X202547677Y-76071042D01*
X202493308Y-76226419D01*
X202474877Y-76389999D01*
X202476472Y-76404156D01*
X202470292Y-76458993D01*
X202440932Y-76505717D01*
X202394207Y-76535077D01*
X202301042Y-76567678D01*
X202161658Y-76655257D01*
X202045257Y-76771658D01*
X201957677Y-76911042D01*
X201903308Y-77066419D01*
X201884877Y-77230000D01*
X201903308Y-77393580D01*
X201957677Y-77548957D01*
X202045255Y-77688338D01*
X202045257Y-77688340D01*
X202045258Y-77688341D01*
X202146969Y-77790052D01*
X202179062Y-77845638D01*
X202179062Y-77909825D01*
X202146968Y-77965413D01*
X201412702Y-78699681D01*
X201372474Y-78726561D01*
X201325021Y-78736000D01*
X194432126Y-78736000D01*
X194385464Y-78726885D01*
X194345661Y-78700881D01*
X194318571Y-78661813D01*
X194284173Y-78583393D01*
X194148164Y-78375215D01*
X193979744Y-78192262D01*
X193957612Y-78175036D01*
X193783514Y-78039529D01*
X193783510Y-78039526D01*
X193783509Y-78039526D01*
X193564810Y-77921172D01*
X193564806Y-77921170D01*
X193564805Y-77921170D01*
X193329615Y-77840429D01*
X193084335Y-77799500D01*
X192835665Y-77799500D01*
X192590384Y-77840429D01*
X192355194Y-77921170D01*
X192136485Y-78039529D01*
X191940259Y-78192259D01*
X191940256Y-78192261D01*
X191940256Y-78192262D01*
X191771836Y-78375215D01*
X191726499Y-78444607D01*
X191635825Y-78583395D01*
X191568887Y-78736000D01*
X191535937Y-78811119D01*
X191489800Y-78993308D01*
X191474891Y-79052183D01*
X191454356Y-79300000D01*
X191474891Y-79547816D01*
X191474891Y-79547819D01*
X191474892Y-79547821D01*
X191535937Y-79788881D01*
X191580960Y-79891523D01*
X191635825Y-80016604D01*
X191635827Y-80016607D01*
X191771836Y-80224785D01*
X191940256Y-80407738D01*
X191940259Y-80407740D01*
X192033929Y-80480647D01*
X192071323Y-80528690D01*
X192081343Y-80588740D01*
X192061576Y-80646322D01*
X192016784Y-80687555D01*
X191957767Y-80702500D01*
X184900798Y-80702500D01*
X184851212Y-80692154D01*
X184809900Y-80662842D01*
X184783757Y-80619455D01*
X184742322Y-80501042D01*
X184654742Y-80361658D01*
X184538341Y-80245257D01*
X184398957Y-80157677D01*
X184243580Y-80103308D01*
X184080000Y-80084877D01*
X183916419Y-80103308D01*
X183761042Y-80157677D01*
X183621658Y-80245257D01*
X183505259Y-80361656D01*
X183441166Y-80463661D01*
X183389974Y-80509409D01*
X183322289Y-80520909D01*
X183180000Y-80504877D01*
X183016419Y-80523308D01*
X182861042Y-80577677D01*
X182721658Y-80665257D01*
X182605257Y-80781658D01*
X182517677Y-80921042D01*
X182463308Y-81076419D01*
X182444877Y-81240000D01*
X179144591Y-81240000D01*
X177230802Y-79326211D01*
X177217906Y-79310113D01*
X177166775Y-79262098D01*
X177163978Y-79259387D01*
X177144470Y-79239879D01*
X177141290Y-79237412D01*
X177132424Y-79229839D01*
X177100582Y-79199938D01*
X177083024Y-79190285D01*
X177066764Y-79179604D01*
X177050936Y-79167327D01*
X177010851Y-79149980D01*
X177000361Y-79144841D01*
X176962091Y-79123802D01*
X176942691Y-79118821D01*
X176924284Y-79112519D01*
X176905897Y-79104562D01*
X176862758Y-79097729D01*
X176851324Y-79095361D01*
X176809019Y-79084500D01*
X176788984Y-79084500D01*
X176769586Y-79082973D01*
X176762162Y-79081797D01*
X176749805Y-79079840D01*
X176749804Y-79079840D01*
X176716751Y-79082964D01*
X176706325Y-79083950D01*
X176694656Y-79084500D01*
X175753283Y-79084500D01*
X175687312Y-79065494D01*
X175658957Y-79047677D01*
X175503580Y-78993308D01*
X175340000Y-78974877D01*
X175176419Y-78993308D01*
X175021042Y-79047677D01*
X174881658Y-79135257D01*
X174765257Y-79251658D01*
X174677677Y-79391042D01*
X174623308Y-79546419D01*
X174604877Y-79710000D01*
X164726750Y-79710000D01*
X164687815Y-79547821D01*
X164683084Y-79528116D01*
X164651502Y-79451871D01*
X164589442Y-79302044D01*
X164461587Y-79093404D01*
X164302667Y-78907333D01*
X164116596Y-78748413D01*
X163907956Y-78620558D01*
X163792561Y-78572760D01*
X163681883Y-78526915D01*
X163443946Y-78469792D01*
X163200000Y-78450593D01*
X162956053Y-78469792D01*
X162718116Y-78526915D01*
X162492042Y-78620559D01*
X162283405Y-78748412D01*
X162097333Y-78907333D01*
X161938412Y-79093405D01*
X161810559Y-79302042D01*
X161716915Y-79528116D01*
X161659792Y-79766053D01*
X161640593Y-80009999D01*
X148520500Y-80009999D01*
X148520500Y-75065465D01*
X149668087Y-75065465D01*
X149671895Y-75068718D01*
X149889982Y-75202361D01*
X150126294Y-75300246D01*
X150375006Y-75359956D01*
X150630000Y-75380024D01*
X150884993Y-75359956D01*
X151133705Y-75300246D01*
X151370012Y-75202363D01*
X151588108Y-75068715D01*
X151591911Y-75065465D01*
X154748087Y-75065465D01*
X154751895Y-75068718D01*
X154969982Y-75202361D01*
X155206294Y-75300246D01*
X155455006Y-75359956D01*
X155710000Y-75380024D01*
X155964993Y-75359956D01*
X156213705Y-75300246D01*
X156450012Y-75202363D01*
X156649692Y-75080000D01*
X182504877Y-75080000D01*
X182523308Y-75243580D01*
X182577677Y-75398957D01*
X182665257Y-75538341D01*
X182781658Y-75654742D01*
X182921042Y-75742322D01*
X183076419Y-75796691D01*
X183240000Y-75815122D01*
X183403580Y-75796691D01*
X183558957Y-75742322D01*
X183698341Y-75654742D01*
X183814742Y-75538341D01*
X183902322Y-75398957D01*
X183956691Y-75243580D01*
X183975122Y-75080000D01*
X183956691Y-74916420D01*
X183941471Y-74872925D01*
X183902322Y-74761042D01*
X183823006Y-74634810D01*
X183804000Y-74568839D01*
X183804000Y-72310000D01*
X198854877Y-72310000D01*
X198873308Y-72473580D01*
X198927677Y-72628957D01*
X199015257Y-72768341D01*
X199131658Y-72884742D01*
X199271042Y-72972322D01*
X199426419Y-73026691D01*
X199590000Y-73045122D01*
X199753580Y-73026691D01*
X199908957Y-72972322D01*
X200039974Y-72889999D01*
X202974340Y-72889999D01*
X202994936Y-73125407D01*
X203019711Y-73217867D01*
X203056097Y-73353663D01*
X203155965Y-73567830D01*
X203291505Y-73761401D01*
X203458599Y-73928495D01*
X203652170Y-74064035D01*
X203866337Y-74163903D01*
X204094592Y-74225063D01*
X204330000Y-74245659D01*
X204565408Y-74225063D01*
X204793663Y-74163903D01*
X205007830Y-74064035D01*
X205201401Y-73928495D01*
X205368495Y-73761401D01*
X205504035Y-73567830D01*
X205603903Y-73353663D01*
X205665063Y-73125408D01*
X205685659Y-72890000D01*
X205665063Y-72654592D01*
X205603903Y-72426337D01*
X205504035Y-72212171D01*
X205368495Y-72018599D01*
X205201401Y-71851505D01*
X205015839Y-71721573D01*
X204976975Y-71677257D01*
X204962964Y-71620000D01*
X204976975Y-71562743D01*
X205015839Y-71518426D01*
X205201401Y-71388495D01*
X205368495Y-71221401D01*
X205504035Y-71027830D01*
X205603903Y-70813663D01*
X205665063Y-70585408D01*
X205685659Y-70350000D01*
X205665063Y-70114592D01*
X205603903Y-69886337D01*
X205504035Y-69672171D01*
X205368495Y-69478599D01*
X205201401Y-69311505D01*
X205015839Y-69181573D01*
X204976975Y-69137257D01*
X204962964Y-69080000D01*
X204976975Y-69022743D01*
X205015839Y-68978426D01*
X205201401Y-68848495D01*
X205368495Y-68681401D01*
X205504035Y-68487830D01*
X205603903Y-68273663D01*
X205665063Y-68045408D01*
X205685659Y-67810000D01*
X205665063Y-67574592D01*
X205603903Y-67346337D01*
X205504035Y-67132171D01*
X205368495Y-66938599D01*
X205201401Y-66771505D01*
X205015839Y-66641573D01*
X204976975Y-66597257D01*
X204962964Y-66540000D01*
X204976975Y-66482743D01*
X205015839Y-66438426D01*
X205201401Y-66308495D01*
X205368495Y-66141401D01*
X205504035Y-65947830D01*
X205603903Y-65733663D01*
X205665063Y-65505408D01*
X205685659Y-65270000D01*
X205665063Y-65034592D01*
X205603903Y-64806337D01*
X205504035Y-64592171D01*
X205368495Y-64398599D01*
X205201401Y-64231505D01*
X205015839Y-64101573D01*
X204976974Y-64057255D01*
X204962964Y-63999999D01*
X204976975Y-63942742D01*
X205015837Y-63898428D01*
X205201401Y-63768495D01*
X205368495Y-63601401D01*
X205504035Y-63407830D01*
X205603903Y-63193663D01*
X205665063Y-62965408D01*
X205685659Y-62730000D01*
X205665063Y-62494592D01*
X205603903Y-62266337D01*
X205504035Y-62052171D01*
X205368495Y-61858599D01*
X205246180Y-61736284D01*
X205214885Y-61683539D01*
X205212696Y-61622246D01*
X205240149Y-61567401D01*
X205290528Y-61532422D01*
X205422089Y-61483352D01*
X205537188Y-61397188D01*
X205623352Y-61282089D01*
X205673597Y-61147375D01*
X205680000Y-61087824D01*
X205680000Y-60440000D01*
X202980000Y-60440000D01*
X202980000Y-61087824D01*
X202986402Y-61147375D01*
X203036647Y-61282089D01*
X203122811Y-61397188D01*
X203237911Y-61483352D01*
X203369471Y-61532422D01*
X203419850Y-61567401D01*
X203447303Y-61622246D01*
X203445114Y-61683539D01*
X203413819Y-61736285D01*
X203291503Y-61858601D01*
X203155965Y-62052170D01*
X203056097Y-62266336D01*
X202994936Y-62494592D01*
X202974340Y-62729999D01*
X202994936Y-62965407D01*
X203039709Y-63132502D01*
X203056097Y-63193663D01*
X203155965Y-63407830D01*
X203291505Y-63601401D01*
X203458599Y-63768495D01*
X203644160Y-63898426D01*
X203683024Y-63942743D01*
X203697035Y-64000000D01*
X203683024Y-64057257D01*
X203644159Y-64101575D01*
X203458595Y-64231508D01*
X203291505Y-64398598D01*
X203155965Y-64592170D01*
X203056097Y-64806336D01*
X202994936Y-65034592D01*
X202974340Y-65270000D01*
X202994936Y-65505407D01*
X203022340Y-65607678D01*
X203056097Y-65733663D01*
X203155965Y-65947830D01*
X203291505Y-66141401D01*
X203458599Y-66308495D01*
X203644160Y-66438426D01*
X203683024Y-66482743D01*
X203697035Y-66540000D01*
X203683024Y-66597257D01*
X203644159Y-66641575D01*
X203458595Y-66771508D01*
X203291505Y-66938598D01*
X203155965Y-67132170D01*
X203056097Y-67346336D01*
X202994936Y-67574592D01*
X202974340Y-67809999D01*
X202994936Y-68045407D01*
X203027328Y-68166294D01*
X203056097Y-68273663D01*
X203155965Y-68487830D01*
X203291505Y-68681401D01*
X203458599Y-68848495D01*
X203644160Y-68978426D01*
X203683024Y-69022743D01*
X203697035Y-69080000D01*
X203683024Y-69137257D01*
X203644159Y-69181575D01*
X203458595Y-69311508D01*
X203291505Y-69478598D01*
X203155965Y-69672170D01*
X203056097Y-69886336D01*
X202994936Y-70114592D01*
X202974340Y-70350000D01*
X202994936Y-70585407D01*
X203016194Y-70664742D01*
X203056097Y-70813663D01*
X203155965Y-71027830D01*
X203291505Y-71221401D01*
X203458599Y-71388495D01*
X203644160Y-71518426D01*
X203683024Y-71562743D01*
X203697035Y-71620000D01*
X203683024Y-71677257D01*
X203644159Y-71721575D01*
X203458595Y-71851508D01*
X203291505Y-72018598D01*
X203155965Y-72212170D01*
X203056097Y-72426336D01*
X202994936Y-72654592D01*
X202974340Y-72889999D01*
X200039974Y-72889999D01*
X200048341Y-72884742D01*
X200164742Y-72768341D01*
X200252322Y-72628957D01*
X200306691Y-72473580D01*
X200325122Y-72310000D01*
X200306691Y-72146420D01*
X200304809Y-72141043D01*
X200252322Y-71991042D01*
X200164742Y-71851658D01*
X200048341Y-71735257D01*
X199908957Y-71647677D01*
X199753580Y-71593308D01*
X199590000Y-71574877D01*
X199426419Y-71593308D01*
X199271042Y-71647677D01*
X199131658Y-71735257D01*
X199015257Y-71851658D01*
X198927677Y-71991042D01*
X198873308Y-72146419D01*
X198854877Y-72310000D01*
X183804000Y-72310000D01*
X183804000Y-70090000D01*
X196954877Y-70090000D01*
X196973308Y-70253580D01*
X197027677Y-70408957D01*
X197115257Y-70548341D01*
X197231658Y-70664742D01*
X197371042Y-70752322D01*
X197526419Y-70806691D01*
X197690000Y-70825122D01*
X197853580Y-70806691D01*
X198008957Y-70752322D01*
X198148341Y-70664742D01*
X198264742Y-70548341D01*
X198352322Y-70408957D01*
X198406691Y-70253580D01*
X198425122Y-70090000D01*
X198406691Y-69926420D01*
X198392665Y-69886337D01*
X198352322Y-69771042D01*
X198264742Y-69631658D01*
X198148341Y-69515257D01*
X198008957Y-69427677D01*
X197853580Y-69373308D01*
X197690000Y-69354877D01*
X197526419Y-69373308D01*
X197371042Y-69427677D01*
X197231658Y-69515257D01*
X197115257Y-69631658D01*
X197027677Y-69771042D01*
X196973308Y-69926419D01*
X196954877Y-70090000D01*
X183804000Y-70090000D01*
X183804000Y-68170000D01*
X196864877Y-68170000D01*
X196883308Y-68333580D01*
X196937677Y-68488957D01*
X197025257Y-68628341D01*
X197141658Y-68744742D01*
X197281042Y-68832322D01*
X197436419Y-68886691D01*
X197600000Y-68905122D01*
X197763580Y-68886691D01*
X197918957Y-68832322D01*
X198058341Y-68744742D01*
X198174742Y-68628341D01*
X198262322Y-68488957D01*
X198316691Y-68333580D01*
X198335122Y-68170000D01*
X198316691Y-68006420D01*
X198262322Y-67851043D01*
X198262322Y-67851042D01*
X198174742Y-67711658D01*
X198058341Y-67595257D01*
X197918957Y-67507677D01*
X197763580Y-67453308D01*
X197599999Y-67434877D01*
X197436419Y-67453308D01*
X197281042Y-67507677D01*
X197141658Y-67595257D01*
X197025257Y-67711658D01*
X196937677Y-67851042D01*
X196883308Y-68006419D01*
X196864877Y-68170000D01*
X183804000Y-68170000D01*
X183804000Y-66512660D01*
X183823006Y-66446689D01*
X183902322Y-66320456D01*
X183919977Y-66270000D01*
X196864877Y-66270000D01*
X196883308Y-66433580D01*
X196937677Y-66588957D01*
X197025257Y-66728341D01*
X197141658Y-66844742D01*
X197281042Y-66932322D01*
X197436419Y-66986691D01*
X197600000Y-67005122D01*
X197763580Y-66986691D01*
X197918957Y-66932322D01*
X198058341Y-66844742D01*
X198174742Y-66728341D01*
X198262322Y-66588957D01*
X198316691Y-66433580D01*
X198322728Y-66380000D01*
X200174877Y-66380000D01*
X200193308Y-66543580D01*
X200247677Y-66698957D01*
X200335257Y-66838341D01*
X200451658Y-66954742D01*
X200591042Y-67042322D01*
X200746419Y-67096691D01*
X200910000Y-67115122D01*
X201073580Y-67096691D01*
X201228957Y-67042322D01*
X201368341Y-66954742D01*
X201484742Y-66838341D01*
X201572322Y-66698957D01*
X201626691Y-66543580D01*
X201645122Y-66380000D01*
X201626691Y-66216420D01*
X201588200Y-66106420D01*
X201572322Y-66061042D01*
X201484742Y-65921658D01*
X201368341Y-65805257D01*
X201228957Y-65717677D01*
X201073580Y-65663308D01*
X200910000Y-65644877D01*
X200746419Y-65663308D01*
X200591042Y-65717677D01*
X200451658Y-65805257D01*
X200335257Y-65921658D01*
X200247677Y-66061042D01*
X200193308Y-66216419D01*
X200174877Y-66380000D01*
X198322728Y-66380000D01*
X198335122Y-66270000D01*
X198316691Y-66106420D01*
X198300812Y-66061042D01*
X198262322Y-65951042D01*
X198174742Y-65811658D01*
X198058341Y-65695257D01*
X197918957Y-65607677D01*
X197763580Y-65553308D01*
X197600000Y-65534877D01*
X197436419Y-65553308D01*
X197281042Y-65607677D01*
X197141658Y-65695257D01*
X197025257Y-65811658D01*
X196937677Y-65951042D01*
X196883308Y-66106419D01*
X196864877Y-66270000D01*
X183919977Y-66270000D01*
X183956691Y-66165079D01*
X183975122Y-66001498D01*
X183956691Y-65837918D01*
X183902322Y-65682541D01*
X183814742Y-65543157D01*
X183698341Y-65426756D01*
X183558957Y-65339176D01*
X183403580Y-65284807D01*
X183240000Y-65266376D01*
X183076419Y-65284807D01*
X182921042Y-65339176D01*
X182781658Y-65426756D01*
X182665257Y-65543157D01*
X182577677Y-65682541D01*
X182523308Y-65837918D01*
X182504877Y-66001498D01*
X182523308Y-66165079D01*
X182577677Y-66320456D01*
X182656994Y-66446689D01*
X182676000Y-66512660D01*
X182676000Y-74568839D01*
X182656994Y-74634810D01*
X182577677Y-74761042D01*
X182523308Y-74916419D01*
X182504877Y-75080000D01*
X156649692Y-75080000D01*
X156668108Y-75068715D01*
X156671911Y-75065465D01*
X156671912Y-75065464D01*
X155710000Y-74103553D01*
X154748087Y-75065464D01*
X154748087Y-75065465D01*
X151591911Y-75065465D01*
X151591912Y-75065464D01*
X150630000Y-74103553D01*
X149668087Y-75065464D01*
X149668087Y-75065465D01*
X148520500Y-75065465D01*
X148520500Y-73750000D01*
X148999975Y-73750000D01*
X149020043Y-74004993D01*
X149079753Y-74253705D01*
X149177636Y-74490012D01*
X149311284Y-74708108D01*
X149314533Y-74711911D01*
X149314535Y-74711911D01*
X150276447Y-73750001D01*
X150983553Y-73750001D01*
X151945464Y-74711912D01*
X151945465Y-74711911D01*
X151948715Y-74708108D01*
X152082363Y-74490012D01*
X152180246Y-74253705D01*
X152239956Y-74004993D01*
X152260024Y-73750000D01*
X154079975Y-73750000D01*
X154100043Y-74004993D01*
X154159753Y-74253705D01*
X154257636Y-74490012D01*
X154391284Y-74708108D01*
X154394533Y-74711911D01*
X154394535Y-74711911D01*
X155356447Y-73750001D01*
X156063553Y-73750001D01*
X157025464Y-74711912D01*
X157025465Y-74711911D01*
X157028715Y-74708108D01*
X157162363Y-74490012D01*
X157260246Y-74253705D01*
X157319956Y-74004993D01*
X157340024Y-73750000D01*
X157319956Y-73495006D01*
X157260246Y-73246294D01*
X157162361Y-73009982D01*
X157028718Y-72791895D01*
X157025465Y-72788087D01*
X157025464Y-72788087D01*
X156063553Y-73750000D01*
X156063553Y-73750001D01*
X155356447Y-73750001D01*
X155356447Y-73749999D01*
X154394534Y-72788087D01*
X154394533Y-72788087D01*
X154391281Y-72791895D01*
X154257638Y-73009982D01*
X154159753Y-73246294D01*
X154100043Y-73495006D01*
X154079975Y-73750000D01*
X152260024Y-73750000D01*
X152239956Y-73495006D01*
X152180246Y-73246294D01*
X152082361Y-73009982D01*
X151948718Y-72791895D01*
X151945465Y-72788087D01*
X151945464Y-72788087D01*
X150983553Y-73750000D01*
X150983553Y-73750001D01*
X150276447Y-73750001D01*
X150276447Y-73750000D01*
X149314534Y-72788087D01*
X149314533Y-72788087D01*
X149311281Y-72791895D01*
X149177638Y-73009982D01*
X149079753Y-73246294D01*
X149020043Y-73495006D01*
X148999975Y-73750000D01*
X148520500Y-73750000D01*
X148520500Y-72434534D01*
X149668087Y-72434534D01*
X150630000Y-73396447D01*
X150630001Y-73396447D01*
X151591911Y-72434535D01*
X151591911Y-72434533D01*
X151588108Y-72431284D01*
X151370012Y-72297636D01*
X151133705Y-72199753D01*
X150884993Y-72140043D01*
X150630000Y-72119975D01*
X150375006Y-72140043D01*
X150126294Y-72199753D01*
X149889982Y-72297638D01*
X149671895Y-72431281D01*
X149668087Y-72434533D01*
X149668087Y-72434534D01*
X148520500Y-72434534D01*
X148520500Y-71210000D01*
X151639783Y-71210000D01*
X151658623Y-71449380D01*
X151714676Y-71682863D01*
X151762235Y-71797678D01*
X151806567Y-71904704D01*
X151932028Y-72109439D01*
X152087973Y-72292027D01*
X152270561Y-72447972D01*
X152475296Y-72573433D01*
X152609342Y-72628957D01*
X152697136Y-72665323D01*
X152770898Y-72683031D01*
X152930621Y-72721377D01*
X153170000Y-72740217D01*
X153409379Y-72721377D01*
X153642863Y-72665323D01*
X153864704Y-72573433D01*
X154069439Y-72447972D01*
X154085173Y-72434534D01*
X154748087Y-72434534D01*
X155710000Y-73396447D01*
X155710001Y-73396447D01*
X156671911Y-72434535D01*
X156671911Y-72434533D01*
X156668108Y-72431284D01*
X156450012Y-72297636D01*
X156213705Y-72199753D01*
X155964993Y-72140043D01*
X155710000Y-72119975D01*
X155455006Y-72140043D01*
X155206294Y-72199753D01*
X154969982Y-72297638D01*
X154751895Y-72431281D01*
X154748087Y-72434533D01*
X154748087Y-72434534D01*
X154085173Y-72434534D01*
X154252027Y-72292027D01*
X154407972Y-72109439D01*
X154533433Y-71904704D01*
X154625323Y-71682863D01*
X154681377Y-71449379D01*
X154700217Y-71210000D01*
X154681377Y-70970621D01*
X154671625Y-70930000D01*
X163984877Y-70930000D01*
X164003308Y-71093580D01*
X164057677Y-71248957D01*
X164145257Y-71388341D01*
X164261658Y-71504742D01*
X164401042Y-71592322D01*
X164556419Y-71646691D01*
X164720000Y-71665122D01*
X164883580Y-71646691D01*
X165038957Y-71592322D01*
X165178341Y-71504742D01*
X165294742Y-71388341D01*
X165382322Y-71248957D01*
X165436691Y-71093580D01*
X165455122Y-70930000D01*
X165442014Y-70813662D01*
X165436691Y-70766419D01*
X165382322Y-70611042D01*
X165294742Y-70471658D01*
X165178341Y-70355257D01*
X165038957Y-70267677D01*
X164883580Y-70213308D01*
X164720000Y-70194877D01*
X164556419Y-70213308D01*
X164401042Y-70267677D01*
X164261658Y-70355257D01*
X164145257Y-70471658D01*
X164057677Y-70611042D01*
X164003308Y-70766419D01*
X163984877Y-70930000D01*
X154671625Y-70930000D01*
X154625323Y-70737137D01*
X154533433Y-70515296D01*
X154407972Y-70310561D01*
X154252027Y-70127973D01*
X154085172Y-69985465D01*
X154748087Y-69985465D01*
X154751895Y-69988718D01*
X154969982Y-70122361D01*
X155206294Y-70220246D01*
X155455006Y-70279956D01*
X155710000Y-70300024D01*
X155964993Y-70279956D01*
X156213705Y-70220246D01*
X156450012Y-70122363D01*
X156668108Y-69988715D01*
X156671911Y-69985465D01*
X156671912Y-69985464D01*
X155710000Y-69023553D01*
X154748087Y-69985464D01*
X154748087Y-69985465D01*
X154085172Y-69985465D01*
X154069439Y-69972028D01*
X153864704Y-69846567D01*
X153799727Y-69819652D01*
X153642863Y-69754676D01*
X153409380Y-69698623D01*
X153170000Y-69679783D01*
X152930619Y-69698623D01*
X152697136Y-69754676D01*
X152475296Y-69846567D01*
X152270560Y-69972028D01*
X152087973Y-70127973D01*
X151932028Y-70310560D01*
X151806567Y-70515296D01*
X151714676Y-70737136D01*
X151658623Y-70970619D01*
X151639783Y-71210000D01*
X148520500Y-71210000D01*
X148520500Y-69985465D01*
X149668087Y-69985465D01*
X149671895Y-69988718D01*
X149889982Y-70122361D01*
X150126294Y-70220246D01*
X150375006Y-70279956D01*
X150630000Y-70300024D01*
X150884993Y-70279956D01*
X151133705Y-70220246D01*
X151370012Y-70122363D01*
X151588108Y-69988715D01*
X151591911Y-69985465D01*
X151591912Y-69985464D01*
X150630000Y-69023553D01*
X149668087Y-69985464D01*
X149668087Y-69985465D01*
X148520500Y-69985465D01*
X148520500Y-68670000D01*
X148999975Y-68670000D01*
X149020043Y-68924993D01*
X149079753Y-69173705D01*
X149177636Y-69410012D01*
X149311284Y-69628108D01*
X149314533Y-69631911D01*
X149314535Y-69631911D01*
X150276447Y-68670001D01*
X150983553Y-68670001D01*
X151945464Y-69631912D01*
X151945465Y-69631911D01*
X151948715Y-69628108D01*
X152082363Y-69410012D01*
X152180246Y-69173705D01*
X152239956Y-68924993D01*
X152260024Y-68670000D01*
X154079975Y-68670000D01*
X154100043Y-68924993D01*
X154159753Y-69173705D01*
X154257636Y-69410012D01*
X154391284Y-69628108D01*
X154394533Y-69631911D01*
X154394535Y-69631911D01*
X155356447Y-68670001D01*
X156063553Y-68670001D01*
X157025464Y-69631912D01*
X157025465Y-69631911D01*
X157028715Y-69628108D01*
X157162363Y-69410012D01*
X157260246Y-69173705D01*
X157319956Y-68924993D01*
X157340024Y-68670000D01*
X157319956Y-68415006D01*
X157260246Y-68166294D01*
X157162361Y-67929982D01*
X157028718Y-67711895D01*
X157025465Y-67708087D01*
X157025464Y-67708087D01*
X156063553Y-68670000D01*
X156063553Y-68670001D01*
X155356447Y-68670001D01*
X155356447Y-68669999D01*
X154394534Y-67708087D01*
X154394533Y-67708087D01*
X154391281Y-67711895D01*
X154257638Y-67929982D01*
X154159753Y-68166294D01*
X154100043Y-68415006D01*
X154079975Y-68670000D01*
X152260024Y-68670000D01*
X152239956Y-68415006D01*
X152180246Y-68166294D01*
X152082361Y-67929982D01*
X151948718Y-67711895D01*
X151945465Y-67708087D01*
X151945464Y-67708087D01*
X150983553Y-68670000D01*
X150983553Y-68670001D01*
X150276447Y-68670001D01*
X150276447Y-68670000D01*
X149314534Y-67708087D01*
X149314533Y-67708087D01*
X149311281Y-67711895D01*
X149177638Y-67929982D01*
X149079753Y-68166294D01*
X149020043Y-68415006D01*
X148999975Y-68670000D01*
X148520500Y-68670000D01*
X148520500Y-67354534D01*
X149668087Y-67354534D01*
X150630000Y-68316447D01*
X150630001Y-68316447D01*
X151591911Y-67354535D01*
X151591911Y-67354534D01*
X154748087Y-67354534D01*
X155710000Y-68316447D01*
X155710001Y-68316447D01*
X156671911Y-67354535D01*
X156671911Y-67354533D01*
X156668108Y-67351284D01*
X156450012Y-67217636D01*
X156310866Y-67159999D01*
X164094877Y-67159999D01*
X164113308Y-67323580D01*
X164167677Y-67478957D01*
X164255257Y-67618341D01*
X164371658Y-67734742D01*
X164511042Y-67822322D01*
X164666419Y-67876691D01*
X164830000Y-67895122D01*
X164993580Y-67876691D01*
X165148957Y-67822322D01*
X165288341Y-67734742D01*
X165404742Y-67618341D01*
X165492322Y-67478957D01*
X165546691Y-67323580D01*
X165565122Y-67160000D01*
X165561986Y-67132171D01*
X165546691Y-66996419D01*
X165492322Y-66841042D01*
X165404742Y-66701658D01*
X165288341Y-66585257D01*
X165148957Y-66497677D01*
X164993580Y-66443308D01*
X164830000Y-66424877D01*
X164666419Y-66443308D01*
X164511042Y-66497677D01*
X164371658Y-66585257D01*
X164255257Y-66701658D01*
X164167677Y-66841042D01*
X164113308Y-66996419D01*
X164094877Y-67159999D01*
X156310866Y-67159999D01*
X156213705Y-67119753D01*
X155964993Y-67060043D01*
X155710000Y-67039975D01*
X155455006Y-67060043D01*
X155206294Y-67119753D01*
X154969982Y-67217638D01*
X154751895Y-67351281D01*
X154748087Y-67354533D01*
X154748087Y-67354534D01*
X151591911Y-67354534D01*
X151591911Y-67354533D01*
X151588108Y-67351284D01*
X151370012Y-67217636D01*
X151133705Y-67119753D01*
X150884993Y-67060043D01*
X150630000Y-67039975D01*
X150375006Y-67060043D01*
X150126294Y-67119753D01*
X149889982Y-67217638D01*
X149671895Y-67351281D01*
X149668087Y-67354533D01*
X149668087Y-67354534D01*
X148520500Y-67354534D01*
X148520500Y-62411932D01*
X148524997Y-62385465D01*
X148521279Y-62352459D01*
X148520500Y-62338578D01*
X148520500Y-62334211D01*
X148519678Y-62330610D01*
X148519529Y-62329957D01*
X148517199Y-62316251D01*
X148514116Y-62288876D01*
X148514115Y-62288874D01*
X148513480Y-62283237D01*
X148508828Y-62272006D01*
X148504307Y-62266337D01*
X148488113Y-62246030D01*
X148480068Y-62234691D01*
X148477748Y-62230999D01*
X148474655Y-62227906D01*
X148465395Y-62217544D01*
X148444687Y-62191577D01*
X148422788Y-62176039D01*
X146186749Y-59940000D01*
X202980000Y-59940000D01*
X204080000Y-59940000D01*
X204080000Y-58840000D01*
X204580000Y-58840000D01*
X204580000Y-59940000D01*
X205680000Y-59940000D01*
X205680000Y-59292176D01*
X205673597Y-59232624D01*
X205623352Y-59097910D01*
X205537188Y-58982811D01*
X205422089Y-58896647D01*
X205287375Y-58846402D01*
X205227824Y-58840000D01*
X204580000Y-58840000D01*
X204080000Y-58840000D01*
X203432176Y-58840000D01*
X203372624Y-58846402D01*
X203237910Y-58896647D01*
X203122811Y-58982811D01*
X203036647Y-59097910D01*
X202986402Y-59232624D01*
X202980000Y-59292176D01*
X202980000Y-59940000D01*
X146186749Y-59940000D01*
X143728430Y-57481681D01*
X143698180Y-57432318D01*
X143693638Y-57374602D01*
X143715793Y-57321115D01*
X143759816Y-57283515D01*
X143816111Y-57270000D01*
X230870288Y-57270000D01*
X230926583Y-57283515D01*
G37*
%TD.AperFunction*%
%TD*%
M02*
