%TF.GenerationSoftware,KiCad,Pcbnew,7.0.1*%
%TF.CreationDate,2023-07-16T20:54:18-07:00*%
%TF.ProjectId,flight_computer_dev_board_rfm98pw,666c6967-6874-45f6-936f-6d7075746572,rev?*%
%TF.SameCoordinates,Original*%
%TF.FileFunction,Copper,L2,Inr*%
%TF.FilePolarity,Positive*%
%FSLAX46Y46*%
G04 Gerber Fmt 4.6, Leading zero omitted, Abs format (unit mm)*
G04 Created by KiCad (PCBNEW 7.0.1) date 2023-07-16 20:54:18*
%MOMM*%
%LPD*%
G01*
G04 APERTURE LIST*
%TA.AperFunction,ComponentPad*%
%ADD10C,2.050000*%
%TD*%
%TA.AperFunction,ComponentPad*%
%ADD11C,2.250000*%
%TD*%
%TA.AperFunction,ComponentPad*%
%ADD12C,5.000000*%
%TD*%
%TA.AperFunction,ComponentPad*%
%ADD13C,2.000000*%
%TD*%
%TA.AperFunction,ComponentPad*%
%ADD14C,0.500000*%
%TD*%
%TA.AperFunction,ComponentPad*%
%ADD15O,2.416000X1.208000*%
%TD*%
%TA.AperFunction,ComponentPad*%
%ADD16R,1.700000X1.700000*%
%TD*%
%TA.AperFunction,ComponentPad*%
%ADD17O,1.700000X1.700000*%
%TD*%
%TA.AperFunction,ComponentPad*%
%ADD18C,1.397000*%
%TD*%
%TA.AperFunction,ComponentPad*%
%ADD19C,2.108200*%
%TD*%
%TA.AperFunction,ViaPad*%
%ADD20C,0.600000*%
%TD*%
%TA.AperFunction,ViaPad*%
%ADD21C,0.800000*%
%TD*%
%TA.AperFunction,ViaPad*%
%ADD22C,0.460000*%
%TD*%
%TA.AperFunction,Conductor*%
%ADD23C,0.250000*%
%TD*%
%TA.AperFunction,Conductor*%
%ADD24C,0.127000*%
%TD*%
G04 APERTURE END LIST*
D10*
%TO.N,Net-(J6-In)*%
%TO.C,J6*%
X153170000Y-71210000D03*
D11*
%TO.N,GND*%
X150630000Y-68670000D03*
X150630000Y-73750000D03*
X155710000Y-68670000D03*
X155710000Y-73750000D03*
%TD*%
D12*
%TO.N,N/C*%
%TO.C,*%
X227414400Y-138100000D03*
%TD*%
%TO.N,N/C*%
%TO.C,*%
X147381083Y-138100000D03*
%TD*%
D13*
%TO.N,/~{RESET}*%
%TO.C,TP2*%
X195510000Y-91320000D03*
%TD*%
D14*
%TO.N,GND*%
%TO.C,IC1*%
X205930000Y-83400812D03*
X204020812Y-85310000D03*
X207839188Y-85310000D03*
X205930000Y-87219188D03*
%TD*%
D13*
%TO.N,/USBBOOT*%
%TO.C,TP1*%
X192960000Y-79300000D03*
%TD*%
D15*
%TO.N,GND*%
%TO.C,J8*%
X224920000Y-86970000D03*
%TO.N,N/C*%
X224920000Y-79070000D03*
%TD*%
D16*
%TO.N,GND*%
%TO.C,J3*%
X204330000Y-60190000D03*
D17*
%TO.N,TX*%
X204330000Y-62730000D03*
%TO.N,RX*%
X204330000Y-65270000D03*
%TO.N,SCL1*%
X204330000Y-67810000D03*
%TO.N,SDA1*%
X204330000Y-70350000D03*
%TO.N,3.3V*%
X204330000Y-72890000D03*
%TD*%
D18*
%TO.N,TX+*%
%TO.C,J5*%
X166490001Y-92230000D03*
%TO.N,TX-*%
X169030001Y-90960000D03*
%TO.N,TCT*%
X166490001Y-89690000D03*
%TO.N,GND*%
X169030001Y-88420000D03*
X166490001Y-87150000D03*
%TO.N,RCT*%
X169030001Y-85880000D03*
%TO.N,Net-(C18-Pad1)*%
X166490001Y-84610000D03*
%TO.N,Net-(C19-Pad1)*%
X169030001Y-83340000D03*
%TO.N,GREENLED*%
X155250001Y-83999892D03*
%TO.N,3.3V*%
X156770000Y-81459892D03*
%TO.N,YELLOWLED*%
X156770000Y-91569999D03*
%TO.N,3.3V*%
X155250001Y-94109999D03*
D19*
%TO.N,N/C*%
X163200000Y-95560000D03*
X163200000Y-80010000D03*
%TD*%
D20*
%TO.N,GND*%
X164550000Y-61340000D03*
X164510000Y-60360000D03*
X164430000Y-59240000D03*
X163890000Y-58230000D03*
X162580000Y-58200000D03*
X161280000Y-58230000D03*
X160210000Y-58640000D03*
X153230000Y-62770000D03*
X153120000Y-63830000D03*
X152860000Y-64860000D03*
X152370000Y-65680000D03*
X152330000Y-66910000D03*
X153940000Y-66910000D03*
X153930000Y-65870000D03*
X154870000Y-65870000D03*
X155990000Y-65870000D03*
X155250000Y-62360000D03*
X155270000Y-61360000D03*
X159190000Y-60740000D03*
X151800000Y-61520000D03*
X151810000Y-60210000D03*
X151920000Y-58970000D03*
X153120000Y-58960000D03*
X154380000Y-58940000D03*
X155580000Y-58990000D03*
X156770000Y-58980000D03*
X158020000Y-58980000D03*
X159110000Y-58990000D03*
D21*
X208290000Y-76340000D03*
X196160000Y-78060000D03*
X201550000Y-106360000D03*
X189070000Y-95910000D03*
X180230000Y-96170000D03*
X168380000Y-108430000D03*
%TO.N,3.3V*%
X162670000Y-103180000D03*
X171390000Y-101650000D03*
X209540000Y-114590000D03*
X211350000Y-107920000D03*
X194910000Y-129920000D03*
X202280000Y-118210000D03*
%TO.N,GND*%
X215270000Y-86050000D03*
D22*
X216640000Y-124190000D03*
X176410000Y-110830000D03*
X184610000Y-84030000D03*
X210400000Y-91930000D03*
D21*
X218140000Y-68160000D03*
D22*
X208679998Y-97590002D03*
X200300000Y-81610000D03*
X216750000Y-116660000D03*
D21*
X213390000Y-77840000D03*
X222660000Y-96000000D03*
D22*
X189950000Y-85580000D03*
X190290000Y-113130000D03*
X198530000Y-90070000D03*
X190150000Y-104470000D03*
D21*
X220400000Y-84690000D03*
D22*
X205900000Y-77570000D03*
X204120000Y-132130000D03*
X224550000Y-101060000D03*
D21*
X211180000Y-71770000D03*
D22*
X195320000Y-84860000D03*
X198680000Y-111010000D03*
X194250000Y-93350000D03*
X202520000Y-91510000D03*
X188490000Y-83380000D03*
X190080000Y-90960000D03*
X216600000Y-107680000D03*
%TO.N,3.3V*%
X216690000Y-110680000D03*
X206340000Y-132250000D03*
X213130000Y-81120000D03*
X188360000Y-86580000D03*
X202010000Y-98770000D03*
D21*
%TO.N,VBUS*%
X221810000Y-92740000D03*
X220550000Y-80800000D03*
X222750000Y-87640000D03*
X224610000Y-132720000D03*
D22*
%TO.N,VCC_RF1*%
X182790000Y-85770000D03*
X215460000Y-109170000D03*
X204390000Y-103840000D03*
X175340000Y-79710000D03*
X190560000Y-93000000D03*
%TO.N,RX+*%
X174250000Y-86940000D03*
X185390000Y-114930000D03*
%TO.N,RX-*%
X175440000Y-83230000D03*
X185400000Y-114150000D03*
%TO.N,TX*%
X204950000Y-79020000D03*
%TO.N,RX*%
X204070000Y-78550000D03*
%TO.N,/USBBOOT*%
X208450000Y-72460000D03*
%TO.N,SDA1*%
X203210000Y-76390000D03*
X186770000Y-84000000D03*
%TO.N,SCL1*%
X187678042Y-86101958D03*
X187600000Y-81760000D03*
X202620000Y-77230000D03*
%TO.N,SDA0*%
X220093000Y-113660000D03*
X204850522Y-82754243D03*
%TO.N,SCL0*%
X204462067Y-83351099D03*
X216810000Y-115170000D03*
%TO.N,ENABLE_BURN*%
X203796738Y-83787000D03*
X216640000Y-112190000D03*
%TO.N,I2C_RESET*%
X202679075Y-82473441D03*
X216770000Y-119590000D03*
X220550000Y-119230000D03*
%TO.N,SPI1_MISO*%
X201127420Y-82797802D03*
X199590000Y-72310000D03*
%TO.N,SPI1_CS0*%
X200340891Y-82659109D03*
X197600000Y-66270000D03*
X183240000Y-66001499D03*
X183240000Y-75080000D03*
%TO.N,SPI1_SCK*%
X197600000Y-68170000D03*
X199392286Y-82407714D03*
%TO.N,SPI1_MOSI*%
X197690000Y-70090000D03*
X198371758Y-82190609D03*
%TO.N,ENAB_RF*%
X202660000Y-85010000D03*
X216670000Y-118060000D03*
%TO.N,VBUS_RESET*%
X219160000Y-121200000D03*
X202849500Y-85860738D03*
%TO.N,BURN_RELAY_A*%
X219110000Y-122540000D03*
X203550000Y-86350000D03*
%TO.N,SWCLK*%
X205044501Y-87897613D03*
%TO.N,SWDIO*%
X205760000Y-88610000D03*
%TO.N,SPI0_MISO*%
X190530000Y-101320000D03*
X196700000Y-103600000D03*
X203030000Y-132220000D03*
X204589411Y-90550000D03*
X197920000Y-117830000D03*
%TO.N,SPI0_CS0*%
X204510000Y-96070000D03*
X204517000Y-100610000D03*
X208510000Y-132220000D03*
X205337798Y-90170000D03*
X206380000Y-113450000D03*
%TO.N,SPI0_SCK*%
X190471573Y-108461573D03*
X205200000Y-132190000D03*
X198038604Y-119261396D03*
X205753603Y-91075929D03*
%TO.N,SPI0_MOSI*%
X189737000Y-107749415D03*
X206276956Y-91906956D03*
X207420000Y-132220000D03*
X198775000Y-120695000D03*
%TO.N,RF1_RST*%
X200910000Y-66380000D03*
X206570000Y-88420000D03*
%TO.N,WDT_WDI*%
X206990000Y-92600000D03*
X206990000Y-94590000D03*
%TO.N,RF1_IO4*%
X198640000Y-83210000D03*
X184080000Y-80820000D03*
X164830000Y-67160000D03*
X207168321Y-87727200D03*
%TO.N,RF1_IO0*%
X207730000Y-87140000D03*
X199794371Y-84205629D03*
X164720000Y-70930000D03*
X183180000Y-81240000D03*
%TO.N,NEOPIX*%
X208534359Y-88793124D03*
X216070000Y-97000000D03*
%TO.N,NEO_PWR*%
X215260000Y-97480000D03*
X208583633Y-89766425D03*
%TO.N,/QSPI_DATA[3]*%
X218280000Y-75430000D03*
X210049974Y-80209974D03*
%TO.N,/QSPI_SCK*%
X217420000Y-76340000D03*
X209174194Y-80114194D03*
%TO.N,/QSPI_DATA[0]*%
X206690000Y-82590000D03*
X216096396Y-76966396D03*
D21*
%TO.N,/QSPI_DATA[2]*%
X213850000Y-73670000D03*
X215330000Y-74330000D03*
D22*
%TO.N,TX+*%
X181770000Y-115640000D03*
%TO.N,TX-*%
X180820000Y-115064124D03*
%TO.N,GREENLED*%
X192900000Y-111130000D03*
X174000000Y-95010000D03*
%TO.N,YELLOWLED*%
X193120000Y-110130000D03*
X174020000Y-95970000D03*
%TO.N,Net-(JP3-B)*%
X179400000Y-102730000D03*
%TO.N,Net-(JP4-B)*%
X178390000Y-103840000D03*
%TO.N,Net-(JP5-B)*%
X177470000Y-106490000D03*
D21*
%TO.N,USB_D-*%
X218210000Y-83080000D03*
X219580000Y-81940000D03*
%TO.N,USB_D+*%
X219320000Y-83080000D03*
X220550000Y-83090000D03*
D22*
%TO.N,SPI0_CS1*%
X209677000Y-87778655D03*
X187828006Y-105790561D03*
X189538604Y-105921396D03*
%TO.N,GNDA*%
X178050000Y-112540000D03*
X176300000Y-88870000D03*
X186830000Y-116670000D03*
X188620000Y-116320000D03*
X190860000Y-121510000D03*
X189770000Y-115360000D03*
%TD*%
D23*
%TO.N,VBUS*%
X223170000Y-87220000D02*
X222750000Y-87640000D01*
X220550000Y-80800000D02*
X222140000Y-80800000D01*
X222140000Y-80800000D02*
X223170000Y-81830000D01*
X223170000Y-81830000D02*
X223170000Y-87220000D01*
D24*
%TO.N,RX+*%
X174513500Y-106213500D02*
X174513500Y-87203500D01*
X182746500Y-114446500D02*
X174513500Y-106213500D01*
X184906500Y-114446500D02*
X182746500Y-114446500D01*
X185390000Y-114930000D02*
X184906500Y-114446500D01*
X174513500Y-87203500D02*
X174250000Y-86940000D01*
%TO.N,RX-*%
X175440000Y-106020000D02*
X175410000Y-106020000D01*
X184930000Y-113680000D02*
X183100000Y-113680000D01*
X185400000Y-114150000D02*
X184930000Y-113680000D01*
X175410000Y-106020000D02*
X175410000Y-83260000D01*
X183100000Y-113680000D02*
X175440000Y-106020000D01*
X175410000Y-83260000D02*
X175440000Y-83230000D01*
%TO.N,RX*%
X202790000Y-74830000D02*
X202790000Y-66810000D01*
X204070000Y-76110000D02*
X202790000Y-74830000D01*
X204070000Y-78550000D02*
X204070000Y-76110000D01*
X202790000Y-66810000D02*
X204330000Y-65270000D01*
%TO.N,SPI1_MISO*%
X201127420Y-82797802D02*
X201127420Y-73847420D01*
X201127420Y-73847420D02*
X199590000Y-72310000D01*
%TO.N,SPI1_CS0*%
X199220000Y-81700000D02*
X199097000Y-81577000D01*
X199097000Y-81577000D02*
X199097000Y-67767000D01*
X200340891Y-82659109D02*
X199381781Y-81700000D01*
X199097000Y-67767000D02*
X197600000Y-66270000D01*
X199381781Y-81700000D02*
X199220000Y-81700000D01*
%TO.N,SPI1_SCK*%
X199392286Y-82280652D02*
X199351634Y-82240000D01*
X198770000Y-69340000D02*
X197600000Y-68170000D01*
X198770000Y-81900000D02*
X198770000Y-69340000D01*
X199392286Y-82407714D02*
X199392286Y-82280652D01*
X199110000Y-82240000D02*
X198770000Y-81900000D01*
X199351634Y-82240000D02*
X199110000Y-82240000D01*
%TO.N,SPI1_MOSI*%
X198371758Y-82190609D02*
X198379391Y-82190609D01*
X198400000Y-82170000D02*
X198400000Y-70800000D01*
X198400000Y-70800000D02*
X197690000Y-70090000D01*
X198379391Y-82190609D02*
X198400000Y-82170000D01*
%TO.N,SPI0_MISO*%
X197920000Y-117830000D02*
X197920000Y-104820000D01*
X201300000Y-90550000D02*
X190530000Y-101320000D01*
X204589411Y-90550000D02*
X201300000Y-90550000D01*
X197920000Y-104820000D02*
X196700000Y-103600000D01*
%TO.N,SPI0_CS0*%
X204517000Y-100610000D02*
X204517000Y-96077000D01*
X204517000Y-96077000D02*
X204510000Y-96070000D01*
%TO.N,SPI0_SCK*%
X191860000Y-109850000D02*
X190471573Y-108461573D01*
X191860000Y-113082792D02*
X191860000Y-109850000D01*
X206803500Y-92077620D02*
X206803500Y-91183500D01*
X205893032Y-90936500D02*
X205753603Y-91075929D01*
X206803500Y-91183500D02*
X206556500Y-90936500D01*
X206556500Y-90936500D02*
X205893032Y-90936500D01*
X190471573Y-108409547D02*
X206803500Y-92077620D01*
X198038604Y-119261396D02*
X191860000Y-113082792D01*
X190471573Y-108461573D02*
X190471573Y-108409547D01*
%TO.N,SPI0_MOSI*%
X206276956Y-91906956D02*
X205939429Y-91569429D01*
X198775000Y-120695000D02*
X189737000Y-111657000D01*
X189737000Y-111657000D02*
X189737000Y-107749415D01*
X204999451Y-91569429D02*
X189737000Y-106831880D01*
X205939429Y-91569429D02*
X204999451Y-91569429D01*
X189737000Y-106831880D02*
X189737000Y-107749415D01*
%TO.N,RF1_IO4*%
X170420000Y-67160000D02*
X164830000Y-67160000D01*
X184080000Y-80820000D02*
X170420000Y-67160000D01*
%TO.N,RF1_IO0*%
X169540000Y-70990000D02*
X164780000Y-70990000D01*
X183180000Y-81240000D02*
X179790000Y-81240000D01*
X179790000Y-81240000D02*
X169540000Y-70990000D01*
X164780000Y-70990000D02*
X164720000Y-70930000D01*
%TO.N,SPI0_CS1*%
X204505585Y-86646500D02*
X208544845Y-86646500D01*
X187828006Y-103324079D02*
X204505585Y-86646500D01*
X187828006Y-105790561D02*
X187828006Y-103324079D01*
X208544845Y-86646500D02*
X209677000Y-87778655D01*
%TD*%
%TA.AperFunction,Conductor*%
%TO.N,GND*%
G36*
X199823318Y-73360048D02*
G01*
X199872681Y-73390298D01*
X200527101Y-74044717D01*
X200553981Y-74084945D01*
X200563420Y-74132398D01*
X200563420Y-81784659D01*
X200549905Y-81840954D01*
X200512305Y-81884977D01*
X200458818Y-81907132D01*
X200401102Y-81902590D01*
X200351739Y-81872340D01*
X199812477Y-81333079D01*
X199801781Y-81320883D01*
X199798322Y-81316375D01*
X199784031Y-81297750D01*
X199749934Y-81271587D01*
X199709513Y-81240571D01*
X199673788Y-81197040D01*
X199661000Y-81142196D01*
X199661000Y-73477979D01*
X199674515Y-73421684D01*
X199712115Y-73377661D01*
X199765602Y-73355506D01*
X199823318Y-73360048D01*
G37*
%TD.AperFunction*%
%TA.AperFunction,Conductor*%
G36*
X228288992Y-47778803D02*
G01*
X228341507Y-47790633D01*
X228384059Y-47823600D01*
X231109469Y-51106745D01*
X231114110Y-51112335D01*
X231135334Y-51149435D01*
X231142700Y-51191537D01*
X231142700Y-57245588D01*
X231133261Y-57293041D01*
X231106381Y-57333269D01*
X226267208Y-62172441D01*
X226245311Y-62187978D01*
X226224598Y-62213950D01*
X226215345Y-62224304D01*
X226212252Y-62227396D01*
X226209922Y-62231105D01*
X226201889Y-62242426D01*
X226181176Y-62268400D01*
X226176517Y-62279647D01*
X226172800Y-62312641D01*
X226170475Y-62326333D01*
X226169500Y-62330607D01*
X226169500Y-62334978D01*
X226168721Y-62348859D01*
X226165002Y-62381865D01*
X226169500Y-62408332D01*
X226169500Y-77955488D01*
X226155032Y-78013616D01*
X226115003Y-78058179D01*
X226058755Y-78078778D01*
X225999417Y-78070606D01*
X225836589Y-78005420D01*
X225836587Y-78005419D01*
X225629467Y-77965500D01*
X224263387Y-77965500D01*
X224263382Y-77965500D01*
X224106023Y-77980526D01*
X223903633Y-78039952D01*
X223716142Y-78136610D01*
X223550342Y-78266998D01*
X223412206Y-78426415D01*
X223306740Y-78609087D01*
X223237752Y-78808417D01*
X223207733Y-79017205D01*
X223207733Y-79017207D01*
X223211363Y-79093405D01*
X223217769Y-79227902D01*
X223267500Y-79432894D01*
X223355122Y-79624761D01*
X223447953Y-79755122D01*
X223477478Y-79796584D01*
X223630138Y-79942145D01*
X223807587Y-80056184D01*
X224003411Y-80134580D01*
X224210533Y-80174500D01*
X224527236Y-80174500D01*
X224587217Y-80189972D01*
X224632230Y-80232528D01*
X224651041Y-80291548D01*
X224638956Y-80352300D01*
X224614392Y-80403309D01*
X224602119Y-80428794D01*
X224569500Y-80571706D01*
X224569500Y-80718294D01*
X224602119Y-80861207D01*
X224665719Y-80993275D01*
X224665721Y-80993277D01*
X224757117Y-81107883D01*
X224800144Y-81142196D01*
X224871724Y-81199280D01*
X224953434Y-81238629D01*
X225003794Y-81262881D01*
X225146706Y-81295500D01*
X225197410Y-81295500D01*
X225220000Y-81295500D01*
X225259882Y-81295500D01*
X225835989Y-81295500D01*
X225865067Y-81298958D01*
X225921388Y-81312544D01*
X225951611Y-81324185D01*
X225967279Y-81332717D01*
X226007277Y-81354498D01*
X226033453Y-81373569D01*
X226055373Y-81394428D01*
X226079368Y-81417263D01*
X226099714Y-81442466D01*
X226132744Y-81496557D01*
X226145869Y-81526167D01*
X226163764Y-81586964D01*
X226168773Y-81618967D01*
X226170201Y-81677771D01*
X226169371Y-81686215D01*
X226169433Y-81702821D01*
X226168729Y-81716482D01*
X226166019Y-81741790D01*
X226169676Y-81766856D01*
X226174442Y-83019684D01*
X226174443Y-83020156D01*
X226174443Y-84272753D01*
X226170915Y-84297258D01*
X226173737Y-84323592D01*
X226174443Y-84336803D01*
X226174443Y-84355686D01*
X226175071Y-84361946D01*
X226173651Y-84420513D01*
X226168644Y-84452512D01*
X226150755Y-84513304D01*
X226137630Y-84542917D01*
X226104608Y-84597001D01*
X226084263Y-84622204D01*
X226038358Y-84665894D01*
X226012181Y-84684969D01*
X225956531Y-84715279D01*
X225926309Y-84726923D01*
X225892332Y-84735122D01*
X225867805Y-84741040D01*
X225838720Y-84744500D01*
X225146706Y-84744500D01*
X225003792Y-84777119D01*
X224871724Y-84840719D01*
X224757117Y-84932117D01*
X224665719Y-85046724D01*
X224602119Y-85178792D01*
X224569500Y-85321706D01*
X224569500Y-85468294D01*
X224602119Y-85611208D01*
X224639196Y-85688199D01*
X224651281Y-85748953D01*
X224632470Y-85807972D01*
X224587457Y-85850528D01*
X224527476Y-85866000D01*
X224263411Y-85866000D01*
X224106113Y-85881019D01*
X223954435Y-85925557D01*
X223897484Y-85928610D01*
X223845190Y-85905847D01*
X223808616Y-85862085D01*
X223795500Y-85806580D01*
X223795500Y-81912744D01*
X223797764Y-81892237D01*
X223795561Y-81822127D01*
X223795500Y-81818232D01*
X223795500Y-81790653D01*
X223795352Y-81789483D01*
X223794996Y-81786665D01*
X223794080Y-81775019D01*
X223793927Y-81770142D01*
X223792709Y-81731373D01*
X223787120Y-81712140D01*
X223783174Y-81693082D01*
X223780664Y-81673206D01*
X223764588Y-81632604D01*
X223760804Y-81621553D01*
X223752563Y-81593188D01*
X223748618Y-81579610D01*
X223738414Y-81562355D01*
X223729861Y-81544895D01*
X223722486Y-81526268D01*
X223696808Y-81490925D01*
X223690401Y-81481171D01*
X223668170Y-81443580D01*
X223654005Y-81429415D01*
X223641367Y-81414617D01*
X223629595Y-81398413D01*
X223595941Y-81370573D01*
X223587299Y-81362709D01*
X222640802Y-80416211D01*
X222627906Y-80400113D01*
X222576775Y-80352098D01*
X222573978Y-80349387D01*
X222554470Y-80329879D01*
X222551290Y-80327412D01*
X222542424Y-80319839D01*
X222510582Y-80289938D01*
X222493024Y-80280285D01*
X222476764Y-80269604D01*
X222460936Y-80257327D01*
X222420851Y-80239980D01*
X222410361Y-80234841D01*
X222372091Y-80213802D01*
X222352691Y-80208821D01*
X222334284Y-80202519D01*
X222315897Y-80194562D01*
X222272758Y-80187729D01*
X222261324Y-80185361D01*
X222219019Y-80174500D01*
X222198984Y-80174500D01*
X222179586Y-80172973D01*
X222172162Y-80171797D01*
X222159805Y-80169840D01*
X222159804Y-80169840D01*
X222126751Y-80172964D01*
X222116325Y-80173950D01*
X222104656Y-80174500D01*
X221253747Y-80174500D01*
X221203312Y-80163780D01*
X221161598Y-80133473D01*
X221155871Y-80127112D01*
X221002730Y-80015849D01*
X221002729Y-80015848D01*
X221002727Y-80015847D01*
X220829802Y-79938855D01*
X220644648Y-79899500D01*
X220644646Y-79899500D01*
X220455354Y-79899500D01*
X220455352Y-79899500D01*
X220270197Y-79938855D01*
X220097269Y-80015848D01*
X219944129Y-80127110D01*
X219817466Y-80267783D01*
X219722820Y-80431715D01*
X219664326Y-80611742D01*
X219644540Y-80800000D01*
X219655317Y-80902539D01*
X219643446Y-80969858D01*
X219597706Y-81020658D01*
X219531996Y-81039500D01*
X219485352Y-81039500D01*
X219300197Y-81078855D01*
X219127269Y-81155848D01*
X218974129Y-81267110D01*
X218847466Y-81407783D01*
X218752820Y-81571715D01*
X218694326Y-81751742D01*
X218681724Y-81871651D01*
X218674540Y-81940000D01*
X218690703Y-82093788D01*
X218691907Y-82105236D01*
X218681866Y-82168632D01*
X218641472Y-82218515D01*
X218581548Y-82241518D01*
X218518151Y-82231477D01*
X218489801Y-82218854D01*
X218304648Y-82179500D01*
X218304646Y-82179500D01*
X218115354Y-82179500D01*
X218115352Y-82179500D01*
X217930197Y-82218855D01*
X217757269Y-82295848D01*
X217604129Y-82407110D01*
X217477466Y-82547783D01*
X217382820Y-82711715D01*
X217324326Y-82891742D01*
X217304540Y-83080000D01*
X217324326Y-83268257D01*
X217382820Y-83448284D01*
X217477466Y-83612216D01*
X217604129Y-83752889D01*
X217757269Y-83864151D01*
X217930197Y-83941144D01*
X218115352Y-83980500D01*
X218115354Y-83980500D01*
X218304646Y-83980500D01*
X218304648Y-83980500D01*
X218442756Y-83951144D01*
X218489803Y-83941144D01*
X218662730Y-83864151D01*
X218692114Y-83842801D01*
X218739219Y-83821829D01*
X218790781Y-83821829D01*
X218837885Y-83842801D01*
X218867270Y-83864151D01*
X219026487Y-83935040D01*
X219040197Y-83941144D01*
X219225352Y-83980500D01*
X219225354Y-83980500D01*
X219414646Y-83980500D01*
X219414648Y-83980500D01*
X219552756Y-83951144D01*
X219599803Y-83941144D01*
X219772730Y-83864151D01*
X219772731Y-83864150D01*
X219855233Y-83804210D01*
X219902337Y-83783238D01*
X219953899Y-83783238D01*
X220001003Y-83804210D01*
X220097269Y-83874151D01*
X220270197Y-83951144D01*
X220455352Y-83990500D01*
X220455354Y-83990500D01*
X220644646Y-83990500D01*
X220644648Y-83990500D01*
X220768083Y-83964262D01*
X220829803Y-83951144D01*
X221002730Y-83874151D01*
X221045878Y-83842802D01*
X221155870Y-83762889D01*
X221282533Y-83622216D01*
X221377179Y-83458284D01*
X221389330Y-83420888D01*
X221435674Y-83278256D01*
X221455460Y-83090000D01*
X221435674Y-82901744D01*
X221387748Y-82754243D01*
X221377179Y-82721715D01*
X221282533Y-82557783D01*
X221155870Y-82417110D01*
X221002730Y-82305848D01*
X220829802Y-82228855D01*
X220644648Y-82189500D01*
X220644646Y-82189500D01*
X220596953Y-82189500D01*
X220531243Y-82170658D01*
X220485503Y-82119858D01*
X220473632Y-82052539D01*
X220477567Y-82015099D01*
X220485460Y-81940000D01*
X220474682Y-81837461D01*
X220486554Y-81770142D01*
X220532294Y-81719342D01*
X220598004Y-81700500D01*
X220644648Y-81700500D01*
X220773055Y-81673206D01*
X220829803Y-81661144D01*
X221002730Y-81584151D01*
X221155871Y-81472888D01*
X221161598Y-81466526D01*
X221203312Y-81436220D01*
X221253747Y-81425500D01*
X221829548Y-81425500D01*
X221877001Y-81434939D01*
X221917229Y-81461819D01*
X222508181Y-82052772D01*
X222535061Y-82093000D01*
X222544500Y-82140453D01*
X222544500Y-86665247D01*
X222535471Y-86711698D01*
X222509698Y-86751384D01*
X222470936Y-86778526D01*
X222297269Y-86855848D01*
X222144129Y-86967110D01*
X222017466Y-87107783D01*
X221922820Y-87271715D01*
X221864326Y-87451742D01*
X221844540Y-87640000D01*
X221864326Y-87828257D01*
X221922820Y-88008284D01*
X222017466Y-88172216D01*
X222144129Y-88312889D01*
X222297269Y-88424151D01*
X222470197Y-88501144D01*
X222655352Y-88540500D01*
X222655354Y-88540500D01*
X222844646Y-88540500D01*
X222844648Y-88540500D01*
X222970369Y-88513777D01*
X223029803Y-88501144D01*
X223202730Y-88424151D01*
X223250396Y-88389520D01*
X223355870Y-88312889D01*
X223482533Y-88172216D01*
X223577178Y-88008286D01*
X223581451Y-87995135D01*
X223610458Y-87947032D01*
X223657712Y-87916663D01*
X223713518Y-87910259D01*
X223766423Y-87929136D01*
X223807814Y-87955737D01*
X224003554Y-88034099D01*
X224210580Y-88074000D01*
X224670000Y-88074000D01*
X224670000Y-86844000D01*
X224686613Y-86782000D01*
X224732000Y-86736613D01*
X224794000Y-86720000D01*
X225046000Y-86720000D01*
X225108000Y-86736613D01*
X225153387Y-86782000D01*
X225170000Y-86844000D01*
X225170000Y-88074000D01*
X225576589Y-88074000D01*
X225733886Y-88058980D01*
X225936180Y-87999580D01*
X225988680Y-87972515D01*
X226049926Y-87958810D01*
X226110038Y-87976850D01*
X226153617Y-88022013D01*
X226169500Y-88082731D01*
X226169500Y-127681668D01*
X226165002Y-127708134D01*
X226168721Y-127741141D01*
X226169500Y-127755022D01*
X226169500Y-127759389D01*
X226170473Y-127763653D01*
X226172800Y-127777356D01*
X226176517Y-127810354D01*
X226181176Y-127821600D01*
X226201888Y-127847573D01*
X226209928Y-127858903D01*
X226212252Y-127862601D01*
X226215336Y-127865685D01*
X226224601Y-127876052D01*
X226245312Y-127902022D01*
X226267213Y-127917562D01*
X231106381Y-132756731D01*
X231133261Y-132796959D01*
X231142700Y-132844412D01*
X231142700Y-138046741D01*
X231140771Y-138068529D01*
X231077299Y-138424135D01*
X231074945Y-138434656D01*
X230976741Y-138798544D01*
X230973482Y-138808820D01*
X230844045Y-139162797D01*
X230839906Y-139172751D01*
X230680211Y-139514151D01*
X230675223Y-139523708D01*
X230486480Y-139849943D01*
X230480681Y-139859031D01*
X230264316Y-140167639D01*
X230257750Y-140176189D01*
X230015386Y-140464852D01*
X230008101Y-140472799D01*
X229741599Y-140739301D01*
X229733652Y-140746586D01*
X229444989Y-140988950D01*
X229436439Y-140995516D01*
X229127831Y-141211881D01*
X229118743Y-141217680D01*
X228792508Y-141406423D01*
X228782951Y-141411411D01*
X228441551Y-141571106D01*
X228431597Y-141575245D01*
X228077620Y-141704682D01*
X228067344Y-141707941D01*
X227703456Y-141806145D01*
X227692935Y-141808499D01*
X227337329Y-141871971D01*
X227315541Y-141873900D01*
X147405254Y-141873900D01*
X147400683Y-141873025D01*
X147343154Y-141873878D01*
X147337326Y-141873828D01*
X146980930Y-141862350D01*
X146969309Y-141861427D01*
X146618481Y-141816901D01*
X146606997Y-141814891D01*
X146261902Y-141737616D01*
X146250659Y-141734537D01*
X146158830Y-141704682D01*
X145914341Y-141625194D01*
X145903440Y-141621074D01*
X145741157Y-141550851D01*
X145578882Y-141480632D01*
X145568413Y-141475505D01*
X145258472Y-141305202D01*
X145248530Y-141299114D01*
X144955953Y-141100457D01*
X144946628Y-141093463D01*
X144674004Y-140868214D01*
X144665375Y-140860374D01*
X144415102Y-140610509D01*
X144407249Y-140601894D01*
X144181553Y-140329638D01*
X144174543Y-140320323D01*
X143975410Y-140028071D01*
X143969306Y-140018139D01*
X143798503Y-139708488D01*
X143793358Y-139698027D01*
X143685075Y-139448904D01*
X143652378Y-139373678D01*
X143648247Y-139362800D01*
X143549838Y-139061789D01*
X143543700Y-139023258D01*
X143543700Y-138100000D01*
X144375497Y-138100000D01*
X144395821Y-138448927D01*
X144456512Y-138793130D01*
X144456514Y-138793136D01*
X144556757Y-139127971D01*
X144658048Y-139362790D01*
X144695195Y-139448906D01*
X144869952Y-139751595D01*
X144949935Y-139859031D01*
X145078671Y-140031953D01*
X145318525Y-140286183D01*
X145586272Y-140510849D01*
X145586276Y-140510852D01*
X145586279Y-140510854D01*
X145878289Y-140702913D01*
X146190628Y-140859776D01*
X146340355Y-140914271D01*
X146519072Y-140979319D01*
X146859169Y-141059923D01*
X147206324Y-141100500D01*
X147555837Y-141100500D01*
X147555842Y-141100500D01*
X147902997Y-141059923D01*
X148243094Y-140979319D01*
X148541351Y-140870762D01*
X148571537Y-140859776D01*
X148883876Y-140702913D01*
X149024369Y-140610509D01*
X149175894Y-140510849D01*
X149443641Y-140286183D01*
X149683495Y-140031953D01*
X149892213Y-139751596D01*
X150066972Y-139448904D01*
X150205409Y-139127971D01*
X150305652Y-138793136D01*
X150366345Y-138448927D01*
X150386668Y-138100000D01*
X224408814Y-138100000D01*
X224429138Y-138448927D01*
X224489829Y-138793130D01*
X224489831Y-138793136D01*
X224590074Y-139127971D01*
X224691365Y-139362790D01*
X224728512Y-139448906D01*
X224903269Y-139751595D01*
X224983252Y-139859031D01*
X225111988Y-140031953D01*
X225351842Y-140286183D01*
X225619589Y-140510849D01*
X225619593Y-140510852D01*
X225619596Y-140510854D01*
X225911606Y-140702913D01*
X226223945Y-140859776D01*
X226373672Y-140914271D01*
X226552389Y-140979319D01*
X226892486Y-141059923D01*
X227239641Y-141100500D01*
X227589154Y-141100500D01*
X227589159Y-141100500D01*
X227936314Y-141059923D01*
X228276411Y-140979319D01*
X228574668Y-140870762D01*
X228604854Y-140859776D01*
X228917193Y-140702913D01*
X229057686Y-140610509D01*
X229209211Y-140510849D01*
X229476958Y-140286183D01*
X229716812Y-140031953D01*
X229925530Y-139751596D01*
X230100289Y-139448904D01*
X230238726Y-139127971D01*
X230338969Y-138793136D01*
X230399662Y-138448927D01*
X230419985Y-138100000D01*
X230399662Y-137751073D01*
X230338969Y-137406864D01*
X230238726Y-137072029D01*
X230100289Y-136751096D01*
X229925530Y-136448404D01*
X229716812Y-136168047D01*
X229476958Y-135913817D01*
X229209211Y-135689151D01*
X229209207Y-135689148D01*
X229209203Y-135689145D01*
X228917193Y-135497086D01*
X228604854Y-135340223D01*
X228276414Y-135220682D01*
X228276413Y-135220681D01*
X228276411Y-135220681D01*
X228089557Y-135176396D01*
X227936315Y-135140077D01*
X227878454Y-135133314D01*
X227589159Y-135099500D01*
X227239641Y-135099500D01*
X226991673Y-135128483D01*
X226892484Y-135140077D01*
X226552385Y-135220682D01*
X226223945Y-135340223D01*
X225911606Y-135497086D01*
X225619596Y-135689145D01*
X225619588Y-135689151D01*
X225619589Y-135689151D01*
X225351842Y-135913817D01*
X225351838Y-135913820D01*
X225351837Y-135913822D01*
X225111989Y-136168045D01*
X224903269Y-136448404D01*
X224728512Y-136751093D01*
X224728511Y-136751096D01*
X224590074Y-137072029D01*
X224531727Y-137266920D01*
X224489829Y-137406869D01*
X224429138Y-137751072D01*
X224408814Y-138100000D01*
X150386668Y-138100000D01*
X150366345Y-137751073D01*
X150305652Y-137406864D01*
X150205409Y-137072029D01*
X150066972Y-136751096D01*
X149892213Y-136448404D01*
X149683495Y-136168047D01*
X149443641Y-135913817D01*
X149175894Y-135689151D01*
X149175890Y-135689148D01*
X149175886Y-135689145D01*
X148883876Y-135497086D01*
X148571537Y-135340223D01*
X148243097Y-135220682D01*
X148243096Y-135220681D01*
X148243094Y-135220681D01*
X148056240Y-135176396D01*
X147902998Y-135140077D01*
X147845137Y-135133314D01*
X147555842Y-135099500D01*
X147206324Y-135099500D01*
X146958356Y-135128483D01*
X146859167Y-135140077D01*
X146519068Y-135220682D01*
X146190628Y-135340223D01*
X145878289Y-135497086D01*
X145586279Y-135689145D01*
X145586271Y-135689151D01*
X145586272Y-135689151D01*
X145318525Y-135913817D01*
X145318521Y-135913820D01*
X145318520Y-135913822D01*
X145078672Y-136168045D01*
X144869952Y-136448404D01*
X144695195Y-136751093D01*
X144695194Y-136751096D01*
X144556757Y-137072029D01*
X144498410Y-137266920D01*
X144456512Y-137406869D01*
X144395821Y-137751072D01*
X144375497Y-138100000D01*
X143543700Y-138100000D01*
X143543700Y-132844411D01*
X143553139Y-132796958D01*
X143580019Y-132756730D01*
X144116749Y-132220000D01*
X202294877Y-132220000D01*
X202313308Y-132383580D01*
X202367677Y-132538957D01*
X202455257Y-132678341D01*
X202571658Y-132794742D01*
X202711042Y-132882322D01*
X202866419Y-132936691D01*
X203030000Y-132955122D01*
X203193580Y-132936691D01*
X203348957Y-132882322D01*
X203488341Y-132794742D01*
X203604742Y-132678341D01*
X203692322Y-132538957D01*
X203746691Y-132383580D01*
X203765122Y-132220000D01*
X203761742Y-132190000D01*
X204464877Y-132190000D01*
X204483308Y-132353580D01*
X204537677Y-132508957D01*
X204625257Y-132648341D01*
X204741658Y-132764742D01*
X204881042Y-132852322D01*
X205036419Y-132906691D01*
X205200000Y-132925122D01*
X205363580Y-132906691D01*
X205518957Y-132852322D01*
X205531546Y-132844412D01*
X205670172Y-132757309D01*
X205671623Y-132759619D01*
X205707896Y-132738673D01*
X205772089Y-132738669D01*
X205827679Y-132770762D01*
X205870140Y-132813223D01*
X205881661Y-132824744D01*
X206021042Y-132912322D01*
X206176419Y-132966691D01*
X206340000Y-132985122D01*
X206503580Y-132966691D01*
X206658957Y-132912322D01*
X206706702Y-132882322D01*
X206798340Y-132824743D01*
X206809860Y-132813223D01*
X206856586Y-132783861D01*
X206911425Y-132777682D01*
X206963514Y-132795907D01*
X207040707Y-132844411D01*
X207101045Y-132882323D01*
X207256419Y-132936691D01*
X207420000Y-132955122D01*
X207583580Y-132936691D01*
X207738957Y-132882322D01*
X207738957Y-132882321D01*
X207890172Y-132787309D01*
X207890649Y-132788068D01*
X207932904Y-132763671D01*
X207997096Y-132763671D01*
X208039350Y-132788068D01*
X208039828Y-132787309D01*
X208191042Y-132882322D01*
X208346419Y-132936691D01*
X208510000Y-132955122D01*
X208673580Y-132936691D01*
X208828957Y-132882322D01*
X208968341Y-132794742D01*
X209043083Y-132720000D01*
X223704540Y-132720000D01*
X223724326Y-132908257D01*
X223782820Y-133088284D01*
X223877466Y-133252216D01*
X224004129Y-133392889D01*
X224157269Y-133504151D01*
X224330197Y-133581144D01*
X224515352Y-133620500D01*
X224515354Y-133620500D01*
X224704646Y-133620500D01*
X224704648Y-133620500D01*
X224828084Y-133594262D01*
X224889803Y-133581144D01*
X225062730Y-133504151D01*
X225215871Y-133392888D01*
X225342533Y-133252216D01*
X225437179Y-133088284D01*
X225495674Y-132908256D01*
X225515460Y-132720000D01*
X225495674Y-132531744D01*
X225465332Y-132438363D01*
X225437179Y-132351715D01*
X225342533Y-132187783D01*
X225215870Y-132047110D01*
X225062730Y-131935848D01*
X224889802Y-131858855D01*
X224704648Y-131819500D01*
X224704646Y-131819500D01*
X224515354Y-131819500D01*
X224515352Y-131819500D01*
X224330197Y-131858855D01*
X224157269Y-131935848D01*
X224004129Y-132047110D01*
X223877466Y-132187783D01*
X223782820Y-132351715D01*
X223724326Y-132531742D01*
X223704540Y-132720000D01*
X209043083Y-132720000D01*
X209084742Y-132678341D01*
X209172322Y-132538957D01*
X209226691Y-132383580D01*
X209245122Y-132220000D01*
X209226691Y-132056420D01*
X209223433Y-132047110D01*
X209172322Y-131901042D01*
X209084742Y-131761658D01*
X208968341Y-131645257D01*
X208828957Y-131557677D01*
X208673580Y-131503308D01*
X208510000Y-131484877D01*
X208346419Y-131503308D01*
X208191042Y-131557677D01*
X208039828Y-131652691D01*
X208039350Y-131651931D01*
X207997094Y-131676329D01*
X207932906Y-131676329D01*
X207890649Y-131651931D01*
X207890172Y-131652691D01*
X207738957Y-131557677D01*
X207583580Y-131503308D01*
X207420000Y-131484877D01*
X207256419Y-131503308D01*
X207101042Y-131557677D01*
X206961657Y-131645258D01*
X206950135Y-131656780D01*
X206903409Y-131686139D01*
X206848572Y-131692317D01*
X206796485Y-131674091D01*
X206658957Y-131587677D01*
X206503580Y-131533308D01*
X206340000Y-131514877D01*
X206176419Y-131533308D01*
X206021045Y-131587676D01*
X205977149Y-131615258D01*
X205881659Y-131675258D01*
X205881658Y-131675258D01*
X205869830Y-131682691D01*
X205868379Y-131680381D01*
X205832083Y-131701332D01*
X205767901Y-131701327D01*
X205712319Y-131669235D01*
X205658341Y-131615257D01*
X205518957Y-131527677D01*
X205363580Y-131473308D01*
X205200000Y-131454877D01*
X205036419Y-131473308D01*
X204881042Y-131527677D01*
X204741658Y-131615257D01*
X204625257Y-131731658D01*
X204537677Y-131871042D01*
X204483308Y-132026419D01*
X204464877Y-132190000D01*
X203761742Y-132190000D01*
X203746691Y-132056420D01*
X203743433Y-132047110D01*
X203692322Y-131901042D01*
X203604742Y-131761658D01*
X203488341Y-131645257D01*
X203348957Y-131557677D01*
X203193580Y-131503308D01*
X203030000Y-131484877D01*
X202866419Y-131503308D01*
X202711042Y-131557677D01*
X202571658Y-131645257D01*
X202455257Y-131761658D01*
X202367677Y-131901042D01*
X202313308Y-132056419D01*
X202294877Y-132220000D01*
X144116749Y-132220000D01*
X144779072Y-131557677D01*
X146416749Y-129919999D01*
X194004540Y-129919999D01*
X194024326Y-130108257D01*
X194082820Y-130288284D01*
X194177466Y-130452216D01*
X194304129Y-130592889D01*
X194457269Y-130704151D01*
X194630197Y-130781144D01*
X194815352Y-130820500D01*
X194815354Y-130820500D01*
X195004646Y-130820500D01*
X195004648Y-130820500D01*
X195128084Y-130794262D01*
X195189803Y-130781144D01*
X195362730Y-130704151D01*
X195515871Y-130592888D01*
X195642533Y-130452216D01*
X195737179Y-130288284D01*
X195795674Y-130108256D01*
X195815460Y-129920000D01*
X195795674Y-129731744D01*
X195737179Y-129551716D01*
X195737179Y-129551715D01*
X195642533Y-129387783D01*
X195515870Y-129247110D01*
X195362730Y-129135848D01*
X195189802Y-129058855D01*
X195004648Y-129019500D01*
X195004646Y-129019500D01*
X194815354Y-129019500D01*
X194815352Y-129019500D01*
X194630197Y-129058855D01*
X194457269Y-129135848D01*
X194304129Y-129247110D01*
X194177466Y-129387783D01*
X194082820Y-129551715D01*
X194024326Y-129731742D01*
X194004540Y-129919999D01*
X146416749Y-129919999D01*
X148422787Y-127913960D01*
X148444686Y-127898423D01*
X148448222Y-127893988D01*
X148448224Y-127893988D01*
X148465397Y-127872452D01*
X148474662Y-127862085D01*
X148477748Y-127859001D01*
X148480069Y-127855306D01*
X148488115Y-127843966D01*
X148505290Y-127822431D01*
X148505290Y-127822428D01*
X148508830Y-127817990D01*
X148513479Y-127806766D01*
X148514114Y-127801126D01*
X148514116Y-127801124D01*
X148517198Y-127773753D01*
X148519527Y-127760049D01*
X148520500Y-127755790D01*
X148520500Y-127751422D01*
X148521279Y-127737541D01*
X148524997Y-127704534D01*
X148520500Y-127678068D01*
X148520500Y-122540000D01*
X218374877Y-122540000D01*
X218393308Y-122703580D01*
X218447677Y-122858957D01*
X218535257Y-122998341D01*
X218651658Y-123114742D01*
X218791042Y-123202322D01*
X218946419Y-123256691D01*
X219110000Y-123275122D01*
X219273580Y-123256691D01*
X219428957Y-123202322D01*
X219568341Y-123114742D01*
X219684742Y-122998341D01*
X219772322Y-122858957D01*
X219826691Y-122703580D01*
X219845122Y-122540000D01*
X219826691Y-122376420D01*
X219774298Y-122226691D01*
X219772322Y-122221042D01*
X219684742Y-122081658D01*
X219580584Y-121977500D01*
X219551223Y-121930773D01*
X219545045Y-121875934D01*
X219563272Y-121823845D01*
X219602295Y-121784824D01*
X219618341Y-121774742D01*
X219734742Y-121658341D01*
X219822322Y-121518957D01*
X219876691Y-121363580D01*
X219895122Y-121200000D01*
X219876691Y-121036420D01*
X219841292Y-120935257D01*
X219822322Y-120881042D01*
X219734742Y-120741658D01*
X219618341Y-120625257D01*
X219478957Y-120537677D01*
X219323580Y-120483308D01*
X219160000Y-120464877D01*
X218996419Y-120483308D01*
X218841042Y-120537677D01*
X218701658Y-120625257D01*
X218585257Y-120741658D01*
X218497677Y-120881042D01*
X218443308Y-121036419D01*
X218424877Y-121199999D01*
X218443308Y-121363580D01*
X218497677Y-121518957D01*
X218585257Y-121658341D01*
X218689415Y-121762499D01*
X218718775Y-121809225D01*
X218724954Y-121864062D01*
X218706729Y-121916151D01*
X218667708Y-121955173D01*
X218651657Y-121965258D01*
X218535257Y-122081658D01*
X218447677Y-122221042D01*
X218393308Y-122376419D01*
X218374877Y-122540000D01*
X148520500Y-122540000D01*
X148520500Y-121509999D01*
X190124877Y-121509999D01*
X190143308Y-121673580D01*
X190197677Y-121828957D01*
X190285257Y-121968341D01*
X190401658Y-122084742D01*
X190541042Y-122172322D01*
X190696419Y-122226691D01*
X190860000Y-122245122D01*
X191023580Y-122226691D01*
X191178957Y-122172322D01*
X191318341Y-122084742D01*
X191434742Y-121968341D01*
X191522322Y-121828957D01*
X191576691Y-121673580D01*
X191595122Y-121510000D01*
X191578624Y-121363580D01*
X191576691Y-121346419D01*
X191522322Y-121191042D01*
X191434742Y-121051658D01*
X191318341Y-120935257D01*
X191178957Y-120847677D01*
X191023580Y-120793308D01*
X190860000Y-120774877D01*
X190696419Y-120793308D01*
X190541042Y-120847677D01*
X190401658Y-120935257D01*
X190285257Y-121051658D01*
X190197677Y-121191042D01*
X190143308Y-121346419D01*
X190124877Y-121509999D01*
X148520500Y-121509999D01*
X148520500Y-116670000D01*
X186094877Y-116670000D01*
X186113308Y-116833580D01*
X186167677Y-116988957D01*
X186255257Y-117128341D01*
X186371658Y-117244742D01*
X186511042Y-117332322D01*
X186666419Y-117386691D01*
X186830000Y-117405122D01*
X186993580Y-117386691D01*
X187148957Y-117332322D01*
X187288341Y-117244742D01*
X187404742Y-117128341D01*
X187492322Y-116988957D01*
X187546691Y-116833580D01*
X187565122Y-116670000D01*
X187546691Y-116506420D01*
X187494298Y-116356691D01*
X187492322Y-116351042D01*
X187472817Y-116320000D01*
X187884877Y-116320000D01*
X187903308Y-116483580D01*
X187957677Y-116638957D01*
X188045257Y-116778341D01*
X188161658Y-116894742D01*
X188301042Y-116982322D01*
X188456419Y-117036691D01*
X188620000Y-117055122D01*
X188783580Y-117036691D01*
X188938957Y-116982322D01*
X189078341Y-116894742D01*
X189194742Y-116778341D01*
X189282322Y-116638957D01*
X189336691Y-116483580D01*
X189355122Y-116320000D01*
X189338364Y-116171266D01*
X189347023Y-116109929D01*
X189384271Y-116060435D01*
X189440814Y-116035134D01*
X189502537Y-116040340D01*
X189606419Y-116076690D01*
X189606420Y-116076691D01*
X189769999Y-116095122D01*
X189769999Y-116095121D01*
X189770000Y-116095122D01*
X189933580Y-116076691D01*
X190088957Y-116022322D01*
X190228341Y-115934742D01*
X190344742Y-115818341D01*
X190432322Y-115678957D01*
X190486691Y-115523580D01*
X190505122Y-115360000D01*
X190500732Y-115321042D01*
X190486691Y-115196419D01*
X190432322Y-115041042D01*
X190344742Y-114901658D01*
X190228341Y-114785257D01*
X190088957Y-114697677D01*
X189933580Y-114643308D01*
X189770000Y-114624877D01*
X189606419Y-114643308D01*
X189451042Y-114697677D01*
X189311658Y-114785257D01*
X189195257Y-114901658D01*
X189107677Y-115041042D01*
X189053308Y-115196419D01*
X189034877Y-115360000D01*
X189051635Y-115508734D01*
X189042976Y-115570070D01*
X189005728Y-115619564D01*
X188949186Y-115644865D01*
X188887460Y-115639658D01*
X188783580Y-115603308D01*
X188620000Y-115584877D01*
X188456419Y-115603308D01*
X188301042Y-115657677D01*
X188161658Y-115745257D01*
X188045257Y-115861658D01*
X187957677Y-116001042D01*
X187903308Y-116156419D01*
X187884877Y-116320000D01*
X187472817Y-116320000D01*
X187404742Y-116211658D01*
X187288341Y-116095257D01*
X187148957Y-116007677D01*
X186993580Y-115953308D01*
X186830000Y-115934877D01*
X186666419Y-115953308D01*
X186511042Y-116007677D01*
X186371658Y-116095257D01*
X186255257Y-116211658D01*
X186167677Y-116351042D01*
X186113308Y-116506419D01*
X186094877Y-116670000D01*
X148520500Y-116670000D01*
X148520500Y-115064123D01*
X180084877Y-115064123D01*
X180103308Y-115227704D01*
X180157677Y-115383081D01*
X180245257Y-115522465D01*
X180361658Y-115638866D01*
X180501042Y-115726446D01*
X180656419Y-115780815D01*
X180819999Y-115799246D01*
X180819999Y-115799245D01*
X180820000Y-115799246D01*
X180889902Y-115791370D01*
X180944735Y-115785192D01*
X180999573Y-115791370D01*
X181046300Y-115820730D01*
X181075660Y-115867457D01*
X181107677Y-115958957D01*
X181195257Y-116098341D01*
X181311658Y-116214742D01*
X181451042Y-116302322D01*
X181606419Y-116356691D01*
X181770000Y-116375122D01*
X181933580Y-116356691D01*
X182088957Y-116302322D01*
X182228341Y-116214742D01*
X182344742Y-116098341D01*
X182432322Y-115958957D01*
X182486691Y-115803580D01*
X182505122Y-115640000D01*
X182505083Y-115639658D01*
X182486691Y-115476419D01*
X182432322Y-115321042D01*
X182344742Y-115181658D01*
X182253320Y-115090236D01*
X182230939Y-115052430D01*
X182188187Y-115040027D01*
X182088957Y-114977677D01*
X181933580Y-114923308D01*
X181769999Y-114904877D01*
X181645263Y-114918931D01*
X181590425Y-114912752D01*
X181543699Y-114883392D01*
X181514339Y-114836667D01*
X181482322Y-114745167D01*
X181418321Y-114643309D01*
X181394742Y-114605782D01*
X181278341Y-114489381D01*
X181138957Y-114401801D01*
X180983580Y-114347432D01*
X180820000Y-114329001D01*
X180656419Y-114347432D01*
X180501042Y-114401801D01*
X180361658Y-114489381D01*
X180245257Y-114605782D01*
X180157677Y-114745166D01*
X180103308Y-114900543D01*
X180084877Y-115064123D01*
X148520500Y-115064123D01*
X148520500Y-112540000D01*
X177314877Y-112540000D01*
X177333308Y-112703580D01*
X177387677Y-112858957D01*
X177475257Y-112998341D01*
X177591658Y-113114742D01*
X177731042Y-113202322D01*
X177886419Y-113256691D01*
X178050000Y-113275122D01*
X178213580Y-113256691D01*
X178368957Y-113202322D01*
X178508341Y-113114742D01*
X178624742Y-112998341D01*
X178712322Y-112858957D01*
X178766691Y-112703580D01*
X178785122Y-112540000D01*
X178766691Y-112376420D01*
X178712322Y-112221043D01*
X178712322Y-112221042D01*
X178624742Y-112081658D01*
X178508341Y-111965257D01*
X178368957Y-111877677D01*
X178213580Y-111823308D01*
X178050000Y-111804877D01*
X177886419Y-111823308D01*
X177731042Y-111877677D01*
X177591658Y-111965257D01*
X177475257Y-112081658D01*
X177387677Y-112221042D01*
X177333308Y-112376419D01*
X177314877Y-112540000D01*
X148520500Y-112540000D01*
X148520500Y-103180000D01*
X161764540Y-103180000D01*
X161784326Y-103368257D01*
X161842820Y-103548284D01*
X161937466Y-103712216D01*
X162064129Y-103852889D01*
X162217269Y-103964151D01*
X162390197Y-104041144D01*
X162575352Y-104080500D01*
X162575354Y-104080500D01*
X162764646Y-104080500D01*
X162764648Y-104080500D01*
X162888083Y-104054262D01*
X162949803Y-104041144D01*
X163122730Y-103964151D01*
X163122729Y-103964151D01*
X163275870Y-103852889D01*
X163356285Y-103763580D01*
X163402533Y-103712216D01*
X163497179Y-103548284D01*
X163555674Y-103368256D01*
X163575460Y-103180000D01*
X163555674Y-102991744D01*
X163497179Y-102811716D01*
X163497179Y-102811715D01*
X163402533Y-102647783D01*
X163275870Y-102507110D01*
X163122730Y-102395848D01*
X162949802Y-102318855D01*
X162764648Y-102279500D01*
X162764646Y-102279500D01*
X162575354Y-102279500D01*
X162575352Y-102279500D01*
X162390197Y-102318855D01*
X162217269Y-102395848D01*
X162064129Y-102507110D01*
X161937466Y-102647783D01*
X161842820Y-102811715D01*
X161784326Y-102991742D01*
X161764540Y-103180000D01*
X148520500Y-103180000D01*
X148520500Y-101649999D01*
X170484540Y-101649999D01*
X170504326Y-101838257D01*
X170562820Y-102018284D01*
X170657466Y-102182216D01*
X170784129Y-102322889D01*
X170937269Y-102434151D01*
X171110197Y-102511144D01*
X171295352Y-102550500D01*
X171295354Y-102550500D01*
X171484646Y-102550500D01*
X171484648Y-102550500D01*
X171608084Y-102524262D01*
X171669803Y-102511144D01*
X171842730Y-102434151D01*
X171874537Y-102411042D01*
X171995870Y-102322889D01*
X172122533Y-102182216D01*
X172217179Y-102018284D01*
X172257320Y-101894742D01*
X172275674Y-101838256D01*
X172295460Y-101650000D01*
X172275674Y-101461744D01*
X172237781Y-101345122D01*
X172217179Y-101281715D01*
X172122533Y-101117783D01*
X171995870Y-100977110D01*
X171842730Y-100865848D01*
X171669802Y-100788855D01*
X171484648Y-100749500D01*
X171484646Y-100749500D01*
X171295354Y-100749500D01*
X171295352Y-100749500D01*
X171110197Y-100788855D01*
X170937269Y-100865848D01*
X170784129Y-100977110D01*
X170657466Y-101117783D01*
X170562820Y-101281715D01*
X170504326Y-101461742D01*
X170484540Y-101649999D01*
X148520500Y-101649999D01*
X148520500Y-95560000D01*
X161640593Y-95560000D01*
X161644659Y-95611658D01*
X161659792Y-95803946D01*
X161716915Y-96041883D01*
X161754898Y-96133580D01*
X161810558Y-96267956D01*
X161938413Y-96476596D01*
X162097333Y-96662667D01*
X162283404Y-96821587D01*
X162492044Y-96949442D01*
X162640251Y-97010831D01*
X162718116Y-97043084D01*
X162793286Y-97061130D01*
X162956055Y-97100208D01*
X163200000Y-97119407D01*
X163443945Y-97100208D01*
X163681883Y-97043084D01*
X163907956Y-96949442D01*
X164116596Y-96821587D01*
X164302667Y-96662667D01*
X164461587Y-96476596D01*
X164589442Y-96267956D01*
X164683084Y-96041883D01*
X164740208Y-95803945D01*
X164759407Y-95560000D01*
X164740208Y-95316055D01*
X164683084Y-95078117D01*
X164680630Y-95072193D01*
X164654869Y-95010000D01*
X173264877Y-95010000D01*
X173283308Y-95173580D01*
X173337677Y-95328957D01*
X173407414Y-95439944D01*
X173426420Y-95505915D01*
X173407414Y-95571886D01*
X173357677Y-95651042D01*
X173303308Y-95806419D01*
X173284877Y-95969999D01*
X173303308Y-96133580D01*
X173357677Y-96288957D01*
X173445257Y-96428341D01*
X173561658Y-96544742D01*
X173701042Y-96632322D01*
X173866455Y-96690203D01*
X173909842Y-96716346D01*
X173939154Y-96757657D01*
X173949500Y-96807244D01*
X173949500Y-106168406D01*
X173948439Y-106184592D01*
X173944632Y-106213500D01*
X173955386Y-106295176D01*
X173964017Y-106360734D01*
X174020847Y-106497933D01*
X174086671Y-106583718D01*
X174086887Y-106584000D01*
X174111249Y-106615749D01*
X174134384Y-106633501D01*
X174146579Y-106644196D01*
X182315799Y-114813415D01*
X182326495Y-114825611D01*
X182352535Y-114859548D01*
X182360754Y-114880378D01*
X182416487Y-114904179D01*
X182462067Y-114939153D01*
X182599266Y-114995983D01*
X182729370Y-115013111D01*
X182746499Y-115015367D01*
X182746499Y-115015366D01*
X182746500Y-115015367D01*
X182775410Y-115011560D01*
X182791594Y-115010500D01*
X184556255Y-115010500D01*
X184605841Y-115020846D01*
X184647153Y-115050158D01*
X184673296Y-115093545D01*
X184727677Y-115248957D01*
X184815257Y-115388341D01*
X184931658Y-115504742D01*
X185071042Y-115592322D01*
X185226419Y-115646691D01*
X185390000Y-115665122D01*
X185553580Y-115646691D01*
X185708957Y-115592322D01*
X185848341Y-115504742D01*
X185964742Y-115388341D01*
X186052322Y-115248957D01*
X186106691Y-115093580D01*
X186125122Y-114930000D01*
X186108814Y-114785258D01*
X186106691Y-114766419D01*
X186047708Y-114597856D01*
X186049340Y-114597284D01*
X186035129Y-114547956D01*
X186054134Y-114481986D01*
X186062322Y-114468957D01*
X186116691Y-114313580D01*
X186135122Y-114150000D01*
X186116691Y-113986420D01*
X186092438Y-113917110D01*
X186062322Y-113831042D01*
X185974742Y-113691658D01*
X185858341Y-113575257D01*
X185718957Y-113487677D01*
X185563581Y-113433308D01*
X185513546Y-113427671D01*
X185473628Y-113416171D01*
X185439749Y-113392132D01*
X185360696Y-113313079D01*
X185350000Y-113300883D01*
X185338902Y-113286420D01*
X185332250Y-113277750D01*
X185214433Y-113187347D01*
X185077234Y-113130517D01*
X184966968Y-113116000D01*
X184930000Y-113111133D01*
X184901089Y-113114939D01*
X184884906Y-113116000D01*
X183384979Y-113116000D01*
X183337526Y-113106561D01*
X183297298Y-113079681D01*
X177618097Y-107400480D01*
X177586624Y-107347126D01*
X177584887Y-107285206D01*
X177613319Y-107230172D01*
X177664820Y-107195759D01*
X177788957Y-107152322D01*
X177928341Y-107064742D01*
X178044742Y-106948341D01*
X178132322Y-106808957D01*
X178186691Y-106653580D01*
X178205122Y-106490000D01*
X178188435Y-106341902D01*
X178186691Y-106326419D01*
X178132322Y-106171042D01*
X178044742Y-106031658D01*
X177928341Y-105915257D01*
X177788957Y-105827677D01*
X177682886Y-105790561D01*
X187092883Y-105790561D01*
X187111314Y-105954141D01*
X187165683Y-106109518D01*
X187253263Y-106248902D01*
X187369664Y-106365303D01*
X187509048Y-106452883D01*
X187664425Y-106507252D01*
X187828006Y-106525683D01*
X187991586Y-106507252D01*
X188146963Y-106452883D01*
X188286347Y-106365303D01*
X188402748Y-106248902D01*
X188490328Y-106109518D01*
X188544697Y-105954141D01*
X188563128Y-105790561D01*
X188544697Y-105626981D01*
X188536109Y-105602439D01*
X188490328Y-105471603D01*
X188411012Y-105345371D01*
X188392006Y-105279400D01*
X188392006Y-103609058D01*
X188401445Y-103561605D01*
X188428325Y-103521377D01*
X188808044Y-103141658D01*
X189991481Y-101958219D01*
X190038205Y-101928861D01*
X190093043Y-101922682D01*
X190145131Y-101940908D01*
X190211042Y-101982322D01*
X190366419Y-102036691D01*
X190530000Y-102055122D01*
X190693580Y-102036691D01*
X190848957Y-101982322D01*
X190988341Y-101894742D01*
X191104742Y-101778341D01*
X191192322Y-101638957D01*
X191246691Y-101483580D01*
X191252328Y-101433546D01*
X191263828Y-101393628D01*
X191287864Y-101359751D01*
X195605073Y-97042542D01*
X195661358Y-97010265D01*
X195726239Y-97010831D01*
X195781952Y-97044086D01*
X195813243Y-97100925D01*
X195811545Y-97165787D01*
X195786905Y-97248091D01*
X195776648Y-97424168D01*
X195792120Y-97511907D01*
X195807277Y-97597866D01*
X195877136Y-97759818D01*
X195982461Y-97901294D01*
X196117570Y-98014665D01*
X196117571Y-98014665D01*
X196117573Y-98014667D01*
X196275189Y-98093824D01*
X196275190Y-98093824D01*
X196275192Y-98093825D01*
X196446810Y-98134500D01*
X196446812Y-98134500D01*
X196578938Y-98134500D01*
X196578941Y-98134500D01*
X196710184Y-98119160D01*
X196875924Y-98058836D01*
X197023285Y-97961915D01*
X197144322Y-97833623D01*
X197145957Y-97830792D01*
X197232508Y-97680879D01*
X197232507Y-97680879D01*
X197232510Y-97680876D01*
X197283095Y-97511909D01*
X197293351Y-97335831D01*
X197262723Y-97162134D01*
X197192864Y-97000182D01*
X197087539Y-96858706D01*
X197038643Y-96817677D01*
X196952429Y-96745334D01*
X196794807Y-96666174D01*
X196623190Y-96625500D01*
X196623188Y-96625500D01*
X196491059Y-96625500D01*
X196432693Y-96632322D01*
X196359813Y-96640840D01*
X196330341Y-96651567D01*
X196264270Y-96656765D01*
X196204959Y-96627193D01*
X196169351Y-96571297D01*
X196167616Y-96505045D01*
X196200250Y-96447366D01*
X201497297Y-91150319D01*
X201537526Y-91123439D01*
X201584979Y-91114000D01*
X204078250Y-91114000D01*
X204144221Y-91133006D01*
X204270453Y-91212322D01*
X204297891Y-91221923D01*
X204349396Y-91256337D01*
X204377827Y-91311371D01*
X204376090Y-91373292D01*
X204344617Y-91426645D01*
X190298458Y-105472804D01*
X190242871Y-105504898D01*
X190178683Y-105504898D01*
X190123096Y-105472804D01*
X189996945Y-105346653D01*
X189857561Y-105259073D01*
X189702184Y-105204704D01*
X189538604Y-105186273D01*
X189375023Y-105204704D01*
X189219646Y-105259073D01*
X189080262Y-105346653D01*
X188963861Y-105463054D01*
X188876281Y-105602438D01*
X188821912Y-105757815D01*
X188803481Y-105921395D01*
X188821912Y-106084976D01*
X188876281Y-106240353D01*
X188963861Y-106379737D01*
X189080262Y-106496138D01*
X189138664Y-106532834D01*
X189178902Y-106573830D01*
X189196346Y-106628560D01*
X189188259Y-106679006D01*
X189168132Y-106831879D01*
X189171939Y-106860788D01*
X189173000Y-106876974D01*
X189173000Y-107238254D01*
X189153994Y-107304225D01*
X189074677Y-107430457D01*
X189020308Y-107585834D01*
X189001877Y-107749415D01*
X189020308Y-107912995D01*
X189074677Y-108068372D01*
X189153994Y-108194605D01*
X189173000Y-108260576D01*
X189173000Y-111611906D01*
X189171939Y-111628089D01*
X189168133Y-111657000D01*
X189173000Y-111693968D01*
X189177962Y-111731658D01*
X189187517Y-111804234D01*
X189244347Y-111941433D01*
X189334749Y-112059249D01*
X189357883Y-112077000D01*
X189370079Y-112087696D01*
X198017132Y-120734748D01*
X198041171Y-120768627D01*
X198052671Y-120808545D01*
X198058308Y-120858581D01*
X198112677Y-121013957D01*
X198200257Y-121153341D01*
X198316658Y-121269742D01*
X198456042Y-121357322D01*
X198611419Y-121411691D01*
X198775000Y-121430122D01*
X198938580Y-121411691D01*
X199093957Y-121357322D01*
X199233341Y-121269742D01*
X199349742Y-121153341D01*
X199437322Y-121013957D01*
X199491691Y-120858580D01*
X199510122Y-120695000D01*
X199491691Y-120531420D01*
X199474856Y-120483309D01*
X199437322Y-120376042D01*
X199349742Y-120236658D01*
X199233341Y-120120257D01*
X199093957Y-120032677D01*
X198938581Y-119978308D01*
X198888545Y-119972671D01*
X198848627Y-119961171D01*
X198814748Y-119937132D01*
X198677097Y-119799481D01*
X198647736Y-119752754D01*
X198641558Y-119697916D01*
X198659783Y-119645831D01*
X198700926Y-119580353D01*
X198755295Y-119424976D01*
X198773726Y-119261396D01*
X198755295Y-119097816D01*
X198726406Y-119015257D01*
X198700926Y-118942438D01*
X198613346Y-118803054D01*
X198496947Y-118686655D01*
X198380409Y-118613430D01*
X198337853Y-118568416D01*
X198322381Y-118508432D01*
X198337856Y-118448450D01*
X198369170Y-118415330D01*
X198368462Y-118414622D01*
X198494742Y-118288341D01*
X198543967Y-118209999D01*
X201374540Y-118209999D01*
X201394326Y-118398257D01*
X201452820Y-118578284D01*
X201547466Y-118742216D01*
X201674129Y-118882889D01*
X201827269Y-118994151D01*
X202000197Y-119071144D01*
X202185352Y-119110500D01*
X202185354Y-119110500D01*
X202374646Y-119110500D01*
X202374648Y-119110500D01*
X202498083Y-119084262D01*
X202559803Y-119071144D01*
X202732730Y-118994151D01*
X202732729Y-118994151D01*
X202885870Y-118882889D01*
X203012533Y-118742216D01*
X203107179Y-118578284D01*
X203110625Y-118567677D01*
X203165674Y-118398256D01*
X203185460Y-118210000D01*
X203169695Y-118060000D01*
X215934877Y-118060000D01*
X215953308Y-118223580D01*
X216007677Y-118378957D01*
X216095257Y-118518341D01*
X216211658Y-118634742D01*
X216351040Y-118722321D01*
X216351043Y-118722322D01*
X216382153Y-118733208D01*
X216438145Y-118772935D01*
X216464419Y-118836365D01*
X216452919Y-118904050D01*
X216407171Y-118955243D01*
X216311657Y-119015258D01*
X216195257Y-119131658D01*
X216107677Y-119271042D01*
X216053308Y-119426419D01*
X216034877Y-119590000D01*
X216053308Y-119753580D01*
X216107677Y-119908957D01*
X216195257Y-120048341D01*
X216311658Y-120164742D01*
X216451042Y-120252322D01*
X216606419Y-120306691D01*
X216770000Y-120325122D01*
X216933580Y-120306691D01*
X217088957Y-120252322D01*
X217228341Y-120164742D01*
X217344742Y-120048341D01*
X217432322Y-119908957D01*
X217486691Y-119753580D01*
X217505122Y-119590000D01*
X217486691Y-119426420D01*
X217432322Y-119271043D01*
X217432322Y-119271042D01*
X217406534Y-119230000D01*
X219814877Y-119230000D01*
X219833308Y-119393580D01*
X219887677Y-119548957D01*
X219975257Y-119688341D01*
X220091658Y-119804742D01*
X220231042Y-119892322D01*
X220386419Y-119946691D01*
X220549999Y-119965122D01*
X220549999Y-119965121D01*
X220550000Y-119965122D01*
X220713580Y-119946691D01*
X220868957Y-119892322D01*
X221008341Y-119804742D01*
X221124742Y-119688341D01*
X221212322Y-119548957D01*
X221266691Y-119393580D01*
X221285122Y-119230000D01*
X221271658Y-119110500D01*
X221266691Y-119066419D01*
X221212322Y-118911042D01*
X221124742Y-118771658D01*
X221008341Y-118655257D01*
X220868957Y-118567677D01*
X220713580Y-118513308D01*
X220549999Y-118494877D01*
X220386419Y-118513308D01*
X220231042Y-118567677D01*
X220091658Y-118655257D01*
X219975257Y-118771658D01*
X219887677Y-118911042D01*
X219833308Y-119066419D01*
X219814877Y-119230000D01*
X217406534Y-119230000D01*
X217344742Y-119131658D01*
X217228341Y-119015257D01*
X217088957Y-118927677D01*
X217057845Y-118916791D01*
X217001853Y-118877062D01*
X216975580Y-118813633D01*
X216987080Y-118745948D01*
X217032829Y-118694756D01*
X217128341Y-118634742D01*
X217244742Y-118518341D01*
X217332322Y-118378957D01*
X217386691Y-118223580D01*
X217405122Y-118060000D01*
X217386691Y-117896419D01*
X217332322Y-117741042D01*
X217244742Y-117601658D01*
X217128341Y-117485257D01*
X216988957Y-117397677D01*
X216833580Y-117343308D01*
X216670000Y-117324877D01*
X216506419Y-117343308D01*
X216351042Y-117397677D01*
X216211658Y-117485257D01*
X216095257Y-117601658D01*
X216007677Y-117741042D01*
X215953308Y-117896419D01*
X215934877Y-118060000D01*
X203169695Y-118060000D01*
X203165674Y-118021744D01*
X203107179Y-117841716D01*
X203107179Y-117841715D01*
X203012533Y-117677783D01*
X202885870Y-117537110D01*
X202732730Y-117425848D01*
X202559802Y-117348855D01*
X202374648Y-117309500D01*
X202374646Y-117309500D01*
X202185354Y-117309500D01*
X202185352Y-117309500D01*
X202000197Y-117348855D01*
X201827269Y-117425848D01*
X201674129Y-117537110D01*
X201547466Y-117677783D01*
X201452820Y-117841715D01*
X201394326Y-118021742D01*
X201374540Y-118209999D01*
X198543967Y-118209999D01*
X198582322Y-118148957D01*
X198636691Y-117993580D01*
X198655122Y-117829999D01*
X198636691Y-117666419D01*
X198582322Y-117511042D01*
X198503006Y-117384810D01*
X198484000Y-117318839D01*
X198484000Y-114590000D01*
X208634540Y-114590000D01*
X208654326Y-114778257D01*
X208712820Y-114958284D01*
X208807466Y-115122216D01*
X208934129Y-115262889D01*
X209087269Y-115374151D01*
X209260197Y-115451144D01*
X209445352Y-115490500D01*
X209445354Y-115490500D01*
X209634646Y-115490500D01*
X209634648Y-115490500D01*
X209758084Y-115464262D01*
X209819803Y-115451144D01*
X209992730Y-115374151D01*
X210012209Y-115359999D01*
X210145870Y-115262889D01*
X210158415Y-115248957D01*
X210229508Y-115170000D01*
X216074877Y-115170000D01*
X216093308Y-115333580D01*
X216147677Y-115488957D01*
X216235257Y-115628341D01*
X216351658Y-115744742D01*
X216491042Y-115832322D01*
X216646419Y-115886691D01*
X216810000Y-115905122D01*
X216973580Y-115886691D01*
X217128957Y-115832322D01*
X217268341Y-115744742D01*
X217384742Y-115628341D01*
X217472322Y-115488957D01*
X217526691Y-115333580D01*
X217545122Y-115170000D01*
X217536135Y-115090236D01*
X217526691Y-115006419D01*
X217472322Y-114851042D01*
X217384742Y-114711658D01*
X217268341Y-114595257D01*
X217128957Y-114507677D01*
X216973580Y-114453308D01*
X216810000Y-114434877D01*
X216646419Y-114453308D01*
X216491042Y-114507677D01*
X216351658Y-114595257D01*
X216235257Y-114711658D01*
X216147677Y-114851042D01*
X216093308Y-115006419D01*
X216074877Y-115170000D01*
X210229508Y-115170000D01*
X210272533Y-115122216D01*
X210367179Y-114958284D01*
X210425674Y-114778256D01*
X210445460Y-114590000D01*
X210425674Y-114401744D01*
X210395332Y-114308363D01*
X210367179Y-114221715D01*
X210272533Y-114057783D01*
X210145870Y-113917110D01*
X209992730Y-113805848D01*
X209819802Y-113728855D01*
X209634648Y-113689500D01*
X209634646Y-113689500D01*
X209445354Y-113689500D01*
X209445352Y-113689500D01*
X209260197Y-113728855D01*
X209087269Y-113805848D01*
X208934129Y-113917110D01*
X208807466Y-114057783D01*
X208712820Y-114221715D01*
X208654326Y-114401742D01*
X208634540Y-114590000D01*
X198484000Y-114590000D01*
X198484000Y-113449999D01*
X205644877Y-113449999D01*
X205663308Y-113613580D01*
X205717677Y-113768957D01*
X205805257Y-113908341D01*
X205921658Y-114024742D01*
X206061042Y-114112322D01*
X206216419Y-114166691D01*
X206380000Y-114185122D01*
X206543580Y-114166691D01*
X206698957Y-114112322D01*
X206838341Y-114024742D01*
X206954742Y-113908341D01*
X207042322Y-113768957D01*
X207080448Y-113659999D01*
X219357877Y-113659999D01*
X219376308Y-113823580D01*
X219430677Y-113978957D01*
X219518257Y-114118341D01*
X219634658Y-114234742D01*
X219774042Y-114322322D01*
X219929419Y-114376691D01*
X220093000Y-114395122D01*
X220256580Y-114376691D01*
X220411957Y-114322322D01*
X220551341Y-114234742D01*
X220667742Y-114118341D01*
X220755322Y-113978957D01*
X220809691Y-113823580D01*
X220828122Y-113660000D01*
X220809691Y-113496420D01*
X220787607Y-113433309D01*
X220755322Y-113341042D01*
X220667742Y-113201658D01*
X220551341Y-113085257D01*
X220411957Y-112997677D01*
X220256580Y-112943308D01*
X220093000Y-112924877D01*
X219929419Y-112943308D01*
X219774042Y-112997677D01*
X219634658Y-113085257D01*
X219518257Y-113201658D01*
X219430677Y-113341042D01*
X219376308Y-113496419D01*
X219357877Y-113659999D01*
X207080448Y-113659999D01*
X207096691Y-113613580D01*
X207115122Y-113450000D01*
X207111310Y-113416171D01*
X207096691Y-113286419D01*
X207042322Y-113131042D01*
X206954742Y-112991658D01*
X206838341Y-112875257D01*
X206698957Y-112787677D01*
X206543580Y-112733308D01*
X206380000Y-112714877D01*
X206216419Y-112733308D01*
X206061042Y-112787677D01*
X205921658Y-112875257D01*
X205805257Y-112991658D01*
X205717677Y-113131042D01*
X205663308Y-113286419D01*
X205644877Y-113449999D01*
X198484000Y-113449999D01*
X198484000Y-112190000D01*
X215904877Y-112190000D01*
X215923308Y-112353580D01*
X215977677Y-112508957D01*
X216065257Y-112648341D01*
X216181658Y-112764742D01*
X216321042Y-112852322D01*
X216476419Y-112906691D01*
X216639999Y-112925122D01*
X216639999Y-112925121D01*
X216640000Y-112925122D01*
X216803580Y-112906691D01*
X216958957Y-112852322D01*
X217098341Y-112764742D01*
X217214742Y-112648341D01*
X217302322Y-112508957D01*
X217356691Y-112353580D01*
X217375122Y-112190000D01*
X217363595Y-112087696D01*
X217356691Y-112026419D01*
X217302322Y-111871042D01*
X217214742Y-111731658D01*
X217098341Y-111615257D01*
X217003558Y-111555702D01*
X216961001Y-111510689D01*
X216945529Y-111450708D01*
X216961002Y-111390726D01*
X217003558Y-111345714D01*
X217008955Y-111342322D01*
X217008957Y-111342322D01*
X217148341Y-111254742D01*
X217264742Y-111138341D01*
X217352322Y-110998957D01*
X217406691Y-110843580D01*
X217425122Y-110680000D01*
X217406691Y-110516420D01*
X217352322Y-110361043D01*
X217352322Y-110361042D01*
X217264742Y-110221658D01*
X217148341Y-110105257D01*
X217008957Y-110017677D01*
X216853580Y-109963308D01*
X216690000Y-109944877D01*
X216526419Y-109963308D01*
X216371042Y-110017677D01*
X216231658Y-110105257D01*
X216115257Y-110221658D01*
X216027677Y-110361042D01*
X215973308Y-110516419D01*
X215954877Y-110679999D01*
X215973308Y-110843580D01*
X216027677Y-110998957D01*
X216115257Y-111138341D01*
X216231658Y-111254742D01*
X216326441Y-111314297D01*
X216368997Y-111359309D01*
X216384470Y-111419291D01*
X216368998Y-111479272D01*
X216326442Y-111524285D01*
X216181656Y-111615259D01*
X216065257Y-111731658D01*
X215977677Y-111871042D01*
X215923308Y-112026419D01*
X215904877Y-112190000D01*
X198484000Y-112190000D01*
X198484000Y-109170000D01*
X214724877Y-109170000D01*
X214743308Y-109333580D01*
X214797677Y-109488957D01*
X214885257Y-109628341D01*
X215001658Y-109744742D01*
X215141042Y-109832322D01*
X215296419Y-109886691D01*
X215460000Y-109905122D01*
X215623580Y-109886691D01*
X215778957Y-109832322D01*
X215918341Y-109744742D01*
X216034742Y-109628341D01*
X216122322Y-109488957D01*
X216176691Y-109333580D01*
X216195122Y-109170000D01*
X216176691Y-109006420D01*
X216122322Y-108851043D01*
X216122322Y-108851042D01*
X216034742Y-108711658D01*
X215918341Y-108595257D01*
X215778957Y-108507677D01*
X215623580Y-108453308D01*
X215460000Y-108434877D01*
X215296419Y-108453308D01*
X215141042Y-108507677D01*
X215001658Y-108595257D01*
X214885257Y-108711658D01*
X214797677Y-108851042D01*
X214743308Y-109006419D01*
X214724877Y-109170000D01*
X198484000Y-109170000D01*
X198484000Y-107920000D01*
X210444540Y-107920000D01*
X210464326Y-108108257D01*
X210522820Y-108288284D01*
X210617466Y-108452216D01*
X210744129Y-108592889D01*
X210897269Y-108704151D01*
X211070197Y-108781144D01*
X211255352Y-108820500D01*
X211255354Y-108820500D01*
X211444646Y-108820500D01*
X211444648Y-108820500D01*
X211568084Y-108794262D01*
X211629803Y-108781144D01*
X211802730Y-108704151D01*
X211952609Y-108595258D01*
X211955870Y-108592889D01*
X212082533Y-108452216D01*
X212177179Y-108288284D01*
X212207617Y-108194605D01*
X212235674Y-108108256D01*
X212255460Y-107920000D01*
X212235674Y-107731744D01*
X212177179Y-107551716D01*
X212177179Y-107551715D01*
X212082533Y-107387783D01*
X211955870Y-107247110D01*
X211802730Y-107135848D01*
X211629802Y-107058855D01*
X211444648Y-107019500D01*
X211444646Y-107019500D01*
X211255354Y-107019500D01*
X211255352Y-107019500D01*
X211070197Y-107058855D01*
X210897269Y-107135848D01*
X210744129Y-107247110D01*
X210617466Y-107387783D01*
X210522820Y-107551715D01*
X210464326Y-107731742D01*
X210444540Y-107920000D01*
X198484000Y-107920000D01*
X198484000Y-104865101D01*
X198485061Y-104848915D01*
X198488868Y-104820000D01*
X198469483Y-104672767D01*
X198412654Y-104535567D01*
X198344949Y-104447332D01*
X198344948Y-104447331D01*
X198322250Y-104417750D01*
X198299114Y-104399997D01*
X198286919Y-104389302D01*
X197737616Y-103839999D01*
X203654877Y-103839999D01*
X203673308Y-104003580D01*
X203727677Y-104158957D01*
X203815257Y-104298341D01*
X203931658Y-104414742D01*
X204071042Y-104502322D01*
X204226419Y-104556691D01*
X204390000Y-104575122D01*
X204553580Y-104556691D01*
X204708957Y-104502322D01*
X204848341Y-104414742D01*
X204964742Y-104298341D01*
X205052322Y-104158957D01*
X205106691Y-104003580D01*
X205125122Y-103840000D01*
X205106691Y-103676420D01*
X205066515Y-103561605D01*
X205052322Y-103521042D01*
X204964742Y-103381658D01*
X204848341Y-103265257D01*
X204708957Y-103177677D01*
X204553580Y-103123308D01*
X204390000Y-103104877D01*
X204226419Y-103123308D01*
X204071042Y-103177677D01*
X203931658Y-103265257D01*
X203815257Y-103381658D01*
X203727677Y-103521042D01*
X203673308Y-103676419D01*
X203654877Y-103839999D01*
X197737616Y-103839999D01*
X197457867Y-103560250D01*
X197433828Y-103526370D01*
X197422328Y-103486451D01*
X197416691Y-103436420D01*
X197362322Y-103281042D01*
X197274742Y-103141658D01*
X197158341Y-103025257D01*
X197018957Y-102937677D01*
X196999362Y-102930821D01*
X196947857Y-102896407D01*
X196919426Y-102841372D01*
X196921163Y-102779452D01*
X196952634Y-102726101D01*
X201070794Y-98607941D01*
X201122811Y-98576863D01*
X201183346Y-98574144D01*
X201237941Y-98600436D01*
X201273559Y-98649459D01*
X201281693Y-98709507D01*
X201274877Y-98769999D01*
X201293308Y-98933580D01*
X201347677Y-99088957D01*
X201435257Y-99228341D01*
X201551658Y-99344742D01*
X201691042Y-99432322D01*
X201846419Y-99486691D01*
X202010000Y-99505122D01*
X202173580Y-99486691D01*
X202328957Y-99432322D01*
X202468341Y-99344742D01*
X202584742Y-99228341D01*
X202672322Y-99088957D01*
X202726691Y-98933580D01*
X202745122Y-98770000D01*
X202726691Y-98606420D01*
X202672322Y-98451043D01*
X202672322Y-98451042D01*
X202584742Y-98311658D01*
X202468341Y-98195257D01*
X202328957Y-98107677D01*
X202173580Y-98053308D01*
X202009999Y-98034877D01*
X201949507Y-98041693D01*
X201889459Y-98033559D01*
X201840436Y-97997941D01*
X201814144Y-97943346D01*
X201816863Y-97882811D01*
X201847941Y-97830794D01*
X203575983Y-96102752D01*
X203636069Y-96069544D01*
X203704616Y-96073393D01*
X203760608Y-96113121D01*
X203786882Y-96176549D01*
X203793308Y-96233580D01*
X203847677Y-96388957D01*
X203933994Y-96526331D01*
X203953000Y-96592302D01*
X203953000Y-100098839D01*
X203933994Y-100164810D01*
X203854677Y-100291042D01*
X203800308Y-100446419D01*
X203781877Y-100610000D01*
X203800308Y-100773580D01*
X203854677Y-100928957D01*
X203942257Y-101068341D01*
X204058658Y-101184742D01*
X204198042Y-101272322D01*
X204353419Y-101326691D01*
X204517000Y-101345122D01*
X204680580Y-101326691D01*
X204835957Y-101272322D01*
X204975341Y-101184742D01*
X205091742Y-101068341D01*
X205179322Y-100928957D01*
X205233691Y-100773580D01*
X205252122Y-100610000D01*
X205233691Y-100446420D01*
X205179322Y-100291043D01*
X205179322Y-100291042D01*
X205100006Y-100164810D01*
X205081000Y-100098839D01*
X205081000Y-97480000D01*
X214524877Y-97480000D01*
X214543308Y-97643580D01*
X214597677Y-97798957D01*
X214685257Y-97938341D01*
X214801658Y-98054742D01*
X214941042Y-98142322D01*
X215096419Y-98196691D01*
X215260000Y-98215122D01*
X215423580Y-98196691D01*
X215578957Y-98142322D01*
X215718341Y-98054742D01*
X215834742Y-97938341D01*
X215922322Y-97798957D01*
X215922324Y-97798950D01*
X215928089Y-97789776D01*
X215979283Y-97744027D01*
X216046969Y-97732527D01*
X216070000Y-97735122D01*
X216070000Y-97735121D01*
X216070001Y-97735122D01*
X216233580Y-97716691D01*
X216388957Y-97662322D01*
X216528341Y-97574742D01*
X216644742Y-97458341D01*
X216732322Y-97318957D01*
X216786691Y-97163580D01*
X216791668Y-97119406D01*
X216805122Y-97000000D01*
X216802962Y-96980833D01*
X216786691Y-96836419D01*
X216732322Y-96681042D01*
X216644742Y-96541658D01*
X216528341Y-96425257D01*
X216388957Y-96337677D01*
X216233580Y-96283308D01*
X216070000Y-96264877D01*
X215906419Y-96283308D01*
X215751042Y-96337677D01*
X215611658Y-96425257D01*
X215495258Y-96541657D01*
X215401908Y-96690224D01*
X215350716Y-96735972D01*
X215283031Y-96747472D01*
X215260000Y-96744877D01*
X215096419Y-96763308D01*
X214941042Y-96817677D01*
X214801658Y-96905257D01*
X214685257Y-97021658D01*
X214597677Y-97161042D01*
X214543308Y-97316419D01*
X214524877Y-97480000D01*
X205081000Y-97480000D01*
X205081000Y-96570020D01*
X205100006Y-96504048D01*
X205117255Y-96476596D01*
X205172322Y-96388957D01*
X205226691Y-96233580D01*
X205245122Y-96070000D01*
X205226691Y-95906420D01*
X205215391Y-95874128D01*
X205172322Y-95751042D01*
X205084742Y-95611658D01*
X204968341Y-95495257D01*
X204828957Y-95407677D01*
X204673580Y-95353308D01*
X204616551Y-95346883D01*
X204553122Y-95320610D01*
X204513393Y-95264617D01*
X204509544Y-95196070D01*
X204542754Y-95135982D01*
X205088736Y-94590000D01*
X206254877Y-94590000D01*
X206273308Y-94753580D01*
X206327677Y-94908957D01*
X206415257Y-95048341D01*
X206531658Y-95164742D01*
X206671042Y-95252322D01*
X206826419Y-95306691D01*
X206990000Y-95325122D01*
X207153580Y-95306691D01*
X207308957Y-95252322D01*
X207448341Y-95164742D01*
X207564742Y-95048341D01*
X207652322Y-94908957D01*
X207706691Y-94753580D01*
X207725122Y-94590000D01*
X207706691Y-94426420D01*
X207673393Y-94331261D01*
X207652322Y-94271042D01*
X207564742Y-94131658D01*
X207448341Y-94015257D01*
X207308957Y-93927677D01*
X207153580Y-93873308D01*
X206990000Y-93854877D01*
X206826419Y-93873308D01*
X206671042Y-93927677D01*
X206531658Y-94015257D01*
X206415257Y-94131658D01*
X206327677Y-94271042D01*
X206273308Y-94426419D01*
X206254877Y-94590000D01*
X205088736Y-94590000D01*
X205407694Y-94271042D01*
X206444748Y-93233988D01*
X206491472Y-93204630D01*
X206546310Y-93198451D01*
X206598399Y-93216677D01*
X206671044Y-93262323D01*
X206826419Y-93316691D01*
X206990000Y-93335122D01*
X207153580Y-93316691D01*
X207308957Y-93262322D01*
X207448341Y-93174742D01*
X207564742Y-93058341D01*
X207652322Y-92918957D01*
X207706691Y-92763580D01*
X207709348Y-92740000D01*
X220904540Y-92740000D01*
X220924326Y-92928257D01*
X220982820Y-93108284D01*
X221077466Y-93272216D01*
X221204129Y-93412889D01*
X221357269Y-93524151D01*
X221530197Y-93601144D01*
X221715352Y-93640500D01*
X221715354Y-93640500D01*
X221904646Y-93640500D01*
X221904648Y-93640500D01*
X222028084Y-93614262D01*
X222089803Y-93601144D01*
X222262730Y-93524151D01*
X222415871Y-93412888D01*
X222542533Y-93272216D01*
X222637179Y-93108284D01*
X222695674Y-92928256D01*
X222715460Y-92740000D01*
X222695674Y-92551744D01*
X222658202Y-92436419D01*
X222637179Y-92371715D01*
X222542533Y-92207783D01*
X222415870Y-92067110D01*
X222262730Y-91955848D01*
X222089802Y-91878855D01*
X221904648Y-91839500D01*
X221904646Y-91839500D01*
X221715354Y-91839500D01*
X221715352Y-91839500D01*
X221530197Y-91878855D01*
X221357269Y-91955848D01*
X221204129Y-92067110D01*
X221077466Y-92207783D01*
X220982820Y-92371715D01*
X220924326Y-92551742D01*
X220904540Y-92740000D01*
X207709348Y-92740000D01*
X207725122Y-92600000D01*
X207718548Y-92541658D01*
X207706691Y-92436419D01*
X207652322Y-92281042D01*
X207564742Y-92141658D01*
X207448344Y-92025260D01*
X207448341Y-92025258D01*
X207425527Y-92010923D01*
X207382973Y-91965912D01*
X207367500Y-91905930D01*
X207367500Y-91228601D01*
X207368561Y-91212415D01*
X207368573Y-91212322D01*
X207372368Y-91183500D01*
X207352983Y-91036266D01*
X207296153Y-90899067D01*
X207296152Y-90899066D01*
X207296152Y-90899065D01*
X207223506Y-90804389D01*
X207223497Y-90804379D01*
X207205749Y-90781249D01*
X207182614Y-90763497D01*
X207170419Y-90752802D01*
X206987196Y-90569579D01*
X206976500Y-90557383D01*
X206958749Y-90534248D01*
X206903820Y-90492101D01*
X206903818Y-90492100D01*
X206840933Y-90443847D01*
X206840932Y-90443846D01*
X206703734Y-90387017D01*
X206686604Y-90384761D01*
X206556500Y-90367632D01*
X206531019Y-90370987D01*
X206527589Y-90371439D01*
X206511406Y-90372500D01*
X206188860Y-90372500D01*
X206122888Y-90353494D01*
X206077140Y-90302301D01*
X206065640Y-90234616D01*
X206072920Y-90169999D01*
X206054489Y-90006419D01*
X206000120Y-89851042D01*
X205912540Y-89711658D01*
X205796141Y-89595259D01*
X205753140Y-89568240D01*
X205711264Y-89524441D01*
X205695143Y-89466029D01*
X205708627Y-89406951D01*
X205748496Y-89361318D01*
X205805229Y-89340026D01*
X205851943Y-89334762D01*
X205923580Y-89326691D01*
X206078957Y-89272322D01*
X206129500Y-89240564D01*
X206218340Y-89184743D01*
X206228491Y-89174592D01*
X206247594Y-89155488D01*
X206307683Y-89122277D01*
X206376230Y-89126126D01*
X206406420Y-89136691D01*
X206529105Y-89150514D01*
X206569999Y-89155122D01*
X206569999Y-89155121D01*
X206570000Y-89155122D01*
X206733580Y-89136691D01*
X206888957Y-89082322D01*
X207028341Y-88994742D01*
X207144742Y-88878341D01*
X207232322Y-88738957D01*
X207286691Y-88583580D01*
X207292497Y-88532047D01*
X207318768Y-88468622D01*
X207374758Y-88428894D01*
X207487278Y-88389522D01*
X207626662Y-88301942D01*
X207743063Y-88185541D01*
X207830643Y-88046157D01*
X207877688Y-87911709D01*
X207907046Y-87864988D01*
X207953767Y-87835630D01*
X208048957Y-87802322D01*
X208188341Y-87714742D01*
X208304742Y-87598341D01*
X208374180Y-87487829D01*
X208413198Y-87448812D01*
X208465287Y-87430585D01*
X208520125Y-87436763D01*
X208566852Y-87466124D01*
X208919132Y-87818404D01*
X208943171Y-87852283D01*
X208954671Y-87892201D01*
X208960308Y-87942235D01*
X208965382Y-87956735D01*
X208969231Y-88025282D01*
X208936021Y-88085370D01*
X208875933Y-88118579D01*
X208807386Y-88114730D01*
X208697936Y-88076432D01*
X208534359Y-88058001D01*
X208370778Y-88076432D01*
X208215401Y-88130801D01*
X208076017Y-88218381D01*
X207959616Y-88334782D01*
X207872036Y-88474166D01*
X207817667Y-88629543D01*
X207799236Y-88793124D01*
X207817667Y-88956704D01*
X207872036Y-89112081D01*
X207960589Y-89253013D01*
X207979595Y-89318984D01*
X207960590Y-89384955D01*
X207921309Y-89447470D01*
X207866941Y-89602844D01*
X207848510Y-89766425D01*
X207866941Y-89930005D01*
X207921310Y-90085382D01*
X208008890Y-90224766D01*
X208125291Y-90341167D01*
X208264675Y-90428747D01*
X208420052Y-90483116D01*
X208583633Y-90501547D01*
X208747213Y-90483116D01*
X208902590Y-90428747D01*
X209041974Y-90341167D01*
X209158375Y-90224766D01*
X209245955Y-90085382D01*
X209300324Y-89930005D01*
X209318755Y-89766425D01*
X209300581Y-89605122D01*
X209300324Y-89602844D01*
X209245956Y-89447470D01*
X209244242Y-89444742D01*
X209158375Y-89308084D01*
X209158374Y-89308083D01*
X209157402Y-89306536D01*
X209138396Y-89240564D01*
X209157401Y-89174595D01*
X209196681Y-89112081D01*
X209251050Y-88956704D01*
X209269481Y-88793124D01*
X209251050Y-88629544D01*
X209245975Y-88615042D01*
X209242126Y-88546498D01*
X209275335Y-88486408D01*
X209335424Y-88453198D01*
X209403970Y-88457047D01*
X209513420Y-88495346D01*
X209677000Y-88513777D01*
X209840580Y-88495346D01*
X209995957Y-88440977D01*
X210135341Y-88353397D01*
X210251742Y-88236996D01*
X210339322Y-88097612D01*
X210393691Y-87942235D01*
X210412122Y-87778655D01*
X210394524Y-87622471D01*
X210393691Y-87615074D01*
X210339322Y-87459697D01*
X210251742Y-87320313D01*
X210135341Y-87203912D01*
X209995957Y-87116332D01*
X209840581Y-87061963D01*
X209790546Y-87056326D01*
X209750628Y-87044826D01*
X209716749Y-87020787D01*
X208975541Y-86279579D01*
X208964845Y-86267383D01*
X208947095Y-86244250D01*
X208902323Y-86209896D01*
X208829278Y-86153847D01*
X208692079Y-86097017D01*
X208674949Y-86094761D01*
X208544845Y-86077632D01*
X208519364Y-86080987D01*
X208515934Y-86081439D01*
X208499751Y-86082500D01*
X208426710Y-86082500D01*
X208370415Y-86068985D01*
X208326392Y-86031385D01*
X208304237Y-85977898D01*
X208308779Y-85920182D01*
X208339029Y-85870819D01*
X208429271Y-85780576D01*
X208519191Y-85637470D01*
X208546299Y-85560000D01*
X207132076Y-85560000D01*
X207159184Y-85637470D01*
X207249104Y-85780576D01*
X207339347Y-85870819D01*
X207369597Y-85920182D01*
X207374139Y-85977898D01*
X207351984Y-86031385D01*
X207307961Y-86068985D01*
X207251666Y-86082500D01*
X204608334Y-86082500D01*
X204552039Y-86068985D01*
X204508016Y-86031385D01*
X204485861Y-85977898D01*
X204490403Y-85920182D01*
X204520653Y-85870819D01*
X204610895Y-85780576D01*
X204700815Y-85637470D01*
X204727923Y-85560000D01*
X203894812Y-85560000D01*
X203832812Y-85543387D01*
X203787425Y-85498000D01*
X203770812Y-85436000D01*
X203770812Y-85184000D01*
X203787425Y-85122000D01*
X203832812Y-85076613D01*
X203894812Y-85060000D01*
X204727924Y-85060000D01*
X207132076Y-85060000D01*
X207589188Y-85060000D01*
X207589188Y-84602889D01*
X207589187Y-84602888D01*
X208089188Y-84602888D01*
X208089188Y-85060000D01*
X208546300Y-85060000D01*
X208546299Y-85059999D01*
X208519191Y-84982529D01*
X208429271Y-84839423D01*
X208309764Y-84719916D01*
X208166658Y-84629996D01*
X208089188Y-84602888D01*
X207589187Y-84602888D01*
X207511717Y-84629996D01*
X207368611Y-84719916D01*
X207249104Y-84839423D01*
X207159184Y-84982529D01*
X207132076Y-85059999D01*
X207132076Y-85060000D01*
X204727924Y-85060000D01*
X204727923Y-85059999D01*
X204700815Y-84982529D01*
X204610895Y-84839423D01*
X204491388Y-84719916D01*
X204348282Y-84629996D01*
X204257239Y-84598138D01*
X204201246Y-84558409D01*
X204174973Y-84494979D01*
X204186475Y-84427293D01*
X204232222Y-84376103D01*
X204255079Y-84361742D01*
X204371480Y-84245341D01*
X204440409Y-84135639D01*
X204479428Y-84096621D01*
X204531516Y-84078395D01*
X204625647Y-84067790D01*
X204781024Y-84013421D01*
X204920408Y-83925841D01*
X205036809Y-83809440D01*
X205063907Y-83766314D01*
X205108918Y-83723759D01*
X205168899Y-83708286D01*
X205228881Y-83723758D01*
X205273894Y-83766314D01*
X205339917Y-83871389D01*
X205459423Y-83990895D01*
X205602529Y-84080815D01*
X205679999Y-84107923D01*
X205680000Y-84107924D01*
X205680000Y-83650812D01*
X206180000Y-83650812D01*
X206180000Y-84107923D01*
X206257470Y-84080815D01*
X206400576Y-83990895D01*
X206520083Y-83871388D01*
X206610003Y-83728282D01*
X206637111Y-83650812D01*
X206180000Y-83650812D01*
X205680000Y-83650812D01*
X205680000Y-82693701D01*
X205658704Y-82678590D01*
X205606838Y-82653610D01*
X205570682Y-82600579D01*
X205567213Y-82590666D01*
X205567213Y-82590663D01*
X205566981Y-82590000D01*
X205954877Y-82590000D01*
X205973308Y-82753580D01*
X206027677Y-82908957D01*
X206115257Y-83048340D01*
X206143680Y-83076763D01*
X206170561Y-83116992D01*
X206176614Y-83147426D01*
X206182523Y-83153335D01*
X206239736Y-83169818D01*
X206371042Y-83252322D01*
X206526419Y-83306691D01*
X206690000Y-83325122D01*
X206853580Y-83306691D01*
X207008957Y-83252322D01*
X207148341Y-83164742D01*
X207264742Y-83048341D01*
X207352322Y-82908957D01*
X207406691Y-82753580D01*
X207425122Y-82590000D01*
X207420256Y-82546811D01*
X207406691Y-82426419D01*
X207352322Y-82271042D01*
X207264742Y-82131658D01*
X207148341Y-82015257D01*
X207008957Y-81927677D01*
X206853580Y-81873308D01*
X206690000Y-81854877D01*
X206526419Y-81873308D01*
X206371042Y-81927677D01*
X206231658Y-82015257D01*
X206115257Y-82131658D01*
X206027677Y-82271042D01*
X205973308Y-82426419D01*
X205954877Y-82590000D01*
X205566981Y-82590000D01*
X205512844Y-82435286D01*
X205434035Y-82309861D01*
X205425264Y-82295901D01*
X205308863Y-82179500D01*
X205169479Y-82091920D01*
X205014102Y-82037551D01*
X204850522Y-82019120D01*
X204686941Y-82037551D01*
X204531564Y-82091920D01*
X204392180Y-82179500D01*
X204275779Y-82295901D01*
X204188199Y-82435285D01*
X204133830Y-82590662D01*
X204127912Y-82643187D01*
X204109686Y-82695274D01*
X204070666Y-82734295D01*
X204003726Y-82776357D01*
X203887324Y-82892758D01*
X203818398Y-83002454D01*
X203779376Y-83041476D01*
X203727289Y-83059702D01*
X203633157Y-83070308D01*
X203477780Y-83124677D01*
X203338396Y-83212257D01*
X203221995Y-83328658D01*
X203134415Y-83468042D01*
X203080046Y-83623419D01*
X203061615Y-83787000D01*
X203080046Y-83950580D01*
X203134415Y-84105957D01*
X203197760Y-84206771D01*
X203216735Y-84269960D01*
X203200614Y-84333937D01*
X203153961Y-84380590D01*
X203089984Y-84396711D01*
X203026794Y-84377736D01*
X203019944Y-84373432D01*
X202978957Y-84347678D01*
X202978954Y-84347676D01*
X202823580Y-84293308D01*
X202660000Y-84274877D01*
X202496419Y-84293308D01*
X202341042Y-84347677D01*
X202201658Y-84435257D01*
X202085257Y-84551658D01*
X201997677Y-84691042D01*
X201943308Y-84846419D01*
X201924877Y-85010000D01*
X201943308Y-85173580D01*
X201997677Y-85328957D01*
X202085257Y-85468340D01*
X202124700Y-85507783D01*
X202157911Y-85567871D01*
X202154062Y-85636418D01*
X202132808Y-85697158D01*
X202114377Y-85860738D01*
X202132808Y-86024318D01*
X202187177Y-86179695D01*
X202274757Y-86319079D01*
X202391158Y-86435480D01*
X202530542Y-86523060D01*
X202685919Y-86577429D01*
X202708738Y-86580000D01*
X202785192Y-86588614D01*
X202848621Y-86614886D01*
X202879103Y-86657845D01*
X202880245Y-86657128D01*
X202975257Y-86808341D01*
X203091658Y-86924742D01*
X203167614Y-86972468D01*
X203206637Y-87011490D01*
X203224863Y-87063578D01*
X203218685Y-87118416D01*
X203189324Y-87165143D01*
X187461086Y-102893380D01*
X187448894Y-102904073D01*
X187425755Y-102921829D01*
X187390604Y-102967637D01*
X187390594Y-102967652D01*
X187335353Y-103039645D01*
X187278523Y-103176845D01*
X187259138Y-103324078D01*
X187262945Y-103352987D01*
X187264006Y-103369173D01*
X187264006Y-105279400D01*
X187245000Y-105345371D01*
X187165683Y-105471603D01*
X187111314Y-105626980D01*
X187092883Y-105790561D01*
X177682886Y-105790561D01*
X177633580Y-105773308D01*
X177470000Y-105754877D01*
X177306419Y-105773308D01*
X177151042Y-105827677D01*
X177011658Y-105915257D01*
X176895257Y-106031658D01*
X176807677Y-106171042D01*
X176764241Y-106295176D01*
X176729827Y-106346681D01*
X176674792Y-106375112D01*
X176612872Y-106373375D01*
X176559519Y-106341902D01*
X176010319Y-105792702D01*
X175983439Y-105752474D01*
X175974000Y-105705021D01*
X175974000Y-103839999D01*
X177654877Y-103839999D01*
X177673308Y-104003580D01*
X177727677Y-104158957D01*
X177815257Y-104298341D01*
X177931658Y-104414742D01*
X178071042Y-104502322D01*
X178226419Y-104556691D01*
X178390000Y-104575122D01*
X178553580Y-104556691D01*
X178708957Y-104502322D01*
X178848341Y-104414742D01*
X178964742Y-104298341D01*
X179052322Y-104158957D01*
X179106691Y-104003580D01*
X179125122Y-103840000D01*
X179106691Y-103676420D01*
X179082031Y-103605948D01*
X179078182Y-103537404D01*
X179111391Y-103477315D01*
X179171479Y-103444104D01*
X179222330Y-103446959D01*
X179222537Y-103445127D01*
X179400000Y-103465122D01*
X179563580Y-103446691D01*
X179718957Y-103392322D01*
X179858341Y-103304742D01*
X179974742Y-103188341D01*
X180062322Y-103048957D01*
X180116691Y-102893580D01*
X180135122Y-102730000D01*
X180134682Y-102726099D01*
X180116691Y-102566419D01*
X180062322Y-102411042D01*
X179974742Y-102271658D01*
X179858341Y-102155257D01*
X179718957Y-102067677D01*
X179563580Y-102013308D01*
X179400000Y-101994877D01*
X179236419Y-102013308D01*
X179081042Y-102067677D01*
X178941658Y-102155257D01*
X178825257Y-102271658D01*
X178737677Y-102411042D01*
X178683308Y-102566419D01*
X178664877Y-102729999D01*
X178683308Y-102893580D01*
X178707967Y-102964049D01*
X178711818Y-103032594D01*
X178678611Y-103092682D01*
X178618526Y-103125893D01*
X178567669Y-103123040D01*
X178567463Y-103124873D01*
X178390000Y-103104877D01*
X178226419Y-103123308D01*
X178071042Y-103177677D01*
X177931658Y-103265257D01*
X177815257Y-103381658D01*
X177727677Y-103521042D01*
X177673308Y-103676419D01*
X177654877Y-103839999D01*
X175974000Y-103839999D01*
X175974000Y-93000000D01*
X189824877Y-93000000D01*
X189843308Y-93163580D01*
X189897677Y-93318957D01*
X189985257Y-93458341D01*
X190101658Y-93574742D01*
X190241042Y-93662322D01*
X190396419Y-93716691D01*
X190560000Y-93735122D01*
X190723580Y-93716691D01*
X190878957Y-93662322D01*
X191018341Y-93574742D01*
X191134742Y-93458341D01*
X191222322Y-93318957D01*
X191276691Y-93163580D01*
X191295122Y-93000000D01*
X191279787Y-92863896D01*
X191276691Y-92836419D01*
X191222322Y-92681042D01*
X191134742Y-92541658D01*
X191018341Y-92425257D01*
X190878957Y-92337677D01*
X190723580Y-92283308D01*
X190560000Y-92264877D01*
X190396419Y-92283308D01*
X190241042Y-92337677D01*
X190101658Y-92425257D01*
X189985257Y-92541658D01*
X189897677Y-92681042D01*
X189843308Y-92836419D01*
X189824877Y-93000000D01*
X175974000Y-93000000D01*
X175974000Y-91320000D01*
X194004356Y-91320000D01*
X194024891Y-91567816D01*
X194024891Y-91567819D01*
X194024892Y-91567821D01*
X194085937Y-91808881D01*
X194116631Y-91878856D01*
X194185825Y-92036604D01*
X194185827Y-92036607D01*
X194321836Y-92244785D01*
X194490256Y-92427738D01*
X194501411Y-92436420D01*
X194686485Y-92580470D01*
X194686487Y-92580471D01*
X194686491Y-92580474D01*
X194905190Y-92698828D01*
X195140386Y-92779571D01*
X195385665Y-92820500D01*
X195634335Y-92820500D01*
X195879614Y-92779571D01*
X196114810Y-92698828D01*
X196333509Y-92580474D01*
X196529744Y-92427738D01*
X196698164Y-92244785D01*
X196834173Y-92036607D01*
X196934063Y-91808881D01*
X196995108Y-91567821D01*
X197015643Y-91320000D01*
X196995108Y-91072179D01*
X196934063Y-90831119D01*
X196834173Y-90603393D01*
X196698164Y-90395215D01*
X196529744Y-90212262D01*
X196448180Y-90148778D01*
X196333514Y-90059529D01*
X196333510Y-90059526D01*
X196333509Y-90059526D01*
X196114810Y-89941172D01*
X196114806Y-89941170D01*
X196114805Y-89941170D01*
X195879615Y-89860429D01*
X195634335Y-89819500D01*
X195385665Y-89819500D01*
X195140384Y-89860429D01*
X194905194Y-89941170D01*
X194686485Y-90059529D01*
X194490259Y-90212259D01*
X194490256Y-90212261D01*
X194490256Y-90212262D01*
X194387490Y-90323896D01*
X194321837Y-90395214D01*
X194185825Y-90603395D01*
X194097666Y-90804379D01*
X194085937Y-90831119D01*
X194032577Y-91041831D01*
X194024891Y-91072183D01*
X194004356Y-91320000D01*
X175974000Y-91320000D01*
X175974000Y-89704619D01*
X175987833Y-89647704D01*
X176026246Y-89603488D01*
X176080669Y-89581836D01*
X176122444Y-89585951D01*
X176122537Y-89585127D01*
X176300000Y-89605122D01*
X176463580Y-89586691D01*
X176618957Y-89532322D01*
X176758341Y-89444742D01*
X176874742Y-89328341D01*
X176962322Y-89188957D01*
X177016691Y-89033580D01*
X177035122Y-88870000D01*
X177016691Y-88706420D01*
X177006383Y-88676962D01*
X176962322Y-88551042D01*
X176874742Y-88411658D01*
X176758341Y-88295257D01*
X176618957Y-88207677D01*
X176463580Y-88153308D01*
X176300000Y-88134877D01*
X176122537Y-88154873D01*
X176122444Y-88154048D01*
X176080669Y-88158164D01*
X176026246Y-88136512D01*
X175987833Y-88092296D01*
X175974000Y-88035381D01*
X175974000Y-85770000D01*
X182054877Y-85770000D01*
X182073308Y-85933580D01*
X182127677Y-86088957D01*
X182215257Y-86228341D01*
X182331658Y-86344742D01*
X182471042Y-86432322D01*
X182626419Y-86486691D01*
X182789999Y-86505122D01*
X182789999Y-86505121D01*
X182790000Y-86505122D01*
X182953580Y-86486691D01*
X183108957Y-86432322D01*
X183248341Y-86344742D01*
X183364742Y-86228341D01*
X183444153Y-86101958D01*
X186942919Y-86101958D01*
X186961350Y-86265538D01*
X187015719Y-86420915D01*
X187103299Y-86560299D01*
X187219700Y-86676700D01*
X187359084Y-86764280D01*
X187514461Y-86818649D01*
X187531492Y-86820567D01*
X187598518Y-86828119D01*
X187661943Y-86854389D01*
X187686738Y-86889331D01*
X187690245Y-86887128D01*
X187785257Y-87038341D01*
X187901658Y-87154742D01*
X188041042Y-87242322D01*
X188196419Y-87296691D01*
X188359999Y-87315122D01*
X188359999Y-87315121D01*
X188360000Y-87315122D01*
X188523580Y-87296691D01*
X188678957Y-87242322D01*
X188818341Y-87154742D01*
X188934742Y-87038341D01*
X189022322Y-86898957D01*
X189076691Y-86743580D01*
X189095122Y-86580000D01*
X189078483Y-86432322D01*
X189076691Y-86416419D01*
X189022322Y-86261042D01*
X188934742Y-86121658D01*
X188818341Y-86005257D01*
X188678957Y-85917677D01*
X188523579Y-85863308D01*
X188439522Y-85853837D01*
X188376089Y-85827561D01*
X188351304Y-85792626D01*
X188347797Y-85794830D01*
X188252784Y-85643616D01*
X188136383Y-85527215D01*
X187996999Y-85439635D01*
X187841622Y-85385266D01*
X187678042Y-85366835D01*
X187514461Y-85385266D01*
X187359084Y-85439635D01*
X187219700Y-85527215D01*
X187103299Y-85643616D01*
X187015719Y-85783000D01*
X186961350Y-85938377D01*
X186942919Y-86101958D01*
X183444153Y-86101958D01*
X183452322Y-86088957D01*
X183506691Y-85933580D01*
X183525122Y-85770000D01*
X183519125Y-85716776D01*
X183506691Y-85606419D01*
X183452322Y-85451042D01*
X183364742Y-85311658D01*
X183248341Y-85195257D01*
X183108957Y-85107677D01*
X182953580Y-85053308D01*
X182790000Y-85034877D01*
X182626419Y-85053308D01*
X182471042Y-85107677D01*
X182331658Y-85195257D01*
X182215257Y-85311658D01*
X182127677Y-85451042D01*
X182073308Y-85606419D01*
X182054877Y-85770000D01*
X175974000Y-85770000D01*
X175974000Y-84000000D01*
X186034877Y-84000000D01*
X186053308Y-84163580D01*
X186107677Y-84318957D01*
X186195257Y-84458341D01*
X186311658Y-84574742D01*
X186451042Y-84662322D01*
X186606419Y-84716691D01*
X186770000Y-84735122D01*
X186933580Y-84716691D01*
X187088957Y-84662322D01*
X187228341Y-84574742D01*
X187344742Y-84458341D01*
X187432322Y-84318957D01*
X187486691Y-84163580D01*
X187505122Y-84000000D01*
X187489816Y-83864151D01*
X187486691Y-83836419D01*
X187432322Y-83681042D01*
X187344742Y-83541658D01*
X187228341Y-83425257D01*
X187088957Y-83337677D01*
X186933580Y-83283308D01*
X186770000Y-83264877D01*
X186606419Y-83283308D01*
X186451042Y-83337677D01*
X186311658Y-83425257D01*
X186195257Y-83541658D01*
X186107677Y-83681042D01*
X186053308Y-83836419D01*
X186034877Y-84000000D01*
X175974000Y-84000000D01*
X175974000Y-83780446D01*
X175983439Y-83732993D01*
X176010319Y-83692765D01*
X176014742Y-83688341D01*
X176102322Y-83548957D01*
X176156691Y-83393580D01*
X176166481Y-83306691D01*
X176175122Y-83230000D01*
X176166230Y-83151085D01*
X176156691Y-83066419D01*
X176102322Y-82911042D01*
X176014742Y-82771658D01*
X175898341Y-82655257D01*
X175758957Y-82567677D01*
X175603580Y-82513308D01*
X175440000Y-82494877D01*
X175276419Y-82513308D01*
X175121042Y-82567677D01*
X174981658Y-82655257D01*
X174865257Y-82771658D01*
X174777677Y-82911042D01*
X174723308Y-83066419D01*
X174704877Y-83229999D01*
X174723308Y-83393580D01*
X174777676Y-83548954D01*
X174777678Y-83548957D01*
X174826994Y-83627444D01*
X174846000Y-83693415D01*
X174846000Y-86227394D01*
X174828803Y-86290395D01*
X174781981Y-86335922D01*
X174718523Y-86351345D01*
X174656028Y-86332388D01*
X174653451Y-86330769D01*
X174591186Y-86291645D01*
X174568955Y-86277676D01*
X174413580Y-86223308D01*
X174250000Y-86204877D01*
X174086419Y-86223308D01*
X173931042Y-86277677D01*
X173791658Y-86365257D01*
X173675257Y-86481658D01*
X173587677Y-86621042D01*
X173533308Y-86776419D01*
X173514877Y-86939999D01*
X173533308Y-87103580D01*
X173587677Y-87258957D01*
X173675257Y-87398341D01*
X173791658Y-87514742D01*
X173891471Y-87577458D01*
X173934028Y-87622471D01*
X173949500Y-87682452D01*
X173949500Y-94169755D01*
X173935130Y-94227697D01*
X173895351Y-94272209D01*
X173839382Y-94292975D01*
X173836419Y-94293308D01*
X173681042Y-94347677D01*
X173541658Y-94435257D01*
X173425257Y-94551658D01*
X173337677Y-94691042D01*
X173283308Y-94846419D01*
X173264877Y-95010000D01*
X164654869Y-95010000D01*
X164647444Y-94992074D01*
X164589442Y-94852044D01*
X164461587Y-94643404D01*
X164302667Y-94457333D01*
X164116596Y-94298413D01*
X163907956Y-94170558D01*
X163814043Y-94131658D01*
X163681883Y-94076915D01*
X163443946Y-94019792D01*
X163200000Y-94000593D01*
X162956053Y-94019792D01*
X162718116Y-94076915D01*
X162492042Y-94170559D01*
X162283405Y-94298412D01*
X162097333Y-94457333D01*
X161970775Y-94605512D01*
X161922363Y-94640181D01*
X161890325Y-94644582D01*
X161897950Y-94679031D01*
X161879768Y-94739103D01*
X161810558Y-94852044D01*
X161716915Y-95078116D01*
X161659792Y-95316053D01*
X161640593Y-95559999D01*
X161640593Y-95560000D01*
X148520500Y-95560000D01*
X148520500Y-94109998D01*
X154045864Y-94109998D01*
X154066366Y-94331261D01*
X154127176Y-94544983D01*
X154226220Y-94743892D01*
X154360133Y-94921222D01*
X154524345Y-95070921D01*
X154675873Y-95164742D01*
X154713271Y-95187898D01*
X154920473Y-95268169D01*
X155138897Y-95308999D01*
X155361103Y-95308999D01*
X155361105Y-95308999D01*
X155579529Y-95268169D01*
X155786731Y-95187898D01*
X155975656Y-95070921D01*
X156139869Y-94921221D01*
X156273779Y-94743895D01*
X156273779Y-94743893D01*
X156273781Y-94743892D01*
X156372825Y-94544983D01*
X156433635Y-94331261D01*
X156442343Y-94237283D01*
X156454138Y-94109999D01*
X156433635Y-93888739D01*
X156433635Y-93888736D01*
X156372825Y-93675014D01*
X156319961Y-93568848D01*
X158266129Y-93568848D01*
X158296229Y-93842407D01*
X158337585Y-94000593D01*
X158365840Y-94108671D01*
X158473476Y-94361961D01*
X158573725Y-94526225D01*
X158616846Y-94596881D01*
X158685212Y-94679031D01*
X158792890Y-94808419D01*
X158997860Y-94992073D01*
X159227385Y-95143926D01*
X159476575Y-95260741D01*
X159740117Y-95340029D01*
X160012395Y-95380100D01*
X160218712Y-95380100D01*
X160218716Y-95380100D01*
X160424479Y-95365040D01*
X160586460Y-95328957D01*
X160693105Y-95305201D01*
X160950157Y-95206887D01*
X161190154Y-95072193D01*
X161407983Y-94903992D01*
X161599000Y-94705866D01*
X161673193Y-94602162D01*
X161721441Y-94562023D01*
X161759899Y-94554936D01*
X161752491Y-94526225D01*
X161766207Y-94468282D01*
X161884972Y-94237283D01*
X161973833Y-93976812D01*
X162023821Y-93706179D01*
X162033872Y-93431151D01*
X162003772Y-93157591D01*
X161934162Y-92891329D01*
X161826526Y-92638039D01*
X161683157Y-92403121D01*
X161679157Y-92398315D01*
X161590173Y-92291389D01*
X161539084Y-92229999D01*
X165285864Y-92229999D01*
X165306366Y-92451262D01*
X165367176Y-92664984D01*
X165466220Y-92863893D01*
X165600133Y-93041223D01*
X165764345Y-93190922D01*
X165833903Y-93233990D01*
X165953271Y-93307899D01*
X166160473Y-93388170D01*
X166378897Y-93429000D01*
X166601103Y-93429000D01*
X166601105Y-93429000D01*
X166819529Y-93388170D01*
X167026731Y-93307899D01*
X167215656Y-93190922D01*
X167379869Y-93041222D01*
X167513779Y-92863896D01*
X167513779Y-92863894D01*
X167513781Y-92863893D01*
X167612825Y-92664984D01*
X167673635Y-92451262D01*
X167681006Y-92371715D01*
X167694138Y-92230000D01*
X167675166Y-92025258D01*
X167673635Y-92008737D01*
X167612825Y-91795015D01*
X167513781Y-91596106D01*
X167379868Y-91418776D01*
X167215656Y-91269077D01*
X167026733Y-91152102D01*
X167026731Y-91152101D01*
X166829325Y-91075625D01*
X166780957Y-91041831D01*
X166753683Y-90989504D01*
X166753683Y-90960000D01*
X167825864Y-90960000D01*
X167846366Y-91181262D01*
X167907176Y-91394984D01*
X168006220Y-91593893D01*
X168140133Y-91771223D01*
X168304345Y-91920922D01*
X168390818Y-91974463D01*
X168493271Y-92037899D01*
X168700473Y-92118170D01*
X168918897Y-92159000D01*
X169141103Y-92159000D01*
X169141105Y-92159000D01*
X169359529Y-92118170D01*
X169566731Y-92037899D01*
X169755656Y-91920922D01*
X169897887Y-91791261D01*
X169919868Y-91771223D01*
X169977581Y-91694799D01*
X170053779Y-91593896D01*
X170053779Y-91593894D01*
X170053781Y-91593893D01*
X170152825Y-91394984D01*
X170213635Y-91181262D01*
X170218993Y-91123439D01*
X170234138Y-90960000D01*
X170213635Y-90738740D01*
X170213635Y-90738737D01*
X170152825Y-90525015D01*
X170053781Y-90326106D01*
X169919868Y-90148776D01*
X169755656Y-89999077D01*
X169566733Y-89882102D01*
X169566731Y-89882101D01*
X169368631Y-89805356D01*
X169320263Y-89771562D01*
X169292989Y-89719235D01*
X169292989Y-89660227D01*
X169320263Y-89607900D01*
X169368635Y-89574104D01*
X169566505Y-89497449D01*
X169682239Y-89425790D01*
X169030002Y-88773553D01*
X169030001Y-88773553D01*
X168377761Y-89425790D01*
X168377762Y-89425791D01*
X168493491Y-89497447D01*
X168691367Y-89574104D01*
X168739738Y-89607900D01*
X168767012Y-89660227D01*
X168767012Y-89719235D01*
X168739738Y-89771561D01*
X168691367Y-89805357D01*
X168493272Y-89882099D01*
X168304345Y-89999077D01*
X168140133Y-90148776D01*
X168006220Y-90326106D01*
X167907176Y-90525015D01*
X167846366Y-90738737D01*
X167825864Y-90960000D01*
X166753683Y-90960000D01*
X166753683Y-90930496D01*
X166780957Y-90878169D01*
X166829325Y-90844374D01*
X167026731Y-90767899D01*
X167215656Y-90650922D01*
X167353769Y-90525015D01*
X167379868Y-90501223D01*
X167386757Y-90492101D01*
X167513779Y-90323896D01*
X167513779Y-90323894D01*
X167513781Y-90323893D01*
X167612825Y-90124984D01*
X167673635Y-89911262D01*
X167682566Y-89814877D01*
X167694138Y-89690000D01*
X167673635Y-89468740D01*
X167673635Y-89468737D01*
X167612825Y-89255015D01*
X167513781Y-89056106D01*
X167379868Y-88878776D01*
X167215656Y-88729077D01*
X167026733Y-88612102D01*
X167026731Y-88612101D01*
X166828631Y-88535356D01*
X166780263Y-88501562D01*
X166752989Y-88449235D01*
X166752989Y-88420000D01*
X167826367Y-88420000D01*
X167846860Y-88641169D01*
X167907644Y-88854801D01*
X168006651Y-89053632D01*
X168022211Y-89074235D01*
X168676448Y-88420001D01*
X168676448Y-88420000D01*
X169383554Y-88420000D01*
X170037789Y-89074235D01*
X170037790Y-89074235D01*
X170053350Y-89053631D01*
X170152357Y-88854801D01*
X170213141Y-88641169D01*
X170233634Y-88420000D01*
X170213141Y-88198830D01*
X170152356Y-87985196D01*
X170053351Y-87786368D01*
X170037790Y-87765762D01*
X170037789Y-87765762D01*
X169383554Y-88420000D01*
X168676448Y-88420000D01*
X168022211Y-87765762D01*
X168022210Y-87765762D01*
X168006650Y-87786367D01*
X167907645Y-87985196D01*
X167846860Y-88198830D01*
X167826367Y-88420000D01*
X166752989Y-88420000D01*
X166752989Y-88390227D01*
X166780263Y-88337900D01*
X166828635Y-88304104D01*
X167026505Y-88227449D01*
X167142239Y-88155790D01*
X166490002Y-87503553D01*
X166490001Y-87503553D01*
X165837761Y-88155790D01*
X165837762Y-88155791D01*
X165953491Y-88227447D01*
X166151367Y-88304104D01*
X166199738Y-88337900D01*
X166227012Y-88390227D01*
X166227012Y-88449235D01*
X166199738Y-88501561D01*
X166151367Y-88535357D01*
X165953272Y-88612099D01*
X165764345Y-88729077D01*
X165600133Y-88878776D01*
X165466220Y-89056106D01*
X165367176Y-89255015D01*
X165306366Y-89468737D01*
X165285864Y-89689999D01*
X165306366Y-89911262D01*
X165367176Y-90124984D01*
X165466220Y-90323893D01*
X165600133Y-90501223D01*
X165764345Y-90650922D01*
X165953272Y-90767900D01*
X166150673Y-90844374D01*
X166199044Y-90878169D01*
X166226318Y-90930496D01*
X166226318Y-90989504D01*
X166199044Y-91041831D01*
X166150673Y-91075626D01*
X165953272Y-91152099D01*
X165764345Y-91269077D01*
X165600133Y-91418776D01*
X165466220Y-91596106D01*
X165367176Y-91795015D01*
X165306366Y-92008737D01*
X165285864Y-92229999D01*
X161539084Y-92229999D01*
X161507112Y-92191581D01*
X161302142Y-92007927D01*
X161072617Y-91856074D01*
X160891611Y-91771222D01*
X160823426Y-91739258D01*
X160639172Y-91683824D01*
X160559885Y-91659971D01*
X160287607Y-91619900D01*
X160081290Y-91619900D01*
X160081286Y-91619900D01*
X159875522Y-91634959D01*
X159606898Y-91694798D01*
X159349845Y-91793112D01*
X159109848Y-91927807D01*
X158892017Y-92096008D01*
X158701004Y-92294130D01*
X158540865Y-92517964D01*
X158415030Y-92762715D01*
X158326168Y-93023188D01*
X158276180Y-93293820D01*
X158266129Y-93568848D01*
X156319961Y-93568848D01*
X156273781Y-93476105D01*
X156139868Y-93298775D01*
X155975656Y-93149076D01*
X155786733Y-93032101D01*
X155786731Y-93032100D01*
X155579529Y-92951829D01*
X155361105Y-92910999D01*
X155138897Y-92910999D01*
X154920472Y-92951829D01*
X154920473Y-92951829D01*
X154713268Y-93032101D01*
X154524345Y-93149076D01*
X154360133Y-93298775D01*
X154226220Y-93476105D01*
X154127176Y-93675014D01*
X154066366Y-93888736D01*
X154045864Y-94109998D01*
X148520500Y-94109998D01*
X148520500Y-91569998D01*
X155565863Y-91569998D01*
X155586365Y-91791261D01*
X155647175Y-92004983D01*
X155746219Y-92203892D01*
X155880132Y-92381222D01*
X156044344Y-92530921D01*
X156124376Y-92580474D01*
X156233270Y-92647898D01*
X156440472Y-92728169D01*
X156658896Y-92768999D01*
X156881102Y-92768999D01*
X156881104Y-92768999D01*
X157099528Y-92728169D01*
X157306730Y-92647898D01*
X157495655Y-92530921D01*
X157659868Y-92381221D01*
X157793778Y-92203895D01*
X157793778Y-92203893D01*
X157793780Y-92203892D01*
X157892824Y-92004983D01*
X157953634Y-91791261D01*
X157956607Y-91759174D01*
X157974137Y-91569999D01*
X157953634Y-91348739D01*
X157953634Y-91348736D01*
X157892824Y-91135014D01*
X157793780Y-90936105D01*
X157659867Y-90758775D01*
X157495655Y-90609076D01*
X157306732Y-90492101D01*
X157306730Y-90492100D01*
X157099528Y-90411829D01*
X156881104Y-90370999D01*
X156658896Y-90370999D01*
X156440472Y-90411828D01*
X156440472Y-90411829D01*
X156233267Y-90492101D01*
X156044344Y-90609076D01*
X155880132Y-90758775D01*
X155746219Y-90936105D01*
X155647175Y-91135014D01*
X155586365Y-91348736D01*
X155565863Y-91569998D01*
X148520500Y-91569998D01*
X148520500Y-87150000D01*
X165286367Y-87150000D01*
X165306860Y-87371169D01*
X165367644Y-87584801D01*
X165466651Y-87783632D01*
X165482211Y-87804235D01*
X166136448Y-87150001D01*
X166136448Y-87150000D01*
X166843554Y-87150000D01*
X167497789Y-87804235D01*
X167497790Y-87804235D01*
X167513350Y-87783631D01*
X167612357Y-87584801D01*
X167673141Y-87371169D01*
X167693634Y-87150000D01*
X167673141Y-86928830D01*
X167612356Y-86715196D01*
X167513351Y-86516368D01*
X167497790Y-86495762D01*
X166843554Y-87150000D01*
X166136448Y-87150000D01*
X165482211Y-86495762D01*
X165482210Y-86495762D01*
X165466650Y-86516367D01*
X165367645Y-86715196D01*
X165306860Y-86928830D01*
X165286367Y-87150000D01*
X148520500Y-87150000D01*
X148520500Y-83999891D01*
X154045864Y-83999891D01*
X154066366Y-84221154D01*
X154127176Y-84434876D01*
X154226220Y-84633785D01*
X154360133Y-84811115D01*
X154524345Y-84960814D01*
X154643962Y-85034877D01*
X154713271Y-85077791D01*
X154920473Y-85158062D01*
X155138897Y-85198892D01*
X155361103Y-85198892D01*
X155361105Y-85198892D01*
X155579529Y-85158062D01*
X155786731Y-85077791D01*
X155975656Y-84960814D01*
X156139869Y-84811114D01*
X156273779Y-84633788D01*
X156273779Y-84633786D01*
X156273781Y-84633785D01*
X156285624Y-84610000D01*
X165285864Y-84610000D01*
X165306366Y-84831262D01*
X165367176Y-85044984D01*
X165466220Y-85243893D01*
X165600133Y-85421223D01*
X165764345Y-85570922D01*
X165953267Y-85687897D01*
X165953269Y-85687897D01*
X165953271Y-85687899D01*
X166151371Y-85764643D01*
X166199738Y-85798437D01*
X166227012Y-85850764D01*
X166227012Y-85909772D01*
X166199738Y-85962098D01*
X166151367Y-85995894D01*
X165953497Y-86072549D01*
X165837761Y-86144208D01*
X166490001Y-86796447D01*
X166490002Y-86796447D01*
X167142239Y-86144208D01*
X167142238Y-86144207D01*
X167026510Y-86072552D01*
X166828634Y-85995895D01*
X166780263Y-85962099D01*
X166752989Y-85909772D01*
X166752989Y-85880000D01*
X167825864Y-85880000D01*
X167826944Y-85891659D01*
X167846366Y-86101262D01*
X167907176Y-86314984D01*
X168006220Y-86513893D01*
X168140133Y-86691223D01*
X168304345Y-86840922D01*
X168493267Y-86957897D01*
X168493269Y-86957897D01*
X168493271Y-86957899D01*
X168691371Y-87034643D01*
X168739738Y-87068437D01*
X168767012Y-87120764D01*
X168767012Y-87179772D01*
X168739738Y-87232098D01*
X168691367Y-87265894D01*
X168493497Y-87342549D01*
X168377761Y-87414208D01*
X169030001Y-88066447D01*
X169030002Y-88066447D01*
X169682239Y-87414208D01*
X169682238Y-87414207D01*
X169566510Y-87342552D01*
X169368634Y-87265895D01*
X169320263Y-87232099D01*
X169292989Y-87179772D01*
X169292989Y-87120764D01*
X169320263Y-87068437D01*
X169368628Y-87034644D01*
X169566731Y-86957899D01*
X169755656Y-86840922D01*
X169841063Y-86763063D01*
X169919868Y-86691223D01*
X169930835Y-86676700D01*
X170053779Y-86513896D01*
X170053779Y-86513894D01*
X170053781Y-86513893D01*
X170152825Y-86314984D01*
X170213635Y-86101262D01*
X170220110Y-86031385D01*
X170234138Y-85880000D01*
X170213635Y-85658740D01*
X170213635Y-85658737D01*
X170152825Y-85445015D01*
X170053781Y-85246106D01*
X169919868Y-85068776D01*
X169755656Y-84919077D01*
X169566733Y-84802102D01*
X169566731Y-84802101D01*
X169369325Y-84725625D01*
X169320957Y-84691831D01*
X169293683Y-84639504D01*
X169293683Y-84580496D01*
X169320957Y-84528169D01*
X169369325Y-84494374D01*
X169566731Y-84417899D01*
X169755656Y-84300922D01*
X169843157Y-84221154D01*
X169919868Y-84151223D01*
X169954051Y-84105957D01*
X170053779Y-83973896D01*
X170053779Y-83973894D01*
X170053781Y-83973893D01*
X170152825Y-83774984D01*
X170213635Y-83561262D01*
X170219319Y-83499921D01*
X170234138Y-83340000D01*
X170215606Y-83140013D01*
X170213635Y-83118737D01*
X170152825Y-82905015D01*
X170053781Y-82706106D01*
X169919868Y-82528776D01*
X169755656Y-82379077D01*
X169566733Y-82262102D01*
X169566731Y-82262101D01*
X169359529Y-82181830D01*
X169141105Y-82141000D01*
X168918897Y-82141000D01*
X168760239Y-82170658D01*
X168700473Y-82181830D01*
X168493268Y-82262102D01*
X168304345Y-82379077D01*
X168140133Y-82528776D01*
X168006220Y-82706106D01*
X167907176Y-82905015D01*
X167846366Y-83118737D01*
X167825864Y-83339999D01*
X167846366Y-83561262D01*
X167907176Y-83774984D01*
X168006220Y-83973893D01*
X168140133Y-84151223D01*
X168304345Y-84300922D01*
X168493272Y-84417900D01*
X168690673Y-84494374D01*
X168739044Y-84528169D01*
X168766318Y-84580496D01*
X168766318Y-84639504D01*
X168739044Y-84691831D01*
X168690673Y-84725626D01*
X168493272Y-84802099D01*
X168304345Y-84919077D01*
X168140133Y-85068776D01*
X168006220Y-85246106D01*
X167907176Y-85445015D01*
X167846366Y-85658737D01*
X167827161Y-85866000D01*
X167825864Y-85880000D01*
X166752989Y-85880000D01*
X166752989Y-85850764D01*
X166780263Y-85798437D01*
X166828628Y-85764644D01*
X167026731Y-85687899D01*
X167215656Y-85570922D01*
X167379869Y-85421222D01*
X167513779Y-85243896D01*
X167513779Y-85243894D01*
X167513781Y-85243893D01*
X167612825Y-85044984D01*
X167673635Y-84831262D01*
X167678652Y-84777119D01*
X167694138Y-84610000D01*
X167676579Y-84420513D01*
X167673635Y-84388737D01*
X167612825Y-84175015D01*
X167513781Y-83976106D01*
X167379868Y-83798776D01*
X167215656Y-83649077D01*
X167026733Y-83532102D01*
X167026731Y-83532101D01*
X166819529Y-83451830D01*
X166601105Y-83411000D01*
X166378897Y-83411000D01*
X166224674Y-83439829D01*
X166160473Y-83451830D01*
X165953268Y-83532102D01*
X165764345Y-83649077D01*
X165600133Y-83798776D01*
X165466220Y-83976106D01*
X165367176Y-84175015D01*
X165306366Y-84388737D01*
X165285864Y-84610000D01*
X156285624Y-84610000D01*
X156372825Y-84434876D01*
X156433635Y-84221154D01*
X156440115Y-84151222D01*
X156454138Y-83999892D01*
X156434674Y-83789847D01*
X156433635Y-83778629D01*
X156372825Y-83564907D01*
X156273781Y-83365998D01*
X156139868Y-83188668D01*
X155975656Y-83038969D01*
X155786733Y-82921994D01*
X155786731Y-82921993D01*
X155579529Y-82841722D01*
X155361105Y-82800892D01*
X155138897Y-82800892D01*
X154926181Y-82840655D01*
X154920473Y-82841722D01*
X154713268Y-82921994D01*
X154524345Y-83038969D01*
X154360133Y-83188668D01*
X154226220Y-83365998D01*
X154127176Y-83564907D01*
X154066366Y-83778629D01*
X154045864Y-83999891D01*
X148520500Y-83999891D01*
X148520500Y-81459891D01*
X155565863Y-81459891D01*
X155586365Y-81681154D01*
X155647175Y-81894876D01*
X155746219Y-82093785D01*
X155880132Y-82271115D01*
X156044344Y-82420814D01*
X156163961Y-82494877D01*
X156233270Y-82537791D01*
X156440472Y-82618062D01*
X156658896Y-82658892D01*
X156881102Y-82658892D01*
X156881104Y-82658892D01*
X157099528Y-82618062D01*
X157306730Y-82537791D01*
X157495655Y-82420814D01*
X157617366Y-82309860D01*
X157659867Y-82271115D01*
X157659868Y-82271114D01*
X157759750Y-82138848D01*
X158266129Y-82138848D01*
X158296229Y-82412407D01*
X158331621Y-82547783D01*
X158365840Y-82678671D01*
X158473476Y-82931961D01*
X158586257Y-83116759D01*
X158616846Y-83166881D01*
X158713738Y-83283308D01*
X158792890Y-83378419D01*
X158997860Y-83562073D01*
X159227385Y-83713926D01*
X159476575Y-83830741D01*
X159740117Y-83910029D01*
X160012395Y-83950100D01*
X160218712Y-83950100D01*
X160218716Y-83950100D01*
X160424479Y-83935040D01*
X160536761Y-83910028D01*
X160693105Y-83875201D01*
X160950157Y-83776887D01*
X161190154Y-83642193D01*
X161407983Y-83473992D01*
X161599000Y-83275866D01*
X161759134Y-83052040D01*
X161884972Y-82807283D01*
X161973833Y-82546812D01*
X162023821Y-82276179D01*
X162033872Y-82001151D01*
X162003772Y-81727591D01*
X161934162Y-81461329D01*
X161826526Y-81208039D01*
X161755992Y-81092466D01*
X161737998Y-81034172D01*
X161747208Y-80988193D01*
X161711622Y-80983635D01*
X161661978Y-80947671D01*
X161580126Y-80849316D01*
X161507112Y-80761581D01*
X161302142Y-80577927D01*
X161072617Y-80426074D01*
X160896705Y-80343610D01*
X160823426Y-80309258D01*
X160639172Y-80253824D01*
X160559885Y-80229971D01*
X160287607Y-80189900D01*
X160081290Y-80189900D01*
X160081286Y-80189900D01*
X159875522Y-80204959D01*
X159606898Y-80264798D01*
X159349845Y-80363112D01*
X159109848Y-80497807D01*
X158892017Y-80666008D01*
X158701004Y-80864130D01*
X158540865Y-81087964D01*
X158415030Y-81332715D01*
X158326168Y-81593188D01*
X158276180Y-81863820D01*
X158266129Y-82138848D01*
X157759750Y-82138848D01*
X157793778Y-82093788D01*
X157793778Y-82093786D01*
X157793780Y-82093785D01*
X157892824Y-81894876D01*
X157953634Y-81681154D01*
X157960513Y-81606919D01*
X157974137Y-81459892D01*
X157953634Y-81238632D01*
X157953634Y-81238629D01*
X157892824Y-81024907D01*
X157793780Y-80825998D01*
X157659867Y-80648668D01*
X157495655Y-80498969D01*
X157306732Y-80381994D01*
X157306730Y-80381993D01*
X157099528Y-80301722D01*
X156881104Y-80260892D01*
X156658896Y-80260892D01*
X156503512Y-80289938D01*
X156440472Y-80301722D01*
X156233267Y-80381994D01*
X156044344Y-80498969D01*
X155880132Y-80648668D01*
X155746219Y-80825998D01*
X155647175Y-81024907D01*
X155586365Y-81238629D01*
X155565863Y-81459891D01*
X148520500Y-81459891D01*
X148520500Y-80009999D01*
X161640593Y-80009999D01*
X161659792Y-80253946D01*
X161716915Y-80491883D01*
X161762393Y-80601675D01*
X161810558Y-80717956D01*
X161842977Y-80770859D01*
X161863017Y-80803561D01*
X161881134Y-80862125D01*
X161871851Y-80908024D01*
X161906310Y-80912119D01*
X161956128Y-80947338D01*
X161956849Y-80948182D01*
X162097333Y-81112667D01*
X162283404Y-81271587D01*
X162492044Y-81399442D01*
X162642636Y-81461819D01*
X162718116Y-81493084D01*
X162790643Y-81510496D01*
X162956055Y-81550208D01*
X163200000Y-81569407D01*
X163443945Y-81550208D01*
X163681883Y-81493084D01*
X163907956Y-81399442D01*
X164116596Y-81271587D01*
X164302667Y-81112667D01*
X164461587Y-80926596D01*
X164589442Y-80717956D01*
X164683084Y-80491883D01*
X164740208Y-80253945D01*
X164759407Y-80010000D01*
X164740208Y-79766055D01*
X164726750Y-79710000D01*
X174604877Y-79710000D01*
X174623308Y-79873580D01*
X174677677Y-80028957D01*
X174765257Y-80168341D01*
X174881658Y-80284742D01*
X175021042Y-80372322D01*
X175176419Y-80426691D01*
X175339999Y-80445122D01*
X175339999Y-80445121D01*
X175340000Y-80445122D01*
X175503580Y-80426691D01*
X175658957Y-80372322D01*
X175798341Y-80284742D01*
X175914742Y-80168341D01*
X176002322Y-80028957D01*
X176056691Y-79873580D01*
X176075122Y-79710000D01*
X176060755Y-79582489D01*
X176056691Y-79546419D01*
X176002322Y-79391042D01*
X175914742Y-79251658D01*
X175798341Y-79135257D01*
X175658957Y-79047677D01*
X175503580Y-78993308D01*
X175340000Y-78974877D01*
X175176419Y-78993308D01*
X175021042Y-79047677D01*
X174881658Y-79135257D01*
X174765257Y-79251658D01*
X174677677Y-79391042D01*
X174623308Y-79546419D01*
X174604877Y-79710000D01*
X164726750Y-79710000D01*
X164687815Y-79547821D01*
X164683084Y-79528116D01*
X164651502Y-79451871D01*
X164589442Y-79302044D01*
X164461587Y-79093404D01*
X164302667Y-78907333D01*
X164116596Y-78748413D01*
X163907956Y-78620558D01*
X163818231Y-78583393D01*
X163681883Y-78526915D01*
X163443946Y-78469792D01*
X163200000Y-78450593D01*
X162956053Y-78469792D01*
X162718116Y-78526915D01*
X162492042Y-78620559D01*
X162283405Y-78748412D01*
X162097333Y-78907333D01*
X161938412Y-79093405D01*
X161810559Y-79302042D01*
X161716915Y-79528116D01*
X161659792Y-79766053D01*
X161640593Y-80009999D01*
X148520500Y-80009999D01*
X148520500Y-75065465D01*
X149668087Y-75065465D01*
X149671895Y-75068718D01*
X149889982Y-75202361D01*
X150126294Y-75300246D01*
X150375006Y-75359956D01*
X150630000Y-75380024D01*
X150884993Y-75359956D01*
X151133705Y-75300246D01*
X151370012Y-75202363D01*
X151588108Y-75068715D01*
X151591911Y-75065465D01*
X154748087Y-75065465D01*
X154751895Y-75068718D01*
X154969982Y-75202361D01*
X155206294Y-75300246D01*
X155455006Y-75359956D01*
X155710000Y-75380024D01*
X155964993Y-75359956D01*
X156213705Y-75300246D01*
X156450012Y-75202363D01*
X156668108Y-75068715D01*
X156671911Y-75065465D01*
X156671912Y-75065464D01*
X155710000Y-74103553D01*
X154748087Y-75065464D01*
X154748087Y-75065465D01*
X151591911Y-75065465D01*
X151591912Y-75065464D01*
X150630000Y-74103553D01*
X149668087Y-75065464D01*
X149668087Y-75065465D01*
X148520500Y-75065465D01*
X148520500Y-73750000D01*
X148999975Y-73750000D01*
X149020043Y-74004993D01*
X149079753Y-74253705D01*
X149177636Y-74490012D01*
X149311284Y-74708108D01*
X149314533Y-74711911D01*
X149314535Y-74711911D01*
X150276447Y-73750001D01*
X150983553Y-73750001D01*
X151945464Y-74711912D01*
X151945465Y-74711911D01*
X151948715Y-74708108D01*
X152082363Y-74490012D01*
X152180246Y-74253705D01*
X152239956Y-74004993D01*
X152260024Y-73750000D01*
X154079975Y-73750000D01*
X154100043Y-74004993D01*
X154159753Y-74253705D01*
X154257636Y-74490012D01*
X154391284Y-74708108D01*
X154394533Y-74711911D01*
X154394535Y-74711911D01*
X155356447Y-73750001D01*
X156063553Y-73750001D01*
X157025464Y-74711912D01*
X157025465Y-74711911D01*
X157028715Y-74708108D01*
X157162363Y-74490012D01*
X157260246Y-74253705D01*
X157319956Y-74004993D01*
X157340024Y-73750000D01*
X157319956Y-73495006D01*
X157260246Y-73246294D01*
X157162361Y-73009982D01*
X157028718Y-72791895D01*
X157025465Y-72788087D01*
X157025464Y-72788087D01*
X156063553Y-73750000D01*
X156063553Y-73750001D01*
X155356447Y-73750001D01*
X155356447Y-73749999D01*
X154394534Y-72788087D01*
X154394533Y-72788087D01*
X154391281Y-72791895D01*
X154257638Y-73009982D01*
X154159753Y-73246294D01*
X154100043Y-73495006D01*
X154079975Y-73750000D01*
X152260024Y-73750000D01*
X152239956Y-73495006D01*
X152180246Y-73246294D01*
X152082361Y-73009982D01*
X151948718Y-72791895D01*
X151945465Y-72788087D01*
X151945464Y-72788087D01*
X150983553Y-73750000D01*
X150983553Y-73750001D01*
X150276447Y-73750001D01*
X150276447Y-73750000D01*
X149314534Y-72788087D01*
X149314533Y-72788087D01*
X149311281Y-72791895D01*
X149177638Y-73009982D01*
X149079753Y-73246294D01*
X149020043Y-73495006D01*
X148999975Y-73750000D01*
X148520500Y-73750000D01*
X148520500Y-72434534D01*
X149668087Y-72434534D01*
X150630000Y-73396447D01*
X150630001Y-73396447D01*
X151591911Y-72434535D01*
X151591911Y-72434533D01*
X151588108Y-72431284D01*
X151370012Y-72297636D01*
X151133705Y-72199753D01*
X150884993Y-72140043D01*
X150630000Y-72119975D01*
X150375006Y-72140043D01*
X150126294Y-72199753D01*
X149889982Y-72297638D01*
X149671895Y-72431281D01*
X149668087Y-72434533D01*
X149668087Y-72434534D01*
X148520500Y-72434534D01*
X148520500Y-71210000D01*
X151639783Y-71210000D01*
X151658623Y-71449380D01*
X151714676Y-71682863D01*
X151762235Y-71797678D01*
X151806567Y-71904704D01*
X151932028Y-72109439D01*
X152087973Y-72292027D01*
X152270561Y-72447972D01*
X152475296Y-72573433D01*
X152632160Y-72638408D01*
X152697136Y-72665323D01*
X152770898Y-72683031D01*
X152930621Y-72721377D01*
X153170000Y-72740217D01*
X153409379Y-72721377D01*
X153642863Y-72665323D01*
X153864704Y-72573433D01*
X154069439Y-72447972D01*
X154085173Y-72434534D01*
X154748087Y-72434534D01*
X155710000Y-73396447D01*
X155710001Y-73396447D01*
X156671911Y-72434535D01*
X156671911Y-72434533D01*
X156668108Y-72431284D01*
X156450012Y-72297636D01*
X156213705Y-72199753D01*
X155964993Y-72140043D01*
X155710000Y-72119975D01*
X155455006Y-72140043D01*
X155206294Y-72199753D01*
X154969982Y-72297638D01*
X154751895Y-72431281D01*
X154748087Y-72434533D01*
X154748087Y-72434534D01*
X154085173Y-72434534D01*
X154252027Y-72292027D01*
X154407972Y-72109439D01*
X154533433Y-71904704D01*
X154625323Y-71682863D01*
X154681377Y-71449379D01*
X154700217Y-71210000D01*
X154681377Y-70970621D01*
X154671625Y-70930000D01*
X163984877Y-70930000D01*
X164003308Y-71093580D01*
X164057677Y-71248957D01*
X164145257Y-71388341D01*
X164261658Y-71504742D01*
X164401042Y-71592322D01*
X164556419Y-71646691D01*
X164720000Y-71665122D01*
X164883580Y-71646691D01*
X165038957Y-71592322D01*
X165069699Y-71573005D01*
X165135670Y-71554000D01*
X169255021Y-71554000D01*
X169302474Y-71563439D01*
X169342702Y-71590319D01*
X179359302Y-81606919D01*
X179369997Y-81619114D01*
X179387749Y-81642249D01*
X179410879Y-81659997D01*
X179410889Y-81660006D01*
X179505565Y-81732652D01*
X179505566Y-81732652D01*
X179505567Y-81732653D01*
X179642766Y-81789483D01*
X179772870Y-81806611D01*
X179789999Y-81808867D01*
X179789999Y-81808866D01*
X179790000Y-81808867D01*
X179818910Y-81805060D01*
X179835094Y-81804000D01*
X182668839Y-81804000D01*
X182734810Y-81823006D01*
X182861042Y-81902322D01*
X183016419Y-81956691D01*
X183180000Y-81975122D01*
X183343580Y-81956691D01*
X183498957Y-81902322D01*
X183638341Y-81814742D01*
X183693084Y-81759999D01*
X186864877Y-81759999D01*
X186883308Y-81923580D01*
X186937677Y-82078957D01*
X187025257Y-82218341D01*
X187141658Y-82334742D01*
X187281042Y-82422322D01*
X187436419Y-82476691D01*
X187600000Y-82495122D01*
X187763580Y-82476691D01*
X187918957Y-82422322D01*
X188058341Y-82334742D01*
X188174742Y-82218341D01*
X188262322Y-82078957D01*
X188316691Y-81923580D01*
X188335122Y-81760000D01*
X188332677Y-81738304D01*
X188316691Y-81596419D01*
X188262322Y-81441042D01*
X188174742Y-81301658D01*
X188058341Y-81185257D01*
X187918957Y-81097677D01*
X187763580Y-81043308D01*
X187600000Y-81024877D01*
X187436419Y-81043308D01*
X187281042Y-81097677D01*
X187141658Y-81185257D01*
X187025257Y-81301658D01*
X186937677Y-81441042D01*
X186883308Y-81596419D01*
X186864877Y-81759999D01*
X183693084Y-81759999D01*
X183754742Y-81698341D01*
X183818835Y-81596335D01*
X183870025Y-81550590D01*
X183937711Y-81539090D01*
X184080000Y-81555122D01*
X184243580Y-81536691D01*
X184398957Y-81482322D01*
X184538341Y-81394742D01*
X184654742Y-81278341D01*
X184742322Y-81138957D01*
X184796691Y-80983580D01*
X184815122Y-80820000D01*
X184796691Y-80656420D01*
X184793978Y-80648668D01*
X184742322Y-80501042D01*
X184654742Y-80361658D01*
X184538341Y-80245257D01*
X184398957Y-80157677D01*
X184243581Y-80103308D01*
X184193545Y-80097671D01*
X184153627Y-80086171D01*
X184119748Y-80062132D01*
X183357616Y-79300000D01*
X191454356Y-79300000D01*
X191474891Y-79547816D01*
X191474891Y-79547819D01*
X191474892Y-79547821D01*
X191535937Y-79788881D01*
X191580738Y-79891016D01*
X191635825Y-80016604D01*
X191635827Y-80016607D01*
X191771836Y-80224785D01*
X191940256Y-80407738D01*
X191940259Y-80407740D01*
X192136485Y-80560470D01*
X192136487Y-80560471D01*
X192136491Y-80560474D01*
X192355190Y-80678828D01*
X192590386Y-80759571D01*
X192835665Y-80800500D01*
X193084335Y-80800500D01*
X193329614Y-80759571D01*
X193564810Y-80678828D01*
X193783509Y-80560474D01*
X193979744Y-80407738D01*
X194148164Y-80224785D01*
X194284173Y-80016607D01*
X194384063Y-79788881D01*
X194445108Y-79547821D01*
X194465643Y-79300000D01*
X194445108Y-79052179D01*
X194384063Y-78811119D01*
X194284173Y-78583393D01*
X194148164Y-78375215D01*
X193979744Y-78192262D01*
X193957612Y-78175036D01*
X193783514Y-78039529D01*
X193783510Y-78039526D01*
X193783509Y-78039526D01*
X193564810Y-77921172D01*
X193564806Y-77921170D01*
X193564805Y-77921170D01*
X193329615Y-77840429D01*
X193084335Y-77799500D01*
X192835665Y-77799500D01*
X192590384Y-77840429D01*
X192355194Y-77921170D01*
X192136485Y-78039529D01*
X191940259Y-78192259D01*
X191940256Y-78192261D01*
X191940256Y-78192262D01*
X191771836Y-78375215D01*
X191726499Y-78444607D01*
X191635825Y-78583395D01*
X191563443Y-78748412D01*
X191535937Y-78811119D01*
X191489800Y-78993308D01*
X191474891Y-79052183D01*
X191454356Y-79300000D01*
X183357616Y-79300000D01*
X179137616Y-75080000D01*
X182504877Y-75080000D01*
X182523308Y-75243580D01*
X182577677Y-75398957D01*
X182665257Y-75538341D01*
X182781658Y-75654742D01*
X182921042Y-75742322D01*
X183076419Y-75796691D01*
X183240000Y-75815122D01*
X183403580Y-75796691D01*
X183558957Y-75742322D01*
X183698341Y-75654742D01*
X183814742Y-75538341D01*
X183902322Y-75398957D01*
X183956691Y-75243580D01*
X183975122Y-75080000D01*
X183956691Y-74916420D01*
X183935289Y-74855258D01*
X183902322Y-74761042D01*
X183814742Y-74621658D01*
X183698341Y-74505257D01*
X183558957Y-74417677D01*
X183403580Y-74363308D01*
X183240000Y-74344877D01*
X183076419Y-74363308D01*
X182921042Y-74417677D01*
X182781658Y-74505257D01*
X182665257Y-74621658D01*
X182577677Y-74761042D01*
X182523308Y-74916419D01*
X182504877Y-75080000D01*
X179137616Y-75080000D01*
X177487116Y-73429500D01*
X172227617Y-68170000D01*
X196864877Y-68170000D01*
X196883308Y-68333580D01*
X196937677Y-68488957D01*
X197025257Y-68628341D01*
X197141658Y-68744742D01*
X197281042Y-68832322D01*
X197436420Y-68886691D01*
X197486451Y-68892328D01*
X197526370Y-68903828D01*
X197560250Y-68927867D01*
X197775087Y-69142704D01*
X197808297Y-69202792D01*
X197804448Y-69271339D01*
X197764719Y-69327332D01*
X197701290Y-69353605D01*
X197526419Y-69373308D01*
X197371042Y-69427677D01*
X197231658Y-69515257D01*
X197115257Y-69631658D01*
X197027677Y-69771042D01*
X196973308Y-69926419D01*
X196954877Y-70090000D01*
X196973308Y-70253580D01*
X197027677Y-70408957D01*
X197115257Y-70548341D01*
X197231658Y-70664742D01*
X197371042Y-70752322D01*
X197526420Y-70806691D01*
X197576451Y-70812328D01*
X197616370Y-70823828D01*
X197650250Y-70847867D01*
X197799681Y-70997298D01*
X197826561Y-71037526D01*
X197836000Y-71084979D01*
X197836000Y-81641921D01*
X197826561Y-81689374D01*
X197799681Y-81729602D01*
X197797015Y-81732267D01*
X197709435Y-81871651D01*
X197655066Y-82027028D01*
X197636635Y-82190608D01*
X197655066Y-82354189D01*
X197709435Y-82509566D01*
X197797015Y-82648950D01*
X197913416Y-82765351D01*
X197918421Y-82768496D01*
X197957442Y-82807517D01*
X197975668Y-82859606D01*
X197969490Y-82914442D01*
X197932830Y-83019210D01*
X197923308Y-83046423D01*
X197904877Y-83210000D01*
X197923308Y-83373580D01*
X197977677Y-83528957D01*
X198065257Y-83668341D01*
X198181658Y-83784742D01*
X198321042Y-83872322D01*
X198476419Y-83926691D01*
X198639999Y-83945122D01*
X198639999Y-83945121D01*
X198640000Y-83945122D01*
X198803580Y-83926691D01*
X198918881Y-83886344D01*
X198987426Y-83882494D01*
X199047515Y-83915702D01*
X199080726Y-83975788D01*
X199077796Y-84028002D01*
X199079244Y-84028166D01*
X199059248Y-84205629D01*
X199077679Y-84369209D01*
X199132048Y-84524586D01*
X199219628Y-84663970D01*
X199336029Y-84780371D01*
X199475413Y-84867951D01*
X199630790Y-84922320D01*
X199794371Y-84940751D01*
X199957951Y-84922320D01*
X200113328Y-84867951D01*
X200252712Y-84780371D01*
X200369113Y-84663970D01*
X200456693Y-84524586D01*
X200511062Y-84369209D01*
X200529493Y-84205629D01*
X200511062Y-84042049D01*
X200496348Y-84000000D01*
X200456693Y-83886671D01*
X200369113Y-83747287D01*
X200252714Y-83630888D01*
X200234523Y-83619458D01*
X200190010Y-83570759D01*
X200176776Y-83506122D01*
X200198567Y-83443847D01*
X200249215Y-83401564D01*
X200314380Y-83391244D01*
X200324164Y-83392346D01*
X200340891Y-83394231D01*
X200340891Y-83394230D01*
X200340892Y-83394231D01*
X200399503Y-83387627D01*
X200504471Y-83375800D01*
X200557163Y-83357361D01*
X200611999Y-83351183D01*
X200664088Y-83369409D01*
X200808462Y-83460124D01*
X200963839Y-83514493D01*
X201127420Y-83532924D01*
X201291000Y-83514493D01*
X201446377Y-83460124D01*
X201585761Y-83372544D01*
X201702162Y-83256143D01*
X201789742Y-83116759D01*
X201844111Y-82961382D01*
X201846829Y-82937253D01*
X201868120Y-82880524D01*
X201913753Y-82840655D01*
X201972831Y-82827170D01*
X202031244Y-82843291D01*
X202075043Y-82885168D01*
X202104332Y-82931782D01*
X202220733Y-83048183D01*
X202360117Y-83135763D01*
X202515494Y-83190132D01*
X202679075Y-83208563D01*
X202842655Y-83190132D01*
X202998032Y-83135763D01*
X203137416Y-83048183D01*
X203253817Y-82931782D01*
X203341397Y-82792398D01*
X203395766Y-82637021D01*
X203414197Y-82473441D01*
X203399101Y-82339461D01*
X203395766Y-82309860D01*
X203341397Y-82154483D01*
X203253817Y-82015099D01*
X203137416Y-81898698D01*
X202998032Y-81811118D01*
X202842655Y-81756749D01*
X202679075Y-81738318D01*
X202515494Y-81756749D01*
X202360117Y-81811118D01*
X202220733Y-81898698D01*
X202104332Y-82015099D01*
X202016752Y-82154483D01*
X201962383Y-82309860D01*
X201959665Y-82333988D01*
X201938372Y-82390720D01*
X201892739Y-82430588D01*
X201833661Y-82444072D01*
X201775249Y-82427950D01*
X201731451Y-82386075D01*
X201710424Y-82352611D01*
X201691420Y-82286641D01*
X201691420Y-81120000D01*
X212394877Y-81120000D01*
X212413308Y-81283580D01*
X212467677Y-81438957D01*
X212555257Y-81578341D01*
X212671658Y-81694742D01*
X212811042Y-81782322D01*
X212966419Y-81836691D01*
X213130000Y-81855122D01*
X213293580Y-81836691D01*
X213448957Y-81782322D01*
X213588341Y-81694742D01*
X213704742Y-81578341D01*
X213792322Y-81438957D01*
X213846691Y-81283580D01*
X213865122Y-81120000D01*
X213846691Y-80956420D01*
X213843808Y-80948182D01*
X213792322Y-80801042D01*
X213704742Y-80661658D01*
X213588341Y-80545257D01*
X213448957Y-80457677D01*
X213293580Y-80403308D01*
X213130000Y-80384877D01*
X212966419Y-80403308D01*
X212811042Y-80457677D01*
X212671658Y-80545257D01*
X212555257Y-80661658D01*
X212467677Y-80801042D01*
X212413308Y-80956419D01*
X212394877Y-81120000D01*
X201691420Y-81120000D01*
X201691420Y-80114194D01*
X208439071Y-80114194D01*
X208457502Y-80277774D01*
X208511871Y-80433151D01*
X208599451Y-80572535D01*
X208715852Y-80688936D01*
X208855236Y-80776516D01*
X209010613Y-80830885D01*
X209174194Y-80849316D01*
X209337774Y-80830885D01*
X209491659Y-80777037D01*
X209546497Y-80770859D01*
X209598585Y-80789085D01*
X209731016Y-80872296D01*
X209886393Y-80926665D01*
X210049974Y-80945096D01*
X210213554Y-80926665D01*
X210368931Y-80872296D01*
X210508315Y-80784716D01*
X210624716Y-80668315D01*
X210712296Y-80528931D01*
X210766665Y-80373554D01*
X210785096Y-80209974D01*
X210775760Y-80127112D01*
X210766665Y-80046393D01*
X210712296Y-79891016D01*
X210624716Y-79751632D01*
X210508315Y-79635231D01*
X210368931Y-79547651D01*
X210213554Y-79493282D01*
X210049974Y-79474851D01*
X209886396Y-79493282D01*
X209732507Y-79547130D01*
X209677670Y-79553308D01*
X209625582Y-79535082D01*
X209493151Y-79451871D01*
X209337774Y-79397502D01*
X209174194Y-79379071D01*
X209010613Y-79397502D01*
X208855236Y-79451871D01*
X208715852Y-79539451D01*
X208599451Y-79655852D01*
X208511871Y-79795236D01*
X208457502Y-79950613D01*
X208439071Y-80114194D01*
X201691420Y-80114194D01*
X201691420Y-77517847D01*
X201710426Y-77451875D01*
X201761618Y-77406127D01*
X201829304Y-77394627D01*
X201892733Y-77420900D01*
X201932460Y-77476889D01*
X201957678Y-77548957D01*
X201957680Y-77548960D01*
X202045257Y-77688341D01*
X202161658Y-77804742D01*
X202301042Y-77892322D01*
X202456419Y-77946691D01*
X202620000Y-77965122D01*
X202783580Y-77946691D01*
X202938957Y-77892322D01*
X203078341Y-77804742D01*
X203194742Y-77688341D01*
X203277005Y-77557418D01*
X203323240Y-77514195D01*
X203384782Y-77499420D01*
X203445599Y-77516941D01*
X203489848Y-77562194D01*
X203506000Y-77623389D01*
X203506000Y-78038839D01*
X203486994Y-78104810D01*
X203407677Y-78231042D01*
X203353308Y-78386419D01*
X203334877Y-78550000D01*
X203353308Y-78713580D01*
X203407677Y-78868957D01*
X203495257Y-79008341D01*
X203611658Y-79124742D01*
X203751042Y-79212322D01*
X203906419Y-79266691D01*
X204069999Y-79285122D01*
X204069999Y-79285121D01*
X204070000Y-79285122D01*
X204164270Y-79274500D01*
X204231955Y-79286000D01*
X204283148Y-79331748D01*
X204375259Y-79478343D01*
X204491658Y-79594742D01*
X204631042Y-79682322D01*
X204786419Y-79736691D01*
X204950000Y-79755122D01*
X205113580Y-79736691D01*
X205268957Y-79682322D01*
X205408341Y-79594742D01*
X205524742Y-79478341D01*
X205612322Y-79338957D01*
X205666691Y-79183580D01*
X205685122Y-79020000D01*
X205666691Y-78856420D01*
X205650839Y-78811119D01*
X205612322Y-78701042D01*
X205524742Y-78561658D01*
X205408341Y-78445257D01*
X205268957Y-78357677D01*
X205113580Y-78303308D01*
X204949999Y-78284877D01*
X204855727Y-78295499D01*
X204788042Y-78283999D01*
X204736850Y-78238250D01*
X204653006Y-78104810D01*
X204634000Y-78038839D01*
X204634000Y-76966395D01*
X215361273Y-76966395D01*
X215379704Y-77129976D01*
X215434073Y-77285353D01*
X215521653Y-77424737D01*
X215638054Y-77541138D01*
X215777438Y-77628718D01*
X215932815Y-77683087D01*
X216096396Y-77701518D01*
X216259976Y-77683087D01*
X216415353Y-77628718D01*
X216554737Y-77541138D01*
X216671138Y-77424737D01*
X216758718Y-77285353D01*
X216813087Y-77129976D01*
X216823462Y-77037894D01*
X216845552Y-76980023D01*
X216892880Y-76940058D01*
X216953634Y-76927973D01*
X217012653Y-76946784D01*
X217101042Y-77002322D01*
X217256419Y-77056691D01*
X217419999Y-77075122D01*
X217419999Y-77075121D01*
X217420000Y-77075122D01*
X217583580Y-77056691D01*
X217738957Y-77002322D01*
X217878341Y-76914742D01*
X217994742Y-76798341D01*
X218082322Y-76658957D01*
X218136691Y-76503580D01*
X218155122Y-76340000D01*
X218153587Y-76326373D01*
X218150969Y-76303136D01*
X218157148Y-76248296D01*
X218186510Y-76201569D01*
X218233238Y-76172209D01*
X218266318Y-76168482D01*
X218266116Y-76166687D01*
X218443580Y-76146691D01*
X218598957Y-76092322D01*
X218738341Y-76004742D01*
X218854742Y-75888341D01*
X218942322Y-75748957D01*
X218996691Y-75593580D01*
X219015122Y-75430000D01*
X218996691Y-75266419D01*
X218942322Y-75111042D01*
X218854742Y-74971658D01*
X218738341Y-74855257D01*
X218598957Y-74767677D01*
X218443580Y-74713308D01*
X218280000Y-74694877D01*
X218116419Y-74713308D01*
X217961042Y-74767677D01*
X217821658Y-74855257D01*
X217705257Y-74971658D01*
X217617677Y-75111042D01*
X217563308Y-75266419D01*
X217544877Y-75429999D01*
X217549031Y-75466863D01*
X217542854Y-75521698D01*
X217513498Y-75568423D01*
X217466777Y-75597785D01*
X217433681Y-75601517D01*
X217433884Y-75603313D01*
X217256419Y-75623308D01*
X217101042Y-75677677D01*
X216961658Y-75765257D01*
X216845257Y-75881658D01*
X216757677Y-76021042D01*
X216703308Y-76176420D01*
X216692933Y-76268501D01*
X216670842Y-76326373D01*
X216623515Y-76366337D01*
X216562761Y-76378422D01*
X216503742Y-76359611D01*
X216415353Y-76304073D01*
X216259976Y-76249704D01*
X216096396Y-76231273D01*
X215932815Y-76249704D01*
X215777438Y-76304073D01*
X215638054Y-76391653D01*
X215521653Y-76508054D01*
X215434073Y-76647438D01*
X215379704Y-76802815D01*
X215361273Y-76966395D01*
X204634000Y-76966395D01*
X204634000Y-76155094D01*
X204635061Y-76138908D01*
X204638867Y-76109999D01*
X204625009Y-76004742D01*
X204619483Y-75962766D01*
X204562653Y-75825567D01*
X204531002Y-75784318D01*
X204472250Y-75707750D01*
X204449111Y-75689994D01*
X204436917Y-75679300D01*
X203390319Y-74632702D01*
X203363439Y-74592474D01*
X203354000Y-74545021D01*
X203354000Y-74093455D01*
X203371991Y-74029127D01*
X203420743Y-73983466D01*
X203486110Y-73969721D01*
X203549120Y-73991878D01*
X203652170Y-74064035D01*
X203866337Y-74163903D01*
X204094592Y-74225063D01*
X204330000Y-74245659D01*
X204565408Y-74225063D01*
X204793663Y-74163903D01*
X205007830Y-74064035D01*
X205201401Y-73928495D01*
X205368495Y-73761401D01*
X205432495Y-73670000D01*
X212944540Y-73670000D01*
X212964326Y-73858257D01*
X213022820Y-74038284D01*
X213117466Y-74202216D01*
X213244129Y-74342889D01*
X213397269Y-74454151D01*
X213570197Y-74531144D01*
X213755352Y-74570500D01*
X213755354Y-74570500D01*
X213944646Y-74570500D01*
X213944648Y-74570500D01*
X214096828Y-74538153D01*
X214129803Y-74531144D01*
X214282423Y-74463192D01*
X214350117Y-74453678D01*
X214412565Y-74481481D01*
X214450791Y-74538153D01*
X214502820Y-74698284D01*
X214597466Y-74862216D01*
X214724129Y-75002889D01*
X214877269Y-75114151D01*
X215050197Y-75191144D01*
X215235352Y-75230500D01*
X215235354Y-75230500D01*
X215424646Y-75230500D01*
X215424648Y-75230500D01*
X215557031Y-75202361D01*
X215609803Y-75191144D01*
X215782730Y-75114151D01*
X215829735Y-75080000D01*
X215935870Y-75002889D01*
X216062533Y-74862216D01*
X216157179Y-74698284D01*
X216182076Y-74621658D01*
X216215674Y-74518256D01*
X216235460Y-74330000D01*
X216215674Y-74141744D01*
X216157179Y-73961716D01*
X216157179Y-73961715D01*
X216062533Y-73797783D01*
X215935870Y-73657110D01*
X215782730Y-73545848D01*
X215609802Y-73468855D01*
X215424648Y-73429500D01*
X215424646Y-73429500D01*
X215235354Y-73429500D01*
X215235352Y-73429500D01*
X215050201Y-73468854D01*
X214897576Y-73536808D01*
X214829883Y-73546321D01*
X214767434Y-73518518D01*
X214729209Y-73461846D01*
X214677179Y-73301715D01*
X214582533Y-73137783D01*
X214455870Y-72997110D01*
X214302730Y-72885848D01*
X214129802Y-72808855D01*
X213944648Y-72769500D01*
X213944646Y-72769500D01*
X213755354Y-72769500D01*
X213755352Y-72769500D01*
X213570197Y-72808855D01*
X213397269Y-72885848D01*
X213244129Y-72997110D01*
X213117466Y-73137783D01*
X213022820Y-73301715D01*
X212964326Y-73481742D01*
X212944540Y-73670000D01*
X205432495Y-73670000D01*
X205504035Y-73567830D01*
X205603903Y-73353663D01*
X205665063Y-73125408D01*
X205685659Y-72890000D01*
X205665063Y-72654592D01*
X205612923Y-72459999D01*
X207714877Y-72459999D01*
X207733308Y-72623580D01*
X207787677Y-72778957D01*
X207875257Y-72918341D01*
X207991658Y-73034742D01*
X208131042Y-73122322D01*
X208286419Y-73176691D01*
X208450000Y-73195122D01*
X208613580Y-73176691D01*
X208768957Y-73122322D01*
X208908341Y-73034742D01*
X209024742Y-72918341D01*
X209112322Y-72778957D01*
X209166691Y-72623580D01*
X209185122Y-72460000D01*
X209181886Y-72431284D01*
X209166691Y-72296419D01*
X209112322Y-72141042D01*
X209024742Y-72001658D01*
X208908341Y-71885257D01*
X208768957Y-71797677D01*
X208613580Y-71743308D01*
X208450000Y-71724877D01*
X208286419Y-71743308D01*
X208131042Y-71797677D01*
X207991658Y-71885257D01*
X207875257Y-72001658D01*
X207787677Y-72141042D01*
X207733308Y-72296419D01*
X207714877Y-72459999D01*
X205612923Y-72459999D01*
X205603903Y-72426337D01*
X205504035Y-72212171D01*
X205368495Y-72018599D01*
X205201401Y-71851505D01*
X205015839Y-71721573D01*
X204976975Y-71677257D01*
X204962964Y-71620000D01*
X204976975Y-71562743D01*
X205015839Y-71518426D01*
X205201401Y-71388495D01*
X205368495Y-71221401D01*
X205504035Y-71027830D01*
X205603903Y-70813663D01*
X205665063Y-70585408D01*
X205685659Y-70350000D01*
X205665063Y-70114592D01*
X205603903Y-69886337D01*
X205504035Y-69672171D01*
X205368495Y-69478599D01*
X205201401Y-69311505D01*
X205015839Y-69181573D01*
X204976975Y-69137257D01*
X204962964Y-69080000D01*
X204976975Y-69022743D01*
X205015839Y-68978426D01*
X205201401Y-68848495D01*
X205368495Y-68681401D01*
X205504035Y-68487830D01*
X205603903Y-68273663D01*
X205665063Y-68045408D01*
X205685659Y-67810000D01*
X205665063Y-67574592D01*
X205603903Y-67346337D01*
X205504035Y-67132171D01*
X205368495Y-66938599D01*
X205201401Y-66771505D01*
X205015839Y-66641573D01*
X204976975Y-66597257D01*
X204962964Y-66540000D01*
X204976975Y-66482743D01*
X205015839Y-66438426D01*
X205201401Y-66308495D01*
X205368495Y-66141401D01*
X205504035Y-65947830D01*
X205603903Y-65733663D01*
X205665063Y-65505408D01*
X205685659Y-65270000D01*
X205665063Y-65034592D01*
X205603903Y-64806337D01*
X205504035Y-64592171D01*
X205368495Y-64398599D01*
X205201401Y-64231505D01*
X205015839Y-64101573D01*
X204976974Y-64057255D01*
X204962964Y-63999999D01*
X204976975Y-63942742D01*
X205015837Y-63898428D01*
X205201401Y-63768495D01*
X205368495Y-63601401D01*
X205504035Y-63407830D01*
X205603903Y-63193663D01*
X205665063Y-62965408D01*
X205685659Y-62730000D01*
X205665063Y-62494592D01*
X205603903Y-62266337D01*
X205504035Y-62052171D01*
X205368495Y-61858599D01*
X205246180Y-61736284D01*
X205214885Y-61683539D01*
X205212696Y-61622246D01*
X205240149Y-61567401D01*
X205290528Y-61532422D01*
X205422089Y-61483352D01*
X205537188Y-61397188D01*
X205623352Y-61282089D01*
X205673597Y-61147375D01*
X205680000Y-61087824D01*
X205680000Y-60440000D01*
X202980000Y-60440000D01*
X202980000Y-61087824D01*
X202986402Y-61147375D01*
X203036647Y-61282089D01*
X203122811Y-61397188D01*
X203237911Y-61483352D01*
X203369471Y-61532422D01*
X203419850Y-61567401D01*
X203447303Y-61622246D01*
X203445114Y-61683539D01*
X203413819Y-61736285D01*
X203291503Y-61858601D01*
X203155965Y-62052170D01*
X203056097Y-62266336D01*
X202994936Y-62494592D01*
X202974340Y-62729999D01*
X202994936Y-62965407D01*
X203039709Y-63132502D01*
X203056097Y-63193663D01*
X203155965Y-63407830D01*
X203291505Y-63601401D01*
X203458599Y-63768495D01*
X203644160Y-63898426D01*
X203683024Y-63942743D01*
X203697035Y-64000000D01*
X203683024Y-64057257D01*
X203644159Y-64101575D01*
X203458595Y-64231508D01*
X203291505Y-64398598D01*
X203155965Y-64592170D01*
X203056097Y-64806336D01*
X202994936Y-65034592D01*
X202974340Y-65270000D01*
X202994936Y-65505407D01*
X203040235Y-65674466D01*
X203040235Y-65738653D01*
X203008141Y-65794240D01*
X202423080Y-66379301D01*
X202410888Y-66389994D01*
X202387749Y-66407750D01*
X202352598Y-66453558D01*
X202352588Y-66453573D01*
X202297347Y-66525566D01*
X202240517Y-66662766D01*
X202221132Y-66809999D01*
X202224939Y-66838908D01*
X202226000Y-66855094D01*
X202226000Y-74784906D01*
X202224939Y-74801092D01*
X202221132Y-74830000D01*
X202238261Y-74960104D01*
X202240517Y-74977234D01*
X202297347Y-75114433D01*
X202356207Y-75191143D01*
X202356208Y-75191144D01*
X202356212Y-75191151D01*
X202386407Y-75230500D01*
X202387750Y-75232250D01*
X202402516Y-75243580D01*
X202410887Y-75250003D01*
X202423083Y-75260699D01*
X202780491Y-75618107D01*
X202809852Y-75664833D01*
X202816030Y-75719671D01*
X202797804Y-75771760D01*
X202758782Y-75810782D01*
X202751657Y-75815258D01*
X202635257Y-75931658D01*
X202547677Y-76071042D01*
X202493308Y-76226419D01*
X202474877Y-76389999D01*
X202476472Y-76404156D01*
X202470292Y-76458993D01*
X202440932Y-76505717D01*
X202394207Y-76535077D01*
X202301042Y-76567678D01*
X202161658Y-76655257D01*
X202045257Y-76771658D01*
X201957680Y-76911039D01*
X201957679Y-76911040D01*
X201957678Y-76911043D01*
X201932460Y-76983110D01*
X201892733Y-77039100D01*
X201829304Y-77065373D01*
X201761618Y-77053873D01*
X201710426Y-77008125D01*
X201691420Y-76942153D01*
X201691420Y-73892514D01*
X201692481Y-73876328D01*
X201696287Y-73847419D01*
X201689752Y-73797783D01*
X201676903Y-73700186D01*
X201620073Y-73562987D01*
X201606923Y-73545849D01*
X201606922Y-73545848D01*
X201606922Y-73545847D01*
X201529669Y-73445168D01*
X201506525Y-73427409D01*
X201494331Y-73416715D01*
X200347867Y-72270250D01*
X200323828Y-72236370D01*
X200312328Y-72196451D01*
X200306691Y-72146420D01*
X200252322Y-71991042D01*
X200164742Y-71851658D01*
X200048341Y-71735257D01*
X199908957Y-71647677D01*
X199744045Y-71589972D01*
X199700658Y-71563829D01*
X199671346Y-71522518D01*
X199661000Y-71472931D01*
X199661000Y-67812101D01*
X199662061Y-67795915D01*
X199665868Y-67767000D01*
X199646483Y-67619766D01*
X199589654Y-67482567D01*
X199521949Y-67394332D01*
X199521948Y-67394331D01*
X199499250Y-67364750D01*
X199476114Y-67346997D01*
X199463919Y-67336302D01*
X198507617Y-66380000D01*
X200174877Y-66380000D01*
X200193308Y-66543580D01*
X200247677Y-66698956D01*
X200335257Y-66838341D01*
X200451658Y-66954742D01*
X200591042Y-67042322D01*
X200746419Y-67096691D01*
X200910000Y-67115122D01*
X201073580Y-67096691D01*
X201228957Y-67042322D01*
X201368341Y-66954742D01*
X201484742Y-66838341D01*
X201513182Y-66793079D01*
X201572323Y-66698956D01*
X201626691Y-66543580D01*
X201645122Y-66380000D01*
X201626691Y-66216419D01*
X201572322Y-66061042D01*
X201484742Y-65921658D01*
X201368341Y-65805257D01*
X201228957Y-65717677D01*
X201073580Y-65663308D01*
X200910000Y-65644877D01*
X200746419Y-65663308D01*
X200591042Y-65717677D01*
X200451658Y-65805257D01*
X200335257Y-65921658D01*
X200247677Y-66061042D01*
X200193308Y-66216419D01*
X200174877Y-66380000D01*
X198507617Y-66380000D01*
X198357867Y-66230250D01*
X198333828Y-66196370D01*
X198322328Y-66156451D01*
X198316691Y-66106420D01*
X198262322Y-65951042D01*
X198174742Y-65811658D01*
X198058341Y-65695257D01*
X197918957Y-65607677D01*
X197763580Y-65553308D01*
X197600000Y-65534877D01*
X197436419Y-65553308D01*
X197281042Y-65607677D01*
X197141658Y-65695257D01*
X197025257Y-65811658D01*
X196937677Y-65951042D01*
X196883308Y-66106419D01*
X196864877Y-66270000D01*
X196883308Y-66433580D01*
X196937677Y-66588957D01*
X197025257Y-66728341D01*
X197141658Y-66844742D01*
X197281042Y-66932322D01*
X197436420Y-66986691D01*
X197486451Y-66992328D01*
X197526370Y-67003828D01*
X197560250Y-67027867D01*
X197763317Y-67230934D01*
X197794397Y-67282953D01*
X197797116Y-67343488D01*
X197770824Y-67398083D01*
X197721801Y-67433701D01*
X197661753Y-67441835D01*
X197600000Y-67434877D01*
X197436419Y-67453308D01*
X197281042Y-67507677D01*
X197141658Y-67595257D01*
X197025257Y-67711658D01*
X196937677Y-67851042D01*
X196883308Y-68006419D01*
X196864877Y-68170000D01*
X172227617Y-68170000D01*
X170850696Y-66793079D01*
X170840000Y-66780883D01*
X170822249Y-66757749D01*
X170745631Y-66698958D01*
X170745628Y-66698957D01*
X170704433Y-66667347D01*
X170567234Y-66610517D01*
X170550104Y-66608261D01*
X170420000Y-66591132D01*
X170394519Y-66594487D01*
X170391089Y-66594939D01*
X170374906Y-66596000D01*
X165341161Y-66596000D01*
X165275190Y-66576994D01*
X165148957Y-66497677D01*
X164993580Y-66443308D01*
X164830000Y-66424877D01*
X164666419Y-66443308D01*
X164511042Y-66497677D01*
X164371658Y-66585257D01*
X164255257Y-66701658D01*
X164167677Y-66841042D01*
X164113308Y-66996419D01*
X164094877Y-67159999D01*
X164113308Y-67323580D01*
X164167677Y-67478957D01*
X164255257Y-67618341D01*
X164371658Y-67734742D01*
X164511042Y-67822322D01*
X164666419Y-67876691D01*
X164830000Y-67895122D01*
X164993580Y-67876691D01*
X165148957Y-67822322D01*
X165190984Y-67795915D01*
X165275190Y-67743006D01*
X165341161Y-67724000D01*
X170135021Y-67724000D01*
X170182474Y-67733439D01*
X170222702Y-67760319D01*
X176565936Y-74103553D01*
X182861033Y-80398649D01*
X182890394Y-80445375D01*
X182896572Y-80500214D01*
X182878346Y-80552302D01*
X182839324Y-80591324D01*
X182734811Y-80656994D01*
X182668839Y-80676000D01*
X180074979Y-80676000D01*
X180027526Y-80666561D01*
X179987298Y-80639681D01*
X169970696Y-70623079D01*
X169960000Y-70610883D01*
X169942249Y-70587749D01*
X169864058Y-70527751D01*
X169864055Y-70527750D01*
X169824433Y-70497347D01*
X169687234Y-70440517D01*
X169670104Y-70438261D01*
X169540000Y-70421132D01*
X169514519Y-70424487D01*
X169511089Y-70424939D01*
X169494906Y-70426000D01*
X165300445Y-70426000D01*
X165252992Y-70416561D01*
X165212763Y-70389680D01*
X165178340Y-70355257D01*
X165038957Y-70267677D01*
X164883580Y-70213308D01*
X164720000Y-70194877D01*
X164556419Y-70213308D01*
X164401042Y-70267677D01*
X164261658Y-70355257D01*
X164145257Y-70471658D01*
X164057677Y-70611042D01*
X164003308Y-70766419D01*
X163984877Y-70930000D01*
X154671625Y-70930000D01*
X154625323Y-70737137D01*
X154533433Y-70515296D01*
X154407972Y-70310561D01*
X154252027Y-70127973D01*
X154085172Y-69985465D01*
X154748087Y-69985465D01*
X154751895Y-69988718D01*
X154969982Y-70122361D01*
X155206294Y-70220246D01*
X155455006Y-70279956D01*
X155710000Y-70300024D01*
X155964993Y-70279956D01*
X156213705Y-70220246D01*
X156450012Y-70122363D01*
X156668108Y-69988715D01*
X156671911Y-69985465D01*
X156671912Y-69985464D01*
X155710000Y-69023553D01*
X154748087Y-69985464D01*
X154748087Y-69985465D01*
X154085172Y-69985465D01*
X154069439Y-69972028D01*
X153864704Y-69846567D01*
X153799727Y-69819652D01*
X153642863Y-69754676D01*
X153409380Y-69698623D01*
X153170000Y-69679783D01*
X152930619Y-69698623D01*
X152697136Y-69754676D01*
X152475296Y-69846567D01*
X152270560Y-69972028D01*
X152087973Y-70127973D01*
X151932028Y-70310560D01*
X151806567Y-70515296D01*
X151714676Y-70737136D01*
X151658623Y-70970619D01*
X151639783Y-71210000D01*
X148520500Y-71210000D01*
X148520500Y-69985465D01*
X149668087Y-69985465D01*
X149671895Y-69988718D01*
X149889982Y-70122361D01*
X150126294Y-70220246D01*
X150375006Y-70279956D01*
X150630000Y-70300024D01*
X150884993Y-70279956D01*
X151133705Y-70220246D01*
X151370012Y-70122363D01*
X151588108Y-69988715D01*
X151591911Y-69985465D01*
X151591912Y-69985464D01*
X150630000Y-69023553D01*
X149668087Y-69985464D01*
X149668087Y-69985465D01*
X148520500Y-69985465D01*
X148520500Y-68670000D01*
X148999975Y-68670000D01*
X149020043Y-68924993D01*
X149079753Y-69173705D01*
X149177636Y-69410012D01*
X149311284Y-69628108D01*
X149314533Y-69631911D01*
X149314535Y-69631911D01*
X150276447Y-68670001D01*
X150983553Y-68670001D01*
X151945464Y-69631912D01*
X151945465Y-69631911D01*
X151948715Y-69628108D01*
X152082363Y-69410012D01*
X152180246Y-69173705D01*
X152239956Y-68924993D01*
X152260024Y-68670000D01*
X154079975Y-68670000D01*
X154100043Y-68924993D01*
X154159753Y-69173705D01*
X154257636Y-69410012D01*
X154391284Y-69628108D01*
X154394533Y-69631911D01*
X154394535Y-69631911D01*
X155356447Y-68670001D01*
X156063553Y-68670001D01*
X157025464Y-69631912D01*
X157025465Y-69631911D01*
X157028715Y-69628108D01*
X157162363Y-69410012D01*
X157260246Y-69173705D01*
X157319956Y-68924993D01*
X157340024Y-68670000D01*
X157319956Y-68415006D01*
X157260246Y-68166294D01*
X157162361Y-67929982D01*
X157028718Y-67711895D01*
X157025465Y-67708087D01*
X157025464Y-67708087D01*
X156063553Y-68670000D01*
X156063553Y-68670001D01*
X155356447Y-68670001D01*
X155356447Y-68669999D01*
X154394534Y-67708087D01*
X154394533Y-67708087D01*
X154391281Y-67711895D01*
X154257638Y-67929982D01*
X154159753Y-68166294D01*
X154100043Y-68415006D01*
X154079975Y-68670000D01*
X152260024Y-68670000D01*
X152239956Y-68415006D01*
X152180246Y-68166294D01*
X152082361Y-67929982D01*
X151948718Y-67711895D01*
X151945465Y-67708087D01*
X151945464Y-67708087D01*
X150983553Y-68670000D01*
X150983553Y-68670001D01*
X150276447Y-68670001D01*
X150276447Y-68670000D01*
X149314534Y-67708087D01*
X149314533Y-67708087D01*
X149311281Y-67711895D01*
X149177638Y-67929982D01*
X149079753Y-68166294D01*
X149020043Y-68415006D01*
X148999975Y-68670000D01*
X148520500Y-68670000D01*
X148520500Y-67354534D01*
X149668087Y-67354534D01*
X150630000Y-68316447D01*
X150630001Y-68316447D01*
X151591911Y-67354535D01*
X151591911Y-67354534D01*
X154748087Y-67354534D01*
X155710000Y-68316447D01*
X155710001Y-68316447D01*
X156671911Y-67354535D01*
X156671911Y-67354533D01*
X156668108Y-67351284D01*
X156450012Y-67217636D01*
X156213705Y-67119753D01*
X155964993Y-67060043D01*
X155710000Y-67039975D01*
X155455006Y-67060043D01*
X155206294Y-67119753D01*
X154969982Y-67217638D01*
X154751895Y-67351281D01*
X154748087Y-67354533D01*
X154748087Y-67354534D01*
X151591911Y-67354534D01*
X151591911Y-67354533D01*
X151588108Y-67351284D01*
X151370012Y-67217636D01*
X151133705Y-67119753D01*
X150884993Y-67060043D01*
X150630000Y-67039975D01*
X150375006Y-67060043D01*
X150126294Y-67119753D01*
X149889982Y-67217638D01*
X149671895Y-67351281D01*
X149668087Y-67354533D01*
X149668087Y-67354534D01*
X148520500Y-67354534D01*
X148520500Y-66001498D01*
X182504877Y-66001498D01*
X182523308Y-66165079D01*
X182577677Y-66320456D01*
X182665257Y-66459840D01*
X182781658Y-66576241D01*
X182921042Y-66663821D01*
X183076419Y-66718190D01*
X183240000Y-66736621D01*
X183403580Y-66718190D01*
X183558957Y-66663821D01*
X183698341Y-66576241D01*
X183814742Y-66459840D01*
X183902322Y-66320456D01*
X183956691Y-66165079D01*
X183975122Y-66001499D01*
X183956691Y-65837919D01*
X183947502Y-65811659D01*
X183902322Y-65682541D01*
X183814742Y-65543157D01*
X183698341Y-65426756D01*
X183558957Y-65339176D01*
X183403580Y-65284807D01*
X183240000Y-65266376D01*
X183076419Y-65284807D01*
X182921042Y-65339176D01*
X182781658Y-65426756D01*
X182665257Y-65543157D01*
X182577677Y-65682541D01*
X182523308Y-65837918D01*
X182504877Y-66001498D01*
X148520500Y-66001498D01*
X148520500Y-62411932D01*
X148524997Y-62385465D01*
X148521279Y-62352459D01*
X148520500Y-62338578D01*
X148520500Y-62334211D01*
X148519678Y-62330610D01*
X148519529Y-62329957D01*
X148517199Y-62316251D01*
X148514116Y-62288876D01*
X148514115Y-62288874D01*
X148513480Y-62283237D01*
X148508828Y-62272006D01*
X148504307Y-62266337D01*
X148488113Y-62246030D01*
X148480068Y-62234691D01*
X148477748Y-62230999D01*
X148474655Y-62227906D01*
X148465395Y-62217544D01*
X148444687Y-62191577D01*
X148422788Y-62176039D01*
X146186749Y-59940000D01*
X202980000Y-59940000D01*
X204080000Y-59940000D01*
X204080000Y-58840000D01*
X204580000Y-58840000D01*
X204580000Y-59940000D01*
X205680000Y-59940000D01*
X205680000Y-59292176D01*
X205673597Y-59232624D01*
X205623352Y-59097910D01*
X205537188Y-58982811D01*
X205422089Y-58896647D01*
X205287375Y-58846402D01*
X205227824Y-58840000D01*
X204580000Y-58840000D01*
X204080000Y-58840000D01*
X203432176Y-58840000D01*
X203372624Y-58846402D01*
X203237910Y-58896647D01*
X203122811Y-58982811D01*
X203036647Y-59097910D01*
X202986402Y-59232624D01*
X202980000Y-59292176D01*
X202980000Y-59940000D01*
X146186749Y-59940000D01*
X143580019Y-57333270D01*
X143553139Y-57293042D01*
X143543700Y-57245589D01*
X143543700Y-52635158D01*
X143544964Y-52628402D01*
X143544545Y-52609764D01*
X143544546Y-52609762D01*
X143543730Y-52573534D01*
X143543700Y-52570747D01*
X143543700Y-52567045D01*
X143543711Y-52565371D01*
X143546247Y-52377502D01*
X145616857Y-52377502D01*
X145631030Y-52631972D01*
X145681324Y-52881817D01*
X145762896Y-53111209D01*
X145766716Y-53121951D01*
X145885460Y-53347462D01*
X146035131Y-53553746D01*
X146212674Y-53736594D01*
X146266453Y-53778084D01*
X146414458Y-53892267D01*
X146414461Y-53892268D01*
X146414464Y-53892271D01*
X146636382Y-54017599D01*
X146873896Y-54110020D01*
X147122158Y-54167647D01*
X147225106Y-54176436D01*
X147241002Y-54178992D01*
X147241751Y-54178998D01*
X147241752Y-54178999D01*
X147252011Y-54179092D01*
X147261412Y-54179535D01*
X147288865Y-54181877D01*
X147288865Y-54181876D01*
X147296946Y-54182566D01*
X147316166Y-54179675D01*
X149951503Y-54203639D01*
X149954351Y-54204221D01*
X149976475Y-54204221D01*
X150014875Y-54204221D01*
X150016008Y-54204226D01*
X150037128Y-54204419D01*
X150037130Y-54204418D01*
X150048486Y-54204522D01*
X150051662Y-54204178D01*
X150145132Y-54204181D01*
X150400061Y-54167533D01*
X150647179Y-54094978D01*
X150881456Y-53987992D01*
X151098122Y-53848754D01*
X151292767Y-53680097D01*
X151461428Y-53485456D01*
X151600672Y-53268793D01*
X151707663Y-53034519D01*
X151780224Y-52787402D01*
X151816878Y-52532475D01*
X151816878Y-52428774D01*
X221839158Y-52428774D01*
X221872000Y-52683200D01*
X221941070Y-52930259D01*
X222044937Y-53164826D01*
X222181441Y-53382027D01*
X222269895Y-53485913D01*
X222347748Y-53577349D01*
X222540404Y-53746739D01*
X222755407Y-53886677D01*
X222988292Y-53994258D01*
X223234223Y-54067246D01*
X223488091Y-54104127D01*
X223614236Y-54104219D01*
X223615621Y-54104228D01*
X227401399Y-54153394D01*
X227405416Y-54154221D01*
X227426475Y-54154221D01*
X227464319Y-54154221D01*
X227465935Y-54154231D01*
X227486347Y-54154498D01*
X227486348Y-54154497D01*
X227496735Y-54154633D01*
X227501015Y-54154178D01*
X227595132Y-54154181D01*
X227850061Y-54117533D01*
X228097179Y-54044978D01*
X228331456Y-53937992D01*
X228548122Y-53798754D01*
X228742767Y-53630097D01*
X228911428Y-53435456D01*
X229050672Y-53218793D01*
X229157663Y-52984519D01*
X229230224Y-52737402D01*
X229266878Y-52482475D01*
X229266878Y-52224925D01*
X229230224Y-51969998D01*
X229157663Y-51722881D01*
X229104167Y-51605743D01*
X229050674Y-51488610D01*
X228979810Y-51378346D01*
X228911428Y-51271944D01*
X228742767Y-51077303D01*
X228548122Y-50908646D01*
X228331456Y-50769408D01*
X228331451Y-50769405D01*
X228331450Y-50769405D01*
X228148234Y-50685737D01*
X228097179Y-50662422D01*
X227850061Y-50589867D01*
X227850059Y-50589866D01*
X227850057Y-50589866D01*
X227595132Y-50553219D01*
X227501841Y-50553220D01*
X227501776Y-50553214D01*
X227464800Y-50553221D01*
X227464777Y-50553222D01*
X227464775Y-50553222D01*
X227401999Y-50553223D01*
X227401941Y-50553235D01*
X223672788Y-50554013D01*
X223668919Y-50553953D01*
X223544495Y-50550095D01*
X223289580Y-50578901D01*
X223041457Y-50644050D01*
X222805275Y-50744187D01*
X222585942Y-50877231D01*
X222388006Y-51040425D01*
X222215582Y-51230375D01*
X222072259Y-51443130D01*
X221961001Y-51674282D01*
X221884127Y-51919025D01*
X221843228Y-52172280D01*
X221839158Y-52428774D01*
X151816878Y-52428774D01*
X151816878Y-52274925D01*
X151780224Y-52019998D01*
X151707663Y-51772881D01*
X151620077Y-51581097D01*
X151600674Y-51538610D01*
X151568538Y-51488607D01*
X151461428Y-51321944D01*
X151292767Y-51127303D01*
X151098122Y-50958646D01*
X150881456Y-50819408D01*
X150881451Y-50819405D01*
X150881450Y-50819405D01*
X150647183Y-50712424D01*
X150647184Y-50712424D01*
X150647179Y-50712422D01*
X150400061Y-50639867D01*
X150400059Y-50639866D01*
X150400057Y-50639866D01*
X150145132Y-50603219D01*
X150051324Y-50603220D01*
X150048404Y-50602906D01*
X150015980Y-50603216D01*
X150014801Y-50603222D01*
X149954518Y-50603223D01*
X149951535Y-50603831D01*
X147371404Y-50628468D01*
X147359125Y-50626425D01*
X147312523Y-50628913D01*
X147307098Y-50629083D01*
X147286769Y-50629277D01*
X147276572Y-50630751D01*
X147178192Y-50636014D01*
X146928231Y-50685735D01*
X146687904Y-50770574D01*
X146462120Y-50888799D01*
X146255492Y-51037996D01*
X146072236Y-51215120D01*
X145916099Y-51416549D01*
X145790260Y-51638181D01*
X145697292Y-51875484D01*
X145639097Y-52123610D01*
X145616857Y-52377502D01*
X143546247Y-52377502D01*
X143547200Y-52306890D01*
X143549701Y-52121636D01*
X143550140Y-52112769D01*
X143588037Y-51670580D01*
X143589118Y-51661722D01*
X143616608Y-51488607D01*
X143658725Y-51223382D01*
X143660440Y-51214636D01*
X143761392Y-50782465D01*
X143763718Y-50773906D01*
X143895513Y-50350056D01*
X143898446Y-50341697D01*
X144060382Y-49928438D01*
X144063925Y-49920275D01*
X144255160Y-49519751D01*
X144259265Y-49511894D01*
X144478826Y-49126139D01*
X144483493Y-49118587D01*
X144730217Y-48749651D01*
X144735417Y-48742450D01*
X145008047Y-48392206D01*
X145013754Y-48385395D01*
X145310869Y-48055670D01*
X145317043Y-48049296D01*
X145551981Y-47823580D01*
X145591256Y-47798103D01*
X145637178Y-47789003D01*
X149976630Y-47764224D01*
X149977339Y-47764222D01*
X185513772Y-47764222D01*
X185558952Y-47764222D01*
X186870610Y-47764222D01*
X186915790Y-47764222D01*
X196421010Y-47764222D01*
X196466190Y-47764222D01*
X197578772Y-47764222D01*
X197623952Y-47764222D01*
X223001066Y-47764222D01*
X228288992Y-47778803D01*
G37*
%TD.AperFunction*%
%TD*%
M02*
