%TF.GenerationSoftware,KiCad,Pcbnew,7.0.1*%
%TF.CreationDate,2024-01-14T19:17:53-07:00*%
%TF.ProjectId,antenna_top_cap,616e7465-6e6e-4615-9f74-6f705f636170,rev?*%
%TF.SameCoordinates,Original*%
%TF.FileFunction,Paste,Top*%
%TF.FilePolarity,Positive*%
%FSLAX46Y46*%
G04 Gerber Fmt 4.6, Leading zero omitted, Abs format (unit mm)*
G04 Created by KiCad (PCBNEW 7.0.1) date 2024-01-14 19:17:53*
%MOMM*%
%LPD*%
G01*
G04 APERTURE LIST*
G04 Aperture macros list*
%AMRoundRect*
0 Rectangle with rounded corners*
0 $1 Rounding radius*
0 $2 $3 $4 $5 $6 $7 $8 $9 X,Y pos of 4 corners*
0 Add a 4 corners polygon primitive as box body*
4,1,4,$2,$3,$4,$5,$6,$7,$8,$9,$2,$3,0*
0 Add four circle primitives for the rounded corners*
1,1,$1+$1,$2,$3*
1,1,$1+$1,$4,$5*
1,1,$1+$1,$6,$7*
1,1,$1+$1,$8,$9*
0 Add four rect primitives between the rounded corners*
20,1,$1+$1,$2,$3,$4,$5,0*
20,1,$1+$1,$4,$5,$6,$7,0*
20,1,$1+$1,$6,$7,$8,$9,0*
20,1,$1+$1,$8,$9,$2,$3,0*%
G04 Aperture macros list end*
%ADD10R,1.800000X1.200000*%
%ADD11R,1.550000X0.600000*%
%ADD12RoundRect,0.200000X-0.200000X-0.275000X0.200000X-0.275000X0.200000X0.275000X-0.200000X0.275000X0*%
%ADD13R,1.000000X0.350000*%
%ADD14R,1.000000X2.000000*%
%ADD15R,1.000000X0.700000*%
%ADD16R,0.600000X1.000000*%
%ADD17R,1.250000X1.800000*%
%ADD18RoundRect,0.218750X0.256250X-0.218750X0.256250X0.218750X-0.256250X0.218750X-0.256250X-0.218750X0*%
%ADD19RoundRect,0.250000X-0.475000X0.250000X-0.475000X-0.250000X0.475000X-0.250000X0.475000X0.250000X0*%
%ADD20RoundRect,0.135000X0.135000X0.185000X-0.135000X0.185000X-0.135000X-0.185000X0.135000X-0.185000X0*%
%ADD21RoundRect,0.250000X0.475000X-0.250000X0.475000X0.250000X-0.475000X0.250000X-0.475000X-0.250000X0*%
%ADD22RoundRect,0.218750X-0.256250X0.218750X-0.256250X-0.218750X0.256250X-0.218750X0.256250X0.218750X0*%
%ADD23RoundRect,0.225000X0.225000X0.250000X-0.225000X0.250000X-0.225000X-0.250000X0.225000X-0.250000X0*%
%ADD24RoundRect,0.135000X-0.135000X-0.185000X0.135000X-0.185000X0.135000X0.185000X-0.135000X0.185000X0*%
%ADD25R,6.390000X11.320000*%
%ADD26R,6.400000X11.300000*%
%ADD27RoundRect,0.200000X0.275000X-0.200000X0.275000X0.200000X-0.275000X0.200000X-0.275000X-0.200000X0*%
%ADD28RoundRect,0.150000X-0.512500X-0.150000X0.512500X-0.150000X0.512500X0.150000X-0.512500X0.150000X0*%
%ADD29R,1.100000X0.400000*%
%ADD30RoundRect,0.225000X-0.250000X0.225000X-0.250000X-0.225000X0.250000X-0.225000X0.250000X0.225000X0*%
%ADD31R,1.300000X2.000000*%
%ADD32RoundRect,0.225000X0.250000X-0.225000X0.250000X0.225000X-0.250000X0.225000X-0.250000X-0.225000X0*%
%ADD33R,0.400000X0.650000*%
%ADD34R,0.500000X0.800000*%
%ADD35R,0.400000X0.800000*%
%ADD36RoundRect,0.135000X0.185000X-0.135000X0.185000X0.135000X-0.185000X0.135000X-0.185000X-0.135000X0*%
G04 APERTURE END LIST*
D10*
%TO.C,J18*%
X195165800Y-103559400D03*
X195165800Y-97959400D03*
D11*
X192640800Y-102259400D03*
X192640800Y-101259400D03*
X192640800Y-100259400D03*
X192640800Y-99259400D03*
%TD*%
D12*
%TO.C,R4*%
X122695800Y-135769400D03*
X124345800Y-135769400D03*
%TD*%
D11*
%TO.C,J9*%
X129550800Y-79889400D03*
X129550800Y-80889400D03*
X129550800Y-81889400D03*
X129550800Y-82889400D03*
D10*
X132075800Y-78589400D03*
X132075800Y-84189400D03*
%TD*%
D11*
%TO.C,J17*%
X168450800Y-97809400D03*
X168450800Y-96809400D03*
X168450800Y-95809400D03*
X168450800Y-94809400D03*
D10*
X165925800Y-99109400D03*
X165925800Y-93509400D03*
%TD*%
D13*
%TO.C,U3*%
X164585800Y-134799400D03*
X164585800Y-135449400D03*
X164585800Y-136099400D03*
X166385800Y-136099400D03*
X166385800Y-135449400D03*
X166385800Y-134799400D03*
%TD*%
D14*
%TO.C,U6*%
X188345800Y-104529400D03*
X186345800Y-104529400D03*
X184345800Y-104529400D03*
X182345800Y-104529400D03*
X180345800Y-104529400D03*
X178345800Y-104529400D03*
X176345800Y-104529400D03*
X174345800Y-104529400D03*
X174345800Y-120529400D03*
X176345800Y-120529400D03*
X178345800Y-120529400D03*
X180345800Y-120529400D03*
X182345800Y-120529400D03*
X184345800Y-120529400D03*
X186345800Y-120529400D03*
X188345800Y-120529400D03*
%TD*%
D11*
%TO.C,J16*%
X201350800Y-82659400D03*
X201350800Y-81659400D03*
X201350800Y-80659400D03*
X201350800Y-79659400D03*
D10*
X198825800Y-83959400D03*
X198825800Y-78359400D03*
%TD*%
D15*
%TO.C,U4*%
X171365800Y-124739400D03*
X171365800Y-123789400D03*
X171365800Y-122839400D03*
X168765800Y-122839400D03*
X168765800Y-123789400D03*
X168765800Y-124739400D03*
%TD*%
D16*
%TO.C,J2*%
X190490798Y-77889400D03*
X188990798Y-77889400D03*
D17*
X193095798Y-72699400D03*
X186385798Y-72699400D03*
%TD*%
D18*
%TO.C,D1*%
X162075800Y-101209400D03*
X162075800Y-99634400D03*
%TD*%
D11*
%TO.C,J14*%
X201305800Y-92939400D03*
X201305800Y-91939400D03*
X201305800Y-90939400D03*
X201305800Y-89939400D03*
D10*
X198780800Y-94239400D03*
X198780800Y-88639400D03*
%TD*%
D18*
%TO.C,D4*%
X212355800Y-92154400D03*
X212355800Y-90579400D03*
%TD*%
%TO.C,D5*%
X212365800Y-81824400D03*
X212365800Y-80249400D03*
%TD*%
D11*
%TO.C,J4*%
X157495800Y-104299400D03*
X157495800Y-103299400D03*
X157495800Y-102299400D03*
X157495800Y-101299400D03*
D10*
X154970800Y-105599400D03*
X154970800Y-99999400D03*
%TD*%
D19*
%TO.C,C2*%
X149275800Y-98039400D03*
X149275800Y-99939400D03*
%TD*%
D20*
%TO.C,R6*%
X121995800Y-89359400D03*
X120975800Y-89359400D03*
%TD*%
D21*
%TO.C,C1*%
X139005800Y-99949400D03*
X139005800Y-98049400D03*
%TD*%
D22*
%TO.C,D3*%
X118595800Y-91199400D03*
X118595800Y-92774400D03*
%TD*%
D23*
%TO.C,C4*%
X184050800Y-122869400D03*
X182500800Y-122869400D03*
%TD*%
D24*
%TO.C,R8*%
X208325800Y-83259400D03*
X209345800Y-83259400D03*
%TD*%
D25*
%TO.C,J6*%
X156990800Y-135964400D03*
D26*
X173970800Y-135944400D03*
%TD*%
D27*
%TO.C,R9*%
X168085800Y-102954400D03*
X168085800Y-101304400D03*
%TD*%
D16*
%TO.C,J3*%
X141400800Y-113249400D03*
X142900800Y-113249400D03*
D17*
X138795800Y-118439400D03*
X145505800Y-118439400D03*
%TD*%
D28*
%TO.C,U2*%
X143140800Y-98029400D03*
X143140800Y-98979400D03*
X143140800Y-99929400D03*
X145415800Y-99929400D03*
X145415800Y-98029400D03*
%TD*%
D29*
%TO.C,IC1*%
X147215800Y-93824400D03*
X147215800Y-93174400D03*
X147215800Y-92524400D03*
X147215800Y-91874400D03*
X142915800Y-91874400D03*
X142915800Y-92524400D03*
X142915800Y-93174400D03*
X142915800Y-93824400D03*
%TD*%
D11*
%TO.C,J8*%
X157648300Y-96549400D03*
X157648300Y-95549400D03*
X157648300Y-94549400D03*
X157648300Y-93549400D03*
D10*
X155123300Y-97849400D03*
X155123300Y-92249400D03*
%TD*%
D24*
%TO.C,R7*%
X208345800Y-94019400D03*
X209365800Y-94019400D03*
%TD*%
D11*
%TO.C,J12*%
X129480800Y-89929400D03*
X129480800Y-90929400D03*
X129480800Y-91929400D03*
X129480800Y-92929400D03*
D10*
X132005800Y-88629400D03*
X132005800Y-94229400D03*
%TD*%
D12*
%TO.C,R2*%
X122710800Y-134049400D03*
X124360800Y-134049400D03*
%TD*%
D30*
%TO.C,C3*%
X124035800Y-138044400D03*
X124035800Y-139594400D03*
%TD*%
D31*
%TO.C,U5*%
X174337300Y-120534401D03*
X176337300Y-120534401D03*
X178337300Y-120534401D03*
X180337300Y-120534401D03*
X182337300Y-120534401D03*
X184337300Y-120534401D03*
X186337300Y-120534401D03*
X188337300Y-120534401D03*
X188337300Y-85534401D03*
X186337300Y-85534401D03*
X184337300Y-85534401D03*
X182337300Y-85534401D03*
X180337300Y-85534401D03*
X178337300Y-85534401D03*
X176337300Y-85534401D03*
X174337300Y-85534401D03*
%TD*%
D32*
%TO.C,C6*%
X141185800Y-93999400D03*
X141185800Y-92449400D03*
%TD*%
D33*
%TO.C,Q1*%
X139809486Y-102580224D03*
X139159486Y-102580224D03*
X138509486Y-102580224D03*
X138509486Y-104480224D03*
X139159486Y-104480224D03*
X139809486Y-104480224D03*
%TD*%
D23*
%TO.C,C8*%
X174460800Y-122819400D03*
X172910800Y-122819400D03*
%TD*%
D22*
%TO.C,D2*%
X118445800Y-80989400D03*
X118445800Y-82564400D03*
%TD*%
D34*
%TO.C,R3*%
X147079484Y-102570227D03*
D35*
X146279484Y-102570227D03*
X145479484Y-102570227D03*
D34*
X144679484Y-102570227D03*
X144679484Y-104370227D03*
D35*
X145479484Y-104370227D03*
X146279484Y-104370227D03*
D34*
X147079484Y-104370227D03*
%TD*%
D20*
%TO.C,R5*%
X121965800Y-79609400D03*
X120945800Y-79609400D03*
%TD*%
D36*
%TO.C,R1*%
X162035801Y-104714404D03*
X162035801Y-103694404D03*
%TD*%
M02*
