%TF.GenerationSoftware,KiCad,Pcbnew,7.0.1*%
%TF.CreationDate,2024-01-14T19:17:53-07:00*%
%TF.ProjectId,antenna_top_cap,616e7465-6e6e-4615-9f74-6f705f636170,rev?*%
%TF.SameCoordinates,Original*%
%TF.FileFunction,Copper,L4,Bot*%
%TF.FilePolarity,Positive*%
%FSLAX46Y46*%
G04 Gerber Fmt 4.6, Leading zero omitted, Abs format (unit mm)*
G04 Created by KiCad (PCBNEW 7.0.1) date 2024-01-14 19:17:53*
%MOMM*%
%LPD*%
G01*
G04 APERTURE LIST*
%TA.AperFunction,NonConductor*%
%ADD10C,0.200000*%
%TD*%
%ADD11C,0.500000*%
%TA.AperFunction,NonConductor*%
%ADD12C,0.500000*%
%TD*%
%TA.AperFunction,ComponentPad*%
%ADD13O,1.700000X1.700000*%
%TD*%
%TA.AperFunction,ComponentPad*%
%ADD14R,1.700000X1.700000*%
%TD*%
%TA.AperFunction,ComponentPad*%
%ADD15C,5.400000*%
%TD*%
%TA.AperFunction,ComponentPad*%
%ADD16C,2.050000*%
%TD*%
%TA.AperFunction,ComponentPad*%
%ADD17C,2.250000*%
%TD*%
%TA.AperFunction,SMDPad,CuDef*%
%ADD18R,1.380000X0.450000*%
%TD*%
%TA.AperFunction,ComponentPad*%
%ADD19O,2.416000X1.208000*%
%TD*%
%TA.AperFunction,SMDPad,CuDef*%
%ADD20R,2.100000X1.475000*%
%TD*%
%TA.AperFunction,SMDPad,CuDef*%
%ADD21R,1.900000X1.375000*%
%TD*%
%TA.AperFunction,SMDPad,CuDef*%
%ADD22R,1.000000X0.500000*%
%TD*%
%TA.AperFunction,ViaPad*%
%ADD23C,0.800000*%
%TD*%
%TA.AperFunction,Conductor*%
%ADD24C,0.254000*%
%TD*%
%TA.AperFunction,Conductor*%
%ADD25C,0.250000*%
%TD*%
%TA.AperFunction,Conductor*%
%ADD26C,0.200000*%
%TD*%
G04 APERTURE END LIST*
D10*
X197125800Y-68679400D02*
X199825800Y-68679400D01*
X198975800Y-66829400D02*
X199825800Y-65979400D01*
X196275800Y-66829400D02*
X197125800Y-65979400D01*
X199805800Y-65089400D02*
X198325800Y-66569400D01*
X197125800Y-65979400D02*
X197125800Y-68679400D01*
X199825800Y-68679400D02*
X198975800Y-69529400D01*
X196275800Y-66829400D02*
X196275800Y-69529400D01*
X198975800Y-66829400D02*
X196275800Y-66829400D01*
X199825800Y-65979400D02*
X199825800Y-68679400D01*
X196275800Y-69529400D02*
X197125800Y-68679400D01*
X196275800Y-69529400D02*
X198975800Y-69529400D01*
X199825800Y-65979400D02*
X197125800Y-65979400D01*
X198975800Y-69529400D02*
X198975800Y-66829400D01*
X196175800Y-65079400D02*
X197645800Y-66549400D01*
D11*
D12*
X175477228Y-64835114D02*
X175381990Y-64739876D01*
X175381990Y-64739876D02*
X175191514Y-64644638D01*
X175191514Y-64644638D02*
X174715323Y-64644638D01*
X174715323Y-64644638D02*
X174524847Y-64739876D01*
X174524847Y-64739876D02*
X174429609Y-64835114D01*
X174429609Y-64835114D02*
X174334371Y-65025590D01*
X174334371Y-65025590D02*
X174334371Y-65216066D01*
X174334371Y-65216066D02*
X174429609Y-65501780D01*
X174429609Y-65501780D02*
X175572466Y-66644638D01*
X175572466Y-66644638D02*
X174334371Y-66644638D01*
D11*
D12*
X183603040Y-66021791D02*
X181745897Y-66021791D01*
X181745897Y-66021791D02*
X182745897Y-67164648D01*
X182745897Y-67164648D02*
X182317326Y-67164648D01*
X182317326Y-67164648D02*
X182031612Y-67307505D01*
X182031612Y-67307505D02*
X181888754Y-67450362D01*
X181888754Y-67450362D02*
X181745897Y-67736076D01*
X181745897Y-67736076D02*
X181745897Y-68450362D01*
X181745897Y-68450362D02*
X181888754Y-68736076D01*
X181888754Y-68736076D02*
X182031612Y-68878934D01*
X182031612Y-68878934D02*
X182317326Y-69021791D01*
X182317326Y-69021791D02*
X183174469Y-69021791D01*
X183174469Y-69021791D02*
X183460183Y-68878934D01*
X183460183Y-68878934D02*
X183603040Y-68736076D01*
X180460183Y-69021791D02*
X180460183Y-66021791D01*
X180460183Y-66021791D02*
X179317326Y-66021791D01*
X179317326Y-66021791D02*
X179031611Y-66164648D01*
X179031611Y-66164648D02*
X178888754Y-66307505D01*
X178888754Y-66307505D02*
X178745897Y-66593219D01*
X178745897Y-66593219D02*
X178745897Y-67021791D01*
X178745897Y-67021791D02*
X178888754Y-67307505D01*
X178888754Y-67307505D02*
X179031611Y-67450362D01*
X179031611Y-67450362D02*
X179317326Y-67593219D01*
X179317326Y-67593219D02*
X180460183Y-67593219D01*
X177745897Y-67021791D02*
X177031611Y-69021791D01*
X176317326Y-67021791D02*
X177031611Y-69021791D01*
X177031611Y-69021791D02*
X177317326Y-69736076D01*
X177317326Y-69736076D02*
X177460183Y-69878934D01*
X177460183Y-69878934D02*
X177745897Y-70021791D01*
%TA.AperFunction,EtchedComponent*%
%TO.C,G\u002A\u002A\u002A*%
G36*
X191016311Y-65609694D02*
G01*
X191017444Y-65645066D01*
X191020426Y-65793965D01*
X191027741Y-66212151D01*
X190306191Y-66218042D01*
X189584640Y-66223934D01*
X189584640Y-66402493D01*
X191838946Y-66424813D01*
X191966573Y-66484631D01*
X192018782Y-66511244D01*
X192177766Y-66624087D01*
X192309624Y-66771176D01*
X192412753Y-66950425D01*
X192485550Y-67159748D01*
X192545074Y-67446325D01*
X192576572Y-67771319D01*
X192567591Y-68095680D01*
X192518369Y-68428662D01*
X192469311Y-68631849D01*
X192396321Y-68840711D01*
X192307242Y-69010618D01*
X192200780Y-69143499D01*
X192075644Y-69241284D01*
X191930540Y-69305900D01*
X191884147Y-69315766D01*
X191791770Y-69326100D01*
X191671305Y-69333099D01*
X191532048Y-69336061D01*
X191225150Y-69337554D01*
X191225150Y-68973966D01*
X191224248Y-68857200D01*
X191218203Y-68694738D01*
X191205272Y-68562671D01*
X191184060Y-68452278D01*
X191153173Y-68354836D01*
X191111215Y-68261622D01*
X191105840Y-68251416D01*
X191029062Y-68140943D01*
X190923045Y-68030862D01*
X190800281Y-67932689D01*
X190673265Y-67857940D01*
X190522075Y-67786324D01*
X189606960Y-67775164D01*
X189397587Y-67772566D01*
X189208349Y-67769969D01*
X189055023Y-67767339D01*
X188933060Y-67764395D01*
X188837912Y-67760857D01*
X188765033Y-67756442D01*
X188709873Y-67750870D01*
X188667885Y-67743859D01*
X188634522Y-67735129D01*
X188605234Y-67724397D01*
X188575476Y-67711384D01*
X188484572Y-67658189D01*
X188373769Y-67564366D01*
X188276112Y-67451687D01*
X188204810Y-67333615D01*
X188198283Y-67319234D01*
X188187156Y-67291608D01*
X188178183Y-67261143D01*
X188171133Y-67223193D01*
X188165774Y-67173115D01*
X188161874Y-67106263D01*
X188159203Y-67017994D01*
X188157529Y-66903663D01*
X188156619Y-66758625D01*
X188156243Y-66578237D01*
X188156169Y-66357853D01*
X188156169Y-65522776D01*
X190136750Y-65522776D01*
X190137667Y-65618469D01*
X190176689Y-65717500D01*
X190180129Y-65722900D01*
X190234025Y-65781639D01*
X190298648Y-65823519D01*
X190352626Y-65842415D01*
X190445765Y-65850652D01*
X190528069Y-65818686D01*
X190607594Y-65744454D01*
X190616113Y-65734102D01*
X190654007Y-65674495D01*
X190669408Y-65609694D01*
X190667352Y-65520858D01*
X190659546Y-65473640D01*
X190622230Y-65401063D01*
X190548550Y-65341188D01*
X190488108Y-65312599D01*
X190390914Y-65298081D01*
X190301020Y-65318074D01*
X190224587Y-65366344D01*
X190167777Y-65436657D01*
X190136750Y-65522776D01*
X188156169Y-65522776D01*
X188156169Y-65487378D01*
X188210800Y-65376361D01*
X188220345Y-65357747D01*
X188317922Y-65218137D01*
X188448511Y-65097265D01*
X188602515Y-65004249D01*
X188687182Y-64968994D01*
X188816685Y-64929735D01*
X188966295Y-64900624D01*
X189142016Y-64880825D01*
X189349850Y-64869499D01*
X189595800Y-64865811D01*
X189665625Y-64866109D01*
X189967391Y-64876560D01*
X190228381Y-64902179D01*
X190449711Y-64943296D01*
X190632492Y-65000238D01*
X190777840Y-65073336D01*
X190886866Y-65162918D01*
X190960685Y-65269314D01*
X190976114Y-65302487D01*
X190990805Y-65342907D01*
X191001413Y-65389727D01*
X191008808Y-65450595D01*
X191013861Y-65533159D01*
X191016311Y-65609694D01*
G37*
%TD.AperFunction*%
%TA.AperFunction,EtchedComponent*%
G36*
X191016781Y-70131065D02*
G01*
X191016246Y-70142550D01*
X191011342Y-70197818D01*
X191004697Y-70239518D01*
X190996046Y-70272454D01*
X190985121Y-70301427D01*
X190971656Y-70331241D01*
X190907710Y-70433044D01*
X190810150Y-70539365D01*
X190692741Y-70635040D01*
X190567401Y-70708934D01*
X190474050Y-70747818D01*
X190339504Y-70794135D01*
X190191324Y-70837695D01*
X190045855Y-70873743D01*
X189919438Y-70897523D01*
X189910904Y-70898733D01*
X189683112Y-70917524D01*
X189449312Y-70913036D01*
X189216543Y-70887031D01*
X188991847Y-70841271D01*
X188782264Y-70777517D01*
X188594836Y-70697532D01*
X188436603Y-70603078D01*
X188314606Y-70495917D01*
X188309318Y-70489997D01*
X188249770Y-70415235D01*
X188206077Y-70338957D01*
X188175997Y-70252589D01*
X188166980Y-70201966D01*
X188506990Y-70201966D01*
X188530025Y-70289538D01*
X188583541Y-70365586D01*
X188669298Y-70421411D01*
X188700673Y-70433320D01*
X188798731Y-70449768D01*
X188884430Y-70425598D01*
X188965797Y-70359123D01*
X188996668Y-70319824D01*
X189036029Y-70226863D01*
X189040100Y-70131065D01*
X189012492Y-70041232D01*
X188956814Y-69966166D01*
X188876676Y-69914672D01*
X188775689Y-69895551D01*
X188684453Y-69910453D01*
X188603167Y-69957114D01*
X188545321Y-70027054D01*
X188512675Y-70111571D01*
X188506990Y-70201966D01*
X188166980Y-70201966D01*
X188157287Y-70147552D01*
X188147705Y-70015271D01*
X188145009Y-69847169D01*
X188145009Y-69539051D01*
X188864825Y-69533162D01*
X189584640Y-69527273D01*
X189591504Y-69432414D01*
X189598367Y-69337554D01*
X188462822Y-69337554D01*
X188389955Y-69337553D01*
X188127151Y-69337419D01*
X187904209Y-69336742D01*
X187717314Y-69335081D01*
X187562648Y-69331994D01*
X187436396Y-69327038D01*
X187334740Y-69319772D01*
X187253865Y-69309753D01*
X187189953Y-69296539D01*
X187139189Y-69279688D01*
X187097756Y-69258758D01*
X187061837Y-69233306D01*
X187027616Y-69202890D01*
X186991276Y-69167069D01*
X186945466Y-69115763D01*
X186854067Y-68978677D01*
X186772213Y-68809860D01*
X186702363Y-68617808D01*
X186646974Y-68411020D01*
X186608504Y-68197994D01*
X186589412Y-67987225D01*
X186592154Y-67787213D01*
X186607952Y-67622597D01*
X186646199Y-67370954D01*
X186698794Y-67141591D01*
X186764236Y-66938875D01*
X186841027Y-66767172D01*
X186927665Y-66630847D01*
X187022651Y-66534268D01*
X187044991Y-66517681D01*
X187104753Y-66479574D01*
X187167395Y-66452091D01*
X187241258Y-66433544D01*
X187334683Y-66422245D01*
X187456012Y-66416504D01*
X187613586Y-66414632D01*
X187963798Y-66413653D01*
X187970704Y-66843310D01*
X187977611Y-67272967D01*
X188049226Y-67424158D01*
X188109588Y-67533182D01*
X188235037Y-67689708D01*
X188388704Y-67814099D01*
X188566087Y-67903019D01*
X188762687Y-67953131D01*
X188801584Y-67957004D01*
X188888779Y-67961951D01*
X189009458Y-67966366D01*
X189157184Y-67970093D01*
X189325518Y-67972978D01*
X189508021Y-67974865D01*
X189698255Y-67975601D01*
X190481465Y-67976043D01*
X190618300Y-68044420D01*
X190642277Y-68056952D01*
X190785348Y-68158154D01*
X190899961Y-68287369D01*
X190978887Y-68436734D01*
X190989189Y-68465868D01*
X190999033Y-68500502D01*
X191006843Y-68540718D01*
X191012853Y-68591397D01*
X191017292Y-68657421D01*
X191020394Y-68743674D01*
X191022389Y-68855037D01*
X191023510Y-68996393D01*
X191023987Y-69172624D01*
X191024053Y-69388611D01*
X191024018Y-69494600D01*
X191023807Y-69689747D01*
X191023192Y-69847313D01*
X191021904Y-69972100D01*
X191019678Y-70068912D01*
X191016781Y-70131065D01*
G37*
%TD.AperFunction*%
%TD*%
D13*
%TO.P,J7,1,Power*%
%TO.N,Net-(J3-Pin_1)*%
X150975800Y-116609400D03*
D14*
X152245800Y-114069400D03*
X154785800Y-114069400D03*
D13*
X156345800Y-116609400D03*
D14*
%TO.P,J7,2,GND*%
%TO.N,Net-(J3-Pin_2)*%
X150975800Y-121689400D03*
X152245800Y-124229400D03*
X154785800Y-124229400D03*
X156345800Y-121689400D03*
%TD*%
D15*
%TO.P,TP3,1,1*%
%TO.N,GND*%
X150275800Y-71419400D03*
%TD*%
D14*
%TO.P,J1,1,Pin_1*%
%TO.N,/BATT_NEG*%
X190945800Y-81119400D03*
D13*
%TO.P,J1,2,Pin_2*%
%TO.N,/BATT_POS*%
X188405800Y-81119400D03*
%TD*%
D15*
%TO.P,TP7,1,1*%
%TO.N,GND*%
X142693713Y-79756113D03*
%TD*%
%TO.P,TP2,1,1*%
%TO.N,GND*%
X152215800Y-79769400D03*
%TD*%
%TO.P,TP5,1,1*%
%TO.N,GND*%
X126825800Y-112239400D03*
%TD*%
%TO.P,TP6,1,1*%
%TO.N,GND*%
X165835800Y-73239400D03*
%TD*%
%TO.P,TP1,1,1*%
%TO.N,GND*%
X165835800Y-151189400D03*
%TD*%
%TO.P,TP4,1,1*%
%TO.N,GND*%
X204805800Y-112189400D03*
%TD*%
D16*
%TO.P,J5,1,In*%
%TO.N,Balun*%
X164605800Y-112189400D03*
D17*
%TO.P,J5,2,Ext*%
%TO.N,GND*%
X162065800Y-109649400D03*
X162065800Y-114729400D03*
X167145800Y-109649400D03*
X167145800Y-114729400D03*
%TD*%
D18*
%TO.P,J10,1,VBUS*%
%TO.N,Net-(J10-VBUS)*%
X119655800Y-80444400D03*
%TO.P,J10,2,D-*%
%TO.N,/1d-*%
X119655800Y-81094400D03*
%TO.P,J10,3,D+*%
%TO.N,/1d+*%
X119655800Y-81744400D03*
%TO.P,J10,4,ID*%
%TO.N,unconnected-(J10-ID-Pad4)*%
X119655800Y-82394400D03*
%TO.P,J10,5,GND*%
%TO.N,GND*%
X119655800Y-83044400D03*
D19*
%TO.P,J10,SH1,Shield*%
X116995800Y-85694400D03*
D20*
%TO.P,J10,SH2*%
%TO.N,N/C*%
X119295800Y-84206900D03*
D21*
%TO.P,J10,SH3*%
X116995800Y-82681900D03*
%TO.P,J10,SH4*%
X116995800Y-80806900D03*
D20*
%TO.P,J10,SH5*%
X119295800Y-79281900D03*
D19*
%TO.P,J10,SH6*%
X116995800Y-77794400D03*
%TD*%
D18*
%TO.P,J13,1,VBUS*%
%TO.N,Net-(J13-VBUS)*%
X211435800Y-92444400D03*
%TO.P,J13,2,D-*%
%TO.N,/2d-*%
X211435800Y-91794400D03*
%TO.P,J13,3,D+*%
%TO.N,/2d+*%
X211435800Y-91144400D03*
%TO.P,J13,4,ID*%
%TO.N,unconnected-(J13-ID-Pad4)*%
X211435800Y-90494400D03*
%TO.P,J13,5,GND*%
%TO.N,GND*%
X211435800Y-89844400D03*
D19*
%TO.P,J13,SH1,Shield*%
X214095800Y-87194400D03*
D20*
%TO.P,J13,SH2*%
%TO.N,N/C*%
X211795800Y-88681900D03*
D21*
%TO.P,J13,SH3*%
X214095800Y-90206900D03*
%TO.P,J13,SH4*%
X214095800Y-92081900D03*
D20*
%TO.P,J13,SH5*%
X211795800Y-93606900D03*
D19*
%TO.P,J13,SH6*%
X214095800Y-95094400D03*
%TD*%
D18*
%TO.P,J15,1,VBUS*%
%TO.N,Net-(J15-VBUS)*%
X211435800Y-82169400D03*
%TO.P,J15,2,D-*%
%TO.N,/3d-*%
X211435800Y-81519400D03*
%TO.P,J15,3,D+*%
%TO.N,/3d+*%
X211435800Y-80869400D03*
%TO.P,J15,4,ID*%
%TO.N,unconnected-(J15-ID-Pad4)*%
X211435800Y-80219400D03*
%TO.P,J15,5,GND*%
%TO.N,GND*%
X211435800Y-79569400D03*
D19*
%TO.P,J15,SH1,Shield*%
X214095800Y-76919400D03*
D20*
%TO.P,J15,SH2*%
%TO.N,N/C*%
X211795800Y-78406900D03*
D21*
%TO.P,J15,SH3*%
X214095800Y-79931900D03*
%TO.P,J15,SH4*%
X214095800Y-81806900D03*
D20*
%TO.P,J15,SH5*%
X211795800Y-83331900D03*
D19*
%TO.P,J15,SH6*%
X214095800Y-84819400D03*
%TD*%
D18*
%TO.P,J11,1,VBUS*%
%TO.N,Net-(J11-VBUS)*%
X119655800Y-90469400D03*
%TO.P,J11,2,D-*%
%TO.N,/0d-*%
X119655800Y-91119400D03*
%TO.P,J11,3,D+*%
%TO.N,/0d+*%
X119655800Y-91769400D03*
%TO.P,J11,4,ID*%
%TO.N,unconnected-(J11-ID-Pad4)*%
X119655800Y-92419400D03*
%TO.P,J11,5,GND*%
%TO.N,GND*%
X119655800Y-93069400D03*
D19*
%TO.P,J11,SH1,Shield*%
X116995800Y-95719400D03*
D20*
%TO.P,J11,SH2*%
%TO.N,N/C*%
X119295800Y-94231900D03*
D21*
%TO.P,J11,SH3*%
X116995800Y-92706900D03*
%TO.P,J11,SH4*%
X116995800Y-90831900D03*
D20*
%TO.P,J11,SH5*%
X119295800Y-89306900D03*
D19*
%TO.P,J11,SH6*%
X116995800Y-87819400D03*
%TD*%
D22*
%TO.P,U1,1,GPIO1*%
%TO.N,/GPIO*%
X121525800Y-135279400D03*
%TO.P,U1,2,NC*%
%TO.N,unconnected-(U1-NC-Pad2)*%
X121525800Y-136029400D03*
%TO.P,U1,3,NC*%
%TO.N,unconnected-(U1-NC-Pad3)*%
X121525800Y-136779400D03*
%TO.P,U1,4,GPIO0*%
%TO.N,/XSHUT_2.8V*%
X121525800Y-137529400D03*
%TO.P,U1,5,SCL*%
%TO.N,/SCL_3V*%
X121525800Y-138279400D03*
%TO.P,U1,6,SDA*%
%TO.N,/SDA_3V*%
X121525800Y-139029400D03*
%TO.P,U1,7,NC*%
%TO.N,unconnected-(U1-NC-Pad7)*%
X119125800Y-139029400D03*
%TO.P,U1,8,AVDD_VCSEL*%
%TO.N,2.8V*%
X119125800Y-138279400D03*
%TO.P,U1,9,AVSS_VCSEL*%
%TO.N,GND*%
X119125800Y-137529400D03*
%TO.P,U1,10,AVDD*%
%TO.N,2.8V*%
X119125800Y-136779400D03*
%TO.P,U1,11,NC*%
%TO.N,unconnected-(U1-NC-Pad11)*%
X119125800Y-136029400D03*
%TO.P,U1,12,AVSS*%
%TO.N,GND*%
X119125800Y-135279400D03*
%TD*%
D23*
%TO.N,GND*%
X166395800Y-133959400D03*
X165885800Y-125429400D03*
X163695800Y-129819400D03*
X165785800Y-127499400D03*
X122535800Y-83619400D03*
X165545800Y-117729400D03*
X163705800Y-116759400D03*
X163695800Y-130809400D03*
X163695800Y-131849400D03*
X163705800Y-119859400D03*
X163695800Y-127589400D03*
X165785800Y-129809400D03*
X165785800Y-130799400D03*
X122897421Y-141398978D03*
X209075800Y-78979400D03*
X165545800Y-121979400D03*
X163715800Y-123269400D03*
X165785800Y-131819400D03*
X165785800Y-132959400D03*
X165545800Y-118879400D03*
X165545800Y-119869400D03*
X163705800Y-117749400D03*
X163715800Y-124259400D03*
X163705800Y-118789400D03*
X165545800Y-120909400D03*
X163715800Y-125299400D03*
X165545800Y-116649400D03*
X133575800Y-97979400D03*
X163715800Y-126369400D03*
X165785800Y-128649400D03*
X157755800Y-98109400D03*
X163695800Y-132919400D03*
X163715800Y-122119400D03*
X163695800Y-128669400D03*
X136795800Y-98019400D03*
X165885800Y-126499400D03*
X163715800Y-121039400D03*
X148635800Y-101279400D03*
X209175800Y-89609400D03*
X121705800Y-93769400D03*
%TO.N,3.3V*%
X147075800Y-101489400D03*
X169295800Y-102969400D03*
X155865800Y-103379400D03*
X143145800Y-100869400D03*
X178315800Y-102499400D03*
X155945800Y-96009400D03*
X168585800Y-121599400D03*
X190135800Y-88509400D03*
%TO.N,2.8V*%
X125765800Y-139589400D03*
X144825800Y-103370725D03*
X147215800Y-100149400D03*
%TO.N,/SCL_3V*%
X122944313Y-138770900D03*
%TO.N,/SDA_3V*%
X143015800Y-104569400D03*
X120455800Y-128919400D03*
%TO.N,SCL1*%
X156235800Y-101349400D03*
X153525800Y-103989400D03*
%TO.N,/GPIO*%
X121535800Y-134409400D03*
%TO.N,/XSHUT_2.8V*%
X122604434Y-137311857D03*
%TO.N,/1d-*%
X124159873Y-80864400D03*
%TO.N,/1d+*%
X124159873Y-81914400D03*
%TO.N,Net-(J10-VBUS)*%
X121745800Y-80359400D03*
%TO.N,/0d-*%
X124770784Y-90904400D03*
%TO.N,/0d+*%
X124770784Y-91954400D03*
%TO.N,/2d-*%
X207144972Y-91964400D03*
%TO.N,/2d+*%
X207144972Y-90914400D03*
%TO.N,/3d-*%
X206237842Y-81684400D03*
%TO.N,/3d+*%
X206237842Y-80634400D03*
%TO.N,Net-(J11-VBUS)*%
X121985800Y-90804899D03*
%TO.N,Net-(J13-VBUS)*%
X209325800Y-93099900D03*
%TO.N,Net-(J15-VBUS)*%
X209502184Y-82340211D03*
%TO.N,SPI0_MISO*%
X178875800Y-94779400D03*
X185965800Y-94779400D03*
%TO.N,SPI0_MOSI*%
X184345800Y-95789400D03*
X178824077Y-95810134D03*
%TO.N,SPI0_SCK*%
X178845800Y-96809400D03*
X182345800Y-96809400D03*
%TD*%
D24*
%TO.N,GND*%
X117725800Y-135779400D02*
X118225800Y-135279400D01*
X118225800Y-135279400D02*
X119125800Y-135279400D01*
X118371800Y-137529400D02*
X117725800Y-136883400D01*
D25*
X209675800Y-79579400D02*
X209075800Y-78979400D01*
X119655800Y-83059400D02*
X121975800Y-83059400D01*
X121005800Y-93069400D02*
X121705800Y-93769400D01*
D24*
X117725800Y-136883400D02*
X117725800Y-135779400D01*
D25*
X121975800Y-83059400D02*
X122535800Y-83619400D01*
X148635800Y-101279400D02*
X148635800Y-100544095D01*
D24*
X118065800Y-140589400D02*
X118065800Y-137835400D01*
X122894919Y-141459400D02*
X118935800Y-141459400D01*
X118371800Y-137529400D02*
X119125800Y-137529400D01*
D25*
X209405803Y-89839403D02*
X209175800Y-89609400D01*
X211435800Y-89839403D02*
X209405803Y-89839403D01*
X146111105Y-98019400D02*
X136795800Y-98019400D01*
D24*
X118935800Y-141459400D02*
X118065800Y-140589400D01*
D25*
X211435800Y-79579400D02*
X209675800Y-79579400D01*
D24*
X118065800Y-137835400D02*
X118371800Y-137529400D01*
X133615800Y-98019400D02*
X133575800Y-97979400D01*
D25*
X119655800Y-93069400D02*
X121005800Y-93069400D01*
X148635800Y-100544095D02*
X146111105Y-98019400D01*
D24*
X136795800Y-98019400D02*
X133615800Y-98019400D01*
%TO.N,2.8V*%
X124961640Y-140369400D02*
X125741640Y-139589400D01*
X119879800Y-138279400D02*
X119955800Y-138203400D01*
X131545800Y-131197547D02*
X125765800Y-136977547D01*
X144825800Y-103370725D02*
X141136341Y-103370725D01*
X119625800Y-136779400D02*
X119125800Y-136779400D01*
X141136341Y-103370725D02*
X131545800Y-112961266D01*
X144825800Y-102539400D02*
X144825800Y-103370725D01*
X119879800Y-138279400D02*
X119995800Y-138395400D01*
X119125800Y-138279400D02*
X119879800Y-138279400D01*
X119955800Y-138203400D02*
X119955800Y-137109400D01*
X147215800Y-100149400D02*
X144825800Y-102539400D01*
X125765800Y-136977547D02*
X125765800Y-139589400D01*
X125741640Y-139589400D02*
X125765800Y-139589400D01*
X119995800Y-139459400D02*
X120905800Y-140369400D01*
X119955800Y-137109400D02*
X119625800Y-136779400D01*
X131545800Y-112961266D02*
X131545800Y-131197547D01*
X120905800Y-140369400D02*
X124961640Y-140369400D01*
X119995800Y-138395400D02*
X119995800Y-139459400D01*
%TO.N,/SCL_3V*%
X122452813Y-138279400D02*
X122944313Y-138770900D01*
X121525800Y-138279400D02*
X122452813Y-138279400D01*
%TO.N,/SDA_3V*%
X121525800Y-139029400D02*
X120771800Y-139029400D01*
X120455800Y-138713400D02*
X120455800Y-128919400D01*
X120771800Y-139029400D02*
X120455800Y-138713400D01*
D25*
%TO.N,SCL1*%
X156165800Y-101349400D02*
X156235800Y-101349400D01*
X153525800Y-103989400D02*
X156165800Y-101349400D01*
D24*
%TO.N,/GPIO*%
X121535800Y-135269400D02*
X121525800Y-135279400D01*
X121535800Y-134409400D02*
X121535800Y-135269400D01*
%TO.N,/XSHUT_2.8V*%
X122386891Y-137529400D02*
X122604434Y-137311857D01*
X121525800Y-137529400D02*
X122386891Y-137529400D01*
D26*
%TO.N,/1d-*%
X121365850Y-80969400D02*
X121455850Y-81059400D01*
X119794403Y-80969400D02*
X121365850Y-80969400D01*
X121455850Y-81059400D02*
X122035750Y-81059400D01*
X119655800Y-81094400D02*
X119669403Y-81094400D01*
X122230750Y-80864400D02*
X124159873Y-80864400D01*
X122035750Y-81059400D02*
X122230750Y-80864400D01*
X119669403Y-81094400D02*
X119794403Y-80969400D01*
%TO.N,/1d+*%
X123559874Y-81314401D02*
X124159873Y-81914400D01*
X122417118Y-81314401D02*
X123559874Y-81314401D01*
X120645800Y-81419381D02*
X121179462Y-81419381D01*
X119780800Y-81619400D02*
X120645800Y-81619400D01*
X122222139Y-81509381D02*
X122417118Y-81314401D01*
X121179462Y-81419381D02*
X121269462Y-81509381D01*
X119669403Y-81759400D02*
X119655800Y-81759400D01*
X119655800Y-81744400D02*
X119780800Y-81619400D01*
X121269462Y-81509381D02*
X122222139Y-81509381D01*
X120645800Y-81619400D02*
X120645800Y-81419381D01*
D25*
%TO.N,Net-(J10-VBUS)*%
X121745800Y-80359400D02*
X121645800Y-80459400D01*
X121645800Y-80459400D02*
X119655800Y-80459400D01*
D26*
%TO.N,/0d-*%
X124170785Y-91504399D02*
X120892167Y-91504399D01*
X120892167Y-91504399D02*
X120632168Y-91244400D01*
X124770784Y-90904400D02*
X124170785Y-91504399D01*
X120632168Y-91244400D02*
X119780800Y-91244400D01*
X119780800Y-91244400D02*
X119655800Y-91119400D01*
%TO.N,/0d+*%
X124770784Y-91954400D02*
X120645800Y-91954400D01*
X120645800Y-91954400D02*
X120645800Y-91894400D01*
X120645800Y-91894400D02*
X119794403Y-91894400D01*
X119669403Y-91769400D02*
X119655800Y-91769400D01*
X119794403Y-91894400D02*
X119669403Y-91769400D01*
%TO.N,/2d-*%
X211422197Y-91794400D02*
X211297197Y-91919400D01*
X210445800Y-91964400D02*
X207144972Y-91964400D01*
X211297197Y-91919400D02*
X210445800Y-91919400D01*
X211435800Y-91794400D02*
X211422197Y-91794400D01*
X210445800Y-91919400D02*
X210445800Y-91964400D01*
%TO.N,/2d+*%
X211310800Y-91269400D02*
X210459431Y-91269400D01*
X210459431Y-91269400D02*
X210214432Y-91514399D01*
X207744971Y-91514399D02*
X207144972Y-90914400D01*
X210214432Y-91514399D02*
X207744971Y-91514399D01*
X211435800Y-91144400D02*
X211310800Y-91269400D01*
X211422197Y-91139403D02*
X211435800Y-91139403D01*
X211297197Y-91014403D02*
X211422197Y-91139403D01*
%TO.N,/3d-*%
X211310800Y-81404400D02*
X211435800Y-81529400D01*
X210459432Y-81404400D02*
X211310800Y-81404400D01*
X206837841Y-81084401D02*
X210139433Y-81084401D01*
X206237842Y-81684400D02*
X206837841Y-81084401D01*
X210139433Y-81084401D02*
X210459432Y-81404400D01*
%TO.N,/3d+*%
X211297197Y-80754400D02*
X211422197Y-80879400D01*
X210445800Y-80634400D02*
X210445800Y-80754400D01*
X211422197Y-80879400D02*
X211435800Y-80879400D01*
X206237842Y-80634400D02*
X210445800Y-80634400D01*
X210445800Y-80754400D02*
X211297197Y-80754400D01*
D25*
%TO.N,Net-(J11-VBUS)*%
X119655800Y-90469400D02*
X121650301Y-90469400D01*
X121650301Y-90469400D02*
X121985800Y-90804899D01*
%TO.N,Net-(J13-VBUS)*%
X211435800Y-92439403D02*
X209986297Y-92439403D01*
X209986297Y-92439403D02*
X209325800Y-93099900D01*
%TO.N,Net-(J15-VBUS)*%
X209662995Y-82179400D02*
X209502184Y-82340211D01*
X211435800Y-82179400D02*
X209662995Y-82179400D01*
%TO.N,SPI0_MISO*%
X185965800Y-94779400D02*
X178875800Y-94779400D01*
%TO.N,SPI0_MOSI*%
X184325066Y-95810134D02*
X184345800Y-95789400D01*
X178824077Y-95810134D02*
X184325066Y-95810134D01*
%TO.N,SPI0_SCK*%
X178845800Y-96809400D02*
X182345800Y-96809400D01*
%TD*%
%TA.AperFunction,NonConductor*%
G36*
X164974240Y-114197561D02*
G01*
X165024131Y-114230284D01*
X165053373Y-114282291D01*
X165055411Y-114341920D01*
X165035175Y-114439303D01*
X165015333Y-114729399D01*
X165035175Y-115019494D01*
X165075514Y-115213617D01*
X165073354Y-115273682D01*
X165043614Y-115325913D01*
X164993063Y-115358424D01*
X164981299Y-115362462D01*
X164777174Y-115472928D01*
X164632526Y-115585513D01*
X164582688Y-115609031D01*
X164527581Y-115609031D01*
X164477745Y-115585513D01*
X164474426Y-115582930D01*
X164474424Y-115582929D01*
X164474423Y-115582928D01*
X164270303Y-115472464D01*
X164199865Y-115448282D01*
X164149313Y-115415770D01*
X164119573Y-115363539D01*
X164117413Y-115303474D01*
X164131170Y-115237272D01*
X164176424Y-115019499D01*
X164196267Y-114729400D01*
X164176424Y-114439301D01*
X164156188Y-114341920D01*
X164158224Y-114282292D01*
X164187466Y-114230285D01*
X164237357Y-114197561D01*
X164296709Y-114191460D01*
X164467248Y-114214900D01*
X164467252Y-114214900D01*
X164744348Y-114214900D01*
X164744351Y-114214900D01*
X164914889Y-114191460D01*
X164974240Y-114197561D01*
G37*
%TD.AperFunction*%
%TA.AperFunction,NonConductor*%
G36*
X140601385Y-62419736D02*
G01*
X140602856Y-62419906D01*
X140615746Y-62419903D01*
X140615749Y-62419904D01*
X140637447Y-62419899D01*
X140637973Y-62419899D01*
X140659994Y-62419999D01*
X140659994Y-62419998D01*
X140672907Y-62420057D01*
X140674391Y-62419892D01*
X151848044Y-62417700D01*
X204719700Y-62417700D01*
X204782700Y-62434581D01*
X204828819Y-62480700D01*
X204845700Y-62543700D01*
X204845700Y-72671437D01*
X204845700Y-72762963D01*
X204849592Y-72771046D01*
X204849595Y-72771051D01*
X204858913Y-72797681D01*
X204860910Y-72806431D01*
X204866504Y-72813445D01*
X204881517Y-72837336D01*
X204885412Y-72845424D01*
X204892431Y-72851022D01*
X204912380Y-72870971D01*
X204917976Y-72877988D01*
X204926056Y-72881879D01*
X204926058Y-72881880D01*
X204949949Y-72896892D01*
X204956969Y-72902490D01*
X204965718Y-72904486D01*
X204992343Y-72913802D01*
X205000437Y-72917700D01*
X205023610Y-72917700D01*
X205091963Y-72917700D01*
X215219660Y-72917700D01*
X215282665Y-72934583D01*
X215328784Y-72980709D01*
X215345660Y-73043716D01*
X215345385Y-75264485D01*
X215332748Y-75319467D01*
X215297385Y-75363424D01*
X215246384Y-75387542D01*
X215189971Y-75386988D01*
X214951575Y-75329754D01*
X214762836Y-75314900D01*
X213428764Y-75314900D01*
X213271481Y-75327278D01*
X213240024Y-75329754D01*
X212994447Y-75388712D01*
X212761116Y-75485361D01*
X212545782Y-75617318D01*
X212353738Y-75781338D01*
X212189718Y-75973382D01*
X212057761Y-76188716D01*
X211961112Y-76422047D01*
X211925036Y-76572314D01*
X211900437Y-76622195D01*
X211856761Y-76656626D01*
X211802517Y-76668900D01*
X210687762Y-76668900D01*
X210568384Y-76679513D01*
X210372748Y-76735491D01*
X210192394Y-76829701D01*
X210034691Y-76958291D01*
X209906101Y-77115994D01*
X209811891Y-77296348D01*
X209755913Y-77491984D01*
X209749441Y-77564785D01*
X209731885Y-77618611D01*
X209692535Y-77659316D01*
X209639334Y-77678683D01*
X209583024Y-77672800D01*
X209543746Y-77659316D01*
X209420781Y-77617102D01*
X209191849Y-77578900D01*
X208959751Y-77578900D01*
X208730819Y-77617102D01*
X208730816Y-77617102D01*
X208730816Y-77617103D01*
X208511297Y-77692463D01*
X208307175Y-77802928D01*
X208124012Y-77945490D01*
X207966821Y-78116245D01*
X207839876Y-78310550D01*
X207746642Y-78523100D01*
X207704126Y-78690993D01*
X207689666Y-78748095D01*
X207679453Y-78871351D01*
X207670541Y-78978911D01*
X207670500Y-78979400D01*
X207689666Y-79210705D01*
X207689666Y-79210708D01*
X207689667Y-79210709D01*
X207731770Y-79376969D01*
X207732944Y-79433757D01*
X207709058Y-79485291D01*
X207664965Y-79521097D01*
X207609626Y-79533900D01*
X207147330Y-79533900D01*
X207106418Y-79527073D01*
X207069942Y-79507334D01*
X207006468Y-79457930D01*
X207006466Y-79457929D01*
X207006465Y-79457928D01*
X206802344Y-79347463D01*
X206653742Y-79296448D01*
X206582823Y-79272102D01*
X206353891Y-79233900D01*
X206121793Y-79233900D01*
X205892861Y-79272102D01*
X205892858Y-79272102D01*
X205892858Y-79272103D01*
X205673339Y-79347463D01*
X205469217Y-79457928D01*
X205286054Y-79600490D01*
X205128863Y-79771245D01*
X205001918Y-79965550D01*
X204908684Y-80178100D01*
X204865480Y-80348711D01*
X204851708Y-80403095D01*
X204841479Y-80526546D01*
X204832651Y-80633090D01*
X204832542Y-80634400D01*
X204851708Y-80865705D01*
X204851708Y-80865708D01*
X204851709Y-80865709D01*
X204908684Y-81090698D01*
X204916619Y-81108788D01*
X204927231Y-81159400D01*
X204916619Y-81210012D01*
X204908684Y-81228101D01*
X204867838Y-81389399D01*
X204851708Y-81453095D01*
X204832542Y-81684400D01*
X204851708Y-81915705D01*
X204851708Y-81915708D01*
X204851709Y-81915709D01*
X204908684Y-82140699D01*
X205001918Y-82353249D01*
X205128863Y-82547554D01*
X205250893Y-82680114D01*
X205286058Y-82718313D01*
X205399968Y-82806972D01*
X205469217Y-82860871D01*
X205673339Y-82971336D01*
X205892861Y-83046698D01*
X206121793Y-83084900D01*
X206353888Y-83084900D01*
X206353891Y-83084900D01*
X206582823Y-83046698D01*
X206802345Y-82971336D01*
X207006468Y-82860870D01*
X207189626Y-82718313D01*
X207346821Y-82547553D01*
X207473766Y-82353249D01*
X207514543Y-82260285D01*
X207542071Y-82220586D01*
X207582515Y-82194163D01*
X207629930Y-82184901D01*
X207972881Y-82184901D01*
X208038864Y-82203559D01*
X208085305Y-82254009D01*
X208098450Y-82321304D01*
X208096884Y-82340211D01*
X208116050Y-82571516D01*
X208116050Y-82571519D01*
X208116051Y-82571520D01*
X208173026Y-82796510D01*
X208266260Y-83009060D01*
X208393205Y-83203365D01*
X208550396Y-83374120D01*
X208550400Y-83374124D01*
X208662907Y-83461691D01*
X208733559Y-83516682D01*
X208789246Y-83546818D01*
X208937681Y-83627147D01*
X209157203Y-83702509D01*
X209386135Y-83740711D01*
X209386138Y-83740711D01*
X209619300Y-83740711D01*
X209682300Y-83757592D01*
X209728419Y-83803711D01*
X209745300Y-83866711D01*
X209745300Y-84127436D01*
X209755913Y-84246815D01*
X209811891Y-84442451D01*
X209871382Y-84556339D01*
X209906102Y-84622807D01*
X210034691Y-84780509D01*
X210192393Y-84909098D01*
X210278870Y-84954269D01*
X210372748Y-85003308D01*
X210372750Y-85003308D01*
X210372751Y-85003309D01*
X210568382Y-85059286D01*
X210687763Y-85069900D01*
X211802517Y-85069899D01*
X211856761Y-85082173D01*
X211900437Y-85116605D01*
X211925036Y-85166485D01*
X211961112Y-85316752D01*
X212057761Y-85550083D01*
X212180356Y-85750138D01*
X212189719Y-85765417D01*
X212326075Y-85925070D01*
X212352782Y-85977486D01*
X212352782Y-86036314D01*
X212326075Y-86088728D01*
X212238087Y-86191752D01*
X212189716Y-86248387D01*
X212057761Y-86463716D01*
X211961112Y-86697047D01*
X211925036Y-86847314D01*
X211900437Y-86897195D01*
X211856761Y-86931626D01*
X211802517Y-86943900D01*
X210687762Y-86943900D01*
X210568384Y-86954513D01*
X210372748Y-87010491D01*
X210192394Y-87104701D01*
X210034691Y-87233291D01*
X209906101Y-87390994D01*
X209811891Y-87571348D01*
X209755913Y-87766984D01*
X209745300Y-87886363D01*
X209745300Y-88147705D01*
X209731330Y-88205371D01*
X209692516Y-88250250D01*
X209637467Y-88272388D01*
X209578389Y-88266878D01*
X209520786Y-88247103D01*
X209520781Y-88247102D01*
X209291849Y-88208900D01*
X209059751Y-88208900D01*
X208830819Y-88247102D01*
X208830816Y-88247102D01*
X208830816Y-88247103D01*
X208611297Y-88322463D01*
X208407175Y-88432928D01*
X208224012Y-88575490D01*
X208066821Y-88746245D01*
X207939876Y-88940550D01*
X207846642Y-89153100D01*
X207789667Y-89378090D01*
X207789666Y-89378095D01*
X207780725Y-89486002D01*
X207763396Y-89540095D01*
X207724071Y-89581080D01*
X207670741Y-89600629D01*
X207614244Y-89594770D01*
X207489957Y-89552103D01*
X207489954Y-89552102D01*
X207489953Y-89552102D01*
X207261021Y-89513900D01*
X207028923Y-89513900D01*
X206799991Y-89552102D01*
X206799988Y-89552102D01*
X206799988Y-89552103D01*
X206580469Y-89627463D01*
X206376347Y-89737928D01*
X206193184Y-89880490D01*
X206035993Y-90051245D01*
X205909048Y-90245550D01*
X205815814Y-90458100D01*
X205761370Y-90673095D01*
X205758838Y-90683095D01*
X205739672Y-90914400D01*
X205758838Y-91145705D01*
X205758838Y-91145708D01*
X205758839Y-91145709D01*
X205815814Y-91370699D01*
X205823749Y-91388789D01*
X205834360Y-91439399D01*
X205823749Y-91490009D01*
X205815813Y-91508100D01*
X205761370Y-91723095D01*
X205758838Y-91733095D01*
X205739672Y-91964400D01*
X205758838Y-92195705D01*
X205758838Y-92195708D01*
X205758839Y-92195709D01*
X205815814Y-92420699D01*
X205909048Y-92633249D01*
X206035993Y-92827554D01*
X206183982Y-92988313D01*
X206193188Y-92998313D01*
X206300026Y-93081468D01*
X206376347Y-93140871D01*
X206536104Y-93227327D01*
X206580469Y-93251336D01*
X206799991Y-93326698D01*
X207028923Y-93364900D01*
X207261018Y-93364900D01*
X207261021Y-93364900D01*
X207489953Y-93326698D01*
X207709475Y-93251336D01*
X207753841Y-93227326D01*
X207813807Y-93212140D01*
X207873777Y-93227325D01*
X207919291Y-93269223D01*
X207937096Y-93321085D01*
X207937103Y-93321084D01*
X207937123Y-93321165D01*
X207939378Y-93327732D01*
X207939665Y-93331204D01*
X207996642Y-93556199D01*
X208089876Y-93768749D01*
X208216821Y-93963054D01*
X208347960Y-94105509D01*
X208374016Y-94133813D01*
X208492072Y-94225699D01*
X208557175Y-94276371D01*
X208610567Y-94305265D01*
X208761297Y-94386836D01*
X208980819Y-94462198D01*
X209209751Y-94500400D01*
X209441849Y-94500400D01*
X209441851Y-94500400D01*
X209500710Y-94490577D01*
X209624815Y-94469868D01*
X209685244Y-94474564D01*
X209736490Y-94506934D01*
X209766691Y-94559487D01*
X209811889Y-94717447D01*
X209872212Y-94832928D01*
X209906102Y-94897807D01*
X210034691Y-95055509D01*
X210192393Y-95184098D01*
X210211168Y-95193905D01*
X210372748Y-95278308D01*
X210372750Y-95278308D01*
X210372751Y-95278309D01*
X210568382Y-95334286D01*
X210687763Y-95344900D01*
X211802517Y-95344899D01*
X211856761Y-95357173D01*
X211900437Y-95391605D01*
X211925036Y-95441485D01*
X211961112Y-95591752D01*
X212057761Y-95825083D01*
X212189718Y-96040417D01*
X212353738Y-96232461D01*
X212545782Y-96396481D01*
X212761116Y-96528438D01*
X212761118Y-96528438D01*
X212761120Y-96528440D01*
X212994449Y-96625088D01*
X213240025Y-96684046D01*
X213428764Y-96698900D01*
X214762831Y-96698900D01*
X214762836Y-96698900D01*
X214951575Y-96684046D01*
X215189890Y-96626830D01*
X215246306Y-96626277D01*
X215297309Y-96650400D01*
X215332672Y-96694362D01*
X215345304Y-96749349D01*
X215345520Y-126753399D01*
X215328640Y-126816399D01*
X215282520Y-126862519D01*
X215219520Y-126879400D01*
X197977991Y-126879400D01*
X197929773Y-126869809D01*
X197929161Y-126869400D01*
X197915800Y-126869400D01*
X167397313Y-126869400D01*
X167331330Y-126850742D01*
X167284889Y-126800293D01*
X167271743Y-126732995D01*
X167271932Y-126730712D01*
X167271934Y-126730705D01*
X167291100Y-126499400D01*
X167271934Y-126268095D01*
X167214957Y-126043100D01*
X167202637Y-126015013D01*
X167192024Y-125964398D01*
X167202638Y-125913783D01*
X167202938Y-125913100D01*
X167214957Y-125885700D01*
X167271934Y-125660705D01*
X167291100Y-125429400D01*
X167271934Y-125198095D01*
X167214957Y-124973100D01*
X167121724Y-124760551D01*
X166994779Y-124566247D01*
X166994778Y-124566245D01*
X166837587Y-124395490D01*
X166837586Y-124395489D01*
X166837584Y-124395487D01*
X166662739Y-124259400D01*
X166654424Y-124252928D01*
X166450302Y-124142463D01*
X166301700Y-124091448D01*
X166230781Y-124067102D01*
X166001849Y-124028900D01*
X165769751Y-124028900D01*
X165540819Y-124067102D01*
X165540816Y-124067102D01*
X165540816Y-124067103D01*
X165321292Y-124142465D01*
X165290028Y-124159384D01*
X165230059Y-124174569D01*
X165170090Y-124159381D01*
X165124577Y-124117482D01*
X165104492Y-124058971D01*
X165101934Y-124028095D01*
X165044957Y-123803100D01*
X165044955Y-123803096D01*
X165042989Y-123795331D01*
X165042989Y-123733467D01*
X165044954Y-123725706D01*
X165044957Y-123725700D01*
X165101934Y-123500705D01*
X165104976Y-123463992D01*
X165129019Y-123399778D01*
X165183130Y-123357662D01*
X165251283Y-123350119D01*
X165285878Y-123355891D01*
X165429748Y-123379900D01*
X165429751Y-123379900D01*
X165661846Y-123379900D01*
X165661849Y-123379900D01*
X165890781Y-123341698D01*
X166110303Y-123266336D01*
X166314426Y-123155870D01*
X166497584Y-123013313D01*
X166654779Y-122842553D01*
X166781724Y-122648249D01*
X166874957Y-122435700D01*
X166931934Y-122210705D01*
X166951100Y-121979400D01*
X166931934Y-121748095D01*
X166894279Y-121599400D01*
X167180500Y-121599400D01*
X167199666Y-121830705D01*
X167199666Y-121830708D01*
X167199667Y-121830709D01*
X167256642Y-122055699D01*
X167349876Y-122268249D01*
X167476821Y-122462554D01*
X167600989Y-122597436D01*
X167634016Y-122633313D01*
X167712501Y-122694400D01*
X167817175Y-122775871D01*
X167885974Y-122813103D01*
X168021297Y-122886336D01*
X168240819Y-122961698D01*
X168469751Y-122999900D01*
X168701846Y-122999900D01*
X168701849Y-122999900D01*
X168930781Y-122961698D01*
X169150303Y-122886336D01*
X169354426Y-122775870D01*
X169537584Y-122633313D01*
X169694779Y-122462553D01*
X169821724Y-122268249D01*
X169914957Y-122055700D01*
X169971934Y-121830705D01*
X169991100Y-121599400D01*
X169971934Y-121368095D01*
X169914957Y-121143100D01*
X169821724Y-120930551D01*
X169741716Y-120808090D01*
X169694778Y-120736245D01*
X169537587Y-120565490D01*
X169537586Y-120565489D01*
X169537584Y-120565487D01*
X169376376Y-120440014D01*
X169354424Y-120422928D01*
X169150302Y-120312463D01*
X169001700Y-120261448D01*
X168930781Y-120237102D01*
X168701849Y-120198900D01*
X168469751Y-120198900D01*
X168240819Y-120237102D01*
X168240816Y-120237102D01*
X168240816Y-120237103D01*
X168021297Y-120312463D01*
X167817175Y-120422928D01*
X167634012Y-120565490D01*
X167476821Y-120736245D01*
X167349876Y-120930550D01*
X167256642Y-121143100D01*
X167199667Y-121368090D01*
X167199666Y-121368095D01*
X167180500Y-121599400D01*
X166894279Y-121599400D01*
X166874957Y-121523100D01*
X166862636Y-121495013D01*
X166852024Y-121444400D01*
X166862637Y-121393785D01*
X166873906Y-121368095D01*
X166874957Y-121365700D01*
X166931934Y-121140705D01*
X166951100Y-120909400D01*
X166931934Y-120678095D01*
X166874957Y-120453100D01*
X166869217Y-120440014D01*
X166858604Y-120389400D01*
X166869217Y-120338786D01*
X166874957Y-120325699D01*
X166885012Y-120285993D01*
X166931934Y-120100705D01*
X166951100Y-119869400D01*
X166931934Y-119638095D01*
X166874957Y-119413100D01*
X166874954Y-119413095D01*
X166872989Y-119405332D01*
X166872989Y-119343468D01*
X166874954Y-119335704D01*
X166874957Y-119335700D01*
X166931934Y-119110705D01*
X166951100Y-118879400D01*
X166931934Y-118648095D01*
X166874957Y-118423100D01*
X166845090Y-118355011D01*
X166834478Y-118304398D01*
X166845089Y-118253788D01*
X166874957Y-118185700D01*
X166931934Y-117960705D01*
X166951100Y-117729400D01*
X166931934Y-117498095D01*
X166874957Y-117273100D01*
X166860444Y-117240014D01*
X166849831Y-117189400D01*
X166860444Y-117138786D01*
X166874957Y-117105700D01*
X166914395Y-116949968D01*
X166939278Y-116900798D01*
X166982765Y-116866951D01*
X167036539Y-116854900D01*
X167291192Y-116854900D01*
X167579250Y-116815307D01*
X167579251Y-116815306D01*
X167579256Y-116815306D01*
X167859250Y-116736856D01*
X168125953Y-116621010D01*
X168374398Y-116469927D01*
X168599957Y-116286422D01*
X168798427Y-116073912D01*
X168966112Y-115836356D01*
X169099888Y-115578180D01*
X169197264Y-115304193D01*
X169256424Y-115019499D01*
X169276267Y-114729400D01*
X169256424Y-114439301D01*
X169197264Y-114154607D01*
X169099888Y-113880620D01*
X168966112Y-113622444D01*
X168966110Y-113622441D01*
X168798429Y-113384890D01*
X168599958Y-113172378D01*
X168374398Y-112988873D01*
X168125951Y-112837789D01*
X167859250Y-112721944D01*
X167579250Y-112643492D01*
X167291192Y-112603900D01*
X167291188Y-112603900D01*
X167000412Y-112603900D01*
X167000408Y-112603900D01*
X166753161Y-112637883D01*
X166693808Y-112631782D01*
X166643917Y-112599057D01*
X166614676Y-112547049D01*
X166612640Y-112487422D01*
X166617123Y-112465850D01*
X166636033Y-112189400D01*
X166636033Y-112189399D01*
X201100221Y-112189399D01*
X201120521Y-112576732D01*
X201181198Y-112959833D01*
X201281587Y-113334492D01*
X201420583Y-113696589D01*
X201596675Y-114042189D01*
X201807927Y-114367489D01*
X202052018Y-114668916D01*
X202326283Y-114943181D01*
X202627710Y-115187272D01*
X202627715Y-115187275D01*
X202627716Y-115187276D01*
X202953011Y-115398525D01*
X203298606Y-115574614D01*
X203298610Y-115574616D01*
X203660707Y-115713612D01*
X203660709Y-115713612D01*
X203660713Y-115713614D01*
X204035367Y-115814002D01*
X204418462Y-115874678D01*
X204805800Y-115894978D01*
X205193138Y-115874678D01*
X205576233Y-115814002D01*
X205950887Y-115713614D01*
X206131940Y-115644114D01*
X206312989Y-115574616D01*
X206312989Y-115574615D01*
X206312994Y-115574614D01*
X206658589Y-115398525D01*
X206983884Y-115187276D01*
X207285316Y-114943181D01*
X207559581Y-114668916D01*
X207803676Y-114367484D01*
X208014925Y-114042189D01*
X208191014Y-113696594D01*
X208330014Y-113334487D01*
X208430402Y-112959833D01*
X208491078Y-112576738D01*
X208511378Y-112189400D01*
X208491078Y-111802062D01*
X208430402Y-111418967D01*
X208330014Y-111044313D01*
X208310666Y-110993909D01*
X208191016Y-110682210D01*
X208040401Y-110386611D01*
X208014925Y-110336611D01*
X207803676Y-110011316D01*
X207803675Y-110011315D01*
X207803672Y-110011310D01*
X207559581Y-109709883D01*
X207285316Y-109435618D01*
X206983889Y-109191527D01*
X206658589Y-108980275D01*
X206312989Y-108804183D01*
X205950892Y-108665187D01*
X205576233Y-108564798D01*
X205193132Y-108504121D01*
X204805800Y-108483821D01*
X204418467Y-108504121D01*
X204035366Y-108564798D01*
X203660707Y-108665187D01*
X203298610Y-108804183D01*
X202953010Y-108980275D01*
X202627710Y-109191527D01*
X202326283Y-109435618D01*
X202052018Y-109709883D01*
X201807927Y-110011310D01*
X201596675Y-110336610D01*
X201420583Y-110682210D01*
X201281587Y-111044307D01*
X201181198Y-111418966D01*
X201120521Y-111802067D01*
X201100221Y-112189399D01*
X166636033Y-112189399D01*
X166617123Y-111912950D01*
X166612640Y-111891377D01*
X166614676Y-111831749D01*
X166643918Y-111779741D01*
X166693809Y-111747017D01*
X166753160Y-111740916D01*
X166797548Y-111747017D01*
X167000409Y-111774900D01*
X167000412Y-111774900D01*
X167291188Y-111774900D01*
X167291192Y-111774900D01*
X167579250Y-111735307D01*
X167579251Y-111735306D01*
X167579256Y-111735306D01*
X167859250Y-111656856D01*
X168125953Y-111541010D01*
X168374398Y-111389927D01*
X168599957Y-111206422D01*
X168798427Y-110993912D01*
X168966112Y-110756356D01*
X169099888Y-110498180D01*
X169197264Y-110224193D01*
X169256424Y-109939499D01*
X169276267Y-109649400D01*
X169256424Y-109359301D01*
X169197264Y-109074607D01*
X169099888Y-108800620D01*
X168966112Y-108542444D01*
X168960025Y-108533821D01*
X168798429Y-108304890D01*
X168599958Y-108092378D01*
X168374398Y-107908873D01*
X168125951Y-107757789D01*
X167859250Y-107641944D01*
X167579250Y-107563492D01*
X167291192Y-107523900D01*
X167291188Y-107523900D01*
X167000412Y-107523900D01*
X167000408Y-107523900D01*
X166712349Y-107563492D01*
X166432349Y-107641944D01*
X166165648Y-107757789D01*
X165917201Y-107908873D01*
X165691641Y-108092378D01*
X165493170Y-108304890D01*
X165325489Y-108542441D01*
X165191712Y-108800618D01*
X165094336Y-109074606D01*
X165035175Y-109359305D01*
X165015333Y-109649400D01*
X165035175Y-109939496D01*
X165055411Y-110036879D01*
X165053373Y-110096508D01*
X165024131Y-110148515D01*
X164974241Y-110181238D01*
X164914890Y-110187340D01*
X164822788Y-110174681D01*
X164744348Y-110163900D01*
X164467252Y-110163900D01*
X164413523Y-110171284D01*
X164296708Y-110187340D01*
X164237356Y-110181238D01*
X164187466Y-110148514D01*
X164158224Y-110096506D01*
X164156188Y-110036879D01*
X164176424Y-109939499D01*
X164196267Y-109649400D01*
X164176424Y-109359301D01*
X164117264Y-109074607D01*
X164019888Y-108800620D01*
X163886112Y-108542444D01*
X163880025Y-108533821D01*
X163718429Y-108304890D01*
X163519958Y-108092378D01*
X163294398Y-107908873D01*
X163045951Y-107757789D01*
X162779250Y-107641944D01*
X162499250Y-107563492D01*
X162211192Y-107523900D01*
X162211188Y-107523900D01*
X161920412Y-107523900D01*
X161920408Y-107523900D01*
X161632349Y-107563492D01*
X161352349Y-107641944D01*
X161085648Y-107757789D01*
X160837201Y-107908873D01*
X160611641Y-108092378D01*
X160413170Y-108304890D01*
X160245489Y-108542441D01*
X160111712Y-108800618D01*
X160014336Y-109074606D01*
X159955175Y-109359305D01*
X159935333Y-109649400D01*
X159955175Y-109939494D01*
X159955175Y-109939498D01*
X159955176Y-109939499D01*
X159970100Y-110011316D01*
X160014336Y-110224193D01*
X160111712Y-110498181D01*
X160245489Y-110756358D01*
X160413170Y-110993909D01*
X160611641Y-111206421D01*
X160785509Y-111347872D01*
X160837202Y-111389927D01*
X161085647Y-111541010D01*
X161352350Y-111656856D01*
X161632344Y-111735306D01*
X161632346Y-111735306D01*
X161632349Y-111735307D01*
X161920408Y-111774900D01*
X161920412Y-111774900D01*
X162211188Y-111774900D01*
X162211191Y-111774900D01*
X162331165Y-111758409D01*
X162458438Y-111740916D01*
X162517787Y-111747017D01*
X162567677Y-111779738D01*
X162596920Y-111831744D01*
X162598960Y-111891372D01*
X162594476Y-111912950D01*
X162575567Y-112189399D01*
X162575567Y-112189400D01*
X162576971Y-112209932D01*
X162594476Y-112465846D01*
X162598960Y-112487422D01*
X162596922Y-112547052D01*
X162567680Y-112599059D01*
X162517790Y-112631782D01*
X162458438Y-112637883D01*
X162211192Y-112603900D01*
X162211188Y-112603900D01*
X161920412Y-112603900D01*
X161920408Y-112603900D01*
X161632349Y-112643492D01*
X161352349Y-112721944D01*
X161085648Y-112837789D01*
X160837201Y-112988873D01*
X160611641Y-113172378D01*
X160413170Y-113384890D01*
X160245489Y-113622441D01*
X160111712Y-113880618D01*
X160014336Y-114154606D01*
X159955175Y-114439305D01*
X159935333Y-114729399D01*
X159955175Y-115019494D01*
X160014336Y-115304193D01*
X160111712Y-115578181D01*
X160245489Y-115836358D01*
X160413170Y-116073909D01*
X160611641Y-116286421D01*
X160785509Y-116427872D01*
X160837202Y-116469927D01*
X161085647Y-116621010D01*
X161352350Y-116736856D01*
X161632344Y-116815306D01*
X161632346Y-116815306D01*
X161632349Y-116815307D01*
X161920408Y-116854900D01*
X162192422Y-116854900D01*
X162252391Y-116870086D01*
X162297905Y-116911984D01*
X162317991Y-116970491D01*
X162319666Y-116990705D01*
X162319666Y-116990708D01*
X162319667Y-116990709D01*
X162378610Y-117223469D01*
X162378610Y-117285331D01*
X162319667Y-117518090D01*
X162319666Y-117518095D01*
X162300500Y-117749400D01*
X162319666Y-117980705D01*
X162319666Y-117980708D01*
X162319667Y-117980709D01*
X162376642Y-118205699D01*
X162382385Y-118218792D01*
X162392995Y-118269400D01*
X162382385Y-118320008D01*
X162376642Y-118333100D01*
X162319667Y-118558090D01*
X162319666Y-118558095D01*
X162300500Y-118789400D01*
X162319666Y-119020705D01*
X162319666Y-119020708D01*
X162319667Y-119020709D01*
X162376641Y-119245696D01*
X162388964Y-119273789D01*
X162399575Y-119324400D01*
X162388964Y-119375011D01*
X162376641Y-119403103D01*
X162319667Y-119628090D01*
X162319666Y-119628095D01*
X162300500Y-119859400D01*
X162319666Y-120090705D01*
X162319666Y-120090708D01*
X162319667Y-120090709D01*
X162376641Y-120315696D01*
X162418088Y-120410185D01*
X162428700Y-120460797D01*
X162418088Y-120511410D01*
X162386642Y-120583101D01*
X162336435Y-120781364D01*
X162329666Y-120808095D01*
X162310500Y-121039400D01*
X162329666Y-121270705D01*
X162329666Y-121270708D01*
X162329667Y-121270709D01*
X162386641Y-121495696D01*
X162401156Y-121528786D01*
X162411768Y-121579397D01*
X162401157Y-121630009D01*
X162386642Y-121663100D01*
X162344199Y-121830705D01*
X162329666Y-121888095D01*
X162310500Y-122119400D01*
X162329666Y-122350705D01*
X162329666Y-122350708D01*
X162329667Y-122350709D01*
X162386642Y-122575698D01*
X162416508Y-122643787D01*
X162427120Y-122694398D01*
X162416509Y-122745010D01*
X162386641Y-122813103D01*
X162329667Y-123038090D01*
X162329666Y-123038095D01*
X162310500Y-123269400D01*
X162329666Y-123500705D01*
X162329666Y-123500708D01*
X162329667Y-123500709D01*
X162388610Y-123733469D01*
X162388610Y-123795331D01*
X162386643Y-123803100D01*
X162329666Y-124028095D01*
X162310500Y-124259400D01*
X162329666Y-124490705D01*
X162329666Y-124490708D01*
X162329667Y-124490709D01*
X162386642Y-124715699D01*
X162392385Y-124728792D01*
X162402995Y-124779400D01*
X162392385Y-124830008D01*
X162386642Y-124843100D01*
X162353722Y-124973100D01*
X162329666Y-125068095D01*
X162310500Y-125299400D01*
X162329666Y-125530705D01*
X162329666Y-125530708D01*
X162329667Y-125530709D01*
X162386642Y-125755698D01*
X162398963Y-125783787D01*
X162409575Y-125834398D01*
X162398964Y-125885009D01*
X162386642Y-125913100D01*
X162344403Y-126079899D01*
X162329666Y-126138095D01*
X162310500Y-126369400D01*
X162329666Y-126600705D01*
X162357969Y-126712470D01*
X162359143Y-126769257D01*
X162335257Y-126820791D01*
X162291164Y-126856597D01*
X162235825Y-126869400D01*
X132872439Y-126869400D01*
X132871827Y-126869809D01*
X132823609Y-126879400D01*
X132799300Y-126879400D01*
X132736300Y-126862519D01*
X132690181Y-126816400D01*
X132673300Y-126753400D01*
X132673300Y-122597437D01*
X149125300Y-122597437D01*
X149135913Y-122716815D01*
X149191891Y-122912451D01*
X149257520Y-123038090D01*
X149286102Y-123092807D01*
X149414691Y-123250509D01*
X149572393Y-123379098D01*
X149611983Y-123399778D01*
X149752748Y-123473308D01*
X149752750Y-123473308D01*
X149752751Y-123473309D01*
X149948382Y-123529286D01*
X150067763Y-123539900D01*
X150269300Y-123539899D01*
X150332300Y-123556780D01*
X150378419Y-123602899D01*
X150395300Y-123665899D01*
X150395300Y-125137437D01*
X150405913Y-125256815D01*
X150461891Y-125452451D01*
X150552234Y-125625403D01*
X150556102Y-125632807D01*
X150684691Y-125790509D01*
X150842393Y-125919098D01*
X150928870Y-125964269D01*
X151022748Y-126013308D01*
X151022750Y-126013308D01*
X151022751Y-126013309D01*
X151218382Y-126069286D01*
X151337763Y-126079900D01*
X153153836Y-126079899D01*
X153153837Y-126079899D01*
X153273218Y-126069286D01*
X153273217Y-126069286D01*
X153468849Y-126013309D01*
X153468853Y-126013306D01*
X153481136Y-126009792D01*
X153550462Y-126009792D01*
X153562748Y-126013307D01*
X153562751Y-126013309D01*
X153666866Y-126043100D01*
X153758381Y-126069286D01*
X153768128Y-126070152D01*
X153877763Y-126079900D01*
X155693836Y-126079899D01*
X155693837Y-126079899D01*
X155723681Y-126077245D01*
X155813218Y-126069286D01*
X156008849Y-126013309D01*
X156189207Y-125919098D01*
X156346909Y-125790509D01*
X156475498Y-125632807D01*
X156569709Y-125452449D01*
X156625686Y-125256818D01*
X156636300Y-125137437D01*
X156636299Y-123665898D01*
X156653180Y-123602899D01*
X156699299Y-123556780D01*
X156762299Y-123539899D01*
X157253837Y-123539899D01*
X157283681Y-123537245D01*
X157373218Y-123529286D01*
X157568849Y-123473309D01*
X157749207Y-123379098D01*
X157906909Y-123250509D01*
X158035498Y-123092807D01*
X158129709Y-122912449D01*
X158185686Y-122716818D01*
X158196300Y-122597437D01*
X158196299Y-120781364D01*
X158185686Y-120661982D01*
X158129709Y-120466351D01*
X158129708Y-120466350D01*
X158129708Y-120466348D01*
X158056239Y-120325700D01*
X158035498Y-120285993D01*
X157906909Y-120128291D01*
X157749207Y-119999702D01*
X157741803Y-119995834D01*
X157568851Y-119905491D01*
X157373215Y-119849513D01*
X157266745Y-119840047D01*
X157253836Y-119838900D01*
X155437762Y-119838900D01*
X155318384Y-119849513D01*
X155122748Y-119905491D01*
X154942394Y-119999701D01*
X154784691Y-120128291D01*
X154656101Y-120285994D01*
X154561891Y-120466348D01*
X154505913Y-120661984D01*
X154495300Y-120781363D01*
X154495300Y-122252900D01*
X154478419Y-122315900D01*
X154432300Y-122362019D01*
X154369300Y-122378900D01*
X153877762Y-122378900D01*
X153758384Y-122389513D01*
X153550462Y-122449007D01*
X153481138Y-122449007D01*
X153273215Y-122389513D01*
X153153837Y-122378900D01*
X152952299Y-122378900D01*
X152889299Y-122362019D01*
X152843180Y-122315900D01*
X152826299Y-122252900D01*
X152826299Y-120781363D01*
X152815686Y-120661984D01*
X152815686Y-120661982D01*
X152759709Y-120466351D01*
X152759708Y-120466350D01*
X152759708Y-120466348D01*
X152686239Y-120325700D01*
X152665498Y-120285993D01*
X152536909Y-120128291D01*
X152379207Y-119999702D01*
X152371803Y-119995834D01*
X152198851Y-119905491D01*
X152003215Y-119849513D01*
X151896745Y-119840047D01*
X151883836Y-119838900D01*
X150067762Y-119838900D01*
X149948384Y-119849513D01*
X149752748Y-119905491D01*
X149572394Y-119999701D01*
X149414691Y-120128291D01*
X149286101Y-120285994D01*
X149191891Y-120466348D01*
X149135913Y-120661984D01*
X149125300Y-120781363D01*
X149125300Y-122597437D01*
X132673300Y-122597437D01*
X132673300Y-116609399D01*
X149120572Y-116609399D01*
X149139456Y-116873423D01*
X149160573Y-116970494D01*
X149195723Y-117132078D01*
X149288226Y-117380089D01*
X149363581Y-117518090D01*
X149415085Y-117612413D01*
X149573714Y-117824317D01*
X149760882Y-118011485D01*
X149760885Y-118011487D01*
X149972789Y-118170116D01*
X150205111Y-118296974D01*
X150453122Y-118389477D01*
X150711774Y-118445743D01*
X150975800Y-118464627D01*
X151239826Y-118445743D01*
X151498478Y-118389477D01*
X151746489Y-118296974D01*
X151978811Y-118170116D01*
X152190715Y-118011487D01*
X152377887Y-117824315D01*
X152536516Y-117612411D01*
X152663374Y-117380089D01*
X152755877Y-117132078D01*
X152812143Y-116873426D01*
X152831027Y-116609400D01*
X152812143Y-116345374D01*
X152755877Y-116086722D01*
X152755876Y-116086719D01*
X152753961Y-116077916D01*
X152755631Y-116077552D01*
X152750113Y-116030193D01*
X152771632Y-115974037D01*
X152816729Y-115934251D01*
X152875130Y-115919899D01*
X153153837Y-115919899D01*
X153273218Y-115909286D01*
X153273217Y-115909286D01*
X153468849Y-115853309D01*
X153468853Y-115853306D01*
X153481136Y-115849792D01*
X153550462Y-115849792D01*
X153562748Y-115853307D01*
X153562751Y-115853309D01*
X153696752Y-115891651D01*
X153758381Y-115909286D01*
X153768128Y-115910152D01*
X153877763Y-115919900D01*
X154446470Y-115919899D01*
X154504871Y-115934251D01*
X154549968Y-115974037D01*
X154571487Y-116030193D01*
X154565968Y-116077552D01*
X154567639Y-116077916D01*
X154509456Y-116345376D01*
X154490572Y-116609399D01*
X154509456Y-116873423D01*
X154530573Y-116970494D01*
X154565723Y-117132078D01*
X154658226Y-117380089D01*
X154733581Y-117518090D01*
X154785085Y-117612413D01*
X154943714Y-117824317D01*
X155130882Y-118011485D01*
X155130885Y-118011487D01*
X155342789Y-118170116D01*
X155575111Y-118296974D01*
X155823122Y-118389477D01*
X156081774Y-118445743D01*
X156345800Y-118464627D01*
X156609826Y-118445743D01*
X156868478Y-118389477D01*
X157116489Y-118296974D01*
X157348811Y-118170116D01*
X157560715Y-118011487D01*
X157747887Y-117824315D01*
X157906516Y-117612411D01*
X158033374Y-117380089D01*
X158125877Y-117132078D01*
X158182143Y-116873426D01*
X158201027Y-116609400D01*
X158182143Y-116345374D01*
X158125877Y-116086722D01*
X158033374Y-115838711D01*
X157906516Y-115606389D01*
X157890888Y-115585513D01*
X157747885Y-115394482D01*
X157560717Y-115207314D01*
X157348813Y-115048685D01*
X157247165Y-114993181D01*
X157116489Y-114921826D01*
X156868478Y-114829323D01*
X156868470Y-114829320D01*
X156735516Y-114800398D01*
X156684411Y-114776321D01*
X156648963Y-114732333D01*
X156636299Y-114677278D01*
X156636299Y-113161363D01*
X156625686Y-113041984D01*
X156625686Y-113041982D01*
X156569709Y-112846351D01*
X156569708Y-112846350D01*
X156569708Y-112846348D01*
X156504724Y-112721944D01*
X156475498Y-112665993D01*
X156346909Y-112508291D01*
X156189207Y-112379702D01*
X156181803Y-112375834D01*
X156008851Y-112285491D01*
X155813215Y-112229513D01*
X155706745Y-112220047D01*
X155693836Y-112218900D01*
X153877762Y-112218900D01*
X153758384Y-112229513D01*
X153550462Y-112289007D01*
X153481138Y-112289007D01*
X153273215Y-112229513D01*
X153166745Y-112220047D01*
X153153836Y-112218900D01*
X151337762Y-112218900D01*
X151218384Y-112229513D01*
X151022748Y-112285491D01*
X150842394Y-112379701D01*
X150684691Y-112508291D01*
X150556101Y-112665994D01*
X150461891Y-112846348D01*
X150405913Y-113041984D01*
X150395300Y-113161363D01*
X150395300Y-114763406D01*
X150385127Y-114813006D01*
X150356250Y-114854596D01*
X150313336Y-114881459D01*
X150205111Y-114921826D01*
X150205109Y-114921826D01*
X150205109Y-114921827D01*
X149972786Y-115048685D01*
X149760882Y-115207314D01*
X149573714Y-115394482D01*
X149415085Y-115606386D01*
X149356534Y-115713614D01*
X149288226Y-115838711D01*
X149278793Y-115864002D01*
X149195723Y-116086722D01*
X149139456Y-116345376D01*
X149120572Y-116609399D01*
X132673300Y-116609399D01*
X132673300Y-113480482D01*
X132682891Y-113432264D01*
X132710205Y-113391387D01*
X137026986Y-109074606D01*
X141412293Y-104689298D01*
X141474256Y-104655350D01*
X141544752Y-104660093D01*
X141601612Y-104702036D01*
X141626955Y-104767987D01*
X141629666Y-104800705D01*
X141629666Y-104800708D01*
X141629667Y-104800709D01*
X141686642Y-105025699D01*
X141779876Y-105238249D01*
X141906821Y-105432554D01*
X142064012Y-105603309D01*
X142064016Y-105603313D01*
X142210542Y-105717358D01*
X142247175Y-105745871D01*
X142451297Y-105856336D01*
X142670819Y-105931698D01*
X142899751Y-105969900D01*
X143131846Y-105969900D01*
X143131849Y-105969900D01*
X143360781Y-105931698D01*
X143580303Y-105856336D01*
X143784426Y-105745870D01*
X143967584Y-105603313D01*
X144124779Y-105432553D01*
X144251724Y-105238249D01*
X144344957Y-105025700D01*
X144393102Y-104835578D01*
X144422546Y-104781172D01*
X144474335Y-104747337D01*
X144535986Y-104742229D01*
X144709748Y-104771225D01*
X144709751Y-104771225D01*
X144941846Y-104771225D01*
X144941849Y-104771225D01*
X145170781Y-104733023D01*
X145390303Y-104657661D01*
X145594426Y-104547195D01*
X145777584Y-104404638D01*
X145934779Y-104233878D01*
X146061724Y-104039574D01*
X146083732Y-103989400D01*
X152120500Y-103989400D01*
X152139666Y-104220705D01*
X152139666Y-104220708D01*
X152139667Y-104220709D01*
X152196642Y-104445699D01*
X152289876Y-104658249D01*
X152416821Y-104852554D01*
X152574012Y-105023309D01*
X152574016Y-105023313D01*
X152720542Y-105137358D01*
X152757175Y-105165871D01*
X152890918Y-105238249D01*
X152961297Y-105276336D01*
X153180819Y-105351698D01*
X153409751Y-105389900D01*
X153641846Y-105389900D01*
X153641849Y-105389900D01*
X153870781Y-105351698D01*
X154090303Y-105276336D01*
X154294426Y-105165870D01*
X154477584Y-105023313D01*
X154634779Y-104852553D01*
X154761724Y-104658249D01*
X154815552Y-104535533D01*
X154849503Y-104490003D01*
X154900006Y-104464007D01*
X154956794Y-104462833D01*
X155008328Y-104486719D01*
X155097174Y-104555871D01*
X155286359Y-104658252D01*
X155301297Y-104666336D01*
X155520819Y-104741698D01*
X155749751Y-104779900D01*
X155981846Y-104779900D01*
X155981849Y-104779900D01*
X156210781Y-104741698D01*
X156430303Y-104666336D01*
X156634426Y-104555870D01*
X156817584Y-104413313D01*
X156974779Y-104242553D01*
X157101724Y-104048249D01*
X157194957Y-103835700D01*
X157251934Y-103610705D01*
X157271100Y-103379400D01*
X157251934Y-103148095D01*
X157206682Y-102969400D01*
X167890500Y-102969400D01*
X167909666Y-103200705D01*
X167909666Y-103200708D01*
X167909667Y-103200709D01*
X167966642Y-103425699D01*
X168059876Y-103638249D01*
X168186821Y-103832554D01*
X168331208Y-103989400D01*
X168344016Y-104003313D01*
X168490542Y-104117358D01*
X168527175Y-104145871D01*
X168665464Y-104220709D01*
X168731297Y-104256336D01*
X168950819Y-104331698D01*
X169179751Y-104369900D01*
X169411846Y-104369900D01*
X169411849Y-104369900D01*
X169640781Y-104331698D01*
X169860303Y-104256336D01*
X170064426Y-104145870D01*
X170247584Y-104003313D01*
X170404779Y-103832553D01*
X170531724Y-103638249D01*
X170624957Y-103425700D01*
X170681934Y-103200705D01*
X170701100Y-102969400D01*
X170681934Y-102738095D01*
X170624957Y-102513100D01*
X170618948Y-102499400D01*
X176910500Y-102499400D01*
X176929666Y-102730705D01*
X176929666Y-102730708D01*
X176929667Y-102730709D01*
X176986642Y-102955699D01*
X177079876Y-103168249D01*
X177206821Y-103362554D01*
X177363820Y-103533100D01*
X177364016Y-103533313D01*
X177463450Y-103610705D01*
X177547175Y-103675871D01*
X177699103Y-103758090D01*
X177751297Y-103786336D01*
X177970819Y-103861698D01*
X178199751Y-103899900D01*
X178431846Y-103899900D01*
X178431849Y-103899900D01*
X178660781Y-103861698D01*
X178880303Y-103786336D01*
X179084426Y-103675870D01*
X179267584Y-103533313D01*
X179424779Y-103362553D01*
X179551724Y-103168249D01*
X179644957Y-102955700D01*
X179701934Y-102730705D01*
X179721100Y-102499400D01*
X179701934Y-102268095D01*
X179644957Y-102043100D01*
X179551724Y-101830551D01*
X179454974Y-101682464D01*
X179424778Y-101636245D01*
X179267587Y-101465490D01*
X179267586Y-101465489D01*
X179267584Y-101465487D01*
X179087984Y-101325699D01*
X179084424Y-101322928D01*
X178880302Y-101212463D01*
X178731700Y-101161448D01*
X178660781Y-101137102D01*
X178431849Y-101098900D01*
X178199751Y-101098900D01*
X177970819Y-101137102D01*
X177970816Y-101137102D01*
X177970816Y-101137103D01*
X177751297Y-101212463D01*
X177547175Y-101322928D01*
X177364012Y-101465490D01*
X177206821Y-101636245D01*
X177079876Y-101830550D01*
X176986642Y-102043100D01*
X176929667Y-102268090D01*
X176929666Y-102268095D01*
X176910500Y-102499400D01*
X170618948Y-102499400D01*
X170531724Y-102300551D01*
X170404779Y-102106247D01*
X170404778Y-102106245D01*
X170247587Y-101935490D01*
X170247586Y-101935489D01*
X170247584Y-101935487D01*
X170112762Y-101830551D01*
X170064424Y-101792928D01*
X169860302Y-101682463D01*
X169711700Y-101631448D01*
X169640781Y-101607102D01*
X169411849Y-101568900D01*
X169179751Y-101568900D01*
X168950819Y-101607102D01*
X168950816Y-101607102D01*
X168950816Y-101607103D01*
X168731297Y-101682463D01*
X168527175Y-101792928D01*
X168344012Y-101935490D01*
X168186821Y-102106245D01*
X168059876Y-102300550D01*
X167966642Y-102513100D01*
X167911537Y-102730705D01*
X167909666Y-102738095D01*
X167890500Y-102969400D01*
X157206682Y-102969400D01*
X157194957Y-102923100D01*
X157101724Y-102710551D01*
X157052381Y-102635026D01*
X157032294Y-102576516D01*
X157042477Y-102515497D01*
X157080472Y-102466680D01*
X157187584Y-102383313D01*
X157344779Y-102212553D01*
X157471724Y-102018249D01*
X157564957Y-101805700D01*
X157621934Y-101580705D01*
X157641100Y-101349400D01*
X157621934Y-101118095D01*
X157564957Y-100893100D01*
X157471724Y-100680551D01*
X157344779Y-100486247D01*
X157344778Y-100486245D01*
X157187587Y-100315490D01*
X157187586Y-100315489D01*
X157187584Y-100315487D01*
X157039914Y-100200551D01*
X157004424Y-100172928D01*
X156800302Y-100062463D01*
X156636548Y-100006247D01*
X156580781Y-99987102D01*
X156351849Y-99948900D01*
X156119751Y-99948900D01*
X155890819Y-99987102D01*
X155890816Y-99987102D01*
X155890816Y-99987103D01*
X155671297Y-100062463D01*
X155467175Y-100172928D01*
X155284012Y-100315490D01*
X155126821Y-100486245D01*
X154999876Y-100680550D01*
X154906642Y-100893099D01*
X154873190Y-101025197D01*
X154840141Y-101083360D01*
X153348093Y-102575408D01*
X153316665Y-102598342D01*
X153279738Y-102610594D01*
X153180821Y-102627101D01*
X152961297Y-102702463D01*
X152757175Y-102812928D01*
X152574012Y-102955490D01*
X152416821Y-103126245D01*
X152289876Y-103320550D01*
X152196642Y-103533100D01*
X152170015Y-103638249D01*
X152139666Y-103758095D01*
X152120500Y-103989400D01*
X146083732Y-103989400D01*
X146154957Y-103827025D01*
X146211934Y-103602030D01*
X146231100Y-103370725D01*
X146211934Y-103139420D01*
X146154957Y-102914425D01*
X146152394Y-102904303D01*
X146153291Y-102904075D01*
X146145502Y-102868158D01*
X146154752Y-102819007D01*
X146182393Y-102777330D01*
X146232097Y-102727626D01*
X146277010Y-102698723D01*
X146329864Y-102691022D01*
X146381159Y-102705909D01*
X146440634Y-102738095D01*
X146511297Y-102776336D01*
X146730819Y-102851698D01*
X146959751Y-102889900D01*
X147191846Y-102889900D01*
X147191849Y-102889900D01*
X147420781Y-102851698D01*
X147640303Y-102776336D01*
X147844426Y-102665870D01*
X147948797Y-102584634D01*
X148005446Y-102559786D01*
X148067097Y-102564894D01*
X148071296Y-102566335D01*
X148071297Y-102566336D01*
X148290819Y-102641698D01*
X148519751Y-102679900D01*
X148751846Y-102679900D01*
X148751849Y-102679900D01*
X148980781Y-102641698D01*
X149200303Y-102566336D01*
X149404426Y-102455870D01*
X149587584Y-102313313D01*
X149744779Y-102142553D01*
X149871724Y-101948249D01*
X149964957Y-101735700D01*
X150021934Y-101510705D01*
X150041100Y-101279400D01*
X150021934Y-101048095D01*
X149964957Y-100823100D01*
X149871724Y-100610551D01*
X149778724Y-100468204D01*
X149764049Y-100420961D01*
X149760982Y-100421629D01*
X149758424Y-100409871D01*
X149758424Y-100409869D01*
X149751423Y-100377692D01*
X149749117Y-100362904D01*
X149745988Y-100330124D01*
X149728301Y-100269887D01*
X149726081Y-100261193D01*
X149712734Y-100199837D01*
X149699772Y-100169570D01*
X149694706Y-100155476D01*
X149685431Y-100123887D01*
X149685431Y-100123886D01*
X149656656Y-100068073D01*
X149652837Y-100059965D01*
X149628121Y-100002246D01*
X149617871Y-99987102D01*
X149609667Y-99974980D01*
X149602018Y-99962089D01*
X149586937Y-99932834D01*
X149548123Y-99883478D01*
X149542828Y-99876227D01*
X149507643Y-99824241D01*
X149484364Y-99800962D01*
X149474424Y-99789763D01*
X149454068Y-99763878D01*
X149406612Y-99722756D01*
X149400029Y-99716627D01*
X146980846Y-97297444D01*
X146967306Y-97281438D01*
X146965571Y-97279001D01*
X146965568Y-97278998D01*
X146898508Y-97215056D01*
X146896403Y-97213001D01*
X146869040Y-97185638D01*
X146869039Y-97185637D01*
X146869036Y-97185634D01*
X146862169Y-97179964D01*
X146855451Y-97174002D01*
X146810008Y-97130673D01*
X146810006Y-97130671D01*
X146782312Y-97112873D01*
X146770213Y-97104038D01*
X146744827Y-97083078D01*
X146689727Y-97052991D01*
X146681993Y-97048402D01*
X146629187Y-97014466D01*
X146598624Y-97002230D01*
X146585072Y-96995845D01*
X146573484Y-96989518D01*
X146556174Y-96980066D01*
X146556171Y-96980065D01*
X146496378Y-96960950D01*
X146487917Y-96957909D01*
X146456887Y-96945487D01*
X146429637Y-96934578D01*
X146397314Y-96928348D01*
X146382800Y-96924644D01*
X146351436Y-96914618D01*
X146351433Y-96914617D01*
X146289091Y-96907163D01*
X146280206Y-96905777D01*
X146218579Y-96893900D01*
X146218577Y-96893900D01*
X146185663Y-96893900D01*
X146170705Y-96893009D01*
X146161429Y-96891900D01*
X146138011Y-96889100D01*
X146138010Y-96889100D01*
X146075385Y-96893579D01*
X146066397Y-96893900D01*
X137673168Y-96893900D01*
X137632256Y-96887073D01*
X137595780Y-96867333D01*
X137564426Y-96842930D01*
X137564424Y-96842929D01*
X137564423Y-96842928D01*
X137360302Y-96732463D01*
X137202380Y-96678249D01*
X137140781Y-96657102D01*
X136911849Y-96618900D01*
X136679751Y-96618900D01*
X136450819Y-96657102D01*
X136450816Y-96657102D01*
X136450816Y-96657103D01*
X136231297Y-96732463D01*
X136027171Y-96842930D01*
X135998392Y-96865331D01*
X135961914Y-96885073D01*
X135921001Y-96891900D01*
X134501991Y-96891900D01*
X134461079Y-96885073D01*
X134424600Y-96865331D01*
X134344429Y-96802931D01*
X134140302Y-96692463D01*
X133991700Y-96641448D01*
X133920781Y-96617102D01*
X133691849Y-96578900D01*
X133459751Y-96578900D01*
X133230819Y-96617102D01*
X133230816Y-96617102D01*
X133230816Y-96617103D01*
X133011297Y-96692463D01*
X132807175Y-96802928D01*
X132624012Y-96945490D01*
X132466821Y-97116245D01*
X132339876Y-97310550D01*
X132246642Y-97523100D01*
X132189667Y-97748090D01*
X132189666Y-97748095D01*
X132170500Y-97979400D01*
X132189666Y-98210705D01*
X132189666Y-98210708D01*
X132189667Y-98210709D01*
X132246642Y-98435699D01*
X132339876Y-98648249D01*
X132466821Y-98842554D01*
X132624012Y-99013309D01*
X132624016Y-99013313D01*
X132770542Y-99127358D01*
X132807175Y-99155871D01*
X132881087Y-99195870D01*
X133011297Y-99266336D01*
X133230819Y-99341698D01*
X133459751Y-99379900D01*
X133691846Y-99379900D01*
X133691849Y-99379900D01*
X133920781Y-99341698D01*
X134140303Y-99266336D01*
X134311906Y-99173469D01*
X134332940Y-99162086D01*
X134392909Y-99146900D01*
X135921001Y-99146900D01*
X135961914Y-99153727D01*
X135998392Y-99173469D01*
X136027171Y-99195869D01*
X136193479Y-99285870D01*
X136231297Y-99306336D01*
X136450819Y-99381698D01*
X136679751Y-99419900D01*
X136911846Y-99419900D01*
X136911849Y-99419900D01*
X137140781Y-99381698D01*
X137360303Y-99306336D01*
X137564426Y-99195870D01*
X137595780Y-99171466D01*
X137632256Y-99151727D01*
X137673168Y-99144900D01*
X145592717Y-99144900D01*
X145640935Y-99154491D01*
X145681812Y-99181805D01*
X145919211Y-99419204D01*
X145946854Y-99460884D01*
X145956104Y-99510035D01*
X145945503Y-99558913D01*
X145886643Y-99693099D01*
X145830412Y-99915146D01*
X145797363Y-99973309D01*
X144762511Y-101008161D01*
X144710365Y-101039527D01*
X144649601Y-101042795D01*
X144594391Y-101017204D01*
X144557614Y-100968723D01*
X144547846Y-100908663D01*
X144551100Y-100869400D01*
X144531934Y-100638095D01*
X144474957Y-100413100D01*
X144381724Y-100200551D01*
X144254779Y-100006247D01*
X144254778Y-100006245D01*
X144097587Y-99835490D01*
X144097586Y-99835489D01*
X144097584Y-99835487D01*
X143952747Y-99722756D01*
X143914424Y-99692928D01*
X143710302Y-99582463D01*
X143561700Y-99531448D01*
X143490781Y-99507102D01*
X143261849Y-99468900D01*
X143029751Y-99468900D01*
X142800819Y-99507102D01*
X142800816Y-99507102D01*
X142800816Y-99507103D01*
X142581297Y-99582463D01*
X142377175Y-99692928D01*
X142194012Y-99835490D01*
X142036821Y-100006245D01*
X141909876Y-100200550D01*
X141816642Y-100413100D01*
X141798119Y-100486247D01*
X141759666Y-100638095D01*
X141740500Y-100869400D01*
X141759666Y-101100705D01*
X141759666Y-101100708D01*
X141759667Y-101100709D01*
X141816642Y-101325699D01*
X141909876Y-101538249D01*
X142036821Y-101732554D01*
X142104156Y-101805699D01*
X142194016Y-101903313D01*
X142295035Y-101981939D01*
X142341100Y-102017793D01*
X142379096Y-102066611D01*
X142389279Y-102127630D01*
X142369192Y-102186141D01*
X142323678Y-102228039D01*
X142263709Y-102243225D01*
X141241001Y-102243225D01*
X141220103Y-102241480D01*
X141217138Y-102240981D01*
X141125615Y-102243160D01*
X141124422Y-102243189D01*
X141121425Y-102243225D01*
X141082625Y-102243225D01*
X141073719Y-102244075D01*
X141064747Y-102244609D01*
X141001873Y-102246105D01*
X140969629Y-102253119D01*
X140954829Y-102255427D01*
X140921990Y-102258563D01*
X140861633Y-102276284D01*
X140852924Y-102278507D01*
X140791472Y-102291876D01*
X140761140Y-102304865D01*
X140747042Y-102309933D01*
X140715380Y-102319230D01*
X140659483Y-102348046D01*
X140651350Y-102351878D01*
X140593529Y-102376640D01*
X140566193Y-102395141D01*
X140553317Y-102402780D01*
X140523997Y-102417895D01*
X140474557Y-102456774D01*
X140467299Y-102462074D01*
X140415205Y-102497333D01*
X140391877Y-102520661D01*
X140380675Y-102530603D01*
X140354737Y-102551001D01*
X140313540Y-102598545D01*
X140307412Y-102605126D01*
X130822542Y-112089996D01*
X130806544Y-112103530D01*
X130804091Y-112105277D01*
X130740641Y-112171819D01*
X130691905Y-112203500D01*
X130634135Y-112209932D01*
X130579624Y-112189748D01*
X130539974Y-112147242D01*
X130523625Y-112091461D01*
X130514269Y-111912950D01*
X130511078Y-111852062D01*
X130450402Y-111468967D01*
X130350014Y-111094313D01*
X130330821Y-111044313D01*
X130211016Y-110732210D01*
X130185538Y-110682206D01*
X130034925Y-110386611D01*
X129823676Y-110061316D01*
X129823675Y-110061315D01*
X129823672Y-110061310D01*
X129579581Y-109759883D01*
X129305316Y-109485618D01*
X129003889Y-109241527D01*
X128678589Y-109030275D01*
X128332989Y-108854183D01*
X127970892Y-108715187D01*
X127596233Y-108614798D01*
X127213132Y-108554121D01*
X126825799Y-108533821D01*
X126438467Y-108554121D01*
X126055366Y-108614798D01*
X125680707Y-108715187D01*
X125318610Y-108854183D01*
X124973010Y-109030275D01*
X124647710Y-109241527D01*
X124346283Y-109485618D01*
X124072018Y-109759883D01*
X123827927Y-110061310D01*
X123616675Y-110386610D01*
X123440583Y-110732210D01*
X123301587Y-111094307D01*
X123201198Y-111468966D01*
X123140521Y-111852067D01*
X123120221Y-112239400D01*
X123140521Y-112626732D01*
X123201198Y-113009833D01*
X123301587Y-113384492D01*
X123440583Y-113746589D01*
X123616675Y-114092189D01*
X123827927Y-114417489D01*
X124072018Y-114718916D01*
X124346283Y-114993181D01*
X124647710Y-115237272D01*
X124647715Y-115237275D01*
X124647716Y-115237276D01*
X124973011Y-115448525D01*
X125282837Y-115606389D01*
X125318610Y-115624616D01*
X125680707Y-115763612D01*
X125680709Y-115763612D01*
X125680713Y-115763614D01*
X126055367Y-115864002D01*
X126438462Y-115924678D01*
X126825800Y-115944978D01*
X127213138Y-115924678D01*
X127596233Y-115864002D01*
X127970887Y-115763614D01*
X128332994Y-115624614D01*
X128678589Y-115448525D01*
X129003884Y-115237276D01*
X129305316Y-114993181D01*
X129579581Y-114718916D01*
X129823676Y-114417484D01*
X130034925Y-114092189D01*
X130180032Y-113807398D01*
X130224786Y-113758216D01*
X130288342Y-113738663D01*
X130353001Y-113754186D01*
X130400754Y-113800462D01*
X130418300Y-113864601D01*
X130418300Y-126753400D01*
X130401419Y-126816400D01*
X130355300Y-126862519D01*
X130292300Y-126879400D01*
X115872518Y-126879400D01*
X115809518Y-126862519D01*
X115763399Y-126816401D01*
X115746518Y-126753401D01*
X115746515Y-126369400D01*
X115746304Y-97374351D01*
X115758935Y-97319365D01*
X115794298Y-97275402D01*
X115845301Y-97251279D01*
X115901717Y-97251832D01*
X116140025Y-97309046D01*
X116328764Y-97323900D01*
X117662831Y-97323900D01*
X117662836Y-97323900D01*
X117851575Y-97309046D01*
X118097151Y-97250088D01*
X118330480Y-97153440D01*
X118545817Y-97021481D01*
X118737861Y-96857461D01*
X118901881Y-96665417D01*
X119033840Y-96450080D01*
X119130488Y-96216751D01*
X119166564Y-96066481D01*
X119191161Y-96016605D01*
X119200300Y-96009400D01*
X154540500Y-96009400D01*
X154559666Y-96240705D01*
X154559666Y-96240708D01*
X154559667Y-96240709D01*
X154616642Y-96465699D01*
X154709876Y-96678249D01*
X154836821Y-96872554D01*
X154973918Y-97021481D01*
X154994016Y-97043313D01*
X155087722Y-97116247D01*
X155177175Y-97185871D01*
X155381297Y-97296336D01*
X155600819Y-97371698D01*
X155829751Y-97409900D01*
X156061846Y-97409900D01*
X156061849Y-97409900D01*
X156290781Y-97371698D01*
X156324358Y-97360170D01*
X156381888Y-97354444D01*
X156435920Y-97375013D01*
X156475078Y-97417549D01*
X156491116Y-97473095D01*
X156480659Y-97529956D01*
X156426641Y-97653103D01*
X156378475Y-97843309D01*
X156369666Y-97878095D01*
X156350500Y-98109400D01*
X156369666Y-98340705D01*
X156369666Y-98340708D01*
X156369667Y-98340709D01*
X156426642Y-98565699D01*
X156519876Y-98778249D01*
X156646821Y-98972554D01*
X156804012Y-99143309D01*
X156804016Y-99143313D01*
X156871542Y-99195870D01*
X156987175Y-99285871D01*
X157090331Y-99341696D01*
X157191297Y-99396336D01*
X157410819Y-99471698D01*
X157639751Y-99509900D01*
X157871846Y-99509900D01*
X157871849Y-99509900D01*
X158100781Y-99471698D01*
X158320303Y-99396336D01*
X158524426Y-99285870D01*
X158707584Y-99143313D01*
X158864779Y-98972553D01*
X158991724Y-98778249D01*
X159084957Y-98565700D01*
X159141934Y-98340705D01*
X159161100Y-98109400D01*
X159141934Y-97878095D01*
X159084957Y-97653100D01*
X158991724Y-97440551D01*
X158877492Y-97265705D01*
X158864778Y-97246245D01*
X158707587Y-97075490D01*
X158707586Y-97075489D01*
X158707584Y-97075487D01*
X158566749Y-96965871D01*
X158524424Y-96932928D01*
X158320302Y-96822463D01*
X158151037Y-96764355D01*
X158100781Y-96747102D01*
X157871849Y-96708900D01*
X157639751Y-96708900D01*
X157502391Y-96731821D01*
X157410817Y-96747102D01*
X157377238Y-96758630D01*
X157319708Y-96764355D01*
X157265677Y-96743784D01*
X157226520Y-96701248D01*
X157210483Y-96645702D01*
X157220940Y-96588844D01*
X157274957Y-96465700D01*
X157331934Y-96240705D01*
X157351100Y-96009400D01*
X157334589Y-95810134D01*
X177418777Y-95810134D01*
X177437943Y-96041439D01*
X177437943Y-96041442D01*
X177437944Y-96041443D01*
X177494919Y-96266433D01*
X177505230Y-96289940D01*
X177515412Y-96330148D01*
X177511987Y-96371483D01*
X177472241Y-96528438D01*
X177459666Y-96578095D01*
X177440500Y-96809400D01*
X177459666Y-97040705D01*
X177459666Y-97040708D01*
X177459667Y-97040709D01*
X177516642Y-97265699D01*
X177609876Y-97478249D01*
X177736821Y-97672554D01*
X177894012Y-97843309D01*
X177894016Y-97843313D01*
X178020459Y-97941727D01*
X178077175Y-97985871D01*
X178281297Y-98096336D01*
X178500819Y-98171698D01*
X178729751Y-98209900D01*
X178961846Y-98209900D01*
X178961849Y-98209900D01*
X179190781Y-98171698D01*
X179410303Y-98096336D01*
X179614426Y-97985870D01*
X179645780Y-97961466D01*
X179682256Y-97941727D01*
X179723168Y-97934900D01*
X181468432Y-97934900D01*
X181509344Y-97941727D01*
X181545819Y-97961466D01*
X181577174Y-97985870D01*
X181781297Y-98096336D01*
X182000819Y-98171698D01*
X182229751Y-98209900D01*
X182461846Y-98209900D01*
X182461849Y-98209900D01*
X182690781Y-98171698D01*
X182910303Y-98096336D01*
X183114426Y-97985870D01*
X183297584Y-97843313D01*
X183454779Y-97672553D01*
X183581724Y-97478249D01*
X183674957Y-97265700D01*
X183693981Y-97190574D01*
X183728264Y-97131196D01*
X183788570Y-97098560D01*
X183857035Y-97102336D01*
X184000819Y-97151698D01*
X184229751Y-97189900D01*
X184461846Y-97189900D01*
X184461849Y-97189900D01*
X184690781Y-97151698D01*
X184910303Y-97076336D01*
X185114426Y-96965870D01*
X185297584Y-96823313D01*
X185454779Y-96652553D01*
X185581724Y-96458249D01*
X185674380Y-96247014D01*
X185707014Y-96202614D01*
X185755481Y-96176386D01*
X185810505Y-96173351D01*
X185849749Y-96179900D01*
X185849751Y-96179900D01*
X186081846Y-96179900D01*
X186081849Y-96179900D01*
X186310781Y-96141698D01*
X186530303Y-96066336D01*
X186734426Y-95955870D01*
X186917584Y-95813313D01*
X187074779Y-95642553D01*
X187201724Y-95448249D01*
X187294957Y-95235700D01*
X187351934Y-95010705D01*
X187371100Y-94779400D01*
X187351934Y-94548095D01*
X187294957Y-94323100D01*
X187201724Y-94110551D01*
X187105359Y-93963053D01*
X187074778Y-93916245D01*
X186917587Y-93745490D01*
X186917586Y-93745489D01*
X186917584Y-93745487D01*
X186742351Y-93609098D01*
X186734424Y-93602928D01*
X186530302Y-93492463D01*
X186381700Y-93441448D01*
X186310781Y-93417102D01*
X186081849Y-93378900D01*
X185849751Y-93378900D01*
X185620819Y-93417102D01*
X185620816Y-93417102D01*
X185620816Y-93417103D01*
X185401297Y-93492463D01*
X185197176Y-93602928D01*
X185189249Y-93609098D01*
X185165819Y-93627333D01*
X185129344Y-93647073D01*
X185088432Y-93653900D01*
X179753168Y-93653900D01*
X179712256Y-93647073D01*
X179675780Y-93627333D01*
X179644426Y-93602930D01*
X179644424Y-93602929D01*
X179644423Y-93602928D01*
X179440302Y-93492463D01*
X179291700Y-93441448D01*
X179220781Y-93417102D01*
X178991849Y-93378900D01*
X178759751Y-93378900D01*
X178530819Y-93417102D01*
X178530816Y-93417102D01*
X178530816Y-93417103D01*
X178311297Y-93492463D01*
X178107175Y-93602928D01*
X177924012Y-93745490D01*
X177766821Y-93916245D01*
X177639876Y-94110550D01*
X177546642Y-94323100D01*
X177501744Y-94500400D01*
X177489666Y-94548095D01*
X177470500Y-94779400D01*
X177489666Y-95010705D01*
X177536059Y-95193905D01*
X177539484Y-95235240D01*
X177529302Y-95275448D01*
X177494919Y-95353835D01*
X177437944Y-95578824D01*
X177437943Y-95578829D01*
X177418777Y-95810134D01*
X157334589Y-95810134D01*
X157331934Y-95778095D01*
X157274957Y-95553100D01*
X157181724Y-95340551D01*
X157113292Y-95235808D01*
X157054778Y-95146245D01*
X156897587Y-94975490D01*
X156897586Y-94975489D01*
X156897584Y-94975487D01*
X156787689Y-94889952D01*
X156714424Y-94832928D01*
X156510302Y-94722463D01*
X156361700Y-94671448D01*
X156290781Y-94647102D01*
X156061849Y-94608900D01*
X155829751Y-94608900D01*
X155600819Y-94647102D01*
X155600816Y-94647102D01*
X155600816Y-94647103D01*
X155381297Y-94722463D01*
X155177175Y-94832928D01*
X154994012Y-94975490D01*
X154836821Y-95146245D01*
X154709876Y-95340550D01*
X154616642Y-95553100D01*
X154559667Y-95778090D01*
X154559666Y-95778095D01*
X154540500Y-96009400D01*
X119200300Y-96009400D01*
X119234837Y-95982173D01*
X119289082Y-95969899D01*
X120403837Y-95969899D01*
X120433681Y-95967245D01*
X120523218Y-95959286D01*
X120718849Y-95903309D01*
X120899207Y-95809098D01*
X121056909Y-95680509D01*
X121185498Y-95522807D01*
X121279709Y-95342449D01*
X121310021Y-95236511D01*
X121340220Y-95183963D01*
X121391466Y-95151592D01*
X121451896Y-95146896D01*
X121526991Y-95159427D01*
X121589749Y-95169900D01*
X121589751Y-95169900D01*
X121821846Y-95169900D01*
X121821849Y-95169900D01*
X122050781Y-95131698D01*
X122270303Y-95056336D01*
X122474426Y-94945870D01*
X122657584Y-94803313D01*
X122814779Y-94632553D01*
X122941724Y-94438249D01*
X123034957Y-94225700D01*
X123091934Y-94000705D01*
X123111100Y-93769400D01*
X123091934Y-93538095D01*
X123034957Y-93313100D01*
X122999170Y-93231514D01*
X122988987Y-93170495D01*
X123009074Y-93111985D01*
X123054588Y-93070086D01*
X123114557Y-93054900D01*
X123861296Y-93054900D01*
X123902208Y-93061727D01*
X123938683Y-93081465D01*
X124002158Y-93130870D01*
X124206281Y-93241336D01*
X124425803Y-93316698D01*
X124654735Y-93354900D01*
X124886830Y-93354900D01*
X124886833Y-93354900D01*
X125115765Y-93316698D01*
X125335287Y-93241336D01*
X125539410Y-93130870D01*
X125722568Y-92988313D01*
X125879763Y-92817553D01*
X126006708Y-92623249D01*
X126099941Y-92410700D01*
X126156918Y-92185705D01*
X126176084Y-91954400D01*
X126156918Y-91723095D01*
X126099941Y-91498100D01*
X126092005Y-91480009D01*
X126081394Y-91429399D01*
X126092007Y-91378786D01*
X126099941Y-91360700D01*
X126156918Y-91135705D01*
X126176084Y-90904400D01*
X126156918Y-90673095D01*
X126099941Y-90448100D01*
X126006708Y-90235551D01*
X125909239Y-90086363D01*
X125879762Y-90041245D01*
X125722571Y-89870490D01*
X125722570Y-89870489D01*
X125722568Y-89870487D01*
X125595198Y-89771351D01*
X125539408Y-89727928D01*
X125335286Y-89617463D01*
X125186684Y-89566448D01*
X125115765Y-89542102D01*
X124886833Y-89503900D01*
X124654735Y-89503900D01*
X124425803Y-89542102D01*
X124425800Y-89542102D01*
X124425800Y-89542103D01*
X124206281Y-89617463D01*
X124002159Y-89727928D01*
X123818996Y-89870490D01*
X123661805Y-90041245D01*
X123534862Y-90235547D01*
X123515501Y-90279685D01*
X123480749Y-90325889D01*
X123429020Y-90351708D01*
X123371206Y-90351708D01*
X123319478Y-90325887D01*
X123284728Y-90279684D01*
X123221724Y-90136050D01*
X123154363Y-90032947D01*
X123094778Y-89941744D01*
X122937587Y-89770989D01*
X122937586Y-89770988D01*
X122937584Y-89770986D01*
X122798698Y-89662887D01*
X122754424Y-89628427D01*
X122550302Y-89517962D01*
X122385436Y-89461364D01*
X122330781Y-89442601D01*
X122101849Y-89404399D01*
X122101846Y-89404399D01*
X122042628Y-89404399D01*
X121995798Y-89395373D01*
X121968833Y-89384578D01*
X121936509Y-89378348D01*
X121921996Y-89374644D01*
X121890632Y-89364618D01*
X121890629Y-89364617D01*
X121828287Y-89357163D01*
X121819402Y-89355777D01*
X121757775Y-89343900D01*
X121757773Y-89343900D01*
X121724859Y-89343900D01*
X121709901Y-89343009D01*
X121701311Y-89341982D01*
X121677207Y-89339100D01*
X121677206Y-89339100D01*
X121614581Y-89343579D01*
X121605593Y-89343900D01*
X121472300Y-89343900D01*
X121409300Y-89327019D01*
X121363181Y-89280900D01*
X121346300Y-89217900D01*
X121346299Y-88511362D01*
X121346125Y-88509400D01*
X188730500Y-88509400D01*
X188749666Y-88740705D01*
X188749666Y-88740708D01*
X188749667Y-88740709D01*
X188806642Y-88965699D01*
X188899876Y-89178249D01*
X189026821Y-89372554D01*
X189182901Y-89542102D01*
X189184016Y-89543313D01*
X189330542Y-89657358D01*
X189367175Y-89685871D01*
X189463372Y-89737930D01*
X189571297Y-89796336D01*
X189790819Y-89871698D01*
X190019751Y-89909900D01*
X190251846Y-89909900D01*
X190251849Y-89909900D01*
X190480781Y-89871698D01*
X190700303Y-89796336D01*
X190904426Y-89685870D01*
X191087584Y-89543313D01*
X191244779Y-89372553D01*
X191371724Y-89178249D01*
X191464957Y-88965700D01*
X191521934Y-88740705D01*
X191541100Y-88509400D01*
X191521934Y-88278095D01*
X191464957Y-88053100D01*
X191371724Y-87840551D01*
X191244779Y-87646247D01*
X191244778Y-87646245D01*
X191087587Y-87475490D01*
X191087586Y-87475489D01*
X191087584Y-87475487D01*
X190977689Y-87389952D01*
X190904424Y-87332928D01*
X190700302Y-87222463D01*
X190551700Y-87171448D01*
X190480781Y-87147102D01*
X190251849Y-87108900D01*
X190019751Y-87108900D01*
X189790819Y-87147102D01*
X189790816Y-87147102D01*
X189790816Y-87147103D01*
X189571297Y-87222463D01*
X189367175Y-87332928D01*
X189184012Y-87475490D01*
X189026821Y-87646245D01*
X188899876Y-87840550D01*
X188806642Y-88053100D01*
X188751111Y-88272388D01*
X188749666Y-88278095D01*
X188730500Y-88509400D01*
X121346125Y-88509400D01*
X121335686Y-88391984D01*
X121335686Y-88391982D01*
X121279709Y-88196351D01*
X121279708Y-88196350D01*
X121279708Y-88196348D01*
X121230669Y-88102470D01*
X121185498Y-88015993D01*
X121056909Y-87858291D01*
X120899207Y-87729702D01*
X120891803Y-87725834D01*
X120718851Y-87635491D01*
X120523215Y-87579513D01*
X120403837Y-87568900D01*
X119289083Y-87568900D01*
X119234839Y-87556626D01*
X119191163Y-87522195D01*
X119166564Y-87472314D01*
X119133100Y-87332930D01*
X119130488Y-87322049D01*
X119033840Y-87088720D01*
X118937572Y-86931626D01*
X118901881Y-86873383D01*
X118872285Y-86838731D01*
X118845576Y-86786315D01*
X118845576Y-86727485D01*
X118872285Y-86675069D01*
X118901881Y-86640417D01*
X119033840Y-86425080D01*
X119130488Y-86191751D01*
X119166564Y-86041481D01*
X119191161Y-85991605D01*
X119234837Y-85957173D01*
X119289082Y-85944899D01*
X120403837Y-85944899D01*
X120433681Y-85942245D01*
X120523218Y-85934286D01*
X120718849Y-85878309D01*
X120899207Y-85784098D01*
X121056909Y-85655509D01*
X121185498Y-85497807D01*
X121279709Y-85317449D01*
X121335686Y-85121818D01*
X121346300Y-85002437D01*
X121346299Y-84717991D01*
X121360509Y-84659865D01*
X121399933Y-84614847D01*
X121455680Y-84593095D01*
X121515176Y-84599514D01*
X121564999Y-84632655D01*
X121584016Y-84653313D01*
X121675595Y-84724591D01*
X121767175Y-84795871D01*
X121971296Y-84906335D01*
X121971297Y-84906336D01*
X122190819Y-84981698D01*
X122419751Y-85019900D01*
X122651846Y-85019900D01*
X122651849Y-85019900D01*
X122880781Y-84981698D01*
X123100303Y-84906336D01*
X123304426Y-84795870D01*
X123487584Y-84653313D01*
X123644779Y-84482553D01*
X123771724Y-84288249D01*
X123864957Y-84075700D01*
X123921934Y-83850705D01*
X123941100Y-83619400D01*
X123927171Y-83451302D01*
X123940317Y-83384007D01*
X123986758Y-83333558D01*
X124052741Y-83314900D01*
X124275919Y-83314900D01*
X124275922Y-83314900D01*
X124504854Y-83276698D01*
X124724376Y-83201336D01*
X124928499Y-83090870D01*
X125111657Y-82948313D01*
X125268852Y-82777553D01*
X125395797Y-82583249D01*
X125489030Y-82370700D01*
X125546007Y-82145705D01*
X125565173Y-81914400D01*
X125546007Y-81683095D01*
X125489030Y-81458100D01*
X125481094Y-81440009D01*
X125470483Y-81389399D01*
X125481096Y-81338786D01*
X125489030Y-81320700D01*
X125546007Y-81095705D01*
X125565173Y-80864400D01*
X125546007Y-80633095D01*
X125489030Y-80408100D01*
X125395797Y-80195551D01*
X125268852Y-80001247D01*
X125268851Y-80001245D01*
X125111660Y-79830490D01*
X125111659Y-79830489D01*
X125111657Y-79830487D01*
X125016101Y-79756113D01*
X138988134Y-79756113D01*
X139008434Y-80143445D01*
X139069111Y-80526546D01*
X139169500Y-80901205D01*
X139308496Y-81263302D01*
X139484588Y-81608902D01*
X139695840Y-81934202D01*
X139939931Y-82235629D01*
X140214196Y-82509894D01*
X140515623Y-82753985D01*
X140515628Y-82753988D01*
X140515629Y-82753989D01*
X140840924Y-82965238D01*
X141186519Y-83141327D01*
X141186523Y-83141329D01*
X141548620Y-83280325D01*
X141548622Y-83280325D01*
X141548626Y-83280327D01*
X141923280Y-83380715D01*
X142306375Y-83441391D01*
X142693713Y-83461691D01*
X143081051Y-83441391D01*
X143464146Y-83380715D01*
X143838800Y-83280327D01*
X144200907Y-83141327D01*
X144546502Y-82965238D01*
X144871797Y-82753989D01*
X144963023Y-82680116D01*
X145173229Y-82509894D01*
X145447494Y-82235629D01*
X145691585Y-81934202D01*
X145691585Y-81934201D01*
X145691589Y-81934197D01*
X145902838Y-81608902D01*
X146078927Y-81263307D01*
X146217927Y-80901200D01*
X146318315Y-80526546D01*
X146378991Y-80143451D01*
X146398595Y-79769400D01*
X148510221Y-79769400D01*
X148530521Y-80156732D01*
X148591198Y-80539833D01*
X148691587Y-80914492D01*
X148830583Y-81276589D01*
X149006675Y-81622189D01*
X149217927Y-81947489D01*
X149462018Y-82248916D01*
X149736283Y-82523181D01*
X150037710Y-82767272D01*
X150037715Y-82767275D01*
X150037716Y-82767276D01*
X150363011Y-82978525D01*
X150583501Y-83090870D01*
X150708610Y-83154616D01*
X151070707Y-83293612D01*
X151070709Y-83293612D01*
X151070713Y-83293614D01*
X151445367Y-83394002D01*
X151828462Y-83454678D01*
X152215800Y-83474978D01*
X152603138Y-83454678D01*
X152986233Y-83394002D01*
X153360887Y-83293614D01*
X153722994Y-83154614D01*
X154068589Y-82978525D01*
X154393884Y-82767276D01*
X154501034Y-82680508D01*
X154695316Y-82523181D01*
X154969581Y-82248916D01*
X155213672Y-81947489D01*
X155213672Y-81947488D01*
X155213676Y-81947484D01*
X155424925Y-81622189D01*
X155601014Y-81276594D01*
X155626573Y-81210012D01*
X155661356Y-81119400D01*
X186550572Y-81119400D01*
X186569456Y-81383423D01*
X186569457Y-81383426D01*
X186625723Y-81642078D01*
X186718226Y-81890089D01*
X186793224Y-82027437D01*
X186845085Y-82122413D01*
X187003714Y-82334317D01*
X187190882Y-82521485D01*
X187273389Y-82583249D01*
X187402789Y-82680116D01*
X187635111Y-82806974D01*
X187883122Y-82899477D01*
X188141774Y-82955743D01*
X188405800Y-82974627D01*
X188669826Y-82955743D01*
X188928478Y-82899477D01*
X189176489Y-82806974D01*
X189319728Y-82728758D01*
X189366878Y-82714044D01*
X189416069Y-82718589D01*
X189459729Y-82741694D01*
X189542393Y-82809098D01*
X189659294Y-82870162D01*
X189722748Y-82903308D01*
X189722750Y-82903308D01*
X189722751Y-82903309D01*
X189918382Y-82959286D01*
X190037763Y-82969900D01*
X191853836Y-82969899D01*
X191853837Y-82969899D01*
X191883681Y-82967245D01*
X191973218Y-82959286D01*
X192168849Y-82903309D01*
X192349207Y-82809098D01*
X192506909Y-82680509D01*
X192635498Y-82522807D01*
X192729709Y-82342449D01*
X192785686Y-82146818D01*
X192796300Y-82027437D01*
X192796299Y-80211364D01*
X192785686Y-80091982D01*
X192729709Y-79896351D01*
X192729708Y-79896350D01*
X192729708Y-79896348D01*
X192655684Y-79754638D01*
X192635498Y-79715993D01*
X192506909Y-79558291D01*
X192349207Y-79429702D01*
X192308218Y-79408291D01*
X192168851Y-79335491D01*
X191973215Y-79279513D01*
X191866745Y-79270047D01*
X191853836Y-79268900D01*
X190037762Y-79268900D01*
X189918384Y-79279513D01*
X189722748Y-79335491D01*
X189542391Y-79429702D01*
X189459732Y-79497102D01*
X189416070Y-79520209D01*
X189366880Y-79524754D01*
X189319723Y-79510038D01*
X189305189Y-79502102D01*
X189176489Y-79431826D01*
X188928478Y-79339323D01*
X188828877Y-79317656D01*
X188669823Y-79283056D01*
X188405800Y-79264172D01*
X188141776Y-79283056D01*
X187883121Y-79339323D01*
X187883122Y-79339323D01*
X187635111Y-79431826D01*
X187635109Y-79431826D01*
X187635109Y-79431827D01*
X187402786Y-79558685D01*
X187190882Y-79717314D01*
X187003714Y-79904482D01*
X186845085Y-80116386D01*
X186718227Y-80348709D01*
X186625723Y-80596722D01*
X186569456Y-80855376D01*
X186550572Y-81119400D01*
X155661356Y-81119400D01*
X155740012Y-80914492D01*
X155740011Y-80914492D01*
X155740014Y-80914487D01*
X155840402Y-80539833D01*
X155901078Y-80156738D01*
X155921378Y-79769400D01*
X155901078Y-79382062D01*
X155840402Y-78998967D01*
X155740014Y-78624313D01*
X155734914Y-78611026D01*
X155601016Y-78262210D01*
X155554721Y-78171351D01*
X155424925Y-77916611D01*
X155213676Y-77591316D01*
X155213675Y-77591315D01*
X155213672Y-77591310D01*
X154969581Y-77289883D01*
X154695316Y-77015618D01*
X154393889Y-76771527D01*
X154068589Y-76560275D01*
X153722989Y-76384183D01*
X153360892Y-76245187D01*
X152986233Y-76144798D01*
X152603132Y-76084121D01*
X152215800Y-76063821D01*
X151828467Y-76084121D01*
X151445366Y-76144798D01*
X151070707Y-76245187D01*
X150708610Y-76384183D01*
X150363010Y-76560275D01*
X150037710Y-76771527D01*
X149736283Y-77015618D01*
X149462018Y-77289883D01*
X149217927Y-77591310D01*
X149006675Y-77916610D01*
X148830583Y-78262210D01*
X148691587Y-78624307D01*
X148591198Y-78998966D01*
X148530521Y-79382067D01*
X148510221Y-79769400D01*
X146398595Y-79769400D01*
X146399291Y-79756113D01*
X146378991Y-79368775D01*
X146318315Y-78985680D01*
X146217927Y-78611026D01*
X146217925Y-78611020D01*
X146078929Y-78248923D01*
X146011326Y-78116245D01*
X145902838Y-77903324D01*
X145691589Y-77578029D01*
X145691588Y-77578028D01*
X145691585Y-77578023D01*
X145447494Y-77276596D01*
X145173229Y-77002331D01*
X144871802Y-76758240D01*
X144546502Y-76546988D01*
X144200902Y-76370896D01*
X143838805Y-76231900D01*
X143464146Y-76131511D01*
X143081045Y-76070834D01*
X142693713Y-76050534D01*
X142306380Y-76070834D01*
X141923279Y-76131511D01*
X141548620Y-76231900D01*
X141186523Y-76370896D01*
X140840923Y-76546988D01*
X140515623Y-76758240D01*
X140214196Y-77002331D01*
X139939931Y-77276596D01*
X139695840Y-77578023D01*
X139484588Y-77903323D01*
X139308496Y-78248923D01*
X139169500Y-78611020D01*
X139069111Y-78985679D01*
X139008434Y-79368780D01*
X138988134Y-79756113D01*
X125016101Y-79756113D01*
X124966252Y-79717314D01*
X124928497Y-79687928D01*
X124724375Y-79577463D01*
X124570837Y-79524754D01*
X124504854Y-79502102D01*
X124275922Y-79463900D01*
X124043824Y-79463900D01*
X123814892Y-79502102D01*
X123814889Y-79502102D01*
X123814889Y-79502103D01*
X123595370Y-79577463D01*
X123391249Y-79687928D01*
X123376650Y-79699291D01*
X123327772Y-79737334D01*
X123291297Y-79757073D01*
X123250385Y-79763900D01*
X123096217Y-79763900D01*
X123048801Y-79754638D01*
X123008355Y-79728212D01*
X122988032Y-79698900D01*
X122987434Y-79699291D01*
X122854778Y-79496245D01*
X122697587Y-79325490D01*
X122697586Y-79325489D01*
X122697584Y-79325487D01*
X122550117Y-79210709D01*
X122514424Y-79182928D01*
X122310302Y-79072463D01*
X122145299Y-79015818D01*
X122090781Y-78997102D01*
X121861849Y-78958900D01*
X121629751Y-78958900D01*
X121629748Y-78958900D01*
X121493038Y-78981713D01*
X121438850Y-78978911D01*
X121390865Y-78953581D01*
X121357982Y-78910420D01*
X121346299Y-78857432D01*
X121346299Y-78486363D01*
X121335686Y-78366984D01*
X121335686Y-78366982D01*
X121279709Y-78171351D01*
X121279708Y-78171350D01*
X121279708Y-78171348D01*
X121220218Y-78057461D01*
X121185498Y-77990993D01*
X121056909Y-77833291D01*
X120899207Y-77704702D01*
X120875777Y-77692463D01*
X120718851Y-77610491D01*
X120523215Y-77554513D01*
X120403837Y-77543900D01*
X119289083Y-77543900D01*
X119234839Y-77531626D01*
X119191163Y-77497195D01*
X119166564Y-77447314D01*
X119153111Y-77391282D01*
X119130488Y-77297049D01*
X119033840Y-77063720D01*
X119004363Y-77015618D01*
X118901881Y-76848382D01*
X118737861Y-76656338D01*
X118545817Y-76492318D01*
X118330483Y-76360361D01*
X118097152Y-76263712D01*
X117851575Y-76204754D01*
X117662836Y-76189900D01*
X116328764Y-76189900D01*
X116171481Y-76202278D01*
X116140024Y-76204754D01*
X115901781Y-76261951D01*
X115845361Y-76262504D01*
X115794356Y-76238378D01*
X115758995Y-76194411D01*
X115746367Y-76139424D01*
X115746667Y-73043688D01*
X115763553Y-72980693D01*
X115809672Y-72934579D01*
X115872668Y-72917700D01*
X126091963Y-72917700D01*
X126100047Y-72913806D01*
X126126682Y-72904486D01*
X126135431Y-72902490D01*
X126137375Y-72900938D01*
X126142447Y-72896895D01*
X126166339Y-72881881D01*
X126174424Y-72877988D01*
X126180021Y-72870968D01*
X126199968Y-72851021D01*
X126206988Y-72845424D01*
X126210883Y-72837336D01*
X126225895Y-72813447D01*
X126231489Y-72806432D01*
X126231488Y-72806432D01*
X126231490Y-72806431D01*
X126233487Y-72797681D01*
X126242807Y-72771046D01*
X126246700Y-72762963D01*
X126246700Y-71419400D01*
X146570221Y-71419400D01*
X146590521Y-71806732D01*
X146651198Y-72189833D01*
X146751587Y-72564492D01*
X146890583Y-72926589D01*
X147066675Y-73272189D01*
X147277927Y-73597489D01*
X147522018Y-73898916D01*
X147796283Y-74173181D01*
X148097710Y-74417272D01*
X148097715Y-74417275D01*
X148097716Y-74417276D01*
X148423011Y-74628525D01*
X148654735Y-74746594D01*
X148768610Y-74804616D01*
X149130707Y-74943612D01*
X149130709Y-74943612D01*
X149130713Y-74943614D01*
X149505367Y-75044002D01*
X149888462Y-75104678D01*
X150275800Y-75124978D01*
X150663138Y-75104678D01*
X151046233Y-75044002D01*
X151420887Y-74943614D01*
X151782994Y-74804614D01*
X152128589Y-74628525D01*
X152453884Y-74417276D01*
X152755316Y-74173181D01*
X153029581Y-73898916D01*
X153273676Y-73597484D01*
X153484925Y-73272189D01*
X153501632Y-73239399D01*
X162130221Y-73239399D01*
X162150521Y-73626732D01*
X162211198Y-74009833D01*
X162311587Y-74384492D01*
X162450583Y-74746589D01*
X162626675Y-75092189D01*
X162837927Y-75417489D01*
X163082018Y-75718916D01*
X163356283Y-75993181D01*
X163657710Y-76237272D01*
X163657715Y-76237275D01*
X163657716Y-76237276D01*
X163983011Y-76448525D01*
X164328606Y-76624614D01*
X164328610Y-76624616D01*
X164690707Y-76763612D01*
X164690709Y-76763612D01*
X164690713Y-76763614D01*
X165065367Y-76864002D01*
X165448462Y-76924678D01*
X165835800Y-76944978D01*
X166223138Y-76924678D01*
X166606233Y-76864002D01*
X166980887Y-76763614D01*
X167342994Y-76624614D01*
X167688589Y-76448525D01*
X168013884Y-76237276D01*
X168315316Y-75993181D01*
X168589581Y-75718916D01*
X168671853Y-75617319D01*
X168833672Y-75417489D01*
X168833672Y-75417488D01*
X168833676Y-75417484D01*
X169044925Y-75092189D01*
X169221014Y-74746594D01*
X169266337Y-74628525D01*
X169360012Y-74384492D01*
X169360011Y-74384492D01*
X169360014Y-74384487D01*
X169460402Y-74009833D01*
X169521078Y-73626738D01*
X169541378Y-73239400D01*
X169521078Y-72852062D01*
X169460402Y-72468967D01*
X169360014Y-72094313D01*
X169290584Y-71913441D01*
X169221016Y-71732210D01*
X169159794Y-71612055D01*
X169044925Y-71386611D01*
X168833676Y-71061316D01*
X168833675Y-71061315D01*
X168833672Y-71061310D01*
X168589581Y-70759883D01*
X168315316Y-70485618D01*
X168013889Y-70241527D01*
X167688589Y-70030275D01*
X167342989Y-69854183D01*
X166980892Y-69715187D01*
X166606233Y-69614798D01*
X166223132Y-69554121D01*
X165835800Y-69533821D01*
X165448467Y-69554121D01*
X165065366Y-69614798D01*
X164690707Y-69715187D01*
X164328610Y-69854183D01*
X163983010Y-70030275D01*
X163657710Y-70241527D01*
X163356283Y-70485618D01*
X163082018Y-70759883D01*
X162837927Y-71061310D01*
X162626675Y-71386610D01*
X162450583Y-71732210D01*
X162311587Y-72094307D01*
X162211198Y-72468966D01*
X162150521Y-72852067D01*
X162130221Y-73239399D01*
X153501632Y-73239399D01*
X153661014Y-72926594D01*
X153665923Y-72913807D01*
X153782603Y-72609843D01*
X153800014Y-72564487D01*
X153900402Y-72189833D01*
X153961078Y-71806738D01*
X153981378Y-71419400D01*
X153961078Y-71032062D01*
X153900402Y-70648967D01*
X153800014Y-70274313D01*
X153799879Y-70273961D01*
X153661016Y-69912210D01*
X153624209Y-69839972D01*
X153484925Y-69566611D01*
X153273676Y-69241316D01*
X153273675Y-69241315D01*
X153273672Y-69241310D01*
X153029581Y-68939883D01*
X152755316Y-68665618D01*
X152453889Y-68421527D01*
X152128589Y-68210275D01*
X151782989Y-68034183D01*
X151420892Y-67895187D01*
X151046233Y-67794798D01*
X150663132Y-67734121D01*
X150275800Y-67713821D01*
X149888467Y-67734121D01*
X149505366Y-67794798D01*
X149130707Y-67895187D01*
X148768610Y-68034183D01*
X148423010Y-68210275D01*
X148097710Y-68421527D01*
X147796283Y-68665618D01*
X147522018Y-68939883D01*
X147277927Y-69241310D01*
X147066675Y-69566610D01*
X146890583Y-69912210D01*
X146751587Y-70274307D01*
X146651198Y-70648966D01*
X146590521Y-71032067D01*
X146570221Y-71419400D01*
X126246700Y-71419400D01*
X126246700Y-62808186D01*
X172242205Y-62808186D01*
X172242205Y-68630614D01*
X174008685Y-68630614D01*
X174071685Y-68647495D01*
X174117804Y-68693614D01*
X174134685Y-68756614D01*
X174134685Y-71188005D01*
X185785684Y-71188005D01*
X185785684Y-69596645D01*
X185802199Y-69534284D01*
X185847413Y-69488269D01*
X185909476Y-69470664D01*
X185972117Y-69486083D01*
X186018916Y-69530485D01*
X186056010Y-69590607D01*
X186060954Y-69595856D01*
X186074067Y-69612348D01*
X186093680Y-69641764D01*
X186097802Y-69648380D01*
X186131401Y-69706229D01*
X186139398Y-69715186D01*
X186184346Y-69765526D01*
X186187574Y-69769288D01*
X186198793Y-69782898D01*
X186206269Y-69792947D01*
X186216465Y-69808177D01*
X186228716Y-69820254D01*
X186237482Y-69829834D01*
X186238153Y-69830648D01*
X186238155Y-69830649D01*
X186238157Y-69830652D01*
X186239376Y-69831635D01*
X186248709Y-69839961D01*
X186263357Y-69854399D01*
X186268886Y-69860209D01*
X186270816Y-69862371D01*
X186277765Y-69870874D01*
X186284834Y-69880336D01*
X186286907Y-69883112D01*
X186320687Y-69913136D01*
X186341222Y-69931388D01*
X186345967Y-69935830D01*
X186361400Y-69951042D01*
X186361640Y-69951235D01*
X186374757Y-69963408D01*
X186400374Y-69990814D01*
X186479358Y-70046782D01*
X186480263Y-70047429D01*
X186498238Y-70060406D01*
X186502772Y-70063838D01*
X186555828Y-70105910D01*
X186622803Y-70139742D01*
X186628065Y-70142558D01*
X186698210Y-70182268D01*
X186712760Y-70188728D01*
X186718831Y-70192229D01*
X186727427Y-70197187D01*
X186799439Y-70221091D01*
X186804881Y-70223037D01*
X186866586Y-70246716D01*
X186871256Y-70248616D01*
X186887747Y-70255717D01*
X186979048Y-70274593D01*
X186980700Y-70274948D01*
X186986460Y-70276231D01*
X186999403Y-70279850D01*
X187011359Y-70283891D01*
X187029892Y-70290155D01*
X187077049Y-70295996D01*
X187127190Y-70313482D01*
X187165675Y-70350074D01*
X187185665Y-70399272D01*
X187187432Y-70409346D01*
X187188223Y-70414471D01*
X187197697Y-70485573D01*
X187220502Y-70551051D01*
X187222687Y-70557959D01*
X187241689Y-70624639D01*
X187250834Y-70642192D01*
X187258791Y-70661069D01*
X187287348Y-70747967D01*
X187314470Y-70795317D01*
X187319322Y-70804675D01*
X187342388Y-70854121D01*
X187361725Y-70880138D01*
X187372938Y-70898241D01*
X187403790Y-70958989D01*
X187439259Y-71003521D01*
X187449255Y-71016070D01*
X187453108Y-71021170D01*
X187490507Y-71073386D01*
X187494708Y-71079883D01*
X187537762Y-71128083D01*
X187544298Y-71136031D01*
X187573852Y-71175121D01*
X187577891Y-71180462D01*
X187605008Y-71204281D01*
X187625625Y-71222391D01*
X187632581Y-71228987D01*
X187664913Y-71262069D01*
X187676289Y-71269754D01*
X187690741Y-71281139D01*
X187714803Y-71303127D01*
X187714806Y-71303129D01*
X187715810Y-71304046D01*
X187732006Y-71315835D01*
X187767769Y-71347248D01*
X187769654Y-71348938D01*
X187784153Y-71362199D01*
X187836430Y-71410013D01*
X187852156Y-71419400D01*
X187884473Y-71438691D01*
X187893042Y-71444290D01*
X187938599Y-71476774D01*
X187969016Y-71490238D01*
X187982596Y-71497264D01*
X188049176Y-71537007D01*
X188056365Y-71541636D01*
X188069419Y-71550682D01*
X188108559Y-71577808D01*
X188184801Y-71610344D01*
X188188613Y-71612046D01*
X188263754Y-71647130D01*
X188269785Y-71648568D01*
X188290012Y-71655243D01*
X188340497Y-71676788D01*
X188351225Y-71681978D01*
X188393754Y-71705101D01*
X188487524Y-71733624D01*
X188488253Y-71733849D01*
X188581811Y-71762997D01*
X188581812Y-71762997D01*
X188589856Y-71765503D01*
X188597038Y-71766939D01*
X188642264Y-71780696D01*
X188655063Y-71785359D01*
X188692496Y-71801344D01*
X188740039Y-71811025D01*
X188747086Y-71812811D01*
X188749209Y-71813228D01*
X188749219Y-71813231D01*
X188795407Y-71822303D01*
X188795851Y-71822392D01*
X188954433Y-71854687D01*
X188968197Y-71858311D01*
X189004346Y-71870049D01*
X189055249Y-71875735D01*
X189066401Y-71877491D01*
X189066459Y-71877502D01*
X189066608Y-71877533D01*
X189110596Y-71881927D01*
X189111855Y-71882059D01*
X189276263Y-71900427D01*
X189289962Y-71902730D01*
X189328388Y-71911399D01*
X189378238Y-71912355D01*
X189387690Y-71912973D01*
X189388641Y-71912982D01*
X189388655Y-71912984D01*
X189434229Y-71913435D01*
X189435325Y-71913451D01*
X189606887Y-71916744D01*
X189619579Y-71917632D01*
X189663969Y-71923002D01*
X189663970Y-71923001D01*
X189663971Y-71923002D01*
X189762888Y-71914841D01*
X189779966Y-71913435D01*
X189866607Y-71906302D01*
X189866608Y-71906301D01*
X189879382Y-71905250D01*
X189879565Y-71905216D01*
X189912102Y-71902531D01*
X189930243Y-71902346D01*
X189950622Y-71903608D01*
X189971828Y-71900601D01*
X189991611Y-71899372D01*
X190004408Y-71899587D01*
X190079489Y-71885462D01*
X190085011Y-71884552D01*
X190110129Y-71880992D01*
X190128609Y-71876425D01*
X190135518Y-71874923D01*
X190150023Y-71872195D01*
X190168241Y-71870127D01*
X190187751Y-71869342D01*
X190255354Y-71852588D01*
X190262349Y-71851065D01*
X190280680Y-71847618D01*
X190305393Y-71840316D01*
X190310725Y-71838867D01*
X190344500Y-71830498D01*
X190364319Y-71827238D01*
X190375887Y-71826274D01*
X190394262Y-71820871D01*
X190450254Y-71804412D01*
X190455490Y-71802994D01*
X190462150Y-71801344D01*
X190481227Y-71796617D01*
X190498062Y-71790579D01*
X190505043Y-71788305D01*
X190515044Y-71785365D01*
X190536630Y-71779019D01*
X190555966Y-71774951D01*
X190568966Y-71773267D01*
X190640884Y-71748508D01*
X190646327Y-71746772D01*
X190670360Y-71739708D01*
X190688319Y-71732383D01*
X190694815Y-71729943D01*
X190725276Y-71719456D01*
X190742241Y-71714912D01*
X190764835Y-71710520D01*
X190825934Y-71685069D01*
X190833327Y-71682260D01*
X190847691Y-71677316D01*
X190874230Y-71665051D01*
X190878603Y-71663130D01*
X190918494Y-71646514D01*
X190926054Y-71643648D01*
X190987871Y-71622474D01*
X191005544Y-71612055D01*
X191057706Y-71581302D01*
X191061733Y-71579026D01*
X191063988Y-71577806D01*
X191133049Y-71540435D01*
X191139192Y-71535273D01*
X191156240Y-71523212D01*
X191175826Y-71511665D01*
X191181453Y-71508541D01*
X191245893Y-71474906D01*
X191303060Y-71428320D01*
X191308001Y-71424494D01*
X191367409Y-71380811D01*
X191377738Y-71369362D01*
X191391679Y-71356105D01*
X191416813Y-71335624D01*
X191422576Y-71331200D01*
X191478544Y-71290765D01*
X191530889Y-71233718D01*
X191534605Y-71229840D01*
X191589359Y-71175121D01*
X191595828Y-71165310D01*
X191608172Y-71149494D01*
X191636870Y-71118219D01*
X191638682Y-71116287D01*
X191675087Y-71078255D01*
X191700820Y-71051371D01*
X191730886Y-71003502D01*
X191736579Y-70995198D01*
X191770392Y-70949891D01*
X191784272Y-70920284D01*
X191791655Y-70906757D01*
X191799094Y-70894915D01*
X191803736Y-70888041D01*
X191828305Y-70854123D01*
X191841598Y-70835772D01*
X191864651Y-70784726D01*
X191872937Y-70769330D01*
X191885381Y-70749627D01*
X191897479Y-70717541D01*
X191902447Y-70706113D01*
X191913498Y-70683783D01*
X191915556Y-70675942D01*
X191924491Y-70652072D01*
X191937876Y-70625028D01*
X191957506Y-70550290D01*
X191961470Y-70537862D01*
X191976720Y-70497437D01*
X191983626Y-70454091D01*
X191986261Y-70441651D01*
X191989194Y-70430594D01*
X191989194Y-70430589D01*
X191989858Y-70428087D01*
X191994190Y-70403417D01*
X191998934Y-70387589D01*
X191998934Y-70387587D01*
X192000872Y-70381122D01*
X192035872Y-70324928D01*
X192094526Y-70294233D01*
X192141821Y-70283842D01*
X192142157Y-70283770D01*
X192188285Y-70273961D01*
X192188286Y-70273960D01*
X192191134Y-70273355D01*
X192197370Y-70271683D01*
X192206913Y-70269624D01*
X192207654Y-70269378D01*
X192244598Y-70261263D01*
X192281883Y-70244658D01*
X192294584Y-70239806D01*
X192333455Y-70227318D01*
X192375635Y-70203525D01*
X192386263Y-70198178D01*
X192399623Y-70192229D01*
X192418739Y-70185501D01*
X192429243Y-70182730D01*
X192499363Y-70147932D01*
X192504097Y-70145705D01*
X192528999Y-70134617D01*
X192543855Y-70126104D01*
X192550483Y-70122565D01*
X192611514Y-70092280D01*
X192611514Y-70092279D01*
X192611516Y-70092279D01*
X192628101Y-70079317D01*
X192643039Y-70069277D01*
X192661300Y-70058816D01*
X192712402Y-70013725D01*
X192718155Y-70008946D01*
X192739688Y-69992119D01*
X192757971Y-69980229D01*
X192761384Y-69978410D01*
X192827057Y-69923912D01*
X192829781Y-69921718D01*
X192856802Y-69900605D01*
X192864138Y-69893565D01*
X192870884Y-69887544D01*
X192917974Y-69848470D01*
X192935504Y-69826588D01*
X192946596Y-69814460D01*
X192966834Y-69795046D01*
X193001552Y-69744672D01*
X193006958Y-69737402D01*
X193084480Y-69640642D01*
X193085166Y-69639794D01*
X193146103Y-69565293D01*
X193169480Y-69520702D01*
X193175252Y-69510817D01*
X193202588Y-69468557D01*
X193216712Y-69432294D01*
X193222518Y-69419538D01*
X193267782Y-69333202D01*
X193271203Y-69327098D01*
X193307244Y-69266822D01*
X193317534Y-69237374D01*
X193332384Y-69194882D01*
X193334379Y-69189561D01*
X193362760Y-69118824D01*
X193365061Y-69106090D01*
X193370106Y-69086938D01*
X193394569Y-69016940D01*
X193399494Y-69004887D01*
X193406092Y-68990857D01*
X193417987Y-68965564D01*
X193428728Y-68921073D01*
X193429361Y-68918928D01*
X193430534Y-68914023D01*
X193430538Y-68914014D01*
X193442106Y-68865668D01*
X193476032Y-68725148D01*
X193480127Y-68711588D01*
X193486677Y-68693614D01*
X193493236Y-68675615D01*
X193500682Y-68625233D01*
X193502824Y-68614209D01*
X193508831Y-68570168D01*
X193509016Y-68568855D01*
X193550446Y-68288589D01*
X193552417Y-68278260D01*
X193564892Y-68225074D01*
X193567433Y-68133290D01*
X193567510Y-68131182D01*
X193571679Y-68039469D01*
X193571678Y-68039467D01*
X193571783Y-68037175D01*
X193570598Y-68018941D01*
X193575465Y-67843165D01*
X193576124Y-67833332D01*
X193582221Y-67776071D01*
X193573644Y-67687586D01*
X193573416Y-67684917D01*
X193566872Y-67596223D01*
X193566805Y-67595986D01*
X193562613Y-67573767D01*
X193546047Y-67402838D01*
X193545459Y-67390948D01*
X193545357Y-67342471D01*
X193525413Y-67246459D01*
X193525255Y-67245677D01*
X193504385Y-67141626D01*
X193502160Y-67134503D01*
X193473484Y-66996444D01*
X193471947Y-66987405D01*
X193463954Y-66927203D01*
X193435824Y-66846319D01*
X193434695Y-66842917D01*
X193417966Y-66789989D01*
X193408870Y-66761210D01*
X193407205Y-66758225D01*
X193398236Y-66738237D01*
X193360546Y-66629862D01*
X193359945Y-66628086D01*
X193330704Y-66539673D01*
X193304153Y-66493525D01*
X193299156Y-66483903D01*
X193276671Y-66435646D01*
X193255223Y-66406761D01*
X193247170Y-66394480D01*
X193232243Y-66368536D01*
X193229510Y-66362477D01*
X193225062Y-66354854D01*
X193225061Y-66354850D01*
X193175307Y-66269576D01*
X193151532Y-66228252D01*
X193151527Y-66228246D01*
X193150224Y-66225980D01*
X193146735Y-66220605D01*
X193122516Y-66179096D01*
X193095024Y-66148429D01*
X193086547Y-66137884D01*
X193080354Y-66129272D01*
X193062511Y-66104458D01*
X193055958Y-66098418D01*
X193027187Y-66071899D01*
X193018762Y-66063357D01*
X192991621Y-66033081D01*
X192979459Y-66016729D01*
X192971629Y-66008339D01*
X192916944Y-65949740D01*
X192915241Y-65947879D01*
X192912282Y-65944578D01*
X192888875Y-65918467D01*
X192885236Y-65915153D01*
X192877974Y-65907979D01*
X192839822Y-65867098D01*
X192835516Y-65864042D01*
X192812667Y-65847824D01*
X192800764Y-65838239D01*
X192776132Y-65815810D01*
X192728052Y-65787256D01*
X192719463Y-65781670D01*
X192631438Y-65719192D01*
X192623988Y-65713904D01*
X192618274Y-65709599D01*
X192607966Y-65701364D01*
X192563795Y-65666074D01*
X192506237Y-65636734D01*
X192488111Y-65625466D01*
X192483301Y-65621877D01*
X192461229Y-65611533D01*
X192452544Y-65607043D01*
X192440483Y-65600202D01*
X192423862Y-65590775D01*
X192418724Y-65589111D01*
X192412005Y-65586935D01*
X192393609Y-65579323D01*
X192375731Y-65570209D01*
X192364272Y-65565764D01*
X192356287Y-65562345D01*
X192355333Y-65561897D01*
X192335895Y-65550548D01*
X192335679Y-65550394D01*
X192254458Y-65514583D01*
X192251817Y-65513382D01*
X192217608Y-65497348D01*
X192216332Y-65496901D01*
X192211357Y-65495158D01*
X192202192Y-65491538D01*
X192149488Y-65468300D01*
X192118596Y-65461632D01*
X192103523Y-65457383D01*
X192088574Y-65452146D01*
X192046405Y-65427301D01*
X192016885Y-65388262D01*
X192005567Y-65345112D01*
X192005375Y-65345144D01*
X192005039Y-65343098D01*
X192004468Y-65340919D01*
X192004340Y-65338835D01*
X192004340Y-65338831D01*
X192002089Y-65325104D01*
X192000455Y-65307256D01*
X192000452Y-65307105D01*
X191999663Y-65267874D01*
X191977309Y-65169212D01*
X191976126Y-65163980D01*
X191974365Y-65154520D01*
X191968661Y-65115709D01*
X191965876Y-65096762D01*
X191938760Y-65022158D01*
X191934580Y-65008178D01*
X191932769Y-65000534D01*
X195073110Y-65000534D01*
X195078112Y-65210641D01*
X195090268Y-65266525D01*
X195121598Y-65410548D01*
X195122788Y-65416015D01*
X195164153Y-65512611D01*
X195205521Y-65609212D01*
X195281809Y-65721928D01*
X195323325Y-65783268D01*
X195455453Y-65915396D01*
X195486970Y-65968039D01*
X195489886Y-66029326D01*
X195463511Y-66084724D01*
X195455066Y-66094950D01*
X195449106Y-66101664D01*
X195406813Y-66146022D01*
X195397423Y-66160632D01*
X195386657Y-66175013D01*
X195375283Y-66188139D01*
X195373940Y-66190467D01*
X195361987Y-66207681D01*
X195360276Y-66209752D01*
X195330902Y-66263548D01*
X195326313Y-66271282D01*
X195293188Y-66322825D01*
X195286732Y-66338951D01*
X195278879Y-66355116D01*
X195270193Y-66370159D01*
X195269315Y-66372698D01*
X195260838Y-66391861D01*
X195259551Y-66394217D01*
X195240887Y-66452600D01*
X195237846Y-66461059D01*
X195215074Y-66517943D01*
X195211788Y-66534991D01*
X195207138Y-66552347D01*
X195201456Y-66568766D01*
X195201074Y-66571423D01*
X195196377Y-66591845D01*
X195195558Y-66594408D01*
X195191531Y-66628086D01*
X195188281Y-66655265D01*
X195186895Y-66664148D01*
X195175300Y-66724313D01*
X195175300Y-66741674D01*
X195174017Y-66759606D01*
X195171545Y-66776797D01*
X195171673Y-66779481D01*
X195170926Y-66800420D01*
X195170607Y-66803085D01*
X195174979Y-66864211D01*
X195175300Y-66873199D01*
X195175300Y-69441674D01*
X195174017Y-69459606D01*
X195171545Y-69476797D01*
X195171673Y-69479481D01*
X195170926Y-69500420D01*
X195170607Y-69503085D01*
X195174979Y-69564211D01*
X195175300Y-69573199D01*
X195175300Y-69581830D01*
X195177506Y-69604933D01*
X195177934Y-69610915D01*
X195181545Y-69686728D01*
X195182177Y-69689332D01*
X195185408Y-69710047D01*
X195185599Y-69712724D01*
X195186296Y-69715324D01*
X195190017Y-69735948D01*
X195190272Y-69738619D01*
X195211651Y-69811429D01*
X195213203Y-69817221D01*
X195220784Y-69848470D01*
X195231096Y-69890976D01*
X195232212Y-69893421D01*
X195239297Y-69913130D01*
X195239995Y-69915734D01*
X195239996Y-69915735D01*
X195241169Y-69918149D01*
X195248727Y-69937699D01*
X195249482Y-69940271D01*
X195284260Y-70007733D01*
X195286879Y-70013125D01*
X195318402Y-70082150D01*
X195319955Y-70084331D01*
X195330651Y-70102358D01*
X195331826Y-70104777D01*
X195333437Y-70106929D01*
X195344558Y-70124696D01*
X195345288Y-70126110D01*
X195345791Y-70127086D01*
X195392703Y-70186740D01*
X195396296Y-70191539D01*
X195440314Y-70253352D01*
X195442259Y-70255207D01*
X195456170Y-70270881D01*
X195457779Y-70273031D01*
X195459764Y-70274835D01*
X195474049Y-70290178D01*
X195475704Y-70292283D01*
X195533056Y-70341979D01*
X195537492Y-70346012D01*
X195592417Y-70398382D01*
X195592419Y-70398383D01*
X195592422Y-70398386D01*
X195594669Y-70399830D01*
X195611301Y-70412592D01*
X195613295Y-70414404D01*
X195615592Y-70415804D01*
X195632518Y-70428163D01*
X195634544Y-70429919D01*
X195700296Y-70467881D01*
X195705370Y-70470974D01*
X195769228Y-70512013D01*
X195771338Y-70512857D01*
X195771711Y-70513007D01*
X195790466Y-70522395D01*
X195792751Y-70523788D01*
X195792755Y-70523789D01*
X195792756Y-70523790D01*
X195795255Y-70524722D01*
X195814232Y-70533662D01*
X195816556Y-70535004D01*
X195888312Y-70559838D01*
X195893876Y-70561913D01*
X195964343Y-70590125D01*
X195966972Y-70590631D01*
X195987166Y-70596301D01*
X195989674Y-70597237D01*
X195992314Y-70597680D01*
X196012637Y-70602868D01*
X196015167Y-70603744D01*
X196090301Y-70614546D01*
X196096216Y-70615541D01*
X196156120Y-70627087D01*
X196170715Y-70629900D01*
X196173396Y-70629900D01*
X196194287Y-70631644D01*
X196194626Y-70631701D01*
X196196934Y-70632089D01*
X196199604Y-70632025D01*
X196220547Y-70633272D01*
X196223198Y-70633654D01*
X196223199Y-70633653D01*
X196223200Y-70633654D01*
X196273897Y-70631238D01*
X196299004Y-70630042D01*
X196304999Y-70629900D01*
X198873396Y-70629900D01*
X198894287Y-70631644D01*
X198894626Y-70631701D01*
X198896934Y-70632089D01*
X198899604Y-70632025D01*
X198920547Y-70633272D01*
X198923198Y-70633654D01*
X198923199Y-70633653D01*
X198923200Y-70633654D01*
X198973897Y-70631238D01*
X198999004Y-70630042D01*
X199004999Y-70629900D01*
X199028224Y-70629900D01*
X199028225Y-70629900D01*
X199036819Y-70629078D01*
X199045774Y-70628545D01*
X199107045Y-70627087D01*
X199109661Y-70626517D01*
X199130442Y-70623781D01*
X199133130Y-70623654D01*
X199150011Y-70619557D01*
X199167731Y-70616578D01*
X199185018Y-70614928D01*
X199243825Y-70597659D01*
X199252536Y-70595437D01*
X199312412Y-70582413D01*
X199314876Y-70581357D01*
X199334768Y-70574736D01*
X199337376Y-70574104D01*
X199353176Y-70566887D01*
X199370015Y-70560607D01*
X199386675Y-70555716D01*
X199441159Y-70527626D01*
X199449268Y-70523806D01*
X199505612Y-70499679D01*
X199507822Y-70498182D01*
X199526124Y-70487905D01*
X199528553Y-70486796D01*
X199542699Y-70476721D01*
X199558045Y-70467368D01*
X199573482Y-70459411D01*
X199621679Y-70421506D01*
X199628912Y-70416225D01*
X199679665Y-70381877D01*
X199681554Y-70379987D01*
X199697573Y-70366438D01*
X199699749Y-70364888D01*
X199699748Y-70364888D01*
X199699752Y-70364886D01*
X199711735Y-70352317D01*
X199725038Y-70340224D01*
X199738686Y-70329492D01*
X199778835Y-70283156D01*
X199784936Y-70276604D01*
X200531558Y-69529982D01*
X200547568Y-69516441D01*
X200549752Y-69514886D01*
X200561735Y-69502317D01*
X200575038Y-69490224D01*
X200575337Y-69489989D01*
X200588686Y-69479492D01*
X200628830Y-69433162D01*
X200634931Y-69426609D01*
X200641041Y-69420501D01*
X200646541Y-69413838D01*
X200652483Y-69407142D01*
X200694786Y-69362778D01*
X200704173Y-69348169D01*
X200714939Y-69333787D01*
X200726319Y-69320656D01*
X200727655Y-69318340D01*
X200739618Y-69301109D01*
X200741324Y-69299044D01*
X200770698Y-69245248D01*
X200775283Y-69237522D01*
X200808411Y-69185975D01*
X200808410Y-69185975D01*
X200808413Y-69185972D01*
X200814865Y-69169851D01*
X200822717Y-69153687D01*
X200831404Y-69138644D01*
X200832278Y-69136117D01*
X200840769Y-69116923D01*
X200842048Y-69114582D01*
X200860709Y-69056202D01*
X200863740Y-69047768D01*
X200886525Y-68990857D01*
X200889811Y-68973802D01*
X200894463Y-68956444D01*
X200900144Y-68940033D01*
X200900524Y-68937386D01*
X200905227Y-68916940D01*
X200906042Y-68914392D01*
X200913317Y-68853530D01*
X200914702Y-68844657D01*
X200926300Y-68784488D01*
X200926300Y-68767125D01*
X200927582Y-68749196D01*
X200927859Y-68747263D01*
X200930054Y-68732002D01*
X200929926Y-68729325D01*
X200930676Y-68708356D01*
X200930993Y-68705705D01*
X200926621Y-68644578D01*
X200926300Y-68635589D01*
X200926300Y-66067125D01*
X200927582Y-66049196D01*
X200928609Y-66042050D01*
X200930054Y-66032002D01*
X200929926Y-66029325D01*
X200930676Y-66008356D01*
X200930993Y-66005705D01*
X200926621Y-65944578D01*
X200926300Y-65935589D01*
X200926300Y-65926980D01*
X200925487Y-65918467D01*
X200924087Y-65903814D01*
X200923665Y-65897900D01*
X200920054Y-65822070D01*
X200919422Y-65819469D01*
X200916190Y-65798736D01*
X200916000Y-65796073D01*
X200915307Y-65793486D01*
X200911582Y-65772844D01*
X200911328Y-65770182D01*
X200889947Y-65697368D01*
X200888397Y-65691584D01*
X200878214Y-65649609D01*
X200870504Y-65617824D01*
X200869391Y-65615387D01*
X200862299Y-65595660D01*
X200861604Y-65593065D01*
X200860809Y-65591429D01*
X200860432Y-65590652D01*
X200852869Y-65571091D01*
X200852116Y-65568525D01*
X200848801Y-65562095D01*
X200835230Y-65514842D01*
X200840775Y-65465995D01*
X200886042Y-65324392D01*
X200910992Y-65115709D01*
X200896000Y-64906073D01*
X200841604Y-64703065D01*
X200841603Y-64703061D01*
X200773203Y-64562255D01*
X200749771Y-64514019D01*
X200623821Y-64345770D01*
X200468305Y-64204397D01*
X200288844Y-64095010D01*
X200091926Y-64021563D01*
X200091921Y-64021562D01*
X199884665Y-63986710D01*
X199674558Y-63991712D01*
X199469186Y-64036387D01*
X199275987Y-64119121D01*
X199101934Y-64236923D01*
X198946387Y-64392471D01*
X198496860Y-64841997D01*
X198455986Y-64869309D01*
X198407768Y-64878900D01*
X197583832Y-64878900D01*
X197535614Y-64869309D01*
X197494737Y-64841995D01*
X196916905Y-64264163D01*
X196916901Y-64264159D01*
X196795445Y-64163876D01*
X196779889Y-64155381D01*
X196610983Y-64063151D01*
X196410793Y-63999157D01*
X196222243Y-63976615D01*
X196202109Y-63974208D01*
X196202108Y-63974208D01*
X195992474Y-63989199D01*
X195789461Y-64043596D01*
X195600420Y-64135428D01*
X195432170Y-64261378D01*
X195290794Y-64416897D01*
X195181412Y-64596351D01*
X195181410Y-64596355D01*
X195181410Y-64596356D01*
X195121379Y-64757306D01*
X195107962Y-64793278D01*
X195073110Y-65000534D01*
X191932769Y-65000534D01*
X191926199Y-64972807D01*
X191926198Y-64972804D01*
X191913726Y-64945988D01*
X191908540Y-64932993D01*
X191906795Y-64927800D01*
X191905912Y-64926282D01*
X191901365Y-64917726D01*
X191899100Y-64913036D01*
X191899098Y-64913031D01*
X191880552Y-64874635D01*
X191879799Y-64873044D01*
X191875340Y-64863456D01*
X191873726Y-64859839D01*
X191865557Y-64840724D01*
X191840706Y-64782575D01*
X191805155Y-64731335D01*
X191800407Y-64723955D01*
X191768503Y-64670329D01*
X191756501Y-64657168D01*
X191737702Y-64630184D01*
X191728634Y-64612664D01*
X191690771Y-64565872D01*
X191685199Y-64558442D01*
X191683288Y-64555688D01*
X191679964Y-64550897D01*
X191659088Y-64526505D01*
X191657082Y-64524161D01*
X191654861Y-64521493D01*
X191648813Y-64514019D01*
X191600637Y-64454482D01*
X191598415Y-64452656D01*
X191582686Y-64437240D01*
X191580816Y-64435055D01*
X191512682Y-64382153D01*
X191510040Y-64380043D01*
X191493103Y-64366126D01*
X191479164Y-64352347D01*
X191406522Y-64294955D01*
X191404644Y-64293442D01*
X191373799Y-64268098D01*
X191370123Y-64265656D01*
X191361734Y-64259571D01*
X191318255Y-64225219D01*
X191299618Y-64215846D01*
X191288062Y-64210034D01*
X191274952Y-64202419D01*
X191246798Y-64183712D01*
X191246795Y-64183710D01*
X191246794Y-64183710D01*
X191195404Y-64162958D01*
X191185972Y-64158691D01*
X191101492Y-64116204D01*
X191097180Y-64113930D01*
X191027206Y-64075277D01*
X190963774Y-64055516D01*
X190956331Y-64052939D01*
X190912966Y-64036387D01*
X190894227Y-64029234D01*
X190871787Y-64025568D01*
X190854630Y-64021515D01*
X190792672Y-64002212D01*
X190782692Y-63998635D01*
X190732479Y-63978209D01*
X190732478Y-63978208D01*
X190732476Y-63978208D01*
X190641907Y-63961382D01*
X190639810Y-63960974D01*
X190546818Y-63942061D01*
X190529318Y-63940466D01*
X190475902Y-63930543D01*
X190461618Y-63927015D01*
X190427375Y-63916403D01*
X190374268Y-63911190D01*
X190363576Y-63909676D01*
X190361230Y-63909240D01*
X190319332Y-63905783D01*
X190317385Y-63905607D01*
X190143431Y-63888531D01*
X190126122Y-63885603D01*
X190103700Y-63880180D01*
X190037627Y-63877892D01*
X190029688Y-63877366D01*
X190016896Y-63876111D01*
X190014632Y-63875889D01*
X190014631Y-63875889D01*
X189985353Y-63875990D01*
X189980557Y-63875915D01*
X189797506Y-63869575D01*
X189775990Y-63866965D01*
X189771639Y-63866052D01*
X189703665Y-63865761D01*
X189684063Y-63863874D01*
X189591624Y-63865260D01*
X189589202Y-63865273D01*
X189549328Y-63865104D01*
X189544869Y-63865538D01*
X189534555Y-63866116D01*
X189426981Y-63867729D01*
X189406487Y-63866362D01*
X189396998Y-63864945D01*
X189396996Y-63864945D01*
X189317609Y-63869271D01*
X189312644Y-63869444D01*
X189284106Y-63869872D01*
X189268338Y-63871714D01*
X189260578Y-63872378D01*
X189169223Y-63877357D01*
X189150984Y-63877029D01*
X189138416Y-63875889D01*
X189131097Y-63875225D01*
X189131096Y-63875225D01*
X189062337Y-63882971D01*
X189055096Y-63883576D01*
X189036903Y-63884568D01*
X189011016Y-63888633D01*
X189005580Y-63889366D01*
X188923039Y-63898666D01*
X188907610Y-63899451D01*
X188875067Y-63899109D01*
X188819447Y-63909932D01*
X188809504Y-63911458D01*
X188803860Y-63912094D01*
X188766066Y-63920289D01*
X188763433Y-63920830D01*
X188681204Y-63936830D01*
X188668675Y-63938621D01*
X188623789Y-63942748D01*
X188527407Y-63971966D01*
X188451483Y-63994914D01*
X188439059Y-63997990D01*
X188396508Y-64006257D01*
X188354706Y-64023663D01*
X188353538Y-64024082D01*
X188302209Y-64045523D01*
X188302079Y-64045577D01*
X188245953Y-64068947D01*
X188239619Y-64071386D01*
X188172344Y-64095235D01*
X188108142Y-64134011D01*
X188102958Y-64136977D01*
X188036965Y-64172680D01*
X188026488Y-64181479D01*
X188010680Y-64192796D01*
X187937743Y-64236923D01*
X187930733Y-64241164D01*
X187911643Y-64252694D01*
X187882889Y-64270062D01*
X187882181Y-64270539D01*
X187843558Y-64293906D01*
X187811126Y-64323925D01*
X187801262Y-64332161D01*
X187765943Y-64358716D01*
X187736132Y-64392471D01*
X187727282Y-64401531D01*
X187717644Y-64410452D01*
X187708032Y-64417776D01*
X187634592Y-64487314D01*
X187633628Y-64488216D01*
X187601068Y-64518355D01*
X187601064Y-64518358D01*
X187601059Y-64518364D01*
X187601048Y-64518377D01*
X187593201Y-64526505D01*
X187556150Y-64561588D01*
X187534263Y-64592903D01*
X187525496Y-64604053D01*
X187500217Y-64632720D01*
X187474867Y-64676995D01*
X187468798Y-64686568D01*
X187421757Y-64753872D01*
X187416734Y-64760573D01*
X187376492Y-64810695D01*
X187368508Y-64826266D01*
X187359304Y-64840724D01*
X187332149Y-64895907D01*
X187329146Y-64901635D01*
X187296960Y-64959358D01*
X187296308Y-64961423D01*
X187279583Y-64995435D01*
X187276874Y-64999326D01*
X187248291Y-65065933D01*
X187245558Y-65071871D01*
X187236069Y-65091154D01*
X187228086Y-65112623D01*
X187225778Y-65118391D01*
X187196629Y-65186319D01*
X187193560Y-65201251D01*
X187188245Y-65219781D01*
X187182933Y-65234070D01*
X187171649Y-65307105D01*
X187170548Y-65313226D01*
X187163408Y-65347973D01*
X187130992Y-65409756D01*
X187070672Y-65444818D01*
X187010917Y-65459822D01*
X187007939Y-65460532D01*
X186915082Y-65481463D01*
X186902309Y-65485661D01*
X186858597Y-65495013D01*
X186799531Y-65520927D01*
X186791804Y-65524017D01*
X186731149Y-65545976D01*
X186718176Y-65553931D01*
X186697292Y-65564212D01*
X186652628Y-65581278D01*
X186652624Y-65581280D01*
X186652625Y-65581280D01*
X186591935Y-65619977D01*
X186586240Y-65623400D01*
X186547927Y-65645072D01*
X186539114Y-65649609D01*
X186530252Y-65653738D01*
X186480689Y-65690536D01*
X186473334Y-65695602D01*
X186464299Y-65701364D01*
X186445598Y-65716148D01*
X186437670Y-65721928D01*
X186380674Y-65760176D01*
X186353893Y-65787405D01*
X186345579Y-65794866D01*
X186342978Y-65797960D01*
X186336375Y-65805218D01*
X186330559Y-65811131D01*
X186325694Y-65815819D01*
X186272883Y-65864043D01*
X186264439Y-65875670D01*
X186253054Y-65889228D01*
X186211734Y-65931943D01*
X186211063Y-65932631D01*
X186203728Y-65940090D01*
X186177741Y-65966512D01*
X186172114Y-65972897D01*
X186137832Y-66008338D01*
X186116406Y-66042050D01*
X186108380Y-66053269D01*
X186083395Y-66084438D01*
X186060937Y-66128315D01*
X186055119Y-66138486D01*
X186050330Y-66146022D01*
X186018025Y-66196854D01*
X185970937Y-66240470D01*
X185908470Y-66255231D01*
X185846838Y-66237304D01*
X185802033Y-66191342D01*
X185785684Y-66129272D01*
X185785684Y-64079863D01*
X177695395Y-64079863D01*
X177632395Y-64062982D01*
X177586276Y-64016863D01*
X177569395Y-63953863D01*
X177569395Y-62808186D01*
X172242205Y-62808186D01*
X126246700Y-62808186D01*
X126246700Y-62543700D01*
X126263581Y-62480700D01*
X126309700Y-62434581D01*
X126372700Y-62417700D01*
X140145032Y-62417700D01*
X140145594Y-62417700D01*
X140601385Y-62419736D01*
G37*
%TD.AperFunction*%
%TA.AperFunction,NonConductor*%
G36*
X180586600Y-145579753D02*
G01*
X180593796Y-145579400D01*
X215219656Y-145579400D01*
X215282656Y-145596281D01*
X215328775Y-145642399D01*
X215345656Y-145705399D01*
X215345697Y-151390699D01*
X215328817Y-151453699D01*
X215282697Y-151499819D01*
X215219697Y-151516700D01*
X205000436Y-151516700D01*
X204992345Y-151520596D01*
X204965723Y-151529911D01*
X204956966Y-151531909D01*
X204949945Y-151537509D01*
X204926066Y-151552514D01*
X204917977Y-151556410D01*
X204912377Y-151563432D01*
X204892432Y-151583377D01*
X204885410Y-151588977D01*
X204881514Y-151597066D01*
X204866509Y-151620945D01*
X204860909Y-151627966D01*
X204858911Y-151636723D01*
X204849596Y-151663345D01*
X204845700Y-151671436D01*
X204845700Y-161890700D01*
X204828819Y-161953700D01*
X204782700Y-161999819D01*
X204719700Y-162016700D01*
X126372700Y-162016700D01*
X126309700Y-161999819D01*
X126263581Y-161953700D01*
X126246700Y-161890700D01*
X126246700Y-151671439D01*
X126246700Y-151671437D01*
X126242802Y-151663343D01*
X126233486Y-151636718D01*
X126231490Y-151627969D01*
X126225892Y-151620949D01*
X126210880Y-151597058D01*
X126206988Y-151588977D01*
X126206988Y-151588976D01*
X126199971Y-151583380D01*
X126180022Y-151563431D01*
X126174424Y-151556412D01*
X126166336Y-151552517D01*
X126142447Y-151537505D01*
X126135431Y-151531910D01*
X126126678Y-151529912D01*
X126100051Y-151520595D01*
X126091963Y-151516700D01*
X126068790Y-151516700D01*
X115872697Y-151516700D01*
X115809697Y-151499819D01*
X115763578Y-151453701D01*
X115746697Y-151390701D01*
X115746696Y-151189400D01*
X162130221Y-151189400D01*
X162150521Y-151576732D01*
X162211198Y-151959833D01*
X162311587Y-152334492D01*
X162450583Y-152696589D01*
X162626675Y-153042189D01*
X162837927Y-153367489D01*
X163082018Y-153668916D01*
X163356283Y-153943181D01*
X163657710Y-154187272D01*
X163657715Y-154187275D01*
X163657716Y-154187276D01*
X163983011Y-154398525D01*
X164328606Y-154574614D01*
X164328610Y-154574616D01*
X164690707Y-154713612D01*
X164690709Y-154713612D01*
X164690713Y-154713614D01*
X165065367Y-154814002D01*
X165448462Y-154874678D01*
X165835800Y-154894978D01*
X166223138Y-154874678D01*
X166606233Y-154814002D01*
X166980887Y-154713614D01*
X167342994Y-154574614D01*
X167688589Y-154398525D01*
X168013884Y-154187276D01*
X168315316Y-153943181D01*
X168589581Y-153668916D01*
X168833676Y-153367484D01*
X169044925Y-153042189D01*
X169221014Y-152696594D01*
X169360014Y-152334487D01*
X169460402Y-151959833D01*
X169521078Y-151576738D01*
X169541378Y-151189400D01*
X169521078Y-150802062D01*
X169460402Y-150418967D01*
X169360014Y-150044313D01*
X169221014Y-149682206D01*
X169044925Y-149336611D01*
X168833676Y-149011316D01*
X168833675Y-149011315D01*
X168833672Y-149011310D01*
X168589581Y-148709883D01*
X168315316Y-148435618D01*
X168013889Y-148191527D01*
X167688589Y-147980275D01*
X167342989Y-147804183D01*
X166980892Y-147665187D01*
X166606233Y-147564798D01*
X166223132Y-147504121D01*
X165835800Y-147483821D01*
X165448467Y-147504121D01*
X165065366Y-147564798D01*
X164690707Y-147665187D01*
X164328610Y-147804183D01*
X163983010Y-147980275D01*
X163657710Y-148191527D01*
X163356283Y-148435618D01*
X163082018Y-148709883D01*
X162837927Y-149011310D01*
X162626675Y-149336610D01*
X162450583Y-149682210D01*
X162311587Y-150044307D01*
X162211198Y-150418966D01*
X162150521Y-150802067D01*
X162130221Y-151189400D01*
X115746696Y-151189400D01*
X115746656Y-145705401D01*
X115763536Y-145642401D01*
X115809656Y-145596281D01*
X115872656Y-145579400D01*
X180579404Y-145579400D01*
X180586600Y-145579753D01*
G37*
%TD.AperFunction*%
M02*
