%TF.GenerationSoftware,KiCad,Pcbnew,7.0.1*%
%TF.CreationDate,2024-01-14T19:17:53-07:00*%
%TF.ProjectId,antenna_top_cap,616e7465-6e6e-4615-9f74-6f705f636170,rev?*%
%TF.SameCoordinates,Original*%
%TF.FileFunction,Copper,L3,Inr*%
%TF.FilePolarity,Positive*%
%FSLAX46Y46*%
G04 Gerber Fmt 4.6, Leading zero omitted, Abs format (unit mm)*
G04 Created by KiCad (PCBNEW 7.0.1) date 2024-01-14 19:17:53*
%MOMM*%
%LPD*%
G01*
G04 APERTURE LIST*
%TA.AperFunction,ComponentPad*%
%ADD10O,1.700000X1.700000*%
%TD*%
%TA.AperFunction,ComponentPad*%
%ADD11R,1.700000X1.700000*%
%TD*%
%TA.AperFunction,ComponentPad*%
%ADD12C,5.400000*%
%TD*%
%TA.AperFunction,ComponentPad*%
%ADD13C,2.050000*%
%TD*%
%TA.AperFunction,ComponentPad*%
%ADD14C,2.250000*%
%TD*%
%TA.AperFunction,ComponentPad*%
%ADD15O,2.416000X1.208000*%
%TD*%
%TA.AperFunction,ViaPad*%
%ADD16C,0.800000*%
%TD*%
%TA.AperFunction,Conductor*%
%ADD17C,0.254000*%
%TD*%
G04 APERTURE END LIST*
D10*
%TO.N,Net-(J3-Pin_1)*%
%TO.C,J7*%
X150975800Y-116609400D03*
D11*
X152245800Y-114069400D03*
X154785800Y-114069400D03*
D10*
X156345800Y-116609400D03*
D11*
%TO.N,Net-(J3-Pin_2)*%
X150975800Y-121689400D03*
X152245800Y-124229400D03*
X154785800Y-124229400D03*
X156345800Y-121689400D03*
%TD*%
D12*
%TO.N,GND*%
%TO.C,TP3*%
X150275800Y-71419400D03*
%TD*%
D11*
%TO.N,/BATT_NEG*%
%TO.C,J1*%
X190945800Y-81119400D03*
D10*
%TO.N,/BATT_POS*%
X188405800Y-81119400D03*
%TD*%
D12*
%TO.N,GND*%
%TO.C,TP7*%
X142693713Y-79756113D03*
%TD*%
%TO.N,GND*%
%TO.C,TP2*%
X152215800Y-79769400D03*
%TD*%
%TO.N,GND*%
%TO.C,TP5*%
X126825800Y-112239400D03*
%TD*%
%TO.N,GND*%
%TO.C,TP6*%
X165835800Y-73239400D03*
%TD*%
%TO.N,GND*%
%TO.C,TP1*%
X165835800Y-151189400D03*
%TD*%
%TO.N,GND*%
%TO.C,TP4*%
X204805800Y-112189400D03*
%TD*%
D13*
%TO.N,Balun*%
%TO.C,J5*%
X164605800Y-112189400D03*
D14*
%TO.N,GND*%
X162065800Y-109649400D03*
X162065800Y-114729400D03*
X167145800Y-109649400D03*
X167145800Y-114729400D03*
%TD*%
D15*
%TO.N,GND*%
%TO.C,J10*%
X116995800Y-85694400D03*
%TO.N,N/C*%
X116995800Y-77794400D03*
%TD*%
%TO.N,GND*%
%TO.C,J13*%
X214095800Y-87194400D03*
%TO.N,N/C*%
X214095800Y-95094400D03*
%TD*%
%TO.N,GND*%
%TO.C,J15*%
X214095800Y-76919400D03*
%TO.N,N/C*%
X214095800Y-84819400D03*
%TD*%
%TO.N,GND*%
%TO.C,J11*%
X116995800Y-95719400D03*
%TO.N,N/C*%
X116995800Y-87819400D03*
%TD*%
D16*
%TO.N,GND*%
X166395800Y-133959400D03*
X165885800Y-125429400D03*
X163695800Y-129819400D03*
X165785800Y-127499400D03*
X122535800Y-83619400D03*
X165545800Y-117729400D03*
X163705800Y-116759400D03*
X163695800Y-130809400D03*
X163695800Y-131849400D03*
X163705800Y-119859400D03*
X163695800Y-127589400D03*
X165785800Y-129809400D03*
X165785800Y-130799400D03*
X122897421Y-141398978D03*
X209075800Y-78979400D03*
X165545800Y-121979400D03*
X163715800Y-123269400D03*
X165785800Y-131819400D03*
X165785800Y-132959400D03*
X165545800Y-118879400D03*
X165545800Y-119869400D03*
X163705800Y-117749400D03*
X163715800Y-124259400D03*
X163705800Y-118789400D03*
X165545800Y-120909400D03*
X163715800Y-125299400D03*
X165545800Y-116649400D03*
X133575800Y-97979400D03*
X163715800Y-126369400D03*
X165785800Y-128649400D03*
X157755800Y-98109400D03*
X163695800Y-132919400D03*
X163715800Y-122119400D03*
X163695800Y-128669400D03*
X136795800Y-98019400D03*
X165885800Y-126499400D03*
X163715800Y-121039400D03*
X148635800Y-101279400D03*
X209175800Y-89609400D03*
X121705800Y-93769400D03*
%TO.N,3.3V*%
X147075800Y-101489400D03*
X169295800Y-102969400D03*
X155865800Y-103379400D03*
X143145800Y-100869400D03*
X178315800Y-102499400D03*
X155945800Y-96009400D03*
X168585800Y-121599400D03*
X190135800Y-88509400D03*
%TO.N,2.8V*%
X125765800Y-139589400D03*
X144825800Y-103370725D03*
X147215800Y-100149400D03*
%TO.N,/SCL_3V*%
X122944313Y-138770900D03*
%TO.N,/SDA_3V*%
X143015800Y-104569400D03*
X120455800Y-128919400D03*
%TO.N,SCL1*%
X156235800Y-101349400D03*
X153525800Y-103989400D03*
%TO.N,/GPIO*%
X121535800Y-134409400D03*
%TO.N,/XSHUT_2.8V*%
X122604434Y-137311857D03*
%TO.N,/1d-*%
X124159873Y-80864400D03*
%TO.N,/1d+*%
X124159873Y-81914400D03*
%TO.N,Net-(J10-VBUS)*%
X121745800Y-80359400D03*
%TO.N,/0d-*%
X124770784Y-90904400D03*
%TO.N,/0d+*%
X124770784Y-91954400D03*
%TO.N,/2d-*%
X207144972Y-91964400D03*
%TO.N,/2d+*%
X207144972Y-90914400D03*
%TO.N,/3d-*%
X206237842Y-81684400D03*
%TO.N,/3d+*%
X206237842Y-80634400D03*
%TO.N,Net-(J11-VBUS)*%
X121985800Y-90804899D03*
%TO.N,Net-(J13-VBUS)*%
X209325800Y-93099900D03*
%TO.N,Net-(J15-VBUS)*%
X209502184Y-82340211D03*
%TO.N,SPI0_MISO*%
X178875800Y-94779400D03*
X185965800Y-94779400D03*
%TO.N,SPI0_MOSI*%
X184345800Y-95789400D03*
X178824077Y-95810134D03*
%TO.N,SPI0_SCK*%
X178845800Y-96809400D03*
X182345800Y-96809400D03*
%TD*%
D17*
%TO.N,/SDA_3V*%
X120455800Y-128919400D02*
X120455800Y-128229400D01*
X141145800Y-106439400D02*
X143015800Y-104569400D01*
X141145800Y-107539400D02*
X141145800Y-106439400D01*
X120455800Y-128229400D02*
X141145800Y-107539400D01*
%TD*%
%TA.AperFunction,Conductor*%
%TO.N,3.3V*%
G36*
X140601385Y-62419736D02*
G01*
X140602856Y-62419906D01*
X140615746Y-62419903D01*
X140615749Y-62419904D01*
X140637447Y-62419899D01*
X140637973Y-62419899D01*
X140659994Y-62419999D01*
X140659994Y-62419998D01*
X140672907Y-62420057D01*
X140674391Y-62419892D01*
X151848044Y-62417700D01*
X204719700Y-62417700D01*
X204782700Y-62434581D01*
X204828819Y-62480700D01*
X204845700Y-62543700D01*
X204845700Y-72671437D01*
X204845700Y-72762963D01*
X204849592Y-72771046D01*
X204849595Y-72771051D01*
X204858913Y-72797681D01*
X204860910Y-72806431D01*
X204866504Y-72813445D01*
X204881517Y-72837336D01*
X204885412Y-72845424D01*
X204892431Y-72851022D01*
X204912380Y-72870971D01*
X204917976Y-72877988D01*
X204926056Y-72881879D01*
X204926058Y-72881880D01*
X204949949Y-72896892D01*
X204956969Y-72902490D01*
X204965718Y-72904486D01*
X204992343Y-72913802D01*
X205000437Y-72917700D01*
X205023610Y-72917700D01*
X205091963Y-72917700D01*
X215219660Y-72917700D01*
X215282664Y-72934583D01*
X215328784Y-72980709D01*
X215345660Y-73043716D01*
X215345320Y-75793339D01*
X215330613Y-75852398D01*
X215289938Y-75897674D01*
X215232785Y-75918601D01*
X215172491Y-75910297D01*
X215014656Y-75847109D01*
X214806031Y-75806900D01*
X213438810Y-75806900D01*
X213438805Y-75806900D01*
X213280303Y-75822035D01*
X213076442Y-75881894D01*
X212887600Y-75979248D01*
X212720597Y-76110581D01*
X212581460Y-76271153D01*
X212475232Y-76455148D01*
X212405741Y-76655927D01*
X212375505Y-76866222D01*
X212385614Y-77078444D01*
X212435704Y-77284918D01*
X212495856Y-77416631D01*
X212523965Y-77478180D01*
X212581254Y-77558631D01*
X212647206Y-77651248D01*
X212800967Y-77797859D01*
X212979707Y-77912729D01*
X213176943Y-77991690D01*
X213176945Y-77991690D01*
X213176947Y-77991691D01*
X213385569Y-78031900D01*
X213696000Y-78031900D01*
X213756949Y-78047622D01*
X213802687Y-78090864D01*
X213821802Y-78150835D01*
X213809522Y-78212570D01*
X213777918Y-78278193D01*
X213745300Y-78421107D01*
X213745300Y-78567693D01*
X213777918Y-78710605D01*
X213815898Y-78789470D01*
X213841521Y-78842677D01*
X213932917Y-78957283D01*
X214047523Y-79048679D01*
X214179594Y-79112281D01*
X214322506Y-79144900D01*
X214373210Y-79144900D01*
X214395800Y-79144900D01*
X214435682Y-79144900D01*
X215014275Y-79144900D01*
X215043831Y-79148415D01*
X215101854Y-79162416D01*
X215132564Y-79174248D01*
X215187751Y-79204306D01*
X215214348Y-79223686D01*
X215259871Y-79267013D01*
X215280544Y-79292624D01*
X215313292Y-79346261D01*
X215326626Y-79376348D01*
X215344368Y-79436635D01*
X215349457Y-79469154D01*
X215350864Y-79527211D01*
X215350243Y-79533406D01*
X215350243Y-79552487D01*
X215349526Y-79565911D01*
X215346697Y-79592306D01*
X215350243Y-79616935D01*
X215350243Y-80869237D01*
X215350242Y-80869716D01*
X215345478Y-82122258D01*
X215341802Y-82147451D01*
X215344517Y-82172812D01*
X215345232Y-82186689D01*
X215345168Y-82203829D01*
X215345932Y-82211591D01*
X215344510Y-82270159D01*
X215339420Y-82302679D01*
X215321679Y-82362952D01*
X215308342Y-82393040D01*
X215275596Y-82446666D01*
X215254920Y-82472276D01*
X215209403Y-82515591D01*
X215182802Y-82534971D01*
X215127624Y-82565019D01*
X215096914Y-82576849D01*
X215040800Y-82590386D01*
X215011251Y-82593900D01*
X214435682Y-82593900D01*
X214395800Y-82593900D01*
X214322506Y-82593900D01*
X214295949Y-82599961D01*
X214179594Y-82626518D01*
X214047524Y-82690120D01*
X213932917Y-82781517D01*
X213841520Y-82896124D01*
X213777918Y-83028194D01*
X213745300Y-83171107D01*
X213745300Y-83317693D01*
X213777918Y-83460606D01*
X213809522Y-83526230D01*
X213821802Y-83587965D01*
X213802687Y-83647936D01*
X213756949Y-83691178D01*
X213696000Y-83706900D01*
X213438805Y-83706900D01*
X213280303Y-83722035D01*
X213280299Y-83722036D01*
X213280300Y-83722036D01*
X213113125Y-83771123D01*
X213076442Y-83781894D01*
X212887600Y-83879248D01*
X212720597Y-84010581D01*
X212581460Y-84171153D01*
X212475232Y-84355148D01*
X212405741Y-84555927D01*
X212375505Y-84766222D01*
X212385614Y-84978444D01*
X212435704Y-85184918D01*
X212495856Y-85316631D01*
X212523965Y-85378180D01*
X212561525Y-85430925D01*
X212647206Y-85551248D01*
X212800967Y-85697859D01*
X212979707Y-85812729D01*
X213178602Y-85892354D01*
X213228551Y-85928643D01*
X213255263Y-85984305D01*
X213252326Y-86045975D01*
X213220444Y-86098846D01*
X213167272Y-86130224D01*
X213076442Y-86156894D01*
X212887600Y-86254248D01*
X212720597Y-86385581D01*
X212581460Y-86546153D01*
X212475232Y-86730148D01*
X212405741Y-86930927D01*
X212375505Y-87141222D01*
X212385614Y-87353444D01*
X212435704Y-87559918D01*
X212481573Y-87660355D01*
X212523965Y-87753180D01*
X212581254Y-87833631D01*
X212647206Y-87926248D01*
X212800967Y-88072859D01*
X212979707Y-88187729D01*
X213176943Y-88266690D01*
X213176945Y-88266690D01*
X213176947Y-88266691D01*
X213385569Y-88306900D01*
X213696000Y-88306900D01*
X213756949Y-88322622D01*
X213802687Y-88365864D01*
X213821802Y-88425835D01*
X213809522Y-88487570D01*
X213777918Y-88553193D01*
X213745300Y-88696107D01*
X213745300Y-88842693D01*
X213777918Y-88985605D01*
X213820067Y-89073128D01*
X213841521Y-89117677D01*
X213932917Y-89232283D01*
X214047523Y-89323679D01*
X214179594Y-89387281D01*
X214322506Y-89419900D01*
X214373210Y-89419900D01*
X214395800Y-89419900D01*
X214435682Y-89419900D01*
X215014275Y-89419900D01*
X215043831Y-89423415D01*
X215101854Y-89437416D01*
X215132564Y-89449248D01*
X215187751Y-89479306D01*
X215214349Y-89498687D01*
X215259871Y-89542013D01*
X215280544Y-89567624D01*
X215313292Y-89621261D01*
X215326626Y-89651348D01*
X215344368Y-89711635D01*
X215349457Y-89744154D01*
X215350864Y-89802211D01*
X215350243Y-89808406D01*
X215350243Y-89827487D01*
X215349526Y-89840911D01*
X215346697Y-89867306D01*
X215350243Y-89891935D01*
X215350243Y-91144237D01*
X215350242Y-91144716D01*
X215345478Y-92397258D01*
X215341802Y-92422451D01*
X215344517Y-92447812D01*
X215345232Y-92461689D01*
X215345168Y-92478829D01*
X215345932Y-92486591D01*
X215344510Y-92545159D01*
X215339420Y-92577679D01*
X215321679Y-92637952D01*
X215308342Y-92668040D01*
X215275596Y-92721666D01*
X215254920Y-92747276D01*
X215209403Y-92790591D01*
X215182802Y-92809971D01*
X215127624Y-92840019D01*
X215096914Y-92851849D01*
X215040800Y-92865386D01*
X215011251Y-92868900D01*
X214435682Y-92868900D01*
X214395800Y-92868900D01*
X214322506Y-92868900D01*
X214304981Y-92872900D01*
X214179594Y-92901518D01*
X214047524Y-92965120D01*
X213932917Y-93056517D01*
X213841520Y-93171124D01*
X213777918Y-93303194D01*
X213752374Y-93415112D01*
X213747951Y-93434494D01*
X213745300Y-93446107D01*
X213745300Y-93592693D01*
X213777918Y-93735606D01*
X213801277Y-93784110D01*
X213807062Y-93796123D01*
X213809522Y-93801230D01*
X213821802Y-93862965D01*
X213802687Y-93922936D01*
X213756949Y-93966178D01*
X213696000Y-93981900D01*
X213438805Y-93981900D01*
X213280303Y-93997035D01*
X213076442Y-94056894D01*
X212887600Y-94154248D01*
X212720597Y-94285581D01*
X212581460Y-94446153D01*
X212475232Y-94630148D01*
X212405741Y-94830927D01*
X212375505Y-95041222D01*
X212385614Y-95253444D01*
X212435704Y-95459918D01*
X212486214Y-95570518D01*
X212523965Y-95653180D01*
X212608987Y-95772576D01*
X212647206Y-95826248D01*
X212800967Y-95972859D01*
X212979707Y-96087729D01*
X213176943Y-96166690D01*
X213176945Y-96166690D01*
X213176947Y-96166691D01*
X213385569Y-96206900D01*
X214752790Y-96206900D01*
X214752795Y-96206900D01*
X214840851Y-96198491D01*
X214911300Y-96191764D01*
X215115155Y-96131907D01*
X215161569Y-96107978D01*
X215223797Y-96094053D01*
X215284879Y-96112383D01*
X215329162Y-96158275D01*
X215345301Y-96219972D01*
X215345697Y-151390699D01*
X215328817Y-151453699D01*
X215282697Y-151499819D01*
X215219697Y-151516700D01*
X205000436Y-151516700D01*
X204992345Y-151520596D01*
X204965723Y-151529911D01*
X204956966Y-151531909D01*
X204949945Y-151537509D01*
X204926066Y-151552514D01*
X204917977Y-151556410D01*
X204912377Y-151563432D01*
X204892432Y-151583377D01*
X204885410Y-151588977D01*
X204881514Y-151597066D01*
X204866509Y-151620945D01*
X204860909Y-151627966D01*
X204858911Y-151636723D01*
X204849596Y-151663345D01*
X204845700Y-151671436D01*
X204845700Y-161890700D01*
X204828819Y-161953700D01*
X204782700Y-161999819D01*
X204719700Y-162016700D01*
X126372700Y-162016700D01*
X126309700Y-161999819D01*
X126263581Y-161953700D01*
X126246700Y-161890700D01*
X126246700Y-151671439D01*
X126246700Y-151671437D01*
X126242802Y-151663343D01*
X126233486Y-151636718D01*
X126231490Y-151627969D01*
X126225892Y-151620949D01*
X126210880Y-151597058D01*
X126206988Y-151588977D01*
X126206988Y-151588976D01*
X126199971Y-151583380D01*
X126180022Y-151563431D01*
X126174424Y-151556412D01*
X126166336Y-151552517D01*
X126142447Y-151537505D01*
X126135431Y-151531910D01*
X126126678Y-151529912D01*
X126100051Y-151520595D01*
X126091963Y-151516700D01*
X126068790Y-151516700D01*
X115872697Y-151516700D01*
X115809697Y-151499819D01*
X115763578Y-151453701D01*
X115746697Y-151390701D01*
X115746696Y-151189399D01*
X162622243Y-151189399D01*
X162639677Y-151499819D01*
X162642450Y-151549204D01*
X162702815Y-151904483D01*
X162706623Y-151917700D01*
X162802578Y-152250772D01*
X162894516Y-152472729D01*
X162940486Y-152583710D01*
X163114804Y-152899115D01*
X163323341Y-153193019D01*
X163563473Y-153461727D01*
X163832181Y-153701859D01*
X164126085Y-153910396D01*
X164441490Y-154084714D01*
X164709417Y-154195693D01*
X164774427Y-154222621D01*
X164774428Y-154222621D01*
X164774430Y-154222622D01*
X165120717Y-154322385D01*
X165475996Y-154382750D01*
X165835800Y-154402956D01*
X166195604Y-154382750D01*
X166550883Y-154322385D01*
X166897170Y-154222622D01*
X167230110Y-154084714D01*
X167545515Y-153910396D01*
X167839419Y-153701859D01*
X168108127Y-153461727D01*
X168348259Y-153193019D01*
X168556796Y-152899115D01*
X168731114Y-152583710D01*
X168869022Y-152250770D01*
X168968785Y-151904483D01*
X169029150Y-151549204D01*
X169049356Y-151189400D01*
X169029150Y-150829596D01*
X168968785Y-150474317D01*
X168869022Y-150128030D01*
X168731114Y-149795090D01*
X168556796Y-149479685D01*
X168348259Y-149185781D01*
X168108127Y-148917073D01*
X167839419Y-148676941D01*
X167545515Y-148468404D01*
X167230110Y-148294086D01*
X167119130Y-148248116D01*
X166897172Y-148156178D01*
X166666312Y-148089669D01*
X166550883Y-148056415D01*
X166195604Y-147996050D01*
X166176471Y-147994975D01*
X165835800Y-147975843D01*
X165475996Y-147996050D01*
X165120717Y-148056415D01*
X164774427Y-148156178D01*
X164441490Y-148294086D01*
X164126088Y-148468402D01*
X163832179Y-148676942D01*
X163563473Y-148917073D01*
X163323342Y-149185779D01*
X163114802Y-149479688D01*
X162940486Y-149795090D01*
X162802578Y-150128027D01*
X162702815Y-150474317D01*
X162642450Y-150829596D01*
X162622243Y-151189399D01*
X115746696Y-151189399D01*
X115746688Y-150128027D01*
X115746655Y-145539400D01*
X132885800Y-145539400D01*
X180309890Y-145539400D01*
X180346465Y-145544825D01*
X180400269Y-145561147D01*
X180586600Y-145579499D01*
X180772931Y-145561147D01*
X180826734Y-145544825D01*
X180863310Y-145539400D01*
X197915800Y-145539400D01*
X197915800Y-126869400D01*
X166894257Y-126869400D01*
X166837055Y-126855667D01*
X166792321Y-126817462D01*
X166769808Y-126763112D01*
X166774422Y-126704467D01*
X166779342Y-126689328D01*
X166799304Y-126499400D01*
X166779342Y-126309472D01*
X166737102Y-126179472D01*
X166720328Y-126127846D01*
X166720327Y-126127844D01*
X166662334Y-126027398D01*
X166645454Y-125964400D01*
X166662334Y-125901401D01*
X166720327Y-125800956D01*
X166779342Y-125619328D01*
X166799304Y-125429400D01*
X166779342Y-125239472D01*
X166737102Y-125109472D01*
X166720327Y-125057843D01*
X166624841Y-124892457D01*
X166497052Y-124750533D01*
X166342553Y-124638283D01*
X166342552Y-124638282D01*
X166168088Y-124560606D01*
X165981287Y-124520900D01*
X165790313Y-124520900D01*
X165665779Y-124547370D01*
X165603511Y-124560606D01*
X165429046Y-124638283D01*
X165274547Y-124750533D01*
X165146758Y-124892457D01*
X165051272Y-125057843D01*
X164992258Y-125239470D01*
X164972296Y-125429400D01*
X164992258Y-125619329D01*
X165051272Y-125800954D01*
X165109264Y-125901401D01*
X165126144Y-125964400D01*
X165109264Y-126027399D01*
X165051272Y-126127845D01*
X164992258Y-126309470D01*
X164992257Y-126309472D01*
X164992258Y-126309472D01*
X164972296Y-126499400D01*
X164992258Y-126689328D01*
X164997177Y-126704467D01*
X165001792Y-126763112D01*
X164979279Y-126817462D01*
X164934545Y-126855667D01*
X164877343Y-126869400D01*
X164682017Y-126869400D01*
X164624814Y-126855667D01*
X164580081Y-126817461D01*
X164557568Y-126763111D01*
X164562184Y-126704464D01*
X164567102Y-126689327D01*
X164609342Y-126559328D01*
X164629304Y-126369400D01*
X164609342Y-126179472D01*
X164550327Y-125997844D01*
X164492334Y-125897398D01*
X164475454Y-125834400D01*
X164492334Y-125771401D01*
X164550327Y-125670956D01*
X164609342Y-125489328D01*
X164629304Y-125299400D01*
X164609342Y-125109472D01*
X164550327Y-124927844D01*
X164500994Y-124842398D01*
X164484114Y-124779398D01*
X164500995Y-124716400D01*
X164550327Y-124630956D01*
X164609342Y-124449328D01*
X164629304Y-124259400D01*
X164609342Y-124069472D01*
X164550327Y-123887844D01*
X164515428Y-123827397D01*
X164498548Y-123764398D01*
X164515429Y-123701399D01*
X164550327Y-123640956D01*
X164609342Y-123459328D01*
X164629304Y-123269400D01*
X164609342Y-123079472D01*
X164579834Y-122988657D01*
X164550328Y-122897846D01*
X164534771Y-122870900D01*
X164469240Y-122757397D01*
X164452360Y-122694400D01*
X164469241Y-122631400D01*
X164550327Y-122490956D01*
X164550327Y-122490954D01*
X164556949Y-122479486D01*
X164557436Y-122479767D01*
X164579746Y-122442925D01*
X164628333Y-122412089D01*
X164685563Y-122406072D01*
X164739500Y-122426130D01*
X164778893Y-122468078D01*
X164806759Y-122516344D01*
X164871313Y-122588038D01*
X164934547Y-122658266D01*
X165089048Y-122770518D01*
X165263512Y-122848194D01*
X165450313Y-122887900D01*
X165641285Y-122887900D01*
X165641287Y-122887900D01*
X165828088Y-122848194D01*
X166002552Y-122770518D01*
X166157053Y-122658266D01*
X166284840Y-122516344D01*
X166380327Y-122350956D01*
X166439342Y-122169328D01*
X166459304Y-121979400D01*
X166439342Y-121789472D01*
X166380327Y-121607844D01*
X166322335Y-121507399D01*
X166305454Y-121444399D01*
X166322333Y-121381402D01*
X166380327Y-121280956D01*
X166439342Y-121099328D01*
X166459304Y-120909400D01*
X166439342Y-120719472D01*
X166398312Y-120593196D01*
X166380328Y-120537846D01*
X166380327Y-120537844D01*
X166330994Y-120452397D01*
X166314114Y-120389398D01*
X166330995Y-120326399D01*
X166380327Y-120240956D01*
X166439342Y-120059328D01*
X166459304Y-119869400D01*
X166439342Y-119679472D01*
X166380327Y-119497844D01*
X166345428Y-119437397D01*
X166328548Y-119374400D01*
X166345428Y-119311402D01*
X166380327Y-119250956D01*
X166439342Y-119069328D01*
X166459304Y-118879400D01*
X166439342Y-118689472D01*
X166380327Y-118507844D01*
X166299240Y-118367397D01*
X166282360Y-118304400D01*
X166299241Y-118241400D01*
X166380327Y-118100956D01*
X166439342Y-117919328D01*
X166459304Y-117729400D01*
X166439342Y-117539472D01*
X166380327Y-117357844D01*
X166319447Y-117252398D01*
X166302567Y-117189399D01*
X166319448Y-117126400D01*
X166356686Y-117061901D01*
X166380327Y-117020957D01*
X166403600Y-116949329D01*
X166439342Y-116839328D01*
X166459304Y-116649400D01*
X166439342Y-116459472D01*
X166428206Y-116425201D01*
X166426122Y-116354456D01*
X166462511Y-116293745D01*
X166525889Y-116262231D01*
X166596257Y-116269859D01*
X166639460Y-116287755D01*
X166889474Y-116347778D01*
X167145800Y-116367951D01*
X167402126Y-116347778D01*
X167652140Y-116287755D01*
X167889687Y-116189360D01*
X168108916Y-116055016D01*
X168304431Y-115888031D01*
X168471416Y-115692516D01*
X168605760Y-115473287D01*
X168704155Y-115235740D01*
X168764178Y-114985726D01*
X168784351Y-114729400D01*
X168764178Y-114473074D01*
X168704155Y-114223060D01*
X168605760Y-113985513D01*
X168605758Y-113985509D01*
X168471416Y-113766283D01*
X168304431Y-113570768D01*
X168108916Y-113403783D01*
X167889690Y-113269441D01*
X167652140Y-113171045D01*
X167402126Y-113111022D01*
X167145800Y-113090849D01*
X166889473Y-113111022D01*
X166639459Y-113171045D01*
X166401909Y-113269441D01*
X166182683Y-113403783D01*
X165987168Y-113570768D01*
X165820183Y-113766283D01*
X165685841Y-113985509D01*
X165599888Y-114193019D01*
X165587445Y-114223060D01*
X165527422Y-114473074D01*
X165507249Y-114729400D01*
X165521494Y-114910397D01*
X165527422Y-114985726D01*
X165587445Y-115235740D01*
X165677418Y-115452956D01*
X165685840Y-115473287D01*
X165732277Y-115549065D01*
X165750820Y-115612426D01*
X165734778Y-115676466D01*
X165688557Y-115723605D01*
X165624844Y-115740900D01*
X165450313Y-115740900D01*
X165325778Y-115767370D01*
X165263511Y-115780606D01*
X165089046Y-115858283D01*
X164934547Y-115970533D01*
X164806758Y-116112457D01*
X164704651Y-116289313D01*
X164702477Y-116288058D01*
X164684471Y-116317779D01*
X164635884Y-116348603D01*
X164578659Y-116354612D01*
X164524729Y-116334552D01*
X164485342Y-116292607D01*
X164444841Y-116222457D01*
X164317052Y-116080533D01*
X164239802Y-116024408D01*
X164162552Y-115968282D01*
X163988088Y-115890606D01*
X163801287Y-115850900D01*
X163610313Y-115850900D01*
X163588662Y-115855502D01*
X163533903Y-115867141D01*
X163475733Y-115865770D01*
X163424381Y-115838407D01*
X163390799Y-115790890D01*
X163382149Y-115733350D01*
X163400275Y-115678059D01*
X163490327Y-115531109D01*
X163525760Y-115473287D01*
X163624155Y-115235740D01*
X163684178Y-114985726D01*
X163704351Y-114729400D01*
X163684178Y-114473074D01*
X163624155Y-114223060D01*
X163525760Y-113985513D01*
X163525758Y-113985509D01*
X163391416Y-113766283D01*
X163224431Y-113570768D01*
X163028916Y-113403783D01*
X162809690Y-113269441D01*
X162572140Y-113171045D01*
X162322126Y-113111022D01*
X162065800Y-113090849D01*
X161809473Y-113111022D01*
X161559459Y-113171045D01*
X161321909Y-113269441D01*
X161102683Y-113403783D01*
X160907168Y-113570768D01*
X160740183Y-113766283D01*
X160605841Y-113985509D01*
X160519888Y-114193019D01*
X160507445Y-114223060D01*
X160447422Y-114473074D01*
X160427249Y-114729400D01*
X160441494Y-114910397D01*
X160447422Y-114985726D01*
X160507445Y-115235740D01*
X160605841Y-115473290D01*
X160740183Y-115692516D01*
X160907168Y-115888031D01*
X161102683Y-116055016D01*
X161321909Y-116189358D01*
X161321911Y-116189358D01*
X161321913Y-116189360D01*
X161559460Y-116287755D01*
X161809474Y-116347778D01*
X162065800Y-116367951D01*
X162322126Y-116347778D01*
X162572140Y-116287755D01*
X162702863Y-116233607D01*
X162773229Y-116225979D01*
X162836608Y-116257492D01*
X162872996Y-116318203D01*
X162870912Y-116388953D01*
X162812258Y-116569470D01*
X162792296Y-116759399D01*
X162812258Y-116949329D01*
X162871272Y-117130955D01*
X162906170Y-117191401D01*
X162923050Y-117254400D01*
X162906170Y-117317399D01*
X162871272Y-117377844D01*
X162812258Y-117559470D01*
X162792296Y-117749400D01*
X162812258Y-117939329D01*
X162871272Y-118120956D01*
X162920603Y-118206399D01*
X162937484Y-118269398D01*
X162920604Y-118332398D01*
X162871272Y-118417844D01*
X162812258Y-118599470D01*
X162792296Y-118789400D01*
X162812258Y-118979329D01*
X162871272Y-119160954D01*
X162929264Y-119261401D01*
X162946144Y-119324400D01*
X162929264Y-119387399D01*
X162871272Y-119487845D01*
X162812258Y-119669470D01*
X162792296Y-119859400D01*
X162812258Y-120049329D01*
X162871272Y-120230956D01*
X162966018Y-120395060D01*
X162982899Y-120458060D01*
X162966018Y-120521060D01*
X162881272Y-120667843D01*
X162822258Y-120849470D01*
X162802296Y-121039399D01*
X162822258Y-121229329D01*
X162881272Y-121410954D01*
X162942151Y-121516401D01*
X162959031Y-121579400D01*
X162942151Y-121642399D01*
X162881272Y-121747845D01*
X162822258Y-121929470D01*
X162802296Y-122119400D01*
X162822258Y-122309329D01*
X162881272Y-122490956D01*
X162962358Y-122631400D01*
X162979239Y-122694400D01*
X162962358Y-122757400D01*
X162881272Y-122897843D01*
X162822258Y-123079470D01*
X162802296Y-123269399D01*
X162822258Y-123459329D01*
X162881272Y-123640956D01*
X162916169Y-123701399D01*
X162933050Y-123764398D01*
X162916170Y-123827397D01*
X162881273Y-123887842D01*
X162822258Y-124069470D01*
X162802296Y-124259400D01*
X162822258Y-124449329D01*
X162881272Y-124630954D01*
X162930604Y-124716401D01*
X162947484Y-124779400D01*
X162930604Y-124842399D01*
X162881272Y-124927845D01*
X162822258Y-125109470D01*
X162802296Y-125299400D01*
X162822258Y-125489329D01*
X162881272Y-125670954D01*
X162939264Y-125771401D01*
X162956144Y-125834400D01*
X162939264Y-125897399D01*
X162881272Y-125997845D01*
X162822258Y-126179470D01*
X162802296Y-126369399D01*
X162822258Y-126559329D01*
X162869416Y-126704464D01*
X162874032Y-126763111D01*
X162851519Y-126817461D01*
X162806786Y-126855667D01*
X162749583Y-126869400D01*
X132885800Y-126869400D01*
X132885800Y-145539400D01*
X115746655Y-145539400D01*
X115746625Y-141398978D01*
X121983917Y-141398978D01*
X122003879Y-141588907D01*
X122062893Y-141770534D01*
X122158379Y-141935920D01*
X122158381Y-141935922D01*
X122286168Y-142077844D01*
X122440669Y-142190096D01*
X122615133Y-142267772D01*
X122801934Y-142307478D01*
X122992906Y-142307478D01*
X122992908Y-142307478D01*
X123179709Y-142267772D01*
X123354173Y-142190096D01*
X123508674Y-142077844D01*
X123636461Y-141935922D01*
X123731948Y-141770534D01*
X123790963Y-141588906D01*
X123810925Y-141398978D01*
X123790963Y-141209050D01*
X123731948Y-141027422D01*
X123731948Y-141027421D01*
X123636462Y-140862035D01*
X123508673Y-140720111D01*
X123354174Y-140607861D01*
X123354173Y-140607860D01*
X123179709Y-140530184D01*
X122992908Y-140490478D01*
X122801934Y-140490478D01*
X122677400Y-140516948D01*
X122615132Y-140530184D01*
X122440667Y-140607861D01*
X122286168Y-140720111D01*
X122158379Y-140862035D01*
X122062893Y-141027421D01*
X122003879Y-141209048D01*
X121983917Y-141398978D01*
X115746625Y-141398978D01*
X115746595Y-137311857D01*
X121690930Y-137311857D01*
X121710892Y-137501786D01*
X121769906Y-137683413D01*
X121865392Y-137848799D01*
X121933100Y-137923996D01*
X121993181Y-137990723D01*
X122147682Y-138102975D01*
X122147685Y-138102976D01*
X122149745Y-138104473D01*
X122188932Y-138151174D01*
X122201607Y-138210806D01*
X122184803Y-138269409D01*
X122109785Y-138399343D01*
X122050771Y-138580970D01*
X122030809Y-138770899D01*
X122050771Y-138960829D01*
X122109785Y-139142456D01*
X122205271Y-139307842D01*
X122205273Y-139307844D01*
X122333060Y-139449766D01*
X122487561Y-139562018D01*
X122662025Y-139639694D01*
X122848826Y-139679400D01*
X123039798Y-139679400D01*
X123039800Y-139679400D01*
X123226601Y-139639694D01*
X123339564Y-139589400D01*
X124852296Y-139589400D01*
X124872258Y-139779329D01*
X124931272Y-139960956D01*
X125026758Y-140126342D01*
X125026760Y-140126344D01*
X125154547Y-140268266D01*
X125309048Y-140380518D01*
X125483512Y-140458194D01*
X125670313Y-140497900D01*
X125861285Y-140497900D01*
X125861287Y-140497900D01*
X126048088Y-140458194D01*
X126222552Y-140380518D01*
X126377053Y-140268266D01*
X126504840Y-140126344D01*
X126600327Y-139960956D01*
X126659342Y-139779328D01*
X126679304Y-139589400D01*
X126659342Y-139399472D01*
X126600327Y-139217844D01*
X126600327Y-139217843D01*
X126504841Y-139052457D01*
X126377052Y-138910533D01*
X126222553Y-138798283D01*
X126222552Y-138798282D01*
X126048088Y-138720606D01*
X125861287Y-138680900D01*
X125670313Y-138680900D01*
X125545778Y-138707370D01*
X125483511Y-138720606D01*
X125309046Y-138798283D01*
X125154547Y-138910533D01*
X125026758Y-139052457D01*
X124931272Y-139217843D01*
X124872258Y-139399470D01*
X124852296Y-139589400D01*
X123339564Y-139589400D01*
X123401065Y-139562018D01*
X123555566Y-139449766D01*
X123683353Y-139307844D01*
X123778840Y-139142456D01*
X123837855Y-138960828D01*
X123857817Y-138770900D01*
X123837855Y-138580972D01*
X123778840Y-138399344D01*
X123778840Y-138399343D01*
X123683354Y-138233957D01*
X123555565Y-138092033D01*
X123399001Y-137978282D01*
X123359814Y-137931580D01*
X123347139Y-137871948D01*
X123363941Y-137813350D01*
X123438961Y-137683413D01*
X123497976Y-137501785D01*
X123517938Y-137311857D01*
X123497976Y-137121929D01*
X123438961Y-136940301D01*
X123438961Y-136940300D01*
X123343475Y-136774914D01*
X123215686Y-136632990D01*
X123061187Y-136520740D01*
X123061186Y-136520739D01*
X122886722Y-136443063D01*
X122699921Y-136403357D01*
X122508947Y-136403357D01*
X122384413Y-136429827D01*
X122322145Y-136443063D01*
X122147680Y-136520740D01*
X121993181Y-136632990D01*
X121865392Y-136774914D01*
X121769906Y-136940300D01*
X121710892Y-137121927D01*
X121690930Y-137311857D01*
X115746595Y-137311857D01*
X115746574Y-134409400D01*
X120622296Y-134409400D01*
X120642258Y-134599329D01*
X120701272Y-134780956D01*
X120796758Y-134946342D01*
X120796760Y-134946344D01*
X120924547Y-135088266D01*
X121079048Y-135200518D01*
X121253512Y-135278194D01*
X121440313Y-135317900D01*
X121631285Y-135317900D01*
X121631287Y-135317900D01*
X121818088Y-135278194D01*
X121992552Y-135200518D01*
X122147053Y-135088266D01*
X122274840Y-134946344D01*
X122370327Y-134780956D01*
X122429342Y-134599328D01*
X122449304Y-134409400D01*
X122429342Y-134219472D01*
X122370327Y-134037844D01*
X122370327Y-134037843D01*
X122274841Y-133872457D01*
X122147052Y-133730533D01*
X121992553Y-133618283D01*
X121992552Y-133618282D01*
X121818088Y-133540606D01*
X121631287Y-133500900D01*
X121440313Y-133500900D01*
X121315779Y-133527370D01*
X121253511Y-133540606D01*
X121079046Y-133618283D01*
X120924547Y-133730533D01*
X120796758Y-133872457D01*
X120701272Y-134037843D01*
X120642258Y-134219470D01*
X120622296Y-134409400D01*
X115746574Y-134409400D01*
X115746534Y-128919400D01*
X119542296Y-128919400D01*
X119562258Y-129109329D01*
X119621272Y-129290956D01*
X119716758Y-129456342D01*
X119716760Y-129456344D01*
X119844547Y-129598266D01*
X119999048Y-129710518D01*
X120173512Y-129788194D01*
X120360313Y-129827900D01*
X120551285Y-129827900D01*
X120551287Y-129827900D01*
X120738088Y-129788194D01*
X120912552Y-129710518D01*
X121067053Y-129598266D01*
X121194840Y-129456344D01*
X121290327Y-129290956D01*
X121349342Y-129109328D01*
X121369304Y-128919400D01*
X121349342Y-128729472D01*
X121290327Y-128547844D01*
X121290327Y-128547843D01*
X121245610Y-128470391D01*
X121229208Y-128418373D01*
X121236328Y-128364297D01*
X121265632Y-128318298D01*
X126995892Y-122588038D01*
X149617300Y-122588038D01*
X149623811Y-122648600D01*
X149674911Y-122785605D01*
X149762538Y-122902661D01*
X149879594Y-122990288D01*
X149879595Y-122990288D01*
X149879596Y-122990289D01*
X150016599Y-123041389D01*
X150077162Y-123047900D01*
X150795250Y-123047900D01*
X150853652Y-123062252D01*
X150898749Y-123102039D01*
X150920268Y-123158197D01*
X150913306Y-123217932D01*
X150893811Y-123270199D01*
X150887300Y-123330762D01*
X150887300Y-125128038D01*
X150893811Y-125188600D01*
X150944911Y-125325605D01*
X151032538Y-125442661D01*
X151149594Y-125530288D01*
X151149595Y-125530288D01*
X151149596Y-125530289D01*
X151286599Y-125581389D01*
X151347162Y-125587900D01*
X153144438Y-125587900D01*
X153205001Y-125581389D01*
X153342004Y-125530289D01*
X153440292Y-125456710D01*
X153489016Y-125434460D01*
X153542584Y-125434460D01*
X153591307Y-125456710D01*
X153689596Y-125530289D01*
X153826599Y-125581389D01*
X153887162Y-125587900D01*
X155684438Y-125587900D01*
X155745001Y-125581389D01*
X155882004Y-125530289D01*
X155999061Y-125442661D01*
X156086689Y-125325604D01*
X156137789Y-125188601D01*
X156144300Y-125128038D01*
X156144300Y-123330762D01*
X156137789Y-123270199D01*
X156118293Y-123217931D01*
X156111332Y-123158197D01*
X156132851Y-123102039D01*
X156177948Y-123062252D01*
X156236350Y-123047900D01*
X157244438Y-123047900D01*
X157305001Y-123041389D01*
X157442004Y-122990289D01*
X157559061Y-122902661D01*
X157646689Y-122785604D01*
X157697789Y-122648601D01*
X157704300Y-122588038D01*
X157704300Y-120790762D01*
X157697789Y-120730199D01*
X157646689Y-120593196D01*
X157636426Y-120579486D01*
X157559061Y-120476138D01*
X157442005Y-120388511D01*
X157373502Y-120362960D01*
X157305001Y-120337411D01*
X157244438Y-120330900D01*
X155447162Y-120330900D01*
X155386599Y-120337411D01*
X155249594Y-120388511D01*
X155132538Y-120476138D01*
X155044911Y-120593194D01*
X155017068Y-120667844D01*
X154993811Y-120730199D01*
X154987300Y-120790762D01*
X154987300Y-122588038D01*
X154993811Y-122648601D01*
X155013306Y-122700868D01*
X155020268Y-122760603D01*
X154998749Y-122816761D01*
X154953652Y-122856548D01*
X154895250Y-122870900D01*
X153887162Y-122870900D01*
X153826599Y-122877411D01*
X153689594Y-122928511D01*
X153591309Y-123002087D01*
X153542583Y-123024339D01*
X153489017Y-123024339D01*
X153440291Y-123002087D01*
X153342005Y-122928511D01*
X153259781Y-122897843D01*
X153205001Y-122877411D01*
X153144438Y-122870900D01*
X152426350Y-122870900D01*
X152367948Y-122856548D01*
X152322851Y-122816761D01*
X152301332Y-122760603D01*
X152308294Y-122700868D01*
X152327789Y-122648601D01*
X152334300Y-122588038D01*
X152334300Y-120790762D01*
X152327789Y-120730199D01*
X152276689Y-120593196D01*
X152266426Y-120579486D01*
X152189061Y-120476138D01*
X152072005Y-120388511D01*
X152003502Y-120362960D01*
X151935001Y-120337411D01*
X151874438Y-120330900D01*
X150077162Y-120330900D01*
X150016599Y-120337411D01*
X149879594Y-120388511D01*
X149762538Y-120476138D01*
X149674911Y-120593194D01*
X149623811Y-120730199D01*
X149617300Y-120790762D01*
X149617300Y-122588038D01*
X126995892Y-122588038D01*
X132974531Y-116609400D01*
X149612644Y-116609400D01*
X149631236Y-116833768D01*
X149631236Y-116833771D01*
X149631237Y-116833772D01*
X149686502Y-117052011D01*
X149776939Y-117258190D01*
X149776940Y-117258191D01*
X149900078Y-117446668D01*
X150003922Y-117559472D01*
X150052562Y-117612308D01*
X150228696Y-117749400D01*
X150230224Y-117750589D01*
X150428226Y-117857742D01*
X150641165Y-117930844D01*
X150863231Y-117967900D01*
X151088366Y-117967900D01*
X151088369Y-117967900D01*
X151310435Y-117930844D01*
X151523374Y-117857742D01*
X151721376Y-117750589D01*
X151899040Y-117612306D01*
X152051522Y-117446668D01*
X152174660Y-117258191D01*
X152265096Y-117052016D01*
X152320364Y-116833768D01*
X152338956Y-116609400D01*
X152320364Y-116385032D01*
X152265096Y-116166784D01*
X152174660Y-115960609D01*
X152051522Y-115772132D01*
X151929182Y-115639237D01*
X151900829Y-115588853D01*
X151897962Y-115531109D01*
X151921186Y-115478164D01*
X151965611Y-115441164D01*
X152021884Y-115427900D01*
X153144438Y-115427900D01*
X153205001Y-115421389D01*
X153342004Y-115370289D01*
X153440292Y-115296710D01*
X153489016Y-115274460D01*
X153542584Y-115274460D01*
X153591307Y-115296710D01*
X153689596Y-115370289D01*
X153826599Y-115421389D01*
X153887162Y-115427900D01*
X155299716Y-115427900D01*
X155355989Y-115441164D01*
X155400414Y-115478164D01*
X155423638Y-115531109D01*
X155420771Y-115588853D01*
X155392417Y-115639238D01*
X155270078Y-115772131D01*
X155146939Y-115960609D01*
X155056502Y-116166788D01*
X155001237Y-116385027D01*
X155001236Y-116385032D01*
X154982644Y-116609400D01*
X155001236Y-116833768D01*
X155001236Y-116833771D01*
X155001237Y-116833772D01*
X155056502Y-117052011D01*
X155146939Y-117258190D01*
X155146940Y-117258191D01*
X155270078Y-117446668D01*
X155373922Y-117559472D01*
X155422562Y-117612308D01*
X155598696Y-117749400D01*
X155600224Y-117750589D01*
X155798226Y-117857742D01*
X156011165Y-117930844D01*
X156233231Y-117967900D01*
X156458366Y-117967900D01*
X156458369Y-117967900D01*
X156680435Y-117930844D01*
X156893374Y-117857742D01*
X157091376Y-117750589D01*
X157269040Y-117612306D01*
X157421522Y-117446668D01*
X157544660Y-117258191D01*
X157635096Y-117052016D01*
X157690364Y-116833768D01*
X157708956Y-116609400D01*
X157690364Y-116385032D01*
X157635096Y-116166784D01*
X157544660Y-115960609D01*
X157421522Y-115772132D01*
X157269040Y-115606494D01*
X157269039Y-115606493D01*
X157269037Y-115606491D01*
X157091378Y-115468212D01*
X156893373Y-115361057D01*
X156749227Y-115311572D01*
X156680435Y-115287956D01*
X156458369Y-115250900D01*
X156236350Y-115250900D01*
X156177948Y-115236548D01*
X156132851Y-115196761D01*
X156111332Y-115140603D01*
X156118294Y-115080868D01*
X156137789Y-115028601D01*
X156144300Y-114968038D01*
X156144300Y-113170762D01*
X156137789Y-113110199D01*
X156086689Y-112973196D01*
X156055800Y-112931933D01*
X155999061Y-112856138D01*
X155882005Y-112768511D01*
X155813502Y-112742960D01*
X155745001Y-112717411D01*
X155684438Y-112710900D01*
X153887162Y-112710900D01*
X153826599Y-112717411D01*
X153689594Y-112768511D01*
X153591309Y-112842087D01*
X153542583Y-112864339D01*
X153489017Y-112864339D01*
X153440291Y-112842087D01*
X153342005Y-112768511D01*
X153273502Y-112742960D01*
X153205001Y-112717411D01*
X153144438Y-112710900D01*
X151347162Y-112710900D01*
X151286599Y-112717411D01*
X151149594Y-112768511D01*
X151032538Y-112856138D01*
X150944911Y-112973194D01*
X150893811Y-113110199D01*
X150887300Y-113170762D01*
X150887300Y-114968038D01*
X150893811Y-115028600D01*
X150916677Y-115089907D01*
X150924181Y-115144463D01*
X150907701Y-115197008D01*
X150870384Y-115237506D01*
X150819361Y-115258220D01*
X150641165Y-115287956D01*
X150641162Y-115287956D01*
X150641162Y-115287957D01*
X150428226Y-115361057D01*
X150230221Y-115468212D01*
X150052562Y-115606491D01*
X149900078Y-115772131D01*
X149776939Y-115960609D01*
X149686502Y-116166788D01*
X149631237Y-116385027D01*
X149631236Y-116385032D01*
X149612644Y-116609400D01*
X132974531Y-116609400D01*
X137394532Y-112189399D01*
X163067558Y-112189399D01*
X163086496Y-112430034D01*
X163142845Y-112664744D01*
X163225520Y-112864339D01*
X163235216Y-112887747D01*
X163361336Y-113093556D01*
X163518099Y-113277101D01*
X163701644Y-113433864D01*
X163907453Y-113559984D01*
X164130457Y-113652355D01*
X164365166Y-113708704D01*
X164605800Y-113727642D01*
X164846434Y-113708704D01*
X165081143Y-113652355D01*
X165304147Y-113559984D01*
X165509956Y-113433864D01*
X165693501Y-113277101D01*
X165850264Y-113093556D01*
X165976384Y-112887747D01*
X166068755Y-112664743D01*
X166125104Y-112430034D01*
X166144042Y-112189400D01*
X166144042Y-112189399D01*
X201592243Y-112189399D01*
X201611315Y-112528996D01*
X201612450Y-112549204D01*
X201672815Y-112904483D01*
X201687220Y-112954483D01*
X201772578Y-113250772D01*
X201793289Y-113300772D01*
X201910486Y-113583710D01*
X202084804Y-113899115D01*
X202293341Y-114193019D01*
X202533473Y-114461727D01*
X202802181Y-114701859D01*
X203096085Y-114910396D01*
X203411490Y-115084714D01*
X203679417Y-115195693D01*
X203744427Y-115222621D01*
X203744428Y-115222621D01*
X203744430Y-115222622D01*
X204090717Y-115322385D01*
X204445996Y-115382750D01*
X204805800Y-115402956D01*
X205165604Y-115382750D01*
X205520883Y-115322385D01*
X205867170Y-115222622D01*
X206200110Y-115084714D01*
X206515515Y-114910396D01*
X206809419Y-114701859D01*
X207078127Y-114461727D01*
X207318259Y-114193019D01*
X207526796Y-113899115D01*
X207701114Y-113583710D01*
X207839022Y-113250770D01*
X207938785Y-112904483D01*
X207999150Y-112549204D01*
X208019356Y-112189400D01*
X207999150Y-111829596D01*
X207938785Y-111474317D01*
X207839022Y-111128030D01*
X207828115Y-111101699D01*
X207812092Y-111063017D01*
X207701114Y-110795090D01*
X207526796Y-110479685D01*
X207318259Y-110185781D01*
X207078127Y-109917073D01*
X206809419Y-109676941D01*
X206515515Y-109468404D01*
X206200110Y-109294086D01*
X206089130Y-109248116D01*
X205867172Y-109156178D01*
X205636311Y-109089669D01*
X205520883Y-109056415D01*
X205165604Y-108996050D01*
X205145396Y-108994915D01*
X204805799Y-108975843D01*
X204445996Y-108996050D01*
X204090717Y-109056415D01*
X203744427Y-109156178D01*
X203411490Y-109294086D01*
X203096088Y-109468402D01*
X202802179Y-109676942D01*
X202533473Y-109917073D01*
X202293342Y-110185779D01*
X202084802Y-110479688D01*
X201910486Y-110795090D01*
X201772578Y-111128027D01*
X201672815Y-111474317D01*
X201612450Y-111829596D01*
X201592243Y-112189399D01*
X166144042Y-112189399D01*
X166125104Y-111948766D01*
X166068755Y-111714057D01*
X165976384Y-111491053D01*
X165850264Y-111285244D01*
X165693501Y-111101699D01*
X165509956Y-110944936D01*
X165304147Y-110818816D01*
X165278110Y-110808031D01*
X165081144Y-110726445D01*
X164846434Y-110670096D01*
X164605800Y-110651158D01*
X164365165Y-110670096D01*
X164130455Y-110726445D01*
X163907454Y-110818815D01*
X163804548Y-110881875D01*
X163701644Y-110944936D01*
X163518099Y-111101699D01*
X163361336Y-111285244D01*
X163298276Y-111388148D01*
X163235215Y-111491054D01*
X163142845Y-111714055D01*
X163086496Y-111948765D01*
X163067558Y-112189399D01*
X137394532Y-112189399D01*
X139934531Y-109649400D01*
X160427249Y-109649400D01*
X160429417Y-109676942D01*
X160447422Y-109905726D01*
X160507445Y-110155740D01*
X160605841Y-110393290D01*
X160740183Y-110612516D01*
X160907168Y-110808031D01*
X161102683Y-110975016D01*
X161321909Y-111109358D01*
X161321911Y-111109358D01*
X161321913Y-111109360D01*
X161559460Y-111207755D01*
X161809474Y-111267778D01*
X162065800Y-111287951D01*
X162322126Y-111267778D01*
X162572140Y-111207755D01*
X162809687Y-111109360D01*
X163028916Y-110975016D01*
X163224431Y-110808031D01*
X163391416Y-110612516D01*
X163525760Y-110393287D01*
X163624155Y-110155740D01*
X163684178Y-109905726D01*
X163704351Y-109649400D01*
X165507249Y-109649400D01*
X165509417Y-109676942D01*
X165527422Y-109905726D01*
X165587445Y-110155740D01*
X165685841Y-110393290D01*
X165820183Y-110612516D01*
X165987168Y-110808031D01*
X166182683Y-110975016D01*
X166401909Y-111109358D01*
X166401911Y-111109358D01*
X166401913Y-111109360D01*
X166639460Y-111207755D01*
X166889474Y-111267778D01*
X167145800Y-111287951D01*
X167402126Y-111267778D01*
X167652140Y-111207755D01*
X167889687Y-111109360D01*
X168108916Y-110975016D01*
X168304431Y-110808031D01*
X168471416Y-110612516D01*
X168605760Y-110393287D01*
X168704155Y-110155740D01*
X168764178Y-109905726D01*
X168784351Y-109649400D01*
X168764178Y-109393074D01*
X168704155Y-109143060D01*
X168605760Y-108905513D01*
X168605758Y-108905509D01*
X168471416Y-108686283D01*
X168304431Y-108490768D01*
X168108916Y-108323783D01*
X167889690Y-108189441D01*
X167652140Y-108091045D01*
X167402126Y-108031022D01*
X167145800Y-108010849D01*
X166889473Y-108031022D01*
X166639459Y-108091045D01*
X166401909Y-108189441D01*
X166182683Y-108323783D01*
X165987168Y-108490768D01*
X165820183Y-108686283D01*
X165685841Y-108905509D01*
X165587445Y-109143059D01*
X165572291Y-109206178D01*
X165527422Y-109393074D01*
X165507249Y-109649400D01*
X163704351Y-109649400D01*
X163684178Y-109393074D01*
X163624155Y-109143060D01*
X163525760Y-108905513D01*
X163525758Y-108905509D01*
X163391416Y-108686283D01*
X163224431Y-108490768D01*
X163028916Y-108323783D01*
X162809690Y-108189441D01*
X162572140Y-108091045D01*
X162322126Y-108031022D01*
X162065800Y-108010849D01*
X161809473Y-108031022D01*
X161559459Y-108091045D01*
X161321909Y-108189441D01*
X161102683Y-108323783D01*
X160907168Y-108490768D01*
X160740183Y-108686283D01*
X160605841Y-108905509D01*
X160507445Y-109143059D01*
X160492291Y-109206178D01*
X160447422Y-109393074D01*
X160427249Y-109649400D01*
X139934531Y-109649400D01*
X141535718Y-108048213D01*
X141552081Y-108035105D01*
X141554100Y-108032954D01*
X141554103Y-108032953D01*
X141600903Y-107983114D01*
X141603594Y-107980337D01*
X141623439Y-107960494D01*
X141625938Y-107957271D01*
X141633638Y-107948255D01*
X141664017Y-107915906D01*
X141673825Y-107898063D01*
X141684672Y-107881551D01*
X141697150Y-107865466D01*
X141714778Y-107824725D01*
X141719987Y-107814094D01*
X141741369Y-107775203D01*
X141746430Y-107755487D01*
X141752833Y-107736787D01*
X141760917Y-107718108D01*
X141767857Y-107674283D01*
X141770262Y-107662665D01*
X141781300Y-107619682D01*
X141781300Y-107599333D01*
X141782851Y-107579622D01*
X141786035Y-107559520D01*
X141781859Y-107515344D01*
X141781300Y-107503486D01*
X141781300Y-106754822D01*
X141790891Y-106706604D01*
X141818205Y-106665727D01*
X142969127Y-105514805D01*
X143010004Y-105487491D01*
X143058222Y-105477900D01*
X143111285Y-105477900D01*
X143111287Y-105477900D01*
X143298088Y-105438194D01*
X143472552Y-105360518D01*
X143627053Y-105248266D01*
X143754840Y-105106344D01*
X143850327Y-104940956D01*
X143909342Y-104759328D01*
X143929304Y-104569400D01*
X143909342Y-104379472D01*
X143850327Y-104197844D01*
X143850327Y-104197843D01*
X143754841Y-104032457D01*
X143627052Y-103890533D01*
X143501717Y-103799472D01*
X143472552Y-103778282D01*
X143298088Y-103700606D01*
X143111287Y-103660900D01*
X142920313Y-103660900D01*
X142795779Y-103687370D01*
X142733511Y-103700606D01*
X142559046Y-103778283D01*
X142404547Y-103890533D01*
X142276758Y-104032457D01*
X142181272Y-104197843D01*
X142122258Y-104379470D01*
X142105225Y-104541531D01*
X142093641Y-104582605D01*
X142069010Y-104617455D01*
X140755878Y-105930587D01*
X140739511Y-105943701D01*
X140690728Y-105995649D01*
X140687978Y-105998487D01*
X140668156Y-106018309D01*
X140665652Y-106021538D01*
X140657957Y-106030547D01*
X140627580Y-106062896D01*
X140617774Y-106080733D01*
X140606925Y-106097249D01*
X140594449Y-106113333D01*
X140576822Y-106154064D01*
X140571604Y-106164716D01*
X140550230Y-106203597D01*
X140545170Y-106223306D01*
X140538767Y-106242008D01*
X140530683Y-106260689D01*
X140523741Y-106304519D01*
X140521334Y-106316140D01*
X140510300Y-106359118D01*
X140510300Y-106379466D01*
X140508749Y-106399177D01*
X140505565Y-106419279D01*
X140509741Y-106463456D01*
X140510300Y-106475314D01*
X140510300Y-107223977D01*
X140500709Y-107272195D01*
X140473395Y-107313072D01*
X120065878Y-127720587D01*
X120049511Y-127733701D01*
X120000728Y-127785649D01*
X119997978Y-127788487D01*
X119978156Y-127808309D01*
X119975652Y-127811538D01*
X119967957Y-127820547D01*
X119937580Y-127852896D01*
X119927774Y-127870733D01*
X119916925Y-127887249D01*
X119904449Y-127903333D01*
X119886822Y-127944064D01*
X119881604Y-127954716D01*
X119860230Y-127993597D01*
X119855170Y-128013306D01*
X119848767Y-128032008D01*
X119840683Y-128050689D01*
X119833741Y-128094519D01*
X119831334Y-128106140D01*
X119820300Y-128149118D01*
X119820300Y-128169466D01*
X119818749Y-128189177D01*
X119815564Y-128209280D01*
X119815787Y-128211630D01*
X119809973Y-128263050D01*
X119783982Y-128307797D01*
X119716760Y-128382454D01*
X119621272Y-128547843D01*
X119562258Y-128729470D01*
X119542296Y-128919400D01*
X115746534Y-128919400D01*
X115746413Y-112239400D01*
X123612243Y-112239400D01*
X123629642Y-112549203D01*
X123632450Y-112599204D01*
X123684319Y-112904482D01*
X123692815Y-112954482D01*
X123792578Y-113300772D01*
X123847706Y-113433862D01*
X123930486Y-113633710D01*
X124104804Y-113949115D01*
X124313341Y-114243019D01*
X124553473Y-114511727D01*
X124822181Y-114751859D01*
X125116085Y-114960396D01*
X125431490Y-115134714D01*
X125679652Y-115237506D01*
X125764427Y-115272621D01*
X125764428Y-115272621D01*
X125764430Y-115272622D01*
X126110717Y-115372385D01*
X126465996Y-115432750D01*
X126806667Y-115451881D01*
X126825799Y-115452956D01*
X126825799Y-115452955D01*
X126825800Y-115452956D01*
X127185604Y-115432750D01*
X127540883Y-115372385D01*
X127887170Y-115272622D01*
X128220110Y-115134714D01*
X128535515Y-114960396D01*
X128829419Y-114751859D01*
X129098127Y-114511727D01*
X129338259Y-114243019D01*
X129546796Y-113949115D01*
X129721114Y-113633710D01*
X129859022Y-113300770D01*
X129958785Y-112954483D01*
X130019150Y-112599204D01*
X130039356Y-112239400D01*
X130019150Y-111879596D01*
X129958785Y-111524317D01*
X129859022Y-111178030D01*
X129721114Y-110845090D01*
X129546796Y-110529685D01*
X129338259Y-110235781D01*
X129098127Y-109967073D01*
X128829419Y-109726941D01*
X128535515Y-109518404D01*
X128220110Y-109344086D01*
X128099399Y-109294086D01*
X127887172Y-109206178D01*
X127656311Y-109139669D01*
X127540883Y-109106415D01*
X127185604Y-109046050D01*
X127166471Y-109044975D01*
X126825800Y-109025843D01*
X126465996Y-109046050D01*
X126110717Y-109106415D01*
X125764427Y-109206178D01*
X125431490Y-109344086D01*
X125116088Y-109518402D01*
X124822179Y-109726942D01*
X124553473Y-109967073D01*
X124313342Y-110235779D01*
X124104802Y-110529688D01*
X123930486Y-110845090D01*
X123792578Y-111178027D01*
X123692815Y-111524317D01*
X123632450Y-111879596D01*
X123612243Y-112239400D01*
X115746413Y-112239400D01*
X115746348Y-103370725D01*
X143912296Y-103370725D01*
X143932258Y-103560654D01*
X143991272Y-103742281D01*
X144086758Y-103907667D01*
X144086760Y-103907669D01*
X144214547Y-104049591D01*
X144369048Y-104161843D01*
X144543512Y-104239519D01*
X144730313Y-104279225D01*
X144921285Y-104279225D01*
X144921287Y-104279225D01*
X145108088Y-104239519D01*
X145282552Y-104161843D01*
X145437053Y-104049591D01*
X145491249Y-103989400D01*
X152612296Y-103989400D01*
X152632258Y-104179329D01*
X152691272Y-104360956D01*
X152786758Y-104526342D01*
X152868797Y-104617455D01*
X152914547Y-104668266D01*
X153069048Y-104780518D01*
X153243512Y-104858194D01*
X153430313Y-104897900D01*
X153621285Y-104897900D01*
X153621287Y-104897900D01*
X153808088Y-104858194D01*
X153982552Y-104780518D01*
X154137053Y-104668266D01*
X154264840Y-104526344D01*
X154360327Y-104360956D01*
X154419342Y-104179328D01*
X154439304Y-103989400D01*
X154419342Y-103799472D01*
X154360327Y-103617844D01*
X154360327Y-103617843D01*
X154264841Y-103452457D01*
X154137052Y-103310533D01*
X153982553Y-103198283D01*
X153982552Y-103198282D01*
X153808088Y-103120606D01*
X153621287Y-103080900D01*
X153430313Y-103080900D01*
X153305779Y-103107370D01*
X153243511Y-103120606D01*
X153069046Y-103198283D01*
X152914547Y-103310533D01*
X152786758Y-103452457D01*
X152691272Y-103617843D01*
X152632258Y-103799470D01*
X152612296Y-103989400D01*
X145491249Y-103989400D01*
X145564840Y-103907669D01*
X145660327Y-103742281D01*
X145719342Y-103560653D01*
X145739304Y-103370725D01*
X145719342Y-103180797D01*
X145660327Y-102999169D01*
X145660327Y-102999168D01*
X145564841Y-102833782D01*
X145437052Y-102691858D01*
X145282553Y-102579608D01*
X145282552Y-102579607D01*
X145108088Y-102501931D01*
X144921287Y-102462225D01*
X144730313Y-102462225D01*
X144605779Y-102488695D01*
X144543511Y-102501931D01*
X144369046Y-102579608D01*
X144214547Y-102691858D01*
X144086758Y-102833782D01*
X143991272Y-102999168D01*
X143932258Y-103180795D01*
X143912296Y-103370725D01*
X115746348Y-103370725D01*
X115746325Y-100149400D01*
X146302296Y-100149400D01*
X146322258Y-100339329D01*
X146381272Y-100520956D01*
X146476758Y-100686342D01*
X146476760Y-100686344D01*
X146604547Y-100828266D01*
X146759048Y-100940518D01*
X146933512Y-101018194D01*
X147120313Y-101057900D01*
X147311285Y-101057900D01*
X147311287Y-101057900D01*
X147498088Y-101018194D01*
X147562734Y-100989411D01*
X147627152Y-100979208D01*
X147688042Y-101002581D01*
X147729088Y-101053269D01*
X147739292Y-101117688D01*
X147722296Y-101279399D01*
X147742258Y-101469329D01*
X147801272Y-101650956D01*
X147896758Y-101816342D01*
X147896760Y-101816344D01*
X148024547Y-101958266D01*
X148179048Y-102070518D01*
X148353512Y-102148194D01*
X148540313Y-102187900D01*
X148731285Y-102187900D01*
X148731287Y-102187900D01*
X148918088Y-102148194D01*
X149092552Y-102070518D01*
X149247053Y-101958266D01*
X149374840Y-101816344D01*
X149470327Y-101650956D01*
X149529342Y-101469328D01*
X149541947Y-101349400D01*
X155322296Y-101349400D01*
X155342258Y-101539329D01*
X155401272Y-101720956D01*
X155496758Y-101886342D01*
X155496760Y-101886344D01*
X155624547Y-102028266D01*
X155779048Y-102140518D01*
X155953512Y-102218194D01*
X156140313Y-102257900D01*
X156331285Y-102257900D01*
X156331287Y-102257900D01*
X156518088Y-102218194D01*
X156692552Y-102140518D01*
X156847053Y-102028266D01*
X156974840Y-101886344D01*
X157070327Y-101720956D01*
X157129342Y-101539328D01*
X157149304Y-101349400D01*
X157129342Y-101159472D01*
X157074086Y-100989412D01*
X157070327Y-100977843D01*
X156974841Y-100812457D01*
X156861288Y-100686344D01*
X156847053Y-100670534D01*
X156836617Y-100662952D01*
X156692553Y-100558283D01*
X156692552Y-100558282D01*
X156518088Y-100480606D01*
X156331287Y-100440900D01*
X156140313Y-100440900D01*
X156015779Y-100467370D01*
X155953511Y-100480606D01*
X155779046Y-100558283D01*
X155624547Y-100670533D01*
X155496758Y-100812457D01*
X155401272Y-100977843D01*
X155342258Y-101159470D01*
X155322296Y-101349400D01*
X149541947Y-101349400D01*
X149549304Y-101279400D01*
X149529342Y-101089472D01*
X149470327Y-100907844D01*
X149470327Y-100907843D01*
X149374841Y-100742457D01*
X149247052Y-100600533D01*
X149092553Y-100488283D01*
X149092552Y-100488282D01*
X148918088Y-100410606D01*
X148731287Y-100370900D01*
X148540313Y-100370900D01*
X148353512Y-100410606D01*
X148353510Y-100410606D01*
X148353509Y-100410607D01*
X148288865Y-100439388D01*
X148224446Y-100449591D01*
X148163556Y-100426217D01*
X148122510Y-100375529D01*
X148112307Y-100311113D01*
X148129304Y-100149400D01*
X148109342Y-99959472D01*
X148050327Y-99777844D01*
X148050327Y-99777843D01*
X147954841Y-99612457D01*
X147827052Y-99470533D01*
X147672553Y-99358283D01*
X147672552Y-99358282D01*
X147498088Y-99280606D01*
X147311287Y-99240900D01*
X147120313Y-99240900D01*
X146995779Y-99267370D01*
X146933511Y-99280606D01*
X146759046Y-99358283D01*
X146604547Y-99470533D01*
X146476758Y-99612457D01*
X146381272Y-99777843D01*
X146322258Y-99959470D01*
X146302296Y-100149400D01*
X115746325Y-100149400D01*
X115746309Y-97979399D01*
X132662296Y-97979399D01*
X132682258Y-98169329D01*
X132741272Y-98350956D01*
X132836758Y-98516342D01*
X132836760Y-98516344D01*
X132964547Y-98658266D01*
X133119048Y-98770518D01*
X133293512Y-98848194D01*
X133480313Y-98887900D01*
X133671285Y-98887900D01*
X133671287Y-98887900D01*
X133858088Y-98848194D01*
X134032552Y-98770518D01*
X134187053Y-98658266D01*
X134314840Y-98516344D01*
X134410327Y-98350956D01*
X134469342Y-98169328D01*
X134485100Y-98019399D01*
X135882296Y-98019399D01*
X135902258Y-98209329D01*
X135961272Y-98390956D01*
X136056758Y-98556342D01*
X136056760Y-98556344D01*
X136184547Y-98698266D01*
X136339048Y-98810518D01*
X136513512Y-98888194D01*
X136700313Y-98927900D01*
X136891285Y-98927900D01*
X136891287Y-98927900D01*
X137078088Y-98888194D01*
X137252552Y-98810518D01*
X137407053Y-98698266D01*
X137534840Y-98556344D01*
X137630327Y-98390956D01*
X137689342Y-98209328D01*
X137699845Y-98109399D01*
X156842296Y-98109399D01*
X156862258Y-98299329D01*
X156921272Y-98480956D01*
X157016758Y-98646342D01*
X157063511Y-98698266D01*
X157144547Y-98788266D01*
X157299048Y-98900518D01*
X157473512Y-98978194D01*
X157660313Y-99017900D01*
X157851285Y-99017900D01*
X157851287Y-99017900D01*
X158038088Y-98978194D01*
X158212552Y-98900518D01*
X158367053Y-98788266D01*
X158494840Y-98646344D01*
X158590327Y-98480956D01*
X158649342Y-98299328D01*
X158669304Y-98109400D01*
X158649342Y-97919472D01*
X158607102Y-97789472D01*
X158590327Y-97737843D01*
X158494841Y-97572457D01*
X158413804Y-97482456D01*
X158367053Y-97430534D01*
X158212552Y-97318282D01*
X158038088Y-97240606D01*
X157851287Y-97200900D01*
X157660313Y-97200900D01*
X157535778Y-97227370D01*
X157473511Y-97240606D01*
X157299046Y-97318283D01*
X157144547Y-97430533D01*
X157016758Y-97572457D01*
X156921272Y-97737843D01*
X156862258Y-97919470D01*
X156842296Y-98109399D01*
X137699845Y-98109399D01*
X137709304Y-98019400D01*
X137689342Y-97829472D01*
X137653090Y-97717900D01*
X137630327Y-97647843D01*
X137534841Y-97482457D01*
X137412284Y-97346344D01*
X137407053Y-97340534D01*
X137252552Y-97228282D01*
X137078088Y-97150606D01*
X136891287Y-97110900D01*
X136700313Y-97110900D01*
X136575778Y-97137370D01*
X136513511Y-97150606D01*
X136339046Y-97228283D01*
X136184547Y-97340533D01*
X136056758Y-97482457D01*
X135961272Y-97647843D01*
X135902258Y-97829470D01*
X135882296Y-98019399D01*
X134485100Y-98019399D01*
X134489304Y-97979400D01*
X134469342Y-97789472D01*
X134410327Y-97607844D01*
X134410327Y-97607843D01*
X134314841Y-97442457D01*
X134187052Y-97300533D01*
X134109802Y-97244407D01*
X134032552Y-97188282D01*
X133858088Y-97110606D01*
X133671287Y-97070900D01*
X133480313Y-97070900D01*
X133355778Y-97097370D01*
X133293511Y-97110606D01*
X133119046Y-97188283D01*
X132964547Y-97300533D01*
X132836758Y-97442457D01*
X132741272Y-97607843D01*
X132682258Y-97789470D01*
X132662296Y-97979399D01*
X115746309Y-97979399D01*
X115746301Y-96845484D01*
X115761002Y-96786420D01*
X115801677Y-96741138D01*
X115858832Y-96720207D01*
X115919130Y-96728510D01*
X116076947Y-96791691D01*
X116285569Y-96831900D01*
X117652790Y-96831900D01*
X117652795Y-96831900D01*
X117740851Y-96823491D01*
X117811300Y-96816764D01*
X118015155Y-96756907D01*
X118203999Y-96659551D01*
X118371005Y-96528216D01*
X118510138Y-96367648D01*
X118616368Y-96183651D01*
X118685858Y-95982875D01*
X118710694Y-95810134D01*
X177910573Y-95810134D01*
X177930535Y-96000063D01*
X177989549Y-96181690D01*
X178037983Y-96265579D01*
X178054864Y-96328578D01*
X178037984Y-96391578D01*
X178011272Y-96437845D01*
X177952258Y-96619470D01*
X177932296Y-96809399D01*
X177952258Y-96999329D01*
X178011272Y-97180956D01*
X178106758Y-97346342D01*
X178193300Y-97442457D01*
X178234547Y-97488266D01*
X178389048Y-97600518D01*
X178563512Y-97678194D01*
X178750313Y-97717900D01*
X178941285Y-97717900D01*
X178941287Y-97717900D01*
X179128088Y-97678194D01*
X179302552Y-97600518D01*
X179457053Y-97488266D01*
X179584840Y-97346344D01*
X179680327Y-97180956D01*
X179739342Y-96999328D01*
X179759304Y-96809400D01*
X179759304Y-96809399D01*
X181432296Y-96809399D01*
X181452258Y-96999329D01*
X181511272Y-97180956D01*
X181606758Y-97346342D01*
X181693300Y-97442457D01*
X181734547Y-97488266D01*
X181889048Y-97600518D01*
X182063512Y-97678194D01*
X182250313Y-97717900D01*
X182441285Y-97717900D01*
X182441287Y-97717900D01*
X182628088Y-97678194D01*
X182802552Y-97600518D01*
X182957053Y-97488266D01*
X183084840Y-97346344D01*
X183180327Y-97180956D01*
X183239342Y-96999328D01*
X183259304Y-96809400D01*
X183239342Y-96619472D01*
X183190212Y-96468266D01*
X183180327Y-96437843D01*
X183084841Y-96272457D01*
X182957052Y-96130533D01*
X182802553Y-96018283D01*
X182802552Y-96018282D01*
X182628088Y-95940606D01*
X182441287Y-95900900D01*
X182250313Y-95900900D01*
X182125778Y-95927370D01*
X182063511Y-95940606D01*
X181889046Y-96018283D01*
X181734547Y-96130533D01*
X181606758Y-96272457D01*
X181511272Y-96437843D01*
X181452258Y-96619470D01*
X181432296Y-96809399D01*
X179759304Y-96809399D01*
X179739342Y-96619472D01*
X179680327Y-96437844D01*
X179631892Y-96353953D01*
X179615012Y-96290954D01*
X179631892Y-96227955D01*
X179658604Y-96181690D01*
X179717619Y-96000062D01*
X179737581Y-95810134D01*
X179735402Y-95789400D01*
X183432296Y-95789400D01*
X183452258Y-95979329D01*
X183511272Y-96160956D01*
X183606758Y-96326342D01*
X183608772Y-96328579D01*
X183734547Y-96468266D01*
X183889048Y-96580518D01*
X184063512Y-96658194D01*
X184250313Y-96697900D01*
X184441285Y-96697900D01*
X184441287Y-96697900D01*
X184628088Y-96658194D01*
X184802552Y-96580518D01*
X184957053Y-96468266D01*
X185084840Y-96326344D01*
X185180327Y-96160956D01*
X185239342Y-95979328D01*
X185259304Y-95789400D01*
X185243329Y-95637413D01*
X185250541Y-95580329D01*
X185282386Y-95532399D01*
X185332221Y-95503627D01*
X185389652Y-95500014D01*
X185442699Y-95522312D01*
X185509048Y-95570518D01*
X185683512Y-95648194D01*
X185870313Y-95687900D01*
X186061285Y-95687900D01*
X186061287Y-95687900D01*
X186248088Y-95648194D01*
X186422552Y-95570518D01*
X186577053Y-95458266D01*
X186704840Y-95316344D01*
X186800327Y-95150956D01*
X186859342Y-94969328D01*
X186879304Y-94779400D01*
X186859342Y-94589472D01*
X186815704Y-94455169D01*
X186800327Y-94407843D01*
X186704841Y-94242457D01*
X186577052Y-94100533D01*
X186450242Y-94008400D01*
X186422552Y-93988282D01*
X186248088Y-93910606D01*
X186061287Y-93870900D01*
X185870313Y-93870900D01*
X185775666Y-93891018D01*
X185683511Y-93910606D01*
X185509046Y-93988283D01*
X185354547Y-94100533D01*
X185226758Y-94242457D01*
X185131272Y-94407843D01*
X185072258Y-94589470D01*
X185070426Y-94606900D01*
X185052296Y-94779400D01*
X185068269Y-94931381D01*
X185061058Y-94988470D01*
X185029213Y-95036400D01*
X184979378Y-95065172D01*
X184921947Y-95068786D01*
X184868899Y-95046486D01*
X184816770Y-95008612D01*
X184802552Y-94998282D01*
X184628088Y-94920606D01*
X184441287Y-94880900D01*
X184250313Y-94880900D01*
X184125779Y-94907370D01*
X184063511Y-94920606D01*
X183889046Y-94998283D01*
X183734547Y-95110533D01*
X183606758Y-95252457D01*
X183511272Y-95417843D01*
X183452258Y-95599470D01*
X183432296Y-95789400D01*
X179735402Y-95789400D01*
X179717619Y-95620206D01*
X179658604Y-95438578D01*
X179646633Y-95417844D01*
X179637810Y-95402562D01*
X179620928Y-95339561D01*
X179637808Y-95276561D01*
X179710327Y-95150956D01*
X179769342Y-94969328D01*
X179789304Y-94779400D01*
X179769342Y-94589472D01*
X179725704Y-94455169D01*
X179710327Y-94407843D01*
X179614841Y-94242457D01*
X179487052Y-94100533D01*
X179360242Y-94008400D01*
X179332552Y-93988282D01*
X179158088Y-93910606D01*
X178971287Y-93870900D01*
X178780313Y-93870900D01*
X178685666Y-93891018D01*
X178593511Y-93910606D01*
X178419046Y-93988283D01*
X178264547Y-94100533D01*
X178136758Y-94242457D01*
X178041272Y-94407843D01*
X177982258Y-94589470D01*
X177962296Y-94779400D01*
X177982258Y-94969329D01*
X178041272Y-95150956D01*
X178062067Y-95186973D01*
X178078948Y-95249973D01*
X178062067Y-95312973D01*
X177989549Y-95438577D01*
X177930535Y-95620204D01*
X177910573Y-95810134D01*
X118710694Y-95810134D01*
X118716094Y-95772576D01*
X118705985Y-95560355D01*
X118681619Y-95459918D01*
X118655895Y-95353881D01*
X118610026Y-95253444D01*
X118567635Y-95160620D01*
X118444395Y-94987554D01*
X118444393Y-94987551D01*
X118290632Y-94840940D01*
X118111892Y-94726070D01*
X117914656Y-94647109D01*
X117706031Y-94606900D01*
X117395600Y-94606900D01*
X117334651Y-94591178D01*
X117288913Y-94547936D01*
X117269798Y-94487965D01*
X117282078Y-94426230D01*
X117295685Y-94397976D01*
X117313681Y-94360606D01*
X117346300Y-94217694D01*
X117346300Y-94071106D01*
X117313681Y-93928194D01*
X117250079Y-93796123D01*
X117228768Y-93769400D01*
X120792296Y-93769400D01*
X120812258Y-93959329D01*
X120871272Y-94140956D01*
X120966758Y-94306342D01*
X120966760Y-94306344D01*
X121094547Y-94448266D01*
X121249048Y-94560518D01*
X121423512Y-94638194D01*
X121610313Y-94677900D01*
X121801285Y-94677900D01*
X121801287Y-94677900D01*
X121988088Y-94638194D01*
X122162552Y-94560518D01*
X122317053Y-94448266D01*
X122444840Y-94306344D01*
X122540327Y-94140956D01*
X122599342Y-93959328D01*
X122619304Y-93769400D01*
X122599342Y-93579472D01*
X122565746Y-93476075D01*
X122540327Y-93397843D01*
X122444841Y-93232457D01*
X122325486Y-93099900D01*
X208412296Y-93099900D01*
X208432258Y-93289829D01*
X208491272Y-93471456D01*
X208586758Y-93636842D01*
X208586760Y-93636844D01*
X208714547Y-93778766D01*
X208869048Y-93891018D01*
X209043512Y-93968694D01*
X209230313Y-94008400D01*
X209421285Y-94008400D01*
X209421287Y-94008400D01*
X209608088Y-93968694D01*
X209782552Y-93891018D01*
X209937053Y-93778766D01*
X210064840Y-93636844D01*
X210160327Y-93471456D01*
X210219342Y-93289828D01*
X210239304Y-93099900D01*
X210219342Y-92909972D01*
X210184270Y-92802033D01*
X210160327Y-92728343D01*
X210064841Y-92562957D01*
X209937052Y-92421033D01*
X209859802Y-92364907D01*
X209782552Y-92308782D01*
X209608088Y-92231106D01*
X209421287Y-92191400D01*
X209230313Y-92191400D01*
X209105778Y-92217870D01*
X209043511Y-92231106D01*
X208869046Y-92308783D01*
X208714547Y-92421033D01*
X208586758Y-92562957D01*
X208491272Y-92728343D01*
X208432258Y-92909970D01*
X208412296Y-93099900D01*
X122325486Y-93099900D01*
X122317052Y-93090533D01*
X122162553Y-92978283D01*
X122162552Y-92978282D01*
X121988088Y-92900606D01*
X121801287Y-92860900D01*
X121610313Y-92860900D01*
X121485778Y-92887370D01*
X121423511Y-92900606D01*
X121283496Y-92962944D01*
X121278611Y-92965120D01*
X121249046Y-92978283D01*
X121094547Y-93090533D01*
X120966758Y-93232457D01*
X120871272Y-93397843D01*
X120812258Y-93579470D01*
X120792296Y-93769400D01*
X117228768Y-93769400D01*
X117158683Y-93681517D01*
X117044077Y-93590121D01*
X116987189Y-93562725D01*
X116912005Y-93526518D01*
X116801712Y-93501344D01*
X116769094Y-93493900D01*
X116769093Y-93493900D01*
X116077325Y-93493900D01*
X116047768Y-93490384D01*
X115989744Y-93476382D01*
X115959034Y-93464550D01*
X115903850Y-93434494D01*
X115877250Y-93415112D01*
X115831728Y-93371786D01*
X115811055Y-93346175D01*
X115778307Y-93292538D01*
X115764973Y-93262451D01*
X115747231Y-93202164D01*
X115742142Y-93169652D01*
X115740734Y-93111599D01*
X115741357Y-93105418D01*
X115741357Y-93086313D01*
X115742074Y-93072889D01*
X115744465Y-93050575D01*
X115744464Y-93050574D01*
X115744902Y-93046493D01*
X115741357Y-93021865D01*
X115741357Y-91954400D01*
X123857280Y-91954400D01*
X123877242Y-92144329D01*
X123936256Y-92325956D01*
X124031742Y-92491342D01*
X124109480Y-92577679D01*
X124159531Y-92633266D01*
X124314032Y-92745518D01*
X124488496Y-92823194D01*
X124675297Y-92862900D01*
X124866269Y-92862900D01*
X124866271Y-92862900D01*
X125053072Y-92823194D01*
X125227536Y-92745518D01*
X125382037Y-92633266D01*
X125509824Y-92491344D01*
X125605311Y-92325956D01*
X125664326Y-92144328D01*
X125683237Y-91964399D01*
X206231468Y-91964399D01*
X206251430Y-92154329D01*
X206310444Y-92335956D01*
X206405930Y-92501342D01*
X206474664Y-92577679D01*
X206533719Y-92643266D01*
X206688220Y-92755518D01*
X206862684Y-92833194D01*
X207049485Y-92872900D01*
X207240457Y-92872900D01*
X207240459Y-92872900D01*
X207427260Y-92833194D01*
X207601724Y-92755518D01*
X207756225Y-92643266D01*
X207884012Y-92501344D01*
X207979499Y-92335956D01*
X208038514Y-92154328D01*
X208058476Y-91964400D01*
X208038514Y-91774472D01*
X208005769Y-91673693D01*
X207979500Y-91592845D01*
X207927281Y-91502401D01*
X207910400Y-91439400D01*
X207927281Y-91376399D01*
X207979500Y-91285954D01*
X208015078Y-91176455D01*
X208038514Y-91104328D01*
X208058476Y-90914400D01*
X208038514Y-90724472D01*
X207979499Y-90542844D01*
X207979499Y-90542843D01*
X207884013Y-90377457D01*
X207756224Y-90235533D01*
X207601725Y-90123283D01*
X207601724Y-90123282D01*
X207427260Y-90045606D01*
X207240459Y-90005900D01*
X207049485Y-90005900D01*
X206924950Y-90032370D01*
X206862683Y-90045606D01*
X206731915Y-90103828D01*
X206710681Y-90113282D01*
X206688218Y-90123283D01*
X206533719Y-90235533D01*
X206405930Y-90377457D01*
X206310444Y-90542843D01*
X206251430Y-90724470D01*
X206231468Y-90914400D01*
X206251430Y-91104329D01*
X206310444Y-91285956D01*
X206362662Y-91376399D01*
X206379543Y-91439398D01*
X206362663Y-91502398D01*
X206310444Y-91592845D01*
X206251430Y-91774470D01*
X206231468Y-91964399D01*
X125683237Y-91964399D01*
X125684288Y-91954400D01*
X125664326Y-91764472D01*
X125634830Y-91673692D01*
X125605312Y-91582845D01*
X125553093Y-91492401D01*
X125536212Y-91429400D01*
X125553093Y-91366399D01*
X125599537Y-91285956D01*
X125605311Y-91275956D01*
X125664326Y-91094328D01*
X125684288Y-90904400D01*
X125664326Y-90714472D01*
X125631995Y-90614969D01*
X125605311Y-90532843D01*
X125509825Y-90367457D01*
X125382036Y-90225533D01*
X125241301Y-90123283D01*
X125227536Y-90113282D01*
X125053072Y-90035606D01*
X124866271Y-89995900D01*
X124675297Y-89995900D01*
X124550763Y-90022370D01*
X124488495Y-90035606D01*
X124314030Y-90113283D01*
X124159531Y-90225533D01*
X124031742Y-90367457D01*
X123936256Y-90532843D01*
X123877242Y-90714470D01*
X123857280Y-90904400D01*
X123877242Y-91094329D01*
X123936256Y-91275956D01*
X123988474Y-91366400D01*
X124005355Y-91429400D01*
X123988474Y-91492400D01*
X123936256Y-91582843D01*
X123877242Y-91764470D01*
X123857280Y-91954400D01*
X115741357Y-91954400D01*
X115741357Y-91769564D01*
X115741358Y-91769085D01*
X115742443Y-91483765D01*
X115745024Y-90804898D01*
X121072296Y-90804898D01*
X121092258Y-90994828D01*
X121151272Y-91176455D01*
X121246758Y-91341841D01*
X121246760Y-91341843D01*
X121374547Y-91483765D01*
X121529048Y-91596017D01*
X121703512Y-91673693D01*
X121890313Y-91713399D01*
X122081285Y-91713399D01*
X122081287Y-91713399D01*
X122268088Y-91673693D01*
X122442552Y-91596017D01*
X122597053Y-91483765D01*
X122724840Y-91341843D01*
X122820327Y-91176455D01*
X122879342Y-90994827D01*
X122899304Y-90804899D01*
X122879342Y-90614971D01*
X122824951Y-90447573D01*
X122820327Y-90433342D01*
X122724841Y-90267956D01*
X122597052Y-90126032D01*
X122442553Y-90013782D01*
X122442552Y-90013781D01*
X122268088Y-89936105D01*
X122081287Y-89896399D01*
X121890313Y-89896399D01*
X121765779Y-89922869D01*
X121703511Y-89936105D01*
X121529046Y-90013782D01*
X121374547Y-90126032D01*
X121246758Y-90267956D01*
X121151272Y-90433342D01*
X121092258Y-90614969D01*
X121072296Y-90804898D01*
X115745024Y-90804898D01*
X115746120Y-90516539D01*
X115749797Y-90491354D01*
X115749406Y-90487706D01*
X115749407Y-90487704D01*
X115747081Y-90465990D01*
X115746366Y-90452109D01*
X115746384Y-90447573D01*
X115746383Y-90447569D01*
X115746431Y-90434968D01*
X115745666Y-90427201D01*
X115747089Y-90368632D01*
X115752177Y-90336131D01*
X115769922Y-90275842D01*
X115783255Y-90245762D01*
X115816009Y-90192125D01*
X115836673Y-90166529D01*
X115882198Y-90123206D01*
X115908794Y-90103829D01*
X115963979Y-90073778D01*
X115994686Y-90061949D01*
X116024451Y-90054769D01*
X116050803Y-90048413D01*
X116080349Y-90044900D01*
X116769093Y-90044900D01*
X116769094Y-90044900D01*
X116912006Y-90012281D01*
X117044077Y-89948679D01*
X117158683Y-89857283D01*
X117250079Y-89742677D01*
X117313681Y-89610606D01*
X117313956Y-89609400D01*
X208262296Y-89609400D01*
X208282258Y-89799329D01*
X208341272Y-89980956D01*
X208436758Y-90146342D01*
X208508062Y-90225533D01*
X208564547Y-90288266D01*
X208719048Y-90400518D01*
X208893512Y-90478194D01*
X209080313Y-90517900D01*
X209271285Y-90517900D01*
X209271287Y-90517900D01*
X209458088Y-90478194D01*
X209632552Y-90400518D01*
X209787053Y-90288266D01*
X209914840Y-90146344D01*
X210010327Y-89980956D01*
X210069342Y-89799328D01*
X210089304Y-89609400D01*
X210069342Y-89419472D01*
X210037381Y-89321106D01*
X210010327Y-89237843D01*
X209914841Y-89072457D01*
X209787052Y-88930533D01*
X209709802Y-88874408D01*
X209632552Y-88818282D01*
X209458088Y-88740606D01*
X209271287Y-88700900D01*
X209080313Y-88700900D01*
X208961875Y-88726075D01*
X208893511Y-88740606D01*
X208719046Y-88818283D01*
X208564547Y-88930533D01*
X208436758Y-89072457D01*
X208341272Y-89237843D01*
X208282258Y-89419470D01*
X208262296Y-89609400D01*
X117313956Y-89609400D01*
X117346300Y-89467694D01*
X117346300Y-89321106D01*
X117313681Y-89178194D01*
X117297647Y-89144900D01*
X117290245Y-89129529D01*
X117282077Y-89112569D01*
X117269798Y-89050835D01*
X117288913Y-88990864D01*
X117334651Y-88947622D01*
X117395600Y-88931900D01*
X117652795Y-88931900D01*
X117740851Y-88923491D01*
X117811300Y-88916764D01*
X118015155Y-88856907D01*
X118203999Y-88759551D01*
X118371005Y-88628216D01*
X118510138Y-88467648D01*
X118616368Y-88283651D01*
X118685858Y-88082875D01*
X118711405Y-87905188D01*
X118716094Y-87872577D01*
X118710406Y-87753177D01*
X118705985Y-87660355D01*
X118681619Y-87559918D01*
X118655895Y-87453881D01*
X118610026Y-87353444D01*
X118567635Y-87260620D01*
X118444395Y-87087554D01*
X118444393Y-87087551D01*
X118290632Y-86940940D01*
X118171124Y-86864136D01*
X118127251Y-86815873D01*
X118113388Y-86752141D01*
X118133248Y-86690015D01*
X118181507Y-86646146D01*
X118203999Y-86634551D01*
X118371005Y-86503216D01*
X118510138Y-86342648D01*
X118616368Y-86158651D01*
X118685858Y-85957875D01*
X118716094Y-85747576D01*
X118705985Y-85535355D01*
X118655895Y-85328881D01*
X118626475Y-85264461D01*
X118567635Y-85135620D01*
X118444395Y-84962554D01*
X118444393Y-84962551D01*
X118290632Y-84815940D01*
X118111892Y-84701070D01*
X117914656Y-84622109D01*
X117706031Y-84581900D01*
X117395600Y-84581900D01*
X117334651Y-84566178D01*
X117288913Y-84522936D01*
X117269798Y-84462965D01*
X117282078Y-84401230D01*
X117295685Y-84372976D01*
X117313681Y-84335606D01*
X117346300Y-84192694D01*
X117346300Y-84046106D01*
X117313681Y-83903194D01*
X117250079Y-83771123D01*
X117158683Y-83656517D01*
X117112140Y-83619400D01*
X121622296Y-83619400D01*
X121642258Y-83809329D01*
X121701272Y-83990956D01*
X121796758Y-84156342D01*
X121796760Y-84156344D01*
X121924547Y-84298266D01*
X122079048Y-84410518D01*
X122253512Y-84488194D01*
X122440313Y-84527900D01*
X122631285Y-84527900D01*
X122631287Y-84527900D01*
X122818088Y-84488194D01*
X122992552Y-84410518D01*
X123147053Y-84298266D01*
X123274840Y-84156344D01*
X123370327Y-83990956D01*
X123429342Y-83809328D01*
X123449304Y-83619400D01*
X123429342Y-83429472D01*
X123370327Y-83247844D01*
X123370327Y-83247843D01*
X123274841Y-83082457D01*
X123147052Y-82940533D01*
X122992553Y-82828283D01*
X122992552Y-82828282D01*
X122818088Y-82750606D01*
X122631287Y-82710900D01*
X122440313Y-82710900D01*
X122315779Y-82737370D01*
X122253511Y-82750606D01*
X122079046Y-82828283D01*
X121924547Y-82940533D01*
X121796758Y-83082457D01*
X121701272Y-83247843D01*
X121642258Y-83429470D01*
X121622296Y-83619400D01*
X117112140Y-83619400D01*
X117044077Y-83565121D01*
X116981499Y-83534985D01*
X116912005Y-83501518D01*
X116801712Y-83476344D01*
X116769094Y-83468900D01*
X116769093Y-83468900D01*
X116077325Y-83468900D01*
X116047768Y-83465384D01*
X115989744Y-83451382D01*
X115959034Y-83439550D01*
X115903850Y-83409494D01*
X115877250Y-83390112D01*
X115831728Y-83346786D01*
X115811055Y-83321175D01*
X115778307Y-83267538D01*
X115764973Y-83237451D01*
X115747231Y-83177164D01*
X115742142Y-83144652D01*
X115740734Y-83086599D01*
X115741357Y-83080418D01*
X115741357Y-83061313D01*
X115742074Y-83047889D01*
X115744465Y-83025575D01*
X115744464Y-83025574D01*
X115744902Y-83021493D01*
X115741357Y-82996865D01*
X115741357Y-81914400D01*
X123246369Y-81914400D01*
X123252071Y-81968654D01*
X123266331Y-82104329D01*
X123325345Y-82285956D01*
X123420831Y-82451342D01*
X123533838Y-82576849D01*
X123548620Y-82593266D01*
X123703121Y-82705518D01*
X123877585Y-82783194D01*
X124064386Y-82822900D01*
X124255358Y-82822900D01*
X124255360Y-82822900D01*
X124442161Y-82783194D01*
X124616625Y-82705518D01*
X124771126Y-82593266D01*
X124898913Y-82451344D01*
X124994400Y-82285956D01*
X125053415Y-82104328D01*
X125073377Y-81914400D01*
X125053415Y-81724472D01*
X125032903Y-81661344D01*
X124994401Y-81542845D01*
X124942182Y-81452401D01*
X124925301Y-81389400D01*
X124942182Y-81326399D01*
X124994400Y-81235956D01*
X124996923Y-81228193D01*
X125022161Y-81150516D01*
X125053415Y-81054328D01*
X125073377Y-80864400D01*
X125053415Y-80674472D01*
X124994400Y-80492844D01*
X124994400Y-80492843D01*
X124898914Y-80327457D01*
X124815598Y-80234925D01*
X124771126Y-80185534D01*
X124745799Y-80167133D01*
X124675305Y-80115916D01*
X124616625Y-80073282D01*
X124442161Y-79995606D01*
X124255360Y-79955900D01*
X124064386Y-79955900D01*
X123959422Y-79978211D01*
X123877584Y-79995606D01*
X123703119Y-80073283D01*
X123548620Y-80185533D01*
X123420831Y-80327457D01*
X123325345Y-80492843D01*
X123266331Y-80674470D01*
X123246369Y-80864400D01*
X123266331Y-81054329D01*
X123325345Y-81235956D01*
X123377563Y-81326400D01*
X123394444Y-81389400D01*
X123377563Y-81452400D01*
X123325345Y-81542843D01*
X123266331Y-81724470D01*
X123246369Y-81914399D01*
X123246369Y-81914400D01*
X115741357Y-81914400D01*
X115741357Y-81744564D01*
X115741358Y-81744085D01*
X115742307Y-81494470D01*
X115746120Y-80491539D01*
X115749797Y-80466354D01*
X115749406Y-80462706D01*
X115749407Y-80462704D01*
X115747081Y-80440990D01*
X115746366Y-80427109D01*
X115746384Y-80422573D01*
X115746383Y-80422569D01*
X115746431Y-80409968D01*
X115745666Y-80402201D01*
X115746706Y-80359400D01*
X120832296Y-80359400D01*
X120836794Y-80402196D01*
X120852258Y-80549329D01*
X120911272Y-80730956D01*
X121006758Y-80896342D01*
X121006760Y-80896344D01*
X121134547Y-81038266D01*
X121289048Y-81150518D01*
X121463512Y-81228194D01*
X121650313Y-81267900D01*
X121841285Y-81267900D01*
X121841287Y-81267900D01*
X122028088Y-81228194D01*
X122202552Y-81150518D01*
X122357053Y-81038266D01*
X122484840Y-80896344D01*
X122580327Y-80730956D01*
X122639342Y-80549328D01*
X122659304Y-80359400D01*
X122639342Y-80169472D01*
X122608088Y-80073282D01*
X122580327Y-79987843D01*
X122484841Y-79822457D01*
X122425105Y-79756113D01*
X139480156Y-79756113D01*
X139494971Y-80019900D01*
X139500363Y-80115917D01*
X139560728Y-80471196D01*
X139566965Y-80492844D01*
X139660491Y-80817485D01*
X139693155Y-80896342D01*
X139798399Y-81150423D01*
X139972717Y-81465828D01*
X140181254Y-81759732D01*
X140421386Y-82028440D01*
X140690094Y-82268572D01*
X140983998Y-82477109D01*
X141299403Y-82651427D01*
X141538843Y-82750606D01*
X141632340Y-82789334D01*
X141632341Y-82789334D01*
X141632343Y-82789335D01*
X141978630Y-82889098D01*
X142333909Y-82949463D01*
X142693713Y-82969669D01*
X143053517Y-82949463D01*
X143408796Y-82889098D01*
X143755083Y-82789335D01*
X144088023Y-82651427D01*
X144403428Y-82477109D01*
X144697332Y-82268572D01*
X144966040Y-82028440D01*
X145206172Y-81759732D01*
X145414709Y-81465828D01*
X145589027Y-81150423D01*
X145726935Y-80817483D01*
X145826698Y-80471196D01*
X145887063Y-80115917D01*
X145906523Y-79769400D01*
X149002243Y-79769400D01*
X149020667Y-80097456D01*
X149022450Y-80129204D01*
X149082815Y-80484483D01*
X149101497Y-80549329D01*
X149182578Y-80830772D01*
X149255142Y-81005956D01*
X149320486Y-81163710D01*
X149494804Y-81479115D01*
X149703341Y-81773019D01*
X149943473Y-82041727D01*
X150212181Y-82281859D01*
X150506085Y-82490396D01*
X150821490Y-82664714D01*
X151079691Y-82771664D01*
X151154427Y-82802621D01*
X151154428Y-82802621D01*
X151154430Y-82802622D01*
X151500717Y-82902385D01*
X151855996Y-82962750D01*
X152215800Y-82982956D01*
X152575604Y-82962750D01*
X152930883Y-82902385D01*
X153277170Y-82802622D01*
X153610110Y-82664714D01*
X153925515Y-82490396D01*
X154219419Y-82281859D01*
X154488127Y-82041727D01*
X154728259Y-81773019D01*
X154936796Y-81479115D01*
X155111114Y-81163710D01*
X155129468Y-81119400D01*
X187042644Y-81119400D01*
X187061236Y-81343768D01*
X187061236Y-81343771D01*
X187061237Y-81343772D01*
X187116502Y-81562011D01*
X187206939Y-81768190D01*
X187229856Y-81803267D01*
X187330078Y-81956668D01*
X187442325Y-82078600D01*
X187482562Y-82122308D01*
X187612404Y-82223369D01*
X187660224Y-82260589D01*
X187858226Y-82367742D01*
X188071165Y-82440844D01*
X188293231Y-82477900D01*
X188518366Y-82477900D01*
X188518369Y-82477900D01*
X188740435Y-82440844D01*
X188953374Y-82367742D01*
X189151376Y-82260589D01*
X189329040Y-82122306D01*
X189390046Y-82056035D01*
X189443516Y-82021638D01*
X189506977Y-82017727D01*
X189564269Y-82045303D01*
X189600800Y-82097342D01*
X189644909Y-82215603D01*
X189732538Y-82332661D01*
X189849594Y-82420288D01*
X189849595Y-82420288D01*
X189849596Y-82420289D01*
X189986599Y-82471389D01*
X190047162Y-82477900D01*
X191844438Y-82477900D01*
X191905001Y-82471389D01*
X192042004Y-82420289D01*
X192159061Y-82332661D01*
X192246689Y-82215604D01*
X192297789Y-82078601D01*
X192304300Y-82018038D01*
X192304300Y-81684400D01*
X205324338Y-81684400D01*
X205328550Y-81724472D01*
X205344300Y-81874329D01*
X205403314Y-82055956D01*
X205498800Y-82221342D01*
X205534138Y-82260589D01*
X205626589Y-82363266D01*
X205781090Y-82475518D01*
X205955554Y-82553194D01*
X206142355Y-82592900D01*
X206333327Y-82592900D01*
X206333329Y-82592900D01*
X206520130Y-82553194D01*
X206694594Y-82475518D01*
X206849095Y-82363266D01*
X206869854Y-82340211D01*
X208588680Y-82340211D01*
X208597096Y-82420288D01*
X208608642Y-82530140D01*
X208667656Y-82711767D01*
X208763142Y-82877153D01*
X208861365Y-82986241D01*
X208890931Y-83019077D01*
X209045432Y-83131329D01*
X209219896Y-83209005D01*
X209406697Y-83248711D01*
X209597669Y-83248711D01*
X209597671Y-83248711D01*
X209784472Y-83209005D01*
X209958936Y-83131329D01*
X210113437Y-83019077D01*
X210241224Y-82877155D01*
X210336711Y-82711767D01*
X210395726Y-82530139D01*
X210415688Y-82340211D01*
X210395726Y-82150283D01*
X210360453Y-82041726D01*
X210336711Y-81968654D01*
X210241225Y-81803268D01*
X210113436Y-81661344D01*
X209958937Y-81549094D01*
X209958936Y-81549093D01*
X209784472Y-81471417D01*
X209597671Y-81431711D01*
X209406697Y-81431711D01*
X209309359Y-81452401D01*
X209219895Y-81471417D01*
X209045430Y-81549094D01*
X208890931Y-81661344D01*
X208763142Y-81803268D01*
X208667656Y-81968654D01*
X208608642Y-82150281D01*
X208588680Y-82340210D01*
X208588680Y-82340211D01*
X206869854Y-82340211D01*
X206976882Y-82221344D01*
X207072369Y-82055956D01*
X207131384Y-81874328D01*
X207151346Y-81684400D01*
X207131384Y-81494472D01*
X207076774Y-81326400D01*
X207072369Y-81312843D01*
X207020151Y-81222399D01*
X207003270Y-81159398D01*
X207020152Y-81096398D01*
X207072368Y-81005958D01*
X207107984Y-80896344D01*
X207131384Y-80824328D01*
X207151346Y-80634400D01*
X207131384Y-80444472D01*
X207072369Y-80262844D01*
X207072369Y-80262843D01*
X206976883Y-80097457D01*
X206853131Y-79960016D01*
X206849095Y-79955534D01*
X206694594Y-79843282D01*
X206520130Y-79765606D01*
X206333329Y-79725900D01*
X206142355Y-79725900D01*
X206017820Y-79752370D01*
X205955553Y-79765606D01*
X205781088Y-79843283D01*
X205626589Y-79955533D01*
X205498800Y-80097457D01*
X205403314Y-80262843D01*
X205344300Y-80444470D01*
X205344299Y-80444472D01*
X205344300Y-80444472D01*
X205324338Y-80634400D01*
X205328550Y-80674472D01*
X205344300Y-80824329D01*
X205403314Y-81005956D01*
X205455532Y-81096399D01*
X205472413Y-81159398D01*
X205455533Y-81222398D01*
X205403314Y-81312845D01*
X205344300Y-81494470D01*
X205344299Y-81494472D01*
X205344300Y-81494472D01*
X205324338Y-81684400D01*
X192304300Y-81684400D01*
X192304300Y-80220762D01*
X192297789Y-80160199D01*
X192246689Y-80023196D01*
X192244222Y-80019900D01*
X192159061Y-79906138D01*
X192042005Y-79818511D01*
X191973502Y-79792960D01*
X191905001Y-79767411D01*
X191844438Y-79760900D01*
X190047162Y-79760900D01*
X189986599Y-79767411D01*
X189849594Y-79818511D01*
X189732538Y-79906138D01*
X189644909Y-80023196D01*
X189600800Y-80141457D01*
X189564269Y-80193496D01*
X189506978Y-80221072D01*
X189443516Y-80217162D01*
X189390045Y-80182762D01*
X189329040Y-80116494D01*
X189329039Y-80116493D01*
X189329037Y-80116491D01*
X189151378Y-79978212D01*
X188953373Y-79871057D01*
X188800310Y-79818511D01*
X188740435Y-79797956D01*
X188518369Y-79760900D01*
X188293231Y-79760900D01*
X188071165Y-79797956D01*
X188071162Y-79797956D01*
X188071162Y-79797957D01*
X187858226Y-79871057D01*
X187660221Y-79978212D01*
X187482562Y-80116491D01*
X187330078Y-80282131D01*
X187206939Y-80470609D01*
X187116502Y-80676788D01*
X187073215Y-80847728D01*
X187061236Y-80895032D01*
X187042644Y-81119400D01*
X155129468Y-81119400D01*
X155249022Y-80830770D01*
X155348785Y-80484483D01*
X155409150Y-80129204D01*
X155429356Y-79769400D01*
X155409150Y-79409596D01*
X155348785Y-79054317D01*
X155327202Y-78979400D01*
X208162296Y-78979400D01*
X208169467Y-79047624D01*
X208182258Y-79169329D01*
X208241272Y-79350956D01*
X208336758Y-79516342D01*
X208352123Y-79533406D01*
X208464547Y-79658266D01*
X208619048Y-79770518D01*
X208793512Y-79848194D01*
X208980313Y-79887900D01*
X209171285Y-79887900D01*
X209171287Y-79887900D01*
X209358088Y-79848194D01*
X209532552Y-79770518D01*
X209687053Y-79658266D01*
X209814840Y-79516344D01*
X209910327Y-79350956D01*
X209969342Y-79169328D01*
X209989304Y-78979400D01*
X209969342Y-78789472D01*
X209910327Y-78607844D01*
X209910327Y-78607843D01*
X209814841Y-78442457D01*
X209687052Y-78300533D01*
X209553930Y-78203814D01*
X209532552Y-78188282D01*
X209358088Y-78110606D01*
X209171287Y-78070900D01*
X208980313Y-78070900D01*
X208855778Y-78097370D01*
X208793511Y-78110606D01*
X208682755Y-78159918D01*
X208635566Y-78180928D01*
X208619046Y-78188283D01*
X208464547Y-78300533D01*
X208336758Y-78442457D01*
X208241272Y-78607843D01*
X208182258Y-78789470D01*
X208163719Y-78965864D01*
X208162296Y-78979400D01*
X155327202Y-78979400D01*
X155249022Y-78708030D01*
X155243518Y-78694743D01*
X155207523Y-78607843D01*
X155111114Y-78375090D01*
X154936796Y-78059685D01*
X154728259Y-77765781D01*
X154488127Y-77497073D01*
X154219419Y-77256941D01*
X153925515Y-77048404D01*
X153610110Y-76874086D01*
X153433841Y-76801073D01*
X153277172Y-76736178D01*
X152998604Y-76655925D01*
X152930883Y-76636415D01*
X152575604Y-76576050D01*
X152556471Y-76574975D01*
X152215800Y-76555843D01*
X151855996Y-76576050D01*
X151500717Y-76636415D01*
X151154427Y-76736178D01*
X150821490Y-76874086D01*
X150506088Y-77048402D01*
X150212179Y-77256942D01*
X149943473Y-77497073D01*
X149703342Y-77765779D01*
X149703341Y-77765781D01*
X149496091Y-78057872D01*
X149494802Y-78059688D01*
X149320486Y-78375090D01*
X149182578Y-78708027D01*
X149082815Y-79054317D01*
X149022450Y-79409596D01*
X149002243Y-79769400D01*
X145906523Y-79769400D01*
X145907269Y-79756113D01*
X145887063Y-79396309D01*
X145826698Y-79041030D01*
X145726935Y-78694743D01*
X145589027Y-78361803D01*
X145414709Y-78046398D01*
X145206172Y-77752494D01*
X144966040Y-77483786D01*
X144697332Y-77243654D01*
X144403428Y-77035117D01*
X144088023Y-76860799D01*
X143977043Y-76814829D01*
X143755085Y-76722891D01*
X143454916Y-76636415D01*
X143408796Y-76623128D01*
X143053517Y-76562763D01*
X143034384Y-76561688D01*
X142693713Y-76542556D01*
X142333909Y-76562763D01*
X141978630Y-76623128D01*
X141632340Y-76722891D01*
X141299403Y-76860799D01*
X140984001Y-77035115D01*
X140690092Y-77243655D01*
X140421386Y-77483786D01*
X140181255Y-77752492D01*
X139972715Y-78046401D01*
X139798399Y-78361803D01*
X139660491Y-78694740D01*
X139560728Y-79041030D01*
X139500363Y-79396309D01*
X139480156Y-79756113D01*
X122425105Y-79756113D01*
X122357052Y-79680533D01*
X122202553Y-79568283D01*
X122202552Y-79568282D01*
X122028088Y-79490606D01*
X121841287Y-79450900D01*
X121650313Y-79450900D01*
X121525779Y-79477370D01*
X121463511Y-79490606D01*
X121336085Y-79547340D01*
X121294374Y-79565911D01*
X121289046Y-79568283D01*
X121134547Y-79680533D01*
X121006758Y-79822457D01*
X120911272Y-79987843D01*
X120852258Y-80169470D01*
X120843705Y-80250847D01*
X120832296Y-80359400D01*
X115746706Y-80359400D01*
X115747089Y-80343632D01*
X115752177Y-80311131D01*
X115769922Y-80250842D01*
X115783255Y-80220762D01*
X115816009Y-80167125D01*
X115836673Y-80141529D01*
X115882198Y-80098206D01*
X115908794Y-80078829D01*
X115963979Y-80048778D01*
X115994686Y-80036949D01*
X116024451Y-80029769D01*
X116050803Y-80023413D01*
X116080349Y-80019900D01*
X116769093Y-80019900D01*
X116769094Y-80019900D01*
X116912006Y-79987281D01*
X117044077Y-79923679D01*
X117158683Y-79832283D01*
X117250079Y-79717677D01*
X117313681Y-79585606D01*
X117346300Y-79442694D01*
X117346300Y-79296106D01*
X117317364Y-79169328D01*
X117313681Y-79153193D01*
X117282078Y-79087570D01*
X117269798Y-79025835D01*
X117288913Y-78965864D01*
X117334651Y-78922622D01*
X117395600Y-78906900D01*
X117652795Y-78906900D01*
X117740851Y-78898491D01*
X117811300Y-78891764D01*
X118015155Y-78831907D01*
X118203999Y-78734551D01*
X118371005Y-78603216D01*
X118510138Y-78442648D01*
X118616368Y-78258651D01*
X118685858Y-78057875D01*
X118716094Y-77847576D01*
X118705985Y-77635355D01*
X118705201Y-77632124D01*
X118655895Y-77428881D01*
X118626475Y-77364461D01*
X118567635Y-77235620D01*
X118444395Y-77062554D01*
X118444393Y-77062551D01*
X118290632Y-76915940D01*
X118111892Y-76801070D01*
X117914656Y-76722109D01*
X117706031Y-76681900D01*
X116338810Y-76681900D01*
X116338805Y-76681900D01*
X116180303Y-76697035D01*
X115976444Y-76756893D01*
X115930052Y-76780810D01*
X115867816Y-76794736D01*
X115806732Y-76776401D01*
X115762451Y-76730505D01*
X115746317Y-76668804D01*
X115746322Y-76623128D01*
X115746667Y-73043688D01*
X115763553Y-72980693D01*
X115809672Y-72934579D01*
X115872668Y-72917700D01*
X126091963Y-72917700D01*
X126100047Y-72913806D01*
X126126682Y-72904486D01*
X126135431Y-72902490D01*
X126137375Y-72900938D01*
X126142447Y-72896895D01*
X126166339Y-72881881D01*
X126174424Y-72877988D01*
X126180021Y-72870968D01*
X126199968Y-72851021D01*
X126206988Y-72845424D01*
X126210883Y-72837336D01*
X126225895Y-72813447D01*
X126231489Y-72806432D01*
X126231488Y-72806432D01*
X126231490Y-72806431D01*
X126233487Y-72797681D01*
X126242807Y-72771046D01*
X126246700Y-72762963D01*
X126246700Y-71419400D01*
X147062243Y-71419400D01*
X147082450Y-71779203D01*
X147142815Y-72134482D01*
X147242578Y-72480772D01*
X147303542Y-72627951D01*
X147380486Y-72813710D01*
X147554804Y-73129115D01*
X147763341Y-73423019D01*
X148003473Y-73691727D01*
X148272181Y-73931859D01*
X148566085Y-74140396D01*
X148881490Y-74314714D01*
X149149417Y-74425693D01*
X149214427Y-74452621D01*
X149214428Y-74452621D01*
X149214430Y-74452622D01*
X149560717Y-74552385D01*
X149915996Y-74612750D01*
X150275800Y-74632956D01*
X150635604Y-74612750D01*
X150990883Y-74552385D01*
X151337170Y-74452622D01*
X151670110Y-74314714D01*
X151985515Y-74140396D01*
X152279419Y-73931859D01*
X152548127Y-73691727D01*
X152788259Y-73423019D01*
X152918545Y-73239399D01*
X162622243Y-73239399D01*
X162641315Y-73578996D01*
X162642450Y-73599204D01*
X162658170Y-73691727D01*
X162702815Y-73954482D01*
X162802578Y-74300772D01*
X162865477Y-74452622D01*
X162940486Y-74633710D01*
X163114804Y-74949115D01*
X163323341Y-75243019D01*
X163563473Y-75511727D01*
X163832181Y-75751859D01*
X164126085Y-75960396D01*
X164441490Y-76134714D01*
X164709417Y-76245693D01*
X164774427Y-76272621D01*
X164774428Y-76272621D01*
X164774430Y-76272622D01*
X165120717Y-76372385D01*
X165475996Y-76432750D01*
X165835800Y-76452956D01*
X166195604Y-76432750D01*
X166550883Y-76372385D01*
X166897170Y-76272622D01*
X167230110Y-76134714D01*
X167545515Y-75960396D01*
X167839419Y-75751859D01*
X168108127Y-75511727D01*
X168348259Y-75243019D01*
X168556796Y-74949115D01*
X168731114Y-74633710D01*
X168869022Y-74300770D01*
X168968785Y-73954483D01*
X169029150Y-73599204D01*
X169049356Y-73239400D01*
X169029150Y-72879596D01*
X168968785Y-72524317D01*
X168869022Y-72178030D01*
X168731114Y-71845090D01*
X168556796Y-71529685D01*
X168348259Y-71235781D01*
X168108127Y-70967073D01*
X167839419Y-70726941D01*
X167545515Y-70518404D01*
X167230110Y-70344086D01*
X167119129Y-70298116D01*
X166897172Y-70206178D01*
X166666312Y-70139669D01*
X166550883Y-70106415D01*
X166195604Y-70046050D01*
X166176471Y-70044975D01*
X165835800Y-70025843D01*
X165475996Y-70046050D01*
X165120717Y-70106415D01*
X164774427Y-70206178D01*
X164441490Y-70344086D01*
X164126088Y-70518402D01*
X163832179Y-70726942D01*
X163563473Y-70967073D01*
X163323342Y-71235779D01*
X163114802Y-71529688D01*
X162940486Y-71845090D01*
X162802578Y-72178027D01*
X162702815Y-72524317D01*
X162642450Y-72879596D01*
X162622243Y-73239399D01*
X152918545Y-73239399D01*
X152996796Y-73129115D01*
X153171114Y-72813710D01*
X153309022Y-72480770D01*
X153408785Y-72134483D01*
X153469150Y-71779204D01*
X153489356Y-71419400D01*
X153469150Y-71059596D01*
X153408785Y-70704317D01*
X153309022Y-70358030D01*
X153171114Y-70025090D01*
X152996796Y-69709685D01*
X152788259Y-69415781D01*
X152548127Y-69147073D01*
X152279419Y-68906941D01*
X151985515Y-68698404D01*
X151670110Y-68524086D01*
X151559129Y-68478116D01*
X151337172Y-68386178D01*
X151106311Y-68319669D01*
X150990883Y-68286415D01*
X150635604Y-68226050D01*
X150616471Y-68224975D01*
X150275800Y-68205843D01*
X149915996Y-68226050D01*
X149560717Y-68286415D01*
X149214427Y-68386178D01*
X148881490Y-68524086D01*
X148566088Y-68698402D01*
X148272179Y-68906942D01*
X148003473Y-69147073D01*
X147763342Y-69415779D01*
X147554802Y-69709688D01*
X147380486Y-70025090D01*
X147242578Y-70358027D01*
X147142815Y-70704317D01*
X147082450Y-71059596D01*
X147062243Y-71419400D01*
X126246700Y-71419400D01*
X126246700Y-62543700D01*
X126263581Y-62480700D01*
X126309700Y-62434581D01*
X126372700Y-62417700D01*
X140145032Y-62417700D01*
X140145594Y-62417700D01*
X140601385Y-62419736D01*
G37*
%TD.AperFunction*%
%TD*%
M02*
