M48
; DRILL file {KiCad 8.0.3} date 2024-07-25T00:21:40-0700
; FORMAT={-:-/ absolute / inch / decimal}
; #@! TF.CreationDate,2024-07-25T00:21:40-07:00
; #@! TF.GenerationSoftware,Kicad,Pcbnew,8.0.3
; #@! TF.FileFunction,Plated,1,4,PTH
FMAT,2
INCH
; #@! TA.AperFunction,Plated,PTH,ViaDrill
T1C0.0079
; #@! TA.AperFunction,Plated,PTH,ViaDrill
T2C0.0118
; #@! TA.AperFunction,Plated,PTH,ComponentDrill
T3C0.0197
%
G90
G05
T1
X4.245Y-3.62
X4.245Y-3.67
X4.245Y-3.72
X4.245Y-3.795
X4.25Y-3.885
X4.2512Y-3.9438
X4.2547Y-3.9152
X4.255Y-3.9716
X4.255Y-4.005
X4.295Y-3.605
X4.35Y-3.605
X4.405Y-3.605
X4.455Y-3.61
X4.46Y-3.65
X4.46Y-3.69
X4.625Y-4.145
X4.695Y-4.145
X4.7Y-4.22
X4.705Y-3.505
X4.705Y-3.575
X4.73Y-4.305
X4.745Y-4.145
X4.745Y-4.38
X4.765Y-3.505
X4.765Y-3.575
X4.79Y-4.145
X4.79Y-4.305
X4.82Y-4.22
X4.84Y-3.505
X4.84Y-4.145
X4.845Y-4.305
X4.85Y-4.38
X4.9Y-4.305
X4.905Y-4.38
X4.92Y-3.505
X4.92Y-3.575
X4.955Y-4.305
X4.955Y-4.38
X4.985Y-3.505
X4.99Y-3.575
X5.0Y-4.38
X5.005Y-4.305
X5.05Y-4.305
X5.05Y-4.38
X5.055Y-3.83
X5.1Y-4.305
X5.115Y-3.83
X5.17Y-3.83
X5.195Y-3.9
X5.21Y-4.15
X5.22Y-3.51
X5.22Y-3.58
X5.225Y-3.83
X5.245Y-4.225
X5.27Y-4.15
X5.28Y-3.83
X5.29Y-3.51
X5.29Y-3.58
X5.305Y-4.305
X5.305Y-4.385
X5.325Y-4.15
X5.33Y-3.83
X5.345Y-3.58
X5.35Y-3.51
X5.36Y-3.905
X5.365Y-4.225
X5.365Y-4.305
X5.365Y-4.385
X5.375Y-3.83
X5.38Y-4.15
X5.4Y-3.58
X5.405Y-3.51
X5.425Y-3.83
X5.445Y-4.225
X5.455Y-3.58
X5.455Y-4.36
X5.46Y-3.51
X5.46Y-4.41
X5.48Y-3.9
X5.485Y-4.15
X5.51Y-3.58
X5.51Y-4.36
X5.515Y-3.51
X5.515Y-4.41
X5.53Y-4.15
X5.555Y-3.825
X5.56Y-3.58
X5.565Y-3.51
X5.565Y-4.36
X5.57Y-4.41
X5.58Y-4.15
X5.58Y-4.225
X5.6Y-3.9
X5.605Y-3.58
X5.61Y-3.51
X5.615Y-4.36
X5.62Y-4.41
X5.635Y-4.15
X5.635Y-4.225
X5.655Y-3.58
X5.66Y-3.51
X5.66Y-4.36
X5.665Y-4.41
X5.695Y-4.15
X5.71Y-4.36
X5.715Y-4.41
X5.75Y-4.15
X5.75Y-4.225
X5.805Y-4.15
X5.91Y-4.135
X5.935Y-4.205
X5.97Y-4.23
X6.0Y-4.26
X6.02Y-4.31
X6.075Y-3.97
T2
X3.98Y-3.83
X4.005Y-4.145
X4.205Y-4.0939
X4.21Y-4.0561
X4.365Y-3.795
X4.43Y-3.665
X4.448Y-3.7272
X4.465Y-4.14
X4.4887Y-3.7272
X4.5287Y-3.7272
X4.585Y-4.0939
X4.622Y-3.835
X4.625Y-3.955
X4.63Y-4.0989
X4.6359Y-4.2562
X4.64Y-3.995
X4.665Y-3.4702
X4.71Y-3.86
X4.7559Y-4.2562
X4.8015Y-4.4105
X4.81Y-3.925
X4.815Y-3.735
X4.86Y-3.575
X4.875Y-4.2525
X4.88Y-3.925
X4.8834Y-4.1447
X4.9Y-3.735
X4.95Y-3.82
X4.9536Y-4.2545
X4.965Y-3.93
X5.0086Y-4.2495
X5.025Y-3.4402
X5.0386Y-4.0595
X5.045Y-3.93
X5.067Y-3.695
X5.067Y-3.74
X5.085Y-3.6111
X5.085Y-3.651
X5.09Y-3.93
X5.0975Y-4.4555
X5.135Y-3.47
X5.135Y-3.93
X5.1687Y-4.4975
X5.1836Y-4.2495
X5.1891Y-3.6145
X5.1891Y-3.6495
X5.1944Y-3.9883
X5.2036Y-4.1045
X5.2037Y-4.4975
X5.2337Y-4.4175
X5.3Y-3.93
X5.305Y-4.255
X5.335Y-4.0589
X5.375Y-4.0589
X5.42Y-3.93
X5.5036Y-4.2545
X5.54Y-3.93
X5.6875Y-3.9025
X5.6941Y-3.6594
X5.7058Y-4.26
X5.7191Y-3.8494
X5.7241Y-3.4744
X5.7591Y-3.4744
X5.7591Y-3.8494
X5.775Y-4.46
X5.815Y-4.425
X5.83Y-4.245
X5.835Y-4.485
X5.8615Y-4.245
X5.8919Y-4.1893
T3
X3.93Y-3.8388
X3.93Y-3.8781
X3.93Y-3.9175
X3.93Y-3.9569
X3.93Y-3.9963
X3.93Y-4.0356
X3.93Y-4.075
X3.93Y-4.1144
X3.93Y-4.1537
X6.155Y-3.8088
X6.155Y-3.8481
X6.155Y-3.8875
X6.155Y-3.9269
X6.155Y-3.9663
X6.155Y-4.0056
X6.155Y-4.045
X6.155Y-4.0844
X6.155Y-4.1237
M30
