%TF.GenerationSoftware,KiCad,Pcbnew,8.0.3*%
%TF.CreationDate,2024-07-25T00:21:40-07:00*%
%TF.ProjectId,radio_module,72616469-6f5f-46d6-9f64-756c652e6b69,rev?*%
%TF.SameCoordinates,Original*%
%TF.FileFunction,Copper,L1,Top*%
%TF.FilePolarity,Positive*%
%FSLAX46Y46*%
G04 Gerber Fmt 4.6, Leading zero omitted, Abs format (unit mm)*
G04 Created by KiCad (PCBNEW 8.0.3) date 2024-07-25 00:21:40*
%MOMM*%
%LPD*%
G01*
G04 APERTURE LIST*
G04 Aperture macros list*
%AMRoundRect*
0 Rectangle with rounded corners*
0 $1 Rounding radius*
0 $2 $3 $4 $5 $6 $7 $8 $9 X,Y pos of 4 corners*
0 Add a 4 corners polygon primitive as box body*
4,1,4,$2,$3,$4,$5,$6,$7,$8,$9,$2,$3,0*
0 Add four circle primitives for the rounded corners*
1,1,$1+$1,$2,$3*
1,1,$1+$1,$4,$5*
1,1,$1+$1,$6,$7*
1,1,$1+$1,$8,$9*
0 Add four rect primitives between the rounded corners*
20,1,$1+$1,$2,$3,$4,$5,0*
20,1,$1+$1,$4,$5,$6,$7,0*
20,1,$1+$1,$6,$7,$8,$9,0*
20,1,$1+$1,$8,$9,$2,$3,0*%
G04 Aperture macros list end*
%TA.AperFunction,SMDPad,CuDef*%
%ADD10RoundRect,0.147500X0.172500X-0.147500X0.172500X0.147500X-0.172500X0.147500X-0.172500X-0.147500X0*%
%TD*%
%TA.AperFunction,SMDPad,CuDef*%
%ADD11RoundRect,0.140000X-0.170000X0.140000X-0.170000X-0.140000X0.170000X-0.140000X0.170000X0.140000X0*%
%TD*%
%TA.AperFunction,SMDPad,CuDef*%
%ADD12RoundRect,0.147500X-0.172500X0.147500X-0.172500X-0.147500X0.172500X-0.147500X0.172500X0.147500X0*%
%TD*%
%TA.AperFunction,SMDPad,CuDef*%
%ADD13R,0.787400X0.355600*%
%TD*%
%TA.AperFunction,SMDPad,CuDef*%
%ADD14RoundRect,0.140000X-0.140000X-0.170000X0.140000X-0.170000X0.140000X0.170000X-0.140000X0.170000X0*%
%TD*%
%TA.AperFunction,SMDPad,CuDef*%
%ADD15RoundRect,0.135000X-0.185000X0.135000X-0.185000X-0.135000X0.185000X-0.135000X0.185000X0.135000X0*%
%TD*%
%TA.AperFunction,SMDPad,CuDef*%
%ADD16RoundRect,0.147500X-0.147500X-0.172500X0.147500X-0.172500X0.147500X0.172500X-0.147500X0.172500X0*%
%TD*%
%TA.AperFunction,SMDPad,CuDef*%
%ADD17RoundRect,0.135000X0.135000X0.185000X-0.135000X0.185000X-0.135000X-0.185000X0.135000X-0.185000X0*%
%TD*%
%TA.AperFunction,SMDPad,CuDef*%
%ADD18RoundRect,0.135000X-0.135000X-0.185000X0.135000X-0.185000X0.135000X0.185000X-0.135000X0.185000X0*%
%TD*%
%TA.AperFunction,SMDPad,CuDef*%
%ADD19RoundRect,0.140000X0.140000X0.170000X-0.140000X0.170000X-0.140000X-0.170000X0.140000X-0.170000X0*%
%TD*%
%TA.AperFunction,SMDPad,CuDef*%
%ADD20RoundRect,0.140000X0.170000X-0.140000X0.170000X0.140000X-0.170000X0.140000X-0.170000X-0.140000X0*%
%TD*%
%TA.AperFunction,SMDPad,CuDef*%
%ADD21R,0.304800X0.812800*%
%TD*%
%TA.AperFunction,SMDPad,CuDef*%
%ADD22R,0.812800X0.304800*%
%TD*%
%TA.AperFunction,SMDPad,CuDef*%
%ADD23R,4.876800X4.876800*%
%TD*%
%TA.AperFunction,ComponentPad*%
%ADD24R,0.850000X0.850000*%
%TD*%
%TA.AperFunction,ComponentPad*%
%ADD25O,0.850000X0.850000*%
%TD*%
%TA.AperFunction,SMDPad,CuDef*%
%ADD26R,0.750000X0.300000*%
%TD*%
%TA.AperFunction,SMDPad,CuDef*%
%ADD27R,0.300000X0.750000*%
%TD*%
%TA.AperFunction,SMDPad,CuDef*%
%ADD28R,1.750000X1.750000*%
%TD*%
%TA.AperFunction,SMDPad,CuDef*%
%ADD29R,0.833300X0.355600*%
%TD*%
%TA.AperFunction,SMDPad,CuDef*%
%ADD30RoundRect,0.135000X0.185000X-0.135000X0.185000X0.135000X-0.185000X0.135000X-0.185000X-0.135000X0*%
%TD*%
%TA.AperFunction,SMDPad,CuDef*%
%ADD31RoundRect,0.218750X-0.256250X0.218750X-0.256250X-0.218750X0.256250X-0.218750X0.256250X0.218750X0*%
%TD*%
%TA.AperFunction,SMDPad,CuDef*%
%ADD32R,0.660400X0.254000*%
%TD*%
%TA.AperFunction,SMDPad,CuDef*%
%ADD33R,0.838200X1.651000*%
%TD*%
%TA.AperFunction,SMDPad,CuDef*%
%ADD34RoundRect,0.218750X0.256250X-0.218750X0.256250X0.218750X-0.256250X0.218750X-0.256250X-0.218750X0*%
%TD*%
%TA.AperFunction,SMDPad,CuDef*%
%ADD35R,0.863600X0.609600*%
%TD*%
%TA.AperFunction,ViaPad*%
%ADD36C,0.500000*%
%TD*%
%TA.AperFunction,ViaPad*%
%ADD37C,0.600000*%
%TD*%
%TA.AperFunction,Conductor*%
%ADD38C,0.152400*%
%TD*%
%TA.AperFunction,Conductor*%
%ADD39C,0.335300*%
%TD*%
%TA.AperFunction,Conductor*%
%ADD40C,0.300000*%
%TD*%
%TA.AperFunction,Conductor*%
%ADD41C,0.250000*%
%TD*%
%TA.AperFunction,Conductor*%
%ADD42C,0.200000*%
%TD*%
G04 APERTURE END LIST*
D10*
%TO.P,L9,1,1*%
%TO.N,Net-(C33-Pad1)*%
X134525000Y-102359000D03*
%TO.P,L9,2,2*%
%TO.N,VR_PA*%
X134525000Y-101389000D03*
%TD*%
D11*
%TO.P,C35,1*%
%TO.N,Net-(C33-Pad1)*%
X139807000Y-106414000D03*
%TO.P,C35,2*%
%TO.N,GND*%
X139807000Y-107374000D03*
%TD*%
D12*
%TO.P,L8,1,1*%
%TO.N,GND*%
X117348000Y-98067000D03*
%TO.P,L8,2,2*%
%TO.N,RFO_LF*%
X117348000Y-99037000D03*
%TD*%
D10*
%TO.P,L7,1,1*%
%TO.N,Net-(IC1-RF_OUT{slash}VDD_1)*%
X127000000Y-98148000D03*
%TO.P,L7,2,2*%
%TO.N,Net-(C10-Pad1)*%
X127000000Y-97178000D03*
%TD*%
D11*
%TO.P,C31,1*%
%TO.N,+3V3*%
X116459000Y-102390000D03*
%TO.P,C31,2*%
%TO.N,GND*%
X116459000Y-103350000D03*
%TD*%
D13*
%TO.P,U5,1,RF1*%
%TO.N,RF_HF_SW*%
X147396200Y-110094001D03*
%TO.P,U5,2,GND*%
%TO.N,GND*%
X147396200Y-110744000D03*
%TO.P,U5,3,RF2*%
%TO.N,RFI_HF_LNA_IN*%
X147396200Y-111393999D03*
%TO.P,U5,4,CTRL*%
%TO.N,RF_CONTROL_SW*%
X149529800Y-111393999D03*
%TO.P,U5,5,RFC*%
%TO.N,Net-(U5-RFC)*%
X149529800Y-110744000D03*
%TO.P,U5,6,\u002ACTRL/VDD*%
%TO.N,+3V3*%
X149529800Y-110094001D03*
%TD*%
D14*
%TO.P,C37,1*%
%TO.N,RF_HF_SW*%
X147975000Y-106426000D03*
%TO.P,C37,2*%
%TO.N,GND*%
X148935000Y-106426000D03*
%TD*%
D11*
%TO.P,C1,1*%
%TO.N,+3V3*%
X131064000Y-91722000D03*
%TO.P,C1,2*%
%TO.N,GND*%
X131064000Y-92682000D03*
%TD*%
D14*
%TO.P,C48,1*%
%TO.N,Net-(C48-Pad1)*%
X135787000Y-106374000D03*
%TO.P,C48,2*%
%TO.N,HF_PA_OUT*%
X136747000Y-106374000D03*
%TD*%
D11*
%TO.P,C39,1*%
%TO.N,+3V3*%
X107772200Y-103025000D03*
%TO.P,C39,2*%
%TO.N,GND*%
X107772200Y-103985000D03*
%TD*%
D15*
%TO.P,R1,1*%
%TO.N,GND*%
X123444000Y-91565000D03*
%TO.P,R1,2*%
%TO.N,Net-(R1-Pad2)*%
X123444000Y-92585000D03*
%TD*%
D11*
%TO.P,C49,1*%
%TO.N,PA_BOOST*%
X117729000Y-106231000D03*
%TO.P,C49,2*%
%TO.N,GND*%
X117729000Y-107191000D03*
%TD*%
D16*
%TO.P,L4,1,1*%
%TO.N,Net-(C12-Pad1)*%
X138679000Y-98194000D03*
%TO.P,L4,2,2*%
%TO.N,Net-(C12-Pad2)*%
X139649000Y-98194000D03*
%TD*%
D15*
%TO.P,R3,1*%
%TO.N,Net-(R1-Pad2)*%
X123444000Y-93597000D03*
%TO.P,R3,2*%
%TO.N,Net-(IC1-BIAS1)*%
X123444000Y-94617000D03*
%TD*%
D17*
%TO.P,R25,1*%
%TO.N,/SCK_sx*%
X102364000Y-100584000D03*
%TO.P,R25,2*%
%TO.N,/SCK*%
X101344000Y-100584000D03*
%TD*%
D18*
%TO.P,R23,1*%
%TO.N,/DIO4_sx*%
X153053000Y-103886000D03*
%TO.P,R23,2*%
%TO.N,/DIO4*%
X154073000Y-103886000D03*
%TD*%
D16*
%TO.P,L12,1,1*%
%TO.N,Net-(C36-Pad2)*%
X145971200Y-106426000D03*
%TO.P,L12,2,2*%
%TO.N,RF_HF_SW*%
X146941200Y-106426000D03*
%TD*%
D15*
%TO.P,R12,1*%
%TO.N,+5V*%
X123662800Y-103237000D03*
%TO.P,R12,2*%
%TO.N,Net-(IC2-VEN1)*%
X123662800Y-104257000D03*
%TD*%
D19*
%TO.P,C5,1*%
%TO.N,XTA*%
X111732000Y-95758000D03*
%TO.P,C5,2*%
%TO.N,GND*%
X110772000Y-95758000D03*
%TD*%
D20*
%TO.P,C16,1*%
%TO.N,GND*%
X137668000Y-99182000D03*
%TO.P,C16,2*%
%TO.N,Net-(C12-Pad1)*%
X137668000Y-98222000D03*
%TD*%
D16*
%TO.P,L13,1,1*%
%TO.N,RFI_HF*%
X119974500Y-110374999D03*
%TO.P,L13,2,2*%
%TO.N,Net-(C40-Pad1)*%
X120944500Y-110374999D03*
%TD*%
D15*
%TO.P,R2,1*%
%TO.N,+5V*%
X127000000Y-91819000D03*
%TO.P,R2,2*%
%TO.N,Net-(C10-Pad1)*%
X127000000Y-92839000D03*
%TD*%
D11*
%TO.P,C20,1*%
%TO.N,Net-(IC1-RF_OUT{slash}VDD_1)*%
X128115000Y-98222000D03*
%TO.P,C20,2*%
%TO.N,GND*%
X128115000Y-99182000D03*
%TD*%
D18*
%TO.P,R13,1*%
%TO.N,/DIO0_sx*%
X153035000Y-98806000D03*
%TO.P,R13,2*%
%TO.N,/DIO0*%
X154055000Y-98806000D03*
%TD*%
D21*
%TO.P,U4,1,RFI_LF*%
%TO.N,RFI_LF*%
X114085116Y-98063558D03*
%TO.P,U4,2,VR_ANA*%
%TO.N,Net-(U4-VR_ANA)*%
X113435130Y-98063558D03*
%TO.P,U4,3,VBAT_ANA*%
%TO.N,+3V3*%
X112785144Y-98063558D03*
%TO.P,U4,4,VR_DIG*%
%TO.N,Net-(U4-VR_DIG)*%
X112135158Y-98063558D03*
%TO.P,U4,5,XTA*%
%TO.N,XTA*%
X111485172Y-98063558D03*
%TO.P,U4,6,XTB*%
%TO.N,XTB*%
X110835186Y-98063558D03*
%TO.P,U4,7,NRESET*%
%TO.N,/NRESET_sx*%
X110185200Y-98063558D03*
D22*
%TO.P,U4,8,DIO0*%
%TO.N,/DIO0_sx*%
X109188758Y-99060000D03*
%TO.P,U4,9,DIO1*%
%TO.N,/DIO1_sx*%
X109188758Y-99709986D03*
%TO.P,U4,10,DIO2*%
%TO.N,/DIO2_sx*%
X109188758Y-100359972D03*
%TO.P,U4,11,DIO3*%
%TO.N,/DIO3_sx*%
X109188758Y-101009958D03*
%TO.P,U4,12,DIO4*%
%TO.N,/DIO4_sx*%
X109188758Y-101659944D03*
%TO.P,U4,13,DIO5*%
%TO.N,/DIO5_sx*%
X109188758Y-102309930D03*
%TO.P,U4,14,VBAT_DIG*%
%TO.N,+3V3*%
X109188758Y-102959916D03*
D21*
%TO.P,U4,15,GND*%
%TO.N,GND*%
X110185200Y-103956358D03*
%TO.P,U4,16,SCK*%
%TO.N,/SCK_sx*%
X110835186Y-103956358D03*
%TO.P,U4,17,MISO*%
%TO.N,/MISO_sx*%
X111485172Y-103956358D03*
%TO.P,U4,18,MOSI*%
%TO.N,/MOSI_sx*%
X112135158Y-103956358D03*
%TO.P,U4,19,NSS*%
%TO.N,/NSS_sx*%
X112785144Y-103956358D03*
%TO.P,U4,20,RXTX/RFMOD*%
%TO.N,RF_CONTROL*%
X113435130Y-103956358D03*
%TO.P,U4,21,RFI_HF*%
%TO.N,RFI_HF*%
X114085116Y-103956358D03*
D22*
%TO.P,U4,22,RFO_HF*%
%TO.N,unconnected-(U4-RFO_HF-Pad22)*%
X115081558Y-102959916D03*
%TO.P,U4,23,GND*%
%TO.N,GND*%
X115081558Y-102309930D03*
%TO.P,U4,24,VBAT_RF*%
%TO.N,+3V3*%
X115081558Y-101659944D03*
%TO.P,U4,25,VR_PA*%
%TO.N,VR_PA*%
X115081558Y-101009958D03*
%TO.P,U4,26,GND*%
%TO.N,GND*%
X115081558Y-100359972D03*
%TO.P,U4,27,PA_BOOST*%
%TO.N,PA_BOOST*%
X115081558Y-99709986D03*
%TO.P,U4,28,RFO_LF*%
%TO.N,RFO_LF*%
X115081558Y-99060000D03*
D23*
%TO.P,U4,29,GND*%
%TO.N,GND*%
X112135158Y-101009958D03*
%TD*%
D11*
%TO.P,C15,1*%
%TO.N,LF_PA_OUT*%
X134620000Y-98222000D03*
%TO.P,C15,2*%
%TO.N,GND*%
X134620000Y-99182000D03*
%TD*%
D14*
%TO.P,C19,1*%
%TO.N,Net-(IC1-RF_OUT{slash}VDD_1)*%
X131473000Y-98194000D03*
%TO.P,C19,2*%
%TO.N,LF_PA_OUT*%
X132433000Y-98194000D03*
%TD*%
%TO.P,C10,1*%
%TO.N,Net-(C10-Pad1)*%
X127028000Y-93853000D03*
%TO.P,C10,2*%
%TO.N,GND*%
X127988000Y-93853000D03*
%TD*%
D18*
%TO.P,R5,1*%
%TO.N,Net-(IC1-BIAS2)*%
X125982000Y-96012000D03*
%TO.P,R5,2*%
%TO.N,Net-(C10-Pad1)*%
X127002000Y-96012000D03*
%TD*%
D11*
%TO.P,C42,1*%
%TO.N,Net-(C40-Pad1)*%
X121983500Y-110402999D03*
%TO.P,C42,2*%
%TO.N,GND*%
X121983500Y-111362999D03*
%TD*%
D24*
%TO.P,J4,1,Pin_1*%
%TO.N,+3V3*%
X99822000Y-97505000D03*
D25*
%TO.P,J4,2,Pin_2*%
%TO.N,/NRESET*%
X99822000Y-98505000D03*
%TO.P,J4,3,Pin_3*%
%TO.N,/DIO5*%
X99822000Y-99505000D03*
%TO.P,J4,4,Pin_4*%
%TO.N,/SCK*%
X99822000Y-100505000D03*
%TO.P,J4,5,Pin_5*%
%TO.N,/MISO*%
X99822000Y-101505000D03*
%TO.P,J4,6,Pin_6*%
%TO.N,/MOSI*%
X99822000Y-102505000D03*
%TO.P,J4,7,Pin_7*%
%TO.N,/NSS*%
X99822000Y-103505000D03*
%TO.P,J4,8,Pin_8*%
%TO.N,GND*%
X99822000Y-104505000D03*
%TO.P,J4,9,Pin_9*%
X99822000Y-105505000D03*
%TD*%
D16*
%TO.P,L2,1,1*%
%TO.N,RFI_LF*%
X119491900Y-89916001D03*
%TO.P,L2,2,2*%
%TO.N,Net-(C7-Pad1)*%
X120461900Y-89916001D03*
%TD*%
D14*
%TO.P,C55,1*%
%TO.N,RFI_HF_LNA_OUT*%
X126997000Y-110371000D03*
%TO.P,C55,2*%
%TO.N,Net-(U6-RF_OUT)*%
X127957000Y-110371000D03*
%TD*%
D24*
%TO.P,J3,1,Pin_1*%
%TO.N,/ANT1*%
X156337000Y-96743000D03*
D25*
%TO.P,J3,2,Pin_2*%
%TO.N,GND*%
X156337000Y-97743000D03*
%TO.P,J3,3,Pin_3*%
%TO.N,/DIO0*%
X156337000Y-98743000D03*
%TO.P,J3,4,Pin_4*%
%TO.N,/DIO1*%
X156337000Y-99743000D03*
%TO.P,J3,5,Pin_5*%
%TO.N,+5V*%
X156337000Y-100743000D03*
%TO.P,J3,6,Pin_6*%
%TO.N,/DIO2*%
X156337000Y-101743000D03*
%TO.P,J3,7,Pin_7*%
%TO.N,/DIO3*%
X156337000Y-102743000D03*
%TO.P,J3,8,Pin_8*%
%TO.N,/DIO4*%
X156337000Y-103743000D03*
%TO.P,J3,9,Pin_9*%
%TO.N,/ANT2*%
X156337000Y-104743000D03*
%TD*%
D26*
%TO.P,IC2,1,VEN1*%
%TO.N,Net-(IC2-VEN1)*%
X125016000Y-104799000D03*
%TO.P,IC2,2,GND/NC_1*%
%TO.N,GND*%
X125016000Y-105299000D03*
%TO.P,IC2,3,RF_IN_1*%
%TO.N,Net-(IC2-RF_IN_1)*%
X125016000Y-105799000D03*
%TO.P,IC2,4,RF_IN_2*%
X125016000Y-106299000D03*
D27*
%TO.P,IC2,5,GND/NC_2*%
%TO.N,GND*%
X125766000Y-107049000D03*
%TO.P,IC2,6,GND/NC_3*%
X126266000Y-107049000D03*
%TO.P,IC2,7,GND/NC_4*%
X126766000Y-107049000D03*
%TO.P,IC2,8,GND/NC_5*%
X127266000Y-107049000D03*
D26*
%TO.P,IC2,9,RF_OUT/VDD_1*%
%TO.N,Net-(IC2-RF_OUT{slash}VDD_1)*%
X128016000Y-106299000D03*
%TO.P,IC2,10,RF_OUT/VDD_2*%
X128016000Y-105799000D03*
%TO.P,IC2,11,GND/NC_6*%
%TO.N,GND*%
X128016000Y-105299000D03*
%TO.P,IC2,12,BIAS2*%
%TO.N,Net-(IC2-BIAS2)*%
X128016000Y-104799000D03*
D27*
%TO.P,IC2,13,GND/NC_7*%
%TO.N,GND*%
X127266000Y-104049000D03*
%TO.P,IC2,14,BIAS1*%
%TO.N,Net-(IC2-BIAS1)*%
X126766000Y-104049000D03*
%TO.P,IC2,15,GND/NC_8*%
%TO.N,GND*%
X126266000Y-104049000D03*
%TO.P,IC2,16,GND/NC_9*%
X125766000Y-104049000D03*
D28*
%TO.P,IC2,17,GND*%
X126516000Y-105549000D03*
%TD*%
D14*
%TO.P,C8,1*%
%TO.N,Net-(C7-Pad2)*%
X123512500Y-89916001D03*
%TO.P,C8,2*%
%TO.N,RFI_LF_LNA_OUT*%
X124472500Y-89916001D03*
%TD*%
D12*
%TO.P,L3,1,1*%
%TO.N,GND*%
X118452900Y-88931000D03*
%TO.P,L3,2,2*%
%TO.N,RFI_LF*%
X118452900Y-89901000D03*
%TD*%
D15*
%TO.P,R10,1*%
%TO.N,Net-(R10-Pad1)*%
X126837800Y-101840000D03*
%TO.P,R10,2*%
%TO.N,Net-(IC2-BIAS1)*%
X126837800Y-102860000D03*
%TD*%
D19*
%TO.P,C3,1*%
%TO.N,RFI_LF_LNA_IN*%
X133921700Y-90043000D03*
%TO.P,C3,2*%
%TO.N,Net-(U1-RF_IN)*%
X132961700Y-90043000D03*
%TD*%
%TO.P,C9,1*%
%TO.N,+3V3*%
X146253051Y-88981001D03*
%TO.P,C9,2*%
%TO.N,GND*%
X145293051Y-88981001D03*
%TD*%
D14*
%TO.P,C14,1*%
%TO.N,LF_PA_OUT*%
X135664000Y-98194000D03*
%TO.P,C14,2*%
%TO.N,Net-(C12-Pad1)*%
X136624000Y-98194000D03*
%TD*%
D10*
%TO.P,L6,1,1*%
%TO.N,VR_PA*%
X133477000Y-99187000D03*
%TO.P,L6,2,2*%
%TO.N,LF_PA_OUT*%
X133477000Y-98217000D03*
%TD*%
D29*
%TO.P,U3,1,NC*%
%TO.N,unconnected-(U3-NC-Pad1)*%
X144734102Y-94331002D03*
%TO.P,U3,2,A*%
%TO.N,RF_CONTROL_SW*%
X144734102Y-94981001D03*
%TO.P,U3,3,GND*%
%TO.N,GND*%
X144734102Y-95631000D03*
%TO.P,U3,4,Y*%
%TO.N,Net-(U2-CTRL)*%
X146812000Y-95631000D03*
%TO.P,U3,5,VCC*%
%TO.N,+3V3*%
X146812000Y-94331002D03*
%TD*%
D14*
%TO.P,C18,1*%
%TO.N,RFO_LF*%
X118341200Y-99060000D03*
%TO.P,C18,2*%
%TO.N,Net-(IC1-RF_IN_1)*%
X119301200Y-99060000D03*
%TD*%
%TO.P,C11,1*%
%TO.N,Net-(U2-RFC)*%
X148267051Y-90981001D03*
%TO.P,C11,2*%
%TO.N,/ANT1*%
X149227051Y-90981001D03*
%TD*%
D30*
%TO.P,R8,1*%
%TO.N,+3V3*%
X148963000Y-113883000D03*
%TO.P,R8,2*%
%TO.N,RF_CONTROL*%
X148963000Y-112863000D03*
%TD*%
D16*
%TO.P,L11,1,1*%
%TO.N,Net-(C33-Pad2)*%
X142971200Y-106426000D03*
%TO.P,L11,2,2*%
%TO.N,Net-(C36-Pad2)*%
X143941200Y-106426000D03*
%TD*%
D30*
%TO.P,R6,1*%
%TO.N,Net-(IC1-RF_IN_1)*%
X120345200Y-99062000D03*
%TO.P,R6,2*%
%TO.N,GND*%
X120345200Y-98042000D03*
%TD*%
D11*
%TO.P,C21,1*%
%TO.N,Net-(IC1-RF_OUT{slash}VDD_1)*%
X129258000Y-98222000D03*
%TO.P,C21,2*%
%TO.N,GND*%
X129258000Y-99182000D03*
%TD*%
D16*
%TO.P,L16,1,1*%
%TO.N,Net-(IC2-RF_OUT{slash}VDD_1)*%
X132782000Y-106374000D03*
%TO.P,L16,2,2*%
%TO.N,Net-(C48-Pad1)*%
X133752000Y-106374000D03*
%TD*%
D14*
%TO.P,C47,1*%
%TO.N,Net-(C47-Pad1)*%
X121821000Y-106299000D03*
%TO.P,C47,2*%
%TO.N,Net-(IC2-RF_IN_1)*%
X122781000Y-106299000D03*
%TD*%
D10*
%TO.P,L17,1,1*%
%TO.N,GND*%
X120777000Y-107188000D03*
%TO.P,L17,2,2*%
%TO.N,Net-(C47-Pad1)*%
X120777000Y-106218000D03*
%TD*%
D20*
%TO.P,C27,1*%
%TO.N,VR_PA*%
X116713000Y-101445000D03*
%TO.P,C27,2*%
%TO.N,GND*%
X116713000Y-100485000D03*
%TD*%
D17*
%TO.P,R17,1*%
%TO.N,/NSS_sx*%
X102364000Y-104013000D03*
%TO.P,R17,2*%
%TO.N,/NSS*%
X101344000Y-104013000D03*
%TD*%
D11*
%TO.P,C2,1*%
%TO.N,+3V3*%
X129921000Y-91722000D03*
%TO.P,C2,2*%
%TO.N,GND*%
X129921000Y-92682000D03*
%TD*%
%TO.P,C28,1*%
%TO.N,VR_PA*%
X135525000Y-101394000D03*
%TO.P,C28,2*%
%TO.N,GND*%
X135525000Y-102354000D03*
%TD*%
D31*
%TO.P,L1,1*%
%TO.N,+3V3*%
X127762000Y-88370500D03*
%TO.P,L1,2*%
%TO.N,Net-(U1-RF_OUT)*%
X127762000Y-89945500D03*
%TD*%
D15*
%TO.P,R20,1*%
%TO.N,Net-(IC2-RF_IN_1)*%
X123825000Y-106297000D03*
%TO.P,R20,2*%
%TO.N,GND*%
X123825000Y-107317000D03*
%TD*%
D14*
%TO.P,C7,1*%
%TO.N,Net-(C7-Pad1)*%
X121528900Y-89924000D03*
%TO.P,C7,2*%
%TO.N,Net-(C7-Pad2)*%
X122488900Y-89924000D03*
%TD*%
D18*
%TO.P,R16,1*%
%TO.N,/DIO1_sx*%
X153035000Y-99822000D03*
%TO.P,R16,2*%
%TO.N,/DIO1*%
X154055000Y-99822000D03*
%TD*%
D11*
%TO.P,C22,1*%
%TO.N,Net-(IC1-RF_OUT{slash}VDD_1)*%
X130401000Y-98222000D03*
%TO.P,C22,2*%
%TO.N,GND*%
X130401000Y-99182000D03*
%TD*%
D10*
%TO.P,L14,1,1*%
%TO.N,Net-(IC2-RF_OUT{slash}VDD_1)*%
X130597000Y-106264000D03*
%TO.P,L14,2,2*%
%TO.N,Net-(C43-Pad1)*%
X130597000Y-105294000D03*
%TD*%
D11*
%TO.P,C26,1*%
%TO.N,GND*%
X114995200Y-95405000D03*
%TO.P,C26,2*%
%TO.N,Net-(U4-VR_ANA)*%
X114995200Y-96365000D03*
%TD*%
D20*
%TO.P,C23,1*%
%TO.N,+3V3*%
X113995200Y-96365000D03*
%TO.P,C23,2*%
%TO.N,GND*%
X113995200Y-95405000D03*
%TD*%
D14*
%TO.P,C52,1*%
%TO.N,+3V3*%
X131282500Y-113168999D03*
%TO.P,C52,2*%
%TO.N,GND*%
X132242500Y-113168999D03*
%TD*%
D32*
%TO.P,U6,1,NC*%
%TO.N,unconnected-(U6-NC-Pad1)*%
X133477000Y-110871000D03*
%TO.P,U6,2,RF_IN*%
%TO.N,Net-(U6-RF_IN)*%
X133477000Y-110370999D03*
%TO.P,U6,3,NC*%
%TO.N,unconnected-(U6-NC-Pad3)*%
X133477000Y-109870999D03*
%TO.P,U6,4,NC*%
%TO.N,unconnected-(U6-NC-Pad4)*%
X133477000Y-109370998D03*
%TO.P,U6,5,NC*%
%TO.N,unconnected-(U6-NC-Pad5)*%
X131470400Y-109370998D03*
%TO.P,U6,6,SHUT_DOWN*%
%TO.N,unconnected-(U6-SHUT_DOWN-Pad6)*%
X131470400Y-109870999D03*
%TO.P,U6,7,RF_OUT*%
%TO.N,Net-(U6-RF_OUT)*%
X131470400Y-110370999D03*
%TO.P,U6,8,NC*%
%TO.N,unconnected-(U6-NC-Pad8)*%
X131470400Y-110871000D03*
D33*
%TO.P,U6,9,RF/DC_GND*%
%TO.N,GND*%
X132473700Y-110120999D03*
%TD*%
D14*
%TO.P,C43,1*%
%TO.N,Net-(C43-Pad1)*%
X130548800Y-104295000D03*
%TO.P,C43,2*%
%TO.N,GND*%
X131508800Y-104295000D03*
%TD*%
D34*
%TO.P,L18,1*%
%TO.N,+3V3*%
X129477000Y-112158500D03*
%TO.P,L18,2*%
%TO.N,Net-(U6-RF_OUT)*%
X129477000Y-110583500D03*
%TD*%
D19*
%TO.P,C24,1*%
%TO.N,+3V3*%
X146253051Y-96981001D03*
%TO.P,C24,2*%
%TO.N,GND*%
X145293051Y-96981001D03*
%TD*%
D11*
%TO.P,C50,1*%
%TO.N,Net-(IC2-RF_OUT{slash}VDD_1)*%
X131703000Y-106315000D03*
%TO.P,C50,2*%
%TO.N,GND*%
X131703000Y-107275000D03*
%TD*%
D14*
%TO.P,C12,1*%
%TO.N,Net-(C12-Pad1)*%
X138712000Y-96901000D03*
%TO.P,C12,2*%
%TO.N,Net-(C12-Pad2)*%
X139672000Y-96901000D03*
%TD*%
D16*
%TO.P,L10,1,1*%
%TO.N,HF_PA_OUT*%
X137822000Y-106414000D03*
%TO.P,L10,2,2*%
%TO.N,Net-(C33-Pad1)*%
X138792000Y-106414000D03*
%TD*%
D20*
%TO.P,C36,1*%
%TO.N,GND*%
X144956200Y-107406000D03*
%TO.P,C36,2*%
%TO.N,Net-(C36-Pad2)*%
X144956200Y-106446000D03*
%TD*%
D15*
%TO.P,R7,1*%
%TO.N,GND*%
X126873000Y-99820000D03*
%TO.P,R7,2*%
%TO.N,Net-(R10-Pad1)*%
X126873000Y-100840000D03*
%TD*%
D17*
%TO.P,R14,1*%
%TO.N,/NRESET_sx*%
X102364000Y-98552000D03*
%TO.P,R14,2*%
%TO.N,/NRESET*%
X101344000Y-98552000D03*
%TD*%
%TO.P,R22,1*%
%TO.N,/MISO_sx*%
X102364000Y-101727000D03*
%TO.P,R22,2*%
%TO.N,/MISO*%
X101344000Y-101727000D03*
%TD*%
D14*
%TO.P,C40,1*%
%TO.N,Net-(C40-Pad1)*%
X122977000Y-110371000D03*
%TO.P,C40,2*%
%TO.N,Net-(C40-Pad2)*%
X123937000Y-110371000D03*
%TD*%
D20*
%TO.P,C17,1*%
%TO.N,GND*%
X140688000Y-99182000D03*
%TO.P,C17,2*%
%TO.N,Net-(C12-Pad2)*%
X140688000Y-98222000D03*
%TD*%
D15*
%TO.P,R9,1*%
%TO.N,+5V*%
X130556000Y-102233000D03*
%TO.P,R9,2*%
%TO.N,Net-(C43-Pad1)*%
X130556000Y-103253000D03*
%TD*%
D14*
%TO.P,C6,1*%
%TO.N,XTB*%
X108613000Y-95758000D03*
%TO.P,C6,2*%
%TO.N,GND*%
X109573000Y-95758000D03*
%TD*%
D35*
%TO.P,XTAL1,1,1*%
%TO.N,XTA*%
X111213900Y-94401000D03*
%TO.P,XTAL1,2,2*%
%TO.N,GND*%
X111213900Y-93051000D03*
%TO.P,XTAL1,3,3*%
%TO.N,XTB*%
X109766100Y-93051000D03*
%TO.P,XTAL1,4,4*%
%TO.N,GND*%
X109766100Y-94401000D03*
%TD*%
D19*
%TO.P,C38,1*%
%TO.N,/ANT2*%
X151943000Y-110744000D03*
%TO.P,C38,2*%
%TO.N,Net-(U5-RFC)*%
X150983000Y-110744000D03*
%TD*%
D16*
%TO.P,L5,1,1*%
%TO.N,Net-(C12-Pad2)*%
X141755000Y-98171000D03*
%TO.P,L5,2,2*%
%TO.N,RF_LF_SW*%
X142725000Y-98171000D03*
%TD*%
D32*
%TO.P,U1,1,NC*%
%TO.N,unconnected-(U1-NC-Pad1)*%
X131432300Y-90543001D03*
%TO.P,U1,2,RF_IN*%
%TO.N,Net-(U1-RF_IN)*%
X131432300Y-90043000D03*
%TO.P,U1,3,NC*%
%TO.N,unconnected-(U1-NC-Pad3)*%
X131432300Y-89543000D03*
%TO.P,U1,4,NC*%
%TO.N,unconnected-(U1-NC-Pad4)*%
X131432300Y-89042999D03*
%TO.P,U1,5,NC*%
%TO.N,unconnected-(U1-NC-Pad5)*%
X129425700Y-89042999D03*
%TO.P,U1,6,SHUT_DOWN*%
%TO.N,unconnected-(U1-SHUT_DOWN-Pad6)*%
X129425700Y-89543000D03*
%TO.P,U1,7,RF_OUT*%
%TO.N,Net-(U1-RF_OUT)*%
X129425700Y-90043000D03*
%TO.P,U1,8,NC*%
%TO.N,unconnected-(U1-NC-Pad8)*%
X129425700Y-90543001D03*
D33*
%TO.P,U1,9,RF/DC_GND*%
%TO.N,GND*%
X130429000Y-89793000D03*
%TD*%
D14*
%TO.P,C33,1*%
%TO.N,Net-(C33-Pad1)*%
X140882200Y-106406000D03*
%TO.P,C33,2*%
%TO.N,Net-(C33-Pad2)*%
X141842200Y-106406000D03*
%TD*%
D11*
%TO.P,C29,1*%
%TO.N,VR_PA*%
X136525000Y-101374000D03*
%TO.P,C29,2*%
%TO.N,GND*%
X136525000Y-102334000D03*
%TD*%
D20*
%TO.P,C32,1*%
%TO.N,GND*%
X117602000Y-103350000D03*
%TO.P,C32,2*%
%TO.N,+3V3*%
X117602000Y-102390000D03*
%TD*%
D15*
%TO.P,R4,1*%
%TO.N,+5V*%
X120345200Y-95248000D03*
%TO.P,R4,2*%
%TO.N,Net-(IC1-VEN1)*%
X120345200Y-96268000D03*
%TD*%
%TO.P,R15,1*%
%TO.N,Net-(IC2-BIAS2)*%
X129454000Y-104126000D03*
%TO.P,R15,2*%
%TO.N,Net-(C43-Pad1)*%
X129454000Y-105146000D03*
%TD*%
D26*
%TO.P,IC1,1,VEN1*%
%TO.N,Net-(IC1-VEN1)*%
X121651200Y-96556000D03*
%TO.P,IC1,2,GND/NC_1*%
%TO.N,GND*%
X121651200Y-97056000D03*
%TO.P,IC1,3,RF_IN_1*%
%TO.N,Net-(IC1-RF_IN_1)*%
X121651200Y-97556000D03*
%TO.P,IC1,4,RF_IN_2*%
X121651200Y-98056000D03*
D27*
%TO.P,IC1,5,GND/NC_2*%
%TO.N,GND*%
X122401200Y-98806000D03*
%TO.P,IC1,6,GND/NC_3*%
X122901200Y-98806000D03*
%TO.P,IC1,7,GND/NC_4*%
X123401200Y-98806000D03*
%TO.P,IC1,8,GND/NC_5*%
X123901200Y-98806000D03*
D26*
%TO.P,IC1,9,RF_OUT/VDD_1*%
%TO.N,Net-(IC1-RF_OUT{slash}VDD_1)*%
X124651200Y-98056000D03*
%TO.P,IC1,10,RF_OUT/VDD_2*%
X124651200Y-97556000D03*
%TO.P,IC1,11,GND/NC_6*%
%TO.N,GND*%
X124651200Y-97056000D03*
%TO.P,IC1,12,BIAS2*%
%TO.N,Net-(IC1-BIAS2)*%
X124651200Y-96556000D03*
D27*
%TO.P,IC1,13,GND/NC_7*%
%TO.N,GND*%
X123901200Y-95806000D03*
%TO.P,IC1,14,BIAS1*%
%TO.N,Net-(IC1-BIAS1)*%
X123401200Y-95806000D03*
%TO.P,IC1,15,GND/NC_8*%
%TO.N,GND*%
X122901200Y-95806000D03*
%TO.P,IC1,16,GND/NC_9*%
X122401200Y-95806000D03*
D28*
%TO.P,IC1,17,GND*%
X123151200Y-97306000D03*
%TD*%
D14*
%TO.P,C4,1*%
%TO.N,RFI_LF_LNA_OUT*%
X125512500Y-89916001D03*
%TO.P,C4,2*%
%TO.N,Net-(U1-RF_OUT)*%
X126472500Y-89916001D03*
%TD*%
D19*
%TO.P,C54,1*%
%TO.N,RFI_HF_LNA_IN*%
X135957000Y-110374999D03*
%TO.P,C54,2*%
%TO.N,Net-(U6-RF_IN)*%
X134997000Y-110374999D03*
%TD*%
%TO.P,C25,1*%
%TO.N,Net-(U2-CTRL)*%
X146253051Y-92981001D03*
%TO.P,C25,2*%
%TO.N,GND*%
X145293051Y-92981001D03*
%TD*%
D14*
%TO.P,C13,1*%
%TO.N,Net-(C10-Pad1)*%
X127028000Y-94996000D03*
%TO.P,C13,2*%
%TO.N,GND*%
X127988000Y-94996000D03*
%TD*%
D11*
%TO.P,C30,1*%
%TO.N,GND*%
X112979200Y-95405000D03*
%TO.P,C30,2*%
%TO.N,Net-(U4-VR_DIG)*%
X112979200Y-96365000D03*
%TD*%
D18*
%TO.P,R18,1*%
%TO.N,/DIO2_sx*%
X153033000Y-101854000D03*
%TO.P,R18,2*%
%TO.N,/DIO2*%
X154053000Y-101854000D03*
%TD*%
D14*
%TO.P,C53,1*%
%TO.N,+3V3*%
X131282500Y-112168999D03*
%TO.P,C53,2*%
%TO.N,GND*%
X132242500Y-112168999D03*
%TD*%
D18*
%TO.P,R11,1*%
%TO.N,RF_CONTROL*%
X150035800Y-112903000D03*
%TO.P,R11,2*%
%TO.N,RF_CONTROL_SW*%
X151055800Y-112903000D03*
%TD*%
D16*
%TO.P,L15,1,1*%
%TO.N,PA_BOOST*%
X118768000Y-106243000D03*
%TO.P,L15,2,2*%
%TO.N,Net-(C47-Pad1)*%
X119738000Y-106243000D03*
%TD*%
D19*
%TO.P,C34,1*%
%TO.N,+3V3*%
X148993800Y-108712000D03*
%TO.P,C34,2*%
%TO.N,GND*%
X148033800Y-108712000D03*
%TD*%
D13*
%TO.P,U2,1,RF1*%
%TO.N,RFI_LF_LNA_IN*%
X144706251Y-90331002D03*
%TO.P,U2,2,GND*%
%TO.N,GND*%
X144706251Y-90981001D03*
%TO.P,U2,3,RF2*%
%TO.N,RF_LF_SW*%
X144706251Y-91631000D03*
%TO.P,U2,4,CTRL*%
%TO.N,Net-(U2-CTRL)*%
X146839851Y-91631000D03*
%TO.P,U2,5,RFC*%
%TO.N,Net-(U2-RFC)*%
X146839851Y-90981001D03*
%TO.P,U2,6,\u002ACTRL/VDD*%
%TO.N,+3V3*%
X146839851Y-90331002D03*
%TD*%
D11*
%TO.P,C51,1*%
%TO.N,Net-(C48-Pad1)*%
X134767000Y-106394000D03*
%TO.P,C51,2*%
%TO.N,GND*%
X134767000Y-107354000D03*
%TD*%
D17*
%TO.P,R19,1*%
%TO.N,/MOSI_sx*%
X102364000Y-102870000D03*
%TO.P,R19,2*%
%TO.N,/MOSI*%
X101344000Y-102870000D03*
%TD*%
%TO.P,R24,1*%
%TO.N,/DIO5_sx*%
X102364000Y-99568000D03*
%TO.P,R24,2*%
%TO.N,/DIO5*%
X101344000Y-99568000D03*
%TD*%
D18*
%TO.P,R21,1*%
%TO.N,/DIO3_sx*%
X153033000Y-102870000D03*
%TO.P,R21,2*%
%TO.N,/DIO3*%
X154053000Y-102870000D03*
%TD*%
D14*
%TO.P,C41,1*%
%TO.N,Net-(C40-Pad2)*%
X124977000Y-110371000D03*
%TO.P,C41,2*%
%TO.N,RFI_HF_LNA_OUT*%
X125937000Y-110371000D03*
%TD*%
D36*
%TO.N,GND*%
X139954000Y-110744000D03*
D37*
X137668000Y-99822000D03*
D36*
X132334000Y-105410000D03*
D37*
X129159000Y-92735400D03*
X144927000Y-108204000D03*
D36*
X133223000Y-107315000D03*
X146050000Y-107315000D03*
X121666000Y-109347000D03*
D37*
X116459000Y-103985000D03*
D36*
X127000000Y-111252000D03*
X122428000Y-107188000D03*
X117475000Y-105283000D03*
X121666000Y-105283000D03*
D37*
X121957000Y-112025999D03*
D36*
X126619000Y-89027000D03*
X138684000Y-89154000D03*
X120142000Y-109347000D03*
X147447000Y-105410000D03*
X125857000Y-109347000D03*
X136271000Y-109347000D03*
X122936000Y-105283000D03*
D37*
X140716000Y-99822000D03*
D36*
X139319000Y-105410000D03*
D37*
X119634000Y-98044000D03*
D36*
X138557000Y-110744000D03*
X141478000Y-112014000D03*
X142367000Y-90932000D03*
D37*
X145265051Y-97775001D03*
D36*
X128270000Y-109347000D03*
D37*
X136525000Y-103096000D03*
X101727000Y-105283000D03*
X124038880Y-105274120D03*
X132171800Y-104255000D03*
D36*
X139192000Y-99060000D03*
D37*
X131802001Y-92697300D03*
X106807000Y-103985000D03*
D36*
X136652000Y-105410000D03*
D37*
X112979200Y-94672000D03*
X128701800Y-94996000D03*
D36*
X127127000Y-109347000D03*
X137160000Y-90932000D03*
X136525000Y-97282000D03*
X138557000Y-90932000D03*
D37*
X114014200Y-94672000D03*
D36*
X136271000Y-107315000D03*
D37*
X117475000Y-100457000D03*
D36*
X128397000Y-97282000D03*
X138303000Y-107315000D03*
X142494000Y-89154000D03*
D37*
X117602000Y-104112000D03*
X127980800Y-103112000D03*
X135509000Y-103096000D03*
D36*
X134366000Y-89154000D03*
X140462000Y-105410000D03*
X134747000Y-109347000D03*
X123063000Y-109347000D03*
D37*
X131663800Y-107938000D03*
X123444000Y-90805000D03*
X120799800Y-108108000D03*
D36*
X141351000Y-89154000D03*
X119507000Y-90805000D03*
X134747000Y-111379000D03*
X124460000Y-109347000D03*
X141097000Y-97155000D03*
X140081000Y-89154000D03*
X135890000Y-89154000D03*
X145034000Y-110744000D03*
D37*
X144630051Y-92949001D03*
D36*
X135763000Y-90932000D03*
X107823000Y-91948000D03*
X110490000Y-91567000D03*
X142621000Y-110744000D03*
X143891000Y-112014000D03*
D37*
X132175000Y-114236998D03*
D36*
X135255000Y-105410000D03*
X140081000Y-112014000D03*
X146050000Y-105410000D03*
X120523000Y-111252000D03*
X137287000Y-89154000D03*
X143129000Y-107315000D03*
X143129000Y-105410000D03*
X136144000Y-99187000D03*
X141732000Y-107315000D03*
D37*
X122301000Y-94869000D03*
X128143000Y-99822000D03*
X139791800Y-108065000D03*
D36*
X128270000Y-111252000D03*
D37*
X117398800Y-97409000D03*
D36*
X135382000Y-97282000D03*
X145161000Y-112014000D03*
X132588000Y-89154000D03*
D37*
X129286000Y-99822000D03*
X112522000Y-93091000D03*
D36*
X143764000Y-89154000D03*
X122936000Y-89027000D03*
X144653000Y-105410000D03*
X123190000Y-111252000D03*
X113284000Y-93726000D03*
X113284000Y-92710000D03*
X134366000Y-90932000D03*
D37*
X118491000Y-88142000D03*
D36*
X124587000Y-111252000D03*
X124968000Y-89027000D03*
X133858000Y-105410000D03*
X143764000Y-110744000D03*
D37*
X127218800Y-107938000D03*
X123825000Y-108013500D03*
D36*
X142748000Y-112014000D03*
X119253000Y-105283000D03*
X126746000Y-90805000D03*
D37*
X132937000Y-112204998D03*
D36*
X142240000Y-99060000D03*
X121031000Y-90805000D03*
X141351000Y-110744000D03*
D37*
X126111000Y-99822000D03*
D36*
X138684000Y-112014000D03*
D37*
X125821800Y-108065000D03*
X125730000Y-97028000D03*
X130429000Y-88138000D03*
D36*
X136271000Y-111379000D03*
X111887000Y-91567000D03*
D37*
X134747000Y-108077000D03*
D36*
X129921000Y-97282000D03*
X113157000Y-91694000D03*
X141224000Y-90932000D03*
D37*
X115030200Y-94672000D03*
D36*
X109093000Y-91567000D03*
X125857000Y-111252000D03*
D37*
X149653400Y-106407200D03*
X128701800Y-93853000D03*
D36*
X132588000Y-90932000D03*
X132715000Y-97282000D03*
D37*
X145392051Y-88250001D03*
D36*
X143637000Y-90932000D03*
X119507000Y-89027000D03*
X120523000Y-105283000D03*
X129540000Y-109347000D03*
D37*
X117751800Y-108108000D03*
X122174000Y-99695000D03*
X148082000Y-107823000D03*
X134620000Y-99822000D03*
D36*
X131953000Y-99060000D03*
X107823000Y-96393000D03*
X137795000Y-97282000D03*
D37*
X123952000Y-99695000D03*
X124460000Y-94869000D03*
D36*
X139954000Y-90932000D03*
X121031000Y-89027000D03*
X107823000Y-93218000D03*
D37*
X130429000Y-99822000D03*
D36*
X134112000Y-97282000D03*
X107823000Y-94488000D03*
X131318000Y-97282000D03*
X141732000Y-105410000D03*
X119380000Y-107188000D03*
X124968000Y-90805000D03*
D37*
X110871000Y-96393000D03*
%TO.N,+3V3*%
X129159000Y-91722000D03*
X146281051Y-97775001D03*
X129477000Y-113168499D03*
X101092000Y-97282000D03*
X106934000Y-103025000D03*
X131802001Y-91808300D03*
X148209000Y-113919000D03*
X148882003Y-107823000D03*
X127635000Y-87380000D03*
X146281051Y-88250001D03*
X131286000Y-114236998D03*
%TO.N,VR_PA*%
X131937000Y-101302000D03*
X117856000Y-101473000D03*
D36*
%TO.N,+5V*%
X154305000Y-100838000D03*
D37*
%TO.N,RF_CONTROL*%
X113411000Y-105156000D03*
X146685000Y-113284000D03*
%TO.N,RF_CONTROL_SW*%
X147701000Y-112395000D03*
X144462500Y-99123500D03*
D36*
%TO.N,/DIO0_sx*%
X107950000Y-98679000D03*
X150114000Y-105029000D03*
%TO.N,/DIO1_sx*%
X108069216Y-99446845D03*
X150749000Y-106807000D03*
%TO.N,/DIO2_sx*%
X107980251Y-100172749D03*
X151638000Y-107442000D03*
%TO.N,/DIO3_sx*%
X108075919Y-100878147D03*
X152400000Y-108204000D03*
%TO.N,/DIO4_sx*%
X108077000Y-101727000D03*
X152908000Y-109474000D03*
%TD*%
D38*
%TO.N,GND*%
X100647000Y-105283000D02*
X100838000Y-105283000D01*
D39*
X147396200Y-110744000D02*
X148125200Y-110744000D01*
X120777000Y-108085200D02*
X120799800Y-108108000D01*
D40*
X122401200Y-95806000D02*
X122401200Y-95096200D01*
D39*
X132044800Y-104255000D02*
X132171800Y-104255000D01*
X140688000Y-99182000D02*
X140688000Y-99667000D01*
X144789051Y-92981001D02*
X144757051Y-92949001D01*
X132754998Y-112168999D02*
X132718999Y-112168999D01*
X128115000Y-99182000D02*
X128115000Y-99794000D01*
X148463000Y-110406200D02*
X148463000Y-109784230D01*
D40*
X122401200Y-95096200D02*
X122301000Y-94996000D01*
D39*
X129867600Y-92735400D02*
X129921000Y-92682000D01*
D40*
X120876000Y-97056000D02*
X120345200Y-97586800D01*
D39*
X148982400Y-106426000D02*
X149507600Y-106426000D01*
X149653400Y-106280200D02*
X149526400Y-106407200D01*
D40*
X127678800Y-104049000D02*
X127853800Y-103874000D01*
D39*
X131703000Y-107771800D02*
X131663800Y-107811000D01*
X118491000Y-88142000D02*
X118452900Y-88357900D01*
D40*
X125766000Y-107049000D02*
X125766000Y-107755200D01*
D39*
X134767000Y-108057000D02*
X134767000Y-107354000D01*
X118452900Y-88931000D02*
X118491000Y-88142000D01*
D40*
X123901200Y-98806000D02*
X123901200Y-99517200D01*
D39*
X117729000Y-107191000D02*
X117729000Y-107704200D01*
X111720000Y-93051000D02*
X111213900Y-93051000D01*
X132937000Y-112204998D02*
X132754998Y-112168999D01*
X139807000Y-107922800D02*
X139791800Y-107938000D01*
X131802001Y-92697300D02*
X131079300Y-92697300D01*
X129258000Y-99794000D02*
X129286000Y-99822000D01*
X149526400Y-106407200D02*
X149653400Y-106407200D01*
D40*
X127266000Y-107049000D02*
X127266000Y-107763800D01*
D39*
X128701800Y-94996000D02*
X127988000Y-94996000D01*
X144757051Y-92949001D02*
X144630051Y-92949001D01*
D40*
X114995200Y-95405000D02*
X114995200Y-94818522D01*
D39*
X134747000Y-108077000D02*
X134767000Y-108057000D01*
X117729000Y-107704200D02*
X117751800Y-107727000D01*
X145520400Y-90039552D02*
X145266400Y-89785552D01*
D38*
X100838000Y-105283000D02*
X100600000Y-105283000D01*
X101727000Y-105283000D02*
X100838000Y-105283000D01*
D40*
X107809200Y-104022000D02*
X107772200Y-103985000D01*
D39*
X139664800Y-108065000D02*
X139791800Y-107938000D01*
X117348000Y-97459800D02*
X117398800Y-97409000D01*
X140716000Y-99822000D02*
X140843000Y-99822000D01*
D41*
X115418930Y-102309930D02*
X116459000Y-103350000D01*
D38*
X100528500Y-105211500D02*
X99822000Y-104505000D01*
D39*
X136525000Y-102334000D02*
X136525000Y-103096000D01*
D40*
X126766000Y-105299000D02*
X126516000Y-105549000D01*
X126516000Y-105549000D02*
X127266000Y-104799000D01*
X125349000Y-97056000D02*
X125575000Y-97056000D01*
X112135158Y-101009958D02*
X110185200Y-102959916D01*
X124079000Y-99695000D02*
X123952000Y-99568000D01*
D39*
X134620000Y-99822000D02*
X134620000Y-99182000D01*
D40*
X125730000Y-97028000D02*
X125730000Y-96901000D01*
D38*
X99822000Y-105505000D02*
X100425000Y-105505000D01*
D39*
X137668000Y-99822000D02*
X137668000Y-99182000D01*
X135580800Y-102271000D02*
X135600800Y-102251000D01*
X128701800Y-93853000D02*
X128320800Y-93853000D01*
X126111000Y-99822000D02*
X126365000Y-99822000D01*
X117475000Y-100457000D02*
X117094000Y-100457000D01*
D40*
X122301000Y-94996000D02*
X122301000Y-94869000D01*
D39*
X131703000Y-107275000D02*
X131703000Y-107771800D01*
X148463000Y-109784230D02*
X148033800Y-109355030D01*
X145293051Y-88476001D02*
X145392051Y-88377001D01*
X144927000Y-107435200D02*
X144956200Y-107406000D01*
D40*
X123901200Y-99517200D02*
X123952000Y-99568000D01*
X126266000Y-105299000D02*
X126516000Y-105549000D01*
D39*
X132004800Y-104295000D02*
X132044800Y-104255000D01*
X139807000Y-107374000D02*
X139807000Y-107922800D01*
X117348000Y-98067000D02*
X117348000Y-97459800D01*
D40*
X113995200Y-95405000D02*
X113995200Y-94691000D01*
D39*
X120345200Y-98042000D02*
X119890000Y-98042000D01*
X117066000Y-100485000D02*
X117475000Y-100457000D01*
D40*
X120345200Y-97915000D02*
X120345200Y-97586800D01*
D39*
X117751800Y-108108000D02*
X117751800Y-107727000D01*
D40*
X124333000Y-95504000D02*
X124460000Y-95377000D01*
X123571000Y-98806000D02*
X123901200Y-98806000D01*
X106807000Y-103985000D02*
X107772200Y-103985000D01*
D41*
X115081558Y-102309930D02*
X115418930Y-102309930D01*
D40*
X127266000Y-107763800D02*
X127218800Y-107811000D01*
D39*
X144706251Y-90981001D02*
X145201051Y-90981001D01*
X145392051Y-88250001D02*
X145519051Y-88250001D01*
D40*
X112135158Y-101009958D02*
X113435130Y-102309930D01*
D39*
X139791800Y-107938000D02*
X139791800Y-108065000D01*
X131508800Y-104295000D02*
X132004800Y-104295000D01*
X116459000Y-103350000D02*
X116459000Y-103985000D01*
X129159000Y-92735400D02*
X129867600Y-92735400D01*
X145265051Y-97775001D02*
X145293051Y-97493001D01*
D42*
X110772000Y-95758000D02*
X109573000Y-95758000D01*
D39*
X132171800Y-104128000D02*
X132044800Y-104255000D01*
D40*
X127266000Y-104799000D02*
X127266000Y-104049000D01*
X127091800Y-107938000D02*
X127218800Y-107811000D01*
X127980800Y-103747000D02*
X127980800Y-103112000D01*
D42*
X110772000Y-96294000D02*
X110871000Y-96393000D01*
D39*
X148033800Y-107871200D02*
X148082000Y-107823000D01*
D40*
X122174000Y-94869000D02*
X122301000Y-94996000D01*
D39*
X140716000Y-99695000D02*
X140716000Y-99822000D01*
X140688000Y-99667000D02*
X140716000Y-99695000D01*
D40*
X124325800Y-105299000D02*
X125016000Y-105299000D01*
D39*
X119634000Y-98044000D02*
X119888000Y-98044000D01*
X145201051Y-90981001D02*
X145520400Y-90661652D01*
D40*
X123952000Y-99695000D02*
X124079000Y-99695000D01*
X121651200Y-97056000D02*
X120876000Y-97056000D01*
X124460000Y-95377000D02*
X124460000Y-94869000D01*
D39*
X148125200Y-110744000D02*
X148463000Y-110406200D01*
D38*
X101727000Y-105283000D02*
X101600000Y-105156000D01*
D39*
X145293051Y-88981001D02*
X145293051Y-88476001D01*
D40*
X112135158Y-101009958D02*
X112785144Y-100359972D01*
D39*
X111760000Y-93091000D02*
X111720000Y-93051000D01*
X132175000Y-113982998D02*
X132175000Y-113236499D01*
D42*
X123151200Y-97306000D02*
X123547000Y-97306000D01*
D39*
X145392051Y-88377001D02*
X145392051Y-88250001D01*
D40*
X128016000Y-105299000D02*
X126766000Y-105299000D01*
X123401200Y-98806000D02*
X123571000Y-98806000D01*
X127218800Y-107811000D02*
X127218800Y-107938000D01*
D39*
X144630051Y-92822001D02*
X144757051Y-92949001D01*
D40*
X125821800Y-108065000D02*
X125821800Y-107811000D01*
X110185200Y-102959916D02*
X110185200Y-103956358D01*
D42*
X109766100Y-95564900D02*
X109573000Y-95758000D01*
D39*
X148033800Y-109355030D02*
X148033800Y-108712000D01*
X144734102Y-96422052D02*
X145293051Y-96981001D01*
D40*
X115030200Y-94853522D02*
X115030200Y-94672000D01*
D39*
X145266400Y-89007652D02*
X145293051Y-88981001D01*
X116713000Y-100485000D02*
X117066000Y-100485000D01*
D40*
X122901200Y-95806000D02*
X122401200Y-95806000D01*
X123571000Y-98806000D02*
X122901200Y-98806000D01*
X124460000Y-94869000D02*
X124460000Y-95123000D01*
D42*
X109766100Y-94401000D02*
X109766100Y-95564900D01*
D40*
X127266000Y-104049000D02*
X127678800Y-104049000D01*
D39*
X117602000Y-103350000D02*
X117602000Y-104112000D01*
X132171800Y-104255000D02*
X132171800Y-104128000D01*
X144927000Y-108204000D02*
X144927000Y-107435200D01*
X135525000Y-102354000D02*
X135525000Y-103080000D01*
D40*
X126266000Y-107049000D02*
X125766000Y-107049000D01*
D39*
X131663800Y-107811000D02*
X131663800Y-107938000D01*
D42*
X109766100Y-94401000D02*
X109863900Y-94401000D01*
D40*
X127980800Y-103112000D02*
X127980800Y-103366000D01*
D39*
X116713000Y-100485000D02*
X116587972Y-100359972D01*
X145520400Y-90661652D02*
X145520400Y-90039552D01*
D40*
X122901200Y-98806000D02*
X122401200Y-98806000D01*
D39*
X119890000Y-98042000D02*
X119634000Y-98044000D01*
D40*
X126766000Y-107049000D02*
X126266000Y-107049000D01*
X122401200Y-98806000D02*
X122401200Y-99467800D01*
D39*
X112522000Y-93091000D02*
X111760000Y-93091000D01*
D40*
X125603000Y-97028000D02*
X125730000Y-97028000D01*
D39*
X116459000Y-103985000D02*
X116459000Y-103858000D01*
X145293051Y-96981001D02*
X145265051Y-97775001D01*
D40*
X125730000Y-96901000D02*
X125603000Y-97028000D01*
D39*
X144734102Y-95631000D02*
X144734102Y-96422052D01*
D40*
X124031000Y-95806000D02*
X124333000Y-95504000D01*
D39*
X130401000Y-99182000D02*
X130401000Y-99794000D01*
D38*
X100425000Y-105505000D02*
X100647000Y-105283000D01*
D39*
X126367000Y-99820000D02*
X126111000Y-99822000D01*
X128115000Y-99794000D02*
X128143000Y-99822000D01*
X120777000Y-107188000D02*
X120777000Y-108085200D01*
D40*
X114995200Y-94818522D02*
X115030200Y-94853522D01*
D41*
X116459000Y-103350000D02*
X117602000Y-103350000D01*
D40*
X125575000Y-97056000D02*
X125603000Y-97028000D01*
D39*
X145266400Y-89785552D02*
X145266400Y-89007652D01*
X132242500Y-112168999D02*
X132683000Y-112168999D01*
X123825000Y-108013500D02*
X123825000Y-107378500D01*
X139791800Y-108065000D02*
X139664800Y-108065000D01*
X127988000Y-93853000D02*
X128701800Y-93853000D01*
X129258000Y-99182000D02*
X129258000Y-99794000D01*
X121957000Y-111488500D02*
X121957000Y-112025999D01*
X130401000Y-99794000D02*
X130429000Y-99822000D01*
X132683000Y-112168999D02*
X132937000Y-112204998D01*
X145293051Y-92981001D02*
X144789051Y-92981001D01*
D40*
X113995200Y-94691000D02*
X114014200Y-94672000D01*
D39*
X130429000Y-89793000D02*
X130429000Y-88138000D01*
X145519051Y-88250001D02*
X145392051Y-88377001D01*
D40*
X126766000Y-107049000D02*
X127266000Y-107049000D01*
X113435130Y-102309930D02*
X115081558Y-102309930D01*
X122401200Y-99467800D02*
X122174000Y-99695000D01*
D38*
X100600000Y-105283000D02*
X100528500Y-105211500D01*
D40*
X124651200Y-97056000D02*
X125349000Y-97056000D01*
X127218800Y-107938000D02*
X127091800Y-107938000D01*
X112785144Y-100359972D02*
X115081558Y-100359972D01*
D39*
X144630051Y-92949001D02*
X144630051Y-92822001D01*
D40*
X122301000Y-94869000D02*
X122174000Y-94869000D01*
D39*
X132175000Y-113236499D02*
X132242500Y-113168999D01*
X140843000Y-99822000D02*
X140716000Y-99695000D01*
D42*
X109863900Y-94401000D02*
X111213900Y-93051000D01*
D39*
X148033800Y-108712000D02*
X148033800Y-107871200D01*
X149507600Y-106426000D02*
X149526400Y-106407200D01*
X126873000Y-99820000D02*
X126367000Y-99820000D01*
D40*
X123444000Y-91565000D02*
X123444000Y-90805000D01*
X112979200Y-95405000D02*
X112979200Y-94672000D01*
D39*
X121942000Y-111503000D02*
X121957000Y-111518000D01*
D42*
X110772000Y-95758000D02*
X110772000Y-96294000D01*
D40*
X110185200Y-103956358D02*
X107800842Y-103956358D01*
X107800842Y-103956358D02*
X107772200Y-103985000D01*
D39*
X149653400Y-106407200D02*
X149653400Y-106280200D01*
D40*
X125766000Y-107755200D02*
X125821800Y-108065000D01*
X127853800Y-103874000D02*
X127980800Y-103747000D01*
X123901200Y-95806000D02*
X124031000Y-95806000D01*
D39*
X135525000Y-103080000D02*
X135509000Y-103096000D01*
X131079300Y-92697300D02*
X131064000Y-92682000D01*
X116587972Y-100359972D02*
X115081558Y-100359972D01*
D40*
X123952000Y-99568000D02*
X123952000Y-99695000D01*
D39*
%TO.N,/ANT1*%
X150671001Y-90981001D02*
X156337000Y-96647000D01*
X149227051Y-90981001D02*
X150671001Y-90981001D01*
X156337000Y-96647000D02*
X156337000Y-96743000D01*
%TO.N,Net-(U1-RF_IN)*%
X131432300Y-90043000D02*
X132961700Y-90043000D01*
%TO.N,RFI_LF_LNA_IN*%
X144418249Y-90043000D02*
X144706251Y-90331002D01*
X133959702Y-90081002D02*
X133921700Y-90043000D01*
X133921700Y-90043000D02*
X144418249Y-90043000D01*
%TO.N,Net-(U1-RF_OUT)*%
X127664499Y-89916001D02*
X127762000Y-89818500D01*
X128034600Y-90091100D02*
X127762000Y-89818500D01*
X126472500Y-89916001D02*
X127664499Y-89916001D01*
X127986500Y-90043000D02*
X129425700Y-90043000D01*
X126476499Y-89920000D02*
X126472500Y-89916001D01*
X127762000Y-89818500D02*
X127986500Y-90043000D01*
%TO.N,RFI_LF_LNA_OUT*%
X124472500Y-89916001D02*
X125512500Y-89916001D01*
D42*
%TO.N,XTA*%
X111485172Y-97302828D02*
X111732000Y-97056000D01*
X111732000Y-97056000D02*
X111732000Y-95758000D01*
X111485172Y-98063558D02*
X111485172Y-97302828D01*
%TO.N,XTB*%
X110835186Y-98063558D02*
X110835186Y-97246186D01*
X108613000Y-93825000D02*
X109387000Y-93051000D01*
X108585000Y-95786000D02*
X108613000Y-95758000D01*
X108585000Y-96352529D02*
X108585000Y-95786000D01*
X110363000Y-96774000D02*
X109006471Y-96774000D01*
X110835186Y-97246186D02*
X110363000Y-96774000D01*
X109387000Y-93051000D02*
X109766100Y-93051000D01*
X109006471Y-96774000D02*
X108585000Y-96352529D01*
X108613000Y-95758000D02*
X108613000Y-93825000D01*
D39*
%TO.N,Net-(C7-Pad1)*%
X120461900Y-89916001D02*
X121520901Y-89916001D01*
X121520901Y-89916001D02*
X121528900Y-89924000D01*
%TO.N,Net-(C7-Pad2)*%
X122488900Y-89924000D02*
X123504501Y-89924000D01*
X123504501Y-89924000D02*
X123512500Y-89916001D01*
%TO.N,Net-(C10-Pad1)*%
X127028000Y-93853000D02*
X127028000Y-92867000D01*
X127000000Y-96014000D02*
X127002000Y-96012000D01*
X127028000Y-94996000D02*
X127028000Y-93853000D01*
X127002000Y-96012000D02*
X127002000Y-95022000D01*
X127000000Y-97178000D02*
X127000000Y-96014000D01*
X127002000Y-95022000D02*
X127028000Y-94996000D01*
X127026000Y-93851000D02*
X127028000Y-93853000D01*
X127028000Y-92867000D02*
X127000000Y-92839000D01*
X126977200Y-97277000D02*
X126972200Y-97282000D01*
X126998000Y-93823000D02*
X127028000Y-93853000D01*
%TO.N,Net-(U2-RFC)*%
X146839851Y-90981001D02*
X148267051Y-90981001D01*
%TO.N,/ANT2*%
X151943000Y-110744000D02*
X152527000Y-110744000D01*
X156337000Y-106934000D02*
X156337000Y-104743000D01*
X152527000Y-110744000D02*
X156337000Y-106934000D01*
%TO.N,Net-(C12-Pad2)*%
X140660000Y-98194000D02*
X140688000Y-98222000D01*
X139649000Y-98194000D02*
X140660000Y-98194000D01*
X140762000Y-98148000D02*
X140688000Y-98222000D01*
X139672000Y-96901000D02*
X139672000Y-98171000D01*
X141732000Y-98148000D02*
X140762000Y-98148000D01*
X139672000Y-98171000D02*
X139649000Y-98194000D01*
%TO.N,Net-(C12-Pad1)*%
X138651000Y-98222000D02*
X138679000Y-98194000D01*
X138679000Y-96934000D02*
X138712000Y-96901000D01*
X138679000Y-98194000D02*
X138679000Y-96934000D01*
X137668000Y-98222000D02*
X138651000Y-98222000D01*
X136624000Y-98194000D02*
X137640000Y-98194000D01*
X137640000Y-98194000D02*
X137668000Y-98222000D01*
%TO.N,LF_PA_OUT*%
X133454000Y-98194000D02*
X133477000Y-98217000D01*
X133477000Y-98217000D02*
X134615000Y-98217000D01*
X134620000Y-98222000D02*
X135636000Y-98222000D01*
X134615000Y-98217000D02*
X134620000Y-98222000D01*
X132433000Y-98194000D02*
X133454000Y-98194000D01*
X135636000Y-98222000D02*
X135664000Y-98194000D01*
%TO.N,Net-(IC1-RF_IN_1)*%
X119301200Y-99060000D02*
X120220200Y-99060000D01*
X121156000Y-99062000D02*
X121651200Y-98566800D01*
X121651200Y-98056000D02*
X121651200Y-97573650D01*
X121651200Y-98566800D02*
X121651200Y-98056000D01*
X120345200Y-99062000D02*
X121156000Y-99062000D01*
%TO.N,RFO_LF*%
X115104558Y-99037000D02*
X115081558Y-99060000D01*
X117325000Y-99060000D02*
X117348000Y-99037000D01*
X117348000Y-99037000D02*
X115104558Y-99037000D01*
D40*
X117198000Y-99060000D02*
X117348000Y-98910000D01*
X118318200Y-98910000D02*
X118341200Y-98933000D01*
D39*
X117371000Y-99060000D02*
X117348000Y-99037000D01*
X118341200Y-99060000D02*
X117371000Y-99060000D01*
X118318200Y-99037000D02*
X118341200Y-99060000D01*
D40*
%TO.N,Net-(IC1-RF_OUT{slash}VDD_1)*%
X127000000Y-98148000D02*
X128041000Y-98148000D01*
D39*
X130401000Y-98222000D02*
X131445000Y-98222000D01*
D40*
X126908000Y-98056000D02*
X127000000Y-98148000D01*
X124651200Y-97556000D02*
X124651200Y-98056000D01*
D39*
X129258000Y-98222000D02*
X130401000Y-98222000D01*
D40*
X128041000Y-98148000D02*
X128115000Y-98222000D01*
D39*
X128016000Y-98321000D02*
X128115000Y-98222000D01*
X129258000Y-98222000D02*
X128115000Y-98222000D01*
X131445000Y-98222000D02*
X131473000Y-98194000D01*
D40*
X124651200Y-98056000D02*
X126908000Y-98056000D01*
D39*
%TO.N,+3V3*%
X146253051Y-88981001D02*
X146253051Y-88278001D01*
X131282500Y-112168999D02*
X131282500Y-113168999D01*
X148209000Y-113919000D02*
X148336000Y-113883000D01*
X148993800Y-107934797D02*
X148993800Y-108712000D01*
X146253051Y-97493001D02*
X146281051Y-97775001D01*
D40*
X107772200Y-103025000D02*
X106835000Y-103025000D01*
D42*
X112785144Y-98063558D02*
X112785144Y-97476056D01*
D39*
X129159000Y-91722000D02*
X129921000Y-91722000D01*
X114104786Y-96474586D02*
X113995200Y-96365000D01*
X146536400Y-89264350D02*
X146536400Y-90027551D01*
D40*
X116459000Y-102222768D02*
X116459000Y-102390000D01*
D39*
X146253051Y-96981001D02*
X146253051Y-97493001D01*
X146460998Y-94331002D02*
X145923000Y-94869000D01*
D42*
X112785144Y-97476056D02*
X112979200Y-97282000D01*
D39*
X116459000Y-102311200D02*
X116459000Y-102390000D01*
X146253051Y-88981001D02*
X146536400Y-89264350D01*
X116388000Y-102390000D02*
X116459000Y-102390000D01*
X146812000Y-94331002D02*
X146460998Y-94331002D01*
D40*
X106934000Y-103025000D02*
X106835000Y-103025000D01*
D39*
X146253051Y-88278001D02*
X146253051Y-88532001D01*
X116459000Y-102338971D02*
X116459000Y-102390000D01*
X148336000Y-113883000D02*
X148372000Y-113883000D01*
D40*
X106835000Y-103025000D02*
X107223200Y-103025000D01*
D39*
X148963000Y-113883000D02*
X148408000Y-113883000D01*
D40*
X115883944Y-101659944D02*
X116459000Y-102235000D01*
D42*
X113915334Y-96365000D02*
X113995200Y-96365000D01*
D39*
X146536400Y-90027551D02*
X146839851Y-90331002D01*
D38*
X100742000Y-97505000D02*
X101092000Y-97282000D01*
D40*
X107772758Y-103025558D02*
X107772200Y-103025000D01*
X117602000Y-102390000D02*
X116459000Y-102390000D01*
D39*
X148408000Y-113883000D02*
X148209000Y-113919000D01*
X146281051Y-88250001D02*
X146253051Y-88278001D01*
D42*
X112979200Y-97282000D02*
X112998334Y-97282000D01*
D39*
X129477000Y-113168499D02*
X129477000Y-112158500D01*
D40*
X107837284Y-102959916D02*
X107772200Y-103025000D01*
D38*
X101092000Y-97282000D02*
X100965000Y-97282000D01*
D39*
X129487499Y-112168999D02*
X129477000Y-112158500D01*
X131286000Y-113982998D02*
X131286000Y-113172499D01*
X148882003Y-107823000D02*
X148993800Y-107934797D01*
X146281051Y-97775001D02*
X146281051Y-97521001D01*
X127635000Y-88116500D02*
X127762000Y-88243500D01*
X131286000Y-113172499D02*
X131282500Y-113168999D01*
X131802001Y-91808300D02*
X131150300Y-91808300D01*
X146253051Y-96604001D02*
X146253051Y-96981001D01*
D38*
X99822000Y-97505000D02*
X100742000Y-97505000D01*
D39*
X127635000Y-87380000D02*
X127635000Y-88116500D01*
D40*
X115883944Y-101659944D02*
X115081558Y-101659944D01*
D39*
X145923000Y-94869000D02*
X145923000Y-96273950D01*
X131282500Y-112168999D02*
X129487499Y-112168999D01*
D42*
X112998334Y-97282000D02*
X113915334Y-96365000D01*
D39*
X131150300Y-91808300D02*
X131064000Y-91722000D01*
D40*
X116459000Y-102235000D02*
X116459000Y-102390000D01*
D39*
X148993800Y-109558001D02*
X149529800Y-110094001D01*
X145923000Y-96273950D02*
X146253051Y-96604001D01*
D40*
X109188758Y-102959916D02*
X107837284Y-102959916D01*
D39*
X148993800Y-108712000D02*
X148993800Y-109558001D01*
%TO.N,Net-(U2-CTRL)*%
X146253051Y-92596001D02*
X146839851Y-92009201D01*
X146812000Y-95631000D02*
X147599552Y-95631000D01*
X146839851Y-92009201D02*
X146839851Y-91631000D01*
X146253051Y-92981001D02*
X146253051Y-92596001D01*
X148186051Y-95044501D02*
X148186051Y-93584001D01*
X147583051Y-92981001D02*
X146253051Y-92981001D01*
X148186051Y-93584001D02*
X147583051Y-92981001D01*
X147599552Y-95631000D02*
X148186051Y-95044501D01*
D42*
%TO.N,Net-(U4-VR_ANA)*%
X113919000Y-97155000D02*
X114205200Y-97155000D01*
X113435130Y-97638870D02*
X113919000Y-97155000D01*
X113435130Y-98063558D02*
X113435130Y-97638870D01*
X114205200Y-97155000D02*
X114995200Y-96365000D01*
D39*
%TO.N,VR_PA*%
X134525000Y-100870000D02*
X134525000Y-101389000D01*
X117193000Y-101445000D02*
X117221000Y-101473000D01*
X134525000Y-101389000D02*
X132024000Y-101389000D01*
X116122958Y-101009958D02*
X116558000Y-101445000D01*
X116558000Y-101445000D02*
X116713000Y-101445000D01*
X115081558Y-101009958D02*
X116122958Y-101009958D01*
X136525000Y-101374000D02*
X135545000Y-101374000D01*
X132024000Y-101389000D02*
X131937000Y-101302000D01*
X133477000Y-99822000D02*
X134525000Y-100870000D01*
X134530000Y-101394000D02*
X134525000Y-101389000D01*
X117856000Y-101473000D02*
X117221000Y-101473000D01*
X133477000Y-99187000D02*
X133477000Y-99822000D01*
X135525000Y-101394000D02*
X134530000Y-101394000D01*
X135545000Y-101374000D02*
X135525000Y-101394000D01*
X116713000Y-101445000D02*
X117193000Y-101445000D01*
X131937000Y-101302000D02*
X131993000Y-101246000D01*
D42*
%TO.N,Net-(U4-VR_DIG)*%
X112135158Y-98063558D02*
X112135158Y-97364042D01*
X112979200Y-96520000D02*
X112979200Y-96365000D01*
X112135158Y-97364042D02*
X112979200Y-96520000D01*
D39*
%TO.N,Net-(C33-Pad2)*%
X142951200Y-106406000D02*
X142971200Y-106426000D01*
X141842200Y-106406000D02*
X142951200Y-106406000D01*
%TO.N,Net-(C33-Pad1)*%
X140882200Y-106406000D02*
X139882200Y-106406000D01*
X139827000Y-106394000D02*
X139807000Y-106414000D01*
X134525000Y-103537000D02*
X134525000Y-102359000D01*
X135636000Y-104648000D02*
X134525000Y-103537000D01*
X138792000Y-106414000D02*
X138792000Y-106094001D01*
X138792000Y-106414000D02*
X139807000Y-106414000D01*
X137345999Y-104648000D02*
X135636000Y-104648000D01*
X138792000Y-106094001D02*
X137345999Y-104648000D01*
%TO.N,Net-(C36-Pad2)*%
X144956200Y-106446000D02*
X145951200Y-106446000D01*
X145951200Y-106446000D02*
X145971200Y-106426000D01*
X143941200Y-106426000D02*
X144936200Y-106426000D01*
X144936200Y-106426000D02*
X144956200Y-106446000D01*
%TO.N,Net-(U5-RFC)*%
X149529800Y-110744000D02*
X150983000Y-110744000D01*
%TO.N,Net-(C40-Pad1)*%
X121929000Y-110374999D02*
X121957000Y-110402999D01*
X122078501Y-110498000D02*
X121983500Y-110402999D01*
X122977000Y-110371000D02*
X122078501Y-110371000D01*
X120944500Y-110374999D02*
X121929000Y-110374999D01*
%TO.N,Net-(C40-Pad2)*%
X123937000Y-110371000D02*
X124977000Y-110371000D01*
%TO.N,RFI_HF_LNA_OUT*%
X125937000Y-110371000D02*
X126997000Y-110371000D01*
%TO.N,Net-(C43-Pad1)*%
X130548800Y-104295000D02*
X130548800Y-103182000D01*
X129454000Y-105146000D02*
X130449000Y-105146000D01*
X130597000Y-104343200D02*
X130548800Y-104295000D01*
X130597000Y-105294000D02*
X130597000Y-104343200D01*
X130449000Y-105146000D02*
X130597000Y-105294000D01*
X130548800Y-103182000D02*
X130518800Y-103152000D01*
%TO.N,Net-(IC2-RF_IN_1)*%
X125016000Y-106299000D02*
X124057800Y-106299000D01*
X125016000Y-106299000D02*
X125016000Y-105816650D01*
%TO.N,Net-(C47-Pad1)*%
X121740000Y-106218000D02*
X121821000Y-106299000D01*
X119738000Y-106243000D02*
X120752000Y-106243000D01*
X120752000Y-106243000D02*
X120777000Y-106218000D01*
X120777000Y-106218000D02*
X121740000Y-106218000D01*
%TO.N,Net-(C48-Pad1)*%
X134787000Y-106374000D02*
X134767000Y-106394000D01*
X133772000Y-106394000D02*
X133752000Y-106374000D01*
X134767000Y-106394000D02*
X133772000Y-106394000D01*
X135787000Y-106374000D02*
X134787000Y-106374000D01*
%TO.N,HF_PA_OUT*%
X136787000Y-106414000D02*
X136747000Y-106374000D01*
X137822000Y-106414000D02*
X136787000Y-106414000D01*
%TO.N,PA_BOOST*%
X118756000Y-106231000D02*
X118768000Y-106243000D01*
X115081558Y-99709986D02*
X117870986Y-99709986D01*
X118745000Y-105215000D02*
X117729000Y-106231000D01*
X117870986Y-99709986D02*
X118745000Y-100584000D01*
X117729000Y-106231000D02*
X118756000Y-106231000D01*
X117856000Y-106104000D02*
X117729000Y-106231000D01*
X118745000Y-100584000D02*
X118745000Y-105215000D01*
%TO.N,Net-(IC2-RF_OUT{slash}VDD_1)*%
X131762000Y-106374000D02*
X131703000Y-106315000D01*
X130597000Y-106264000D02*
X131652000Y-106264000D01*
X131652000Y-106264000D02*
X131703000Y-106315000D01*
X130597000Y-106264000D02*
X128051000Y-106264000D01*
D40*
X128016000Y-105799000D02*
X128016000Y-106299000D01*
D39*
X128051000Y-106264000D02*
X128016000Y-106299000D01*
X132782000Y-106374000D02*
X131762000Y-106374000D01*
%TO.N,Net-(U6-RF_IN)*%
X133477000Y-110370999D02*
X134993000Y-110370999D01*
X134993000Y-110370999D02*
X134997000Y-110374999D01*
%TO.N,RFI_HF_LNA_IN*%
X135957000Y-110374999D02*
X136663999Y-110374999D01*
X137682999Y-111393999D02*
X147396200Y-111393999D01*
X136663999Y-110374999D02*
X137682999Y-111393999D01*
%TO.N,Net-(U6-RF_OUT)*%
X129264500Y-110371000D02*
X129477000Y-110583500D01*
X127957000Y-110371000D02*
X129264500Y-110371000D01*
X131470400Y-110370999D02*
X129689501Y-110370999D01*
X129689501Y-110370999D02*
X129477000Y-110583500D01*
D40*
%TO.N,Net-(IC1-VEN1)*%
X121651200Y-96556000D02*
X121067000Y-96556000D01*
X121067000Y-96556000D02*
X120779000Y-96268000D01*
X120779000Y-96268000D02*
X120345200Y-96268000D01*
%TO.N,Net-(IC1-BIAS1)*%
X123401200Y-95806000D02*
X123401200Y-95165800D01*
X123444000Y-95123000D02*
X123444000Y-94617000D01*
X123401200Y-95165800D02*
X123444000Y-95123000D01*
%TO.N,Net-(IC1-BIAS2)*%
X124651200Y-96556000D02*
X125186000Y-96556000D01*
X125186000Y-96556000D02*
X125728000Y-96014000D01*
X125728000Y-96014000D02*
X125933200Y-96014000D01*
%TO.N,Net-(IC2-BIAS2)*%
X128016000Y-104727800D02*
X128617800Y-104126000D01*
X128617800Y-104126000D02*
X129454000Y-104126000D01*
X128016000Y-104799000D02*
X128016000Y-104727800D01*
%TO.N,Net-(IC2-VEN1)*%
X125016000Y-104799000D02*
X125016000Y-104592200D01*
X124680800Y-104257000D02*
X123662800Y-104257000D01*
X125016000Y-104592200D02*
X124680800Y-104257000D01*
%TO.N,Net-(IC2-BIAS1)*%
X126766000Y-104049000D02*
X126766000Y-102931800D01*
X126766000Y-102931800D02*
X126837800Y-102860000D01*
D38*
%TO.N,/DIO0*%
X154055000Y-98806000D02*
X156274000Y-98806000D01*
X156274000Y-98806000D02*
X156337000Y-98743000D01*
%TO.N,/DIO3*%
X156210000Y-102870000D02*
X156337000Y-102743000D01*
X154053000Y-102870000D02*
X156210000Y-102870000D01*
D40*
%TO.N,+5V*%
X156337000Y-100743000D02*
X154527000Y-100743000D01*
X154305000Y-100965000D02*
X154432000Y-100838000D01*
X154432000Y-100838000D02*
X154305000Y-100838000D01*
X154527000Y-100743000D02*
X154432000Y-100838000D01*
X154305000Y-100838000D02*
X154305000Y-100965000D01*
D38*
%TO.N,/DIO2*%
X154053000Y-101854000D02*
X156226000Y-101854000D01*
X156226000Y-101854000D02*
X156337000Y-101743000D01*
%TO.N,/DIO1*%
X154055000Y-99822000D02*
X156258000Y-99822000D01*
X156258000Y-99822000D02*
X156337000Y-99743000D01*
%TO.N,/DIO4*%
X154216000Y-103743000D02*
X154073000Y-103886000D01*
X156337000Y-103743000D02*
X154216000Y-103743000D01*
%TO.N,/MISO*%
X100044000Y-101727000D02*
X99822000Y-101505000D01*
X101344000Y-101727000D02*
X100044000Y-101727000D01*
%TO.N,/NSS*%
X100711000Y-104013000D02*
X100203000Y-103505000D01*
X101344000Y-104013000D02*
X100711000Y-104013000D01*
X100203000Y-103505000D02*
X99822000Y-103505000D01*
%TO.N,/SCK*%
X99901000Y-100584000D02*
X99822000Y-100505000D01*
X101344000Y-100584000D02*
X99901000Y-100584000D01*
%TO.N,/MOSI*%
X101344000Y-102870000D02*
X100711000Y-102870000D01*
X100711000Y-102870000D02*
X100346000Y-102505000D01*
X100346000Y-102505000D02*
X99822000Y-102505000D01*
%TO.N,/NRESET*%
X99869000Y-98552000D02*
X99822000Y-98505000D01*
X101344000Y-98552000D02*
X99869000Y-98552000D01*
%TO.N,/DIO5*%
X101344000Y-99568000D02*
X99885000Y-99568000D01*
X99885000Y-99568000D02*
X99822000Y-99505000D01*
D39*
%TO.N,RFI_LF*%
X119476899Y-89901000D02*
X119491900Y-89916001D01*
X117348000Y-91255900D02*
X117348000Y-95885000D01*
X118452900Y-90151000D02*
X117348000Y-91255900D01*
X115169442Y-98063558D02*
X114085116Y-98063558D01*
X117348000Y-95885000D02*
X115169442Y-98063558D01*
X118452900Y-89901000D02*
X119476899Y-89901000D01*
%TO.N,RFI_HF*%
X114085116Y-103956358D02*
X114085116Y-105449116D01*
X114085116Y-105449116D02*
X118883999Y-110247999D01*
X118883999Y-110247999D02*
X119974500Y-110247999D01*
%TO.N,Net-(R1-Pad2)*%
X123444000Y-93597000D02*
X123444000Y-92585000D01*
%TO.N,Net-(R10-Pad1)*%
X126837800Y-100875200D02*
X126873000Y-100840000D01*
X126837800Y-101840000D02*
X126837800Y-100875200D01*
%TO.N,RF_CONTROL*%
X113435130Y-105131870D02*
X113435130Y-104750870D01*
X147899800Y-113284000D02*
X148320800Y-112863000D01*
X150035800Y-112903000D02*
X149003000Y-112903000D01*
X146685000Y-113284000D02*
X147899800Y-113284000D01*
X149003000Y-112903000D02*
X148963000Y-112863000D01*
X148320800Y-112863000D02*
X148963000Y-112863000D01*
X146685000Y-113284000D02*
X146812000Y-113284000D01*
X113435130Y-103956358D02*
X113435130Y-105131870D01*
X113411000Y-105156000D02*
X113435130Y-105131870D01*
%TO.N,RF_CONTROL_SW*%
X144462500Y-99123500D02*
X144462500Y-98234500D01*
X151055800Y-112903000D02*
X151055800Y-111939800D01*
X147828000Y-112395000D02*
X148829001Y-111393999D01*
X147701000Y-112395000D02*
X147828000Y-112395000D01*
X143905999Y-94981001D02*
X144734102Y-94981001D01*
X150509999Y-111393999D02*
X149529800Y-111393999D01*
X144462500Y-98234500D02*
X143510000Y-97282000D01*
X143510000Y-97282000D02*
X143510000Y-95377000D01*
X143510000Y-95377000D02*
X143905999Y-94981001D01*
X148829001Y-111393999D02*
X149529800Y-111393999D01*
X151055800Y-111939800D02*
X150509999Y-111393999D01*
D38*
%TO.N,/DIO0_sx*%
X150114000Y-100076000D02*
X151384000Y-98806000D01*
X150114000Y-105029000D02*
X150114000Y-100076000D01*
X151384000Y-98806000D02*
X153035000Y-98806000D01*
X107950000Y-98679000D02*
X108077000Y-98679000D01*
X108077000Y-98679000D02*
X108458000Y-99060000D01*
X108458000Y-99060000D02*
X109188758Y-99060000D01*
%TO.N,/NRESET_sx*%
X102743000Y-98552000D02*
X103231442Y-98063558D01*
X102364000Y-98552000D02*
X102743000Y-98552000D01*
X103231442Y-98063558D02*
X110185200Y-98063558D01*
%TO.N,/DIO1_sx*%
X150749000Y-106807000D02*
X150749000Y-101219000D01*
X150749000Y-101219000D02*
X152146000Y-99822000D01*
X108069216Y-99446845D02*
X108332357Y-99709986D01*
X108204000Y-99581629D02*
X108069216Y-99446845D01*
X152146000Y-99822000D02*
X153035000Y-99822000D01*
X108332357Y-99709986D02*
X109188758Y-99709986D01*
%TO.N,/NSS_sx*%
X103378000Y-104013000D02*
X102364000Y-104013000D01*
X111379000Y-106299000D02*
X105664000Y-106299000D01*
X112785144Y-103956358D02*
X112785144Y-104892856D01*
X112785144Y-104892856D02*
X111379000Y-106299000D01*
X105664000Y-106299000D02*
X103378000Y-104013000D01*
%TO.N,/DIO2_sx*%
X151511000Y-107256200D02*
X151511000Y-102870000D01*
X151638000Y-107383200D02*
X151511000Y-107256200D01*
X151696800Y-107442000D02*
X151696800Y-107442000D01*
X108167473Y-100359972D02*
X109188758Y-100359972D01*
X107980251Y-100172749D02*
X107980251Y-100172750D01*
X107980251Y-100172750D02*
X108167473Y-100359972D01*
X151638000Y-107442000D02*
X151638000Y-107383200D01*
X152527000Y-101854000D02*
X153033000Y-101854000D01*
X151511000Y-102870000D02*
X152527000Y-101854000D01*
X151696800Y-107442000D02*
X151638000Y-107442000D01*
%TO.N,/MOSI_sx*%
X104140000Y-102870000D02*
X102364000Y-102870000D01*
X112135158Y-104780842D02*
X110998000Y-105918000D01*
X104902000Y-103632000D02*
X104140000Y-102870000D01*
X105981500Y-105918000D02*
X104902000Y-104838500D01*
X110998000Y-105918000D02*
X105981500Y-105918000D01*
X112135158Y-103956358D02*
X112135158Y-104780842D01*
X104902000Y-104838500D02*
X104902000Y-103632000D01*
%TO.N,/DIO3_sx*%
X152476800Y-108204000D02*
X152476800Y-108204000D01*
X152476800Y-108204000D02*
X152400000Y-108204000D01*
X108434758Y-101009958D02*
X109188758Y-101009958D01*
X152400000Y-108127200D02*
X152273000Y-108000200D01*
X108075919Y-100878147D02*
X108302947Y-100878147D01*
X108302947Y-100878147D02*
X108434758Y-101009958D01*
X152273000Y-108000200D02*
X152273000Y-103505000D01*
X152400000Y-108204000D02*
X152400000Y-108127200D01*
X152908000Y-102870000D02*
X153033000Y-102870000D01*
X152273000Y-103505000D02*
X152908000Y-102870000D01*
%TO.N,/MISO_sx*%
X111485172Y-104668828D02*
X110744000Y-105410000D01*
X104140000Y-101727000D02*
X102364000Y-101727000D01*
X106553000Y-105410000D02*
X105537000Y-104394000D01*
X111485172Y-103956358D02*
X111485172Y-104668828D01*
X110744000Y-105410000D02*
X106553000Y-105410000D01*
X105537000Y-103124000D02*
X104140000Y-101727000D01*
X105537000Y-104394000D02*
X105537000Y-103124000D01*
%TO.N,/DIO4_sx*%
X108144056Y-101659944D02*
X109188758Y-101659944D01*
X108077000Y-101727000D02*
X108144056Y-101659944D01*
X153053000Y-109329000D02*
X153053000Y-103886000D01*
X108077000Y-101727000D02*
X108204000Y-101727000D01*
X152908000Y-109474000D02*
X153053000Y-109329000D01*
%TO.N,/DIO5_sx*%
X109188758Y-102309930D02*
X109136688Y-102362000D01*
X107188000Y-102362000D02*
X104394000Y-99568000D01*
X109136688Y-102362000D02*
X107188000Y-102362000D01*
X104394000Y-99568000D02*
X102364000Y-99568000D01*
%TO.N,/SCK_sx*%
X106172000Y-102489000D02*
X104267000Y-100584000D01*
X110835186Y-104556814D02*
X110490000Y-104902000D01*
X110835186Y-103956358D02*
X110835186Y-104556814D01*
X104267000Y-100584000D02*
X102364000Y-100584000D01*
X110490000Y-104902000D02*
X106807000Y-104902000D01*
X106807000Y-104902000D02*
X106172000Y-104267000D01*
X106172000Y-104267000D02*
X106172000Y-102489000D01*
D39*
%TO.N,RF_HF_SW*%
X147396200Y-109804200D02*
X146941200Y-109349200D01*
X147936200Y-106426000D02*
X147956200Y-106446000D01*
X146941200Y-109349200D02*
X146941200Y-106426000D01*
X146941200Y-106426000D02*
X147936200Y-106426000D01*
X147396200Y-110094001D02*
X147396200Y-109804200D01*
%TO.N,RF_LF_SW*%
X143446000Y-91631000D02*
X144706251Y-91631000D01*
X142367000Y-97328000D02*
X142367000Y-92710000D01*
X142725000Y-98171000D02*
X142725000Y-97686000D01*
X142725000Y-97686000D02*
X142367000Y-97328000D01*
X142367000Y-92710000D02*
X143446000Y-91631000D01*
%TD*%
M02*
