%TF.GenerationSoftware,KiCad,Pcbnew,7.0.1*%
%TF.CreationDate,2024-01-21T13:12:55-07:00*%
%TF.ProjectId,camera_v1,63616d65-7261-45f7-9631-2e6b69636164,rev?*%
%TF.SameCoordinates,Original*%
%TF.FileFunction,Other,Comment*%
%FSLAX46Y46*%
G04 Gerber Fmt 4.6, Leading zero omitted, Abs format (unit mm)*
G04 Created by KiCad (PCBNEW 7.0.1) date 2024-01-21 13:12:55*
%MOMM*%
%LPD*%
G01*
G04 APERTURE LIST*
%ADD10C,0.100000*%
G04 APERTURE END LIST*
D10*
%TO.C,X1*%
X152984762Y-139713619D02*
X152984762Y-138713619D01*
X153556190Y-139713619D02*
X153127619Y-139142190D01*
X153556190Y-138713619D02*
X152984762Y-139285047D01*
X153984762Y-139189809D02*
X154318095Y-139189809D01*
X154460952Y-139713619D02*
X153984762Y-139713619D01*
X153984762Y-139713619D02*
X153984762Y-138713619D01*
X153984762Y-138713619D02*
X154460952Y-138713619D01*
X154889524Y-139189809D02*
X155222857Y-139189809D01*
X155365714Y-139713619D02*
X154889524Y-139713619D01*
X154889524Y-139713619D02*
X154889524Y-138713619D01*
X154889524Y-138713619D02*
X155365714Y-138713619D01*
X155794286Y-139713619D02*
X155794286Y-138713619D01*
X155794286Y-138713619D02*
X156175238Y-138713619D01*
X156175238Y-138713619D02*
X156270476Y-138761238D01*
X156270476Y-138761238D02*
X156318095Y-138808857D01*
X156318095Y-138808857D02*
X156365714Y-138904095D01*
X156365714Y-138904095D02*
X156365714Y-139046952D01*
X156365714Y-139046952D02*
X156318095Y-139142190D01*
X156318095Y-139142190D02*
X156270476Y-139189809D01*
X156270476Y-139189809D02*
X156175238Y-139237428D01*
X156175238Y-139237428D02*
X155794286Y-139237428D01*
X156984762Y-138713619D02*
X157175238Y-138713619D01*
X157175238Y-138713619D02*
X157270476Y-138761238D01*
X157270476Y-138761238D02*
X157365714Y-138856476D01*
X157365714Y-138856476D02*
X157413333Y-139046952D01*
X157413333Y-139046952D02*
X157413333Y-139380285D01*
X157413333Y-139380285D02*
X157365714Y-139570761D01*
X157365714Y-139570761D02*
X157270476Y-139666000D01*
X157270476Y-139666000D02*
X157175238Y-139713619D01*
X157175238Y-139713619D02*
X156984762Y-139713619D01*
X156984762Y-139713619D02*
X156889524Y-139666000D01*
X156889524Y-139666000D02*
X156794286Y-139570761D01*
X156794286Y-139570761D02*
X156746667Y-139380285D01*
X156746667Y-139380285D02*
X156746667Y-139046952D01*
X156746667Y-139046952D02*
X156794286Y-138856476D01*
X156794286Y-138856476D02*
X156889524Y-138761238D01*
X156889524Y-138761238D02*
X156984762Y-138713619D01*
X157841905Y-138713619D02*
X157841905Y-139523142D01*
X157841905Y-139523142D02*
X157889524Y-139618380D01*
X157889524Y-139618380D02*
X157937143Y-139666000D01*
X157937143Y-139666000D02*
X158032381Y-139713619D01*
X158032381Y-139713619D02*
X158222857Y-139713619D01*
X158222857Y-139713619D02*
X158318095Y-139666000D01*
X158318095Y-139666000D02*
X158365714Y-139618380D01*
X158365714Y-139618380D02*
X158413333Y-139523142D01*
X158413333Y-139523142D02*
X158413333Y-138713619D01*
X158746667Y-138713619D02*
X159318095Y-138713619D01*
X159032381Y-139713619D02*
X159032381Y-138713619D01*
%TD*%
M02*
