%TF.GenerationSoftware,KiCad,Pcbnew,7.0.1*%
%TF.CreationDate,2024-01-21T13:12:55-07:00*%
%TF.ProjectId,camera_v1,63616d65-7261-45f7-9631-2e6b69636164,rev?*%
%TF.SameCoordinates,Original*%
%TF.FileFunction,Soldermask,Bot*%
%TF.FilePolarity,Negative*%
%FSLAX46Y46*%
G04 Gerber Fmt 4.6, Leading zero omitted, Abs format (unit mm)*
G04 Created by KiCad (PCBNEW 7.0.1) date 2024-01-21 13:12:55*
%MOMM*%
%LPD*%
G01*
G04 APERTURE LIST*
%ADD10R,1.700000X1.700000*%
%ADD11O,1.700000X1.700000*%
G04 APERTURE END LIST*
D10*
%TO.C,J10*%
X153690000Y-105650000D03*
D11*
X156230000Y-105650000D03*
X158770000Y-105650000D03*
X161310000Y-105650000D03*
%TD*%
G36*
X159558000Y-105666613D02*
G01*
X159603387Y-105712000D01*
X159620000Y-105774000D01*
X159620000Y-107006000D01*
X159603387Y-107068000D01*
X159558000Y-107113387D01*
X159496000Y-107130000D01*
X158044000Y-107130000D01*
X157982000Y-107113387D01*
X157936613Y-107068000D01*
X157920000Y-107006000D01*
X157920000Y-105774000D01*
X157936613Y-105712000D01*
X157982000Y-105666613D01*
X158044000Y-105650000D01*
X159496000Y-105650000D01*
X159558000Y-105666613D01*
G37*
G36*
X157018000Y-105666613D02*
G01*
X157063387Y-105712000D01*
X157080000Y-105774000D01*
X157080000Y-107006000D01*
X157063387Y-107068000D01*
X157018000Y-107113387D01*
X156956000Y-107130000D01*
X155504000Y-107130000D01*
X155442000Y-107113387D01*
X155396613Y-107068000D01*
X155380000Y-107006000D01*
X155380000Y-105774000D01*
X155396613Y-105712000D01*
X155442000Y-105666613D01*
X155504000Y-105650000D01*
X156956000Y-105650000D01*
X157018000Y-105666613D01*
G37*
G36*
X162098000Y-105666613D02*
G01*
X162143387Y-105712000D01*
X162160000Y-105774000D01*
X162160000Y-107006000D01*
X162143387Y-107068000D01*
X162098000Y-107113387D01*
X162036000Y-107130000D01*
X160584000Y-107130000D01*
X160522000Y-107113387D01*
X160476613Y-107068000D01*
X160460000Y-107006000D01*
X160460000Y-105774000D01*
X160476613Y-105712000D01*
X160522000Y-105666613D01*
X160584000Y-105650000D01*
X162036000Y-105650000D01*
X162098000Y-105666613D01*
G37*
G36*
X154478000Y-105666613D02*
G01*
X154523387Y-105712000D01*
X154540000Y-105774000D01*
X154540000Y-107006000D01*
X154523387Y-107068000D01*
X154478000Y-107113387D01*
X154416000Y-107130000D01*
X152964000Y-107130000D01*
X152902000Y-107113387D01*
X152856613Y-107068000D01*
X152840000Y-107006000D01*
X152840000Y-105774000D01*
X152856613Y-105712000D01*
X152902000Y-105666613D01*
X152964000Y-105650000D01*
X154416000Y-105650000D01*
X154478000Y-105666613D01*
G37*
M02*
