M48
; DRILL file {KiCad 7.0.1} date Wed Mar 13 19:30:43 2024
; FORMAT={-:-/ absolute / inch / decimal}
; #@! TF.CreationDate,2024-03-13T19:30:43-07:00
; #@! TF.GenerationSoftware,Kicad,Pcbnew,7.0.1
; #@! TF.FileFunction,Plated,1,2,PTH
FMAT,2
INCH
; #@! TA.AperFunction,Plated,PTH,ViaDrill
T1C0.0118
; #@! TA.AperFunction,Plated,PTH,ViaDrill
T2C0.0157
; #@! TA.AperFunction,Plated,PTH,ComponentDrill
T3C0.0394
%
G90
G05
T1
X5.8407Y-5.3384
X5.8567Y-5.2925
X5.8858Y-4.578
X5.8874Y-5.165
X5.9134Y-4.5998
X5.9563Y-4.8591
X5.9626Y-4.7051
X5.9874Y-5.0075
X6.0127Y-5.1395
X6.0154Y-4.8543
X6.0496Y-5.3969
X6.1284Y-5.3526
X6.1344Y-5.2101
X6.1378Y-5.1469
X6.1457Y-4.7016
X6.1539Y-5.3731
X6.1907Y-5.3458
X6.2126Y-5.2764
X6.2345Y-5.3524
X6.2362Y-4.7909
X6.2488Y-5.3827
X6.2622Y-4.5622
X6.2871Y-4.2541
X6.3039Y-5.3762
X6.3213Y-5.2279
X6.3278Y-5.1904
X6.3358Y-5.0961
X6.3402Y-5.3543
X6.3488Y-5.1594
X6.3705Y-5.4142
X6.3972Y-5.3909
X6.3989Y-5.2226
X6.4126Y-5.187
X6.4193Y-5.4386
X6.4579Y-4.7157
X6.4718Y-4.8032
X6.5177Y-5.187
X6.5433Y-5.1661
X6.5669Y-5.1382
X6.5819Y-5.3827
X6.5888Y-5.1142
X6.5921Y-4.2921
T2
X5.9862Y-4.4587
X5.9921Y-4.5472
X6.1457Y-4.4075
T3
X6.0508Y-4.1598
X6.1508Y-4.1598
X6.2508Y-4.1598
X6.3508Y-4.1598
X6.4508Y-4.1598
T0
M30
