%TF.GenerationSoftware,KiCad,Pcbnew,7.0.1*%
%TF.CreationDate,2024-03-13T19:30:42-07:00*%
%TF.ProjectId,camera_v1,63616d65-7261-45f7-9631-2e6b69636164,rev?*%
%TF.SameCoordinates,Original*%
%TF.FileFunction,Copper,L1,Top*%
%TF.FilePolarity,Positive*%
%FSLAX46Y46*%
G04 Gerber Fmt 4.6, Leading zero omitted, Abs format (unit mm)*
G04 Created by KiCad (PCBNEW 7.0.1) date 2024-03-13 19:30:42*
%MOMM*%
%LPD*%
G01*
G04 APERTURE LIST*
G04 Aperture macros list*
%AMRoundRect*
0 Rectangle with rounded corners*
0 $1 Rounding radius*
0 $2 $3 $4 $5 $6 $7 $8 $9 X,Y pos of 4 corners*
0 Add a 4 corners polygon primitive as box body*
4,1,4,$2,$3,$4,$5,$6,$7,$8,$9,$2,$3,0*
0 Add four circle primitives for the rounded corners*
1,1,$1+$1,$2,$3*
1,1,$1+$1,$4,$5*
1,1,$1+$1,$6,$7*
1,1,$1+$1,$8,$9*
0 Add four rect primitives between the rounded corners*
20,1,$1+$1,$2,$3,$4,$5,0*
20,1,$1+$1,$4,$5,$6,$7,0*
20,1,$1+$1,$6,$7,$8,$9,0*
20,1,$1+$1,$8,$9,$2,$3,0*%
%AMFreePoly0*
4,1,19,0.500000,-0.750000,0.000000,-0.750000,0.000000,-0.744911,-0.071157,-0.744911,-0.207708,-0.704816,-0.327430,-0.627875,-0.420627,-0.520320,-0.479746,-0.390866,-0.500000,-0.250000,-0.500000,0.250000,-0.479746,0.390866,-0.420627,0.520320,-0.327430,0.627875,-0.207708,0.704816,-0.071157,0.744911,0.000000,0.744911,0.000000,0.750000,0.500000,0.750000,0.500000,-0.750000,0.500000,-0.750000,
$1*%
%AMFreePoly1*
4,1,19,0.000000,0.744911,0.071157,0.744911,0.207708,0.704816,0.327430,0.627875,0.420627,0.520320,0.479746,0.390866,0.500000,0.250000,0.500000,-0.250000,0.479746,-0.390866,0.420627,-0.520320,0.327430,-0.627875,0.207708,-0.704816,0.071157,-0.744911,0.000000,-0.744911,0.000000,-0.750000,-0.500000,-0.750000,-0.500000,0.750000,0.000000,0.750000,0.000000,0.744911,0.000000,0.744911,
$1*%
G04 Aperture macros list end*
%TA.AperFunction,ComponentPad*%
%ADD10R,1.700000X1.700000*%
%TD*%
%TA.AperFunction,ComponentPad*%
%ADD11O,1.700000X1.700000*%
%TD*%
%TA.AperFunction,SMDPad,CuDef*%
%ADD12RoundRect,0.200000X-0.275000X0.200000X-0.275000X-0.200000X0.275000X-0.200000X0.275000X0.200000X0*%
%TD*%
%TA.AperFunction,SMDPad,CuDef*%
%ADD13RoundRect,0.150000X-0.587500X-0.150000X0.587500X-0.150000X0.587500X0.150000X-0.587500X0.150000X0*%
%TD*%
%TA.AperFunction,SMDPad,CuDef*%
%ADD14RoundRect,0.250000X-0.475000X0.337500X-0.475000X-0.337500X0.475000X-0.337500X0.475000X0.337500X0*%
%TD*%
%TA.AperFunction,SMDPad,CuDef*%
%ADD15R,2.100000X1.800000*%
%TD*%
%TA.AperFunction,SMDPad,CuDef*%
%ADD16FreePoly0,90.000000*%
%TD*%
%TA.AperFunction,SMDPad,CuDef*%
%ADD17FreePoly1,90.000000*%
%TD*%
%TA.AperFunction,SMDPad,CuDef*%
%ADD18RoundRect,0.237500X-0.237500X0.300000X-0.237500X-0.300000X0.237500X-0.300000X0.237500X0.300000X0*%
%TD*%
%TA.AperFunction,SMDPad,CuDef*%
%ADD19RoundRect,0.250000X0.475000X-0.337500X0.475000X0.337500X-0.475000X0.337500X-0.475000X-0.337500X0*%
%TD*%
%TA.AperFunction,SMDPad,CuDef*%
%ADD20RoundRect,0.237500X0.237500X-0.300000X0.237500X0.300000X-0.237500X0.300000X-0.237500X-0.300000X0*%
%TD*%
%TA.AperFunction,SMDPad,CuDef*%
%ADD21RoundRect,0.250000X-0.337500X-0.475000X0.337500X-0.475000X0.337500X0.475000X-0.337500X0.475000X0*%
%TD*%
%TA.AperFunction,SMDPad,CuDef*%
%ADD22RoundRect,0.150000X0.350000X-0.150000X0.350000X0.150000X-0.350000X0.150000X-0.350000X-0.150000X0*%
%TD*%
%TA.AperFunction,SMDPad,CuDef*%
%ADD23RoundRect,0.250000X0.650000X-0.375000X0.650000X0.375000X-0.650000X0.375000X-0.650000X-0.375000X0*%
%TD*%
%TA.AperFunction,SMDPad,CuDef*%
%ADD24RoundRect,0.200000X0.275000X-0.200000X0.275000X0.200000X-0.275000X0.200000X-0.275000X-0.200000X0*%
%TD*%
%TA.AperFunction,SMDPad,CuDef*%
%ADD25R,1.560000X0.650000*%
%TD*%
%TA.AperFunction,SMDPad,CuDef*%
%ADD26RoundRect,0.237500X-0.237500X0.250000X-0.237500X-0.250000X0.237500X-0.250000X0.237500X0.250000X0*%
%TD*%
%TA.AperFunction,SMDPad,CuDef*%
%ADD27C,1.500000*%
%TD*%
%TA.AperFunction,SMDPad,CuDef*%
%ADD28RoundRect,0.237500X0.287500X0.237500X-0.287500X0.237500X-0.287500X-0.237500X0.287500X-0.237500X0*%
%TD*%
%TA.AperFunction,SMDPad,CuDef*%
%ADD29R,0.300000X0.800000*%
%TD*%
%TA.AperFunction,SMDPad,CuDef*%
%ADD30R,1.220000X1.400000*%
%TD*%
%TA.AperFunction,SMDPad,CuDef*%
%ADD31R,0.850000X1.400000*%
%TD*%
%TA.AperFunction,SMDPad,CuDef*%
%ADD32RoundRect,0.150000X0.625000X-0.150000X0.625000X0.150000X-0.625000X0.150000X-0.625000X-0.150000X0*%
%TD*%
%TA.AperFunction,SMDPad,CuDef*%
%ADD33RoundRect,0.250000X0.650000X-0.350000X0.650000X0.350000X-0.650000X0.350000X-0.650000X-0.350000X0*%
%TD*%
%TA.AperFunction,SMDPad,CuDef*%
%ADD34RoundRect,0.200000X-0.200000X-0.275000X0.200000X-0.275000X0.200000X0.275000X-0.200000X0.275000X0*%
%TD*%
%TA.AperFunction,ViaPad*%
%ADD35C,0.800000*%
%TD*%
%TA.AperFunction,ViaPad*%
%ADD36C,0.560000*%
%TD*%
%TA.AperFunction,Conductor*%
%ADD37C,0.152400*%
%TD*%
%TA.AperFunction,Conductor*%
%ADD38C,0.250000*%
%TD*%
G04 APERTURE END LIST*
D10*
%TO.P,J2,1,Pin_1*%
%TO.N,GND*%
X153690000Y-105660000D03*
D11*
%TO.P,J2,2,Pin_2*%
%TO.N,pwr_ctrl*%
X156230000Y-105660000D03*
%TO.P,J2,3,Pin_3*%
%TO.N,SDA1*%
X158770000Y-105660000D03*
%TO.P,J2,4,Pin_4*%
%TO.N,SCL1*%
X161310000Y-105660000D03*
%TO.P,J2,5,Pin_5*%
%TO.N,pwr_in*%
X163850000Y-105660000D03*
%TD*%
D12*
%TO.P,R1,1*%
%TO.N,pwr_in*%
X154300000Y-111755000D03*
%TO.P,R1,2*%
%TO.N,Net-(Q1-G)*%
X154300000Y-113405000D03*
%TD*%
D13*
%TO.P,Q2,1,G*%
%TO.N,pwr_ctrl*%
X150530000Y-113500000D03*
%TO.P,Q2,2,S*%
%TO.N,GND*%
X150530000Y-115400000D03*
%TO.P,Q2,3,D*%
%TO.N,Net-(Q1-G)*%
X152405000Y-114450000D03*
%TD*%
%TO.P,Q1,1,G*%
%TO.N,Net-(Q1-G)*%
X150530000Y-109960000D03*
%TO.P,Q1,2,S*%
%TO.N,+3V3*%
X150530000Y-111860000D03*
%TO.P,Q1,3,D*%
%TO.N,pwr_in*%
X152405000Y-110910000D03*
%TD*%
D14*
%TO.P,C2,1,1*%
%TO.N,1.5V*%
X154950000Y-118522500D03*
%TO.P,C2,2,2*%
%TO.N,GND*%
X154950000Y-120597500D03*
%TD*%
D15*
%TO.P,OSC1,1,INH*%
%TO.N,+3V3*%
X158960000Y-126820000D03*
%TO.P,OSC1,2,GND*%
%TO.N,GND*%
X155860000Y-126820000D03*
%TO.P,OSC1,3,OUT*%
%TO.N,Net-(OSC1-OUT)*%
X155860000Y-129320000D03*
%TO.P,OSC1,4,VCC*%
%TO.N,+3V3*%
X158960000Y-129320000D03*
%TD*%
D16*
%TO.P,JP1,1,A*%
%TO.N,Net-(JP1-A)*%
X165500000Y-136290000D03*
D17*
%TO.P,JP1,2,B*%
%TO.N,+3V3*%
X165500000Y-134990000D03*
%TD*%
D18*
%TO.P,C1,1,1*%
%TO.N,1.5V*%
X158790000Y-118660000D03*
%TO.P,C1,2,2*%
%TO.N,GND*%
X158790000Y-120385000D03*
%TD*%
D19*
%TO.P,C6,1,1*%
%TO.N,+3V3*%
X153400000Y-129487500D03*
%TO.P,C6,2,2*%
%TO.N,GND*%
X153400000Y-127412500D03*
%TD*%
D20*
%TO.P,C12,1,1*%
%TO.N,VBUS_RESET {slash} PC*%
X159700000Y-133122500D03*
%TO.P,C12,2,2*%
%TO.N,GND*%
X159700000Y-131397500D03*
%TD*%
D21*
%TO.P,C4,1,1*%
%TO.N,+3V3*%
X165095000Y-140390000D03*
%TO.P,C4,2,2*%
%TO.N,GND*%
X167170000Y-140390000D03*
%TD*%
D22*
%TO.P,J7,1,Pin_1*%
%TO.N,GND*%
X161510000Y-130165000D03*
%TO.P,J7,2,Pin_2*%
%TO.N,D9*%
X161510000Y-128665000D03*
%TO.P,J7,3,Pin_3*%
%TO.N,D8*%
X161510000Y-127165000D03*
%TO.P,J7,4,Pin_4*%
%TO.N,ENABLE_BURN {slash} D7*%
X161510000Y-125665000D03*
%TO.P,J7,5,Pin_5*%
%TO.N,D6*%
X161510000Y-124165000D03*
%TO.P,J7,6,Pin_6*%
%TO.N,D5*%
X161510000Y-122665000D03*
%TO.P,J7,7,Pin_7*%
%TO.N,D4*%
X161510000Y-121165000D03*
%TO.P,J7,8,Pin_8*%
%TO.N,ENAB_RF {slash} D3*%
X161510000Y-119665000D03*
%TO.P,J7,9,Pin_9*%
%TO.N,I2C_RESET {slash} D2*%
X161510000Y-118165000D03*
%TO.P,J7,10,Pin_10*%
%TO.N,VBUS_RESET {slash} PC*%
X161510000Y-116665000D03*
%TO.P,J7,11,Pin_11*%
%TO.N,BURN_RELAY_A {slash} VS*%
X161510000Y-115165000D03*
%TO.P,J7,12,Pin_12*%
%TO.N,HS*%
X161510000Y-113665000D03*
D23*
%TO.P,J7,MP*%
%TO.N,N/C*%
X166700000Y-132770000D03*
X166700000Y-111060000D03*
%TD*%
D24*
%TO.P,R7,1*%
%TO.N,Net-(X1-PWDN)*%
X155110000Y-133260000D03*
%TO.P,R7,2*%
%TO.N,GND*%
X155110000Y-131610000D03*
%TD*%
D25*
%TO.P,U3,1,IN*%
%TO.N,+3V3*%
X150100000Y-122427500D03*
%TO.P,U3,2,GND*%
%TO.N,GND*%
X150100000Y-123377500D03*
%TO.P,U3,3,EN*%
%TO.N,+3V3*%
X150100000Y-124327500D03*
%TO.P,U3,4,P4*%
%TO.N,unconnected-(U3-P4-Pad4)*%
X152800000Y-124327500D03*
%TO.P,U3,5,OUT*%
%TO.N,2.8V*%
X152800000Y-122427500D03*
%TD*%
D20*
%TO.P,C9,1,1*%
%TO.N,+3V3*%
X158170000Y-133122500D03*
%TO.P,C9,2,2*%
%TO.N,GND*%
X158170000Y-131397500D03*
%TD*%
D25*
%TO.P,U2,1,IN*%
%TO.N,+3V3*%
X150070000Y-118562500D03*
%TO.P,U2,2,GND*%
%TO.N,GND*%
X150070000Y-119512500D03*
%TO.P,U2,3,EN*%
%TO.N,+3V3*%
X150070000Y-120462500D03*
%TO.P,U2,4,P4*%
%TO.N,unconnected-(U2-P4-Pad4)*%
X152770000Y-120462500D03*
%TO.P,U2,5,OUT*%
%TO.N,1.5V*%
X152770000Y-118562500D03*
%TD*%
D26*
%TO.P,FB1,1,P$1*%
%TO.N,GND*%
X150510000Y-131355000D03*
%TO.P,FB1,2,P$2*%
%TO.N,AGND*%
X150510000Y-133180000D03*
%TD*%
D20*
%TO.P,C11,1,1*%
%TO.N,2.8V*%
X152040000Y-133130000D03*
%TO.P,C11,2,2*%
%TO.N,GND*%
X152040000Y-131405000D03*
%TD*%
D14*
%TO.P,C3,1,1*%
%TO.N,1.5V*%
X157000000Y-118515000D03*
%TO.P,C3,2,2*%
%TO.N,GND*%
X157000000Y-120590000D03*
%TD*%
%TO.P,C7,1,1*%
%TO.N,2.8V*%
X157000000Y-122370000D03*
%TO.P,C7,2,2*%
%TO.N,GND*%
X157000000Y-124445000D03*
%TD*%
D27*
%TO.P,J1,1,Pin_1*%
%TO.N,Net-(J1-Pin_1)*%
X148450000Y-132610000D03*
%TD*%
D20*
%TO.P,C10,1,1*%
%TO.N,1.5V*%
X156640000Y-133120000D03*
%TO.P,C10,2,2*%
%TO.N,GND*%
X156640000Y-131395000D03*
%TD*%
D28*
%TO.P,D1,1,K*%
%TO.N,GND*%
X166150000Y-109060000D03*
%TO.P,D1,2,A*%
%TO.N,Net-(D1-A)*%
X164400000Y-109060000D03*
%TD*%
D29*
%TO.P,X1,1,STROBE*%
%TO.N,Net-(J1-Pin_1)*%
X150330000Y-134900000D03*
%TO.P,X1,2,AGND*%
%TO.N,AGND*%
X150830000Y-134900000D03*
%TO.P,X1,3,SDA*%
%TO.N,SDA1*%
X151330000Y-134900000D03*
%TO.P,X1,4,AVDD*%
%TO.N,2.8V*%
X151830000Y-134900000D03*
%TO.P,X1,5,SCL*%
%TO.N,SCL1*%
X152330000Y-134900000D03*
%TO.P,X1,6,~{RESET}*%
%TO.N,Net-(X1-~{RESET})*%
X152830000Y-134900000D03*
%TO.P,X1,7,VSYNC*%
%TO.N,BURN_RELAY_A {slash} VS*%
X153330000Y-134900000D03*
%TO.P,X1,8,PWDN*%
%TO.N,Net-(X1-PWDN)*%
X153830000Y-134900000D03*
%TO.P,X1,9,HSYNC*%
%TO.N,HS*%
X154330000Y-134900000D03*
%TO.P,X1,10,DVDD*%
%TO.N,1.5V*%
X154830000Y-134900000D03*
%TO.P,X1,11,DOVDD*%
%TO.N,+3V3*%
X155330000Y-134900000D03*
%TO.P,X1,12,DATA9*%
%TO.N,D9*%
X155830000Y-134900000D03*
%TO.P,X1,13,XCLK*%
%TO.N,Net-(OSC1-OUT)*%
X156330000Y-134900000D03*
%TO.P,X1,14,DATA8*%
%TO.N,D8*%
X156830000Y-134900000D03*
%TO.P,X1,15,DGND*%
%TO.N,GND*%
X157330000Y-134900000D03*
%TO.P,X1,16,DATA7*%
%TO.N,ENABLE_BURN {slash} D7*%
X157830000Y-134900000D03*
%TO.P,X1,17,PCLK*%
%TO.N,VBUS_RESET {slash} PC*%
X158330000Y-134900000D03*
%TO.P,X1,18,DATA6*%
%TO.N,D6*%
X158830000Y-134900000D03*
%TO.P,X1,19,DATA2*%
%TO.N,I2C_RESET {slash} D2*%
X159330000Y-134900000D03*
%TO.P,X1,20,DATA5*%
%TO.N,D5*%
X159830000Y-134900000D03*
%TO.P,X1,21,DATA3*%
%TO.N,ENAB_RF {slash} D3*%
X160330000Y-134900000D03*
%TO.P,X1,22,DATA4*%
%TO.N,D4*%
X160830000Y-134900000D03*
%TO.P,X1,23,DATA1*%
%TO.N,Net-(JP1-A)*%
X161330000Y-134900000D03*
%TO.P,X1,24,DATA0*%
%TO.N,unconnected-(X1-DATA0-Pad24)*%
X161830000Y-134900000D03*
D30*
%TO.P,X1,MP*%
%TO.N,N/C*%
X149090000Y-139750000D03*
D31*
X154905000Y-140760000D03*
X157255000Y-140760000D03*
D30*
X163070000Y-139750000D03*
%TD*%
D14*
%TO.P,C8,1,1*%
%TO.N,2.8V*%
X154950000Y-122380000D03*
%TO.P,C8,2,2*%
%TO.N,GND*%
X154950000Y-124455000D03*
%TD*%
D32*
%TO.P,J8,1,Pin_1*%
%TO.N,GND*%
X159050000Y-114857500D03*
%TO.P,J8,2,Pin_2*%
%TO.N,+3V3*%
X159050000Y-113857500D03*
%TO.P,J8,3,Pin_3*%
%TO.N,SDA1*%
X159050000Y-112857500D03*
%TO.P,J8,4,Pin_4*%
%TO.N,SCL1*%
X159050000Y-111857500D03*
D33*
%TO.P,J8,MP*%
%TO.N,N/C*%
X156525000Y-116157500D03*
X156525000Y-110557500D03*
%TD*%
D34*
%TO.P,R5,1*%
%TO.N,+3V3*%
X161170000Y-109050000D03*
%TO.P,R5,2*%
%TO.N,Net-(D1-A)*%
X162820000Y-109050000D03*
%TD*%
D12*
%TO.P,R6,1*%
%TO.N,+3V3*%
X153570000Y-131605000D03*
%TO.P,R6,2*%
%TO.N,Net-(X1-~{RESET})*%
X153570000Y-133255000D03*
%TD*%
D21*
%TO.P,C5,1,1*%
%TO.N,+3V3*%
X165095000Y-138340000D03*
%TO.P,C5,2,2*%
%TO.N,GND*%
X167170000Y-138340000D03*
%TD*%
D35*
%TO.N,pwr_ctrl*%
X152050000Y-113250000D03*
%TO.N,GND*%
X152200000Y-115500000D03*
%TO.N,pwr_in*%
X156100000Y-111950000D03*
D36*
%TO.N,1.5V*%
X155814936Y-132336190D03*
X156100000Y-119420000D03*
%TO.N,+3V3*%
X153660000Y-137080000D03*
X158720000Y-136720000D03*
X157800000Y-134020498D03*
X163050000Y-138140000D03*
%TO.N,2.8V*%
X152721871Y-130542306D03*
X152790000Y-123300000D03*
%TO.N,VBUS_RESET {slash} PC*%
X166200000Y-131220000D03*
X160559894Y-132787623D03*
%TO.N,D9*%
X155662080Y-135956200D03*
X161260000Y-131050000D03*
%TO.N,D8*%
X160725819Y-131835819D03*
X156310000Y-136476482D03*
%TO.N,GND*%
X157244300Y-135782512D03*
X155900000Y-130730000D03*
X152080000Y-127190000D03*
X158400000Y-121690000D03*
X151450000Y-119510000D03*
X159060000Y-115880000D03*
X151290000Y-123420000D03*
X167180000Y-136720000D03*
X149540000Y-131190000D03*
X167440000Y-109020000D03*
X160930000Y-129440000D03*
%TO.N,ENABLE_BURN {slash} D7*%
X162880000Y-131749500D03*
X158355700Y-135950000D03*
%TO.N,D6*%
X162532876Y-132652876D03*
X160120000Y-136554840D03*
%TO.N,ENAB_RF {slash} D3*%
X164030000Y-119780000D03*
X164384300Y-122000027D03*
%TO.N,I2C_RESET {slash} D2*%
X165550000Y-131750000D03*
X161040860Y-135999140D03*
%TO.N,BURN_RELAY_A {slash} VS*%
X161810000Y-137520000D03*
X166800000Y-130510000D03*
%TO.N,HS*%
X162490000Y-136930000D03*
X167355700Y-129900000D03*
%TO.N,SDA1*%
X159692940Y-108052940D03*
X148760000Y-134430000D03*
X150200000Y-116835700D03*
%TO.N,SCL1*%
X148355000Y-135595000D03*
X149500000Y-116280000D03*
%TD*%
D37*
%TO.N,SCL1*%
X158582473Y-111857500D02*
X159050000Y-111857500D01*
X154159973Y-116280000D02*
X158582473Y-111857500D01*
X149500000Y-116280000D02*
X154159973Y-116280000D01*
%TO.N,SDA1*%
X150504300Y-117140000D02*
X153798341Y-117140000D01*
X150200000Y-116835700D02*
X150504300Y-117140000D01*
X153798341Y-117140000D02*
X158080841Y-112857500D01*
X158080841Y-112857500D02*
X159050000Y-112857500D01*
%TO.N,SCL1*%
X152330000Y-135502400D02*
X152330000Y-134900000D01*
X151903800Y-135928600D02*
X152330000Y-135502400D01*
X148355000Y-135595000D02*
X148688600Y-135928600D01*
X148688600Y-135928600D02*
X151903800Y-135928600D01*
D38*
%TO.N,pwr_ctrl*%
X151800000Y-113500000D02*
X152050000Y-113250000D01*
X150530000Y-113500000D02*
X151800000Y-113500000D01*
%TO.N,Net-(Q1-G)*%
X152800000Y-114055000D02*
X152405000Y-114450000D01*
X152800000Y-112720749D02*
X152800000Y-114055000D01*
X150530000Y-110450749D02*
X152800000Y-112720749D01*
X150530000Y-109960000D02*
X150530000Y-110450749D01*
%TO.N,GND*%
X152100000Y-115400000D02*
X152200000Y-115500000D01*
X150530000Y-115400000D02*
X152100000Y-115400000D01*
%TO.N,pwr_in*%
X155905000Y-111755000D02*
X156100000Y-111950000D01*
X154300000Y-111755000D02*
X155905000Y-111755000D01*
X153250000Y-111755000D02*
X152405000Y-110910000D01*
X154300000Y-111755000D02*
X153250000Y-111755000D01*
%TO.N,Net-(Q1-G)*%
X153350000Y-114450000D02*
X152405000Y-114450000D01*
X154300000Y-113405000D02*
X154300000Y-113500000D01*
X154300000Y-113500000D02*
X153350000Y-114450000D01*
D37*
%TO.N,1.5V*%
X156640000Y-133120000D02*
X155536200Y-134223800D01*
X156640000Y-133120000D02*
X156598746Y-133120000D01*
X158692500Y-118562500D02*
X152770000Y-118562500D01*
X158790000Y-118660000D02*
X158692500Y-118562500D01*
X155847500Y-119420000D02*
X154950000Y-118522500D01*
X154830000Y-134297600D02*
X154830000Y-134900000D01*
X155536200Y-134223800D02*
X154903800Y-134223800D01*
X156100000Y-119420000D02*
X155847500Y-119420000D01*
X156598746Y-133120000D02*
X155814936Y-132336190D01*
X154903800Y-134223800D02*
X154830000Y-134297600D01*
%TO.N,+3V3*%
X155952182Y-137032182D02*
X155060000Y-136140000D01*
X155330000Y-135502400D02*
X155330000Y-134900000D01*
X158720000Y-136720000D02*
X158407818Y-137032182D01*
X155060000Y-136140000D02*
X155060000Y-135772400D01*
X163250000Y-138340000D02*
X163050000Y-138140000D01*
X157800000Y-134020498D02*
X157800000Y-133492500D01*
X155060000Y-135772400D02*
X155330000Y-135502400D01*
X158960000Y-129320000D02*
X158960000Y-126820000D01*
X165095000Y-138340000D02*
X163250000Y-138340000D01*
X153570000Y-129657500D02*
X153400000Y-129487500D01*
X158407818Y-137032182D02*
X155952182Y-137032182D01*
X157800000Y-133492500D02*
X158170000Y-133122500D01*
X153570000Y-131605000D02*
X153570000Y-129657500D01*
%TO.N,2.8V*%
X157000000Y-122370000D02*
X156942500Y-122427500D01*
X156942500Y-122427500D02*
X152800000Y-122427500D01*
X152791200Y-130611635D02*
X152721871Y-130542306D01*
X152040000Y-133130000D02*
X151830000Y-133340000D01*
X152040000Y-133130000D02*
X152791200Y-132378800D01*
X152790000Y-123300000D02*
X152790000Y-122437500D01*
X152791200Y-132378800D02*
X152791200Y-130611635D01*
X152790000Y-122437500D02*
X152800000Y-122427500D01*
X151830000Y-133340000D02*
X151830000Y-134900000D01*
%TO.N,VBUS_RESET {slash} PC*%
X160225017Y-133122500D02*
X160559894Y-132787623D01*
X159700000Y-133122500D02*
X160225017Y-133122500D01*
X159505100Y-133122500D02*
X159700000Y-133122500D01*
X166200000Y-120665046D02*
X162199954Y-116665000D01*
X166200000Y-131220000D02*
X166200000Y-120665046D01*
X158330000Y-134900000D02*
X158330000Y-134297600D01*
X162199954Y-116665000D02*
X161510000Y-116665000D01*
X158330000Y-134297600D02*
X159505100Y-133122500D01*
%TO.N,AGND*%
X150510000Y-133180000D02*
X150830000Y-133500000D01*
X150830000Y-133500000D02*
X150830000Y-134900000D01*
%TO.N,Net-(J1-Pin_1)*%
X148450000Y-132610000D02*
X150330000Y-134490000D01*
X150330000Y-134490000D02*
X150330000Y-134900000D01*
%TO.N,D9*%
X161727738Y-131050000D02*
X162286200Y-130491538D01*
X161260000Y-131050000D02*
X161727738Y-131050000D01*
X162286200Y-129441200D02*
X161510000Y-128665000D01*
X162286200Y-130491538D02*
X162286200Y-129441200D01*
X155662080Y-135956200D02*
X155830000Y-135788280D01*
X155830000Y-135788280D02*
X155830000Y-134900000D01*
%TO.N,D8*%
X161440287Y-131835819D02*
X162800000Y-130476106D01*
X162800000Y-127340000D02*
X162625000Y-127165000D01*
X156830000Y-135410226D02*
X156830000Y-134900000D01*
X156310000Y-135930226D02*
X156830000Y-135410226D01*
X162625000Y-127165000D02*
X161510000Y-127165000D01*
X162800000Y-130476106D02*
X162800000Y-127340000D01*
X160725819Y-131835819D02*
X161440287Y-131835819D01*
X156310000Y-136476482D02*
X156310000Y-135930226D01*
%TO.N,GND*%
X167170000Y-140390000D02*
X167170000Y-138340000D01*
X161510000Y-130020000D02*
X160930000Y-129440000D01*
X159700000Y-131397500D02*
X158170000Y-131397500D01*
X149705000Y-131355000D02*
X149540000Y-131190000D01*
X155860000Y-125365000D02*
X154950000Y-124455000D01*
X150510000Y-131355000D02*
X149705000Y-131355000D01*
X157330000Y-135696812D02*
X157330000Y-134900000D01*
X155325000Y-131305000D02*
X155325000Y-131395000D01*
X154950000Y-120597500D02*
X158577500Y-120597500D01*
X161510000Y-130165000D02*
X161510000Y-130020000D01*
X154950000Y-124455000D02*
X156990000Y-124455000D01*
X167400000Y-109060000D02*
X167440000Y-109020000D01*
X155860000Y-126820000D02*
X155860000Y-125365000D01*
X151247500Y-123377500D02*
X151290000Y-123420000D01*
X155325000Y-131395000D02*
X155110000Y-131610000D01*
X155860000Y-126820000D02*
X153992500Y-126820000D01*
X155900000Y-130730000D02*
X155325000Y-131305000D01*
X157244300Y-135782512D02*
X157330000Y-135696812D01*
X159050000Y-115870000D02*
X159060000Y-115880000D01*
X158577500Y-120597500D02*
X158790000Y-120385000D01*
X153992500Y-126820000D02*
X153400000Y-127412500D01*
X166150000Y-109060000D02*
X167400000Y-109060000D01*
X167170000Y-138340000D02*
X167170000Y-136730000D01*
X161510000Y-130165000D02*
X160932500Y-130165000D01*
X158790000Y-120385000D02*
X158790000Y-121300000D01*
X152302500Y-127412500D02*
X152080000Y-127190000D01*
X167170000Y-136730000D02*
X167180000Y-136720000D01*
X159050000Y-114857500D02*
X159050000Y-115870000D01*
X150560000Y-131405000D02*
X150510000Y-131355000D01*
X158790000Y-121300000D02*
X158400000Y-121690000D01*
X156565000Y-131395000D02*
X156640000Y-131395000D01*
X152040000Y-131405000D02*
X150560000Y-131405000D01*
X160932500Y-130165000D02*
X159700000Y-131397500D01*
X156990000Y-124455000D02*
X157000000Y-124445000D01*
X150100000Y-123377500D02*
X151247500Y-123377500D01*
X150070000Y-119512500D02*
X151447500Y-119512500D01*
X157000000Y-120590000D02*
X157300000Y-120590000D01*
X157300000Y-120590000D02*
X158400000Y-121690000D01*
X155900000Y-130730000D02*
X156565000Y-131395000D01*
X153400000Y-127412500D02*
X152302500Y-127412500D01*
X151447500Y-119512500D02*
X151450000Y-119510000D01*
%TO.N,ENABLE_BURN {slash} D7*%
X157830000Y-134900000D02*
X157830000Y-135424300D01*
X162755000Y-125665000D02*
X161510000Y-125665000D01*
X162880500Y-131749500D02*
X163275200Y-131354800D01*
X157830000Y-135424300D02*
X158355700Y-135950000D01*
X163275200Y-126185200D02*
X162755000Y-125665000D01*
X163275200Y-131354800D02*
X163275200Y-126185200D01*
X162880000Y-131749500D02*
X162880500Y-131749500D01*
%TO.N,D6*%
X158830000Y-135500768D02*
X159884072Y-136554840D01*
X162532876Y-132652876D02*
X162820388Y-132652876D01*
X163082600Y-124165000D02*
X161510000Y-124165000D01*
X162820388Y-132652876D02*
X163627600Y-131845664D01*
X158830000Y-134900000D02*
X158830000Y-135500768D01*
X163627600Y-124710000D02*
X163082600Y-124165000D01*
X163627600Y-131845664D02*
X163627600Y-124710000D01*
X159884072Y-136554840D02*
X160120000Y-136554840D01*
%TO.N,D5*%
X163980000Y-131991632D02*
X163980000Y-123210000D01*
X163435000Y-122665000D02*
X161510000Y-122665000D01*
X160920048Y-133210816D02*
X162760816Y-133210816D01*
X159830000Y-134300864D02*
X160920048Y-133210816D01*
X159830000Y-134900000D02*
X159830000Y-134300864D01*
X163980000Y-123210000D02*
X163435000Y-122665000D01*
X162760816Y-133210816D02*
X163980000Y-131991632D01*
%TO.N,D4*%
X164940000Y-132050000D02*
X164940000Y-121500000D01*
X160830000Y-134900000D02*
X160830000Y-134297600D01*
X162970000Y-134020000D02*
X164940000Y-132050000D01*
X160830000Y-134297600D02*
X161107600Y-134020000D01*
X164605000Y-121165000D02*
X161510000Y-121165000D01*
X164940000Y-121500000D02*
X164605000Y-121165000D01*
X161107600Y-134020000D02*
X162970000Y-134020000D01*
%TO.N,ENAB_RF {slash} D3*%
X164384300Y-132085700D02*
X164384300Y-122000027D01*
X164030000Y-119780000D02*
X161625000Y-119780000D01*
X160330000Y-134299232D02*
X161019232Y-133610000D01*
X161625000Y-119780000D02*
X161510000Y-119665000D01*
X161019232Y-133610000D02*
X162860000Y-133610000D01*
X160330000Y-134900000D02*
X160330000Y-134299232D01*
X162860000Y-133610000D02*
X164384300Y-132085700D01*
%TO.N,I2C_RESET {slash} D2*%
X165550000Y-120513414D02*
X163201586Y-118165000D01*
X165550000Y-131750000D02*
X165550000Y-120513414D01*
X159330000Y-135502400D02*
X159826740Y-135999140D01*
X163201586Y-118165000D02*
X161510000Y-118165000D01*
X159330000Y-134900000D02*
X159330000Y-135502400D01*
X159826740Y-135999140D02*
X161040860Y-135999140D01*
%TO.N,BURN_RELAY_A {slash} VS*%
X166800000Y-119520000D02*
X162445000Y-115165000D01*
X161593018Y-137736982D02*
X161810000Y-137520000D01*
X153330000Y-134900000D02*
X153330000Y-135406737D01*
X155660245Y-137736982D02*
X161593018Y-137736982D01*
X166800000Y-130510000D02*
X166800000Y-119520000D01*
X153330000Y-135406737D02*
X155660245Y-137736982D01*
X162445000Y-115165000D02*
X161510000Y-115165000D01*
%TO.N,HS*%
X167355700Y-118475700D02*
X162545000Y-113665000D01*
X154330000Y-134900000D02*
X154330000Y-135908368D01*
X167355700Y-129900000D02*
X167355700Y-118475700D01*
X161450000Y-136930000D02*
X162490000Y-136930000D01*
X160995418Y-137384582D02*
X161450000Y-136930000D01*
X155806214Y-137384582D02*
X160995418Y-137384582D01*
X154330000Y-135908368D02*
X155806214Y-137384582D01*
X162545000Y-113665000D02*
X161510000Y-113665000D01*
%TO.N,Net-(JP1-A)*%
X165500000Y-136290000D02*
X162117600Y-136290000D01*
X162117600Y-136290000D02*
X161330000Y-135502400D01*
X161330000Y-135502400D02*
X161330000Y-134900000D01*
%TO.N,Net-(OSC1-OUT)*%
X156677600Y-133950000D02*
X157073982Y-133950000D01*
X157391200Y-133632782D02*
X157391200Y-130851200D01*
X157073982Y-133950000D02*
X157391200Y-133632782D01*
X156330000Y-134297600D02*
X156677600Y-133950000D01*
X156330000Y-134900000D02*
X156330000Y-134297600D01*
X157391200Y-130851200D02*
X155860000Y-129320000D01*
%TO.N,Net-(X1-~{RESET})*%
X153570000Y-133255000D02*
X152830000Y-133995000D01*
X152830000Y-133995000D02*
X152830000Y-134900000D01*
%TO.N,Net-(X1-PWDN)*%
X153830000Y-134297600D02*
X153830000Y-134900000D01*
X154867600Y-133260000D02*
X153830000Y-134297600D01*
X155110000Y-133260000D02*
X154867600Y-133260000D01*
%TO.N,SDA1*%
X148760000Y-134430000D02*
X149906200Y-135576200D01*
X151256200Y-135576200D02*
X151330000Y-135502400D01*
X151330000Y-135502400D02*
X151330000Y-134900000D01*
X159050000Y-112857500D02*
X159427738Y-112857500D01*
X160120000Y-108480000D02*
X159692940Y-108052940D01*
X149906200Y-135576200D02*
X151256200Y-135576200D01*
X160120000Y-112165238D02*
X160120000Y-108480000D01*
X159427738Y-112857500D02*
X160120000Y-112165238D01*
%TO.N,SCL1*%
X161113260Y-107496740D02*
X161310000Y-107300000D01*
X161310000Y-107300000D02*
X161310000Y-105853200D01*
X159050000Y-111857500D02*
X159050000Y-107909294D01*
X159050000Y-107909294D02*
X159462554Y-107496740D01*
X159462554Y-107496740D02*
X161113260Y-107496740D01*
%TO.N,Net-(D1-A)*%
X164390000Y-109050000D02*
X164400000Y-109060000D01*
X162820000Y-109050000D02*
X164390000Y-109050000D01*
%TD*%
%TA.AperFunction,Conductor*%
%TO.N,+3V3*%
G36*
X152518500Y-105867113D02*
G01*
X152563887Y-105912500D01*
X152580500Y-105974500D01*
X152580500Y-107006001D01*
X152589341Y-107073162D01*
X152589342Y-107073164D01*
X152605955Y-107135164D01*
X152631880Y-107197750D01*
X152673119Y-107251494D01*
X152718506Y-107296881D01*
X152772250Y-107338120D01*
X152834836Y-107364045D01*
X152896836Y-107380658D01*
X152930417Y-107385078D01*
X152963999Y-107389500D01*
X152964000Y-107389500D01*
X154416000Y-107389500D01*
X154416001Y-107389500D01*
X154438388Y-107386552D01*
X154483164Y-107380658D01*
X154545164Y-107364045D01*
X154607750Y-107338120D01*
X154661494Y-107296881D01*
X154706881Y-107251494D01*
X154748120Y-107197750D01*
X154774045Y-107135164D01*
X154790658Y-107073164D01*
X154799500Y-107006000D01*
X154799500Y-105974500D01*
X154799500Y-105974499D01*
X154816113Y-105912500D01*
X154861500Y-105867113D01*
X154923500Y-105850500D01*
X154996500Y-105850500D01*
X155058500Y-105867113D01*
X155103887Y-105912500D01*
X155120500Y-105974500D01*
X155120500Y-107006001D01*
X155129341Y-107073162D01*
X155129342Y-107073164D01*
X155145955Y-107135164D01*
X155171880Y-107197750D01*
X155213119Y-107251494D01*
X155258506Y-107296881D01*
X155312250Y-107338120D01*
X155374836Y-107364045D01*
X155436836Y-107380658D01*
X155470417Y-107385078D01*
X155503999Y-107389500D01*
X155504000Y-107389500D01*
X156956000Y-107389500D01*
X156956001Y-107389500D01*
X156978388Y-107386552D01*
X157023164Y-107380658D01*
X157085164Y-107364045D01*
X157147750Y-107338120D01*
X157201494Y-107296881D01*
X157246881Y-107251494D01*
X157288120Y-107197750D01*
X157314045Y-107135164D01*
X157330658Y-107073164D01*
X157339500Y-107006000D01*
X157339500Y-105974500D01*
X157339500Y-105974499D01*
X157356113Y-105912500D01*
X157401500Y-105867113D01*
X157463500Y-105850500D01*
X157536500Y-105850500D01*
X157598500Y-105867113D01*
X157643887Y-105912500D01*
X157660500Y-105974500D01*
X157660500Y-107006001D01*
X157669341Y-107073162D01*
X157669342Y-107073164D01*
X157685955Y-107135164D01*
X157711880Y-107197750D01*
X157753119Y-107251494D01*
X157798506Y-107296881D01*
X157852250Y-107338120D01*
X157914836Y-107364045D01*
X157976836Y-107380658D01*
X158010417Y-107385078D01*
X158043999Y-107389500D01*
X158044000Y-107389500D01*
X158802751Y-107389500D01*
X158859046Y-107403015D01*
X158903069Y-107440615D01*
X158925224Y-107494103D01*
X158920682Y-107551819D01*
X158890433Y-107601180D01*
X158831275Y-107660337D01*
X158830205Y-107661408D01*
X158822234Y-107668712D01*
X158792760Y-107693445D01*
X158773528Y-107726753D01*
X158767721Y-107735868D01*
X158745126Y-107768139D01*
X158734610Y-107793526D01*
X158727770Y-107832320D01*
X158725429Y-107842880D01*
X158715475Y-107880026D01*
X158718828Y-107918341D01*
X158719300Y-107929149D01*
X158719300Y-111179000D01*
X158702687Y-111241000D01*
X158657300Y-111286387D01*
X158595300Y-111303000D01*
X158393164Y-111303000D01*
X158298443Y-111318001D01*
X158184277Y-111376173D01*
X158093673Y-111466777D01*
X158035501Y-111580943D01*
X158020500Y-111675664D01*
X158020500Y-111900431D01*
X158011061Y-111947884D01*
X157984181Y-111988112D01*
X154059312Y-115912981D01*
X154019084Y-115939861D01*
X153971631Y-115949300D01*
X152909235Y-115949300D01*
X152851609Y-115935096D01*
X152807185Y-115895740D01*
X152786139Y-115840246D01*
X152793292Y-115781330D01*
X152840149Y-115657782D01*
X152859307Y-115500000D01*
X152840149Y-115342218D01*
X152783787Y-115193605D01*
X152778448Y-115179527D01*
X152780501Y-115178748D01*
X152765746Y-115135983D01*
X152779725Y-115070872D01*
X152825371Y-115022382D01*
X152889520Y-115004500D01*
X153024336Y-115004500D01*
X153119056Y-114989498D01*
X153205990Y-114945202D01*
X153233223Y-114931326D01*
X153298729Y-114865819D01*
X153338958Y-114838939D01*
X153371514Y-114832463D01*
X153371302Y-114831192D01*
X153381438Y-114829500D01*
X153381443Y-114829500D01*
X153402245Y-114826028D01*
X153407215Y-114825304D01*
X153459783Y-114818752D01*
X153459785Y-114818750D01*
X153467548Y-114817783D01*
X153468042Y-114817625D01*
X153474924Y-114813900D01*
X153474927Y-114813900D01*
X153521481Y-114788705D01*
X153525966Y-114786396D01*
X153573568Y-114763126D01*
X153573570Y-114763123D01*
X153580606Y-114759684D01*
X153581009Y-114759384D01*
X153604517Y-114733847D01*
X153622166Y-114714674D01*
X153625667Y-114711025D01*
X154240875Y-114095817D01*
X154281103Y-114068938D01*
X154328556Y-114059499D01*
X154629747Y-114059499D01*
X154629748Y-114059499D01*
X154660451Y-114056621D01*
X154789773Y-114011369D01*
X154900010Y-113930010D01*
X154981369Y-113819773D01*
X155026621Y-113690451D01*
X155029500Y-113659749D01*
X155029499Y-113150252D01*
X155026621Y-113119549D01*
X154981369Y-112990227D01*
X154981368Y-112990225D01*
X154900010Y-112879989D01*
X154789773Y-112798631D01*
X154660448Y-112753378D01*
X154629752Y-112750500D01*
X153970253Y-112750500D01*
X153939550Y-112753378D01*
X153810225Y-112798631D01*
X153699989Y-112879989D01*
X153618631Y-112990226D01*
X153573378Y-113119551D01*
X153570500Y-113150247D01*
X153570500Y-113641442D01*
X153561061Y-113688895D01*
X153534182Y-113729122D01*
X153391179Y-113872125D01*
X153341818Y-113902374D01*
X153284102Y-113906916D01*
X153230615Y-113884761D01*
X153193015Y-113840738D01*
X153179500Y-113784443D01*
X153179500Y-112772969D01*
X153182139Y-112747523D01*
X153182373Y-112746405D01*
X153184419Y-112736649D01*
X153180452Y-112704825D01*
X153179500Y-112689488D01*
X153179500Y-112689309D01*
X153179500Y-112689306D01*
X153176034Y-112668538D01*
X153175299Y-112663490D01*
X153174864Y-112660000D01*
X153168752Y-112610967D01*
X153168751Y-112610966D01*
X153167783Y-112603196D01*
X153167627Y-112602710D01*
X153163900Y-112595823D01*
X153163900Y-112595822D01*
X153138699Y-112549256D01*
X153136375Y-112544739D01*
X153109692Y-112490156D01*
X153109376Y-112489733D01*
X153103619Y-112484433D01*
X153064676Y-112448583D01*
X153061003Y-112445058D01*
X152866119Y-112250174D01*
X152834714Y-112197055D01*
X152832801Y-112135377D01*
X152860854Y-112080413D01*
X152911925Y-112045778D01*
X152973367Y-112040046D01*
X153029962Y-112064640D01*
X153073044Y-112098172D01*
X153073530Y-112098422D01*
X153081017Y-112100650D01*
X153081020Y-112100653D01*
X153131747Y-112115754D01*
X153136582Y-112117303D01*
X153186673Y-112134500D01*
X153186674Y-112134500D01*
X153194064Y-112137037D01*
X153194593Y-112137114D01*
X153202408Y-112136790D01*
X153202409Y-112136791D01*
X153255248Y-112134605D01*
X153260371Y-112134500D01*
X153530001Y-112134500D01*
X153585883Y-112147806D01*
X153629769Y-112184864D01*
X153671286Y-112241118D01*
X153699990Y-112280011D01*
X153779448Y-112338653D01*
X153810227Y-112361369D01*
X153939549Y-112406621D01*
X153970251Y-112409500D01*
X154629748Y-112409499D01*
X154660451Y-112406621D01*
X154789773Y-112361369D01*
X154882568Y-112292883D01*
X154900009Y-112280011D01*
X154907250Y-112270200D01*
X154970230Y-112184864D01*
X155014117Y-112147806D01*
X155069999Y-112134500D01*
X155384393Y-112134500D01*
X155432997Y-112144422D01*
X155473822Y-112172602D01*
X155500335Y-112214529D01*
X155516212Y-112256394D01*
X155516213Y-112256395D01*
X155606502Y-112387201D01*
X155671809Y-112445058D01*
X155725472Y-112492600D01*
X155866205Y-112566462D01*
X155866207Y-112566463D01*
X156020529Y-112604500D01*
X156179470Y-112604500D01*
X156179471Y-112604500D01*
X156333793Y-112566463D01*
X156474529Y-112492599D01*
X156593498Y-112387201D01*
X156683787Y-112256395D01*
X156740149Y-112107782D01*
X156759307Y-111950000D01*
X156740149Y-111792218D01*
X156683787Y-111643605D01*
X156658132Y-111606438D01*
X156636409Y-111543486D01*
X156650386Y-111478374D01*
X156696033Y-111429882D01*
X156760183Y-111411999D01*
X157223251Y-111411999D01*
X157223254Y-111411999D01*
X157283342Y-111405540D01*
X157419267Y-111354842D01*
X157535404Y-111267904D01*
X157622342Y-111151767D01*
X157673040Y-111015842D01*
X157679500Y-110955755D01*
X157679499Y-110159246D01*
X157673040Y-110099158D01*
X157622342Y-109963233D01*
X157535404Y-109847096D01*
X157419267Y-109760158D01*
X157419264Y-109760157D01*
X157419263Y-109760156D01*
X157283345Y-109709460D01*
X157257590Y-109706691D01*
X157223255Y-109703000D01*
X157223251Y-109703000D01*
X155826748Y-109703000D01*
X155766657Y-109709460D01*
X155766658Y-109709460D01*
X155630733Y-109760158D01*
X155514596Y-109847096D01*
X155444385Y-109940889D01*
X155427656Y-109963236D01*
X155376960Y-110099154D01*
X155370500Y-110159248D01*
X155370500Y-110955751D01*
X155376075Y-111007612D01*
X155376960Y-111015842D01*
X155427657Y-111151763D01*
X155427659Y-111151769D01*
X155446689Y-111177190D01*
X155470929Y-111240448D01*
X155458306Y-111307005D01*
X155412589Y-111356995D01*
X155347422Y-111375500D01*
X155069999Y-111375500D01*
X155014117Y-111362194D01*
X154970230Y-111325135D01*
X154908136Y-111241000D01*
X154900009Y-111229988D01*
X154789773Y-111148631D01*
X154660448Y-111103378D01*
X154629752Y-111100500D01*
X153970253Y-111100500D01*
X153939550Y-111103378D01*
X153810225Y-111148631D01*
X153699990Y-111229988D01*
X153672008Y-111267904D01*
X153629769Y-111325135D01*
X153585883Y-111362194D01*
X153530001Y-111375500D01*
X153488075Y-111375500D01*
X153427486Y-111359689D01*
X153382347Y-111316289D01*
X153364171Y-111256367D01*
X153377591Y-111195204D01*
X153379062Y-111192317D01*
X153381998Y-111186555D01*
X153394326Y-111108717D01*
X153397000Y-111091836D01*
X153397000Y-110728164D01*
X153381998Y-110633443D01*
X153323826Y-110519277D01*
X153233222Y-110428673D01*
X153119056Y-110370501D01*
X153024336Y-110355500D01*
X153024334Y-110355500D01*
X151785666Y-110355500D01*
X151785664Y-110355500D01*
X151690945Y-110370501D01*
X151684609Y-110373730D01*
X151618585Y-110386862D01*
X151555430Y-110363561D01*
X151513755Y-110310696D01*
X151505843Y-110243846D01*
X151522000Y-110141836D01*
X151522000Y-109778164D01*
X151506998Y-109683443D01*
X151448826Y-109569277D01*
X151358222Y-109478673D01*
X151244056Y-109420501D01*
X151149336Y-109405500D01*
X151149334Y-109405500D01*
X149910666Y-109405500D01*
X149910664Y-109405500D01*
X149815943Y-109420501D01*
X149701777Y-109478673D01*
X149611173Y-109569277D01*
X149553001Y-109683443D01*
X149538000Y-109778164D01*
X149538000Y-110141836D01*
X149553001Y-110236556D01*
X149611173Y-110350722D01*
X149701777Y-110441326D01*
X149815943Y-110499498D01*
X149910664Y-110514500D01*
X149910666Y-110514500D01*
X150059106Y-110514500D01*
X150122581Y-110531978D01*
X150168159Y-110579481D01*
X150191292Y-110622227D01*
X150193624Y-110626759D01*
X150220307Y-110681340D01*
X150220627Y-110681769D01*
X150265296Y-110722889D01*
X150268995Y-110726438D01*
X150390876Y-110848319D01*
X150421126Y-110897682D01*
X150425668Y-110955398D01*
X150403513Y-111008885D01*
X150359490Y-111046485D01*
X150303195Y-111060000D01*
X149876861Y-111060000D01*
X149840006Y-111062900D01*
X149682302Y-111108717D01*
X149540942Y-111192317D01*
X149424817Y-111308442D01*
X149341219Y-111449799D01*
X149295400Y-111607511D01*
X149295204Y-111609999D01*
X149295205Y-111610000D01*
X150656000Y-111610000D01*
X150718000Y-111626613D01*
X150763387Y-111672000D01*
X150780000Y-111734000D01*
X150780000Y-112660000D01*
X151183139Y-112660000D01*
X151219993Y-112657099D01*
X151377695Y-112611283D01*
X151485016Y-112547813D01*
X151526028Y-112535655D01*
X151544164Y-112502574D01*
X151635185Y-112411553D01*
X151672329Y-112348746D01*
X151710982Y-112308226D01*
X151763519Y-112288844D01*
X151819227Y-112294551D01*
X151866742Y-112324185D01*
X151949467Y-112406910D01*
X151981721Y-112463101D01*
X151981232Y-112527889D01*
X151948133Y-112583586D01*
X151891462Y-112614988D01*
X151816205Y-112633537D01*
X151689470Y-112700053D01*
X151658434Y-112706323D01*
X151630366Y-112747359D01*
X151556504Y-112812795D01*
X151461429Y-112950535D01*
X151417446Y-112989658D01*
X151360378Y-113004090D01*
X151303084Y-112990579D01*
X151244053Y-112960501D01*
X151149336Y-112945500D01*
X151149334Y-112945500D01*
X149910666Y-112945500D01*
X149910664Y-112945500D01*
X149815943Y-112960501D01*
X149701777Y-113018673D01*
X149611173Y-113109277D01*
X149553001Y-113223443D01*
X149538000Y-113318164D01*
X149538000Y-113681836D01*
X149553001Y-113776556D01*
X149611173Y-113890722D01*
X149701777Y-113981326D01*
X149815943Y-114039498D01*
X149910664Y-114054500D01*
X149910666Y-114054500D01*
X151149334Y-114054500D01*
X151149336Y-114054500D01*
X151187222Y-114048499D01*
X151244055Y-114039498D01*
X151250387Y-114036271D01*
X151316409Y-114023137D01*
X151379566Y-114046435D01*
X151421243Y-114099301D01*
X151429157Y-114166152D01*
X151413000Y-114268169D01*
X151413000Y-114631838D01*
X151429156Y-114733847D01*
X151421244Y-114800697D01*
X151379568Y-114853562D01*
X151316412Y-114876862D01*
X151250388Y-114863729D01*
X151244053Y-114860501D01*
X151149336Y-114845500D01*
X151149334Y-114845500D01*
X149910666Y-114845500D01*
X149910664Y-114845500D01*
X149815943Y-114860501D01*
X149701777Y-114918673D01*
X149611173Y-115009277D01*
X149553001Y-115123443D01*
X149538000Y-115218164D01*
X149538000Y-115581836D01*
X149541988Y-115607016D01*
X149534887Y-115671860D01*
X149495857Y-115724127D01*
X149435701Y-115749353D01*
X149360467Y-115759258D01*
X149230444Y-115813114D01*
X149118789Y-115898789D01*
X149033114Y-116010444D01*
X148979258Y-116140467D01*
X148960887Y-116279999D01*
X148979258Y-116419532D01*
X149033114Y-116549555D01*
X149118789Y-116661210D01*
X149164348Y-116696168D01*
X149230444Y-116746885D01*
X149360468Y-116800742D01*
X149500000Y-116819112D01*
X149533061Y-116814759D01*
X149596697Y-116823136D01*
X149647621Y-116862210D01*
X149672185Y-116921511D01*
X149679258Y-116975232D01*
X149733114Y-117105255D01*
X149818789Y-117216910D01*
X149930443Y-117302584D01*
X149930444Y-117302585D01*
X150060468Y-117356442D01*
X150200000Y-117374812D01*
X150200002Y-117374811D01*
X150202223Y-117375104D01*
X150239038Y-117376309D01*
X150276848Y-117390540D01*
X150288450Y-117397238D01*
X150288451Y-117397239D01*
X150321755Y-117416467D01*
X150330870Y-117422273D01*
X150362384Y-117444340D01*
X150362385Y-117444340D01*
X150363155Y-117444879D01*
X150388527Y-117455388D01*
X150389447Y-117455550D01*
X150389449Y-117455551D01*
X150402104Y-117457782D01*
X150427333Y-117462231D01*
X150437895Y-117464572D01*
X150475033Y-117474524D01*
X150513348Y-117471171D01*
X150524155Y-117470700D01*
X153778486Y-117470700D01*
X153789292Y-117471171D01*
X153827608Y-117474524D01*
X153864762Y-117464567D01*
X153875305Y-117462230D01*
X153913192Y-117455551D01*
X153913193Y-117455549D01*
X153914118Y-117455387D01*
X153939488Y-117444877D01*
X153940253Y-117444340D01*
X153940257Y-117444340D01*
X153971767Y-117422275D01*
X153980885Y-117416467D01*
X154014190Y-117397239D01*
X154038927Y-117367756D01*
X154046214Y-117359805D01*
X155158821Y-116247198D01*
X155208182Y-116216950D01*
X155265898Y-116212408D01*
X155319385Y-116234563D01*
X155356985Y-116278586D01*
X155370500Y-116334880D01*
X155370500Y-116555751D01*
X155376075Y-116607612D01*
X155376960Y-116615842D01*
X155427658Y-116751767D01*
X155514596Y-116867904D01*
X155630733Y-116954842D01*
X155630736Y-116954843D01*
X155766654Y-117005539D01*
X155766655Y-117005539D01*
X155766658Y-117005540D01*
X155826745Y-117012000D01*
X157223254Y-117011999D01*
X157283342Y-117005540D01*
X157419267Y-116954842D01*
X157535404Y-116867904D01*
X157622342Y-116751767D01*
X157673040Y-116615842D01*
X157679500Y-116555755D01*
X157679499Y-115759246D01*
X157673040Y-115699158D01*
X157622342Y-115563233D01*
X157535404Y-115447096D01*
X157419267Y-115360158D01*
X157419264Y-115360157D01*
X157419263Y-115360156D01*
X157283345Y-115309460D01*
X157253298Y-115306229D01*
X157223255Y-115303000D01*
X157223252Y-115303000D01*
X156402382Y-115303000D01*
X156346087Y-115289485D01*
X156302064Y-115251885D01*
X156279909Y-115198398D01*
X156284451Y-115140682D01*
X156314701Y-115091319D01*
X157298521Y-114107500D01*
X157777704Y-114107500D01*
X157777900Y-114109988D01*
X157823719Y-114267700D01*
X157907317Y-114409057D01*
X157996801Y-114498541D01*
X158027051Y-114547903D01*
X158031594Y-114605619D01*
X158020501Y-114675664D01*
X158020500Y-114675669D01*
X158020500Y-115039336D01*
X158035501Y-115134056D01*
X158093673Y-115248222D01*
X158184277Y-115338826D01*
X158298443Y-115396998D01*
X158393164Y-115412000D01*
X158393166Y-115412000D01*
X158493939Y-115412000D01*
X158559419Y-115430699D01*
X158605151Y-115481156D01*
X158617342Y-115548154D01*
X158598782Y-115595120D01*
X158599362Y-115595361D01*
X158539258Y-115740467D01*
X158520887Y-115880000D01*
X158539258Y-116019532D01*
X158593114Y-116149555D01*
X158678789Y-116261210D01*
X158769059Y-116330476D01*
X158790444Y-116346885D01*
X158920468Y-116400742D01*
X159060000Y-116419112D01*
X159199532Y-116400742D01*
X159329556Y-116346885D01*
X159441210Y-116261210D01*
X159526885Y-116149556D01*
X159580742Y-116019532D01*
X159599112Y-115880000D01*
X159580742Y-115740468D01*
X159526885Y-115610444D01*
X159520638Y-115595361D01*
X159521217Y-115595120D01*
X159502658Y-115548154D01*
X159514849Y-115481156D01*
X159560581Y-115430699D01*
X159626061Y-115412000D01*
X159706836Y-115412000D01*
X159801556Y-115396998D01*
X159873861Y-115360156D01*
X159915723Y-115338826D01*
X160006326Y-115248223D01*
X160041726Y-115178748D01*
X160064498Y-115134056D01*
X160079500Y-115039336D01*
X160079500Y-114675664D01*
X160068406Y-114605620D01*
X160072948Y-114547904D01*
X160103198Y-114498540D01*
X160192684Y-114409054D01*
X160276280Y-114267700D01*
X160322099Y-114109988D01*
X160322295Y-114107500D01*
X157777704Y-114107500D01*
X157298521Y-114107500D01*
X157762202Y-113643819D01*
X157802430Y-113616939D01*
X157849883Y-113607500D01*
X160322295Y-113607500D01*
X160322295Y-113607499D01*
X160322099Y-113605011D01*
X160276280Y-113447299D01*
X160192684Y-113305945D01*
X160103198Y-113216460D01*
X160072948Y-113167096D01*
X160068406Y-113109380D01*
X160079500Y-113039336D01*
X160079500Y-112724779D01*
X160088939Y-112677326D01*
X160115819Y-112637098D01*
X160225235Y-112527682D01*
X160339806Y-112413110D01*
X160347756Y-112405824D01*
X160377239Y-112381087D01*
X160396470Y-112347775D01*
X160402266Y-112338676D01*
X160424340Y-112307155D01*
X160424341Y-112307150D01*
X160424880Y-112306381D01*
X160435388Y-112281015D01*
X160442231Y-112242204D01*
X160444569Y-112231652D01*
X160454524Y-112194505D01*
X160451171Y-112156189D01*
X160450700Y-112145383D01*
X160450700Y-111483251D01*
X165545500Y-111483251D01*
X165548677Y-111512799D01*
X165551960Y-111543342D01*
X165602658Y-111679267D01*
X165689596Y-111795404D01*
X165805733Y-111882342D01*
X165805736Y-111882343D01*
X165941654Y-111933039D01*
X165941655Y-111933039D01*
X165941658Y-111933040D01*
X166001745Y-111939500D01*
X167398254Y-111939499D01*
X167458342Y-111933040D01*
X167594267Y-111882342D01*
X167710404Y-111795404D01*
X167797342Y-111679267D01*
X167848040Y-111543342D01*
X167854500Y-111483255D01*
X167854499Y-110636746D01*
X167848040Y-110576658D01*
X167797342Y-110440733D01*
X167710404Y-110324596D01*
X167594267Y-110237658D01*
X167594264Y-110237657D01*
X167594263Y-110237656D01*
X167458345Y-110186960D01*
X167432590Y-110184191D01*
X167398255Y-110180500D01*
X167398251Y-110180500D01*
X166001748Y-110180500D01*
X165941658Y-110186960D01*
X165805733Y-110237658D01*
X165689596Y-110324596D01*
X165602656Y-110440736D01*
X165551960Y-110576654D01*
X165551960Y-110576658D01*
X165546822Y-110624454D01*
X165545500Y-110636748D01*
X165545500Y-111483251D01*
X160450700Y-111483251D01*
X160450700Y-110048895D01*
X160467626Y-109986355D01*
X160513785Y-109940889D01*
X160576573Y-109924909D01*
X160638850Y-109942778D01*
X160680603Y-109968019D01*
X160842893Y-110018590D01*
X160913424Y-110025000D01*
X160920000Y-110025000D01*
X160920000Y-108075001D01*
X160918413Y-108073414D01*
X160914192Y-108074931D01*
X160842895Y-108081408D01*
X160680602Y-108131981D01*
X160535124Y-108219925D01*
X160519382Y-108235667D01*
X160467264Y-108266774D01*
X160406626Y-108269420D01*
X160351997Y-108242970D01*
X160347770Y-108239423D01*
X160339796Y-108232116D01*
X160266981Y-108159301D01*
X160237242Y-108111476D01*
X160231724Y-108055429D01*
X160232052Y-108052940D01*
X160220819Y-107967625D01*
X160231377Y-107899035D01*
X160277134Y-107846859D01*
X160343759Y-107827440D01*
X160902973Y-107827440D01*
X160936023Y-107836029D01*
X160971801Y-107827440D01*
X161093405Y-107827440D01*
X161104211Y-107827911D01*
X161142527Y-107831264D01*
X161179681Y-107821307D01*
X161190224Y-107818970D01*
X161228111Y-107812291D01*
X161228112Y-107812289D01*
X161229037Y-107812127D01*
X161254407Y-107801617D01*
X161255172Y-107801080D01*
X161255176Y-107801080D01*
X161286686Y-107779015D01*
X161295804Y-107773207D01*
X161329109Y-107753979D01*
X161353846Y-107724496D01*
X161361133Y-107716545D01*
X161529806Y-107547872D01*
X161537756Y-107540586D01*
X161567239Y-107515849D01*
X161586470Y-107482537D01*
X161592270Y-107473433D01*
X161614022Y-107442370D01*
X161658339Y-107403509D01*
X161715593Y-107389500D01*
X162036001Y-107389500D01*
X162058388Y-107386552D01*
X162103164Y-107380658D01*
X162165164Y-107364045D01*
X162227750Y-107338120D01*
X162281494Y-107296881D01*
X162326881Y-107251494D01*
X162368120Y-107197750D01*
X162394045Y-107135164D01*
X162410658Y-107073164D01*
X162419500Y-107006000D01*
X162419500Y-105974500D01*
X162419500Y-105974499D01*
X162436113Y-105912500D01*
X162481500Y-105867113D01*
X162543500Y-105850500D01*
X162616500Y-105850500D01*
X162678500Y-105867113D01*
X162723887Y-105912500D01*
X162740500Y-105974500D01*
X162740500Y-107006001D01*
X162749341Y-107073162D01*
X162749342Y-107073164D01*
X162765955Y-107135164D01*
X162791880Y-107197750D01*
X162833119Y-107251494D01*
X162878506Y-107296881D01*
X162932250Y-107338120D01*
X162994836Y-107364045D01*
X163056836Y-107380658D01*
X163090417Y-107385078D01*
X163123999Y-107389500D01*
X163124000Y-107389500D01*
X164576000Y-107389500D01*
X164576001Y-107389500D01*
X164598388Y-107386552D01*
X164643164Y-107380658D01*
X164705164Y-107364045D01*
X164767750Y-107338120D01*
X164821494Y-107296881D01*
X164866881Y-107251494D01*
X164908120Y-107197750D01*
X164934045Y-107135164D01*
X164950658Y-107073164D01*
X164959500Y-107006000D01*
X164959500Y-105974500D01*
X164959500Y-105974499D01*
X164976113Y-105912500D01*
X165021500Y-105867113D01*
X165083500Y-105850500D01*
X168035500Y-105850500D01*
X168097500Y-105867113D01*
X168142887Y-105912500D01*
X168159500Y-105974500D01*
X168159500Y-108736921D01*
X168141227Y-108801711D01*
X168091794Y-108847406D01*
X168025771Y-108860539D01*
X167962614Y-108837239D01*
X167920939Y-108784373D01*
X167906885Y-108750444D01*
X167821210Y-108638789D01*
X167709555Y-108553114D01*
X167579532Y-108499258D01*
X167440000Y-108480887D01*
X167300467Y-108499258D01*
X167170444Y-108553114D01*
X167063793Y-108634950D01*
X167011412Y-108658402D01*
X166954082Y-108655757D01*
X166904083Y-108627581D01*
X166884564Y-108598465D01*
X166884442Y-108598557D01*
X166788974Y-108471025D01*
X166675714Y-108386241D01*
X166543161Y-108336800D01*
X166513857Y-108333650D01*
X166484557Y-108330500D01*
X166484553Y-108330500D01*
X165815445Y-108330500D01*
X165756843Y-108336800D01*
X165624282Y-108386243D01*
X165511025Y-108471025D01*
X165426241Y-108584284D01*
X165391180Y-108678285D01*
X165357530Y-108727495D01*
X165304805Y-108755314D01*
X165245191Y-108755314D01*
X165192466Y-108727494D01*
X165158818Y-108678285D01*
X165123758Y-108584285D01*
X165123351Y-108583741D01*
X165038974Y-108471025D01*
X164925714Y-108386241D01*
X164793161Y-108336800D01*
X164763857Y-108333650D01*
X164734557Y-108330500D01*
X164734553Y-108330500D01*
X164065445Y-108330500D01*
X164006843Y-108336800D01*
X163874282Y-108386243D01*
X163761025Y-108471025D01*
X163676242Y-108584284D01*
X163671565Y-108596824D01*
X163637538Y-108646369D01*
X163584208Y-108674092D01*
X163524105Y-108673479D01*
X163471352Y-108644674D01*
X163438343Y-108594444D01*
X163426370Y-108560228D01*
X163345010Y-108449989D01*
X163234773Y-108368631D01*
X163125804Y-108330501D01*
X163105451Y-108323379D01*
X163105450Y-108323378D01*
X163105448Y-108323378D01*
X163074752Y-108320500D01*
X162565253Y-108320500D01*
X162534550Y-108323378D01*
X162405225Y-108368631D01*
X162294990Y-108449988D01*
X162234265Y-108532268D01*
X162180956Y-108573600D01*
X162113899Y-108580911D01*
X162052937Y-108552037D01*
X162016109Y-108495522D01*
X162013017Y-108485600D01*
X161925074Y-108340124D01*
X161804875Y-108219925D01*
X161659396Y-108131980D01*
X161497106Y-108081409D01*
X161426576Y-108075000D01*
X161420000Y-108075000D01*
X161420000Y-110024999D01*
X161426579Y-110024999D01*
X161497104Y-110018591D01*
X161659397Y-109968018D01*
X161804875Y-109880074D01*
X161925074Y-109759875D01*
X162013017Y-109614399D01*
X162016109Y-109604478D01*
X162052936Y-109547963D01*
X162113899Y-109519088D01*
X162180956Y-109526399D01*
X162234265Y-109567732D01*
X162294989Y-109650010D01*
X162376348Y-109710055D01*
X162405227Y-109731369D01*
X162534549Y-109776621D01*
X162565251Y-109779500D01*
X163074748Y-109779499D01*
X163105451Y-109776621D01*
X163234773Y-109731369D01*
X163345010Y-109650010D01*
X163426369Y-109539773D01*
X163434730Y-109515876D01*
X163467740Y-109465645D01*
X163520494Y-109436839D01*
X163580597Y-109436226D01*
X163633927Y-109463949D01*
X163667953Y-109513492D01*
X163676242Y-109535715D01*
X163676243Y-109535717D01*
X163761025Y-109648974D01*
X163874285Y-109733758D01*
X164006838Y-109783199D01*
X164006841Y-109783199D01*
X164006843Y-109783200D01*
X164065443Y-109789500D01*
X164734556Y-109789499D01*
X164793157Y-109783200D01*
X164925715Y-109733758D01*
X165038974Y-109648974D01*
X165123758Y-109535715D01*
X165158819Y-109441713D01*
X165192468Y-109392505D01*
X165245193Y-109364685D01*
X165304807Y-109364685D01*
X165357532Y-109392505D01*
X165391180Y-109441713D01*
X165426242Y-109535715D01*
X165426243Y-109535717D01*
X165511025Y-109648974D01*
X165624285Y-109733758D01*
X165756838Y-109783199D01*
X165756841Y-109783199D01*
X165756843Y-109783200D01*
X165815443Y-109789500D01*
X166484556Y-109789499D01*
X166543157Y-109783200D01*
X166675715Y-109733758D01*
X166788974Y-109648974D01*
X166873758Y-109535715D01*
X166895325Y-109477890D01*
X166927280Y-109430220D01*
X166977280Y-109402043D01*
X167034611Y-109399398D01*
X167086990Y-109422848D01*
X167170444Y-109486885D01*
X167300468Y-109540742D01*
X167440000Y-109559112D01*
X167579532Y-109540742D01*
X167709556Y-109486885D01*
X167821210Y-109401210D01*
X167906885Y-109289556D01*
X167920938Y-109255627D01*
X167962614Y-109202761D01*
X168025771Y-109179461D01*
X168091794Y-109192594D01*
X168141227Y-109238289D01*
X168159500Y-109303079D01*
X168159500Y-137521564D01*
X168144332Y-137580991D01*
X168102539Y-137625880D01*
X168044345Y-137645248D01*
X167983988Y-137634358D01*
X167936234Y-137595876D01*
X167867904Y-137504596D01*
X167751767Y-137417658D01*
X167751764Y-137417657D01*
X167751763Y-137417656D01*
X167615841Y-137366959D01*
X167611443Y-137366486D01*
X167555196Y-137345887D01*
X167515168Y-137301324D01*
X167500700Y-137243197D01*
X167500700Y-137208791D01*
X167513488Y-137153947D01*
X167549214Y-137110415D01*
X167550656Y-137109307D01*
X167561210Y-137101210D01*
X167646885Y-136989556D01*
X167700742Y-136859532D01*
X167719112Y-136720000D01*
X167700742Y-136580468D01*
X167646885Y-136450444D01*
X167625892Y-136423085D01*
X167561210Y-136338789D01*
X167449555Y-136253114D01*
X167319532Y-136199258D01*
X167180000Y-136180887D01*
X167040467Y-136199258D01*
X166910444Y-136253114D01*
X166798789Y-136338789D01*
X166731862Y-136426012D01*
X166683921Y-136463806D01*
X166623757Y-136474144D01*
X166565951Y-136454521D01*
X166524513Y-136409694D01*
X166509486Y-136350526D01*
X166509486Y-135789998D01*
X166489734Y-135690699D01*
X166433484Y-135606515D01*
X166349300Y-135550265D01*
X166250002Y-135530514D01*
X166250000Y-135530514D01*
X165813193Y-135530514D01*
X165795547Y-135529252D01*
X165786929Y-135528013D01*
X165713071Y-135528013D01*
X165704452Y-135529252D01*
X165686807Y-135530514D01*
X165313193Y-135530514D01*
X165295547Y-135529252D01*
X165286929Y-135528013D01*
X165213071Y-135528013D01*
X165204452Y-135529252D01*
X165186807Y-135530514D01*
X164749998Y-135530514D01*
X164650699Y-135550265D01*
X164566515Y-135606515D01*
X164510265Y-135690699D01*
X164490514Y-135789998D01*
X164490514Y-135835300D01*
X164473901Y-135897300D01*
X164428514Y-135942687D01*
X164366514Y-135959300D01*
X162305943Y-135959300D01*
X162258490Y-135949861D01*
X162218262Y-135922981D01*
X162130581Y-135835300D01*
X162039583Y-135744302D01*
X162006979Y-135686743D01*
X162008610Y-135620608D01*
X162044015Y-135564724D01*
X162060719Y-135556322D01*
X162058792Y-135553438D01*
X162163484Y-135483484D01*
X162182204Y-135455468D01*
X162219734Y-135399301D01*
X162234500Y-135325067D01*
X162234499Y-134474934D01*
X162234499Y-134474700D01*
X162251112Y-134412700D01*
X162296499Y-134367313D01*
X162358499Y-134350700D01*
X162950145Y-134350700D01*
X162960951Y-134351171D01*
X162999267Y-134354524D01*
X163036421Y-134344567D01*
X163046964Y-134342230D01*
X163084851Y-134335551D01*
X163084852Y-134335549D01*
X163085777Y-134335387D01*
X163111147Y-134324877D01*
X163111912Y-134324340D01*
X163111916Y-134324340D01*
X163143426Y-134302275D01*
X163152544Y-134296467D01*
X163162935Y-134290468D01*
X163185849Y-134277239D01*
X163210585Y-134247758D01*
X163217873Y-134239805D01*
X165159811Y-132297868D01*
X165167765Y-132290579D01*
X165197239Y-132265849D01*
X165197239Y-132265847D01*
X165206166Y-132258358D01*
X165267007Y-132230792D01*
X165333320Y-132238786D01*
X165410468Y-132270742D01*
X165437685Y-132274325D01*
X165492623Y-132295689D01*
X165531489Y-132340007D01*
X165545500Y-132397264D01*
X165545500Y-133193251D01*
X165549424Y-133229753D01*
X165551960Y-133253342D01*
X165602658Y-133389267D01*
X165689596Y-133505404D01*
X165805733Y-133592342D01*
X165805736Y-133592343D01*
X165941654Y-133643039D01*
X165941655Y-133643039D01*
X165941658Y-133643040D01*
X166001745Y-133649500D01*
X167398254Y-133649499D01*
X167458342Y-133643040D01*
X167594267Y-133592342D01*
X167710404Y-133505404D01*
X167797342Y-133389267D01*
X167848040Y-133253342D01*
X167854500Y-133193255D01*
X167854499Y-132346746D01*
X167848040Y-132286658D01*
X167797342Y-132150733D01*
X167710404Y-132034596D01*
X167594267Y-131947658D01*
X167594264Y-131947657D01*
X167594263Y-131947656D01*
X167458345Y-131896960D01*
X167428298Y-131893730D01*
X167398255Y-131890500D01*
X167398252Y-131890500D01*
X166569492Y-131890500D01*
X166510324Y-131875473D01*
X166465497Y-131834035D01*
X166445874Y-131776229D01*
X166456212Y-131716064D01*
X166494006Y-131668124D01*
X166581210Y-131601210D01*
X166604230Y-131571210D01*
X166666885Y-131489556D01*
X166720742Y-131359532D01*
X166739112Y-131220000D01*
X166734219Y-131182842D01*
X166742598Y-131119203D01*
X166781673Y-131068280D01*
X166840971Y-131043717D01*
X166939532Y-131030742D01*
X167069556Y-130976885D01*
X167181210Y-130891210D01*
X167266885Y-130779556D01*
X167320742Y-130649532D01*
X167335897Y-130534416D01*
X167354256Y-130483978D01*
X167392211Y-130446022D01*
X167442648Y-130427664D01*
X167495232Y-130420742D01*
X167625256Y-130366885D01*
X167736910Y-130281210D01*
X167822585Y-130169556D01*
X167876442Y-130039532D01*
X167894812Y-129900000D01*
X167876442Y-129760468D01*
X167822585Y-129630444D01*
X167815018Y-129620583D01*
X167736910Y-129518789D01*
X167734914Y-129517258D01*
X167699188Y-129473726D01*
X167686400Y-129418882D01*
X167686400Y-118495555D01*
X167686872Y-118484747D01*
X167690224Y-118446433D01*
X167680273Y-118409298D01*
X167677931Y-118398733D01*
X167671088Y-118359927D01*
X167660579Y-118334555D01*
X167660040Y-118333785D01*
X167660040Y-118333784D01*
X167637973Y-118302270D01*
X167632164Y-118293150D01*
X167612938Y-118259850D01*
X167583471Y-118235124D01*
X167575496Y-118227816D01*
X162792882Y-113445202D01*
X162785573Y-113437226D01*
X162760848Y-113407760D01*
X162727545Y-113388532D01*
X162718423Y-113382721D01*
X162686151Y-113360124D01*
X162660770Y-113349610D01*
X162621975Y-113342770D01*
X162611414Y-113340429D01*
X162574267Y-113330475D01*
X162538554Y-113333600D01*
X162535951Y-113333828D01*
X162525145Y-113334300D01*
X162297896Y-113334300D01*
X162233106Y-113316027D01*
X162206323Y-113287053D01*
X162205213Y-113288164D01*
X162100722Y-113183673D01*
X161986556Y-113125501D01*
X161891836Y-113110500D01*
X161891834Y-113110500D01*
X161128166Y-113110500D01*
X161128164Y-113110500D01*
X161033443Y-113125501D01*
X160919277Y-113183673D01*
X160828673Y-113274277D01*
X160770501Y-113388443D01*
X160755500Y-113483164D01*
X160755500Y-113846836D01*
X160770501Y-113941556D01*
X160828673Y-114055722D01*
X160919277Y-114146326D01*
X161033443Y-114204498D01*
X161128164Y-114219500D01*
X161128166Y-114219500D01*
X161891834Y-114219500D01*
X161891836Y-114219500D01*
X161986556Y-114204498D01*
X162047499Y-114173445D01*
X162100723Y-114146326D01*
X162191326Y-114055723D01*
X162191326Y-114055722D01*
X162205213Y-114041836D01*
X162206323Y-114042946D01*
X162233106Y-114013973D01*
X162297896Y-113995700D01*
X162356658Y-113995700D01*
X162404111Y-114005139D01*
X162444339Y-114032019D01*
X166988681Y-118576361D01*
X167015561Y-118616589D01*
X167025000Y-118664042D01*
X167025000Y-118977958D01*
X167011485Y-119034253D01*
X166973885Y-119078276D01*
X166920398Y-119100431D01*
X166862682Y-119095889D01*
X166813319Y-119065639D01*
X162692882Y-114945202D01*
X162685573Y-114937226D01*
X162680622Y-114931326D01*
X162660849Y-114907761D01*
X162660848Y-114907760D01*
X162627545Y-114888532D01*
X162618423Y-114882721D01*
X162586151Y-114860124D01*
X162560770Y-114849610D01*
X162521975Y-114842770D01*
X162511414Y-114840429D01*
X162474267Y-114830475D01*
X162438554Y-114833600D01*
X162435951Y-114833828D01*
X162425145Y-114834300D01*
X162297896Y-114834300D01*
X162233106Y-114816027D01*
X162206323Y-114787053D01*
X162205213Y-114788164D01*
X162100722Y-114683673D01*
X161986556Y-114625501D01*
X161891836Y-114610500D01*
X161891834Y-114610500D01*
X161128166Y-114610500D01*
X161128164Y-114610500D01*
X161033443Y-114625501D01*
X160919277Y-114683673D01*
X160828673Y-114774277D01*
X160770501Y-114888443D01*
X160755500Y-114983164D01*
X160755500Y-115346836D01*
X160770501Y-115441556D01*
X160828673Y-115555722D01*
X160919277Y-115646326D01*
X161033443Y-115704498D01*
X161128164Y-115719500D01*
X161128166Y-115719500D01*
X161891834Y-115719500D01*
X161891836Y-115719500D01*
X161986556Y-115704498D01*
X162050610Y-115671860D01*
X162100723Y-115646326D01*
X162191326Y-115555723D01*
X162191328Y-115555718D01*
X162192002Y-115555045D01*
X162247590Y-115522951D01*
X162311777Y-115522951D01*
X162367365Y-115555045D01*
X166432981Y-119620661D01*
X166459861Y-119660889D01*
X166469300Y-119708342D01*
X166469300Y-120167304D01*
X166455785Y-120223599D01*
X166418185Y-120267622D01*
X166364698Y-120289777D01*
X166306982Y-120285235D01*
X166257619Y-120254985D01*
X162447836Y-116445202D01*
X162440527Y-116437226D01*
X162425327Y-116419112D01*
X162415803Y-116407761D01*
X162415802Y-116407760D01*
X162382499Y-116388532D01*
X162373377Y-116382721D01*
X162341105Y-116360124D01*
X162315724Y-116349610D01*
X162282106Y-116343683D01*
X162229880Y-116321246D01*
X162193153Y-116277863D01*
X162191325Y-116274276D01*
X162100722Y-116183673D01*
X161986556Y-116125501D01*
X161891836Y-116110500D01*
X161891834Y-116110500D01*
X161128166Y-116110500D01*
X161128164Y-116110500D01*
X161033443Y-116125501D01*
X160919277Y-116183673D01*
X160828673Y-116274277D01*
X160770501Y-116388443D01*
X160755500Y-116483164D01*
X160755500Y-116846836D01*
X160770501Y-116941556D01*
X160828673Y-117055722D01*
X160919277Y-117146326D01*
X161033443Y-117204498D01*
X161128164Y-117219500D01*
X161128166Y-117219500D01*
X161891834Y-117219500D01*
X161891836Y-117219500D01*
X161954981Y-117209498D01*
X161986555Y-117204498D01*
X162095229Y-117149125D01*
X162145031Y-117135780D01*
X162195959Y-117143846D01*
X162239203Y-117171929D01*
X162689893Y-117622619D01*
X162720143Y-117671982D01*
X162724685Y-117729698D01*
X162702530Y-117783185D01*
X162658507Y-117820785D01*
X162602212Y-117834300D01*
X162297896Y-117834300D01*
X162233106Y-117816027D01*
X162206323Y-117787053D01*
X162205213Y-117788164D01*
X162100722Y-117683673D01*
X161986556Y-117625501D01*
X161891836Y-117610500D01*
X161891834Y-117610500D01*
X161128166Y-117610500D01*
X161128164Y-117610500D01*
X161033443Y-117625501D01*
X160919277Y-117683673D01*
X160828673Y-117774277D01*
X160770501Y-117888443D01*
X160755500Y-117983164D01*
X160755500Y-118346836D01*
X160770501Y-118441556D01*
X160828673Y-118555722D01*
X160919277Y-118646326D01*
X161033443Y-118704498D01*
X161128164Y-118719500D01*
X161128166Y-118719500D01*
X161891834Y-118719500D01*
X161891836Y-118719500D01*
X161986556Y-118704498D01*
X162043638Y-118675412D01*
X162100723Y-118646326D01*
X162191326Y-118555723D01*
X162191326Y-118555722D01*
X162205213Y-118541836D01*
X162206323Y-118542946D01*
X162233106Y-118513973D01*
X162297896Y-118495700D01*
X163013244Y-118495700D01*
X163060697Y-118505139D01*
X163100925Y-118532019D01*
X163729254Y-119160348D01*
X163762634Y-119221191D01*
X163758095Y-119290440D01*
X163717059Y-119346405D01*
X163648789Y-119398789D01*
X163647258Y-119400786D01*
X163603726Y-119436512D01*
X163548882Y-119449300D01*
X162356492Y-119449300D01*
X162291702Y-119431027D01*
X162246008Y-119381596D01*
X162191326Y-119274277D01*
X162100723Y-119183674D01*
X162100723Y-119183673D01*
X162100722Y-119183673D01*
X161986556Y-119125501D01*
X161891836Y-119110500D01*
X161891834Y-119110500D01*
X161128166Y-119110500D01*
X161128164Y-119110500D01*
X161033443Y-119125501D01*
X160919277Y-119183673D01*
X160828673Y-119274277D01*
X160770501Y-119388443D01*
X160755500Y-119483164D01*
X160755500Y-119846836D01*
X160770501Y-119941556D01*
X160828673Y-120055722D01*
X160919277Y-120146326D01*
X161033443Y-120204498D01*
X161128164Y-120219500D01*
X161128166Y-120219500D01*
X161891834Y-120219500D01*
X161891836Y-120219500D01*
X161986556Y-120204498D01*
X162034846Y-120179892D01*
X162100723Y-120146326D01*
X162100724Y-120146324D01*
X162102170Y-120145588D01*
X162140258Y-120120139D01*
X162187711Y-120110700D01*
X163548882Y-120110700D01*
X163603726Y-120123488D01*
X163647258Y-120159214D01*
X163648789Y-120161210D01*
X163724755Y-120219500D01*
X163760444Y-120246885D01*
X163890468Y-120300742D01*
X164030000Y-120319112D01*
X164169532Y-120300742D01*
X164299556Y-120246885D01*
X164411210Y-120161210D01*
X164463596Y-120092938D01*
X164519558Y-120051905D01*
X164588808Y-120047365D01*
X164649651Y-120080745D01*
X165182981Y-120614075D01*
X165209861Y-120654303D01*
X165219300Y-120701756D01*
X165219300Y-121012257D01*
X165205785Y-121068552D01*
X165168186Y-121112575D01*
X165114698Y-121134730D01*
X165056982Y-121130188D01*
X165007620Y-121099939D01*
X164852869Y-120945189D01*
X164845572Y-120937225D01*
X164833815Y-120923214D01*
X164820849Y-120907761D01*
X164820848Y-120907760D01*
X164787545Y-120888532D01*
X164778423Y-120882721D01*
X164746151Y-120860124D01*
X164720770Y-120849610D01*
X164681975Y-120842770D01*
X164671414Y-120840429D01*
X164634267Y-120830475D01*
X164598554Y-120833600D01*
X164595951Y-120833828D01*
X164585145Y-120834300D01*
X162297896Y-120834300D01*
X162233106Y-120816027D01*
X162206323Y-120787053D01*
X162205213Y-120788164D01*
X162100722Y-120683673D01*
X161986556Y-120625501D01*
X161891836Y-120610500D01*
X161891834Y-120610500D01*
X161128166Y-120610500D01*
X161128164Y-120610500D01*
X161033443Y-120625501D01*
X160919277Y-120683673D01*
X160828673Y-120774277D01*
X160770501Y-120888443D01*
X160755500Y-120983164D01*
X160755500Y-121346836D01*
X160770501Y-121441556D01*
X160828673Y-121555722D01*
X160919277Y-121646326D01*
X161033443Y-121704498D01*
X161128164Y-121719500D01*
X161128166Y-121719500D01*
X161891834Y-121719500D01*
X161891836Y-121719500D01*
X161986556Y-121704498D01*
X162050149Y-121672095D01*
X162100723Y-121646326D01*
X162191326Y-121555723D01*
X162191326Y-121555722D01*
X162205213Y-121541836D01*
X162206323Y-121542946D01*
X162233106Y-121513973D01*
X162297896Y-121495700D01*
X163846114Y-121495700D01*
X163911594Y-121514399D01*
X163957326Y-121564856D01*
X163969517Y-121631854D01*
X163944490Y-121695185D01*
X163937345Y-121704498D01*
X163917413Y-121730473D01*
X163863558Y-121860494D01*
X163845187Y-122000026D01*
X163863558Y-122139559D01*
X163917414Y-122269582D01*
X164003089Y-122381237D01*
X164005086Y-122382769D01*
X164040812Y-122426301D01*
X164053600Y-122481145D01*
X164053600Y-122516558D01*
X164040085Y-122572853D01*
X164002485Y-122616876D01*
X163948998Y-122639031D01*
X163891282Y-122634489D01*
X163841919Y-122604239D01*
X163682882Y-122445202D01*
X163675573Y-122437226D01*
X163661114Y-122419995D01*
X163650849Y-122407761D01*
X163650848Y-122407760D01*
X163617545Y-122388532D01*
X163608423Y-122382721D01*
X163576151Y-122360124D01*
X163550770Y-122349610D01*
X163511975Y-122342770D01*
X163501414Y-122340429D01*
X163464267Y-122330475D01*
X163428554Y-122333600D01*
X163425951Y-122333828D01*
X163415145Y-122334300D01*
X162297896Y-122334300D01*
X162233106Y-122316027D01*
X162206323Y-122287053D01*
X162205213Y-122288164D01*
X162100722Y-122183673D01*
X161986556Y-122125501D01*
X161891836Y-122110500D01*
X161891834Y-122110500D01*
X161128166Y-122110500D01*
X161128164Y-122110500D01*
X161033443Y-122125501D01*
X160919277Y-122183673D01*
X160828673Y-122274277D01*
X160770501Y-122388443D01*
X160755500Y-122483164D01*
X160755500Y-122846836D01*
X160770501Y-122941556D01*
X160828673Y-123055722D01*
X160919277Y-123146326D01*
X161033443Y-123204498D01*
X161128164Y-123219500D01*
X161128166Y-123219500D01*
X161891834Y-123219500D01*
X161891836Y-123219500D01*
X161986556Y-123204498D01*
X162043639Y-123175411D01*
X162100723Y-123146326D01*
X162191326Y-123055723D01*
X162191326Y-123055722D01*
X162205213Y-123041836D01*
X162206323Y-123042946D01*
X162233106Y-123013973D01*
X162297896Y-122995700D01*
X163246658Y-122995700D01*
X163294111Y-123005139D01*
X163334339Y-123032019D01*
X163612981Y-123310661D01*
X163639861Y-123350889D01*
X163649300Y-123398342D01*
X163649300Y-123964658D01*
X163635785Y-124020953D01*
X163598185Y-124064976D01*
X163544698Y-124087131D01*
X163486982Y-124082589D01*
X163437619Y-124052339D01*
X163330482Y-123945202D01*
X163323173Y-123937226D01*
X163304375Y-123914824D01*
X163298449Y-123907761D01*
X163298448Y-123907760D01*
X163265145Y-123888532D01*
X163256023Y-123882721D01*
X163223751Y-123860124D01*
X163198370Y-123849610D01*
X163159575Y-123842770D01*
X163149014Y-123840429D01*
X163111867Y-123830475D01*
X163076154Y-123833600D01*
X163073551Y-123833828D01*
X163062745Y-123834300D01*
X162297896Y-123834300D01*
X162233106Y-123816027D01*
X162206323Y-123787053D01*
X162205213Y-123788164D01*
X162100722Y-123683673D01*
X161986556Y-123625501D01*
X161891836Y-123610500D01*
X161891834Y-123610500D01*
X161128166Y-123610500D01*
X161128164Y-123610500D01*
X161033443Y-123625501D01*
X160919277Y-123683673D01*
X160828673Y-123774277D01*
X160770501Y-123888443D01*
X160755500Y-123983164D01*
X160755500Y-124346836D01*
X160770501Y-124441556D01*
X160828673Y-124555722D01*
X160919277Y-124646326D01*
X161033443Y-124704498D01*
X161128164Y-124719500D01*
X161128166Y-124719500D01*
X161891834Y-124719500D01*
X161891836Y-124719500D01*
X161986556Y-124704498D01*
X162043638Y-124675412D01*
X162100723Y-124646326D01*
X162191326Y-124555723D01*
X162191326Y-124555722D01*
X162205213Y-124541836D01*
X162206323Y-124542946D01*
X162233106Y-124513973D01*
X162297896Y-124495700D01*
X162894258Y-124495700D01*
X162941711Y-124505139D01*
X162981939Y-124532019D01*
X163260581Y-124810661D01*
X163287461Y-124850889D01*
X163296900Y-124898342D01*
X163296900Y-125439858D01*
X163283385Y-125496153D01*
X163245785Y-125540176D01*
X163192298Y-125562331D01*
X163134582Y-125557789D01*
X163085219Y-125527539D01*
X163002882Y-125445202D01*
X162995573Y-125437226D01*
X162974188Y-125411741D01*
X162970849Y-125407761D01*
X162970848Y-125407760D01*
X162937545Y-125388532D01*
X162928423Y-125382721D01*
X162896151Y-125360124D01*
X162870770Y-125349610D01*
X162831975Y-125342770D01*
X162821414Y-125340429D01*
X162784267Y-125330475D01*
X162748554Y-125333600D01*
X162745951Y-125333828D01*
X162735145Y-125334300D01*
X162297896Y-125334300D01*
X162233106Y-125316027D01*
X162206323Y-125287053D01*
X162205213Y-125288164D01*
X162100722Y-125183673D01*
X161986556Y-125125501D01*
X161891836Y-125110500D01*
X161891834Y-125110500D01*
X161128166Y-125110500D01*
X161128164Y-125110500D01*
X161033443Y-125125501D01*
X160919277Y-125183673D01*
X160828673Y-125274277D01*
X160770501Y-125388443D01*
X160755500Y-125483164D01*
X160755500Y-125842271D01*
X160754137Y-125847543D01*
X160756473Y-125852980D01*
X160770501Y-125941556D01*
X160828673Y-126055722D01*
X160919277Y-126146326D01*
X161033443Y-126204498D01*
X161128164Y-126219500D01*
X161128166Y-126219500D01*
X161891834Y-126219500D01*
X161891836Y-126219500D01*
X161986556Y-126204498D01*
X162043638Y-126175412D01*
X162100723Y-126146326D01*
X162191326Y-126055723D01*
X162191326Y-126055722D01*
X162205213Y-126041836D01*
X162206323Y-126042946D01*
X162233106Y-126013973D01*
X162297896Y-125995700D01*
X162566658Y-125995700D01*
X162614111Y-126005139D01*
X162654339Y-126032019D01*
X162908181Y-126285861D01*
X162935061Y-126326089D01*
X162944500Y-126373542D01*
X162944500Y-126746804D01*
X162926511Y-126811128D01*
X162877764Y-126856789D01*
X162812403Y-126870539D01*
X162789096Y-126862346D01*
X162788032Y-126866319D01*
X162768412Y-126861061D01*
X162740770Y-126849610D01*
X162701975Y-126842770D01*
X162691414Y-126840429D01*
X162654267Y-126830475D01*
X162618554Y-126833600D01*
X162615951Y-126833828D01*
X162605145Y-126834300D01*
X162297896Y-126834300D01*
X162233106Y-126816027D01*
X162206323Y-126787053D01*
X162205213Y-126788164D01*
X162100722Y-126683673D01*
X161986556Y-126625501D01*
X161891836Y-126610500D01*
X161891834Y-126610500D01*
X161128166Y-126610500D01*
X161128164Y-126610500D01*
X161033443Y-126625501D01*
X160919277Y-126683673D01*
X160828673Y-126774277D01*
X160770501Y-126888443D01*
X160755500Y-126983164D01*
X160755500Y-127016138D01*
X160741985Y-127072433D01*
X160704385Y-127116456D01*
X160650898Y-127138611D01*
X160593182Y-127134069D01*
X160543819Y-127103819D01*
X160510000Y-127070000D01*
X159210000Y-127070000D01*
X159210000Y-129446000D01*
X159193387Y-129508000D01*
X159148000Y-129553387D01*
X159086000Y-129570000D01*
X158834000Y-129570000D01*
X158772000Y-129553387D01*
X158726613Y-129508000D01*
X158710000Y-129446000D01*
X158710000Y-125420000D01*
X159210000Y-125420000D01*
X159210000Y-126570000D01*
X160510000Y-126570000D01*
X160510000Y-125872378D01*
X160511834Y-125865154D01*
X160508210Y-125855525D01*
X160503597Y-125812624D01*
X160453352Y-125677910D01*
X160367188Y-125562811D01*
X160252089Y-125476647D01*
X160117375Y-125426402D01*
X160057824Y-125420000D01*
X159210000Y-125420000D01*
X158710000Y-125420000D01*
X157862171Y-125420000D01*
X157848085Y-125421514D01*
X157784935Y-125411741D01*
X157735037Y-125371821D01*
X157711642Y-125312356D01*
X157720963Y-125249138D01*
X157760523Y-125198958D01*
X157835404Y-125142904D01*
X157922342Y-125026767D01*
X157970243Y-124898342D01*
X157973039Y-124890845D01*
X157973039Y-124890844D01*
X157973040Y-124890842D01*
X157979500Y-124830755D01*
X157979499Y-124059246D01*
X157973040Y-123999158D01*
X157922342Y-123863233D01*
X157835404Y-123747096D01*
X157719267Y-123660158D01*
X157719264Y-123660157D01*
X157719263Y-123660156D01*
X157583345Y-123609460D01*
X157557590Y-123606691D01*
X157523255Y-123603000D01*
X157523251Y-123603000D01*
X156476748Y-123603000D01*
X156416658Y-123609460D01*
X156280733Y-123660158D01*
X156164593Y-123747098D01*
X156070524Y-123872762D01*
X156026762Y-123909336D01*
X155971257Y-123922452D01*
X155915752Y-123909336D01*
X155871989Y-123872762D01*
X155862930Y-123860660D01*
X155785404Y-123757096D01*
X155669267Y-123670158D01*
X155669264Y-123670157D01*
X155669263Y-123670156D01*
X155533345Y-123619460D01*
X155507590Y-123616691D01*
X155473255Y-123613000D01*
X155473251Y-123613000D01*
X154426748Y-123613000D01*
X154366657Y-123619460D01*
X154366658Y-123619460D01*
X154230733Y-123670158D01*
X154114596Y-123757096D01*
X154027658Y-123873233D01*
X154027657Y-123873234D01*
X154016975Y-123887505D01*
X154015262Y-123886223D01*
X153990991Y-123919407D01*
X153928840Y-123944985D01*
X153862474Y-123934380D01*
X153811388Y-123890709D01*
X153809933Y-123888532D01*
X153763484Y-123819016D01*
X153737720Y-123801801D01*
X153679300Y-123762765D01*
X153605069Y-123748000D01*
X153605067Y-123748000D01*
X153368550Y-123748000D01*
X153310097Y-123733358D01*
X153265448Y-123692891D01*
X153245147Y-123636155D01*
X153253989Y-123576548D01*
X153283058Y-123506368D01*
X153310742Y-123439532D01*
X153329112Y-123300000D01*
X153310742Y-123160468D01*
X153310741Y-123160467D01*
X153308993Y-123147185D01*
X153319550Y-123078595D01*
X153365307Y-123026419D01*
X153431932Y-123006999D01*
X153605065Y-123006999D01*
X153605066Y-123006999D01*
X153679301Y-122992234D01*
X153763484Y-122935984D01*
X153792240Y-122892948D01*
X153843327Y-122849277D01*
X153909696Y-122838674D01*
X153971847Y-122864255D01*
X154011521Y-122918504D01*
X154027658Y-122961767D01*
X154114596Y-123077904D01*
X154230733Y-123164842D01*
X154230736Y-123164843D01*
X154366654Y-123215539D01*
X154366655Y-123215539D01*
X154366658Y-123215540D01*
X154426745Y-123222000D01*
X155473254Y-123221999D01*
X155533342Y-123215540D01*
X155669267Y-123164842D01*
X155785404Y-123077904D01*
X155872342Y-122961767D01*
X155872343Y-122961763D01*
X155879474Y-122952238D01*
X155923237Y-122915664D01*
X155978741Y-122902547D01*
X156034247Y-122915663D01*
X156078009Y-122952237D01*
X156164593Y-123067901D01*
X156164594Y-123067902D01*
X156164596Y-123067904D01*
X156280733Y-123154842D01*
X156280736Y-123154843D01*
X156416654Y-123205539D01*
X156416655Y-123205539D01*
X156416658Y-123205540D01*
X156476745Y-123212000D01*
X157523254Y-123211999D01*
X157583342Y-123205540D01*
X157719267Y-123154842D01*
X157835404Y-123067904D01*
X157922342Y-122951767D01*
X157973040Y-122815842D01*
X157979500Y-122755755D01*
X157979499Y-122279938D01*
X157994141Y-122221487D01*
X158034608Y-122176838D01*
X158091344Y-122156537D01*
X158150950Y-122165378D01*
X158260468Y-122210742D01*
X158381628Y-122226693D01*
X158399999Y-122229112D01*
X158399999Y-122229111D01*
X158400000Y-122229112D01*
X158539532Y-122210742D01*
X158669556Y-122156885D01*
X158781210Y-122071210D01*
X158866885Y-121959556D01*
X158920742Y-121829532D01*
X158939112Y-121690000D01*
X158938783Y-121687503D01*
X158944302Y-121631461D01*
X158974039Y-121583639D01*
X159009806Y-121547872D01*
X159017756Y-121540586D01*
X159047239Y-121515849D01*
X159066470Y-121482537D01*
X159072266Y-121473438D01*
X159094340Y-121441917D01*
X159094341Y-121441912D01*
X159094880Y-121441143D01*
X159105388Y-121415777D01*
X159112231Y-121376966D01*
X159114569Y-121366414D01*
X159124524Y-121329267D01*
X159123916Y-121322323D01*
X159121172Y-121290953D01*
X159120700Y-121280145D01*
X159120700Y-121261441D01*
X159130712Y-121212629D01*
X159159130Y-121171698D01*
X159201365Y-121145260D01*
X159230445Y-121134413D01*
X159265715Y-121121258D01*
X159378974Y-121036474D01*
X159463758Y-120923215D01*
X159488516Y-120856836D01*
X159513199Y-120790661D01*
X159513199Y-120790659D01*
X159513200Y-120790657D01*
X159519500Y-120732057D01*
X159519499Y-120037944D01*
X159513200Y-119979343D01*
X159463758Y-119846785D01*
X159463756Y-119846782D01*
X159378974Y-119733525D01*
X159265715Y-119648742D01*
X159238739Y-119638680D01*
X159189530Y-119605030D01*
X159161710Y-119552304D01*
X159161711Y-119492689D01*
X159189533Y-119439964D01*
X159238738Y-119406319D01*
X159265715Y-119396258D01*
X159378974Y-119311474D01*
X159463758Y-119198215D01*
X159500702Y-119099165D01*
X159513199Y-119065661D01*
X159513199Y-119065659D01*
X159513200Y-119065657D01*
X159519500Y-119007057D01*
X159519499Y-118312944D01*
X159513200Y-118254343D01*
X159463758Y-118121785D01*
X159426797Y-118072410D01*
X159378974Y-118008525D01*
X159265714Y-117923741D01*
X159133161Y-117874300D01*
X159103857Y-117871150D01*
X159074557Y-117868000D01*
X159074553Y-117868000D01*
X158505445Y-117868000D01*
X158446843Y-117874300D01*
X158314282Y-117923743D01*
X158201026Y-118008524D01*
X158169852Y-118050169D01*
X158118037Y-118090419D01*
X158052938Y-118098596D01*
X157992779Y-118072410D01*
X157954403Y-118019192D01*
X157950425Y-118008526D01*
X157922342Y-117933233D01*
X157835404Y-117817096D01*
X157719267Y-117730158D01*
X157719264Y-117730157D01*
X157719263Y-117730156D01*
X157583345Y-117679460D01*
X157557590Y-117676691D01*
X157523255Y-117673000D01*
X157523251Y-117673000D01*
X156476748Y-117673000D01*
X156416658Y-117679460D01*
X156280733Y-117730158D01*
X156164593Y-117817098D01*
X156071459Y-117941512D01*
X156027696Y-117978086D01*
X155972192Y-117991202D01*
X155916687Y-117978086D01*
X155872924Y-117941512D01*
X155872343Y-117940736D01*
X155872342Y-117940733D01*
X155785404Y-117824596D01*
X155669267Y-117737658D01*
X155669264Y-117737657D01*
X155669263Y-117737656D01*
X155533345Y-117686960D01*
X155507590Y-117684191D01*
X155473255Y-117680500D01*
X155473251Y-117680500D01*
X154426748Y-117680500D01*
X154366658Y-117686960D01*
X154230733Y-117737658D01*
X154114596Y-117824596D01*
X154027656Y-117940735D01*
X153979829Y-118068961D01*
X153940154Y-118123211D01*
X153878002Y-118148792D01*
X153811633Y-118138189D01*
X153760546Y-118094517D01*
X153748613Y-118076658D01*
X153733484Y-118054016D01*
X153665404Y-118008526D01*
X153649300Y-117997765D01*
X153575069Y-117983000D01*
X151964934Y-117983000D01*
X151890698Y-117997766D01*
X151806515Y-118054015D01*
X151750265Y-118138199D01*
X151735500Y-118212431D01*
X151735500Y-118867080D01*
X151716081Y-118933705D01*
X151663905Y-118979462D01*
X151595315Y-118990019D01*
X151467014Y-118973128D01*
X151457814Y-118971916D01*
X151402877Y-118950553D01*
X151364011Y-118906235D01*
X151350000Y-118848978D01*
X151350000Y-118812500D01*
X148790000Y-118812500D01*
X148790000Y-118935324D01*
X148796402Y-118994875D01*
X148846647Y-119129589D01*
X148932811Y-119244689D01*
X148985811Y-119284365D01*
X149022384Y-119328128D01*
X149035500Y-119383632D01*
X149035500Y-119641368D01*
X149022384Y-119696872D01*
X148985811Y-119740635D01*
X148932811Y-119780310D01*
X148846647Y-119895410D01*
X148796402Y-120030124D01*
X148790000Y-120089676D01*
X148790000Y-120212500D01*
X151350000Y-120212500D01*
X151350000Y-120171022D01*
X151364011Y-120113765D01*
X151402876Y-120069447D01*
X151457813Y-120048083D01*
X151589532Y-120030742D01*
X151589534Y-120030740D01*
X151595314Y-120029980D01*
X151663904Y-120040537D01*
X151716080Y-120086294D01*
X151735500Y-120152919D01*
X151735500Y-120812565D01*
X151750266Y-120886801D01*
X151806515Y-120970984D01*
X151890698Y-121027233D01*
X151890699Y-121027234D01*
X151964933Y-121042000D01*
X153575066Y-121041999D01*
X153649301Y-121027234D01*
X153733484Y-120970984D01*
X153746653Y-120951274D01*
X153791105Y-120910914D01*
X153849311Y-120896168D01*
X153907621Y-120910497D01*
X153952362Y-120950542D01*
X153973044Y-121006913D01*
X153975228Y-121027233D01*
X153976960Y-121043342D01*
X154027658Y-121179267D01*
X154114596Y-121295404D01*
X154230733Y-121382342D01*
X154230734Y-121382342D01*
X154240272Y-121389482D01*
X154276846Y-121433245D01*
X154289962Y-121488750D01*
X154276846Y-121544255D01*
X154240272Y-121588018D01*
X154230734Y-121595157D01*
X154230733Y-121595158D01*
X154162380Y-121646326D01*
X154114596Y-121682096D01*
X154027656Y-121798235D01*
X153988781Y-121902461D01*
X153949105Y-121956711D01*
X153886953Y-121982292D01*
X153820585Y-121971689D01*
X153769498Y-121928017D01*
X153763484Y-121919016D01*
X153679301Y-121862766D01*
X153679300Y-121862765D01*
X153605069Y-121848000D01*
X151994934Y-121848000D01*
X151920698Y-121862766D01*
X151836515Y-121919015D01*
X151780265Y-122003199D01*
X151765500Y-122077430D01*
X151765500Y-122777566D01*
X151779529Y-122848099D01*
X151776804Y-122907507D01*
X151746731Y-122958815D01*
X151696228Y-122990219D01*
X151636910Y-122994496D01*
X151582424Y-122970662D01*
X151559555Y-122953114D01*
X151456548Y-122910448D01*
X151416319Y-122883569D01*
X151389439Y-122843340D01*
X151380000Y-122795887D01*
X151380000Y-122677500D01*
X148820000Y-122677500D01*
X148820000Y-122800324D01*
X148826402Y-122859875D01*
X148876647Y-122994589D01*
X148962811Y-123109689D01*
X149015811Y-123149365D01*
X149052384Y-123193128D01*
X149065500Y-123248632D01*
X149065500Y-123506368D01*
X149052384Y-123561872D01*
X149015811Y-123605635D01*
X148962811Y-123645310D01*
X148876647Y-123760410D01*
X148826402Y-123895124D01*
X148820000Y-123954676D01*
X148820000Y-124077500D01*
X151380000Y-124077500D01*
X151380000Y-124044114D01*
X151389439Y-123996661D01*
X151416319Y-123956433D01*
X151456547Y-123929553D01*
X151509156Y-123907761D01*
X151559556Y-123886885D01*
X151566010Y-123881932D01*
X151629343Y-123856902D01*
X151696342Y-123869092D01*
X151746800Y-123914824D01*
X151765500Y-123980305D01*
X151765500Y-124677565D01*
X151780266Y-124751801D01*
X151836515Y-124835984D01*
X151911740Y-124886248D01*
X151920699Y-124892234D01*
X151994933Y-124907000D01*
X153605066Y-124906999D01*
X153679301Y-124892234D01*
X153763484Y-124835984D01*
X153763484Y-124835983D01*
X153783992Y-124822281D01*
X153784877Y-124823606D01*
X153795936Y-124813561D01*
X153854144Y-124798804D01*
X153912460Y-124813127D01*
X153957209Y-124853171D01*
X153969607Y-124886960D01*
X153971517Y-124886248D01*
X153976959Y-124900840D01*
X153976960Y-124900842D01*
X154027658Y-125036767D01*
X154114596Y-125152904D01*
X154230733Y-125239842D01*
X154230736Y-125239843D01*
X154366654Y-125290539D01*
X154366655Y-125290539D01*
X154366658Y-125290540D01*
X154426745Y-125297000D01*
X155272957Y-125296999D01*
X155320410Y-125306438D01*
X155360638Y-125333318D01*
X155481140Y-125453820D01*
X155511390Y-125503183D01*
X155515932Y-125560899D01*
X155493777Y-125614386D01*
X155449754Y-125651986D01*
X155393459Y-125665501D01*
X154784934Y-125665501D01*
X154747816Y-125672883D01*
X154710698Y-125680266D01*
X154626515Y-125736515D01*
X154570265Y-125820699D01*
X154555500Y-125894931D01*
X154555500Y-126365300D01*
X154538887Y-126427300D01*
X154493500Y-126472687D01*
X154431500Y-126489300D01*
X154012355Y-126489300D01*
X154001548Y-126488828D01*
X153998714Y-126488580D01*
X153963232Y-126485475D01*
X153926080Y-126495429D01*
X153915526Y-126497769D01*
X153876732Y-126504610D01*
X153851343Y-126515126D01*
X153819072Y-126537723D01*
X153809952Y-126543533D01*
X153792023Y-126553885D01*
X153730020Y-126570500D01*
X152876748Y-126570500D01*
X152816658Y-126576960D01*
X152680733Y-126627658D01*
X152564593Y-126714598D01*
X152557287Y-126724358D01*
X152506380Y-126764227D01*
X152442324Y-126773047D01*
X152382536Y-126748421D01*
X152349555Y-126723114D01*
X152219532Y-126669258D01*
X152080000Y-126650887D01*
X151940467Y-126669258D01*
X151810444Y-126723114D01*
X151698789Y-126808789D01*
X151613114Y-126920444D01*
X151559258Y-127050467D01*
X151540887Y-127189999D01*
X151559258Y-127329532D01*
X151613114Y-127459555D01*
X151698789Y-127571210D01*
X151761983Y-127619700D01*
X151810444Y-127656885D01*
X151940468Y-127710742D01*
X152080000Y-127729112D01*
X152127424Y-127722868D01*
X152167795Y-127724189D01*
X152169605Y-127724870D01*
X152225521Y-127734729D01*
X152236081Y-127737069D01*
X152273233Y-127747024D01*
X152292569Y-127745332D01*
X152355035Y-127756133D01*
X152404001Y-127796399D01*
X152426665Y-127855604D01*
X152426960Y-127858342D01*
X152477658Y-127994267D01*
X152564596Y-128110404D01*
X152680733Y-128197342D01*
X152696413Y-128203190D01*
X152746230Y-128237526D01*
X152773869Y-128291349D01*
X152772749Y-128351844D01*
X152743137Y-128404607D01*
X152692081Y-128437077D01*
X152605877Y-128465642D01*
X152456654Y-128557683D01*
X152332683Y-128681654D01*
X152240642Y-128830877D01*
X152185493Y-128997303D01*
X152175000Y-129100021D01*
X152175000Y-129237500D01*
X153526000Y-129237500D01*
X153588000Y-129254113D01*
X153633387Y-129299500D01*
X153650000Y-129361500D01*
X153650000Y-129613500D01*
X153633387Y-129675500D01*
X153588000Y-129720887D01*
X153526000Y-129737500D01*
X152175001Y-129737500D01*
X152175001Y-129874979D01*
X152185493Y-129977695D01*
X152240642Y-130144122D01*
X152247810Y-130155743D01*
X152265874Y-130210930D01*
X152256833Y-130268291D01*
X152201128Y-130402776D01*
X152187646Y-130505186D01*
X152166282Y-130560124D01*
X152121964Y-130598989D01*
X152064707Y-130613000D01*
X151755445Y-130613000D01*
X151696843Y-130619300D01*
X151564282Y-130668743D01*
X151451025Y-130753525D01*
X151374267Y-130856064D01*
X151330505Y-130892638D01*
X151275000Y-130905754D01*
X151219495Y-130892638D01*
X151175733Y-130856064D01*
X151098974Y-130753525D01*
X150985714Y-130668741D01*
X150853161Y-130619300D01*
X150819429Y-130615674D01*
X150794557Y-130613000D01*
X150794553Y-130613000D01*
X150225445Y-130613000D01*
X150166843Y-130619300D01*
X150034282Y-130668743D01*
X149959898Y-130724426D01*
X149911466Y-130746428D01*
X149858271Y-130746112D01*
X149810104Y-130723535D01*
X149809556Y-130723114D01*
X149679532Y-130669258D01*
X149540000Y-130650887D01*
X149400467Y-130669258D01*
X149270444Y-130723114D01*
X149158789Y-130808789D01*
X149073114Y-130920444D01*
X149019258Y-131050467D01*
X149000887Y-131189999D01*
X149019258Y-131329532D01*
X149073114Y-131459555D01*
X149158789Y-131571210D01*
X149222420Y-131620035D01*
X149270444Y-131656885D01*
X149400468Y-131710742D01*
X149540000Y-131729112D01*
X149679532Y-131710742D01*
X149679534Y-131710740D01*
X149683939Y-131710161D01*
X149738816Y-131715291D01*
X149786050Y-131743697D01*
X149816305Y-131789763D01*
X149824225Y-131810996D01*
X149836243Y-131843217D01*
X149921025Y-131956474D01*
X150034285Y-132041258D01*
X150166838Y-132090699D01*
X150166841Y-132090699D01*
X150166843Y-132090700D01*
X150225443Y-132097000D01*
X150794556Y-132096999D01*
X150853157Y-132090700D01*
X150985715Y-132041258D01*
X151098974Y-131956474D01*
X151144574Y-131895558D01*
X151196384Y-131855310D01*
X151261484Y-131847132D01*
X151321643Y-131873317D01*
X151360020Y-131926534D01*
X151366242Y-131943215D01*
X151451025Y-132056474D01*
X151564285Y-132141258D01*
X151591258Y-132151319D01*
X151640468Y-132184968D01*
X151668288Y-132237693D01*
X151668288Y-132297307D01*
X151640468Y-132350032D01*
X151591258Y-132383681D01*
X151564285Y-132393741D01*
X151451025Y-132478525D01*
X151366241Y-132591785D01*
X151360019Y-132608466D01*
X151321642Y-132661682D01*
X151261483Y-132687866D01*
X151196385Y-132679688D01*
X151144572Y-132639439D01*
X151098974Y-132578526D01*
X151098972Y-132578524D01*
X151098971Y-132578523D01*
X150985714Y-132493741D01*
X150853161Y-132444300D01*
X150823856Y-132441149D01*
X150794557Y-132438000D01*
X150794553Y-132438000D01*
X150225445Y-132438000D01*
X150166843Y-132444300D01*
X150034282Y-132493743D01*
X149921025Y-132578525D01*
X149836241Y-132691785D01*
X149786800Y-132824338D01*
X149786446Y-132827633D01*
X149781322Y-132875302D01*
X149780500Y-132882947D01*
X149780500Y-133173458D01*
X149766985Y-133229753D01*
X149729385Y-133273776D01*
X149675898Y-133295931D01*
X149618182Y-133291389D01*
X149568819Y-133261139D01*
X149416791Y-133109111D01*
X149384188Y-133051559D01*
X149385811Y-132985435D01*
X149439965Y-132806916D01*
X149459360Y-132610000D01*
X149439965Y-132413084D01*
X149382527Y-132223735D01*
X149289252Y-132049230D01*
X149163725Y-131896275D01*
X149038196Y-131793256D01*
X149010769Y-131770747D01*
X148836267Y-131677474D01*
X148836266Y-131677473D01*
X148836265Y-131677473D01*
X148741590Y-131648753D01*
X148646914Y-131620034D01*
X148450000Y-131600640D01*
X148253085Y-131620034D01*
X148063732Y-131677474D01*
X147889230Y-131770747D01*
X147736275Y-131896275D01*
X147610747Y-132049230D01*
X147517474Y-132223732D01*
X147460034Y-132413085D01*
X147440640Y-132609999D01*
X147460034Y-132806914D01*
X147481598Y-132877999D01*
X147514187Y-132985434D01*
X147517474Y-132996267D01*
X147577790Y-133109111D01*
X147610748Y-133170770D01*
X147736275Y-133323725D01*
X147889230Y-133449252D01*
X148063735Y-133542527D01*
X148253084Y-133599965D01*
X148450000Y-133619360D01*
X148646916Y-133599965D01*
X148825435Y-133545811D01*
X148891559Y-133544188D01*
X148949111Y-133576791D01*
X149110922Y-133738602D01*
X149143815Y-133797336D01*
X149141172Y-133864601D01*
X149103773Y-133920573D01*
X149042640Y-133948756D01*
X148975789Y-133940844D01*
X148899532Y-133909258D01*
X148760000Y-133890887D01*
X148620467Y-133909258D01*
X148490444Y-133963114D01*
X148378789Y-134048789D01*
X148293114Y-134160444D01*
X148239258Y-134290467D01*
X148220887Y-134430000D01*
X148239258Y-134569532D01*
X148293114Y-134699555D01*
X148378788Y-134811209D01*
X148393599Y-134822573D01*
X148409978Y-134835141D01*
X148446412Y-134880132D01*
X148458450Y-134936762D01*
X148443466Y-134992684D01*
X148404727Y-135035708D01*
X148350679Y-135056456D01*
X148215467Y-135074258D01*
X148085444Y-135128114D01*
X147973789Y-135213789D01*
X147888114Y-135325444D01*
X147834258Y-135455467D01*
X147815887Y-135594999D01*
X147834258Y-135734532D01*
X147888114Y-135864555D01*
X147973789Y-135976210D01*
X148072650Y-136052068D01*
X148085444Y-136061885D01*
X148215468Y-136115742D01*
X148355000Y-136134112D01*
X148355001Y-136134111D01*
X148366297Y-136135599D01*
X148415629Y-136141546D01*
X148465678Y-136177410D01*
X148472751Y-136185839D01*
X148506056Y-136205069D01*
X148515175Y-136210879D01*
X148547448Y-136233476D01*
X148572827Y-136243989D01*
X148611633Y-136250831D01*
X148622195Y-136253172D01*
X148659333Y-136263124D01*
X148697648Y-136259771D01*
X148708455Y-136259300D01*
X151883945Y-136259300D01*
X151894751Y-136259771D01*
X151933067Y-136263124D01*
X151970221Y-136253167D01*
X151980764Y-136250830D01*
X152018651Y-136244151D01*
X152018652Y-136244149D01*
X152019577Y-136243987D01*
X152044947Y-136233477D01*
X152045712Y-136232940D01*
X152045716Y-136232940D01*
X152077226Y-136210875D01*
X152086344Y-136205067D01*
X152096406Y-136199258D01*
X152119649Y-136185839D01*
X152144386Y-136156356D01*
X152151673Y-136148405D01*
X152549805Y-135750273D01*
X152557756Y-135742986D01*
X152587239Y-135718249D01*
X152606469Y-135684939D01*
X152612275Y-135675826D01*
X152634340Y-135644316D01*
X152634340Y-135644313D01*
X152636401Y-135641371D01*
X152658563Y-135598796D01*
X152701149Y-135566118D01*
X152753555Y-135554499D01*
X152961860Y-135554499D01*
X153023860Y-135571112D01*
X153069245Y-135616497D01*
X153072761Y-135622586D01*
X153081651Y-135630046D01*
X153102226Y-135647310D01*
X153110202Y-135654619D01*
X155183902Y-137728319D01*
X155214152Y-137777682D01*
X155218694Y-137835398D01*
X155196539Y-137888885D01*
X155152516Y-137926485D01*
X155096221Y-137940000D01*
X149700000Y-137940000D01*
X149700000Y-138671500D01*
X149683387Y-138733500D01*
X149638000Y-138778887D01*
X149576000Y-138795500D01*
X148454934Y-138795500D01*
X148380698Y-138810266D01*
X148296515Y-138866515D01*
X148240265Y-138950699D01*
X148225500Y-139024930D01*
X148225500Y-140475065D01*
X148240266Y-140549301D01*
X148296515Y-140633484D01*
X148380698Y-140689733D01*
X148380699Y-140689734D01*
X148454933Y-140704500D01*
X149725066Y-140704499D01*
X149799301Y-140689734D01*
X149883484Y-140633484D01*
X149939734Y-140549301D01*
X149939734Y-140549300D01*
X149942535Y-140545109D01*
X149987184Y-140504642D01*
X150045637Y-140490000D01*
X154101500Y-140490000D01*
X154163500Y-140506613D01*
X154208887Y-140552000D01*
X154225500Y-140614000D01*
X154225500Y-141485065D01*
X154240266Y-141559301D01*
X154296515Y-141643484D01*
X154380698Y-141699733D01*
X154380699Y-141699734D01*
X154454933Y-141714500D01*
X155355066Y-141714499D01*
X155429301Y-141699734D01*
X155513484Y-141643484D01*
X155569734Y-141559301D01*
X155584500Y-141485067D01*
X155584499Y-140613999D01*
X155601112Y-140552000D01*
X155646499Y-140506613D01*
X155708499Y-140490000D01*
X156080000Y-140490000D01*
X156451500Y-140490000D01*
X156513500Y-140506613D01*
X156558887Y-140552000D01*
X156575500Y-140614000D01*
X156575500Y-141485065D01*
X156590266Y-141559301D01*
X156646515Y-141643484D01*
X156730698Y-141699733D01*
X156730699Y-141699734D01*
X156804933Y-141714500D01*
X157705066Y-141714499D01*
X157779301Y-141699734D01*
X157863484Y-141643484D01*
X157919734Y-141559301D01*
X157934500Y-141485067D01*
X157934499Y-140613999D01*
X157951112Y-140552000D01*
X157996499Y-140506613D01*
X158058499Y-140490000D01*
X162114363Y-140490000D01*
X162172816Y-140504642D01*
X162217465Y-140545109D01*
X162276515Y-140633484D01*
X162360698Y-140689733D01*
X162360699Y-140689734D01*
X162434933Y-140704500D01*
X163705066Y-140704499D01*
X163779301Y-140689734D01*
X163814608Y-140666141D01*
X163877414Y-140645392D01*
X163941952Y-140659884D01*
X163989858Y-140705493D01*
X164007500Y-140769242D01*
X164007500Y-140914978D01*
X164017993Y-141017695D01*
X164073142Y-141184122D01*
X164165183Y-141333345D01*
X164289154Y-141457316D01*
X164438377Y-141549357D01*
X164604803Y-141604506D01*
X164707521Y-141615000D01*
X164845000Y-141615000D01*
X164845000Y-138590000D01*
X164007501Y-138590000D01*
X164007501Y-138730757D01*
X163989859Y-138794506D01*
X163941954Y-138840115D01*
X163877416Y-138854608D01*
X163814610Y-138833859D01*
X163779300Y-138810265D01*
X163705069Y-138795500D01*
X163705067Y-138795500D01*
X162583999Y-138795500D01*
X162522000Y-138778888D01*
X162476613Y-138733501D01*
X162460000Y-138671501D01*
X162460000Y-137940000D01*
X162400148Y-137940000D01*
X162341695Y-137925358D01*
X162297046Y-137884891D01*
X162276745Y-137828155D01*
X162285587Y-137768548D01*
X162302250Y-137728319D01*
X162330742Y-137659532D01*
X162341912Y-137574684D01*
X162366475Y-137515384D01*
X162417398Y-137476310D01*
X162481037Y-137467932D01*
X162489999Y-137469112D01*
X162489999Y-137469111D01*
X162490000Y-137469112D01*
X162629532Y-137450742D01*
X162759556Y-137396885D01*
X162871210Y-137311210D01*
X162956885Y-137199556D01*
X163010742Y-137069532D01*
X163029112Y-136930000D01*
X163010742Y-136790468D01*
X163010741Y-136790467D01*
X163008611Y-136774284D01*
X163008785Y-136774261D01*
X163002597Y-136732548D01*
X163022897Y-136675810D01*
X163067546Y-136635342D01*
X163126000Y-136620700D01*
X164492015Y-136620700D01*
X164551442Y-136635868D01*
X164596330Y-136677660D01*
X164640274Y-136746038D01*
X164649945Y-136761086D01*
X164698313Y-136816906D01*
X164791083Y-136897291D01*
X164825428Y-136946008D01*
X164833070Y-137005128D01*
X164812242Y-137060983D01*
X164767755Y-137100664D01*
X164713773Y-137114038D01*
X164713806Y-137114359D01*
X164711548Y-137114589D01*
X164709892Y-137115000D01*
X164707528Y-137115000D01*
X164604804Y-137125493D01*
X164438377Y-137180642D01*
X164289154Y-137272683D01*
X164165183Y-137396654D01*
X164073142Y-137545877D01*
X164017993Y-137712303D01*
X164007500Y-137815021D01*
X164007500Y-138090000D01*
X165221000Y-138090000D01*
X165283000Y-138106613D01*
X165328387Y-138152000D01*
X165345000Y-138214000D01*
X165345000Y-141614999D01*
X165482479Y-141614999D01*
X165585195Y-141604506D01*
X165751622Y-141549357D01*
X165900845Y-141457316D01*
X166024816Y-141333345D01*
X166116857Y-141184121D01*
X166145422Y-141097919D01*
X166177890Y-141046863D01*
X166230653Y-141017250D01*
X166291148Y-141016129D01*
X166344972Y-141043768D01*
X166379309Y-141093586D01*
X166385158Y-141109267D01*
X166472096Y-141225404D01*
X166588233Y-141312342D01*
X166588236Y-141312343D01*
X166724154Y-141363039D01*
X166724155Y-141363039D01*
X166724158Y-141363040D01*
X166784245Y-141369500D01*
X167555754Y-141369499D01*
X167615842Y-141363040D01*
X167751767Y-141312342D01*
X167867904Y-141225404D01*
X167936234Y-141134123D01*
X167983988Y-141095642D01*
X168044345Y-141084752D01*
X168102539Y-141104120D01*
X168144332Y-141149009D01*
X168159500Y-141208436D01*
X168159500Y-141945500D01*
X168142887Y-142007500D01*
X168097500Y-142052887D01*
X168035500Y-142069500D01*
X147274500Y-142069500D01*
X147212500Y-142052887D01*
X147167113Y-142007500D01*
X147150500Y-141945500D01*
X147150500Y-124577500D01*
X148820000Y-124577500D01*
X148820000Y-124700324D01*
X148826402Y-124759875D01*
X148876647Y-124894589D01*
X148962811Y-125009688D01*
X149077910Y-125095852D01*
X149212624Y-125146097D01*
X149272176Y-125152500D01*
X149850000Y-125152500D01*
X149850000Y-124577500D01*
X150350000Y-124577500D01*
X150350000Y-125152500D01*
X150927824Y-125152500D01*
X150987375Y-125146097D01*
X151122089Y-125095852D01*
X151237188Y-125009688D01*
X151323352Y-124894589D01*
X151373597Y-124759875D01*
X151380000Y-124700324D01*
X151380000Y-124577500D01*
X150350000Y-124577500D01*
X149850000Y-124577500D01*
X148820000Y-124577500D01*
X147150500Y-124577500D01*
X147150500Y-122177500D01*
X148820000Y-122177500D01*
X149850000Y-122177500D01*
X149850000Y-121602500D01*
X150350000Y-121602500D01*
X150350000Y-122177500D01*
X151380000Y-122177500D01*
X151380000Y-122054676D01*
X151373597Y-121995124D01*
X151323352Y-121860410D01*
X151237188Y-121745311D01*
X151122089Y-121659147D01*
X150987375Y-121608902D01*
X150927824Y-121602500D01*
X150350000Y-121602500D01*
X149850000Y-121602500D01*
X149272176Y-121602500D01*
X149212624Y-121608902D01*
X149077910Y-121659147D01*
X148962811Y-121745311D01*
X148876647Y-121860410D01*
X148826402Y-121995124D01*
X148820000Y-122054676D01*
X148820000Y-122177500D01*
X147150500Y-122177500D01*
X147150500Y-120712500D01*
X148790000Y-120712500D01*
X148790000Y-120835324D01*
X148796402Y-120894875D01*
X148846647Y-121029589D01*
X148932811Y-121144688D01*
X149047910Y-121230852D01*
X149182624Y-121281097D01*
X149242176Y-121287500D01*
X149820000Y-121287500D01*
X149820000Y-120712500D01*
X150320000Y-120712500D01*
X150320000Y-121287500D01*
X150897824Y-121287500D01*
X150957375Y-121281097D01*
X151092089Y-121230852D01*
X151207188Y-121144688D01*
X151293352Y-121029589D01*
X151343597Y-120894875D01*
X151350000Y-120835324D01*
X151350000Y-120712500D01*
X150320000Y-120712500D01*
X149820000Y-120712500D01*
X148790000Y-120712500D01*
X147150500Y-120712500D01*
X147150500Y-118312500D01*
X148790000Y-118312500D01*
X149820000Y-118312500D01*
X149820000Y-117737500D01*
X150320000Y-117737500D01*
X150320000Y-118312500D01*
X151350000Y-118312500D01*
X151350000Y-118189676D01*
X151343597Y-118130124D01*
X151293352Y-117995410D01*
X151207188Y-117880311D01*
X151092089Y-117794147D01*
X150957375Y-117743902D01*
X150897824Y-117737500D01*
X150320000Y-117737500D01*
X149820000Y-117737500D01*
X149242176Y-117737500D01*
X149182624Y-117743902D01*
X149047910Y-117794147D01*
X148932811Y-117880311D01*
X148846647Y-117995410D01*
X148796402Y-118130124D01*
X148790000Y-118189676D01*
X148790000Y-118312500D01*
X147150500Y-118312500D01*
X147150500Y-112110000D01*
X149295204Y-112110000D01*
X149295400Y-112112488D01*
X149341219Y-112270200D01*
X149424817Y-112411557D01*
X149540942Y-112527682D01*
X149682302Y-112611282D01*
X149840006Y-112657099D01*
X149876861Y-112660000D01*
X150280000Y-112660000D01*
X150280000Y-112110000D01*
X149295204Y-112110000D01*
X147150500Y-112110000D01*
X147150500Y-105974500D01*
X147167113Y-105912500D01*
X147212500Y-105867113D01*
X147274500Y-105850500D01*
X152456500Y-105850500D01*
X152518500Y-105867113D01*
G37*
%TD.AperFunction*%
%TA.AperFunction,Conductor*%
G36*
X157824605Y-136107948D02*
G01*
X157863679Y-136158872D01*
X157888814Y-136219555D01*
X157974489Y-136331210D01*
X158055411Y-136393303D01*
X158086144Y-136416885D01*
X158216168Y-136470742D01*
X158355700Y-136489112D01*
X158495232Y-136470742D01*
X158625256Y-136416885D01*
X158736910Y-136331210D01*
X158822585Y-136219556D01*
X158827286Y-136208205D01*
X158863179Y-136159806D01*
X158917653Y-136134040D01*
X158977841Y-136136996D01*
X159029528Y-136167976D01*
X159612457Y-136750905D01*
X159639337Y-136791134D01*
X159653114Y-136824395D01*
X159676134Y-136854396D01*
X159701161Y-136917729D01*
X159688970Y-136984726D01*
X159643238Y-137035183D01*
X159577758Y-137053882D01*
X156792116Y-137053882D01*
X156726636Y-137035183D01*
X156680904Y-136984726D01*
X156668713Y-136917728D01*
X156693740Y-136854396D01*
X156755211Y-136774284D01*
X156776885Y-136746038D01*
X156830742Y-136616014D01*
X156849112Y-136476482D01*
X156838278Y-136394193D01*
X156846656Y-136330558D01*
X156885730Y-136279635D01*
X156945031Y-136255071D01*
X157008668Y-136263448D01*
X157104768Y-136303254D01*
X157244300Y-136321624D01*
X157383832Y-136303254D01*
X157513856Y-136249397D01*
X157625510Y-136163722D01*
X157650743Y-136130837D01*
X157701664Y-136091763D01*
X157765303Y-136083385D01*
X157824605Y-136107948D01*
G37*
%TD.AperFunction*%
%TD*%
%TA.AperFunction,Conductor*%
%TO.N,SCL1*%
G36*
X162098000Y-105867113D02*
G01*
X162143387Y-105912500D01*
X162160000Y-105974500D01*
X162160000Y-107006000D01*
X162143387Y-107068000D01*
X162098000Y-107113387D01*
X162036000Y-107130000D01*
X160584000Y-107130000D01*
X160522000Y-107113387D01*
X160476613Y-107068000D01*
X160460000Y-107006000D01*
X160460000Y-105974500D01*
X160476613Y-105912500D01*
X160522000Y-105867113D01*
X160584000Y-105850500D01*
X162036000Y-105850500D01*
X162098000Y-105867113D01*
G37*
%TD.AperFunction*%
%TD*%
%TA.AperFunction,Conductor*%
%TO.N,SDA1*%
G36*
X159558000Y-105867113D02*
G01*
X159603387Y-105912500D01*
X159620000Y-105974500D01*
X159620000Y-107006000D01*
X159603387Y-107068000D01*
X159558000Y-107113387D01*
X159496000Y-107130000D01*
X158044000Y-107130000D01*
X157982000Y-107113387D01*
X157936613Y-107068000D01*
X157920000Y-107006000D01*
X157920000Y-105974500D01*
X157936613Y-105912500D01*
X157982000Y-105867113D01*
X158044000Y-105850500D01*
X159496000Y-105850500D01*
X159558000Y-105867113D01*
G37*
%TD.AperFunction*%
%TD*%
%TA.AperFunction,Conductor*%
%TO.N,pwr_ctrl*%
G36*
X157018000Y-105867113D02*
G01*
X157063387Y-105912500D01*
X157080000Y-105974500D01*
X157080000Y-107006000D01*
X157063387Y-107068000D01*
X157018000Y-107113387D01*
X156956000Y-107130000D01*
X155504000Y-107130000D01*
X155442000Y-107113387D01*
X155396613Y-107068000D01*
X155380000Y-107006000D01*
X155380000Y-105974500D01*
X155396613Y-105912500D01*
X155442000Y-105867113D01*
X155504000Y-105850500D01*
X156956000Y-105850500D01*
X157018000Y-105867113D01*
G37*
%TD.AperFunction*%
%TD*%
%TA.AperFunction,Conductor*%
%TO.N,GND*%
G36*
X154478000Y-105867113D02*
G01*
X154523387Y-105912500D01*
X154540000Y-105974500D01*
X154540000Y-107006000D01*
X154523387Y-107068000D01*
X154478000Y-107113387D01*
X154416000Y-107130000D01*
X152964000Y-107130000D01*
X152902000Y-107113387D01*
X152856613Y-107068000D01*
X152840000Y-107006000D01*
X152840000Y-105974500D01*
X152856613Y-105912500D01*
X152902000Y-105867113D01*
X152964000Y-105850500D01*
X154416000Y-105850500D01*
X154478000Y-105867113D01*
G37*
%TD.AperFunction*%
%TD*%
%TA.AperFunction,Conductor*%
%TO.N,pwr_in*%
G36*
X164638000Y-105867113D02*
G01*
X164683387Y-105912500D01*
X164700000Y-105974500D01*
X164700000Y-107006000D01*
X164683387Y-107068000D01*
X164638000Y-107113387D01*
X164576000Y-107130000D01*
X163124000Y-107130000D01*
X163062000Y-107113387D01*
X163016613Y-107068000D01*
X163000000Y-107006000D01*
X163000000Y-105974500D01*
X163016613Y-105912500D01*
X163062000Y-105867113D01*
X163124000Y-105850500D01*
X164576000Y-105850500D01*
X164638000Y-105867113D01*
G37*
%TD.AperFunction*%
%TD*%
M02*
