M48
; DRILL file {KiCad 7.0.1} date Sun Jan 14 19:17:54 2024
; FORMAT={-:-/ absolute / inch / decimal}
; #@! TF.CreationDate,2024-01-14T19:17:54-07:00
; #@! TF.GenerationSoftware,Kicad,Pcbnew,7.0.1
; #@! TF.FileFunction,Plated,1,4,PTH
FMAT,2
INCH
; #@! TA.AperFunction,Plated,PTH,ViaDrill
T1C0.0157
; #@! TA.AperFunction,Plated,PTH,ComponentDrill
T2C0.0276
; #@! TA.AperFunction,Plated,PTH,ComponentDrill
T3C0.0394
; #@! TA.AperFunction,Plated,PTH,ComponentDrill
T4C0.0591
; #@! TA.AperFunction,Plated,PTH,ComponentDrill
T5C0.0669
; #@! TA.AperFunction,Plated,PTH,ComponentDrill
T6C0.1063
%
G90
G05
T1
X4.7424Y-5.0756
X4.7849Y-5.2917
X4.7916Y-3.6917
X4.7931Y-3.1638
X4.8026Y-3.575
X4.8242Y-3.2921
X4.8269Y-5.406
X4.8385Y-5.5669
X4.8403Y-5.4634
X4.8882Y-3.1836
X4.8882Y-3.225
X4.9122Y-3.5789
X4.9122Y-3.6203
X4.9514Y-5.4956
X5.2589Y-3.8575
X5.3857Y-3.859
X5.6305Y-4.1169
X5.6357Y-3.9712
X5.7018Y-4.0697
X5.7904Y-3.9956
X5.7959Y-3.9429
X5.8518Y-3.9874
X6.0443Y-4.0941
X6.1364Y-4.0701
X6.1396Y-3.7799
X6.151Y-3.9901
X6.2109Y-3.8626
X6.4447Y-5.0232
X6.4447Y-5.0657
X6.4447Y-5.111
X6.4447Y-5.15
X6.4447Y-5.1909
X6.4447Y-5.233
X6.4451Y-4.5968
X6.4451Y-4.6358
X6.4451Y-4.6767
X6.4451Y-4.7189
X6.4455Y-4.7653
X6.4455Y-4.8079
X6.4455Y-4.8531
X6.4455Y-4.8921
X6.4455Y-4.933
X6.4455Y-4.9752
X6.5176Y-4.5925
X6.5176Y-4.635
X6.5176Y-4.6803
X6.5176Y-4.7193
X6.5176Y-4.7602
X6.5176Y-4.8023
X6.527Y-5.0197
X6.527Y-5.0649
X6.527Y-5.1106
X6.527Y-5.1496
X6.527Y-5.1897
X6.527Y-5.2346
X6.5309Y-4.9382
X6.5309Y-4.9803
X6.551Y-5.274
X6.6372Y-4.7874
X6.6652Y-4.0539
X7.0203Y-4.0354
X7.0403Y-3.7721
X7.0412Y-3.8114
X7.0424Y-3.7315
X7.179Y-3.8114
X7.2577Y-3.7712
X7.3215Y-3.7315
X7.4857Y-3.4846
X8.1196Y-3.1746
X8.1196Y-3.2159
X8.1553Y-3.5793
X8.1553Y-3.6206
X8.2313Y-3.1094
X8.2353Y-3.5279
X8.2412Y-3.6654
X8.2481Y-3.2417
T3
X5.9439Y-4.5909
X5.9439Y-4.7909
X5.9939Y-4.4909
X5.9939Y-4.8909
X6.0939Y-4.4909
X6.0939Y-4.8909
X6.1553Y-4.5909
X6.1553Y-4.7909
X7.4176Y-3.1937
X7.5176Y-3.1937
T4
X6.4805Y-4.4169
T5
X6.3805Y-4.3169
X6.3805Y-4.5169
X6.5805Y-4.3169
X6.5805Y-4.5169
T6
X4.9931Y-4.4189
X5.6179Y-3.14
X5.9164Y-2.8118
X5.9927Y-3.1405
X6.529Y-2.8834
X6.529Y-5.9523
X8.0632Y-4.4169
T2
G00X4.5943Y-3.0628
M15
G01X4.6179Y-3.0628
M16
G05
G00X4.5943Y-3.3738
M15
G01X4.6179Y-3.3738
M16
G05
G00X4.5943Y-3.4575
M15
G01X4.6179Y-3.4575
M16
G05
G00X4.5943Y-3.7685
M15
G01X4.6179Y-3.7685
M16
G05
G00X8.4408Y-3.0283
M15
G01X8.4172Y-3.0283
M16
G05
G00X8.4408Y-3.3393
M15
G01X8.4172Y-3.3393
M16
G05
G00X8.4408Y-3.4329
M15
G01X8.4172Y-3.4329
M16
G05
G00X8.4408Y-3.7439
M15
G01X8.4172Y-3.7439
M16
G05
T0
M30
