%TF.GenerationSoftware,KiCad,Pcbnew,7.0.5*%
%TF.CreationDate,2023-07-31T21:27:43-07:00*%
%TF.ProjectId,antenna_top_cap,616e7465-6e6e-4615-9f74-6f705f636170,rev?*%
%TF.SameCoordinates,Original*%
%TF.FileFunction,Copper,L3,Inr*%
%TF.FilePolarity,Positive*%
%FSLAX46Y46*%
G04 Gerber Fmt 4.6, Leading zero omitted, Abs format (unit mm)*
G04 Created by KiCad (PCBNEW 7.0.5) date 2023-07-31 21:27:43*
%MOMM*%
%LPD*%
G01*
G04 APERTURE LIST*
%TA.AperFunction,ComponentPad*%
%ADD10O,2.416000X1.208000*%
%TD*%
%TA.AperFunction,ComponentPad*%
%ADD11O,1.700000X1.700000*%
%TD*%
%TA.AperFunction,ComponentPad*%
%ADD12R,1.700000X1.700000*%
%TD*%
%TA.AperFunction,ComponentPad*%
%ADD13C,5.400000*%
%TD*%
%TA.AperFunction,ComponentPad*%
%ADD14C,2.050000*%
%TD*%
%TA.AperFunction,ComponentPad*%
%ADD15C,2.250000*%
%TD*%
%TA.AperFunction,ViaPad*%
%ADD16C,0.800000*%
%TD*%
%TA.AperFunction,Conductor*%
%ADD17C,0.254000*%
%TD*%
G04 APERTURE END LIST*
D10*
%TO.N,N/C*%
%TO.C,J11*%
X116995800Y-87819400D03*
%TO.N,GND*%
X116995800Y-95719400D03*
%TD*%
%TO.N,GND*%
%TO.C,J10*%
X116995800Y-85694400D03*
%TO.N,N/C*%
X116995800Y-77794400D03*
%TD*%
%TO.N,N/C*%
%TO.C,J13*%
X214095800Y-95094400D03*
%TO.N,GND*%
X214095800Y-87194400D03*
%TD*%
%TO.N,GND*%
%TO.C,J15*%
X214095800Y-76919400D03*
%TO.N,N/C*%
X214095800Y-84819400D03*
%TD*%
D11*
%TO.N,Net-(J3-Pin_1)*%
%TO.C,J7*%
X150975800Y-116609400D03*
D12*
X152245800Y-114069400D03*
X154785800Y-114069400D03*
D11*
X156345800Y-116609400D03*
D12*
%TO.N,Net-(J3-Pin_2)*%
X150975800Y-121689400D03*
X152245800Y-124229400D03*
X154785800Y-124229400D03*
X156345800Y-121689400D03*
%TD*%
D13*
%TO.N,GND*%
%TO.C,TP3*%
X136355798Y-155529400D03*
%TD*%
D12*
%TO.N,/BATT_NEG*%
%TO.C,J1*%
X190945800Y-81119400D03*
D11*
%TO.N,/BATT_POS*%
X188405800Y-81119400D03*
%TD*%
D13*
%TO.N,GND*%
%TO.C,TP7*%
X144355800Y-155549400D03*
%TD*%
%TO.N,GND*%
%TO.C,TP2*%
X144327277Y-149625673D03*
%TD*%
%TO.N,GND*%
%TO.C,TP5*%
X126825800Y-112239400D03*
%TD*%
%TO.N,GND*%
%TO.C,TP6*%
X165835800Y-73239400D03*
%TD*%
%TO.N,GND*%
%TO.C,TP1*%
X165835800Y-151189400D03*
%TD*%
%TO.N,GND*%
%TO.C,TP4*%
X204805800Y-112189400D03*
%TD*%
D14*
%TO.N,Net-(J5-In)*%
%TO.C,J5*%
X164605800Y-112189400D03*
D15*
%TO.N,GND*%
X162065800Y-109649400D03*
X162065800Y-114729400D03*
X167145800Y-109649400D03*
X167145800Y-114729400D03*
%TD*%
D16*
%TO.N,2.8V*%
X147215800Y-100149400D03*
%TO.N,GND*%
X121705800Y-93769400D03*
%TO.N,Net-(J11-VBUS)*%
X121985800Y-90804899D03*
%TO.N,GND*%
X122535800Y-83619400D03*
%TO.N,Net-(J10-VBUS)*%
X121585800Y-80764899D03*
%TO.N,Net-(J13-VBUS)*%
X209325800Y-93099900D03*
%TO.N,GND*%
X209175800Y-89609400D03*
%TO.N,Net-(J15-VBUS)*%
X209502184Y-82340211D03*
%TO.N,GND*%
X209075800Y-78979400D03*
%TO.N,/0d-*%
X124770784Y-90904400D03*
%TO.N,/0d+*%
X124770784Y-91954400D03*
%TO.N,/1d-*%
X124159873Y-80864400D03*
%TO.N,/1d+*%
X124159873Y-81914400D03*
%TO.N,GND*%
X166395800Y-133959400D03*
X165595800Y-130699400D03*
X122897421Y-141398978D03*
X165565800Y-131709400D03*
X165555800Y-132969400D03*
X133575800Y-97979400D03*
X136795800Y-98019400D03*
%TO.N,+3V3*%
X191625800Y-106969400D03*
X147075800Y-101489400D03*
X176605800Y-101258901D03*
X143145800Y-100869400D03*
X162475800Y-100299400D03*
%TO.N,2.8V*%
X125765800Y-139589400D03*
X144825800Y-103370725D03*
%TO.N,/SCL_3V*%
X122944313Y-138770900D03*
%TO.N,/SDA_3V*%
X143015800Y-104569400D03*
X120455800Y-128919400D03*
%TO.N,SCL1*%
X184225800Y-95279400D03*
X181745800Y-95159400D03*
X148375800Y-104359400D03*
X141065800Y-104469400D03*
%TO.N,/GPIO*%
X121535800Y-134409400D03*
%TO.N,/XSHUT_2.8V*%
X122604434Y-137311857D03*
%TO.N,/2d-*%
X207144972Y-91964400D03*
%TO.N,/2d+*%
X207144972Y-90914400D03*
%TO.N,/3d-*%
X206237842Y-81684400D03*
%TO.N,/3d+*%
X206237842Y-80634400D03*
%TD*%
D17*
%TO.N,/SDA_3V*%
X120455800Y-128919400D02*
X120455800Y-128229400D01*
X141145800Y-106439400D02*
X143015800Y-104569400D01*
X141145800Y-107539400D02*
X141145800Y-106439400D01*
X120455800Y-128229400D02*
X141145800Y-107539400D01*
%TD*%
%TA.AperFunction,Conductor*%
%TO.N,+3V3*%
G36*
X140275414Y-62418280D02*
G01*
X140611421Y-62419781D01*
X140613521Y-62419904D01*
X140615746Y-62419903D01*
X140615749Y-62419904D01*
X140637705Y-62419899D01*
X140662223Y-62420009D01*
X140664335Y-62419894D01*
X151729648Y-62417723D01*
X151848057Y-62417700D01*
X204719700Y-62417700D01*
X204787821Y-62437702D01*
X204834314Y-62491358D01*
X204845700Y-62543700D01*
X204845699Y-72723619D01*
X204845700Y-72723629D01*
X204845700Y-72762963D01*
X204849596Y-72771054D01*
X204858911Y-72797675D01*
X204860910Y-72806431D01*
X204860911Y-72806432D01*
X204866504Y-72813445D01*
X204881517Y-72837336D01*
X204885412Y-72845424D01*
X204892429Y-72851020D01*
X204912380Y-72870971D01*
X204917976Y-72877988D01*
X204926063Y-72881882D01*
X204949949Y-72896892D01*
X204956969Y-72902490D01*
X204965721Y-72904487D01*
X204992349Y-72913805D01*
X205000437Y-72917700D01*
X205023610Y-72917700D01*
X215219660Y-72917700D01*
X215287781Y-72937702D01*
X215334274Y-72991358D01*
X215345660Y-73043716D01*
X215345320Y-75793339D01*
X215325310Y-75861457D01*
X215271648Y-75907943D01*
X215201373Y-75918038D01*
X215172491Y-75910297D01*
X215014655Y-75847109D01*
X214806035Y-75806900D01*
X214806031Y-75806900D01*
X213438810Y-75806900D01*
X213438808Y-75806900D01*
X213438790Y-75806901D01*
X213280310Y-75822034D01*
X213280295Y-75822037D01*
X213076442Y-75881893D01*
X212887601Y-75979248D01*
X212720595Y-76110584D01*
X212720589Y-76110589D01*
X212581462Y-76271152D01*
X212581461Y-76271153D01*
X212581460Y-76271153D01*
X212475232Y-76455148D01*
X212475231Y-76455150D01*
X212405743Y-76655921D01*
X212405740Y-76655932D01*
X212375505Y-76866222D01*
X212385613Y-77078434D01*
X212385615Y-77078447D01*
X212435704Y-77284914D01*
X212435707Y-77284925D01*
X212523963Y-77478176D01*
X212523969Y-77478187D01*
X212647200Y-77651240D01*
X212647203Y-77651244D01*
X212647205Y-77651246D01*
X212800970Y-77797861D01*
X212979704Y-77912727D01*
X213176947Y-77991691D01*
X213385569Y-78031900D01*
X213696000Y-78031900D01*
X213764121Y-78051902D01*
X213810614Y-78105558D01*
X213820718Y-78175832D01*
X213809522Y-78212569D01*
X213791560Y-78249869D01*
X213777919Y-78278194D01*
X213745300Y-78421106D01*
X213745300Y-78567694D01*
X213757045Y-78619150D01*
X213777919Y-78710605D01*
X213777921Y-78710610D01*
X213841518Y-78842672D01*
X213841519Y-78842674D01*
X213841520Y-78842675D01*
X213841521Y-78842677D01*
X213932917Y-78957283D01*
X214047523Y-79048679D01*
X214179594Y-79112281D01*
X214322506Y-79144900D01*
X214373210Y-79144900D01*
X215014275Y-79144900D01*
X215043831Y-79148415D01*
X215101854Y-79162416D01*
X215132564Y-79174248D01*
X215187751Y-79204306D01*
X215214348Y-79223686D01*
X215259871Y-79267013D01*
X215280544Y-79292624D01*
X215313292Y-79346261D01*
X215326626Y-79376348D01*
X215344368Y-79436635D01*
X215349457Y-79469154D01*
X215351051Y-79534925D01*
X215350674Y-79543507D01*
X215350243Y-79547337D01*
X215350243Y-79555849D01*
X215349884Y-79562565D01*
X215347135Y-79588223D01*
X215348246Y-79600589D01*
X215347893Y-79600620D01*
X215350243Y-79616937D01*
X215350243Y-80869393D01*
X215345478Y-82122259D01*
X215343076Y-82138718D01*
X215343304Y-82138739D01*
X215342192Y-82151099D01*
X215344887Y-82176267D01*
X215345245Y-82183212D01*
X215345215Y-82191223D01*
X215345753Y-82196167D01*
X215346104Y-82204519D01*
X215344510Y-82270161D01*
X215339420Y-82302679D01*
X215321679Y-82362952D01*
X215308342Y-82393040D01*
X215275596Y-82446666D01*
X215254920Y-82472276D01*
X215209403Y-82515591D01*
X215182802Y-82534971D01*
X215127624Y-82565019D01*
X215096914Y-82576849D01*
X215040800Y-82590386D01*
X215011251Y-82593900D01*
X214435682Y-82593900D01*
X214395800Y-82593900D01*
X214322506Y-82593900D01*
X214179594Y-82626518D01*
X214179594Y-82626519D01*
X214179589Y-82626521D01*
X214047527Y-82690118D01*
X214047525Y-82690119D01*
X213932917Y-82781517D01*
X213841519Y-82896125D01*
X213841518Y-82896127D01*
X213779180Y-83025575D01*
X213777919Y-83028194D01*
X213745300Y-83171106D01*
X213745300Y-83317694D01*
X213762733Y-83394072D01*
X213777919Y-83460605D01*
X213777921Y-83460610D01*
X213809522Y-83526231D01*
X213821057Y-83596284D01*
X213792887Y-83661453D01*
X213733957Y-83701047D01*
X213696000Y-83706900D01*
X213438810Y-83706900D01*
X213438808Y-83706900D01*
X213438790Y-83706901D01*
X213280310Y-83722034D01*
X213280295Y-83722037D01*
X213076442Y-83781893D01*
X212887601Y-83879248D01*
X212720595Y-84010584D01*
X212720589Y-84010589D01*
X212588764Y-84162725D01*
X212581462Y-84171152D01*
X212581461Y-84171153D01*
X212581460Y-84171153D01*
X212475232Y-84355148D01*
X212475231Y-84355150D01*
X212405743Y-84555921D01*
X212405740Y-84555932D01*
X212375505Y-84766222D01*
X212385613Y-84978434D01*
X212385615Y-84978447D01*
X212435704Y-85184914D01*
X212435707Y-85184925D01*
X212523963Y-85378176D01*
X212523969Y-85378187D01*
X212647200Y-85551240D01*
X212647203Y-85551244D01*
X212647205Y-85551246D01*
X212800970Y-85697861D01*
X212979704Y-85812727D01*
X213176947Y-85891691D01*
X213176949Y-85891691D01*
X213178602Y-85892353D01*
X213234409Y-85936240D01*
X213257630Y-86003332D01*
X213240892Y-86072328D01*
X213189510Y-86121321D01*
X213167271Y-86130224D01*
X213076442Y-86156893D01*
X212887601Y-86254248D01*
X212720595Y-86385584D01*
X212720589Y-86385589D01*
X212618671Y-86503210D01*
X212581462Y-86546152D01*
X212581461Y-86546153D01*
X212581460Y-86546153D01*
X212475232Y-86730148D01*
X212475231Y-86730150D01*
X212405743Y-86930921D01*
X212405740Y-86930932D01*
X212375505Y-87141222D01*
X212385613Y-87353434D01*
X212385615Y-87353447D01*
X212435704Y-87559914D01*
X212435707Y-87559925D01*
X212523963Y-87753176D01*
X212523969Y-87753187D01*
X212647200Y-87926240D01*
X212647203Y-87926244D01*
X212647205Y-87926246D01*
X212800970Y-88072861D01*
X212979704Y-88187727D01*
X213176947Y-88266691D01*
X213385569Y-88306900D01*
X213696000Y-88306900D01*
X213764121Y-88326902D01*
X213810614Y-88380558D01*
X213820718Y-88450832D01*
X213809522Y-88487569D01*
X213791560Y-88524869D01*
X213777919Y-88553194D01*
X213745300Y-88696106D01*
X213745300Y-88842694D01*
X213765661Y-88931900D01*
X213777919Y-88985605D01*
X213777921Y-88985610D01*
X213841518Y-89117672D01*
X213841519Y-89117674D01*
X213841520Y-89117675D01*
X213841521Y-89117677D01*
X213932917Y-89232283D01*
X214047523Y-89323679D01*
X214179594Y-89387281D01*
X214322506Y-89419900D01*
X214373210Y-89419900D01*
X215014275Y-89419900D01*
X215043831Y-89423415D01*
X215101854Y-89437416D01*
X215132564Y-89449248D01*
X215187751Y-89479306D01*
X215214349Y-89498687D01*
X215259871Y-89542013D01*
X215280544Y-89567624D01*
X215313292Y-89621261D01*
X215326626Y-89651348D01*
X215344368Y-89711635D01*
X215349457Y-89744154D01*
X215351051Y-89809925D01*
X215350674Y-89818507D01*
X215350243Y-89822337D01*
X215350243Y-89830849D01*
X215349884Y-89837565D01*
X215347135Y-89863223D01*
X215348246Y-89875589D01*
X215347893Y-89875620D01*
X215350243Y-89891937D01*
X215350243Y-91144453D01*
X215348920Y-91492399D01*
X215345478Y-92397259D01*
X215343076Y-92413718D01*
X215343304Y-92413739D01*
X215342192Y-92426099D01*
X215344887Y-92451267D01*
X215345245Y-92458212D01*
X215345215Y-92466223D01*
X215345753Y-92471167D01*
X215346104Y-92479519D01*
X215344510Y-92545161D01*
X215339420Y-92577679D01*
X215321679Y-92637952D01*
X215308342Y-92668040D01*
X215275596Y-92721666D01*
X215254920Y-92747276D01*
X215209403Y-92790591D01*
X215182802Y-92809971D01*
X215127624Y-92840019D01*
X215096914Y-92851849D01*
X215040800Y-92865386D01*
X215011251Y-92868900D01*
X214435682Y-92868900D01*
X214395800Y-92868900D01*
X214322506Y-92868900D01*
X214183594Y-92900606D01*
X214179594Y-92901519D01*
X214179589Y-92901521D01*
X214047527Y-92965118D01*
X214047525Y-92965119D01*
X213932917Y-93056517D01*
X213841519Y-93171125D01*
X213841518Y-93171127D01*
X213777921Y-93303189D01*
X213777919Y-93303194D01*
X213745300Y-93446106D01*
X213745300Y-93592694D01*
X213772195Y-93710528D01*
X213777919Y-93735605D01*
X213777921Y-93735610D01*
X213809522Y-93801231D01*
X213821057Y-93871284D01*
X213792887Y-93936453D01*
X213733957Y-93976047D01*
X213696000Y-93981900D01*
X213438810Y-93981900D01*
X213438808Y-93981900D01*
X213438790Y-93981901D01*
X213280310Y-93997034D01*
X213280295Y-93997037D01*
X213076442Y-94056893D01*
X212887601Y-94154248D01*
X212720595Y-94285584D01*
X212720589Y-94285589D01*
X212581462Y-94446152D01*
X212581461Y-94446153D01*
X212581460Y-94446153D01*
X212475232Y-94630148D01*
X212475231Y-94630150D01*
X212405743Y-94830921D01*
X212405740Y-94830932D01*
X212375505Y-95041222D01*
X212385613Y-95253434D01*
X212385615Y-95253447D01*
X212435704Y-95459914D01*
X212435707Y-95459925D01*
X212523963Y-95653176D01*
X212523969Y-95653187D01*
X212647200Y-95826240D01*
X212647203Y-95826244D01*
X212647205Y-95826246D01*
X212800970Y-95972861D01*
X212979704Y-96087727D01*
X213176947Y-96166691D01*
X213385569Y-96206900D01*
X213385573Y-96206900D01*
X214752788Y-96206900D01*
X214752790Y-96206900D01*
X214911300Y-96191764D01*
X215115155Y-96131907D01*
X215161562Y-96107982D01*
X215231276Y-96094544D01*
X215297187Y-96120930D01*
X215338370Y-96178761D01*
X215345301Y-96219973D01*
X215345697Y-151390699D01*
X215325695Y-151458820D01*
X215272040Y-151505313D01*
X215219697Y-151516700D01*
X205000434Y-151516700D01*
X204992342Y-151520597D01*
X204965726Y-151529910D01*
X204956971Y-151531908D01*
X204956965Y-151531911D01*
X204949942Y-151537512D01*
X204926070Y-151552512D01*
X204917981Y-151556408D01*
X204917976Y-151556412D01*
X204912377Y-151563433D01*
X204892435Y-151583374D01*
X204885413Y-151588975D01*
X204885412Y-151588976D01*
X204885408Y-151588981D01*
X204881512Y-151597070D01*
X204866512Y-151620942D01*
X204860911Y-151627965D01*
X204860908Y-151627971D01*
X204858910Y-151636726D01*
X204849597Y-151663342D01*
X204845700Y-151671434D01*
X204845700Y-161890700D01*
X204825698Y-161958821D01*
X204772042Y-162005314D01*
X204719700Y-162016700D01*
X126372700Y-162016700D01*
X126304579Y-161996698D01*
X126258086Y-161943042D01*
X126246700Y-161890700D01*
X126246700Y-155529400D01*
X133142242Y-155529400D01*
X133162447Y-155889200D01*
X133222811Y-156244476D01*
X133322577Y-156590774D01*
X133460479Y-156923699D01*
X133460484Y-156923710D01*
X133528239Y-157046303D01*
X133634797Y-157239107D01*
X133634799Y-157239110D01*
X133634802Y-157239115D01*
X133843339Y-157533019D01*
X134083471Y-157801727D01*
X134352179Y-158041859D01*
X134646083Y-158250396D01*
X134961488Y-158424714D01*
X135294428Y-158562622D01*
X135640715Y-158662385D01*
X135995994Y-158722750D01*
X136355798Y-158742956D01*
X136715602Y-158722750D01*
X137070881Y-158662385D01*
X137417168Y-158562622D01*
X137750108Y-158424714D01*
X138065513Y-158250396D01*
X138359417Y-158041859D01*
X138628125Y-157801727D01*
X138868257Y-157533019D01*
X139076794Y-157239115D01*
X139251112Y-156923710D01*
X139389020Y-156590770D01*
X139488783Y-156244483D01*
X139549148Y-155889204D01*
X139569354Y-155529400D01*
X139549148Y-155169596D01*
X139488783Y-154814317D01*
X139389020Y-154468030D01*
X139251112Y-154135090D01*
X139100969Y-153863427D01*
X139076798Y-153819692D01*
X139076797Y-153819691D01*
X139076794Y-153819685D01*
X138868257Y-153525781D01*
X138628125Y-153257073D01*
X138359417Y-153016941D01*
X138065513Y-152808404D01*
X138065508Y-152808401D01*
X138065505Y-152808399D01*
X137786295Y-152654086D01*
X137750108Y-152634086D01*
X137750101Y-152634083D01*
X137750097Y-152634081D01*
X137417172Y-152496179D01*
X137070874Y-152396413D01*
X136715598Y-152336049D01*
X136380096Y-152317208D01*
X136355798Y-152315844D01*
X136355797Y-152315844D01*
X135995997Y-152336049D01*
X135640721Y-152396413D01*
X135294423Y-152496179D01*
X134961498Y-152634081D01*
X134961475Y-152634093D01*
X134646090Y-152808399D01*
X134352175Y-153016944D01*
X134083471Y-153257073D01*
X133843342Y-153525777D01*
X133634797Y-153819692D01*
X133460491Y-154135077D01*
X133460479Y-154135100D01*
X133322577Y-154468025D01*
X133222811Y-154814323D01*
X133162447Y-155169599D01*
X133142242Y-155529400D01*
X126246700Y-155529400D01*
X126246700Y-151671438D01*
X126246698Y-151671434D01*
X126242802Y-151663342D01*
X126233487Y-151636721D01*
X126231490Y-151627969D01*
X126231489Y-151627968D01*
X126231489Y-151627967D01*
X126225893Y-151620951D01*
X126210882Y-151597063D01*
X126206988Y-151588976D01*
X126199971Y-151583380D01*
X126180020Y-151563429D01*
X126174424Y-151556412D01*
X126166336Y-151552517D01*
X126142447Y-151537505D01*
X126135431Y-151531910D01*
X126126675Y-151529911D01*
X126100054Y-151520596D01*
X126091963Y-151516700D01*
X126091962Y-151516700D01*
X115872697Y-151516700D01*
X115804576Y-151496698D01*
X115758083Y-151443042D01*
X115746697Y-151390701D01*
X115746687Y-149985473D01*
X115746684Y-149625672D01*
X141113721Y-149625672D01*
X141133926Y-149985473D01*
X141194290Y-150340749D01*
X141294056Y-150687047D01*
X141431958Y-151019972D01*
X141431963Y-151019983D01*
X141431970Y-151019995D01*
X141606276Y-151335380D01*
X141606278Y-151335383D01*
X141606281Y-151335388D01*
X141814818Y-151629292D01*
X142054950Y-151898000D01*
X142323658Y-152138132D01*
X142617562Y-152346669D01*
X142617568Y-152346672D01*
X142617569Y-152346673D01*
X142868107Y-152485140D01*
X142918053Y-152535597D01*
X142932791Y-152605047D01*
X142907641Y-152671440D01*
X142868108Y-152705696D01*
X142646088Y-152828401D01*
X142352177Y-153036944D01*
X142083473Y-153277073D01*
X141843344Y-153545777D01*
X141634799Y-153839692D01*
X141460493Y-154155077D01*
X141460481Y-154155100D01*
X141322579Y-154488025D01*
X141222813Y-154834323D01*
X141162449Y-155189599D01*
X141142244Y-155549399D01*
X141162449Y-155909200D01*
X141222813Y-156264476D01*
X141322579Y-156610774D01*
X141460481Y-156943699D01*
X141460486Y-156943710D01*
X141460493Y-156943722D01*
X141634799Y-157259107D01*
X141634801Y-157259110D01*
X141634804Y-157259115D01*
X141843341Y-157553019D01*
X142083473Y-157821727D01*
X142352181Y-158061859D01*
X142646085Y-158270396D01*
X142961490Y-158444714D01*
X143294430Y-158582622D01*
X143640717Y-158682385D01*
X143995996Y-158742750D01*
X144355800Y-158762956D01*
X144715604Y-158742750D01*
X145070883Y-158682385D01*
X145417170Y-158582622D01*
X145750110Y-158444714D01*
X146065515Y-158270396D01*
X146359419Y-158061859D01*
X146628127Y-157821727D01*
X146868259Y-157553019D01*
X147076796Y-157259115D01*
X147251114Y-156943710D01*
X147389022Y-156610770D01*
X147488785Y-156264483D01*
X147549150Y-155909204D01*
X147569356Y-155549400D01*
X147549150Y-155189596D01*
X147488785Y-154834317D01*
X147389022Y-154488030D01*
X147251114Y-154155090D01*
X147076796Y-153839685D01*
X146868259Y-153545781D01*
X146628127Y-153277073D01*
X146359419Y-153036941D01*
X146065515Y-152828404D01*
X146065510Y-152828401D01*
X146065507Y-152828399D01*
X145814969Y-152689932D01*
X145765023Y-152639475D01*
X145750285Y-152570025D01*
X145775435Y-152503632D01*
X145814966Y-152469377D01*
X146036992Y-152346669D01*
X146330896Y-152138132D01*
X146599604Y-151898000D01*
X146839736Y-151629292D01*
X147048273Y-151335388D01*
X147128958Y-151189400D01*
X162622244Y-151189400D01*
X162642449Y-151549200D01*
X162702813Y-151904476D01*
X162802579Y-152250774D01*
X162914505Y-152520987D01*
X162940486Y-152583710D01*
X162988973Y-152671440D01*
X163114799Y-152899107D01*
X163114801Y-152899110D01*
X163114804Y-152899115D01*
X163323341Y-153193019D01*
X163563473Y-153461727D01*
X163832181Y-153701859D01*
X164126085Y-153910396D01*
X164441490Y-154084714D01*
X164774430Y-154222622D01*
X165120717Y-154322385D01*
X165475996Y-154382750D01*
X165835800Y-154402956D01*
X166195604Y-154382750D01*
X166550883Y-154322385D01*
X166897170Y-154222622D01*
X167230110Y-154084714D01*
X167545515Y-153910396D01*
X167839419Y-153701859D01*
X168108127Y-153461727D01*
X168348259Y-153193019D01*
X168556796Y-152899115D01*
X168731114Y-152583710D01*
X168869022Y-152250770D01*
X168968785Y-151904483D01*
X169029150Y-151549204D01*
X169049356Y-151189400D01*
X169029150Y-150829596D01*
X168968785Y-150474317D01*
X168869022Y-150128030D01*
X168731114Y-149795090D01*
X168556796Y-149479685D01*
X168348259Y-149185781D01*
X168108127Y-148917073D01*
X167839419Y-148676941D01*
X167545515Y-148468404D01*
X167545510Y-148468401D01*
X167545507Y-148468399D01*
X167352703Y-148361841D01*
X167230110Y-148294086D01*
X167230103Y-148294083D01*
X167230099Y-148294081D01*
X166897174Y-148156179D01*
X166550876Y-148056413D01*
X166195600Y-147996049D01*
X165835800Y-147975844D01*
X165475999Y-147996049D01*
X165120723Y-148056413D01*
X164774425Y-148156179D01*
X164441500Y-148294081D01*
X164441477Y-148294093D01*
X164126092Y-148468399D01*
X163832177Y-148676944D01*
X163563473Y-148917073D01*
X163323344Y-149185777D01*
X163114799Y-149479692D01*
X162940493Y-149795077D01*
X162940481Y-149795100D01*
X162802579Y-150128025D01*
X162702813Y-150474323D01*
X162642449Y-150829599D01*
X162622244Y-151189400D01*
X147128958Y-151189400D01*
X147222591Y-151019983D01*
X147360499Y-150687043D01*
X147460262Y-150340756D01*
X147520627Y-149985477D01*
X147540833Y-149625673D01*
X147520627Y-149265869D01*
X147460262Y-148910590D01*
X147360499Y-148564303D01*
X147222591Y-148231363D01*
X147048273Y-147915958D01*
X146839736Y-147622054D01*
X146599604Y-147353346D01*
X146330896Y-147113214D01*
X146036992Y-146904677D01*
X146036987Y-146904674D01*
X146036984Y-146904672D01*
X145844180Y-146798114D01*
X145721587Y-146730359D01*
X145721580Y-146730356D01*
X145721576Y-146730354D01*
X145388651Y-146592452D01*
X145042353Y-146492686D01*
X144687077Y-146432322D01*
X144327277Y-146412117D01*
X143967476Y-146432322D01*
X143612200Y-146492686D01*
X143265902Y-146592452D01*
X142932977Y-146730354D01*
X142932954Y-146730366D01*
X142617569Y-146904672D01*
X142323654Y-147113217D01*
X142054950Y-147353346D01*
X141814821Y-147622050D01*
X141606276Y-147915965D01*
X141431970Y-148231350D01*
X141431958Y-148231373D01*
X141294056Y-148564298D01*
X141194290Y-148910596D01*
X141133926Y-149265872D01*
X141113721Y-149625672D01*
X115746684Y-149625672D01*
X115746625Y-141398977D01*
X121983917Y-141398977D01*
X122003878Y-141588905D01*
X122033947Y-141681448D01*
X122062894Y-141770534D01*
X122062897Y-141770539D01*
X122158379Y-141935919D01*
X122158386Y-141935929D01*
X122286165Y-142077842D01*
X122286168Y-142077844D01*
X122440669Y-142190096D01*
X122615133Y-142267772D01*
X122801934Y-142307478D01*
X122992908Y-142307478D01*
X123179709Y-142267772D01*
X123354173Y-142190096D01*
X123508674Y-142077844D01*
X123636461Y-141935922D01*
X123731948Y-141770534D01*
X123790963Y-141588906D01*
X123810925Y-141398978D01*
X123790963Y-141209050D01*
X123731948Y-141027422D01*
X123636461Y-140862034D01*
X123636459Y-140862032D01*
X123636455Y-140862026D01*
X123508676Y-140720113D01*
X123354173Y-140607860D01*
X123179709Y-140530184D01*
X122992908Y-140490478D01*
X122801934Y-140490478D01*
X122615132Y-140530184D01*
X122440668Y-140607860D01*
X122286165Y-140720113D01*
X122158386Y-140862026D01*
X122158379Y-140862036D01*
X122062897Y-141027416D01*
X122062894Y-141027423D01*
X122003878Y-141209050D01*
X121983917Y-141398977D01*
X115746625Y-141398977D01*
X115746595Y-137311856D01*
X121690930Y-137311856D01*
X121710891Y-137501784D01*
X121740960Y-137594327D01*
X121769907Y-137683413D01*
X121769910Y-137683418D01*
X121865392Y-137848798D01*
X121865399Y-137848808D01*
X121993178Y-137990721D01*
X121993177Y-137990721D01*
X122149744Y-138104474D01*
X122193098Y-138160697D01*
X122199173Y-138231433D01*
X122184803Y-138269409D01*
X122109787Y-138399341D01*
X122109786Y-138399345D01*
X122050770Y-138580972D01*
X122030809Y-138770899D01*
X122050770Y-138960827D01*
X122080540Y-139052448D01*
X122109786Y-139142456D01*
X122109789Y-139142461D01*
X122205271Y-139307841D01*
X122205278Y-139307851D01*
X122333057Y-139449764D01*
X122333060Y-139449766D01*
X122487561Y-139562018D01*
X122662025Y-139639694D01*
X122848826Y-139679400D01*
X123039800Y-139679400D01*
X123226601Y-139639694D01*
X123339564Y-139589400D01*
X124852296Y-139589400D01*
X124872257Y-139779327D01*
X124902326Y-139871870D01*
X124931273Y-139960956D01*
X124931276Y-139960961D01*
X125026758Y-140126341D01*
X125026765Y-140126351D01*
X125154544Y-140268264D01*
X125154547Y-140268266D01*
X125309048Y-140380518D01*
X125483512Y-140458194D01*
X125670313Y-140497900D01*
X125861287Y-140497900D01*
X126048088Y-140458194D01*
X126222552Y-140380518D01*
X126377053Y-140268266D01*
X126504840Y-140126344D01*
X126600327Y-139960956D01*
X126659342Y-139779328D01*
X126679304Y-139589400D01*
X126659342Y-139399472D01*
X126600327Y-139217844D01*
X126504840Y-139052456D01*
X126504838Y-139052454D01*
X126504834Y-139052448D01*
X126377055Y-138910535D01*
X126222552Y-138798282D01*
X126048088Y-138720606D01*
X125861287Y-138680900D01*
X125670313Y-138680900D01*
X125483511Y-138720606D01*
X125309047Y-138798282D01*
X125154544Y-138910535D01*
X125026765Y-139052448D01*
X125026758Y-139052458D01*
X124931276Y-139217838D01*
X124931273Y-139217845D01*
X124872257Y-139399472D01*
X124852296Y-139589400D01*
X123339564Y-139589400D01*
X123401065Y-139562018D01*
X123555566Y-139449766D01*
X123683353Y-139307844D01*
X123778840Y-139142456D01*
X123837855Y-138960828D01*
X123857817Y-138770900D01*
X123837855Y-138580972D01*
X123778840Y-138399344D01*
X123683353Y-138233956D01*
X123683351Y-138233954D01*
X123683347Y-138233948D01*
X123555568Y-138092035D01*
X123399001Y-137978282D01*
X123355647Y-137922059D01*
X123349572Y-137851323D01*
X123363940Y-137813352D01*
X123438961Y-137683413D01*
X123497976Y-137501785D01*
X123517938Y-137311857D01*
X123497976Y-137121929D01*
X123438961Y-136940301D01*
X123343474Y-136774913D01*
X123343472Y-136774911D01*
X123343468Y-136774905D01*
X123215689Y-136632992D01*
X123061186Y-136520739D01*
X122886722Y-136443063D01*
X122699921Y-136403357D01*
X122508947Y-136403357D01*
X122322145Y-136443063D01*
X122147681Y-136520739D01*
X121993178Y-136632992D01*
X121865399Y-136774905D01*
X121865392Y-136774915D01*
X121769910Y-136940295D01*
X121769907Y-136940302D01*
X121710891Y-137121929D01*
X121690930Y-137311856D01*
X115746595Y-137311856D01*
X115746574Y-134409400D01*
X120622296Y-134409400D01*
X120642257Y-134599327D01*
X120672326Y-134691870D01*
X120701273Y-134780956D01*
X120701276Y-134780961D01*
X120796758Y-134946341D01*
X120796765Y-134946351D01*
X120924544Y-135088264D01*
X120924547Y-135088266D01*
X121079048Y-135200518D01*
X121253512Y-135278194D01*
X121440313Y-135317900D01*
X121631287Y-135317900D01*
X121818088Y-135278194D01*
X121992552Y-135200518D01*
X122147053Y-135088266D01*
X122274840Y-134946344D01*
X122370327Y-134780956D01*
X122429342Y-134599328D01*
X122449304Y-134409400D01*
X122429342Y-134219472D01*
X122370327Y-134037844D01*
X122274840Y-133872456D01*
X122274838Y-133872454D01*
X122274834Y-133872448D01*
X122147055Y-133730535D01*
X121992552Y-133618282D01*
X121818088Y-133540606D01*
X121631287Y-133500900D01*
X121440313Y-133500900D01*
X121253511Y-133540606D01*
X121079047Y-133618282D01*
X120924544Y-133730535D01*
X120796765Y-133872448D01*
X120796758Y-133872458D01*
X120701276Y-134037838D01*
X120701273Y-134037845D01*
X120642257Y-134219472D01*
X120622296Y-134409400D01*
X115746574Y-134409400D01*
X115746534Y-128919400D01*
X119542296Y-128919400D01*
X119562257Y-129109327D01*
X119592326Y-129201870D01*
X119621273Y-129290956D01*
X119621276Y-129290961D01*
X119716758Y-129456341D01*
X119716765Y-129456351D01*
X119844544Y-129598264D01*
X119844547Y-129598266D01*
X119999048Y-129710518D01*
X120173512Y-129788194D01*
X120360313Y-129827900D01*
X120551287Y-129827900D01*
X120738088Y-129788194D01*
X120912552Y-129710518D01*
X121067053Y-129598266D01*
X121194840Y-129456344D01*
X121290327Y-129290956D01*
X121349342Y-129109328D01*
X121369304Y-128919400D01*
X121349342Y-128729472D01*
X121290327Y-128547844D01*
X121290326Y-128547842D01*
X121290325Y-128547839D01*
X121245610Y-128470391D01*
X121228872Y-128401396D01*
X121252092Y-128334304D01*
X121265628Y-128318302D01*
X122714530Y-126869400D01*
X132885800Y-126869400D01*
X132885800Y-145539400D01*
X180309890Y-145539400D01*
X180346466Y-145544826D01*
X180400265Y-145561146D01*
X180400266Y-145561146D01*
X180400269Y-145561147D01*
X180400272Y-145561147D01*
X180400276Y-145561148D01*
X180586597Y-145579499D01*
X180586600Y-145579499D01*
X180586603Y-145579499D01*
X180772923Y-145561148D01*
X180772925Y-145561147D01*
X180772931Y-145561147D01*
X180826733Y-145544826D01*
X180863310Y-145539400D01*
X197915800Y-145539400D01*
X197915800Y-126869400D01*
X132885800Y-126869400D01*
X122714530Y-126869400D01*
X126995881Y-122588049D01*
X149617300Y-122588049D01*
X149623809Y-122648596D01*
X149623811Y-122648604D01*
X149674910Y-122785602D01*
X149674912Y-122785607D01*
X149762538Y-122902661D01*
X149879592Y-122990287D01*
X149879594Y-122990288D01*
X149879596Y-122990289D01*
X149911230Y-123002088D01*
X150016595Y-123041388D01*
X150016603Y-123041390D01*
X150077150Y-123047899D01*
X150077155Y-123047899D01*
X150077162Y-123047900D01*
X150795250Y-123047900D01*
X150863371Y-123067902D01*
X150909864Y-123121558D01*
X150919968Y-123191832D01*
X150913305Y-123217933D01*
X150893811Y-123270195D01*
X150893809Y-123270203D01*
X150887300Y-123330750D01*
X150887300Y-125128049D01*
X150893809Y-125188596D01*
X150893811Y-125188604D01*
X150944910Y-125325602D01*
X150944912Y-125325607D01*
X151032538Y-125442661D01*
X151149592Y-125530287D01*
X151149594Y-125530288D01*
X151149596Y-125530289D01*
X151208675Y-125552324D01*
X151286595Y-125581388D01*
X151286603Y-125581390D01*
X151347150Y-125587899D01*
X151347155Y-125587899D01*
X151347162Y-125587900D01*
X151347168Y-125587900D01*
X153144432Y-125587900D01*
X153144438Y-125587900D01*
X153144445Y-125587899D01*
X153144449Y-125587899D01*
X153204996Y-125581390D01*
X153204999Y-125581389D01*
X153205001Y-125581389D01*
X153342004Y-125530289D01*
X153440292Y-125456711D01*
X153506811Y-125431901D01*
X153576185Y-125446992D01*
X153591302Y-125456706D01*
X153689593Y-125530287D01*
X153689596Y-125530289D01*
X153826595Y-125581388D01*
X153826603Y-125581390D01*
X153887150Y-125587899D01*
X153887155Y-125587899D01*
X153887162Y-125587900D01*
X153887168Y-125587900D01*
X155684432Y-125587900D01*
X155684438Y-125587900D01*
X155684445Y-125587899D01*
X155684449Y-125587899D01*
X155744996Y-125581390D01*
X155744999Y-125581389D01*
X155745001Y-125581389D01*
X155882004Y-125530289D01*
X155999061Y-125442661D01*
X156086689Y-125325604D01*
X156137789Y-125188601D01*
X156144300Y-125128038D01*
X156144300Y-123330762D01*
X156144299Y-123330750D01*
X156137790Y-123270203D01*
X156137788Y-123270195D01*
X156118295Y-123217933D01*
X156113229Y-123147117D01*
X156147254Y-123084805D01*
X156209566Y-123050780D01*
X156236350Y-123047900D01*
X157244432Y-123047900D01*
X157244438Y-123047900D01*
X157244445Y-123047899D01*
X157244449Y-123047899D01*
X157304996Y-123041390D01*
X157304999Y-123041389D01*
X157305001Y-123041389D01*
X157442004Y-122990289D01*
X157559061Y-122902661D01*
X157577963Y-122877411D01*
X157646687Y-122785607D01*
X157646687Y-122785606D01*
X157646689Y-122785604D01*
X157697789Y-122648601D01*
X157704300Y-122588038D01*
X157704300Y-120790762D01*
X157704299Y-120790750D01*
X157697790Y-120730203D01*
X157697788Y-120730195D01*
X157646689Y-120593197D01*
X157646687Y-120593192D01*
X157559061Y-120476138D01*
X157442007Y-120388512D01*
X157442002Y-120388510D01*
X157305004Y-120337411D01*
X157304996Y-120337409D01*
X157244449Y-120330900D01*
X157244438Y-120330900D01*
X155447162Y-120330900D01*
X155447150Y-120330900D01*
X155386603Y-120337409D01*
X155386595Y-120337411D01*
X155249597Y-120388510D01*
X155249592Y-120388512D01*
X155132538Y-120476138D01*
X155044912Y-120593192D01*
X155044910Y-120593197D01*
X154993811Y-120730195D01*
X154993809Y-120730203D01*
X154987300Y-120790750D01*
X154987300Y-122588049D01*
X154993809Y-122648596D01*
X154993811Y-122648604D01*
X155013305Y-122700867D01*
X155018371Y-122771683D01*
X154984346Y-122833995D01*
X154922034Y-122868020D01*
X154895250Y-122870900D01*
X153887150Y-122870900D01*
X153826603Y-122877409D01*
X153826595Y-122877411D01*
X153689597Y-122928510D01*
X153689593Y-122928512D01*
X153591307Y-123002088D01*
X153524787Y-123026898D01*
X153455413Y-123011806D01*
X153440290Y-123002087D01*
X153342007Y-122928512D01*
X153342002Y-122928510D01*
X153205004Y-122877411D01*
X153204996Y-122877409D01*
X153144449Y-122870900D01*
X153144438Y-122870900D01*
X152426350Y-122870900D01*
X152358229Y-122850898D01*
X152311736Y-122797242D01*
X152301632Y-122726968D01*
X152308295Y-122700867D01*
X152327788Y-122648604D01*
X152327790Y-122648596D01*
X152334299Y-122588049D01*
X152334300Y-122588032D01*
X152334300Y-120790767D01*
X152334299Y-120790750D01*
X152327790Y-120730203D01*
X152327788Y-120730195D01*
X152276689Y-120593197D01*
X152276687Y-120593192D01*
X152189061Y-120476138D01*
X152072007Y-120388512D01*
X152072002Y-120388510D01*
X151935004Y-120337411D01*
X151934996Y-120337409D01*
X151874449Y-120330900D01*
X151874438Y-120330900D01*
X150077162Y-120330900D01*
X150077150Y-120330900D01*
X150016603Y-120337409D01*
X150016595Y-120337411D01*
X149879597Y-120388510D01*
X149879592Y-120388512D01*
X149762538Y-120476138D01*
X149674912Y-120593192D01*
X149674910Y-120593197D01*
X149623811Y-120730195D01*
X149623809Y-120730203D01*
X149617300Y-120790750D01*
X149617300Y-122588049D01*
X126995881Y-122588049D01*
X132974532Y-116609399D01*
X149612644Y-116609399D01*
X149631237Y-116833775D01*
X149686502Y-117052012D01*
X149686503Y-117052013D01*
X149776941Y-117258193D01*
X149900075Y-117446665D01*
X149900079Y-117446670D01*
X150052562Y-117612308D01*
X150107131Y-117654781D01*
X150230224Y-117750589D01*
X150428226Y-117857742D01*
X150428227Y-117857742D01*
X150428228Y-117857743D01*
X150540027Y-117896123D01*
X150641165Y-117930844D01*
X150863231Y-117967900D01*
X150863235Y-117967900D01*
X151088365Y-117967900D01*
X151088369Y-117967900D01*
X151310435Y-117930844D01*
X151523374Y-117857742D01*
X151721376Y-117750589D01*
X151899040Y-117612306D01*
X152051522Y-117446668D01*
X152174660Y-117258191D01*
X152265096Y-117052016D01*
X152320364Y-116833768D01*
X152338956Y-116609400D01*
X152320364Y-116385032D01*
X152320362Y-116385024D01*
X152265097Y-116166787D01*
X152265096Y-116166786D01*
X152265096Y-116166784D01*
X152174660Y-115960609D01*
X152167940Y-115950324D01*
X152051524Y-115772134D01*
X152051520Y-115772129D01*
X151929183Y-115639238D01*
X151897762Y-115575573D01*
X151905748Y-115505027D01*
X151950607Y-115449998D01*
X152018096Y-115427957D01*
X152021884Y-115427900D01*
X153144432Y-115427900D01*
X153144438Y-115427900D01*
X153144445Y-115427899D01*
X153144449Y-115427899D01*
X153204996Y-115421390D01*
X153204999Y-115421389D01*
X153205001Y-115421389D01*
X153342004Y-115370289D01*
X153440290Y-115296712D01*
X153506809Y-115271901D01*
X153576183Y-115286992D01*
X153591308Y-115296712D01*
X153689592Y-115370287D01*
X153689594Y-115370288D01*
X153689596Y-115370289D01*
X153723005Y-115382750D01*
X153826595Y-115421388D01*
X153826603Y-115421390D01*
X153887150Y-115427899D01*
X153887155Y-115427899D01*
X153887162Y-115427900D01*
X155299716Y-115427900D01*
X155367837Y-115447902D01*
X155414330Y-115501558D01*
X155424434Y-115571832D01*
X155394940Y-115636412D01*
X155392417Y-115639238D01*
X155270079Y-115772129D01*
X155270075Y-115772134D01*
X155146941Y-115960606D01*
X155056503Y-116166786D01*
X155056502Y-116166787D01*
X155001237Y-116385024D01*
X154982644Y-116609399D01*
X155001237Y-116833775D01*
X155056502Y-117052012D01*
X155056503Y-117052013D01*
X155146941Y-117258193D01*
X155270075Y-117446665D01*
X155270079Y-117446670D01*
X155422562Y-117612308D01*
X155477131Y-117654781D01*
X155600224Y-117750589D01*
X155798226Y-117857742D01*
X155798227Y-117857742D01*
X155798228Y-117857743D01*
X155910027Y-117896123D01*
X156011165Y-117930844D01*
X156233231Y-117967900D01*
X156233235Y-117967900D01*
X156458365Y-117967900D01*
X156458369Y-117967900D01*
X156680435Y-117930844D01*
X156893374Y-117857742D01*
X157091376Y-117750589D01*
X157269040Y-117612306D01*
X157421522Y-117446668D01*
X157544660Y-117258191D01*
X157635096Y-117052016D01*
X157690364Y-116833768D01*
X157708956Y-116609400D01*
X157690364Y-116385032D01*
X157690362Y-116385024D01*
X157635097Y-116166787D01*
X157635096Y-116166786D01*
X157635096Y-116166784D01*
X157544660Y-115960609D01*
X157537940Y-115950324D01*
X157421524Y-115772134D01*
X157421520Y-115772129D01*
X157269037Y-115606491D01*
X157187182Y-115542781D01*
X157091376Y-115468211D01*
X156893374Y-115361058D01*
X156893372Y-115361057D01*
X156893371Y-115361056D01*
X156680439Y-115287957D01*
X156680430Y-115287955D01*
X156636276Y-115280587D01*
X156458369Y-115250900D01*
X156236350Y-115250900D01*
X156168229Y-115230898D01*
X156121736Y-115177242D01*
X156111632Y-115106968D01*
X156118295Y-115080867D01*
X156137788Y-115028604D01*
X156137790Y-115028596D01*
X156144299Y-114968049D01*
X156144300Y-114968032D01*
X156144300Y-114729400D01*
X160427249Y-114729400D01*
X160446029Y-114968032D01*
X160447422Y-114985725D01*
X160507444Y-115235738D01*
X160597419Y-115452956D01*
X160605840Y-115473287D01*
X160705803Y-115636412D01*
X160740185Y-115692517D01*
X160740186Y-115692519D01*
X160907168Y-115888031D01*
X161102680Y-116055013D01*
X161102684Y-116055016D01*
X161321913Y-116189360D01*
X161559460Y-116287755D01*
X161809474Y-116347778D01*
X162065800Y-116367951D01*
X162322126Y-116347778D01*
X162572140Y-116287755D01*
X162809687Y-116189360D01*
X163028916Y-116055016D01*
X163224431Y-115888031D01*
X163391416Y-115692516D01*
X163525760Y-115473287D01*
X163624155Y-115235740D01*
X163684178Y-114985726D01*
X163704351Y-114729400D01*
X165507249Y-114729400D01*
X165526029Y-114968032D01*
X165527422Y-114985725D01*
X165587444Y-115235738D01*
X165677419Y-115452956D01*
X165685840Y-115473287D01*
X165785803Y-115636412D01*
X165820185Y-115692517D01*
X165820186Y-115692519D01*
X165987168Y-115888031D01*
X166182680Y-116055013D01*
X166182684Y-116055016D01*
X166401913Y-116189360D01*
X166639460Y-116287755D01*
X166889474Y-116347778D01*
X167145800Y-116367951D01*
X167402126Y-116347778D01*
X167652140Y-116287755D01*
X167889687Y-116189360D01*
X168108916Y-116055016D01*
X168304431Y-115888031D01*
X168471416Y-115692516D01*
X168605760Y-115473287D01*
X168704155Y-115235740D01*
X168764178Y-114985726D01*
X168784351Y-114729400D01*
X168764178Y-114473074D01*
X168704155Y-114223060D01*
X168605760Y-113985513D01*
X168471416Y-113766284D01*
X168438412Y-113727641D01*
X168304431Y-113570768D01*
X168108919Y-113403786D01*
X168108917Y-113403785D01*
X168108916Y-113403784D01*
X167889687Y-113269440D01*
X167844624Y-113250774D01*
X167652138Y-113171044D01*
X167481110Y-113129984D01*
X167402126Y-113111022D01*
X167145800Y-113090849D01*
X166889474Y-113111022D01*
X166639461Y-113171044D01*
X166401914Y-113269439D01*
X166182682Y-113403785D01*
X166182680Y-113403786D01*
X165987168Y-113570768D01*
X165820186Y-113766280D01*
X165820185Y-113766282D01*
X165685839Y-113985514D01*
X165587444Y-114223061D01*
X165530146Y-114461726D01*
X165527422Y-114473074D01*
X165507249Y-114729400D01*
X163704351Y-114729400D01*
X163684178Y-114473074D01*
X163624155Y-114223060D01*
X163525760Y-113985513D01*
X163391416Y-113766284D01*
X163358412Y-113727641D01*
X163224431Y-113570768D01*
X163028919Y-113403786D01*
X163028917Y-113403785D01*
X163028916Y-113403784D01*
X162809687Y-113269440D01*
X162764624Y-113250774D01*
X162572138Y-113171044D01*
X162401110Y-113129984D01*
X162322126Y-113111022D01*
X162065800Y-113090849D01*
X161809474Y-113111022D01*
X161559461Y-113171044D01*
X161321914Y-113269439D01*
X161102682Y-113403785D01*
X161102680Y-113403786D01*
X160907168Y-113570768D01*
X160740186Y-113766280D01*
X160740185Y-113766282D01*
X160605839Y-113985514D01*
X160507444Y-114223061D01*
X160450146Y-114461726D01*
X160447422Y-114473074D01*
X160427249Y-114729400D01*
X156144300Y-114729400D01*
X156144300Y-113170767D01*
X156144299Y-113170750D01*
X156137790Y-113110203D01*
X156137788Y-113110195D01*
X156086689Y-112973197D01*
X156086687Y-112973192D01*
X155999061Y-112856138D01*
X155882007Y-112768512D01*
X155882002Y-112768510D01*
X155745004Y-112717411D01*
X155744996Y-112717409D01*
X155684449Y-112710900D01*
X155684438Y-112710900D01*
X153887162Y-112710900D01*
X153887150Y-112710900D01*
X153826603Y-112717409D01*
X153826595Y-112717411D01*
X153689597Y-112768510D01*
X153689592Y-112768512D01*
X153591309Y-112842087D01*
X153524789Y-112866898D01*
X153455415Y-112851807D01*
X153440291Y-112842087D01*
X153342007Y-112768512D01*
X153342002Y-112768510D01*
X153205004Y-112717411D01*
X153204996Y-112717409D01*
X153144449Y-112710900D01*
X153144438Y-112710900D01*
X151347162Y-112710900D01*
X151347150Y-112710900D01*
X151286603Y-112717409D01*
X151286595Y-112717411D01*
X151149597Y-112768510D01*
X151149592Y-112768512D01*
X151032538Y-112856138D01*
X150944912Y-112973192D01*
X150944910Y-112973197D01*
X150893811Y-113110195D01*
X150893809Y-113110203D01*
X150887300Y-113170750D01*
X150887300Y-114968049D01*
X150893809Y-115028596D01*
X150893810Y-115028599D01*
X150916677Y-115089907D01*
X150921741Y-115160722D01*
X150887716Y-115223035D01*
X150825404Y-115257060D01*
X150819370Y-115258218D01*
X150767092Y-115266942D01*
X150641167Y-115287955D01*
X150641160Y-115287957D01*
X150428228Y-115361056D01*
X150428226Y-115361058D01*
X150304713Y-115427900D01*
X150230226Y-115468210D01*
X150230224Y-115468211D01*
X150052562Y-115606491D01*
X149900079Y-115772129D01*
X149900075Y-115772134D01*
X149776941Y-115960606D01*
X149686503Y-116166786D01*
X149686502Y-116166787D01*
X149631237Y-116385024D01*
X149612644Y-116609399D01*
X132974532Y-116609399D01*
X137394531Y-112189400D01*
X163067558Y-112189400D01*
X163086496Y-112430033D01*
X163142844Y-112664741D01*
X163222124Y-112856139D01*
X163235216Y-112887747D01*
X163361336Y-113093556D01*
X163518099Y-113277101D01*
X163701644Y-113433864D01*
X163907453Y-113559984D01*
X164130457Y-113652355D01*
X164365166Y-113708704D01*
X164605800Y-113727642D01*
X164846434Y-113708704D01*
X165081143Y-113652355D01*
X165304147Y-113559984D01*
X165509956Y-113433864D01*
X165693501Y-113277101D01*
X165850264Y-113093556D01*
X165976384Y-112887747D01*
X166068755Y-112664743D01*
X166125104Y-112430034D01*
X166144042Y-112189400D01*
X201592244Y-112189400D01*
X201612449Y-112549200D01*
X201672813Y-112904476D01*
X201772579Y-113250774D01*
X201910481Y-113583699D01*
X201910486Y-113583710D01*
X201910493Y-113583722D01*
X202084799Y-113899107D01*
X202084801Y-113899110D01*
X202084804Y-113899115D01*
X202293341Y-114193019D01*
X202533473Y-114461727D01*
X202802181Y-114701859D01*
X203096085Y-114910396D01*
X203411490Y-115084714D01*
X203411501Y-115084718D01*
X203411500Y-115084718D01*
X203706391Y-115206866D01*
X203744430Y-115222622D01*
X204090717Y-115322385D01*
X204445996Y-115382750D01*
X204805800Y-115402956D01*
X205165604Y-115382750D01*
X205520883Y-115322385D01*
X205867170Y-115222622D01*
X206200110Y-115084714D01*
X206515515Y-114910396D01*
X206809419Y-114701859D01*
X207078127Y-114461727D01*
X207318259Y-114193019D01*
X207526796Y-113899115D01*
X207701114Y-113583710D01*
X207839022Y-113250770D01*
X207938785Y-112904483D01*
X207999150Y-112549204D01*
X208019356Y-112189400D01*
X207999150Y-111829596D01*
X207938785Y-111474317D01*
X207839022Y-111128030D01*
X207701114Y-110795090D01*
X207526796Y-110479685D01*
X207318259Y-110185781D01*
X207078127Y-109917073D01*
X206809419Y-109676941D01*
X206515515Y-109468404D01*
X206515510Y-109468401D01*
X206515507Y-109468399D01*
X206290569Y-109344081D01*
X206200110Y-109294086D01*
X206200103Y-109294083D01*
X206200099Y-109294081D01*
X205867174Y-109156179D01*
X205520876Y-109056413D01*
X205165600Y-108996049D01*
X204830098Y-108977208D01*
X204805800Y-108975844D01*
X204805799Y-108975844D01*
X204445999Y-108996049D01*
X204090723Y-109056413D01*
X203744425Y-109156179D01*
X203411500Y-109294081D01*
X203411477Y-109294093D01*
X203096092Y-109468399D01*
X202802177Y-109676944D01*
X202533473Y-109917073D01*
X202293344Y-110185777D01*
X202084799Y-110479692D01*
X201910493Y-110795077D01*
X201910481Y-110795100D01*
X201772579Y-111128025D01*
X201672813Y-111474323D01*
X201612449Y-111829599D01*
X201592244Y-112189400D01*
X166144042Y-112189400D01*
X166125104Y-111948766D01*
X166068755Y-111714057D01*
X165976384Y-111491053D01*
X165850264Y-111285244D01*
X165693501Y-111101699D01*
X165509956Y-110944936D01*
X165304147Y-110818816D01*
X165246892Y-110795100D01*
X165081141Y-110726444D01*
X164920583Y-110687897D01*
X164846434Y-110670096D01*
X164605800Y-110651158D01*
X164365166Y-110670096D01*
X164130458Y-110726444D01*
X163907454Y-110818815D01*
X163701645Y-110944935D01*
X163518099Y-111101699D01*
X163361335Y-111285245D01*
X163235215Y-111491054D01*
X163142844Y-111714058D01*
X163086496Y-111948766D01*
X163067558Y-112189400D01*
X137394531Y-112189400D01*
X139934531Y-109649400D01*
X160427249Y-109649400D01*
X160429416Y-109676941D01*
X160447422Y-109905725D01*
X160507444Y-110155738D01*
X160507445Y-110155740D01*
X160605840Y-110393287D01*
X160689429Y-110529692D01*
X160740185Y-110612517D01*
X160740186Y-110612519D01*
X160907168Y-110808031D01*
X161102680Y-110975013D01*
X161102684Y-110975016D01*
X161321913Y-111109360D01*
X161559460Y-111207755D01*
X161809474Y-111267778D01*
X162065800Y-111287951D01*
X162322126Y-111267778D01*
X162572140Y-111207755D01*
X162809687Y-111109360D01*
X163028916Y-110975016D01*
X163224431Y-110808031D01*
X163391416Y-110612516D01*
X163525760Y-110393287D01*
X163624155Y-110155740D01*
X163684178Y-109905726D01*
X163704351Y-109649400D01*
X165507249Y-109649400D01*
X165509416Y-109676941D01*
X165527422Y-109905725D01*
X165587444Y-110155738D01*
X165587445Y-110155740D01*
X165685840Y-110393287D01*
X165769429Y-110529692D01*
X165820185Y-110612517D01*
X165820186Y-110612519D01*
X165987168Y-110808031D01*
X166182680Y-110975013D01*
X166182684Y-110975016D01*
X166401913Y-111109360D01*
X166639460Y-111207755D01*
X166889474Y-111267778D01*
X167145800Y-111287951D01*
X167402126Y-111267778D01*
X167652140Y-111207755D01*
X167889687Y-111109360D01*
X168108916Y-110975016D01*
X168304431Y-110808031D01*
X168471416Y-110612516D01*
X168605760Y-110393287D01*
X168704155Y-110155740D01*
X168764178Y-109905726D01*
X168784351Y-109649400D01*
X168764178Y-109393074D01*
X168704155Y-109143060D01*
X168605760Y-108905513D01*
X168471416Y-108686284D01*
X168471413Y-108686280D01*
X168304431Y-108490768D01*
X168108919Y-108323786D01*
X168108917Y-108323785D01*
X168108916Y-108323784D01*
X167889687Y-108189440D01*
X167652140Y-108091045D01*
X167652138Y-108091044D01*
X167473748Y-108048217D01*
X167402126Y-108031022D01*
X167145800Y-108010849D01*
X166889474Y-108031022D01*
X166639461Y-108091044D01*
X166401914Y-108189439D01*
X166182682Y-108323785D01*
X166182680Y-108323786D01*
X165987168Y-108490768D01*
X165820186Y-108686280D01*
X165820185Y-108686282D01*
X165685839Y-108905514D01*
X165587444Y-109143061D01*
X165572291Y-109206179D01*
X165527422Y-109393074D01*
X165507249Y-109649400D01*
X163704351Y-109649400D01*
X163684178Y-109393074D01*
X163624155Y-109143060D01*
X163525760Y-108905513D01*
X163391416Y-108686284D01*
X163391413Y-108686280D01*
X163224431Y-108490768D01*
X163028919Y-108323786D01*
X163028917Y-108323785D01*
X163028916Y-108323784D01*
X162809687Y-108189440D01*
X162572140Y-108091045D01*
X162572138Y-108091044D01*
X162393748Y-108048217D01*
X162322126Y-108031022D01*
X162065800Y-108010849D01*
X161809474Y-108031022D01*
X161559461Y-108091044D01*
X161321914Y-108189439D01*
X161102682Y-108323785D01*
X161102680Y-108323786D01*
X160907168Y-108490768D01*
X160740186Y-108686280D01*
X160740185Y-108686282D01*
X160605839Y-108905514D01*
X160507444Y-109143061D01*
X160492291Y-109206179D01*
X160447422Y-109393074D01*
X160427249Y-109649400D01*
X139934531Y-109649400D01*
X141535719Y-108048212D01*
X141548178Y-108038233D01*
X141547992Y-108038008D01*
X141554098Y-108032955D01*
X141554103Y-108032953D01*
X141601579Y-107982394D01*
X141602894Y-107981037D01*
X141623439Y-107960494D01*
X141627757Y-107954925D01*
X141631601Y-107950424D01*
X141664017Y-107915906D01*
X141673825Y-107898063D01*
X141684673Y-107881550D01*
X141697150Y-107865466D01*
X141715951Y-107822015D01*
X141718561Y-107816689D01*
X141719782Y-107814466D01*
X141741369Y-107775203D01*
X141746430Y-107755487D01*
X141752831Y-107736791D01*
X141760917Y-107718108D01*
X141768322Y-107671351D01*
X141769527Y-107665532D01*
X141781299Y-107619688D01*
X141781300Y-107619681D01*
X141781300Y-107599333D01*
X141782851Y-107579622D01*
X141786035Y-107559520D01*
X141781580Y-107512387D01*
X141781300Y-107506454D01*
X141781300Y-106754822D01*
X141801302Y-106686701D01*
X141818205Y-106665727D01*
X142969127Y-105514805D01*
X143031439Y-105480779D01*
X143058222Y-105477900D01*
X143111287Y-105477900D01*
X143298088Y-105438194D01*
X143472552Y-105360518D01*
X143627053Y-105248266D01*
X143715066Y-105150518D01*
X143754834Y-105106351D01*
X143754835Y-105106349D01*
X143754840Y-105106344D01*
X143850327Y-104940956D01*
X143909342Y-104759328D01*
X143929304Y-104569400D01*
X143909342Y-104379472D01*
X143902820Y-104359399D01*
X147462296Y-104359399D01*
X147482257Y-104549327D01*
X147512326Y-104641870D01*
X147541273Y-104730956D01*
X147541276Y-104730961D01*
X147636758Y-104896341D01*
X147636765Y-104896351D01*
X147764544Y-105038264D01*
X147764547Y-105038266D01*
X147919048Y-105150518D01*
X148093512Y-105228194D01*
X148280313Y-105267900D01*
X148471287Y-105267900D01*
X148658088Y-105228194D01*
X148832552Y-105150518D01*
X148987053Y-105038266D01*
X148987055Y-105038264D01*
X149114834Y-104896351D01*
X149114835Y-104896349D01*
X149114840Y-104896344D01*
X149210327Y-104730956D01*
X149269342Y-104549328D01*
X149289304Y-104359400D01*
X149269342Y-104169472D01*
X149210327Y-103987844D01*
X149114840Y-103822456D01*
X149114838Y-103822454D01*
X149114834Y-103822448D01*
X148987055Y-103680535D01*
X148832552Y-103568282D01*
X148658088Y-103490606D01*
X148471287Y-103450900D01*
X148280313Y-103450900D01*
X148093511Y-103490606D01*
X147919047Y-103568282D01*
X147764544Y-103680535D01*
X147636765Y-103822448D01*
X147636758Y-103822458D01*
X147541276Y-103987838D01*
X147541273Y-103987845D01*
X147482257Y-104169472D01*
X147462296Y-104359399D01*
X143902820Y-104359399D01*
X143850327Y-104197844D01*
X143754840Y-104032456D01*
X143754838Y-104032454D01*
X143754834Y-104032448D01*
X143627055Y-103890535D01*
X143472552Y-103778282D01*
X143298088Y-103700606D01*
X143111287Y-103660900D01*
X142920313Y-103660900D01*
X142733511Y-103700606D01*
X142559047Y-103778282D01*
X142404544Y-103890535D01*
X142276765Y-104032448D01*
X142276758Y-104032458D01*
X142181276Y-104197838D01*
X142181272Y-104197846D01*
X142176878Y-104211370D01*
X142136803Y-104269974D01*
X142071405Y-104297609D01*
X142001449Y-104285501D01*
X141949144Y-104237493D01*
X141937213Y-104211367D01*
X141932820Y-104197846D01*
X141900327Y-104097844D01*
X141804840Y-103932456D01*
X141804838Y-103932454D01*
X141804834Y-103932448D01*
X141677055Y-103790535D01*
X141522552Y-103678282D01*
X141348088Y-103600606D01*
X141161287Y-103560900D01*
X140970313Y-103560900D01*
X140783511Y-103600606D01*
X140609047Y-103678282D01*
X140454544Y-103790535D01*
X140326765Y-103932448D01*
X140326758Y-103932458D01*
X140231276Y-104097838D01*
X140231273Y-104097845D01*
X140172257Y-104279472D01*
X140152296Y-104469400D01*
X140172257Y-104659327D01*
X140195533Y-104730961D01*
X140231273Y-104840956D01*
X140231276Y-104840961D01*
X140326758Y-105006341D01*
X140326765Y-105006351D01*
X140454544Y-105148264D01*
X140515799Y-105192768D01*
X140609048Y-105260518D01*
X140783512Y-105338194D01*
X140970313Y-105377900D01*
X141004376Y-105377900D01*
X141072497Y-105397902D01*
X141118990Y-105451558D01*
X141129094Y-105521832D01*
X141099600Y-105586412D01*
X141093484Y-105592981D01*
X140755876Y-105930589D01*
X140755877Y-105930589D01*
X140743416Y-105940573D01*
X140743601Y-105940797D01*
X140737500Y-105945843D01*
X140690051Y-105996370D01*
X140688677Y-105997788D01*
X140668159Y-106018307D01*
X140668153Y-106018314D01*
X140663832Y-106023883D01*
X140659985Y-106028387D01*
X140627585Y-106062890D01*
X140627584Y-106062892D01*
X140617776Y-106080732D01*
X140606924Y-106097250D01*
X140594454Y-106113325D01*
X140594450Y-106113332D01*
X140575643Y-106156788D01*
X140573033Y-106162116D01*
X140550233Y-106203591D01*
X140550230Y-106203599D01*
X140545170Y-106223307D01*
X140538768Y-106242007D01*
X140530682Y-106260693D01*
X140530681Y-106260697D01*
X140523276Y-106307451D01*
X140522072Y-106313265D01*
X140510300Y-106359117D01*
X140510300Y-106379465D01*
X140508749Y-106399175D01*
X140505565Y-106419278D01*
X140505565Y-106419279D01*
X140510020Y-106466410D01*
X140510300Y-106472343D01*
X140510300Y-107223976D01*
X140490298Y-107292097D01*
X140473395Y-107313071D01*
X120065877Y-127720588D01*
X120053416Y-127730573D01*
X120053601Y-127730797D01*
X120047500Y-127735843D01*
X120000051Y-127786370D01*
X119998677Y-127787788D01*
X119978159Y-127808307D01*
X119978153Y-127808314D01*
X119973832Y-127813883D01*
X119969985Y-127818387D01*
X119937585Y-127852890D01*
X119937584Y-127852892D01*
X119927776Y-127870732D01*
X119916924Y-127887250D01*
X119904454Y-127903325D01*
X119904450Y-127903332D01*
X119885643Y-127946788D01*
X119883033Y-127952116D01*
X119860233Y-127993591D01*
X119860230Y-127993599D01*
X119855170Y-128013307D01*
X119848768Y-128032007D01*
X119840682Y-128050693D01*
X119840681Y-128050697D01*
X119833276Y-128097451D01*
X119832072Y-128103265D01*
X119820300Y-128149117D01*
X119820300Y-128169465D01*
X119818749Y-128189175D01*
X119815565Y-128209278D01*
X119815564Y-128209281D01*
X119815787Y-128211631D01*
X119815433Y-128213453D01*
X119815316Y-128217203D01*
X119814711Y-128217183D01*
X119802283Y-128281332D01*
X119783983Y-128307797D01*
X119716761Y-128382454D01*
X119716758Y-128382458D01*
X119621276Y-128547838D01*
X119621273Y-128547845D01*
X119562257Y-128729472D01*
X119542296Y-128919400D01*
X115746534Y-128919400D01*
X115746413Y-112239399D01*
X123612244Y-112239399D01*
X123632449Y-112599200D01*
X123692813Y-112954476D01*
X123792579Y-113300774D01*
X123909775Y-113583710D01*
X123930486Y-113633710D01*
X123930493Y-113633722D01*
X124104799Y-113949107D01*
X124104801Y-113949110D01*
X124104804Y-113949115D01*
X124313341Y-114243019D01*
X124553473Y-114511727D01*
X124822181Y-114751859D01*
X125116085Y-114960396D01*
X125431490Y-115134714D01*
X125764430Y-115272622D01*
X126110717Y-115372385D01*
X126465996Y-115432750D01*
X126825800Y-115452956D01*
X127185604Y-115432750D01*
X127540883Y-115372385D01*
X127887170Y-115272622D01*
X128220110Y-115134714D01*
X128535515Y-114960396D01*
X128829419Y-114751859D01*
X129098127Y-114511727D01*
X129338259Y-114243019D01*
X129546796Y-113949115D01*
X129721114Y-113633710D01*
X129859022Y-113300770D01*
X129958785Y-112954483D01*
X130019150Y-112599204D01*
X130039356Y-112239400D01*
X130019150Y-111879596D01*
X129958785Y-111524317D01*
X129859022Y-111178030D01*
X129721114Y-110845090D01*
X129546796Y-110529685D01*
X129338259Y-110235781D01*
X129098127Y-109967073D01*
X128829419Y-109726941D01*
X128535515Y-109518404D01*
X128535510Y-109518401D01*
X128535507Y-109518399D01*
X128308747Y-109393074D01*
X128220110Y-109344086D01*
X128220103Y-109344083D01*
X128220099Y-109344081D01*
X127887174Y-109206179D01*
X127540876Y-109106413D01*
X127185600Y-109046049D01*
X126850098Y-109027208D01*
X126825800Y-109025844D01*
X126825799Y-109025844D01*
X126465999Y-109046049D01*
X126110723Y-109106413D01*
X125764425Y-109206179D01*
X125431500Y-109344081D01*
X125431477Y-109344093D01*
X125116092Y-109518399D01*
X124822177Y-109726944D01*
X124553473Y-109967073D01*
X124313344Y-110235777D01*
X124104799Y-110529692D01*
X123930493Y-110845077D01*
X123930481Y-110845100D01*
X123792579Y-111178025D01*
X123692813Y-111524323D01*
X123632449Y-111879599D01*
X123612244Y-112239399D01*
X115746413Y-112239399D01*
X115746348Y-103370724D01*
X143912296Y-103370724D01*
X143932257Y-103560652D01*
X143962326Y-103653195D01*
X143991273Y-103742281D01*
X143991276Y-103742286D01*
X144086758Y-103907666D01*
X144086765Y-103907676D01*
X144214544Y-104049589D01*
X144214547Y-104049591D01*
X144369048Y-104161843D01*
X144543512Y-104239519D01*
X144730313Y-104279225D01*
X144921287Y-104279225D01*
X145108088Y-104239519D01*
X145282552Y-104161843D01*
X145437053Y-104049591D01*
X145452480Y-104032458D01*
X145564834Y-103907676D01*
X145564835Y-103907674D01*
X145564840Y-103907669D01*
X145660327Y-103742281D01*
X145719342Y-103560653D01*
X145739304Y-103370725D01*
X145719342Y-103180797D01*
X145660327Y-102999169D01*
X145564840Y-102833781D01*
X145564838Y-102833779D01*
X145564834Y-102833773D01*
X145437055Y-102691860D01*
X145282552Y-102579607D01*
X145108088Y-102501931D01*
X144921287Y-102462225D01*
X144730313Y-102462225D01*
X144543511Y-102501931D01*
X144369047Y-102579607D01*
X144214544Y-102691860D01*
X144086765Y-102833773D01*
X144086758Y-102833783D01*
X143991276Y-102999163D01*
X143991273Y-102999170D01*
X143932257Y-103180797D01*
X143912296Y-103370724D01*
X115746348Y-103370724D01*
X115746325Y-100149400D01*
X146302296Y-100149400D01*
X146322257Y-100339327D01*
X146352326Y-100431870D01*
X146381273Y-100520956D01*
X146381276Y-100520961D01*
X146476758Y-100686341D01*
X146476765Y-100686351D01*
X146604544Y-100828264D01*
X146604547Y-100828266D01*
X146759048Y-100940518D01*
X146933512Y-101018194D01*
X147120313Y-101057900D01*
X147311287Y-101057900D01*
X147498088Y-101018194D01*
X147672552Y-100940518D01*
X147827053Y-100828266D01*
X147954840Y-100686344D01*
X148050327Y-100520956D01*
X148109342Y-100339328D01*
X148129304Y-100149400D01*
X148109342Y-99959472D01*
X148050327Y-99777844D01*
X147954840Y-99612456D01*
X147954838Y-99612454D01*
X147954834Y-99612448D01*
X147827055Y-99470535D01*
X147672552Y-99358282D01*
X147498088Y-99280606D01*
X147311287Y-99240900D01*
X147120313Y-99240900D01*
X146933511Y-99280606D01*
X146759047Y-99358282D01*
X146604544Y-99470535D01*
X146476765Y-99612448D01*
X146476758Y-99612458D01*
X146381276Y-99777838D01*
X146381273Y-99777845D01*
X146322257Y-99959472D01*
X146302296Y-100149400D01*
X115746325Y-100149400D01*
X115746309Y-97979400D01*
X132662296Y-97979400D01*
X132682257Y-98169327D01*
X132695255Y-98209328D01*
X132741273Y-98350956D01*
X132741276Y-98350961D01*
X132836758Y-98516341D01*
X132836765Y-98516351D01*
X132964544Y-98658264D01*
X132964547Y-98658266D01*
X133119048Y-98770518D01*
X133293512Y-98848194D01*
X133480313Y-98887900D01*
X133671287Y-98887900D01*
X133858088Y-98848194D01*
X134032552Y-98770518D01*
X134187053Y-98658266D01*
X134314840Y-98516344D01*
X134410327Y-98350956D01*
X134469342Y-98169328D01*
X134485100Y-98019400D01*
X135882296Y-98019400D01*
X135902257Y-98209327D01*
X135932326Y-98301870D01*
X135961273Y-98390956D01*
X135961276Y-98390961D01*
X136056758Y-98556341D01*
X136056765Y-98556351D01*
X136184544Y-98698264D01*
X136184547Y-98698266D01*
X136339048Y-98810518D01*
X136513512Y-98888194D01*
X136700313Y-98927900D01*
X136891287Y-98927900D01*
X137078088Y-98888194D01*
X137252552Y-98810518D01*
X137407053Y-98698266D01*
X137534840Y-98556344D01*
X137630327Y-98390956D01*
X137689342Y-98209328D01*
X137709304Y-98019400D01*
X137689342Y-97829472D01*
X137630327Y-97647844D01*
X137534840Y-97482456D01*
X137534838Y-97482454D01*
X137534834Y-97482448D01*
X137407055Y-97340535D01*
X137252552Y-97228282D01*
X137078088Y-97150606D01*
X136891287Y-97110900D01*
X136700313Y-97110900D01*
X136513511Y-97150606D01*
X136339047Y-97228282D01*
X136184544Y-97340535D01*
X136056765Y-97482448D01*
X136056758Y-97482458D01*
X135961276Y-97647838D01*
X135961273Y-97647845D01*
X135902257Y-97829472D01*
X135882296Y-98019400D01*
X134485100Y-98019400D01*
X134489304Y-97979400D01*
X134469342Y-97789472D01*
X134410327Y-97607844D01*
X134314840Y-97442456D01*
X134314838Y-97442454D01*
X134314834Y-97442448D01*
X134187055Y-97300535D01*
X134032552Y-97188282D01*
X133858088Y-97110606D01*
X133671287Y-97070900D01*
X133480313Y-97070900D01*
X133293511Y-97110606D01*
X133119047Y-97188282D01*
X132964544Y-97300535D01*
X132836765Y-97442448D01*
X132836758Y-97442458D01*
X132741276Y-97607838D01*
X132741273Y-97607845D01*
X132682257Y-97789472D01*
X132662296Y-97979400D01*
X115746309Y-97979400D01*
X115746301Y-96845484D01*
X115766303Y-96777365D01*
X115819958Y-96730872D01*
X115890232Y-96720767D01*
X115919130Y-96728511D01*
X116076944Y-96791690D01*
X116076947Y-96791691D01*
X116285569Y-96831900D01*
X116285573Y-96831900D01*
X117652788Y-96831900D01*
X117652790Y-96831900D01*
X117811300Y-96816764D01*
X118015155Y-96756907D01*
X118203999Y-96659551D01*
X118371005Y-96528216D01*
X118510138Y-96367648D01*
X118616368Y-96183651D01*
X118685858Y-95982875D01*
X118716094Y-95772576D01*
X118710407Y-95653180D01*
X118705986Y-95560365D01*
X118705985Y-95560360D01*
X118705985Y-95560355D01*
X118655895Y-95353882D01*
X118655892Y-95353877D01*
X118655892Y-95353874D01*
X118567636Y-95160623D01*
X118567635Y-95160620D01*
X118567632Y-95160616D01*
X118567630Y-95160612D01*
X118566766Y-95159399D01*
X180832296Y-95159399D01*
X180852257Y-95349327D01*
X180882326Y-95441870D01*
X180911273Y-95530956D01*
X180911276Y-95530961D01*
X181006758Y-95696341D01*
X181006765Y-95696351D01*
X181134544Y-95838264D01*
X181134547Y-95838266D01*
X181289048Y-95950518D01*
X181463512Y-96028194D01*
X181650313Y-96067900D01*
X181841287Y-96067900D01*
X182028088Y-96028194D01*
X182202552Y-95950518D01*
X182357053Y-95838266D01*
X182367881Y-95826240D01*
X182484834Y-95696351D01*
X182484835Y-95696349D01*
X182484840Y-95696344D01*
X182580327Y-95530956D01*
X182639342Y-95349328D01*
X182646692Y-95279400D01*
X183312296Y-95279400D01*
X183332257Y-95469327D01*
X183352282Y-95530956D01*
X183391273Y-95650956D01*
X183391276Y-95650961D01*
X183486758Y-95816341D01*
X183486765Y-95816351D01*
X183614544Y-95958264D01*
X183614547Y-95958266D01*
X183769048Y-96070518D01*
X183943512Y-96148194D01*
X184130313Y-96187900D01*
X184321287Y-96187900D01*
X184508088Y-96148194D01*
X184682552Y-96070518D01*
X184837053Y-95958266D01*
X184837055Y-95958264D01*
X184964834Y-95816351D01*
X184964835Y-95816349D01*
X184964840Y-95816344D01*
X185060327Y-95650956D01*
X185119342Y-95469328D01*
X185139304Y-95279400D01*
X185119342Y-95089472D01*
X185060327Y-94907844D01*
X184964840Y-94742456D01*
X184964838Y-94742454D01*
X184964834Y-94742448D01*
X184837055Y-94600535D01*
X184682552Y-94488282D01*
X184508088Y-94410606D01*
X184321287Y-94370900D01*
X184130313Y-94370900D01*
X183943511Y-94410606D01*
X183769047Y-94488282D01*
X183614544Y-94600535D01*
X183486765Y-94742448D01*
X183486758Y-94742458D01*
X183391276Y-94907838D01*
X183391273Y-94907845D01*
X183332257Y-95089472D01*
X183312296Y-95279400D01*
X182646692Y-95279400D01*
X182659304Y-95159400D01*
X182639342Y-94969472D01*
X182580327Y-94787844D01*
X182484840Y-94622456D01*
X182484838Y-94622454D01*
X182484834Y-94622448D01*
X182357055Y-94480535D01*
X182202552Y-94368282D01*
X182028088Y-94290606D01*
X181841287Y-94250900D01*
X181650313Y-94250900D01*
X181463511Y-94290606D01*
X181289047Y-94368282D01*
X181134544Y-94480535D01*
X181006765Y-94622448D01*
X181006758Y-94622458D01*
X180911276Y-94787838D01*
X180911273Y-94787845D01*
X180852257Y-94969472D01*
X180832296Y-95159399D01*
X118566766Y-95159399D01*
X118444399Y-94987559D01*
X118444392Y-94987551D01*
X118290630Y-94840939D01*
X118111896Y-94726073D01*
X117991565Y-94677900D01*
X117914653Y-94647109D01*
X117914652Y-94647108D01*
X117914650Y-94647108D01*
X117706035Y-94606900D01*
X117706031Y-94606900D01*
X117395600Y-94606900D01*
X117327479Y-94586898D01*
X117280986Y-94533242D01*
X117270882Y-94462968D01*
X117282078Y-94426231D01*
X117292070Y-94405482D01*
X117313681Y-94360606D01*
X117346300Y-94217694D01*
X117346300Y-94071106D01*
X117313681Y-93928194D01*
X117250079Y-93796123D01*
X117228768Y-93769400D01*
X120792296Y-93769400D01*
X120812257Y-93959327D01*
X120831858Y-94019650D01*
X120871273Y-94140956D01*
X120871276Y-94140961D01*
X120966758Y-94306341D01*
X120966765Y-94306351D01*
X121094544Y-94448264D01*
X121094547Y-94448266D01*
X121249048Y-94560518D01*
X121423512Y-94638194D01*
X121610313Y-94677900D01*
X121801287Y-94677900D01*
X121988088Y-94638194D01*
X122162552Y-94560518D01*
X122317053Y-94448266D01*
X122318956Y-94446153D01*
X122444834Y-94306351D01*
X122444835Y-94306349D01*
X122444840Y-94306344D01*
X122540327Y-94140956D01*
X122599342Y-93959328D01*
X122619304Y-93769400D01*
X122599342Y-93579472D01*
X122540327Y-93397844D01*
X122444840Y-93232456D01*
X122444838Y-93232454D01*
X122444834Y-93232448D01*
X122325486Y-93099899D01*
X208412296Y-93099899D01*
X208432257Y-93289827D01*
X208444749Y-93328272D01*
X208491273Y-93471456D01*
X208491276Y-93471461D01*
X208586758Y-93636841D01*
X208586765Y-93636851D01*
X208714544Y-93778764D01*
X208738442Y-93796127D01*
X208869048Y-93891018D01*
X209043512Y-93968694D01*
X209230313Y-94008400D01*
X209421287Y-94008400D01*
X209608088Y-93968694D01*
X209782552Y-93891018D01*
X209937053Y-93778766D01*
X209945486Y-93769400D01*
X210064834Y-93636851D01*
X210064835Y-93636849D01*
X210064840Y-93636844D01*
X210160327Y-93471456D01*
X210219342Y-93289828D01*
X210239304Y-93099900D01*
X210219342Y-92909972D01*
X210160327Y-92728344D01*
X210064840Y-92562956D01*
X210064838Y-92562954D01*
X210064834Y-92562948D01*
X209937055Y-92421035D01*
X209782552Y-92308782D01*
X209608088Y-92231106D01*
X209421287Y-92191400D01*
X209230313Y-92191400D01*
X209043511Y-92231106D01*
X208869047Y-92308782D01*
X208714544Y-92421035D01*
X208586765Y-92562948D01*
X208586758Y-92562958D01*
X208491276Y-92728338D01*
X208491273Y-92728345D01*
X208432257Y-92909972D01*
X208412296Y-93099899D01*
X122325486Y-93099899D01*
X122317055Y-93090535D01*
X122162552Y-92978282D01*
X121988088Y-92900606D01*
X121801287Y-92860900D01*
X121610313Y-92860900D01*
X121423511Y-92900606D01*
X121249047Y-92978282D01*
X121094544Y-93090535D01*
X120966765Y-93232448D01*
X120966758Y-93232458D01*
X120873117Y-93394650D01*
X120871273Y-93397844D01*
X120859365Y-93434494D01*
X120812257Y-93579472D01*
X120792296Y-93769400D01*
X117228768Y-93769400D01*
X117158683Y-93681517D01*
X117044077Y-93590121D01*
X117044075Y-93590120D01*
X117044074Y-93590119D01*
X117044072Y-93590118D01*
X116912010Y-93526521D01*
X116912006Y-93526519D01*
X116769094Y-93493900D01*
X116769091Y-93493900D01*
X116077325Y-93493900D01*
X116047768Y-93490384D01*
X115989744Y-93476382D01*
X115959034Y-93464550D01*
X115903850Y-93434494D01*
X115877250Y-93415112D01*
X115831728Y-93371786D01*
X115811055Y-93346175D01*
X115778307Y-93292538D01*
X115764973Y-93262451D01*
X115747231Y-93202164D01*
X115742142Y-93169651D01*
X115740547Y-93103868D01*
X115740926Y-93095273D01*
X115741355Y-93091465D01*
X115741357Y-93091460D01*
X115741357Y-93082949D01*
X115741716Y-93076233D01*
X115742401Y-93069835D01*
X115744465Y-93050575D01*
X115744463Y-93050569D01*
X115743354Y-93038215D01*
X115743705Y-93038183D01*
X115741357Y-93021864D01*
X115741357Y-91954400D01*
X123857280Y-91954400D01*
X123877241Y-92144327D01*
X123905438Y-92231106D01*
X123936257Y-92325956D01*
X123936260Y-92325961D01*
X124031742Y-92491341D01*
X124031749Y-92491351D01*
X124159528Y-92633264D01*
X124173292Y-92643264D01*
X124314032Y-92745518D01*
X124488496Y-92823194D01*
X124675297Y-92862900D01*
X124866271Y-92862900D01*
X125053072Y-92823194D01*
X125227536Y-92745518D01*
X125382037Y-92633266D01*
X125445343Y-92562958D01*
X125509818Y-92491351D01*
X125509819Y-92491349D01*
X125509824Y-92491344D01*
X125605311Y-92325956D01*
X125664326Y-92144328D01*
X125683237Y-91964400D01*
X206231468Y-91964400D01*
X206251429Y-92154327D01*
X206276377Y-92231106D01*
X206310445Y-92335956D01*
X206310448Y-92335961D01*
X206405930Y-92501341D01*
X206405937Y-92501351D01*
X206533716Y-92643264D01*
X206548321Y-92653875D01*
X206688220Y-92755518D01*
X206862684Y-92833194D01*
X207049485Y-92872900D01*
X207240459Y-92872900D01*
X207427260Y-92833194D01*
X207601724Y-92755518D01*
X207756225Y-92643266D01*
X207828535Y-92562958D01*
X207884006Y-92501351D01*
X207884007Y-92501349D01*
X207884012Y-92501344D01*
X207979499Y-92335956D01*
X208038514Y-92154328D01*
X208058476Y-91964400D01*
X208038514Y-91774472D01*
X207979499Y-91592844D01*
X207979497Y-91592840D01*
X207979497Y-91592839D01*
X207927281Y-91502399D01*
X207910543Y-91433404D01*
X207927281Y-91376399D01*
X207979499Y-91285956D01*
X208038514Y-91104328D01*
X208058476Y-90914400D01*
X208038514Y-90724472D01*
X207979499Y-90542844D01*
X207884012Y-90377456D01*
X207884010Y-90377454D01*
X207884006Y-90377448D01*
X207756227Y-90235535D01*
X207601724Y-90123282D01*
X207427260Y-90045606D01*
X207240459Y-90005900D01*
X207049485Y-90005900D01*
X206862683Y-90045606D01*
X206688219Y-90123282D01*
X206533716Y-90235535D01*
X206405937Y-90377448D01*
X206405930Y-90377458D01*
X206310448Y-90542838D01*
X206310445Y-90542845D01*
X206251429Y-90724472D01*
X206231468Y-90914399D01*
X206251429Y-91104327D01*
X206271962Y-91167520D01*
X206310445Y-91285956D01*
X206310448Y-91285961D01*
X206362662Y-91376399D01*
X206379400Y-91445394D01*
X206362663Y-91502398D01*
X206310446Y-91592840D01*
X206310445Y-91592843D01*
X206310445Y-91592844D01*
X206309414Y-91596017D01*
X206251429Y-91774472D01*
X206231468Y-91964400D01*
X125683237Y-91964400D01*
X125684288Y-91954400D01*
X125664326Y-91764472D01*
X125605311Y-91582844D01*
X125605310Y-91582842D01*
X125605309Y-91582839D01*
X125553093Y-91492399D01*
X125536355Y-91423404D01*
X125553092Y-91366400D01*
X125605311Y-91275956D01*
X125664326Y-91094328D01*
X125684288Y-90904400D01*
X125664326Y-90714472D01*
X125605311Y-90532844D01*
X125509824Y-90367456D01*
X125509822Y-90367454D01*
X125509818Y-90367448D01*
X125382039Y-90225535D01*
X125227536Y-90113282D01*
X125053072Y-90035606D01*
X124866271Y-89995900D01*
X124675297Y-89995900D01*
X124488495Y-90035606D01*
X124314031Y-90113282D01*
X124159528Y-90225535D01*
X124031749Y-90367448D01*
X124031742Y-90367458D01*
X123936260Y-90532838D01*
X123936257Y-90532844D01*
X123921783Y-90577386D01*
X123877241Y-90714472D01*
X123857280Y-90904399D01*
X123877241Y-91094327D01*
X123907310Y-91186870D01*
X123936257Y-91275956D01*
X123936257Y-91275957D01*
X123936258Y-91275958D01*
X123988475Y-91366401D01*
X124005212Y-91435396D01*
X123988475Y-91492399D01*
X123936258Y-91582841D01*
X123936257Y-91582843D01*
X123936257Y-91582844D01*
X123931977Y-91596016D01*
X123877241Y-91764472D01*
X123857280Y-91954400D01*
X115741357Y-91954400D01*
X115741357Y-91769323D01*
X115741360Y-91768610D01*
X115745024Y-90804899D01*
X121072296Y-90804899D01*
X121092257Y-90994826D01*
X121122326Y-91087369D01*
X121151273Y-91176455D01*
X121151276Y-91176460D01*
X121246758Y-91341840D01*
X121246765Y-91341850D01*
X121374544Y-91483763D01*
X121400193Y-91502398D01*
X121529048Y-91596017D01*
X121703512Y-91673693D01*
X121890313Y-91713399D01*
X122081287Y-91713399D01*
X122268088Y-91673693D01*
X122442552Y-91596017D01*
X122597053Y-91483765D01*
X122597055Y-91483763D01*
X122724834Y-91341850D01*
X122724835Y-91341848D01*
X122724840Y-91341843D01*
X122820327Y-91176455D01*
X122879342Y-90994827D01*
X122899304Y-90804899D01*
X122879342Y-90614971D01*
X122820327Y-90433343D01*
X122724840Y-90267955D01*
X122724838Y-90267953D01*
X122724834Y-90267947D01*
X122597055Y-90126034D01*
X122442552Y-90013781D01*
X122268088Y-89936105D01*
X122081287Y-89896399D01*
X121890313Y-89896399D01*
X121703511Y-89936105D01*
X121529047Y-90013781D01*
X121374544Y-90126034D01*
X121246765Y-90267947D01*
X121246758Y-90267957D01*
X121151276Y-90433337D01*
X121151273Y-90433343D01*
X121144048Y-90455579D01*
X121092257Y-90614971D01*
X121072296Y-90804899D01*
X115745024Y-90804899D01*
X115746120Y-90516541D01*
X115748523Y-90500090D01*
X115748295Y-90500070D01*
X115749405Y-90487708D01*
X115749407Y-90487704D01*
X115746710Y-90462527D01*
X115746353Y-90455603D01*
X115746384Y-90447573D01*
X115746383Y-90447568D01*
X115745846Y-90442634D01*
X115745495Y-90434279D01*
X115746875Y-90377456D01*
X115747089Y-90368633D01*
X115752177Y-90336131D01*
X115769922Y-90275842D01*
X115783255Y-90245762D01*
X115816009Y-90192125D01*
X115836673Y-90166529D01*
X115882198Y-90123206D01*
X115908794Y-90103829D01*
X115963979Y-90073778D01*
X115994686Y-90061949D01*
X116024451Y-90054769D01*
X116050803Y-90048413D01*
X116080349Y-90044900D01*
X116769091Y-90044900D01*
X116769094Y-90044900D01*
X116912006Y-90012281D01*
X117044077Y-89948679D01*
X117158683Y-89857283D01*
X117250079Y-89742677D01*
X117313681Y-89610606D01*
X117313956Y-89609400D01*
X208262296Y-89609400D01*
X208282257Y-89799327D01*
X208304290Y-89867136D01*
X208341273Y-89980956D01*
X208359357Y-90012278D01*
X208436758Y-90146341D01*
X208436765Y-90146351D01*
X208564544Y-90288264D01*
X208564547Y-90288266D01*
X208719048Y-90400518D01*
X208893512Y-90478194D01*
X209080313Y-90517900D01*
X209271287Y-90517900D01*
X209458088Y-90478194D01*
X209632552Y-90400518D01*
X209787053Y-90288266D01*
X209805341Y-90267955D01*
X209914834Y-90146351D01*
X209914835Y-90146349D01*
X209914840Y-90146344D01*
X210010327Y-89980956D01*
X210069342Y-89799328D01*
X210089304Y-89609400D01*
X210069342Y-89419472D01*
X210010327Y-89237844D01*
X209914840Y-89072456D01*
X209914838Y-89072454D01*
X209914834Y-89072448D01*
X209787055Y-88930535D01*
X209632552Y-88818282D01*
X209458088Y-88740606D01*
X209271287Y-88700900D01*
X209080313Y-88700900D01*
X208893511Y-88740606D01*
X208719047Y-88818282D01*
X208564544Y-88930535D01*
X208436765Y-89072448D01*
X208436758Y-89072458D01*
X208341276Y-89237838D01*
X208341273Y-89237845D01*
X208282257Y-89419472D01*
X208262296Y-89609400D01*
X117313956Y-89609400D01*
X117346300Y-89467694D01*
X117346300Y-89321106D01*
X117313681Y-89178194D01*
X117282078Y-89112569D01*
X117270543Y-89042516D01*
X117298713Y-88977347D01*
X117357643Y-88937753D01*
X117395600Y-88931900D01*
X117652788Y-88931900D01*
X117652790Y-88931900D01*
X117811300Y-88916764D01*
X118015155Y-88856907D01*
X118203999Y-88759551D01*
X118371005Y-88628216D01*
X118510138Y-88467648D01*
X118616368Y-88283651D01*
X118685858Y-88082875D01*
X118711405Y-87905188D01*
X118716094Y-87872577D01*
X118705986Y-87660365D01*
X118705985Y-87660360D01*
X118705985Y-87660355D01*
X118655895Y-87453882D01*
X118655892Y-87453877D01*
X118655892Y-87453874D01*
X118567636Y-87260623D01*
X118567635Y-87260620D01*
X118567632Y-87260616D01*
X118567630Y-87260612D01*
X118444399Y-87087559D01*
X118444392Y-87087551D01*
X118290629Y-86940938D01*
X118171123Y-86864135D01*
X118124631Y-86810479D01*
X118114528Y-86740205D01*
X118144021Y-86675625D01*
X118181505Y-86646147D01*
X118203999Y-86634551D01*
X118371005Y-86503216D01*
X118510138Y-86342648D01*
X118616368Y-86158651D01*
X118685858Y-85957875D01*
X118716094Y-85747576D01*
X118711028Y-85641224D01*
X118705986Y-85535365D01*
X118705985Y-85535360D01*
X118705985Y-85535355D01*
X118655895Y-85328882D01*
X118655892Y-85328877D01*
X118655892Y-85328874D01*
X118567636Y-85135623D01*
X118567635Y-85135620D01*
X118567632Y-85135616D01*
X118567630Y-85135612D01*
X118444399Y-84962559D01*
X118444392Y-84962551D01*
X118290630Y-84815939D01*
X118111896Y-84701073D01*
X118010187Y-84660355D01*
X117914653Y-84622109D01*
X117914652Y-84622108D01*
X117914650Y-84622108D01*
X117706035Y-84581900D01*
X117706031Y-84581900D01*
X117395600Y-84581900D01*
X117327479Y-84561898D01*
X117280986Y-84508242D01*
X117270882Y-84437968D01*
X117282078Y-84401231D01*
X117292070Y-84380482D01*
X117313681Y-84335606D01*
X117346300Y-84192694D01*
X117346300Y-84046106D01*
X117313681Y-83903194D01*
X117250079Y-83771123D01*
X117158683Y-83656517D01*
X117112140Y-83619400D01*
X121622296Y-83619400D01*
X121642257Y-83809327D01*
X121664977Y-83879249D01*
X121701273Y-83990956D01*
X121701276Y-83990961D01*
X121796758Y-84156341D01*
X121796765Y-84156351D01*
X121924544Y-84298264D01*
X121975941Y-84335606D01*
X122079048Y-84410518D01*
X122253512Y-84488194D01*
X122440313Y-84527900D01*
X122631287Y-84527900D01*
X122818088Y-84488194D01*
X122992552Y-84410518D01*
X123147053Y-84298266D01*
X123236850Y-84198536D01*
X123274834Y-84156351D01*
X123274835Y-84156349D01*
X123274840Y-84156344D01*
X123370327Y-83990956D01*
X123429342Y-83809328D01*
X123449304Y-83619400D01*
X123429342Y-83429472D01*
X123370327Y-83247844D01*
X123274840Y-83082456D01*
X123274838Y-83082454D01*
X123274834Y-83082448D01*
X123147055Y-82940535D01*
X122992552Y-82828282D01*
X122818088Y-82750606D01*
X122631287Y-82710900D01*
X122440313Y-82710900D01*
X122253511Y-82750606D01*
X122079047Y-82828282D01*
X121924544Y-82940535D01*
X121796765Y-83082448D01*
X121796758Y-83082458D01*
X121707273Y-83237451D01*
X121701273Y-83247844D01*
X121699476Y-83253374D01*
X121642257Y-83429472D01*
X121622296Y-83619400D01*
X117112140Y-83619400D01*
X117044077Y-83565121D01*
X117044075Y-83565120D01*
X117044074Y-83565119D01*
X117044072Y-83565118D01*
X116912010Y-83501521D01*
X116912006Y-83501519D01*
X116769094Y-83468900D01*
X116769091Y-83468900D01*
X116077325Y-83468900D01*
X116047768Y-83465384D01*
X115989744Y-83451382D01*
X115959034Y-83439550D01*
X115903850Y-83409494D01*
X115877250Y-83390112D01*
X115831728Y-83346786D01*
X115811055Y-83321175D01*
X115778307Y-83267538D01*
X115764973Y-83237451D01*
X115747231Y-83177164D01*
X115742142Y-83144651D01*
X115740547Y-83078868D01*
X115740926Y-83070273D01*
X115741355Y-83066465D01*
X115741357Y-83066460D01*
X115741357Y-83057949D01*
X115741716Y-83051233D01*
X115742401Y-83044835D01*
X115744465Y-83025575D01*
X115744463Y-83025569D01*
X115743354Y-83013215D01*
X115743705Y-83013183D01*
X115741357Y-82996864D01*
X115741357Y-81914399D01*
X123246369Y-81914399D01*
X123266330Y-82104327D01*
X123290831Y-82179730D01*
X123325346Y-82285956D01*
X123325349Y-82285961D01*
X123420831Y-82451341D01*
X123420838Y-82451351D01*
X123548617Y-82593264D01*
X123594389Y-82626519D01*
X123703121Y-82705518D01*
X123877585Y-82783194D01*
X124064386Y-82822900D01*
X124255360Y-82822900D01*
X124442161Y-82783194D01*
X124616625Y-82705518D01*
X124771126Y-82593266D01*
X124785908Y-82576849D01*
X124898907Y-82451351D01*
X124898908Y-82451349D01*
X124898913Y-82451344D01*
X124994400Y-82285956D01*
X125053415Y-82104328D01*
X125073377Y-81914400D01*
X125053415Y-81724472D01*
X124994400Y-81542844D01*
X124942181Y-81452400D01*
X124925444Y-81383406D01*
X124942182Y-81326399D01*
X124994400Y-81235956D01*
X125032272Y-81119400D01*
X187042644Y-81119400D01*
X187058673Y-81312841D01*
X187061237Y-81343775D01*
X187116502Y-81562012D01*
X187116503Y-81562013D01*
X187116504Y-81562016D01*
X187160074Y-81661346D01*
X187206941Y-81768193D01*
X187330075Y-81956665D01*
X187330079Y-81956670D01*
X187482562Y-82122308D01*
X187503646Y-82138718D01*
X187660224Y-82260589D01*
X187858226Y-82367742D01*
X187858227Y-82367742D01*
X187858228Y-82367743D01*
X187970027Y-82406123D01*
X188071165Y-82440844D01*
X188293231Y-82477900D01*
X188293235Y-82477900D01*
X188518365Y-82477900D01*
X188518369Y-82477900D01*
X188740435Y-82440844D01*
X188953374Y-82367742D01*
X189151376Y-82260589D01*
X189329040Y-82122306D01*
X189390045Y-82056037D01*
X189450896Y-82019467D01*
X189521861Y-82021600D01*
X189580406Y-82061762D01*
X189600800Y-82097341D01*
X189644911Y-82215604D01*
X189644912Y-82215607D01*
X189732538Y-82332661D01*
X189849592Y-82420287D01*
X189849594Y-82420288D01*
X189849596Y-82420289D01*
X189904700Y-82440842D01*
X189986595Y-82471388D01*
X189986603Y-82471390D01*
X190047150Y-82477899D01*
X190047155Y-82477899D01*
X190047162Y-82477900D01*
X190047168Y-82477900D01*
X191844432Y-82477900D01*
X191844438Y-82477900D01*
X191844445Y-82477899D01*
X191844449Y-82477899D01*
X191904996Y-82471390D01*
X191904999Y-82471389D01*
X191905001Y-82471389D01*
X192042004Y-82420289D01*
X192078405Y-82393040D01*
X192159061Y-82332661D01*
X192246687Y-82215607D01*
X192246687Y-82215606D01*
X192246689Y-82215604D01*
X192297789Y-82078601D01*
X192299600Y-82061762D01*
X192304299Y-82018049D01*
X192304300Y-82018032D01*
X192304300Y-81684399D01*
X205324338Y-81684399D01*
X205344299Y-81874327D01*
X205357320Y-81914399D01*
X205403315Y-82055956D01*
X205403318Y-82055961D01*
X205498800Y-82221341D01*
X205498807Y-82221351D01*
X205626586Y-82363264D01*
X205648073Y-82378875D01*
X205781090Y-82475518D01*
X205955554Y-82553194D01*
X206142355Y-82592900D01*
X206333329Y-82592900D01*
X206520130Y-82553194D01*
X206694594Y-82475518D01*
X206849095Y-82363266D01*
X206869855Y-82340210D01*
X208588680Y-82340210D01*
X208608641Y-82530138D01*
X208629034Y-82592900D01*
X208667657Y-82711767D01*
X208667660Y-82711772D01*
X208763142Y-82877152D01*
X208763149Y-82877162D01*
X208890928Y-83019075D01*
X208903479Y-83028194D01*
X209045432Y-83131329D01*
X209219896Y-83209005D01*
X209406697Y-83248711D01*
X209597671Y-83248711D01*
X209784472Y-83209005D01*
X209958936Y-83131329D01*
X210113437Y-83019077D01*
X210113439Y-83019075D01*
X210241218Y-82877162D01*
X210241219Y-82877160D01*
X210241224Y-82877155D01*
X210336711Y-82711767D01*
X210395726Y-82530139D01*
X210415688Y-82340211D01*
X210395726Y-82150283D01*
X210336711Y-81968655D01*
X210241224Y-81803267D01*
X210241222Y-81803265D01*
X210241218Y-81803259D01*
X210113439Y-81661346D01*
X209958936Y-81549093D01*
X209784472Y-81471417D01*
X209597671Y-81431711D01*
X209406697Y-81431711D01*
X209219895Y-81471417D01*
X209045431Y-81549093D01*
X208890928Y-81661346D01*
X208763149Y-81803259D01*
X208763142Y-81803269D01*
X208667660Y-81968649D01*
X208667657Y-81968656D01*
X208608641Y-82150283D01*
X208588680Y-82340210D01*
X206869855Y-82340210D01*
X206976882Y-82221344D01*
X207072369Y-82055956D01*
X207131384Y-81874328D01*
X207151346Y-81684400D01*
X207131384Y-81494472D01*
X207072369Y-81312844D01*
X207020149Y-81222397D01*
X207003412Y-81153405D01*
X207020150Y-81096400D01*
X207072369Y-81005956D01*
X207131384Y-80824328D01*
X207151346Y-80634400D01*
X207131384Y-80444472D01*
X207072369Y-80262844D01*
X206976882Y-80097456D01*
X206976880Y-80097454D01*
X206976876Y-80097448D01*
X206849097Y-79955535D01*
X206694594Y-79843282D01*
X206520130Y-79765606D01*
X206333329Y-79725900D01*
X206142355Y-79725900D01*
X205955553Y-79765606D01*
X205781089Y-79843282D01*
X205626586Y-79955535D01*
X205498807Y-80097448D01*
X205498800Y-80097458D01*
X205403318Y-80262838D01*
X205403315Y-80262845D01*
X205344299Y-80444472D01*
X205324338Y-80634399D01*
X205344299Y-80824327D01*
X205358962Y-80869453D01*
X205403315Y-81005956D01*
X205403315Y-81005957D01*
X205403316Y-81005958D01*
X205455533Y-81096401D01*
X205472270Y-81165396D01*
X205455533Y-81222399D01*
X205403316Y-81312841D01*
X205403315Y-81312845D01*
X205344299Y-81494472D01*
X205324338Y-81684399D01*
X192304300Y-81684399D01*
X192304300Y-80220759D01*
X192304299Y-80220750D01*
X192297790Y-80160203D01*
X192297788Y-80160195D01*
X192253270Y-80040841D01*
X192246689Y-80023196D01*
X192246688Y-80023194D01*
X192246687Y-80023192D01*
X192159061Y-79906138D01*
X192042007Y-79818512D01*
X192042002Y-79818510D01*
X191905004Y-79767411D01*
X191904996Y-79767409D01*
X191844449Y-79760900D01*
X191844438Y-79760900D01*
X190047162Y-79760900D01*
X190047150Y-79760900D01*
X189986603Y-79767409D01*
X189986595Y-79767411D01*
X189849597Y-79818510D01*
X189849592Y-79818512D01*
X189732538Y-79906138D01*
X189644912Y-80023192D01*
X189644911Y-80023195D01*
X189600800Y-80141458D01*
X189558253Y-80198293D01*
X189491732Y-80223103D01*
X189422358Y-80208011D01*
X189390046Y-80182763D01*
X189329040Y-80116494D01*
X189329039Y-80116493D01*
X189329037Y-80116491D01*
X189226842Y-80036949D01*
X189151376Y-79978211D01*
X188953374Y-79871058D01*
X188953372Y-79871057D01*
X188953371Y-79871056D01*
X188740439Y-79797957D01*
X188740430Y-79797955D01*
X188696276Y-79790587D01*
X188518369Y-79760900D01*
X188293231Y-79760900D01*
X188145010Y-79785633D01*
X188071169Y-79797955D01*
X188071160Y-79797957D01*
X187858228Y-79871056D01*
X187858226Y-79871058D01*
X187660226Y-79978210D01*
X187660224Y-79978211D01*
X187482562Y-80116491D01*
X187330079Y-80282129D01*
X187330075Y-80282134D01*
X187206941Y-80470606D01*
X187116503Y-80676786D01*
X187116502Y-80676787D01*
X187061237Y-80895024D01*
X187061236Y-80895030D01*
X187061236Y-80895032D01*
X187042644Y-81119400D01*
X125032272Y-81119400D01*
X125053415Y-81054328D01*
X125073377Y-80864400D01*
X125053415Y-80674472D01*
X124994400Y-80492844D01*
X124898913Y-80327456D01*
X124898911Y-80327454D01*
X124898907Y-80327448D01*
X124771128Y-80185535D01*
X124616625Y-80073282D01*
X124442161Y-79995606D01*
X124255360Y-79955900D01*
X124064386Y-79955900D01*
X123877584Y-79995606D01*
X123703120Y-80073282D01*
X123548617Y-80185535D01*
X123420838Y-80327448D01*
X123420831Y-80327458D01*
X123325349Y-80492838D01*
X123325346Y-80492845D01*
X123266330Y-80674472D01*
X123246369Y-80864400D01*
X123266330Y-81054327D01*
X123296399Y-81146870D01*
X123325346Y-81235956D01*
X123325346Y-81235957D01*
X123325347Y-81235958D01*
X123377564Y-81326401D01*
X123394301Y-81395396D01*
X123377564Y-81452399D01*
X123325347Y-81542841D01*
X123325346Y-81542845D01*
X123266330Y-81724472D01*
X123246369Y-81914399D01*
X115741357Y-81914399D01*
X115741357Y-81744323D01*
X115741360Y-81743599D01*
X115745081Y-80764899D01*
X120672296Y-80764899D01*
X120692257Y-80954826D01*
X120708872Y-81005959D01*
X120751273Y-81136455D01*
X120751276Y-81136460D01*
X120846758Y-81301840D01*
X120846765Y-81301850D01*
X120974544Y-81443763D01*
X121035799Y-81488267D01*
X121129048Y-81556017D01*
X121303512Y-81633693D01*
X121490313Y-81673399D01*
X121681287Y-81673399D01*
X121868088Y-81633693D01*
X122042552Y-81556017D01*
X122197053Y-81443765D01*
X122197055Y-81443763D01*
X122324834Y-81301850D01*
X122324835Y-81301848D01*
X122324840Y-81301843D01*
X122420327Y-81136455D01*
X122479342Y-80954827D01*
X122499304Y-80764899D01*
X122479342Y-80574971D01*
X122420327Y-80393343D01*
X122324840Y-80227955D01*
X122324838Y-80227953D01*
X122324834Y-80227947D01*
X122197055Y-80086034D01*
X122042552Y-79973781D01*
X121868088Y-79896105D01*
X121681287Y-79856399D01*
X121490313Y-79856399D01*
X121303511Y-79896105D01*
X121129047Y-79973781D01*
X120974544Y-80086034D01*
X120846765Y-80227947D01*
X120846758Y-80227957D01*
X120751276Y-80393337D01*
X120751273Y-80393344D01*
X120692257Y-80574971D01*
X120672296Y-80764899D01*
X115745081Y-80764899D01*
X115746120Y-80491541D01*
X115748523Y-80475090D01*
X115748295Y-80475070D01*
X115749405Y-80462708D01*
X115749407Y-80462704D01*
X115746710Y-80437527D01*
X115746353Y-80430603D01*
X115746384Y-80422573D01*
X115746383Y-80422568D01*
X115745846Y-80417634D01*
X115745495Y-80409279D01*
X115746117Y-80383630D01*
X115747089Y-80343633D01*
X115752177Y-80311131D01*
X115769922Y-80250842D01*
X115783255Y-80220762D01*
X115816009Y-80167125D01*
X115836673Y-80141529D01*
X115882198Y-80098206D01*
X115908794Y-80078829D01*
X115963979Y-80048778D01*
X115994686Y-80036949D01*
X116024451Y-80029769D01*
X116050803Y-80023413D01*
X116080349Y-80019900D01*
X116769091Y-80019900D01*
X116769094Y-80019900D01*
X116912006Y-79987281D01*
X117044077Y-79923679D01*
X117158683Y-79832283D01*
X117250079Y-79717677D01*
X117313681Y-79585606D01*
X117346300Y-79442694D01*
X117346300Y-79296106D01*
X117313681Y-79153194D01*
X117282078Y-79087569D01*
X117270543Y-79017516D01*
X117287019Y-78979400D01*
X208162296Y-78979400D01*
X208182257Y-79169327D01*
X208196203Y-79212246D01*
X208241273Y-79350956D01*
X208241276Y-79350961D01*
X208336758Y-79516341D01*
X208336765Y-79516351D01*
X208464544Y-79658264D01*
X208464547Y-79658266D01*
X208619048Y-79770518D01*
X208793512Y-79848194D01*
X208980313Y-79887900D01*
X209171287Y-79887900D01*
X209358088Y-79848194D01*
X209532552Y-79770518D01*
X209687053Y-79658266D01*
X209752473Y-79585610D01*
X209814834Y-79516351D01*
X209814835Y-79516349D01*
X209814840Y-79516344D01*
X209910327Y-79350956D01*
X209969342Y-79169328D01*
X209989304Y-78979400D01*
X209969342Y-78789472D01*
X209910327Y-78607844D01*
X209814840Y-78442456D01*
X209814838Y-78442454D01*
X209814834Y-78442448D01*
X209687055Y-78300535D01*
X209532552Y-78188282D01*
X209358088Y-78110606D01*
X209171287Y-78070900D01*
X208980313Y-78070900D01*
X208793511Y-78110606D01*
X208619047Y-78188282D01*
X208464544Y-78300535D01*
X208336765Y-78442448D01*
X208336758Y-78442458D01*
X208243945Y-78603216D01*
X208241273Y-78607844D01*
X208226799Y-78652386D01*
X208182257Y-78789472D01*
X208162296Y-78979400D01*
X117287019Y-78979400D01*
X117298713Y-78952347D01*
X117357643Y-78912753D01*
X117395600Y-78906900D01*
X117652788Y-78906900D01*
X117652790Y-78906900D01*
X117811300Y-78891764D01*
X118015155Y-78831907D01*
X118203999Y-78734551D01*
X118371005Y-78603216D01*
X118510138Y-78442648D01*
X118616368Y-78258651D01*
X118685858Y-78057875D01*
X118716094Y-77847576D01*
X118711028Y-77741224D01*
X118705986Y-77635365D01*
X118705985Y-77635360D01*
X118705985Y-77635355D01*
X118655895Y-77428882D01*
X118655892Y-77428877D01*
X118655892Y-77428874D01*
X118567636Y-77235623D01*
X118567635Y-77235620D01*
X118567632Y-77235616D01*
X118567630Y-77235612D01*
X118444399Y-77062559D01*
X118444392Y-77062551D01*
X118290630Y-76915939D01*
X118111896Y-76801073D01*
X118001539Y-76756893D01*
X117914653Y-76722109D01*
X117914652Y-76722108D01*
X117914650Y-76722108D01*
X117706035Y-76681900D01*
X117706031Y-76681900D01*
X116338810Y-76681900D01*
X116338808Y-76681900D01*
X116338790Y-76681901D01*
X116180310Y-76697034D01*
X116180295Y-76697037D01*
X115976444Y-76756893D01*
X115930053Y-76780809D01*
X115860339Y-76794244D01*
X115794428Y-76767857D01*
X115753247Y-76710024D01*
X115746317Y-76668803D01*
X115746391Y-75910297D01*
X115746648Y-73239399D01*
X162622244Y-73239399D01*
X162642449Y-73599200D01*
X162702813Y-73954476D01*
X162802579Y-74300774D01*
X162940481Y-74633699D01*
X162940486Y-74633710D01*
X162940493Y-74633722D01*
X163114799Y-74949107D01*
X163114801Y-74949110D01*
X163114804Y-74949115D01*
X163323341Y-75243019D01*
X163563473Y-75511727D01*
X163832181Y-75751859D01*
X164126085Y-75960396D01*
X164441490Y-76134714D01*
X164441501Y-76134718D01*
X164441500Y-76134718D01*
X164770883Y-76271153D01*
X164774430Y-76272622D01*
X165120717Y-76372385D01*
X165475996Y-76432750D01*
X165835800Y-76452956D01*
X166195604Y-76432750D01*
X166550883Y-76372385D01*
X166897170Y-76272622D01*
X167230110Y-76134714D01*
X167545515Y-75960396D01*
X167839419Y-75751859D01*
X168108127Y-75511727D01*
X168348259Y-75243019D01*
X168556796Y-74949115D01*
X168731114Y-74633710D01*
X168869022Y-74300770D01*
X168968785Y-73954483D01*
X169029150Y-73599204D01*
X169049356Y-73239400D01*
X169029150Y-72879596D01*
X168968785Y-72524317D01*
X168869022Y-72178030D01*
X168731114Y-71845090D01*
X168556796Y-71529685D01*
X168348259Y-71235781D01*
X168108127Y-70967073D01*
X167839419Y-70726941D01*
X167545515Y-70518404D01*
X167545510Y-70518401D01*
X167545507Y-70518399D01*
X167352703Y-70411841D01*
X167230110Y-70344086D01*
X167230103Y-70344083D01*
X167230099Y-70344081D01*
X166897174Y-70206179D01*
X166550876Y-70106413D01*
X166195600Y-70046049D01*
X165835800Y-70025844D01*
X165475999Y-70046049D01*
X165120723Y-70106413D01*
X164774425Y-70206179D01*
X164441500Y-70344081D01*
X164441477Y-70344093D01*
X164126092Y-70518399D01*
X163832177Y-70726944D01*
X163563473Y-70967073D01*
X163323344Y-71235777D01*
X163114799Y-71529692D01*
X162940493Y-71845077D01*
X162940481Y-71845100D01*
X162802579Y-72178025D01*
X162702813Y-72524323D01*
X162642449Y-72879599D01*
X162622244Y-73239399D01*
X115746648Y-73239399D01*
X115746667Y-73043688D01*
X115766677Y-72975569D01*
X115820337Y-72929081D01*
X115872668Y-72917700D01*
X126091962Y-72917700D01*
X126091963Y-72917700D01*
X126100050Y-72913805D01*
X126126682Y-72904486D01*
X126135431Y-72902490D01*
X126142449Y-72896892D01*
X126166343Y-72881879D01*
X126174424Y-72877988D01*
X126180017Y-72870973D01*
X126199973Y-72851017D01*
X126206988Y-72845424D01*
X126210879Y-72837343D01*
X126225892Y-72813449D01*
X126231490Y-72806431D01*
X126233487Y-72797680D01*
X126242805Y-72771050D01*
X126246700Y-72762963D01*
X126246700Y-72671437D01*
X126246700Y-72671436D01*
X126246700Y-62543699D01*
X126266702Y-62475579D01*
X126320358Y-62429086D01*
X126372700Y-62417700D01*
X140145313Y-62417700D01*
X140275414Y-62418280D01*
G37*
%TD.AperFunction*%
%TD*%
M02*
