M48
; DRILL file {KiCad (6.0.7)} date Mon Mar 27 22:24:36 2023
; FORMAT={-:-/ absolute / inch / decimal}
; #@! TF.CreationDate,2023-03-27T22:24:36-07:00
; #@! TF.GenerationSoftware,Kicad,Pcbnew,(6.0.7)
; #@! TF.FileFunction,Plated,1,4,PTH
FMAT,2
INCH
; #@! TA.AperFunction,Plated,PTH,ViaDrill
T1C0.0079
; #@! TA.AperFunction,Plated,PTH,ViaDrill
T2C0.0118
; #@! TA.AperFunction,Plated,PTH,ViaDrill
T3C0.0157
; #@! TA.AperFunction,Plated,PTH,ComponentDrill
T4C0.0276
; #@! TA.AperFunction,Plated,PTH,ComponentDrill
T5C0.0394
; #@! TA.AperFunction,Plated,PTH,ComponentDrill
T6C0.1161
%
G90
G05
T1
X4.5845Y-5.3433
X4.616Y-5.2173
X4.6553Y-5.2094
X4.7026Y-5.4614
X4.7498Y-5.1858
X4.805Y-5.0598
X4.805Y-5.2173
X4.805Y-5.3669
X4.805Y-5.3984
X5.2341Y-4.8079
X5.2774Y-4.9023
X5.2931Y-4.8157
X5.301Y-2.8866
X5.332Y-3.3992
X5.333Y-3.6122
X5.3404Y-4.8312
X5.36Y-3.625
X5.363Y-3.398
X5.3855Y-3.6452
X5.392Y-3.3992
X5.411Y-3.6122
X5.502Y-3.324
X5.5308Y-3.3836
X5.5627Y-3.3797
X5.5878Y-3.3578
X5.606Y-2.871
X5.62Y-3.26
X5.6299Y-3.3438
X5.635Y-2.837
X5.6581Y-3.4001
X5.6587Y-3.1427
X5.6619Y-3.3399
X5.681Y-3.307
X5.6981Y-3.3601
X5.702Y-2.837
X5.7059Y-3.2409
X5.7216Y-3.3366
X5.761Y-3.135
X5.7676Y-3.2906
X5.776Y-3.0446
X5.8056Y-3.3286
X5.859Y-3.228
X5.8676Y-3.2938
X5.88Y-3.208
X5.889Y-3.323
X5.899Y-2.784
X5.93Y-2.88
X5.9388Y-2.9181
X5.941Y-3.037
X5.968Y-3.1268
X5.99Y-3.09
X6.015Y-3.215
X6.0364Y-3.1775
X6.0378Y-2.8961
X6.039Y-2.927
X6.057Y-2.528
X6.073Y-2.868
X6.4489Y-3.177
X6.477Y-3.178
X6.513Y-3.244
T2
X5.2965Y-3.2796
X5.4183Y-3.466
X5.5044Y-3.4654
X5.552Y-3.2709
X5.6632Y-2.6897
X5.7065Y-2.6897
X5.7065Y-3.4915
X5.736Y-3.106
X5.739Y-3.383
X5.7538Y-2.6858
X5.7813Y-2.7055
X5.8561Y-2.6937
X5.8589Y-3.0932
X6.026Y-2.841
X6.061Y-2.838
X6.127Y-3.271
X6.223Y-3.188
X6.259Y-3.234
X6.3994Y-3.0008
X6.4816Y-5.3225
X6.578Y-3.0208
X6.579Y-3.1667
X6.617Y-5.326
X6.667Y-4.706
X6.6868Y-3.1527
X6.707Y-4.906
X6.707Y-5.081
X6.7301Y-3.1031
X6.8207Y-3.1149
X6.9218Y-3.1201
T3
X4.8404Y-3.4732
X4.8601Y-3.3787
X4.8758Y-3.7527
X4.8837Y-3.4299
X4.927Y-5.1701
X4.9585Y-3.4535
X4.9703Y-5.1425
X5.0254Y-3.3925
X5.0333Y-4.9702
X5.0687Y-4.7724
X5.0845Y-3.4801
X5.0884Y-3.5323
X5.1002Y-3.3925
X5.1514Y-5.0756
X5.1672Y-3.1543
X5.175Y-2.7606
X5.179Y-4.8472
X5.2055Y-4.0638
X5.2098Y-5.1937
X5.2105Y-4.994
X5.2105Y-5.094
X5.2105Y-5.294
X5.2105Y-5.394
X5.2105Y-5.494
X5.2105Y-5.594
X5.2105Y-5.694
X5.2616Y-3.6779
X5.3404Y-4.9181
X5.352Y-2.817
X5.352Y-3.953
X5.4289Y-3.0282
X5.4851Y-4.5893
X5.627Y-3.811
X5.6317Y-4.2252
X5.6396Y-5.7921
X5.6672Y-3.5598
X5.6756Y-3.4276
X5.7105Y-2.7449
X5.7233Y-4.9212
X5.7268Y-3.7108
X5.727Y-3.911
X5.8237Y-4.9215
X5.827Y-3.811
X5.827Y-4.011
X5.8364Y-5.7921
X5.857Y-3.141
X5.862Y-3.049
X5.864Y-4.0681
X5.8994Y-3.5283
X5.8994Y-3.5677
X5.8994Y-3.611
X5.907Y-3.091
X5.9073Y-4.0992
X5.9211Y-4.9201
X5.9329Y-3.672
X5.935Y-3.501
X5.9939Y-3.5283
X5.9939Y-3.5677
X6.027Y-3.811
X6.027Y-4.011
X6.0333Y-5.7921
X6.1475Y-4.2723
X6.1829Y-2.7724
X6.1868Y-2.6661
X6.1987Y-3.5362
X6.1987Y-3.5755
X6.2237Y-4.9215
X6.226Y-3.496
X6.227Y-3.811
X6.227Y-4.011
X6.2282Y-3.676
X6.2301Y-5.7921
X6.237Y-2.981
X6.2656Y-2.7764
X6.2695Y-2.6661
X6.3268Y-4.9212
X6.327Y-3.911
X6.327Y-4.111
X6.3364Y-3.5362
X6.3364Y-3.5755
X6.3404Y-3.4535
X6.3404Y-3.4929
X6.3502Y-4.3374
X6.3798Y-4.1661
X6.3837Y-4.301
X6.397Y-3.086
X6.397Y-3.291
X6.397Y-3.521
X6.397Y-3.631
X6.397Y-3.731
X6.397Y-3.841
X6.402Y-3.186
X6.427Y-5.7921
X6.4271Y-4.9107
X6.5263Y-3.5109
X6.527Y-3.611
X6.527Y-3.711
X6.527Y-3.811
X6.527Y-3.911
X6.527Y-4.011
X6.527Y-4.111
X6.527Y-4.211
X6.587Y-3.491
X6.587Y-4.091
X6.627Y-4.311
X6.6353Y-5.7948
X6.6672Y-3.0169
X6.6829Y-4.5805
X6.6888Y-4.6258
X6.747Y-4.401
X6.8207Y-5.7921
X6.827Y-4.511
X6.827Y-4.911
X6.837Y-4.401
X6.927Y-4.911
X6.9309Y-4.6622
X6.9821Y-4.7173
X7.0176Y-5.7921
X7.027Y-4.911
X7.0579Y-4.5903
X7.0796Y-4.5145
X7.0924Y-3.2252
X7.127Y-4.911
X7.2144Y-5.7921
X7.227Y-4.911
X7.4117Y-5.7912
X7.527Y-4.911
X7.5924Y-5.7882
X7.627Y-4.911
X8.0009Y-5.3308
X8.0018Y-5.2198
X8.0018Y-5.0165
X8.0018Y-5.1165
X8.0018Y-5.4165
X8.0018Y-5.5165
X8.0027Y-5.629
X8.0294Y-3.2882
X8.0333Y-3.1425
X8.0335Y-3.0832
X8.1514Y-3.2606
X8.1595Y-3.4966
X8.1752Y-3.4376
X8.1792Y-3.3785
T5
X4.853Y-3.855
X4.953Y-3.855
X5.053Y-3.855
X5.153Y-3.855
X5.253Y-3.855
X5.353Y-3.855
X5.3851Y-2.7291
X5.4851Y-2.7291
X5.9443Y-4.5903
X5.9443Y-4.7903
X5.9943Y-4.4903
X5.9943Y-4.8903
X6.0943Y-4.4903
X6.0943Y-4.8903
X6.1557Y-4.5903
X6.1557Y-4.7903
X7.4057Y-3.1858
X7.5057Y-3.1858
T6
X4.9929Y-4.4191
X6.5284Y-2.8836
X6.5284Y-5.9525
X7.3719Y-4.611
X7.3719Y-4.8354
X7.6868Y-4.611
X8.0628Y-4.4171
T4
G00X5.6018Y-2.5223
M15
G01X5.6018Y-2.5459
M16
G05
G00X5.9128Y-2.5223
M15
G01X5.9128Y-2.5459
M16
G05
T0
M30
