%TF.GenerationSoftware,KiCad,Pcbnew,(6.0.7)*%
%TF.CreationDate,2023-03-27T22:24:21-07:00*%
%TF.ProjectId,FC_Board_v1,46435f42-6f61-4726-945f-76312e6b6963,rev?*%
%TF.SameCoordinates,Original*%
%TF.FileFunction,Paste,Top*%
%TF.FilePolarity,Positive*%
%FSLAX46Y46*%
G04 Gerber Fmt 4.6, Leading zero omitted, Abs format (unit mm)*
G04 Created by KiCad (PCBNEW (6.0.7)) date 2023-03-27 22:24:21*
%MOMM*%
%LPD*%
G01*
G04 APERTURE LIST*
G04 Aperture macros list*
%AMRoundRect*
0 Rectangle with rounded corners*
0 $1 Rounding radius*
0 $2 $3 $4 $5 $6 $7 $8 $9 X,Y pos of 4 corners*
0 Add a 4 corners polygon primitive as box body*
4,1,4,$2,$3,$4,$5,$6,$7,$8,$9,$2,$3,0*
0 Add four circle primitives for the rounded corners*
1,1,$1+$1,$2,$3*
1,1,$1+$1,$4,$5*
1,1,$1+$1,$6,$7*
1,1,$1+$1,$8,$9*
0 Add four rect primitives between the rounded corners*
20,1,$1+$1,$2,$3,$4,$5,0*
20,1,$1+$1,$4,$5,$6,$7,0*
20,1,$1+$1,$6,$7,$8,$9,0*
20,1,$1+$1,$8,$9,$2,$3,0*%
%AMRotRect*
0 Rectangle, with rotation*
0 The origin of the aperture is its center*
0 $1 length*
0 $2 width*
0 $3 Rotation angle, in degrees counterclockwise*
0 Add horizontal line*
21,1,$1,$2,0,0,$3*%
G04 Aperture macros list end*
%ADD10RoundRect,0.135000X0.226274X0.035355X0.035355X0.226274X-0.226274X-0.035355X-0.035355X-0.226274X0*%
%ADD11R,0.500000X0.500000*%
%ADD12R,0.400000X0.500000*%
%ADD13R,1.900000X1.100000*%
%ADD14RoundRect,0.135000X-0.185000X0.135000X-0.185000X-0.135000X0.185000X-0.135000X0.185000X0.135000X0*%
%ADD15R,1.100000X0.850000*%
%ADD16R,1.100000X0.750000*%
%ADD17R,1.800000X1.170000*%
%ADD18R,1.350000X1.900000*%
%ADD19R,1.000000X1.200000*%
%ADD20R,1.350000X1.550000*%
%ADD21RoundRect,0.135000X0.185000X-0.135000X0.185000X0.135000X-0.185000X0.135000X-0.185000X-0.135000X0*%
%ADD22RotRect,0.800000X0.800000X225.000000*%
%ADD23RoundRect,0.200000X0.200000X0.275000X-0.200000X0.275000X-0.200000X-0.275000X0.200000X-0.275000X0*%
%ADD24RoundRect,0.140000X0.021213X-0.219203X0.219203X-0.021213X-0.021213X0.219203X-0.219203X0.021213X0*%
%ADD25R,1.200000X1.800000*%
%ADD26R,0.600000X1.550000*%
%ADD27RoundRect,0.135000X-0.226274X-0.035355X-0.035355X-0.226274X0.226274X0.035355X0.035355X0.226274X0*%
%ADD28RoundRect,0.225000X0.225000X0.250000X-0.225000X0.250000X-0.225000X-0.250000X0.225000X-0.250000X0*%
%ADD29RoundRect,0.150000X0.150000X-0.650000X0.150000X0.650000X-0.150000X0.650000X-0.150000X-0.650000X0*%
%ADD30RoundRect,0.225000X-0.250000X0.225000X-0.250000X-0.225000X0.250000X-0.225000X0.250000X0.225000X0*%
%ADD31R,0.675000X0.250000*%
%ADD32R,0.250000X0.575000*%
%ADD33R,1.300000X1.500000*%
%ADD34RoundRect,0.135000X-0.135000X-0.185000X0.135000X-0.185000X0.135000X0.185000X-0.135000X0.185000X0*%
%ADD35RoundRect,0.225000X0.017678X-0.335876X0.335876X-0.017678X-0.017678X0.335876X-0.335876X0.017678X0*%
%ADD36R,0.550000X1.200000*%
%ADD37RoundRect,0.225000X0.335876X0.017678X0.017678X0.335876X-0.335876X-0.017678X-0.017678X-0.335876X0*%
%ADD38R,4.000000X11.000000*%
%ADD39R,4.000000X1.000000*%
%ADD40RoundRect,0.200000X0.275000X-0.200000X0.275000X0.200000X-0.275000X0.200000X-0.275000X-0.200000X0*%
%ADD41RoundRect,0.200000X-0.275000X0.200000X-0.275000X-0.200000X0.275000X-0.200000X0.275000X0.200000X0*%
%ADD42R,1.300000X2.000000*%
%ADD43R,1.100000X1.000000*%
%ADD44R,1.000000X1.000000*%
%ADD45R,2.200000X1.050000*%
%ADD46R,0.600000X1.000000*%
%ADD47R,1.250000X1.800000*%
%ADD48RoundRect,0.237500X-0.300000X-0.237500X0.300000X-0.237500X0.300000X0.237500X-0.300000X0.237500X0*%
%ADD49R,1.000000X2.000000*%
%ADD50R,0.450000X1.050000*%
%ADD51R,2.100000X2.100000*%
%ADD52RoundRect,0.042000X-0.943000X-0.258000X0.943000X-0.258000X0.943000X0.258000X-0.943000X0.258000X0*%
%ADD53RoundRect,0.225000X-0.225000X-0.250000X0.225000X-0.250000X0.225000X0.250000X-0.225000X0.250000X0*%
%ADD54RoundRect,0.135000X0.135000X0.185000X-0.135000X0.185000X-0.135000X-0.185000X0.135000X-0.185000X0*%
%ADD55R,1.000000X0.800000*%
%ADD56RoundRect,0.140000X0.219203X0.021213X0.021213X0.219203X-0.219203X-0.021213X-0.021213X-0.219203X0*%
%ADD57RoundRect,0.140000X-0.021213X0.219203X-0.219203X0.021213X0.021213X-0.219203X0.219203X-0.021213X0*%
%ADD58R,1.500000X1.300000*%
%ADD59R,0.450000X0.900000*%
%ADD60RoundRect,0.150000X0.618718X-0.406586X-0.406586X0.618718X-0.618718X0.406586X0.406586X-0.618718X0*%
%ADD61R,0.800000X1.350000*%
%ADD62RoundRect,0.200000X-0.200000X-0.275000X0.200000X-0.275000X0.200000X0.275000X-0.200000X0.275000X0*%
%ADD63RoundRect,0.140000X-0.219203X-0.021213X-0.021213X-0.219203X0.219203X0.021213X0.021213X0.219203X0*%
%ADD64RotRect,0.900000X0.750000X45.000000*%
%ADD65RoundRect,0.150000X-0.350000X0.150000X-0.350000X-0.150000X0.350000X-0.150000X0.350000X0.150000X0*%
%ADD66RoundRect,0.250000X-0.650000X0.375000X-0.650000X-0.375000X0.650000X-0.375000X0.650000X0.375000X0*%
%ADD67R,1.000000X0.350000*%
%ADD68R,0.900000X1.850000*%
%ADD69R,3.200000X1.850000*%
%ADD70RotRect,0.875000X0.200000X225.000000*%
%ADD71RotRect,0.875000X0.200000X315.000000*%
%ADD72RotRect,0.875000X0.200000X45.000000*%
%ADD73RotRect,0.875000X0.200000X135.000000*%
%ADD74RoundRect,0.160000X0.000000X-2.036468X2.036468X0.000000X0.000000X2.036468X-2.036468X0.000000X0*%
G04 APERTURE END LIST*
D10*
%TO.C,R3*%
X154348878Y-83310398D03*
X153627630Y-82589150D03*
%TD*%
D11*
%TO.C,Q1*%
X133095800Y-123219400D03*
D12*
X133845800Y-123219400D03*
D11*
X134595800Y-123219400D03*
X134595800Y-121419400D03*
D12*
X133845800Y-121419400D03*
D11*
X133095800Y-121419400D03*
%TD*%
D13*
%TO.C,X2*%
X151845800Y-109219400D03*
X151845800Y-106819400D03*
%TD*%
D14*
%TO.C,R6*%
X146822010Y-71681428D03*
X146822010Y-72701428D03*
%TD*%
D15*
%TO.C,J44*%
X121529980Y-91524400D03*
X121529980Y-90424400D03*
X121529980Y-89324400D03*
X121529980Y-88224400D03*
X121529980Y-87124400D03*
X121529980Y-86024400D03*
X121529980Y-84924400D03*
D16*
X121529980Y-83874400D03*
D17*
X121879980Y-82664400D03*
D18*
X132354980Y-84689400D03*
X132354980Y-90659400D03*
D19*
X131379980Y-94159400D03*
X127679980Y-94159400D03*
D20*
X121654980Y-93984400D03*
%TD*%
D21*
%TO.C,R11*%
X144145800Y-89129400D03*
X144145800Y-88109400D03*
%TD*%
D22*
%TO.C,D2*%
X148110470Y-87150470D03*
X149171130Y-88211130D03*
%TD*%
D23*
%TO.C,R19*%
X144045800Y-99294400D03*
X142395800Y-99294400D03*
%TD*%
D24*
%TO.C,C7*%
X153233913Y-75585961D03*
X153912735Y-74907139D03*
%TD*%
D25*
%TO.C,J10*%
X191945800Y-103369400D03*
X197545800Y-103369400D03*
D26*
X193245800Y-107244400D03*
X194245800Y-107244400D03*
X196245800Y-107244400D03*
X195245800Y-107244400D03*
%TD*%
D27*
%TO.C,R9*%
X146527576Y-85592976D03*
X147248824Y-86314224D03*
%TD*%
D28*
%TO.C,C19*%
X129420800Y-80119400D03*
X127870800Y-80119400D03*
%TD*%
D24*
%TO.C,C1*%
X151134370Y-83289189D03*
X151813192Y-82610367D03*
%TD*%
D29*
%TO.C,U2*%
X135988628Y-80516413D03*
X137258628Y-80516413D03*
X138528628Y-80516413D03*
X139798628Y-80516413D03*
X139798628Y-73316413D03*
X138528628Y-73316413D03*
X137258628Y-73316413D03*
X135988628Y-73316413D03*
%TD*%
D30*
%TO.C,C21*%
X159645800Y-106969400D03*
X159645800Y-108519400D03*
%TD*%
D31*
%TO.C,U8*%
X154483300Y-109669400D03*
D32*
X155295800Y-109731900D03*
X155795800Y-109731900D03*
X156295800Y-109731900D03*
X156795800Y-109731900D03*
D31*
X157608300Y-109669400D03*
X157608300Y-109169400D03*
X157608300Y-108669400D03*
X157608300Y-108169400D03*
X157608300Y-107669400D03*
X157608300Y-107169400D03*
X157608300Y-106669400D03*
X157608300Y-106169400D03*
X157608300Y-105669400D03*
X157608300Y-105169400D03*
D32*
X156795800Y-105106900D03*
X156295800Y-105106900D03*
X155795800Y-105106900D03*
X155295800Y-105106900D03*
D31*
X154483300Y-105169400D03*
X154483300Y-105669400D03*
X154483300Y-106169400D03*
X154483300Y-106669400D03*
X154483300Y-107169400D03*
X154483300Y-107669400D03*
X154483300Y-108169400D03*
X154483300Y-108669400D03*
X154483300Y-109169400D03*
%TD*%
D33*
%TO.C,C15*%
X130195800Y-103219400D03*
X128295800Y-103219400D03*
%TD*%
D28*
%TO.C,C20*%
X157320800Y-111219400D03*
X155770800Y-111219400D03*
%TD*%
D34*
%TO.C,R7*%
X134527996Y-82411963D03*
X135547996Y-82411963D03*
%TD*%
D35*
%TO.C,C6*%
X149740378Y-72613713D03*
X150836394Y-71517697D03*
%TD*%
D30*
%TO.C,C12*%
X186220800Y-104044400D03*
X186220800Y-105594400D03*
%TD*%
D36*
%TO.C,U6*%
X136070800Y-103744300D03*
X135120800Y-103744300D03*
X134170800Y-103744300D03*
X134170800Y-106344500D03*
X136070800Y-106344500D03*
%TD*%
D37*
%TO.C,C8*%
X145017188Y-73906870D03*
X143921172Y-72810854D03*
%TD*%
D38*
%TO.C,AE1*%
X157830000Y-135214600D03*
D39*
X157830000Y-140294600D03*
D38*
X174910000Y-135214600D03*
D39*
X174910000Y-140294600D03*
%TD*%
D40*
%TO.C,R16*%
X138745800Y-103544400D03*
X138745800Y-101894400D03*
%TD*%
D41*
%TO.C,L1*%
X167259000Y-126048000D03*
X167259000Y-127698000D03*
%TD*%
D42*
%TO.C,U3*%
X167372599Y-121765399D03*
X169372599Y-121765399D03*
X171372599Y-121765399D03*
X173372599Y-121765399D03*
X175372599Y-121765399D03*
X177372599Y-121765399D03*
X179372599Y-121765399D03*
X181372599Y-121765399D03*
X181372599Y-86765399D03*
X179372599Y-86765399D03*
X177372599Y-86765399D03*
X175372599Y-86765399D03*
X173372599Y-86765399D03*
X171372599Y-86765399D03*
X169372599Y-86765399D03*
X167372599Y-86765399D03*
%TD*%
D43*
%TO.C,R13*%
X121995800Y-129519400D03*
X123695800Y-129519400D03*
%TD*%
D44*
%TO.C,U.Fl*%
X164898200Y-121767600D03*
D45*
X163398200Y-120292600D03*
X163398200Y-123242600D03*
D44*
X161898200Y-121767600D03*
%TD*%
D46*
%TO.C,J7*%
X190195800Y-77959400D03*
X188695800Y-77959400D03*
D47*
X192800800Y-72769400D03*
X186090800Y-72769400D03*
%TD*%
D48*
%TO.C,C13*%
X167260100Y-124587000D03*
X168985100Y-124587000D03*
%TD*%
D14*
%TO.C,R5*%
X145816222Y-71681428D03*
X145816222Y-72701428D03*
%TD*%
D43*
%TO.C,R15*%
X121995800Y-131119400D03*
X123695800Y-131119400D03*
%TD*%
D49*
%TO.C,U4*%
X181345600Y-105817400D03*
X179345600Y-105817400D03*
X177345600Y-105817400D03*
X175345600Y-105817400D03*
X173345600Y-105817400D03*
X171345600Y-105817400D03*
X169345600Y-105817400D03*
X167345600Y-105817400D03*
X167345600Y-121817400D03*
X169345600Y-121817400D03*
X171345600Y-121817400D03*
X173345600Y-121817400D03*
X175345600Y-121817400D03*
X177345600Y-121817400D03*
X179345600Y-121817400D03*
X181345600Y-121817400D03*
%TD*%
D50*
%TO.C,U20*%
X135988628Y-79766413D03*
X137258628Y-79766413D03*
X138528628Y-79766413D03*
X139798628Y-79766413D03*
X139798628Y-74066413D03*
X138528628Y-74066413D03*
X137258628Y-74066413D03*
X135988628Y-74066413D03*
D51*
X137893628Y-76916413D03*
%TD*%
D52*
%TO.C,U7*%
X140875800Y-100874400D03*
X140875800Y-102144400D03*
X140875800Y-103414400D03*
X140875800Y-104684400D03*
X140875800Y-105954400D03*
X140875800Y-107224400D03*
X140875800Y-108494400D03*
X140875800Y-109764400D03*
X145825800Y-109764400D03*
X145825800Y-108494400D03*
X145825800Y-107224400D03*
X145825800Y-105954400D03*
X145825800Y-104684400D03*
X145825800Y-103414400D03*
X145825800Y-102144400D03*
X145825800Y-100874400D03*
%TD*%
D53*
%TO.C,C16*%
X132470800Y-68319400D03*
X134020800Y-68319400D03*
%TD*%
%TO.C,C23*%
X151470800Y-105119400D03*
X153020800Y-105119400D03*
%TD*%
%TO.C,C22*%
X152470800Y-111219400D03*
X154020800Y-111219400D03*
%TD*%
D54*
%TO.C,R10*%
X133155800Y-80119400D03*
X132135800Y-80119400D03*
%TD*%
D55*
%TO.C,D1*%
X138101996Y-83427963D03*
X140101996Y-83427963D03*
%TD*%
D56*
%TO.C,C4*%
X155787411Y-81746411D03*
X155108589Y-81067589D03*
%TD*%
D21*
%TO.C,R12*%
X143145800Y-89129400D03*
X143145800Y-88109400D03*
%TD*%
D37*
%TO.C,C3*%
X143939559Y-74984500D03*
X142843543Y-73888484D03*
%TD*%
D57*
%TO.C,C10*%
X145830611Y-82515389D03*
X145151789Y-83194211D03*
%TD*%
D58*
%TO.C,C17*%
X136845800Y-118869400D03*
X136845800Y-116969400D03*
%TD*%
D59*
%TO.C,R14*%
X128745800Y-127369400D03*
X127845800Y-127369400D03*
X127045800Y-127369400D03*
X126145800Y-127369400D03*
X126145800Y-129069400D03*
X127045800Y-129069400D03*
X127845800Y-129069400D03*
X128745800Y-129069400D03*
%TD*%
D60*
%TO.C,U1*%
X179919562Y-76787238D03*
X180817587Y-75889213D03*
X181715613Y-74991187D03*
X182613638Y-74093162D03*
X178972038Y-70451562D03*
X178074013Y-71349587D03*
X177175987Y-72247613D03*
X176277962Y-73145638D03*
%TD*%
D61*
%TO.C,D3*%
X119045800Y-129489400D03*
X119045800Y-126949400D03*
%TD*%
D54*
%TO.C,R1*%
X157964600Y-82143600D03*
X156944600Y-82143600D03*
%TD*%
D48*
%TO.C,C14*%
X167310900Y-129209800D03*
X169035900Y-129209800D03*
%TD*%
D62*
%TO.C,R8*%
X170879000Y-82296000D03*
X172529000Y-82296000D03*
%TD*%
D63*
%TO.C,C11*%
X154346589Y-81829589D03*
X155025411Y-82508411D03*
%TD*%
D64*
%TO.C,Y1*%
X152445914Y-85519681D03*
X153612640Y-84352955D03*
X152728756Y-83469071D03*
X151562030Y-84635797D03*
%TD*%
D34*
%TO.C,R4*%
X135797996Y-83427963D03*
X136817996Y-83427963D03*
%TD*%
D65*
%TO.C,J1*%
X209035800Y-76814400D03*
X209035800Y-78314400D03*
X209035800Y-79814400D03*
X209035800Y-81314400D03*
X209035800Y-82814400D03*
X209035800Y-84314400D03*
X209035800Y-85814400D03*
X209035800Y-87314400D03*
X209035800Y-88814400D03*
X209035800Y-90314400D03*
X209035800Y-91814400D03*
X209035800Y-93314400D03*
D66*
X203845800Y-74209400D03*
X203845800Y-95919400D03*
%TD*%
D63*
%TO.C,C2*%
X150667398Y-85519966D03*
X151346220Y-86198788D03*
%TD*%
D57*
%TO.C,C5*%
X149119118Y-71438927D03*
X148440296Y-72117749D03*
%TD*%
D67*
%TO.C,UX*%
X165450200Y-136622000D03*
X165450200Y-137272000D03*
X165450200Y-137922000D03*
X167250200Y-137922000D03*
X167250200Y-137272000D03*
X167250200Y-136622000D03*
%TD*%
D57*
%TO.C,C9*%
X143316011Y-79086389D03*
X142637189Y-79765211D03*
%TD*%
D68*
%TO.C,IC2*%
X132945800Y-71819400D03*
X130645800Y-71819400D03*
X128345800Y-71819400D03*
D69*
X130645800Y-78019400D03*
%TD*%
D70*
%TO.C,IC1*%
X144537632Y-79168454D03*
X144820475Y-79451296D03*
X145103317Y-79734139D03*
X145386160Y-80016982D03*
X145669003Y-80299825D03*
X145951846Y-80582667D03*
X146234688Y-80865510D03*
X146517531Y-81148353D03*
X146800374Y-81431195D03*
X147083216Y-81714038D03*
X147366059Y-81996881D03*
X147648902Y-82279724D03*
X147931745Y-82562566D03*
X148214587Y-82845409D03*
D71*
X149416669Y-82845409D03*
X149699511Y-82562566D03*
X149982354Y-82279724D03*
X150265197Y-81996881D03*
X150548040Y-81714038D03*
X150830882Y-81431195D03*
X151113725Y-81148353D03*
X151396568Y-80865510D03*
X151679410Y-80582667D03*
X151962253Y-80299825D03*
X152245096Y-80016982D03*
X152527939Y-79734139D03*
X152810781Y-79451296D03*
X153093624Y-79168454D03*
D72*
X153093624Y-77966372D03*
X152810781Y-77683530D03*
X152527939Y-77400687D03*
X152245096Y-77117844D03*
X151962253Y-76835001D03*
X151679410Y-76552159D03*
X151396568Y-76269316D03*
X151113725Y-75986473D03*
X150830882Y-75703631D03*
X150548040Y-75420788D03*
X150265197Y-75137945D03*
X149982354Y-74855102D03*
X149699511Y-74572260D03*
X149416669Y-74289417D03*
D73*
X148214587Y-74289417D03*
X147931745Y-74572260D03*
X147648902Y-74855102D03*
X147366059Y-75137945D03*
X147083216Y-75420788D03*
X146800374Y-75703631D03*
X146517531Y-75986473D03*
X146234688Y-76269316D03*
X145951846Y-76552159D03*
X145669003Y-76835001D03*
X145386160Y-77117844D03*
X145103317Y-77400687D03*
X144820475Y-77683530D03*
X144537632Y-77966372D03*
D74*
X148815628Y-78567413D03*
%TD*%
D43*
%TO.C,C18*%
X121995800Y-139719400D03*
X123695800Y-139719400D03*
%TD*%
D46*
%TO.C,J8*%
X141405900Y-113356000D03*
X142905900Y-113356000D03*
D47*
X138800900Y-118546000D03*
X145510900Y-118546000D03*
%TD*%
M02*
