%TF.GenerationSoftware,KiCad,Pcbnew,7.0.1*%
%TF.CreationDate,2024-01-21T14:51:42-07:00*%
%TF.ProjectId,solar-panel-side-Z,736f6c61-722d-4706-916e-656c2d736964,3.1*%
%TF.SameCoordinates,Original*%
%TF.FileFunction,Copper,L3,Inr*%
%TF.FilePolarity,Positive*%
%FSLAX46Y46*%
G04 Gerber Fmt 4.6, Leading zero omitted, Abs format (unit mm)*
G04 Created by KiCad (PCBNEW 7.0.1) date 2024-01-21 14:51:42*
%MOMM*%
%LPD*%
G01*
G04 APERTURE LIST*
%TA.AperFunction,ComponentPad*%
%ADD10C,5.250000*%
%TD*%
%TA.AperFunction,ViaPad*%
%ADD11C,0.800000*%
%TD*%
%TA.AperFunction,Conductor*%
%ADD12C,0.250000*%
%TD*%
G04 APERTURE END LIST*
D10*
%TO.N,unconnected-(J4-Pin_1-Pad1)*%
%TO.C,J4*%
X110500000Y-85000000D03*
%TD*%
%TO.N,unconnected-(J5-Pin_1-Pad1)*%
%TO.C,J5*%
X149500000Y-124000000D03*
%TD*%
%TO.N,unconnected-(J6-Pin_1-Pad1)*%
%TO.C,J6*%
X149500000Y-46000000D03*
%TD*%
%TO.N,unconnected-(J7-Pin_1-Pad1)*%
%TO.C,J7*%
X188500000Y-85000000D03*
%TD*%
D11*
%TO.N,+3V3*%
X165140000Y-72790000D03*
%TO.N,Camera_SDA*%
X147806483Y-79534500D03*
X151257701Y-79612299D03*
%TO.N,Camera_SCL*%
X147160000Y-80390000D03*
X151592701Y-80697299D03*
%TO.N,Camera_Pwr*%
X148409960Y-78339960D03*
X152600000Y-80680000D03*
%TO.N,SDA*%
X156630000Y-75850000D03*
X153960000Y-75540000D03*
%TO.N,VSOLAR*%
X188210000Y-122990000D03*
X188000000Y-62790000D03*
X198050000Y-65120000D03*
%TO.N,SDA_Break*%
X169800000Y-97570000D03*
X144850000Y-101950000D03*
%TO.N,SCL_Break*%
X168080000Y-97620000D03*
X145372687Y-102815246D03*
%TO.N,3v3_break*%
X169240000Y-98420000D03*
X145470000Y-103810000D03*
%TO.N,F2_SDA*%
X196900000Y-65780000D03*
X190820000Y-66290000D03*
%TO.N,F2_SCL*%
X195700000Y-64650000D03*
X190000000Y-65100000D03*
%TO.N,F2_ENB*%
X194460000Y-63910000D03*
X189570000Y-64130000D03*
%TO.N,SDA*%
X153530000Y-123080000D03*
X157770000Y-123090000D03*
%TO.N,SCL*%
X157434500Y-121970000D03*
X153670000Y-121990000D03*
%TO.N,+3V3*%
X165980000Y-102000000D03*
%TO.N,GND*%
X171630000Y-123540000D03*
X161490000Y-69180000D03*
X164540000Y-46420000D03*
X156260000Y-77181974D03*
X145680000Y-105410000D03*
X148900000Y-105410000D03*
X137946283Y-91716283D03*
X111040000Y-62950000D03*
X165948061Y-69851939D03*
X119890000Y-126760000D03*
%TO.N,VSOLAR*%
X132315000Y-96935000D03*
%TO.N,SDA*%
X144270000Y-90620000D03*
X144245000Y-93955000D03*
%TO.N,SCL*%
X143511396Y-92641396D03*
%TO.N,Net-(SC5--)*%
X139330000Y-104100000D03*
X133930000Y-123050000D03*
%TO.N,Net-(U2-OUT+)*%
X147180000Y-121330000D03*
X141780000Y-94680000D03*
X150850000Y-109290000D03*
X140460000Y-95870000D03*
X151860000Y-121250000D03*
%TD*%
D12*
%TO.N,Net-(U2-OUT+)*%
X118955000Y-103495000D02*
X117175000Y-100175000D01*
X122065000Y-104595000D02*
X120105000Y-101505000D01*
X180165000Y-83555000D02*
X180115000Y-87085000D01*
X174605000Y-71825000D02*
X175975000Y-74895000D01*
X133595000Y-57135000D02*
X136795000Y-55545000D01*
X115265000Y-78205000D02*
X116185000Y-74595000D01*
X166025000Y-63905000D02*
X168475000Y-66095000D01*
X154995000Y-55875000D02*
X158385000Y-56735000D01*
X173615000Y-108695000D02*
X170855000Y-111195000D01*
X114705000Y-93025000D02*
X114055000Y-89325000D01*
X181765000Y-83465000D02*
X181725000Y-87045000D01*
X181825000Y-72275000D02*
X182985000Y-75795000D01*
X183115000Y-89225000D02*
X182455000Y-92815000D01*
X160805000Y-117665000D02*
X157255000Y-118675000D01*
X163595000Y-60795000D02*
X166385000Y-62665000D01*
X170725000Y-98255000D02*
X168845000Y-100855000D01*
X126965000Y-110085000D02*
X124365000Y-107465000D01*
X172515000Y-67075000D02*
X174445000Y-69905000D01*
X121725000Y-94355000D02*
X120825000Y-91045000D01*
X136855000Y-107395000D02*
X134205000Y-105675000D01*
X176395000Y-74885000D02*
X177395000Y-78145000D01*
X138965000Y-113225000D02*
X135795000Y-111825000D01*
X113945000Y-81765000D02*
X114485000Y-78035000D01*
X127495000Y-105555000D02*
X125295000Y-102915000D01*
X121395000Y-94615000D02*
X120475000Y-91315000D01*
X119445000Y-86815000D02*
X119445000Y-83325000D01*
X149545000Y-115945000D02*
X146015000Y-115745000D01*
X131025000Y-104565000D02*
X128775000Y-102165000D01*
X153015000Y-117365000D02*
X149415000Y-117545000D01*
X172305000Y-112075000D02*
X169335000Y-114305000D01*
X131685000Y-106755000D02*
X129195000Y-104435000D01*
X147895000Y-120305000D02*
X144135000Y-119925000D01*
X132185000Y-54715000D02*
X135545000Y-53035000D01*
X134345000Y-112415000D02*
X131345000Y-110525000D01*
X164015000Y-64425000D02*
X166475000Y-66425000D01*
X127085000Y-65525000D02*
X129485000Y-63075000D01*
X152275000Y-59945000D02*
X155365000Y-60485000D01*
X174415000Y-69085000D02*
X176075000Y-72085000D01*
X178835000Y-93925000D02*
X177605000Y-97225000D01*
X173155000Y-58945000D02*
X175755000Y-61585000D01*
X120495000Y-80845000D02*
X121185000Y-77465000D01*
X154875000Y-52195000D02*
X158445000Y-52995000D01*
X116335000Y-82025000D02*
X116855000Y-78415000D01*
X177745000Y-68415000D02*
X179395000Y-71645000D01*
X119985000Y-73435000D02*
X121465000Y-70205000D01*
X140605000Y-112105000D02*
X137445000Y-110855000D01*
X178665000Y-99655000D02*
X176865000Y-102765000D01*
X142275000Y-111775000D02*
X139125000Y-110715000D01*
X170985000Y-99335000D02*
X169045000Y-101865000D01*
X123195000Y-81725000D02*
X123805000Y-78515000D01*
X137095000Y-56725000D02*
X140445000Y-55485000D01*
X179285000Y-82385000D02*
X179375000Y-85825000D01*
X178815000Y-77225000D02*
X179495000Y-80625000D01*
X140285000Y-118695000D02*
X136715000Y-117505000D01*
X116865000Y-71545000D02*
X118475000Y-68165000D01*
X159775000Y-116745000D02*
X156255000Y-117665000D01*
X146015000Y-115745000D02*
X142575000Y-115145000D01*
X114215000Y-86245000D02*
X114285000Y-82485000D01*
X139875000Y-117745000D02*
X136385000Y-116505000D01*
X163455000Y-112205000D02*
X160255000Y-113615000D01*
X127175000Y-112365000D02*
X124395000Y-109835000D01*
X172015000Y-99225000D02*
X170125000Y-101825000D01*
X121485000Y-100695000D02*
X119915000Y-97475000D01*
X165305000Y-105885000D02*
X162605000Y-107665000D01*
X172865000Y-68915000D02*
X174605000Y-71825000D01*
X124165000Y-68025000D02*
X126235000Y-65285000D01*
X173615000Y-59925000D02*
X176145000Y-62655000D01*
X168365000Y-107025000D02*
X165665000Y-109065000D01*
X123415000Y-103725000D02*
X121485000Y-100695000D01*
X182555000Y-79485000D02*
X182945000Y-83145000D01*
X180315000Y-93115000D02*
X179205000Y-96485000D01*
X141235000Y-60275000D02*
X144315000Y-59455000D01*
X141425000Y-56445000D02*
X144815000Y-55705000D01*
X180595000Y-89875000D02*
X179845000Y-93315000D01*
X136285000Y-108455000D02*
X133525000Y-106665000D01*
X142895000Y-111525000D02*
X139765000Y-110535000D01*
X139895000Y-59045000D02*
X143035000Y-58095000D01*
X150835000Y-119125000D02*
X147125000Y-119055000D01*
X122025000Y-70855000D02*
X123815000Y-67825000D01*
X133435000Y-116455000D02*
X130205000Y-114585000D01*
X149485000Y-112345000D02*
X146175000Y-112135000D01*
X126395000Y-97155000D02*
X125085000Y-94245000D01*
X144875000Y-116395000D02*
X141355000Y-115665000D01*
X119835000Y-79885000D02*
X120615000Y-76525000D01*
X123625000Y-81545000D02*
X124255000Y-78365000D01*
X148955000Y-54945000D02*
X152425000Y-55095000D01*
X150005000Y-115545000D02*
X146465000Y-115385000D01*
X122055000Y-81235000D02*
X122695000Y-78005000D01*
X128325000Y-104685000D02*
X126155000Y-102055000D01*
X129155000Y-66805000D02*
X131515000Y-64475000D01*
X171455000Y-61185000D02*
X173945000Y-63765000D01*
X160625000Y-59285000D02*
X163595000Y-60795000D01*
X154655000Y-52565000D02*
X158175000Y-53335000D01*
X178075000Y-79395000D02*
X178515000Y-82725000D01*
X167345000Y-106315000D02*
X164695000Y-108265000D01*
X125005000Y-92805000D02*
X124225000Y-89695000D01*
X123815000Y-67825000D02*
X125905000Y-65055000D01*
X147565000Y-57005000D02*
X150915000Y-56985000D01*
X166725000Y-109315000D02*
X163755000Y-111145000D01*
X118005000Y-75475000D02*
X119255000Y-72045000D01*
X137225000Y-58855000D02*
X140435000Y-57585000D01*
X162915000Y-53295000D02*
X166265000Y-54945000D01*
X134765000Y-57405000D02*
X138025000Y-55905000D01*
X128885000Y-65335000D02*
X131355000Y-63035000D01*
X118355000Y-90945000D02*
X117885000Y-87425000D01*
X131675000Y-113155000D02*
X128705000Y-111035000D01*
X125275000Y-75285000D02*
X126665000Y-72365000D01*
X171075000Y-106145000D02*
X168505000Y-108465000D01*
X128775000Y-102165000D02*
X126835000Y-99505000D01*
X146205000Y-117775000D02*
X142605000Y-117205000D01*
X157705000Y-55275000D02*
X161055000Y-56425000D01*
X145805000Y-117325000D02*
X142245000Y-116715000D01*
X151307403Y-109747403D02*
X150850000Y-109290000D01*
X175805000Y-99085000D02*
X173995000Y-102015000D01*
X183955000Y-78205000D02*
X184465000Y-81885000D01*
X117885000Y-90605000D02*
X117465000Y-87055000D01*
X124245000Y-83825000D02*
X124595000Y-80625000D01*
X159705000Y-109535000D02*
X156615000Y-110585000D01*
X181725000Y-87045000D02*
X181285000Y-90595000D01*
X183265000Y-81915000D02*
X183395000Y-85555000D01*
X157465000Y-51085000D02*
X161025000Y-52135000D01*
X123545000Y-105885000D02*
X121425000Y-102935000D01*
X137055000Y-62535000D02*
X139965000Y-61165000D01*
X158585000Y-109115000D02*
X155495000Y-110055000D01*
X117485000Y-71105000D02*
X119155000Y-67765000D01*
X141395000Y-54795000D02*
X144835000Y-54085000D01*
X136205000Y-115995000D02*
X132885000Y-114345000D01*
X153515000Y-110845000D02*
X150265000Y-111135000D01*
X126275000Y-71435000D02*
X128135000Y-68665000D01*
X116425000Y-94865000D02*
X115555000Y-91215000D01*
X170015000Y-103175000D02*
X167675000Y-105505000D01*
X121775000Y-74345000D02*
X123205000Y-71195000D01*
X164175000Y-52545000D02*
X167515000Y-54285000D01*
X143685000Y-53465000D02*
X147175000Y-53025000D01*
X117965000Y-73115000D02*
X119455000Y-69745000D01*
X118875000Y-76805000D02*
X119985000Y-73435000D01*
X118145000Y-80305000D02*
X118875000Y-76805000D01*
X178745000Y-72145000D02*
X179985000Y-75505000D01*
X179225000Y-97505000D02*
X177645000Y-100715000D01*
X179075000Y-76665000D02*
X179815000Y-80065000D01*
X116855000Y-78415000D02*
X117775000Y-74875000D01*
X127695000Y-60375000D02*
X130545000Y-58125000D01*
X138235000Y-116365000D02*
X134875000Y-114945000D01*
X182185000Y-71035000D02*
X183465000Y-74565000D01*
X178385000Y-65655000D02*
X180275000Y-68855000D01*
X149685000Y-57745000D02*
X153015000Y-57985000D01*
X139175000Y-114155000D02*
X135945000Y-112795000D01*
X184695000Y-89505000D02*
X184015000Y-93175000D01*
X129195000Y-104435000D02*
X127025000Y-101885000D01*
X162315000Y-117535000D02*
X158755000Y-118715000D01*
X175075000Y-109485000D02*
X172305000Y-112075000D01*
X179675000Y-87575000D02*
X179165000Y-91025000D01*
X119005000Y-84405000D02*
X119255000Y-81025000D01*
X183735000Y-90535000D02*
X182925000Y-94195000D01*
X145755000Y-49535000D02*
X149535000Y-49345000D01*
X135435000Y-114325000D02*
X132285000Y-112595000D01*
X170235000Y-56555000D02*
X173155000Y-58945000D01*
X147825000Y-116295000D02*
X144335000Y-115905000D01*
X133335000Y-115955000D02*
X130115000Y-114045000D01*
X134205000Y-105675000D02*
X131705000Y-103565000D01*
X116865000Y-76595000D02*
X117965000Y-73115000D01*
X121445000Y-97965000D02*
X120165000Y-94735000D01*
X178095000Y-64525000D02*
X180095000Y-67685000D01*
X126685000Y-67925000D02*
X128885000Y-65335000D01*
X170565000Y-71265000D02*
X172125000Y-74075000D01*
X159715000Y-60635000D02*
X162615000Y-62075000D01*
X182465000Y-81975000D02*
X182585000Y-85615000D01*
X180445000Y-94115000D02*
X179225000Y-97505000D01*
X121065000Y-86905000D02*
X121035000Y-83525000D01*
X166475000Y-110445000D02*
X163455000Y-112205000D01*
X139635000Y-117255000D02*
X136205000Y-115995000D01*
X172255000Y-59215000D02*
X174915000Y-61845000D01*
X119935000Y-87885000D02*
X119805000Y-84385000D01*
X121795000Y-84605000D02*
X122055000Y-81235000D01*
X129675000Y-68655000D02*
X131845000Y-66335000D01*
X115335000Y-80165000D02*
X116065000Y-76485000D01*
X119915000Y-97475000D02*
X118705000Y-94085000D01*
X130785000Y-56515000D02*
X133965000Y-54665000D01*
X148865000Y-112735000D02*
X145555000Y-112455000D01*
X178015000Y-69715000D02*
X179515000Y-72955000D01*
X173955000Y-74175000D02*
X175085000Y-77265000D01*
X133525000Y-106665000D02*
X131025000Y-104565000D01*
X173285000Y-64845000D02*
X175415000Y-67695000D01*
X123685000Y-77425000D02*
X124805000Y-74335000D01*
X131345000Y-110525000D02*
X128565000Y-108295000D01*
X158825000Y-55195000D02*
X162105000Y-56435000D01*
X121135000Y-79455000D02*
X121985000Y-76155000D01*
X131245000Y-108455000D02*
X128655000Y-106175000D01*
X157395000Y-59355000D02*
X160485000Y-60535000D01*
X139025000Y-51735000D02*
X142645000Y-50815000D01*
X119285000Y-101675000D02*
X117665000Y-98315000D01*
X144185000Y-116695000D02*
X140715000Y-115905000D01*
X164925000Y-56035000D02*
X167985000Y-57905000D01*
X152085000Y-111825000D02*
X148805000Y-111935000D01*
X171195000Y-98265000D02*
X169355000Y-100865000D01*
X114055000Y-89325000D02*
X113795000Y-85625000D01*
X173765000Y-98635000D02*
X171935000Y-101455000D01*
X168505000Y-108465000D02*
X165655000Y-110495000D01*
X120165000Y-94735000D02*
X119245000Y-91315000D01*
X151895000Y-53845000D02*
X155375000Y-54315000D01*
X125085000Y-94245000D02*
X124125000Y-91135000D01*
X176875000Y-69305000D02*
X178455000Y-72485000D01*
X116475000Y-89325000D02*
X116205000Y-85645000D01*
X180555000Y-97435000D02*
X178995000Y-100755000D01*
X150795000Y-54175000D02*
X154315000Y-54535000D01*
X176025000Y-101105000D02*
X174025000Y-103995000D01*
X117885000Y-87425000D02*
X117815000Y-83855000D01*
X148725000Y-55755000D02*
X152105000Y-55865000D01*
X134335000Y-110095000D02*
X131505000Y-108145000D01*
X126155000Y-102055000D02*
X124315000Y-99195000D01*
X148995000Y-118335000D02*
X145305000Y-118075000D01*
X134885000Y-61015000D02*
X137845000Y-59455000D01*
X182945000Y-83145000D02*
X182935000Y-86835000D01*
X176815000Y-81765000D02*
X176995000Y-84975000D01*
X181485000Y-100265000D02*
X179715000Y-103515000D01*
X131845000Y-66335000D02*
X134315000Y-64285000D01*
X119455000Y-69745000D02*
X121295000Y-66565000D01*
X125325000Y-59285000D02*
X128245000Y-56835000D01*
X174585000Y-67185000D02*
X176445000Y-70175000D01*
X169355000Y-100865000D02*
X167215000Y-103215000D01*
X169145000Y-108975000D02*
X166225000Y-111085000D01*
X149175000Y-49745000D02*
X152905000Y-49915000D01*
X116995000Y-85455000D02*
X117155000Y-81815000D01*
X122685000Y-97795000D02*
X121395000Y-94615000D01*
X119675000Y-91415000D02*
X119145000Y-87965000D01*
X160255000Y-113615000D02*
X156925000Y-114645000D01*
X169625000Y-58095000D02*
X172405000Y-60425000D01*
X126765000Y-108805000D02*
X124275000Y-106145000D01*
X176135000Y-66615000D02*
X178015000Y-69715000D01*
X140735000Y-109615000D02*
X137755000Y-108335000D01*
X147115000Y-114645000D02*
X143695000Y-114165000D01*
X155535000Y-116175000D02*
X151955000Y-116655000D01*
X136715000Y-109145000D02*
X133935000Y-107455000D01*
X178455000Y-72485000D02*
X179665000Y-75825000D01*
X176835000Y-79325000D02*
X177295000Y-82555000D01*
X170025000Y-110835000D02*
X167045000Y-112935000D01*
X147405000Y-52205000D02*
X151065000Y-52185000D01*
X127755000Y-61395000D02*
X130565000Y-59095000D01*
X159765000Y-109075000D02*
X156645000Y-110165000D01*
X121485000Y-90275000D02*
X121065000Y-86905000D01*
X177185000Y-70715000D02*
X178615000Y-73955000D01*
X133315000Y-107505000D02*
X130705000Y-105375000D01*
X146155000Y-119375000D02*
X142485000Y-118815000D01*
X120825000Y-91045000D02*
X120315000Y-87655000D01*
X153075000Y-115745000D02*
X149545000Y-115945000D01*
X118605000Y-84345000D02*
X118865000Y-80895000D01*
X180325000Y-80775000D02*
X180595000Y-84315000D01*
X168525000Y-110475000D02*
X165515000Y-112455000D01*
X130115000Y-114045000D02*
X127125000Y-111805000D01*
X152945000Y-57575000D02*
X156205000Y-58185000D01*
X120205000Y-84265000D02*
X120495000Y-80845000D01*
X177295000Y-82555000D02*
X177345000Y-84575000D01*
X174555000Y-76905000D02*
X175345000Y-80045000D01*
X170795000Y-63885000D02*
X173075000Y-66495000D01*
X152820000Y-109640000D02*
X151307403Y-109747403D01*
X150075000Y-50155000D02*
X153775000Y-50415000D01*
X134235000Y-58615000D02*
X137385000Y-57035000D01*
X136795000Y-55545000D02*
X140185000Y-54305000D01*
X166475000Y-66425000D02*
X168665000Y-68695000D01*
X135895000Y-118035000D02*
X132475000Y-116405000D01*
X145495000Y-55205000D02*
X148955000Y-54945000D01*
X178215000Y-89585000D02*
X177465000Y-92905000D01*
X158715000Y-111195000D02*
X155505000Y-112105000D01*
X122735000Y-65195000D02*
X125035000Y-62415000D01*
X130565000Y-59095000D02*
X133595000Y-57135000D01*
X177555000Y-106625000D02*
X175075000Y-109485000D01*
X158375000Y-115085000D02*
X154925000Y-115885000D01*
X167345000Y-58915000D02*
X170145000Y-61085000D01*
X143985000Y-52195000D02*
X147655000Y-51795000D01*
X114755000Y-78745000D02*
X115615000Y-75095000D01*
X120555000Y-66975000D02*
X122665000Y-63965000D01*
X164265000Y-106145000D02*
X161525000Y-107805000D01*
X169955000Y-68355000D02*
X171845000Y-71015000D01*
X184465000Y-81885000D02*
X184585000Y-85655000D01*
X164305000Y-57065000D02*
X167345000Y-58915000D01*
X126835000Y-99505000D02*
X125235000Y-96635000D01*
X179925000Y-91305000D02*
X178995000Y-94725000D01*
X135545000Y-53035000D02*
X139025000Y-51735000D01*
X173295000Y-76935000D02*
X174105000Y-79975000D01*
X149805000Y-119545000D02*
X146155000Y-119375000D01*
X158755000Y-108205000D02*
X156232525Y-109012525D01*
X120735000Y-68225000D02*
X122735000Y-65195000D01*
X124315000Y-99195000D02*
X122825000Y-96145000D01*
X126405000Y-100315000D02*
X124745000Y-97455000D01*
X156925000Y-114645000D02*
X153475000Y-115295000D01*
X138025000Y-55905000D02*
X141395000Y-54795000D01*
X165155000Y-55705000D02*
X168295000Y-57625000D01*
X121225000Y-69805000D02*
X123065000Y-66805000D01*
X175675000Y-91875000D02*
X174645000Y-94975000D01*
X116185000Y-74595000D02*
X117485000Y-71105000D01*
X179845000Y-93315000D02*
X178695000Y-96695000D01*
X118565000Y-76425000D02*
X119715000Y-73025000D01*
X177055000Y-89235000D02*
X176335000Y-92495000D01*
X179205000Y-96485000D02*
X177745000Y-99705000D01*
X121915000Y-98035000D02*
X120605000Y-94795000D01*
X156355000Y-52065000D02*
X159925000Y-53025000D01*
X152655000Y-114985000D02*
X149185000Y-115145000D01*
X117015000Y-95395000D02*
X116085000Y-91835000D01*
X128635000Y-60095000D02*
X131575000Y-57915000D01*
X126455000Y-74595000D02*
X127955000Y-71795000D01*
X168115000Y-111265000D02*
X165035000Y-113185000D01*
X169375000Y-103285000D02*
X166985000Y-105575000D01*
X117665000Y-98315000D02*
X116425000Y-94865000D01*
X161065000Y-55565000D02*
X164305000Y-57065000D01*
X119805000Y-103355000D02*
X118015000Y-100075000D01*
X122105000Y-102505000D02*
X120325000Y-99345000D01*
X167515000Y-58545000D02*
X170325000Y-60715000D01*
X173715000Y-105635000D02*
X171225000Y-108225000D01*
X179665000Y-77325000D02*
X180325000Y-80775000D01*
X142645000Y-50815000D02*
X146315000Y-50285000D01*
X136385000Y-116505000D02*
X133065000Y-114905000D01*
X123555000Y-107765000D02*
X121255000Y-104835000D01*
X181815000Y-74655000D02*
X182735000Y-78235000D01*
X119155000Y-67765000D02*
X121175000Y-64615000D01*
X174105000Y-79975000D02*
X174525000Y-83125000D01*
X157365000Y-113705000D02*
X153995000Y-114415000D01*
X184305000Y-89395000D02*
X183625000Y-93075000D01*
X160095000Y-115795000D02*
X156555000Y-116785000D01*
X184875000Y-81945000D02*
X184985000Y-85725000D01*
X135665000Y-58285000D02*
X138795000Y-56895000D01*
X172005000Y-69785000D02*
X173675000Y-72645000D01*
X134405000Y-108725000D02*
X131685000Y-106755000D01*
X116685000Y-82565000D02*
X117155000Y-78965000D01*
X176145000Y-62655000D02*
X178385000Y-65655000D01*
X174725000Y-72965000D02*
X175965000Y-76055000D01*
X124395000Y-109835000D02*
X121905000Y-107035000D01*
X135385000Y-63065000D02*
X138205000Y-61495000D01*
X150335000Y-113135000D02*
X146985000Y-113025000D01*
X128995000Y-61365000D02*
X131795000Y-59205000D01*
X144855000Y-52865000D02*
X148435000Y-52555000D01*
X128095000Y-99955000D02*
X126395000Y-97155000D01*
X143685000Y-112525000D02*
X140425000Y-111625000D01*
X118645000Y-74785000D02*
X119955000Y-71455000D01*
X138685000Y-57795000D02*
X141965000Y-56715000D01*
X129975000Y-63165000D02*
X132775000Y-60965000D01*
X175085000Y-97885000D02*
X173375000Y-100795000D01*
X168255000Y-113585000D02*
X165055000Y-115435000D01*
X125105000Y-103985000D02*
X123115000Y-101105000D01*
X174725000Y-105675000D02*
X172235000Y-108365000D01*
X130115000Y-102495000D02*
X128095000Y-99955000D01*
X122165000Y-76925000D02*
X123315000Y-73745000D01*
X182565000Y-96645000D02*
X181115000Y-100115000D01*
X123065000Y-66805000D02*
X125285000Y-63935000D01*
X118195000Y-96375000D02*
X117135000Y-92865000D01*
X124225000Y-89695000D02*
X123835000Y-86505000D01*
X129055000Y-56735000D02*
X132185000Y-54715000D01*
X133065000Y-114905000D02*
X129955000Y-112965000D01*
X176025000Y-72925000D02*
X177235000Y-76085000D01*
X170835000Y-104655000D02*
X168365000Y-107025000D01*
X122065000Y-100905000D02*
X120455000Y-97725000D01*
X175055000Y-69365000D02*
X176675000Y-72415000D01*
X123565000Y-87985000D02*
X123395000Y-84775000D01*
X172235000Y-108365000D02*
X169565000Y-110685000D01*
X129235000Y-114415000D02*
X126255000Y-112115000D01*
X155495000Y-110055000D02*
X152315000Y-110595000D01*
X123935000Y-94595000D02*
X122965000Y-91455000D01*
X134985000Y-106715000D02*
X132395000Y-104735000D01*
X131925000Y-66845000D02*
X134345000Y-64805000D01*
X117665000Y-93345000D02*
X116945000Y-89795000D01*
X127715000Y-59825000D02*
X130565000Y-57625000D01*
X129905000Y-62165000D02*
X132685000Y-60055000D01*
X123945000Y-73315000D02*
X125515000Y-70365000D01*
X164265000Y-64085000D02*
X166775000Y-66125000D01*
X181895000Y-89315000D02*
X181205000Y-92875000D01*
X143655000Y-109645000D02*
X140505000Y-108665000D01*
X157135000Y-57195000D02*
X160355000Y-58295000D01*
X116365000Y-91175000D02*
X115895000Y-87525000D01*
X171955000Y-111845000D02*
X168945000Y-114085000D01*
X135425000Y-116525000D02*
X132135000Y-114835000D01*
X150435000Y-56165000D02*
X153825000Y-56485000D01*
X132295000Y-64865000D02*
X134875000Y-62925000D01*
X122725000Y-76465000D02*
X123945000Y-73315000D01*
X133965000Y-62085000D02*
X136835000Y-60385000D01*
X157015000Y-50165000D02*
X160635000Y-51155000D01*
X128245000Y-56835000D02*
X131315000Y-54765000D01*
X142065000Y-50115000D02*
X145755000Y-49535000D01*
X174935000Y-63075000D02*
X177145000Y-65965000D01*
X142285000Y-114255000D02*
X138965000Y-113225000D01*
X147175000Y-53025000D02*
X150725000Y-52975000D01*
X155845000Y-51145000D02*
X159455000Y-52035000D01*
X154245000Y-57365000D02*
X157475000Y-58125000D01*
X115015000Y-83835000D02*
X115335000Y-80165000D01*
X160415000Y-111405000D02*
X157235000Y-112495000D01*
X122375000Y-88125000D02*
X122195000Y-84875000D01*
X177065000Y-103905000D02*
X174815000Y-106815000D01*
X152165000Y-50655000D02*
X155845000Y-51145000D01*
X175175000Y-105755000D02*
X172775000Y-108405000D01*
X126145000Y-110415000D02*
X123555000Y-107765000D01*
X161325000Y-116635000D02*
X157775000Y-117735000D01*
X179395000Y-71645000D02*
X180675000Y-75015000D01*
X118235000Y-86555000D02*
X118265000Y-82945000D01*
X168895000Y-63725000D02*
X171265000Y-66175000D01*
X122495000Y-91195000D02*
X121945000Y-87905000D01*
X165305000Y-63855000D02*
X167775000Y-65965000D01*
X154185000Y-118425000D02*
X150545000Y-118735000D01*
X116735000Y-70825000D02*
X118405000Y-67455000D01*
X173585000Y-96385000D02*
X172015000Y-99225000D01*
X132185000Y-62885000D02*
X134885000Y-61015000D01*
X155475000Y-51485000D02*
X159065000Y-52335000D01*
X137015000Y-59405000D02*
X140125000Y-58115000D01*
X159405000Y-59215000D02*
X162405000Y-60585000D01*
X156232525Y-109012525D02*
X154400000Y-109450000D01*
X177925000Y-75615000D02*
X178805000Y-78955000D01*
X153415000Y-56825000D02*
X156715000Y-57495000D01*
X163165000Y-109645000D02*
X160135000Y-111085000D01*
X184145000Y-83145000D02*
X184135000Y-86885000D01*
X150585000Y-113525000D02*
X147185000Y-113445000D01*
X171265000Y-66175000D02*
X173305000Y-68855000D01*
X135625000Y-59215000D02*
X138685000Y-57795000D01*
X155625000Y-60105000D02*
X158655000Y-61065000D01*
X161525000Y-62395000D02*
X164265000Y-64085000D01*
X130205000Y-114585000D02*
X127175000Y-112365000D01*
X143845000Y-110515000D02*
X140735000Y-109615000D01*
X132175000Y-105075000D02*
X129855000Y-102805000D01*
X165245000Y-62325000D02*
X167845000Y-64395000D01*
X136835000Y-60385000D02*
X139895000Y-59045000D01*
X173075000Y-66495000D02*
X175055000Y-69365000D01*
X132795000Y-110065000D02*
X130025000Y-107975000D01*
X177385000Y-75265000D02*
X178305000Y-78555000D01*
X143695000Y-114165000D02*
X140345000Y-113285000D01*
X175385000Y-84125000D02*
X175285000Y-87315000D01*
X149095000Y-51345000D02*
X152715000Y-51505000D01*
X113795000Y-85625000D02*
X113945000Y-81765000D01*
X177255000Y-64735000D02*
X179255000Y-67825000D01*
X166085000Y-116255000D02*
X162625000Y-117845000D01*
X178735000Y-88815000D02*
X178075000Y-92185000D01*
X157475000Y-58125000D02*
X160625000Y-59285000D01*
X119715000Y-73025000D02*
X121225000Y-69805000D01*
X172995000Y-102035000D02*
X170835000Y-104655000D01*
X165515000Y-112455000D02*
X162315000Y-114075000D01*
X117235000Y-94755000D02*
X116365000Y-91175000D01*
X124735000Y-90105000D02*
X124295000Y-86985000D01*
X175745000Y-83255000D02*
X175745000Y-86515000D01*
X132285000Y-112595000D02*
X129335000Y-110515000D01*
X158385000Y-56735000D02*
X161565000Y-57945000D01*
X123145000Y-90425000D02*
X122685000Y-87215000D01*
X143455000Y-118595000D02*
X139875000Y-117745000D01*
X139685000Y-113905000D02*
X136435000Y-112585000D01*
X174445000Y-69905000D02*
X176025000Y-72925000D01*
X129205000Y-105025000D02*
X126985000Y-102495000D01*
X120105000Y-101505000D02*
X118475000Y-98185000D01*
X119635000Y-99755000D02*
X118195000Y-96375000D01*
X119715000Y-103965000D02*
X117865000Y-100685000D01*
X117175000Y-72945000D02*
X118655000Y-69545000D01*
X149895000Y-110345000D02*
X146715000Y-110175000D01*
X132885000Y-114345000D02*
X129815000Y-112375000D01*
X125285000Y-63935000D02*
X127755000Y-61395000D01*
X139995000Y-59435000D02*
X143175000Y-58475000D01*
X173665000Y-76745000D02*
X174495000Y-79855000D01*
X124255000Y-78365000D02*
X125275000Y-75285000D01*
X121185000Y-77465000D02*
X122235000Y-74275000D01*
X167105000Y-54505000D02*
X170235000Y-56555000D01*
X117465000Y-87055000D02*
X117435000Y-83465000D01*
X147075000Y-56245000D02*
X150435000Y-56165000D01*
X169335000Y-114305000D02*
X166085000Y-116255000D01*
X119545000Y-77395000D02*
X120605000Y-74045000D01*
X173795000Y-97755000D02*
X172075000Y-100575000D01*
X135055000Y-59065000D02*
X138185000Y-57565000D01*
X182935000Y-96795000D02*
X181485000Y-100265000D01*
X184585000Y-85655000D02*
X184305000Y-89395000D01*
X124745000Y-97455000D02*
X123435000Y-94395000D01*
X165405000Y-59555000D02*
X168225000Y-61565000D01*
X158655000Y-61065000D02*
X161525000Y-62395000D01*
X179165000Y-91025000D02*
X178275000Y-94355000D01*
X136905000Y-118005000D02*
X133435000Y-116455000D01*
X144055000Y-55025000D02*
X147515000Y-54605000D01*
X162605000Y-107665000D02*
X159765000Y-109075000D01*
X149625000Y-57345000D02*
X152945000Y-57575000D01*
X169045000Y-101865000D02*
X166795000Y-104145000D01*
X130785000Y-107045000D02*
X128325000Y-104685000D01*
X159165000Y-56565000D02*
X162385000Y-57885000D01*
X166695000Y-108835000D02*
X163805000Y-110665000D01*
X155505000Y-112105000D02*
X152195000Y-112615000D01*
X156655000Y-59555000D02*
X159715000Y-60635000D01*
X118725000Y-87855000D02*
X118605000Y-84345000D01*
X177235000Y-76085000D02*
X178075000Y-79395000D01*
X166335000Y-108105000D02*
X163505000Y-109915000D01*
X142795000Y-109845000D02*
X139775000Y-108815000D01*
X174695000Y-109305000D02*
X171955000Y-111845000D01*
X114285000Y-82485000D02*
X114755000Y-78745000D01*
X123505000Y-96705000D02*
X122305000Y-93555000D01*
X170995000Y-103275000D02*
X168665000Y-105695000D01*
X143175000Y-58475000D02*
X146395000Y-57915000D01*
X179785000Y-84075000D02*
X179675000Y-87575000D01*
X178615000Y-73955000D02*
X179665000Y-77325000D01*
X176855000Y-64865000D02*
X178855000Y-67935000D01*
X180345000Y-99875000D02*
X178555000Y-103095000D01*
X170045000Y-63705000D02*
X172385000Y-66265000D01*
X173845000Y-92455000D02*
X172715000Y-95425000D01*
X167175000Y-60265000D02*
X169945000Y-62515000D01*
X152495000Y-59535000D02*
X155625000Y-60105000D01*
X131675000Y-56415000D02*
X134905000Y-54645000D01*
X153115000Y-110095000D02*
X149895000Y-110345000D01*
X179985000Y-75505000D02*
X180835000Y-78945000D01*
X122695000Y-78005000D02*
X123725000Y-74855000D01*
X154515000Y-118785000D02*
X150835000Y-119125000D01*
X143035000Y-58095000D02*
X146385000Y-57515000D01*
X124225000Y-66545000D02*
X126455000Y-63825000D01*
X161965000Y-58575000D02*
X164955000Y-60215000D01*
X177035000Y-95445000D02*
X175635000Y-98555000D01*
X126015000Y-62545000D02*
X128635000Y-60095000D01*
X131705000Y-103565000D02*
X129545000Y-101215000D01*
X138285000Y-53245000D02*
X141825000Y-52215000D01*
X120505000Y-66315000D02*
X122695000Y-63295000D01*
X128415000Y-102985000D02*
X126405000Y-100315000D01*
X127405000Y-67645000D02*
X129635000Y-65135000D01*
X175175000Y-65945000D02*
X177135000Y-68955000D01*
X121615000Y-68305000D02*
X123665000Y-65295000D01*
X172265000Y-109445000D02*
X169485000Y-111755000D01*
X141735000Y-117415000D02*
X138235000Y-116365000D01*
X182315000Y-89255000D02*
X181625000Y-92825000D01*
X166385000Y-62665000D02*
X168915000Y-64845000D01*
X128905000Y-105865000D02*
X126615000Y-103315000D01*
X162935000Y-62725000D02*
X165595000Y-64585000D01*
X126235000Y-65285000D02*
X128635000Y-62765000D01*
X132135000Y-114835000D02*
X129005000Y-112775000D01*
X137695000Y-107365000D02*
X134995000Y-105705000D01*
X137045000Y-63025000D02*
X139895000Y-61645000D01*
X175345000Y-80045000D02*
X175745000Y-83255000D01*
X170625000Y-112395000D02*
X167545000Y-114505000D01*
X120005000Y-102135000D02*
X118315000Y-98815000D01*
X123205000Y-71195000D02*
X124975000Y-68255000D01*
X144495000Y-58605000D02*
X147695000Y-58205000D01*
X168665000Y-68695000D02*
X170565000Y-71265000D01*
X160245000Y-51445000D02*
X163755000Y-52795000D01*
X153905000Y-59335000D02*
X157055000Y-60095000D01*
X176865000Y-102765000D02*
X174725000Y-105675000D01*
X162625000Y-117845000D02*
X159055000Y-119045000D01*
X130275000Y-101425000D02*
X128365000Y-98885000D01*
X128965000Y-64675000D02*
X131475000Y-62425000D01*
X181725000Y-94015000D02*
X180555000Y-97435000D01*
X123315000Y-70155000D02*
X125215000Y-67225000D01*
X175635000Y-98555000D02*
X173875000Y-101485000D01*
X140845000Y-52045000D02*
X144485000Y-51305000D01*
X123835000Y-86505000D02*
X123855000Y-83285000D01*
X122745000Y-61985000D02*
X125325000Y-59285000D01*
X168475000Y-66095000D02*
X170625000Y-68555000D01*
X168845000Y-100855000D02*
X166625000Y-103175000D01*
X117155000Y-78965000D02*
X118005000Y-75475000D01*
X180535000Y-67655000D02*
X182185000Y-71035000D01*
X134905000Y-54645000D02*
X138285000Y-53245000D01*
X127905000Y-61805000D02*
X130645000Y-59535000D01*
X174835000Y-93305000D02*
X173585000Y-96385000D01*
X163805000Y-110665000D02*
X160695000Y-112155000D01*
X151655000Y-55425000D02*
X154995000Y-55875000D01*
X144135000Y-119925000D02*
X140485000Y-119165000D01*
X178165000Y-102975000D02*
X176035000Y-105965000D01*
X132685000Y-60055000D02*
X135665000Y-58285000D01*
X176075000Y-72085000D02*
X177385000Y-75265000D01*
X129335000Y-110515000D02*
X126645000Y-108125000D01*
X146315000Y-50285000D02*
X150075000Y-50155000D01*
X173135000Y-105695000D02*
X170685000Y-108175000D01*
X125085000Y-61205000D02*
X127825000Y-58685000D01*
X129955000Y-112965000D02*
X127035000Y-110675000D01*
X175345000Y-89715000D02*
X174555000Y-92865000D01*
X141695000Y-50605000D02*
X145425000Y-49975000D01*
X125555000Y-103905000D02*
X123565000Y-101075000D01*
X161815000Y-114725000D02*
X158455000Y-115895000D01*
X123875000Y-102995000D02*
X122025000Y-100015000D01*
X122375000Y-71055000D02*
X124165000Y-68025000D01*
X168945000Y-105975000D02*
X166335000Y-108105000D01*
X146895000Y-111405000D02*
X143695000Y-110895000D01*
X124385000Y-109255000D02*
X121935000Y-106425000D01*
X173405000Y-92485000D02*
X172235000Y-95475000D01*
X167485000Y-61495000D02*
X170045000Y-63705000D01*
X123115000Y-101105000D02*
X121445000Y-97965000D01*
X123435000Y-94395000D02*
X122495000Y-91195000D01*
X127415000Y-64555000D02*
X129905000Y-62165000D01*
X177745000Y-73935000D02*
X178815000Y-77225000D01*
X143045000Y-114845000D02*
X139685000Y-113905000D01*
X126455000Y-63825000D02*
X128995000Y-61365000D01*
X124775000Y-75455000D02*
X126145000Y-72475000D01*
X123435000Y-63655000D02*
X125915000Y-60935000D01*
X179765000Y-71485000D02*
X181055000Y-74895000D01*
X131695000Y-111255000D02*
X128875000Y-109095000D01*
X136125000Y-109285000D02*
X133315000Y-107505000D01*
X138205000Y-61495000D02*
X141235000Y-60275000D01*
X136895000Y-54635000D02*
X140285000Y-53445000D01*
X177795000Y-84745000D02*
X177605000Y-88145000D01*
X119085000Y-71445000D02*
X120735000Y-68225000D01*
X171235000Y-111405000D02*
X168255000Y-113585000D01*
X154245000Y-53715000D02*
X157705000Y-54445000D01*
X133705000Y-55705000D02*
X136975000Y-54175000D01*
X149135000Y-110745000D02*
X145935000Y-110485000D01*
X178515000Y-82725000D02*
X178565000Y-86195000D01*
X119215000Y-94395000D02*
X118355000Y-90945000D01*
X177325000Y-102795000D02*
X175175000Y-105755000D01*
X180115000Y-87085000D02*
X179665000Y-90555000D01*
X156245000Y-58615000D02*
X159365000Y-59625000D01*
X181035000Y-89645000D02*
X180315000Y-93115000D01*
X175755000Y-65395000D02*
X177745000Y-68415000D01*
X125905000Y-65055000D02*
X128375000Y-62465000D01*
X152965000Y-113745000D02*
X149535000Y-113945000D01*
X122195000Y-84875000D02*
X122415000Y-81555000D01*
X156965000Y-112155000D02*
X153665000Y-112845000D01*
X152315000Y-110595000D02*
X149135000Y-110745000D01*
X117355000Y-73615000D02*
X118775000Y-70205000D01*
X182985000Y-75795000D02*
X183765000Y-79435000D01*
X115895000Y-87525000D02*
X115815000Y-83875000D01*
X153445000Y-117715000D02*
X149835000Y-117945000D01*
X134805000Y-107075000D02*
X132175000Y-105075000D01*
X175085000Y-80895000D02*
X175385000Y-84125000D01*
X162625000Y-108115000D02*
X159705000Y-109535000D01*
X146465000Y-115385000D02*
X143045000Y-114845000D01*
X119925000Y-77545000D02*
X120965000Y-74225000D01*
X175975000Y-74895000D02*
X176975000Y-78125000D01*
X177605000Y-88145000D02*
X177035000Y-91405000D01*
X175415000Y-67695000D02*
X177185000Y-70715000D01*
X121465000Y-70205000D02*
X123295000Y-67165000D01*
X180835000Y-78945000D02*
X181305000Y-82495000D01*
X121175000Y-64615000D02*
X123485000Y-61745000D01*
X155375000Y-54315000D02*
X158825000Y-55195000D01*
X129005000Y-112775000D02*
X126145000Y-110415000D01*
X137325000Y-110355000D02*
X134405000Y-108725000D01*
X137445000Y-110855000D02*
X134465000Y-109235000D01*
X166585000Y-112745000D02*
X163415000Y-114455000D01*
X166265000Y-54945000D02*
X169385000Y-56925000D01*
X122695000Y-63295000D02*
X125165000Y-60555000D01*
X183765000Y-79435000D02*
X184145000Y-83145000D01*
X183145000Y-78225000D02*
X183665000Y-81895000D01*
X174975000Y-75655000D02*
X175905000Y-78795000D01*
X120625000Y-86245000D02*
X120675000Y-82845000D01*
X154465000Y-54965000D02*
X157855000Y-55735000D01*
X161525000Y-107805000D02*
X158585000Y-109115000D01*
X176215000Y-61505000D02*
X178525000Y-64445000D01*
X176175000Y-91545000D02*
X175175000Y-94715000D01*
X121905000Y-107035000D02*
X119715000Y-103965000D01*
X125585000Y-93215000D02*
X124735000Y-90105000D01*
X174705000Y-97735000D02*
X173015000Y-100615000D01*
X116135000Y-80215000D02*
X116865000Y-76595000D01*
X155415000Y-119855000D02*
X151645000Y-120285000D01*
X181755000Y-71055000D02*
X183055000Y-74595000D01*
X125965000Y-108575000D02*
X123545000Y-105885000D01*
X174385000Y-77735000D02*
X175085000Y-80895000D01*
X130255000Y-66215000D02*
X132665000Y-64035000D01*
X147655000Y-51795000D02*
X151265000Y-51795000D01*
X145415000Y-51585000D02*
X149095000Y-51345000D01*
X123525000Y-109505000D02*
X121075000Y-106615000D01*
X171845000Y-71015000D02*
X173375000Y-73865000D01*
X129545000Y-101215000D02*
X127685000Y-98605000D01*
X171905000Y-59435000D02*
X174495000Y-61975000D01*
X120315000Y-87655000D02*
X120205000Y-84265000D01*
X174495000Y-61975000D02*
X176855000Y-64865000D01*
X177145000Y-65965000D02*
X179065000Y-69135000D01*
X155365000Y-60485000D02*
X158435000Y-61445000D01*
X120055000Y-81035000D02*
X120735000Y-77615000D01*
X167215000Y-103215000D02*
X164775000Y-105285000D01*
X172405000Y-60425000D02*
X174935000Y-63075000D01*
X176775000Y-88345000D02*
X176175000Y-91545000D01*
X120735000Y-77615000D02*
X121775000Y-74345000D01*
X127935000Y-58085000D02*
X130975000Y-55915000D01*
X122235000Y-74275000D02*
X123665000Y-71175000D01*
X169005000Y-57145000D02*
X171905000Y-59435000D01*
X168945000Y-114085000D02*
X165715000Y-115995000D01*
X138895000Y-117865000D02*
X135425000Y-116525000D01*
X127805000Y-71235000D02*
X129675000Y-68655000D01*
X157855000Y-55735000D02*
X161125000Y-56885000D01*
X128385000Y-69665000D02*
X130465000Y-67155000D01*
X125455000Y-58625000D02*
X128385000Y-56235000D01*
X118695000Y-79445000D02*
X119525000Y-75995000D01*
X166775000Y-66125000D02*
X168985000Y-68435000D01*
X137385000Y-57035000D02*
X140665000Y-55835000D01*
X150045000Y-56555000D02*
X153415000Y-56825000D01*
X167695000Y-64795000D02*
X170025000Y-67185000D01*
X160485000Y-60535000D02*
X163365000Y-62055000D01*
X118605000Y-90065000D02*
X118235000Y-86555000D01*
X118265000Y-82945000D02*
X118695000Y-79445000D01*
X169565000Y-110685000D02*
X166585000Y-112745000D01*
X161675000Y-116925000D02*
X158125000Y-118055000D01*
X146735000Y-56675000D02*
X150045000Y-56555000D01*
X170685000Y-108175000D02*
X167885000Y-110445000D01*
X143385000Y-57195000D02*
X146735000Y-56675000D01*
X131015000Y-111265000D02*
X128205000Y-109045000D01*
X161875000Y-54165000D02*
X165155000Y-55705000D01*
X179065000Y-89305000D02*
X178355000Y-92695000D01*
X176975000Y-78125000D02*
X177585000Y-81435000D01*
X124265000Y-80125000D02*
X125065000Y-77035000D01*
X124825000Y-70745000D02*
X126685000Y-67925000D01*
X177465000Y-92905000D02*
X176335000Y-96125000D01*
X145905000Y-60015000D02*
X149165000Y-59765000D01*
X126155000Y-95765000D02*
X125005000Y-92805000D01*
X144315000Y-59455000D02*
X147525000Y-59015000D01*
X179065000Y-69135000D02*
X180605000Y-72455000D01*
X147055000Y-111025000D02*
X143845000Y-110515000D01*
X123775000Y-91395000D02*
X123185000Y-88205000D01*
X145315000Y-56035000D02*
X148725000Y-55755000D01*
X158455000Y-115895000D02*
X154855000Y-116705000D01*
X177155000Y-106485000D02*
X174695000Y-109305000D01*
X177035000Y-91405000D02*
X176055000Y-94655000D01*
X118785000Y-96815000D02*
X117665000Y-93345000D01*
X146875000Y-120645000D02*
X147180000Y-120950000D01*
X141125000Y-51565000D02*
X144755000Y-50865000D01*
X120415000Y-64995000D02*
X122745000Y-61985000D01*
X159075000Y-54015000D02*
X162455000Y-55275000D01*
X181625000Y-92825000D02*
X180555000Y-96315000D01*
X150225000Y-58555000D02*
X153465000Y-58855000D01*
X170905000Y-109055000D02*
X168115000Y-111265000D01*
X134875000Y-114945000D02*
X131675000Y-113155000D01*
X115815000Y-83875000D02*
X116135000Y-80215000D01*
X161715000Y-113895000D02*
X158375000Y-115085000D01*
X118405000Y-67455000D02*
X120435000Y-64275000D01*
X122685000Y-87215000D02*
X122625000Y-83835000D01*
X122415000Y-81555000D02*
X123025000Y-78335000D01*
X125185000Y-99105000D02*
X123685000Y-96125000D01*
X140485000Y-119165000D02*
X136905000Y-118005000D01*
X184015000Y-93175000D02*
X182935000Y-96795000D01*
X154855000Y-116705000D02*
X151335000Y-117095000D01*
X125235000Y-96635000D02*
X124005000Y-93605000D01*
X116305000Y-77175000D02*
X117355000Y-73615000D01*
X176285000Y-70725000D02*
X177745000Y-73935000D01*
X125165000Y-60555000D02*
X127935000Y-58085000D01*
X130015000Y-109005000D02*
X127425000Y-106645000D01*
X161125000Y-56885000D02*
X164275000Y-58415000D01*
X134075000Y-61055000D02*
X137015000Y-59405000D01*
X162455000Y-55275000D02*
X165645000Y-56885000D01*
X121935000Y-106425000D02*
X119805000Y-103355000D01*
X173385000Y-95875000D02*
X171835000Y-98765000D01*
X152105000Y-55865000D02*
X155505000Y-56385000D01*
X178555000Y-103095000D02*
X176415000Y-106135000D01*
X122095000Y-103225000D02*
X120275000Y-100125000D01*
X146875000Y-120645000D02*
X143105000Y-120155000D01*
X129785000Y-69175000D02*
X131925000Y-66845000D01*
X123185000Y-88205000D02*
X122995000Y-84955000D01*
X146385000Y-57515000D02*
X149625000Y-57345000D01*
X117885000Y-92575000D02*
X117245000Y-89025000D01*
X171835000Y-98765000D02*
X169995000Y-101355000D01*
X181115000Y-100115000D02*
X179305000Y-103415000D01*
X177405000Y-91565000D02*
X176435000Y-94775000D01*
X147335000Y-54215000D02*
X150795000Y-54175000D01*
X125295000Y-102915000D02*
X123395000Y-100005000D01*
X140505000Y-108665000D02*
X137695000Y-107365000D01*
X160485000Y-116085000D02*
X156995000Y-117095000D01*
X163415000Y-59765000D02*
X166275000Y-61585000D01*
X120675000Y-82845000D02*
X121135000Y-79455000D01*
X174605000Y-89335000D02*
X173845000Y-92455000D01*
X149835000Y-117945000D02*
X146205000Y-117775000D01*
X125035000Y-62415000D02*
X127715000Y-59825000D01*
X151365000Y-116295000D02*
X147825000Y-116295000D01*
X130545000Y-58125000D02*
X133565000Y-56235000D01*
X178255000Y-104295000D02*
X176025000Y-107245000D01*
X127815000Y-100255000D02*
X126115000Y-97485000D01*
X172125000Y-74075000D02*
X173295000Y-76935000D01*
X119145000Y-87965000D02*
X119005000Y-84405000D01*
X181285000Y-90595000D02*
X180445000Y-94115000D01*
X180555000Y-96315000D02*
X179125000Y-99625000D01*
X115535000Y-93055000D02*
X114865000Y-89345000D01*
X142345000Y-110965000D02*
X139265000Y-109905000D01*
X175875000Y-102805000D02*
X173715000Y-105635000D01*
X150555000Y-114725000D02*
X147115000Y-114645000D01*
X136995000Y-60755000D02*
X139995000Y-59435000D01*
X114485000Y-78035000D02*
X115405000Y-74405000D01*
X144275000Y-57425000D02*
X147565000Y-57005000D01*
X155105000Y-119505000D02*
X151395000Y-119895000D01*
X156555000Y-115145000D02*
X153075000Y-115745000D01*
X127595000Y-65555000D02*
X129975000Y-63165000D01*
X175345000Y-100685000D02*
X173385000Y-103515000D01*
X172685000Y-63555000D02*
X174965000Y-66345000D01*
X134465000Y-109235000D02*
X131705000Y-107285000D01*
X127125000Y-111805000D02*
X124385000Y-109255000D01*
X150265000Y-111135000D02*
X147055000Y-111025000D01*
X167885000Y-110445000D02*
X164895000Y-112345000D01*
X175665000Y-90185000D02*
X174835000Y-93305000D01*
X159435000Y-113485000D02*
X156065000Y-114435000D01*
X152775000Y-112155000D02*
X149485000Y-112345000D01*
X141355000Y-53565000D02*
X144855000Y-52865000D01*
X123025000Y-78335000D02*
X124035000Y-75165000D01*
X178195000Y-84805000D02*
X178005000Y-88215000D01*
X159915000Y-114165000D02*
X156555000Y-115145000D01*
X184365000Y-78215000D02*
X184875000Y-81945000D01*
X127025000Y-101885000D02*
X125185000Y-99105000D01*
X126745000Y-67195000D02*
X128965000Y-64675000D01*
X157235000Y-112495000D02*
X153945000Y-113205000D01*
X174495000Y-79855000D02*
X174925000Y-82985000D01*
X144815000Y-55705000D02*
X148215000Y-55375000D01*
X137895000Y-54665000D02*
X141355000Y-53565000D01*
X180925000Y-82765000D02*
X180955000Y-86395000D01*
X171175000Y-67315000D02*
X173105000Y-70015000D01*
X177745000Y-99705000D02*
X175875000Y-102805000D01*
X131505000Y-108145000D02*
X128905000Y-105865000D01*
X130975000Y-55915000D02*
X134185000Y-54105000D01*
X123805000Y-78515000D02*
X124775000Y-75455000D01*
X119805000Y-84385000D02*
X120055000Y-81035000D01*
X158755000Y-118715000D02*
X155105000Y-119505000D01*
X165085000Y-107525000D02*
X162195000Y-109255000D01*
X123205000Y-73005000D02*
X124805000Y-69995000D01*
X134055000Y-113165000D02*
X131015000Y-111265000D01*
X124295000Y-86985000D02*
X124245000Y-83825000D01*
X159365000Y-59625000D02*
X162355000Y-61015000D01*
X171225000Y-108225000D02*
X168525000Y-110475000D01*
X143915000Y-119485000D02*
X140285000Y-118695000D01*
X114735000Y-81905000D02*
X115265000Y-78205000D01*
X142245000Y-116715000D02*
X138795000Y-115715000D01*
X164475000Y-53565000D02*
X167735000Y-55355000D01*
X142115000Y-55855000D02*
X145495000Y-55205000D01*
X131575000Y-57915000D02*
X134645000Y-56115000D01*
X155835000Y-55635000D02*
X159165000Y-56565000D01*
X178275000Y-94355000D02*
X176995000Y-97605000D01*
X116205000Y-85645000D02*
X116335000Y-82025000D01*
X138795000Y-56895000D02*
X142115000Y-55855000D01*
X119245000Y-91315000D02*
X118725000Y-87855000D01*
X123485000Y-61745000D02*
X126175000Y-59055000D01*
X118015000Y-100075000D02*
X116585000Y-96635000D01*
X170805000Y-66255000D02*
X172865000Y-68915000D01*
X140565000Y-112935000D02*
X137335000Y-111685000D01*
X178305000Y-78555000D02*
X178845000Y-81955000D01*
X135945000Y-112795000D02*
X132875000Y-111075000D01*
X126975000Y-100445000D02*
X125285000Y-97625000D01*
X120965000Y-89615000D02*
X120625000Y-86245000D01*
X174165000Y-89435000D02*
X173405000Y-92485000D01*
X120325000Y-99345000D02*
X118925000Y-96045000D01*
X118315000Y-98815000D02*
X117015000Y-95395000D01*
X137305000Y-114725000D02*
X134055000Y-113165000D01*
X151335000Y-117095000D02*
X147745000Y-117095000D01*
X126985000Y-102495000D02*
X125075000Y-99705000D01*
X160135000Y-111085000D02*
X156965000Y-112155000D01*
X164235000Y-57935000D02*
X167195000Y-59785000D01*
X172455000Y-73795000D02*
X173665000Y-76745000D01*
X125065000Y-77035000D02*
X126255000Y-74045000D01*
X124175000Y-105385000D02*
X122105000Y-102505000D01*
X176025000Y-100325000D02*
X174085000Y-103255000D01*
X174915000Y-61845000D02*
X177255000Y-64735000D01*
X177945000Y-73345000D02*
X179075000Y-76665000D01*
X137335000Y-111685000D02*
X134335000Y-110095000D01*
X164895000Y-112345000D02*
X161715000Y-113895000D01*
X151395000Y-119895000D02*
X147655000Y-119895000D01*
X120475000Y-91315000D02*
X119935000Y-87885000D01*
X140565000Y-109975000D02*
X137585000Y-108695000D01*
X167675000Y-105505000D02*
X165085000Y-107525000D01*
X118475000Y-98185000D02*
X117235000Y-94755000D01*
X169435000Y-107155000D02*
X166725000Y-109315000D01*
X173305000Y-68855000D02*
X175035000Y-71785000D01*
X118775000Y-70205000D02*
X120555000Y-66975000D01*
X142775000Y-113145000D02*
X139535000Y-112155000D01*
X164285000Y-116255000D02*
X160805000Y-117665000D01*
X151645000Y-120285000D02*
X147895000Y-120305000D01*
X146715000Y-110175000D02*
X143655000Y-109645000D01*
X126255000Y-74045000D02*
X127805000Y-71235000D01*
X162355000Y-61015000D02*
X165145000Y-62745000D01*
X143215000Y-118145000D02*
X139635000Y-117255000D01*
X172385000Y-66265000D02*
X174415000Y-69085000D01*
X178075000Y-92185000D02*
X177035000Y-95445000D01*
X167925000Y-104195000D02*
X165395000Y-106325000D01*
X150945000Y-58185000D02*
X154215000Y-58575000D01*
X172215000Y-69385000D02*
X173865000Y-72145000D01*
X147255000Y-114255000D02*
X143805000Y-113775000D01*
X121985000Y-76155000D02*
X123205000Y-73005000D01*
X170125000Y-101825000D02*
X167925000Y-104195000D01*
X170805000Y-57485000D02*
X173615000Y-59925000D01*
X121405000Y-80205000D02*
X122165000Y-76925000D01*
X137585000Y-108695000D02*
X134805000Y-107075000D01*
X178095000Y-68215000D02*
X179765000Y-71485000D01*
X136825000Y-55965000D02*
X140155000Y-54735000D01*
X177645000Y-100715000D02*
X175705000Y-103755000D01*
X126145000Y-72475000D02*
X127885000Y-69675000D01*
X160635000Y-51155000D02*
X164175000Y-52545000D01*
X159065000Y-52335000D02*
X162545000Y-53575000D01*
X134145000Y-62445000D02*
X136995000Y-60755000D01*
X144755000Y-50865000D02*
X148485000Y-50555000D01*
X124645000Y-100535000D02*
X122985000Y-97485000D01*
X165055000Y-115435000D02*
X161675000Y-116925000D01*
X161055000Y-56425000D02*
X164235000Y-57935000D01*
X181785000Y-96455000D02*
X180345000Y-99875000D01*
X133565000Y-56235000D02*
X136895000Y-54635000D01*
X167705000Y-62175000D02*
X170265000Y-64495000D01*
X176035000Y-105965000D02*
X173615000Y-108695000D01*
X168185000Y-60015000D02*
X170905000Y-62315000D01*
X115395000Y-84485000D02*
X115655000Y-80795000D01*
X180095000Y-67685000D02*
X181755000Y-71055000D01*
X137125000Y-112025000D02*
X134105000Y-110425000D01*
X126665000Y-72365000D02*
X128385000Y-69665000D01*
X126645000Y-108125000D02*
X124175000Y-105385000D01*
X147185000Y-113445000D02*
X143875000Y-112975000D01*
X181205000Y-92875000D02*
X180135000Y-96295000D01*
X122795000Y-61315000D02*
X125455000Y-58625000D01*
X143795000Y-54665000D02*
X147335000Y-54215000D01*
X166795000Y-104145000D02*
X164265000Y-106145000D01*
X127825000Y-58685000D02*
X130785000Y-56515000D01*
X148445000Y-116725000D02*
X144875000Y-116395000D01*
X169955000Y-61985000D02*
X172415000Y-64455000D01*
X180655000Y-76375000D02*
X181415000Y-79935000D01*
X167975000Y-66725000D02*
X170085000Y-69165000D01*
X173875000Y-101485000D02*
X171745000Y-104245000D01*
X168665000Y-105695000D02*
X166015000Y-107845000D01*
X125215000Y-67225000D02*
X127415000Y-64555000D01*
X129635000Y-65135000D02*
X132185000Y-62885000D01*
X127895000Y-106545000D02*
X125555000Y-103905000D01*
X172415000Y-64455000D02*
X174585000Y-67185000D01*
X162545000Y-53575000D02*
X165795000Y-55145000D01*
X114865000Y-89345000D02*
X114605000Y-85645000D01*
X117155000Y-81815000D02*
X117695000Y-78295000D01*
X131345000Y-60505000D02*
X134235000Y-58615000D01*
X147655000Y-119895000D02*
X143915000Y-119485000D01*
X127885000Y-69675000D02*
X129925000Y-67145000D01*
X178525000Y-64445000D02*
X180535000Y-67655000D01*
X173445000Y-62605000D02*
X175755000Y-65395000D01*
X123565000Y-101075000D02*
X121915000Y-98035000D01*
X170885000Y-70995000D02*
X172455000Y-73795000D01*
X150915000Y-56985000D02*
X154245000Y-57365000D01*
X162705000Y-110795000D02*
X159565000Y-112165000D01*
X171745000Y-104245000D02*
X169365000Y-106675000D01*
X149165000Y-59765000D02*
X152275000Y-59945000D01*
X154215000Y-58575000D02*
X157395000Y-59355000D01*
X174025000Y-103995000D02*
X171685000Y-106665000D01*
X173325000Y-74735000D02*
X174385000Y-77735000D01*
X147745000Y-117095000D02*
X144185000Y-116695000D01*
X128205000Y-109045000D02*
X125655000Y-106515000D01*
X173375000Y-100795000D02*
X171325000Y-103505000D01*
X161265000Y-62725000D02*
X164015000Y-64425000D01*
X131375000Y-64065000D02*
X133965000Y-62085000D01*
X145685000Y-114895000D02*
X142285000Y-114255000D01*
X143605000Y-53885000D02*
X147125000Y-53425000D01*
X166225000Y-111085000D02*
X163155000Y-112805000D01*
X156715000Y-57495000D02*
X159915000Y-58545000D01*
X129815000Y-112375000D02*
X126965000Y-110085000D01*
X131515000Y-54175000D02*
X134855000Y-52465000D01*
X162105000Y-56435000D02*
X165235000Y-58045000D01*
X117245000Y-89025000D02*
X116995000Y-85455000D01*
X177275000Y-95935000D02*
X175805000Y-99085000D01*
X169995000Y-101355000D02*
X167795000Y-103765000D01*
X147695000Y-58205000D02*
X150945000Y-58185000D01*
X149185000Y-115145000D02*
X145685000Y-114895000D01*
X175175000Y-94715000D02*
X173795000Y-97755000D01*
X166015000Y-107845000D02*
X163165000Y-109645000D01*
X128135000Y-68665000D02*
X130255000Y-66215000D01*
X180135000Y-96295000D02*
X178665000Y-99655000D01*
X148435000Y-52555000D02*
X152015000Y-52645000D01*
X125515000Y-70365000D02*
X127405000Y-67645000D01*
X153405000Y-111265000D02*
X150165000Y-111535000D01*
X172775000Y-108405000D02*
X170025000Y-110835000D01*
X177985000Y-81435000D02*
X178195000Y-84805000D01*
X164275000Y-105175000D02*
X161605000Y-106855000D01*
X116065000Y-76485000D02*
X117175000Y-72945000D01*
X115755000Y-96675000D02*
X114705000Y-93025000D01*
X156255000Y-117665000D02*
X152615000Y-118205000D01*
X155355000Y-111315000D02*
X152085000Y-111825000D01*
X164695000Y-108265000D02*
X161765000Y-109925000D01*
X164775000Y-105285000D02*
X162095000Y-107035000D01*
X122965000Y-91455000D02*
X122375000Y-88125000D01*
X184985000Y-85725000D02*
X184695000Y-89505000D01*
X163505000Y-109915000D02*
X160415000Y-111405000D01*
X167905000Y-113335000D02*
X164705000Y-115165000D01*
X175255000Y-75255000D02*
X176225000Y-78425000D01*
X172715000Y-95425000D02*
X171195000Y-98265000D01*
X135725000Y-114905000D02*
X132505000Y-113195000D01*
X181375000Y-86055000D02*
X181035000Y-89645000D01*
X184135000Y-86885000D02*
X183735000Y-90535000D01*
X150695000Y-53375000D02*
X154245000Y-53715000D01*
X126095000Y-105805000D02*
X123875000Y-102995000D01*
X162615000Y-62075000D02*
X165305000Y-63855000D01*
X128875000Y-109095000D02*
X126295000Y-106615000D01*
X152425000Y-55095000D02*
X155835000Y-55635000D01*
X152015000Y-52645000D02*
X155595000Y-53135000D01*
X114605000Y-85645000D02*
X114735000Y-81905000D01*
X120655000Y-93625000D02*
X119855000Y-90255000D01*
X175035000Y-71785000D02*
X176395000Y-74885000D01*
X161765000Y-109925000D02*
X158715000Y-111195000D01*
X122995000Y-84955000D02*
X123195000Y-81725000D01*
X115405000Y-74405000D02*
X116735000Y-70825000D01*
X159915000Y-58545000D02*
X162975000Y-59985000D01*
X176445000Y-82045000D02*
X176585000Y-85425000D01*
X156615000Y-110585000D02*
X153405000Y-111265000D01*
X171325000Y-103505000D02*
X168945000Y-105975000D01*
X173435000Y-106555000D02*
X170905000Y-109055000D01*
X166275000Y-61585000D02*
X168895000Y-63725000D01*
X123315000Y-73745000D02*
X124825000Y-70745000D01*
X180955000Y-86395000D02*
X180595000Y-89875000D01*
X167515000Y-54285000D02*
X170675000Y-56385000D01*
X175225000Y-95665000D02*
X173765000Y-98635000D01*
X178805000Y-78955000D02*
X179285000Y-82385000D01*
X174845000Y-99165000D02*
X172995000Y-102035000D01*
X136415000Y-110795000D02*
X133495000Y-109085000D01*
X122665000Y-63965000D02*
X125085000Y-61205000D01*
X125355000Y-77535000D02*
X126455000Y-74595000D01*
X120615000Y-76525000D02*
X121775000Y-73275000D01*
X149535000Y-113945000D02*
X146155000Y-113745000D01*
X116615000Y-86115000D02*
X116685000Y-82565000D01*
X122025000Y-100015000D02*
X120505000Y-96815000D01*
X167775000Y-65965000D02*
X169955000Y-68355000D01*
X163315000Y-54345000D02*
X166535000Y-56025000D01*
X142575000Y-115145000D02*
X139175000Y-114155000D01*
X167195000Y-59785000D02*
X169955000Y-61985000D01*
X166535000Y-56025000D02*
X169625000Y-58095000D01*
X131705000Y-107285000D02*
X129205000Y-105025000D01*
X132145000Y-60915000D02*
X135055000Y-59065000D01*
X136975000Y-54175000D02*
X140405000Y-52995000D01*
X174485000Y-67745000D02*
X176285000Y-70725000D01*
X121945000Y-87905000D02*
X121795000Y-84605000D01*
X127035000Y-110675000D02*
X124385000Y-108085000D01*
X153265000Y-49555000D02*
X157015000Y-50165000D01*
X173375000Y-73865000D02*
X174555000Y-76905000D01*
X138015000Y-114575000D02*
X134735000Y-113075000D01*
X137515000Y-113945000D02*
X134345000Y-112415000D01*
X151265000Y-51795000D02*
X154875000Y-52195000D01*
X174525000Y-83125000D02*
X174545000Y-86315000D01*
X149415000Y-117545000D02*
X145805000Y-117325000D01*
X140875000Y-115125000D02*
X137515000Y-113945000D01*
X122545000Y-92965000D02*
X121795000Y-89725000D01*
X140155000Y-54735000D02*
X143605000Y-53885000D01*
X137345000Y-53165000D02*
X140845000Y-52045000D01*
X169385000Y-56925000D02*
X172255000Y-59215000D01*
X150545000Y-118735000D02*
X146925000Y-118645000D01*
X137655000Y-61315000D02*
X140655000Y-60045000D01*
X171865000Y-104705000D02*
X169435000Y-107155000D01*
X137845000Y-59455000D02*
X140995000Y-58245000D01*
X138795000Y-115715000D02*
X135435000Y-114325000D01*
X117815000Y-83855000D02*
X118145000Y-80305000D01*
X159925000Y-53025000D02*
X163315000Y-54345000D01*
X164705000Y-115165000D02*
X161325000Y-116635000D01*
X125485000Y-68225000D02*
X127595000Y-65555000D01*
X183665000Y-81895000D02*
X183785000Y-85615000D01*
X145545000Y-111645000D02*
X142345000Y-110965000D01*
X155505000Y-56385000D02*
X158785000Y-57285000D01*
X121465000Y-83025000D02*
X121905000Y-79685000D01*
X152615000Y-118205000D02*
X148995000Y-118335000D01*
X120875000Y-68785000D02*
X122845000Y-65715000D01*
X158125000Y-118055000D02*
X154515000Y-118785000D01*
X161195000Y-55185000D02*
X164445000Y-56685000D01*
X156995000Y-117095000D02*
X153445000Y-117715000D01*
X171825000Y-105945000D02*
X169285000Y-108345000D01*
X133375000Y-110915000D02*
X130505000Y-108885000D01*
X128385000Y-56235000D02*
X131515000Y-54175000D01*
X129525000Y-111165000D02*
X126765000Y-108805000D01*
X152715000Y-51505000D02*
X156355000Y-52065000D01*
X173755000Y-62355000D02*
X176095000Y-65175000D01*
X118705000Y-94085000D02*
X117885000Y-90605000D01*
X123685000Y-96125000D02*
X122545000Y-92965000D01*
X177375000Y-85925000D02*
X177055000Y-89235000D01*
X176675000Y-72415000D02*
X177925000Y-75615000D01*
X177345000Y-84575000D02*
X177375000Y-85925000D01*
X121775000Y-73275000D02*
X123315000Y-70155000D01*
X140665000Y-55835000D02*
X144055000Y-55025000D01*
X170025000Y-67185000D02*
X172005000Y-69785000D01*
X154925000Y-115885000D02*
X151365000Y-116295000D01*
X165655000Y-110495000D02*
X162625000Y-112175000D01*
X179515000Y-72955000D02*
X180655000Y-76375000D01*
X170855000Y-111195000D02*
X167905000Y-113335000D01*
X119855000Y-90255000D02*
X119445000Y-86815000D01*
X170835000Y-60095000D02*
X173445000Y-62605000D01*
X132775000Y-60965000D02*
X135625000Y-59215000D01*
X129925000Y-67145000D02*
X132295000Y-64865000D01*
X177135000Y-68955000D02*
X178745000Y-72145000D01*
X163195000Y-115435000D02*
X159775000Y-116745000D01*
X139125000Y-110715000D02*
X136125000Y-109285000D01*
X165395000Y-106325000D02*
X162625000Y-108115000D01*
X182925000Y-94195000D02*
X181735000Y-97705000D01*
X138185000Y-57565000D02*
X141425000Y-56445000D01*
X146155000Y-113745000D02*
X142775000Y-113145000D01*
X134315000Y-64285000D02*
X137055000Y-62535000D01*
X163155000Y-112805000D02*
X159915000Y-114165000D01*
X159565000Y-112165000D02*
X156325000Y-113145000D01*
X121905000Y-79685000D02*
X122725000Y-76465000D01*
X176335000Y-96125000D02*
X174845000Y-99165000D01*
X122955000Y-80615000D02*
X123685000Y-77425000D01*
X175085000Y-77265000D02*
X175825000Y-80465000D01*
X134735000Y-113075000D02*
X131695000Y-111255000D01*
X175745000Y-86515000D02*
X175345000Y-89715000D01*
X133665000Y-57555000D02*
X136825000Y-55965000D01*
X130505000Y-108885000D02*
X127895000Y-106545000D01*
X162625000Y-112175000D02*
X159435000Y-113485000D01*
X151955000Y-116655000D02*
X148445000Y-116725000D01*
X180925000Y-71145000D02*
X182225000Y-74635000D01*
X180675000Y-75015000D02*
X181575000Y-78525000D01*
X121705000Y-92945000D02*
X120965000Y-89615000D01*
X143105000Y-120155000D02*
X139445000Y-119285000D01*
X173995000Y-102015000D02*
X171865000Y-104705000D01*
X126885000Y-69015000D02*
X128965000Y-66415000D01*
X173675000Y-72645000D02*
X174975000Y-75655000D01*
X122825000Y-96145000D02*
X121705000Y-92945000D01*
X148805000Y-111935000D02*
X145545000Y-111645000D01*
X122315000Y-69495000D02*
X124225000Y-66545000D01*
X144485000Y-51305000D02*
X148125000Y-50965000D01*
X139535000Y-112155000D02*
X136415000Y-110795000D01*
X176025000Y-107245000D02*
X173455000Y-109975000D01*
X145425000Y-49975000D02*
X149175000Y-49745000D01*
X171485000Y-100715000D02*
X169375000Y-103285000D01*
X165645000Y-56885000D02*
X168685000Y-58895000D01*
X116585000Y-96635000D02*
X115535000Y-93055000D01*
X153465000Y-58855000D02*
X156655000Y-59555000D01*
X168295000Y-57625000D02*
X171155000Y-59845000D01*
X139765000Y-110535000D02*
X136715000Y-109145000D01*
X175825000Y-80465000D02*
X176165000Y-83675000D01*
X173385000Y-103515000D02*
X171075000Y-106145000D01*
X173555000Y-58775000D02*
X176215000Y-61505000D01*
X171935000Y-101455000D02*
X169805000Y-104005000D01*
X121035000Y-83525000D02*
X121405000Y-80205000D01*
X160695000Y-112155000D02*
X157455000Y-113265000D01*
X163365000Y-62055000D02*
X166025000Y-63905000D01*
X148365000Y-53765000D02*
X151895000Y-53845000D01*
X123395000Y-100005000D02*
X121845000Y-96905000D01*
X143835000Y-52625000D02*
X147405000Y-52205000D01*
X124125000Y-91135000D02*
X123565000Y-87985000D01*
X183785000Y-85615000D02*
X183515000Y-89255000D01*
X123665000Y-65295000D02*
X126015000Y-62545000D01*
X175285000Y-87315000D02*
X174775000Y-90505000D01*
X156645000Y-110165000D02*
X153515000Y-110845000D01*
X130705000Y-105375000D02*
X128415000Y-102985000D01*
X180525000Y-71225000D02*
X181815000Y-74655000D01*
X159055000Y-119045000D02*
X155415000Y-119855000D01*
X137575000Y-52655000D02*
X141125000Y-51565000D01*
X174645000Y-94975000D02*
X173235000Y-97945000D01*
X135335000Y-62155000D02*
X138265000Y-60585000D01*
X123725000Y-74855000D02*
X125125000Y-71835000D01*
X121425000Y-102935000D02*
X119635000Y-99755000D01*
X156625000Y-50485000D02*
X160245000Y-51445000D01*
X172615000Y-96555000D02*
X170985000Y-99335000D01*
X161595000Y-54485000D02*
X164925000Y-56035000D01*
X124035000Y-75165000D02*
X125405000Y-72165000D01*
X120605000Y-74045000D02*
X122025000Y-70855000D01*
X179665000Y-75825000D02*
X180495000Y-79305000D01*
X141355000Y-115665000D02*
X138015000Y-114575000D01*
X120435000Y-64275000D02*
X122795000Y-61315000D01*
X172465000Y-71265000D02*
X173955000Y-74175000D01*
X142875000Y-60625000D02*
X145905000Y-60015000D01*
X140425000Y-111625000D02*
X137325000Y-110355000D01*
X179375000Y-85825000D02*
X179065000Y-89305000D01*
X172235000Y-95475000D02*
X170725000Y-98255000D01*
X179815000Y-80065000D02*
X180165000Y-83555000D01*
X167545000Y-114505000D02*
X164285000Y-116255000D01*
X170145000Y-61085000D02*
X172685000Y-63555000D01*
X146395000Y-57915000D02*
X149685000Y-57745000D01*
X125915000Y-60935000D02*
X128685000Y-58515000D01*
X169285000Y-108345000D02*
X166475000Y-110445000D01*
X181305000Y-82495000D02*
X181375000Y-86055000D01*
X134645000Y-56115000D02*
X137895000Y-54665000D01*
X139965000Y-61165000D02*
X142995000Y-60175000D01*
X150735000Y-58975000D02*
X153905000Y-59335000D01*
X120725000Y-72685000D02*
X122315000Y-69495000D01*
X134855000Y-52465000D02*
X138375000Y-51105000D01*
X157705000Y-54445000D02*
X161065000Y-55565000D01*
X139775000Y-108815000D02*
X136855000Y-107395000D01*
X149535000Y-49345000D02*
X153265000Y-49555000D01*
X157775000Y-117735000D02*
X154185000Y-118425000D01*
X153825000Y-56485000D02*
X157135000Y-57195000D01*
X162405000Y-60585000D02*
X165245000Y-62325000D01*
X124765000Y-94525000D02*
X123775000Y-91395000D01*
X124805000Y-74335000D02*
X126275000Y-71435000D01*
X176335000Y-88635000D02*
X175675000Y-91875000D01*
X139265000Y-109905000D02*
X136285000Y-108455000D01*
X175965000Y-76055000D02*
X176835000Y-79325000D01*
X141325000Y-59405000D02*
X144495000Y-58605000D01*
X153475000Y-115295000D02*
X150005000Y-115545000D01*
X147515000Y-54605000D02*
X150995000Y-54585000D01*
X151815000Y-51025000D02*
X155475000Y-51485000D01*
X130645000Y-59535000D02*
X133665000Y-57555000D01*
X130465000Y-67155000D02*
X132785000Y-64965000D01*
X163415000Y-114455000D02*
X160095000Y-115795000D01*
X165795000Y-55145000D02*
X169005000Y-57145000D01*
X178355000Y-92695000D02*
X177275000Y-95935000D01*
X128965000Y-66415000D02*
X131375000Y-64065000D01*
X124275000Y-106145000D02*
X122095000Y-103225000D01*
X123665000Y-71175000D02*
X125485000Y-68225000D01*
X124365000Y-107465000D02*
X122065000Y-104595000D01*
X166625000Y-103175000D02*
X164275000Y-105175000D01*
X167045000Y-112935000D02*
X163855000Y-114685000D01*
X165235000Y-58045000D02*
X168185000Y-60015000D01*
X171875000Y-71845000D02*
X173325000Y-74735000D01*
X154085000Y-113995000D02*
X150685000Y-114325000D01*
X128635000Y-62765000D02*
X131345000Y-60505000D01*
X154295000Y-53315000D02*
X157805000Y-54065000D01*
X125405000Y-72165000D02*
X127125000Y-69365000D01*
X136715000Y-117505000D02*
X133335000Y-115955000D01*
X150995000Y-54585000D02*
X154465000Y-54965000D01*
X131045000Y-60235000D02*
X133995000Y-58295000D01*
X161025000Y-52135000D02*
X164475000Y-53565000D01*
X138065000Y-51635000D02*
X141695000Y-50605000D01*
X163755000Y-111145000D02*
X160645000Y-112605000D01*
X173235000Y-97945000D02*
X171485000Y-100715000D01*
X176995000Y-97605000D02*
X175345000Y-100685000D01*
X134185000Y-54105000D02*
X137575000Y-52655000D01*
X123855000Y-83285000D02*
X124265000Y-80125000D01*
X177605000Y-97225000D02*
X176025000Y-100325000D01*
X165665000Y-109065000D02*
X162705000Y-110795000D01*
X133965000Y-54665000D02*
X137345000Y-53165000D01*
X125655000Y-106515000D02*
X123415000Y-103725000D01*
X173945000Y-63765000D02*
X176135000Y-66615000D01*
X126115000Y-97485000D02*
X124765000Y-94525000D01*
X167735000Y-55355000D02*
X170805000Y-57485000D01*
X153775000Y-50415000D02*
X157465000Y-51085000D01*
X153015000Y-57985000D02*
X156245000Y-58615000D01*
X119955000Y-71455000D02*
X121615000Y-68305000D01*
X116385000Y-97245000D02*
X115265000Y-93645000D01*
X178845000Y-81955000D02*
X178985000Y-85385000D01*
X140285000Y-53445000D02*
X143835000Y-52625000D01*
X156205000Y-58185000D02*
X159405000Y-59215000D01*
X170175000Y-66745000D02*
X172215000Y-69385000D01*
X119255000Y-81025000D02*
X119925000Y-77545000D01*
X129485000Y-63075000D02*
X132145000Y-60915000D01*
X146985000Y-113025000D02*
X143685000Y-112525000D01*
X138265000Y-60585000D02*
X141325000Y-59405000D01*
X169365000Y-106675000D02*
X166695000Y-108835000D01*
X164445000Y-56685000D02*
X167515000Y-58545000D01*
X143875000Y-112975000D02*
X140605000Y-112105000D01*
X176995000Y-84975000D02*
X176775000Y-88345000D01*
X176585000Y-85425000D02*
X176335000Y-88635000D01*
X167795000Y-103765000D02*
X165305000Y-105885000D01*
X183465000Y-74565000D02*
X184365000Y-78215000D01*
X121845000Y-96905000D02*
X120655000Y-93625000D01*
X153995000Y-114415000D02*
X150555000Y-114725000D01*
X147180000Y-120950000D02*
X147180000Y-121330000D01*
X173015000Y-100615000D02*
X170995000Y-103275000D01*
X157055000Y-60095000D02*
X160075000Y-61225000D01*
X174815000Y-106815000D02*
X172265000Y-109445000D01*
X119445000Y-83325000D02*
X119835000Y-79885000D01*
X159455000Y-52035000D02*
X162915000Y-53295000D01*
X141965000Y-56715000D02*
X145315000Y-56035000D01*
X168685000Y-58895000D02*
X171455000Y-61185000D01*
X142605000Y-117205000D02*
X139105000Y-116245000D01*
X179305000Y-103415000D02*
X177155000Y-106485000D01*
X168915000Y-64845000D02*
X171175000Y-67315000D01*
X174085000Y-103255000D02*
X171825000Y-105945000D01*
X156065000Y-114435000D02*
X152655000Y-114985000D01*
X173885000Y-93595000D02*
X172615000Y-96555000D01*
X176115000Y-86955000D02*
X175665000Y-90185000D01*
X150165000Y-111535000D02*
X146895000Y-111405000D01*
X124385000Y-108085000D02*
X122025000Y-105215000D01*
X182845000Y-92895000D02*
X181785000Y-96455000D01*
X148485000Y-50555000D02*
X152165000Y-50655000D01*
X182935000Y-86835000D02*
X182535000Y-90415000D01*
X162095000Y-107035000D02*
X159245000Y-108425000D01*
X159225000Y-110585000D02*
X156045000Y-111565000D01*
X133495000Y-109085000D02*
X130785000Y-107045000D01*
X180275000Y-68855000D02*
X181825000Y-72275000D01*
X118655000Y-69545000D02*
X120505000Y-66315000D01*
X179255000Y-67825000D02*
X180925000Y-71145000D01*
X174965000Y-66345000D02*
X176875000Y-69305000D01*
X143695000Y-110895000D02*
X140565000Y-109975000D01*
X144835000Y-54085000D02*
X148365000Y-53765000D01*
X145935000Y-110485000D02*
X142795000Y-109845000D01*
X156555000Y-116785000D02*
X153015000Y-117365000D01*
X128565000Y-108295000D02*
X126095000Y-105805000D01*
X147125000Y-53425000D02*
X150695000Y-53375000D01*
X128705000Y-111035000D02*
X125965000Y-108575000D01*
X177395000Y-78145000D02*
X177985000Y-81435000D01*
X181575000Y-78525000D02*
X182075000Y-82095000D01*
X118925000Y-96045000D02*
X117885000Y-92575000D01*
X158995000Y-115315000D02*
X155535000Y-116175000D01*
X146925000Y-118645000D02*
X143215000Y-118145000D01*
X175325000Y-102905000D02*
X173135000Y-105695000D01*
X165825000Y-61755000D02*
X168435000Y-63845000D01*
X164635000Y-59545000D02*
X167485000Y-61495000D01*
X165145000Y-62745000D02*
X167695000Y-64795000D01*
X126325000Y-103595000D02*
X124345000Y-100805000D01*
X128375000Y-62465000D02*
X131045000Y-60235000D01*
X122625000Y-83835000D02*
X122955000Y-80615000D01*
X170265000Y-64495000D02*
X172515000Y-67075000D01*
X161535000Y-109145000D02*
X158515000Y-110415000D01*
X131315000Y-54765000D02*
X134655000Y-52995000D01*
X145555000Y-112455000D02*
X142275000Y-111775000D01*
X178565000Y-86195000D02*
X178215000Y-89585000D01*
X144335000Y-115905000D02*
X140875000Y-115125000D01*
X181735000Y-97705000D02*
X180175000Y-101095000D01*
X138375000Y-51105000D02*
X142065000Y-50115000D01*
X126255000Y-112115000D02*
X123525000Y-109505000D01*
X179715000Y-103515000D02*
X177555000Y-106625000D01*
X152905000Y-49915000D02*
X156625000Y-50485000D01*
X170905000Y-62315000D02*
X173285000Y-64845000D01*
X174555000Y-92865000D02*
X173385000Y-95875000D01*
X180595000Y-84315000D02*
X180455000Y-87825000D01*
X132505000Y-113195000D02*
X129525000Y-111165000D01*
X127685000Y-98605000D02*
X126155000Y-95765000D01*
X178695000Y-96695000D02*
X177185000Y-99895000D01*
X130025000Y-107975000D02*
X127495000Y-105555000D01*
X132495000Y-103715000D02*
X130275000Y-101425000D01*
X119365000Y-93485000D02*
X118605000Y-90065000D01*
X117865000Y-100685000D02*
X116385000Y-97245000D01*
X133995000Y-58295000D02*
X137095000Y-56725000D01*
X117775000Y-74875000D02*
X119085000Y-71445000D01*
X123395000Y-84775000D02*
X123625000Y-81545000D01*
X132785000Y-64965000D02*
X135385000Y-63065000D01*
X167845000Y-64395000D02*
X170175000Y-66745000D01*
X121255000Y-104835000D02*
X119285000Y-101675000D01*
X163855000Y-114685000D02*
X160485000Y-116085000D01*
X182225000Y-74635000D02*
X183145000Y-78225000D01*
X120505000Y-96815000D02*
X119365000Y-93485000D01*
X142995000Y-60175000D02*
X146095000Y-59565000D01*
X182455000Y-92815000D02*
X181395000Y-96355000D01*
X163755000Y-52795000D02*
X167105000Y-54505000D01*
X175705000Y-103755000D02*
X173435000Y-106555000D01*
X124005000Y-93605000D02*
X123145000Y-90425000D01*
X143775000Y-59155000D02*
X147045000Y-58655000D01*
X142485000Y-118815000D02*
X138895000Y-117865000D01*
X153665000Y-112845000D02*
X150335000Y-113135000D01*
X121075000Y-106615000D02*
X118955000Y-103495000D01*
X175755000Y-61585000D02*
X178095000Y-64525000D01*
X146175000Y-112135000D02*
X142895000Y-111525000D01*
X182535000Y-90415000D02*
X181725000Y-94015000D01*
X143685000Y-56725000D02*
X147075000Y-56245000D01*
X176435000Y-94775000D02*
X175085000Y-97885000D01*
X147525000Y-59015000D02*
X150735000Y-58975000D01*
X155595000Y-53135000D02*
X159075000Y-54015000D01*
X169945000Y-62515000D02*
X172355000Y-64985000D01*
X127425000Y-106645000D02*
X125105000Y-103985000D01*
X122985000Y-97485000D02*
X121725000Y-94355000D01*
X136435000Y-112585000D02*
X133375000Y-110915000D01*
X174925000Y-82985000D02*
X174965000Y-86175000D01*
X120965000Y-74225000D02*
X122375000Y-71055000D01*
X181055000Y-74895000D02*
X181955000Y-78405000D01*
X162385000Y-57885000D02*
X165405000Y-59555000D01*
X162315000Y-114075000D02*
X158995000Y-115315000D01*
X173105000Y-70015000D02*
X174725000Y-72965000D01*
X179955000Y-99755000D02*
X178165000Y-102975000D01*
X115085000Y-87525000D02*
X115015000Y-83835000D01*
X134995000Y-105705000D02*
X132495000Y-103715000D01*
X147125000Y-119055000D02*
X143455000Y-118595000D01*
X125075000Y-99705000D02*
X123505000Y-96705000D01*
X140405000Y-52995000D02*
X143985000Y-52195000D01*
X157805000Y-54065000D02*
X161195000Y-55185000D01*
X126795000Y-96135000D02*
X125585000Y-93215000D01*
X162975000Y-59985000D02*
X165825000Y-61755000D01*
X160645000Y-112605000D02*
X157365000Y-113705000D01*
X128365000Y-98885000D02*
X126795000Y-96135000D01*
X128685000Y-58515000D02*
X131675000Y-56415000D01*
X181395000Y-96355000D02*
X179955000Y-99755000D01*
X151065000Y-52185000D02*
X154655000Y-52565000D01*
X180495000Y-79305000D02*
X180925000Y-82765000D01*
X128975000Y-103015000D02*
X126975000Y-100445000D01*
X170625000Y-68555000D02*
X172465000Y-71265000D01*
X131355000Y-63035000D02*
X134075000Y-61055000D01*
X177185000Y-99895000D02*
X175325000Y-102905000D01*
X170085000Y-69165000D02*
X171875000Y-71845000D01*
X182075000Y-82095000D02*
X182185000Y-85695000D01*
X164405000Y-107505000D02*
X161535000Y-109145000D01*
X170675000Y-56385000D02*
X173555000Y-58775000D01*
X131475000Y-62425000D02*
X134275000Y-60455000D01*
X122845000Y-65715000D02*
X125085000Y-62955000D01*
X140655000Y-60045000D02*
X143775000Y-59155000D01*
X171155000Y-59845000D02*
X173755000Y-62355000D01*
X182185000Y-85695000D02*
X181895000Y-89315000D01*
X156325000Y-113145000D02*
X152965000Y-113745000D01*
X149295000Y-59345000D02*
X152495000Y-59535000D01*
X125085000Y-62955000D02*
X127695000Y-60375000D01*
X139105000Y-116245000D02*
X135725000Y-114905000D01*
X116945000Y-89795000D02*
X116615000Y-86115000D01*
X168225000Y-61565000D02*
X170795000Y-63885000D01*
X173455000Y-109975000D02*
X170625000Y-112395000D01*
X168435000Y-63845000D02*
X170805000Y-66255000D01*
X169805000Y-104005000D02*
X167345000Y-106315000D01*
X120455000Y-97725000D02*
X119215000Y-94395000D01*
X160355000Y-58295000D02*
X163415000Y-59765000D01*
X152195000Y-112615000D02*
X148865000Y-112735000D01*
X121295000Y-66565000D02*
X123435000Y-63655000D01*
X183055000Y-74595000D02*
X183955000Y-78205000D01*
X127955000Y-71795000D02*
X129785000Y-69175000D01*
X153945000Y-113205000D02*
X150585000Y-113525000D01*
X162195000Y-109255000D02*
X159225000Y-110585000D01*
X118475000Y-68165000D02*
X120415000Y-64995000D01*
X183395000Y-85555000D02*
X183115000Y-89225000D01*
X140715000Y-115905000D02*
X137305000Y-114725000D01*
X161565000Y-57945000D02*
X164635000Y-59545000D01*
X139895000Y-61645000D02*
X142875000Y-60625000D01*
X165715000Y-115995000D02*
X162315000Y-117535000D01*
X153555000Y-119315000D02*
X149805000Y-119545000D01*
X177585000Y-81435000D02*
X177795000Y-84745000D01*
X154315000Y-54535000D02*
X157705000Y-55275000D01*
X134345000Y-64805000D02*
X137045000Y-63025000D01*
X168985000Y-68435000D02*
X170885000Y-70995000D01*
X176055000Y-94655000D02*
X174705000Y-97735000D01*
X139445000Y-119285000D02*
X135895000Y-118035000D01*
X117135000Y-92865000D02*
X116475000Y-89325000D01*
X124015000Y-103875000D02*
X122065000Y-100905000D01*
X156215000Y-109455000D02*
X153115000Y-110095000D01*
X182585000Y-85615000D02*
X182315000Y-89255000D01*
X124595000Y-80625000D02*
X125355000Y-77535000D01*
X123295000Y-67165000D02*
X125475000Y-64325000D01*
X146095000Y-59565000D02*
X149295000Y-59345000D01*
X158785000Y-57285000D02*
X161965000Y-58575000D01*
X141825000Y-52215000D02*
X145415000Y-51585000D01*
X125475000Y-64325000D02*
X127905000Y-61805000D01*
X176225000Y-78425000D02*
X176815000Y-81765000D01*
X157455000Y-113265000D02*
X154085000Y-113995000D01*
X158435000Y-61445000D02*
X161265000Y-62725000D01*
X121795000Y-89725000D02*
X121425000Y-86355000D01*
X166425000Y-113775000D02*
X163195000Y-115435000D01*
X128655000Y-106175000D02*
X126325000Y-103595000D01*
X161605000Y-106855000D02*
X158755000Y-108205000D01*
X140345000Y-113285000D02*
X137125000Y-112025000D01*
X159245000Y-108425000D02*
X156215000Y-109455000D01*
X165035000Y-113185000D02*
X161815000Y-114725000D01*
X180605000Y-72455000D02*
X181775000Y-75915000D01*
X140185000Y-54305000D02*
X143685000Y-53465000D01*
X183625000Y-93075000D02*
X182565000Y-96645000D01*
X131335000Y-105405000D02*
X128975000Y-103015000D01*
X132875000Y-111075000D02*
X130015000Y-109005000D01*
X176095000Y-65175000D02*
X178095000Y-68215000D01*
X174775000Y-90505000D02*
X173885000Y-93595000D01*
X158445000Y-52995000D02*
X161875000Y-54165000D01*
X115265000Y-93645000D02*
X114545000Y-89995000D01*
X140445000Y-55485000D02*
X143795000Y-54665000D01*
X140435000Y-57585000D02*
X143685000Y-56725000D01*
X176165000Y-83675000D02*
X176115000Y-86955000D01*
X126295000Y-106615000D02*
X124015000Y-103875000D01*
X116085000Y-91835000D02*
X115545000Y-88205000D01*
X124345000Y-100805000D02*
X122685000Y-97795000D01*
X175905000Y-78795000D02*
X176445000Y-82045000D01*
X132395000Y-104735000D02*
X130115000Y-102495000D01*
X174965000Y-86175000D02*
X174605000Y-89335000D01*
X173965000Y-108905000D02*
X171235000Y-111405000D01*
X134655000Y-52995000D02*
X138065000Y-51635000D01*
X176445000Y-70175000D02*
X177945000Y-73345000D01*
X178005000Y-88215000D02*
X177405000Y-91565000D01*
X172905000Y-63205000D02*
X175175000Y-65945000D01*
X156045000Y-111565000D02*
X152775000Y-112155000D01*
X145305000Y-118075000D02*
X141735000Y-117415000D01*
X179125000Y-99625000D02*
X177325000Y-102795000D01*
X164275000Y-58415000D02*
X167175000Y-60265000D01*
X150725000Y-52975000D02*
X154295000Y-53315000D01*
X115555000Y-91215000D02*
X115085000Y-87525000D01*
X181775000Y-75915000D02*
X182555000Y-79485000D01*
X173865000Y-72145000D02*
X175255000Y-75255000D01*
X154400000Y-109450000D02*
X152820000Y-109640000D01*
X133935000Y-107455000D02*
X131335000Y-105405000D01*
X178855000Y-67935000D02*
X180525000Y-71225000D01*
X157255000Y-118675000D02*
X153555000Y-119315000D01*
X148215000Y-55375000D02*
X151655000Y-55425000D01*
X130565000Y-57625000D02*
X133705000Y-55705000D01*
X125285000Y-97625000D02*
X123935000Y-94595000D01*
X172355000Y-64985000D02*
X174485000Y-67745000D01*
X115655000Y-80795000D02*
X116305000Y-77175000D01*
X131795000Y-59205000D02*
X134765000Y-57405000D01*
X171685000Y-106665000D02*
X169145000Y-108975000D01*
X165595000Y-64585000D02*
X167975000Y-66725000D01*
X114545000Y-89995000D02*
X114215000Y-86245000D01*
X117435000Y-83465000D02*
X117805000Y-79905000D01*
X158515000Y-110415000D02*
X155355000Y-111315000D01*
X124805000Y-69995000D02*
X126745000Y-67195000D01*
X164955000Y-60215000D02*
X167705000Y-62175000D01*
X181415000Y-79935000D02*
X181765000Y-83465000D01*
X148125000Y-50965000D02*
X151815000Y-51025000D01*
X181955000Y-78405000D02*
X182465000Y-81975000D01*
X134875000Y-62925000D02*
X137655000Y-61315000D01*
X122305000Y-93555000D02*
X121485000Y-90275000D01*
X122025000Y-105215000D02*
X120005000Y-102135000D01*
X180175000Y-101095000D02*
X178255000Y-104295000D01*
X134275000Y-60455000D02*
X137225000Y-58855000D01*
X118865000Y-80895000D02*
X119545000Y-77395000D01*
X126615000Y-103315000D02*
X124645000Y-100535000D01*
X183515000Y-89255000D02*
X182845000Y-92895000D01*
X120605000Y-94795000D02*
X119675000Y-91415000D01*
X150685000Y-114325000D02*
X147255000Y-114255000D01*
X178985000Y-85385000D02*
X178735000Y-88815000D01*
X180455000Y-87825000D02*
X179925000Y-91305000D01*
X140125000Y-58115000D02*
X143385000Y-57195000D01*
X182735000Y-78235000D02*
X183265000Y-81915000D01*
X117175000Y-100175000D02*
X115755000Y-96675000D01*
X176415000Y-106135000D02*
X173965000Y-108905000D01*
X117695000Y-78295000D02*
X118645000Y-74785000D01*
X127125000Y-69365000D02*
X129155000Y-66805000D01*
X166985000Y-105575000D02*
X164405000Y-107505000D01*
X147045000Y-58655000D02*
X150225000Y-58555000D01*
X169485000Y-111755000D02*
X166425000Y-113775000D01*
X115545000Y-88205000D02*
X115395000Y-84485000D01*
X174545000Y-86315000D02*
X174165000Y-89435000D01*
X134105000Y-110425000D02*
X131245000Y-108455000D01*
X176335000Y-92495000D02*
X175225000Y-95665000D01*
X132475000Y-116405000D02*
X129235000Y-114415000D01*
X179495000Y-80625000D02*
X179785000Y-84075000D01*
X137755000Y-108335000D02*
X134985000Y-106715000D01*
X172075000Y-100575000D02*
X170015000Y-103175000D01*
X119525000Y-75995000D02*
X120725000Y-72685000D01*
X140995000Y-58245000D02*
X144275000Y-57425000D01*
X170325000Y-60715000D02*
X172905000Y-63205000D01*
X131515000Y-64475000D02*
X134145000Y-62445000D01*
X160075000Y-61225000D02*
X162935000Y-62725000D01*
X117805000Y-79905000D02*
X118565000Y-76425000D01*
X143805000Y-113775000D02*
X140565000Y-112935000D01*
X124975000Y-68255000D02*
X127085000Y-65525000D01*
X120275000Y-100125000D02*
X118785000Y-96815000D01*
X179665000Y-90555000D02*
X178835000Y-93925000D01*
X178995000Y-94725000D02*
X177695000Y-97995000D01*
X119255000Y-72045000D02*
X120875000Y-68785000D01*
X121425000Y-86355000D02*
X121465000Y-83025000D01*
X132665000Y-64035000D02*
X135335000Y-62155000D01*
X115615000Y-75095000D02*
X116865000Y-71545000D01*
X126175000Y-59055000D02*
X129055000Y-56735000D01*
X135795000Y-111825000D02*
X132795000Y-110065000D01*
X178995000Y-100755000D02*
X177065000Y-103905000D01*
X129855000Y-102805000D02*
X127815000Y-100255000D01*
X167985000Y-57905000D02*
X170835000Y-60095000D01*
X158175000Y-53335000D02*
X161595000Y-54485000D01*
X177695000Y-97995000D02*
X176025000Y-101105000D01*
X125125000Y-71835000D02*
X126885000Y-69015000D01*
%TD*%
%TA.AperFunction,Conductor*%
%TO.N,GND*%
G36*
X152194688Y-60574911D02*
G01*
X152209074Y-60576578D01*
X155207233Y-61100530D01*
X155223122Y-61104385D01*
X158201786Y-62035822D01*
X158216087Y-62041270D01*
X160959261Y-63282000D01*
X160973588Y-63289627D01*
X161445765Y-63581518D01*
X163640182Y-64938068D01*
X163653413Y-64947477D01*
X166039756Y-66887593D01*
X166050950Y-66897876D01*
X168174536Y-69099034D01*
X168185175Y-69111613D01*
X170026247Y-71601905D01*
X170035091Y-71615651D01*
X170480769Y-72418443D01*
X171548698Y-74342086D01*
X171549262Y-74343101D01*
X171555719Y-74356551D01*
X172522091Y-76718794D01*
X172690248Y-77129843D01*
X172695381Y-77145110D01*
X173480338Y-80091123D01*
X173483481Y-80106911D01*
X173890709Y-83161125D01*
X173891812Y-83176988D01*
X173911207Y-86270505D01*
X173910285Y-86286529D01*
X173541800Y-89311983D01*
X173538986Y-89327214D01*
X172802136Y-92284311D01*
X172797211Y-92299760D01*
X171662318Y-95200038D01*
X171655702Y-95214264D01*
X170704432Y-96965610D01*
X170664384Y-97009783D01*
X170608511Y-97030598D01*
X170549323Y-97023392D01*
X170500075Y-96989780D01*
X170411254Y-96891135D01*
X170411251Y-96891133D01*
X170256752Y-96778882D01*
X170082288Y-96701206D01*
X169895487Y-96661500D01*
X169704513Y-96661500D01*
X169579978Y-96687970D01*
X169517711Y-96701206D01*
X169343246Y-96778883D01*
X169188747Y-96891133D01*
X169060958Y-97033057D01*
X169034685Y-97078564D01*
X168988565Y-97124684D01*
X168925565Y-97141564D01*
X168862564Y-97124682D01*
X168829417Y-97091533D01*
X168827902Y-97092898D01*
X168691252Y-96941133D01*
X168536753Y-96828883D01*
X168536752Y-96828882D01*
X168362288Y-96751206D01*
X168175487Y-96711500D01*
X167984513Y-96711500D01*
X167859979Y-96737970D01*
X167797711Y-96751206D01*
X167623246Y-96828883D01*
X167468747Y-96941133D01*
X167340958Y-97083057D01*
X167245472Y-97248443D01*
X167186458Y-97430070D01*
X167166496Y-97620000D01*
X167186458Y-97809929D01*
X167245472Y-97991556D01*
X167340958Y-98156942D01*
X167340960Y-98156944D01*
X167468747Y-98298866D01*
X167623248Y-98411118D01*
X167797712Y-98488794D01*
X167984513Y-98528500D01*
X168175487Y-98528500D01*
X168199691Y-98523355D01*
X168260618Y-98525482D01*
X168313415Y-98555964D01*
X168345722Y-98607664D01*
X168405473Y-98791557D01*
X168500958Y-98956942D01*
X168500960Y-98956944D01*
X168628747Y-99098866D01*
X168783248Y-99211118D01*
X168957712Y-99288794D01*
X168974705Y-99292406D01*
X169030284Y-99319793D01*
X169066088Y-99370363D01*
X169073459Y-99431885D01*
X169050613Y-99489481D01*
X168362251Y-100441472D01*
X168351183Y-100454755D01*
X167065089Y-101798781D01*
X167010253Y-101832357D01*
X166945990Y-101834504D01*
X166889035Y-101804663D01*
X166854220Y-101750605D01*
X166814527Y-101628444D01*
X166719041Y-101463057D01*
X166591252Y-101321133D01*
X166436753Y-101208883D01*
X166436752Y-101208882D01*
X166262288Y-101131206D01*
X166075487Y-101091500D01*
X165884513Y-101091500D01*
X165759979Y-101117970D01*
X165697711Y-101131206D01*
X165523246Y-101208883D01*
X165368747Y-101321133D01*
X165240958Y-101463057D01*
X165145472Y-101628443D01*
X165086458Y-101810070D01*
X165066496Y-102000000D01*
X165086458Y-102189929D01*
X165145472Y-102371556D01*
X165240958Y-102536942D01*
X165240960Y-102536944D01*
X165368747Y-102678866D01*
X165523248Y-102791118D01*
X165697712Y-102868794D01*
X165697713Y-102868794D01*
X165709810Y-102874180D01*
X165709126Y-102875714D01*
X165756166Y-102900670D01*
X165790950Y-102960551D01*
X165788837Y-103029770D01*
X165750464Y-103087417D01*
X163905982Y-104657187D01*
X163891422Y-104667878D01*
X161305998Y-106294664D01*
X161292834Y-106301890D01*
X158529366Y-107610900D01*
X158513843Y-107617030D01*
X156066686Y-108400443D01*
X156057528Y-108402998D01*
X154295306Y-108823691D01*
X154281092Y-108826234D01*
X152762761Y-109008818D01*
X152756641Y-109009403D01*
X151835895Y-109074781D01*
X151781217Y-109066496D01*
X151735353Y-109035596D01*
X151707138Y-108988033D01*
X151684527Y-108918443D01*
X151589041Y-108753057D01*
X151461252Y-108611133D01*
X151306753Y-108498883D01*
X151306752Y-108498882D01*
X151132288Y-108421206D01*
X150945487Y-108381500D01*
X150754513Y-108381500D01*
X150629978Y-108407970D01*
X150567711Y-108421206D01*
X150393246Y-108498883D01*
X150238747Y-108611133D01*
X150110958Y-108753057D01*
X150015472Y-108918443D01*
X149956458Y-109100070D01*
X149936496Y-109290000D01*
X149956458Y-109479929D01*
X149977102Y-109543463D01*
X149981443Y-109603770D01*
X149957191Y-109659155D01*
X149909930Y-109696867D01*
X149850543Y-109708219D01*
X146793659Y-109544799D01*
X146778882Y-109543131D01*
X143811872Y-109029238D01*
X143795945Y-109025398D01*
X140741012Y-108074975D01*
X140725537Y-108069018D01*
X138001685Y-106808873D01*
X137988598Y-106801854D01*
X135366003Y-105189444D01*
X135353524Y-105180690D01*
X133995874Y-104100000D01*
X138416496Y-104100000D01*
X138436458Y-104289929D01*
X138495472Y-104471556D01*
X138590958Y-104636942D01*
X138590960Y-104636944D01*
X138718747Y-104778866D01*
X138873248Y-104891118D01*
X139047712Y-104968794D01*
X139234513Y-105008500D01*
X139425485Y-105008500D01*
X139425487Y-105008500D01*
X139612288Y-104968794D01*
X139786752Y-104891118D01*
X139941253Y-104778866D01*
X140069040Y-104636944D01*
X140164527Y-104471556D01*
X140223542Y-104289928D01*
X140243504Y-104100000D01*
X140223542Y-103910072D01*
X140182853Y-103784844D01*
X140164527Y-103728443D01*
X140069041Y-103563057D01*
X139941252Y-103421133D01*
X139846360Y-103352190D01*
X139786752Y-103308882D01*
X139612288Y-103231206D01*
X139425487Y-103191500D01*
X139234513Y-103191500D01*
X139109978Y-103217970D01*
X139047711Y-103231206D01*
X138873246Y-103308883D01*
X138718747Y-103421133D01*
X138590958Y-103563057D01*
X138495472Y-103728443D01*
X138436458Y-103910070D01*
X138416496Y-104100000D01*
X133995874Y-104100000D01*
X132927797Y-103249810D01*
X132915801Y-103238930D01*
X131666270Y-101950000D01*
X143936496Y-101950000D01*
X143956458Y-102139929D01*
X144015472Y-102321556D01*
X144110958Y-102486942D01*
X144238747Y-102628866D01*
X144403962Y-102748902D01*
X144402643Y-102750716D01*
X144438477Y-102779734D01*
X144461850Y-102840623D01*
X144479145Y-103005175D01*
X144538159Y-103186801D01*
X144624699Y-103336691D01*
X144640890Y-103386520D01*
X144635413Y-103438627D01*
X144576458Y-103620070D01*
X144556496Y-103810000D01*
X144576458Y-103999929D01*
X144635472Y-104181556D01*
X144730958Y-104346942D01*
X144730960Y-104346944D01*
X144858747Y-104488866D01*
X145013248Y-104601118D01*
X145187712Y-104678794D01*
X145374513Y-104718500D01*
X145565485Y-104718500D01*
X145565487Y-104718500D01*
X145752288Y-104678794D01*
X145926752Y-104601118D01*
X146081253Y-104488866D01*
X146209040Y-104346944D01*
X146304527Y-104181556D01*
X146363542Y-103999928D01*
X146383504Y-103810000D01*
X146363542Y-103620072D01*
X146304527Y-103438444D01*
X146217986Y-103288552D01*
X146201796Y-103238723D01*
X146207272Y-103186622D01*
X146266229Y-103005174D01*
X146286191Y-102815246D01*
X146266229Y-102625318D01*
X146207214Y-102443690D01*
X146207214Y-102443689D01*
X146111728Y-102278303D01*
X146032155Y-102189928D01*
X145983940Y-102136380D01*
X145829439Y-102024128D01*
X145829438Y-102024127D01*
X145818725Y-102016344D01*
X145820042Y-102014530D01*
X145784207Y-101985508D01*
X145760836Y-101924623D01*
X145743542Y-101760072D01*
X145684527Y-101578444D01*
X145684527Y-101578443D01*
X145589041Y-101413057D01*
X145461252Y-101271133D01*
X145306753Y-101158883D01*
X145306752Y-101158882D01*
X145132288Y-101081206D01*
X144945487Y-101041500D01*
X144754513Y-101041500D01*
X144629978Y-101067970D01*
X144567711Y-101081206D01*
X144393246Y-101158883D01*
X144238747Y-101271133D01*
X144110958Y-101413057D01*
X144015472Y-101578443D01*
X143956458Y-101760070D01*
X143936496Y-101950000D01*
X131666270Y-101950000D01*
X130762969Y-101018217D01*
X130752731Y-101006242D01*
X128900120Y-98542561D01*
X128891402Y-98529305D01*
X127981198Y-96934999D01*
X131401496Y-96934999D01*
X131421458Y-97124929D01*
X131480472Y-97306556D01*
X131575958Y-97471942D01*
X131575960Y-97471944D01*
X131703747Y-97613866D01*
X131858248Y-97726118D01*
X132032712Y-97803794D01*
X132219513Y-97843500D01*
X132410485Y-97843500D01*
X132410487Y-97843500D01*
X132597288Y-97803794D01*
X132771752Y-97726118D01*
X132926253Y-97613866D01*
X133054040Y-97471944D01*
X133149527Y-97306556D01*
X133208542Y-97124928D01*
X133228504Y-96935000D01*
X133208542Y-96745072D01*
X133149527Y-96563444D01*
X133149527Y-96563443D01*
X133054041Y-96398057D01*
X132926252Y-96256133D01*
X132771753Y-96143883D01*
X132771752Y-96143882D01*
X132597288Y-96066206D01*
X132410487Y-96026500D01*
X132219513Y-96026500D01*
X132094978Y-96052970D01*
X132032711Y-96066206D01*
X131858246Y-96143883D01*
X131703747Y-96256133D01*
X131575958Y-96398057D01*
X131480472Y-96563443D01*
X131421458Y-96745070D01*
X131401496Y-96934999D01*
X127981198Y-96934999D01*
X127373180Y-95869999D01*
X139546496Y-95869999D01*
X139566458Y-96059929D01*
X139625472Y-96241556D01*
X139720958Y-96406942D01*
X139720960Y-96406944D01*
X139848747Y-96548866D01*
X140003248Y-96661118D01*
X140177712Y-96738794D01*
X140364513Y-96778500D01*
X140555485Y-96778500D01*
X140555487Y-96778500D01*
X140742288Y-96738794D01*
X140916752Y-96661118D01*
X141071253Y-96548866D01*
X141199040Y-96406944D01*
X141294527Y-96241556D01*
X141353542Y-96059928D01*
X141373504Y-95870000D01*
X141354261Y-95686918D01*
X141361940Y-95628598D01*
X141395261Y-95580116D01*
X141446960Y-95552045D01*
X141505766Y-95550506D01*
X141636439Y-95578281D01*
X141684512Y-95588500D01*
X141684513Y-95588500D01*
X141875485Y-95588500D01*
X141875487Y-95588500D01*
X142062288Y-95548794D01*
X142236752Y-95471118D01*
X142391253Y-95358866D01*
X142519040Y-95216944D01*
X142614527Y-95051556D01*
X142673542Y-94869928D01*
X142693504Y-94680000D01*
X142673542Y-94490072D01*
X142614527Y-94308444D01*
X142614527Y-94308443D01*
X142519041Y-94143057D01*
X142391252Y-94001133D01*
X142236753Y-93888883D01*
X142236752Y-93888882D01*
X142062288Y-93811206D01*
X141875487Y-93771500D01*
X141684513Y-93771500D01*
X141559979Y-93797970D01*
X141497711Y-93811206D01*
X141323246Y-93888883D01*
X141168747Y-94001133D01*
X141040958Y-94143057D01*
X140945472Y-94308443D01*
X140886458Y-94490070D01*
X140866496Y-94680000D01*
X140885738Y-94863077D01*
X140878059Y-94921402D01*
X140844738Y-94969883D01*
X140793039Y-94997954D01*
X140734233Y-94999493D01*
X140555487Y-94961500D01*
X140364513Y-94961500D01*
X140239979Y-94987970D01*
X140177711Y-95001206D01*
X140003246Y-95078883D01*
X139848747Y-95191133D01*
X139720958Y-95333057D01*
X139625472Y-95498443D01*
X139566458Y-95680070D01*
X139546496Y-95869999D01*
X127373180Y-95869999D01*
X127368888Y-95862482D01*
X127361910Y-95848248D01*
X127250801Y-95580116D01*
X126188583Y-93016745D01*
X126183451Y-93001753D01*
X126084961Y-92641395D01*
X142597892Y-92641395D01*
X142617854Y-92831325D01*
X142676868Y-93012952D01*
X142772354Y-93178338D01*
X142772356Y-93178340D01*
X142900143Y-93320262D01*
X143054644Y-93432514D01*
X143229108Y-93510190D01*
X143284143Y-93521888D01*
X143345471Y-93554497D01*
X143380201Y-93614651D01*
X143377777Y-93684070D01*
X143351458Y-93765069D01*
X143331496Y-93955000D01*
X143351458Y-94144929D01*
X143410472Y-94326556D01*
X143505958Y-94491942D01*
X143505960Y-94491944D01*
X143633747Y-94633866D01*
X143788248Y-94746118D01*
X143962712Y-94823794D01*
X144149513Y-94863500D01*
X144340485Y-94863500D01*
X144340487Y-94863500D01*
X144527288Y-94823794D01*
X144701752Y-94746118D01*
X144856253Y-94633866D01*
X144984040Y-94491944D01*
X145079527Y-94326556D01*
X145138542Y-94144928D01*
X145158504Y-93955000D01*
X145138542Y-93765072D01*
X145079527Y-93583444D01*
X145079527Y-93583443D01*
X144984041Y-93418057D01*
X144856252Y-93276133D01*
X144758181Y-93204880D01*
X144701752Y-93163882D01*
X144554699Y-93098410D01*
X144527284Y-93086204D01*
X144472253Y-93074507D01*
X144410923Y-93041897D01*
X144376193Y-92981742D01*
X144378617Y-92912328D01*
X144404938Y-92831324D01*
X144424900Y-92641396D01*
X144404938Y-92451468D01*
X144385596Y-92391941D01*
X146500605Y-92391941D01*
X146501643Y-92401153D01*
X146501643Y-92429363D01*
X146500670Y-92437992D01*
X146503537Y-92446184D01*
X146509814Y-92473688D01*
X146510850Y-92482890D01*
X146515775Y-92490727D01*
X146528019Y-92516151D01*
X146530900Y-92524385D01*
X146537075Y-92530560D01*
X146537331Y-92530880D01*
X146547219Y-92540768D01*
X147240865Y-93234415D01*
X147240866Y-93234416D01*
X147305584Y-93299134D01*
X147309807Y-93300611D01*
X147314054Y-93302098D01*
X147339475Y-93314339D01*
X147347076Y-93319115D01*
X147355993Y-93320119D01*
X147383504Y-93326398D01*
X147391974Y-93329362D01*
X147400892Y-93328357D01*
X147429109Y-93328357D01*
X147438026Y-93329362D01*
X147446491Y-93326399D01*
X147473999Y-93320121D01*
X147482924Y-93319116D01*
X147490526Y-93314338D01*
X147515944Y-93302097D01*
X147524415Y-93299134D01*
X147589134Y-93234415D01*
X157756691Y-83066856D01*
X157756698Y-83066852D01*
X157839132Y-82984418D01*
X157839132Y-82984417D01*
X157839134Y-82984416D01*
X157842099Y-82975940D01*
X157854339Y-82950525D01*
X157859116Y-82942924D01*
X157860120Y-82934004D01*
X157866400Y-82906495D01*
X157869362Y-82898028D01*
X157869363Y-82898026D01*
X157868357Y-82889097D01*
X157868358Y-82860885D01*
X157869362Y-82851974D01*
X157866399Y-82843507D01*
X157860120Y-82815991D01*
X157859116Y-82807076D01*
X157854340Y-82799475D01*
X157842098Y-82774055D01*
X157839134Y-82765584D01*
X157774416Y-82700866D01*
X157774415Y-82700865D01*
X157080801Y-82007252D01*
X157064415Y-81990866D01*
X157055947Y-81987903D01*
X157030524Y-81975659D01*
X157022922Y-81970882D01*
X157013993Y-81969876D01*
X156986492Y-81963600D01*
X156978023Y-81960637D01*
X156969102Y-81961642D01*
X156940898Y-81961642D01*
X156931975Y-81960637D01*
X156923495Y-81963604D01*
X156895999Y-81969879D01*
X156887074Y-81970884D01*
X156879469Y-81975663D01*
X156854058Y-81987900D01*
X156845585Y-81990864D01*
X156837392Y-81999057D01*
X156829198Y-82007252D01*
X146615603Y-92220846D01*
X146615420Y-92220962D01*
X146530831Y-92305551D01*
X146527782Y-92314265D01*
X146515545Y-92339676D01*
X146510916Y-92347042D01*
X146509942Y-92355691D01*
X146503667Y-92383190D01*
X146500605Y-92391941D01*
X144385596Y-92391941D01*
X144355645Y-92299760D01*
X144345923Y-92269839D01*
X144250437Y-92104453D01*
X144122648Y-91962529D01*
X143968149Y-91850279D01*
X143968148Y-91850278D01*
X143793684Y-91772602D01*
X143606883Y-91732896D01*
X143415909Y-91732896D01*
X143291374Y-91759366D01*
X143229107Y-91772602D01*
X143054642Y-91850279D01*
X142900143Y-91962529D01*
X142772354Y-92104453D01*
X142676868Y-92269839D01*
X142617854Y-92451466D01*
X142597892Y-92641395D01*
X126084961Y-92641395D01*
X125532489Y-90619999D01*
X143356496Y-90619999D01*
X143376458Y-90809929D01*
X143435472Y-90991556D01*
X143530958Y-91156942D01*
X143530960Y-91156944D01*
X143658747Y-91298866D01*
X143813248Y-91411118D01*
X143987712Y-91488794D01*
X144174513Y-91528500D01*
X144365485Y-91528500D01*
X144365487Y-91528500D01*
X144552288Y-91488794D01*
X144726752Y-91411118D01*
X144881253Y-91298866D01*
X145009040Y-91156944D01*
X145104527Y-90991556D01*
X145163542Y-90809928D01*
X145183504Y-90620000D01*
X145163542Y-90430072D01*
X145104527Y-90248444D01*
X145104527Y-90248443D01*
X145009041Y-90083057D01*
X144881252Y-89941133D01*
X144726753Y-89828883D01*
X144726752Y-89828882D01*
X144552288Y-89751206D01*
X144365487Y-89711500D01*
X144174513Y-89711500D01*
X144049978Y-89737970D01*
X143987711Y-89751206D01*
X143813246Y-89828883D01*
X143658747Y-89941133D01*
X143530958Y-90083057D01*
X143435472Y-90248443D01*
X143376458Y-90430070D01*
X143356496Y-90619999D01*
X125532489Y-90619999D01*
X125358786Y-89984451D01*
X125355565Y-89968834D01*
X125351659Y-89941134D01*
X124928889Y-86943317D01*
X124927673Y-86927745D01*
X124879170Y-83862404D01*
X124879900Y-83846730D01*
X125219277Y-80743854D01*
X125222173Y-80727482D01*
X125305178Y-80390000D01*
X146246496Y-80390000D01*
X146266458Y-80579929D01*
X146325472Y-80761556D01*
X146420958Y-80926942D01*
X146420960Y-80926944D01*
X146548747Y-81068866D01*
X146703248Y-81181118D01*
X146877712Y-81258794D01*
X147064513Y-81298500D01*
X147255485Y-81298500D01*
X147255487Y-81298500D01*
X147442288Y-81258794D01*
X147616752Y-81181118D01*
X147771253Y-81068866D01*
X147899040Y-80926944D01*
X147994527Y-80761556D01*
X148053542Y-80579928D01*
X148063684Y-80483426D01*
X148087058Y-80422536D01*
X148137743Y-80381490D01*
X148263235Y-80325618D01*
X148417736Y-80213366D01*
X148545523Y-80071444D01*
X148641010Y-79906056D01*
X148700025Y-79724428D01*
X148711810Y-79612298D01*
X150344197Y-79612298D01*
X150364159Y-79802228D01*
X150423173Y-79983855D01*
X150518659Y-80149241D01*
X150603852Y-80243857D01*
X150646448Y-80291165D01*
X150670229Y-80308443D01*
X150671862Y-80309629D01*
X150706921Y-80348565D01*
X150723113Y-80398394D01*
X150717636Y-80450502D01*
X150699158Y-80507369D01*
X150679197Y-80697298D01*
X150699159Y-80887228D01*
X150758173Y-81068855D01*
X150853659Y-81234241D01*
X150853661Y-81234243D01*
X150981448Y-81376165D01*
X151135949Y-81488417D01*
X151310413Y-81566093D01*
X151497214Y-81605799D01*
X151688186Y-81605799D01*
X151688188Y-81605799D01*
X151874989Y-81566093D01*
X152049453Y-81488417D01*
X152049455Y-81488415D01*
X152061551Y-81483030D01*
X152062936Y-81486142D01*
X152101863Y-81471185D01*
X152166306Y-81481384D01*
X152317712Y-81548794D01*
X152504513Y-81588500D01*
X152695485Y-81588500D01*
X152695487Y-81588500D01*
X152882288Y-81548794D01*
X153056752Y-81471118D01*
X153211253Y-81358866D01*
X153339040Y-81216944D01*
X153434527Y-81051556D01*
X153493542Y-80869928D01*
X153513504Y-80680000D01*
X153493542Y-80490072D01*
X153434527Y-80308444D01*
X153434527Y-80308443D01*
X153339041Y-80143057D01*
X153211252Y-80001133D01*
X153134002Y-79945008D01*
X153056752Y-79888882D01*
X152882288Y-79811206D01*
X152695487Y-79771500D01*
X152504513Y-79771500D01*
X152366491Y-79800837D01*
X152316107Y-79811547D01*
X152257298Y-79810007D01*
X152205599Y-79781936D01*
X152172278Y-79733453D01*
X152164600Y-79675134D01*
X152171205Y-79612299D01*
X152151243Y-79422371D01*
X152092228Y-79240743D01*
X152092228Y-79240742D01*
X151996742Y-79075356D01*
X151868953Y-78933432D01*
X151714454Y-78821182D01*
X151714453Y-78821181D01*
X151539989Y-78743505D01*
X151353188Y-78703799D01*
X151162214Y-78703799D01*
X151037680Y-78730269D01*
X150975412Y-78743505D01*
X150800947Y-78821182D01*
X150646448Y-78933432D01*
X150518659Y-79075356D01*
X150423173Y-79240742D01*
X150364159Y-79422369D01*
X150344197Y-79612298D01*
X148711810Y-79612298D01*
X148719987Y-79534500D01*
X148700025Y-79344572D01*
X148695546Y-79330789D01*
X148691294Y-79269977D01*
X148716091Y-79214283D01*
X148764130Y-79176749D01*
X148866712Y-79131078D01*
X149021213Y-79018826D01*
X149149000Y-78876904D01*
X149244487Y-78711516D01*
X149303502Y-78529888D01*
X149323464Y-78339960D01*
X149303502Y-78150032D01*
X149244487Y-77968404D01*
X149244487Y-77968403D01*
X149149001Y-77803017D01*
X149021212Y-77661093D01*
X148866713Y-77548843D01*
X148866712Y-77548842D01*
X148692248Y-77471166D01*
X148505447Y-77431460D01*
X148314473Y-77431460D01*
X148189938Y-77457930D01*
X148127671Y-77471166D01*
X147953206Y-77548843D01*
X147798707Y-77661093D01*
X147670918Y-77803017D01*
X147575432Y-77968403D01*
X147516418Y-78150030D01*
X147496456Y-78339960D01*
X147516418Y-78529891D01*
X147520895Y-78543671D01*
X147525146Y-78604486D01*
X147500350Y-78660178D01*
X147452310Y-78697711D01*
X147349729Y-78743383D01*
X147195230Y-78855633D01*
X147067441Y-78997557D01*
X146971955Y-79162943D01*
X146912941Y-79344570D01*
X146902798Y-79441075D01*
X146879424Y-79501964D01*
X146828738Y-79543009D01*
X146703248Y-79598881D01*
X146548747Y-79711133D01*
X146420958Y-79853057D01*
X146325472Y-80018443D01*
X146266458Y-80200070D01*
X146246496Y-80390000D01*
X125305178Y-80390000D01*
X125959560Y-77729424D01*
X125963895Y-77715393D01*
X126777817Y-75540000D01*
X153046496Y-75540000D01*
X153066458Y-75729929D01*
X153125472Y-75911556D01*
X153220958Y-76076942D01*
X153220960Y-76076944D01*
X153348747Y-76218866D01*
X153503248Y-76331118D01*
X153677712Y-76408794D01*
X153864513Y-76448500D01*
X154055485Y-76448500D01*
X154055487Y-76448500D01*
X154242288Y-76408794D01*
X154416752Y-76331118D01*
X154571253Y-76218866D01*
X154699040Y-76076944D01*
X154794527Y-75911556D01*
X154814528Y-75850000D01*
X155716496Y-75850000D01*
X155736458Y-76039929D01*
X155795472Y-76221556D01*
X155890958Y-76386942D01*
X155890960Y-76386944D01*
X156018747Y-76528866D01*
X156173248Y-76641118D01*
X156347712Y-76718794D01*
X156534513Y-76758500D01*
X156725485Y-76758500D01*
X156725487Y-76758500D01*
X156912288Y-76718794D01*
X157086752Y-76641118D01*
X157241253Y-76528866D01*
X157369040Y-76386944D01*
X157464527Y-76221556D01*
X157523542Y-76039928D01*
X157543504Y-75850000D01*
X157523542Y-75660072D01*
X157464527Y-75478444D01*
X157464527Y-75478443D01*
X157369041Y-75313057D01*
X157241252Y-75171133D01*
X157086753Y-75058883D01*
X157086752Y-75058882D01*
X156912288Y-74981206D01*
X156725487Y-74941500D01*
X156534513Y-74941500D01*
X156409979Y-74967970D01*
X156347711Y-74981206D01*
X156173246Y-75058883D01*
X156018747Y-75171133D01*
X155890958Y-75313057D01*
X155795472Y-75478443D01*
X155736458Y-75660070D01*
X155716496Y-75850000D01*
X154814528Y-75850000D01*
X154853542Y-75729928D01*
X154873504Y-75540000D01*
X154853542Y-75350072D01*
X154794527Y-75168444D01*
X154794527Y-75168443D01*
X154699041Y-75003057D01*
X154571252Y-74861133D01*
X154416753Y-74748883D01*
X154416752Y-74748882D01*
X154242288Y-74671206D01*
X154055487Y-74631500D01*
X153864513Y-74631500D01*
X153739979Y-74657970D01*
X153677711Y-74671206D01*
X153503246Y-74748883D01*
X153348747Y-74861133D01*
X153220958Y-75003057D01*
X153125472Y-75168443D01*
X153066458Y-75350070D01*
X153046496Y-75540000D01*
X126777817Y-75540000D01*
X127030505Y-74864635D01*
X127037440Y-74849308D01*
X128140641Y-72790000D01*
X164226496Y-72790000D01*
X164246458Y-72979929D01*
X164305472Y-73161556D01*
X164400958Y-73326942D01*
X164400960Y-73326944D01*
X164528747Y-73468866D01*
X164683248Y-73581118D01*
X164857712Y-73658794D01*
X165044513Y-73698500D01*
X165235485Y-73698500D01*
X165235487Y-73698500D01*
X165422288Y-73658794D01*
X165596752Y-73581118D01*
X165751253Y-73468866D01*
X165879040Y-73326944D01*
X165974527Y-73161556D01*
X166033542Y-72979928D01*
X166053504Y-72790000D01*
X166033542Y-72600072D01*
X165974527Y-72418444D01*
X165974527Y-72418443D01*
X165879041Y-72253057D01*
X165751252Y-72111133D01*
X165596753Y-71998883D01*
X165596752Y-71998882D01*
X165422288Y-71921206D01*
X165235487Y-71881500D01*
X165044513Y-71881500D01*
X164919979Y-71907970D01*
X164857711Y-71921206D01*
X164683246Y-71998883D01*
X164528747Y-72111133D01*
X164400958Y-72253057D01*
X164305472Y-72418443D01*
X164246458Y-72600070D01*
X164226496Y-72790000D01*
X128140641Y-72790000D01*
X128492253Y-72133657D01*
X128500014Y-72121020D01*
X130275350Y-69579282D01*
X130285830Y-69566223D01*
X132358784Y-67309220D01*
X132370354Y-67298131D01*
X134719151Y-65318155D01*
X134730974Y-65309321D01*
X137351807Y-63581512D01*
X137366228Y-63573315D01*
X140129639Y-62235242D01*
X140143721Y-62229448D01*
X143032980Y-61240507D01*
X143048906Y-61236198D01*
X145984520Y-60645201D01*
X145999729Y-60643095D01*
X149162511Y-60400550D01*
X149179397Y-60400393D01*
X152194688Y-60574911D01*
G37*
%TD.AperFunction*%
%TA.AperFunction,Conductor*%
G36*
X188736500Y-35217381D02*
G01*
X188782619Y-35263500D01*
X188799500Y-35326500D01*
X188799500Y-45454237D01*
X188799500Y-45545763D01*
X188803392Y-45553846D01*
X188803395Y-45553851D01*
X188812713Y-45580481D01*
X188814710Y-45589231D01*
X188820304Y-45596245D01*
X188835317Y-45620136D01*
X188839212Y-45628224D01*
X188846231Y-45633822D01*
X188866180Y-45653771D01*
X188871776Y-45660788D01*
X188879856Y-45664679D01*
X188879858Y-45664680D01*
X188903749Y-45679692D01*
X188910769Y-45685290D01*
X188919518Y-45687286D01*
X188946143Y-45696602D01*
X188954237Y-45700500D01*
X188977410Y-45700500D01*
X189045763Y-45700500D01*
X199173500Y-45700500D01*
X199236500Y-45717381D01*
X199282619Y-45763500D01*
X199299500Y-45826500D01*
X199299500Y-124173500D01*
X199282619Y-124236500D01*
X199236500Y-124282619D01*
X199173500Y-124299500D01*
X188954236Y-124299500D01*
X188946145Y-124303396D01*
X188919523Y-124312711D01*
X188910766Y-124314709D01*
X188903745Y-124320309D01*
X188879866Y-124335314D01*
X188871777Y-124339210D01*
X188866177Y-124346232D01*
X188846232Y-124366177D01*
X188839210Y-124371777D01*
X188835314Y-124379866D01*
X188820309Y-124403745D01*
X188814709Y-124410766D01*
X188812711Y-124419523D01*
X188803396Y-124446145D01*
X188799500Y-124454236D01*
X188799500Y-134673500D01*
X188782619Y-134736500D01*
X188736500Y-134782619D01*
X188673500Y-134799500D01*
X110326500Y-134799500D01*
X110263500Y-134782619D01*
X110217381Y-134736500D01*
X110200500Y-134673500D01*
X110200500Y-124454239D01*
X110200500Y-124454237D01*
X110196602Y-124446143D01*
X110187286Y-124419518D01*
X110185290Y-124410769D01*
X110179692Y-124403749D01*
X110164680Y-124379858D01*
X110160788Y-124371777D01*
X110160788Y-124371776D01*
X110153771Y-124366180D01*
X110133822Y-124346231D01*
X110128224Y-124339212D01*
X110120136Y-124335317D01*
X110096247Y-124320305D01*
X110089231Y-124314710D01*
X110080478Y-124312712D01*
X110053851Y-124303395D01*
X110045763Y-124299500D01*
X110022590Y-124299500D01*
X99826500Y-124299500D01*
X99763500Y-124282619D01*
X99717381Y-124236500D01*
X99700500Y-124173500D01*
X99700500Y-123050000D01*
X133016496Y-123050000D01*
X133036458Y-123239929D01*
X133095472Y-123421556D01*
X133190958Y-123586942D01*
X133318747Y-123728866D01*
X133473248Y-123841118D01*
X133647712Y-123918794D01*
X133834513Y-123958500D01*
X134025485Y-123958500D01*
X134025487Y-123958500D01*
X134212288Y-123918794D01*
X134386752Y-123841118D01*
X134541253Y-123728866D01*
X134669040Y-123586944D01*
X134764527Y-123421556D01*
X134823542Y-123239928D01*
X134843504Y-123050000D01*
X134823542Y-122860072D01*
X134764527Y-122678444D01*
X134764527Y-122678443D01*
X134669041Y-122513057D01*
X134577266Y-122411131D01*
X134541253Y-122371134D01*
X134529705Y-122362744D01*
X134386753Y-122258883D01*
X134386752Y-122258882D01*
X134212288Y-122181206D01*
X134025487Y-122141500D01*
X133834513Y-122141500D01*
X133747817Y-122159928D01*
X133647711Y-122181206D01*
X133473246Y-122258883D01*
X133318747Y-122371133D01*
X133190958Y-122513057D01*
X133095472Y-122678443D01*
X133036458Y-122860070D01*
X133016496Y-123050000D01*
X99700500Y-123050000D01*
X99700500Y-85000000D01*
X107361562Y-85000000D01*
X107381297Y-85351392D01*
X107440250Y-85698367D01*
X107537682Y-86036561D01*
X107672367Y-86361720D01*
X107782525Y-86561035D01*
X107842609Y-86669749D01*
X108046271Y-86956783D01*
X108280790Y-87219210D01*
X108543217Y-87453729D01*
X108830251Y-87657391D01*
X109138283Y-87827634D01*
X109463440Y-87962318D01*
X109801632Y-88059750D01*
X110148607Y-88118703D01*
X110500000Y-88138437D01*
X110851393Y-88118703D01*
X111198368Y-88059750D01*
X111536560Y-87962318D01*
X111861717Y-87827634D01*
X112169749Y-87657391D01*
X112456783Y-87453729D01*
X112719210Y-87219210D01*
X112953729Y-86956783D01*
X113022740Y-86859520D01*
X113069243Y-86819691D01*
X113129032Y-86806485D01*
X113187987Y-86823021D01*
X113232186Y-86865396D01*
X113251190Y-86923603D01*
X113419122Y-89313400D01*
X113419055Y-89331973D01*
X113417208Y-89355790D01*
X113424231Y-89395772D01*
X113425820Y-89408721D01*
X113425850Y-89409160D01*
X113431985Y-89440084D01*
X113432493Y-89442799D01*
X114071502Y-93080237D01*
X114073350Y-93098410D01*
X114074064Y-93123226D01*
X114085029Y-93161340D01*
X114087839Y-93173505D01*
X114097529Y-93204880D01*
X114098228Y-93207226D01*
X115130831Y-96796748D01*
X115134611Y-96814734D01*
X115137886Y-96839007D01*
X115152925Y-96876076D01*
X115157161Y-96888330D01*
X115169861Y-96917890D01*
X115170850Y-96920257D01*
X116567293Y-100362194D01*
X116572899Y-100379510D01*
X116578866Y-100403807D01*
X116597517Y-100438594D01*
X116602702Y-100449641D01*
X116618909Y-100478542D01*
X116620057Y-100480634D01*
X117146778Y-101463057D01*
X118196590Y-103421134D01*
X118370323Y-103745174D01*
X118377828Y-103762035D01*
X118386039Y-103784845D01*
X118408658Y-103818135D01*
X118415481Y-103829402D01*
X118415514Y-103829465D01*
X118433969Y-103855435D01*
X118435478Y-103857605D01*
X118940686Y-104601118D01*
X120440827Y-106808873D01*
X120520024Y-106925426D01*
X120529157Y-106941218D01*
X120540024Y-106963608D01*
X120540025Y-106963610D01*
X120565632Y-106993815D01*
X120573131Y-107003680D01*
X120573415Y-107004002D01*
X120573417Y-107004005D01*
X120587417Y-107019888D01*
X120594940Y-107028422D01*
X120596510Y-107030239D01*
X121760267Y-108402998D01*
X123005697Y-109872097D01*
X123016570Y-109887013D01*
X123029378Y-109907600D01*
X123058467Y-109935410D01*
X123067495Y-109944993D01*
X123067543Y-109945050D01*
X123091054Y-109966602D01*
X123092983Y-109968408D01*
X123111226Y-109985849D01*
X125775623Y-112533130D01*
X125777156Y-112534595D01*
X125789456Y-112548202D01*
X125804580Y-112567602D01*
X125836158Y-112591975D01*
X125845865Y-112600320D01*
X125846030Y-112600442D01*
X125846033Y-112600445D01*
X125871952Y-112619632D01*
X125873967Y-112621156D01*
X127969610Y-114238598D01*
X128786092Y-114868770D01*
X128804325Y-114882842D01*
X128817912Y-114894994D01*
X128835255Y-114912927D01*
X128868949Y-114933622D01*
X128879081Y-114940613D01*
X128879480Y-114940847D01*
X128879487Y-114940853D01*
X128907635Y-114957408D01*
X128909589Y-114958583D01*
X131988104Y-116849398D01*
X132096348Y-116915881D01*
X132111195Y-116926558D01*
X132130198Y-116942437D01*
X132166064Y-116959531D01*
X132177112Y-116965534D01*
X132177407Y-116965667D01*
X132177411Y-116965670D01*
X132206997Y-116979064D01*
X132209105Y-116980044D01*
X135572605Y-118583116D01*
X135588481Y-118592150D01*
X135609110Y-118605959D01*
X135609111Y-118605959D01*
X135609112Y-118605960D01*
X135646525Y-118619133D01*
X135658053Y-118623895D01*
X135658418Y-118624015D01*
X135658421Y-118624017D01*
X135689263Y-118634206D01*
X135691477Y-118634961D01*
X138640751Y-119673438D01*
X139182160Y-119864075D01*
X139199023Y-119871438D01*
X139220634Y-119882819D01*
X139259590Y-119892078D01*
X139272108Y-119895759D01*
X139303597Y-119902566D01*
X139306059Y-119903124D01*
X142904008Y-120758374D01*
X142921670Y-120763973D01*
X142930771Y-120767614D01*
X142943986Y-120772901D01*
X142984097Y-120778114D01*
X142996995Y-120780478D01*
X142997272Y-120780544D01*
X143028775Y-120783950D01*
X143031460Y-120784270D01*
X146157563Y-121190580D01*
X146217038Y-121214816D01*
X146256842Y-121265218D01*
X146264808Y-121316860D01*
X146265112Y-121316829D01*
X146265772Y-121323111D01*
X146266633Y-121328691D01*
X146266495Y-121329996D01*
X146286458Y-121519929D01*
X146345472Y-121701556D01*
X146440958Y-121866942D01*
X146440960Y-121866944D01*
X146568747Y-122008866D01*
X146723248Y-122121118D01*
X146786337Y-122149206D01*
X146839105Y-122193205D01*
X146860947Y-122258346D01*
X146845366Y-122325261D01*
X146672367Y-122638279D01*
X146537682Y-122963438D01*
X146440250Y-123301632D01*
X146381297Y-123648607D01*
X146361562Y-124000000D01*
X146378947Y-124309553D01*
X146381297Y-124351393D01*
X146440250Y-124698368D01*
X146488965Y-124867463D01*
X146537682Y-125036561D01*
X146672367Y-125361720D01*
X146842605Y-125669742D01*
X146842609Y-125669749D01*
X147046271Y-125956783D01*
X147280790Y-126219210D01*
X147543217Y-126453729D01*
X147830251Y-126657391D01*
X148138283Y-126827634D01*
X148463440Y-126962318D01*
X148801632Y-127059750D01*
X149148607Y-127118703D01*
X149500000Y-127138437D01*
X149851393Y-127118703D01*
X150198368Y-127059750D01*
X150536560Y-126962318D01*
X150861717Y-126827634D01*
X151169749Y-126657391D01*
X151456783Y-126453729D01*
X151719210Y-126219210D01*
X151953729Y-125956783D01*
X152157391Y-125669749D01*
X152327634Y-125361717D01*
X152462318Y-125036560D01*
X152559750Y-124698368D01*
X152618703Y-124351393D01*
X152638437Y-124000000D01*
X152625417Y-123768173D01*
X152637051Y-123707806D01*
X152675867Y-123660126D01*
X152732626Y-123636491D01*
X152793811Y-123642529D01*
X152844856Y-123676801D01*
X152918747Y-123758866D01*
X153073248Y-123871118D01*
X153247712Y-123948794D01*
X153434513Y-123988500D01*
X153625485Y-123988500D01*
X153625487Y-123988500D01*
X153812288Y-123948794D01*
X153986752Y-123871118D01*
X154141253Y-123758866D01*
X154269040Y-123616944D01*
X154364527Y-123451556D01*
X154423542Y-123269928D01*
X154443504Y-123080000D01*
X154423542Y-122890072D01*
X154364527Y-122708444D01*
X154363843Y-122707259D01*
X154347650Y-122657428D01*
X154353127Y-122605319D01*
X154379323Y-122559947D01*
X154409040Y-122526944D01*
X154504527Y-122361556D01*
X154563542Y-122179928D01*
X154583504Y-121990000D01*
X154581402Y-121970000D01*
X156520996Y-121970000D01*
X156540958Y-122159929D01*
X156599972Y-122341556D01*
X156695458Y-122506942D01*
X156813714Y-122638279D01*
X156823247Y-122648866D01*
X156858268Y-122674310D01*
X156893326Y-122713245D01*
X156909517Y-122763075D01*
X156904040Y-122815181D01*
X156876459Y-122900068D01*
X156876458Y-122900072D01*
X156860700Y-123049999D01*
X156856496Y-123089999D01*
X156876458Y-123279929D01*
X156935472Y-123461556D01*
X157030958Y-123626942D01*
X157030960Y-123626944D01*
X157158747Y-123768866D01*
X157313248Y-123881118D01*
X157487712Y-123958794D01*
X157674513Y-123998500D01*
X157865485Y-123998500D01*
X157865487Y-123998500D01*
X158052288Y-123958794D01*
X158226752Y-123881118D01*
X158381253Y-123768866D01*
X158509040Y-123626944D01*
X158604527Y-123461556D01*
X158663542Y-123279928D01*
X158683504Y-123090000D01*
X158672994Y-122990000D01*
X187296496Y-122990000D01*
X187316458Y-123179929D01*
X187375472Y-123361556D01*
X187470958Y-123526942D01*
X187561000Y-123626944D01*
X187598747Y-123668866D01*
X187753248Y-123781118D01*
X187927712Y-123858794D01*
X188114513Y-123898500D01*
X188305485Y-123898500D01*
X188305487Y-123898500D01*
X188492288Y-123858794D01*
X188666752Y-123781118D01*
X188821253Y-123668866D01*
X188949040Y-123526944D01*
X189044527Y-123361556D01*
X189103542Y-123179928D01*
X189123504Y-122990000D01*
X189103542Y-122800072D01*
X189054412Y-122648866D01*
X189044527Y-122618443D01*
X188949041Y-122453057D01*
X188821252Y-122311133D01*
X188666753Y-122198883D01*
X188666752Y-122198882D01*
X188492288Y-122121206D01*
X188305487Y-122081500D01*
X188114513Y-122081500D01*
X187989979Y-122107970D01*
X187927711Y-122121206D01*
X187753246Y-122198883D01*
X187598747Y-122311133D01*
X187470958Y-122453057D01*
X187375472Y-122618443D01*
X187316458Y-122800070D01*
X187296496Y-122990000D01*
X158672994Y-122990000D01*
X158663542Y-122900072D01*
X158604527Y-122718444D01*
X158604527Y-122718443D01*
X158509041Y-122553057D01*
X158429463Y-122464677D01*
X158381253Y-122411134D01*
X158381252Y-122411133D01*
X158381250Y-122411131D01*
X158346230Y-122385687D01*
X158311172Y-122346751D01*
X158294982Y-122296921D01*
X158300458Y-122244818D01*
X158328042Y-122159928D01*
X158348004Y-121970000D01*
X158328042Y-121780072D01*
X158276537Y-121621556D01*
X158269027Y-121598443D01*
X158173541Y-121433057D01*
X158045752Y-121291133D01*
X157918781Y-121198883D01*
X157891252Y-121178882D01*
X157716788Y-121101206D01*
X157529987Y-121061500D01*
X157339013Y-121061500D01*
X157244921Y-121081500D01*
X157152211Y-121101206D01*
X156977746Y-121178883D01*
X156823247Y-121291133D01*
X156695458Y-121433057D01*
X156599972Y-121598443D01*
X156540958Y-121780070D01*
X156520996Y-121970000D01*
X154581402Y-121970000D01*
X154563542Y-121800072D01*
X154504527Y-121618444D01*
X154504527Y-121618443D01*
X154409041Y-121453057D01*
X154281252Y-121311133D01*
X154148683Y-121214816D01*
X154126752Y-121198882D01*
X153952288Y-121121206D01*
X153765487Y-121081500D01*
X153574513Y-121081500D01*
X153449979Y-121107970D01*
X153387711Y-121121206D01*
X153213246Y-121198883D01*
X153058747Y-121311133D01*
X152988013Y-121389691D01*
X152935813Y-121424372D01*
X152873363Y-121429615D01*
X152816112Y-121404125D01*
X152778222Y-121354206D01*
X152769067Y-121292211D01*
X152773504Y-121250000D01*
X152753542Y-121060072D01*
X152718506Y-120952244D01*
X152713382Y-120897144D01*
X152732365Y-120845157D01*
X152771794Y-120806320D01*
X152824060Y-120788125D01*
X155431625Y-120490709D01*
X155449979Y-120489964D01*
X155474486Y-120490758D01*
X155513513Y-120482072D01*
X155526239Y-120479938D01*
X155526384Y-120479902D01*
X155526389Y-120479902D01*
X155557641Y-120472278D01*
X155559980Y-120471732D01*
X159138388Y-119675438D01*
X159156569Y-119672766D01*
X159180984Y-119670983D01*
X159218903Y-119658236D01*
X159231388Y-119654760D01*
X159231504Y-119654718D01*
X159231510Y-119654717D01*
X159261805Y-119643841D01*
X159264126Y-119643034D01*
X162774620Y-118463036D01*
X162792264Y-118458497D01*
X162816804Y-118454047D01*
X162852760Y-118437523D01*
X162864201Y-118432988D01*
X162864617Y-118432786D01*
X162864623Y-118432785D01*
X162894056Y-118418568D01*
X162896043Y-118417632D01*
X166300569Y-116853125D01*
X166317235Y-116846853D01*
X166342308Y-116839397D01*
X166375192Y-116819666D01*
X166384530Y-116814738D01*
X166385729Y-116813991D01*
X166385738Y-116813988D01*
X166414490Y-116796104D01*
X166416064Y-116795142D01*
X169612746Y-114877133D01*
X169629349Y-114868771D01*
X169651375Y-114859648D01*
X169683889Y-114835234D01*
X169694710Y-114827955D01*
X169695110Y-114827716D01*
X169719929Y-114808209D01*
X169722011Y-114806609D01*
X172641711Y-112614377D01*
X172656888Y-112604600D01*
X172679208Y-112592393D01*
X172707749Y-112565705D01*
X172716640Y-112558249D01*
X172717239Y-112557668D01*
X172717245Y-112557664D01*
X172740988Y-112534654D01*
X172742555Y-112533161D01*
X175466911Y-109985838D01*
X175481264Y-109974269D01*
X175501188Y-109960490D01*
X175527570Y-109930063D01*
X175536708Y-109920579D01*
X175536778Y-109920514D01*
X175557176Y-109895963D01*
X175558816Y-109894030D01*
X177997735Y-107081406D01*
X178010556Y-107068611D01*
X178029663Y-107052109D01*
X178052049Y-107019875D01*
X178059345Y-107010489D01*
X178059725Y-107009919D01*
X178059730Y-107009914D01*
X178078035Y-106982495D01*
X178079260Y-106980696D01*
X180204292Y-103921043D01*
X180215578Y-103907045D01*
X180233066Y-103888276D01*
X180251645Y-103854160D01*
X180257584Y-103844538D01*
X180265490Y-103829402D01*
X180273463Y-103814137D01*
X180274431Y-103812321D01*
X182014336Y-100617579D01*
X182024467Y-100601878D01*
X182038662Y-100583095D01*
X182038661Y-100583095D01*
X182038663Y-100583094D01*
X182054440Y-100545335D01*
X182060048Y-100533646D01*
X182060406Y-100532991D01*
X182071799Y-100503874D01*
X182072853Y-100501271D01*
X183498184Y-97090306D01*
X183506454Y-97073968D01*
X183519178Y-97052802D01*
X183519179Y-97052801D01*
X183530554Y-97014670D01*
X183534816Y-97002735D01*
X183543528Y-96971270D01*
X183544194Y-96968950D01*
X184606334Y-93408816D01*
X184612778Y-93391811D01*
X184623318Y-93369105D01*
X184630509Y-93330290D01*
X184633366Y-93318442D01*
X184633451Y-93317928D01*
X184633454Y-93317919D01*
X184638800Y-93285660D01*
X184639210Y-93283332D01*
X184648274Y-93234416D01*
X185307868Y-89674540D01*
X185312473Y-89656918D01*
X185320522Y-89633257D01*
X185323542Y-89593881D01*
X185325128Y-89581740D01*
X185325157Y-89581235D01*
X185325159Y-89581225D01*
X185327039Y-89548579D01*
X185327193Y-89546298D01*
X185551593Y-86621349D01*
X185572427Y-86561035D01*
X185620140Y-86518662D01*
X185682495Y-86505099D01*
X185743498Y-86523827D01*
X185787501Y-86570039D01*
X185842609Y-86669749D01*
X186046271Y-86956783D01*
X186280790Y-87219210D01*
X186543217Y-87453729D01*
X186830251Y-87657391D01*
X187138283Y-87827634D01*
X187463440Y-87962318D01*
X187801632Y-88059750D01*
X188148607Y-88118703D01*
X188500000Y-88138437D01*
X188851393Y-88118703D01*
X189198368Y-88059750D01*
X189536560Y-87962318D01*
X189861717Y-87827634D01*
X190169749Y-87657391D01*
X190456783Y-87453729D01*
X190719210Y-87219210D01*
X190953729Y-86956783D01*
X191157391Y-86669749D01*
X191327634Y-86361717D01*
X191462318Y-86036560D01*
X191559750Y-85698368D01*
X191618703Y-85351393D01*
X191638437Y-85000000D01*
X191618703Y-84648607D01*
X191559750Y-84301632D01*
X191462318Y-83963440D01*
X191327634Y-83638283D01*
X191157391Y-83330251D01*
X190953729Y-83043217D01*
X190719210Y-82780790D01*
X190456783Y-82546271D01*
X190169749Y-82342609D01*
X190169742Y-82342605D01*
X189861720Y-82172367D01*
X189536561Y-82037682D01*
X189347498Y-81983214D01*
X189198368Y-81940250D01*
X188851393Y-81881297D01*
X188832707Y-81880247D01*
X188500000Y-81861562D01*
X188148607Y-81881297D01*
X187801632Y-81940250D01*
X187463438Y-82037682D01*
X187138279Y-82172367D01*
X186830257Y-82342605D01*
X186543215Y-82546272D01*
X186280790Y-82780790D01*
X186046272Y-83043215D01*
X185842607Y-83330254D01*
X185786587Y-83431615D01*
X185741562Y-83478453D01*
X185679189Y-83496633D01*
X185616049Y-83481322D01*
X185568931Y-83436590D01*
X185550362Y-83374331D01*
X185549079Y-83330257D01*
X185509831Y-81981523D01*
X185510616Y-81963352D01*
X185513502Y-81938473D01*
X185508158Y-81899396D01*
X185507157Y-81887275D01*
X185507073Y-81886737D01*
X185507073Y-81886733D01*
X185502030Y-81854409D01*
X185501686Y-81852055D01*
X185000156Y-78184009D01*
X184999000Y-78165730D01*
X184999237Y-78141040D01*
X184989714Y-78102423D01*
X184987334Y-78089967D01*
X184987261Y-78089696D01*
X184987261Y-78089692D01*
X184978878Y-78058377D01*
X184978287Y-78056082D01*
X184093301Y-74466966D01*
X184090226Y-74448964D01*
X184087837Y-74424284D01*
X184074300Y-74386951D01*
X184070659Y-74374961D01*
X184070536Y-74374644D01*
X184070536Y-74374640D01*
X184058857Y-74344298D01*
X184058031Y-74342086D01*
X184026425Y-74254922D01*
X182799362Y-70870914D01*
X182794403Y-70853360D01*
X182789397Y-70829010D01*
X182772005Y-70793382D01*
X182767150Y-70781932D01*
X182766972Y-70781584D01*
X182766970Y-70781579D01*
X182752139Y-70752636D01*
X182751067Y-70750492D01*
X181128652Y-67427001D01*
X181121822Y-67409956D01*
X181114398Y-67386625D01*
X181093170Y-67352725D01*
X181086874Y-67341382D01*
X181069225Y-67314432D01*
X181067842Y-67312273D01*
X179091156Y-64155476D01*
X179082625Y-64139367D01*
X179078502Y-64130000D01*
X188656496Y-64130000D01*
X188658360Y-64147736D01*
X188676458Y-64319929D01*
X188735472Y-64501556D01*
X188830958Y-64666942D01*
X188861730Y-64701118D01*
X188958747Y-64808866D01*
X189047009Y-64872992D01*
X189088053Y-64923678D01*
X189098257Y-64988097D01*
X189086496Y-65099999D01*
X189106458Y-65289929D01*
X189165472Y-65471556D01*
X189260958Y-65636942D01*
X189260960Y-65636944D01*
X189388747Y-65778866D01*
X189543248Y-65891118D01*
X189717712Y-65968794D01*
X189824423Y-65991476D01*
X189879215Y-66018200D01*
X189915049Y-66067521D01*
X189923534Y-66127892D01*
X189906496Y-66289999D01*
X189926458Y-66479929D01*
X189985472Y-66661556D01*
X190080958Y-66826942D01*
X190139891Y-66892394D01*
X190208747Y-66968866D01*
X190363248Y-67081118D01*
X190537712Y-67158794D01*
X190724513Y-67198500D01*
X190915485Y-67198500D01*
X190915487Y-67198500D01*
X191102288Y-67158794D01*
X191276752Y-67081118D01*
X191431253Y-66968866D01*
X191559040Y-66826944D01*
X191654527Y-66661556D01*
X191713542Y-66479928D01*
X191733504Y-66290000D01*
X191713542Y-66100072D01*
X191654527Y-65918444D01*
X191654527Y-65918443D01*
X191559041Y-65753057D01*
X191431252Y-65611133D01*
X191276753Y-65498883D01*
X191276752Y-65498882D01*
X191102288Y-65421206D01*
X191102284Y-65421204D01*
X190995578Y-65398523D01*
X190940783Y-65371798D01*
X190904950Y-65322477D01*
X190896465Y-65262110D01*
X190913504Y-65100000D01*
X190893542Y-64910072D01*
X190850887Y-64778793D01*
X190834527Y-64728443D01*
X190739041Y-64563057D01*
X190611252Y-64421133D01*
X190522991Y-64357007D01*
X190481945Y-64306319D01*
X190471742Y-64241900D01*
X190483504Y-64130000D01*
X190463542Y-63940072D01*
X190453771Y-63910000D01*
X193546496Y-63910000D01*
X193566458Y-64099929D01*
X193625472Y-64281556D01*
X193720958Y-64446942D01*
X193720960Y-64446944D01*
X193848747Y-64588866D01*
X194003248Y-64701118D01*
X194177712Y-64778794D01*
X194364513Y-64818500D01*
X194555485Y-64818500D01*
X194555487Y-64818500D01*
X194672762Y-64793572D01*
X194733687Y-64795700D01*
X194786484Y-64826182D01*
X194818790Y-64877883D01*
X194865472Y-65021555D01*
X194960958Y-65186942D01*
X194960960Y-65186944D01*
X195088747Y-65328866D01*
X195243248Y-65441118D01*
X195417712Y-65518794D01*
X195604513Y-65558500D01*
X195795486Y-65558500D01*
X195795487Y-65558500D01*
X195845040Y-65547967D01*
X195903844Y-65549506D01*
X195955544Y-65577576D01*
X195988866Y-65626057D01*
X195996545Y-65684382D01*
X195986496Y-65779998D01*
X196006458Y-65969929D01*
X196065472Y-66151556D01*
X196160958Y-66316942D01*
X196160960Y-66316944D01*
X196288747Y-66458866D01*
X196443248Y-66571118D01*
X196617712Y-66648794D01*
X196804513Y-66688500D01*
X196995485Y-66688500D01*
X196995487Y-66688500D01*
X197182288Y-66648794D01*
X197356752Y-66571118D01*
X197511253Y-66458866D01*
X197639040Y-66316944D01*
X197734527Y-66151556D01*
X197751081Y-66100605D01*
X197783385Y-66048908D01*
X197836183Y-66018425D01*
X197897109Y-66016298D01*
X197954513Y-66028500D01*
X198145485Y-66028500D01*
X198145487Y-66028500D01*
X198332288Y-65988794D01*
X198506752Y-65911118D01*
X198661253Y-65798866D01*
X198789040Y-65656944D01*
X198884527Y-65491556D01*
X198943542Y-65309928D01*
X198963504Y-65120000D01*
X198943542Y-64930072D01*
X198907290Y-64818500D01*
X198884527Y-64748443D01*
X198789041Y-64583057D01*
X198666484Y-64446944D01*
X198661253Y-64441134D01*
X198633725Y-64421134D01*
X198584002Y-64385008D01*
X198506752Y-64328882D01*
X198332288Y-64251206D01*
X198145487Y-64211500D01*
X197954513Y-64211500D01*
X197829978Y-64237970D01*
X197767711Y-64251206D01*
X197593246Y-64328883D01*
X197438747Y-64441133D01*
X197310958Y-64583057D01*
X197215473Y-64748441D01*
X197198918Y-64799392D01*
X197166611Y-64851091D01*
X197113815Y-64881573D01*
X197052889Y-64883701D01*
X197022168Y-64877171D01*
X196995487Y-64871500D01*
X196804513Y-64871500D01*
X196754959Y-64882032D01*
X196696153Y-64880493D01*
X196644453Y-64852422D01*
X196611133Y-64803940D01*
X196603454Y-64745617D01*
X196613504Y-64650000D01*
X196593542Y-64460072D01*
X196550916Y-64328883D01*
X196534527Y-64278443D01*
X196439041Y-64113057D01*
X196311252Y-63971133D01*
X196156753Y-63858883D01*
X196156752Y-63858882D01*
X195982288Y-63781206D01*
X195795487Y-63741500D01*
X195604513Y-63741500D01*
X195569403Y-63748962D01*
X195487239Y-63766427D01*
X195426313Y-63764299D01*
X195373516Y-63733817D01*
X195341210Y-63682117D01*
X195294526Y-63538442D01*
X195199041Y-63373057D01*
X195071252Y-63231133D01*
X194916753Y-63118883D01*
X194916752Y-63118882D01*
X194742288Y-63041206D01*
X194555487Y-63001500D01*
X194364513Y-63001500D01*
X194239979Y-63027970D01*
X194177711Y-63041206D01*
X194003246Y-63118883D01*
X193848747Y-63231133D01*
X193720958Y-63373057D01*
X193625472Y-63538443D01*
X193566458Y-63720070D01*
X193546496Y-63910000D01*
X190453771Y-63910000D01*
X190407121Y-63766427D01*
X190404527Y-63758443D01*
X190309041Y-63593057D01*
X190181252Y-63451133D01*
X190026753Y-63338883D01*
X190026752Y-63338882D01*
X189852288Y-63261206D01*
X189665487Y-63221500D01*
X189474513Y-63221500D01*
X189349979Y-63247970D01*
X189287711Y-63261206D01*
X189113246Y-63338883D01*
X188958746Y-63451134D01*
X188948705Y-63462286D01*
X188898163Y-63496376D01*
X188837533Y-63502748D01*
X188831007Y-63500111D01*
X188840852Y-63546421D01*
X188824049Y-63605024D01*
X188735472Y-63758445D01*
X188676458Y-63940070D01*
X188658277Y-64113056D01*
X188656496Y-64130000D01*
X179078502Y-64130000D01*
X179072577Y-64116539D01*
X179072575Y-64116536D01*
X179048148Y-64085447D01*
X179041077Y-64075387D01*
X179020157Y-64049786D01*
X179018650Y-64047905D01*
X178030296Y-62790000D01*
X187086496Y-62790000D01*
X187106458Y-62979929D01*
X187165472Y-63161556D01*
X187260958Y-63326942D01*
X187342273Y-63417251D01*
X187388747Y-63468866D01*
X187543248Y-63581118D01*
X187717712Y-63658794D01*
X187904513Y-63698500D01*
X188095485Y-63698500D01*
X188095487Y-63698500D01*
X188282288Y-63658794D01*
X188456752Y-63581118D01*
X188611253Y-63468866D01*
X188621294Y-63457714D01*
X188671831Y-63423625D01*
X188732462Y-63417251D01*
X188738990Y-63419888D01*
X188729147Y-63373576D01*
X188745951Y-63314974D01*
X188794356Y-63231134D01*
X188834527Y-63161556D01*
X188893542Y-62979928D01*
X188913504Y-62790000D01*
X188893542Y-62600072D01*
X188834527Y-62418444D01*
X188834527Y-62418443D01*
X188739041Y-62253057D01*
X188611252Y-62111133D01*
X188456753Y-61998883D01*
X188456752Y-61998882D01*
X188282288Y-61921206D01*
X188095487Y-61881500D01*
X187904513Y-61881500D01*
X187779979Y-61907970D01*
X187717711Y-61921206D01*
X187543246Y-61998883D01*
X187388747Y-62111133D01*
X187260958Y-62253057D01*
X187165472Y-62418443D01*
X187106458Y-62600070D01*
X187086496Y-62790000D01*
X178030296Y-62790000D01*
X176747186Y-61156951D01*
X176736984Y-61141829D01*
X176724582Y-61120223D01*
X176696965Y-61091879D01*
X176688820Y-61082578D01*
X176665334Y-61059383D01*
X176663654Y-61057692D01*
X174047394Y-58372584D01*
X174035591Y-58358559D01*
X174021143Y-58338608D01*
X173990464Y-58313148D01*
X173981103Y-58304505D01*
X173955680Y-58284251D01*
X173953729Y-58282664D01*
X171122054Y-55932767D01*
X171108880Y-55920113D01*
X171092285Y-55901678D01*
X171092284Y-55901677D01*
X171059233Y-55879713D01*
X171049178Y-55872233D01*
X171021499Y-55854607D01*
X171019439Y-55853267D01*
X167911592Y-53787926D01*
X167897154Y-53776742D01*
X167878667Y-53760144D01*
X167843505Y-53741826D01*
X167832777Y-53735491D01*
X167803323Y-53720865D01*
X167801149Y-53719759D01*
X164516679Y-52008689D01*
X164501122Y-51999089D01*
X164481030Y-51984578D01*
X164444082Y-51970070D01*
X164432665Y-51964872D01*
X164401902Y-51953482D01*
X164399601Y-51952605D01*
X160917567Y-50585365D01*
X160901204Y-50577536D01*
X160879308Y-50565050D01*
X160879307Y-50565049D01*
X160879306Y-50565049D01*
X160841422Y-50554689D01*
X160830076Y-50550922D01*
X160797596Y-50542680D01*
X160795348Y-50542088D01*
X157235546Y-49568550D01*
X157218266Y-49562442D01*
X157195707Y-49552569D01*
X157195705Y-49552568D01*
X157195704Y-49552568D01*
X157172281Y-49548757D01*
X157156360Y-49546167D01*
X157143887Y-49543455D01*
X157111656Y-49538871D01*
X157109171Y-49538492D01*
X153421651Y-48938653D01*
X153403741Y-48934377D01*
X153380514Y-48927000D01*
X153340463Y-48924745D01*
X153327419Y-48923320D01*
X153295393Y-48922179D01*
X153292798Y-48922060D01*
X151339665Y-48812098D01*
X151280901Y-48793722D01*
X151237860Y-48749695D01*
X151220819Y-48690530D01*
X151233848Y-48630354D01*
X151273833Y-48583538D01*
X151456783Y-48453729D01*
X151719210Y-48219210D01*
X151953729Y-47956783D01*
X152157391Y-47669749D01*
X152327634Y-47361717D01*
X152462318Y-47036560D01*
X152559750Y-46698368D01*
X152618703Y-46351393D01*
X152638437Y-46000000D01*
X152618703Y-45648607D01*
X152559750Y-45301632D01*
X152462318Y-44963440D01*
X152327634Y-44638283D01*
X152157391Y-44330251D01*
X151953729Y-44043217D01*
X151719210Y-43780790D01*
X151456783Y-43546271D01*
X151169749Y-43342609D01*
X151169742Y-43342605D01*
X150861720Y-43172367D01*
X150536561Y-43037682D01*
X150367464Y-42988966D01*
X150198368Y-42940250D01*
X149851393Y-42881297D01*
X149832707Y-42880247D01*
X149500000Y-42861562D01*
X149148607Y-42881297D01*
X148801632Y-42940250D01*
X148463438Y-43037682D01*
X148138279Y-43172367D01*
X147830257Y-43342605D01*
X147543215Y-43546272D01*
X147280790Y-43780790D01*
X147046272Y-44043215D01*
X146842605Y-44330257D01*
X146672367Y-44638279D01*
X146537682Y-44963438D01*
X146440250Y-45301632D01*
X146381297Y-45648607D01*
X146361562Y-46000000D01*
X146381297Y-46351392D01*
X146440250Y-46698367D01*
X146537682Y-47036561D01*
X146672367Y-47361720D01*
X146842605Y-47669742D01*
X146842609Y-47669749D01*
X147046271Y-47956783D01*
X147280790Y-48219210D01*
X147517992Y-48431187D01*
X147543218Y-48453730D01*
X147716724Y-48576839D01*
X147756779Y-48623793D01*
X147769730Y-48684136D01*
X147752471Y-48743391D01*
X147709141Y-48787341D01*
X147650137Y-48805441D01*
X145778537Y-48899517D01*
X145760210Y-48899103D01*
X145735692Y-48896756D01*
X145696311Y-48902946D01*
X145683616Y-48904259D01*
X145651674Y-48909936D01*
X145649193Y-48910352D01*
X142021164Y-49480611D01*
X142002963Y-49482132D01*
X141978135Y-49482400D01*
X141939825Y-49492678D01*
X141927628Y-49495266D01*
X141927262Y-49495371D01*
X141927261Y-49495372D01*
X141896044Y-49504401D01*
X141893688Y-49505057D01*
X138264023Y-50478869D01*
X138246131Y-50482306D01*
X138221337Y-50485230D01*
X138184464Y-50499475D01*
X138172781Y-50503288D01*
X138142176Y-50515789D01*
X138139942Y-50516677D01*
X134678790Y-51853940D01*
X134661109Y-51859318D01*
X134637538Y-51864635D01*
X134601649Y-51883009D01*
X134589660Y-51888377D01*
X134589622Y-51888392D01*
X134589502Y-51888438D01*
X134561488Y-51903538D01*
X134559128Y-51904778D01*
X131274531Y-53586414D01*
X131258033Y-53593428D01*
X131233577Y-53601825D01*
X131201296Y-53623071D01*
X131191796Y-53628607D01*
X131163144Y-53648160D01*
X131161392Y-53649333D01*
X128084128Y-55674624D01*
X128067721Y-55683748D01*
X128046590Y-55693514D01*
X128014662Y-55719558D01*
X128004294Y-55727168D01*
X128003432Y-55727735D01*
X127979924Y-55747849D01*
X127977652Y-55749747D01*
X125097191Y-58099337D01*
X125082300Y-58109789D01*
X125060814Y-58122660D01*
X125033068Y-58150718D01*
X125024048Y-58158916D01*
X125001147Y-58182966D01*
X124999494Y-58184670D01*
X122383229Y-60830441D01*
X122369531Y-60842424D01*
X122349558Y-60857495D01*
X122324938Y-60888373D01*
X122316835Y-60897493D01*
X122296668Y-60923795D01*
X122295198Y-60925675D01*
X119974386Y-63836525D01*
X119961876Y-63850054D01*
X119944087Y-63866669D01*
X119922481Y-63900516D01*
X119914835Y-63911212D01*
X119898203Y-63938497D01*
X119896822Y-63940711D01*
X117900346Y-67068195D01*
X117889582Y-67082658D01*
X117872909Y-67102002D01*
X117855605Y-67136918D01*
X117849969Y-67146898D01*
X117835377Y-67177694D01*
X117834412Y-67179686D01*
X116192193Y-70493623D01*
X116182788Y-70509545D01*
X116169025Y-70529362D01*
X116154969Y-70567197D01*
X116149760Y-70579252D01*
X116149676Y-70579419D01*
X116139255Y-70609412D01*
X116138349Y-70611935D01*
X114830209Y-74133095D01*
X114822700Y-74149569D01*
X114810577Y-74171784D01*
X114800949Y-74209772D01*
X114797445Y-74221023D01*
X114789763Y-74253823D01*
X114789221Y-74256044D01*
X113884644Y-77825194D01*
X113878800Y-77842733D01*
X113869502Y-77865029D01*
X113863720Y-77904958D01*
X113861168Y-77917821D01*
X113861125Y-77917989D01*
X113857233Y-77949583D01*
X113856878Y-77952229D01*
X113326017Y-81619107D01*
X113322050Y-81637104D01*
X113315084Y-81660431D01*
X113313524Y-81700564D01*
X113312325Y-81713663D01*
X113311746Y-81745607D01*
X113311672Y-81748214D01*
X113259755Y-83084227D01*
X113242181Y-83143679D01*
X113198382Y-83187554D01*
X113138959Y-83205230D01*
X113078300Y-83192428D01*
X113031089Y-83152246D01*
X113025010Y-83143679D01*
X112970499Y-83066852D01*
X112953730Y-83043218D01*
X112870890Y-82950520D01*
X112719210Y-82780790D01*
X112456783Y-82546271D01*
X112169749Y-82342609D01*
X112169742Y-82342605D01*
X111861720Y-82172367D01*
X111536561Y-82037682D01*
X111347498Y-81983214D01*
X111198368Y-81940250D01*
X110851393Y-81881297D01*
X110832707Y-81880247D01*
X110500000Y-81861562D01*
X110148607Y-81881297D01*
X109801632Y-81940250D01*
X109463438Y-82037682D01*
X109138279Y-82172367D01*
X108830257Y-82342605D01*
X108543215Y-82546272D01*
X108280790Y-82780790D01*
X108046272Y-83043215D01*
X107842605Y-83330257D01*
X107672367Y-83638279D01*
X107537682Y-83963438D01*
X107440250Y-84301632D01*
X107381297Y-84648607D01*
X107361562Y-85000000D01*
X99700500Y-85000000D01*
X99700500Y-45826500D01*
X99717381Y-45763500D01*
X99763500Y-45717381D01*
X99826500Y-45700500D01*
X110045763Y-45700500D01*
X110053847Y-45696606D01*
X110080482Y-45687286D01*
X110089231Y-45685290D01*
X110091175Y-45683738D01*
X110096247Y-45679695D01*
X110120139Y-45664681D01*
X110128224Y-45660788D01*
X110133821Y-45653768D01*
X110153768Y-45633821D01*
X110160788Y-45628224D01*
X110164683Y-45620136D01*
X110179695Y-45596247D01*
X110185289Y-45589232D01*
X110185288Y-45589232D01*
X110185290Y-45589231D01*
X110187287Y-45580481D01*
X110196607Y-45553846D01*
X110200500Y-45545763D01*
X110200500Y-35326500D01*
X110217381Y-35263500D01*
X110263500Y-35217381D01*
X110326500Y-35200500D01*
X188673500Y-35200500D01*
X188736500Y-35217381D01*
G37*
%TD.AperFunction*%
%TD*%
M02*
