%TF.GenerationSoftware,KiCad,Pcbnew,7.0.1*%
%TF.CreationDate,2024-01-21T14:51:42-07:00*%
%TF.ProjectId,solar-panel-side-Z,736f6c61-722d-4706-916e-656c2d736964,3.1*%
%TF.SameCoordinates,Original*%
%TF.FileFunction,Copper,L4,Bot*%
%TF.FilePolarity,Positive*%
%FSLAX46Y46*%
G04 Gerber Fmt 4.6, Leading zero omitted, Abs format (unit mm)*
G04 Created by KiCad (PCBNEW 7.0.1) date 2024-01-21 14:51:42*
%MOMM*%
%LPD*%
G01*
G04 APERTURE LIST*
G04 Aperture macros list*
%AMRoundRect*
0 Rectangle with rounded corners*
0 $1 Rounding radius*
0 $2 $3 $4 $5 $6 $7 $8 $9 X,Y pos of 4 corners*
0 Add a 4 corners polygon primitive as box body*
4,1,4,$2,$3,$4,$5,$6,$7,$8,$9,$2,$3,0*
0 Add four circle primitives for the rounded corners*
1,1,$1+$1,$2,$3*
1,1,$1+$1,$4,$5*
1,1,$1+$1,$6,$7*
1,1,$1+$1,$8,$9*
0 Add four rect primitives between the rounded corners*
20,1,$1+$1,$2,$3,$4,$5,0*
20,1,$1+$1,$4,$5,$6,$7,0*
20,1,$1+$1,$6,$7,$8,$9,0*
20,1,$1+$1,$8,$9,$2,$3,0*%
G04 Aperture macros list end*
%TA.AperFunction,SMDPad,CuDef*%
%ADD10RoundRect,0.500000X0.802566X-0.095459X-0.095459X0.802566X-0.802566X0.095459X0.095459X-0.802566X0*%
%TD*%
%TA.AperFunction,SMDPad,CuDef*%
%ADD11R,0.600000X1.000000*%
%TD*%
%TA.AperFunction,SMDPad,CuDef*%
%ADD12R,1.250000X1.800000*%
%TD*%
%TA.AperFunction,SMDPad,CuDef*%
%ADD13R,1.000000X0.600000*%
%TD*%
%TA.AperFunction,SMDPad,CuDef*%
%ADD14R,1.800000X1.250000*%
%TD*%
%TA.AperFunction,SMDPad,CuDef*%
%ADD15RoundRect,0.500000X1.860000X0.500000X-1.860000X0.500000X-1.860000X-0.500000X1.860000X-0.500000X0*%
%TD*%
%TA.AperFunction,SMDPad,CuDef*%
%ADD16RoundRect,0.500000X0.500000X-0.635000X0.500000X0.635000X-0.500000X0.635000X-0.500000X-0.635000X0*%
%TD*%
%TA.AperFunction,ComponentPad*%
%ADD17C,5.250000*%
%TD*%
%TA.AperFunction,ViaPad*%
%ADD18C,0.800000*%
%TD*%
%TA.AperFunction,Conductor*%
%ADD19C,0.250000*%
%TD*%
%TA.AperFunction,Conductor*%
%ADD20C,0.500000*%
%TD*%
G04 APERTURE END LIST*
D10*
%TO.P,U5,1,GND*%
%TO.N,GND*%
X119703140Y-49559925D03*
%TO.P,U5,2,3V3*%
%TO.N,Camera_Pwr*%
X117907089Y-51355976D03*
%TO.P,U5,3,SDA*%
%TO.N,Camera_SDA*%
X116111037Y-53152028D03*
%TO.P,U5,4,SCL*%
%TO.N,Camera_SCL*%
X114314986Y-54948079D03*
%TD*%
D11*
%TO.P,J9,1,Pin_1*%
%TO.N,VSOLAR*%
X126618501Y-113810000D03*
%TO.P,J9,2,Pin_2*%
%TO.N,GND*%
X125118501Y-113810000D03*
%TO.P,J9,3,Pin_3*%
%TO.N,F3_ENB*%
X123618502Y-113810000D03*
%TO.P,J9,4,Pin_4*%
%TO.N,F3_SCL*%
X122118500Y-113810000D03*
%TO.P,J9,5,Pin_5*%
%TO.N,F3_SDA*%
X120618500Y-113810000D03*
D12*
%TO.P,J9,6*%
%TO.N,N/C*%
X129223500Y-119000000D03*
%TO.P,J9,7*%
X118013502Y-119000000D03*
%TD*%
D13*
%TO.P,J8,1,Pin_1*%
%TO.N,VSOLAR*%
X175830000Y-62211499D03*
%TO.P,J8,2,Pin_2*%
%TO.N,GND*%
X175830000Y-63711499D03*
%TO.P,J8,3,Pin_3*%
%TO.N,F2_ENB*%
X175830000Y-65211498D03*
%TO.P,J8,4,Pin_4*%
%TO.N,F2_SCL*%
X175830000Y-66711500D03*
%TO.P,J8,5,Pin_5*%
%TO.N,F2_SDA*%
X175830000Y-68211500D03*
D14*
%TO.P,J8,6*%
%TO.N,N/C*%
X181020000Y-59606500D03*
%TO.P,J8,7*%
X181020000Y-70816498D03*
%TD*%
D11*
%TO.P,J3,1,Pin_1*%
%TO.N,VSOLAR*%
X172881499Y-55130001D03*
%TO.P,J3,2,Pin_2*%
%TO.N,GND*%
X174381499Y-55130001D03*
%TO.P,J3,3,Pin_3*%
%TO.N,F1_ENB*%
X175881498Y-55130001D03*
%TO.P,J3,4,Pin_4*%
%TO.N,F1_SCL*%
X177381500Y-55130001D03*
%TO.P,J3,5,Pin_5*%
%TO.N,F1_SDA*%
X178881500Y-55130001D03*
D12*
%TO.P,J3,6*%
%TO.N,N/C*%
X170276500Y-49940001D03*
%TO.P,J3,7*%
X181486498Y-49940001D03*
%TD*%
D13*
%TO.P,J2,1,Pin_1*%
%TO.N,VSOLAR*%
X123080001Y-103618501D03*
%TO.P,J2,2,Pin_2*%
%TO.N,GND*%
X123080001Y-102118501D03*
%TO.P,J2,3,Pin_3*%
%TO.N,F0_ENB*%
X123080001Y-100618502D03*
%TO.P,J2,4,Pin_4*%
%TO.N,F0_SCL*%
X123080001Y-99118500D03*
%TO.P,J2,5,Pin_5*%
%TO.N,F0_SDA*%
X123080001Y-97618500D03*
D14*
%TO.P,J2,6*%
%TO.N,N/C*%
X117890001Y-106223500D03*
%TO.P,J2,7*%
X117890001Y-95013502D03*
%TD*%
D15*
%TO.P,U4,1,GND*%
%TO.N,GND*%
X184400000Y-100080000D03*
%TO.P,U4,2,F0PWR*%
%TO.N,F0_ENB*%
X184400000Y-102620000D03*
%TO.P,U4,3,F0SCL*%
%TO.N,F0_SCL*%
X184400000Y-105160000D03*
%TO.P,U4,4,F0SDA*%
%TO.N,F0_SDA*%
X184400000Y-107700000D03*
%TO.P,U4,5,F1PWR*%
%TO.N,F1_ENB*%
X184400000Y-110240000D03*
%TO.P,U4,6,F1SCL*%
%TO.N,F1_SCL*%
X184400000Y-112780000D03*
%TO.P,U4,7,F1SDA*%
%TO.N,F1_SDA*%
X184400000Y-115320000D03*
%TO.P,U4,8,F2PWR*%
%TO.N,F2_ENB*%
X184400000Y-117860000D03*
%TO.P,U4,9,F2SCL*%
%TO.N,F2_SCL*%
X184400000Y-120400000D03*
%TO.P,U4,10,F2SDA*%
%TO.N,F2_SDA*%
X184400000Y-122940000D03*
%TO.P,U4,11,GND*%
%TO.N,GND*%
X184400000Y-125480000D03*
%TO.P,U4,12,GND*%
X162440000Y-100080000D03*
%TO.P,U4,13,F3PWR*%
%TO.N,F3_ENB*%
X162440000Y-102620000D03*
%TO.P,U4,14,F3SCL*%
%TO.N,F3_SCL*%
X162440000Y-105160000D03*
%TO.P,U4,15,F3SDA*%
%TO.N,F3_SDA*%
X162440000Y-107700000D03*
%TO.P,U4,16,F4PWR*%
%TO.N,+3V3*%
X162440000Y-110240000D03*
%TO.P,U4,17,F4SCL*%
%TO.N,SCL*%
X162440000Y-112780000D03*
%TO.P,U4,18,F4SDA*%
%TO.N,SDA*%
X162440000Y-115320000D03*
%TO.P,U4,19,XPWR*%
%TO.N,Camera_Pwr*%
X162440000Y-117860000D03*
%TO.P,U4,20,XSCL*%
%TO.N,Camera_SCL*%
X162440000Y-120400000D03*
%TO.P,U4,21,XSDA*%
%TO.N,Camera_SDA*%
X162440000Y-122940000D03*
%TO.P,U4,22,GND*%
%TO.N,GND*%
X162440000Y-125480000D03*
D16*
%TO.P,U4,23,GND*%
X177160000Y-95365000D03*
%TO.P,U4,24,3V3*%
%TO.N,3v3_break*%
X174620000Y-95365000D03*
%TO.P,U4,25,SDA*%
%TO.N,SDA_Break*%
X172080000Y-95365000D03*
%TO.P,U4,26,SCL*%
%TO.N,SCL_Break*%
X169540000Y-95365000D03*
%TD*%
D17*
%TO.P,J4,1,Pin_1*%
%TO.N,unconnected-(J4-Pin_1-Pad1)*%
X110500000Y-85000000D03*
%TD*%
%TO.P,J5,1,Pin_1*%
%TO.N,unconnected-(J5-Pin_1-Pad1)*%
X149500000Y-124000000D03*
%TD*%
%TO.P,J6,1,Pin_1*%
%TO.N,unconnected-(J6-Pin_1-Pad1)*%
X149500000Y-46000000D03*
%TD*%
%TO.P,J7,1,Pin_1*%
%TO.N,unconnected-(J7-Pin_1-Pad1)*%
X188500000Y-85000000D03*
%TD*%
D11*
%TO.P,J1,1,1*%
%TO.N,SDA_Break*%
X139278501Y-99850000D03*
%TO.P,J1,2,2*%
%TO.N,SCL_Break*%
X137778501Y-99850000D03*
%TO.P,J1,3,3*%
%TO.N,3v3_break*%
X136278502Y-99850000D03*
%TO.P,J1,4,4*%
%TO.N,GND*%
X134778500Y-99850000D03*
%TO.P,J1,5,5*%
%TO.N,VSOLAR*%
X133278500Y-99850000D03*
D12*
%TO.P,J1,6,6*%
%TO.N,unconnected-(J1-Pad6)*%
X141883500Y-105040000D03*
%TO.P,J1,7,7*%
%TO.N,unconnected-(J1-Pad7)*%
X130673502Y-105040000D03*
%TD*%
D18*
%TO.N,+3V3*%
X165140000Y-72790000D03*
%TO.N,Camera_SDA*%
X147806483Y-79534500D03*
X151257701Y-79612299D03*
%TO.N,Camera_SCL*%
X147160000Y-80390000D03*
X151592701Y-80697299D03*
%TO.N,Camera_Pwr*%
X148409960Y-78339960D03*
X152600000Y-80680000D03*
%TO.N,SDA*%
X156630000Y-75850000D03*
X153960000Y-75540000D03*
%TO.N,VSOLAR*%
X188210000Y-122990000D03*
X188000000Y-62790000D03*
X198050000Y-65120000D03*
%TO.N,SDA_Break*%
X169800000Y-97570000D03*
X144850000Y-101950000D03*
%TO.N,SCL_Break*%
X168080000Y-97620000D03*
X145372687Y-102815246D03*
%TO.N,3v3_break*%
X169240000Y-98420000D03*
X145470000Y-103810000D03*
%TO.N,F2_SDA*%
X196900000Y-65780000D03*
X190820000Y-66290000D03*
%TO.N,F2_SCL*%
X195700000Y-64650000D03*
X190000000Y-65100000D03*
%TO.N,F2_ENB*%
X194460000Y-63910000D03*
X189570000Y-64130000D03*
%TO.N,SDA*%
X153530000Y-123080000D03*
X157770000Y-123090000D03*
%TO.N,SCL*%
X157434500Y-121970000D03*
X153670000Y-121990000D03*
%TO.N,+3V3*%
X165980000Y-102000000D03*
%TO.N,GND*%
X171630000Y-123540000D03*
X161490000Y-69180000D03*
X164540000Y-46420000D03*
X156260000Y-77181974D03*
X145680000Y-105410000D03*
X148900000Y-105410000D03*
X137946283Y-91716283D03*
X111040000Y-62950000D03*
X165948061Y-69851939D03*
X119890000Y-126760000D03*
%TO.N,VSOLAR*%
X132315000Y-96935000D03*
%TO.N,SDA*%
X144270000Y-90620000D03*
X144245000Y-93955000D03*
%TO.N,SCL*%
X143511396Y-92641396D03*
%TO.N,Net-(SC5--)*%
X139330000Y-104100000D03*
X133930000Y-123050000D03*
%TO.N,Net-(U2-OUT+)*%
X147180000Y-121330000D03*
X141780000Y-94680000D03*
X150850000Y-109290000D03*
X140460000Y-95870000D03*
X151860000Y-121250000D03*
%TD*%
D19*
%TO.N,Camera_SDA*%
X163426726Y-122940000D02*
X162440000Y-122940000D01*
X167650000Y-118716726D02*
X163426726Y-122940000D01*
X167650000Y-100160000D02*
X167650000Y-118716726D01*
X163680000Y-96190000D02*
X167650000Y-100160000D01*
X163680000Y-87157588D02*
X163680000Y-96190000D01*
X151257701Y-79612299D02*
X151652396Y-79612299D01*
X151652396Y-79612299D02*
X151759695Y-79505000D01*
X151759695Y-79505000D02*
X156027412Y-79505000D01*
X156027412Y-79505000D02*
X163680000Y-87157588D01*
%TO.N,Camera_SCL*%
X139756907Y-80390000D02*
X114314986Y-54948079D01*
X147160000Y-80390000D02*
X139756907Y-80390000D01*
%TO.N,Camera_Pwr*%
X145361113Y-78810000D02*
X117907089Y-51355976D01*
X147939920Y-78810000D02*
X145361113Y-78810000D01*
X148409960Y-78339960D02*
X147939920Y-78810000D01*
%TO.N,Camera_SDA*%
X147806483Y-79534500D02*
X142493509Y-79534500D01*
X142493509Y-79534500D02*
X116111037Y-53152028D01*
%TO.N,Camera_SCL*%
X163426726Y-120400000D02*
X162440000Y-120400000D01*
X167200000Y-116626726D02*
X163426726Y-120400000D01*
X163080000Y-87193984D02*
X163080000Y-96233604D01*
X155841016Y-79955000D02*
X163080000Y-87193984D01*
X152299695Y-79955000D02*
X155841016Y-79955000D01*
X163080000Y-96233604D02*
X167200000Y-100353604D01*
X151592701Y-80661994D02*
X152299695Y-79955000D01*
X151592701Y-80697299D02*
X151592701Y-80661994D01*
X167200000Y-100353604D02*
X167200000Y-116626726D01*
%TO.N,Camera_Pwr*%
X155929620Y-80680000D02*
X152600000Y-80680000D01*
X162620000Y-87370380D02*
X155929620Y-80680000D01*
X162620000Y-96410000D02*
X162620000Y-87370380D01*
X166750000Y-100540000D02*
X162620000Y-96410000D01*
X163426726Y-117860000D02*
X166750000Y-114536726D01*
X166750000Y-114536726D02*
X166750000Y-100540000D01*
X162440000Y-117860000D02*
X163426726Y-117860000D01*
%TO.N,SCL_Break*%
X168535000Y-95365000D02*
X169540000Y-95365000D01*
X168080000Y-95820000D02*
X168535000Y-95365000D01*
X168080000Y-97620000D02*
X168080000Y-95820000D01*
%TO.N,3v3_break*%
X174620000Y-97940000D02*
X174620000Y-95365000D01*
X169240000Y-98420000D02*
X174140000Y-98420000D01*
X174140000Y-98420000D02*
X174620000Y-97940000D01*
%TO.N,SDA_Break*%
X172080000Y-96280000D02*
X172080000Y-95365000D01*
X170770000Y-97590000D02*
X172080000Y-96280000D01*
X170750000Y-97570000D02*
X170770000Y-97590000D01*
X169800000Y-97570000D02*
X170750000Y-97570000D01*
%TO.N,SDA*%
X154270000Y-75850000D02*
X153960000Y-75540000D01*
X156630000Y-75850000D02*
X154270000Y-75850000D01*
D20*
%TO.N,VSOLAR*%
X198050000Y-114120000D02*
X198050000Y-65120000D01*
X189180000Y-122990000D02*
X198050000Y-114120000D01*
X188210000Y-122990000D02*
X189180000Y-122990000D01*
X187421499Y-62211499D02*
X188000000Y-62790000D01*
X175830000Y-62211499D02*
X187421499Y-62211499D01*
X172881499Y-59262998D02*
X172881499Y-55130001D01*
X175830000Y-62211499D02*
X172881499Y-59262998D01*
D19*
%TO.N,SDA_Break*%
X139278501Y-99850000D02*
X142750000Y-99850000D01*
X142750000Y-99850000D02*
X144850000Y-101950000D01*
%TO.N,SCL_Break*%
X140743747Y-102815246D02*
X145372687Y-102815246D01*
X137778501Y-99850000D02*
X140743747Y-102815246D01*
%TO.N,3v3_break*%
X140238502Y-103810000D02*
X145470000Y-103810000D01*
X136278502Y-99850000D02*
X140238502Y-103810000D01*
%TO.N,F2_SDA*%
X187080000Y-122940000D02*
X184400000Y-122940000D01*
X196900000Y-113120000D02*
X187080000Y-122940000D01*
X196900000Y-65780000D02*
X196900000Y-113120000D01*
%TO.N,F2_SCL*%
X186890000Y-120400000D02*
X184400000Y-120400000D01*
X195960000Y-64910000D02*
X195960000Y-111330000D01*
X195960000Y-111330000D02*
X186890000Y-120400000D01*
X195700000Y-64650000D02*
X195960000Y-64910000D01*
%TO.N,F2_ENB*%
X195510000Y-109600000D02*
X187250000Y-117860000D01*
X187250000Y-117860000D02*
X184400000Y-117860000D01*
X195510000Y-65923604D02*
X195510000Y-109600000D01*
X194460000Y-64873604D02*
X195510000Y-65923604D01*
X194460000Y-63910000D02*
X194460000Y-64873604D01*
%TO.N,F2_SDA*%
X188898500Y-68211500D02*
X190820000Y-66290000D01*
X175830000Y-68211500D02*
X188898500Y-68211500D01*
%TO.N,F2_SCL*%
X188388500Y-66711500D02*
X175830000Y-66711500D01*
X190000000Y-65100000D02*
X188388500Y-66711500D01*
%TO.N,F2_ENB*%
X189570000Y-64130000D02*
X188488502Y-65211498D01*
X188488502Y-65211498D02*
X175830000Y-65211498D01*
%TO.N,F1_ENB*%
X184060000Y-57090000D02*
X193220000Y-66250000D01*
X193220000Y-66250000D02*
X193220000Y-103990000D01*
X177841497Y-57090000D02*
X184060000Y-57090000D01*
X193220000Y-103990000D02*
X186970000Y-110240000D01*
X186970000Y-110240000D02*
X184400000Y-110240000D01*
X175881498Y-55130001D02*
X177841497Y-57090000D01*
%TO.N,F1_SCL*%
X194040000Y-66140000D02*
X194040000Y-106490000D01*
X187750000Y-112780000D02*
X184400000Y-112780000D01*
X178531499Y-56280000D02*
X184180000Y-56280000D01*
X184180000Y-56280000D02*
X194040000Y-66140000D01*
X177381500Y-55130001D02*
X178531499Y-56280000D01*
X194040000Y-106490000D02*
X187750000Y-112780000D01*
%TO.N,F1_SDA*%
X186370000Y-115320000D02*
X184400000Y-115320000D01*
X184080001Y-55130001D02*
X195060000Y-66110000D01*
X195060000Y-66110000D02*
X195060000Y-106630000D01*
X195060000Y-106630000D02*
X186370000Y-115320000D01*
X178881500Y-55130001D02*
X184080001Y-55130001D01*
%TO.N,SDA*%
X158159500Y-117529500D02*
X160369000Y-115320000D01*
X160369000Y-115320000D02*
X162440000Y-115320000D01*
X158159500Y-122700500D02*
X157770000Y-123090000D01*
X158159500Y-117529500D02*
X158159500Y-122700500D01*
%TO.N,SCL*%
X160570000Y-112780000D02*
X162440000Y-112780000D01*
X157434500Y-115915500D02*
X160570000Y-112780000D01*
X157434500Y-121970000D02*
X157434500Y-115915500D01*
%TO.N,SDA*%
X142786396Y-92103604D02*
X144270000Y-90620000D01*
X142786396Y-94158097D02*
X142786396Y-92103604D01*
X152585000Y-122135000D02*
X152585000Y-103956701D01*
X152585000Y-103956701D02*
X142786396Y-94158097D01*
X153530000Y-123080000D02*
X152585000Y-122135000D01*
%TO.N,SCL*%
X153670000Y-104405305D02*
X153670000Y-121990000D01*
X143511396Y-92641396D02*
X143511396Y-94246701D01*
X143511396Y-94246701D02*
X153670000Y-104405305D01*
%TO.N,+3V3*%
X165980000Y-107686726D02*
X165980000Y-102000000D01*
X163426726Y-110240000D02*
X165980000Y-107686726D01*
X162440000Y-110240000D02*
X163426726Y-110240000D01*
%TO.N,F0_ENB*%
X182150000Y-102620000D02*
X184400000Y-102620000D01*
X177738299Y-107031701D02*
X182150000Y-102620000D01*
X113860000Y-117987208D02*
X128696396Y-132823604D01*
X128696396Y-132823604D02*
X160684695Y-132823604D01*
X113860000Y-102890000D02*
X113860000Y-117987208D01*
X116131498Y-100618502D02*
X113860000Y-102890000D01*
X160684695Y-132823604D02*
X177738299Y-115770000D01*
X177738299Y-115770000D02*
X177738299Y-107031701D01*
X123080001Y-100618502D02*
X116131498Y-100618502D01*
%TO.N,F0_SCL*%
X182933604Y-105160000D02*
X184400000Y-105160000D01*
X178500000Y-115644695D02*
X178500000Y-109593604D01*
X112200000Y-116963604D02*
X128816396Y-133580000D01*
X115731500Y-99118500D02*
X112200000Y-102650000D01*
X112200000Y-102650000D02*
X112200000Y-116963604D01*
X128816396Y-133580000D02*
X160564695Y-133580000D01*
X178500000Y-109593604D02*
X182933604Y-105160000D01*
X123080001Y-99118500D02*
X115731500Y-99118500D01*
X160564695Y-133580000D02*
X178500000Y-115644695D01*
%TO.N,F0_SDA*%
X181030000Y-107700000D02*
X184400000Y-107700000D01*
X179420000Y-116775305D02*
X179420000Y-109310000D01*
X162165305Y-134030000D02*
X179420000Y-116775305D01*
X110790000Y-116190000D02*
X128630000Y-134030000D01*
X179420000Y-109310000D02*
X181030000Y-107700000D01*
X110790000Y-102130000D02*
X110790000Y-116190000D01*
X115301500Y-97618500D02*
X110790000Y-102130000D01*
X123080001Y-97618500D02*
X115301500Y-97618500D01*
X128630000Y-134030000D02*
X162165305Y-134030000D01*
%TO.N,F3_ENB*%
X155270000Y-107530000D02*
X160180000Y-102620000D01*
X155270000Y-127480000D02*
X155270000Y-107530000D01*
X152160000Y-130590000D02*
X155270000Y-127480000D01*
X123618502Y-119678502D02*
X134530000Y-130590000D01*
X134530000Y-130590000D02*
X152160000Y-130590000D01*
X160180000Y-102620000D02*
X162440000Y-102620000D01*
X123618502Y-113810000D02*
X123618502Y-119678502D01*
%TO.N,F3_SCL*%
X155720000Y-127780000D02*
X155720000Y-110183604D01*
X152170000Y-131330000D02*
X155720000Y-127780000D01*
X160743604Y-105160000D02*
X162440000Y-105160000D01*
X134240000Y-131330000D02*
X152170000Y-131330000D01*
X155720000Y-110183604D02*
X160743604Y-105160000D01*
X122118500Y-119208500D02*
X134240000Y-131330000D01*
X122118500Y-113810000D02*
X122118500Y-119208500D01*
%TO.N,F3_SDA*%
X158840000Y-107700000D02*
X162440000Y-107700000D01*
X152600000Y-131780000D02*
X156710000Y-127670000D01*
X156710000Y-109830000D02*
X158840000Y-107700000D01*
X120618500Y-118838500D02*
X133560000Y-131780000D01*
X133560000Y-131780000D02*
X152600000Y-131780000D01*
X120618500Y-113810000D02*
X120618500Y-118838500D01*
X156710000Y-127670000D02*
X156710000Y-109830000D01*
D20*
%TO.N,VSOLAR*%
X126618501Y-106388501D02*
X126618501Y-113810000D01*
X123848501Y-103618501D02*
X126618501Y-106388501D01*
X123080001Y-103618501D02*
X123848501Y-103618501D01*
X133278500Y-100941500D02*
X130601499Y-103618501D01*
X130601499Y-103618501D02*
X123080001Y-103618501D01*
X133278500Y-99850000D02*
X133278500Y-100941500D01*
X133278500Y-97898500D02*
X132315000Y-96935000D01*
X133278500Y-99850000D02*
X133278500Y-97898500D01*
X132315000Y-96935000D02*
X132300000Y-96920000D01*
D19*
%TO.N,SDA*%
X144270000Y-93930000D02*
X144270000Y-90620000D01*
X144245000Y-93955000D02*
X144270000Y-93930000D01*
D20*
%TO.N,Net-(SC5--)*%
X133930000Y-109500000D02*
X139330000Y-104100000D01*
X133930000Y-123050000D02*
X133930000Y-109500000D01*
D19*
%TO.N,Net-(U2-OUT+)*%
X140460000Y-95870000D02*
X147180000Y-102590000D01*
X147180000Y-102590000D02*
X147180000Y-121330000D01*
X151860000Y-104760000D02*
X151860000Y-121250000D01*
X141780000Y-94680000D02*
X151860000Y-104760000D01*
%TD*%
%TA.AperFunction,Conductor*%
%TO.N,GND*%
G36*
X188736500Y-35217381D02*
G01*
X188782619Y-35263500D01*
X188799500Y-35326500D01*
X188799500Y-45454237D01*
X188799500Y-45545763D01*
X188803392Y-45553846D01*
X188803395Y-45553851D01*
X188812713Y-45580481D01*
X188814710Y-45589231D01*
X188820304Y-45596245D01*
X188835317Y-45620136D01*
X188839212Y-45628224D01*
X188846231Y-45633822D01*
X188866180Y-45653771D01*
X188871776Y-45660788D01*
X188879856Y-45664679D01*
X188879858Y-45664680D01*
X188903749Y-45679692D01*
X188910769Y-45685290D01*
X188919518Y-45687286D01*
X188946143Y-45696602D01*
X188954237Y-45700500D01*
X188977410Y-45700500D01*
X189045763Y-45700500D01*
X199173500Y-45700500D01*
X199236500Y-45717381D01*
X199282619Y-45763500D01*
X199299500Y-45826500D01*
X199299500Y-124173500D01*
X199282619Y-124236500D01*
X199236500Y-124282619D01*
X199173500Y-124299500D01*
X188954236Y-124299500D01*
X188946145Y-124303396D01*
X188919523Y-124312711D01*
X188910766Y-124314709D01*
X188903745Y-124320309D01*
X188879866Y-124335314D01*
X188871777Y-124339210D01*
X188866177Y-124346232D01*
X188846232Y-124366177D01*
X188839210Y-124371777D01*
X188835314Y-124379866D01*
X188820309Y-124403745D01*
X188814709Y-124410766D01*
X188812711Y-124419523D01*
X188803396Y-124446145D01*
X188799500Y-124454236D01*
X188799500Y-134673500D01*
X188782619Y-134736500D01*
X188736500Y-134782619D01*
X188673500Y-134799500D01*
X162571741Y-134799500D01*
X162511042Y-134783916D01*
X162465358Y-134741018D01*
X162445990Y-134681418D01*
X162457729Y-134619860D01*
X162497671Y-134571570D01*
X162508696Y-134563558D01*
X162518608Y-134557048D01*
X162556667Y-134534542D01*
X162570996Y-134520212D01*
X162586024Y-134507377D01*
X162602412Y-134495472D01*
X162630608Y-134461386D01*
X162638577Y-134452630D01*
X179808658Y-117282549D01*
X179824979Y-117269475D01*
X179827014Y-117267307D01*
X179827018Y-117267305D01*
X179873676Y-117217617D01*
X179876367Y-117214840D01*
X179896135Y-117195074D01*
X179898608Y-117191884D01*
X179906316Y-117182858D01*
X179936586Y-117150626D01*
X179946344Y-117132873D01*
X179957195Y-117116353D01*
X179969614Y-117100346D01*
X179987179Y-117059751D01*
X179992384Y-117049127D01*
X180013695Y-117010365D01*
X180018733Y-116990739D01*
X180025137Y-116972037D01*
X180033181Y-116953450D01*
X180040096Y-116909786D01*
X180042504Y-116898158D01*
X180053500Y-116855335D01*
X180053500Y-116835081D01*
X180055051Y-116815371D01*
X180058220Y-116795362D01*
X180054059Y-116751344D01*
X180053500Y-116739486D01*
X180053500Y-109624594D01*
X180063091Y-109576376D01*
X180090405Y-109535499D01*
X181255500Y-108370405D01*
X181296377Y-108343091D01*
X181344595Y-108333500D01*
X181433169Y-108333500D01*
X181485170Y-108344731D01*
X181527901Y-108376422D01*
X181553743Y-108422924D01*
X181603758Y-108587802D01*
X181697404Y-108763004D01*
X181801682Y-108890066D01*
X181826991Y-108941388D01*
X181826991Y-108998612D01*
X181801682Y-109049934D01*
X181697404Y-109176995D01*
X181603758Y-109352197D01*
X181546091Y-109542298D01*
X181531500Y-109690449D01*
X181531500Y-110789550D01*
X181546091Y-110937701D01*
X181603758Y-111127802D01*
X181697404Y-111303003D01*
X181801682Y-111430065D01*
X181826991Y-111481387D01*
X181826992Y-111538610D01*
X181801683Y-111589932D01*
X181697404Y-111716996D01*
X181603758Y-111892197D01*
X181546091Y-112082298D01*
X181531500Y-112230449D01*
X181531500Y-113329550D01*
X181546091Y-113477701D01*
X181603758Y-113667802D01*
X181697404Y-113843004D01*
X181801682Y-113970066D01*
X181826991Y-114021388D01*
X181826991Y-114078612D01*
X181801682Y-114129934D01*
X181697404Y-114256995D01*
X181603758Y-114432197D01*
X181546091Y-114622298D01*
X181531500Y-114770449D01*
X181531500Y-115869550D01*
X181546091Y-116017701D01*
X181603758Y-116207802D01*
X181687418Y-116364321D01*
X181697405Y-116383004D01*
X181801628Y-116510000D01*
X181801682Y-116510065D01*
X181826991Y-116561387D01*
X181826992Y-116618610D01*
X181801683Y-116669932D01*
X181697404Y-116796996D01*
X181603758Y-116972197D01*
X181546091Y-117162298D01*
X181531500Y-117310449D01*
X181531500Y-118409550D01*
X181546091Y-118557701D01*
X181603758Y-118747802D01*
X181697404Y-118923004D01*
X181801682Y-119050066D01*
X181826991Y-119101388D01*
X181826991Y-119158612D01*
X181801682Y-119209934D01*
X181697404Y-119336995D01*
X181603758Y-119512197D01*
X181546091Y-119702298D01*
X181531500Y-119850449D01*
X181531500Y-120949550D01*
X181546091Y-121097701D01*
X181603758Y-121287802D01*
X181697404Y-121463004D01*
X181801682Y-121590066D01*
X181826991Y-121641388D01*
X181826991Y-121698612D01*
X181801682Y-121749934D01*
X181697404Y-121876995D01*
X181603758Y-122052197D01*
X181546091Y-122242298D01*
X181531500Y-122390449D01*
X181531500Y-123489550D01*
X181546091Y-123637701D01*
X181603758Y-123827802D01*
X181697404Y-124003003D01*
X181802006Y-124130460D01*
X181827315Y-124181782D01*
X181827316Y-124239005D01*
X181802007Y-124290327D01*
X181697823Y-124417276D01*
X181604223Y-124592390D01*
X181546584Y-124782396D01*
X181532000Y-124930479D01*
X181532000Y-126029521D01*
X181546584Y-126177603D01*
X181604223Y-126367609D01*
X181697823Y-126542723D01*
X181823787Y-126696212D01*
X181977276Y-126822176D01*
X182152390Y-126915776D01*
X182342396Y-126973415D01*
X182490479Y-126988000D01*
X182532790Y-126988000D01*
X182532791Y-126987999D01*
X183251209Y-126987999D01*
X183251210Y-126988000D01*
X185548790Y-126988000D01*
X185548790Y-126987999D01*
X184400001Y-125839210D01*
X184399999Y-125839210D01*
X183251209Y-126987999D01*
X182532791Y-126987999D01*
X184310905Y-125209885D01*
X184367389Y-125177273D01*
X184432611Y-125177273D01*
X184489095Y-125209885D01*
X186267208Y-126987999D01*
X186267210Y-126988000D01*
X186309521Y-126988000D01*
X186457603Y-126973415D01*
X186647609Y-126915776D01*
X186822723Y-126822176D01*
X186976212Y-126696212D01*
X187102176Y-126542723D01*
X187195776Y-126367609D01*
X187253415Y-126177603D01*
X187268000Y-126029521D01*
X187268000Y-124930479D01*
X187253415Y-124782396D01*
X187195776Y-124592390D01*
X187102174Y-124417273D01*
X186997993Y-124290327D01*
X186972683Y-124239005D01*
X186972684Y-124181782D01*
X186997990Y-124130464D01*
X187102595Y-124003004D01*
X187196241Y-123827804D01*
X187253908Y-123637701D01*
X187254527Y-123631419D01*
X187269033Y-123583934D01*
X187300759Y-123545740D01*
X187320626Y-123535371D01*
X187319888Y-123534123D01*
X187333590Y-123526018D01*
X187333593Y-123526018D01*
X187333915Y-123525827D01*
X187388387Y-123508651D01*
X187444847Y-123517289D01*
X187491689Y-123549966D01*
X187598747Y-123668866D01*
X187598748Y-123668867D01*
X187616402Y-123681693D01*
X187753248Y-123781118D01*
X187927712Y-123858794D01*
X188114513Y-123898500D01*
X188305485Y-123898500D01*
X188305487Y-123898500D01*
X188492288Y-123858794D01*
X188666752Y-123781118D01*
X188678529Y-123772561D01*
X188713649Y-123754667D01*
X188752586Y-123748500D01*
X189115559Y-123748500D01*
X189133820Y-123749830D01*
X189157789Y-123753341D01*
X189204253Y-123749275D01*
X189207647Y-123748979D01*
X189218628Y-123748500D01*
X189224177Y-123748500D01*
X189224180Y-123748500D01*
X189255301Y-123744861D01*
X189258889Y-123744495D01*
X189334426Y-123737887D01*
X189334430Y-123737885D01*
X189335751Y-123737770D01*
X189354856Y-123733535D01*
X189356106Y-123733079D01*
X189356113Y-123733079D01*
X189427400Y-123707132D01*
X189430769Y-123705961D01*
X189502738Y-123682114D01*
X189502739Y-123682112D01*
X189504007Y-123681693D01*
X189521613Y-123673169D01*
X189522725Y-123672437D01*
X189522732Y-123672435D01*
X189586138Y-123630730D01*
X189589161Y-123628806D01*
X189592180Y-123626944D01*
X189653651Y-123589030D01*
X189653652Y-123589028D01*
X189654788Y-123588328D01*
X189669959Y-123575970D01*
X189670871Y-123575002D01*
X189670874Y-123575001D01*
X189722929Y-123519824D01*
X189725448Y-123517231D01*
X198540777Y-114701902D01*
X198554624Y-114689936D01*
X198574058Y-114675469D01*
X198606228Y-114637128D01*
X198613645Y-114629034D01*
X198617580Y-114625101D01*
X198637043Y-114600484D01*
X198639268Y-114597753D01*
X198688032Y-114539640D01*
X198688034Y-114539634D01*
X198688892Y-114538613D01*
X198699403Y-114522114D01*
X198699965Y-114520908D01*
X198699967Y-114520906D01*
X198732022Y-114452159D01*
X198733572Y-114448958D01*
X198767609Y-114381188D01*
X198767610Y-114381183D01*
X198768207Y-114379995D01*
X198774631Y-114361517D01*
X198774901Y-114360209D01*
X198774902Y-114360207D01*
X198790251Y-114285866D01*
X198791001Y-114282484D01*
X198808500Y-114208656D01*
X198808500Y-114208651D01*
X198808807Y-114207356D01*
X198810796Y-114187888D01*
X198810757Y-114186560D01*
X198810758Y-114186558D01*
X198808553Y-114110776D01*
X198808500Y-114107112D01*
X198808500Y-65657000D01*
X198825381Y-65594000D01*
X198880297Y-65498882D01*
X198884527Y-65491556D01*
X198943542Y-65309928D01*
X198963504Y-65120000D01*
X198943542Y-64930072D01*
X198884527Y-64748444D01*
X198884527Y-64748443D01*
X198789041Y-64583057D01*
X198661252Y-64441133D01*
X198506753Y-64328883D01*
X198506752Y-64328882D01*
X198332288Y-64251206D01*
X198145487Y-64211500D01*
X197954513Y-64211500D01*
X197829978Y-64237970D01*
X197767711Y-64251206D01*
X197593246Y-64328883D01*
X197438747Y-64441133D01*
X197310958Y-64583057D01*
X197215473Y-64748441D01*
X197198918Y-64799392D01*
X197166611Y-64851091D01*
X197113815Y-64881573D01*
X197052889Y-64883701D01*
X197022168Y-64877171D01*
X196995487Y-64871500D01*
X196804513Y-64871500D01*
X196804512Y-64871500D01*
X196754959Y-64882032D01*
X196696151Y-64880491D01*
X196644453Y-64852420D01*
X196611133Y-64803939D01*
X196603454Y-64745616D01*
X196613504Y-64650000D01*
X196593542Y-64460072D01*
X196550916Y-64328883D01*
X196534527Y-64278443D01*
X196439041Y-64113057D01*
X196311252Y-63971133D01*
X196156753Y-63858883D01*
X196156752Y-63858882D01*
X195982288Y-63781206D01*
X195795487Y-63741500D01*
X195604513Y-63741500D01*
X195569403Y-63748962D01*
X195487239Y-63766427D01*
X195426313Y-63764299D01*
X195373516Y-63733817D01*
X195341210Y-63682117D01*
X195308392Y-63581116D01*
X195294527Y-63538444D01*
X195273918Y-63502748D01*
X195199041Y-63373057D01*
X195071252Y-63231133D01*
X194916753Y-63118883D01*
X194916752Y-63118882D01*
X194742288Y-63041206D01*
X194555487Y-63001500D01*
X194364513Y-63001500D01*
X194277483Y-63019999D01*
X194177711Y-63041206D01*
X194003246Y-63118883D01*
X193848747Y-63231133D01*
X193720958Y-63373057D01*
X193619318Y-63549104D01*
X193580201Y-63590869D01*
X193526645Y-63611026D01*
X193469698Y-63605417D01*
X193421104Y-63575199D01*
X184587245Y-54741340D01*
X184574172Y-54725022D01*
X184522350Y-54676358D01*
X184519538Y-54673633D01*
X184499771Y-54653866D01*
X184496576Y-54651387D01*
X184487554Y-54643682D01*
X184455321Y-54613414D01*
X184437568Y-54603654D01*
X184421042Y-54592798D01*
X184405042Y-54580387D01*
X184364467Y-54562829D01*
X184353805Y-54557605D01*
X184315064Y-54536306D01*
X184301314Y-54532776D01*
X184295438Y-54531267D01*
X184276732Y-54524863D01*
X184258146Y-54516820D01*
X184214476Y-54509903D01*
X184202854Y-54507496D01*
X184160031Y-54496501D01*
X184160030Y-54496501D01*
X184139777Y-54496501D01*
X184120067Y-54494950D01*
X184100058Y-54491780D01*
X184056040Y-54495942D01*
X184044182Y-54496501D01*
X179761909Y-54496501D01*
X179712309Y-54486328D01*
X179670718Y-54457451D01*
X179643853Y-54414533D01*
X179632388Y-54383795D01*
X179544761Y-54266739D01*
X179427705Y-54179112D01*
X179359202Y-54153561D01*
X179290701Y-54128012D01*
X179230138Y-54121501D01*
X178532862Y-54121501D01*
X178472299Y-54128012D01*
X178335294Y-54179112D01*
X178207009Y-54275145D01*
X178158283Y-54297398D01*
X178104717Y-54297398D01*
X178055991Y-54275145D01*
X177927705Y-54179112D01*
X177859202Y-54153561D01*
X177790701Y-54128012D01*
X177730138Y-54121501D01*
X177032862Y-54121501D01*
X176972299Y-54128012D01*
X176835294Y-54179112D01*
X176707008Y-54275147D01*
X176658282Y-54297399D01*
X176604716Y-54297399D01*
X176555990Y-54275147D01*
X176427703Y-54179112D01*
X176359200Y-54153561D01*
X176290699Y-54128012D01*
X176230136Y-54121501D01*
X175532860Y-54121501D01*
X175472297Y-54128012D01*
X175335292Y-54179112D01*
X175206591Y-54275457D01*
X175157865Y-54297709D01*
X175104299Y-54297710D01*
X175055574Y-54275458D01*
X174927461Y-54179555D01*
X174790592Y-54128506D01*
X174730088Y-54122001D01*
X174635499Y-54122001D01*
X174635499Y-56138001D01*
X174730088Y-56138001D01*
X174790592Y-56131495D01*
X174927461Y-56080446D01*
X175055570Y-55984544D01*
X175104296Y-55962291D01*
X175157863Y-55962290D01*
X175206589Y-55984543D01*
X175335292Y-56080889D01*
X175335293Y-56080889D01*
X175335294Y-56080890D01*
X175472297Y-56131990D01*
X175532860Y-56138501D01*
X175941904Y-56138501D01*
X175990122Y-56148092D01*
X176030999Y-56175406D01*
X177334248Y-57478655D01*
X177347331Y-57494985D01*
X177399162Y-57543656D01*
X177401974Y-57546381D01*
X177421727Y-57566134D01*
X177423680Y-57567649D01*
X177424921Y-57568612D01*
X177433941Y-57576316D01*
X177466176Y-57606586D01*
X177483932Y-57616347D01*
X177500448Y-57627196D01*
X177516456Y-57639613D01*
X177557022Y-57657167D01*
X177567685Y-57662391D01*
X177606432Y-57683693D01*
X177606434Y-57683693D01*
X177606437Y-57683695D01*
X177626071Y-57688736D01*
X177644756Y-57695134D01*
X177663352Y-57703181D01*
X177707027Y-57710098D01*
X177718622Y-57712498D01*
X177761467Y-57723500D01*
X177781721Y-57723500D01*
X177801431Y-57725051D01*
X177821439Y-57728220D01*
X177821439Y-57728219D01*
X177821440Y-57728220D01*
X177865458Y-57724058D01*
X177877316Y-57723500D01*
X183745406Y-57723500D01*
X183793624Y-57733091D01*
X183834501Y-57760405D01*
X187312000Y-61237904D01*
X187342738Y-61288063D01*
X187347354Y-61346710D01*
X187324841Y-61401060D01*
X187280108Y-61439266D01*
X187222905Y-61452999D01*
X176578530Y-61452999D01*
X176534497Y-61445054D01*
X176439202Y-61409510D01*
X176378638Y-61402999D01*
X176146371Y-61402999D01*
X176098153Y-61393408D01*
X176057276Y-61366094D01*
X174971320Y-60280138D01*
X179611500Y-60280138D01*
X179618011Y-60340700D01*
X179669111Y-60477705D01*
X179756738Y-60594761D01*
X179873794Y-60682388D01*
X179873795Y-60682388D01*
X179873796Y-60682389D01*
X180010799Y-60733489D01*
X180071362Y-60740000D01*
X181968638Y-60740000D01*
X182029201Y-60733489D01*
X182166204Y-60682389D01*
X182283261Y-60594761D01*
X182370889Y-60477704D01*
X182421989Y-60340701D01*
X182428500Y-60280138D01*
X182428500Y-58932862D01*
X182421989Y-58872299D01*
X182370889Y-58735296D01*
X182370888Y-58735294D01*
X182283261Y-58618238D01*
X182166205Y-58530611D01*
X182097702Y-58505061D01*
X182029201Y-58479511D01*
X181968638Y-58473000D01*
X180071362Y-58473000D01*
X180010799Y-58479511D01*
X179873794Y-58530611D01*
X179756738Y-58618238D01*
X179669111Y-58735294D01*
X179618011Y-58872299D01*
X179611500Y-58932862D01*
X179611500Y-60280138D01*
X174971320Y-60280138D01*
X173676904Y-58985722D01*
X173649590Y-58944845D01*
X173639999Y-58896627D01*
X173639999Y-56185785D01*
X173658802Y-56119567D01*
X173709599Y-56073113D01*
X173777230Y-56060287D01*
X173817907Y-56075873D01*
X173818563Y-56074116D01*
X173972405Y-56131495D01*
X174032910Y-56138001D01*
X174127499Y-56138001D01*
X174127499Y-54122001D01*
X174032910Y-54122001D01*
X173972405Y-54128506D01*
X173835536Y-54179555D01*
X173707423Y-54275458D01*
X173658697Y-54297710D01*
X173605131Y-54297709D01*
X173556406Y-54275457D01*
X173427704Y-54179112D01*
X173359201Y-54153561D01*
X173290700Y-54128012D01*
X173230137Y-54121501D01*
X172532861Y-54121501D01*
X172472298Y-54128012D01*
X172335293Y-54179112D01*
X172218237Y-54266739D01*
X172130610Y-54383795D01*
X172079510Y-54520800D01*
X172072999Y-54581363D01*
X172072999Y-55678639D01*
X172079510Y-55739203D01*
X172115054Y-55834498D01*
X172122999Y-55878531D01*
X172122999Y-59198557D01*
X172121669Y-59216818D01*
X172118158Y-59240786D01*
X172122520Y-59290645D01*
X172122999Y-59301626D01*
X172122999Y-59307182D01*
X172126634Y-59338288D01*
X172127006Y-59341930D01*
X172133727Y-59418742D01*
X172137968Y-59437871D01*
X172164345Y-59510340D01*
X172165548Y-59513802D01*
X172189803Y-59586998D01*
X172198336Y-59604625D01*
X172240731Y-59669082D01*
X172242670Y-59672125D01*
X172282469Y-59736649D01*
X172283173Y-59737790D01*
X172295537Y-59752965D01*
X172351654Y-59805909D01*
X172354283Y-59808463D01*
X174784595Y-62238775D01*
X174811909Y-62279652D01*
X174821500Y-62327870D01*
X174821500Y-62560137D01*
X174828011Y-62620699D01*
X174879111Y-62757704D01*
X174975456Y-62886406D01*
X174997708Y-62935131D01*
X174997709Y-62988697D01*
X174975457Y-63037423D01*
X174879554Y-63165536D01*
X174828505Y-63302405D01*
X174822000Y-63362910D01*
X174822000Y-63457499D01*
X176838000Y-63457499D01*
X176838000Y-63362910D01*
X176831494Y-63302405D01*
X176774115Y-63148563D01*
X176775872Y-63147907D01*
X176760286Y-63107230D01*
X176773112Y-63039599D01*
X176819566Y-62988802D01*
X176885784Y-62969999D01*
X187011687Y-62969999D01*
X187062936Y-62980892D01*
X187105323Y-63011688D01*
X187131520Y-63057062D01*
X187165473Y-63161556D01*
X187260958Y-63326942D01*
X187342273Y-63417251D01*
X187388747Y-63468866D01*
X187543248Y-63581118D01*
X187717712Y-63658794D01*
X187904513Y-63698500D01*
X188095485Y-63698500D01*
X188095487Y-63698500D01*
X188282288Y-63658794D01*
X188456752Y-63581118D01*
X188611253Y-63468866D01*
X188621294Y-63457714D01*
X188671831Y-63423625D01*
X188732462Y-63417251D01*
X188738990Y-63419888D01*
X188729147Y-63373576D01*
X188745951Y-63314974D01*
X188834527Y-63161556D01*
X188869360Y-63054351D01*
X188903664Y-63000763D01*
X188959779Y-62970768D01*
X189023394Y-62972018D01*
X189078288Y-63004192D01*
X189191006Y-63116910D01*
X189222243Y-63168640D01*
X189225801Y-63228966D01*
X189200862Y-63284010D01*
X189153161Y-63321111D01*
X189113248Y-63338881D01*
X188958746Y-63451134D01*
X188948705Y-63462286D01*
X188898163Y-63496376D01*
X188837533Y-63502748D01*
X188831007Y-63500111D01*
X188840852Y-63546421D01*
X188824049Y-63605024D01*
X188735472Y-63758445D01*
X188676458Y-63940070D01*
X188659093Y-64105290D01*
X188647509Y-64146363D01*
X188622879Y-64181214D01*
X188263002Y-64541093D01*
X188222124Y-64568407D01*
X188173906Y-64577998D01*
X176792210Y-64577998D01*
X176725992Y-64559195D01*
X176679537Y-64508398D01*
X176666712Y-64440767D01*
X176691342Y-64376489D01*
X176780445Y-64257461D01*
X176831494Y-64120592D01*
X176838000Y-64060088D01*
X176838000Y-63965499D01*
X174822000Y-63965499D01*
X174822000Y-64060088D01*
X174828505Y-64120592D01*
X174879554Y-64257461D01*
X174975457Y-64385574D01*
X174997709Y-64434299D01*
X174997708Y-64487865D01*
X174975456Y-64536591D01*
X174879111Y-64665292D01*
X174828011Y-64802297D01*
X174821500Y-64862860D01*
X174821500Y-65560136D01*
X174828011Y-65620698D01*
X174879111Y-65757703D01*
X174975146Y-65885990D01*
X174997398Y-65934716D01*
X174997398Y-65988282D01*
X174975146Y-66037008D01*
X174879111Y-66165294D01*
X174828011Y-66302299D01*
X174821500Y-66362862D01*
X174821500Y-67060138D01*
X174828011Y-67120700D01*
X174879110Y-67257703D01*
X174879111Y-67257704D01*
X174966739Y-67374761D01*
X174966740Y-67374762D01*
X174975145Y-67385989D01*
X174997397Y-67434715D01*
X174997398Y-67488282D01*
X174975145Y-67537008D01*
X174879111Y-67665294D01*
X174828010Y-67802299D01*
X174828011Y-67802299D01*
X174821500Y-67862862D01*
X174821500Y-68560138D01*
X174828011Y-68620701D01*
X174848999Y-68676972D01*
X174879111Y-68757705D01*
X174966738Y-68874761D01*
X175083794Y-68962388D01*
X175083795Y-68962388D01*
X175083796Y-68962389D01*
X175220799Y-69013489D01*
X175281362Y-69020000D01*
X176378638Y-69020000D01*
X176439201Y-69013489D01*
X176576204Y-68962389D01*
X176693261Y-68874761D01*
X176693260Y-68874761D01*
X176699445Y-68870132D01*
X176735163Y-68851448D01*
X176774954Y-68845000D01*
X188814647Y-68845000D01*
X188835435Y-68847295D01*
X188838407Y-68847201D01*
X188838409Y-68847202D01*
X188906485Y-68845062D01*
X188910445Y-68845000D01*
X188938352Y-68845000D01*
X188938356Y-68845000D01*
X188942365Y-68844493D01*
X188954199Y-68843561D01*
X188998389Y-68842173D01*
X189017838Y-68836521D01*
X189037198Y-68832512D01*
X189057297Y-68829974D01*
X189098415Y-68813693D01*
X189109617Y-68809857D01*
X189152093Y-68797518D01*
X189169539Y-68787199D01*
X189187280Y-68778509D01*
X189206117Y-68771052D01*
X189241892Y-68745058D01*
X189251803Y-68738548D01*
X189289862Y-68716042D01*
X189304191Y-68701712D01*
X189319219Y-68688877D01*
X189335607Y-68676972D01*
X189363803Y-68642886D01*
X189371762Y-68634140D01*
X190770501Y-67235402D01*
X190811376Y-67208091D01*
X190859594Y-67198500D01*
X190915485Y-67198500D01*
X190915487Y-67198500D01*
X191102288Y-67158794D01*
X191276752Y-67081118D01*
X191431253Y-66968866D01*
X191559040Y-66826944D01*
X191654527Y-66661556D01*
X191713542Y-66479928D01*
X191733504Y-66290000D01*
X191713542Y-66100072D01*
X191654527Y-65918444D01*
X191654020Y-65916883D01*
X191650887Y-65850461D01*
X191682003Y-65791694D01*
X191738700Y-65756950D01*
X191805188Y-65755906D01*
X191862948Y-65788852D01*
X192549595Y-66475499D01*
X192576909Y-66516376D01*
X192586500Y-66564594D01*
X192586500Y-103675406D01*
X192576909Y-103723624D01*
X192549595Y-103764501D01*
X187216449Y-109097644D01*
X187155965Y-109131258D01*
X187086852Y-109127862D01*
X187029954Y-109088482D01*
X186998317Y-109049932D01*
X186973008Y-108998610D01*
X186973009Y-108941387D01*
X186998318Y-108890065D01*
X187050977Y-108825900D01*
X187102595Y-108763004D01*
X187196241Y-108587804D01*
X187253908Y-108397701D01*
X187268500Y-108249547D01*
X187268499Y-107150454D01*
X187265314Y-107118119D01*
X187253908Y-107002298D01*
X187203147Y-106834962D01*
X187196241Y-106812196D01*
X187102595Y-106636996D01*
X187088499Y-106619820D01*
X186998317Y-106509932D01*
X186973008Y-106458610D01*
X186973009Y-106401387D01*
X186998318Y-106350065D01*
X187017500Y-106326692D01*
X187102595Y-106223004D01*
X187196241Y-106047804D01*
X187253908Y-105857701D01*
X187268500Y-105709547D01*
X187268499Y-104610454D01*
X187267579Y-104601116D01*
X187253908Y-104462298D01*
X187219724Y-104349610D01*
X187196241Y-104272196D01*
X187102595Y-104096996D01*
X187073809Y-104061920D01*
X186998317Y-103969932D01*
X186973008Y-103918610D01*
X186973009Y-103861387D01*
X186998318Y-103810065D01*
X187102595Y-103683004D01*
X187196241Y-103507804D01*
X187253908Y-103317701D01*
X187268500Y-103169547D01*
X187268499Y-102070454D01*
X187268476Y-102070224D01*
X187253908Y-101922298D01*
X187196241Y-101732197D01*
X187196241Y-101732196D01*
X187123809Y-101596684D01*
X187102595Y-101556995D01*
X186997993Y-101429538D01*
X186972683Y-101378215D01*
X186972684Y-101320992D01*
X186997993Y-101269670D01*
X187102176Y-101142723D01*
X187195776Y-100967609D01*
X187253415Y-100777603D01*
X187268000Y-100629521D01*
X187268000Y-99530479D01*
X187253415Y-99382396D01*
X187195776Y-99192390D01*
X187102176Y-99017276D01*
X186976212Y-98863787D01*
X186822723Y-98737823D01*
X186647609Y-98644223D01*
X186457603Y-98586584D01*
X186309521Y-98572000D01*
X186267208Y-98572000D01*
X184489095Y-100350114D01*
X184432611Y-100382726D01*
X184367389Y-100382726D01*
X184310905Y-100350114D01*
X182532791Y-98572000D01*
X183251209Y-98572000D01*
X184399999Y-99720790D01*
X184400001Y-99720790D01*
X185548790Y-98572000D01*
X183251209Y-98572000D01*
X182532791Y-98572000D01*
X182490479Y-98572000D01*
X182342396Y-98586584D01*
X182152390Y-98644223D01*
X181977276Y-98737823D01*
X181823787Y-98863787D01*
X181697823Y-99017276D01*
X181604223Y-99192390D01*
X181546584Y-99382396D01*
X181532000Y-99530479D01*
X181532000Y-100629521D01*
X181546584Y-100777603D01*
X181604223Y-100967609D01*
X181697825Y-101142726D01*
X181802006Y-101269672D01*
X181827316Y-101320994D01*
X181827315Y-101378217D01*
X181802006Y-101429539D01*
X181697404Y-101556995D01*
X181603758Y-101732197D01*
X181546091Y-101922298D01*
X181531500Y-102070450D01*
X181531500Y-102290404D01*
X181521909Y-102338622D01*
X181494595Y-102379499D01*
X177349635Y-106524458D01*
X177333315Y-106537534D01*
X177284669Y-106589336D01*
X177281919Y-106592174D01*
X177262167Y-106611927D01*
X177262163Y-106611931D01*
X177262164Y-106611931D01*
X177259678Y-106615134D01*
X177251986Y-106624140D01*
X177221712Y-106656379D01*
X177211951Y-106674135D01*
X177201100Y-106690653D01*
X177188684Y-106706660D01*
X177171123Y-106747240D01*
X177165903Y-106757896D01*
X177144603Y-106796641D01*
X177139566Y-106816260D01*
X177133163Y-106834962D01*
X177125117Y-106853556D01*
X177118200Y-106897225D01*
X177115794Y-106908845D01*
X177104799Y-106951671D01*
X177104799Y-106971925D01*
X177103248Y-106991635D01*
X177100078Y-107011643D01*
X177104240Y-107055662D01*
X177104799Y-107067520D01*
X177104799Y-115455406D01*
X177095208Y-115503624D01*
X177067894Y-115544501D01*
X160459195Y-132153199D01*
X160418318Y-132180513D01*
X160370100Y-132190104D01*
X153389990Y-132190104D01*
X153332787Y-132176371D01*
X153288054Y-132138165D01*
X153265541Y-132083815D01*
X153270157Y-132025168D01*
X153300895Y-131975009D01*
X153300894Y-131975009D01*
X157098659Y-128177244D01*
X157114980Y-128164169D01*
X157117014Y-128162001D01*
X157117018Y-128162000D01*
X157163660Y-128112329D01*
X157166351Y-128109552D01*
X157186135Y-128089770D01*
X157188621Y-128086564D01*
X157196310Y-128077561D01*
X157226586Y-128045321D01*
X157236342Y-128027571D01*
X157247195Y-128011050D01*
X157259614Y-127995041D01*
X157277175Y-127954454D01*
X157282388Y-127943813D01*
X157303695Y-127905060D01*
X157308733Y-127885434D01*
X157315137Y-127866732D01*
X157323181Y-127848144D01*
X157330096Y-127804482D01*
X157332504Y-127792853D01*
X157343500Y-127750029D01*
X157343500Y-127729776D01*
X157345051Y-127710066D01*
X157348220Y-127690057D01*
X157344059Y-127646039D01*
X157343500Y-127634181D01*
X157343500Y-124083738D01*
X157355774Y-124029494D01*
X157390206Y-123985818D01*
X157440086Y-123961219D01*
X157495695Y-123960491D01*
X157674513Y-123998500D01*
X157865485Y-123998500D01*
X157865487Y-123998500D01*
X158052288Y-123958794D01*
X158226752Y-123881118D01*
X158381253Y-123768866D01*
X158509040Y-123626944D01*
X158604527Y-123461556D01*
X158663542Y-123279928D01*
X158683504Y-123090000D01*
X158683503Y-123089994D01*
X158683574Y-123089323D01*
X158703261Y-123040355D01*
X158702790Y-123040152D01*
X158709111Y-123025542D01*
X158709113Y-123025541D01*
X158726672Y-122984961D01*
X158731892Y-122974309D01*
X158753194Y-122935561D01*
X158753195Y-122935560D01*
X158758232Y-122915939D01*
X158764638Y-122897230D01*
X158772681Y-122878644D01*
X158779596Y-122834981D01*
X158782004Y-122823353D01*
X158793000Y-122780529D01*
X158793000Y-122760276D01*
X158794551Y-122740566D01*
X158797720Y-122720557D01*
X158793559Y-122676539D01*
X158793000Y-122664681D01*
X158793000Y-117844094D01*
X158802591Y-117795876D01*
X158829901Y-117755002D01*
X159356409Y-117228494D01*
X159406564Y-117197760D01*
X159465211Y-117193144D01*
X159519561Y-117215657D01*
X159557767Y-117260390D01*
X159571500Y-117317593D01*
X159571500Y-118409550D01*
X159586091Y-118557701D01*
X159643758Y-118747802D01*
X159737404Y-118923004D01*
X159841682Y-119050066D01*
X159866991Y-119101388D01*
X159866991Y-119158612D01*
X159841682Y-119209934D01*
X159737404Y-119336995D01*
X159643758Y-119512197D01*
X159586091Y-119702298D01*
X159571500Y-119850449D01*
X159571500Y-120949550D01*
X159586091Y-121097701D01*
X159643758Y-121287802D01*
X159737404Y-121463004D01*
X159841682Y-121590066D01*
X159866991Y-121641388D01*
X159866991Y-121698612D01*
X159841682Y-121749934D01*
X159737404Y-121876995D01*
X159643758Y-122052197D01*
X159586091Y-122242298D01*
X159571500Y-122390449D01*
X159571500Y-123489550D01*
X159586091Y-123637701D01*
X159643758Y-123827802D01*
X159737404Y-124003003D01*
X159842006Y-124130460D01*
X159867315Y-124181782D01*
X159867316Y-124239005D01*
X159842007Y-124290327D01*
X159737823Y-124417276D01*
X159644223Y-124592390D01*
X159586584Y-124782396D01*
X159572000Y-124930479D01*
X159572000Y-126029521D01*
X159586584Y-126177603D01*
X159644223Y-126367609D01*
X159737823Y-126542723D01*
X159863787Y-126696212D01*
X160017276Y-126822176D01*
X160192390Y-126915776D01*
X160382396Y-126973415D01*
X160530479Y-126988000D01*
X160572790Y-126988000D01*
X160572791Y-126987999D01*
X161291209Y-126987999D01*
X161291210Y-126988000D01*
X163588790Y-126988000D01*
X163588790Y-126987999D01*
X162440001Y-125839210D01*
X162439999Y-125839210D01*
X161291209Y-126987999D01*
X160572791Y-126987999D01*
X162350905Y-125209885D01*
X162407389Y-125177273D01*
X162472611Y-125177273D01*
X162529095Y-125209885D01*
X164307208Y-126987999D01*
X164307210Y-126988000D01*
X164349521Y-126988000D01*
X164497603Y-126973415D01*
X164687609Y-126915776D01*
X164862723Y-126822176D01*
X165016212Y-126696212D01*
X165142176Y-126542723D01*
X165235776Y-126367609D01*
X165293415Y-126177603D01*
X165308000Y-126029521D01*
X165308000Y-124930479D01*
X165293415Y-124782396D01*
X165235776Y-124592390D01*
X165142174Y-124417273D01*
X165037993Y-124290327D01*
X165012683Y-124239005D01*
X165012684Y-124181782D01*
X165037990Y-124130464D01*
X165142595Y-124003004D01*
X165236241Y-123827804D01*
X165293908Y-123637701D01*
X165308500Y-123489547D01*
X165308499Y-122390454D01*
X165302078Y-122325261D01*
X165293908Y-122242298D01*
X165252157Y-122104663D01*
X165250507Y-122037472D01*
X165283634Y-121978994D01*
X168038658Y-119223970D01*
X168054979Y-119210896D01*
X168057014Y-119208728D01*
X168057018Y-119208726D01*
X168103677Y-119159037D01*
X168106368Y-119156260D01*
X168126134Y-119136496D01*
X168128605Y-119133309D01*
X168136312Y-119124285D01*
X168166586Y-119092047D01*
X168176343Y-119074296D01*
X168187199Y-119057769D01*
X168199613Y-119041767D01*
X168217172Y-119001187D01*
X168222392Y-118990535D01*
X168243694Y-118951787D01*
X168243695Y-118951786D01*
X168248732Y-118932165D01*
X168255138Y-118913456D01*
X168263181Y-118894871D01*
X168270096Y-118851202D01*
X168272496Y-118839607D01*
X168283500Y-118796756D01*
X168283500Y-118776495D01*
X168285051Y-118756784D01*
X168288219Y-118736783D01*
X168284058Y-118692771D01*
X168283500Y-118680915D01*
X168283500Y-100243853D01*
X168285795Y-100223063D01*
X168284808Y-100191669D01*
X168283561Y-100152000D01*
X168283500Y-100148043D01*
X168283500Y-100120149D01*
X168283500Y-100120144D01*
X168282993Y-100116138D01*
X168282062Y-100104305D01*
X168280674Y-100060111D01*
X168275020Y-100040652D01*
X168271013Y-100021306D01*
X168268474Y-100001203D01*
X168252194Y-99960086D01*
X168248353Y-99948866D01*
X168236017Y-99906405D01*
X168225706Y-99888970D01*
X168217008Y-99871215D01*
X168209552Y-99852383D01*
X168183565Y-99816616D01*
X168177047Y-99806693D01*
X168168943Y-99792990D01*
X168154542Y-99768638D01*
X168140212Y-99754308D01*
X168127378Y-99739281D01*
X168115472Y-99722893D01*
X168112930Y-99720790D01*
X168081394Y-99694700D01*
X168072616Y-99686712D01*
X166005905Y-97620000D01*
X167166496Y-97620000D01*
X167186458Y-97809929D01*
X167245472Y-97991556D01*
X167340958Y-98156942D01*
X167340960Y-98156944D01*
X167468747Y-98298866D01*
X167623248Y-98411118D01*
X167797712Y-98488794D01*
X167984513Y-98528500D01*
X168175487Y-98528500D01*
X168199691Y-98523355D01*
X168260618Y-98525482D01*
X168313415Y-98555964D01*
X168345722Y-98607664D01*
X168405473Y-98791557D01*
X168500958Y-98956942D01*
X168528028Y-98987006D01*
X168628747Y-99098866D01*
X168783248Y-99211118D01*
X168957712Y-99288794D01*
X169144513Y-99328500D01*
X169335485Y-99328500D01*
X169335487Y-99328500D01*
X169522288Y-99288794D01*
X169696752Y-99211118D01*
X169851253Y-99098866D01*
X169854564Y-99095188D01*
X169896952Y-99064393D01*
X169948200Y-99053500D01*
X174056147Y-99053500D01*
X174076935Y-99055795D01*
X174079907Y-99055701D01*
X174079909Y-99055702D01*
X174147985Y-99053562D01*
X174151945Y-99053500D01*
X174179852Y-99053500D01*
X174179856Y-99053500D01*
X174183865Y-99052993D01*
X174195699Y-99052061D01*
X174239889Y-99050673D01*
X174259338Y-99045021D01*
X174278698Y-99041012D01*
X174298797Y-99038474D01*
X174339915Y-99022193D01*
X174351117Y-99018357D01*
X174393593Y-99006018D01*
X174411039Y-98995699D01*
X174428780Y-98987009D01*
X174447617Y-98979552D01*
X174483392Y-98953558D01*
X174493303Y-98947048D01*
X174531362Y-98924542D01*
X174545691Y-98910212D01*
X174560719Y-98897377D01*
X174577107Y-98885472D01*
X174605303Y-98851386D01*
X174613272Y-98842630D01*
X175008658Y-98447244D01*
X175024979Y-98434170D01*
X175027014Y-98432002D01*
X175027018Y-98432000D01*
X175073676Y-98382312D01*
X175076367Y-98379535D01*
X175096135Y-98359769D01*
X175098611Y-98356576D01*
X175106316Y-98347553D01*
X175136586Y-98315321D01*
X175146345Y-98297567D01*
X175157198Y-98281045D01*
X175169614Y-98265040D01*
X175187174Y-98224459D01*
X175192388Y-98213815D01*
X175213695Y-98175060D01*
X175218732Y-98155439D01*
X175225138Y-98136730D01*
X175233181Y-98118144D01*
X175240096Y-98074481D01*
X175242504Y-98062853D01*
X175251530Y-98027701D01*
X175253500Y-98020030D01*
X175253500Y-97999776D01*
X175255051Y-97980066D01*
X175258220Y-97960057D01*
X175254059Y-97916039D01*
X175253500Y-97904181D01*
X175253500Y-97106831D01*
X175264731Y-97054830D01*
X175296422Y-97012099D01*
X175342924Y-96986257D01*
X175420814Y-96962629D01*
X175507804Y-96936241D01*
X175683004Y-96842595D01*
X175683005Y-96842593D01*
X175683007Y-96842593D01*
X175757213Y-96781694D01*
X176064698Y-96781694D01*
X176065283Y-96783657D01*
X176066934Y-96817274D01*
X176097276Y-96842176D01*
X176272390Y-96935776D01*
X176462396Y-96993415D01*
X176610479Y-97008000D01*
X177709521Y-97008000D01*
X177857603Y-96993415D01*
X178047609Y-96935776D01*
X178222724Y-96842175D01*
X178253064Y-96817274D01*
X177160001Y-95724210D01*
X177159999Y-95724210D01*
X176134962Y-96749246D01*
X176080465Y-96781308D01*
X176064698Y-96781694D01*
X175757213Y-96781694D01*
X175836565Y-96716571D01*
X175836566Y-96716569D01*
X175836568Y-96716568D01*
X175842032Y-96709909D01*
X175890073Y-96673911D01*
X175924170Y-96668337D01*
X175921903Y-96637593D01*
X175948469Y-96580216D01*
X175962595Y-96563004D01*
X176056241Y-96387804D01*
X176113908Y-96197701D01*
X176125420Y-96080814D01*
X176136910Y-96039294D01*
X176161718Y-96004070D01*
X176800789Y-95365001D01*
X177519210Y-95365001D01*
X178576981Y-96422772D01*
X178576982Y-96422771D01*
X178595776Y-96387609D01*
X178653415Y-96197603D01*
X178668000Y-96049521D01*
X178668000Y-94680479D01*
X178653415Y-94532396D01*
X178595776Y-94342389D01*
X178576981Y-94307226D01*
X177519210Y-95364999D01*
X177519210Y-95365001D01*
X176800789Y-95365001D01*
X176800790Y-95365000D01*
X176161717Y-94725928D01*
X176136909Y-94690703D01*
X176125419Y-94649181D01*
X176113908Y-94532298D01*
X176085074Y-94437247D01*
X176056241Y-94342196D01*
X175962595Y-94166996D01*
X175962593Y-94166992D01*
X175948464Y-94149776D01*
X175921898Y-94092399D01*
X175924165Y-94061660D01*
X175890074Y-94056088D01*
X175842034Y-94020091D01*
X175836567Y-94013430D01*
X175757204Y-93948298D01*
X176064699Y-93948298D01*
X176080461Y-93948686D01*
X176134958Y-93980748D01*
X177159999Y-95005789D01*
X177160000Y-95005789D01*
X178253064Y-93912723D01*
X178222723Y-93887823D01*
X178047609Y-93794223D01*
X177857603Y-93736584D01*
X177709521Y-93722000D01*
X176610479Y-93722000D01*
X176462396Y-93736584D01*
X176272390Y-93794223D01*
X176097274Y-93887825D01*
X176066933Y-93912724D01*
X176065282Y-93946343D01*
X176064699Y-93948298D01*
X175757204Y-93948298D01*
X175683007Y-93887406D01*
X175525781Y-93803368D01*
X175507804Y-93793759D01*
X175507803Y-93793758D01*
X175507802Y-93793758D01*
X175317701Y-93736091D01*
X175169550Y-93721500D01*
X174070449Y-93721500D01*
X173922298Y-93736091D01*
X173732197Y-93793758D01*
X173556995Y-93887404D01*
X173429934Y-93991682D01*
X173378612Y-94016991D01*
X173321388Y-94016991D01*
X173270066Y-93991682D01*
X173143004Y-93887404D01*
X172979113Y-93799804D01*
X172967804Y-93793759D01*
X172967803Y-93793758D01*
X172967802Y-93793758D01*
X172777701Y-93736091D01*
X172629550Y-93721500D01*
X171530449Y-93721500D01*
X171382298Y-93736091D01*
X171192197Y-93793758D01*
X171016995Y-93887404D01*
X170889934Y-93991682D01*
X170838612Y-94016991D01*
X170781388Y-94016991D01*
X170730066Y-93991682D01*
X170603004Y-93887404D01*
X170439113Y-93799804D01*
X170427804Y-93793759D01*
X170427803Y-93793758D01*
X170427802Y-93793758D01*
X170237701Y-93736091D01*
X170089550Y-93721500D01*
X168990449Y-93721500D01*
X168842298Y-93736091D01*
X168652197Y-93793758D01*
X168476992Y-93887406D01*
X168323431Y-94013431D01*
X168197406Y-94166992D01*
X168103758Y-94342197D01*
X168046091Y-94532298D01*
X168031500Y-94680450D01*
X168031500Y-94920404D01*
X168021909Y-94968622D01*
X167994597Y-95009496D01*
X167812961Y-95191133D01*
X167691336Y-95312758D01*
X167675015Y-95325834D01*
X167626370Y-95377635D01*
X167623620Y-95380473D01*
X167603868Y-95400226D01*
X167603864Y-95400230D01*
X167603865Y-95400230D01*
X167601379Y-95403433D01*
X167593687Y-95412439D01*
X167563413Y-95444678D01*
X167553652Y-95462434D01*
X167542801Y-95478952D01*
X167530385Y-95494959D01*
X167512824Y-95535539D01*
X167507604Y-95546195D01*
X167486304Y-95584940D01*
X167481267Y-95604559D01*
X167474864Y-95623261D01*
X167466818Y-95641855D01*
X167459901Y-95685524D01*
X167457495Y-95697144D01*
X167446500Y-95739970D01*
X167446500Y-95760224D01*
X167444949Y-95779934D01*
X167441779Y-95799942D01*
X167445941Y-95843961D01*
X167446500Y-95855819D01*
X167446500Y-96917475D01*
X167438131Y-96962629D01*
X167414136Y-97001786D01*
X167340958Y-97083057D01*
X167245472Y-97248443D01*
X167186458Y-97430070D01*
X167166496Y-97620000D01*
X166005905Y-97620000D01*
X164350405Y-95964500D01*
X164323091Y-95923623D01*
X164313500Y-95875405D01*
X164313500Y-87241442D01*
X164315795Y-87220652D01*
X164313562Y-87149590D01*
X164313500Y-87145632D01*
X164313500Y-87117737D01*
X164313500Y-87117732D01*
X164312993Y-87113726D01*
X164312062Y-87101893D01*
X164310674Y-87057699D01*
X164305020Y-87038240D01*
X164301013Y-87018894D01*
X164298474Y-86998791D01*
X164282194Y-86957674D01*
X164278353Y-86946454D01*
X164266017Y-86903993D01*
X164255706Y-86886558D01*
X164247008Y-86868803D01*
X164239552Y-86849971D01*
X164213565Y-86814204D01*
X164207047Y-86804281D01*
X164184542Y-86766226D01*
X164170212Y-86751896D01*
X164157378Y-86736869D01*
X164145472Y-86720481D01*
X164145471Y-86720480D01*
X164111394Y-86692288D01*
X164102616Y-86684300D01*
X162418315Y-84999999D01*
X185361562Y-84999999D01*
X185381297Y-85351392D01*
X185440250Y-85698367D01*
X185537682Y-86036561D01*
X185672367Y-86361720D01*
X185842605Y-86669742D01*
X185842609Y-86669749D01*
X186046271Y-86956783D01*
X186280790Y-87219210D01*
X186543217Y-87453729D01*
X186830251Y-87657391D01*
X187138283Y-87827634D01*
X187463440Y-87962318D01*
X187801632Y-88059750D01*
X188148607Y-88118703D01*
X188500000Y-88138437D01*
X188851393Y-88118703D01*
X189198368Y-88059750D01*
X189536560Y-87962318D01*
X189861717Y-87827634D01*
X190169749Y-87657391D01*
X190456783Y-87453729D01*
X190719210Y-87219210D01*
X190953729Y-86956783D01*
X191157391Y-86669749D01*
X191327634Y-86361717D01*
X191462318Y-86036560D01*
X191559750Y-85698368D01*
X191618703Y-85351393D01*
X191638437Y-85000000D01*
X191618703Y-84648607D01*
X191559750Y-84301632D01*
X191462318Y-83963440D01*
X191327634Y-83638283D01*
X191157391Y-83330251D01*
X190953729Y-83043217D01*
X190719210Y-82780790D01*
X190456783Y-82546271D01*
X190169749Y-82342609D01*
X190147771Y-82330462D01*
X189861720Y-82172367D01*
X189536561Y-82037682D01*
X189367463Y-81988965D01*
X189198368Y-81940250D01*
X188851393Y-81881297D01*
X188832707Y-81880247D01*
X188500000Y-81861562D01*
X188148607Y-81881297D01*
X187801632Y-81940250D01*
X187463438Y-82037682D01*
X187138279Y-82172367D01*
X186830257Y-82342605D01*
X186543215Y-82546272D01*
X186280790Y-82780790D01*
X186046272Y-83043215D01*
X185842605Y-83330257D01*
X185672367Y-83638279D01*
X185537682Y-83963438D01*
X185440250Y-84301632D01*
X185381297Y-84648607D01*
X185361562Y-84999999D01*
X162418315Y-84999999D01*
X156534656Y-79116339D01*
X156521583Y-79100021D01*
X156495317Y-79075356D01*
X156469760Y-79051356D01*
X156466949Y-79048632D01*
X156447182Y-79028865D01*
X156443987Y-79026386D01*
X156434965Y-79018681D01*
X156402732Y-78988413D01*
X156384979Y-78978653D01*
X156368453Y-78967797D01*
X156352453Y-78955386D01*
X156311878Y-78937828D01*
X156301216Y-78932604D01*
X156262475Y-78911305D01*
X156248725Y-78907775D01*
X156242849Y-78906266D01*
X156224143Y-78899862D01*
X156205557Y-78891819D01*
X156205556Y-78891818D01*
X156161886Y-78884901D01*
X156150265Y-78882495D01*
X156107442Y-78871500D01*
X156107441Y-78871500D01*
X156087188Y-78871500D01*
X156067478Y-78869949D01*
X156047469Y-78866779D01*
X156003451Y-78870941D01*
X155991593Y-78871500D01*
X151843549Y-78871500D01*
X151816061Y-78868465D01*
X151809319Y-78866957D01*
X151784407Y-78863610D01*
X151747401Y-78845119D01*
X151714454Y-78821182D01*
X151714453Y-78821181D01*
X151539989Y-78743505D01*
X151353188Y-78703799D01*
X151162214Y-78703799D01*
X151037680Y-78730269D01*
X150975412Y-78743505D01*
X150800947Y-78821182D01*
X150646448Y-78933432D01*
X150518659Y-79075356D01*
X150423173Y-79240742D01*
X150364159Y-79422369D01*
X150344197Y-79612298D01*
X150364159Y-79802228D01*
X150423173Y-79983855D01*
X150518659Y-80149241D01*
X150646449Y-80291166D01*
X150671862Y-80309629D01*
X150706921Y-80348565D01*
X150723113Y-80398394D01*
X150717636Y-80450502D01*
X150699158Y-80507369D01*
X150679197Y-80697298D01*
X150699159Y-80887228D01*
X150758173Y-81068855D01*
X150853659Y-81234241D01*
X150853661Y-81234243D01*
X150981448Y-81376165D01*
X151135949Y-81488417D01*
X151310413Y-81566093D01*
X151497214Y-81605799D01*
X151688186Y-81605799D01*
X151688188Y-81605799D01*
X151874989Y-81566093D01*
X152049453Y-81488417D01*
X152049455Y-81488415D01*
X152061551Y-81483030D01*
X152062936Y-81486142D01*
X152101863Y-81471185D01*
X152166306Y-81481384D01*
X152317712Y-81548794D01*
X152504513Y-81588500D01*
X152695485Y-81588500D01*
X152695487Y-81588500D01*
X152882288Y-81548794D01*
X153056752Y-81471118D01*
X153211253Y-81358866D01*
X153214564Y-81355188D01*
X153256952Y-81324393D01*
X153308200Y-81313500D01*
X155615026Y-81313500D01*
X155663244Y-81323091D01*
X155704121Y-81350405D01*
X156505988Y-82152272D01*
X156538600Y-82208756D01*
X156538600Y-82273978D01*
X156505988Y-82330462D01*
X146615603Y-92220846D01*
X146615420Y-92220962D01*
X146530831Y-92305551D01*
X146527782Y-92314265D01*
X146515545Y-92339676D01*
X146510916Y-92347042D01*
X146509942Y-92355691D01*
X146503667Y-92383190D01*
X146500605Y-92391941D01*
X146501643Y-92401153D01*
X146501643Y-92429363D01*
X146500670Y-92437992D01*
X146503537Y-92446184D01*
X146509814Y-92473688D01*
X146510850Y-92482890D01*
X146515775Y-92490727D01*
X146528019Y-92516151D01*
X146530900Y-92524385D01*
X146537075Y-92530560D01*
X146537331Y-92530880D01*
X146547219Y-92540768D01*
X147240865Y-93234415D01*
X147240866Y-93234416D01*
X147305584Y-93299134D01*
X147309807Y-93300611D01*
X147314054Y-93302098D01*
X147339475Y-93314339D01*
X147347076Y-93319115D01*
X147355993Y-93320119D01*
X147383504Y-93326398D01*
X147391974Y-93329362D01*
X147400892Y-93328357D01*
X147429109Y-93328357D01*
X147438026Y-93329362D01*
X147446491Y-93326399D01*
X147473999Y-93320121D01*
X147482924Y-93319116D01*
X147490526Y-93314338D01*
X147515944Y-93302097D01*
X147524415Y-93299134D01*
X147589134Y-93234415D01*
X157499537Y-83324010D01*
X157556021Y-83291399D01*
X157621243Y-83291399D01*
X157677727Y-83324011D01*
X161949595Y-87595879D01*
X161976909Y-87636756D01*
X161986500Y-87684974D01*
X161986500Y-96326147D01*
X161984204Y-96346935D01*
X161986438Y-96417986D01*
X161986500Y-96421945D01*
X161986500Y-96449857D01*
X161987007Y-96453873D01*
X161987937Y-96465696D01*
X161989326Y-96509892D01*
X161994977Y-96529341D01*
X161998986Y-96548696D01*
X162001525Y-96568794D01*
X162017801Y-96609903D01*
X162021644Y-96621130D01*
X162033980Y-96663590D01*
X162044294Y-96681030D01*
X162052987Y-96698774D01*
X162060033Y-96716568D01*
X162060449Y-96717619D01*
X162086431Y-96753380D01*
X162092948Y-96763301D01*
X162115458Y-96801363D01*
X162129778Y-96815683D01*
X162142618Y-96830716D01*
X162154526Y-96847105D01*
X162188598Y-96875292D01*
X162197378Y-96883282D01*
X163671001Y-98356905D01*
X163701739Y-98407064D01*
X163706355Y-98465711D01*
X163683842Y-98520061D01*
X163639109Y-98558267D01*
X163581906Y-98572000D01*
X161291209Y-98572000D01*
X162710114Y-99990905D01*
X162742726Y-100047389D01*
X162742726Y-100112611D01*
X162710114Y-100169095D01*
X162529095Y-100350114D01*
X162472611Y-100382726D01*
X162407389Y-100382726D01*
X162350905Y-100350114D01*
X160572791Y-98572000D01*
X160530479Y-98572000D01*
X160382396Y-98586584D01*
X160192390Y-98644223D01*
X160017276Y-98737823D01*
X159863787Y-98863787D01*
X159737823Y-99017276D01*
X159644223Y-99192390D01*
X159586584Y-99382396D01*
X159572000Y-99530479D01*
X159572000Y-100629521D01*
X159586584Y-100777603D01*
X159644223Y-100967609D01*
X159737825Y-101142726D01*
X159842006Y-101269672D01*
X159867316Y-101320994D01*
X159867315Y-101378217D01*
X159842006Y-101429539D01*
X159737404Y-101556995D01*
X159643758Y-101732197D01*
X159586091Y-101922298D01*
X159571500Y-102070450D01*
X159571500Y-102280405D01*
X159561909Y-102328623D01*
X159534595Y-102369500D01*
X154881336Y-107022757D01*
X154865016Y-107035833D01*
X154816370Y-107087635D01*
X154813620Y-107090473D01*
X154793868Y-107110226D01*
X154793864Y-107110230D01*
X154793865Y-107110230D01*
X154791379Y-107113433D01*
X154783687Y-107122439D01*
X154753413Y-107154678D01*
X154743652Y-107172434D01*
X154732801Y-107188952D01*
X154720385Y-107204959D01*
X154702824Y-107245539D01*
X154697604Y-107256195D01*
X154676304Y-107294940D01*
X154671267Y-107314559D01*
X154664864Y-107333261D01*
X154656818Y-107351855D01*
X154649901Y-107395524D01*
X154647495Y-107407144D01*
X154636500Y-107449970D01*
X154636500Y-107470224D01*
X154634949Y-107489934D01*
X154631779Y-107509942D01*
X154635941Y-107553961D01*
X154636500Y-107565819D01*
X154636500Y-121377434D01*
X154622162Y-121435809D01*
X154582410Y-121480899D01*
X154526292Y-121502440D01*
X154466580Y-121495532D01*
X154416864Y-121461745D01*
X154335864Y-121371786D01*
X154311869Y-121332630D01*
X154303500Y-121287475D01*
X154303500Y-104489159D01*
X154305795Y-104468369D01*
X154305604Y-104462301D01*
X154303561Y-104397306D01*
X154303500Y-104393349D01*
X154303500Y-104365454D01*
X154303500Y-104365449D01*
X154302993Y-104361443D01*
X154302062Y-104349610D01*
X154300674Y-104305416D01*
X154295019Y-104285952D01*
X154291013Y-104266612D01*
X154288474Y-104246508D01*
X154272195Y-104205392D01*
X154268356Y-104194177D01*
X154264689Y-104181556D01*
X154256019Y-104151712D01*
X154245703Y-104134269D01*
X154237007Y-104116519D01*
X154229552Y-104097688D01*
X154203554Y-104061905D01*
X154197058Y-104052015D01*
X154174542Y-104013943D01*
X154160212Y-103999613D01*
X154147378Y-103984586D01*
X154135472Y-103968198D01*
X154134192Y-103967139D01*
X154101394Y-103940005D01*
X154092616Y-103932017D01*
X144911527Y-94750927D01*
X144879503Y-94696562D01*
X144877851Y-94633488D01*
X144906986Y-94577521D01*
X144984040Y-94491944D01*
X145079527Y-94326556D01*
X145138542Y-94144928D01*
X145158504Y-93955000D01*
X145138542Y-93765072D01*
X145079527Y-93583444D01*
X145079527Y-93583443D01*
X144984041Y-93418057D01*
X144979364Y-93412862D01*
X144935862Y-93364548D01*
X144911869Y-93325396D01*
X144903500Y-93280241D01*
X144903500Y-91322525D01*
X144911869Y-91277371D01*
X144935864Y-91238214D01*
X145009040Y-91156944D01*
X145104527Y-90991556D01*
X145163542Y-90809928D01*
X145183504Y-90620000D01*
X145163542Y-90430072D01*
X145104527Y-90248444D01*
X145104527Y-90248443D01*
X145009041Y-90083057D01*
X144881252Y-89941133D01*
X144726753Y-89828883D01*
X144726752Y-89828882D01*
X144552288Y-89751206D01*
X144365487Y-89711500D01*
X144174513Y-89711500D01*
X144049978Y-89737970D01*
X143987711Y-89751206D01*
X143813246Y-89828883D01*
X143658747Y-89941133D01*
X143530958Y-90083057D01*
X143435472Y-90248443D01*
X143376458Y-90430070D01*
X143359093Y-90595291D01*
X143347509Y-90636365D01*
X143322878Y-90671215D01*
X142397732Y-91596361D01*
X142381412Y-91609437D01*
X142332766Y-91661239D01*
X142330016Y-91664077D01*
X142310264Y-91683830D01*
X142310260Y-91683834D01*
X142310261Y-91683834D01*
X142307775Y-91687037D01*
X142300083Y-91696043D01*
X142269809Y-91728282D01*
X142260048Y-91746038D01*
X142249197Y-91762556D01*
X142236781Y-91778563D01*
X142219220Y-91819143D01*
X142214000Y-91829799D01*
X142192700Y-91868544D01*
X142187663Y-91888163D01*
X142181260Y-91906865D01*
X142173214Y-91925459D01*
X142166297Y-91969128D01*
X142163891Y-91980748D01*
X142152896Y-92023574D01*
X142152896Y-92043828D01*
X142151345Y-92063538D01*
X142148175Y-92083546D01*
X142152337Y-92127565D01*
X142152896Y-92139423D01*
X142152896Y-93674868D01*
X142140622Y-93729112D01*
X142106190Y-93772788D01*
X142056310Y-93797387D01*
X142000699Y-93798114D01*
X141875487Y-93771500D01*
X141684513Y-93771500D01*
X141562725Y-93797387D01*
X141497711Y-93811206D01*
X141407104Y-93851547D01*
X141326566Y-93887405D01*
X141323246Y-93888883D01*
X141168747Y-94001133D01*
X141040958Y-94143057D01*
X140945472Y-94308443D01*
X140886458Y-94490070D01*
X140866496Y-94680000D01*
X140885738Y-94863077D01*
X140878059Y-94921402D01*
X140844738Y-94969883D01*
X140793039Y-94997954D01*
X140734233Y-94999493D01*
X140555487Y-94961500D01*
X140364513Y-94961500D01*
X140239979Y-94987970D01*
X140177711Y-95001206D01*
X140003246Y-95078883D01*
X139848747Y-95191133D01*
X139720958Y-95333057D01*
X139625472Y-95498443D01*
X139566458Y-95680070D01*
X139546496Y-95869999D01*
X139566458Y-96059929D01*
X139625472Y-96241556D01*
X139720958Y-96406942D01*
X139759598Y-96449856D01*
X139848747Y-96548866D01*
X140003248Y-96661118D01*
X140177712Y-96738794D01*
X140364513Y-96778500D01*
X140420406Y-96778500D01*
X140468624Y-96788091D01*
X140509501Y-96815405D01*
X142695501Y-99001405D01*
X142726239Y-99051564D01*
X142730855Y-99110211D01*
X142708342Y-99164561D01*
X142663609Y-99202767D01*
X142606406Y-99216500D01*
X140158910Y-99216500D01*
X140109310Y-99206327D01*
X140067719Y-99177450D01*
X140040854Y-99134532D01*
X140037001Y-99124202D01*
X140029390Y-99103796D01*
X140027649Y-99101470D01*
X139941762Y-98986738D01*
X139824706Y-98899111D01*
X139756203Y-98873561D01*
X139687702Y-98848011D01*
X139627139Y-98841500D01*
X138929863Y-98841500D01*
X138869300Y-98848011D01*
X138732295Y-98899111D01*
X138604010Y-98995144D01*
X138555284Y-99017397D01*
X138501718Y-99017397D01*
X138452992Y-98995144D01*
X138324706Y-98899111D01*
X138256203Y-98873561D01*
X138187702Y-98848011D01*
X138127139Y-98841500D01*
X137429863Y-98841500D01*
X137369300Y-98848011D01*
X137232295Y-98899111D01*
X137104010Y-98995144D01*
X137055284Y-99017397D01*
X137001718Y-99017396D01*
X136952992Y-98995144D01*
X136824707Y-98899111D01*
X136756204Y-98873561D01*
X136687703Y-98848011D01*
X136627140Y-98841500D01*
X135929864Y-98841500D01*
X135869301Y-98848011D01*
X135732296Y-98899111D01*
X135603593Y-98995458D01*
X135554867Y-99017710D01*
X135501301Y-99017711D01*
X135452575Y-98995458D01*
X135324462Y-98899554D01*
X135187593Y-98848505D01*
X135127089Y-98842000D01*
X135032500Y-98842000D01*
X135032500Y-100858000D01*
X135127089Y-100858000D01*
X135187593Y-100851494D01*
X135324460Y-100800446D01*
X135452573Y-100704541D01*
X135501299Y-100682289D01*
X135554866Y-100682288D01*
X135603592Y-100704541D01*
X135732296Y-100800888D01*
X135732297Y-100800888D01*
X135732298Y-100800889D01*
X135869301Y-100851989D01*
X135929864Y-100858500D01*
X136338908Y-100858500D01*
X136387126Y-100868091D01*
X136428003Y-100895405D01*
X138750531Y-103217933D01*
X138779648Y-103263417D01*
X138787048Y-103316913D01*
X138771371Y-103368594D01*
X138735499Y-103408962D01*
X138718747Y-103421134D01*
X138718746Y-103421135D01*
X138590958Y-103563057D01*
X138495473Y-103728443D01*
X138440612Y-103897285D01*
X138409874Y-103947443D01*
X133439225Y-108918092D01*
X133425377Y-108930061D01*
X133405941Y-108944531D01*
X133373771Y-108982869D01*
X133366357Y-108990961D01*
X133362422Y-108994895D01*
X133342997Y-109019461D01*
X133340688Y-109022294D01*
X133291119Y-109081369D01*
X133280589Y-109097899D01*
X133247995Y-109167794D01*
X133246401Y-109171087D01*
X133211795Y-109239997D01*
X133205363Y-109258500D01*
X133189759Y-109334064D01*
X133188967Y-109337637D01*
X133171192Y-109412640D01*
X133169202Y-109432114D01*
X133171447Y-109509259D01*
X133171500Y-109512923D01*
X133171500Y-122513000D01*
X133154619Y-122576000D01*
X133095472Y-122678444D01*
X133036458Y-122860070D01*
X133016496Y-123050000D01*
X133036458Y-123239929D01*
X133095472Y-123421556D01*
X133190958Y-123586942D01*
X133318747Y-123728866D01*
X133473248Y-123841118D01*
X133647712Y-123918794D01*
X133834513Y-123958500D01*
X134025485Y-123958500D01*
X134025487Y-123958500D01*
X134212288Y-123918794D01*
X134386752Y-123841118D01*
X134541253Y-123728866D01*
X134669040Y-123586944D01*
X134764527Y-123421556D01*
X134823542Y-123239928D01*
X134843504Y-123050000D01*
X134823542Y-122860072D01*
X134764527Y-122678444D01*
X134705381Y-122576000D01*
X134688500Y-122513000D01*
X134688500Y-109866371D01*
X134698091Y-109818153D01*
X134725405Y-109777276D01*
X135914879Y-108587802D01*
X139486333Y-105016346D01*
X139515303Y-104994713D01*
X139549223Y-104982198D01*
X139612288Y-104968794D01*
X139786752Y-104891118D01*
X139941253Y-104778866D01*
X140069040Y-104636944D01*
X140143150Y-104508581D01*
X140184198Y-104465553D01*
X140240411Y-104446143D01*
X140252348Y-104445015D01*
X140262467Y-104444059D01*
X140274321Y-104443500D01*
X140624000Y-104443500D01*
X140687000Y-104460381D01*
X140733119Y-104506500D01*
X140750000Y-104569500D01*
X140750000Y-105988638D01*
X140756511Y-106049201D01*
X140782061Y-106117702D01*
X140807611Y-106186205D01*
X140895238Y-106303261D01*
X141012294Y-106390888D01*
X141012295Y-106390888D01*
X141012296Y-106390889D01*
X141149299Y-106441989D01*
X141209862Y-106448500D01*
X142557138Y-106448500D01*
X142617701Y-106441989D01*
X142754704Y-106390889D01*
X142871761Y-106303261D01*
X142959389Y-106186204D01*
X143010489Y-106049201D01*
X143017000Y-105988638D01*
X143017000Y-104569500D01*
X143033881Y-104506500D01*
X143080000Y-104460381D01*
X143143000Y-104443500D01*
X144761800Y-104443500D01*
X144813048Y-104454393D01*
X144855435Y-104485188D01*
X144858746Y-104488866D01*
X144946893Y-104552908D01*
X145013248Y-104601118D01*
X145187712Y-104678794D01*
X145374513Y-104718500D01*
X145565485Y-104718500D01*
X145565487Y-104718500D01*
X145752288Y-104678794D01*
X145926752Y-104601118D01*
X146081253Y-104488866D01*
X146209040Y-104346944D01*
X146267027Y-104246508D01*
X146311149Y-104170087D01*
X146315017Y-104172320D01*
X146340185Y-104135288D01*
X146404709Y-104107366D01*
X146474149Y-104118365D01*
X146526885Y-104164859D01*
X146546500Y-104232373D01*
X146546500Y-120627475D01*
X146538131Y-120672629D01*
X146514136Y-120711785D01*
X146506116Y-120720692D01*
X146440958Y-120793057D01*
X146345472Y-120958443D01*
X146286458Y-121140070D01*
X146266496Y-121330000D01*
X146286458Y-121519929D01*
X146345472Y-121701556D01*
X146440958Y-121866942D01*
X146440960Y-121866944D01*
X146568747Y-122008866D01*
X146723248Y-122121118D01*
X146786337Y-122149206D01*
X146839105Y-122193205D01*
X146860947Y-122258346D01*
X146845366Y-122325261D01*
X146672367Y-122638279D01*
X146537682Y-122963438D01*
X146440250Y-123301632D01*
X146381297Y-123648607D01*
X146361562Y-124000000D01*
X146378947Y-124309553D01*
X146381297Y-124351393D01*
X146440250Y-124698368D01*
X146464458Y-124782396D01*
X146537682Y-125036561D01*
X146672367Y-125361720D01*
X146842605Y-125669742D01*
X146842609Y-125669749D01*
X147046271Y-125956783D01*
X147280790Y-126219210D01*
X147543217Y-126453729D01*
X147830251Y-126657391D01*
X148138283Y-126827634D01*
X148463440Y-126962318D01*
X148801632Y-127059750D01*
X149148607Y-127118703D01*
X149500000Y-127138437D01*
X149851393Y-127118703D01*
X150198368Y-127059750D01*
X150536560Y-126962318D01*
X150861717Y-126827634D01*
X151169749Y-126657391D01*
X151456783Y-126453729D01*
X151719210Y-126219210D01*
X151953729Y-125956783D01*
X152157391Y-125669749D01*
X152327634Y-125361717D01*
X152462318Y-125036560D01*
X152559750Y-124698368D01*
X152618703Y-124351393D01*
X152638437Y-124000000D01*
X152625417Y-123768173D01*
X152637051Y-123707806D01*
X152675867Y-123660126D01*
X152732626Y-123636491D01*
X152793811Y-123642529D01*
X152844856Y-123676801D01*
X152918747Y-123758866D01*
X153073248Y-123871118D01*
X153247712Y-123948794D01*
X153434513Y-123988500D01*
X153625485Y-123988500D01*
X153625487Y-123988500D01*
X153812288Y-123948794D01*
X153986752Y-123871118D01*
X154141253Y-123758866D01*
X154269040Y-123616944D01*
X154364527Y-123451556D01*
X154390667Y-123371105D01*
X154430184Y-123312957D01*
X154494708Y-123285036D01*
X154564148Y-123296034D01*
X154616885Y-123342528D01*
X154636500Y-123410042D01*
X154636500Y-127165405D01*
X154626909Y-127213623D01*
X154599595Y-127254500D01*
X151934500Y-129919595D01*
X151893623Y-129946909D01*
X151845405Y-129956500D01*
X134844595Y-129956500D01*
X134796377Y-129946909D01*
X134755500Y-129919595D01*
X124784543Y-119948638D01*
X128090000Y-119948638D01*
X128096511Y-120009200D01*
X128147611Y-120146205D01*
X128235238Y-120263261D01*
X128352294Y-120350888D01*
X128352295Y-120350888D01*
X128352296Y-120350889D01*
X128489299Y-120401989D01*
X128549862Y-120408500D01*
X129897138Y-120408500D01*
X129957701Y-120401989D01*
X130094704Y-120350889D01*
X130211761Y-120263261D01*
X130299389Y-120146204D01*
X130350489Y-120009201D01*
X130357000Y-119948638D01*
X130357000Y-118051362D01*
X130350489Y-117990799D01*
X130299389Y-117853796D01*
X130299388Y-117853794D01*
X130211761Y-117736738D01*
X130094705Y-117649111D01*
X130022878Y-117622321D01*
X129957701Y-117598011D01*
X129897138Y-117591500D01*
X128549862Y-117591500D01*
X128489299Y-117598011D01*
X128352294Y-117649111D01*
X128235238Y-117736738D01*
X128147611Y-117853794D01*
X128096511Y-117990799D01*
X128090000Y-118051362D01*
X128090000Y-119948638D01*
X124784543Y-119948638D01*
X124288907Y-119453002D01*
X124261593Y-119412125D01*
X124252002Y-119363907D01*
X124252002Y-114772211D01*
X124270805Y-114705993D01*
X124321602Y-114659539D01*
X124389233Y-114646712D01*
X124453511Y-114671343D01*
X124572538Y-114760445D01*
X124709407Y-114811494D01*
X124769912Y-114818000D01*
X124864501Y-114818000D01*
X124864501Y-112802000D01*
X124769912Y-112802000D01*
X124709407Y-112808505D01*
X124572538Y-112859554D01*
X124444426Y-112955457D01*
X124395701Y-112977709D01*
X124342135Y-112977708D01*
X124293409Y-112955456D01*
X124164707Y-112859111D01*
X124087743Y-112830405D01*
X124027703Y-112808011D01*
X123967140Y-112801500D01*
X123269864Y-112801500D01*
X123209301Y-112808011D01*
X123072296Y-112859111D01*
X122944009Y-112955146D01*
X122895283Y-112977399D01*
X122841716Y-112977398D01*
X122792990Y-112955146D01*
X122781762Y-112946741D01*
X122781761Y-112946739D01*
X122664704Y-112859111D01*
X122664703Y-112859110D01*
X122561008Y-112820434D01*
X122527701Y-112808011D01*
X122467138Y-112801500D01*
X121769862Y-112801500D01*
X121709299Y-112808011D01*
X121572294Y-112859111D01*
X121444009Y-112955144D01*
X121395283Y-112977397D01*
X121341717Y-112977397D01*
X121292991Y-112955144D01*
X121164705Y-112859111D01*
X121087741Y-112830405D01*
X121027701Y-112808011D01*
X120967138Y-112801500D01*
X120269862Y-112801500D01*
X120209299Y-112808011D01*
X120072294Y-112859111D01*
X119955238Y-112946738D01*
X119867611Y-113063794D01*
X119816512Y-113200797D01*
X119816511Y-113200799D01*
X119810000Y-113261362D01*
X119810000Y-114358638D01*
X119816511Y-114419201D01*
X119842061Y-114487702D01*
X119867611Y-114556205D01*
X119959868Y-114679445D01*
X119978552Y-114715163D01*
X119985000Y-114754954D01*
X119985000Y-118754647D01*
X119982704Y-118775435D01*
X119984938Y-118846486D01*
X119985000Y-118850445D01*
X119985000Y-118878357D01*
X119985507Y-118882373D01*
X119986437Y-118894196D01*
X119987826Y-118938392D01*
X119993477Y-118957841D01*
X119997486Y-118977196D01*
X120000025Y-118997294D01*
X120016301Y-119038403D01*
X120020144Y-119049630D01*
X120032480Y-119092090D01*
X120042794Y-119109530D01*
X120051487Y-119127274D01*
X120055139Y-119136496D01*
X120058949Y-119146119D01*
X120084931Y-119181880D01*
X120091448Y-119191801D01*
X120113958Y-119229863D01*
X120128278Y-119244183D01*
X120141118Y-119259216D01*
X120153026Y-119275605D01*
X120187098Y-119303792D01*
X120195878Y-119311782D01*
X132859104Y-131975009D01*
X132889842Y-132025168D01*
X132894458Y-132083815D01*
X132871945Y-132138165D01*
X132827212Y-132176371D01*
X132770009Y-132190104D01*
X129010991Y-132190104D01*
X128962773Y-132180513D01*
X128921896Y-132153199D01*
X117392292Y-120623595D01*
X117361554Y-120573436D01*
X117356938Y-120514789D01*
X117379451Y-120460439D01*
X117424184Y-120422233D01*
X117481387Y-120408500D01*
X118687140Y-120408500D01*
X118747703Y-120401989D01*
X118884706Y-120350889D01*
X119001763Y-120263261D01*
X119089391Y-120146204D01*
X119140491Y-120009201D01*
X119147002Y-119948638D01*
X119147002Y-118051362D01*
X119140491Y-117990799D01*
X119089391Y-117853796D01*
X119089390Y-117853794D01*
X119001763Y-117736738D01*
X118884707Y-117649111D01*
X118812880Y-117622321D01*
X118747703Y-117598011D01*
X118687140Y-117591500D01*
X117339864Y-117591500D01*
X117279301Y-117598011D01*
X117142296Y-117649111D01*
X117025240Y-117736738D01*
X116937613Y-117853794D01*
X116886513Y-117990799D01*
X116880002Y-118051362D01*
X116880002Y-119807115D01*
X116866269Y-119864318D01*
X116828063Y-119909051D01*
X116773713Y-119931564D01*
X116715066Y-119926948D01*
X116664907Y-119896210D01*
X114530405Y-117761708D01*
X114503091Y-117720831D01*
X114493500Y-117672613D01*
X114493500Y-106897138D01*
X116481501Y-106897138D01*
X116488012Y-106957701D01*
X116497017Y-106981843D01*
X116539112Y-107094705D01*
X116626739Y-107211761D01*
X116743795Y-107299388D01*
X116743796Y-107299388D01*
X116743797Y-107299389D01*
X116880800Y-107350489D01*
X116941363Y-107357000D01*
X118838639Y-107357000D01*
X118899202Y-107350489D01*
X119036205Y-107299389D01*
X119153262Y-107211761D01*
X119240890Y-107094704D01*
X119291990Y-106957701D01*
X119298501Y-106897138D01*
X119298501Y-105549862D01*
X119291990Y-105489299D01*
X119240890Y-105352296D01*
X119240889Y-105352294D01*
X119153262Y-105235238D01*
X119036206Y-105147611D01*
X118967703Y-105122061D01*
X118899202Y-105096511D01*
X118838639Y-105090000D01*
X116941363Y-105090000D01*
X116880800Y-105096511D01*
X116743795Y-105147611D01*
X116626739Y-105235238D01*
X116539112Y-105352294D01*
X116509299Y-105432227D01*
X116488012Y-105489299D01*
X116481501Y-105549862D01*
X116481501Y-106897138D01*
X114493500Y-106897138D01*
X114493500Y-103967139D01*
X122071501Y-103967139D01*
X122078012Y-104027702D01*
X122088983Y-104057115D01*
X122129112Y-104164706D01*
X122216739Y-104281762D01*
X122333795Y-104369389D01*
X122333796Y-104369389D01*
X122333797Y-104369390D01*
X122470800Y-104420490D01*
X122531363Y-104427001D01*
X123532130Y-104427001D01*
X123580348Y-104436592D01*
X123621225Y-104463906D01*
X125823096Y-106665777D01*
X125850410Y-106706654D01*
X125860001Y-106754872D01*
X125860001Y-112754216D01*
X125841198Y-112820434D01*
X125790401Y-112866888D01*
X125722770Y-112879714D01*
X125682092Y-112864127D01*
X125681437Y-112865885D01*
X125527594Y-112808505D01*
X125467090Y-112802000D01*
X125372501Y-112802000D01*
X125372501Y-114818000D01*
X125467090Y-114818000D01*
X125527594Y-114811494D01*
X125664461Y-114760446D01*
X125792573Y-114664542D01*
X125841299Y-114642290D01*
X125894866Y-114642289D01*
X125943592Y-114664542D01*
X126072295Y-114760888D01*
X126072296Y-114760888D01*
X126072297Y-114760889D01*
X126209300Y-114811989D01*
X126269863Y-114818500D01*
X126967139Y-114818500D01*
X127027702Y-114811989D01*
X127164705Y-114760889D01*
X127281762Y-114673261D01*
X127369390Y-114556204D01*
X127420490Y-114419201D01*
X127427001Y-114358638D01*
X127427001Y-113261362D01*
X127420490Y-113200799D01*
X127384946Y-113105503D01*
X127377001Y-113061470D01*
X127377001Y-106452943D01*
X127378331Y-106434683D01*
X127379149Y-106429096D01*
X127381842Y-106410712D01*
X127377480Y-106360854D01*
X127377001Y-106349873D01*
X127377001Y-106344325D01*
X127374940Y-106326692D01*
X127373361Y-106313185D01*
X127372997Y-106309624D01*
X127366388Y-106234075D01*
X127366386Y-106234070D01*
X127366271Y-106232751D01*
X127362035Y-106213639D01*
X127361580Y-106212388D01*
X127335648Y-106141142D01*
X127334453Y-106137704D01*
X127310615Y-106065763D01*
X127310613Y-106065761D01*
X127310193Y-106064491D01*
X127301671Y-106046887D01*
X127300936Y-106045769D01*
X127259257Y-105982401D01*
X127257313Y-105979347D01*
X127216831Y-105913714D01*
X127204465Y-105898535D01*
X127148326Y-105845570D01*
X127145698Y-105843017D01*
X125894777Y-104592096D01*
X125864039Y-104541937D01*
X125859423Y-104483290D01*
X125881936Y-104428940D01*
X125926669Y-104390734D01*
X125983872Y-104377001D01*
X129414002Y-104377001D01*
X129477002Y-104393882D01*
X129523121Y-104440001D01*
X129540002Y-104503001D01*
X129540002Y-105988638D01*
X129546513Y-106049201D01*
X129572063Y-106117702D01*
X129597613Y-106186205D01*
X129685240Y-106303261D01*
X129802296Y-106390888D01*
X129802297Y-106390888D01*
X129802298Y-106390889D01*
X129939301Y-106441989D01*
X129999864Y-106448500D01*
X131347140Y-106448500D01*
X131407703Y-106441989D01*
X131544706Y-106390889D01*
X131661763Y-106303261D01*
X131749391Y-106186204D01*
X131800491Y-106049201D01*
X131807002Y-105988638D01*
X131807002Y-104091362D01*
X131800491Y-104030799D01*
X131749391Y-103893796D01*
X131749390Y-103893794D01*
X131664764Y-103780746D01*
X131641377Y-103726131D01*
X131645615Y-103666872D01*
X131676535Y-103616144D01*
X133769277Y-101523402D01*
X133783124Y-101511436D01*
X133802558Y-101496969D01*
X133834728Y-101458628D01*
X133842145Y-101450534D01*
X133846080Y-101446601D01*
X133865543Y-101421984D01*
X133867768Y-101419253D01*
X133916532Y-101361140D01*
X133916533Y-101361136D01*
X133917390Y-101360116D01*
X133927902Y-101343617D01*
X133938387Y-101321133D01*
X133960492Y-101273726D01*
X133962087Y-101270432D01*
X133975388Y-101243946D01*
X133996109Y-101202688D01*
X133996109Y-101202685D01*
X133996707Y-101201496D01*
X134003132Y-101183013D01*
X134013829Y-101131206D01*
X134018732Y-101107457D01*
X134019521Y-101103899D01*
X134037000Y-101030156D01*
X134037000Y-101030154D01*
X134037307Y-101028859D01*
X134039296Y-101009388D01*
X134039257Y-101008060D01*
X134039258Y-101008058D01*
X134037053Y-100932276D01*
X134037000Y-100928612D01*
X134037000Y-100905784D01*
X134055803Y-100839566D01*
X134106600Y-100793112D01*
X134174231Y-100780286D01*
X134214908Y-100795872D01*
X134215564Y-100794115D01*
X134369406Y-100851494D01*
X134429911Y-100858000D01*
X134524500Y-100858000D01*
X134524500Y-98842000D01*
X134429911Y-98842000D01*
X134369406Y-98848505D01*
X134215564Y-98905885D01*
X134214908Y-98904127D01*
X134174231Y-98919714D01*
X134106600Y-98906888D01*
X134055803Y-98860434D01*
X134037000Y-98794216D01*
X134037000Y-97962942D01*
X134038330Y-97944682D01*
X134039148Y-97939095D01*
X134041841Y-97920711D01*
X134037479Y-97870853D01*
X134037000Y-97859872D01*
X134037000Y-97854324D01*
X134037000Y-97854320D01*
X134033360Y-97823184D01*
X134032996Y-97819623D01*
X134026387Y-97744074D01*
X134026385Y-97744069D01*
X134026270Y-97742750D01*
X134022034Y-97723638D01*
X134005276Y-97677596D01*
X133995647Y-97651141D01*
X133994452Y-97647703D01*
X133970614Y-97575762D01*
X133970612Y-97575760D01*
X133970192Y-97574490D01*
X133961670Y-97556886D01*
X133960935Y-97555768D01*
X133919256Y-97492400D01*
X133917312Y-97489346D01*
X133876830Y-97423713D01*
X133864464Y-97408534D01*
X133808325Y-97355569D01*
X133805697Y-97353016D01*
X133235126Y-96782445D01*
X133204388Y-96732286D01*
X133149527Y-96563444D01*
X133054041Y-96398057D01*
X132926252Y-96256133D01*
X132771753Y-96143883D01*
X132771752Y-96143882D01*
X132597288Y-96066206D01*
X132410487Y-96026500D01*
X132219513Y-96026500D01*
X132111086Y-96049547D01*
X132032711Y-96066206D01*
X131980637Y-96089391D01*
X131865865Y-96140491D01*
X131858246Y-96143883D01*
X131703747Y-96256133D01*
X131575958Y-96398057D01*
X131480472Y-96563443D01*
X131421458Y-96745070D01*
X131411252Y-96842175D01*
X131401496Y-96935000D01*
X131408330Y-97000026D01*
X131421458Y-97124929D01*
X131480472Y-97306556D01*
X131575958Y-97471942D01*
X131651435Y-97555768D01*
X131703747Y-97613866D01*
X131858248Y-97726118D01*
X132032712Y-97803794D01*
X132095772Y-97817197D01*
X132129695Y-97829713D01*
X132158668Y-97851349D01*
X132483095Y-98175776D01*
X132510409Y-98216653D01*
X132520000Y-98264871D01*
X132520000Y-99101470D01*
X132512055Y-99145503D01*
X132476511Y-99240797D01*
X132476510Y-99240799D01*
X132476511Y-99240799D01*
X132470000Y-99301362D01*
X132470000Y-100398638D01*
X132476511Y-100459201D01*
X132489369Y-100493673D01*
X132505698Y-100537454D01*
X132510762Y-100608269D01*
X132476737Y-100670581D01*
X130324223Y-102823096D01*
X130283346Y-102850410D01*
X130235128Y-102860001D01*
X124135785Y-102860001D01*
X124069567Y-102841198D01*
X124023113Y-102790401D01*
X124010287Y-102722770D01*
X124025873Y-102682092D01*
X124024116Y-102681437D01*
X124081495Y-102527594D01*
X124088001Y-102467090D01*
X124088001Y-102372501D01*
X122072001Y-102372501D01*
X122072001Y-102467090D01*
X122078506Y-102527594D01*
X122129555Y-102664463D01*
X122225458Y-102792574D01*
X122247710Y-102841300D01*
X122247711Y-102894866D01*
X122225458Y-102943592D01*
X122129112Y-103072295D01*
X122112998Y-103115499D01*
X122078012Y-103209300D01*
X122071501Y-103269863D01*
X122071501Y-103967139D01*
X114493500Y-103967139D01*
X114493500Y-103204594D01*
X114503091Y-103156376D01*
X114530405Y-103115499D01*
X116356997Y-101288907D01*
X116397874Y-101261593D01*
X116446092Y-101252002D01*
X122117790Y-101252002D01*
X122184008Y-101270805D01*
X122230462Y-101321602D01*
X122243289Y-101389233D01*
X122218658Y-101453511D01*
X122129555Y-101572538D01*
X122078506Y-101709407D01*
X122072001Y-101769912D01*
X122072001Y-101864501D01*
X124088001Y-101864501D01*
X124088001Y-101769912D01*
X124081495Y-101709407D01*
X124030446Y-101572538D01*
X123934543Y-101444426D01*
X123912290Y-101395700D01*
X123912291Y-101342133D01*
X123934544Y-101293407D01*
X123943259Y-101281765D01*
X123943262Y-101281763D01*
X124030890Y-101164706D01*
X124081990Y-101027703D01*
X124088501Y-100967140D01*
X124088501Y-100269864D01*
X124081990Y-100209301D01*
X124030890Y-100072298D01*
X124021767Y-100060111D01*
X123934855Y-99944009D01*
X123912602Y-99895283D01*
X123912603Y-99841716D01*
X123934855Y-99792990D01*
X123943259Y-99781762D01*
X123943262Y-99781761D01*
X124030890Y-99664704D01*
X124081990Y-99527701D01*
X124088501Y-99467138D01*
X124088501Y-98769862D01*
X124081990Y-98709299D01*
X124030890Y-98572296D01*
X124030889Y-98572294D01*
X123934856Y-98444009D01*
X123912604Y-98395283D01*
X123912604Y-98341717D01*
X123934856Y-98292991D01*
X124005365Y-98198800D01*
X124030890Y-98164704D01*
X124081990Y-98027701D01*
X124088501Y-97967138D01*
X124088501Y-97269862D01*
X124081990Y-97209299D01*
X124030890Y-97072296D01*
X124020898Y-97058948D01*
X123943262Y-96955238D01*
X123826206Y-96867611D01*
X123757703Y-96842060D01*
X123689202Y-96816511D01*
X123628639Y-96810000D01*
X122531363Y-96810000D01*
X122470800Y-96816511D01*
X122333795Y-96867611D01*
X122210556Y-96959868D01*
X122174838Y-96978552D01*
X122135047Y-96985000D01*
X115385349Y-96985000D01*
X115364564Y-96982705D01*
X115293533Y-96984938D01*
X115289575Y-96985000D01*
X115261640Y-96985000D01*
X115257614Y-96985508D01*
X115245802Y-96986437D01*
X115201610Y-96987826D01*
X115182157Y-96993478D01*
X115162803Y-96997486D01*
X115142701Y-97000026D01*
X115101584Y-97016304D01*
X115090359Y-97020147D01*
X115047908Y-97032480D01*
X115030467Y-97042795D01*
X115012719Y-97051489D01*
X114993883Y-97058947D01*
X114958114Y-97084934D01*
X114948197Y-97091448D01*
X114910137Y-97113957D01*
X114895805Y-97128288D01*
X114880781Y-97141119D01*
X114864396Y-97153024D01*
X114836211Y-97187093D01*
X114828223Y-97195870D01*
X110401336Y-101622757D01*
X110385016Y-101635833D01*
X110336370Y-101687635D01*
X110333620Y-101690473D01*
X110313868Y-101710226D01*
X110313864Y-101710230D01*
X110313865Y-101710230D01*
X110311379Y-101713433D01*
X110303687Y-101722439D01*
X110273413Y-101754678D01*
X110263652Y-101772434D01*
X110252801Y-101788952D01*
X110240385Y-101804959D01*
X110222824Y-101845539D01*
X110217604Y-101856195D01*
X110196304Y-101894940D01*
X110191267Y-101914559D01*
X110184864Y-101933261D01*
X110176818Y-101951855D01*
X110169901Y-101995524D01*
X110167495Y-102007144D01*
X110156500Y-102049970D01*
X110156500Y-102070224D01*
X110154949Y-102089934D01*
X110151779Y-102109942D01*
X110155941Y-102153961D01*
X110156500Y-102165819D01*
X110156500Y-116106147D01*
X110154204Y-116126935D01*
X110156438Y-116197986D01*
X110156500Y-116201945D01*
X110156500Y-116229857D01*
X110157007Y-116233873D01*
X110157937Y-116245696D01*
X110159326Y-116289892D01*
X110164977Y-116309341D01*
X110168986Y-116328696D01*
X110171525Y-116348794D01*
X110171525Y-116348796D01*
X110171526Y-116348797D01*
X110185069Y-116383004D01*
X110187801Y-116389903D01*
X110191644Y-116401130D01*
X110203980Y-116443590D01*
X110214294Y-116461030D01*
X110222987Y-116478774D01*
X110230448Y-116497617D01*
X110230449Y-116497619D01*
X110256431Y-116533380D01*
X110262948Y-116543301D01*
X110285458Y-116581363D01*
X110299778Y-116595683D01*
X110312618Y-116610716D01*
X110324526Y-116627105D01*
X110358598Y-116655292D01*
X110367378Y-116663282D01*
X128122754Y-134418659D01*
X128135833Y-134434983D01*
X128137999Y-134437017D01*
X128138000Y-134437018D01*
X128163965Y-134461401D01*
X128187649Y-134483641D01*
X128190460Y-134486365D01*
X128210230Y-134506135D01*
X128213443Y-134508627D01*
X128222433Y-134516306D01*
X128254679Y-134546586D01*
X128272426Y-134556342D01*
X128288947Y-134567193D01*
X128297641Y-134573937D01*
X128335737Y-134622729D01*
X128345999Y-134683776D01*
X128325949Y-134742343D01*
X128280426Y-134784293D01*
X128220419Y-134799500D01*
X110326500Y-134799500D01*
X110263500Y-134782619D01*
X110217381Y-134736500D01*
X110200500Y-134673500D01*
X110200500Y-124454239D01*
X110200500Y-124454237D01*
X110196602Y-124446143D01*
X110187286Y-124419518D01*
X110185290Y-124410769D01*
X110179692Y-124403749D01*
X110164680Y-124379858D01*
X110160788Y-124371777D01*
X110160788Y-124371776D01*
X110153771Y-124366180D01*
X110133822Y-124346231D01*
X110128224Y-124339212D01*
X110120136Y-124335317D01*
X110096247Y-124320305D01*
X110089231Y-124314710D01*
X110080478Y-124312712D01*
X110053851Y-124303395D01*
X110045763Y-124299500D01*
X110022590Y-124299500D01*
X99826500Y-124299500D01*
X99763500Y-124282619D01*
X99717381Y-124236500D01*
X99700500Y-124173500D01*
X99700500Y-95687140D01*
X116481501Y-95687140D01*
X116488012Y-95747703D01*
X116500034Y-95779934D01*
X116539112Y-95884707D01*
X116626739Y-96001763D01*
X116743795Y-96089390D01*
X116743796Y-96089390D01*
X116743797Y-96089391D01*
X116880800Y-96140491D01*
X116941363Y-96147002D01*
X118838639Y-96147002D01*
X118899202Y-96140491D01*
X119036205Y-96089391D01*
X119153262Y-96001763D01*
X119240890Y-95884706D01*
X119291990Y-95747703D01*
X119298501Y-95687140D01*
X119298501Y-94339864D01*
X119291990Y-94279301D01*
X119240890Y-94142298D01*
X119240889Y-94142296D01*
X119153262Y-94025240D01*
X119036206Y-93937613D01*
X118967703Y-93912062D01*
X118899202Y-93886513D01*
X118838639Y-93880002D01*
X116941363Y-93880002D01*
X116880800Y-93886513D01*
X116743795Y-93937613D01*
X116626739Y-94025240D01*
X116539112Y-94142296D01*
X116488012Y-94279300D01*
X116488012Y-94279301D01*
X116481501Y-94339864D01*
X116481501Y-95687140D01*
X99700500Y-95687140D01*
X99700500Y-85000000D01*
X107361562Y-85000000D01*
X107381297Y-85351392D01*
X107440250Y-85698367D01*
X107537682Y-86036561D01*
X107672367Y-86361720D01*
X107842605Y-86669742D01*
X107842609Y-86669749D01*
X108046271Y-86956783D01*
X108280790Y-87219210D01*
X108543217Y-87453729D01*
X108830251Y-87657391D01*
X109138283Y-87827634D01*
X109463440Y-87962318D01*
X109801632Y-88059750D01*
X110148607Y-88118703D01*
X110500000Y-88138437D01*
X110851393Y-88118703D01*
X111198368Y-88059750D01*
X111536560Y-87962318D01*
X111861717Y-87827634D01*
X112169749Y-87657391D01*
X112456783Y-87453729D01*
X112719210Y-87219210D01*
X112953729Y-86956783D01*
X113157391Y-86669749D01*
X113327634Y-86361717D01*
X113462318Y-86036560D01*
X113559750Y-85698368D01*
X113618703Y-85351393D01*
X113638437Y-85000000D01*
X113618703Y-84648607D01*
X113559750Y-84301632D01*
X113462318Y-83963440D01*
X113327634Y-83638283D01*
X113157391Y-83330251D01*
X112953729Y-83043217D01*
X112719210Y-82780790D01*
X112456783Y-82546271D01*
X112169749Y-82342609D01*
X112147771Y-82330462D01*
X111861720Y-82172367D01*
X111536561Y-82037682D01*
X111367463Y-81988965D01*
X111198368Y-81940250D01*
X110851393Y-81881297D01*
X110832707Y-81880247D01*
X110500000Y-81861562D01*
X110148607Y-81881297D01*
X109801632Y-81940250D01*
X109463438Y-82037682D01*
X109138279Y-82172367D01*
X108830257Y-82342605D01*
X108543215Y-82546272D01*
X108280790Y-82780790D01*
X108046272Y-83043215D01*
X107842605Y-83330257D01*
X107672367Y-83638279D01*
X107537682Y-83963438D01*
X107440250Y-84301632D01*
X107381297Y-84648607D01*
X107361562Y-85000000D01*
X99700500Y-85000000D01*
X99700500Y-54852619D01*
X112499039Y-54852619D01*
X112518510Y-55050320D01*
X112576178Y-55240421D01*
X112669824Y-55415622D01*
X112682725Y-55431342D01*
X112764268Y-55530702D01*
X113732363Y-56498796D01*
X113847442Y-56593240D01*
X114022642Y-56686886D01*
X114117693Y-56715719D01*
X114212744Y-56744554D01*
X114410445Y-56764025D01*
X114608146Y-56744554D01*
X114798249Y-56686886D01*
X114950208Y-56605662D01*
X115001358Y-56591056D01*
X115053982Y-56598862D01*
X115098693Y-56627690D01*
X127187044Y-68716042D01*
X139249661Y-80778659D01*
X139262740Y-80794983D01*
X139314556Y-80843641D01*
X139317367Y-80846365D01*
X139337137Y-80866135D01*
X139340350Y-80868627D01*
X139349340Y-80876306D01*
X139381586Y-80906586D01*
X139399333Y-80916342D01*
X139415857Y-80927196D01*
X139431866Y-80939614D01*
X139472449Y-80957175D01*
X139483100Y-80962393D01*
X139521847Y-80983695D01*
X139541467Y-80988732D01*
X139560174Y-80995137D01*
X139566787Y-80997998D01*
X139578761Y-81003181D01*
X139589412Y-81004867D01*
X139622437Y-81010098D01*
X139634032Y-81012498D01*
X139676877Y-81023500D01*
X139697131Y-81023500D01*
X139716841Y-81025051D01*
X139736849Y-81028220D01*
X139736849Y-81028219D01*
X139736850Y-81028220D01*
X139780868Y-81024058D01*
X139792726Y-81023500D01*
X146451800Y-81023500D01*
X146503048Y-81034393D01*
X146545435Y-81065188D01*
X146548746Y-81068866D01*
X146636893Y-81132908D01*
X146703248Y-81181118D01*
X146877712Y-81258794D01*
X147064513Y-81298500D01*
X147255485Y-81298500D01*
X147255487Y-81298500D01*
X147442288Y-81258794D01*
X147616752Y-81181118D01*
X147771253Y-81068866D01*
X147899040Y-80926944D01*
X147994527Y-80761556D01*
X148053542Y-80579928D01*
X148063684Y-80483426D01*
X148087058Y-80422536D01*
X148137743Y-80381490D01*
X148263235Y-80325618D01*
X148417736Y-80213366D01*
X148545523Y-80071444D01*
X148641010Y-79906056D01*
X148700025Y-79724428D01*
X148719987Y-79534500D01*
X148700025Y-79344572D01*
X148695546Y-79330789D01*
X148691294Y-79269977D01*
X148716091Y-79214283D01*
X148764130Y-79176749D01*
X148866712Y-79131078D01*
X149021213Y-79018826D01*
X149149000Y-78876904D01*
X149244487Y-78711516D01*
X149303502Y-78529888D01*
X149323464Y-78339960D01*
X149303502Y-78150032D01*
X149244487Y-77968404D01*
X149244487Y-77968403D01*
X149149001Y-77803017D01*
X149021212Y-77661093D01*
X148866713Y-77548843D01*
X148866712Y-77548842D01*
X148692248Y-77471166D01*
X148505447Y-77431460D01*
X148314473Y-77431460D01*
X148189938Y-77457930D01*
X148127671Y-77471166D01*
X147953206Y-77548843D01*
X147798707Y-77661093D01*
X147670918Y-77803017D01*
X147575432Y-77968403D01*
X147536107Y-78089436D01*
X147509910Y-78134810D01*
X147467523Y-78165607D01*
X147416274Y-78176500D01*
X145675707Y-78176500D01*
X145627489Y-78166909D01*
X145586612Y-78139595D01*
X142987017Y-75540000D01*
X153046496Y-75540000D01*
X153066458Y-75729929D01*
X153125472Y-75911556D01*
X153220958Y-76076942D01*
X153220960Y-76076944D01*
X153348747Y-76218866D01*
X153503248Y-76331118D01*
X153677712Y-76408794D01*
X153864513Y-76448500D01*
X154031836Y-76448500D01*
X154081875Y-76458862D01*
X154091855Y-76463181D01*
X154135530Y-76470098D01*
X154147125Y-76472498D01*
X154189970Y-76483500D01*
X154210224Y-76483500D01*
X154229934Y-76485051D01*
X154249942Y-76488220D01*
X154249942Y-76488219D01*
X154249943Y-76488220D01*
X154293961Y-76484058D01*
X154305819Y-76483500D01*
X155921800Y-76483500D01*
X155973048Y-76494393D01*
X156015435Y-76525188D01*
X156018746Y-76528866D01*
X156106893Y-76592908D01*
X156173248Y-76641118D01*
X156347712Y-76718794D01*
X156534513Y-76758500D01*
X156725485Y-76758500D01*
X156725487Y-76758500D01*
X156912288Y-76718794D01*
X157086752Y-76641118D01*
X157241253Y-76528866D01*
X157369040Y-76386944D01*
X157464527Y-76221556D01*
X157523542Y-76039928D01*
X157543504Y-75850000D01*
X157523542Y-75660072D01*
X157464527Y-75478444D01*
X157464527Y-75478443D01*
X157369041Y-75313057D01*
X157241252Y-75171133D01*
X157086753Y-75058883D01*
X157086752Y-75058882D01*
X156912288Y-74981206D01*
X156725487Y-74941500D01*
X156534513Y-74941500D01*
X156409979Y-74967970D01*
X156347711Y-74981206D01*
X156173246Y-75058883D01*
X156018746Y-75171133D01*
X156015435Y-75174812D01*
X155973048Y-75205607D01*
X155921800Y-75216500D01*
X154895018Y-75216500D01*
X154832018Y-75199619D01*
X154785899Y-75153500D01*
X154699041Y-75003057D01*
X154571252Y-74861133D01*
X154416753Y-74748883D01*
X154416752Y-74748882D01*
X154242288Y-74671206D01*
X154055487Y-74631500D01*
X153864513Y-74631500D01*
X153739979Y-74657970D01*
X153677711Y-74671206D01*
X153503246Y-74748883D01*
X153348747Y-74861133D01*
X153220958Y-75003057D01*
X153125472Y-75168443D01*
X153066458Y-75350070D01*
X153046496Y-75540000D01*
X142987017Y-75540000D01*
X140237017Y-72790000D01*
X164226496Y-72790000D01*
X164246458Y-72979929D01*
X164305472Y-73161556D01*
X164400958Y-73326942D01*
X164400960Y-73326944D01*
X164528747Y-73468866D01*
X164683248Y-73581118D01*
X164857712Y-73658794D01*
X165044513Y-73698500D01*
X165235485Y-73698500D01*
X165235487Y-73698500D01*
X165422288Y-73658794D01*
X165596752Y-73581118D01*
X165751253Y-73468866D01*
X165879040Y-73326944D01*
X165974527Y-73161556D01*
X166033542Y-72979928D01*
X166053504Y-72790000D01*
X166033542Y-72600072D01*
X165974527Y-72418444D01*
X165974527Y-72418443D01*
X165879041Y-72253057D01*
X165751252Y-72111133D01*
X165596753Y-71998883D01*
X165596752Y-71998882D01*
X165422288Y-71921206D01*
X165235487Y-71881500D01*
X165044513Y-71881500D01*
X164919979Y-71907970D01*
X164857711Y-71921206D01*
X164683246Y-71998883D01*
X164528747Y-72111133D01*
X164400958Y-72253057D01*
X164305472Y-72418443D01*
X164246458Y-72600070D01*
X164226496Y-72790000D01*
X140237017Y-72790000D01*
X138937153Y-71490136D01*
X179611500Y-71490136D01*
X179618011Y-71550698D01*
X179669111Y-71687703D01*
X179756738Y-71804759D01*
X179873794Y-71892386D01*
X179873795Y-71892386D01*
X179873796Y-71892387D01*
X180010799Y-71943487D01*
X180071362Y-71949998D01*
X181968638Y-71949998D01*
X182029201Y-71943487D01*
X182166204Y-71892387D01*
X182283261Y-71804759D01*
X182370889Y-71687702D01*
X182421989Y-71550699D01*
X182428500Y-71490136D01*
X182428500Y-70142860D01*
X182421989Y-70082297D01*
X182370889Y-69945294D01*
X182370888Y-69945292D01*
X182283261Y-69828236D01*
X182166205Y-69740609D01*
X182097702Y-69715058D01*
X182029201Y-69689509D01*
X181968638Y-69682998D01*
X180071362Y-69682998D01*
X180010799Y-69689509D01*
X179873794Y-69740609D01*
X179756738Y-69828236D01*
X179669111Y-69945292D01*
X179618011Y-70082297D01*
X179611500Y-70142860D01*
X179611500Y-71490136D01*
X138937153Y-71490136D01*
X119586702Y-52139684D01*
X119557873Y-52094972D01*
X119550067Y-52042348D01*
X119564675Y-51991193D01*
X119645896Y-51839239D01*
X119703564Y-51649136D01*
X119719725Y-51485046D01*
X119738118Y-51430860D01*
X119778581Y-51390397D01*
X119832768Y-51372003D01*
X119996202Y-51355906D01*
X120186208Y-51298267D01*
X120361321Y-51204668D01*
X120476355Y-51110263D01*
X120697979Y-50888639D01*
X169143000Y-50888639D01*
X169149511Y-50949201D01*
X169200611Y-51086206D01*
X169288238Y-51203262D01*
X169405294Y-51290889D01*
X169405295Y-51290889D01*
X169405296Y-51290890D01*
X169542299Y-51341990D01*
X169602862Y-51348501D01*
X170950138Y-51348501D01*
X171010701Y-51341990D01*
X171147704Y-51290890D01*
X171264761Y-51203262D01*
X171352389Y-51086205D01*
X171403489Y-50949202D01*
X171410000Y-50888639D01*
X180352998Y-50888639D01*
X180359509Y-50949201D01*
X180410609Y-51086206D01*
X180498236Y-51203262D01*
X180615292Y-51290889D01*
X180615293Y-51290889D01*
X180615294Y-51290890D01*
X180752297Y-51341990D01*
X180812860Y-51348501D01*
X182160136Y-51348501D01*
X182220699Y-51341990D01*
X182357702Y-51290890D01*
X182474759Y-51203262D01*
X182562387Y-51086205D01*
X182613487Y-50949202D01*
X182619998Y-50888639D01*
X182619998Y-48991363D01*
X182613487Y-48930800D01*
X182562387Y-48793797D01*
X182557081Y-48786709D01*
X182474759Y-48676739D01*
X182357703Y-48589112D01*
X182289200Y-48563562D01*
X182220699Y-48538012D01*
X182160136Y-48531501D01*
X180812860Y-48531501D01*
X180752297Y-48538012D01*
X180615292Y-48589112D01*
X180498236Y-48676739D01*
X180410609Y-48793795D01*
X180359509Y-48930800D01*
X180352998Y-48991363D01*
X180352998Y-50888639D01*
X171410000Y-50888639D01*
X171410000Y-48991363D01*
X171403489Y-48930800D01*
X171352389Y-48793797D01*
X171347083Y-48786709D01*
X171264761Y-48676739D01*
X171147705Y-48589112D01*
X171079202Y-48563562D01*
X171010701Y-48538012D01*
X170950138Y-48531501D01*
X169602862Y-48531501D01*
X169542299Y-48538012D01*
X169405294Y-48589112D01*
X169288238Y-48676739D01*
X169200611Y-48793795D01*
X169149511Y-48930800D01*
X169143000Y-48991363D01*
X169143000Y-50888639D01*
X120697979Y-50888639D01*
X121253478Y-50333140D01*
X121347883Y-50218106D01*
X121441482Y-50042993D01*
X121499121Y-49852987D01*
X121502968Y-49813925D01*
X119575140Y-49813925D01*
X119512140Y-49797044D01*
X119466021Y-49750925D01*
X119449140Y-49687925D01*
X119449140Y-47810010D01*
X119957140Y-47810010D01*
X119957140Y-49305925D01*
X121453054Y-49305925D01*
X121441481Y-49267771D01*
X121347883Y-49092660D01*
X121253479Y-48977629D01*
X120285435Y-48009585D01*
X120170404Y-47915181D01*
X119995293Y-47821583D01*
X119957140Y-47810010D01*
X119449140Y-47810010D01*
X119449140Y-47760097D01*
X119449139Y-47760096D01*
X119410077Y-47763943D01*
X119220071Y-47821582D01*
X119044958Y-47915181D01*
X118929924Y-48009586D01*
X118152801Y-48786709D01*
X118058396Y-48901743D01*
X117964797Y-49076856D01*
X117907158Y-49266862D01*
X117891061Y-49430297D01*
X117872667Y-49484483D01*
X117832204Y-49524946D01*
X117778018Y-49543339D01*
X117613928Y-49559500D01*
X117423827Y-49617168D01*
X117248626Y-49710814D01*
X117133546Y-49805258D01*
X116356372Y-50582433D01*
X116261927Y-50697513D01*
X116168281Y-50872714D01*
X116110613Y-51062815D01*
X116094502Y-51226398D01*
X116076108Y-51280585D01*
X116035646Y-51321047D01*
X115981459Y-51339441D01*
X115817876Y-51355552D01*
X115627775Y-51413220D01*
X115452574Y-51506866D01*
X115337494Y-51601310D01*
X114560320Y-52378485D01*
X114465875Y-52493565D01*
X114372229Y-52668766D01*
X114314561Y-52858867D01*
X114298450Y-53022449D01*
X114280056Y-53076636D01*
X114239594Y-53117098D01*
X114185407Y-53135492D01*
X114021825Y-53151603D01*
X113831724Y-53209271D01*
X113656523Y-53302917D01*
X113541443Y-53397361D01*
X112764269Y-54174536D01*
X112669824Y-54289616D01*
X112576178Y-54464817D01*
X112518510Y-54654918D01*
X112499039Y-54852619D01*
X99700500Y-54852619D01*
X99700500Y-46000000D01*
X146361562Y-46000000D01*
X146381297Y-46351392D01*
X146440250Y-46698367D01*
X146537682Y-47036561D01*
X146672367Y-47361720D01*
X146842605Y-47669742D01*
X146842609Y-47669749D01*
X147046271Y-47956783D01*
X147280790Y-48219210D01*
X147543217Y-48453729D01*
X147830251Y-48657391D01*
X148138283Y-48827634D01*
X148463440Y-48962318D01*
X148801632Y-49059750D01*
X149148607Y-49118703D01*
X149500000Y-49138437D01*
X149851393Y-49118703D01*
X150198368Y-49059750D01*
X150536560Y-48962318D01*
X150861717Y-48827634D01*
X151169749Y-48657391D01*
X151456783Y-48453729D01*
X151719210Y-48219210D01*
X151953729Y-47956783D01*
X152157391Y-47669749D01*
X152327634Y-47361717D01*
X152462318Y-47036560D01*
X152559750Y-46698368D01*
X152618703Y-46351393D01*
X152638437Y-46000000D01*
X152618703Y-45648607D01*
X152559750Y-45301632D01*
X152462318Y-44963440D01*
X152327634Y-44638283D01*
X152157391Y-44330251D01*
X151953729Y-44043217D01*
X151719210Y-43780790D01*
X151456783Y-43546271D01*
X151169749Y-43342609D01*
X151169742Y-43342605D01*
X150861720Y-43172367D01*
X150536561Y-43037682D01*
X150367464Y-42988966D01*
X150198368Y-42940250D01*
X149851393Y-42881297D01*
X149832707Y-42880247D01*
X149500000Y-42861562D01*
X149148607Y-42881297D01*
X148801632Y-42940250D01*
X148463438Y-43037682D01*
X148138279Y-43172367D01*
X147830257Y-43342605D01*
X147543215Y-43546272D01*
X147280790Y-43780790D01*
X147046272Y-44043215D01*
X146842605Y-44330257D01*
X146672367Y-44638279D01*
X146537682Y-44963438D01*
X146440250Y-45301632D01*
X146381297Y-45648607D01*
X146361562Y-46000000D01*
X99700500Y-46000000D01*
X99700500Y-45826500D01*
X99717381Y-45763500D01*
X99763500Y-45717381D01*
X99826500Y-45700500D01*
X110045763Y-45700500D01*
X110053847Y-45696606D01*
X110080482Y-45687286D01*
X110089231Y-45685290D01*
X110091175Y-45683738D01*
X110096247Y-45679695D01*
X110120139Y-45664681D01*
X110128224Y-45660788D01*
X110133821Y-45653768D01*
X110153768Y-45633821D01*
X110160788Y-45628224D01*
X110164683Y-45620136D01*
X110179695Y-45596247D01*
X110185289Y-45589232D01*
X110185288Y-45589232D01*
X110185290Y-45589231D01*
X110187287Y-45580481D01*
X110196607Y-45553846D01*
X110200500Y-45545763D01*
X110200500Y-35326500D01*
X110217381Y-35263500D01*
X110263500Y-35217381D01*
X110326500Y-35200500D01*
X188673500Y-35200500D01*
X188736500Y-35217381D01*
G37*
%TD.AperFunction*%
%TA.AperFunction,Conductor*%
G36*
X141636439Y-95578281D02*
G01*
X141684512Y-95588500D01*
X141684513Y-95588500D01*
X141740406Y-95588500D01*
X141788624Y-95598091D01*
X141829501Y-95625405D01*
X151189595Y-104985499D01*
X151216909Y-105026376D01*
X151226500Y-105074594D01*
X151226500Y-108285634D01*
X151214226Y-108339878D01*
X151179794Y-108383554D01*
X151129914Y-108408153D01*
X151074303Y-108408880D01*
X150945487Y-108381500D01*
X150754513Y-108381500D01*
X150678294Y-108397701D01*
X150567711Y-108421206D01*
X150393246Y-108498883D01*
X150238747Y-108611133D01*
X150110958Y-108753057D01*
X150015472Y-108918443D01*
X149956458Y-109100070D01*
X149936496Y-109290000D01*
X149956458Y-109479929D01*
X150015472Y-109661556D01*
X150110958Y-109826942D01*
X150110960Y-109826944D01*
X150238747Y-109968866D01*
X150393248Y-110081118D01*
X150567712Y-110158794D01*
X150754513Y-110198500D01*
X150945485Y-110198500D01*
X150945487Y-110198500D01*
X151074303Y-110171119D01*
X151129914Y-110171847D01*
X151179794Y-110196446D01*
X151214226Y-110240122D01*
X151226500Y-110294366D01*
X151226500Y-120547475D01*
X151218131Y-120592629D01*
X151194136Y-120631786D01*
X151120958Y-120713057D01*
X151025472Y-120878444D01*
X150963996Y-121067649D01*
X150925993Y-121124524D01*
X150863874Y-121153162D01*
X150795945Y-121145122D01*
X150536562Y-121037682D01*
X150261520Y-120958444D01*
X150198368Y-120940250D01*
X149851393Y-120881297D01*
X149832707Y-120880247D01*
X149500000Y-120861562D01*
X149148607Y-120881297D01*
X148801632Y-120940250D01*
X148463437Y-121037682D01*
X148216399Y-121140009D01*
X148148470Y-121148049D01*
X148086350Y-121119411D01*
X148048348Y-121062535D01*
X148014527Y-120958444D01*
X147919041Y-120793057D01*
X147888019Y-120758604D01*
X147845863Y-120711785D01*
X147821869Y-120672629D01*
X147813500Y-120627475D01*
X147813500Y-102673853D01*
X147815795Y-102653064D01*
X147815068Y-102629943D01*
X147813562Y-102582014D01*
X147813500Y-102578055D01*
X147813500Y-102550149D01*
X147813500Y-102550144D01*
X147812992Y-102546131D01*
X147812061Y-102534297D01*
X147810673Y-102490110D01*
X147805020Y-102470656D01*
X147801012Y-102451298D01*
X147800111Y-102444165D01*
X147798474Y-102431203D01*
X147782195Y-102390090D01*
X147778353Y-102378869D01*
X147766018Y-102336407D01*
X147766017Y-102336406D01*
X147766017Y-102336404D01*
X147755707Y-102318971D01*
X147747008Y-102301215D01*
X147746969Y-102301117D01*
X147739552Y-102282383D01*
X147713565Y-102246616D01*
X147707047Y-102236693D01*
X147690716Y-102209078D01*
X147684542Y-102198638D01*
X147670212Y-102184308D01*
X147657378Y-102169281D01*
X147645472Y-102152893D01*
X147645471Y-102152892D01*
X147611394Y-102124700D01*
X147602616Y-102116712D01*
X141407121Y-95921216D01*
X141382490Y-95886365D01*
X141370907Y-95845296D01*
X141354261Y-95686917D01*
X141361940Y-95628597D01*
X141395261Y-95580115D01*
X141446960Y-95552045D01*
X141505766Y-95550506D01*
X141636439Y-95578281D01*
G37*
%TD.AperFunction*%
%TD*%
%TA.AperFunction,Conductor*%
%TO.N,GND*%
G36*
X188736500Y-35217381D02*
G01*
X188782619Y-35263500D01*
X188799500Y-35326500D01*
X188799500Y-45454237D01*
X188799500Y-45545763D01*
X188803392Y-45553846D01*
X188803395Y-45553851D01*
X188812713Y-45580481D01*
X188814710Y-45589231D01*
X188820304Y-45596245D01*
X188835317Y-45620136D01*
X188839212Y-45628224D01*
X188846231Y-45633822D01*
X188866180Y-45653771D01*
X188871776Y-45660788D01*
X188879856Y-45664679D01*
X188879858Y-45664680D01*
X188903749Y-45679692D01*
X188910769Y-45685290D01*
X188919518Y-45687286D01*
X188946143Y-45696602D01*
X188954237Y-45700500D01*
X188977410Y-45700500D01*
X189045763Y-45700500D01*
X199173500Y-45700500D01*
X199236500Y-45717381D01*
X199282619Y-45763500D01*
X199299500Y-45826500D01*
X199299500Y-124173500D01*
X199282619Y-124236500D01*
X199236500Y-124282619D01*
X199173500Y-124299500D01*
X188954236Y-124299500D01*
X188946145Y-124303396D01*
X188919523Y-124312711D01*
X188910766Y-124314709D01*
X188903745Y-124320309D01*
X188879866Y-124335314D01*
X188871777Y-124339210D01*
X188866177Y-124346232D01*
X188846232Y-124366177D01*
X188839210Y-124371777D01*
X188835314Y-124379866D01*
X188820309Y-124403745D01*
X188814709Y-124410766D01*
X188812711Y-124419523D01*
X188803396Y-124446145D01*
X188799500Y-124454236D01*
X188799500Y-134673500D01*
X188782619Y-134736500D01*
X188736500Y-134782619D01*
X188673500Y-134799500D01*
X162571741Y-134799500D01*
X162511042Y-134783916D01*
X162465358Y-134741018D01*
X162445990Y-134681418D01*
X162457729Y-134619860D01*
X162497671Y-134571570D01*
X162508696Y-134563558D01*
X162518608Y-134557048D01*
X162556667Y-134534542D01*
X162570996Y-134520212D01*
X162586024Y-134507377D01*
X162602412Y-134495472D01*
X162630608Y-134461386D01*
X162638577Y-134452630D01*
X179808658Y-117282549D01*
X179824979Y-117269475D01*
X179827014Y-117267307D01*
X179827018Y-117267305D01*
X179873676Y-117217617D01*
X179876367Y-117214840D01*
X179896135Y-117195074D01*
X179898608Y-117191884D01*
X179906316Y-117182858D01*
X179936586Y-117150626D01*
X179946344Y-117132873D01*
X179957195Y-117116353D01*
X179969614Y-117100346D01*
X179987179Y-117059751D01*
X179992384Y-117049127D01*
X180013695Y-117010365D01*
X180018733Y-116990739D01*
X180025137Y-116972037D01*
X180033181Y-116953450D01*
X180040096Y-116909786D01*
X180042504Y-116898158D01*
X180053500Y-116855335D01*
X180053500Y-116835081D01*
X180055051Y-116815371D01*
X180058220Y-116795362D01*
X180054059Y-116751344D01*
X180053500Y-116739486D01*
X180053500Y-109624594D01*
X180063091Y-109576376D01*
X180090405Y-109535499D01*
X181255500Y-108370405D01*
X181296377Y-108343091D01*
X181344595Y-108333500D01*
X181433169Y-108333500D01*
X181485170Y-108344731D01*
X181527901Y-108376422D01*
X181553743Y-108422924D01*
X181603758Y-108587802D01*
X181697404Y-108763004D01*
X181801682Y-108890066D01*
X181826991Y-108941388D01*
X181826991Y-108998612D01*
X181801682Y-109049934D01*
X181697404Y-109176995D01*
X181603758Y-109352197D01*
X181546091Y-109542298D01*
X181531500Y-109690449D01*
X181531500Y-110789550D01*
X181546091Y-110937701D01*
X181603758Y-111127802D01*
X181697404Y-111303003D01*
X181801682Y-111430065D01*
X181826991Y-111481387D01*
X181826992Y-111538610D01*
X181801683Y-111589932D01*
X181697404Y-111716996D01*
X181603758Y-111892197D01*
X181546091Y-112082298D01*
X181531500Y-112230449D01*
X181531500Y-113329550D01*
X181546091Y-113477701D01*
X181603758Y-113667802D01*
X181697404Y-113843004D01*
X181801682Y-113970066D01*
X181826991Y-114021388D01*
X181826991Y-114078612D01*
X181801682Y-114129934D01*
X181697404Y-114256995D01*
X181603758Y-114432197D01*
X181546091Y-114622298D01*
X181531500Y-114770449D01*
X181531500Y-115869550D01*
X181546091Y-116017701D01*
X181603758Y-116207802D01*
X181687418Y-116364321D01*
X181697405Y-116383004D01*
X181801628Y-116510000D01*
X181801682Y-116510065D01*
X181826991Y-116561387D01*
X181826992Y-116618610D01*
X181801683Y-116669932D01*
X181697404Y-116796996D01*
X181603758Y-116972197D01*
X181546091Y-117162298D01*
X181531500Y-117310449D01*
X181531500Y-118409550D01*
X181546091Y-118557701D01*
X181603758Y-118747802D01*
X181697404Y-118923004D01*
X181801682Y-119050066D01*
X181826991Y-119101388D01*
X181826991Y-119158612D01*
X181801682Y-119209934D01*
X181697404Y-119336995D01*
X181603758Y-119512197D01*
X181546091Y-119702298D01*
X181531500Y-119850449D01*
X181531500Y-120949550D01*
X181546091Y-121097701D01*
X181603758Y-121287802D01*
X181697404Y-121463004D01*
X181801682Y-121590066D01*
X181826991Y-121641388D01*
X181826991Y-121698612D01*
X181801682Y-121749934D01*
X181697404Y-121876995D01*
X181603758Y-122052197D01*
X181546091Y-122242298D01*
X181531500Y-122390449D01*
X181531500Y-123489550D01*
X181546091Y-123637701D01*
X181603758Y-123827802D01*
X181697404Y-124003003D01*
X181802006Y-124130460D01*
X181827315Y-124181782D01*
X181827316Y-124239005D01*
X181802007Y-124290327D01*
X181697823Y-124417276D01*
X181604223Y-124592390D01*
X181546584Y-124782396D01*
X181532000Y-124930479D01*
X181532000Y-126029521D01*
X181546584Y-126177603D01*
X181604223Y-126367609D01*
X181697823Y-126542723D01*
X181823787Y-126696212D01*
X181977276Y-126822176D01*
X182152390Y-126915776D01*
X182342396Y-126973415D01*
X182490479Y-126988000D01*
X182532790Y-126988000D01*
X182532791Y-126987999D01*
X183251209Y-126987999D01*
X183251210Y-126988000D01*
X185548790Y-126988000D01*
X185548790Y-126987999D01*
X184400001Y-125839210D01*
X184399999Y-125839210D01*
X183251209Y-126987999D01*
X182532791Y-126987999D01*
X184310905Y-125209885D01*
X184367389Y-125177273D01*
X184432611Y-125177273D01*
X184489095Y-125209885D01*
X186267208Y-126987999D01*
X186267210Y-126988000D01*
X186309521Y-126988000D01*
X186457603Y-126973415D01*
X186647609Y-126915776D01*
X186822723Y-126822176D01*
X186976212Y-126696212D01*
X187102176Y-126542723D01*
X187195776Y-126367609D01*
X187253415Y-126177603D01*
X187268000Y-126029521D01*
X187268000Y-124930479D01*
X187253415Y-124782396D01*
X187195776Y-124592390D01*
X187102174Y-124417273D01*
X186997993Y-124290327D01*
X186972683Y-124239005D01*
X186972684Y-124181782D01*
X186997990Y-124130464D01*
X187102595Y-124003004D01*
X187196241Y-123827804D01*
X187253908Y-123637701D01*
X187254527Y-123631419D01*
X187269033Y-123583934D01*
X187300759Y-123545740D01*
X187320626Y-123535371D01*
X187319888Y-123534123D01*
X187333590Y-123526018D01*
X187333593Y-123526018D01*
X187333915Y-123525827D01*
X187388387Y-123508651D01*
X187444847Y-123517289D01*
X187491689Y-123549966D01*
X187598747Y-123668866D01*
X187598748Y-123668867D01*
X187616402Y-123681693D01*
X187753248Y-123781118D01*
X187927712Y-123858794D01*
X188114513Y-123898500D01*
X188305485Y-123898500D01*
X188305487Y-123898500D01*
X188492288Y-123858794D01*
X188666752Y-123781118D01*
X188678529Y-123772561D01*
X188713649Y-123754667D01*
X188752586Y-123748500D01*
X189115559Y-123748500D01*
X189133820Y-123749830D01*
X189157789Y-123753341D01*
X189204253Y-123749275D01*
X189207647Y-123748979D01*
X189218628Y-123748500D01*
X189224177Y-123748500D01*
X189224180Y-123748500D01*
X189255301Y-123744861D01*
X189258889Y-123744495D01*
X189334426Y-123737887D01*
X189334430Y-123737885D01*
X189335751Y-123737770D01*
X189354856Y-123733535D01*
X189356106Y-123733079D01*
X189356113Y-123733079D01*
X189427400Y-123707132D01*
X189430769Y-123705961D01*
X189502738Y-123682114D01*
X189502739Y-123682112D01*
X189504007Y-123681693D01*
X189521613Y-123673169D01*
X189522725Y-123672437D01*
X189522732Y-123672435D01*
X189586138Y-123630730D01*
X189589161Y-123628806D01*
X189592180Y-123626944D01*
X189653651Y-123589030D01*
X189653652Y-123589028D01*
X189654788Y-123588328D01*
X189669959Y-123575970D01*
X189670871Y-123575002D01*
X189670874Y-123575001D01*
X189722929Y-123519824D01*
X189725448Y-123517231D01*
X198540777Y-114701902D01*
X198554624Y-114689936D01*
X198574058Y-114675469D01*
X198606228Y-114637128D01*
X198613645Y-114629034D01*
X198617580Y-114625101D01*
X198637043Y-114600484D01*
X198639268Y-114597753D01*
X198688032Y-114539640D01*
X198688034Y-114539634D01*
X198688892Y-114538613D01*
X198699403Y-114522114D01*
X198699965Y-114520908D01*
X198699967Y-114520906D01*
X198732022Y-114452159D01*
X198733572Y-114448958D01*
X198767609Y-114381188D01*
X198767610Y-114381183D01*
X198768207Y-114379995D01*
X198774631Y-114361517D01*
X198774901Y-114360209D01*
X198774902Y-114360207D01*
X198790251Y-114285866D01*
X198791001Y-114282484D01*
X198808500Y-114208656D01*
X198808500Y-114208651D01*
X198808807Y-114207356D01*
X198810796Y-114187888D01*
X198810757Y-114186560D01*
X198810758Y-114186558D01*
X198808553Y-114110776D01*
X198808500Y-114107112D01*
X198808500Y-65657000D01*
X198825381Y-65594000D01*
X198880297Y-65498882D01*
X198884527Y-65491556D01*
X198943542Y-65309928D01*
X198963504Y-65120000D01*
X198943542Y-64930072D01*
X198884527Y-64748444D01*
X198884527Y-64748443D01*
X198789041Y-64583057D01*
X198661252Y-64441133D01*
X198506753Y-64328883D01*
X198506752Y-64328882D01*
X198332288Y-64251206D01*
X198145487Y-64211500D01*
X197954513Y-64211500D01*
X197829978Y-64237970D01*
X197767711Y-64251206D01*
X197593246Y-64328883D01*
X197438747Y-64441133D01*
X197310958Y-64583057D01*
X197215473Y-64748441D01*
X197198918Y-64799392D01*
X197166611Y-64851091D01*
X197113815Y-64881573D01*
X197052889Y-64883701D01*
X197022168Y-64877171D01*
X196995487Y-64871500D01*
X196804513Y-64871500D01*
X196804512Y-64871500D01*
X196754959Y-64882032D01*
X196696151Y-64880491D01*
X196644453Y-64852420D01*
X196611133Y-64803939D01*
X196603454Y-64745616D01*
X196613504Y-64650000D01*
X196593542Y-64460072D01*
X196550916Y-64328883D01*
X196534527Y-64278443D01*
X196439041Y-64113057D01*
X196311252Y-63971133D01*
X196156753Y-63858883D01*
X196156752Y-63858882D01*
X195982288Y-63781206D01*
X195795487Y-63741500D01*
X195604513Y-63741500D01*
X195569403Y-63748962D01*
X195487239Y-63766427D01*
X195426313Y-63764299D01*
X195373516Y-63733817D01*
X195341210Y-63682117D01*
X195308392Y-63581116D01*
X195294527Y-63538444D01*
X195273918Y-63502748D01*
X195199041Y-63373057D01*
X195071252Y-63231133D01*
X194916753Y-63118883D01*
X194916752Y-63118882D01*
X194742288Y-63041206D01*
X194555487Y-63001500D01*
X194364513Y-63001500D01*
X194277483Y-63019999D01*
X194177711Y-63041206D01*
X194003246Y-63118883D01*
X193848747Y-63231133D01*
X193720958Y-63373057D01*
X193619318Y-63549104D01*
X193580201Y-63590869D01*
X193526645Y-63611026D01*
X193469698Y-63605417D01*
X193421104Y-63575199D01*
X184587245Y-54741340D01*
X184574172Y-54725022D01*
X184522350Y-54676358D01*
X184519538Y-54673633D01*
X184499771Y-54653866D01*
X184496576Y-54651387D01*
X184487554Y-54643682D01*
X184455321Y-54613414D01*
X184437568Y-54603654D01*
X184421042Y-54592798D01*
X184405042Y-54580387D01*
X184364467Y-54562829D01*
X184353805Y-54557605D01*
X184315064Y-54536306D01*
X184301314Y-54532776D01*
X184295438Y-54531267D01*
X184276732Y-54524863D01*
X184258146Y-54516820D01*
X184214476Y-54509903D01*
X184202854Y-54507496D01*
X184160031Y-54496501D01*
X184160030Y-54496501D01*
X184139777Y-54496501D01*
X184120067Y-54494950D01*
X184100058Y-54491780D01*
X184056040Y-54495942D01*
X184044182Y-54496501D01*
X179761909Y-54496501D01*
X179712309Y-54486328D01*
X179670718Y-54457451D01*
X179643853Y-54414533D01*
X179632388Y-54383795D01*
X179544761Y-54266739D01*
X179427705Y-54179112D01*
X179359202Y-54153561D01*
X179290701Y-54128012D01*
X179230138Y-54121501D01*
X178532862Y-54121501D01*
X178472299Y-54128012D01*
X178335294Y-54179112D01*
X178207009Y-54275145D01*
X178158283Y-54297398D01*
X178104717Y-54297398D01*
X178055991Y-54275145D01*
X177927705Y-54179112D01*
X177859202Y-54153561D01*
X177790701Y-54128012D01*
X177730138Y-54121501D01*
X177032862Y-54121501D01*
X176972299Y-54128012D01*
X176835294Y-54179112D01*
X176707008Y-54275147D01*
X176658282Y-54297399D01*
X176604716Y-54297399D01*
X176555990Y-54275147D01*
X176427703Y-54179112D01*
X176359200Y-54153561D01*
X176290699Y-54128012D01*
X176230136Y-54121501D01*
X175532860Y-54121501D01*
X175472297Y-54128012D01*
X175335292Y-54179112D01*
X175206591Y-54275457D01*
X175157865Y-54297709D01*
X175104299Y-54297710D01*
X175055574Y-54275458D01*
X174927461Y-54179555D01*
X174790592Y-54128506D01*
X174730088Y-54122001D01*
X174635499Y-54122001D01*
X174635499Y-56138001D01*
X174730088Y-56138001D01*
X174790592Y-56131495D01*
X174927461Y-56080446D01*
X175055570Y-55984544D01*
X175104296Y-55962291D01*
X175157863Y-55962290D01*
X175206589Y-55984543D01*
X175335292Y-56080889D01*
X175335293Y-56080889D01*
X175335294Y-56080890D01*
X175472297Y-56131990D01*
X175532860Y-56138501D01*
X175941904Y-56138501D01*
X175990122Y-56148092D01*
X176030999Y-56175406D01*
X177334248Y-57478655D01*
X177347331Y-57494985D01*
X177399162Y-57543656D01*
X177401974Y-57546381D01*
X177421727Y-57566134D01*
X177423680Y-57567649D01*
X177424921Y-57568612D01*
X177433941Y-57576316D01*
X177466176Y-57606586D01*
X177483932Y-57616347D01*
X177500448Y-57627196D01*
X177516456Y-57639613D01*
X177557022Y-57657167D01*
X177567685Y-57662391D01*
X177606432Y-57683693D01*
X177606434Y-57683693D01*
X177606437Y-57683695D01*
X177626071Y-57688736D01*
X177644756Y-57695134D01*
X177663352Y-57703181D01*
X177707027Y-57710098D01*
X177718622Y-57712498D01*
X177761467Y-57723500D01*
X177781721Y-57723500D01*
X177801431Y-57725051D01*
X177821439Y-57728220D01*
X177821439Y-57728219D01*
X177821440Y-57728220D01*
X177865458Y-57724058D01*
X177877316Y-57723500D01*
X183745406Y-57723500D01*
X183793624Y-57733091D01*
X183834501Y-57760405D01*
X187312000Y-61237904D01*
X187342738Y-61288063D01*
X187347354Y-61346710D01*
X187324841Y-61401060D01*
X187280108Y-61439266D01*
X187222905Y-61452999D01*
X176578530Y-61452999D01*
X176534497Y-61445054D01*
X176439202Y-61409510D01*
X176378638Y-61402999D01*
X176146371Y-61402999D01*
X176098153Y-61393408D01*
X176057276Y-61366094D01*
X174971320Y-60280138D01*
X179611500Y-60280138D01*
X179618011Y-60340700D01*
X179669111Y-60477705D01*
X179756738Y-60594761D01*
X179873794Y-60682388D01*
X179873795Y-60682388D01*
X179873796Y-60682389D01*
X180010799Y-60733489D01*
X180071362Y-60740000D01*
X181968638Y-60740000D01*
X182029201Y-60733489D01*
X182166204Y-60682389D01*
X182283261Y-60594761D01*
X182370889Y-60477704D01*
X182421989Y-60340701D01*
X182428500Y-60280138D01*
X182428500Y-58932862D01*
X182421989Y-58872299D01*
X182370889Y-58735296D01*
X182370888Y-58735294D01*
X182283261Y-58618238D01*
X182166205Y-58530611D01*
X182097702Y-58505061D01*
X182029201Y-58479511D01*
X181968638Y-58473000D01*
X180071362Y-58473000D01*
X180010799Y-58479511D01*
X179873794Y-58530611D01*
X179756738Y-58618238D01*
X179669111Y-58735294D01*
X179618011Y-58872299D01*
X179611500Y-58932862D01*
X179611500Y-60280138D01*
X174971320Y-60280138D01*
X173676904Y-58985722D01*
X173649590Y-58944845D01*
X173639999Y-58896627D01*
X173639999Y-56185785D01*
X173658802Y-56119567D01*
X173709599Y-56073113D01*
X173777230Y-56060287D01*
X173817907Y-56075873D01*
X173818563Y-56074116D01*
X173972405Y-56131495D01*
X174032910Y-56138001D01*
X174127499Y-56138001D01*
X174127499Y-54122001D01*
X174032910Y-54122001D01*
X173972405Y-54128506D01*
X173835536Y-54179555D01*
X173707423Y-54275458D01*
X173658697Y-54297710D01*
X173605131Y-54297709D01*
X173556406Y-54275457D01*
X173427704Y-54179112D01*
X173359201Y-54153561D01*
X173290700Y-54128012D01*
X173230137Y-54121501D01*
X172532861Y-54121501D01*
X172472298Y-54128012D01*
X172335293Y-54179112D01*
X172218237Y-54266739D01*
X172130610Y-54383795D01*
X172079510Y-54520800D01*
X172072999Y-54581363D01*
X172072999Y-55678639D01*
X172079510Y-55739203D01*
X172115054Y-55834498D01*
X172122999Y-55878531D01*
X172122999Y-59198557D01*
X172121669Y-59216818D01*
X172118158Y-59240786D01*
X172122520Y-59290645D01*
X172122999Y-59301626D01*
X172122999Y-59307182D01*
X172126634Y-59338288D01*
X172127006Y-59341930D01*
X172133727Y-59418742D01*
X172137968Y-59437871D01*
X172164345Y-59510340D01*
X172165548Y-59513802D01*
X172189803Y-59586998D01*
X172198336Y-59604625D01*
X172240731Y-59669082D01*
X172242670Y-59672125D01*
X172282469Y-59736649D01*
X172283173Y-59737790D01*
X172295537Y-59752965D01*
X172351654Y-59805909D01*
X172354283Y-59808463D01*
X174784595Y-62238775D01*
X174811909Y-62279652D01*
X174821500Y-62327870D01*
X174821500Y-62560137D01*
X174828011Y-62620699D01*
X174879111Y-62757704D01*
X174975456Y-62886406D01*
X174997708Y-62935131D01*
X174997709Y-62988697D01*
X174975457Y-63037423D01*
X174879554Y-63165536D01*
X174828505Y-63302405D01*
X174822000Y-63362910D01*
X174822000Y-63457499D01*
X176838000Y-63457499D01*
X176838000Y-63362910D01*
X176831494Y-63302405D01*
X176774115Y-63148563D01*
X176775872Y-63147907D01*
X176760286Y-63107230D01*
X176773112Y-63039599D01*
X176819566Y-62988802D01*
X176885784Y-62969999D01*
X187011687Y-62969999D01*
X187062936Y-62980892D01*
X187105323Y-63011688D01*
X187131520Y-63057062D01*
X187165473Y-63161556D01*
X187260958Y-63326942D01*
X187342273Y-63417251D01*
X187388747Y-63468866D01*
X187543248Y-63581118D01*
X187717712Y-63658794D01*
X187904513Y-63698500D01*
X188095485Y-63698500D01*
X188095487Y-63698500D01*
X188282288Y-63658794D01*
X188456752Y-63581118D01*
X188611253Y-63468866D01*
X188621294Y-63457714D01*
X188671831Y-63423625D01*
X188732462Y-63417251D01*
X188738990Y-63419888D01*
X188729147Y-63373576D01*
X188745951Y-63314974D01*
X188834527Y-63161556D01*
X188869360Y-63054351D01*
X188903664Y-63000763D01*
X188959779Y-62970768D01*
X189023394Y-62972018D01*
X189078288Y-63004192D01*
X189191006Y-63116910D01*
X189222243Y-63168640D01*
X189225801Y-63228966D01*
X189200862Y-63284010D01*
X189153161Y-63321111D01*
X189113248Y-63338881D01*
X188958746Y-63451134D01*
X188948705Y-63462286D01*
X188898163Y-63496376D01*
X188837533Y-63502748D01*
X188831007Y-63500111D01*
X188840852Y-63546421D01*
X188824049Y-63605024D01*
X188735472Y-63758445D01*
X188676458Y-63940070D01*
X188659093Y-64105290D01*
X188647509Y-64146363D01*
X188622879Y-64181214D01*
X188263002Y-64541093D01*
X188222124Y-64568407D01*
X188173906Y-64577998D01*
X176792210Y-64577998D01*
X176725992Y-64559195D01*
X176679537Y-64508398D01*
X176666712Y-64440767D01*
X176691342Y-64376489D01*
X176780445Y-64257461D01*
X176831494Y-64120592D01*
X176838000Y-64060088D01*
X176838000Y-63965499D01*
X174822000Y-63965499D01*
X174822000Y-64060088D01*
X174828505Y-64120592D01*
X174879554Y-64257461D01*
X174975457Y-64385574D01*
X174997709Y-64434299D01*
X174997708Y-64487865D01*
X174975456Y-64536591D01*
X174879111Y-64665292D01*
X174828011Y-64802297D01*
X174821500Y-64862860D01*
X174821500Y-65560136D01*
X174828011Y-65620698D01*
X174879111Y-65757703D01*
X174975146Y-65885990D01*
X174997398Y-65934716D01*
X174997398Y-65988282D01*
X174975146Y-66037008D01*
X174879111Y-66165294D01*
X174828011Y-66302299D01*
X174821500Y-66362862D01*
X174821500Y-67060138D01*
X174828011Y-67120700D01*
X174879110Y-67257703D01*
X174879111Y-67257704D01*
X174966739Y-67374761D01*
X174966740Y-67374762D01*
X174975145Y-67385989D01*
X174997397Y-67434715D01*
X174997398Y-67488282D01*
X174975145Y-67537008D01*
X174879111Y-67665294D01*
X174828010Y-67802299D01*
X174828011Y-67802299D01*
X174821500Y-67862862D01*
X174821500Y-68560138D01*
X174828011Y-68620701D01*
X174848999Y-68676972D01*
X174879111Y-68757705D01*
X174966738Y-68874761D01*
X175083794Y-68962388D01*
X175083795Y-68962388D01*
X175083796Y-68962389D01*
X175220799Y-69013489D01*
X175281362Y-69020000D01*
X176378638Y-69020000D01*
X176439201Y-69013489D01*
X176576204Y-68962389D01*
X176693261Y-68874761D01*
X176693260Y-68874761D01*
X176699445Y-68870132D01*
X176735163Y-68851448D01*
X176774954Y-68845000D01*
X188814647Y-68845000D01*
X188835435Y-68847295D01*
X188838407Y-68847201D01*
X188838409Y-68847202D01*
X188906485Y-68845062D01*
X188910445Y-68845000D01*
X188938352Y-68845000D01*
X188938356Y-68845000D01*
X188942365Y-68844493D01*
X188954199Y-68843561D01*
X188998389Y-68842173D01*
X189017838Y-68836521D01*
X189037198Y-68832512D01*
X189057297Y-68829974D01*
X189098415Y-68813693D01*
X189109617Y-68809857D01*
X189152093Y-68797518D01*
X189169539Y-68787199D01*
X189187280Y-68778509D01*
X189206117Y-68771052D01*
X189241892Y-68745058D01*
X189251803Y-68738548D01*
X189289862Y-68716042D01*
X189304191Y-68701712D01*
X189319219Y-68688877D01*
X189335607Y-68676972D01*
X189363803Y-68642886D01*
X189371762Y-68634140D01*
X190770501Y-67235402D01*
X190811376Y-67208091D01*
X190859594Y-67198500D01*
X190915485Y-67198500D01*
X190915487Y-67198500D01*
X191102288Y-67158794D01*
X191276752Y-67081118D01*
X191431253Y-66968866D01*
X191559040Y-66826944D01*
X191654527Y-66661556D01*
X191713542Y-66479928D01*
X191733504Y-66290000D01*
X191713542Y-66100072D01*
X191654527Y-65918444D01*
X191654020Y-65916883D01*
X191650887Y-65850461D01*
X191682003Y-65791694D01*
X191738700Y-65756950D01*
X191805188Y-65755906D01*
X191862948Y-65788852D01*
X192549595Y-66475499D01*
X192576909Y-66516376D01*
X192586500Y-66564594D01*
X192586500Y-103675406D01*
X192576909Y-103723624D01*
X192549595Y-103764501D01*
X187216449Y-109097644D01*
X187155965Y-109131258D01*
X187086852Y-109127862D01*
X187029954Y-109088482D01*
X186998317Y-109049932D01*
X186973008Y-108998610D01*
X186973009Y-108941387D01*
X186998318Y-108890065D01*
X187050977Y-108825900D01*
X187102595Y-108763004D01*
X187196241Y-108587804D01*
X187253908Y-108397701D01*
X187268500Y-108249547D01*
X187268499Y-107150454D01*
X187265314Y-107118119D01*
X187253908Y-107002298D01*
X187203147Y-106834962D01*
X187196241Y-106812196D01*
X187102595Y-106636996D01*
X187088499Y-106619820D01*
X186998317Y-106509932D01*
X186973008Y-106458610D01*
X186973009Y-106401387D01*
X186998318Y-106350065D01*
X187017500Y-106326692D01*
X187102595Y-106223004D01*
X187196241Y-106047804D01*
X187253908Y-105857701D01*
X187268500Y-105709547D01*
X187268499Y-104610454D01*
X187267579Y-104601116D01*
X187253908Y-104462298D01*
X187219724Y-104349610D01*
X187196241Y-104272196D01*
X187102595Y-104096996D01*
X187073809Y-104061920D01*
X186998317Y-103969932D01*
X186973008Y-103918610D01*
X186973009Y-103861387D01*
X186998318Y-103810065D01*
X187102595Y-103683004D01*
X187196241Y-103507804D01*
X187253908Y-103317701D01*
X187268500Y-103169547D01*
X187268499Y-102070454D01*
X187268476Y-102070224D01*
X187253908Y-101922298D01*
X187196241Y-101732197D01*
X187196241Y-101732196D01*
X187123809Y-101596684D01*
X187102595Y-101556995D01*
X186997993Y-101429538D01*
X186972683Y-101378215D01*
X186972684Y-101320992D01*
X186997993Y-101269670D01*
X187102176Y-101142723D01*
X187195776Y-100967609D01*
X187253415Y-100777603D01*
X187268000Y-100629521D01*
X187268000Y-99530479D01*
X187253415Y-99382396D01*
X187195776Y-99192390D01*
X187102176Y-99017276D01*
X186976212Y-98863787D01*
X186822723Y-98737823D01*
X186647609Y-98644223D01*
X186457603Y-98586584D01*
X186309521Y-98572000D01*
X186267208Y-98572000D01*
X184489095Y-100350114D01*
X184432611Y-100382726D01*
X184367389Y-100382726D01*
X184310905Y-100350114D01*
X182532791Y-98572000D01*
X183251209Y-98572000D01*
X184399999Y-99720790D01*
X184400001Y-99720790D01*
X185548790Y-98572000D01*
X183251209Y-98572000D01*
X182532791Y-98572000D01*
X182490479Y-98572000D01*
X182342396Y-98586584D01*
X182152390Y-98644223D01*
X181977276Y-98737823D01*
X181823787Y-98863787D01*
X181697823Y-99017276D01*
X181604223Y-99192390D01*
X181546584Y-99382396D01*
X181532000Y-99530479D01*
X181532000Y-100629521D01*
X181546584Y-100777603D01*
X181604223Y-100967609D01*
X181697825Y-101142726D01*
X181802006Y-101269672D01*
X181827316Y-101320994D01*
X181827315Y-101378217D01*
X181802006Y-101429539D01*
X181697404Y-101556995D01*
X181603758Y-101732197D01*
X181546091Y-101922298D01*
X181531500Y-102070450D01*
X181531500Y-102290404D01*
X181521909Y-102338622D01*
X181494595Y-102379499D01*
X177349635Y-106524458D01*
X177333315Y-106537534D01*
X177284669Y-106589336D01*
X177281919Y-106592174D01*
X177262167Y-106611927D01*
X177262163Y-106611931D01*
X177262164Y-106611931D01*
X177259678Y-106615134D01*
X177251986Y-106624140D01*
X177221712Y-106656379D01*
X177211951Y-106674135D01*
X177201100Y-106690653D01*
X177188684Y-106706660D01*
X177171123Y-106747240D01*
X177165903Y-106757896D01*
X177144603Y-106796641D01*
X177139566Y-106816260D01*
X177133163Y-106834962D01*
X177125117Y-106853556D01*
X177118200Y-106897225D01*
X177115794Y-106908845D01*
X177104799Y-106951671D01*
X177104799Y-106971925D01*
X177103248Y-106991635D01*
X177100078Y-107011643D01*
X177104240Y-107055662D01*
X177104799Y-107067520D01*
X177104799Y-115455406D01*
X177095208Y-115503624D01*
X177067894Y-115544501D01*
X160459195Y-132153199D01*
X160418318Y-132180513D01*
X160370100Y-132190104D01*
X153389990Y-132190104D01*
X153332787Y-132176371D01*
X153288054Y-132138165D01*
X153265541Y-132083815D01*
X153270157Y-132025168D01*
X153300895Y-131975009D01*
X153300894Y-131975009D01*
X157098659Y-128177244D01*
X157114980Y-128164169D01*
X157117014Y-128162001D01*
X157117018Y-128162000D01*
X157163660Y-128112329D01*
X157166351Y-128109552D01*
X157186135Y-128089770D01*
X157188621Y-128086564D01*
X157196310Y-128077561D01*
X157226586Y-128045321D01*
X157236342Y-128027571D01*
X157247195Y-128011050D01*
X157259614Y-127995041D01*
X157277175Y-127954454D01*
X157282388Y-127943813D01*
X157303695Y-127905060D01*
X157308733Y-127885434D01*
X157315137Y-127866732D01*
X157323181Y-127848144D01*
X157330096Y-127804482D01*
X157332504Y-127792853D01*
X157343500Y-127750029D01*
X157343500Y-127729776D01*
X157345051Y-127710066D01*
X157348220Y-127690057D01*
X157344059Y-127646039D01*
X157343500Y-127634181D01*
X157343500Y-124083738D01*
X157355774Y-124029494D01*
X157390206Y-123985818D01*
X157440086Y-123961219D01*
X157495695Y-123960491D01*
X157674513Y-123998500D01*
X157865485Y-123998500D01*
X157865487Y-123998500D01*
X158052288Y-123958794D01*
X158226752Y-123881118D01*
X158381253Y-123768866D01*
X158509040Y-123626944D01*
X158604527Y-123461556D01*
X158663542Y-123279928D01*
X158683504Y-123090000D01*
X158683503Y-123089994D01*
X158683574Y-123089323D01*
X158703261Y-123040355D01*
X158702790Y-123040152D01*
X158709111Y-123025542D01*
X158709113Y-123025541D01*
X158726672Y-122984961D01*
X158731892Y-122974309D01*
X158753194Y-122935561D01*
X158753195Y-122935560D01*
X158758232Y-122915939D01*
X158764638Y-122897230D01*
X158772681Y-122878644D01*
X158779596Y-122834981D01*
X158782004Y-122823353D01*
X158793000Y-122780529D01*
X158793000Y-122760276D01*
X158794551Y-122740566D01*
X158797720Y-122720557D01*
X158793559Y-122676539D01*
X158793000Y-122664681D01*
X158793000Y-117844094D01*
X158802591Y-117795876D01*
X158829901Y-117755002D01*
X159356409Y-117228494D01*
X159406564Y-117197760D01*
X159465211Y-117193144D01*
X159519561Y-117215657D01*
X159557767Y-117260390D01*
X159571500Y-117317593D01*
X159571500Y-118409550D01*
X159586091Y-118557701D01*
X159643758Y-118747802D01*
X159737404Y-118923004D01*
X159841682Y-119050066D01*
X159866991Y-119101388D01*
X159866991Y-119158612D01*
X159841682Y-119209934D01*
X159737404Y-119336995D01*
X159643758Y-119512197D01*
X159586091Y-119702298D01*
X159571500Y-119850449D01*
X159571500Y-120949550D01*
X159586091Y-121097701D01*
X159643758Y-121287802D01*
X159737404Y-121463004D01*
X159841682Y-121590066D01*
X159866991Y-121641388D01*
X159866991Y-121698612D01*
X159841682Y-121749934D01*
X159737404Y-121876995D01*
X159643758Y-122052197D01*
X159586091Y-122242298D01*
X159571500Y-122390449D01*
X159571500Y-123489550D01*
X159586091Y-123637701D01*
X159643758Y-123827802D01*
X159737404Y-124003003D01*
X159842006Y-124130460D01*
X159867315Y-124181782D01*
X159867316Y-124239005D01*
X159842007Y-124290327D01*
X159737823Y-124417276D01*
X159644223Y-124592390D01*
X159586584Y-124782396D01*
X159572000Y-124930479D01*
X159572000Y-126029521D01*
X159586584Y-126177603D01*
X159644223Y-126367609D01*
X159737823Y-126542723D01*
X159863787Y-126696212D01*
X160017276Y-126822176D01*
X160192390Y-126915776D01*
X160382396Y-126973415D01*
X160530479Y-126988000D01*
X160572790Y-126988000D01*
X160572791Y-126987999D01*
X161291209Y-126987999D01*
X161291210Y-126988000D01*
X163588790Y-126988000D01*
X163588790Y-126987999D01*
X162440001Y-125839210D01*
X162439999Y-125839210D01*
X161291209Y-126987999D01*
X160572791Y-126987999D01*
X162350905Y-125209885D01*
X162407389Y-125177273D01*
X162472611Y-125177273D01*
X162529095Y-125209885D01*
X164307208Y-126987999D01*
X164307210Y-126988000D01*
X164349521Y-126988000D01*
X164497603Y-126973415D01*
X164687609Y-126915776D01*
X164862723Y-126822176D01*
X165016212Y-126696212D01*
X165142176Y-126542723D01*
X165235776Y-126367609D01*
X165293415Y-126177603D01*
X165308000Y-126029521D01*
X165308000Y-124930479D01*
X165293415Y-124782396D01*
X165235776Y-124592390D01*
X165142174Y-124417273D01*
X165037993Y-124290327D01*
X165012683Y-124239005D01*
X165012684Y-124181782D01*
X165037990Y-124130464D01*
X165142595Y-124003004D01*
X165236241Y-123827804D01*
X165293908Y-123637701D01*
X165308500Y-123489547D01*
X165308499Y-122390454D01*
X165302078Y-122325261D01*
X165293908Y-122242298D01*
X165252157Y-122104663D01*
X165250507Y-122037472D01*
X165283634Y-121978994D01*
X168038658Y-119223970D01*
X168054979Y-119210896D01*
X168057014Y-119208728D01*
X168057018Y-119208726D01*
X168103677Y-119159037D01*
X168106368Y-119156260D01*
X168126134Y-119136496D01*
X168128605Y-119133309D01*
X168136312Y-119124285D01*
X168166586Y-119092047D01*
X168176343Y-119074296D01*
X168187199Y-119057769D01*
X168199613Y-119041767D01*
X168217172Y-119001187D01*
X168222392Y-118990535D01*
X168243694Y-118951787D01*
X168243695Y-118951786D01*
X168248732Y-118932165D01*
X168255138Y-118913456D01*
X168263181Y-118894871D01*
X168270096Y-118851202D01*
X168272496Y-118839607D01*
X168283500Y-118796756D01*
X168283500Y-118776495D01*
X168285051Y-118756784D01*
X168288219Y-118736783D01*
X168284058Y-118692771D01*
X168283500Y-118680915D01*
X168283500Y-100243853D01*
X168285795Y-100223063D01*
X168284808Y-100191669D01*
X168283561Y-100152000D01*
X168283500Y-100148043D01*
X168283500Y-100120149D01*
X168283500Y-100120144D01*
X168282993Y-100116138D01*
X168282062Y-100104305D01*
X168280674Y-100060111D01*
X168275020Y-100040652D01*
X168271013Y-100021306D01*
X168268474Y-100001203D01*
X168252194Y-99960086D01*
X168248353Y-99948866D01*
X168236017Y-99906405D01*
X168225706Y-99888970D01*
X168217008Y-99871215D01*
X168209552Y-99852383D01*
X168183565Y-99816616D01*
X168177047Y-99806693D01*
X168168943Y-99792990D01*
X168154542Y-99768638D01*
X168140212Y-99754308D01*
X168127378Y-99739281D01*
X168115472Y-99722893D01*
X168112930Y-99720790D01*
X168081394Y-99694700D01*
X168072616Y-99686712D01*
X166005905Y-97620000D01*
X167166496Y-97620000D01*
X167186458Y-97809929D01*
X167245472Y-97991556D01*
X167340958Y-98156942D01*
X167340960Y-98156944D01*
X167468747Y-98298866D01*
X167623248Y-98411118D01*
X167797712Y-98488794D01*
X167984513Y-98528500D01*
X168175487Y-98528500D01*
X168199691Y-98523355D01*
X168260618Y-98525482D01*
X168313415Y-98555964D01*
X168345722Y-98607664D01*
X168405473Y-98791557D01*
X168500958Y-98956942D01*
X168528028Y-98987006D01*
X168628747Y-99098866D01*
X168783248Y-99211118D01*
X168957712Y-99288794D01*
X169144513Y-99328500D01*
X169335485Y-99328500D01*
X169335487Y-99328500D01*
X169522288Y-99288794D01*
X169696752Y-99211118D01*
X169851253Y-99098866D01*
X169854564Y-99095188D01*
X169896952Y-99064393D01*
X169948200Y-99053500D01*
X174056147Y-99053500D01*
X174076935Y-99055795D01*
X174079907Y-99055701D01*
X174079909Y-99055702D01*
X174147985Y-99053562D01*
X174151945Y-99053500D01*
X174179852Y-99053500D01*
X174179856Y-99053500D01*
X174183865Y-99052993D01*
X174195699Y-99052061D01*
X174239889Y-99050673D01*
X174259338Y-99045021D01*
X174278698Y-99041012D01*
X174298797Y-99038474D01*
X174339915Y-99022193D01*
X174351117Y-99018357D01*
X174393593Y-99006018D01*
X174411039Y-98995699D01*
X174428780Y-98987009D01*
X174447617Y-98979552D01*
X174483392Y-98953558D01*
X174493303Y-98947048D01*
X174531362Y-98924542D01*
X174545691Y-98910212D01*
X174560719Y-98897377D01*
X174577107Y-98885472D01*
X174605303Y-98851386D01*
X174613272Y-98842630D01*
X175008658Y-98447244D01*
X175024979Y-98434170D01*
X175027014Y-98432002D01*
X175027018Y-98432000D01*
X175073676Y-98382312D01*
X175076367Y-98379535D01*
X175096135Y-98359769D01*
X175098611Y-98356576D01*
X175106316Y-98347553D01*
X175136586Y-98315321D01*
X175146345Y-98297567D01*
X175157198Y-98281045D01*
X175169614Y-98265040D01*
X175187174Y-98224459D01*
X175192388Y-98213815D01*
X175213695Y-98175060D01*
X175218732Y-98155439D01*
X175225138Y-98136730D01*
X175233181Y-98118144D01*
X175240096Y-98074481D01*
X175242504Y-98062853D01*
X175251530Y-98027701D01*
X175253500Y-98020030D01*
X175253500Y-97999776D01*
X175255051Y-97980066D01*
X175258220Y-97960057D01*
X175254059Y-97916039D01*
X175253500Y-97904181D01*
X175253500Y-97106831D01*
X175264731Y-97054830D01*
X175296422Y-97012099D01*
X175342924Y-96986257D01*
X175420814Y-96962629D01*
X175507804Y-96936241D01*
X175683004Y-96842595D01*
X175683005Y-96842593D01*
X175683007Y-96842593D01*
X175757213Y-96781694D01*
X176064698Y-96781694D01*
X176065283Y-96783657D01*
X176066934Y-96817274D01*
X176097276Y-96842176D01*
X176272390Y-96935776D01*
X176462396Y-96993415D01*
X176610479Y-97008000D01*
X177709521Y-97008000D01*
X177857603Y-96993415D01*
X178047609Y-96935776D01*
X178222724Y-96842175D01*
X178253064Y-96817274D01*
X177160001Y-95724210D01*
X177159999Y-95724210D01*
X176134962Y-96749246D01*
X176080465Y-96781308D01*
X176064698Y-96781694D01*
X175757213Y-96781694D01*
X175836565Y-96716571D01*
X175836566Y-96716569D01*
X175836568Y-96716568D01*
X175842032Y-96709909D01*
X175890073Y-96673911D01*
X175924170Y-96668337D01*
X175921903Y-96637593D01*
X175948469Y-96580216D01*
X175962595Y-96563004D01*
X176056241Y-96387804D01*
X176113908Y-96197701D01*
X176125420Y-96080814D01*
X176136910Y-96039294D01*
X176161718Y-96004070D01*
X176800789Y-95365001D01*
X177519210Y-95365001D01*
X178576981Y-96422772D01*
X178576982Y-96422771D01*
X178595776Y-96387609D01*
X178653415Y-96197603D01*
X178668000Y-96049521D01*
X178668000Y-94680479D01*
X178653415Y-94532396D01*
X178595776Y-94342389D01*
X178576981Y-94307226D01*
X177519210Y-95364999D01*
X177519210Y-95365001D01*
X176800789Y-95365001D01*
X176800790Y-95365000D01*
X176161717Y-94725928D01*
X176136909Y-94690703D01*
X176125419Y-94649181D01*
X176113908Y-94532298D01*
X176085074Y-94437247D01*
X176056241Y-94342196D01*
X175962595Y-94166996D01*
X175962593Y-94166992D01*
X175948464Y-94149776D01*
X175921898Y-94092399D01*
X175924165Y-94061660D01*
X175890074Y-94056088D01*
X175842034Y-94020091D01*
X175836567Y-94013430D01*
X175757204Y-93948298D01*
X176064699Y-93948298D01*
X176080461Y-93948686D01*
X176134958Y-93980748D01*
X177159999Y-95005789D01*
X177160000Y-95005789D01*
X178253064Y-93912723D01*
X178222723Y-93887823D01*
X178047609Y-93794223D01*
X177857603Y-93736584D01*
X177709521Y-93722000D01*
X176610479Y-93722000D01*
X176462396Y-93736584D01*
X176272390Y-93794223D01*
X176097274Y-93887825D01*
X176066933Y-93912724D01*
X176065282Y-93946343D01*
X176064699Y-93948298D01*
X175757204Y-93948298D01*
X175683007Y-93887406D01*
X175525781Y-93803368D01*
X175507804Y-93793759D01*
X175507803Y-93793758D01*
X175507802Y-93793758D01*
X175317701Y-93736091D01*
X175169550Y-93721500D01*
X174070449Y-93721500D01*
X173922298Y-93736091D01*
X173732197Y-93793758D01*
X173556995Y-93887404D01*
X173429934Y-93991682D01*
X173378612Y-94016991D01*
X173321388Y-94016991D01*
X173270066Y-93991682D01*
X173143004Y-93887404D01*
X172979113Y-93799804D01*
X172967804Y-93793759D01*
X172967803Y-93793758D01*
X172967802Y-93793758D01*
X172777701Y-93736091D01*
X172629550Y-93721500D01*
X171530449Y-93721500D01*
X171382298Y-93736091D01*
X171192197Y-93793758D01*
X171016995Y-93887404D01*
X170889934Y-93991682D01*
X170838612Y-94016991D01*
X170781388Y-94016991D01*
X170730066Y-93991682D01*
X170603004Y-93887404D01*
X170439113Y-93799804D01*
X170427804Y-93793759D01*
X170427803Y-93793758D01*
X170427802Y-93793758D01*
X170237701Y-93736091D01*
X170089550Y-93721500D01*
X168990449Y-93721500D01*
X168842298Y-93736091D01*
X168652197Y-93793758D01*
X168476992Y-93887406D01*
X168323431Y-94013431D01*
X168197406Y-94166992D01*
X168103758Y-94342197D01*
X168046091Y-94532298D01*
X168031500Y-94680450D01*
X168031500Y-94920404D01*
X168021909Y-94968622D01*
X167994597Y-95009496D01*
X167812961Y-95191133D01*
X167691336Y-95312758D01*
X167675015Y-95325834D01*
X167626370Y-95377635D01*
X167623620Y-95380473D01*
X167603868Y-95400226D01*
X167603864Y-95400230D01*
X167603865Y-95400230D01*
X167601379Y-95403433D01*
X167593687Y-95412439D01*
X167563413Y-95444678D01*
X167553652Y-95462434D01*
X167542801Y-95478952D01*
X167530385Y-95494959D01*
X167512824Y-95535539D01*
X167507604Y-95546195D01*
X167486304Y-95584940D01*
X167481267Y-95604559D01*
X167474864Y-95623261D01*
X167466818Y-95641855D01*
X167459901Y-95685524D01*
X167457495Y-95697144D01*
X167446500Y-95739970D01*
X167446500Y-95760224D01*
X167444949Y-95779934D01*
X167441779Y-95799942D01*
X167445941Y-95843961D01*
X167446500Y-95855819D01*
X167446500Y-96917475D01*
X167438131Y-96962629D01*
X167414136Y-97001786D01*
X167340958Y-97083057D01*
X167245472Y-97248443D01*
X167186458Y-97430070D01*
X167166496Y-97620000D01*
X166005905Y-97620000D01*
X164350405Y-95964500D01*
X164323091Y-95923623D01*
X164313500Y-95875405D01*
X164313500Y-87241442D01*
X164315795Y-87220652D01*
X164313562Y-87149590D01*
X164313500Y-87145632D01*
X164313500Y-87117737D01*
X164313500Y-87117732D01*
X164312993Y-87113726D01*
X164312062Y-87101893D01*
X164310674Y-87057699D01*
X164305020Y-87038240D01*
X164301013Y-87018894D01*
X164298474Y-86998791D01*
X164282194Y-86957674D01*
X164278353Y-86946454D01*
X164266017Y-86903993D01*
X164255706Y-86886558D01*
X164247008Y-86868803D01*
X164239552Y-86849971D01*
X164213565Y-86814204D01*
X164207047Y-86804281D01*
X164184542Y-86766226D01*
X164170212Y-86751896D01*
X164157378Y-86736869D01*
X164145472Y-86720481D01*
X164145471Y-86720480D01*
X164111394Y-86692288D01*
X164102616Y-86684300D01*
X162418315Y-84999999D01*
X185361562Y-84999999D01*
X185381297Y-85351392D01*
X185440250Y-85698367D01*
X185537682Y-86036561D01*
X185672367Y-86361720D01*
X185842605Y-86669742D01*
X185842609Y-86669749D01*
X186046271Y-86956783D01*
X186280790Y-87219210D01*
X186543217Y-87453729D01*
X186830251Y-87657391D01*
X187138283Y-87827634D01*
X187463440Y-87962318D01*
X187801632Y-88059750D01*
X188148607Y-88118703D01*
X188500000Y-88138437D01*
X188851393Y-88118703D01*
X189198368Y-88059750D01*
X189536560Y-87962318D01*
X189861717Y-87827634D01*
X190169749Y-87657391D01*
X190456783Y-87453729D01*
X190719210Y-87219210D01*
X190953729Y-86956783D01*
X191157391Y-86669749D01*
X191327634Y-86361717D01*
X191462318Y-86036560D01*
X191559750Y-85698368D01*
X191618703Y-85351393D01*
X191638437Y-85000000D01*
X191618703Y-84648607D01*
X191559750Y-84301632D01*
X191462318Y-83963440D01*
X191327634Y-83638283D01*
X191157391Y-83330251D01*
X190953729Y-83043217D01*
X190719210Y-82780790D01*
X190456783Y-82546271D01*
X190169749Y-82342609D01*
X190147771Y-82330462D01*
X189861720Y-82172367D01*
X189536561Y-82037682D01*
X189367463Y-81988965D01*
X189198368Y-81940250D01*
X188851393Y-81881297D01*
X188832707Y-81880247D01*
X188500000Y-81861562D01*
X188148607Y-81881297D01*
X187801632Y-81940250D01*
X187463438Y-82037682D01*
X187138279Y-82172367D01*
X186830257Y-82342605D01*
X186543215Y-82546272D01*
X186280790Y-82780790D01*
X186046272Y-83043215D01*
X185842605Y-83330257D01*
X185672367Y-83638279D01*
X185537682Y-83963438D01*
X185440250Y-84301632D01*
X185381297Y-84648607D01*
X185361562Y-84999999D01*
X162418315Y-84999999D01*
X156534656Y-79116339D01*
X156521583Y-79100021D01*
X156495317Y-79075356D01*
X156469760Y-79051356D01*
X156466949Y-79048632D01*
X156447182Y-79028865D01*
X156443987Y-79026386D01*
X156434965Y-79018681D01*
X156402732Y-78988413D01*
X156384979Y-78978653D01*
X156368453Y-78967797D01*
X156352453Y-78955386D01*
X156311878Y-78937828D01*
X156301216Y-78932604D01*
X156262475Y-78911305D01*
X156248725Y-78907775D01*
X156242849Y-78906266D01*
X156224143Y-78899862D01*
X156205557Y-78891819D01*
X156205556Y-78891818D01*
X156161886Y-78884901D01*
X156150265Y-78882495D01*
X156107442Y-78871500D01*
X156107441Y-78871500D01*
X156087188Y-78871500D01*
X156067478Y-78869949D01*
X156047469Y-78866779D01*
X156003451Y-78870941D01*
X155991593Y-78871500D01*
X151843549Y-78871500D01*
X151816061Y-78868465D01*
X151809319Y-78866957D01*
X151784407Y-78863610D01*
X151747401Y-78845119D01*
X151714454Y-78821182D01*
X151714453Y-78821181D01*
X151539989Y-78743505D01*
X151353188Y-78703799D01*
X151162214Y-78703799D01*
X151037680Y-78730269D01*
X150975412Y-78743505D01*
X150800947Y-78821182D01*
X150646448Y-78933432D01*
X150518659Y-79075356D01*
X150423173Y-79240742D01*
X150364159Y-79422369D01*
X150344197Y-79612298D01*
X150364159Y-79802228D01*
X150423173Y-79983855D01*
X150518659Y-80149241D01*
X150646449Y-80291166D01*
X150671862Y-80309629D01*
X150706921Y-80348565D01*
X150723113Y-80398394D01*
X150717636Y-80450502D01*
X150699158Y-80507369D01*
X150679197Y-80697298D01*
X150699159Y-80887228D01*
X150758173Y-81068855D01*
X150853659Y-81234241D01*
X150853661Y-81234243D01*
X150981448Y-81376165D01*
X151135949Y-81488417D01*
X151310413Y-81566093D01*
X151497214Y-81605799D01*
X151688186Y-81605799D01*
X151688188Y-81605799D01*
X151874989Y-81566093D01*
X152049453Y-81488417D01*
X152049455Y-81488415D01*
X152061551Y-81483030D01*
X152062936Y-81486142D01*
X152101863Y-81471185D01*
X152166306Y-81481384D01*
X152317712Y-81548794D01*
X152504513Y-81588500D01*
X152695485Y-81588500D01*
X152695487Y-81588500D01*
X152882288Y-81548794D01*
X153056752Y-81471118D01*
X153211253Y-81358866D01*
X153214564Y-81355188D01*
X153256952Y-81324393D01*
X153308200Y-81313500D01*
X155615026Y-81313500D01*
X155663244Y-81323091D01*
X155704121Y-81350405D01*
X156505988Y-82152272D01*
X156538600Y-82208756D01*
X156538600Y-82273978D01*
X156505988Y-82330462D01*
X146615603Y-92220846D01*
X146615420Y-92220962D01*
X146530831Y-92305551D01*
X146527782Y-92314265D01*
X146515545Y-92339676D01*
X146510916Y-92347042D01*
X146509942Y-92355691D01*
X146503667Y-92383190D01*
X146500605Y-92391941D01*
X146501643Y-92401153D01*
X146501643Y-92429363D01*
X146500670Y-92437992D01*
X146503537Y-92446184D01*
X146509814Y-92473688D01*
X146510850Y-92482890D01*
X146515775Y-92490727D01*
X146528019Y-92516151D01*
X146530900Y-92524385D01*
X146537075Y-92530560D01*
X146537331Y-92530880D01*
X146547219Y-92540768D01*
X147240865Y-93234415D01*
X147240866Y-93234416D01*
X147305584Y-93299134D01*
X147309807Y-93300611D01*
X147314054Y-93302098D01*
X147339475Y-93314339D01*
X147347076Y-93319115D01*
X147355993Y-93320119D01*
X147383504Y-93326398D01*
X147391974Y-93329362D01*
X147400892Y-93328357D01*
X147429109Y-93328357D01*
X147438026Y-93329362D01*
X147446491Y-93326399D01*
X147473999Y-93320121D01*
X147482924Y-93319116D01*
X147490526Y-93314338D01*
X147515944Y-93302097D01*
X147524415Y-93299134D01*
X147589134Y-93234415D01*
X157499537Y-83324010D01*
X157556021Y-83291399D01*
X157621243Y-83291399D01*
X157677727Y-83324011D01*
X161949595Y-87595879D01*
X161976909Y-87636756D01*
X161986500Y-87684974D01*
X161986500Y-96326147D01*
X161984204Y-96346935D01*
X161986438Y-96417986D01*
X161986500Y-96421945D01*
X161986500Y-96449857D01*
X161987007Y-96453873D01*
X161987937Y-96465696D01*
X161989326Y-96509892D01*
X161994977Y-96529341D01*
X161998986Y-96548696D01*
X162001525Y-96568794D01*
X162017801Y-96609903D01*
X162021644Y-96621130D01*
X162033980Y-96663590D01*
X162044294Y-96681030D01*
X162052987Y-96698774D01*
X162060033Y-96716568D01*
X162060449Y-96717619D01*
X162086431Y-96753380D01*
X162092948Y-96763301D01*
X162115458Y-96801363D01*
X162129778Y-96815683D01*
X162142618Y-96830716D01*
X162154526Y-96847105D01*
X162188598Y-96875292D01*
X162197378Y-96883282D01*
X163671001Y-98356905D01*
X163701739Y-98407064D01*
X163706355Y-98465711D01*
X163683842Y-98520061D01*
X163639109Y-98558267D01*
X163581906Y-98572000D01*
X161291209Y-98572000D01*
X162710114Y-99990905D01*
X162742726Y-100047389D01*
X162742726Y-100112611D01*
X162710114Y-100169095D01*
X162529095Y-100350114D01*
X162472611Y-100382726D01*
X162407389Y-100382726D01*
X162350905Y-100350114D01*
X160572791Y-98572000D01*
X160530479Y-98572000D01*
X160382396Y-98586584D01*
X160192390Y-98644223D01*
X160017276Y-98737823D01*
X159863787Y-98863787D01*
X159737823Y-99017276D01*
X159644223Y-99192390D01*
X159586584Y-99382396D01*
X159572000Y-99530479D01*
X159572000Y-100629521D01*
X159586584Y-100777603D01*
X159644223Y-100967609D01*
X159737825Y-101142726D01*
X159842006Y-101269672D01*
X159867316Y-101320994D01*
X159867315Y-101378217D01*
X159842006Y-101429539D01*
X159737404Y-101556995D01*
X159643758Y-101732197D01*
X159586091Y-101922298D01*
X159571500Y-102070450D01*
X159571500Y-102280405D01*
X159561909Y-102328623D01*
X159534595Y-102369500D01*
X154881336Y-107022757D01*
X154865016Y-107035833D01*
X154816370Y-107087635D01*
X154813620Y-107090473D01*
X154793868Y-107110226D01*
X154793864Y-107110230D01*
X154793865Y-107110230D01*
X154791379Y-107113433D01*
X154783687Y-107122439D01*
X154753413Y-107154678D01*
X154743652Y-107172434D01*
X154732801Y-107188952D01*
X154720385Y-107204959D01*
X154702824Y-107245539D01*
X154697604Y-107256195D01*
X154676304Y-107294940D01*
X154671267Y-107314559D01*
X154664864Y-107333261D01*
X154656818Y-107351855D01*
X154649901Y-107395524D01*
X154647495Y-107407144D01*
X154636500Y-107449970D01*
X154636500Y-107470224D01*
X154634949Y-107489934D01*
X154631779Y-107509942D01*
X154635941Y-107553961D01*
X154636500Y-107565819D01*
X154636500Y-121377434D01*
X154622162Y-121435809D01*
X154582410Y-121480899D01*
X154526292Y-121502440D01*
X154466580Y-121495532D01*
X154416864Y-121461745D01*
X154335864Y-121371786D01*
X154311869Y-121332630D01*
X154303500Y-121287475D01*
X154303500Y-104489159D01*
X154305795Y-104468369D01*
X154305604Y-104462301D01*
X154303561Y-104397306D01*
X154303500Y-104393349D01*
X154303500Y-104365454D01*
X154303500Y-104365449D01*
X154302993Y-104361443D01*
X154302062Y-104349610D01*
X154300674Y-104305416D01*
X154295019Y-104285952D01*
X154291013Y-104266612D01*
X154288474Y-104246508D01*
X154272195Y-104205392D01*
X154268356Y-104194177D01*
X154264689Y-104181556D01*
X154256019Y-104151712D01*
X154245703Y-104134269D01*
X154237007Y-104116519D01*
X154229552Y-104097688D01*
X154203554Y-104061905D01*
X154197058Y-104052015D01*
X154174542Y-104013943D01*
X154160212Y-103999613D01*
X154147378Y-103984586D01*
X154135472Y-103968198D01*
X154134192Y-103967139D01*
X154101394Y-103940005D01*
X154092616Y-103932017D01*
X144911527Y-94750927D01*
X144879503Y-94696562D01*
X144877851Y-94633488D01*
X144906986Y-94577521D01*
X144984040Y-94491944D01*
X145079527Y-94326556D01*
X145138542Y-94144928D01*
X145158504Y-93955000D01*
X145138542Y-93765072D01*
X145079527Y-93583444D01*
X145079527Y-93583443D01*
X144984041Y-93418057D01*
X144979364Y-93412862D01*
X144935862Y-93364548D01*
X144911869Y-93325396D01*
X144903500Y-93280241D01*
X144903500Y-91322525D01*
X144911869Y-91277371D01*
X144935864Y-91238214D01*
X145009040Y-91156944D01*
X145104527Y-90991556D01*
X145163542Y-90809928D01*
X145183504Y-90620000D01*
X145163542Y-90430072D01*
X145104527Y-90248444D01*
X145104527Y-90248443D01*
X145009041Y-90083057D01*
X144881252Y-89941133D01*
X144726753Y-89828883D01*
X144726752Y-89828882D01*
X144552288Y-89751206D01*
X144365487Y-89711500D01*
X144174513Y-89711500D01*
X144049978Y-89737970D01*
X143987711Y-89751206D01*
X143813246Y-89828883D01*
X143658747Y-89941133D01*
X143530958Y-90083057D01*
X143435472Y-90248443D01*
X143376458Y-90430070D01*
X143359093Y-90595291D01*
X143347509Y-90636365D01*
X143322878Y-90671215D01*
X142397732Y-91596361D01*
X142381412Y-91609437D01*
X142332766Y-91661239D01*
X142330016Y-91664077D01*
X142310264Y-91683830D01*
X142310260Y-91683834D01*
X142310261Y-91683834D01*
X142307775Y-91687037D01*
X142300083Y-91696043D01*
X142269809Y-91728282D01*
X142260048Y-91746038D01*
X142249197Y-91762556D01*
X142236781Y-91778563D01*
X142219220Y-91819143D01*
X142214000Y-91829799D01*
X142192700Y-91868544D01*
X142187663Y-91888163D01*
X142181260Y-91906865D01*
X142173214Y-91925459D01*
X142166297Y-91969128D01*
X142163891Y-91980748D01*
X142152896Y-92023574D01*
X142152896Y-92043828D01*
X142151345Y-92063538D01*
X142148175Y-92083546D01*
X142152337Y-92127565D01*
X142152896Y-92139423D01*
X142152896Y-93674868D01*
X142140622Y-93729112D01*
X142106190Y-93772788D01*
X142056310Y-93797387D01*
X142000699Y-93798114D01*
X141875487Y-93771500D01*
X141684513Y-93771500D01*
X141562725Y-93797387D01*
X141497711Y-93811206D01*
X141407104Y-93851547D01*
X141326566Y-93887405D01*
X141323246Y-93888883D01*
X141168747Y-94001133D01*
X141040958Y-94143057D01*
X140945472Y-94308443D01*
X140886458Y-94490070D01*
X140866496Y-94680000D01*
X140885738Y-94863077D01*
X140878059Y-94921402D01*
X140844738Y-94969883D01*
X140793039Y-94997954D01*
X140734233Y-94999493D01*
X140555487Y-94961500D01*
X140364513Y-94961500D01*
X140239979Y-94987970D01*
X140177711Y-95001206D01*
X140003246Y-95078883D01*
X139848747Y-95191133D01*
X139720958Y-95333057D01*
X139625472Y-95498443D01*
X139566458Y-95680070D01*
X139546496Y-95869999D01*
X139566458Y-96059929D01*
X139625472Y-96241556D01*
X139720958Y-96406942D01*
X139759598Y-96449856D01*
X139848747Y-96548866D01*
X140003248Y-96661118D01*
X140177712Y-96738794D01*
X140364513Y-96778500D01*
X140420406Y-96778500D01*
X140468624Y-96788091D01*
X140509501Y-96815405D01*
X142695501Y-99001405D01*
X142726239Y-99051564D01*
X142730855Y-99110211D01*
X142708342Y-99164561D01*
X142663609Y-99202767D01*
X142606406Y-99216500D01*
X140158910Y-99216500D01*
X140109310Y-99206327D01*
X140067719Y-99177450D01*
X140040854Y-99134532D01*
X140037001Y-99124202D01*
X140029390Y-99103796D01*
X140027649Y-99101470D01*
X139941762Y-98986738D01*
X139824706Y-98899111D01*
X139756203Y-98873561D01*
X139687702Y-98848011D01*
X139627139Y-98841500D01*
X138929863Y-98841500D01*
X138869300Y-98848011D01*
X138732295Y-98899111D01*
X138604010Y-98995144D01*
X138555284Y-99017397D01*
X138501718Y-99017397D01*
X138452992Y-98995144D01*
X138324706Y-98899111D01*
X138256203Y-98873561D01*
X138187702Y-98848011D01*
X138127139Y-98841500D01*
X137429863Y-98841500D01*
X137369300Y-98848011D01*
X137232295Y-98899111D01*
X137104010Y-98995144D01*
X137055284Y-99017397D01*
X137001718Y-99017396D01*
X136952992Y-98995144D01*
X136824707Y-98899111D01*
X136756204Y-98873561D01*
X136687703Y-98848011D01*
X136627140Y-98841500D01*
X135929864Y-98841500D01*
X135869301Y-98848011D01*
X135732296Y-98899111D01*
X135603593Y-98995458D01*
X135554867Y-99017710D01*
X135501301Y-99017711D01*
X135452575Y-98995458D01*
X135324462Y-98899554D01*
X135187593Y-98848505D01*
X135127089Y-98842000D01*
X135032500Y-98842000D01*
X135032500Y-100858000D01*
X135127089Y-100858000D01*
X135187593Y-100851494D01*
X135324460Y-100800446D01*
X135452573Y-100704541D01*
X135501299Y-100682289D01*
X135554866Y-100682288D01*
X135603592Y-100704541D01*
X135732296Y-100800888D01*
X135732297Y-100800888D01*
X135732298Y-100800889D01*
X135869301Y-100851989D01*
X135929864Y-100858500D01*
X136338908Y-100858500D01*
X136387126Y-100868091D01*
X136428003Y-100895405D01*
X138750531Y-103217933D01*
X138779648Y-103263417D01*
X138787048Y-103316913D01*
X138771371Y-103368594D01*
X138735499Y-103408962D01*
X138718747Y-103421134D01*
X138718746Y-103421135D01*
X138590958Y-103563057D01*
X138495473Y-103728443D01*
X138440612Y-103897285D01*
X138409874Y-103947443D01*
X133439225Y-108918092D01*
X133425377Y-108930061D01*
X133405941Y-108944531D01*
X133373771Y-108982869D01*
X133366357Y-108990961D01*
X133362422Y-108994895D01*
X133342997Y-109019461D01*
X133340688Y-109022294D01*
X133291119Y-109081369D01*
X133280589Y-109097899D01*
X133247995Y-109167794D01*
X133246401Y-109171087D01*
X133211795Y-109239997D01*
X133205363Y-109258500D01*
X133189759Y-109334064D01*
X133188967Y-109337637D01*
X133171192Y-109412640D01*
X133169202Y-109432114D01*
X133171447Y-109509259D01*
X133171500Y-109512923D01*
X133171500Y-122513000D01*
X133154619Y-122576000D01*
X133095472Y-122678444D01*
X133036458Y-122860070D01*
X133016496Y-123050000D01*
X133036458Y-123239929D01*
X133095472Y-123421556D01*
X133190958Y-123586942D01*
X133318747Y-123728866D01*
X133473248Y-123841118D01*
X133647712Y-123918794D01*
X133834513Y-123958500D01*
X134025485Y-123958500D01*
X134025487Y-123958500D01*
X134212288Y-123918794D01*
X134386752Y-123841118D01*
X134541253Y-123728866D01*
X134669040Y-123586944D01*
X134764527Y-123421556D01*
X134823542Y-123239928D01*
X134843504Y-123050000D01*
X134823542Y-122860072D01*
X134764527Y-122678444D01*
X134705381Y-122576000D01*
X134688500Y-122513000D01*
X134688500Y-109866371D01*
X134698091Y-109818153D01*
X134725405Y-109777276D01*
X135914879Y-108587802D01*
X139486333Y-105016346D01*
X139515303Y-104994713D01*
X139549223Y-104982198D01*
X139612288Y-104968794D01*
X139786752Y-104891118D01*
X139941253Y-104778866D01*
X140069040Y-104636944D01*
X140143150Y-104508581D01*
X140184198Y-104465553D01*
X140240411Y-104446143D01*
X140252348Y-104445015D01*
X140262467Y-104444059D01*
X140274321Y-104443500D01*
X140624000Y-104443500D01*
X140687000Y-104460381D01*
X140733119Y-104506500D01*
X140750000Y-104569500D01*
X140750000Y-105988638D01*
X140756511Y-106049201D01*
X140782061Y-106117702D01*
X140807611Y-106186205D01*
X140895238Y-106303261D01*
X141012294Y-106390888D01*
X141012295Y-106390888D01*
X141012296Y-106390889D01*
X141149299Y-106441989D01*
X141209862Y-106448500D01*
X142557138Y-106448500D01*
X142617701Y-106441989D01*
X142754704Y-106390889D01*
X142871761Y-106303261D01*
X142959389Y-106186204D01*
X143010489Y-106049201D01*
X143017000Y-105988638D01*
X143017000Y-104569500D01*
X143033881Y-104506500D01*
X143080000Y-104460381D01*
X143143000Y-104443500D01*
X144761800Y-104443500D01*
X144813048Y-104454393D01*
X144855435Y-104485188D01*
X144858746Y-104488866D01*
X144946893Y-104552908D01*
X145013248Y-104601118D01*
X145187712Y-104678794D01*
X145374513Y-104718500D01*
X145565485Y-104718500D01*
X145565487Y-104718500D01*
X145752288Y-104678794D01*
X145926752Y-104601118D01*
X146081253Y-104488866D01*
X146209040Y-104346944D01*
X146267027Y-104246508D01*
X146311149Y-104170087D01*
X146315017Y-104172320D01*
X146340185Y-104135288D01*
X146404709Y-104107366D01*
X146474149Y-104118365D01*
X146526885Y-104164859D01*
X146546500Y-104232373D01*
X146546500Y-120627475D01*
X146538131Y-120672629D01*
X146514136Y-120711785D01*
X146506116Y-120720692D01*
X146440958Y-120793057D01*
X146345472Y-120958443D01*
X146286458Y-121140070D01*
X146266496Y-121330000D01*
X146286458Y-121519929D01*
X146345472Y-121701556D01*
X146440958Y-121866942D01*
X146440960Y-121866944D01*
X146568747Y-122008866D01*
X146723248Y-122121118D01*
X146786337Y-122149206D01*
X146839105Y-122193205D01*
X146860947Y-122258346D01*
X146845366Y-122325261D01*
X146672367Y-122638279D01*
X146537682Y-122963438D01*
X146440250Y-123301632D01*
X146381297Y-123648607D01*
X146361562Y-124000000D01*
X146378947Y-124309553D01*
X146381297Y-124351393D01*
X146440250Y-124698368D01*
X146464458Y-124782396D01*
X146537682Y-125036561D01*
X146672367Y-125361720D01*
X146842605Y-125669742D01*
X146842609Y-125669749D01*
X147046271Y-125956783D01*
X147280790Y-126219210D01*
X147543217Y-126453729D01*
X147830251Y-126657391D01*
X148138283Y-126827634D01*
X148463440Y-126962318D01*
X148801632Y-127059750D01*
X149148607Y-127118703D01*
X149500000Y-127138437D01*
X149851393Y-127118703D01*
X150198368Y-127059750D01*
X150536560Y-126962318D01*
X150861717Y-126827634D01*
X151169749Y-126657391D01*
X151456783Y-126453729D01*
X151719210Y-126219210D01*
X151953729Y-125956783D01*
X152157391Y-125669749D01*
X152327634Y-125361717D01*
X152462318Y-125036560D01*
X152559750Y-124698368D01*
X152618703Y-124351393D01*
X152638437Y-124000000D01*
X152625417Y-123768173D01*
X152637051Y-123707806D01*
X152675867Y-123660126D01*
X152732626Y-123636491D01*
X152793811Y-123642529D01*
X152844856Y-123676801D01*
X152918747Y-123758866D01*
X153073248Y-123871118D01*
X153247712Y-123948794D01*
X153434513Y-123988500D01*
X153625485Y-123988500D01*
X153625487Y-123988500D01*
X153812288Y-123948794D01*
X153986752Y-123871118D01*
X154141253Y-123758866D01*
X154269040Y-123616944D01*
X154364527Y-123451556D01*
X154390667Y-123371105D01*
X154430184Y-123312957D01*
X154494708Y-123285036D01*
X154564148Y-123296034D01*
X154616885Y-123342528D01*
X154636500Y-123410042D01*
X154636500Y-127165405D01*
X154626909Y-127213623D01*
X154599595Y-127254500D01*
X151934500Y-129919595D01*
X151893623Y-129946909D01*
X151845405Y-129956500D01*
X134844595Y-129956500D01*
X134796377Y-129946909D01*
X134755500Y-129919595D01*
X124784543Y-119948638D01*
X128090000Y-119948638D01*
X128096511Y-120009200D01*
X128147611Y-120146205D01*
X128235238Y-120263261D01*
X128352294Y-120350888D01*
X128352295Y-120350888D01*
X128352296Y-120350889D01*
X128489299Y-120401989D01*
X128549862Y-120408500D01*
X129897138Y-120408500D01*
X129957701Y-120401989D01*
X130094704Y-120350889D01*
X130211761Y-120263261D01*
X130299389Y-120146204D01*
X130350489Y-120009201D01*
X130357000Y-119948638D01*
X130357000Y-118051362D01*
X130350489Y-117990799D01*
X130299389Y-117853796D01*
X130299388Y-117853794D01*
X130211761Y-117736738D01*
X130094705Y-117649111D01*
X130022878Y-117622321D01*
X129957701Y-117598011D01*
X129897138Y-117591500D01*
X128549862Y-117591500D01*
X128489299Y-117598011D01*
X128352294Y-117649111D01*
X128235238Y-117736738D01*
X128147611Y-117853794D01*
X128096511Y-117990799D01*
X128090000Y-118051362D01*
X128090000Y-119948638D01*
X124784543Y-119948638D01*
X124288907Y-119453002D01*
X124261593Y-119412125D01*
X124252002Y-119363907D01*
X124252002Y-114772211D01*
X124270805Y-114705993D01*
X124321602Y-114659539D01*
X124389233Y-114646712D01*
X124453511Y-114671343D01*
X124572538Y-114760445D01*
X124709407Y-114811494D01*
X124769912Y-114818000D01*
X124864501Y-114818000D01*
X124864501Y-112802000D01*
X124769912Y-112802000D01*
X124709407Y-112808505D01*
X124572538Y-112859554D01*
X124444426Y-112955457D01*
X124395701Y-112977709D01*
X124342135Y-112977708D01*
X124293409Y-112955456D01*
X124164707Y-112859111D01*
X124087743Y-112830405D01*
X124027703Y-112808011D01*
X123967140Y-112801500D01*
X123269864Y-112801500D01*
X123209301Y-112808011D01*
X123072296Y-112859111D01*
X122944009Y-112955146D01*
X122895283Y-112977399D01*
X122841716Y-112977398D01*
X122792990Y-112955146D01*
X122781762Y-112946741D01*
X122781761Y-112946739D01*
X122664704Y-112859111D01*
X122664703Y-112859110D01*
X122561008Y-112820434D01*
X122527701Y-112808011D01*
X122467138Y-112801500D01*
X121769862Y-112801500D01*
X121709299Y-112808011D01*
X121572294Y-112859111D01*
X121444009Y-112955144D01*
X121395283Y-112977397D01*
X121341717Y-112977397D01*
X121292991Y-112955144D01*
X121164705Y-112859111D01*
X121087741Y-112830405D01*
X121027701Y-112808011D01*
X120967138Y-112801500D01*
X120269862Y-112801500D01*
X120209299Y-112808011D01*
X120072294Y-112859111D01*
X119955238Y-112946738D01*
X119867611Y-113063794D01*
X119816512Y-113200797D01*
X119816511Y-113200799D01*
X119810000Y-113261362D01*
X119810000Y-114358638D01*
X119816511Y-114419201D01*
X119842061Y-114487702D01*
X119867611Y-114556205D01*
X119959868Y-114679445D01*
X119978552Y-114715163D01*
X119985000Y-114754954D01*
X119985000Y-118754647D01*
X119982704Y-118775435D01*
X119984938Y-118846486D01*
X119985000Y-118850445D01*
X119985000Y-118878357D01*
X119985507Y-118882373D01*
X119986437Y-118894196D01*
X119987826Y-118938392D01*
X119993477Y-118957841D01*
X119997486Y-118977196D01*
X120000025Y-118997294D01*
X120016301Y-119038403D01*
X120020144Y-119049630D01*
X120032480Y-119092090D01*
X120042794Y-119109530D01*
X120051487Y-119127274D01*
X120055139Y-119136496D01*
X120058949Y-119146119D01*
X120084931Y-119181880D01*
X120091448Y-119191801D01*
X120113958Y-119229863D01*
X120128278Y-119244183D01*
X120141118Y-119259216D01*
X120153026Y-119275605D01*
X120187098Y-119303792D01*
X120195878Y-119311782D01*
X132859104Y-131975009D01*
X132889842Y-132025168D01*
X132894458Y-132083815D01*
X132871945Y-132138165D01*
X132827212Y-132176371D01*
X132770009Y-132190104D01*
X129010991Y-132190104D01*
X128962773Y-132180513D01*
X128921896Y-132153199D01*
X117392292Y-120623595D01*
X117361554Y-120573436D01*
X117356938Y-120514789D01*
X117379451Y-120460439D01*
X117424184Y-120422233D01*
X117481387Y-120408500D01*
X118687140Y-120408500D01*
X118747703Y-120401989D01*
X118884706Y-120350889D01*
X119001763Y-120263261D01*
X119089391Y-120146204D01*
X119140491Y-120009201D01*
X119147002Y-119948638D01*
X119147002Y-118051362D01*
X119140491Y-117990799D01*
X119089391Y-117853796D01*
X119089390Y-117853794D01*
X119001763Y-117736738D01*
X118884707Y-117649111D01*
X118812880Y-117622321D01*
X118747703Y-117598011D01*
X118687140Y-117591500D01*
X117339864Y-117591500D01*
X117279301Y-117598011D01*
X117142296Y-117649111D01*
X117025240Y-117736738D01*
X116937613Y-117853794D01*
X116886513Y-117990799D01*
X116880002Y-118051362D01*
X116880002Y-119807115D01*
X116866269Y-119864318D01*
X116828063Y-119909051D01*
X116773713Y-119931564D01*
X116715066Y-119926948D01*
X116664907Y-119896210D01*
X114530405Y-117761708D01*
X114503091Y-117720831D01*
X114493500Y-117672613D01*
X114493500Y-106897138D01*
X116481501Y-106897138D01*
X116488012Y-106957701D01*
X116497017Y-106981843D01*
X116539112Y-107094705D01*
X116626739Y-107211761D01*
X116743795Y-107299388D01*
X116743796Y-107299388D01*
X116743797Y-107299389D01*
X116880800Y-107350489D01*
X116941363Y-107357000D01*
X118838639Y-107357000D01*
X118899202Y-107350489D01*
X119036205Y-107299389D01*
X119153262Y-107211761D01*
X119240890Y-107094704D01*
X119291990Y-106957701D01*
X119298501Y-106897138D01*
X119298501Y-105549862D01*
X119291990Y-105489299D01*
X119240890Y-105352296D01*
X119240889Y-105352294D01*
X119153262Y-105235238D01*
X119036206Y-105147611D01*
X118967703Y-105122061D01*
X118899202Y-105096511D01*
X118838639Y-105090000D01*
X116941363Y-105090000D01*
X116880800Y-105096511D01*
X116743795Y-105147611D01*
X116626739Y-105235238D01*
X116539112Y-105352294D01*
X116509299Y-105432227D01*
X116488012Y-105489299D01*
X116481501Y-105549862D01*
X116481501Y-106897138D01*
X114493500Y-106897138D01*
X114493500Y-103967139D01*
X122071501Y-103967139D01*
X122078012Y-104027702D01*
X122088983Y-104057115D01*
X122129112Y-104164706D01*
X122216739Y-104281762D01*
X122333795Y-104369389D01*
X122333796Y-104369389D01*
X122333797Y-104369390D01*
X122470800Y-104420490D01*
X122531363Y-104427001D01*
X123532130Y-104427001D01*
X123580348Y-104436592D01*
X123621225Y-104463906D01*
X125823096Y-106665777D01*
X125850410Y-106706654D01*
X125860001Y-106754872D01*
X125860001Y-112754216D01*
X125841198Y-112820434D01*
X125790401Y-112866888D01*
X125722770Y-112879714D01*
X125682092Y-112864127D01*
X125681437Y-112865885D01*
X125527594Y-112808505D01*
X125467090Y-112802000D01*
X125372501Y-112802000D01*
X125372501Y-114818000D01*
X125467090Y-114818000D01*
X125527594Y-114811494D01*
X125664461Y-114760446D01*
X125792573Y-114664542D01*
X125841299Y-114642290D01*
X125894866Y-114642289D01*
X125943592Y-114664542D01*
X126072295Y-114760888D01*
X126072296Y-114760888D01*
X126072297Y-114760889D01*
X126209300Y-114811989D01*
X126269863Y-114818500D01*
X126967139Y-114818500D01*
X127027702Y-114811989D01*
X127164705Y-114760889D01*
X127281762Y-114673261D01*
X127369390Y-114556204D01*
X127420490Y-114419201D01*
X127427001Y-114358638D01*
X127427001Y-113261362D01*
X127420490Y-113200799D01*
X127384946Y-113105503D01*
X127377001Y-113061470D01*
X127377001Y-106452943D01*
X127378331Y-106434683D01*
X127379149Y-106429096D01*
X127381842Y-106410712D01*
X127377480Y-106360854D01*
X127377001Y-106349873D01*
X127377001Y-106344325D01*
X127374940Y-106326692D01*
X127373361Y-106313185D01*
X127372997Y-106309624D01*
X127366388Y-106234075D01*
X127366386Y-106234070D01*
X127366271Y-106232751D01*
X127362035Y-106213639D01*
X127361580Y-106212388D01*
X127335648Y-106141142D01*
X127334453Y-106137704D01*
X127310615Y-106065763D01*
X127310613Y-106065761D01*
X127310193Y-106064491D01*
X127301671Y-106046887D01*
X127300936Y-106045769D01*
X127259257Y-105982401D01*
X127257313Y-105979347D01*
X127216831Y-105913714D01*
X127204465Y-105898535D01*
X127148326Y-105845570D01*
X127145698Y-105843017D01*
X125894777Y-104592096D01*
X125864039Y-104541937D01*
X125859423Y-104483290D01*
X125881936Y-104428940D01*
X125926669Y-104390734D01*
X125983872Y-104377001D01*
X129414002Y-104377001D01*
X129477002Y-104393882D01*
X129523121Y-104440001D01*
X129540002Y-104503001D01*
X129540002Y-105988638D01*
X129546513Y-106049201D01*
X129572063Y-106117702D01*
X129597613Y-106186205D01*
X129685240Y-106303261D01*
X129802296Y-106390888D01*
X129802297Y-106390888D01*
X129802298Y-106390889D01*
X129939301Y-106441989D01*
X129999864Y-106448500D01*
X131347140Y-106448500D01*
X131407703Y-106441989D01*
X131544706Y-106390889D01*
X131661763Y-106303261D01*
X131749391Y-106186204D01*
X131800491Y-106049201D01*
X131807002Y-105988638D01*
X131807002Y-104091362D01*
X131800491Y-104030799D01*
X131749391Y-103893796D01*
X131749390Y-103893794D01*
X131664764Y-103780746D01*
X131641377Y-103726131D01*
X131645615Y-103666872D01*
X131676535Y-103616144D01*
X133769277Y-101523402D01*
X133783124Y-101511436D01*
X133802558Y-101496969D01*
X133834728Y-101458628D01*
X133842145Y-101450534D01*
X133846080Y-101446601D01*
X133865543Y-101421984D01*
X133867768Y-101419253D01*
X133916532Y-101361140D01*
X133916533Y-101361136D01*
X133917390Y-101360116D01*
X133927902Y-101343617D01*
X133938387Y-101321133D01*
X133960492Y-101273726D01*
X133962087Y-101270432D01*
X133975388Y-101243946D01*
X133996109Y-101202688D01*
X133996109Y-101202685D01*
X133996707Y-101201496D01*
X134003132Y-101183013D01*
X134013829Y-101131206D01*
X134018732Y-101107457D01*
X134019521Y-101103899D01*
X134037000Y-101030156D01*
X134037000Y-101030154D01*
X134037307Y-101028859D01*
X134039296Y-101009388D01*
X134039257Y-101008060D01*
X134039258Y-101008058D01*
X134037053Y-100932276D01*
X134037000Y-100928612D01*
X134037000Y-100905784D01*
X134055803Y-100839566D01*
X134106600Y-100793112D01*
X134174231Y-100780286D01*
X134214908Y-100795872D01*
X134215564Y-100794115D01*
X134369406Y-100851494D01*
X134429911Y-100858000D01*
X134524500Y-100858000D01*
X134524500Y-98842000D01*
X134429911Y-98842000D01*
X134369406Y-98848505D01*
X134215564Y-98905885D01*
X134214908Y-98904127D01*
X134174231Y-98919714D01*
X134106600Y-98906888D01*
X134055803Y-98860434D01*
X134037000Y-98794216D01*
X134037000Y-97962942D01*
X134038330Y-97944682D01*
X134039148Y-97939095D01*
X134041841Y-97920711D01*
X134037479Y-97870853D01*
X134037000Y-97859872D01*
X134037000Y-97854324D01*
X134037000Y-97854320D01*
X134033360Y-97823184D01*
X134032996Y-97819623D01*
X134026387Y-97744074D01*
X134026385Y-97744069D01*
X134026270Y-97742750D01*
X134022034Y-97723638D01*
X134005276Y-97677596D01*
X133995647Y-97651141D01*
X133994452Y-97647703D01*
X133970614Y-97575762D01*
X133970612Y-97575760D01*
X133970192Y-97574490D01*
X133961670Y-97556886D01*
X133960935Y-97555768D01*
X133919256Y-97492400D01*
X133917312Y-97489346D01*
X133876830Y-97423713D01*
X133864464Y-97408534D01*
X133808325Y-97355569D01*
X133805697Y-97353016D01*
X133235126Y-96782445D01*
X133204388Y-96732286D01*
X133149527Y-96563444D01*
X133054041Y-96398057D01*
X132926252Y-96256133D01*
X132771753Y-96143883D01*
X132771752Y-96143882D01*
X132597288Y-96066206D01*
X132410487Y-96026500D01*
X132219513Y-96026500D01*
X132111086Y-96049547D01*
X132032711Y-96066206D01*
X131980637Y-96089391D01*
X131865865Y-96140491D01*
X131858246Y-96143883D01*
X131703747Y-96256133D01*
X131575958Y-96398057D01*
X131480472Y-96563443D01*
X131421458Y-96745070D01*
X131411252Y-96842175D01*
X131401496Y-96935000D01*
X131408330Y-97000026D01*
X131421458Y-97124929D01*
X131480472Y-97306556D01*
X131575958Y-97471942D01*
X131651435Y-97555768D01*
X131703747Y-97613866D01*
X131858248Y-97726118D01*
X132032712Y-97803794D01*
X132095772Y-97817197D01*
X132129695Y-97829713D01*
X132158668Y-97851349D01*
X132483095Y-98175776D01*
X132510409Y-98216653D01*
X132520000Y-98264871D01*
X132520000Y-99101470D01*
X132512055Y-99145503D01*
X132476511Y-99240797D01*
X132476510Y-99240799D01*
X132476511Y-99240799D01*
X132470000Y-99301362D01*
X132470000Y-100398638D01*
X132476511Y-100459201D01*
X132489369Y-100493673D01*
X132505698Y-100537454D01*
X132510762Y-100608269D01*
X132476737Y-100670581D01*
X130324223Y-102823096D01*
X130283346Y-102850410D01*
X130235128Y-102860001D01*
X124135785Y-102860001D01*
X124069567Y-102841198D01*
X124023113Y-102790401D01*
X124010287Y-102722770D01*
X124025873Y-102682092D01*
X124024116Y-102681437D01*
X124081495Y-102527594D01*
X124088001Y-102467090D01*
X124088001Y-102372501D01*
X122072001Y-102372501D01*
X122072001Y-102467090D01*
X122078506Y-102527594D01*
X122129555Y-102664463D01*
X122225458Y-102792574D01*
X122247710Y-102841300D01*
X122247711Y-102894866D01*
X122225458Y-102943592D01*
X122129112Y-103072295D01*
X122112998Y-103115499D01*
X122078012Y-103209300D01*
X122071501Y-103269863D01*
X122071501Y-103967139D01*
X114493500Y-103967139D01*
X114493500Y-103204594D01*
X114503091Y-103156376D01*
X114530405Y-103115499D01*
X116356997Y-101288907D01*
X116397874Y-101261593D01*
X116446092Y-101252002D01*
X122117790Y-101252002D01*
X122184008Y-101270805D01*
X122230462Y-101321602D01*
X122243289Y-101389233D01*
X122218658Y-101453511D01*
X122129555Y-101572538D01*
X122078506Y-101709407D01*
X122072001Y-101769912D01*
X122072001Y-101864501D01*
X124088001Y-101864501D01*
X124088001Y-101769912D01*
X124081495Y-101709407D01*
X124030446Y-101572538D01*
X123934543Y-101444426D01*
X123912290Y-101395700D01*
X123912291Y-101342133D01*
X123934544Y-101293407D01*
X123943259Y-101281765D01*
X123943262Y-101281763D01*
X124030890Y-101164706D01*
X124081990Y-101027703D01*
X124088501Y-100967140D01*
X124088501Y-100269864D01*
X124081990Y-100209301D01*
X124030890Y-100072298D01*
X124021767Y-100060111D01*
X123934855Y-99944009D01*
X123912602Y-99895283D01*
X123912603Y-99841716D01*
X123934855Y-99792990D01*
X123943259Y-99781762D01*
X123943262Y-99781761D01*
X124030890Y-99664704D01*
X124081990Y-99527701D01*
X124088501Y-99467138D01*
X124088501Y-98769862D01*
X124081990Y-98709299D01*
X124030890Y-98572296D01*
X124030889Y-98572294D01*
X123934856Y-98444009D01*
X123912604Y-98395283D01*
X123912604Y-98341717D01*
X123934856Y-98292991D01*
X124005365Y-98198800D01*
X124030890Y-98164704D01*
X124081990Y-98027701D01*
X124088501Y-97967138D01*
X124088501Y-97269862D01*
X124081990Y-97209299D01*
X124030890Y-97072296D01*
X124020898Y-97058948D01*
X123943262Y-96955238D01*
X123826206Y-96867611D01*
X123757703Y-96842060D01*
X123689202Y-96816511D01*
X123628639Y-96810000D01*
X122531363Y-96810000D01*
X122470800Y-96816511D01*
X122333795Y-96867611D01*
X122210556Y-96959868D01*
X122174838Y-96978552D01*
X122135047Y-96985000D01*
X115385349Y-96985000D01*
X115364564Y-96982705D01*
X115293533Y-96984938D01*
X115289575Y-96985000D01*
X115261640Y-96985000D01*
X115257614Y-96985508D01*
X115245802Y-96986437D01*
X115201610Y-96987826D01*
X115182157Y-96993478D01*
X115162803Y-96997486D01*
X115142701Y-97000026D01*
X115101584Y-97016304D01*
X115090359Y-97020147D01*
X115047908Y-97032480D01*
X115030467Y-97042795D01*
X115012719Y-97051489D01*
X114993883Y-97058947D01*
X114958114Y-97084934D01*
X114948197Y-97091448D01*
X114910137Y-97113957D01*
X114895805Y-97128288D01*
X114880781Y-97141119D01*
X114864396Y-97153024D01*
X114836211Y-97187093D01*
X114828223Y-97195870D01*
X110401336Y-101622757D01*
X110385016Y-101635833D01*
X110336370Y-101687635D01*
X110333620Y-101690473D01*
X110313868Y-101710226D01*
X110313864Y-101710230D01*
X110313865Y-101710230D01*
X110311379Y-101713433D01*
X110303687Y-101722439D01*
X110273413Y-101754678D01*
X110263652Y-101772434D01*
X110252801Y-101788952D01*
X110240385Y-101804959D01*
X110222824Y-101845539D01*
X110217604Y-101856195D01*
X110196304Y-101894940D01*
X110191267Y-101914559D01*
X110184864Y-101933261D01*
X110176818Y-101951855D01*
X110169901Y-101995524D01*
X110167495Y-102007144D01*
X110156500Y-102049970D01*
X110156500Y-102070224D01*
X110154949Y-102089934D01*
X110151779Y-102109942D01*
X110155941Y-102153961D01*
X110156500Y-102165819D01*
X110156500Y-116106147D01*
X110154204Y-116126935D01*
X110156438Y-116197986D01*
X110156500Y-116201945D01*
X110156500Y-116229857D01*
X110157007Y-116233873D01*
X110157937Y-116245696D01*
X110159326Y-116289892D01*
X110164977Y-116309341D01*
X110168986Y-116328696D01*
X110171525Y-116348794D01*
X110171525Y-116348796D01*
X110171526Y-116348797D01*
X110185069Y-116383004D01*
X110187801Y-116389903D01*
X110191644Y-116401130D01*
X110203980Y-116443590D01*
X110214294Y-116461030D01*
X110222987Y-116478774D01*
X110230448Y-116497617D01*
X110230449Y-116497619D01*
X110256431Y-116533380D01*
X110262948Y-116543301D01*
X110285458Y-116581363D01*
X110299778Y-116595683D01*
X110312618Y-116610716D01*
X110324526Y-116627105D01*
X110358598Y-116655292D01*
X110367378Y-116663282D01*
X128122754Y-134418659D01*
X128135833Y-134434983D01*
X128137999Y-134437017D01*
X128138000Y-134437018D01*
X128163965Y-134461401D01*
X128187649Y-134483641D01*
X128190460Y-134486365D01*
X128210230Y-134506135D01*
X128213443Y-134508627D01*
X128222433Y-134516306D01*
X128254679Y-134546586D01*
X128272426Y-134556342D01*
X128288947Y-134567193D01*
X128297641Y-134573937D01*
X128335737Y-134622729D01*
X128345999Y-134683776D01*
X128325949Y-134742343D01*
X128280426Y-134784293D01*
X128220419Y-134799500D01*
X110326500Y-134799500D01*
X110263500Y-134782619D01*
X110217381Y-134736500D01*
X110200500Y-134673500D01*
X110200500Y-124454239D01*
X110200500Y-124454237D01*
X110196602Y-124446143D01*
X110187286Y-124419518D01*
X110185290Y-124410769D01*
X110179692Y-124403749D01*
X110164680Y-124379858D01*
X110160788Y-124371777D01*
X110160788Y-124371776D01*
X110153771Y-124366180D01*
X110133822Y-124346231D01*
X110128224Y-124339212D01*
X110120136Y-124335317D01*
X110096247Y-124320305D01*
X110089231Y-124314710D01*
X110080478Y-124312712D01*
X110053851Y-124303395D01*
X110045763Y-124299500D01*
X110022590Y-124299500D01*
X99826500Y-124299500D01*
X99763500Y-124282619D01*
X99717381Y-124236500D01*
X99700500Y-124173500D01*
X99700500Y-95687140D01*
X116481501Y-95687140D01*
X116488012Y-95747703D01*
X116500034Y-95779934D01*
X116539112Y-95884707D01*
X116626739Y-96001763D01*
X116743795Y-96089390D01*
X116743796Y-96089390D01*
X116743797Y-96089391D01*
X116880800Y-96140491D01*
X116941363Y-96147002D01*
X118838639Y-96147002D01*
X118899202Y-96140491D01*
X119036205Y-96089391D01*
X119153262Y-96001763D01*
X119240890Y-95884706D01*
X119291990Y-95747703D01*
X119298501Y-95687140D01*
X119298501Y-94339864D01*
X119291990Y-94279301D01*
X119240890Y-94142298D01*
X119240889Y-94142296D01*
X119153262Y-94025240D01*
X119036206Y-93937613D01*
X118967703Y-93912062D01*
X118899202Y-93886513D01*
X118838639Y-93880002D01*
X116941363Y-93880002D01*
X116880800Y-93886513D01*
X116743795Y-93937613D01*
X116626739Y-94025240D01*
X116539112Y-94142296D01*
X116488012Y-94279300D01*
X116488012Y-94279301D01*
X116481501Y-94339864D01*
X116481501Y-95687140D01*
X99700500Y-95687140D01*
X99700500Y-85000000D01*
X107361562Y-85000000D01*
X107381297Y-85351392D01*
X107440250Y-85698367D01*
X107537682Y-86036561D01*
X107672367Y-86361720D01*
X107842605Y-86669742D01*
X107842609Y-86669749D01*
X108046271Y-86956783D01*
X108280790Y-87219210D01*
X108543217Y-87453729D01*
X108830251Y-87657391D01*
X109138283Y-87827634D01*
X109463440Y-87962318D01*
X109801632Y-88059750D01*
X110148607Y-88118703D01*
X110500000Y-88138437D01*
X110851393Y-88118703D01*
X111198368Y-88059750D01*
X111536560Y-87962318D01*
X111861717Y-87827634D01*
X112169749Y-87657391D01*
X112456783Y-87453729D01*
X112719210Y-87219210D01*
X112953729Y-86956783D01*
X113157391Y-86669749D01*
X113327634Y-86361717D01*
X113462318Y-86036560D01*
X113559750Y-85698368D01*
X113618703Y-85351393D01*
X113638437Y-85000000D01*
X113618703Y-84648607D01*
X113559750Y-84301632D01*
X113462318Y-83963440D01*
X113327634Y-83638283D01*
X113157391Y-83330251D01*
X112953729Y-83043217D01*
X112719210Y-82780790D01*
X112456783Y-82546271D01*
X112169749Y-82342609D01*
X112147771Y-82330462D01*
X111861720Y-82172367D01*
X111536561Y-82037682D01*
X111367463Y-81988965D01*
X111198368Y-81940250D01*
X110851393Y-81881297D01*
X110832707Y-81880247D01*
X110500000Y-81861562D01*
X110148607Y-81881297D01*
X109801632Y-81940250D01*
X109463438Y-82037682D01*
X109138279Y-82172367D01*
X108830257Y-82342605D01*
X108543215Y-82546272D01*
X108280790Y-82780790D01*
X108046272Y-83043215D01*
X107842605Y-83330257D01*
X107672367Y-83638279D01*
X107537682Y-83963438D01*
X107440250Y-84301632D01*
X107381297Y-84648607D01*
X107361562Y-85000000D01*
X99700500Y-85000000D01*
X99700500Y-54852619D01*
X112499039Y-54852619D01*
X112518510Y-55050320D01*
X112576178Y-55240421D01*
X112669824Y-55415622D01*
X112682725Y-55431342D01*
X112764268Y-55530702D01*
X113732363Y-56498796D01*
X113847442Y-56593240D01*
X114022642Y-56686886D01*
X114117693Y-56715719D01*
X114212744Y-56744554D01*
X114410445Y-56764025D01*
X114608146Y-56744554D01*
X114798249Y-56686886D01*
X114950208Y-56605662D01*
X115001358Y-56591056D01*
X115053982Y-56598862D01*
X115098693Y-56627690D01*
X127187044Y-68716042D01*
X139249661Y-80778659D01*
X139262740Y-80794983D01*
X139314556Y-80843641D01*
X139317367Y-80846365D01*
X139337137Y-80866135D01*
X139340350Y-80868627D01*
X139349340Y-80876306D01*
X139381586Y-80906586D01*
X139399333Y-80916342D01*
X139415857Y-80927196D01*
X139431866Y-80939614D01*
X139472449Y-80957175D01*
X139483100Y-80962393D01*
X139521847Y-80983695D01*
X139541467Y-80988732D01*
X139560174Y-80995137D01*
X139566787Y-80997998D01*
X139578761Y-81003181D01*
X139589412Y-81004867D01*
X139622437Y-81010098D01*
X139634032Y-81012498D01*
X139676877Y-81023500D01*
X139697131Y-81023500D01*
X139716841Y-81025051D01*
X139736849Y-81028220D01*
X139736849Y-81028219D01*
X139736850Y-81028220D01*
X139780868Y-81024058D01*
X139792726Y-81023500D01*
X146451800Y-81023500D01*
X146503048Y-81034393D01*
X146545435Y-81065188D01*
X146548746Y-81068866D01*
X146636893Y-81132908D01*
X146703248Y-81181118D01*
X146877712Y-81258794D01*
X147064513Y-81298500D01*
X147255485Y-81298500D01*
X147255487Y-81298500D01*
X147442288Y-81258794D01*
X147616752Y-81181118D01*
X147771253Y-81068866D01*
X147899040Y-80926944D01*
X147994527Y-80761556D01*
X148053542Y-80579928D01*
X148063684Y-80483426D01*
X148087058Y-80422536D01*
X148137743Y-80381490D01*
X148263235Y-80325618D01*
X148417736Y-80213366D01*
X148545523Y-80071444D01*
X148641010Y-79906056D01*
X148700025Y-79724428D01*
X148719987Y-79534500D01*
X148700025Y-79344572D01*
X148695546Y-79330789D01*
X148691294Y-79269977D01*
X148716091Y-79214283D01*
X148764130Y-79176749D01*
X148866712Y-79131078D01*
X149021213Y-79018826D01*
X149149000Y-78876904D01*
X149244487Y-78711516D01*
X149303502Y-78529888D01*
X149323464Y-78339960D01*
X149303502Y-78150032D01*
X149244487Y-77968404D01*
X149244487Y-77968403D01*
X149149001Y-77803017D01*
X149021212Y-77661093D01*
X148866713Y-77548843D01*
X148866712Y-77548842D01*
X148692248Y-77471166D01*
X148505447Y-77431460D01*
X148314473Y-77431460D01*
X148189938Y-77457930D01*
X148127671Y-77471166D01*
X147953206Y-77548843D01*
X147798707Y-77661093D01*
X147670918Y-77803017D01*
X147575432Y-77968403D01*
X147536107Y-78089436D01*
X147509910Y-78134810D01*
X147467523Y-78165607D01*
X147416274Y-78176500D01*
X145675707Y-78176500D01*
X145627489Y-78166909D01*
X145586612Y-78139595D01*
X142987017Y-75540000D01*
X153046496Y-75540000D01*
X153066458Y-75729929D01*
X153125472Y-75911556D01*
X153220958Y-76076942D01*
X153220960Y-76076944D01*
X153348747Y-76218866D01*
X153503248Y-76331118D01*
X153677712Y-76408794D01*
X153864513Y-76448500D01*
X154031836Y-76448500D01*
X154081875Y-76458862D01*
X154091855Y-76463181D01*
X154135530Y-76470098D01*
X154147125Y-76472498D01*
X154189970Y-76483500D01*
X154210224Y-76483500D01*
X154229934Y-76485051D01*
X154249942Y-76488220D01*
X154249942Y-76488219D01*
X154249943Y-76488220D01*
X154293961Y-76484058D01*
X154305819Y-76483500D01*
X155921800Y-76483500D01*
X155973048Y-76494393D01*
X156015435Y-76525188D01*
X156018746Y-76528866D01*
X156106893Y-76592908D01*
X156173248Y-76641118D01*
X156347712Y-76718794D01*
X156534513Y-76758500D01*
X156725485Y-76758500D01*
X156725487Y-76758500D01*
X156912288Y-76718794D01*
X157086752Y-76641118D01*
X157241253Y-76528866D01*
X157369040Y-76386944D01*
X157464527Y-76221556D01*
X157523542Y-76039928D01*
X157543504Y-75850000D01*
X157523542Y-75660072D01*
X157464527Y-75478444D01*
X157464527Y-75478443D01*
X157369041Y-75313057D01*
X157241252Y-75171133D01*
X157086753Y-75058883D01*
X157086752Y-75058882D01*
X156912288Y-74981206D01*
X156725487Y-74941500D01*
X156534513Y-74941500D01*
X156409979Y-74967970D01*
X156347711Y-74981206D01*
X156173246Y-75058883D01*
X156018746Y-75171133D01*
X156015435Y-75174812D01*
X155973048Y-75205607D01*
X155921800Y-75216500D01*
X154895018Y-75216500D01*
X154832018Y-75199619D01*
X154785899Y-75153500D01*
X154699041Y-75003057D01*
X154571252Y-74861133D01*
X154416753Y-74748883D01*
X154416752Y-74748882D01*
X154242288Y-74671206D01*
X154055487Y-74631500D01*
X153864513Y-74631500D01*
X153739979Y-74657970D01*
X153677711Y-74671206D01*
X153503246Y-74748883D01*
X153348747Y-74861133D01*
X153220958Y-75003057D01*
X153125472Y-75168443D01*
X153066458Y-75350070D01*
X153046496Y-75540000D01*
X142987017Y-75540000D01*
X140237017Y-72790000D01*
X164226496Y-72790000D01*
X164246458Y-72979929D01*
X164305472Y-73161556D01*
X164400958Y-73326942D01*
X164400960Y-73326944D01*
X164528747Y-73468866D01*
X164683248Y-73581118D01*
X164857712Y-73658794D01*
X165044513Y-73698500D01*
X165235485Y-73698500D01*
X165235487Y-73698500D01*
X165422288Y-73658794D01*
X165596752Y-73581118D01*
X165751253Y-73468866D01*
X165879040Y-73326944D01*
X165974527Y-73161556D01*
X166033542Y-72979928D01*
X166053504Y-72790000D01*
X166033542Y-72600072D01*
X165974527Y-72418444D01*
X165974527Y-72418443D01*
X165879041Y-72253057D01*
X165751252Y-72111133D01*
X165596753Y-71998883D01*
X165596752Y-71998882D01*
X165422288Y-71921206D01*
X165235487Y-71881500D01*
X165044513Y-71881500D01*
X164919979Y-71907970D01*
X164857711Y-71921206D01*
X164683246Y-71998883D01*
X164528747Y-72111133D01*
X164400958Y-72253057D01*
X164305472Y-72418443D01*
X164246458Y-72600070D01*
X164226496Y-72790000D01*
X140237017Y-72790000D01*
X138937153Y-71490136D01*
X179611500Y-71490136D01*
X179618011Y-71550698D01*
X179669111Y-71687703D01*
X179756738Y-71804759D01*
X179873794Y-71892386D01*
X179873795Y-71892386D01*
X179873796Y-71892387D01*
X180010799Y-71943487D01*
X180071362Y-71949998D01*
X181968638Y-71949998D01*
X182029201Y-71943487D01*
X182166204Y-71892387D01*
X182283261Y-71804759D01*
X182370889Y-71687702D01*
X182421989Y-71550699D01*
X182428500Y-71490136D01*
X182428500Y-70142860D01*
X182421989Y-70082297D01*
X182370889Y-69945294D01*
X182370888Y-69945292D01*
X182283261Y-69828236D01*
X182166205Y-69740609D01*
X182097702Y-69715058D01*
X182029201Y-69689509D01*
X181968638Y-69682998D01*
X180071362Y-69682998D01*
X180010799Y-69689509D01*
X179873794Y-69740609D01*
X179756738Y-69828236D01*
X179669111Y-69945292D01*
X179618011Y-70082297D01*
X179611500Y-70142860D01*
X179611500Y-71490136D01*
X138937153Y-71490136D01*
X119586702Y-52139684D01*
X119557873Y-52094972D01*
X119550067Y-52042348D01*
X119564675Y-51991193D01*
X119645896Y-51839239D01*
X119703564Y-51649136D01*
X119719725Y-51485046D01*
X119738118Y-51430860D01*
X119778581Y-51390397D01*
X119832768Y-51372003D01*
X119996202Y-51355906D01*
X120186208Y-51298267D01*
X120361321Y-51204668D01*
X120476355Y-51110263D01*
X120697979Y-50888639D01*
X169143000Y-50888639D01*
X169149511Y-50949201D01*
X169200611Y-51086206D01*
X169288238Y-51203262D01*
X169405294Y-51290889D01*
X169405295Y-51290889D01*
X169405296Y-51290890D01*
X169542299Y-51341990D01*
X169602862Y-51348501D01*
X170950138Y-51348501D01*
X171010701Y-51341990D01*
X171147704Y-51290890D01*
X171264761Y-51203262D01*
X171352389Y-51086205D01*
X171403489Y-50949202D01*
X171410000Y-50888639D01*
X180352998Y-50888639D01*
X180359509Y-50949201D01*
X180410609Y-51086206D01*
X180498236Y-51203262D01*
X180615292Y-51290889D01*
X180615293Y-51290889D01*
X180615294Y-51290890D01*
X180752297Y-51341990D01*
X180812860Y-51348501D01*
X182160136Y-51348501D01*
X182220699Y-51341990D01*
X182357702Y-51290890D01*
X182474759Y-51203262D01*
X182562387Y-51086205D01*
X182613487Y-50949202D01*
X182619998Y-50888639D01*
X182619998Y-48991363D01*
X182613487Y-48930800D01*
X182562387Y-48793797D01*
X182557081Y-48786709D01*
X182474759Y-48676739D01*
X182357703Y-48589112D01*
X182289200Y-48563562D01*
X182220699Y-48538012D01*
X182160136Y-48531501D01*
X180812860Y-48531501D01*
X180752297Y-48538012D01*
X180615292Y-48589112D01*
X180498236Y-48676739D01*
X180410609Y-48793795D01*
X180359509Y-48930800D01*
X180352998Y-48991363D01*
X180352998Y-50888639D01*
X171410000Y-50888639D01*
X171410000Y-48991363D01*
X171403489Y-48930800D01*
X171352389Y-48793797D01*
X171347083Y-48786709D01*
X171264761Y-48676739D01*
X171147705Y-48589112D01*
X171079202Y-48563562D01*
X171010701Y-48538012D01*
X170950138Y-48531501D01*
X169602862Y-48531501D01*
X169542299Y-48538012D01*
X169405294Y-48589112D01*
X169288238Y-48676739D01*
X169200611Y-48793795D01*
X169149511Y-48930800D01*
X169143000Y-48991363D01*
X169143000Y-50888639D01*
X120697979Y-50888639D01*
X121253478Y-50333140D01*
X121347883Y-50218106D01*
X121441482Y-50042993D01*
X121499121Y-49852987D01*
X121502968Y-49813925D01*
X119575140Y-49813925D01*
X119512140Y-49797044D01*
X119466021Y-49750925D01*
X119449140Y-49687925D01*
X119449140Y-47810010D01*
X119957140Y-47810010D01*
X119957140Y-49305925D01*
X121453054Y-49305925D01*
X121441481Y-49267771D01*
X121347883Y-49092660D01*
X121253479Y-48977629D01*
X120285435Y-48009585D01*
X120170404Y-47915181D01*
X119995293Y-47821583D01*
X119957140Y-47810010D01*
X119449140Y-47810010D01*
X119449140Y-47760097D01*
X119449139Y-47760096D01*
X119410077Y-47763943D01*
X119220071Y-47821582D01*
X119044958Y-47915181D01*
X118929924Y-48009586D01*
X118152801Y-48786709D01*
X118058396Y-48901743D01*
X117964797Y-49076856D01*
X117907158Y-49266862D01*
X117891061Y-49430297D01*
X117872667Y-49484483D01*
X117832204Y-49524946D01*
X117778018Y-49543339D01*
X117613928Y-49559500D01*
X117423827Y-49617168D01*
X117248626Y-49710814D01*
X117133546Y-49805258D01*
X116356372Y-50582433D01*
X116261927Y-50697513D01*
X116168281Y-50872714D01*
X116110613Y-51062815D01*
X116094502Y-51226398D01*
X116076108Y-51280585D01*
X116035646Y-51321047D01*
X115981459Y-51339441D01*
X115817876Y-51355552D01*
X115627775Y-51413220D01*
X115452574Y-51506866D01*
X115337494Y-51601310D01*
X114560320Y-52378485D01*
X114465875Y-52493565D01*
X114372229Y-52668766D01*
X114314561Y-52858867D01*
X114298450Y-53022449D01*
X114280056Y-53076636D01*
X114239594Y-53117098D01*
X114185407Y-53135492D01*
X114021825Y-53151603D01*
X113831724Y-53209271D01*
X113656523Y-53302917D01*
X113541443Y-53397361D01*
X112764269Y-54174536D01*
X112669824Y-54289616D01*
X112576178Y-54464817D01*
X112518510Y-54654918D01*
X112499039Y-54852619D01*
X99700500Y-54852619D01*
X99700500Y-46000000D01*
X146361562Y-46000000D01*
X146381297Y-46351392D01*
X146440250Y-46698367D01*
X146537682Y-47036561D01*
X146672367Y-47361720D01*
X146842605Y-47669742D01*
X146842609Y-47669749D01*
X147046271Y-47956783D01*
X147280790Y-48219210D01*
X147543217Y-48453729D01*
X147830251Y-48657391D01*
X148138283Y-48827634D01*
X148463440Y-48962318D01*
X148801632Y-49059750D01*
X149148607Y-49118703D01*
X149500000Y-49138437D01*
X149851393Y-49118703D01*
X150198368Y-49059750D01*
X150536560Y-48962318D01*
X150861717Y-48827634D01*
X151169749Y-48657391D01*
X151456783Y-48453729D01*
X151719210Y-48219210D01*
X151953729Y-47956783D01*
X152157391Y-47669749D01*
X152327634Y-47361717D01*
X152462318Y-47036560D01*
X152559750Y-46698368D01*
X152618703Y-46351393D01*
X152638437Y-46000000D01*
X152618703Y-45648607D01*
X152559750Y-45301632D01*
X152462318Y-44963440D01*
X152327634Y-44638283D01*
X152157391Y-44330251D01*
X151953729Y-44043217D01*
X151719210Y-43780790D01*
X151456783Y-43546271D01*
X151169749Y-43342609D01*
X151169742Y-43342605D01*
X150861720Y-43172367D01*
X150536561Y-43037682D01*
X150367464Y-42988966D01*
X150198368Y-42940250D01*
X149851393Y-42881297D01*
X149832707Y-42880247D01*
X149500000Y-42861562D01*
X149148607Y-42881297D01*
X148801632Y-42940250D01*
X148463438Y-43037682D01*
X148138279Y-43172367D01*
X147830257Y-43342605D01*
X147543215Y-43546272D01*
X147280790Y-43780790D01*
X147046272Y-44043215D01*
X146842605Y-44330257D01*
X146672367Y-44638279D01*
X146537682Y-44963438D01*
X146440250Y-45301632D01*
X146381297Y-45648607D01*
X146361562Y-46000000D01*
X99700500Y-46000000D01*
X99700500Y-45826500D01*
X99717381Y-45763500D01*
X99763500Y-45717381D01*
X99826500Y-45700500D01*
X110045763Y-45700500D01*
X110053847Y-45696606D01*
X110080482Y-45687286D01*
X110089231Y-45685290D01*
X110091175Y-45683738D01*
X110096247Y-45679695D01*
X110120139Y-45664681D01*
X110128224Y-45660788D01*
X110133821Y-45653768D01*
X110153768Y-45633821D01*
X110160788Y-45628224D01*
X110164683Y-45620136D01*
X110179695Y-45596247D01*
X110185289Y-45589232D01*
X110185288Y-45589232D01*
X110185290Y-45589231D01*
X110187287Y-45580481D01*
X110196607Y-45553846D01*
X110200500Y-45545763D01*
X110200500Y-35326500D01*
X110217381Y-35263500D01*
X110263500Y-35217381D01*
X110326500Y-35200500D01*
X188673500Y-35200500D01*
X188736500Y-35217381D01*
G37*
%TD.AperFunction*%
%TA.AperFunction,Conductor*%
G36*
X141636439Y-95578281D02*
G01*
X141684512Y-95588500D01*
X141684513Y-95588500D01*
X141740406Y-95588500D01*
X141788624Y-95598091D01*
X141829501Y-95625405D01*
X151189595Y-104985499D01*
X151216909Y-105026376D01*
X151226500Y-105074594D01*
X151226500Y-108285634D01*
X151214226Y-108339878D01*
X151179794Y-108383554D01*
X151129914Y-108408153D01*
X151074303Y-108408880D01*
X150945487Y-108381500D01*
X150754513Y-108381500D01*
X150678294Y-108397701D01*
X150567711Y-108421206D01*
X150393246Y-108498883D01*
X150238747Y-108611133D01*
X150110958Y-108753057D01*
X150015472Y-108918443D01*
X149956458Y-109100070D01*
X149936496Y-109290000D01*
X149956458Y-109479929D01*
X150015472Y-109661556D01*
X150110958Y-109826942D01*
X150110960Y-109826944D01*
X150238747Y-109968866D01*
X150393248Y-110081118D01*
X150567712Y-110158794D01*
X150754513Y-110198500D01*
X150945485Y-110198500D01*
X150945487Y-110198500D01*
X151074303Y-110171119D01*
X151129914Y-110171847D01*
X151179794Y-110196446D01*
X151214226Y-110240122D01*
X151226500Y-110294366D01*
X151226500Y-120547475D01*
X151218131Y-120592629D01*
X151194136Y-120631786D01*
X151120958Y-120713057D01*
X151025472Y-120878444D01*
X150963996Y-121067649D01*
X150925993Y-121124524D01*
X150863874Y-121153162D01*
X150795945Y-121145122D01*
X150536562Y-121037682D01*
X150261520Y-120958444D01*
X150198368Y-120940250D01*
X149851393Y-120881297D01*
X149832707Y-120880247D01*
X149500000Y-120861562D01*
X149148607Y-120881297D01*
X148801632Y-120940250D01*
X148463437Y-121037682D01*
X148216399Y-121140009D01*
X148148470Y-121148049D01*
X148086350Y-121119411D01*
X148048348Y-121062535D01*
X148014527Y-120958444D01*
X147919041Y-120793057D01*
X147888019Y-120758604D01*
X147845863Y-120711785D01*
X147821869Y-120672629D01*
X147813500Y-120627475D01*
X147813500Y-102673853D01*
X147815795Y-102653064D01*
X147815068Y-102629943D01*
X147813562Y-102582014D01*
X147813500Y-102578055D01*
X147813500Y-102550149D01*
X147813500Y-102550144D01*
X147812992Y-102546131D01*
X147812061Y-102534297D01*
X147810673Y-102490110D01*
X147805020Y-102470656D01*
X147801012Y-102451298D01*
X147800111Y-102444165D01*
X147798474Y-102431203D01*
X147782195Y-102390090D01*
X147778353Y-102378869D01*
X147766018Y-102336407D01*
X147766017Y-102336406D01*
X147766017Y-102336404D01*
X147755707Y-102318971D01*
X147747008Y-102301215D01*
X147746969Y-102301117D01*
X147739552Y-102282383D01*
X147713565Y-102246616D01*
X147707047Y-102236693D01*
X147690716Y-102209078D01*
X147684542Y-102198638D01*
X147670212Y-102184308D01*
X147657378Y-102169281D01*
X147645472Y-102152893D01*
X147645471Y-102152892D01*
X147611394Y-102124700D01*
X147602616Y-102116712D01*
X141407121Y-95921216D01*
X141382490Y-95886365D01*
X141370907Y-95845296D01*
X141354261Y-95686917D01*
X141361940Y-95628597D01*
X141395261Y-95580115D01*
X141446960Y-95552045D01*
X141505766Y-95550506D01*
X141636439Y-95578281D01*
G37*
%TD.AperFunction*%
%TD*%
M02*
