%TF.GenerationSoftware,KiCad,Pcbnew,7.0.1*%
%TF.CreationDate,2024-01-21T14:51:42-07:00*%
%TF.ProjectId,solar-panel-side-Z,736f6c61-722d-4706-916e-656c2d736964,3.1*%
%TF.SameCoordinates,Original*%
%TF.FileFunction,Copper,L2,Inr*%
%TF.FilePolarity,Positive*%
%FSLAX46Y46*%
G04 Gerber Fmt 4.6, Leading zero omitted, Abs format (unit mm)*
G04 Created by KiCad (PCBNEW 7.0.1) date 2024-01-21 14:51:42*
%MOMM*%
%LPD*%
G01*
G04 APERTURE LIST*
%TA.AperFunction,ComponentPad*%
%ADD10C,5.250000*%
%TD*%
%TA.AperFunction,ViaPad*%
%ADD11C,0.800000*%
%TD*%
%TA.AperFunction,Conductor*%
%ADD12C,0.250000*%
%TD*%
G04 APERTURE END LIST*
D10*
%TO.N,unconnected-(J4-Pin_1-Pad1)*%
%TO.C,J4*%
X110500000Y-85000000D03*
%TD*%
%TO.N,unconnected-(J5-Pin_1-Pad1)*%
%TO.C,J5*%
X149500000Y-124000000D03*
%TD*%
%TO.N,unconnected-(J6-Pin_1-Pad1)*%
%TO.C,J6*%
X149500000Y-46000000D03*
%TD*%
%TO.N,unconnected-(J7-Pin_1-Pad1)*%
%TO.C,J7*%
X188500000Y-85000000D03*
%TD*%
D11*
%TO.N,+3V3*%
X165140000Y-72790000D03*
%TO.N,Camera_SDA*%
X147806483Y-79534500D03*
X151257701Y-79612299D03*
%TO.N,Camera_SCL*%
X147160000Y-80390000D03*
X151592701Y-80697299D03*
%TO.N,Camera_Pwr*%
X148409960Y-78339960D03*
X152600000Y-80680000D03*
%TO.N,SDA*%
X156630000Y-75850000D03*
X153960000Y-75540000D03*
%TO.N,VSOLAR*%
X188210000Y-122990000D03*
X188000000Y-62790000D03*
X198050000Y-65120000D03*
%TO.N,SDA_Break*%
X169800000Y-97570000D03*
X144850000Y-101950000D03*
%TO.N,SCL_Break*%
X168080000Y-97620000D03*
X145372687Y-102815246D03*
%TO.N,3v3_break*%
X169240000Y-98420000D03*
X145470000Y-103810000D03*
%TO.N,F2_SDA*%
X196900000Y-65780000D03*
X190820000Y-66290000D03*
%TO.N,F2_SCL*%
X195700000Y-64650000D03*
X190000000Y-65100000D03*
%TO.N,F2_ENB*%
X194460000Y-63910000D03*
X189570000Y-64130000D03*
%TO.N,SDA*%
X153530000Y-123080000D03*
X157770000Y-123090000D03*
%TO.N,SCL*%
X157434500Y-121970000D03*
X153670000Y-121990000D03*
%TO.N,+3V3*%
X165980000Y-102000000D03*
%TO.N,GND*%
X171630000Y-123540000D03*
X161490000Y-69180000D03*
X164540000Y-46420000D03*
X156260000Y-77181974D03*
X145680000Y-105410000D03*
X148900000Y-105410000D03*
X137946283Y-91716283D03*
X111040000Y-62950000D03*
X165948061Y-69851939D03*
X119890000Y-126760000D03*
%TO.N,VSOLAR*%
X132315000Y-96935000D03*
%TO.N,SDA*%
X144270000Y-90620000D03*
X144245000Y-93955000D03*
%TO.N,SCL*%
X143511396Y-92641396D03*
%TO.N,Net-(SC5--)*%
X139330000Y-104100000D03*
X133930000Y-123050000D03*
%TO.N,Net-(U2-OUT+)*%
X147180000Y-121330000D03*
X141780000Y-94680000D03*
X150850000Y-109290000D03*
X140460000Y-95870000D03*
X151860000Y-121250000D03*
%TD*%
D12*
%TO.N,Net-(U2-OUT+)*%
X183785000Y-78225000D02*
X182865000Y-74615000D01*
X142125000Y-114665000D02*
X145575000Y-115315000D01*
X137445000Y-106875000D02*
X140295000Y-108225000D01*
X172435000Y-103335000D02*
X174405000Y-100555000D01*
X176855000Y-84895000D02*
X176635000Y-81575000D01*
X142435000Y-110605000D02*
X145645000Y-111285000D01*
X117325000Y-87065000D02*
X117765000Y-90615000D01*
X171225000Y-58705000D02*
X168265000Y-56535000D01*
X128905000Y-61105000D02*
X126365000Y-63575000D01*
X149425000Y-57365000D02*
X146105000Y-57595000D01*
X162075000Y-54195000D02*
X158645000Y-53015000D01*
X119845000Y-96505000D02*
X121305000Y-99725000D01*
X122715000Y-88655000D02*
X123375000Y-91895000D01*
X120775000Y-94375000D02*
X122055000Y-97625000D01*
X138975000Y-61245000D02*
X136115000Y-62745000D01*
X173725000Y-59305000D02*
X170805000Y-56855000D01*
X117425000Y-92845000D02*
X118495000Y-96335000D01*
X147405000Y-120305000D02*
X151155000Y-120325000D01*
X173035000Y-62565000D02*
X170415000Y-60115000D01*
X123875000Y-105775000D02*
X126275000Y-108425000D01*
X123385000Y-90205000D02*
X124215000Y-93325000D01*
X140055000Y-115335000D02*
X143515000Y-116195000D01*
X152175000Y-120665000D02*
X155945000Y-120175000D01*
X150095000Y-54965000D02*
X146625000Y-55115000D01*
X138635000Y-111425000D02*
X141815000Y-112515000D01*
X131535000Y-58565000D02*
X128725000Y-60735000D01*
X176735000Y-69515000D02*
X174825000Y-66565000D01*
X176255000Y-61335000D02*
X173595000Y-58645000D01*
X162615000Y-112605000D02*
X165675000Y-110935000D01*
X148975000Y-50175000D02*
X145275000Y-50435000D01*
X132005000Y-112955000D02*
X135195000Y-114705000D01*
X121985000Y-103925000D02*
X124235000Y-106835000D01*
X125645000Y-92505000D02*
X126815000Y-95495000D01*
X129715000Y-114325000D02*
X132965000Y-116275000D01*
X174665000Y-109275000D02*
X177115000Y-106445000D01*
X155365000Y-53485000D02*
X151875000Y-53045000D01*
X178555000Y-80865000D02*
X177865000Y-77485000D01*
X172595000Y-63845000D02*
X170055000Y-61385000D01*
X184505000Y-90015000D02*
X184835000Y-86265000D01*
X178775000Y-100145000D02*
X180265000Y-96835000D01*
X181235000Y-83875000D02*
X180905000Y-80325000D01*
X143325000Y-109195000D02*
X146405000Y-109775000D01*
X131125000Y-104215000D02*
X133655000Y-106345000D01*
X158895000Y-54755000D02*
X155445000Y-53905000D01*
X159415000Y-117275000D02*
X162845000Y-116015000D01*
X166755000Y-64885000D02*
X164175000Y-62945000D01*
X132785000Y-54965000D02*
X129665000Y-56945000D01*
X139825000Y-110605000D02*
X143005000Y-111585000D01*
X145055000Y-114435000D02*
X148495000Y-114745000D01*
X158765000Y-53465000D02*
X155215000Y-52645000D01*
X176955000Y-103245000D02*
X178775000Y-100145000D01*
X127215000Y-98785000D02*
X129055000Y-101375000D01*
X156055000Y-60195000D02*
X152955000Y-59585000D01*
X129565000Y-111775000D02*
X132625000Y-113795000D01*
X177145000Y-79705000D02*
X176325000Y-76485000D01*
X170045000Y-112795000D02*
X172905000Y-110435000D01*
X162765000Y-108475000D02*
X165525000Y-106685000D01*
X120215000Y-93945000D02*
X121445000Y-97245000D01*
X173465000Y-93235000D02*
X174315000Y-90125000D01*
X137925000Y-56905000D02*
X134775000Y-58435000D01*
X133535000Y-112475000D02*
X136735000Y-114095000D01*
X142725000Y-113165000D02*
X146085000Y-113765000D01*
X182055000Y-85475000D02*
X181895000Y-81835000D01*
X140665000Y-56755000D02*
X137485000Y-57965000D01*
X128375000Y-56405000D02*
X125495000Y-58795000D01*
X145605000Y-117735000D02*
X149215000Y-117965000D01*
X130155000Y-63745000D02*
X127785000Y-66195000D01*
X143215000Y-55655000D02*
X139885000Y-56585000D01*
X140225000Y-55215000D02*
X136945000Y-56455000D01*
X181915000Y-92885000D02*
X182575000Y-89345000D01*
X116115000Y-86855000D02*
X116515000Y-90435000D01*
X136695000Y-61035000D02*
X133905000Y-62765000D01*
X120055000Y-94745000D02*
X121355000Y-98015000D01*
X173135000Y-60955000D02*
X170365000Y-58535000D01*
X166545000Y-113215000D02*
X169525000Y-111185000D01*
X155875000Y-58495000D02*
X152655000Y-57935000D01*
X119385000Y-75845000D02*
X118555000Y-79325000D01*
X115655000Y-85575000D02*
X115935000Y-89245000D01*
X127115000Y-101475000D02*
X129245000Y-104025000D01*
X126335000Y-95445000D02*
X127855000Y-98285000D01*
X175385000Y-71195000D02*
X173565000Y-68245000D01*
X174775000Y-106165000D02*
X176955000Y-103245000D01*
X140295000Y-118735000D02*
X143945000Y-119525000D01*
X124465000Y-67205000D02*
X122605000Y-70195000D01*
X163255000Y-111845000D02*
X166255000Y-110085000D01*
X115905000Y-78245000D02*
X115385000Y-81915000D01*
X161665000Y-57055000D02*
X158385000Y-55855000D01*
X146555000Y-59555000D02*
X143425000Y-60125000D01*
X122275000Y-88365000D02*
X122875000Y-91565000D01*
X164905000Y-62465000D02*
X162055000Y-60775000D01*
X151995000Y-111045000D02*
X155205000Y-110535000D01*
X120745000Y-78575000D02*
X120205000Y-81975000D01*
X125465000Y-96405000D02*
X127035000Y-99245000D01*
X148135000Y-57005000D02*
X144805000Y-57385000D01*
X153115000Y-110505000D02*
X156255000Y-109865000D01*
X181695000Y-73635000D02*
X180275000Y-70225000D01*
X174075000Y-68275000D02*
X171965000Y-65545000D01*
X177625000Y-102955000D02*
X179415000Y-99775000D01*
X152175000Y-120665000D02*
X151860000Y-120980000D01*
X150300000Y-109840000D02*
X150850000Y-109290000D01*
X143545000Y-56405000D02*
X140265000Y-57305000D01*
X175495000Y-107785000D02*
X177795000Y-104855000D01*
X123305000Y-86535000D02*
X123705000Y-89735000D01*
X177145000Y-107055000D02*
X179335000Y-103985000D01*
X131275000Y-65985000D02*
X129095000Y-68375000D01*
X147095000Y-116675000D02*
X150605000Y-116745000D01*
X120855000Y-84825000D02*
X121045000Y-88235000D01*
X116105000Y-83165000D02*
X116115000Y-86855000D01*
X121775000Y-95955000D02*
X123245000Y-99105000D01*
X120055000Y-100775000D02*
X121985000Y-103925000D01*
X142395000Y-59575000D02*
X139335000Y-60655000D01*
X129615000Y-107175000D02*
X132325000Y-109335000D01*
X177115000Y-106445000D02*
X179245000Y-103375000D01*
X168935000Y-114065000D02*
X171925000Y-111825000D01*
X118735000Y-93135000D02*
X119845000Y-96505000D01*
X165455000Y-57155000D02*
X162255000Y-55565000D01*
X155365000Y-112545000D02*
X158625000Y-111645000D01*
X150565000Y-50575000D02*
X146885000Y-50675000D01*
X160765000Y-53265000D02*
X157225000Y-52235000D01*
X125285000Y-98655000D02*
X127115000Y-101475000D01*
X128145000Y-109075000D02*
X130935000Y-111285000D01*
X160255000Y-56915000D02*
X156935000Y-55875000D01*
X145935000Y-110115000D02*
X149155000Y-110365000D01*
X182435000Y-86135000D02*
X182365000Y-82585000D01*
X161955000Y-56745000D02*
X158605000Y-55505000D01*
X119205000Y-93335000D02*
X120355000Y-96715000D01*
X176385000Y-63985000D02*
X173965000Y-61225000D01*
X142495000Y-116805000D02*
X146035000Y-117385000D01*
X131705000Y-106335000D02*
X134355000Y-108285000D01*
X178545000Y-96835000D02*
X179685000Y-93505000D01*
X171965000Y-65545000D02*
X169565000Y-63095000D01*
X177105000Y-87925000D02*
X177255000Y-84625000D01*
X171245000Y-71255000D02*
X169375000Y-68675000D01*
X141685000Y-113725000D02*
X145055000Y-114435000D01*
X139285000Y-109095000D02*
X142405000Y-110185000D01*
X121645000Y-91585000D02*
X122615000Y-94795000D01*
X122075000Y-78145000D02*
X121465000Y-81455000D01*
X119675000Y-85845000D02*
X119985000Y-89325000D01*
X184315000Y-81925000D02*
X183785000Y-78225000D01*
X122905000Y-62675000D02*
X120665000Y-65675000D01*
X118455000Y-84335000D02*
X118595000Y-87845000D01*
X156175000Y-60645000D02*
X153145000Y-60035000D01*
X161395000Y-61335000D02*
X158395000Y-60065000D01*
X169895000Y-66825000D02*
X167535000Y-64495000D01*
X126435000Y-96575000D02*
X128065000Y-99355000D01*
X149215000Y-117965000D02*
X152845000Y-117795000D01*
X120975000Y-92205000D02*
X122015000Y-95465000D01*
X119385000Y-90575000D02*
X120215000Y-93945000D01*
X164175000Y-62945000D02*
X161395000Y-61335000D01*
X176325000Y-76485000D02*
X175105000Y-73335000D01*
X181805000Y-89045000D02*
X182055000Y-85475000D01*
X121675000Y-85945000D02*
X121995000Y-89255000D01*
X122995000Y-94675000D02*
X124345000Y-97755000D01*
X130865000Y-60035000D02*
X128145000Y-62335000D01*
X175115000Y-94615000D02*
X176085000Y-91475000D01*
X117655000Y-96375000D02*
X119095000Y-99775000D01*
X134815000Y-57955000D02*
X131855000Y-59805000D01*
X122605000Y-70195000D02*
X121105000Y-73365000D01*
X147785000Y-51815000D02*
X144175000Y-52215000D01*
X167535000Y-54195000D02*
X164195000Y-52485000D01*
X115995000Y-74615000D02*
X115095000Y-78225000D01*
X165715000Y-115975000D02*
X168935000Y-114065000D01*
X124495000Y-76925000D02*
X123705000Y-80065000D01*
X129105000Y-62535000D02*
X126695000Y-65005000D01*
X172595000Y-74615000D02*
X171095000Y-71815000D01*
X182715000Y-82045000D02*
X182195000Y-78435000D01*
X162055000Y-60775000D02*
X159055000Y-59455000D01*
X179805000Y-91335000D02*
X180325000Y-87875000D01*
X155445000Y-53905000D02*
X151925000Y-53445000D01*
X139135000Y-58565000D02*
X136075000Y-60005000D01*
X183505000Y-88225000D02*
X183655000Y-84505000D01*
X128925000Y-101845000D02*
X131125000Y-104215000D01*
X123025000Y-72945000D02*
X121815000Y-76105000D01*
X180405000Y-74805000D02*
X179095000Y-71475000D01*
X124345000Y-97755000D02*
X126035000Y-100635000D01*
X121405000Y-100735000D02*
X123345000Y-103775000D01*
X169075000Y-63185000D02*
X166275000Y-60985000D01*
X142035000Y-50185000D02*
X138415000Y-51175000D01*
X171095000Y-71815000D02*
X169265000Y-69195000D01*
X163615000Y-114345000D02*
X166765000Y-112615000D01*
X143205000Y-51165000D02*
X139595000Y-52055000D01*
X158705000Y-113305000D02*
X161925000Y-112045000D01*
X124525000Y-83145000D02*
X124505000Y-86335000D01*
X176555000Y-91215000D02*
X177105000Y-87925000D01*
X178575000Y-91335000D02*
X179115000Y-87905000D01*
X118375000Y-75035000D02*
X117475000Y-78545000D01*
X140265000Y-57305000D02*
X137085000Y-58595000D01*
X147985000Y-52205000D02*
X144395000Y-52585000D01*
X156775000Y-111795000D02*
X159925000Y-110735000D01*
X164945000Y-110445000D02*
X167805000Y-108475000D01*
X135885000Y-109665000D02*
X138915000Y-111105000D01*
X149875000Y-49765000D02*
X146145000Y-49935000D01*
X116515000Y-90435000D02*
X117325000Y-94035000D01*
X171625000Y-106665000D02*
X173945000Y-104005000D01*
X131565000Y-61515000D02*
X129005000Y-63725000D01*
X136645000Y-60605000D02*
X133805000Y-62345000D01*
X176885000Y-76945000D02*
X175735000Y-73765000D01*
X121445000Y-97245000D02*
X123025000Y-100345000D01*
X130045000Y-57165000D02*
X127145000Y-59455000D01*
X128245000Y-66275000D02*
X126185000Y-68935000D01*
X154175000Y-116415000D02*
X157695000Y-115685000D01*
X178315000Y-68245000D02*
X176315000Y-65215000D01*
X179125000Y-77565000D02*
X178085000Y-74245000D01*
X152875000Y-112155000D02*
X156155000Y-111545000D01*
X172385000Y-72385000D02*
X170665000Y-69685000D01*
X114585000Y-81905000D02*
X114465000Y-85675000D01*
X174735000Y-99215000D02*
X176225000Y-96165000D01*
X155835000Y-118165000D02*
X159415000Y-117275000D01*
X173945000Y-104005000D02*
X175935000Y-101125000D01*
X148715000Y-113155000D02*
X152065000Y-113045000D01*
X166915000Y-114855000D02*
X170045000Y-112795000D01*
X125055000Y-102035000D02*
X127185000Y-104725000D01*
X150925000Y-50985000D02*
X147235000Y-51045000D01*
X123025000Y-100345000D02*
X124965000Y-103275000D01*
X119985000Y-69155000D02*
X118445000Y-72475000D01*
X126185000Y-68935000D02*
X124445000Y-71845000D01*
X120955000Y-64545000D02*
X118955000Y-67705000D01*
X174655000Y-109855000D02*
X177145000Y-107055000D01*
X141575000Y-58145000D02*
X138425000Y-59305000D01*
X139645000Y-59235000D02*
X136645000Y-60605000D01*
X129035000Y-103195000D02*
X131375000Y-105525000D01*
X156565000Y-118835000D02*
X160155000Y-117885000D01*
X178945000Y-101525000D02*
X180575000Y-98205000D01*
X183435000Y-75115000D02*
X182185000Y-71565000D01*
X118875000Y-101115000D02*
X120795000Y-104315000D01*
X149505000Y-115965000D02*
X153035000Y-115765000D01*
X160985000Y-51655000D02*
X157355000Y-50625000D01*
X135635000Y-114475000D02*
X138955000Y-115815000D01*
X176425000Y-83855000D02*
X176095000Y-80635000D01*
X164845000Y-105695000D02*
X167345000Y-103585000D01*
X160675000Y-51125000D02*
X156985000Y-50135000D01*
X160085000Y-113245000D02*
X163255000Y-111845000D01*
X137485000Y-57965000D02*
X134415000Y-59565000D01*
X122975000Y-72105000D02*
X121665000Y-75285000D01*
X176675000Y-71075000D02*
X174885000Y-68045000D01*
X120835000Y-89605000D02*
X121585000Y-92925000D01*
X114685000Y-78235000D02*
X114175000Y-81965000D01*
X167355000Y-111275000D02*
X170175000Y-109115000D01*
X173765000Y-63955000D02*
X171295000Y-61415000D01*
X115585000Y-74585000D02*
X114685000Y-78235000D01*
X125895000Y-58965000D02*
X123295000Y-61605000D01*
X180095000Y-103515000D02*
X181875000Y-100195000D01*
X169195000Y-102825000D02*
X171235000Y-100275000D01*
X118885000Y-83575000D02*
X118935000Y-87105000D01*
X153495000Y-112475000D02*
X156775000Y-111795000D01*
X126055000Y-102055000D02*
X128215000Y-104675000D01*
X148215000Y-119145000D02*
X151925000Y-119075000D01*
X168505000Y-58145000D02*
X165485000Y-56255000D01*
X158925000Y-58135000D02*
X155665000Y-57215000D01*
X120065000Y-85405000D02*
X120315000Y-88835000D01*
X177585000Y-83045000D02*
X177145000Y-79705000D01*
X149755000Y-59365000D02*
X146555000Y-59555000D01*
X167345000Y-107305000D02*
X169845000Y-105045000D01*
X172255000Y-96155000D02*
X173465000Y-93235000D01*
X133225000Y-61775000D02*
X130615000Y-63865000D01*
X151535000Y-54625000D02*
X148055000Y-54605000D01*
X171355000Y-60395000D02*
X168505000Y-58145000D01*
X173395000Y-106535000D02*
X175635000Y-103745000D01*
X120205000Y-81975000D02*
X120065000Y-85405000D01*
X157655000Y-54815000D02*
X154215000Y-54105000D01*
X164705000Y-112435000D02*
X167705000Y-110545000D01*
X148615000Y-56185000D02*
X145225000Y-56505000D01*
X145145000Y-59355000D02*
X141995000Y-60115000D01*
X160815000Y-116385000D02*
X164175000Y-114965000D01*
X168265000Y-56535000D02*
X165085000Y-54685000D01*
X166905000Y-60935000D02*
X163995000Y-59085000D01*
X119795000Y-67845000D02*
X118125000Y-71165000D01*
X171555000Y-105575000D02*
X173755000Y-102935000D01*
X175565000Y-61765000D02*
X172875000Y-59075000D01*
X122915000Y-66635000D02*
X121035000Y-69735000D01*
X164995000Y-113185000D02*
X168035000Y-111285000D01*
X115095000Y-78225000D02*
X114585000Y-81905000D01*
X130105000Y-114105000D02*
X133335000Y-116015000D01*
X166575000Y-116425000D02*
X169815000Y-114435000D01*
X175755000Y-67185000D02*
X173575000Y-64345000D01*
X125335000Y-105655000D02*
X127825000Y-108245000D01*
X128485000Y-71285000D02*
X126925000Y-74095000D01*
X137515000Y-109165000D02*
X140535000Y-110435000D01*
X174015000Y-62435000D02*
X171335000Y-59845000D01*
X177205000Y-96925000D02*
X178395000Y-93645000D01*
X124085000Y-86195000D02*
X124445000Y-89355000D01*
X179795000Y-72065000D02*
X178175000Y-68805000D01*
X185255000Y-85645000D02*
X185105000Y-81785000D01*
X184345000Y-93045000D02*
X184995000Y-89345000D01*
X130825000Y-61585000D02*
X128255000Y-63905000D01*
X143425000Y-60125000D02*
X140395000Y-61085000D01*
X132325000Y-109335000D02*
X135295000Y-111165000D01*
X136595000Y-55295000D02*
X133405000Y-56905000D01*
X131535000Y-54305000D02*
X128375000Y-56405000D01*
X119925000Y-99645000D02*
X121725000Y-102815000D01*
X128965000Y-69185000D02*
X127175000Y-71865000D01*
X178425000Y-86265000D02*
X178375000Y-82865000D01*
X164195000Y-52485000D02*
X160675000Y-51125000D01*
X169235000Y-112395000D02*
X172085000Y-110105000D01*
X164165000Y-61035000D02*
X161205000Y-59475000D01*
X163385000Y-58305000D02*
X160255000Y-56915000D01*
X120795000Y-104315000D02*
X123025000Y-107265000D01*
X118455000Y-89895000D02*
X119205000Y-93335000D01*
X167705000Y-110545000D02*
X170485000Y-108315000D01*
X168005000Y-60255000D02*
X165055000Y-58315000D01*
X178085000Y-89635000D02*
X178425000Y-86265000D01*
X167475000Y-57935000D02*
X164405000Y-56135000D01*
X168485000Y-59115000D02*
X165455000Y-57155000D01*
X129695000Y-100885000D02*
X131835000Y-103235000D01*
X138565000Y-116105000D02*
X142055000Y-117115000D01*
X168935000Y-102515000D02*
X170955000Y-99975000D01*
X118215000Y-78965000D02*
X117745000Y-82515000D01*
X135245000Y-110685000D02*
X138355000Y-112175000D01*
X158615000Y-57605000D02*
X155365000Y-56745000D01*
X155255000Y-54685000D02*
X151715000Y-54235000D01*
X178545000Y-66335000D02*
X176355000Y-63315000D01*
X133895000Y-55725000D02*
X130755000Y-57645000D01*
X130365000Y-58915000D02*
X127595000Y-61205000D01*
X128875000Y-66765000D02*
X126835000Y-69405000D01*
X165675000Y-110935000D02*
X168545000Y-108905000D01*
X158445000Y-112125000D02*
X161605000Y-110875000D01*
X181875000Y-72965000D02*
X180395000Y-69565000D01*
X162925000Y-109305000D02*
X165735000Y-107525000D01*
X128195000Y-111215000D02*
X131145000Y-113355000D01*
X133025000Y-63925000D02*
X130575000Y-66115000D01*
X173535000Y-70385000D02*
X171645000Y-67665000D01*
X131165000Y-110465000D02*
X134155000Y-112365000D01*
X133745000Y-105905000D02*
X136445000Y-107685000D01*
X149515000Y-49365000D02*
X145785000Y-49575000D01*
X144965000Y-114015000D02*
X148365000Y-114345000D01*
X175985000Y-66825000D02*
X173765000Y-63955000D01*
X125165000Y-93615000D02*
X126435000Y-96575000D01*
X126665000Y-66285000D02*
X124635000Y-69105000D01*
X170175000Y-109115000D02*
X172755000Y-106635000D01*
X121585000Y-92925000D02*
X122715000Y-96145000D01*
X175045000Y-93625000D02*
X175905000Y-90445000D01*
X161465000Y-108715000D02*
X164245000Y-107095000D01*
X171115000Y-58105000D02*
X168075000Y-55935000D01*
X153145000Y-60035000D02*
X149885000Y-59785000D01*
X123085000Y-76075000D02*
X122215000Y-79345000D01*
X172875000Y-59075000D02*
X169995000Y-56755000D01*
X130525000Y-110495000D02*
X133535000Y-112475000D01*
X122825000Y-78445000D02*
X122235000Y-81785000D01*
X123305000Y-83275000D02*
X123305000Y-86535000D01*
X161725000Y-110375000D02*
X164645000Y-108745000D01*
X123795000Y-75275000D02*
X122825000Y-78445000D01*
X168035000Y-111285000D02*
X170845000Y-109065000D01*
X170365000Y-58535000D02*
X167375000Y-56435000D01*
X183515000Y-93075000D02*
X184185000Y-89365000D01*
X122765000Y-70745000D02*
X121305000Y-73955000D01*
X144395000Y-52585000D02*
X140875000Y-53355000D01*
X181565000Y-71125000D02*
X179895000Y-67785000D01*
X146855000Y-112635000D02*
X150185000Y-112755000D01*
X127045000Y-69805000D02*
X125375000Y-72665000D01*
X174245000Y-74355000D02*
X172775000Y-71455000D01*
X125975000Y-66515000D02*
X123995000Y-69385000D01*
X131855000Y-59805000D02*
X129095000Y-62005000D01*
X180815000Y-86575000D02*
X180785000Y-82965000D01*
X176675000Y-88145000D02*
X176855000Y-84895000D01*
X176225000Y-96165000D02*
X177345000Y-92965000D01*
X151395000Y-119915000D02*
X155135000Y-119505000D01*
X128245000Y-57505000D02*
X125435000Y-59945000D01*
X151525000Y-59035000D02*
X148315000Y-58995000D01*
X137335000Y-113915000D02*
X140675000Y-115105000D01*
X173925000Y-71855000D02*
X172165000Y-69035000D01*
X133405000Y-56905000D02*
X130365000Y-58915000D01*
X143685000Y-60505000D02*
X140615000Y-61465000D01*
X165555000Y-109105000D02*
X168265000Y-107065000D01*
X158485000Y-109995000D02*
X161465000Y-108715000D01*
X120435000Y-73975000D02*
X119385000Y-77345000D01*
X177345000Y-92965000D02*
X178085000Y-89635000D01*
X155175000Y-112995000D02*
X158445000Y-112125000D01*
X130935000Y-111285000D02*
X134015000Y-113205000D01*
X118605000Y-94135000D02*
X119825000Y-97525000D01*
X137525000Y-107825000D02*
X140465000Y-109135000D01*
X123965000Y-80915000D02*
X123665000Y-84145000D01*
X129905000Y-108995000D02*
X132825000Y-111105000D01*
X144585000Y-54985000D02*
X141195000Y-55755000D01*
X180355000Y-79465000D02*
X179525000Y-76015000D01*
X135895000Y-112825000D02*
X139135000Y-114185000D01*
X120355000Y-96715000D02*
X121865000Y-99915000D01*
X158315000Y-109635000D02*
X161295000Y-108355000D01*
X182575000Y-89345000D02*
X182845000Y-85665000D01*
X170665000Y-69685000D02*
X168585000Y-67175000D01*
X118525000Y-71245000D02*
X117235000Y-74675000D01*
X119975000Y-76685000D02*
X119235000Y-80085000D01*
X176505000Y-92985000D02*
X177255000Y-89745000D01*
X176365000Y-97815000D02*
X177655000Y-94635000D01*
X133335000Y-116015000D02*
X136735000Y-117555000D01*
X183295000Y-96695000D02*
X184345000Y-93045000D01*
X177875000Y-64635000D02*
X175565000Y-61765000D01*
X116975000Y-82115000D02*
X116865000Y-85715000D01*
X166385000Y-64055000D02*
X163715000Y-62175000D01*
X180345000Y-94105000D02*
X181165000Y-90625000D01*
X176065000Y-97505000D02*
X177325000Y-94375000D01*
X139885000Y-56585000D02*
X136665000Y-57905000D01*
X130545000Y-108485000D02*
X133395000Y-110515000D01*
X175615000Y-63675000D02*
X173135000Y-60955000D01*
X118935000Y-87105000D02*
X119385000Y-90575000D01*
X178495000Y-66995000D02*
X176385000Y-63985000D01*
X142985000Y-114455000D02*
X146395000Y-115005000D01*
X158485000Y-112955000D02*
X161715000Y-111705000D01*
X119655000Y-71665000D02*
X118375000Y-75035000D01*
X157315000Y-117435000D02*
X160815000Y-116385000D01*
X134275000Y-105305000D02*
X136955000Y-107055000D01*
X124605000Y-69925000D02*
X123025000Y-72945000D01*
X170275000Y-102185000D02*
X172215000Y-99525000D01*
X175365000Y-96145000D02*
X176505000Y-92985000D01*
X157225000Y-52235000D02*
X153635000Y-51605000D01*
X143635000Y-119875000D02*
X147405000Y-120305000D01*
X184995000Y-89345000D02*
X185255000Y-85645000D01*
X175245000Y-78535000D02*
X174275000Y-75475000D01*
X175105000Y-73335000D02*
X173535000Y-70385000D01*
X159275000Y-108835000D02*
X162195000Y-107415000D01*
X138405000Y-112625000D02*
X141685000Y-113725000D01*
X172955000Y-105825000D02*
X175175000Y-103015000D01*
X127825000Y-108245000D02*
X130525000Y-110495000D01*
X122185000Y-102785000D02*
X124325000Y-105695000D01*
X142795000Y-117685000D02*
X146435000Y-118225000D01*
X166765000Y-112615000D02*
X169715000Y-110535000D01*
X116825000Y-74655000D02*
X115905000Y-78245000D01*
X127185000Y-104725000D02*
X129615000Y-107175000D01*
X174795000Y-78385000D02*
X173775000Y-75305000D01*
X171925000Y-111825000D02*
X174665000Y-109275000D01*
X121305000Y-73955000D02*
X120235000Y-77245000D01*
X175215000Y-86525000D02*
X175195000Y-83305000D01*
X148785000Y-111155000D02*
X151995000Y-111045000D01*
X123965000Y-97905000D02*
X125675000Y-100815000D01*
X162145000Y-118025000D02*
X165615000Y-116475000D01*
X136425000Y-112195000D02*
X139615000Y-113505000D01*
X121865000Y-70735000D02*
X120435000Y-73975000D01*
X145975000Y-115765000D02*
X149505000Y-115965000D01*
X182745000Y-77195000D02*
X181695000Y-73635000D01*
X177325000Y-94375000D02*
X178225000Y-91065000D01*
X179685000Y-93505000D02*
X180445000Y-90085000D01*
X156475000Y-115165000D02*
X159875000Y-114175000D01*
X116595000Y-92835000D02*
X117655000Y-96375000D01*
X151795000Y-114275000D02*
X155245000Y-113795000D01*
X173765000Y-97645000D02*
X175115000Y-94615000D01*
X115535000Y-89275000D02*
X116205000Y-92915000D01*
X181585000Y-87075000D02*
X181615000Y-83485000D01*
X161925000Y-112045000D02*
X164945000Y-110445000D01*
X165085000Y-62105000D02*
X162215000Y-60405000D01*
X179135000Y-97495000D02*
X180345000Y-94105000D01*
X122215000Y-79345000D02*
X121755000Y-82575000D01*
X152735000Y-50305000D02*
X148975000Y-50175000D01*
X143695000Y-111335000D02*
X146965000Y-111845000D01*
X177275000Y-73295000D02*
X175735000Y-70175000D01*
X165055000Y-58315000D02*
X161955000Y-56745000D01*
X158605000Y-55505000D02*
X155255000Y-54685000D01*
X135035000Y-64445000D02*
X132575000Y-66445000D01*
X177795000Y-104855000D02*
X179765000Y-101695000D01*
X175485000Y-88005000D02*
X175655000Y-84795000D01*
X123635000Y-67715000D02*
X121865000Y-70735000D01*
X178845000Y-84285000D02*
X178555000Y-80865000D01*
X133965000Y-107545000D02*
X136855000Y-109275000D01*
X175735000Y-73765000D02*
X174225000Y-70765000D01*
X170415000Y-62785000D02*
X167705000Y-60525000D01*
X124885000Y-89455000D02*
X125645000Y-92505000D01*
X117635000Y-79955000D02*
X117285000Y-83485000D01*
X174875000Y-105405000D02*
X176945000Y-102525000D01*
X121815000Y-76105000D02*
X120975000Y-79415000D01*
X153035000Y-115765000D02*
X156475000Y-115165000D01*
X126275000Y-108425000D02*
X129025000Y-110855000D01*
X155355000Y-114185000D02*
X158705000Y-113305000D01*
X161035000Y-114595000D02*
X164315000Y-113095000D01*
X124965000Y-103275000D02*
X127225000Y-105965000D01*
X129095000Y-68375000D02*
X127205000Y-71035000D01*
X127095000Y-111865000D02*
X130105000Y-114105000D01*
X167125000Y-66865000D02*
X164705000Y-64825000D01*
X165385000Y-57575000D02*
X162225000Y-55985000D01*
X170055000Y-61385000D02*
X167255000Y-59225000D01*
X144865000Y-118445000D02*
X148505000Y-118755000D01*
X122655000Y-74905000D02*
X121655000Y-78165000D01*
X121725000Y-102815000D02*
X123875000Y-105775000D01*
X119555000Y-80645000D02*
X119265000Y-84095000D01*
X151355000Y-58225000D02*
X148105000Y-58205000D01*
X140615000Y-61465000D02*
X137785000Y-62745000D01*
X126815000Y-95495000D02*
X128325000Y-98275000D01*
X128365000Y-108195000D02*
X131165000Y-110465000D01*
X124505000Y-86335000D02*
X124885000Y-89455000D01*
X164175000Y-114965000D02*
X167375000Y-113175000D01*
X179215000Y-79905000D02*
X178435000Y-76545000D01*
X173775000Y-75305000D02*
X172385000Y-72385000D01*
X168025000Y-104585000D02*
X170275000Y-102185000D01*
X172795000Y-112135000D02*
X175525000Y-109525000D01*
X129765000Y-108365000D02*
X132575000Y-110465000D01*
X178995000Y-81055000D02*
X178315000Y-77635000D01*
X114355000Y-89525000D02*
X115035000Y-93195000D01*
X174045000Y-92825000D02*
X174825000Y-89715000D01*
X164865000Y-54125000D02*
X161475000Y-52675000D01*
X142335000Y-57515000D02*
X139135000Y-58565000D01*
X146775000Y-59965000D02*
X143685000Y-60505000D01*
X166875000Y-105095000D02*
X169195000Y-102825000D01*
X169845000Y-105045000D02*
X172065000Y-102515000D01*
X145635000Y-56845000D02*
X142335000Y-57515000D01*
X184035000Y-83855000D02*
X183715000Y-80185000D01*
X169025000Y-107995000D02*
X171555000Y-105575000D01*
X177025000Y-105235000D02*
X179045000Y-102155000D01*
X162225000Y-55985000D02*
X158895000Y-54755000D01*
X141815000Y-112515000D02*
X145105000Y-113225000D01*
X146965000Y-111845000D02*
X150245000Y-111955000D01*
X164055000Y-105725000D02*
X166555000Y-103735000D01*
X148325000Y-52995000D02*
X144755000Y-53335000D01*
X117285000Y-83485000D02*
X117325000Y-87065000D01*
X114065000Y-85745000D02*
X114355000Y-89525000D01*
X139335000Y-60655000D02*
X136435000Y-62095000D01*
X153745000Y-118095000D02*
X157315000Y-117435000D01*
X132255000Y-104165000D02*
X134785000Y-106165000D01*
X132825000Y-111105000D02*
X135895000Y-112825000D01*
X122015000Y-95465000D02*
X123415000Y-98575000D01*
X122195000Y-64885000D02*
X120195000Y-67955000D01*
X173835000Y-67245000D02*
X171635000Y-64575000D01*
X149155000Y-110365000D02*
X152335000Y-110195000D01*
X171155000Y-106565000D02*
X173495000Y-103925000D01*
X137995000Y-56445000D02*
X134815000Y-57955000D01*
X154195000Y-52885000D02*
X150615000Y-52575000D01*
X173695000Y-77555000D02*
X172595000Y-74615000D01*
X149915000Y-110765000D02*
X153115000Y-110505000D01*
X169095000Y-112985000D02*
X172015000Y-110695000D01*
X172905000Y-110435000D02*
X175495000Y-107785000D01*
X140605000Y-53015000D02*
X137175000Y-54185000D01*
X144195000Y-116725000D02*
X147715000Y-117115000D01*
X142425000Y-50505000D02*
X138805000Y-51465000D01*
X152845000Y-117795000D02*
X156445000Y-117225000D01*
X171295000Y-61415000D02*
X168485000Y-59115000D01*
X143945000Y-119525000D02*
X147655000Y-119915000D01*
X143545000Y-112125000D02*
X146855000Y-112635000D01*
X120245000Y-78975000D02*
X119765000Y-82405000D01*
X131205000Y-64415000D02*
X128875000Y-66765000D01*
X172085000Y-110105000D02*
X174685000Y-107485000D01*
X172895000Y-95785000D02*
X174045000Y-92825000D01*
X121445000Y-88165000D02*
X122015000Y-91425000D01*
X168405000Y-59555000D02*
X165385000Y-57575000D01*
X173975000Y-99725000D02*
X175545000Y-96725000D01*
X179065000Y-73455000D02*
X177585000Y-70225000D01*
X174685000Y-107485000D02*
X176985000Y-104615000D01*
X158765000Y-118715000D02*
X162335000Y-117525000D01*
X159875000Y-114175000D02*
X163105000Y-112815000D01*
X116315000Y-78255000D02*
X115785000Y-81935000D01*
X151865000Y-113465000D02*
X155175000Y-112995000D01*
X147035000Y-52665000D02*
X143455000Y-53155000D01*
X174225000Y-70765000D02*
X172365000Y-67945000D01*
X178435000Y-76545000D02*
X177275000Y-73295000D01*
X116115000Y-96815000D02*
X117565000Y-100285000D01*
X121495000Y-106645000D02*
X123975000Y-109505000D01*
X119065000Y-75525000D02*
X118215000Y-78965000D01*
X128255000Y-63905000D02*
X125975000Y-66515000D01*
X160845000Y-61515000D02*
X157815000Y-60295000D01*
X116495000Y-79505000D02*
X116105000Y-83165000D01*
X118445000Y-72475000D02*
X117275000Y-75935000D01*
X158625000Y-111645000D02*
X161725000Y-110375000D01*
X134575000Y-53585000D02*
X131315000Y-55375000D01*
X170075000Y-103035000D02*
X172075000Y-100465000D01*
X116125000Y-94215000D02*
X117315000Y-97725000D01*
X170085000Y-64695000D02*
X167575000Y-62445000D01*
X163715000Y-62175000D02*
X160785000Y-60605000D01*
X177985000Y-86925000D02*
X178015000Y-83545000D01*
X119885000Y-91045000D02*
X120775000Y-94375000D01*
X166165000Y-114365000D02*
X169235000Y-112395000D01*
X162155000Y-54655000D02*
X158765000Y-53465000D01*
X121705000Y-84595000D02*
X121675000Y-85945000D01*
X123375000Y-91895000D02*
X124405000Y-94995000D01*
X156935000Y-55875000D02*
X153555000Y-55225000D01*
X169525000Y-111185000D02*
X172285000Y-108825000D01*
X181245000Y-79925000D02*
X180485000Y-76445000D01*
X177655000Y-94635000D02*
X178575000Y-91335000D01*
X185105000Y-81785000D02*
X184565000Y-78055000D01*
X133035000Y-107865000D02*
X135885000Y-109665000D01*
X160785000Y-60605000D02*
X157725000Y-59425000D01*
X175505000Y-105905000D02*
X177625000Y-102955000D01*
X181085000Y-73135000D02*
X179595000Y-69765000D01*
X152315000Y-56695000D02*
X149005000Y-56575000D01*
X155205000Y-110535000D02*
X158315000Y-109635000D01*
X124445000Y-71845000D02*
X123075000Y-74915000D01*
X152655000Y-57935000D02*
X149365000Y-57765000D01*
X153555000Y-55225000D02*
X150095000Y-54965000D01*
X179245000Y-84405000D02*
X178995000Y-81055000D01*
X183155000Y-87545000D02*
X183235000Y-83895000D01*
X136345000Y-110815000D02*
X139485000Y-112185000D01*
X146335000Y-51525000D02*
X142695000Y-52085000D01*
X123145000Y-78815000D02*
X122605000Y-82065000D01*
X182865000Y-74615000D02*
X181565000Y-71125000D01*
X154215000Y-54105000D02*
X150685000Y-53785000D01*
X115785000Y-81935000D02*
X115655000Y-85575000D01*
X134745000Y-57085000D02*
X131705000Y-58935000D01*
X122175000Y-69325000D02*
X120595000Y-72505000D01*
X164065000Y-106735000D02*
X166655000Y-104755000D01*
X136945000Y-56455000D02*
X133815000Y-58065000D01*
X174285000Y-94545000D02*
X175275000Y-91415000D01*
X159155000Y-59065000D02*
X156015000Y-58115000D01*
X180855000Y-96395000D02*
X181915000Y-92885000D01*
X129025000Y-110855000D02*
X132005000Y-112955000D01*
X140875000Y-53355000D02*
X137455000Y-54505000D01*
X176995000Y-81255000D02*
X176355000Y-78025000D01*
X131255000Y-103785000D02*
X133745000Y-105905000D01*
X118955000Y-67705000D02*
X117295000Y-71075000D01*
X174455000Y-80645000D02*
X173695000Y-77555000D01*
X176025000Y-78355000D02*
X175015000Y-75185000D01*
X180575000Y-68185000D02*
X178635000Y-65015000D01*
X135295000Y-52815000D02*
X131945000Y-54525000D01*
X137375000Y-116945000D02*
X140925000Y-118075000D01*
X166275000Y-60985000D02*
X163425000Y-59235000D01*
X164405000Y-56135000D02*
X161155000Y-54685000D01*
X139345000Y-109555000D02*
X142435000Y-110605000D01*
X124215000Y-93325000D02*
X125465000Y-96405000D01*
X148055000Y-54605000D02*
X144585000Y-54985000D01*
X119265000Y-84095000D02*
X119375000Y-87595000D01*
X150835000Y-55395000D02*
X147395000Y-55445000D01*
X175845000Y-73025000D02*
X174245000Y-70015000D01*
X117995000Y-74915000D02*
X117095000Y-78425000D01*
X117275000Y-75935000D02*
X116495000Y-79505000D01*
X127205000Y-71035000D02*
X125675000Y-73885000D01*
X118725000Y-80795000D02*
X118455000Y-84335000D01*
X125385000Y-76765000D02*
X124555000Y-79875000D01*
X154565000Y-51325000D02*
X150925000Y-50985000D01*
X166265000Y-64985000D02*
X163665000Y-63085000D01*
X176315000Y-65215000D02*
X174015000Y-62435000D01*
X116205000Y-92915000D02*
X117265000Y-96475000D01*
X129425000Y-58115000D02*
X126645000Y-60445000D01*
X123415000Y-98575000D02*
X125175000Y-101505000D01*
X158645000Y-53015000D02*
X155065000Y-52215000D01*
X125185000Y-72165000D02*
X123795000Y-75275000D01*
X182845000Y-85665000D02*
X182715000Y-82045000D01*
X146945000Y-55885000D02*
X143545000Y-56405000D01*
X126785000Y-109465000D02*
X129565000Y-111775000D01*
X125915000Y-105715000D02*
X128365000Y-108195000D01*
X125605000Y-62625000D02*
X123295000Y-65415000D01*
X141275000Y-117755000D02*
X144865000Y-118445000D01*
X151645000Y-52225000D02*
X147985000Y-52205000D01*
X138245000Y-117685000D02*
X141795000Y-118695000D01*
X159055000Y-59455000D02*
X155875000Y-58495000D01*
X125375000Y-72665000D02*
X124075000Y-75675000D01*
X147685000Y-116315000D02*
X151225000Y-116315000D01*
X143005000Y-111585000D02*
X146275000Y-112175000D01*
X128215000Y-60115000D02*
X125605000Y-62625000D01*
X118125000Y-82785000D02*
X118095000Y-86415000D01*
X172075000Y-100465000D02*
X173765000Y-97645000D01*
X163155000Y-118055000D02*
X166575000Y-116425000D01*
X142495000Y-115165000D02*
X145975000Y-115765000D01*
X174665000Y-108105000D02*
X177025000Y-105235000D01*
X167695000Y-63055000D02*
X164975000Y-61075000D01*
X117225000Y-72295000D02*
X116065000Y-75815000D01*
X114465000Y-85675000D02*
X114745000Y-89415000D01*
X127565000Y-100735000D02*
X129675000Y-103305000D01*
X173645000Y-72185000D02*
X171925000Y-69385000D01*
X156255000Y-109865000D02*
X159275000Y-108835000D01*
X159605000Y-119305000D02*
X163155000Y-118055000D01*
X168265000Y-107065000D02*
X170725000Y-104705000D01*
X128055000Y-103295000D02*
X130385000Y-105715000D01*
X121665000Y-75285000D02*
X120745000Y-78575000D01*
X127855000Y-98285000D02*
X129695000Y-100885000D01*
X129675000Y-103305000D02*
X132065000Y-105595000D01*
X122375000Y-72435000D02*
X121125000Y-75635000D01*
X179605000Y-83345000D02*
X179215000Y-79905000D01*
X142085000Y-112175000D02*
X145385000Y-112865000D01*
X180395000Y-69565000D02*
X178545000Y-66335000D01*
X139615000Y-113505000D02*
X142985000Y-114455000D01*
X123015000Y-105985000D02*
X125435000Y-108715000D01*
X148505000Y-118755000D02*
X152125000Y-118665000D01*
X133745000Y-63875000D02*
X131275000Y-65985000D01*
X178615000Y-64295000D02*
X176255000Y-61335000D01*
X137725000Y-116655000D02*
X141275000Y-117755000D01*
X137235000Y-114745000D02*
X140595000Y-115915000D01*
X183645000Y-74425000D02*
X182315000Y-70845000D01*
X176355000Y-63315000D02*
X173885000Y-60575000D01*
X168485000Y-57645000D02*
X165345000Y-55725000D01*
X151395000Y-51815000D02*
X147785000Y-51815000D01*
X117325000Y-94035000D02*
X118495000Y-97455000D01*
X127175000Y-71865000D02*
X125725000Y-74755000D01*
X158055000Y-58265000D02*
X154775000Y-57445000D01*
X120955000Y-68235000D02*
X119285000Y-71505000D01*
X149365000Y-57765000D02*
X146035000Y-58005000D01*
X140395000Y-61085000D02*
X137525000Y-62415000D01*
X159515000Y-112175000D02*
X162635000Y-110815000D01*
X174405000Y-100555000D02*
X176065000Y-97505000D01*
X175275000Y-91415000D02*
X175865000Y-88225000D01*
X171145000Y-61825000D02*
X168405000Y-59555000D01*
X161025000Y-55925000D02*
X157655000Y-54815000D01*
X143455000Y-53155000D02*
X139975000Y-54035000D01*
X137525000Y-62415000D02*
X134785000Y-64105000D01*
X144755000Y-53335000D02*
X141245000Y-54085000D01*
X183655000Y-84505000D02*
X183395000Y-80815000D01*
X134345000Y-115185000D02*
X137725000Y-116655000D01*
X182035000Y-95415000D02*
X182965000Y-91855000D01*
X118395000Y-76395000D02*
X117635000Y-79955000D01*
X172165000Y-69035000D02*
X170085000Y-66435000D01*
X178395000Y-93645000D02*
X179195000Y-90275000D01*
X145585000Y-58875000D02*
X142395000Y-59575000D01*
X118495000Y-97455000D02*
X120055000Y-100775000D01*
X148355000Y-53395000D02*
X144805000Y-53735000D01*
X166555000Y-103735000D02*
X168775000Y-101445000D01*
X176055000Y-84975000D02*
X175855000Y-81745000D01*
X144055000Y-55895000D02*
X140665000Y-56755000D01*
X152895000Y-119395000D02*
X156565000Y-118835000D01*
X149635000Y-117565000D02*
X153245000Y-117345000D01*
X170485000Y-108315000D02*
X172955000Y-105825000D01*
X138025000Y-52155000D02*
X134575000Y-53585000D01*
X138955000Y-115815000D02*
X142495000Y-116805000D01*
X170805000Y-56855000D02*
X167735000Y-54785000D01*
X117765000Y-90615000D02*
X118605000Y-94135000D01*
X177625000Y-86375000D02*
X177585000Y-83045000D01*
X138355000Y-112175000D02*
X141595000Y-113285000D01*
X115265000Y-85635000D02*
X115535000Y-89275000D01*
X170665000Y-56255000D02*
X167535000Y-54195000D01*
X164775000Y-60475000D02*
X161825000Y-58875000D01*
X170085000Y-66435000D02*
X167675000Y-64085000D01*
X162845000Y-116015000D02*
X166165000Y-114365000D01*
X127975000Y-106165000D02*
X130545000Y-108485000D01*
X158385000Y-55855000D02*
X154995000Y-55045000D01*
X154915000Y-119945000D02*
X158565000Y-119185000D01*
X170395000Y-106195000D02*
X172725000Y-103615000D01*
X120535000Y-82745000D02*
X120485000Y-86215000D01*
X126035000Y-100635000D02*
X128055000Y-103295000D01*
X173965000Y-94265000D02*
X174925000Y-91155000D01*
X171235000Y-100275000D02*
X172935000Y-97505000D01*
X133995000Y-115455000D02*
X137375000Y-116945000D01*
X133645000Y-59575000D02*
X130825000Y-61585000D01*
X172725000Y-103615000D02*
X174705000Y-100825000D01*
X130615000Y-63865000D02*
X128245000Y-66275000D01*
X158395000Y-60065000D02*
X155275000Y-59175000D01*
X174805000Y-83845000D02*
X174455000Y-80645000D01*
X172905000Y-72495000D02*
X171165000Y-69695000D01*
X172775000Y-71455000D02*
X170915000Y-68685000D01*
X167735000Y-54785000D02*
X164395000Y-53015000D01*
X139135000Y-114185000D02*
X142495000Y-115165000D01*
X133815000Y-58065000D02*
X130865000Y-60035000D01*
X168795000Y-66235000D02*
X166385000Y-64055000D01*
X183495000Y-91235000D02*
X183965000Y-87545000D01*
X181385000Y-98335000D02*
X182625000Y-94885000D01*
X156985000Y-50135000D02*
X153295000Y-49555000D01*
X131315000Y-55375000D02*
X128245000Y-57505000D01*
X129245000Y-104025000D02*
X131705000Y-106335000D01*
X173595000Y-58645000D02*
X170665000Y-56255000D01*
X177025000Y-70875000D02*
X175235000Y-67845000D01*
X129095000Y-62005000D02*
X126635000Y-64475000D01*
X182915000Y-80235000D02*
X182185000Y-76615000D01*
X114175000Y-81965000D02*
X114065000Y-85745000D01*
X134095000Y-60235000D02*
X131345000Y-62195000D01*
X136855000Y-109275000D02*
X139825000Y-110605000D01*
X149885000Y-59785000D02*
X146775000Y-59965000D01*
X116865000Y-71055000D02*
X115585000Y-74585000D01*
X141345000Y-55295000D02*
X137995000Y-56445000D01*
X172645000Y-100335000D02*
X174305000Y-97475000D01*
X157355000Y-50625000D02*
X153625000Y-49995000D01*
X167535000Y-64495000D02*
X164905000Y-62465000D01*
X141995000Y-60115000D02*
X138975000Y-61245000D01*
X142695000Y-52085000D02*
X139125000Y-53045000D01*
X166865000Y-54735000D02*
X163505000Y-53055000D01*
X149005000Y-56575000D02*
X145635000Y-56845000D01*
X174305000Y-97475000D02*
X175615000Y-94415000D01*
X117265000Y-96475000D02*
X118705000Y-99895000D01*
X126535000Y-67095000D02*
X124605000Y-69925000D01*
X178015000Y-83545000D02*
X177645000Y-80225000D01*
X133655000Y-106345000D02*
X136425000Y-108135000D01*
X126925000Y-74095000D02*
X125755000Y-76955000D01*
X124555000Y-79875000D02*
X124125000Y-83005000D01*
X161715000Y-111705000D02*
X164715000Y-110115000D01*
X147395000Y-55445000D02*
X144055000Y-55895000D01*
X159925000Y-110735000D02*
X162925000Y-109305000D01*
X126695000Y-65005000D02*
X124565000Y-67765000D01*
X177255000Y-89745000D02*
X177625000Y-86375000D01*
X132425000Y-103195000D02*
X134775000Y-105195000D01*
X125745000Y-68875000D02*
X124015000Y-71805000D01*
X124085000Y-66365000D02*
X122175000Y-69325000D01*
X134605000Y-56705000D02*
X131535000Y-58565000D01*
X161605000Y-110875000D02*
X164585000Y-109255000D01*
X135735000Y-54365000D02*
X132515000Y-56045000D01*
X139485000Y-112185000D02*
X142725000Y-113165000D01*
X158175000Y-115145000D02*
X161535000Y-113965000D01*
X122875000Y-91565000D02*
X123875000Y-94735000D01*
X151935000Y-114665000D02*
X155355000Y-114185000D01*
X135295000Y-111165000D02*
X138405000Y-112625000D01*
X180325000Y-87875000D02*
X180445000Y-84365000D01*
X162195000Y-107415000D02*
X164845000Y-105695000D01*
X177915000Y-79475000D02*
X177065000Y-76175000D01*
X126365000Y-63575000D02*
X124085000Y-66365000D01*
X178175000Y-68805000D02*
X176205000Y-65735000D01*
X121915000Y-68975000D02*
X120305000Y-72165000D01*
X121255000Y-84765000D02*
X121445000Y-88165000D01*
X150325000Y-55775000D02*
X146945000Y-55885000D01*
X166365000Y-60075000D02*
X163385000Y-58305000D01*
X166175000Y-111095000D02*
X169035000Y-109025000D01*
X179605000Y-86835000D02*
X179605000Y-83345000D01*
X182465000Y-96655000D02*
X183515000Y-93075000D01*
X135595000Y-112225000D02*
X138795000Y-113635000D01*
X141345000Y-54465000D02*
X137985000Y-55585000D01*
X127035000Y-99245000D02*
X128925000Y-101845000D01*
X131875000Y-60285000D02*
X129105000Y-62535000D01*
X177275000Y-74365000D02*
X175845000Y-71215000D01*
X175485000Y-101095000D02*
X177135000Y-98055000D01*
X181275000Y-74895000D02*
X179965000Y-71465000D01*
X164705000Y-64825000D02*
X162005000Y-63045000D01*
X117475000Y-78545000D02*
X116975000Y-82115000D01*
X161705000Y-53185000D02*
X158205000Y-52065000D01*
X153365000Y-114915000D02*
X156765000Y-114275000D01*
X182665000Y-97265000D02*
X183785000Y-93665000D01*
X153245000Y-117345000D02*
X156805000Y-116735000D01*
X146145000Y-49935000D02*
X142425000Y-50505000D01*
X167545000Y-108165000D02*
X170145000Y-105885000D01*
X124115000Y-63095000D02*
X121905000Y-65985000D01*
X123975000Y-109505000D02*
X126745000Y-112095000D01*
X177975000Y-106635000D02*
X180095000Y-103515000D01*
X181165000Y-90625000D02*
X181585000Y-87075000D01*
X164245000Y-107095000D02*
X166875000Y-105095000D01*
X175735000Y-70175000D02*
X173835000Y-67245000D01*
X152665000Y-57535000D02*
X149425000Y-57365000D01*
X176355000Y-78025000D02*
X175325000Y-74875000D01*
X149515000Y-113965000D02*
X152895000Y-113765000D01*
X172655000Y-97175000D02*
X173965000Y-94265000D01*
X171165000Y-69695000D02*
X169125000Y-67165000D01*
X167255000Y-59225000D02*
X164285000Y-57425000D01*
X134355000Y-108285000D02*
X137285000Y-109945000D01*
X128325000Y-98275000D02*
X130205000Y-100875000D01*
X172815000Y-65305000D02*
X170415000Y-62785000D01*
X150245000Y-111955000D02*
X153505000Y-111665000D01*
X183965000Y-87545000D02*
X184035000Y-83855000D01*
X177565000Y-100715000D02*
X179135000Y-97495000D01*
X175035000Y-103895000D02*
X176985000Y-100925000D01*
X117565000Y-100285000D02*
X119335000Y-103535000D01*
X120665000Y-65675000D02*
X118775000Y-68875000D01*
X146105000Y-57595000D02*
X142845000Y-58205000D01*
X134645000Y-107525000D02*
X137515000Y-109165000D01*
X161535000Y-113965000D02*
X164705000Y-112435000D01*
X131345000Y-62195000D02*
X128785000Y-64515000D01*
X157925000Y-51585000D02*
X154295000Y-50885000D01*
X154235000Y-55725000D02*
X150835000Y-55395000D01*
X123705000Y-89735000D02*
X124495000Y-92885000D01*
X124125000Y-83005000D02*
X124085000Y-86195000D01*
X115315000Y-90555000D02*
X116125000Y-94215000D01*
X142835000Y-109475000D02*
X145935000Y-110115000D01*
X120975000Y-79415000D02*
X120535000Y-82745000D01*
X125435000Y-59945000D02*
X122905000Y-62675000D01*
X184565000Y-78055000D02*
X183645000Y-74425000D01*
X153505000Y-111665000D02*
X156705000Y-110985000D01*
X131145000Y-113355000D02*
X134345000Y-115185000D01*
X169715000Y-110535000D02*
X172405000Y-108145000D01*
X172285000Y-108825000D02*
X174775000Y-106165000D01*
X184185000Y-89365000D02*
X184445000Y-85665000D01*
X176985000Y-100925000D02*
X178595000Y-97745000D01*
X122835000Y-61525000D02*
X120525000Y-64465000D01*
X180785000Y-82965000D02*
X180355000Y-79465000D01*
X139275000Y-116765000D02*
X142795000Y-117685000D01*
X132965000Y-116275000D02*
X136425000Y-117865000D01*
X123345000Y-103775000D02*
X125615000Y-106575000D01*
X181355000Y-78315000D02*
X180405000Y-74805000D01*
X125945000Y-70035000D02*
X124325000Y-72985000D01*
X122465000Y-85445000D02*
X122715000Y-88655000D01*
X127145000Y-59455000D02*
X124555000Y-61995000D01*
X142805000Y-58635000D02*
X139685000Y-59645000D01*
X146395000Y-115005000D02*
X149865000Y-115165000D01*
X119095000Y-99775000D02*
X120885000Y-102995000D01*
X161475000Y-52675000D02*
X157925000Y-51585000D01*
X136135000Y-53315000D02*
X132785000Y-54965000D01*
X181035000Y-100095000D02*
X182465000Y-96655000D01*
X127785000Y-66195000D02*
X125745000Y-68875000D01*
X176205000Y-65735000D02*
X173965000Y-62975000D01*
X173965000Y-61225000D02*
X171225000Y-58705000D01*
X173815000Y-96655000D02*
X175045000Y-93625000D01*
X163665000Y-63085000D02*
X160845000Y-61515000D01*
X116065000Y-75815000D02*
X115285000Y-79455000D01*
X150685000Y-53785000D02*
X147155000Y-53865000D01*
X173885000Y-60575000D02*
X171115000Y-58105000D01*
X122715000Y-92515000D02*
X123825000Y-95685000D01*
X181185000Y-100705000D02*
X182665000Y-97265000D01*
X173085000Y-108595000D02*
X175505000Y-105905000D01*
X136115000Y-62745000D02*
X133455000Y-64605000D01*
X116465000Y-85635000D02*
X116735000Y-89275000D01*
X134415000Y-59565000D02*
X131565000Y-61515000D01*
X125815000Y-97965000D02*
X127565000Y-100735000D01*
X158335000Y-115925000D02*
X161745000Y-114745000D01*
X122635000Y-106155000D02*
X125085000Y-108925000D01*
X134785000Y-64105000D02*
X132275000Y-66145000D01*
X164645000Y-108745000D02*
X167365000Y-106775000D01*
X172755000Y-106635000D02*
X175035000Y-103895000D01*
X180735000Y-98835000D02*
X182035000Y-95415000D01*
X137785000Y-62745000D02*
X135035000Y-64445000D01*
X181045000Y-75495000D02*
X179795000Y-72065000D01*
X139805000Y-108445000D02*
X142835000Y-109475000D01*
X176945000Y-102525000D02*
X178725000Y-99365000D01*
X127305000Y-104265000D02*
X129685000Y-106695000D01*
X120485000Y-86215000D02*
X120835000Y-89605000D01*
X152955000Y-59585000D02*
X149755000Y-59365000D01*
X176365000Y-87235000D02*
X176425000Y-83855000D01*
X159175000Y-117765000D02*
X162665000Y-116525000D01*
X180275000Y-70225000D02*
X178495000Y-66995000D01*
X157625000Y-56465000D02*
X154235000Y-55725000D01*
X120595000Y-72505000D02*
X119385000Y-75845000D01*
X177605000Y-97985000D02*
X178885000Y-94755000D01*
X167805000Y-108475000D02*
X170395000Y-106195000D01*
X125675000Y-100815000D02*
X127725000Y-103525000D01*
X126645000Y-60445000D02*
X124115000Y-63095000D01*
X145785000Y-49575000D02*
X142035000Y-50185000D01*
X123705000Y-100705000D02*
X125665000Y-103535000D01*
X184295000Y-78765000D02*
X183435000Y-75115000D01*
X181165000Y-87445000D02*
X181235000Y-83875000D01*
X171875000Y-112385000D02*
X174655000Y-109855000D01*
X145105000Y-113225000D02*
X148465000Y-113545000D01*
X157695000Y-115685000D02*
X161035000Y-114595000D01*
X145535000Y-110865000D02*
X148785000Y-111155000D01*
X151225000Y-116315000D02*
X154715000Y-115925000D01*
X119125000Y-91325000D02*
X120055000Y-94745000D01*
X138415000Y-51175000D02*
X134875000Y-52565000D01*
X132515000Y-56045000D02*
X129425000Y-58115000D01*
X145645000Y-111285000D02*
X148885000Y-111555000D01*
X166865000Y-62905000D02*
X164165000Y-61035000D01*
X121105000Y-73365000D02*
X119975000Y-76685000D01*
X122715000Y-96145000D02*
X124205000Y-99185000D01*
X152585000Y-115405000D02*
X156005000Y-114865000D01*
X118095000Y-86415000D02*
X118455000Y-89895000D01*
X174755000Y-87005000D02*
X174805000Y-83845000D01*
X121905000Y-65985000D02*
X119985000Y-69155000D01*
X125435000Y-108715000D02*
X128195000Y-111215000D01*
X173495000Y-103925000D02*
X175485000Y-101095000D01*
X143575000Y-51505000D02*
X139985000Y-52355000D01*
X147155000Y-53865000D02*
X143675000Y-54335000D01*
X160365000Y-57815000D02*
X157085000Y-56735000D01*
X134775000Y-58435000D02*
X131875000Y-60285000D01*
X151305000Y-117115000D02*
X154865000Y-116715000D01*
X122885000Y-83695000D02*
X122935000Y-86975000D01*
X132065000Y-105595000D02*
X134645000Y-107525000D01*
X179835000Y-94415000D02*
X180695000Y-90965000D01*
X121755000Y-82575000D02*
X121705000Y-84595000D01*
X179525000Y-76015000D02*
X178325000Y-72705000D01*
X140925000Y-118075000D02*
X144535000Y-118805000D01*
X124405000Y-94995000D02*
X125815000Y-97965000D01*
X134765000Y-116275000D02*
X138245000Y-117685000D01*
X173985000Y-77055000D02*
X172795000Y-74065000D01*
X140465000Y-109135000D02*
X143555000Y-110075000D01*
X165525000Y-106685000D02*
X168025000Y-104585000D01*
X161155000Y-54685000D02*
X157695000Y-53585000D01*
X132575000Y-110465000D02*
X135595000Y-112225000D01*
X155245000Y-113795000D02*
X158485000Y-112955000D01*
X115285000Y-79455000D02*
X114905000Y-83165000D01*
X164715000Y-110115000D02*
X167545000Y-108165000D01*
X178325000Y-72705000D02*
X176735000Y-69515000D01*
X170845000Y-109065000D02*
X173395000Y-106535000D01*
X164395000Y-53015000D02*
X160985000Y-51655000D01*
X175615000Y-94415000D02*
X176555000Y-91215000D01*
X123995000Y-69385000D02*
X122375000Y-72435000D01*
X170915000Y-68685000D02*
X168795000Y-66235000D01*
X161355000Y-107385000D02*
X164055000Y-105725000D01*
X144805000Y-57385000D02*
X141575000Y-58145000D01*
X178085000Y-74245000D02*
X176675000Y-71075000D01*
X173575000Y-64345000D02*
X171145000Y-61825000D01*
X136665000Y-57905000D02*
X133645000Y-59575000D01*
X152005000Y-58675000D02*
X148825000Y-58575000D01*
X180125000Y-96065000D02*
X181165000Y-92595000D01*
X125085000Y-108925000D02*
X127815000Y-111425000D01*
X151975000Y-56265000D02*
X148615000Y-56185000D01*
X164975000Y-61075000D02*
X162035000Y-59425000D01*
X137985000Y-55585000D02*
X134745000Y-57085000D01*
X179335000Y-103985000D02*
X181185000Y-100705000D01*
X177065000Y-76175000D02*
X175845000Y-73025000D01*
X179505000Y-77415000D02*
X178445000Y-74065000D01*
X128425000Y-68575000D02*
X126585000Y-71285000D01*
X175325000Y-74875000D02*
X173925000Y-71855000D01*
X127725000Y-103525000D02*
X130105000Y-105995000D01*
X126975000Y-100595000D02*
X129035000Y-103195000D01*
X141245000Y-54085000D02*
X137855000Y-55205000D01*
X182685000Y-91195000D02*
X183155000Y-87545000D01*
X182365000Y-82585000D02*
X181895000Y-78985000D01*
X174825000Y-66565000D02*
X172595000Y-63845000D01*
X118555000Y-79325000D02*
X118125000Y-82785000D01*
X179895000Y-67785000D02*
X177875000Y-64635000D01*
X149955000Y-51365000D02*
X146335000Y-51525000D01*
X163325000Y-114925000D02*
X166545000Y-113215000D01*
X182315000Y-70845000D02*
X180645000Y-67475000D01*
X123075000Y-74915000D02*
X122075000Y-78145000D01*
X172365000Y-67945000D02*
X170165000Y-65355000D01*
X143675000Y-54335000D02*
X140225000Y-55215000D01*
X134125000Y-56055000D02*
X131065000Y-57925000D01*
X178595000Y-97745000D02*
X179835000Y-94415000D01*
X148365000Y-114345000D02*
X151795000Y-114275000D01*
X123765000Y-87335000D02*
X124275000Y-90525000D01*
X155135000Y-119505000D02*
X158765000Y-118715000D01*
X135685000Y-62075000D02*
X133025000Y-63925000D01*
X122955000Y-65195000D02*
X120955000Y-68235000D01*
X132465000Y-112765000D02*
X135635000Y-114475000D01*
X169265000Y-69195000D02*
X167125000Y-66865000D01*
X173965000Y-62975000D02*
X171355000Y-60395000D01*
X175855000Y-81745000D02*
X175245000Y-78535000D01*
X125175000Y-101505000D02*
X127305000Y-104265000D01*
X134785000Y-106165000D02*
X137525000Y-107825000D01*
X172405000Y-108145000D02*
X174875000Y-105405000D01*
X159945000Y-116265000D02*
X163325000Y-114925000D01*
X119285000Y-71505000D02*
X117995000Y-74915000D01*
X134015000Y-113205000D02*
X137235000Y-114745000D01*
X120695000Y-92715000D02*
X121775000Y-95955000D01*
X132775000Y-61605000D02*
X130155000Y-63745000D01*
X122235000Y-81785000D02*
X122055000Y-84995000D01*
X117315000Y-97725000D02*
X118875000Y-101115000D01*
X130135000Y-64865000D02*
X127875000Y-67335000D01*
X155365000Y-56745000D02*
X151975000Y-56265000D01*
X178725000Y-99365000D02*
X180125000Y-96065000D01*
X178445000Y-94815000D02*
X179375000Y-91435000D01*
X155275000Y-59175000D02*
X152005000Y-58675000D01*
X177645000Y-80225000D02*
X176885000Y-76945000D01*
X137285000Y-109945000D02*
X140335000Y-111215000D01*
X179965000Y-71465000D02*
X178315000Y-68245000D01*
X175865000Y-88225000D02*
X176055000Y-84975000D01*
X176985000Y-104615000D02*
X178945000Y-101525000D01*
X157815000Y-60295000D02*
X154735000Y-59475000D01*
X176635000Y-81575000D02*
X176025000Y-78355000D01*
X151925000Y-53445000D02*
X148355000Y-53395000D01*
X180695000Y-90965000D02*
X181165000Y-87445000D01*
X129005000Y-63725000D02*
X126665000Y-66285000D01*
X153625000Y-49995000D02*
X149875000Y-49765000D01*
X132715000Y-108125000D02*
X135545000Y-109935000D01*
X136445000Y-107685000D02*
X139285000Y-109095000D01*
X146735000Y-110615000D02*
X149915000Y-110765000D01*
X154295000Y-50885000D02*
X150565000Y-50575000D01*
X163995000Y-59085000D02*
X160865000Y-57585000D01*
X119385000Y-77345000D02*
X118725000Y-80795000D01*
X125595000Y-109995000D02*
X128425000Y-112415000D01*
X179415000Y-99775000D02*
X180855000Y-96395000D01*
X146405000Y-109775000D02*
X148857095Y-109922905D01*
X181815000Y-94775000D02*
X182685000Y-91195000D01*
X132275000Y-66145000D02*
X130065000Y-68455000D01*
X156765000Y-114275000D02*
X160085000Y-113245000D01*
X115425000Y-93095000D02*
X116485000Y-96665000D01*
X156705000Y-110985000D02*
X159785000Y-109925000D01*
X120385000Y-99675000D02*
X122185000Y-102785000D01*
X123725000Y-102925000D02*
X125915000Y-105715000D01*
X144535000Y-118805000D02*
X148215000Y-119145000D01*
X125725000Y-74755000D02*
X124665000Y-77755000D01*
X128065000Y-99355000D02*
X130005000Y-101885000D01*
X177825000Y-69825000D02*
X175985000Y-66825000D01*
X150605000Y-116745000D02*
X154175000Y-116415000D01*
X125615000Y-106575000D02*
X128145000Y-109075000D01*
X126795000Y-59235000D02*
X124135000Y-61865000D01*
X122015000Y-91425000D02*
X122995000Y-94675000D01*
X182965000Y-91855000D02*
X183505000Y-88225000D01*
X139685000Y-59645000D02*
X136695000Y-61035000D01*
X175935000Y-101125000D02*
X177605000Y-97985000D01*
X152065000Y-113045000D02*
X155365000Y-112545000D01*
X165085000Y-54685000D02*
X161705000Y-53185000D01*
X124635000Y-69105000D02*
X122975000Y-72105000D01*
X138425000Y-59305000D02*
X135455000Y-60815000D01*
X125105000Y-63785000D02*
X122915000Y-66635000D01*
X124355000Y-109325000D02*
X127095000Y-111865000D01*
X119985000Y-89325000D02*
X120695000Y-92715000D01*
X154555000Y-58625000D02*
X151355000Y-58225000D01*
X133805000Y-62345000D02*
X131205000Y-64415000D01*
X174245000Y-70015000D02*
X172305000Y-67215000D01*
X168545000Y-108905000D02*
X171155000Y-106565000D01*
X169815000Y-114435000D02*
X172795000Y-112135000D01*
X177755000Y-66585000D02*
X175615000Y-63675000D01*
X131375000Y-105525000D02*
X133965000Y-107545000D01*
X148465000Y-113545000D02*
X151865000Y-113465000D01*
X156805000Y-116735000D02*
X160255000Y-115735000D01*
X116485000Y-96665000D02*
X117935000Y-100135000D01*
X165615000Y-116475000D02*
X168845000Y-114605000D01*
X156275000Y-113165000D02*
X159515000Y-112175000D01*
X129665000Y-56945000D02*
X126795000Y-59235000D01*
X129685000Y-106695000D02*
X132355000Y-108855000D01*
X127895000Y-59865000D02*
X125295000Y-62375000D01*
X114915000Y-86905000D02*
X115315000Y-90555000D01*
X163105000Y-112815000D02*
X166175000Y-111095000D01*
X147235000Y-51045000D02*
X143575000Y-51505000D01*
X159155000Y-61665000D02*
X156175000Y-60645000D01*
X176085000Y-91475000D02*
X176675000Y-88145000D01*
X154995000Y-55045000D02*
X151535000Y-54625000D01*
X125755000Y-76955000D02*
X124945000Y-79995000D01*
X136075000Y-60005000D02*
X133225000Y-61775000D01*
X161205000Y-59475000D02*
X158055000Y-58265000D01*
X139995000Y-119065000D02*
X143635000Y-119875000D01*
X149565000Y-112365000D02*
X152875000Y-112155000D01*
X135855000Y-115455000D02*
X139275000Y-116765000D01*
X183235000Y-83895000D02*
X182915000Y-80235000D01*
X128165000Y-71015000D02*
X126595000Y-73815000D01*
X151715000Y-54235000D02*
X148255000Y-54195000D01*
X164315000Y-113095000D02*
X167355000Y-111275000D01*
X130575000Y-66115000D02*
X128425000Y-68575000D01*
X123825000Y-95685000D02*
X125285000Y-98655000D01*
X150615000Y-52575000D02*
X147035000Y-52665000D01*
X158865000Y-54325000D02*
X155365000Y-53485000D01*
X161295000Y-108355000D02*
X164065000Y-106735000D01*
X155065000Y-52215000D02*
X151395000Y-51815000D01*
X177565000Y-90295000D02*
X177985000Y-86925000D01*
X175655000Y-100025000D02*
X177205000Y-96925000D01*
X169375000Y-68675000D02*
X167205000Y-66355000D01*
X169565000Y-63095000D02*
X166905000Y-60935000D01*
X170675000Y-62485000D02*
X168005000Y-60255000D01*
X121035000Y-69735000D02*
X119535000Y-72975000D01*
X119375000Y-87595000D02*
X119885000Y-91045000D01*
X152155000Y-111425000D02*
X155355000Y-110915000D01*
X135545000Y-109935000D02*
X138635000Y-111425000D01*
X121125000Y-75635000D02*
X120245000Y-78975000D01*
X162635000Y-110815000D02*
X165555000Y-109105000D01*
X126815000Y-108385000D02*
X129485000Y-110705000D01*
X130385000Y-105715000D02*
X133035000Y-107865000D01*
X169145000Y-62185000D02*
X166365000Y-60075000D01*
X174825000Y-89715000D02*
X175215000Y-86525000D01*
X170685000Y-98905000D02*
X172255000Y-96155000D01*
X164735000Y-64305000D02*
X161995000Y-62555000D01*
X137175000Y-54185000D02*
X133895000Y-55725000D01*
X175015000Y-75185000D02*
X173645000Y-72185000D01*
X116585000Y-81995000D02*
X116465000Y-85635000D01*
X141915000Y-57215000D02*
X138695000Y-58315000D01*
X167715000Y-105425000D02*
X170075000Y-103035000D01*
X116865000Y-85715000D02*
X117155000Y-89335000D01*
X123965000Y-77285000D02*
X123225000Y-80485000D01*
X159085000Y-61185000D02*
X156055000Y-60195000D01*
X179375000Y-91435000D02*
X179905000Y-87985000D01*
X128725000Y-60735000D02*
X126145000Y-63225000D01*
X152335000Y-110195000D02*
X155395000Y-109665000D01*
X137855000Y-55205000D02*
X134605000Y-56705000D01*
X184765000Y-82505000D02*
X184295000Y-78765000D01*
X128425000Y-112415000D02*
X131505000Y-114525000D01*
X172935000Y-97505000D02*
X174285000Y-94545000D01*
X123025000Y-101125000D02*
X125025000Y-104015000D01*
X174275000Y-75475000D02*
X172905000Y-72495000D01*
X172305000Y-67215000D02*
X170085000Y-64695000D01*
X165115000Y-107475000D02*
X167715000Y-105425000D01*
X145225000Y-56505000D02*
X141915000Y-57215000D01*
X170345000Y-111055000D02*
X173085000Y-108595000D01*
X118515000Y-67675000D02*
X116865000Y-71055000D01*
X174885000Y-68045000D02*
X172815000Y-65305000D01*
X149865000Y-115165000D02*
X153365000Y-114915000D01*
X130205000Y-100875000D02*
X132425000Y-103195000D01*
X140595000Y-115915000D02*
X144195000Y-116725000D01*
X131355000Y-64815000D02*
X129025000Y-67205000D01*
X157085000Y-56735000D02*
X153735000Y-56055000D01*
X115035000Y-93195000D02*
X116115000Y-96815000D01*
X126585000Y-71285000D02*
X125095000Y-74195000D01*
X166255000Y-110085000D02*
X169025000Y-107995000D01*
X123665000Y-84145000D02*
X123765000Y-87335000D01*
X165985000Y-114925000D02*
X169095000Y-112985000D01*
X146625000Y-55115000D02*
X143215000Y-55655000D01*
X181895000Y-81835000D02*
X181355000Y-78315000D01*
X176815000Y-74295000D02*
X175385000Y-71195000D01*
X129025000Y-67205000D02*
X127045000Y-69805000D01*
X177585000Y-70225000D02*
X175755000Y-67185000D01*
X115385000Y-81915000D02*
X115265000Y-85635000D01*
X133455000Y-64605000D02*
X131075000Y-66745000D01*
X154865000Y-116715000D02*
X158335000Y-115925000D01*
X151860000Y-120980000D02*
X151860000Y-121250000D01*
X118125000Y-71165000D02*
X116825000Y-74655000D01*
X168845000Y-114605000D02*
X171875000Y-112385000D01*
X123705000Y-80065000D02*
X123305000Y-83275000D01*
X180905000Y-80325000D02*
X180175000Y-76825000D01*
X180575000Y-98205000D02*
X181815000Y-94775000D01*
X172065000Y-102515000D02*
X173975000Y-99725000D01*
X125765000Y-64865000D02*
X123635000Y-67715000D01*
X121995000Y-89255000D02*
X122715000Y-92515000D01*
X153735000Y-56055000D02*
X150325000Y-55775000D01*
X124075000Y-75675000D02*
X123145000Y-78815000D01*
X135455000Y-60815000D02*
X132665000Y-62685000D01*
X179095000Y-71475000D02*
X177435000Y-68325000D01*
X137455000Y-54505000D02*
X134125000Y-56055000D01*
X178735000Y-87675000D02*
X178845000Y-84285000D01*
X124325000Y-105695000D02*
X126815000Y-108385000D01*
X124495000Y-92885000D02*
X125665000Y-95895000D01*
X123875000Y-65965000D02*
X121915000Y-68975000D01*
X148315000Y-58995000D02*
X145145000Y-59355000D01*
X130755000Y-57645000D02*
X127895000Y-59865000D01*
X120495000Y-103115000D02*
X122635000Y-106155000D01*
X139975000Y-54035000D02*
X136595000Y-55295000D01*
X147715000Y-117115000D02*
X151305000Y-117115000D01*
X169855000Y-104455000D02*
X172025000Y-101905000D01*
X122055000Y-84995000D02*
X122275000Y-88365000D01*
X168345000Y-105395000D02*
X170635000Y-103005000D01*
X114905000Y-83165000D02*
X114915000Y-86905000D01*
X127225000Y-105965000D02*
X129765000Y-108365000D01*
X164585000Y-109255000D02*
X167345000Y-107305000D01*
X125255000Y-97775000D02*
X126975000Y-100595000D01*
X170165000Y-65355000D02*
X167695000Y-63055000D01*
X129055000Y-101375000D02*
X131255000Y-103785000D01*
X166655000Y-104755000D02*
X168935000Y-102515000D01*
X179765000Y-101695000D02*
X181385000Y-98335000D01*
X170725000Y-104705000D02*
X172895000Y-102075000D01*
X171335000Y-59845000D02*
X168485000Y-57645000D01*
X118915000Y-96315000D02*
X120385000Y-99675000D01*
X175845000Y-71215000D02*
X174075000Y-68275000D01*
X152125000Y-118665000D02*
X155835000Y-118165000D01*
X138695000Y-58315000D02*
X135635000Y-59785000D01*
X163425000Y-59235000D02*
X160365000Y-57815000D01*
X167705000Y-60525000D02*
X164815000Y-58635000D01*
X178315000Y-77635000D02*
X177275000Y-74365000D01*
X149245000Y-119565000D02*
X152895000Y-119395000D01*
X119765000Y-82405000D02*
X119675000Y-85845000D01*
X152895000Y-113765000D02*
X156275000Y-113165000D01*
X141195000Y-55755000D02*
X137925000Y-56905000D01*
X172795000Y-74065000D02*
X171245000Y-71255000D01*
X164145000Y-54665000D02*
X160765000Y-53265000D01*
X117295000Y-71075000D02*
X115995000Y-74615000D01*
X123875000Y-94735000D02*
X125255000Y-97775000D01*
X130005000Y-101885000D02*
X132255000Y-104165000D01*
X130065000Y-68455000D02*
X128165000Y-71015000D01*
X146435000Y-118225000D02*
X150055000Y-118355000D01*
X179595000Y-69765000D02*
X177755000Y-66585000D01*
X117745000Y-82515000D02*
X117675000Y-86075000D01*
X172015000Y-110695000D02*
X174665000Y-108105000D01*
X178445000Y-74065000D02*
X177025000Y-70875000D01*
X131705000Y-58935000D02*
X128905000Y-61105000D01*
X171635000Y-64575000D02*
X169145000Y-62185000D01*
X165735000Y-107525000D02*
X168345000Y-105395000D01*
X183785000Y-93665000D02*
X184505000Y-90015000D01*
X123295000Y-61605000D02*
X120955000Y-64545000D01*
X170955000Y-99975000D02*
X172655000Y-97175000D01*
X115935000Y-89245000D02*
X116595000Y-92835000D01*
X167375000Y-56435000D02*
X164145000Y-54665000D01*
X122615000Y-94795000D02*
X123965000Y-97905000D01*
X148885000Y-111555000D02*
X152155000Y-111425000D01*
X175905000Y-90445000D02*
X176365000Y-87235000D01*
X140535000Y-110435000D02*
X143695000Y-111335000D01*
X181165000Y-92595000D02*
X181805000Y-89045000D01*
X133905000Y-62765000D02*
X131355000Y-64815000D01*
X176095000Y-80635000D02*
X175365000Y-77445000D01*
X179045000Y-102155000D02*
X180735000Y-98835000D01*
X163505000Y-53055000D02*
X160025000Y-51755000D01*
X124325000Y-72985000D02*
X123085000Y-76075000D01*
X162215000Y-60405000D02*
X159155000Y-59065000D01*
X121045000Y-88235000D02*
X121645000Y-91585000D01*
X171925000Y-69385000D02*
X169895000Y-66825000D01*
X175365000Y-77445000D02*
X174245000Y-74355000D01*
X162335000Y-109165000D02*
X165115000Y-107475000D01*
X182985000Y-76505000D02*
X181875000Y-72965000D01*
X119235000Y-80085000D02*
X118885000Y-83575000D01*
X120305000Y-72165000D02*
X119065000Y-75525000D01*
X179905000Y-87985000D02*
X180045000Y-84425000D01*
X118015000Y-89665000D02*
X118735000Y-93135000D01*
X121865000Y-99915000D02*
X123725000Y-102925000D01*
X179335000Y-73045000D02*
X177825000Y-69825000D01*
X167205000Y-66355000D02*
X164735000Y-64305000D01*
X117155000Y-89335000D02*
X117845000Y-92895000D01*
X124275000Y-90525000D02*
X125165000Y-93615000D01*
X125665000Y-95895000D02*
X127215000Y-98785000D01*
X148857095Y-109922905D02*
X150300000Y-109840000D01*
X138915000Y-111105000D02*
X142085000Y-112175000D01*
X130105000Y-105995000D02*
X132715000Y-108125000D01*
X114745000Y-89415000D02*
X115425000Y-93095000D01*
X148255000Y-54195000D02*
X144735000Y-54555000D01*
X159785000Y-109925000D02*
X162765000Y-108475000D01*
X158565000Y-119185000D02*
X162145000Y-118025000D01*
X128785000Y-64515000D02*
X126535000Y-67095000D01*
X176745000Y-93575000D02*
X177565000Y-90295000D01*
X119335000Y-103535000D02*
X121495000Y-106645000D01*
X142405000Y-110185000D02*
X145535000Y-110865000D01*
X175635000Y-103745000D02*
X177565000Y-100715000D01*
X173145000Y-65075000D02*
X170675000Y-62485000D01*
X162335000Y-117525000D02*
X165715000Y-115975000D01*
X144175000Y-52215000D02*
X140605000Y-53015000D01*
X163625000Y-116545000D02*
X166915000Y-114855000D01*
X182625000Y-94885000D02*
X183495000Y-91235000D01*
X183395000Y-80815000D02*
X182745000Y-77195000D01*
X179245000Y-103375000D02*
X181035000Y-100095000D01*
X182185000Y-76615000D02*
X181085000Y-73135000D01*
X136735000Y-114095000D02*
X140055000Y-115335000D01*
X175385000Y-65315000D02*
X173035000Y-62565000D01*
X130385000Y-68715000D02*
X128485000Y-71285000D01*
X151155000Y-120325000D02*
X154915000Y-119945000D01*
X130795000Y-113605000D02*
X133995000Y-115455000D01*
X124235000Y-106835000D02*
X126785000Y-109465000D01*
X156015000Y-58115000D02*
X152665000Y-57535000D01*
X127595000Y-61205000D02*
X125105000Y-63785000D01*
X146085000Y-113765000D02*
X149515000Y-113965000D01*
X145385000Y-112865000D02*
X148715000Y-113155000D01*
X121655000Y-78165000D02*
X121065000Y-81455000D01*
X161995000Y-62555000D02*
X159085000Y-61185000D01*
X117235000Y-74675000D02*
X116315000Y-78255000D01*
X145275000Y-50435000D02*
X141585000Y-51105000D01*
X169995000Y-56755000D02*
X166865000Y-54735000D01*
X173755000Y-102935000D02*
X175655000Y-100025000D01*
X139985000Y-52355000D02*
X136505000Y-53595000D01*
X125495000Y-58795000D02*
X122835000Y-61525000D01*
X136435000Y-62095000D02*
X133745000Y-63875000D01*
X137085000Y-58595000D02*
X134095000Y-60235000D01*
X181895000Y-78985000D02*
X181045000Y-75495000D01*
X150185000Y-112755000D02*
X153495000Y-112475000D01*
X124015000Y-71805000D02*
X122655000Y-74905000D01*
X126595000Y-73815000D02*
X125385000Y-76765000D01*
X172025000Y-101905000D02*
X173865000Y-99125000D01*
X142055000Y-117115000D02*
X145605000Y-117735000D01*
X179115000Y-87905000D02*
X179245000Y-84405000D01*
X150055000Y-118355000D02*
X153745000Y-118095000D01*
X156005000Y-114865000D02*
X159365000Y-113925000D01*
X138565000Y-60555000D02*
X135685000Y-62075000D01*
X124555000Y-61995000D02*
X122195000Y-64885000D01*
X122935000Y-86975000D02*
X123385000Y-90205000D01*
X136425000Y-108135000D02*
X139345000Y-109555000D01*
X116735000Y-89275000D02*
X117425000Y-92845000D01*
X174705000Y-100825000D02*
X176365000Y-97815000D01*
X177255000Y-84625000D02*
X176995000Y-81255000D01*
X136955000Y-107055000D02*
X139805000Y-108445000D01*
X155395000Y-109665000D02*
X158545000Y-108685000D01*
X131835000Y-103235000D02*
X134275000Y-105305000D01*
X148825000Y-58575000D02*
X145585000Y-58875000D01*
X140335000Y-111215000D02*
X143545000Y-112125000D01*
X177865000Y-77485000D02*
X176815000Y-74295000D01*
X167365000Y-106775000D02*
X169855000Y-104455000D01*
X153295000Y-49555000D02*
X149515000Y-49365000D01*
X138805000Y-51465000D02*
X135295000Y-52815000D01*
X119825000Y-97525000D02*
X121405000Y-100735000D01*
X121305000Y-99725000D02*
X123175000Y-102825000D01*
X131065000Y-57925000D02*
X128215000Y-60115000D01*
X125025000Y-104015000D02*
X127365000Y-106685000D01*
X121065000Y-81455000D02*
X120855000Y-84825000D01*
X156405000Y-50835000D02*
X152735000Y-50305000D01*
X124945000Y-79995000D02*
X124525000Y-83145000D01*
X141585000Y-51105000D02*
X138025000Y-52155000D01*
X168775000Y-101445000D02*
X170685000Y-98905000D01*
X118595000Y-87845000D02*
X119125000Y-91325000D01*
X128815000Y-56575000D02*
X125895000Y-58965000D01*
X179795000Y-81045000D02*
X179125000Y-77565000D01*
X155665000Y-57215000D02*
X152315000Y-56695000D01*
X131945000Y-54525000D02*
X128815000Y-56575000D01*
X123175000Y-102825000D02*
X125335000Y-105655000D01*
X181385000Y-93365000D02*
X182105000Y-89815000D01*
X162665000Y-116525000D02*
X165985000Y-114925000D01*
X162255000Y-55565000D02*
X158865000Y-54325000D01*
X165345000Y-55725000D02*
X162075000Y-54195000D01*
X132625000Y-113795000D02*
X135855000Y-115455000D01*
X124665000Y-77755000D02*
X123965000Y-80915000D01*
X146035000Y-117385000D02*
X149635000Y-117565000D01*
X135195000Y-114705000D02*
X138565000Y-116105000D01*
X151925000Y-119075000D02*
X155595000Y-118615000D01*
X151485000Y-57025000D02*
X148135000Y-57005000D01*
X141655000Y-59375000D02*
X138565000Y-60555000D01*
X171455000Y-65575000D02*
X169075000Y-63185000D01*
X125675000Y-73885000D02*
X124495000Y-76925000D01*
X124135000Y-61865000D02*
X121795000Y-64755000D01*
X141595000Y-113285000D02*
X144965000Y-114015000D01*
X121355000Y-98015000D02*
X123025000Y-101125000D01*
X144805000Y-53735000D02*
X141345000Y-54465000D01*
X178225000Y-91065000D02*
X178735000Y-87675000D01*
X149045000Y-115565000D02*
X152585000Y-115405000D01*
X125095000Y-74195000D02*
X123965000Y-77285000D01*
X180265000Y-96835000D02*
X181385000Y-93365000D01*
X164815000Y-58635000D02*
X161665000Y-57055000D01*
X142845000Y-58205000D02*
X139645000Y-59235000D01*
X181875000Y-100195000D02*
X183295000Y-96695000D01*
X126145000Y-63225000D02*
X123875000Y-65965000D01*
X159285000Y-110555000D02*
X162335000Y-109165000D01*
X144735000Y-54555000D02*
X141345000Y-55295000D01*
X176305000Y-62005000D02*
X173725000Y-59305000D01*
X117845000Y-92895000D02*
X118915000Y-96315000D01*
X132575000Y-66445000D02*
X130385000Y-68715000D01*
X169415000Y-65155000D02*
X166865000Y-62905000D01*
X184835000Y-86265000D02*
X184765000Y-82505000D01*
X180185000Y-80915000D02*
X179505000Y-77415000D01*
X127815000Y-111425000D02*
X130795000Y-113605000D01*
X148495000Y-114745000D02*
X151935000Y-114665000D01*
X172895000Y-102075000D02*
X174735000Y-99215000D01*
X161825000Y-58875000D02*
X158615000Y-57605000D01*
X183715000Y-80185000D02*
X182985000Y-76505000D01*
X179195000Y-90275000D02*
X179605000Y-86835000D01*
X117935000Y-100135000D02*
X119745000Y-103435000D01*
X175235000Y-67845000D02*
X173145000Y-65075000D01*
X129485000Y-110705000D02*
X132465000Y-112765000D01*
X123225000Y-80485000D02*
X122885000Y-83695000D01*
X125665000Y-103535000D02*
X127975000Y-106165000D01*
X151875000Y-53045000D02*
X148325000Y-52995000D01*
X178375000Y-82865000D02*
X177915000Y-79475000D01*
X120525000Y-64465000D02*
X118515000Y-67675000D01*
X156445000Y-117225000D02*
X159945000Y-116265000D01*
X143515000Y-116195000D02*
X147095000Y-116675000D01*
X167575000Y-62445000D02*
X164775000Y-60475000D01*
X160155000Y-117885000D02*
X163625000Y-116545000D01*
X123025000Y-107265000D02*
X125595000Y-109995000D01*
X155595000Y-118615000D02*
X159175000Y-117765000D01*
X139595000Y-52055000D02*
X136135000Y-53315000D01*
X144835000Y-58595000D02*
X141655000Y-59375000D01*
X140675000Y-115105000D02*
X144125000Y-115905000D01*
X157725000Y-59425000D02*
X154555000Y-58625000D01*
X138795000Y-113635000D02*
X142125000Y-114665000D01*
X118775000Y-68875000D02*
X117225000Y-72295000D01*
X121795000Y-64755000D02*
X119795000Y-67845000D01*
X154735000Y-59475000D02*
X151525000Y-59035000D01*
X168585000Y-67175000D02*
X166265000Y-64985000D01*
X182185000Y-71565000D02*
X180575000Y-68185000D01*
X167675000Y-64085000D02*
X165085000Y-62105000D01*
X173865000Y-99125000D02*
X175365000Y-96145000D01*
X174315000Y-90125000D02*
X174755000Y-87005000D01*
X119745000Y-103435000D02*
X121895000Y-106505000D01*
X171365000Y-98625000D02*
X172895000Y-95785000D01*
X153635000Y-51605000D02*
X149955000Y-51365000D01*
X146885000Y-50675000D02*
X143205000Y-51165000D01*
X164285000Y-57425000D02*
X161025000Y-55925000D01*
X167345000Y-103585000D02*
X169505000Y-101235000D01*
X178885000Y-94755000D02*
X179805000Y-91335000D01*
X131075000Y-66745000D02*
X128965000Y-69185000D01*
X158545000Y-108685000D02*
X161355000Y-107385000D01*
X122605000Y-82065000D02*
X122465000Y-85445000D01*
X160865000Y-57585000D02*
X157625000Y-56465000D01*
X182105000Y-89815000D02*
X182435000Y-86135000D01*
X125205000Y-92475000D02*
X126335000Y-95445000D01*
X162005000Y-63045000D02*
X159155000Y-61665000D01*
X145495000Y-119335000D02*
X149245000Y-119565000D01*
X169035000Y-109025000D02*
X171625000Y-106665000D01*
X135635000Y-59785000D02*
X132775000Y-61605000D01*
X155215000Y-52645000D02*
X151645000Y-52225000D01*
X125295000Y-62375000D02*
X122955000Y-65195000D01*
X177435000Y-68325000D02*
X175385000Y-65315000D01*
X159365000Y-113925000D02*
X162615000Y-112605000D01*
X133395000Y-110515000D02*
X136425000Y-112195000D01*
X117095000Y-78425000D02*
X116585000Y-81995000D01*
X144125000Y-115905000D02*
X147685000Y-116315000D01*
X165485000Y-56255000D02*
X162155000Y-54655000D01*
X158205000Y-52065000D02*
X154565000Y-51325000D01*
X170635000Y-103005000D02*
X172645000Y-100335000D01*
X140295000Y-108225000D02*
X143325000Y-109195000D01*
X182195000Y-78435000D02*
X181275000Y-74895000D01*
X126835000Y-69405000D02*
X125185000Y-72165000D01*
X169505000Y-101235000D02*
X171365000Y-98625000D01*
X133385000Y-109085000D02*
X136345000Y-110815000D01*
X160025000Y-51755000D02*
X156405000Y-50835000D01*
X174925000Y-91155000D02*
X175485000Y-88005000D01*
X123295000Y-65415000D02*
X121305000Y-68435000D01*
X133255000Y-55165000D02*
X130045000Y-57165000D01*
X141795000Y-118695000D02*
X145495000Y-119335000D01*
X175425000Y-81565000D02*
X174795000Y-78385000D01*
X180645000Y-67475000D02*
X178615000Y-64295000D01*
X121895000Y-106505000D02*
X124355000Y-109325000D01*
X120195000Y-67955000D02*
X118525000Y-71245000D01*
X177025000Y-100035000D02*
X178545000Y-96835000D01*
X127875000Y-67335000D02*
X125945000Y-70035000D01*
X131505000Y-114525000D02*
X134765000Y-116275000D01*
X169125000Y-67165000D02*
X166755000Y-64885000D01*
X126745000Y-112095000D02*
X129715000Y-114325000D01*
X180175000Y-76825000D02*
X179065000Y-73455000D01*
X139125000Y-53045000D02*
X135735000Y-54365000D01*
X143555000Y-110075000D02*
X146735000Y-110615000D01*
X145575000Y-115315000D02*
X149045000Y-115565000D01*
X178635000Y-65015000D02*
X176305000Y-62005000D01*
X180485000Y-76445000D02*
X179335000Y-73045000D01*
X155355000Y-110915000D02*
X158485000Y-109995000D01*
X175525000Y-109525000D02*
X177975000Y-106635000D01*
X126635000Y-64475000D02*
X124465000Y-67205000D01*
X155945000Y-120175000D02*
X159605000Y-119305000D01*
X173565000Y-68245000D02*
X171455000Y-65575000D01*
X175545000Y-96725000D02*
X176745000Y-93575000D01*
X177135000Y-98055000D02*
X178445000Y-94815000D01*
X172215000Y-99525000D02*
X173815000Y-96655000D01*
X132665000Y-62685000D02*
X130135000Y-64865000D01*
X168075000Y-55935000D02*
X164865000Y-54125000D01*
X175175000Y-103015000D02*
X177025000Y-100035000D01*
X136505000Y-53595000D02*
X133255000Y-55165000D01*
X122055000Y-97625000D02*
X123705000Y-100705000D01*
X181615000Y-83485000D02*
X181245000Y-79925000D01*
X118705000Y-99895000D02*
X120495000Y-103115000D01*
X134775000Y-105195000D02*
X137445000Y-106875000D01*
X128145000Y-62335000D02*
X125765000Y-64865000D01*
X170145000Y-105885000D02*
X172435000Y-103335000D01*
X180445000Y-90085000D02*
X180815000Y-86575000D01*
X120315000Y-88835000D02*
X120975000Y-92205000D01*
X124565000Y-67765000D02*
X122765000Y-70745000D01*
X117675000Y-86075000D02*
X118015000Y-89665000D01*
X132355000Y-108855000D02*
X135245000Y-110685000D01*
X171645000Y-67665000D02*
X169415000Y-65155000D01*
X146035000Y-58005000D02*
X142805000Y-58635000D01*
X175655000Y-84795000D02*
X175425000Y-81565000D01*
X146275000Y-112175000D02*
X149565000Y-112365000D01*
X134875000Y-52565000D02*
X131535000Y-54305000D01*
X156155000Y-111545000D02*
X159285000Y-110555000D01*
X128215000Y-104675000D02*
X130685000Y-107045000D01*
X119535000Y-72975000D02*
X118395000Y-76395000D01*
X160255000Y-115735000D02*
X163615000Y-114345000D01*
X130685000Y-107045000D02*
X133385000Y-109085000D01*
X170415000Y-60115000D02*
X167475000Y-57935000D01*
X180045000Y-84425000D02*
X179795000Y-81045000D01*
X123245000Y-99105000D02*
X125055000Y-102035000D01*
X147655000Y-119915000D02*
X151395000Y-119915000D01*
X136425000Y-117865000D02*
X139995000Y-119065000D01*
X175195000Y-83305000D02*
X174785000Y-80145000D01*
X180445000Y-84365000D02*
X180185000Y-80915000D01*
X157695000Y-53585000D02*
X154195000Y-52885000D01*
X167375000Y-113175000D02*
X170345000Y-111055000D01*
X124445000Y-89355000D02*
X125205000Y-92475000D01*
X154715000Y-115925000D02*
X158175000Y-115145000D01*
X120885000Y-102995000D02*
X123015000Y-105985000D01*
X134155000Y-112365000D02*
X137335000Y-113915000D01*
X118495000Y-96335000D02*
X119925000Y-99645000D01*
X124205000Y-99185000D02*
X126055000Y-102055000D01*
X136735000Y-117555000D02*
X140295000Y-118735000D01*
X121305000Y-68435000D02*
X119655000Y-71665000D01*
X154775000Y-57445000D02*
X151485000Y-57025000D01*
X148105000Y-58205000D02*
X144835000Y-58595000D01*
X127365000Y-106685000D02*
X129905000Y-108995000D01*
X162035000Y-59425000D02*
X158925000Y-58135000D01*
X121465000Y-81455000D02*
X121255000Y-84765000D01*
X120235000Y-77245000D02*
X119555000Y-80645000D01*
X184445000Y-85665000D02*
X184315000Y-81925000D01*
X174785000Y-80145000D02*
X173985000Y-77055000D01*
X161745000Y-114745000D02*
X164995000Y-113185000D01*
%TD*%
%TA.AperFunction,Conductor*%
%TO.N,GND*%
G36*
X149887493Y-60420550D02*
G01*
X153050267Y-60663094D01*
X153065481Y-60665200D01*
X156001094Y-61256199D01*
X156017029Y-61260510D01*
X158906269Y-62249445D01*
X158920363Y-62255244D01*
X161683762Y-63593312D01*
X161698196Y-63601516D01*
X164319013Y-65329313D01*
X164330862Y-65338166D01*
X166679630Y-67318120D01*
X166691217Y-67329224D01*
X168346631Y-69131614D01*
X168764155Y-69586207D01*
X168774653Y-69599288D01*
X170549977Y-72141009D01*
X170557746Y-72153659D01*
X172012553Y-74869299D01*
X172019497Y-74884645D01*
X173086101Y-77735384D01*
X173090445Y-77749445D01*
X173827823Y-80747472D01*
X173830722Y-80763865D01*
X174170096Y-83866716D01*
X174170827Y-83882409D01*
X174122327Y-86947727D01*
X174121108Y-86963329D01*
X173694435Y-89988823D01*
X173691212Y-90004447D01*
X172866550Y-93021744D01*
X172861410Y-93036760D01*
X171688085Y-95868254D01*
X171681106Y-95882490D01*
X170882860Y-97280691D01*
X170843571Y-97322897D01*
X170789592Y-97343180D01*
X170732230Y-97337291D01*
X170683499Y-97306465D01*
X170653604Y-97257156D01*
X170634527Y-97198443D01*
X170539041Y-97033057D01*
X170421237Y-96902222D01*
X170411253Y-96891134D01*
X170256752Y-96778882D01*
X170082288Y-96701206D01*
X169895487Y-96661500D01*
X169704513Y-96661500D01*
X169579978Y-96687970D01*
X169517711Y-96701206D01*
X169343246Y-96778883D01*
X169188747Y-96891133D01*
X169060958Y-97033057D01*
X169034685Y-97078564D01*
X168988565Y-97124684D01*
X168925565Y-97141564D01*
X168862564Y-97124682D01*
X168829417Y-97091533D01*
X168827902Y-97092898D01*
X168691252Y-96941133D01*
X168536753Y-96828883D01*
X168536752Y-96828882D01*
X168362288Y-96751206D01*
X168175487Y-96711500D01*
X167984513Y-96711500D01*
X167859979Y-96737970D01*
X167797711Y-96751206D01*
X167623246Y-96828883D01*
X167468747Y-96941133D01*
X167340958Y-97083057D01*
X167245472Y-97248443D01*
X167186458Y-97430070D01*
X167166496Y-97620000D01*
X167186458Y-97809929D01*
X167245472Y-97991556D01*
X167340958Y-98156942D01*
X167340960Y-98156944D01*
X167468747Y-98298866D01*
X167623248Y-98411118D01*
X167797712Y-98488794D01*
X167984513Y-98528500D01*
X168175487Y-98528500D01*
X168199691Y-98523355D01*
X168260618Y-98525482D01*
X168313415Y-98555964D01*
X168345722Y-98607664D01*
X168405473Y-98791557D01*
X168500958Y-98956942D01*
X168500960Y-98956944D01*
X168628747Y-99098866D01*
X168783248Y-99211118D01*
X168957712Y-99288794D01*
X169144513Y-99328500D01*
X169144515Y-99328500D01*
X169321520Y-99328500D01*
X169387796Y-99347339D01*
X169434253Y-99398222D01*
X169447000Y-99465934D01*
X169422225Y-99530227D01*
X168297268Y-101026240D01*
X168287030Y-101038215D01*
X167091334Y-102271613D01*
X167038780Y-102304072D01*
X166977113Y-102307652D01*
X166921155Y-102281492D01*
X166884355Y-102231880D01*
X166875557Y-102170746D01*
X166893504Y-102000000D01*
X166873542Y-101810072D01*
X166814527Y-101628444D01*
X166814527Y-101628443D01*
X166719041Y-101463057D01*
X166591252Y-101321133D01*
X166436753Y-101208883D01*
X166436752Y-101208882D01*
X166262288Y-101131206D01*
X166075487Y-101091500D01*
X165884513Y-101091500D01*
X165759979Y-101117970D01*
X165697711Y-101131206D01*
X165523246Y-101208883D01*
X165368747Y-101321133D01*
X165240958Y-101463057D01*
X165145472Y-101628443D01*
X165086458Y-101810070D01*
X165066496Y-102000000D01*
X165086458Y-102189929D01*
X165145472Y-102371556D01*
X165240958Y-102536942D01*
X165240960Y-102536944D01*
X165368747Y-102678866D01*
X165523248Y-102791118D01*
X165697712Y-102868794D01*
X165884513Y-102908500D01*
X166075487Y-102908500D01*
X166075488Y-102908500D01*
X166103818Y-102902477D01*
X166172806Y-102887814D01*
X166236307Y-102890709D01*
X166290315Y-102924238D01*
X166321080Y-102979866D01*
X166320772Y-103043435D01*
X166289469Y-103098762D01*
X166134196Y-103258930D01*
X166122200Y-103269809D01*
X163696474Y-105200689D01*
X163683995Y-105209444D01*
X161061401Y-106821854D01*
X161048314Y-106828873D01*
X158324460Y-108089018D01*
X158308985Y-108094975D01*
X155254056Y-109045398D01*
X155238129Y-109049238D01*
X152271122Y-109563131D01*
X152256345Y-109564799D01*
X151879146Y-109584964D01*
X151825822Y-109576211D01*
X151781068Y-109545925D01*
X151753117Y-109499677D01*
X151747110Y-109445976D01*
X151763504Y-109290000D01*
X151743542Y-109100072D01*
X151684527Y-108918444D01*
X151684527Y-108918443D01*
X151589041Y-108753057D01*
X151461252Y-108611133D01*
X151306753Y-108498883D01*
X151306752Y-108498882D01*
X151132288Y-108421206D01*
X150945487Y-108381500D01*
X150754513Y-108381500D01*
X150629978Y-108407970D01*
X150567711Y-108421206D01*
X150393246Y-108498883D01*
X150238747Y-108611133D01*
X150110958Y-108753057D01*
X150015472Y-108918443D01*
X149956457Y-109100073D01*
X149954418Y-109119474D01*
X149934896Y-109174749D01*
X149892474Y-109215209D01*
X149836337Y-109232094D01*
X148865394Y-109287882D01*
X148850580Y-109287860D01*
X146490928Y-109145531D01*
X146475196Y-109143584D01*
X143488449Y-108581143D01*
X143473351Y-108577320D01*
X140536155Y-107637031D01*
X140520632Y-107630901D01*
X138827462Y-106828873D01*
X137757156Y-106321885D01*
X137744002Y-106314665D01*
X135987492Y-105209444D01*
X135158573Y-104687876D01*
X135144013Y-104677185D01*
X134465820Y-104100000D01*
X138416496Y-104100000D01*
X138436458Y-104289929D01*
X138495472Y-104471556D01*
X138590958Y-104636942D01*
X138636819Y-104687876D01*
X138718747Y-104778866D01*
X138873248Y-104891118D01*
X139047712Y-104968794D01*
X139234513Y-105008500D01*
X139425485Y-105008500D01*
X139425487Y-105008500D01*
X139612288Y-104968794D01*
X139786752Y-104891118D01*
X139941253Y-104778866D01*
X140069040Y-104636944D01*
X140164527Y-104471556D01*
X140223542Y-104289928D01*
X140243504Y-104100000D01*
X140223542Y-103910072D01*
X140164527Y-103728444D01*
X140164527Y-103728443D01*
X140069041Y-103563057D01*
X139941252Y-103421133D01*
X139846360Y-103352190D01*
X139786752Y-103308882D01*
X139612288Y-103231206D01*
X139425487Y-103191500D01*
X139234513Y-103191500D01*
X139109978Y-103217970D01*
X139047711Y-103231206D01*
X138873246Y-103308883D01*
X138718747Y-103421133D01*
X138590958Y-103563057D01*
X138495472Y-103728443D01*
X138436458Y-103910070D01*
X138416496Y-104100000D01*
X134465820Y-104100000D01*
X133688707Y-103438627D01*
X132865184Y-102737756D01*
X132855827Y-102728930D01*
X132110472Y-101950000D01*
X143936496Y-101950000D01*
X143956458Y-102139929D01*
X144015472Y-102321556D01*
X144110958Y-102486942D01*
X144238747Y-102628866D01*
X144403962Y-102748902D01*
X144402643Y-102750716D01*
X144438477Y-102779734D01*
X144461850Y-102840623D01*
X144479145Y-103005175D01*
X144538159Y-103186801D01*
X144624699Y-103336691D01*
X144640890Y-103386520D01*
X144635413Y-103438627D01*
X144576458Y-103620070D01*
X144556496Y-103810000D01*
X144576458Y-103999929D01*
X144635472Y-104181556D01*
X144730958Y-104346942D01*
X144730960Y-104346944D01*
X144858747Y-104488866D01*
X145013248Y-104601118D01*
X145187712Y-104678794D01*
X145374513Y-104718500D01*
X145565485Y-104718500D01*
X145565487Y-104718500D01*
X145752288Y-104678794D01*
X145926752Y-104601118D01*
X146081253Y-104488866D01*
X146209040Y-104346944D01*
X146304527Y-104181556D01*
X146363542Y-103999928D01*
X146383504Y-103810000D01*
X146363542Y-103620072D01*
X146304527Y-103438444D01*
X146217986Y-103288552D01*
X146201796Y-103238723D01*
X146207272Y-103186622D01*
X146266229Y-103005174D01*
X146286191Y-102815246D01*
X146266229Y-102625318D01*
X146207214Y-102443690D01*
X146207214Y-102443689D01*
X146111728Y-102278303D01*
X146014878Y-102170740D01*
X145983940Y-102136380D01*
X145829439Y-102024128D01*
X145829438Y-102024127D01*
X145818725Y-102016344D01*
X145820042Y-102014530D01*
X145784207Y-101985508D01*
X145760836Y-101924623D01*
X145743542Y-101760072D01*
X145684527Y-101578444D01*
X145684527Y-101578443D01*
X145589041Y-101413057D01*
X145461252Y-101271133D01*
X145306753Y-101158883D01*
X145306752Y-101158882D01*
X145132288Y-101081206D01*
X144945487Y-101041500D01*
X144754513Y-101041500D01*
X144629978Y-101067970D01*
X144567711Y-101081206D01*
X144393246Y-101158883D01*
X144238747Y-101271133D01*
X144110958Y-101413057D01*
X144015472Y-101578443D01*
X143956458Y-101760070D01*
X143936496Y-101950000D01*
X132110472Y-101950000D01*
X130698814Y-100474753D01*
X130687748Y-100461473D01*
X128866976Y-97943382D01*
X128858366Y-97929704D01*
X128318076Y-96934999D01*
X131401496Y-96934999D01*
X131421458Y-97124929D01*
X131480472Y-97306556D01*
X131575958Y-97471942D01*
X131575960Y-97471944D01*
X131703747Y-97613866D01*
X131858248Y-97726118D01*
X132032712Y-97803794D01*
X132219513Y-97843500D01*
X132410485Y-97843500D01*
X132410487Y-97843500D01*
X132597288Y-97803794D01*
X132771752Y-97726118D01*
X132926253Y-97613866D01*
X133054040Y-97471944D01*
X133149527Y-97306556D01*
X133208542Y-97124928D01*
X133228504Y-96935000D01*
X133208542Y-96745072D01*
X133149527Y-96563444D01*
X133149527Y-96563443D01*
X133054041Y-96398057D01*
X132926252Y-96256133D01*
X132771753Y-96143883D01*
X132771752Y-96143882D01*
X132597288Y-96066206D01*
X132410487Y-96026500D01*
X132219513Y-96026500D01*
X132094978Y-96052970D01*
X132032711Y-96066206D01*
X131858246Y-96143883D01*
X131703747Y-96256133D01*
X131575958Y-96398057D01*
X131480472Y-96563443D01*
X131421458Y-96745070D01*
X131401496Y-96934999D01*
X128318076Y-96934999D01*
X127739604Y-95869999D01*
X139546496Y-95869999D01*
X139566458Y-96059929D01*
X139625472Y-96241556D01*
X139720958Y-96406942D01*
X139720960Y-96406944D01*
X139848747Y-96548866D01*
X140003248Y-96661118D01*
X140177712Y-96738794D01*
X140364513Y-96778500D01*
X140555485Y-96778500D01*
X140555487Y-96778500D01*
X140742288Y-96738794D01*
X140916752Y-96661118D01*
X141071253Y-96548866D01*
X141199040Y-96406944D01*
X141294527Y-96241556D01*
X141353542Y-96059928D01*
X141373504Y-95870000D01*
X141354261Y-95686918D01*
X141361940Y-95628598D01*
X141395261Y-95580116D01*
X141446960Y-95552045D01*
X141505766Y-95550506D01*
X141636439Y-95578281D01*
X141684512Y-95588500D01*
X141684513Y-95588500D01*
X141875485Y-95588500D01*
X141875487Y-95588500D01*
X142062288Y-95548794D01*
X142236752Y-95471118D01*
X142391253Y-95358866D01*
X142519040Y-95216944D01*
X142614527Y-95051556D01*
X142673542Y-94869928D01*
X142693504Y-94680000D01*
X142673542Y-94490072D01*
X142614527Y-94308444D01*
X142614527Y-94308443D01*
X142519041Y-94143057D01*
X142391252Y-94001133D01*
X142236753Y-93888883D01*
X142236752Y-93888882D01*
X142062288Y-93811206D01*
X141875487Y-93771500D01*
X141684513Y-93771500D01*
X141559979Y-93797970D01*
X141497711Y-93811206D01*
X141323246Y-93888883D01*
X141168747Y-94001133D01*
X141040958Y-94143057D01*
X140945472Y-94308443D01*
X140886458Y-94490070D01*
X140866496Y-94680000D01*
X140885738Y-94863077D01*
X140878059Y-94921402D01*
X140844738Y-94969883D01*
X140793039Y-94997954D01*
X140734233Y-94999493D01*
X140555487Y-94961500D01*
X140364513Y-94961500D01*
X140239979Y-94987970D01*
X140177711Y-95001206D01*
X140003246Y-95078883D01*
X139848747Y-95191133D01*
X139720958Y-95333057D01*
X139625472Y-95498443D01*
X139566458Y-95680070D01*
X139546496Y-95869999D01*
X127739604Y-95869999D01*
X127636441Y-95680070D01*
X127394296Y-95234266D01*
X127387680Y-95220040D01*
X126378646Y-92641395D01*
X142597892Y-92641395D01*
X142617854Y-92831325D01*
X142676868Y-93012952D01*
X142772354Y-93178338D01*
X142772356Y-93178340D01*
X142900143Y-93320262D01*
X143054644Y-93432514D01*
X143229108Y-93510190D01*
X143284143Y-93521888D01*
X143345471Y-93554497D01*
X143380201Y-93614651D01*
X143377777Y-93684070D01*
X143351458Y-93765069D01*
X143331496Y-93955000D01*
X143351458Y-94144929D01*
X143410472Y-94326556D01*
X143505958Y-94491942D01*
X143505960Y-94491944D01*
X143633747Y-94633866D01*
X143788248Y-94746118D01*
X143962712Y-94823794D01*
X144149513Y-94863500D01*
X144340485Y-94863500D01*
X144340487Y-94863500D01*
X144527288Y-94823794D01*
X144701752Y-94746118D01*
X144856253Y-94633866D01*
X144984040Y-94491944D01*
X145079527Y-94326556D01*
X145138542Y-94144928D01*
X145158504Y-93955000D01*
X145138542Y-93765072D01*
X145079527Y-93583444D01*
X145079527Y-93583443D01*
X144984041Y-93418057D01*
X144856252Y-93276133D01*
X144726988Y-93182217D01*
X144701752Y-93163882D01*
X144527288Y-93086206D01*
X144527284Y-93086204D01*
X144472253Y-93074507D01*
X144410923Y-93041897D01*
X144376193Y-92981742D01*
X144378617Y-92912328D01*
X144404938Y-92831324D01*
X144424900Y-92641396D01*
X144404938Y-92451468D01*
X144385596Y-92391941D01*
X146500605Y-92391941D01*
X146501643Y-92401153D01*
X146501643Y-92429363D01*
X146500670Y-92437992D01*
X146503537Y-92446184D01*
X146509814Y-92473688D01*
X146510850Y-92482890D01*
X146515775Y-92490727D01*
X146528019Y-92516151D01*
X146530900Y-92524385D01*
X146537075Y-92530560D01*
X146537331Y-92530880D01*
X146547219Y-92540768D01*
X147240865Y-93234415D01*
X147240866Y-93234416D01*
X147305584Y-93299134D01*
X147309807Y-93300611D01*
X147314054Y-93302098D01*
X147339475Y-93314339D01*
X147347076Y-93319115D01*
X147355993Y-93320119D01*
X147383504Y-93326398D01*
X147391974Y-93329362D01*
X147400892Y-93328357D01*
X147429109Y-93328357D01*
X147438026Y-93329362D01*
X147446491Y-93326399D01*
X147473999Y-93320121D01*
X147482924Y-93319116D01*
X147490526Y-93314338D01*
X147515944Y-93302097D01*
X147524415Y-93299134D01*
X147589134Y-93234415D01*
X157756691Y-83066856D01*
X157756698Y-83066852D01*
X157839132Y-82984418D01*
X157839132Y-82984417D01*
X157839134Y-82984416D01*
X157842099Y-82975940D01*
X157854339Y-82950525D01*
X157859116Y-82942924D01*
X157860120Y-82934004D01*
X157866400Y-82906495D01*
X157869362Y-82898028D01*
X157869363Y-82898026D01*
X157868357Y-82889097D01*
X157868358Y-82860885D01*
X157869362Y-82851974D01*
X157866399Y-82843507D01*
X157860120Y-82815991D01*
X157859116Y-82807076D01*
X157854340Y-82799475D01*
X157842098Y-82774055D01*
X157839134Y-82765584D01*
X157774416Y-82700866D01*
X157774415Y-82700865D01*
X157080801Y-82007252D01*
X157064415Y-81990866D01*
X157055947Y-81987903D01*
X157030524Y-81975659D01*
X157022922Y-81970882D01*
X157013993Y-81969876D01*
X156986492Y-81963600D01*
X156978023Y-81960637D01*
X156969102Y-81961642D01*
X156940898Y-81961642D01*
X156931975Y-81960637D01*
X156923495Y-81963604D01*
X156895999Y-81969879D01*
X156887074Y-81970884D01*
X156879469Y-81975663D01*
X156854058Y-81987900D01*
X156845585Y-81990864D01*
X156837392Y-81999057D01*
X156829198Y-82007252D01*
X146615603Y-92220846D01*
X146615420Y-92220962D01*
X146530831Y-92305551D01*
X146527782Y-92314265D01*
X146515545Y-92339676D01*
X146510916Y-92347042D01*
X146509942Y-92355691D01*
X146503667Y-92383190D01*
X146500605Y-92391941D01*
X144385596Y-92391941D01*
X144357526Y-92305551D01*
X144345923Y-92269839D01*
X144250437Y-92104453D01*
X144122648Y-91962529D01*
X143968149Y-91850279D01*
X143968148Y-91850278D01*
X143793684Y-91772602D01*
X143606883Y-91732896D01*
X143415909Y-91732896D01*
X143291374Y-91759366D01*
X143229107Y-91772602D01*
X143054642Y-91850279D01*
X142900143Y-91962529D01*
X142772354Y-92104453D01*
X142676868Y-92269839D01*
X142617854Y-92451466D01*
X142597892Y-92641395D01*
X126378646Y-92641395D01*
X126252784Y-92319748D01*
X126247860Y-92304299D01*
X126134727Y-91850278D01*
X125828165Y-90619999D01*
X143356496Y-90619999D01*
X143376458Y-90809929D01*
X143435472Y-90991556D01*
X143530958Y-91156942D01*
X143530960Y-91156944D01*
X143658747Y-91298866D01*
X143813248Y-91411118D01*
X143987712Y-91488794D01*
X144174513Y-91528500D01*
X144365485Y-91528500D01*
X144365487Y-91528500D01*
X144552288Y-91488794D01*
X144726752Y-91411118D01*
X144881253Y-91298866D01*
X145009040Y-91156944D01*
X145104527Y-90991556D01*
X145163542Y-90809928D01*
X145183504Y-90620000D01*
X145163542Y-90430072D01*
X145104527Y-90248444D01*
X145104527Y-90248443D01*
X145009041Y-90083057D01*
X144881252Y-89941133D01*
X144726753Y-89828883D01*
X144726752Y-89828882D01*
X144552288Y-89751206D01*
X144365487Y-89711500D01*
X144174513Y-89711500D01*
X144049978Y-89737970D01*
X143987711Y-89751206D01*
X143813246Y-89828883D01*
X143658747Y-89941133D01*
X143530958Y-90083057D01*
X143435472Y-90248443D01*
X143376458Y-90430070D01*
X143356496Y-90619999D01*
X125828165Y-90619999D01*
X125511011Y-89347209D01*
X125508199Y-89331997D01*
X125139712Y-86306523D01*
X125138791Y-86290504D01*
X125140252Y-86057563D01*
X125158185Y-83196991D01*
X125159288Y-83181130D01*
X125174525Y-83066852D01*
X125531439Y-80390000D01*
X146246496Y-80390000D01*
X146266458Y-80579929D01*
X146325472Y-80761556D01*
X146420958Y-80926942D01*
X146420960Y-80926944D01*
X146548747Y-81068866D01*
X146703248Y-81181118D01*
X146877712Y-81258794D01*
X147064513Y-81298500D01*
X147255485Y-81298500D01*
X147255487Y-81298500D01*
X147442288Y-81258794D01*
X147616752Y-81181118D01*
X147771253Y-81068866D01*
X147899040Y-80926944D01*
X147994527Y-80761556D01*
X148053542Y-80579928D01*
X148063684Y-80483426D01*
X148087058Y-80422536D01*
X148137743Y-80381490D01*
X148263235Y-80325618D01*
X148417736Y-80213366D01*
X148545523Y-80071444D01*
X148641010Y-79906056D01*
X148700025Y-79724428D01*
X148711810Y-79612298D01*
X150344197Y-79612298D01*
X150364159Y-79802228D01*
X150423173Y-79983855D01*
X150518659Y-80149241D01*
X150603852Y-80243857D01*
X150646448Y-80291165D01*
X150670229Y-80308443D01*
X150671862Y-80309629D01*
X150706921Y-80348565D01*
X150723113Y-80398394D01*
X150717636Y-80450502D01*
X150699158Y-80507369D01*
X150679197Y-80697298D01*
X150699159Y-80887228D01*
X150758173Y-81068855D01*
X150853659Y-81234241D01*
X150853661Y-81234243D01*
X150981448Y-81376165D01*
X151135949Y-81488417D01*
X151310413Y-81566093D01*
X151497214Y-81605799D01*
X151688186Y-81605799D01*
X151688188Y-81605799D01*
X151874989Y-81566093D01*
X152049453Y-81488417D01*
X152049455Y-81488415D01*
X152061551Y-81483030D01*
X152062936Y-81486142D01*
X152101863Y-81471185D01*
X152166306Y-81481384D01*
X152317712Y-81548794D01*
X152504513Y-81588500D01*
X152695485Y-81588500D01*
X152695487Y-81588500D01*
X152882288Y-81548794D01*
X153056752Y-81471118D01*
X153211253Y-81358866D01*
X153339040Y-81216944D01*
X153434527Y-81051556D01*
X153493542Y-80869928D01*
X153513504Y-80680000D01*
X153493542Y-80490072D01*
X153434527Y-80308444D01*
X153434527Y-80308443D01*
X153339041Y-80143057D01*
X153211252Y-80001133D01*
X153134002Y-79945008D01*
X153056752Y-79888882D01*
X152882288Y-79811206D01*
X152695487Y-79771500D01*
X152504513Y-79771500D01*
X152366491Y-79800837D01*
X152316107Y-79811547D01*
X152257298Y-79810007D01*
X152205599Y-79781936D01*
X152172278Y-79733453D01*
X152164600Y-79675134D01*
X152171205Y-79612299D01*
X152151243Y-79422371D01*
X152092228Y-79240743D01*
X152092228Y-79240742D01*
X151996742Y-79075356D01*
X151868953Y-78933432D01*
X151714454Y-78821182D01*
X151714453Y-78821181D01*
X151539989Y-78743505D01*
X151353188Y-78703799D01*
X151162214Y-78703799D01*
X151037680Y-78730269D01*
X150975412Y-78743505D01*
X150800947Y-78821182D01*
X150646448Y-78933432D01*
X150518659Y-79075356D01*
X150423173Y-79240742D01*
X150364159Y-79422369D01*
X150344197Y-79612298D01*
X148711810Y-79612298D01*
X148719987Y-79534500D01*
X148700025Y-79344572D01*
X148695546Y-79330789D01*
X148691294Y-79269977D01*
X148716091Y-79214283D01*
X148764130Y-79176749D01*
X148866712Y-79131078D01*
X149021213Y-79018826D01*
X149149000Y-78876904D01*
X149244487Y-78711516D01*
X149303502Y-78529888D01*
X149323464Y-78339960D01*
X149303502Y-78150032D01*
X149261101Y-78019535D01*
X149244487Y-77968403D01*
X149149001Y-77803017D01*
X149021212Y-77661093D01*
X148866713Y-77548843D01*
X148866712Y-77548842D01*
X148692248Y-77471166D01*
X148505447Y-77431460D01*
X148314473Y-77431460D01*
X148189938Y-77457930D01*
X148127671Y-77471166D01*
X147953206Y-77548843D01*
X147798707Y-77661093D01*
X147670918Y-77803017D01*
X147575432Y-77968403D01*
X147516418Y-78150030D01*
X147496456Y-78339960D01*
X147516418Y-78529891D01*
X147520895Y-78543671D01*
X147525146Y-78604486D01*
X147500350Y-78660178D01*
X147452310Y-78697711D01*
X147349729Y-78743383D01*
X147195230Y-78855633D01*
X147067441Y-78997557D01*
X146971955Y-79162943D01*
X146912941Y-79344570D01*
X146902798Y-79441075D01*
X146879424Y-79501964D01*
X146828738Y-79543009D01*
X146703248Y-79598881D01*
X146548747Y-79711133D01*
X146420958Y-79853057D01*
X146325472Y-80018443D01*
X146266458Y-80200070D01*
X146246496Y-80390000D01*
X125531439Y-80390000D01*
X125566519Y-80126900D01*
X125569657Y-80111134D01*
X126354623Y-77165091D01*
X126359746Y-77149852D01*
X127018322Y-75540000D01*
X153046496Y-75540000D01*
X153066458Y-75729929D01*
X153125472Y-75911556D01*
X153220958Y-76076942D01*
X153220960Y-76076944D01*
X153348747Y-76218866D01*
X153503248Y-76331118D01*
X153677712Y-76408794D01*
X153864513Y-76448500D01*
X154055485Y-76448500D01*
X154055487Y-76448500D01*
X154242288Y-76408794D01*
X154416752Y-76331118D01*
X154571253Y-76218866D01*
X154699040Y-76076944D01*
X154794527Y-75911556D01*
X154814528Y-75850000D01*
X155716496Y-75850000D01*
X155736458Y-76039929D01*
X155795472Y-76221556D01*
X155890958Y-76386942D01*
X155890960Y-76386944D01*
X156018747Y-76528866D01*
X156173248Y-76641118D01*
X156347712Y-76718794D01*
X156534513Y-76758500D01*
X156725485Y-76758500D01*
X156725487Y-76758500D01*
X156912288Y-76718794D01*
X157086752Y-76641118D01*
X157241253Y-76528866D01*
X157369040Y-76386944D01*
X157464527Y-76221556D01*
X157523542Y-76039928D01*
X157543504Y-75850000D01*
X157523542Y-75660072D01*
X157464527Y-75478444D01*
X157464527Y-75478443D01*
X157369041Y-75313057D01*
X157241252Y-75171133D01*
X157086753Y-75058883D01*
X157086752Y-75058882D01*
X156912288Y-74981206D01*
X156725487Y-74941500D01*
X156534513Y-74941500D01*
X156409979Y-74967970D01*
X156347711Y-74981206D01*
X156173246Y-75058883D01*
X156018747Y-75171133D01*
X155890958Y-75313057D01*
X155795472Y-75478443D01*
X155736458Y-75660070D01*
X155716496Y-75850000D01*
X154814528Y-75850000D01*
X154853542Y-75729928D01*
X154873504Y-75540000D01*
X154853542Y-75350072D01*
X154794527Y-75168444D01*
X154794527Y-75168443D01*
X154699041Y-75003057D01*
X154571252Y-74861133D01*
X154416753Y-74748883D01*
X154416752Y-74748882D01*
X154242288Y-74671206D01*
X154055487Y-74631500D01*
X153864513Y-74631500D01*
X153739979Y-74657970D01*
X153677711Y-74671206D01*
X153503246Y-74748883D01*
X153348747Y-74861133D01*
X153220958Y-75003057D01*
X153125472Y-75168443D01*
X153066458Y-75350070D01*
X153046496Y-75540000D01*
X127018322Y-75540000D01*
X127494284Y-74376538D01*
X127500728Y-74363116D01*
X128374059Y-72790000D01*
X164226496Y-72790000D01*
X164246458Y-72979929D01*
X164305472Y-73161556D01*
X164400958Y-73326942D01*
X164400960Y-73326944D01*
X164528747Y-73468866D01*
X164683248Y-73581118D01*
X164857712Y-73658794D01*
X165044513Y-73698500D01*
X165235485Y-73698500D01*
X165235487Y-73698500D01*
X165422288Y-73658794D01*
X165596752Y-73581118D01*
X165751253Y-73468866D01*
X165879040Y-73326944D01*
X165974527Y-73161556D01*
X166033542Y-72979928D01*
X166053504Y-72790000D01*
X166033542Y-72600072D01*
X165974527Y-72418444D01*
X165974527Y-72418443D01*
X165879041Y-72253057D01*
X165783642Y-72147106D01*
X165751253Y-72111134D01*
X165596752Y-71998882D01*
X165422288Y-71921206D01*
X165235487Y-71881500D01*
X165044513Y-71881500D01*
X164919979Y-71907970D01*
X164857711Y-71921206D01*
X164683246Y-71998883D01*
X164528747Y-72111133D01*
X164400958Y-72253057D01*
X164305472Y-72418443D01*
X164246458Y-72600070D01*
X164226496Y-72790000D01*
X128374059Y-72790000D01*
X129014915Y-71635638D01*
X129023749Y-71621907D01*
X130864827Y-69131609D01*
X130875457Y-69119040D01*
X132999050Y-66917873D01*
X133010243Y-66907592D01*
X133109440Y-66826944D01*
X135396587Y-64967474D01*
X135409808Y-64958072D01*
X138076415Y-63309624D01*
X138090727Y-63302005D01*
X140833916Y-62061269D01*
X140848206Y-62055825D01*
X143826879Y-61124383D01*
X143842761Y-61120530D01*
X146840929Y-60596578D01*
X146855311Y-60594911D01*
X149870606Y-60420393D01*
X149887493Y-60420550D01*
G37*
%TD.AperFunction*%
%TA.AperFunction,Conductor*%
G36*
X188736500Y-35217381D02*
G01*
X188782619Y-35263500D01*
X188799500Y-35326500D01*
X188799500Y-45454237D01*
X188799500Y-45545763D01*
X188803392Y-45553846D01*
X188803395Y-45553851D01*
X188812713Y-45580481D01*
X188814710Y-45589231D01*
X188820304Y-45596245D01*
X188835317Y-45620136D01*
X188839212Y-45628224D01*
X188846231Y-45633822D01*
X188866180Y-45653771D01*
X188871776Y-45660788D01*
X188879856Y-45664679D01*
X188879858Y-45664680D01*
X188903749Y-45679692D01*
X188910769Y-45685290D01*
X188919518Y-45687286D01*
X188946143Y-45696602D01*
X188954237Y-45700500D01*
X188977410Y-45700500D01*
X189045763Y-45700500D01*
X199173500Y-45700500D01*
X199236500Y-45717381D01*
X199282619Y-45763500D01*
X199299500Y-45826500D01*
X199299500Y-124173500D01*
X199282619Y-124236500D01*
X199236500Y-124282619D01*
X199173500Y-124299500D01*
X188954236Y-124299500D01*
X188946145Y-124303396D01*
X188919523Y-124312711D01*
X188910766Y-124314709D01*
X188903745Y-124320309D01*
X188879866Y-124335314D01*
X188871777Y-124339210D01*
X188866177Y-124346232D01*
X188846232Y-124366177D01*
X188839210Y-124371777D01*
X188835314Y-124379866D01*
X188820309Y-124403745D01*
X188814709Y-124410766D01*
X188812711Y-124419523D01*
X188803396Y-124446145D01*
X188799500Y-124454236D01*
X188799500Y-134673500D01*
X188782619Y-134736500D01*
X188736500Y-134782619D01*
X188673500Y-134799500D01*
X110326500Y-134799500D01*
X110263500Y-134782619D01*
X110217381Y-134736500D01*
X110200500Y-134673500D01*
X110200500Y-124454239D01*
X110200500Y-124454237D01*
X110196602Y-124446143D01*
X110187286Y-124419518D01*
X110185290Y-124410769D01*
X110179692Y-124403749D01*
X110164680Y-124379858D01*
X110160788Y-124371777D01*
X110160788Y-124371776D01*
X110153771Y-124366180D01*
X110133822Y-124346231D01*
X110128224Y-124339212D01*
X110120136Y-124335317D01*
X110096247Y-124320305D01*
X110089231Y-124314710D01*
X110080478Y-124312712D01*
X110053851Y-124303395D01*
X110045763Y-124299500D01*
X110022590Y-124299500D01*
X99826500Y-124299500D01*
X99763500Y-124282619D01*
X99717381Y-124236500D01*
X99700500Y-124173500D01*
X99700500Y-123050000D01*
X133016496Y-123050000D01*
X133036458Y-123239929D01*
X133095472Y-123421556D01*
X133190958Y-123586942D01*
X133318747Y-123728866D01*
X133473248Y-123841118D01*
X133647712Y-123918794D01*
X133834513Y-123958500D01*
X134025485Y-123958500D01*
X134025487Y-123958500D01*
X134212288Y-123918794D01*
X134386752Y-123841118D01*
X134541253Y-123728866D01*
X134669040Y-123586944D01*
X134764527Y-123421556D01*
X134823542Y-123239928D01*
X134843504Y-123050000D01*
X134823542Y-122860072D01*
X134764527Y-122678444D01*
X134764527Y-122678443D01*
X134669041Y-122513057D01*
X134577266Y-122411131D01*
X134541253Y-122371134D01*
X134529705Y-122362744D01*
X134386753Y-122258883D01*
X134386752Y-122258882D01*
X134212288Y-122181206D01*
X134025487Y-122141500D01*
X133834513Y-122141500D01*
X133747817Y-122159928D01*
X133647711Y-122181206D01*
X133473246Y-122258883D01*
X133318747Y-122371133D01*
X133190958Y-122513057D01*
X133095472Y-122678443D01*
X133036458Y-122860070D01*
X133016496Y-123050000D01*
X99700500Y-123050000D01*
X99700500Y-85000000D01*
X107361562Y-85000000D01*
X107381297Y-85351392D01*
X107440250Y-85698367D01*
X107537682Y-86036561D01*
X107672367Y-86361720D01*
X107820822Y-86630329D01*
X107842609Y-86669749D01*
X108046271Y-86956783D01*
X108280790Y-87219210D01*
X108543217Y-87453729D01*
X108830251Y-87657391D01*
X109138283Y-87827634D01*
X109463440Y-87962318D01*
X109801632Y-88059750D01*
X110148607Y-88118703D01*
X110500000Y-88138437D01*
X110851393Y-88118703D01*
X111198368Y-88059750D01*
X111536560Y-87962318D01*
X111861717Y-87827634D01*
X112169749Y-87657391D01*
X112456783Y-87453729D01*
X112719210Y-87219210D01*
X112953729Y-86956783D01*
X113157391Y-86669749D01*
X113255055Y-86493038D01*
X113299058Y-86446826D01*
X113360060Y-86428098D01*
X113422415Y-86441660D01*
X113470129Y-86484034D01*
X113490963Y-86544350D01*
X113719145Y-89518580D01*
X113719222Y-89536790D01*
X113717521Y-89561721D01*
X113724717Y-89600557D01*
X113726304Y-89612709D01*
X113732965Y-89645198D01*
X113733423Y-89647548D01*
X114402080Y-93256327D01*
X114404095Y-93274419D01*
X114405060Y-93299424D01*
X114416343Y-93337245D01*
X114419207Y-93349119D01*
X114429303Y-93380760D01*
X114430006Y-93383037D01*
X115492121Y-96943089D01*
X115496067Y-96960966D01*
X115499624Y-96985410D01*
X115514962Y-97022115D01*
X115519221Y-97034046D01*
X115519335Y-97034304D01*
X115532423Y-97063961D01*
X115533376Y-97066182D01*
X116127839Y-98488793D01*
X116958705Y-100477143D01*
X116964611Y-100494869D01*
X116970380Y-100517712D01*
X116989957Y-100553660D01*
X116995555Y-100565329D01*
X116995845Y-100566024D01*
X117011382Y-100593066D01*
X117012784Y-100595571D01*
X118752641Y-103790224D01*
X118760098Y-103806604D01*
X118769031Y-103830646D01*
X118791191Y-103862553D01*
X118797130Y-103872177D01*
X118817153Y-103899966D01*
X118818414Y-103901748D01*
X120943429Y-106961377D01*
X120952673Y-106976973D01*
X120963950Y-106999561D01*
X120989655Y-107029204D01*
X120996955Y-107038597D01*
X121010944Y-107054143D01*
X121013724Y-107057233D01*
X121019381Y-107063519D01*
X121020882Y-107065217D01*
X123198249Y-109576211D01*
X123459814Y-109877854D01*
X123470859Y-109892658D01*
X123483879Y-109913077D01*
X123513296Y-109940583D01*
X123522424Y-109950059D01*
X123522493Y-109950138D01*
X123522496Y-109950140D01*
X123522498Y-109950143D01*
X123546199Y-109971386D01*
X123548156Y-109973177D01*
X126272452Y-112520443D01*
X126284729Y-112533695D01*
X126300629Y-112553543D01*
X126331867Y-112576997D01*
X126340771Y-112584466D01*
X126368235Y-112604329D01*
X126370049Y-112605666D01*
X129289687Y-114797852D01*
X129303692Y-114810083D01*
X129320442Y-114827047D01*
X129355288Y-114847954D01*
X129366122Y-114855243D01*
X129366499Y-114855526D01*
X129366505Y-114855529D01*
X129366506Y-114855530D01*
X129393864Y-114871135D01*
X129396249Y-114872531D01*
X129537251Y-114957132D01*
X132592857Y-116790496D01*
X132607464Y-116800732D01*
X132627757Y-116817212D01*
X132662593Y-116833220D01*
X132671948Y-116838157D01*
X132673237Y-116838724D01*
X132673243Y-116838728D01*
X132704259Y-116852383D01*
X132706003Y-116853168D01*
X136110415Y-118417625D01*
X136126377Y-118426411D01*
X136147297Y-118439985D01*
X136184789Y-118452587D01*
X136196260Y-118457136D01*
X136196692Y-118457272D01*
X136227789Y-118467065D01*
X136230015Y-118467789D01*
X139740501Y-119647785D01*
X139757441Y-119654892D01*
X139779275Y-119665991D01*
X139779277Y-119665992D01*
X139818323Y-119674680D01*
X139830808Y-119678157D01*
X139830934Y-119678182D01*
X139830936Y-119678183D01*
X139862424Y-119684519D01*
X139864840Y-119685030D01*
X143443200Y-120481315D01*
X143460793Y-120486602D01*
X143473278Y-120491371D01*
X143483695Y-120495350D01*
X143488587Y-120495907D01*
X143523409Y-120499880D01*
X143536144Y-120502017D01*
X143536295Y-120502031D01*
X143536299Y-120502032D01*
X143568314Y-120505027D01*
X143570839Y-120505289D01*
X146235095Y-120809169D01*
X146287360Y-120827363D01*
X146326789Y-120866200D01*
X146345772Y-120918187D01*
X146340647Y-120973292D01*
X146302342Y-121091185D01*
X146286458Y-121140072D01*
X146277962Y-121220911D01*
X146266496Y-121330000D01*
X146286458Y-121519929D01*
X146345472Y-121701556D01*
X146440958Y-121866942D01*
X146440960Y-121866944D01*
X146568747Y-122008866D01*
X146723248Y-122121118D01*
X146786337Y-122149206D01*
X146839105Y-122193205D01*
X146860947Y-122258346D01*
X146845366Y-122325261D01*
X146672367Y-122638279D01*
X146537682Y-122963438D01*
X146440250Y-123301632D01*
X146381297Y-123648607D01*
X146361562Y-124000000D01*
X146378947Y-124309553D01*
X146381297Y-124351393D01*
X146440250Y-124698368D01*
X146488965Y-124867463D01*
X146537682Y-125036561D01*
X146672367Y-125361720D01*
X146842605Y-125669742D01*
X146842609Y-125669749D01*
X147046271Y-125956783D01*
X147280790Y-126219210D01*
X147543217Y-126453729D01*
X147830251Y-126657391D01*
X148138283Y-126827634D01*
X148463440Y-126962318D01*
X148801632Y-127059750D01*
X149148607Y-127118703D01*
X149500000Y-127138437D01*
X149851393Y-127118703D01*
X150198368Y-127059750D01*
X150536560Y-126962318D01*
X150861717Y-126827634D01*
X151169749Y-126657391D01*
X151456783Y-126453729D01*
X151719210Y-126219210D01*
X151953729Y-125956783D01*
X152157391Y-125669749D01*
X152327634Y-125361717D01*
X152462318Y-125036560D01*
X152559750Y-124698368D01*
X152618703Y-124351393D01*
X152638437Y-124000000D01*
X152625417Y-123768173D01*
X152637051Y-123707806D01*
X152675867Y-123660126D01*
X152732626Y-123636491D01*
X152793811Y-123642529D01*
X152844856Y-123676801D01*
X152918747Y-123758866D01*
X153073248Y-123871118D01*
X153247712Y-123948794D01*
X153434513Y-123988500D01*
X153625485Y-123988500D01*
X153625487Y-123988500D01*
X153812288Y-123948794D01*
X153986752Y-123871118D01*
X154141253Y-123758866D01*
X154269040Y-123616944D01*
X154364527Y-123451556D01*
X154423542Y-123269928D01*
X154443504Y-123080000D01*
X154423542Y-122890072D01*
X154364527Y-122708444D01*
X154363843Y-122707259D01*
X154347650Y-122657428D01*
X154353127Y-122605319D01*
X154379323Y-122559947D01*
X154409040Y-122526944D01*
X154504527Y-122361556D01*
X154563542Y-122179928D01*
X154583504Y-121990000D01*
X154581402Y-121970000D01*
X156520996Y-121970000D01*
X156540958Y-122159929D01*
X156599972Y-122341556D01*
X156695458Y-122506942D01*
X156813714Y-122638279D01*
X156823247Y-122648866D01*
X156858268Y-122674310D01*
X156893326Y-122713245D01*
X156909517Y-122763075D01*
X156904040Y-122815181D01*
X156876459Y-122900068D01*
X156876458Y-122900072D01*
X156860700Y-123049999D01*
X156856496Y-123089999D01*
X156876458Y-123279929D01*
X156935472Y-123461556D01*
X157030958Y-123626942D01*
X157030960Y-123626944D01*
X157158747Y-123768866D01*
X157313248Y-123881118D01*
X157487712Y-123958794D01*
X157674513Y-123998500D01*
X157865485Y-123998500D01*
X157865487Y-123998500D01*
X158052288Y-123958794D01*
X158226752Y-123881118D01*
X158381253Y-123768866D01*
X158509040Y-123626944D01*
X158604527Y-123461556D01*
X158663542Y-123279928D01*
X158683504Y-123090000D01*
X158672994Y-122990000D01*
X187296496Y-122990000D01*
X187316458Y-123179929D01*
X187375472Y-123361556D01*
X187470958Y-123526942D01*
X187561000Y-123626944D01*
X187598747Y-123668866D01*
X187753248Y-123781118D01*
X187927712Y-123858794D01*
X188114513Y-123898500D01*
X188305485Y-123898500D01*
X188305487Y-123898500D01*
X188492288Y-123858794D01*
X188666752Y-123781118D01*
X188821253Y-123668866D01*
X188949040Y-123526944D01*
X189044527Y-123361556D01*
X189103542Y-123179928D01*
X189123504Y-122990000D01*
X189103542Y-122800072D01*
X189054412Y-122648866D01*
X189044527Y-122618443D01*
X188949041Y-122453057D01*
X188821252Y-122311133D01*
X188666753Y-122198883D01*
X188666752Y-122198882D01*
X188492288Y-122121206D01*
X188305487Y-122081500D01*
X188114513Y-122081500D01*
X187989979Y-122107970D01*
X187927711Y-122121206D01*
X187753246Y-122198883D01*
X187598747Y-122311133D01*
X187470958Y-122453057D01*
X187375472Y-122618443D01*
X187316458Y-122800070D01*
X187296496Y-122990000D01*
X158672994Y-122990000D01*
X158663542Y-122900072D01*
X158604527Y-122718444D01*
X158604527Y-122718443D01*
X158509041Y-122553057D01*
X158429463Y-122464677D01*
X158381253Y-122411134D01*
X158381252Y-122411133D01*
X158381250Y-122411131D01*
X158346230Y-122385687D01*
X158311172Y-122346751D01*
X158294982Y-122296921D01*
X158300458Y-122244818D01*
X158328042Y-122159928D01*
X158348004Y-121970000D01*
X158328042Y-121780072D01*
X158276537Y-121621556D01*
X158269027Y-121598443D01*
X158173541Y-121433057D01*
X158045752Y-121291133D01*
X157926387Y-121204409D01*
X157891252Y-121178882D01*
X157716788Y-121101206D01*
X157529987Y-121061500D01*
X157339013Y-121061500D01*
X157214479Y-121087970D01*
X157152211Y-121101206D01*
X156977746Y-121178883D01*
X156823247Y-121291133D01*
X156695458Y-121433057D01*
X156599972Y-121598443D01*
X156540958Y-121780070D01*
X156520996Y-121970000D01*
X154581402Y-121970000D01*
X154563542Y-121800072D01*
X154504527Y-121618444D01*
X154504527Y-121618443D01*
X154409041Y-121453057D01*
X154281252Y-121311133D01*
X154209225Y-121258802D01*
X154170702Y-121213443D01*
X154157294Y-121155463D01*
X154171990Y-121097796D01*
X154211513Y-121053306D01*
X154267043Y-121031917D01*
X155971124Y-120810432D01*
X155989604Y-120809402D01*
X156013643Y-120809835D01*
X156053019Y-120800474D01*
X156065894Y-120798115D01*
X156066175Y-120798079D01*
X156082067Y-120793937D01*
X156096845Y-120790087D01*
X156099478Y-120789431D01*
X159697421Y-119934182D01*
X159715559Y-119931249D01*
X159739914Y-119929120D01*
X159777689Y-119915818D01*
X159790191Y-119912142D01*
X159790269Y-119912112D01*
X159790280Y-119912110D01*
X159820402Y-119900804D01*
X159822635Y-119899992D01*
X163313325Y-118670875D01*
X163330953Y-118666073D01*
X163355313Y-118661302D01*
X163391123Y-118644234D01*
X163402661Y-118639469D01*
X163432015Y-118624771D01*
X163434196Y-118623704D01*
X166797668Y-117020646D01*
X166814707Y-117013997D01*
X166838353Y-117006697D01*
X166838353Y-117006696D01*
X166838356Y-117006696D01*
X166872212Y-116985901D01*
X166883256Y-116979901D01*
X166883532Y-116979723D01*
X166883536Y-116979722D01*
X166910887Y-116962173D01*
X166912831Y-116960953D01*
X170099620Y-115003634D01*
X170115776Y-114995257D01*
X170138710Y-114985399D01*
X170170002Y-114961245D01*
X170180135Y-114954254D01*
X170180508Y-114953954D01*
X170180512Y-114953952D01*
X170205992Y-114933494D01*
X170207715Y-114932138D01*
X173138188Y-112670364D01*
X173153468Y-112660255D01*
X173174928Y-112648207D01*
X173203769Y-112620632D01*
X173213467Y-112612296D01*
X173213610Y-112612153D01*
X173213616Y-112612149D01*
X173236520Y-112589353D01*
X173238205Y-112587709D01*
X175922451Y-110021452D01*
X175936682Y-110009717D01*
X175956473Y-109995700D01*
X175982508Y-109964987D01*
X175991541Y-109955400D01*
X175991583Y-109955361D01*
X176011708Y-109930584D01*
X176013331Y-109928628D01*
X178422574Y-107086706D01*
X178435333Y-107073697D01*
X178454004Y-107057234D01*
X178476262Y-107024474D01*
X178483768Y-107014604D01*
X178483997Y-107014253D01*
X178501800Y-106986929D01*
X178503053Y-106985045D01*
X180587639Y-103917166D01*
X180599090Y-103902718D01*
X180615502Y-103884871D01*
X180634524Y-103849390D01*
X180641342Y-103838133D01*
X180641383Y-103838074D01*
X180655889Y-103809597D01*
X180657044Y-103807387D01*
X182407332Y-100542804D01*
X182417054Y-100527450D01*
X182431939Y-100507324D01*
X182446775Y-100470754D01*
X182451959Y-100459709D01*
X182452147Y-100459217D01*
X182452150Y-100459213D01*
X182463848Y-100428732D01*
X182464688Y-100426601D01*
X183861144Y-96984632D01*
X183869277Y-96968154D01*
X183881685Y-96947048D01*
X183892744Y-96908602D01*
X183896976Y-96896360D01*
X183905251Y-96865221D01*
X183905936Y-96862745D01*
X183915677Y-96828883D01*
X184938547Y-93273184D01*
X184944853Y-93256054D01*
X184955098Y-93233435D01*
X184961958Y-93194381D01*
X184964768Y-93182217D01*
X184965372Y-93178340D01*
X184969819Y-93149765D01*
X184970202Y-93147452D01*
X185609231Y-89509899D01*
X185613782Y-89491908D01*
X185621332Y-89469240D01*
X185624177Y-89428746D01*
X185625771Y-89415755D01*
X185625840Y-89415360D01*
X185625841Y-89415357D01*
X185627365Y-89383771D01*
X185627518Y-89381196D01*
X185795581Y-86989518D01*
X185814585Y-86931314D01*
X185858784Y-86888939D01*
X185917738Y-86872403D01*
X185977527Y-86885609D01*
X186024031Y-86925440D01*
X186046267Y-86956779D01*
X186075527Y-86989521D01*
X186280790Y-87219210D01*
X186543217Y-87453729D01*
X186830251Y-87657391D01*
X187138283Y-87827634D01*
X187463440Y-87962318D01*
X187801632Y-88059750D01*
X188148607Y-88118703D01*
X188500000Y-88138437D01*
X188851393Y-88118703D01*
X189198368Y-88059750D01*
X189536560Y-87962318D01*
X189861717Y-87827634D01*
X190169749Y-87657391D01*
X190456783Y-87453729D01*
X190719210Y-87219210D01*
X190953729Y-86956783D01*
X191157391Y-86669749D01*
X191327634Y-86361717D01*
X191462318Y-86036560D01*
X191559750Y-85698368D01*
X191618703Y-85351393D01*
X191638437Y-85000000D01*
X191618703Y-84648607D01*
X191559750Y-84301632D01*
X191462318Y-83963440D01*
X191327634Y-83638283D01*
X191157391Y-83330251D01*
X190953729Y-83043217D01*
X190719210Y-82780790D01*
X190456783Y-82546271D01*
X190169749Y-82342609D01*
X190169742Y-82342605D01*
X189861720Y-82172367D01*
X189536561Y-82037682D01*
X189347498Y-81983214D01*
X189198368Y-81940250D01*
X188851393Y-81881297D01*
X188832707Y-81880247D01*
X188500000Y-81861562D01*
X188148607Y-81881297D01*
X187801632Y-81940250D01*
X187463438Y-82037682D01*
X187138279Y-82172367D01*
X186830257Y-82342605D01*
X186543215Y-82546272D01*
X186280790Y-82780790D01*
X186046267Y-83043221D01*
X186015575Y-83086477D01*
X185968364Y-83126658D01*
X185907705Y-83139460D01*
X185848283Y-83121784D01*
X185804483Y-83077909D01*
X185786910Y-83018459D01*
X185740184Y-81816037D01*
X185740818Y-81797626D01*
X185743430Y-81773441D01*
X185743430Y-81773438D01*
X185737675Y-81733692D01*
X185736476Y-81720588D01*
X185736475Y-81720584D01*
X185736475Y-81720575D01*
X185731216Y-81688907D01*
X185730842Y-81686494D01*
X185199968Y-78019523D01*
X185198670Y-78001097D01*
X185198746Y-77976942D01*
X185188838Y-77937851D01*
X185186273Y-77924932D01*
X185186253Y-77924788D01*
X185177774Y-77894086D01*
X185177115Y-77891593D01*
X184272526Y-74322399D01*
X184269351Y-74304575D01*
X184266714Y-74279402D01*
X184253075Y-74242692D01*
X184249570Y-74231437D01*
X184237251Y-74200038D01*
X184236486Y-74198038D01*
X182928308Y-70676779D01*
X182923160Y-70659022D01*
X182918161Y-70635421D01*
X182900239Y-70599257D01*
X182895023Y-70587183D01*
X182894963Y-70587021D01*
X182880250Y-70558854D01*
X182879033Y-70556463D01*
X182169661Y-69124976D01*
X181277772Y-67325175D01*
X181236822Y-67242539D01*
X181229991Y-67225846D01*
X181222037Y-67201587D01*
X181201085Y-67168767D01*
X181195444Y-67158777D01*
X181194930Y-67158002D01*
X181176562Y-67130316D01*
X181175382Y-67128503D01*
X181145132Y-67081116D01*
X179261243Y-64129999D01*
X188656496Y-64129999D01*
X188676458Y-64319929D01*
X188735472Y-64501556D01*
X188830958Y-64666942D01*
X188861730Y-64701118D01*
X188958747Y-64808866D01*
X189047009Y-64872992D01*
X189088053Y-64923678D01*
X189098257Y-64988097D01*
X189086496Y-65099999D01*
X189106458Y-65289929D01*
X189165472Y-65471556D01*
X189260958Y-65636942D01*
X189260960Y-65636944D01*
X189388747Y-65778866D01*
X189543248Y-65891118D01*
X189717712Y-65968794D01*
X189824423Y-65991476D01*
X189879215Y-66018200D01*
X189915049Y-66067521D01*
X189923534Y-66127892D01*
X189906496Y-66289999D01*
X189926458Y-66479929D01*
X189985472Y-66661556D01*
X190080958Y-66826942D01*
X190208746Y-66968865D01*
X190208747Y-66968866D01*
X190363248Y-67081118D01*
X190537712Y-67158794D01*
X190724513Y-67198500D01*
X190915485Y-67198500D01*
X190915487Y-67198500D01*
X191102288Y-67158794D01*
X191276752Y-67081118D01*
X191431253Y-66968866D01*
X191559040Y-66826944D01*
X191654527Y-66661556D01*
X191713542Y-66479928D01*
X191733504Y-66290000D01*
X191713542Y-66100072D01*
X191654527Y-65918444D01*
X191654527Y-65918443D01*
X191559041Y-65753057D01*
X191431252Y-65611133D01*
X191276753Y-65498883D01*
X191276752Y-65498882D01*
X191102288Y-65421206D01*
X191102284Y-65421204D01*
X190995578Y-65398523D01*
X190940783Y-65371798D01*
X190904950Y-65322477D01*
X190896465Y-65262110D01*
X190913504Y-65100000D01*
X190893542Y-64910072D01*
X190850887Y-64778793D01*
X190834527Y-64728443D01*
X190739041Y-64563057D01*
X190611252Y-64421133D01*
X190522991Y-64357007D01*
X190481945Y-64306319D01*
X190471742Y-64241900D01*
X190483504Y-64130000D01*
X190463542Y-63940072D01*
X190453771Y-63910000D01*
X193546496Y-63910000D01*
X193566458Y-64099929D01*
X193625472Y-64281556D01*
X193720958Y-64446942D01*
X193720960Y-64446944D01*
X193848747Y-64588866D01*
X194003248Y-64701118D01*
X194177712Y-64778794D01*
X194364513Y-64818500D01*
X194555485Y-64818500D01*
X194555487Y-64818500D01*
X194672762Y-64793572D01*
X194733687Y-64795700D01*
X194786484Y-64826182D01*
X194818790Y-64877883D01*
X194865472Y-65021555D01*
X194960958Y-65186942D01*
X194960960Y-65186944D01*
X195088747Y-65328866D01*
X195243248Y-65441118D01*
X195417712Y-65518794D01*
X195604513Y-65558500D01*
X195795486Y-65558500D01*
X195795487Y-65558500D01*
X195845040Y-65547967D01*
X195903844Y-65549506D01*
X195955544Y-65577576D01*
X195988866Y-65626057D01*
X195996545Y-65684382D01*
X195986496Y-65779998D01*
X196006458Y-65969929D01*
X196065472Y-66151556D01*
X196160958Y-66316942D01*
X196160960Y-66316944D01*
X196288747Y-66458866D01*
X196443248Y-66571118D01*
X196617712Y-66648794D01*
X196804513Y-66688500D01*
X196995485Y-66688500D01*
X196995487Y-66688500D01*
X197182288Y-66648794D01*
X197356752Y-66571118D01*
X197511253Y-66458866D01*
X197639040Y-66316944D01*
X197734527Y-66151556D01*
X197751081Y-66100605D01*
X197783385Y-66048908D01*
X197836183Y-66018425D01*
X197897109Y-66016298D01*
X197954513Y-66028500D01*
X198145485Y-66028500D01*
X198145487Y-66028500D01*
X198332288Y-65988794D01*
X198506752Y-65911118D01*
X198661253Y-65798866D01*
X198789040Y-65656944D01*
X198884527Y-65491556D01*
X198943542Y-65309928D01*
X198963504Y-65120000D01*
X198943542Y-64930072D01*
X198907290Y-64818500D01*
X198884527Y-64748443D01*
X198789041Y-64583057D01*
X198666484Y-64446944D01*
X198661253Y-64441134D01*
X198633725Y-64421134D01*
X198584002Y-64385008D01*
X198506752Y-64328882D01*
X198332288Y-64251206D01*
X198145487Y-64211500D01*
X197954513Y-64211500D01*
X197829978Y-64237970D01*
X197767711Y-64251206D01*
X197593246Y-64328883D01*
X197438747Y-64441133D01*
X197310958Y-64583057D01*
X197215473Y-64748441D01*
X197198918Y-64799392D01*
X197166611Y-64851091D01*
X197113815Y-64881573D01*
X197052889Y-64883701D01*
X197022168Y-64877171D01*
X196995487Y-64871500D01*
X196804513Y-64871500D01*
X196754959Y-64882032D01*
X196696153Y-64880493D01*
X196644453Y-64852422D01*
X196611133Y-64803940D01*
X196603454Y-64745617D01*
X196613504Y-64650000D01*
X196593542Y-64460072D01*
X196550916Y-64328883D01*
X196534527Y-64278443D01*
X196439041Y-64113057D01*
X196311252Y-63971133D01*
X196207776Y-63895953D01*
X196156752Y-63858882D01*
X195982288Y-63781206D01*
X195795487Y-63741500D01*
X195604513Y-63741500D01*
X195569403Y-63748962D01*
X195487239Y-63766427D01*
X195426313Y-63764299D01*
X195373516Y-63733817D01*
X195341210Y-63682117D01*
X195294526Y-63538442D01*
X195199041Y-63373057D01*
X195071252Y-63231133D01*
X194916753Y-63118883D01*
X194916752Y-63118882D01*
X194742288Y-63041206D01*
X194555487Y-63001500D01*
X194364513Y-63001500D01*
X194239979Y-63027970D01*
X194177711Y-63041206D01*
X194003246Y-63118883D01*
X193848747Y-63231133D01*
X193720958Y-63373057D01*
X193625472Y-63538443D01*
X193566458Y-63720070D01*
X193546496Y-63910000D01*
X190453771Y-63910000D01*
X190407121Y-63766427D01*
X190404527Y-63758443D01*
X190309041Y-63593057D01*
X190181252Y-63451133D01*
X190026753Y-63338883D01*
X190026752Y-63338882D01*
X189852288Y-63261206D01*
X189665487Y-63221500D01*
X189474513Y-63221500D01*
X189349979Y-63247970D01*
X189287711Y-63261206D01*
X189113246Y-63338883D01*
X188958746Y-63451134D01*
X188948705Y-63462286D01*
X188898163Y-63496376D01*
X188837533Y-63502748D01*
X188831007Y-63500111D01*
X188840852Y-63546421D01*
X188824049Y-63605024D01*
X188735472Y-63758445D01*
X188676458Y-63940070D01*
X188656496Y-64129999D01*
X179261243Y-64129999D01*
X179178939Y-64001069D01*
X179170186Y-63984852D01*
X179160223Y-63962646D01*
X179135198Y-63931260D01*
X179127546Y-63920555D01*
X179107083Y-63895953D01*
X179105434Y-63893928D01*
X178225275Y-62790000D01*
X187086496Y-62790000D01*
X187106458Y-62979929D01*
X187165472Y-63161556D01*
X187260958Y-63326942D01*
X187342273Y-63417251D01*
X187388747Y-63468866D01*
X187543248Y-63581118D01*
X187717712Y-63658794D01*
X187904513Y-63698500D01*
X188095485Y-63698500D01*
X188095487Y-63698500D01*
X188282288Y-63658794D01*
X188456752Y-63581118D01*
X188611253Y-63468866D01*
X188621294Y-63457714D01*
X188671831Y-63423625D01*
X188732462Y-63417251D01*
X188738990Y-63419888D01*
X188729147Y-63373576D01*
X188745951Y-63314974D01*
X188794356Y-63231134D01*
X188834527Y-63161556D01*
X188893542Y-62979928D01*
X188913504Y-62790000D01*
X188893542Y-62600072D01*
X188834527Y-62418444D01*
X188834527Y-62418443D01*
X188739041Y-62253057D01*
X188611252Y-62111133D01*
X188456753Y-61998883D01*
X188456752Y-61998882D01*
X188282288Y-61921206D01*
X188095487Y-61881500D01*
X187904513Y-61881500D01*
X187779979Y-61907970D01*
X187717711Y-61921206D01*
X187543246Y-61998883D01*
X187388747Y-62111133D01*
X187260958Y-62253057D01*
X187165472Y-62418443D01*
X187106458Y-62600070D01*
X187086496Y-62790000D01*
X178225275Y-62790000D01*
X177594519Y-61998883D01*
X176784633Y-60983094D01*
X176774341Y-60968075D01*
X176761728Y-60946472D01*
X176733974Y-60918405D01*
X176725863Y-60909276D01*
X176723461Y-60906938D01*
X176702080Y-60886120D01*
X176700437Y-60884490D01*
X175134048Y-59300435D01*
X174084125Y-58238671D01*
X174072296Y-58224839D01*
X174057440Y-58204686D01*
X174026872Y-58179751D01*
X174017861Y-58171562D01*
X173991751Y-58151074D01*
X173989891Y-58149586D01*
X171109405Y-55799975D01*
X171095782Y-55787057D01*
X171080128Y-55769824D01*
X171080127Y-55769823D01*
X171080126Y-55769822D01*
X171045699Y-55747164D01*
X171035339Y-55739560D01*
X171034540Y-55738908D01*
X171008322Y-55722523D01*
X171005829Y-55720924D01*
X167928529Y-53695607D01*
X167914290Y-53684709D01*
X167894935Y-53667578D01*
X167860544Y-53649970D01*
X167851026Y-53644424D01*
X167819912Y-53629148D01*
X167818023Y-53628201D01*
X164618056Y-51989895D01*
X164533423Y-51946565D01*
X164517632Y-51936957D01*
X164497964Y-51922914D01*
X164460361Y-51908386D01*
X164448352Y-51903010D01*
X164448221Y-51902943D01*
X164418319Y-51892112D01*
X164415820Y-51891177D01*
X160954669Y-50553914D01*
X160938193Y-50546136D01*
X160916454Y-50533877D01*
X160878282Y-50523635D01*
X160866593Y-50519821D01*
X160834422Y-50511844D01*
X160832097Y-50511244D01*
X157202482Y-49537445D01*
X157185233Y-49531447D01*
X157172309Y-49525872D01*
X157162423Y-49521608D01*
X157123239Y-49515449D01*
X157111045Y-49512863D01*
X157078517Y-49508396D01*
X157076094Y-49508040D01*
X153448098Y-48937785D01*
X153430244Y-48933629D01*
X153406729Y-48926315D01*
X153366912Y-48924314D01*
X153354226Y-48923002D01*
X153321768Y-48922019D01*
X153319258Y-48921918D01*
X151326848Y-48821770D01*
X151267844Y-48803670D01*
X151224514Y-48759720D01*
X151207255Y-48700465D01*
X151220206Y-48640122D01*
X151260258Y-48593170D01*
X151456783Y-48453729D01*
X151719210Y-48219210D01*
X151953729Y-47956783D01*
X152157391Y-47669749D01*
X152327634Y-47361717D01*
X152462318Y-47036560D01*
X152559750Y-46698368D01*
X152618703Y-46351393D01*
X152638437Y-46000000D01*
X152618703Y-45648607D01*
X152559750Y-45301632D01*
X152462318Y-44963440D01*
X152327634Y-44638283D01*
X152157391Y-44330251D01*
X151953729Y-44043217D01*
X151719210Y-43780790D01*
X151456783Y-43546271D01*
X151169749Y-43342609D01*
X151169742Y-43342605D01*
X150861720Y-43172367D01*
X150536561Y-43037682D01*
X150367464Y-42988966D01*
X150198368Y-42940250D01*
X149851393Y-42881297D01*
X149832707Y-42880247D01*
X149500000Y-42861562D01*
X149148607Y-42881297D01*
X148801632Y-42940250D01*
X148463438Y-43037682D01*
X148138279Y-43172367D01*
X147830257Y-43342605D01*
X147543215Y-43546272D01*
X147280790Y-43780790D01*
X147046272Y-44043215D01*
X146842605Y-44330257D01*
X146672367Y-44638279D01*
X146537682Y-44963438D01*
X146440250Y-45301632D01*
X146381297Y-45648607D01*
X146361562Y-46000000D01*
X146381297Y-46351392D01*
X146440250Y-46698367D01*
X146537682Y-47036561D01*
X146672367Y-47361720D01*
X146842605Y-47669742D01*
X146842609Y-47669749D01*
X147046271Y-47956783D01*
X147280790Y-48219210D01*
X147543217Y-48453729D01*
X147739737Y-48593168D01*
X147755954Y-48604674D01*
X147795942Y-48651492D01*
X147808971Y-48711668D01*
X147791930Y-48770833D01*
X147748889Y-48814860D01*
X147690125Y-48833236D01*
X145804960Y-48939372D01*
X145786544Y-48939060D01*
X145762280Y-48936868D01*
X145722681Y-48943310D01*
X145709635Y-48944734D01*
X145678131Y-48950529D01*
X145675568Y-48950973D01*
X141987973Y-49550822D01*
X141969716Y-49552442D01*
X141945081Y-49552827D01*
X141906639Y-49563341D01*
X141894156Y-49566056D01*
X141863001Y-49575248D01*
X141860586Y-49575935D01*
X138300772Y-50549475D01*
X138282976Y-50552988D01*
X138257955Y-50556077D01*
X138221373Y-50570440D01*
X138210054Y-50574198D01*
X138179112Y-50587011D01*
X138176961Y-50587879D01*
X134694877Y-51955139D01*
X134677422Y-51960568D01*
X134653284Y-51966193D01*
X134618070Y-51984537D01*
X134606655Y-51989735D01*
X134577865Y-52005455D01*
X134575698Y-52006611D01*
X131291246Y-53717673D01*
X131274484Y-53724914D01*
X131251019Y-53733088D01*
X131218001Y-53755030D01*
X131207275Y-53761364D01*
X131180228Y-53780105D01*
X131178209Y-53781475D01*
X128070368Y-55846812D01*
X128054459Y-55855795D01*
X128032027Y-55866394D01*
X128001485Y-55891739D01*
X127991447Y-55899207D01*
X127966588Y-55920669D01*
X127964714Y-55922254D01*
X125133076Y-58272119D01*
X125118158Y-58282767D01*
X125097120Y-58295581D01*
X125069300Y-58324132D01*
X125059922Y-58332791D01*
X125037710Y-58356516D01*
X125035977Y-58358331D01*
X122419730Y-61043427D01*
X122406094Y-61055531D01*
X122386311Y-61070680D01*
X122361858Y-61101801D01*
X122353721Y-61111095D01*
X122333840Y-61137423D01*
X122332365Y-61139338D01*
X120060895Y-64030299D01*
X120048632Y-64043774D01*
X120030548Y-64060964D01*
X120009558Y-64094484D01*
X120002484Y-64104548D01*
X119985482Y-64132890D01*
X119984225Y-64134941D01*
X118007551Y-67291719D01*
X117996686Y-67306544D01*
X117980816Y-67325178D01*
X117963260Y-67361138D01*
X117956974Y-67372464D01*
X117943409Y-67401747D01*
X117942310Y-67404057D01*
X116319915Y-70727508D01*
X116310738Y-70743292D01*
X116296724Y-70763813D01*
X116283212Y-70801075D01*
X116278353Y-70812538D01*
X116267740Y-70843676D01*
X116266930Y-70845978D01*
X115008274Y-74317113D01*
X115000815Y-74333795D01*
X114989082Y-74355631D01*
X114979575Y-74394185D01*
X114975934Y-74406173D01*
X114968708Y-74438153D01*
X114968143Y-74440545D01*
X114083170Y-78029606D01*
X114077507Y-78047016D01*
X114068180Y-78069887D01*
X114062789Y-78109318D01*
X114060415Y-78121743D01*
X114056636Y-78154145D01*
X114056322Y-78156617D01*
X113554789Y-81824699D01*
X113551030Y-81842498D01*
X113544096Y-81866574D01*
X113542947Y-81906019D01*
X113541946Y-81918135D01*
X113541606Y-81951307D01*
X113541560Y-81953680D01*
X113497688Y-83461273D01*
X113479119Y-83523532D01*
X113432001Y-83568264D01*
X113368861Y-83583575D01*
X113306487Y-83565395D01*
X113261463Y-83518556D01*
X113198109Y-83403926D01*
X113157391Y-83330251D01*
X112953729Y-83043217D01*
X112719210Y-82780790D01*
X112456783Y-82546271D01*
X112169749Y-82342609D01*
X112169742Y-82342605D01*
X111861720Y-82172367D01*
X111536561Y-82037682D01*
X111347498Y-81983214D01*
X111198368Y-81940250D01*
X110851393Y-81881297D01*
X110832707Y-81880247D01*
X110500000Y-81861562D01*
X110148607Y-81881297D01*
X109801632Y-81940250D01*
X109463438Y-82037682D01*
X109138279Y-82172367D01*
X108830257Y-82342605D01*
X108543215Y-82546272D01*
X108280790Y-82780790D01*
X108046272Y-83043215D01*
X107842605Y-83330257D01*
X107672367Y-83638279D01*
X107537682Y-83963438D01*
X107440250Y-84301632D01*
X107381297Y-84648607D01*
X107361562Y-85000000D01*
X99700500Y-85000000D01*
X99700500Y-45826500D01*
X99717381Y-45763500D01*
X99763500Y-45717381D01*
X99826500Y-45700500D01*
X110045763Y-45700500D01*
X110053847Y-45696606D01*
X110080482Y-45687286D01*
X110089231Y-45685290D01*
X110091175Y-45683738D01*
X110096247Y-45679695D01*
X110120139Y-45664681D01*
X110128224Y-45660788D01*
X110133821Y-45653768D01*
X110153768Y-45633821D01*
X110160788Y-45628224D01*
X110164683Y-45620136D01*
X110179695Y-45596247D01*
X110185289Y-45589232D01*
X110185288Y-45589232D01*
X110185290Y-45589231D01*
X110187287Y-45580481D01*
X110196607Y-45553846D01*
X110200500Y-45545763D01*
X110200500Y-35326500D01*
X110217381Y-35263500D01*
X110263500Y-35217381D01*
X110326500Y-35200500D01*
X188673500Y-35200500D01*
X188736500Y-35217381D01*
G37*
%TD.AperFunction*%
%TD*%
M02*
