%TF.GenerationSoftware,KiCad,Pcbnew,7.0.1*%
%TF.CreationDate,2023-07-16T20:54:18-07:00*%
%TF.ProjectId,flight_computer_dev_board_rfm98pw,666c6967-6874-45f6-936f-6d7075746572,rev?*%
%TF.SameCoordinates,Original*%
%TF.FileFunction,Soldermask,Top*%
%TF.FilePolarity,Negative*%
%FSLAX46Y46*%
G04 Gerber Fmt 4.6, Leading zero omitted, Abs format (unit mm)*
G04 Created by KiCad (PCBNEW 7.0.1) date 2023-07-16 20:54:18*
%MOMM*%
%LPD*%
G01*
G04 APERTURE LIST*
G04 Aperture macros list*
%AMRoundRect*
0 Rectangle with rounded corners*
0 $1 Rounding radius*
0 $2 $3 $4 $5 $6 $7 $8 $9 X,Y pos of 4 corners*
0 Add a 4 corners polygon primitive as box body*
4,1,4,$2,$3,$4,$5,$6,$7,$8,$9,$2,$3,0*
0 Add four circle primitives for the rounded corners*
1,1,$1+$1,$2,$3*
1,1,$1+$1,$4,$5*
1,1,$1+$1,$6,$7*
1,1,$1+$1,$8,$9*
0 Add four rect primitives between the rounded corners*
20,1,$1+$1,$2,$3,$4,$5,0*
20,1,$1+$1,$4,$5,$6,$7,0*
20,1,$1+$1,$6,$7,$8,$9,0*
20,1,$1+$1,$8,$9,$2,$3,0*%
%AMRotRect*
0 Rectangle, with rotation*
0 The origin of the aperture is its center*
0 $1 length*
0 $2 width*
0 $3 Rotation angle, in degrees counterclockwise*
0 Add horizontal line*
21,1,$1,$2,0,0,$3*%
%AMFreePoly0*
4,1,19,0.500000,-0.750000,0.000000,-0.750000,0.000000,-0.744911,-0.071157,-0.744911,-0.207708,-0.704816,-0.327430,-0.627875,-0.420627,-0.520320,-0.479746,-0.390866,-0.500000,-0.250000,-0.500000,0.250000,-0.479746,0.390866,-0.420627,0.520320,-0.327430,0.627875,-0.207708,0.704816,-0.071157,0.744911,0.000000,0.744911,0.000000,0.750000,0.500000,0.750000,0.500000,-0.750000,0.500000,-0.750000,
$1*%
%AMFreePoly1*
4,1,19,0.000000,0.744911,0.071157,0.744911,0.207708,0.704816,0.327430,0.627875,0.420627,0.520320,0.479746,0.390866,0.500000,0.250000,0.500000,-0.250000,0.479746,-0.390866,0.420627,-0.520320,0.327430,-0.627875,0.207708,-0.704816,0.071157,-0.744911,0.000000,-0.744911,0.000000,-0.750000,-0.500000,-0.750000,-0.500000,0.750000,0.000000,0.750000,0.000000,0.744911,0.000000,0.744911,
$1*%
G04 Aperture macros list end*
%ADD10C,0.200000*%
%ADD11C,0.150000*%
%ADD12C,0.500000*%
%ADD13C,0.250000*%
%ADD14RoundRect,0.218750X0.026517X-0.335876X0.335876X-0.026517X-0.026517X0.335876X-0.335876X0.026517X0*%
%ADD15RotRect,0.800000X0.500000X135.000000*%
%ADD16RotRect,0.800000X0.400000X135.000000*%
%ADD17RoundRect,0.140000X-0.021213X0.219203X-0.219203X0.021213X0.021213X-0.219203X0.219203X-0.021213X0*%
%ADD18RoundRect,0.225000X0.250000X-0.225000X0.250000X0.225000X-0.250000X0.225000X-0.250000X-0.225000X0*%
%ADD19RoundRect,0.200000X-0.200000X-0.275000X0.200000X-0.275000X0.200000X0.275000X-0.200000X0.275000X0*%
%ADD20RoundRect,0.140000X-0.140000X-0.170000X0.140000X-0.170000X0.140000X0.170000X-0.140000X0.170000X0*%
%ADD21RoundRect,0.135000X0.185000X-0.135000X0.185000X0.135000X-0.185000X0.135000X-0.185000X-0.135000X0*%
%ADD22C,2.050000*%
%ADD23C,2.250000*%
%ADD24RoundRect,0.225000X-0.250000X0.225000X-0.250000X-0.225000X0.250000X-0.225000X0.250000X0.225000X0*%
%ADD25RoundRect,0.200000X0.200000X0.275000X-0.200000X0.275000X-0.200000X-0.275000X0.200000X-0.275000X0*%
%ADD26R,2.000000X1.500000*%
%ADD27R,2.000000X3.800000*%
%ADD28RoundRect,0.250000X0.159099X-0.512652X0.512652X-0.159099X-0.159099X0.512652X-0.512652X0.159099X0*%
%ADD29RoundRect,0.140000X0.021213X-0.219203X0.219203X-0.021213X-0.021213X0.219203X-0.219203X0.021213X0*%
%ADD30RoundRect,0.250000X0.512652X0.159099X0.159099X0.512652X-0.512652X-0.159099X-0.159099X-0.512652X0*%
%ADD31RoundRect,0.218750X0.218750X0.256250X-0.218750X0.256250X-0.218750X-0.256250X0.218750X-0.256250X0*%
%ADD32RoundRect,0.200000X-0.335876X-0.053033X-0.053033X-0.335876X0.335876X0.053033X0.053033X0.335876X0*%
%ADD33RoundRect,0.218750X-0.218750X-0.256250X0.218750X-0.256250X0.218750X0.256250X-0.218750X0.256250X0*%
%ADD34RoundRect,0.225000X-0.017678X0.335876X-0.335876X0.017678X0.017678X-0.335876X0.335876X-0.017678X0*%
%ADD35RoundRect,0.050800X-0.450000X-0.450000X0.450000X-0.450000X0.450000X0.450000X-0.450000X0.450000X0*%
%ADD36RoundRect,0.140000X-0.170000X0.140000X-0.170000X-0.140000X0.170000X-0.140000X0.170000X0.140000X0*%
%ADD37RoundRect,0.225000X0.017678X-0.335876X0.335876X-0.017678X-0.017678X0.335876X-0.335876X0.017678X0*%
%ADD38RotRect,1.400000X1.200000X315.000000*%
%ADD39RoundRect,0.135000X-0.035355X0.226274X-0.226274X0.035355X0.035355X-0.226274X0.226274X-0.035355X0*%
%ADD40RoundRect,0.225000X-0.335876X-0.017678X-0.017678X-0.335876X0.335876X0.017678X0.017678X0.335876X0*%
%ADD41RoundRect,0.200000X0.053033X-0.335876X0.335876X-0.053033X-0.053033X0.335876X-0.335876X0.053033X0*%
%ADD42RotRect,1.150000X1.000000X315.000000*%
%ADD43RoundRect,0.140000X0.219203X0.021213X0.021213X0.219203X-0.219203X-0.021213X-0.021213X-0.219203X0*%
%ADD44FreePoly0,0.000000*%
%ADD45FreePoly1,0.000000*%
%ADD46C,5.000000*%
%ADD47RoundRect,0.200000X0.335876X0.053033X0.053033X0.335876X-0.335876X-0.053033X-0.053033X-0.335876X0*%
%ADD48RoundRect,0.063500X1.000000X0.650000X-1.000000X0.650000X-1.000000X-0.650000X1.000000X-0.650000X0*%
%ADD49RoundRect,0.063500X2.849999X2.400000X-2.849999X2.400000X-2.849999X-2.400000X2.849999X-2.400000X0*%
%ADD50RoundRect,0.200000X-0.275000X0.200000X-0.275000X-0.200000X0.275000X-0.200000X0.275000X0.200000X0*%
%ADD51RoundRect,0.150000X0.150000X-0.512500X0.150000X0.512500X-0.150000X0.512500X-0.150000X-0.512500X0*%
%ADD52C,2.000000*%
%ADD53RoundRect,0.125000X-0.125000X-0.125000X0.125000X-0.125000X0.125000X0.125000X-0.125000X0.125000X0*%
%ADD54RoundRect,0.087500X-0.225000X-0.087500X0.225000X-0.087500X0.225000X0.087500X-0.225000X0.087500X0*%
%ADD55RoundRect,0.087500X-0.087500X-0.225000X0.087500X-0.225000X0.087500X0.225000X-0.087500X0.225000X0*%
%ADD56RoundRect,0.150000X-0.565685X0.353553X0.353553X-0.565685X0.565685X-0.353553X-0.353553X0.565685X0*%
%ADD57RoundRect,0.140000X-0.219203X-0.021213X-0.021213X-0.219203X0.219203X0.021213X0.021213X0.219203X0*%
%ADD58R,1.500000X0.900000*%
%ADD59RoundRect,0.125000X0.000000X-0.176777X0.176777X0.000000X0.000000X0.176777X-0.176777X0.000000X0*%
%ADD60R,0.850000X1.100000*%
%ADD61R,0.750000X1.100000*%
%ADD62R,1.200000X1.000000*%
%ADD63R,1.550000X1.350000*%
%ADD64R,1.900000X1.350000*%
%ADD65R,1.170000X1.800000*%
%ADD66RoundRect,0.150000X0.625000X-0.150000X0.625000X0.150000X-0.625000X0.150000X-0.625000X-0.150000X0*%
%ADD67RoundRect,0.250000X0.650000X-0.350000X0.650000X0.350000X-0.650000X0.350000X-0.650000X-0.350000X0*%
%ADD68RoundRect,0.050000X-0.309359X0.238649X0.238649X-0.309359X0.309359X-0.238649X-0.238649X0.309359X0*%
%ADD69RoundRect,0.050000X-0.309359X-0.238649X-0.238649X-0.309359X0.309359X0.238649X0.238649X0.309359X0*%
%ADD70RotRect,3.200000X3.200000X315.000000*%
%ADD71RoundRect,0.317500X1.157500X0.317500X-1.157500X0.317500X-1.157500X-0.317500X1.157500X-0.317500X0*%
%ADD72R,0.375000X0.350000*%
%ADD73R,0.350000X0.375000*%
%ADD74RoundRect,0.225000X0.225000X0.250000X-0.225000X0.250000X-0.225000X-0.250000X0.225000X-0.250000X0*%
%ADD75RoundRect,0.150000X0.350000X-0.150000X0.350000X0.150000X-0.350000X0.150000X-0.350000X-0.150000X0*%
%ADD76RoundRect,0.250000X0.650000X-0.375000X0.650000X0.375000X-0.650000X0.375000X-0.650000X-0.375000X0*%
%ADD77RoundRect,0.150000X0.406586X0.618718X-0.618718X-0.406586X-0.406586X-0.618718X0.618718X0.406586X0*%
%ADD78RoundRect,0.200000X-0.053033X0.335876X-0.335876X0.053033X0.053033X-0.335876X0.335876X-0.053033X0*%
%ADD79RoundRect,0.225000X0.335876X0.017678X0.017678X0.335876X-0.335876X-0.017678X-0.017678X-0.335876X0*%
%ADD80R,1.380000X0.450000*%
%ADD81O,2.416000X1.208000*%
%ADD82R,2.100000X1.475000*%
%ADD83R,1.900000X1.375000*%
%ADD84RoundRect,0.075000X-0.415425X-0.521491X0.521491X0.415425X0.415425X0.521491X-0.521491X-0.415425X0*%
%ADD85RoundRect,0.075000X0.415425X-0.521491X0.521491X-0.415425X-0.415425X0.521491X-0.521491X0.415425X0*%
%ADD86R,1.700000X1.700000*%
%ADD87O,1.700000X1.700000*%
%ADD88C,1.000000*%
%ADD89C,3.251200*%
%ADD90C,1.397000*%
%ADD91C,2.108200*%
G04 APERTURE END LIST*
D10*
X187840000Y-52410000D02*
X186360000Y-50930000D01*
D11*
X153291978Y-52405459D02*
G75*
G03*
X153291978Y-52405459I-2692408J0D01*
G01*
D10*
X189040000Y-51820000D02*
X186340000Y-51820000D01*
X186340000Y-51820000D02*
X187190000Y-52670000D01*
X186340000Y-54520000D02*
X189040000Y-54520000D01*
X189040000Y-54520000D02*
X189040000Y-51820000D01*
D11*
X146799570Y-55127504D02*
X150599570Y-55134011D01*
D10*
X189040000Y-54520000D02*
X189890000Y-55370000D01*
X186340000Y-54520000D02*
X186340000Y-51820000D01*
D11*
X223543845Y-55035798D02*
X227343845Y-55042305D01*
X149506967Y-52430757D02*
G75*
G03*
X149506967Y-52430757I-2707397J0D01*
G01*
X230036253Y-52313753D02*
G75*
G03*
X230036253Y-52313753I-2692408J0D01*
G01*
X227393845Y-49635798D02*
X223593845Y-49642305D01*
X150649570Y-49727504D02*
X146849570Y-49734011D01*
D10*
X189890000Y-55370000D02*
X189890000Y-52670000D01*
X189040000Y-51820000D02*
X189890000Y-52670000D01*
X187190000Y-52670000D02*
X187190000Y-55370000D01*
X187190000Y-55370000D02*
X186340000Y-54520000D01*
X189890000Y-52670000D02*
X187190000Y-52670000D01*
X187190000Y-55370000D02*
X189890000Y-55370000D01*
X188520000Y-52390000D02*
X189990000Y-50920000D01*
D11*
X226251242Y-52339051D02*
G75*
G03*
X226251242Y-52339051I-2707397J0D01*
G01*
D12*
X213498571Y-50315714D02*
X213593809Y-50220476D01*
X213593809Y-50220476D02*
X213784285Y-50125238D01*
X213784285Y-50125238D02*
X214260476Y-50125238D01*
X214260476Y-50125238D02*
X214450952Y-50220476D01*
X214450952Y-50220476D02*
X214546190Y-50315714D01*
X214546190Y-50315714D02*
X214641428Y-50506190D01*
X214641428Y-50506190D02*
X214641428Y-50696666D01*
X214641428Y-50696666D02*
X214546190Y-50982380D01*
X214546190Y-50982380D02*
X213403333Y-52125238D01*
X213403333Y-52125238D02*
X214641428Y-52125238D01*
X205367143Y-51507857D02*
X207224286Y-51507857D01*
X207224286Y-51507857D02*
X206224286Y-52650714D01*
X206224286Y-52650714D02*
X206652857Y-52650714D01*
X206652857Y-52650714D02*
X206938572Y-52793571D01*
X206938572Y-52793571D02*
X207081429Y-52936428D01*
X207081429Y-52936428D02*
X207224286Y-53222142D01*
X207224286Y-53222142D02*
X207224286Y-53936428D01*
X207224286Y-53936428D02*
X207081429Y-54222142D01*
X207081429Y-54222142D02*
X206938572Y-54365000D01*
X206938572Y-54365000D02*
X206652857Y-54507857D01*
X206652857Y-54507857D02*
X205795714Y-54507857D01*
X205795714Y-54507857D02*
X205510000Y-54365000D01*
X205510000Y-54365000D02*
X205367143Y-54222142D01*
X208510000Y-54507857D02*
X208510000Y-51507857D01*
X208510000Y-51507857D02*
X209652857Y-51507857D01*
X209652857Y-51507857D02*
X209938572Y-51650714D01*
X209938572Y-51650714D02*
X210081429Y-51793571D01*
X210081429Y-51793571D02*
X210224286Y-52079285D01*
X210224286Y-52079285D02*
X210224286Y-52507857D01*
X210224286Y-52507857D02*
X210081429Y-52793571D01*
X210081429Y-52793571D02*
X209938572Y-52936428D01*
X209938572Y-52936428D02*
X209652857Y-53079285D01*
X209652857Y-53079285D02*
X208510000Y-53079285D01*
X211224286Y-52507857D02*
X211938572Y-54507857D01*
X212652857Y-52507857D02*
X211938572Y-54507857D01*
X211938572Y-54507857D02*
X211652857Y-55222142D01*
X211652857Y-55222142D02*
X211510000Y-55365000D01*
X211510000Y-55365000D02*
X211224286Y-55507857D01*
D11*
X159165238Y-52567619D02*
X159736666Y-52567619D01*
X159450952Y-53567619D02*
X159450952Y-52567619D01*
X160070000Y-53567619D02*
X160070000Y-52567619D01*
X160498571Y-53567619D02*
X160498571Y-53043809D01*
X160498571Y-53043809D02*
X160450952Y-52948571D01*
X160450952Y-52948571D02*
X160355714Y-52900952D01*
X160355714Y-52900952D02*
X160212857Y-52900952D01*
X160212857Y-52900952D02*
X160117619Y-52948571D01*
X160117619Y-52948571D02*
X160070000Y-52996190D01*
X161355714Y-53520000D02*
X161260476Y-53567619D01*
X161260476Y-53567619D02*
X161070000Y-53567619D01*
X161070000Y-53567619D02*
X160974762Y-53520000D01*
X160974762Y-53520000D02*
X160927143Y-53424761D01*
X160927143Y-53424761D02*
X160927143Y-53043809D01*
X160927143Y-53043809D02*
X160974762Y-52948571D01*
X160974762Y-52948571D02*
X161070000Y-52900952D01*
X161070000Y-52900952D02*
X161260476Y-52900952D01*
X161260476Y-52900952D02*
X161355714Y-52948571D01*
X161355714Y-52948571D02*
X161403333Y-53043809D01*
X161403333Y-53043809D02*
X161403333Y-53139047D01*
X161403333Y-53139047D02*
X160927143Y-53234285D01*
X162546191Y-53520000D02*
X162689048Y-53567619D01*
X162689048Y-53567619D02*
X162927143Y-53567619D01*
X162927143Y-53567619D02*
X163022381Y-53520000D01*
X163022381Y-53520000D02*
X163070000Y-53472380D01*
X163070000Y-53472380D02*
X163117619Y-53377142D01*
X163117619Y-53377142D02*
X163117619Y-53281904D01*
X163117619Y-53281904D02*
X163070000Y-53186666D01*
X163070000Y-53186666D02*
X163022381Y-53139047D01*
X163022381Y-53139047D02*
X162927143Y-53091428D01*
X162927143Y-53091428D02*
X162736667Y-53043809D01*
X162736667Y-53043809D02*
X162641429Y-52996190D01*
X162641429Y-52996190D02*
X162593810Y-52948571D01*
X162593810Y-52948571D02*
X162546191Y-52853333D01*
X162546191Y-52853333D02*
X162546191Y-52758095D01*
X162546191Y-52758095D02*
X162593810Y-52662857D01*
X162593810Y-52662857D02*
X162641429Y-52615238D01*
X162641429Y-52615238D02*
X162736667Y-52567619D01*
X162736667Y-52567619D02*
X162974762Y-52567619D01*
X162974762Y-52567619D02*
X163117619Y-52615238D01*
X163546191Y-52900952D02*
X163546191Y-53900952D01*
X163546191Y-52948571D02*
X163641429Y-52900952D01*
X163641429Y-52900952D02*
X163831905Y-52900952D01*
X163831905Y-52900952D02*
X163927143Y-52948571D01*
X163927143Y-52948571D02*
X163974762Y-52996190D01*
X163974762Y-52996190D02*
X164022381Y-53091428D01*
X164022381Y-53091428D02*
X164022381Y-53377142D01*
X164022381Y-53377142D02*
X163974762Y-53472380D01*
X163974762Y-53472380D02*
X163927143Y-53520000D01*
X163927143Y-53520000D02*
X163831905Y-53567619D01*
X163831905Y-53567619D02*
X163641429Y-53567619D01*
X163641429Y-53567619D02*
X163546191Y-53520000D01*
X164879524Y-53567619D02*
X164879524Y-53043809D01*
X164879524Y-53043809D02*
X164831905Y-52948571D01*
X164831905Y-52948571D02*
X164736667Y-52900952D01*
X164736667Y-52900952D02*
X164546191Y-52900952D01*
X164546191Y-52900952D02*
X164450953Y-52948571D01*
X164879524Y-53520000D02*
X164784286Y-53567619D01*
X164784286Y-53567619D02*
X164546191Y-53567619D01*
X164546191Y-53567619D02*
X164450953Y-53520000D01*
X164450953Y-53520000D02*
X164403334Y-53424761D01*
X164403334Y-53424761D02*
X164403334Y-53329523D01*
X164403334Y-53329523D02*
X164450953Y-53234285D01*
X164450953Y-53234285D02*
X164546191Y-53186666D01*
X164546191Y-53186666D02*
X164784286Y-53186666D01*
X164784286Y-53186666D02*
X164879524Y-53139047D01*
X165784286Y-53520000D02*
X165689048Y-53567619D01*
X165689048Y-53567619D02*
X165498572Y-53567619D01*
X165498572Y-53567619D02*
X165403334Y-53520000D01*
X165403334Y-53520000D02*
X165355715Y-53472380D01*
X165355715Y-53472380D02*
X165308096Y-53377142D01*
X165308096Y-53377142D02*
X165308096Y-53091428D01*
X165308096Y-53091428D02*
X165355715Y-52996190D01*
X165355715Y-52996190D02*
X165403334Y-52948571D01*
X165403334Y-52948571D02*
X165498572Y-52900952D01*
X165498572Y-52900952D02*
X165689048Y-52900952D01*
X165689048Y-52900952D02*
X165784286Y-52948571D01*
X166593810Y-53520000D02*
X166498572Y-53567619D01*
X166498572Y-53567619D02*
X166308096Y-53567619D01*
X166308096Y-53567619D02*
X166212858Y-53520000D01*
X166212858Y-53520000D02*
X166165239Y-53424761D01*
X166165239Y-53424761D02*
X166165239Y-53043809D01*
X166165239Y-53043809D02*
X166212858Y-52948571D01*
X166212858Y-52948571D02*
X166308096Y-52900952D01*
X166308096Y-52900952D02*
X166498572Y-52900952D01*
X166498572Y-52900952D02*
X166593810Y-52948571D01*
X166593810Y-52948571D02*
X166641429Y-53043809D01*
X166641429Y-53043809D02*
X166641429Y-53139047D01*
X166641429Y-53139047D02*
X166165239Y-53234285D01*
X167498572Y-53520000D02*
X167403334Y-53567619D01*
X167403334Y-53567619D02*
X167212858Y-53567619D01*
X167212858Y-53567619D02*
X167117620Y-53520000D01*
X167117620Y-53520000D02*
X167070001Y-53472380D01*
X167070001Y-53472380D02*
X167022382Y-53377142D01*
X167022382Y-53377142D02*
X167022382Y-53091428D01*
X167022382Y-53091428D02*
X167070001Y-52996190D01*
X167070001Y-52996190D02*
X167117620Y-52948571D01*
X167117620Y-52948571D02*
X167212858Y-52900952D01*
X167212858Y-52900952D02*
X167403334Y-52900952D01*
X167403334Y-52900952D02*
X167498572Y-52948571D01*
X167927144Y-53567619D02*
X167927144Y-52900952D01*
X167927144Y-53091428D02*
X167974763Y-52996190D01*
X167974763Y-52996190D02*
X168022382Y-52948571D01*
X168022382Y-52948571D02*
X168117620Y-52900952D01*
X168117620Y-52900952D02*
X168212858Y-52900952D01*
X168974763Y-53567619D02*
X168974763Y-53043809D01*
X168974763Y-53043809D02*
X168927144Y-52948571D01*
X168927144Y-52948571D02*
X168831906Y-52900952D01*
X168831906Y-52900952D02*
X168641430Y-52900952D01*
X168641430Y-52900952D02*
X168546192Y-52948571D01*
X168974763Y-53520000D02*
X168879525Y-53567619D01*
X168879525Y-53567619D02*
X168641430Y-53567619D01*
X168641430Y-53567619D02*
X168546192Y-53520000D01*
X168546192Y-53520000D02*
X168498573Y-53424761D01*
X168498573Y-53424761D02*
X168498573Y-53329523D01*
X168498573Y-53329523D02*
X168546192Y-53234285D01*
X168546192Y-53234285D02*
X168641430Y-53186666D01*
X168641430Y-53186666D02*
X168879525Y-53186666D01*
X168879525Y-53186666D02*
X168974763Y-53139047D01*
X169308097Y-52900952D02*
X169689049Y-52900952D01*
X169450954Y-53567619D02*
X169450954Y-52710476D01*
X169450954Y-52710476D02*
X169498573Y-52615238D01*
X169498573Y-52615238D02*
X169593811Y-52567619D01*
X169593811Y-52567619D02*
X169689049Y-52567619D01*
X169879526Y-52900952D02*
X170260478Y-52900952D01*
X170022383Y-52567619D02*
X170022383Y-53424761D01*
X170022383Y-53424761D02*
X170070002Y-53520000D01*
X170070002Y-53520000D02*
X170165240Y-53567619D01*
X170165240Y-53567619D02*
X170260478Y-53567619D01*
X171927145Y-53472380D02*
X171879526Y-53520000D01*
X171879526Y-53520000D02*
X171736669Y-53567619D01*
X171736669Y-53567619D02*
X171641431Y-53567619D01*
X171641431Y-53567619D02*
X171498574Y-53520000D01*
X171498574Y-53520000D02*
X171403336Y-53424761D01*
X171403336Y-53424761D02*
X171355717Y-53329523D01*
X171355717Y-53329523D02*
X171308098Y-53139047D01*
X171308098Y-53139047D02*
X171308098Y-52996190D01*
X171308098Y-52996190D02*
X171355717Y-52805714D01*
X171355717Y-52805714D02*
X171403336Y-52710476D01*
X171403336Y-52710476D02*
X171498574Y-52615238D01*
X171498574Y-52615238D02*
X171641431Y-52567619D01*
X171641431Y-52567619D02*
X171736669Y-52567619D01*
X171736669Y-52567619D02*
X171879526Y-52615238D01*
X171879526Y-52615238D02*
X171927145Y-52662857D01*
X172498574Y-53567619D02*
X172403336Y-53520000D01*
X172403336Y-53520000D02*
X172355717Y-53472380D01*
X172355717Y-53472380D02*
X172308098Y-53377142D01*
X172308098Y-53377142D02*
X172308098Y-53091428D01*
X172308098Y-53091428D02*
X172355717Y-52996190D01*
X172355717Y-52996190D02*
X172403336Y-52948571D01*
X172403336Y-52948571D02*
X172498574Y-52900952D01*
X172498574Y-52900952D02*
X172641431Y-52900952D01*
X172641431Y-52900952D02*
X172736669Y-52948571D01*
X172736669Y-52948571D02*
X172784288Y-52996190D01*
X172784288Y-52996190D02*
X172831907Y-53091428D01*
X172831907Y-53091428D02*
X172831907Y-53377142D01*
X172831907Y-53377142D02*
X172784288Y-53472380D01*
X172784288Y-53472380D02*
X172736669Y-53520000D01*
X172736669Y-53520000D02*
X172641431Y-53567619D01*
X172641431Y-53567619D02*
X172498574Y-53567619D01*
X173260479Y-53567619D02*
X173260479Y-52900952D01*
X173260479Y-52996190D02*
X173308098Y-52948571D01*
X173308098Y-52948571D02*
X173403336Y-52900952D01*
X173403336Y-52900952D02*
X173546193Y-52900952D01*
X173546193Y-52900952D02*
X173641431Y-52948571D01*
X173641431Y-52948571D02*
X173689050Y-53043809D01*
X173689050Y-53043809D02*
X173689050Y-53567619D01*
X173689050Y-53043809D02*
X173736669Y-52948571D01*
X173736669Y-52948571D02*
X173831907Y-52900952D01*
X173831907Y-52900952D02*
X173974764Y-52900952D01*
X173974764Y-52900952D02*
X174070003Y-52948571D01*
X174070003Y-52948571D02*
X174117622Y-53043809D01*
X174117622Y-53043809D02*
X174117622Y-53567619D01*
X174593812Y-52900952D02*
X174593812Y-53900952D01*
X174593812Y-52948571D02*
X174689050Y-52900952D01*
X174689050Y-52900952D02*
X174879526Y-52900952D01*
X174879526Y-52900952D02*
X174974764Y-52948571D01*
X174974764Y-52948571D02*
X175022383Y-52996190D01*
X175022383Y-52996190D02*
X175070002Y-53091428D01*
X175070002Y-53091428D02*
X175070002Y-53377142D01*
X175070002Y-53377142D02*
X175022383Y-53472380D01*
X175022383Y-53472380D02*
X174974764Y-53520000D01*
X174974764Y-53520000D02*
X174879526Y-53567619D01*
X174879526Y-53567619D02*
X174689050Y-53567619D01*
X174689050Y-53567619D02*
X174593812Y-53520000D01*
X175927145Y-53567619D02*
X175927145Y-53043809D01*
X175927145Y-53043809D02*
X175879526Y-52948571D01*
X175879526Y-52948571D02*
X175784288Y-52900952D01*
X175784288Y-52900952D02*
X175593812Y-52900952D01*
X175593812Y-52900952D02*
X175498574Y-52948571D01*
X175927145Y-53520000D02*
X175831907Y-53567619D01*
X175831907Y-53567619D02*
X175593812Y-53567619D01*
X175593812Y-53567619D02*
X175498574Y-53520000D01*
X175498574Y-53520000D02*
X175450955Y-53424761D01*
X175450955Y-53424761D02*
X175450955Y-53329523D01*
X175450955Y-53329523D02*
X175498574Y-53234285D01*
X175498574Y-53234285D02*
X175593812Y-53186666D01*
X175593812Y-53186666D02*
X175831907Y-53186666D01*
X175831907Y-53186666D02*
X175927145Y-53139047D01*
X176403336Y-52900952D02*
X176403336Y-53567619D01*
X176403336Y-52996190D02*
X176450955Y-52948571D01*
X176450955Y-52948571D02*
X176546193Y-52900952D01*
X176546193Y-52900952D02*
X176689050Y-52900952D01*
X176689050Y-52900952D02*
X176784288Y-52948571D01*
X176784288Y-52948571D02*
X176831907Y-53043809D01*
X176831907Y-53043809D02*
X176831907Y-53567619D01*
X177212860Y-52900952D02*
X177450955Y-53567619D01*
X177689050Y-52900952D02*
X177450955Y-53567619D01*
X177450955Y-53567619D02*
X177355717Y-53805714D01*
X177355717Y-53805714D02*
X177308098Y-53853333D01*
X177308098Y-53853333D02*
X177212860Y-53900952D01*
X179308098Y-53567619D02*
X178831908Y-53567619D01*
X178831908Y-53567619D02*
X178831908Y-52567619D01*
X180117622Y-53567619D02*
X179641432Y-53567619D01*
X179641432Y-53567619D02*
X179641432Y-52567619D01*
X181022384Y-53472380D02*
X180974765Y-53520000D01*
X180974765Y-53520000D02*
X180831908Y-53567619D01*
X180831908Y-53567619D02*
X180736670Y-53567619D01*
X180736670Y-53567619D02*
X180593813Y-53520000D01*
X180593813Y-53520000D02*
X180498575Y-53424761D01*
X180498575Y-53424761D02*
X180450956Y-53329523D01*
X180450956Y-53329523D02*
X180403337Y-53139047D01*
X180403337Y-53139047D02*
X180403337Y-52996190D01*
X180403337Y-52996190D02*
X180450956Y-52805714D01*
X180450956Y-52805714D02*
X180498575Y-52710476D01*
X180498575Y-52710476D02*
X180593813Y-52615238D01*
X180593813Y-52615238D02*
X180736670Y-52567619D01*
X180736670Y-52567619D02*
X180831908Y-52567619D01*
X180831908Y-52567619D02*
X180974765Y-52615238D01*
X180974765Y-52615238D02*
X181022384Y-52662857D01*
D13*
X159205709Y-49477619D02*
X159205709Y-48477619D01*
X159205709Y-48477619D02*
X159586661Y-48477619D01*
X159586661Y-48477619D02*
X159681899Y-48525238D01*
X159681899Y-48525238D02*
X159729518Y-48572857D01*
X159729518Y-48572857D02*
X159777137Y-48668095D01*
X159777137Y-48668095D02*
X159777137Y-48810952D01*
X159777137Y-48810952D02*
X159729518Y-48906190D01*
X159729518Y-48906190D02*
X159681899Y-48953809D01*
X159681899Y-48953809D02*
X159586661Y-49001428D01*
X159586661Y-49001428D02*
X159205709Y-49001428D01*
X160110471Y-48810952D02*
X160348566Y-49477619D01*
X160586661Y-48810952D02*
X160348566Y-49477619D01*
X160348566Y-49477619D02*
X160253328Y-49715714D01*
X160253328Y-49715714D02*
X160205709Y-49763333D01*
X160205709Y-49763333D02*
X160110471Y-49810952D01*
X160919995Y-49430000D02*
X161062852Y-49477619D01*
X161062852Y-49477619D02*
X161300947Y-49477619D01*
X161300947Y-49477619D02*
X161396185Y-49430000D01*
X161396185Y-49430000D02*
X161443804Y-49382380D01*
X161443804Y-49382380D02*
X161491423Y-49287142D01*
X161491423Y-49287142D02*
X161491423Y-49191904D01*
X161491423Y-49191904D02*
X161443804Y-49096666D01*
X161443804Y-49096666D02*
X161396185Y-49049047D01*
X161396185Y-49049047D02*
X161300947Y-49001428D01*
X161300947Y-49001428D02*
X161110471Y-48953809D01*
X161110471Y-48953809D02*
X161015233Y-48906190D01*
X161015233Y-48906190D02*
X160967614Y-48858571D01*
X160967614Y-48858571D02*
X160919995Y-48763333D01*
X160919995Y-48763333D02*
X160919995Y-48668095D01*
X160919995Y-48668095D02*
X160967614Y-48572857D01*
X160967614Y-48572857D02*
X161015233Y-48525238D01*
X161015233Y-48525238D02*
X161110471Y-48477619D01*
X161110471Y-48477619D02*
X161348566Y-48477619D01*
X161348566Y-48477619D02*
X161491423Y-48525238D01*
X162348566Y-48810952D02*
X162348566Y-49810952D01*
X162348566Y-49430000D02*
X162253328Y-49477619D01*
X162253328Y-49477619D02*
X162062852Y-49477619D01*
X162062852Y-49477619D02*
X161967614Y-49430000D01*
X161967614Y-49430000D02*
X161919995Y-49382380D01*
X161919995Y-49382380D02*
X161872376Y-49287142D01*
X161872376Y-49287142D02*
X161872376Y-49001428D01*
X161872376Y-49001428D02*
X161919995Y-48906190D01*
X161919995Y-48906190D02*
X161967614Y-48858571D01*
X161967614Y-48858571D02*
X162062852Y-48810952D01*
X162062852Y-48810952D02*
X162253328Y-48810952D01*
X162253328Y-48810952D02*
X162348566Y-48858571D01*
X163253328Y-48810952D02*
X163253328Y-49477619D01*
X162824757Y-48810952D02*
X162824757Y-49334761D01*
X162824757Y-49334761D02*
X162872376Y-49430000D01*
X162872376Y-49430000D02*
X162967614Y-49477619D01*
X162967614Y-49477619D02*
X163110471Y-49477619D01*
X163110471Y-49477619D02*
X163205709Y-49430000D01*
X163205709Y-49430000D02*
X163253328Y-49382380D01*
X164158090Y-49477619D02*
X164158090Y-48953809D01*
X164158090Y-48953809D02*
X164110471Y-48858571D01*
X164110471Y-48858571D02*
X164015233Y-48810952D01*
X164015233Y-48810952D02*
X163824757Y-48810952D01*
X163824757Y-48810952D02*
X163729519Y-48858571D01*
X164158090Y-49430000D02*
X164062852Y-49477619D01*
X164062852Y-49477619D02*
X163824757Y-49477619D01*
X163824757Y-49477619D02*
X163729519Y-49430000D01*
X163729519Y-49430000D02*
X163681900Y-49334761D01*
X163681900Y-49334761D02*
X163681900Y-49239523D01*
X163681900Y-49239523D02*
X163729519Y-49144285D01*
X163729519Y-49144285D02*
X163824757Y-49096666D01*
X163824757Y-49096666D02*
X164062852Y-49096666D01*
X164062852Y-49096666D02*
X164158090Y-49049047D01*
X164634281Y-49477619D02*
X164634281Y-48810952D01*
X164634281Y-49001428D02*
X164681900Y-48906190D01*
X164681900Y-48906190D02*
X164729519Y-48858571D01*
X164729519Y-48858571D02*
X164824757Y-48810952D01*
X164824757Y-48810952D02*
X164919995Y-48810952D01*
X165634281Y-49430000D02*
X165539043Y-49477619D01*
X165539043Y-49477619D02*
X165348567Y-49477619D01*
X165348567Y-49477619D02*
X165253329Y-49430000D01*
X165253329Y-49430000D02*
X165205710Y-49334761D01*
X165205710Y-49334761D02*
X165205710Y-48953809D01*
X165205710Y-48953809D02*
X165253329Y-48858571D01*
X165253329Y-48858571D02*
X165348567Y-48810952D01*
X165348567Y-48810952D02*
X165539043Y-48810952D01*
X165539043Y-48810952D02*
X165634281Y-48858571D01*
X165634281Y-48858571D02*
X165681900Y-48953809D01*
X165681900Y-48953809D02*
X165681900Y-49049047D01*
X165681900Y-49049047D02*
X165205710Y-49144285D01*
X166539043Y-49477619D02*
X166539043Y-48477619D01*
X166539043Y-49430000D02*
X166443805Y-49477619D01*
X166443805Y-49477619D02*
X166253329Y-49477619D01*
X166253329Y-49477619D02*
X166158091Y-49430000D01*
X166158091Y-49430000D02*
X166110472Y-49382380D01*
X166110472Y-49382380D02*
X166062853Y-49287142D01*
X166062853Y-49287142D02*
X166062853Y-49001428D01*
X166062853Y-49001428D02*
X166110472Y-48906190D01*
X166110472Y-48906190D02*
X166158091Y-48858571D01*
X166158091Y-48858571D02*
X166253329Y-48810952D01*
X166253329Y-48810952D02*
X166443805Y-48810952D01*
X166443805Y-48810952D02*
X166539043Y-48858571D01*
X168110472Y-48953809D02*
X167777139Y-48953809D01*
X167777139Y-49477619D02*
X167777139Y-48477619D01*
X167777139Y-48477619D02*
X168253329Y-48477619D01*
X168777139Y-49477619D02*
X168681901Y-49430000D01*
X168681901Y-49430000D02*
X168634282Y-49334761D01*
X168634282Y-49334761D02*
X168634282Y-48477619D01*
X169158092Y-49477619D02*
X169158092Y-48810952D01*
X169158092Y-48477619D02*
X169110473Y-48525238D01*
X169110473Y-48525238D02*
X169158092Y-48572857D01*
X169158092Y-48572857D02*
X169205711Y-48525238D01*
X169205711Y-48525238D02*
X169158092Y-48477619D01*
X169158092Y-48477619D02*
X169158092Y-48572857D01*
X170062853Y-48810952D02*
X170062853Y-49620476D01*
X170062853Y-49620476D02*
X170015234Y-49715714D01*
X170015234Y-49715714D02*
X169967615Y-49763333D01*
X169967615Y-49763333D02*
X169872377Y-49810952D01*
X169872377Y-49810952D02*
X169729520Y-49810952D01*
X169729520Y-49810952D02*
X169634282Y-49763333D01*
X170062853Y-49430000D02*
X169967615Y-49477619D01*
X169967615Y-49477619D02*
X169777139Y-49477619D01*
X169777139Y-49477619D02*
X169681901Y-49430000D01*
X169681901Y-49430000D02*
X169634282Y-49382380D01*
X169634282Y-49382380D02*
X169586663Y-49287142D01*
X169586663Y-49287142D02*
X169586663Y-49001428D01*
X169586663Y-49001428D02*
X169634282Y-48906190D01*
X169634282Y-48906190D02*
X169681901Y-48858571D01*
X169681901Y-48858571D02*
X169777139Y-48810952D01*
X169777139Y-48810952D02*
X169967615Y-48810952D01*
X169967615Y-48810952D02*
X170062853Y-48858571D01*
X170539044Y-49477619D02*
X170539044Y-48477619D01*
X170967615Y-49477619D02*
X170967615Y-48953809D01*
X170967615Y-48953809D02*
X170919996Y-48858571D01*
X170919996Y-48858571D02*
X170824758Y-48810952D01*
X170824758Y-48810952D02*
X170681901Y-48810952D01*
X170681901Y-48810952D02*
X170586663Y-48858571D01*
X170586663Y-48858571D02*
X170539044Y-48906190D01*
X171300949Y-48810952D02*
X171681901Y-48810952D01*
X171443806Y-48477619D02*
X171443806Y-49334761D01*
X171443806Y-49334761D02*
X171491425Y-49430000D01*
X171491425Y-49430000D02*
X171586663Y-49477619D01*
X171586663Y-49477619D02*
X171681901Y-49477619D01*
X173348568Y-49382380D02*
X173300949Y-49430000D01*
X173300949Y-49430000D02*
X173158092Y-49477619D01*
X173158092Y-49477619D02*
X173062854Y-49477619D01*
X173062854Y-49477619D02*
X172919997Y-49430000D01*
X172919997Y-49430000D02*
X172824759Y-49334761D01*
X172824759Y-49334761D02*
X172777140Y-49239523D01*
X172777140Y-49239523D02*
X172729521Y-49049047D01*
X172729521Y-49049047D02*
X172729521Y-48906190D01*
X172729521Y-48906190D02*
X172777140Y-48715714D01*
X172777140Y-48715714D02*
X172824759Y-48620476D01*
X172824759Y-48620476D02*
X172919997Y-48525238D01*
X172919997Y-48525238D02*
X173062854Y-48477619D01*
X173062854Y-48477619D02*
X173158092Y-48477619D01*
X173158092Y-48477619D02*
X173300949Y-48525238D01*
X173300949Y-48525238D02*
X173348568Y-48572857D01*
X173919997Y-49477619D02*
X173824759Y-49430000D01*
X173824759Y-49430000D02*
X173777140Y-49382380D01*
X173777140Y-49382380D02*
X173729521Y-49287142D01*
X173729521Y-49287142D02*
X173729521Y-49001428D01*
X173729521Y-49001428D02*
X173777140Y-48906190D01*
X173777140Y-48906190D02*
X173824759Y-48858571D01*
X173824759Y-48858571D02*
X173919997Y-48810952D01*
X173919997Y-48810952D02*
X174062854Y-48810952D01*
X174062854Y-48810952D02*
X174158092Y-48858571D01*
X174158092Y-48858571D02*
X174205711Y-48906190D01*
X174205711Y-48906190D02*
X174253330Y-49001428D01*
X174253330Y-49001428D02*
X174253330Y-49287142D01*
X174253330Y-49287142D02*
X174205711Y-49382380D01*
X174205711Y-49382380D02*
X174158092Y-49430000D01*
X174158092Y-49430000D02*
X174062854Y-49477619D01*
X174062854Y-49477619D02*
X173919997Y-49477619D01*
X174681902Y-48810952D02*
X174681902Y-49477619D01*
X174681902Y-48906190D02*
X174729521Y-48858571D01*
X174729521Y-48858571D02*
X174824759Y-48810952D01*
X174824759Y-48810952D02*
X174967616Y-48810952D01*
X174967616Y-48810952D02*
X175062854Y-48858571D01*
X175062854Y-48858571D02*
X175110473Y-48953809D01*
X175110473Y-48953809D02*
X175110473Y-49477619D01*
X175443807Y-48810952D02*
X175824759Y-48810952D01*
X175586664Y-48477619D02*
X175586664Y-49334761D01*
X175586664Y-49334761D02*
X175634283Y-49430000D01*
X175634283Y-49430000D02*
X175729521Y-49477619D01*
X175729521Y-49477619D02*
X175824759Y-49477619D01*
X176158093Y-49477619D02*
X176158093Y-48810952D01*
X176158093Y-49001428D02*
X176205712Y-48906190D01*
X176205712Y-48906190D02*
X176253331Y-48858571D01*
X176253331Y-48858571D02*
X176348569Y-48810952D01*
X176348569Y-48810952D02*
X176443807Y-48810952D01*
X176919998Y-49477619D02*
X176824760Y-49430000D01*
X176824760Y-49430000D02*
X176777141Y-49382380D01*
X176777141Y-49382380D02*
X176729522Y-49287142D01*
X176729522Y-49287142D02*
X176729522Y-49001428D01*
X176729522Y-49001428D02*
X176777141Y-48906190D01*
X176777141Y-48906190D02*
X176824760Y-48858571D01*
X176824760Y-48858571D02*
X176919998Y-48810952D01*
X176919998Y-48810952D02*
X177062855Y-48810952D01*
X177062855Y-48810952D02*
X177158093Y-48858571D01*
X177158093Y-48858571D02*
X177205712Y-48906190D01*
X177205712Y-48906190D02*
X177253331Y-49001428D01*
X177253331Y-49001428D02*
X177253331Y-49287142D01*
X177253331Y-49287142D02*
X177205712Y-49382380D01*
X177205712Y-49382380D02*
X177158093Y-49430000D01*
X177158093Y-49430000D02*
X177062855Y-49477619D01*
X177062855Y-49477619D02*
X176919998Y-49477619D01*
X177824760Y-49477619D02*
X177729522Y-49430000D01*
X177729522Y-49430000D02*
X177681903Y-49334761D01*
X177681903Y-49334761D02*
X177681903Y-48477619D01*
X178348570Y-49477619D02*
X178253332Y-49430000D01*
X178253332Y-49430000D02*
X178205713Y-49334761D01*
X178205713Y-49334761D02*
X178205713Y-48477619D01*
X179110475Y-49430000D02*
X179015237Y-49477619D01*
X179015237Y-49477619D02*
X178824761Y-49477619D01*
X178824761Y-49477619D02*
X178729523Y-49430000D01*
X178729523Y-49430000D02*
X178681904Y-49334761D01*
X178681904Y-49334761D02*
X178681904Y-48953809D01*
X178681904Y-48953809D02*
X178729523Y-48858571D01*
X178729523Y-48858571D02*
X178824761Y-48810952D01*
X178824761Y-48810952D02*
X179015237Y-48810952D01*
X179015237Y-48810952D02*
X179110475Y-48858571D01*
X179110475Y-48858571D02*
X179158094Y-48953809D01*
X179158094Y-48953809D02*
X179158094Y-49049047D01*
X179158094Y-49049047D02*
X178681904Y-49144285D01*
X179586666Y-49477619D02*
X179586666Y-48810952D01*
X179586666Y-49001428D02*
X179634285Y-48906190D01*
X179634285Y-48906190D02*
X179681904Y-48858571D01*
X179681904Y-48858571D02*
X179777142Y-48810952D01*
X179777142Y-48810952D02*
X179872380Y-48810952D01*
X180967619Y-49477619D02*
X180967619Y-48477619D01*
X180967619Y-48477619D02*
X181205714Y-48477619D01*
X181205714Y-48477619D02*
X181348571Y-48525238D01*
X181348571Y-48525238D02*
X181443809Y-48620476D01*
X181443809Y-48620476D02*
X181491428Y-48715714D01*
X181491428Y-48715714D02*
X181539047Y-48906190D01*
X181539047Y-48906190D02*
X181539047Y-49049047D01*
X181539047Y-49049047D02*
X181491428Y-49239523D01*
X181491428Y-49239523D02*
X181443809Y-49334761D01*
X181443809Y-49334761D02*
X181348571Y-49430000D01*
X181348571Y-49430000D02*
X181205714Y-49477619D01*
X181205714Y-49477619D02*
X180967619Y-49477619D01*
X182348571Y-49430000D02*
X182253333Y-49477619D01*
X182253333Y-49477619D02*
X182062857Y-49477619D01*
X182062857Y-49477619D02*
X181967619Y-49430000D01*
X181967619Y-49430000D02*
X181920000Y-49334761D01*
X181920000Y-49334761D02*
X181920000Y-48953809D01*
X181920000Y-48953809D02*
X181967619Y-48858571D01*
X181967619Y-48858571D02*
X182062857Y-48810952D01*
X182062857Y-48810952D02*
X182253333Y-48810952D01*
X182253333Y-48810952D02*
X182348571Y-48858571D01*
X182348571Y-48858571D02*
X182396190Y-48953809D01*
X182396190Y-48953809D02*
X182396190Y-49049047D01*
X182396190Y-49049047D02*
X181920000Y-49144285D01*
X182729524Y-48810952D02*
X182967619Y-49477619D01*
X182967619Y-49477619D02*
X183205714Y-48810952D01*
X183967619Y-49430000D02*
X183872381Y-49477619D01*
X183872381Y-49477619D02*
X183681905Y-49477619D01*
X183681905Y-49477619D02*
X183586667Y-49430000D01*
X183586667Y-49430000D02*
X183539048Y-49334761D01*
X183539048Y-49334761D02*
X183539048Y-48953809D01*
X183539048Y-48953809D02*
X183586667Y-48858571D01*
X183586667Y-48858571D02*
X183681905Y-48810952D01*
X183681905Y-48810952D02*
X183872381Y-48810952D01*
X183872381Y-48810952D02*
X183967619Y-48858571D01*
X183967619Y-48858571D02*
X184015238Y-48953809D01*
X184015238Y-48953809D02*
X184015238Y-49049047D01*
X184015238Y-49049047D02*
X183539048Y-49144285D01*
X184586667Y-49477619D02*
X184491429Y-49430000D01*
X184491429Y-49430000D02*
X184443810Y-49334761D01*
X184443810Y-49334761D02*
X184443810Y-48477619D01*
X185110477Y-49477619D02*
X185015239Y-49430000D01*
X185015239Y-49430000D02*
X184967620Y-49382380D01*
X184967620Y-49382380D02*
X184920001Y-49287142D01*
X184920001Y-49287142D02*
X184920001Y-49001428D01*
X184920001Y-49001428D02*
X184967620Y-48906190D01*
X184967620Y-48906190D02*
X185015239Y-48858571D01*
X185015239Y-48858571D02*
X185110477Y-48810952D01*
X185110477Y-48810952D02*
X185253334Y-48810952D01*
X185253334Y-48810952D02*
X185348572Y-48858571D01*
X185348572Y-48858571D02*
X185396191Y-48906190D01*
X185396191Y-48906190D02*
X185443810Y-49001428D01*
X185443810Y-49001428D02*
X185443810Y-49287142D01*
X185443810Y-49287142D02*
X185396191Y-49382380D01*
X185396191Y-49382380D02*
X185348572Y-49430000D01*
X185348572Y-49430000D02*
X185253334Y-49477619D01*
X185253334Y-49477619D02*
X185110477Y-49477619D01*
X185872382Y-48810952D02*
X185872382Y-49810952D01*
X185872382Y-48858571D02*
X185967620Y-48810952D01*
X185967620Y-48810952D02*
X186158096Y-48810952D01*
X186158096Y-48810952D02*
X186253334Y-48858571D01*
X186253334Y-48858571D02*
X186300953Y-48906190D01*
X186300953Y-48906190D02*
X186348572Y-49001428D01*
X186348572Y-49001428D02*
X186348572Y-49287142D01*
X186348572Y-49287142D02*
X186300953Y-49382380D01*
X186300953Y-49382380D02*
X186253334Y-49430000D01*
X186253334Y-49430000D02*
X186158096Y-49477619D01*
X186158096Y-49477619D02*
X185967620Y-49477619D01*
X185967620Y-49477619D02*
X185872382Y-49430000D01*
X186777144Y-49477619D02*
X186777144Y-48810952D01*
X186777144Y-48906190D02*
X186824763Y-48858571D01*
X186824763Y-48858571D02*
X186920001Y-48810952D01*
X186920001Y-48810952D02*
X187062858Y-48810952D01*
X187062858Y-48810952D02*
X187158096Y-48858571D01*
X187158096Y-48858571D02*
X187205715Y-48953809D01*
X187205715Y-48953809D02*
X187205715Y-49477619D01*
X187205715Y-48953809D02*
X187253334Y-48858571D01*
X187253334Y-48858571D02*
X187348572Y-48810952D01*
X187348572Y-48810952D02*
X187491429Y-48810952D01*
X187491429Y-48810952D02*
X187586668Y-48858571D01*
X187586668Y-48858571D02*
X187634287Y-48953809D01*
X187634287Y-48953809D02*
X187634287Y-49477619D01*
X188491429Y-49430000D02*
X188396191Y-49477619D01*
X188396191Y-49477619D02*
X188205715Y-49477619D01*
X188205715Y-49477619D02*
X188110477Y-49430000D01*
X188110477Y-49430000D02*
X188062858Y-49334761D01*
X188062858Y-49334761D02*
X188062858Y-48953809D01*
X188062858Y-48953809D02*
X188110477Y-48858571D01*
X188110477Y-48858571D02*
X188205715Y-48810952D01*
X188205715Y-48810952D02*
X188396191Y-48810952D01*
X188396191Y-48810952D02*
X188491429Y-48858571D01*
X188491429Y-48858571D02*
X188539048Y-48953809D01*
X188539048Y-48953809D02*
X188539048Y-49049047D01*
X188539048Y-49049047D02*
X188062858Y-49144285D01*
X188967620Y-48810952D02*
X188967620Y-49477619D01*
X188967620Y-48906190D02*
X189015239Y-48858571D01*
X189015239Y-48858571D02*
X189110477Y-48810952D01*
X189110477Y-48810952D02*
X189253334Y-48810952D01*
X189253334Y-48810952D02*
X189348572Y-48858571D01*
X189348572Y-48858571D02*
X189396191Y-48953809D01*
X189396191Y-48953809D02*
X189396191Y-49477619D01*
X189729525Y-48810952D02*
X190110477Y-48810952D01*
X189872382Y-48477619D02*
X189872382Y-49334761D01*
X189872382Y-49334761D02*
X189920001Y-49430000D01*
X189920001Y-49430000D02*
X190015239Y-49477619D01*
X190015239Y-49477619D02*
X190110477Y-49477619D01*
X191539049Y-48953809D02*
X191681906Y-49001428D01*
X191681906Y-49001428D02*
X191729525Y-49049047D01*
X191729525Y-49049047D02*
X191777144Y-49144285D01*
X191777144Y-49144285D02*
X191777144Y-49287142D01*
X191777144Y-49287142D02*
X191729525Y-49382380D01*
X191729525Y-49382380D02*
X191681906Y-49430000D01*
X191681906Y-49430000D02*
X191586668Y-49477619D01*
X191586668Y-49477619D02*
X191205716Y-49477619D01*
X191205716Y-49477619D02*
X191205716Y-48477619D01*
X191205716Y-48477619D02*
X191539049Y-48477619D01*
X191539049Y-48477619D02*
X191634287Y-48525238D01*
X191634287Y-48525238D02*
X191681906Y-48572857D01*
X191681906Y-48572857D02*
X191729525Y-48668095D01*
X191729525Y-48668095D02*
X191729525Y-48763333D01*
X191729525Y-48763333D02*
X191681906Y-48858571D01*
X191681906Y-48858571D02*
X191634287Y-48906190D01*
X191634287Y-48906190D02*
X191539049Y-48953809D01*
X191539049Y-48953809D02*
X191205716Y-48953809D01*
X192348573Y-49477619D02*
X192253335Y-49430000D01*
X192253335Y-49430000D02*
X192205716Y-49382380D01*
X192205716Y-49382380D02*
X192158097Y-49287142D01*
X192158097Y-49287142D02*
X192158097Y-49001428D01*
X192158097Y-49001428D02*
X192205716Y-48906190D01*
X192205716Y-48906190D02*
X192253335Y-48858571D01*
X192253335Y-48858571D02*
X192348573Y-48810952D01*
X192348573Y-48810952D02*
X192491430Y-48810952D01*
X192491430Y-48810952D02*
X192586668Y-48858571D01*
X192586668Y-48858571D02*
X192634287Y-48906190D01*
X192634287Y-48906190D02*
X192681906Y-49001428D01*
X192681906Y-49001428D02*
X192681906Y-49287142D01*
X192681906Y-49287142D02*
X192634287Y-49382380D01*
X192634287Y-49382380D02*
X192586668Y-49430000D01*
X192586668Y-49430000D02*
X192491430Y-49477619D01*
X192491430Y-49477619D02*
X192348573Y-49477619D01*
X193539049Y-49477619D02*
X193539049Y-48953809D01*
X193539049Y-48953809D02*
X193491430Y-48858571D01*
X193491430Y-48858571D02*
X193396192Y-48810952D01*
X193396192Y-48810952D02*
X193205716Y-48810952D01*
X193205716Y-48810952D02*
X193110478Y-48858571D01*
X193539049Y-49430000D02*
X193443811Y-49477619D01*
X193443811Y-49477619D02*
X193205716Y-49477619D01*
X193205716Y-49477619D02*
X193110478Y-49430000D01*
X193110478Y-49430000D02*
X193062859Y-49334761D01*
X193062859Y-49334761D02*
X193062859Y-49239523D01*
X193062859Y-49239523D02*
X193110478Y-49144285D01*
X193110478Y-49144285D02*
X193205716Y-49096666D01*
X193205716Y-49096666D02*
X193443811Y-49096666D01*
X193443811Y-49096666D02*
X193539049Y-49049047D01*
X194015240Y-49477619D02*
X194015240Y-48810952D01*
X194015240Y-49001428D02*
X194062859Y-48906190D01*
X194062859Y-48906190D02*
X194110478Y-48858571D01*
X194110478Y-48858571D02*
X194205716Y-48810952D01*
X194205716Y-48810952D02*
X194300954Y-48810952D01*
X195062859Y-49477619D02*
X195062859Y-48477619D01*
X195062859Y-49430000D02*
X194967621Y-49477619D01*
X194967621Y-49477619D02*
X194777145Y-49477619D01*
X194777145Y-49477619D02*
X194681907Y-49430000D01*
X194681907Y-49430000D02*
X194634288Y-49382380D01*
X194634288Y-49382380D02*
X194586669Y-49287142D01*
X194586669Y-49287142D02*
X194586669Y-49001428D01*
X194586669Y-49001428D02*
X194634288Y-48906190D01*
X194634288Y-48906190D02*
X194681907Y-48858571D01*
X194681907Y-48858571D02*
X194777145Y-48810952D01*
X194777145Y-48810952D02*
X194967621Y-48810952D01*
X194967621Y-48810952D02*
X195062859Y-48858571D01*
X196158098Y-48477619D02*
X196491431Y-49477619D01*
X196491431Y-49477619D02*
X196824764Y-48477619D01*
X197681907Y-49477619D02*
X197110479Y-49477619D01*
X197396193Y-49477619D02*
X197396193Y-48477619D01*
X197396193Y-48477619D02*
X197300955Y-48620476D01*
X197300955Y-48620476D02*
X197205717Y-48715714D01*
X197205717Y-48715714D02*
X197110479Y-48763333D01*
X199205717Y-48953809D02*
X199348574Y-49001428D01*
X199348574Y-49001428D02*
X199396193Y-49049047D01*
X199396193Y-49049047D02*
X199443812Y-49144285D01*
X199443812Y-49144285D02*
X199443812Y-49287142D01*
X199443812Y-49287142D02*
X199396193Y-49382380D01*
X199396193Y-49382380D02*
X199348574Y-49430000D01*
X199348574Y-49430000D02*
X199253336Y-49477619D01*
X199253336Y-49477619D02*
X198872384Y-49477619D01*
X198872384Y-49477619D02*
X198872384Y-48477619D01*
X198872384Y-48477619D02*
X199205717Y-48477619D01*
X199205717Y-48477619D02*
X199300955Y-48525238D01*
X199300955Y-48525238D02*
X199348574Y-48572857D01*
X199348574Y-48572857D02*
X199396193Y-48668095D01*
X199396193Y-48668095D02*
X199396193Y-48763333D01*
X199396193Y-48763333D02*
X199348574Y-48858571D01*
X199348574Y-48858571D02*
X199300955Y-48906190D01*
X199300955Y-48906190D02*
X199205717Y-48953809D01*
X199205717Y-48953809D02*
X198872384Y-48953809D01*
X199777146Y-48810952D02*
X200015241Y-49477619D01*
X200253336Y-48810952D02*
X200015241Y-49477619D01*
X200015241Y-49477619D02*
X199920003Y-49715714D01*
X199920003Y-49715714D02*
X199872384Y-49763333D01*
X199872384Y-49763333D02*
X199777146Y-49810952D01*
X201396194Y-49477619D02*
X201396194Y-48477619D01*
X201396194Y-48477619D02*
X201967622Y-49477619D01*
X201967622Y-49477619D02*
X201967622Y-48477619D01*
X202443813Y-49477619D02*
X202443813Y-48810952D01*
X202443813Y-48477619D02*
X202396194Y-48525238D01*
X202396194Y-48525238D02*
X202443813Y-48572857D01*
X202443813Y-48572857D02*
X202491432Y-48525238D01*
X202491432Y-48525238D02*
X202443813Y-48477619D01*
X202443813Y-48477619D02*
X202443813Y-48572857D01*
X203348574Y-49430000D02*
X203253336Y-49477619D01*
X203253336Y-49477619D02*
X203062860Y-49477619D01*
X203062860Y-49477619D02*
X202967622Y-49430000D01*
X202967622Y-49430000D02*
X202920003Y-49382380D01*
X202920003Y-49382380D02*
X202872384Y-49287142D01*
X202872384Y-49287142D02*
X202872384Y-49001428D01*
X202872384Y-49001428D02*
X202920003Y-48906190D01*
X202920003Y-48906190D02*
X202967622Y-48858571D01*
X202967622Y-48858571D02*
X203062860Y-48810952D01*
X203062860Y-48810952D02*
X203253336Y-48810952D01*
X203253336Y-48810952D02*
X203348574Y-48858571D01*
X203920003Y-49477619D02*
X203824765Y-49430000D01*
X203824765Y-49430000D02*
X203777146Y-49382380D01*
X203777146Y-49382380D02*
X203729527Y-49287142D01*
X203729527Y-49287142D02*
X203729527Y-49001428D01*
X203729527Y-49001428D02*
X203777146Y-48906190D01*
X203777146Y-48906190D02*
X203824765Y-48858571D01*
X203824765Y-48858571D02*
X203920003Y-48810952D01*
X203920003Y-48810952D02*
X204062860Y-48810952D01*
X204062860Y-48810952D02*
X204158098Y-48858571D01*
X204158098Y-48858571D02*
X204205717Y-48906190D01*
X204205717Y-48906190D02*
X204253336Y-49001428D01*
X204253336Y-49001428D02*
X204253336Y-49287142D01*
X204253336Y-49287142D02*
X204205717Y-49382380D01*
X204205717Y-49382380D02*
X204158098Y-49430000D01*
X204158098Y-49430000D02*
X204062860Y-49477619D01*
X204062860Y-49477619D02*
X203920003Y-49477619D01*
X204824765Y-49477619D02*
X204729527Y-49430000D01*
X204729527Y-49430000D02*
X204681908Y-49334761D01*
X204681908Y-49334761D02*
X204681908Y-48477619D01*
X205586670Y-49430000D02*
X205491432Y-49477619D01*
X205491432Y-49477619D02*
X205300956Y-49477619D01*
X205300956Y-49477619D02*
X205205718Y-49430000D01*
X205205718Y-49430000D02*
X205158099Y-49334761D01*
X205158099Y-49334761D02*
X205158099Y-48953809D01*
X205158099Y-48953809D02*
X205205718Y-48858571D01*
X205205718Y-48858571D02*
X205300956Y-48810952D01*
X205300956Y-48810952D02*
X205491432Y-48810952D01*
X205491432Y-48810952D02*
X205586670Y-48858571D01*
X205586670Y-48858571D02*
X205634289Y-48953809D01*
X205634289Y-48953809D02*
X205634289Y-49049047D01*
X205634289Y-49049047D02*
X205158099Y-49144285D01*
X206824766Y-49477619D02*
X206824766Y-48477619D01*
X206824766Y-48477619D02*
X207158099Y-49191904D01*
X207158099Y-49191904D02*
X207491432Y-48477619D01*
X207491432Y-48477619D02*
X207491432Y-49477619D01*
X208396194Y-49477619D02*
X208396194Y-48953809D01*
X208396194Y-48953809D02*
X208348575Y-48858571D01*
X208348575Y-48858571D02*
X208253337Y-48810952D01*
X208253337Y-48810952D02*
X208062861Y-48810952D01*
X208062861Y-48810952D02*
X207967623Y-48858571D01*
X208396194Y-49430000D02*
X208300956Y-49477619D01*
X208300956Y-49477619D02*
X208062861Y-49477619D01*
X208062861Y-49477619D02*
X207967623Y-49430000D01*
X207967623Y-49430000D02*
X207920004Y-49334761D01*
X207920004Y-49334761D02*
X207920004Y-49239523D01*
X207920004Y-49239523D02*
X207967623Y-49144285D01*
X207967623Y-49144285D02*
X208062861Y-49096666D01*
X208062861Y-49096666D02*
X208300956Y-49096666D01*
X208300956Y-49096666D02*
X208396194Y-49049047D01*
X209300956Y-48810952D02*
X209300956Y-49620476D01*
X209300956Y-49620476D02*
X209253337Y-49715714D01*
X209253337Y-49715714D02*
X209205718Y-49763333D01*
X209205718Y-49763333D02*
X209110480Y-49810952D01*
X209110480Y-49810952D02*
X208967623Y-49810952D01*
X208967623Y-49810952D02*
X208872385Y-49763333D01*
X209300956Y-49430000D02*
X209205718Y-49477619D01*
X209205718Y-49477619D02*
X209015242Y-49477619D01*
X209015242Y-49477619D02*
X208920004Y-49430000D01*
X208920004Y-49430000D02*
X208872385Y-49382380D01*
X208872385Y-49382380D02*
X208824766Y-49287142D01*
X208824766Y-49287142D02*
X208824766Y-49001428D01*
X208824766Y-49001428D02*
X208872385Y-48906190D01*
X208872385Y-48906190D02*
X208920004Y-48858571D01*
X208920004Y-48858571D02*
X209015242Y-48810952D01*
X209015242Y-48810952D02*
X209205718Y-48810952D01*
X209205718Y-48810952D02*
X209300956Y-48858571D01*
X210205718Y-48810952D02*
X210205718Y-49620476D01*
X210205718Y-49620476D02*
X210158099Y-49715714D01*
X210158099Y-49715714D02*
X210110480Y-49763333D01*
X210110480Y-49763333D02*
X210015242Y-49810952D01*
X210015242Y-49810952D02*
X209872385Y-49810952D01*
X209872385Y-49810952D02*
X209777147Y-49763333D01*
X210205718Y-49430000D02*
X210110480Y-49477619D01*
X210110480Y-49477619D02*
X209920004Y-49477619D01*
X209920004Y-49477619D02*
X209824766Y-49430000D01*
X209824766Y-49430000D02*
X209777147Y-49382380D01*
X209777147Y-49382380D02*
X209729528Y-49287142D01*
X209729528Y-49287142D02*
X209729528Y-49001428D01*
X209729528Y-49001428D02*
X209777147Y-48906190D01*
X209777147Y-48906190D02*
X209824766Y-48858571D01*
X209824766Y-48858571D02*
X209920004Y-48810952D01*
X209920004Y-48810952D02*
X210110480Y-48810952D01*
X210110480Y-48810952D02*
X210205718Y-48858571D01*
X211110480Y-49477619D02*
X211110480Y-48953809D01*
X211110480Y-48953809D02*
X211062861Y-48858571D01*
X211062861Y-48858571D02*
X210967623Y-48810952D01*
X210967623Y-48810952D02*
X210777147Y-48810952D01*
X210777147Y-48810952D02*
X210681909Y-48858571D01*
X211110480Y-49430000D02*
X211015242Y-49477619D01*
X211015242Y-49477619D02*
X210777147Y-49477619D01*
X210777147Y-49477619D02*
X210681909Y-49430000D01*
X210681909Y-49430000D02*
X210634290Y-49334761D01*
X210634290Y-49334761D02*
X210634290Y-49239523D01*
X210634290Y-49239523D02*
X210681909Y-49144285D01*
X210681909Y-49144285D02*
X210777147Y-49096666D01*
X210777147Y-49096666D02*
X211015242Y-49096666D01*
X211015242Y-49096666D02*
X211110480Y-49049047D01*
X211586671Y-49477619D02*
X211586671Y-48810952D01*
X211586671Y-49001428D02*
X211634290Y-48906190D01*
X211634290Y-48906190D02*
X211681909Y-48858571D01*
X211681909Y-48858571D02*
X211777147Y-48810952D01*
X211777147Y-48810952D02*
X211872385Y-48810952D01*
X212634290Y-49477619D02*
X212634290Y-48477619D01*
X212634290Y-49430000D02*
X212539052Y-49477619D01*
X212539052Y-49477619D02*
X212348576Y-49477619D01*
X212348576Y-49477619D02*
X212253338Y-49430000D01*
X212253338Y-49430000D02*
X212205719Y-49382380D01*
X212205719Y-49382380D02*
X212158100Y-49287142D01*
X212158100Y-49287142D02*
X212158100Y-49001428D01*
X212158100Y-49001428D02*
X212205719Y-48906190D01*
X212205719Y-48906190D02*
X212253338Y-48858571D01*
X212253338Y-48858571D02*
X212348576Y-48810952D01*
X212348576Y-48810952D02*
X212539052Y-48810952D01*
X212539052Y-48810952D02*
X212634290Y-48858571D01*
%TO.C,G\u002A\u002A\u002A*%
G36*
X197953873Y-51095760D02*
G01*
X198300776Y-51095760D01*
X198316177Y-51160561D01*
X198354071Y-51220168D01*
X198362590Y-51230520D01*
X198442115Y-51304752D01*
X198524419Y-51336718D01*
X198617558Y-51328481D01*
X198671536Y-51309585D01*
X198736159Y-51267705D01*
X198790055Y-51208966D01*
X198793495Y-51203566D01*
X198832517Y-51104535D01*
X198833434Y-51008842D01*
X198802407Y-50922723D01*
X198745597Y-50852410D01*
X198669164Y-50804140D01*
X198579270Y-50784147D01*
X198482076Y-50798665D01*
X198421634Y-50827254D01*
X198347954Y-50887129D01*
X198310638Y-50959706D01*
X198302832Y-51006924D01*
X198300776Y-51095760D01*
X197953873Y-51095760D01*
X197956323Y-51019225D01*
X197961376Y-50936661D01*
X197968771Y-50875793D01*
X197979379Y-50828973D01*
X197994070Y-50788553D01*
X198009499Y-50755380D01*
X198083318Y-50648984D01*
X198192344Y-50559402D01*
X198337692Y-50486304D01*
X198520473Y-50429362D01*
X198741803Y-50388245D01*
X199002793Y-50362626D01*
X199304559Y-50352175D01*
X199374384Y-50351877D01*
X199620334Y-50355565D01*
X199828168Y-50366891D01*
X200003889Y-50386690D01*
X200153499Y-50415801D01*
X200283002Y-50455060D01*
X200367669Y-50490315D01*
X200521673Y-50583331D01*
X200652262Y-50704203D01*
X200749839Y-50843813D01*
X200759384Y-50862427D01*
X200814015Y-50973444D01*
X200814015Y-51843919D01*
X200813941Y-52064303D01*
X200813565Y-52244691D01*
X200812655Y-52389729D01*
X200810981Y-52504060D01*
X200808310Y-52592329D01*
X200804410Y-52659181D01*
X200799051Y-52709259D01*
X200792001Y-52747209D01*
X200783028Y-52777674D01*
X200771901Y-52805300D01*
X200765374Y-52819681D01*
X200694072Y-52937753D01*
X200596415Y-53050432D01*
X200485612Y-53144255D01*
X200394708Y-53197450D01*
X200364950Y-53210463D01*
X200335662Y-53221195D01*
X200302299Y-53229925D01*
X200260311Y-53236936D01*
X200205151Y-53242508D01*
X200132272Y-53246923D01*
X200037124Y-53250461D01*
X199915161Y-53253405D01*
X199761835Y-53256035D01*
X199572597Y-53258632D01*
X199363224Y-53261230D01*
X198448109Y-53272390D01*
X198296919Y-53344006D01*
X198169903Y-53418755D01*
X198047139Y-53516928D01*
X197941122Y-53627009D01*
X197864344Y-53737482D01*
X197858969Y-53747688D01*
X197817011Y-53840902D01*
X197786124Y-53938344D01*
X197764912Y-54048737D01*
X197751981Y-54180804D01*
X197745936Y-54343266D01*
X197745034Y-54460032D01*
X197745034Y-54823620D01*
X197438136Y-54822127D01*
X197298879Y-54819165D01*
X197178414Y-54812166D01*
X197086037Y-54801832D01*
X197039644Y-54791966D01*
X196894540Y-54727350D01*
X196769404Y-54629565D01*
X196662942Y-54496684D01*
X196573863Y-54326777D01*
X196500873Y-54117915D01*
X196451815Y-53914728D01*
X196402593Y-53581746D01*
X196393612Y-53257385D01*
X196425110Y-52932391D01*
X196484634Y-52645814D01*
X196557431Y-52436491D01*
X196660560Y-52257242D01*
X196792418Y-52110153D01*
X196951402Y-51997310D01*
X197003611Y-51970697D01*
X197131238Y-51910879D01*
X199385544Y-51888559D01*
X199385544Y-51710000D01*
X198663993Y-51704108D01*
X197942443Y-51698217D01*
X197949758Y-51280031D01*
X197952740Y-51131132D01*
X197953873Y-51095760D01*
G37*
G36*
X197953403Y-55617131D02*
G01*
X199930084Y-55617131D01*
X199934155Y-55712929D01*
X199973516Y-55805890D01*
X200004387Y-55845189D01*
X200085754Y-55911664D01*
X200171453Y-55935834D01*
X200269511Y-55919386D01*
X200300886Y-55907477D01*
X200386643Y-55851652D01*
X200440159Y-55775604D01*
X200463194Y-55688032D01*
X200457509Y-55597637D01*
X200424863Y-55513120D01*
X200367017Y-55443180D01*
X200285731Y-55396519D01*
X200194495Y-55381617D01*
X200093508Y-55400738D01*
X200013370Y-55452232D01*
X199957692Y-55527298D01*
X199930084Y-55617131D01*
X197953403Y-55617131D01*
X197950506Y-55554978D01*
X197948280Y-55458166D01*
X197946992Y-55333379D01*
X197946377Y-55175813D01*
X197946166Y-54980666D01*
X197946131Y-54874677D01*
X197946197Y-54658690D01*
X197946674Y-54482459D01*
X197947795Y-54341103D01*
X197949790Y-54229740D01*
X197952892Y-54143487D01*
X197957331Y-54077463D01*
X197963341Y-54026784D01*
X197971151Y-53986568D01*
X197980995Y-53951934D01*
X197991297Y-53922800D01*
X198070223Y-53773435D01*
X198184836Y-53644220D01*
X198327907Y-53543018D01*
X198351884Y-53530486D01*
X198488719Y-53462109D01*
X199271929Y-53461667D01*
X199462163Y-53460931D01*
X199644666Y-53459044D01*
X199813000Y-53456159D01*
X199960726Y-53452432D01*
X200081405Y-53448017D01*
X200168600Y-53443070D01*
X200207497Y-53439197D01*
X200404097Y-53389085D01*
X200581480Y-53300165D01*
X200735147Y-53175774D01*
X200860596Y-53019248D01*
X200920958Y-52910224D01*
X200992573Y-52759033D01*
X200999480Y-52329376D01*
X201006386Y-51899719D01*
X201356598Y-51900698D01*
X201514172Y-51902570D01*
X201635501Y-51908311D01*
X201728926Y-51919610D01*
X201802789Y-51938157D01*
X201865431Y-51965640D01*
X201925193Y-52003747D01*
X201947533Y-52020334D01*
X202042519Y-52116913D01*
X202129157Y-52253238D01*
X202205948Y-52424941D01*
X202271390Y-52627657D01*
X202323985Y-52857020D01*
X202362232Y-53108663D01*
X202378030Y-53273279D01*
X202380772Y-53473291D01*
X202361680Y-53684060D01*
X202323210Y-53897086D01*
X202267821Y-54103874D01*
X202197971Y-54295926D01*
X202116117Y-54464743D01*
X202024718Y-54601829D01*
X201978908Y-54653135D01*
X201942568Y-54688956D01*
X201908347Y-54719372D01*
X201872428Y-54744824D01*
X201830995Y-54765754D01*
X201780231Y-54782605D01*
X201716319Y-54795819D01*
X201635444Y-54805838D01*
X201533788Y-54813104D01*
X201407536Y-54818060D01*
X201252870Y-54821147D01*
X201065975Y-54822808D01*
X200843033Y-54823485D01*
X200580229Y-54823619D01*
X200507362Y-54823620D01*
X199371817Y-54823620D01*
X199378680Y-54918480D01*
X199385544Y-55013339D01*
X200105359Y-55019228D01*
X200825175Y-55025117D01*
X200825175Y-55333235D01*
X200822479Y-55501337D01*
X200812897Y-55633618D01*
X200794187Y-55738655D01*
X200764107Y-55825023D01*
X200720414Y-55901301D01*
X200660866Y-55976063D01*
X200655578Y-55981983D01*
X200533581Y-56089144D01*
X200375348Y-56183598D01*
X200187920Y-56263583D01*
X199978337Y-56327337D01*
X199753641Y-56373097D01*
X199520872Y-56399102D01*
X199287072Y-56403590D01*
X199059280Y-56384799D01*
X199050746Y-56383589D01*
X198924329Y-56359809D01*
X198778860Y-56323761D01*
X198630680Y-56280201D01*
X198496134Y-56233884D01*
X198402783Y-56195000D01*
X198277443Y-56121106D01*
X198160034Y-56025431D01*
X198062474Y-55919110D01*
X197998528Y-55817307D01*
X197985063Y-55787493D01*
X197974138Y-55758520D01*
X197965487Y-55725584D01*
X197958842Y-55683884D01*
X197953938Y-55628616D01*
X197953403Y-55617131D01*
G37*
%TD*%
D14*
%TO.C,D5*%
X210684189Y-90795812D03*
X211797883Y-89682118D03*
%TD*%
D15*
%TO.C,R22*%
X178537868Y-104804924D03*
D16*
X179103553Y-104239239D03*
X179669239Y-103673553D03*
D15*
X180234924Y-103107868D03*
X178962132Y-101835076D03*
D16*
X178396447Y-102400761D03*
X177830761Y-102966447D03*
D15*
X177265076Y-103532132D03*
%TD*%
D17*
%TO.C,C11*%
X203079411Y-89110589D03*
X202400589Y-89789411D03*
%TD*%
D18*
%TO.C,C13*%
X217210000Y-89295000D03*
X217210000Y-87745000D03*
%TD*%
D19*
%TO.C,R7*%
X215520000Y-81480000D03*
X217170000Y-81480000D03*
%TD*%
D20*
%TO.C,C17*%
X172430000Y-88410000D03*
X173390000Y-88410000D03*
%TD*%
D21*
%TO.C,R15*%
X206960000Y-120650000D03*
X206960000Y-119630000D03*
%TD*%
D22*
%TO.C,J6*%
X153170000Y-71210000D03*
D23*
X150630000Y-68670000D03*
X150630000Y-73750000D03*
X155710000Y-68670000D03*
X155710000Y-73750000D03*
%TD*%
D24*
%TO.C,C16*%
X152910000Y-60185000D03*
X152910000Y-61735000D03*
%TD*%
D25*
%TO.C,R18*%
X174255000Y-85830000D03*
X172605000Y-85830000D03*
%TD*%
D26*
%TO.C,IC2*%
X224780000Y-95970000D03*
X224780000Y-93670000D03*
X224780000Y-91370000D03*
D27*
X218480000Y-93670000D03*
%TD*%
D28*
%TO.C,C24*%
X179108249Y-114571751D03*
X180451751Y-113228249D03*
%TD*%
D29*
%TO.C,C4*%
X202780589Y-90849411D03*
X203459411Y-90170589D03*
%TD*%
D30*
%TO.C,C25*%
X193341751Y-119711751D03*
X191998249Y-118368249D03*
%TD*%
D31*
%TO.C,D1*%
X209157500Y-63130000D03*
X207582500Y-63130000D03*
%TD*%
D15*
%TO.C,R6*%
X201245736Y-79979848D03*
D16*
X201811421Y-79414163D03*
X202377107Y-78848477D03*
D15*
X202942792Y-78282792D03*
X201670000Y-77010000D03*
D16*
X201104315Y-77575685D03*
X200538629Y-78141371D03*
D15*
X199972944Y-78707056D03*
%TD*%
D32*
%TO.C,FB1*%
X195676637Y-114936637D03*
X196843363Y-116103363D03*
%TD*%
D18*
%TO.C,C12*%
X218810000Y-89315000D03*
X218810000Y-87765000D03*
%TD*%
D33*
%TO.C,D3*%
X220382500Y-89190000D03*
X221957500Y-89190000D03*
%TD*%
D34*
%TO.C,C20*%
X185068008Y-119961992D03*
X183971992Y-121058008D03*
%TD*%
D20*
%TO.C,C18*%
X172970000Y-84560000D03*
X173930000Y-84560000D03*
%TD*%
D35*
%TO.C,SW2*%
X202480000Y-93910000D03*
X198380000Y-93910000D03*
X202480000Y-95510000D03*
X198380000Y-95510000D03*
%TD*%
D20*
%TO.C,C32*%
X189040000Y-86550000D03*
X190000000Y-86550000D03*
%TD*%
%TO.C,C19*%
X172980000Y-83480000D03*
X173940000Y-83480000D03*
%TD*%
D36*
%TO.C,C34*%
X190300000Y-82430000D03*
X190300000Y-83390000D03*
%TD*%
D25*
%TO.C,L1*%
X156065000Y-60190000D03*
X154415000Y-60190000D03*
%TD*%
D37*
%TO.C,C3*%
X210853984Y-79396016D03*
X211950000Y-78300000D03*
%TD*%
D38*
%TO.C,Y2*%
X193601142Y-105773223D03*
X195156777Y-107328858D03*
X196358858Y-106126777D03*
X194803223Y-104571142D03*
%TD*%
D39*
%TO.C,R2*%
X201460624Y-90269376D03*
X200739376Y-90990624D03*
%TD*%
D25*
%TO.C,R17*%
X174295000Y-89690000D03*
X172645000Y-89690000D03*
%TD*%
D40*
%TO.C,C22*%
X190801992Y-119721992D03*
X191898008Y-120818008D03*
%TD*%
D41*
%TO.C,R21*%
X192256637Y-104563363D03*
X193423363Y-103396637D03*
%TD*%
D42*
%TO.C,Y1*%
X198642614Y-88692512D03*
X199880051Y-89929949D03*
X200870000Y-88940000D03*
X199632563Y-87702563D03*
%TD*%
D37*
%TO.C,C8*%
X211931992Y-80468008D03*
X213028008Y-79371992D03*
%TD*%
D43*
%TO.C,C10*%
X201909411Y-82689411D03*
X201230589Y-82010589D03*
%TD*%
D44*
%TO.C,JP1*%
X217730000Y-129510000D03*
D45*
X219030000Y-129510000D03*
%TD*%
D46*
%TO.C,*%
X227414400Y-138100000D03*
%TD*%
%TO.C,*%
X147381083Y-138100000D03*
%TD*%
D24*
%TO.C,C15*%
X157560000Y-60175000D03*
X157560000Y-61725000D03*
%TD*%
D28*
%TO.C,C27*%
X196578249Y-113161751D03*
X197921751Y-111818249D03*
%TD*%
D47*
%TO.C,R12*%
X220143363Y-72943363D03*
X218976637Y-71776637D03*
%TD*%
D25*
%TO.C,R14*%
X174275000Y-92770000D03*
X172625000Y-92770000D03*
%TD*%
D48*
%TO.C,U4*%
X160910000Y-60001499D03*
X160910000Y-62001499D03*
X160910000Y-64001499D03*
X160910000Y-66001499D03*
X160910000Y-68001499D03*
X160910000Y-70001499D03*
X160910000Y-72001499D03*
X160910000Y-74001499D03*
X195910000Y-74001499D03*
X195910000Y-72001499D03*
X195910000Y-70001499D03*
X195910000Y-68001499D03*
X195910000Y-66001499D03*
X195910000Y-64001499D03*
X195910000Y-62001499D03*
X195910000Y-60001499D03*
D49*
X172477500Y-65251499D03*
%TD*%
D50*
%TO.C,R19*%
X175730000Y-84275000D03*
X175730000Y-85925000D03*
%TD*%
D51*
%TO.C,U1*%
X187320000Y-104777500D03*
X188270000Y-104777500D03*
X189220000Y-104777500D03*
X189220000Y-102502500D03*
X187320000Y-102502500D03*
%TD*%
D19*
%TO.C,R4*%
X210685000Y-63130000D03*
X212335000Y-63130000D03*
%TD*%
D41*
%TO.C,R20*%
X182866637Y-120003363D03*
X184033363Y-118836637D03*
%TD*%
D52*
%TO.C,TP2*%
X195510000Y-91320000D03*
%TD*%
D53*
%TO.C,D6*%
X221130000Y-129570000D03*
X223330000Y-129570000D03*
%TD*%
D54*
%TO.C,U7*%
X187257500Y-87970000D03*
X187257500Y-88470000D03*
X187257500Y-88970000D03*
X187257500Y-89470000D03*
D55*
X187920000Y-89632500D03*
X188420000Y-89632500D03*
X188920000Y-89632500D03*
D54*
X189582500Y-89470000D03*
X189582500Y-88970000D03*
X189582500Y-88470000D03*
X189582500Y-87970000D03*
D55*
X188920000Y-87807500D03*
X188420000Y-87807500D03*
X187920000Y-87807500D03*
%TD*%
D17*
%TO.C,C2*%
X198499411Y-86870589D03*
X197820589Y-87549411D03*
%TD*%
D44*
%TO.C,JP6*%
X154540000Y-64220000D03*
D45*
X155840000Y-64220000D03*
%TD*%
D37*
%TO.C,C28*%
X195421992Y-111748008D03*
X196518008Y-110651992D03*
%TD*%
D40*
%TO.C,C6*%
X212811992Y-85251992D03*
X213908008Y-86348008D03*
%TD*%
D43*
%TO.C,C9*%
X205989411Y-78729411D03*
X205310589Y-78050589D03*
%TD*%
D56*
%TO.C,U6*%
X215131454Y-70467377D03*
X214233428Y-71365403D03*
X213335403Y-72263428D03*
X212437377Y-73161454D03*
X217528546Y-78252623D03*
X218426572Y-77354597D03*
X219324597Y-76456572D03*
X220222623Y-75558546D03*
%TD*%
D31*
%TO.C,D2*%
X209137500Y-64730000D03*
X207562500Y-64730000D03*
%TD*%
D32*
%TO.C,FB2*%
X179196637Y-109776637D03*
X180363363Y-110943363D03*
%TD*%
D57*
%TO.C,C7*%
X208890589Y-90770589D03*
X209569411Y-91449411D03*
%TD*%
D19*
%TO.C,R8*%
X215525000Y-83070000D03*
X217175000Y-83070000D03*
%TD*%
D58*
%TO.C,LED1*%
X218160000Y-99190000D03*
X218160000Y-102490000D03*
X223060000Y-102490000D03*
X223060000Y-99190000D03*
%TD*%
D53*
%TO.C,D7*%
X221160000Y-132720000D03*
X223360000Y-132720000D03*
%TD*%
D41*
%TO.C,R11*%
X209546637Y-89703363D03*
X210713363Y-88536637D03*
%TD*%
D57*
%TO.C,C1*%
X201330589Y-87440589D03*
X202009411Y-88119411D03*
%TD*%
D59*
%TO.C,D4*%
X208964683Y-71637817D03*
X210520317Y-70082183D03*
%TD*%
D19*
%TO.C,R3*%
X210685000Y-64750000D03*
X212335000Y-64750000D03*
%TD*%
D60*
%TO.C,J4*%
X209635000Y-133480000D03*
X208535000Y-133480000D03*
X207435000Y-133480000D03*
X206335000Y-133480000D03*
X205235000Y-133480000D03*
X204135000Y-133480000D03*
X203035000Y-133480000D03*
D61*
X201985000Y-133480000D03*
D62*
X212270000Y-127330000D03*
X212270000Y-123630000D03*
D63*
X212095000Y-133355000D03*
D64*
X208770000Y-122655000D03*
X202800000Y-122655000D03*
D65*
X200775000Y-133130000D03*
%TD*%
D47*
%TO.C,R1*%
X205323363Y-92633363D03*
X204156637Y-91466637D03*
%TD*%
D66*
%TO.C,J7*%
X220050000Y-68150000D03*
X220050000Y-67150000D03*
X220050000Y-66150000D03*
X220050000Y-65150000D03*
D67*
X223925000Y-69450000D03*
X223925000Y-63850000D03*
%TD*%
D34*
%TO.C,C21*%
X181678008Y-116701992D03*
X180581992Y-117798008D03*
%TD*%
D40*
%TO.C,C23*%
X193311992Y-117171992D03*
X194408008Y-118268008D03*
%TD*%
D68*
%TO.C,IC1*%
X205337798Y-81040843D03*
X205054955Y-81323686D03*
X204772113Y-81606528D03*
X204489270Y-81889371D03*
X204206427Y-82172214D03*
X203923585Y-82455056D03*
X203640742Y-82737899D03*
X203357899Y-83020742D03*
X203075056Y-83303585D03*
X202792214Y-83586427D03*
X202509371Y-83869270D03*
X202226528Y-84152113D03*
X201943686Y-84434955D03*
X201660843Y-84717798D03*
D69*
X201660843Y-85902202D03*
X201943686Y-86185045D03*
X202226528Y-86467887D03*
X202509371Y-86750730D03*
X202792214Y-87033573D03*
X203075056Y-87316415D03*
X203357899Y-87599258D03*
X203640742Y-87882101D03*
X203923585Y-88164944D03*
X204206427Y-88447786D03*
X204489270Y-88730629D03*
X204772113Y-89013472D03*
X205054955Y-89296314D03*
X205337798Y-89579157D03*
D68*
X206522202Y-89579157D03*
X206805045Y-89296314D03*
X207087887Y-89013472D03*
X207370730Y-88730629D03*
X207653573Y-88447786D03*
X207936415Y-88164944D03*
X208219258Y-87882101D03*
X208502101Y-87599258D03*
X208784944Y-87316415D03*
X209067786Y-87033573D03*
X209350629Y-86750730D03*
X209633472Y-86467887D03*
X209916314Y-86185045D03*
X210199157Y-85902202D03*
D69*
X210199157Y-84717798D03*
X209916314Y-84434955D03*
X209633472Y-84152113D03*
X209350629Y-83869270D03*
X209067786Y-83586427D03*
X208784944Y-83303585D03*
X208502101Y-83020742D03*
X208219258Y-82737899D03*
X207936415Y-82455056D03*
X207653573Y-82172214D03*
X207370730Y-81889371D03*
X207087887Y-81606528D03*
X206805045Y-81323686D03*
X206522202Y-81040843D03*
D70*
X205930000Y-85310000D03*
%TD*%
D20*
%TO.C,C31*%
X187860000Y-85190000D03*
X188820000Y-85190000D03*
%TD*%
D71*
%TO.C,U5*%
X177385000Y-74000000D03*
X177385000Y-72000000D03*
X177385000Y-70000000D03*
X177385000Y-68000000D03*
X177385000Y-66000000D03*
X177385000Y-64000000D03*
X177385000Y-62000000D03*
X177385000Y-60000000D03*
X162335000Y-60000000D03*
X162335000Y-62000000D03*
X162335000Y-64000000D03*
X162335000Y-66000000D03*
X162335000Y-68000000D03*
X162335000Y-70000000D03*
X162335000Y-72000000D03*
X162335000Y-74000000D03*
%TD*%
D43*
%TO.C,C5*%
X214538822Y-85218822D03*
X213860000Y-84540000D03*
%TD*%
D25*
%TO.C,R16*%
X174285000Y-91230000D03*
X172635000Y-91230000D03*
%TD*%
D72*
%TO.C,U8*%
X187557500Y-82470000D03*
X187557500Y-82970000D03*
X187557500Y-83470000D03*
X187557500Y-83970000D03*
D73*
X188070000Y-83982500D03*
X188570000Y-83982500D03*
D72*
X189082500Y-83970000D03*
X189082500Y-83470000D03*
X189082500Y-82970000D03*
X189082500Y-82470000D03*
D73*
X188570000Y-82457500D03*
X188070000Y-82457500D03*
%TD*%
D44*
%TO.C,JP2*%
X217700000Y-132720000D03*
D45*
X219000000Y-132720000D03*
%TD*%
D35*
%TO.C,SW1*%
X197450000Y-83260000D03*
X193350000Y-83260000D03*
X197450000Y-84860000D03*
X193350000Y-84860000D03*
%TD*%
D36*
%TO.C,C36*%
X175750000Y-87200000D03*
X175750000Y-88160000D03*
%TD*%
D57*
%TO.C,C29*%
X192910589Y-107160589D03*
X193589411Y-107839411D03*
%TD*%
D74*
%TO.C,C14*%
X174405000Y-76950000D03*
X172855000Y-76950000D03*
%TD*%
D75*
%TO.C,J2*%
X217950000Y-124180000D03*
X217950000Y-122680000D03*
X217950000Y-121180000D03*
X217950000Y-119680000D03*
X217950000Y-118180000D03*
X217950000Y-116680000D03*
X217950000Y-115180000D03*
X217950000Y-113680000D03*
X217950000Y-112180000D03*
X217950000Y-110680000D03*
X217950000Y-109180000D03*
X217950000Y-107680000D03*
D76*
X223140000Y-126785000D03*
X223140000Y-105075000D03*
%TD*%
D36*
%TO.C,C33*%
X185690000Y-83040000D03*
X185690000Y-84000000D03*
%TD*%
D52*
%TO.C,TP1*%
X192960000Y-79300000D03*
%TD*%
D32*
%TO.C,R5*%
X202296637Y-100356637D03*
X203463363Y-101523363D03*
%TD*%
D77*
%TO.C,U3*%
X212627838Y-98956238D03*
X211729813Y-98058213D03*
X210831787Y-97160187D03*
X209933762Y-96262162D03*
X206292162Y-99903762D03*
X207190187Y-100801787D03*
X208088213Y-101699813D03*
X208986238Y-102597838D03*
%TD*%
D78*
%TO.C,R10*%
X212553363Y-67806637D03*
X211386637Y-68973363D03*
%TD*%
D79*
%TO.C,C26*%
X195528008Y-117148008D03*
X194431992Y-116051992D03*
%TD*%
D17*
%TO.C,C30*%
X197249411Y-107470589D03*
X196570589Y-108149411D03*
%TD*%
D80*
%TO.C,J8*%
X222260000Y-81720000D03*
X222260000Y-82370000D03*
X222260000Y-83020000D03*
X222260000Y-83670000D03*
X222260000Y-84320000D03*
D81*
X224920000Y-86970000D03*
D82*
X222620000Y-85482500D03*
D83*
X224920000Y-83957500D03*
X224920000Y-82082500D03*
D82*
X222620000Y-80557500D03*
D81*
X224920000Y-79070000D03*
%TD*%
D25*
%TO.C,R13*%
X185495000Y-76970000D03*
X183845000Y-76970000D03*
%TD*%
D84*
%TO.C,U2*%
X182484248Y-114327576D03*
X182837802Y-114681130D03*
X183191355Y-115034683D03*
X183544909Y-115388237D03*
X183898462Y-115741790D03*
X184252015Y-116095343D03*
X184605569Y-116448897D03*
X184959122Y-116802450D03*
X185312675Y-117156003D03*
X185666229Y-117509557D03*
X186019782Y-117863110D03*
X186373336Y-118216664D03*
D85*
X188370912Y-118216664D03*
X188724466Y-117863110D03*
X189078019Y-117509557D03*
X189431573Y-117156003D03*
X189785126Y-116802450D03*
X190138679Y-116448897D03*
X190492233Y-116095343D03*
X190845786Y-115741790D03*
X191199339Y-115388237D03*
X191552893Y-115034683D03*
X191906446Y-114681130D03*
X192260000Y-114327576D03*
D84*
X192260000Y-112330000D03*
X191906446Y-111976446D03*
X191552893Y-111622893D03*
X191199339Y-111269339D03*
X190845786Y-110915786D03*
X190492233Y-110562233D03*
X190138679Y-110208679D03*
X189785126Y-109855126D03*
X189431573Y-109501573D03*
X189078019Y-109148019D03*
X188724466Y-108794466D03*
X188370912Y-108440912D03*
D85*
X186373336Y-108440912D03*
X186019782Y-108794466D03*
X185666229Y-109148019D03*
X185312675Y-109501573D03*
X184959122Y-109855126D03*
X184605569Y-110208679D03*
X184252015Y-110562233D03*
X183898462Y-110915786D03*
X183544909Y-111269339D03*
X183191355Y-111622893D03*
X182837802Y-111976446D03*
X182484248Y-112330000D03*
%TD*%
D86*
%TO.C,J3*%
X204330000Y-60190000D03*
D87*
X204330000Y-62730000D03*
X204330000Y-65270000D03*
X204330000Y-67810000D03*
X204330000Y-70350000D03*
X204330000Y-72890000D03*
%TD*%
D20*
%TO.C,C35*%
X187970000Y-90950000D03*
X188930000Y-90950000D03*
%TD*%
D25*
%TO.C,R9*%
X225065000Y-89180000D03*
X223415000Y-89180000D03*
%TD*%
D88*
%TO.C,J1*%
X200345000Y-97380000D03*
X196535000Y-97380000D03*
%TD*%
D89*
%TO.C,J5*%
X160150001Y-93500000D03*
X160150001Y-82070000D03*
D90*
X166490001Y-92230000D03*
X169030001Y-90960000D03*
X166490001Y-89690000D03*
X169030001Y-88420000D03*
X166490001Y-87150000D03*
X169030001Y-85880000D03*
X166490001Y-84610000D03*
X169030001Y-83340000D03*
X155250001Y-83999892D03*
X156770000Y-81459892D03*
X156770000Y-91569999D03*
X155250001Y-94109999D03*
D91*
X163200000Y-95560000D03*
X163200000Y-80010000D03*
%TD*%
G36*
X223442946Y-49636608D02*
G01*
X227338202Y-49627940D01*
X227347692Y-49628277D01*
X227995056Y-49675724D01*
X228034308Y-49685079D01*
X228603298Y-49922159D01*
X228626284Y-49934683D01*
X229087963Y-50252515D01*
X229109748Y-50271542D01*
X229591266Y-50801213D01*
X229606523Y-50821893D01*
X229784671Y-51123518D01*
X229798292Y-51156534D01*
X230040144Y-52107334D01*
X230044024Y-52136891D01*
X230049533Y-52598528D01*
X230041700Y-52643789D01*
X229704374Y-53554689D01*
X229695615Y-53573445D01*
X229508374Y-53901118D01*
X229490183Y-53925536D01*
X229067070Y-54369468D01*
X229051462Y-54383337D01*
X228668419Y-54670619D01*
X228650301Y-54681943D01*
X228355842Y-54832900D01*
X228330826Y-54842522D01*
X227609798Y-55034797D01*
X227577332Y-55039051D01*
X223255209Y-55039051D01*
X223232669Y-55037019D01*
X222714324Y-54942774D01*
X222675648Y-54928936D01*
X222204120Y-54666835D01*
X222192100Y-54659235D01*
X221852348Y-54416555D01*
X221843741Y-54409825D01*
X221644962Y-54240005D01*
X221642788Y-54238105D01*
X221337547Y-53964992D01*
X221312165Y-53933606D01*
X221125770Y-53607415D01*
X221119536Y-53594952D01*
X220951003Y-53205589D01*
X220941609Y-53171166D01*
X220893825Y-52788894D01*
X220893824Y-52788894D01*
X220838383Y-52354226D01*
X220838198Y-52323859D01*
X220840520Y-52303707D01*
X222041620Y-52303707D01*
X222057452Y-52552835D01*
X222112447Y-52796329D01*
X222205225Y-53028083D01*
X222333454Y-53242267D01*
X222493906Y-53433490D01*
X222682565Y-53596969D01*
X222894677Y-53728582D01*
X223124922Y-53825029D01*
X223367516Y-53883887D01*
X223616372Y-53903722D01*
X227466355Y-53953722D01*
X227716666Y-53934027D01*
X227960802Y-53875421D01*
X228192773Y-53779340D01*
X228406847Y-53648159D01*
X228597774Y-53485098D01*
X228760836Y-53294181D01*
X228892023Y-53080106D01*
X228988109Y-52848140D01*
X229046720Y-52604002D01*
X229066421Y-52353699D01*
X229046720Y-52103397D01*
X228988109Y-51859259D01*
X228892023Y-51627293D01*
X228760836Y-51413218D01*
X228597774Y-51222301D01*
X228406847Y-51059240D01*
X228192773Y-50928059D01*
X227960802Y-50831978D01*
X227716668Y-50773372D01*
X227466356Y-50753722D01*
X223666333Y-50754515D01*
X223416993Y-50766398D01*
X223172649Y-50817529D01*
X222939462Y-50906620D01*
X222723277Y-51031439D01*
X222529530Y-51188846D01*
X222363088Y-51374885D01*
X222228126Y-51584893D01*
X222128044Y-51813579D01*
X222065349Y-52055214D01*
X222041620Y-52303707D01*
X220840520Y-52303707D01*
X220905629Y-51738728D01*
X220909649Y-51718538D01*
X221004661Y-51385996D01*
X221009878Y-51371265D01*
X221188731Y-50951064D01*
X221201313Y-50928340D01*
X221524068Y-50465489D01*
X221553518Y-50435508D01*
X221893847Y-50189048D01*
X222176254Y-49953709D01*
X222215468Y-49931518D01*
X222963430Y-49670967D01*
X222984165Y-49665668D01*
X223256197Y-49620329D01*
X223291086Y-49619415D01*
X223442946Y-49636608D01*
G37*
G36*
X146698671Y-49728314D02*
G01*
X150593927Y-49719646D01*
X150603417Y-49719983D01*
X151250781Y-49767430D01*
X151290033Y-49776785D01*
X151859023Y-50013865D01*
X151882009Y-50026389D01*
X152343688Y-50344221D01*
X152365473Y-50363248D01*
X152846991Y-50892919D01*
X152862248Y-50913599D01*
X153040396Y-51215224D01*
X153054017Y-51248240D01*
X153295869Y-52199040D01*
X153299749Y-52228597D01*
X153305258Y-52690234D01*
X153297425Y-52735495D01*
X152960099Y-53646395D01*
X152951340Y-53665151D01*
X152764099Y-53992824D01*
X152745908Y-54017242D01*
X152322795Y-54461174D01*
X152307187Y-54475043D01*
X151924144Y-54762325D01*
X151906026Y-54773649D01*
X151611567Y-54924606D01*
X151586551Y-54934228D01*
X150865523Y-55126503D01*
X150833057Y-55130757D01*
X146510934Y-55130757D01*
X146488394Y-55128725D01*
X145970049Y-55034480D01*
X145931373Y-55020642D01*
X145459845Y-54758541D01*
X145447825Y-54750941D01*
X145108073Y-54508261D01*
X145099466Y-54501531D01*
X144900687Y-54331711D01*
X144898513Y-54329811D01*
X144593272Y-54056698D01*
X144567890Y-54025312D01*
X144381495Y-53699121D01*
X144375261Y-53686658D01*
X144206728Y-53297295D01*
X144197334Y-53262872D01*
X144149550Y-52880600D01*
X144149549Y-52880600D01*
X144101699Y-52505447D01*
X145824826Y-52505447D01*
X145860150Y-52752188D01*
X145933875Y-52990301D01*
X146044156Y-53213836D01*
X146188252Y-53417229D01*
X146362564Y-53595401D01*
X146562748Y-53743917D01*
X146783815Y-53859070D01*
X147020251Y-53937992D01*
X147266160Y-53978712D01*
X150016365Y-54003721D01*
X150266658Y-53983984D01*
X150510788Y-53925379D01*
X150742751Y-53829302D01*
X150956827Y-53698120D01*
X151147743Y-53535068D01*
X151310798Y-53344159D01*
X151441984Y-53130087D01*
X151538066Y-52898128D01*
X151596679Y-52653993D01*
X151616377Y-52403700D01*
X151596679Y-52153406D01*
X151538066Y-51909271D01*
X151441984Y-51677312D01*
X151310798Y-51463240D01*
X151147743Y-51272331D01*
X150956827Y-51109279D01*
X150742751Y-50978097D01*
X150510788Y-50882020D01*
X150266659Y-50823415D01*
X150016356Y-50803722D01*
X147316138Y-50829506D01*
X147069055Y-50862321D01*
X146830236Y-50933700D01*
X146605621Y-51041785D01*
X146400827Y-51183874D01*
X146220953Y-51356425D01*
X146070476Y-51555144D01*
X145953154Y-51775071D01*
X145871916Y-52010717D01*
X145828780Y-52256218D01*
X145824826Y-52505447D01*
X144101699Y-52505447D01*
X144094108Y-52445932D01*
X144093923Y-52415565D01*
X144161354Y-51830434D01*
X144165374Y-51810244D01*
X144260386Y-51477702D01*
X144265603Y-51462971D01*
X144444456Y-51042770D01*
X144457038Y-51020046D01*
X144779793Y-50557195D01*
X144809243Y-50527214D01*
X145149572Y-50280754D01*
X145431979Y-50045415D01*
X145471193Y-50023224D01*
X146219155Y-49762673D01*
X146239890Y-49757374D01*
X146511922Y-49712035D01*
X146546811Y-49711121D01*
X146698671Y-49728314D01*
G37*
M02*
