%TF.GenerationSoftware,KiCad,Pcbnew,8.0.2-1*%
%TF.CreationDate,2024-09-19T23:42:55+01:00*%
%TF.ProjectId,camera_v2a,63616d65-7261-45f7-9632-612e6b696361,rev?*%
%TF.SameCoordinates,Original*%
%TF.FileFunction,Soldermask,Bot*%
%TF.FilePolarity,Negative*%
%FSLAX46Y46*%
G04 Gerber Fmt 4.6, Leading zero omitted, Abs format (unit mm)*
G04 Created by KiCad (PCBNEW 8.0.2-1) date 2024-09-19 23:42:55*
%MOMM*%
%LPD*%
G01*
G04 APERTURE LIST*
%ADD10R,1.700000X1.700000*%
%ADD11O,1.700000X1.700000*%
G04 APERTURE END LIST*
D10*
%TO.C,J2*%
X153690000Y-105660000D03*
D11*
X156230000Y-105660000D03*
X158770000Y-105660000D03*
X161310000Y-105660000D03*
X163850000Y-105660000D03*
%TD*%
G36*
X157023039Y-105669685D02*
G01*
X157068794Y-105722489D01*
X157080000Y-105774000D01*
X157080000Y-107006000D01*
X157060315Y-107073039D01*
X157007511Y-107118794D01*
X156956000Y-107130000D01*
X155504000Y-107130000D01*
X155436961Y-107110315D01*
X155391206Y-107057511D01*
X155380000Y-107006000D01*
X155380000Y-105774000D01*
X155399685Y-105706961D01*
X155452489Y-105661206D01*
X155504000Y-105650000D01*
X156956000Y-105650000D01*
X157023039Y-105669685D01*
G37*
G36*
X162103039Y-105669685D02*
G01*
X162148794Y-105722489D01*
X162160000Y-105774000D01*
X162160000Y-107006000D01*
X162140315Y-107073039D01*
X162087511Y-107118794D01*
X162036000Y-107130000D01*
X160584000Y-107130000D01*
X160516961Y-107110315D01*
X160471206Y-107057511D01*
X160460000Y-107006000D01*
X160460000Y-105774000D01*
X160479685Y-105706961D01*
X160532489Y-105661206D01*
X160584000Y-105650000D01*
X162036000Y-105650000D01*
X162103039Y-105669685D01*
G37*
G36*
X164643039Y-105669685D02*
G01*
X164688794Y-105722489D01*
X164700000Y-105774000D01*
X164700000Y-107006000D01*
X164680315Y-107073039D01*
X164627511Y-107118794D01*
X164576000Y-107130000D01*
X163124000Y-107130000D01*
X163056961Y-107110315D01*
X163011206Y-107057511D01*
X163000000Y-107006000D01*
X163000000Y-105774000D01*
X163019685Y-105706961D01*
X163072489Y-105661206D01*
X163124000Y-105650000D01*
X164576000Y-105650000D01*
X164643039Y-105669685D01*
G37*
G36*
X154483039Y-105669685D02*
G01*
X154528794Y-105722489D01*
X154540000Y-105774000D01*
X154540000Y-107006000D01*
X154520315Y-107073039D01*
X154467511Y-107118794D01*
X154416000Y-107130000D01*
X152964000Y-107130000D01*
X152896961Y-107110315D01*
X152851206Y-107057511D01*
X152840000Y-107006000D01*
X152840000Y-105774000D01*
X152859685Y-105706961D01*
X152912489Y-105661206D01*
X152964000Y-105650000D01*
X154416000Y-105650000D01*
X154483039Y-105669685D01*
G37*
G36*
X159563039Y-105669685D02*
G01*
X159608794Y-105722489D01*
X159620000Y-105774000D01*
X159620000Y-107006000D01*
X159600315Y-107073039D01*
X159547511Y-107118794D01*
X159496000Y-107130000D01*
X158044000Y-107130000D01*
X157976961Y-107110315D01*
X157931206Y-107057511D01*
X157920000Y-107006000D01*
X157920000Y-105774000D01*
X157939685Y-105706961D01*
X157992489Y-105661206D01*
X158044000Y-105650000D01*
X159496000Y-105650000D01*
X159563039Y-105669685D01*
G37*
M02*
