%TF.GenerationSoftware,KiCad,Pcbnew,8.0.2-1*%
%TF.CreationDate,2024-09-19T23:42:55+01:00*%
%TF.ProjectId,camera_v2a,63616d65-7261-45f7-9632-612e6b696361,rev?*%
%TF.SameCoordinates,Original*%
%TF.FileFunction,Copper,L2,Bot*%
%TF.FilePolarity,Positive*%
%FSLAX46Y46*%
G04 Gerber Fmt 4.6, Leading zero omitted, Abs format (unit mm)*
G04 Created by KiCad (PCBNEW 8.0.2-1) date 2024-09-19 23:42:55*
%MOMM*%
%LPD*%
G01*
G04 APERTURE LIST*
%TA.AperFunction,ComponentPad*%
%ADD10R,1.700000X1.700000*%
%TD*%
%TA.AperFunction,ComponentPad*%
%ADD11O,1.700000X1.700000*%
%TD*%
%TA.AperFunction,ViaPad*%
%ADD12C,0.560000*%
%TD*%
%TA.AperFunction,ViaPad*%
%ADD13C,0.800000*%
%TD*%
%TA.AperFunction,Conductor*%
%ADD14C,0.152400*%
%TD*%
%TA.AperFunction,Conductor*%
%ADD15C,0.250000*%
%TD*%
G04 APERTURE END LIST*
D10*
%TO.P,J2,1,Pin_1*%
%TO.N,GND*%
X153690000Y-105660000D03*
D11*
%TO.P,J2,2,Pin_2*%
%TO.N,pwr_ctrl*%
X156230000Y-105660000D03*
%TO.P,J2,3,Pin_3*%
%TO.N,SDA1*%
X158770000Y-105660000D03*
%TO.P,J2,4,Pin_4*%
%TO.N,SCL1*%
X161310000Y-105660000D03*
%TO.P,J2,5,Pin_5*%
%TO.N,pwr_in*%
X163850000Y-105660000D03*
%TD*%
D12*
%TO.N,1.5V*%
X152738614Y-132214979D03*
X156100000Y-119420000D03*
%TO.N,+3V3*%
X156205700Y-134807700D03*
X156300000Y-132245500D03*
X163700000Y-138340000D03*
X157533348Y-130473284D03*
D13*
X148025000Y-135450000D03*
X147850000Y-130300000D03*
D12*
%TO.N,2.8V*%
X152721871Y-130542306D03*
X152790000Y-123300000D03*
%TO.N,VBUS_RESET {slash} PC*%
X166200000Y-129200000D03*
X163700000Y-137500000D03*
%TO.N,D9*%
X157628962Y-137328962D03*
X161025000Y-131075000D03*
%TO.N,D8*%
X160550000Y-131975000D03*
X156710460Y-137196340D03*
%TO.N,GND*%
X152080000Y-127190000D03*
X158400000Y-121690000D03*
X151450000Y-119510000D03*
X159060000Y-115880000D03*
D13*
X152200000Y-115500000D03*
D12*
X151290000Y-123420000D03*
X154696786Y-137285906D03*
X167180000Y-136720000D03*
X167440000Y-109020000D03*
X160930000Y-129440000D03*
X154250000Y-132300000D03*
%TO.N,ENABLE_BURN {slash} D7*%
X162681400Y-132650000D03*
X153800000Y-137175000D03*
%TO.N,D6*%
X163237600Y-132050000D03*
X152675000Y-137975000D03*
%TO.N,D5*%
X163793800Y-131400000D03*
X151500000Y-137950000D03*
%TO.N,D4*%
X149200000Y-138011900D03*
X164940000Y-130250000D03*
%TO.N,ENAB_RF {slash} D3*%
X150400000Y-137975000D03*
X163900353Y-119649647D03*
X164384300Y-122000027D03*
X164384300Y-130850000D03*
%TO.N,I2C_RESET {slash} D2*%
X162550000Y-138775000D03*
X165550000Y-129700000D03*
%TO.N,BURN_RELAY_A {slash} VS*%
X164642468Y-136520549D03*
X166800000Y-128600000D03*
%TO.N,HS*%
X165350000Y-137000000D03*
X167355700Y-128000000D03*
%TO.N,Net-(OSC1-OUT)*%
X157430498Y-129350000D03*
X155837544Y-137098418D03*
%TO.N,SDA1*%
X159692940Y-108052940D03*
X160175000Y-136825000D03*
X150200000Y-116835700D03*
%TO.N,SCL1*%
X159425000Y-137125000D03*
X149500000Y-116280000D03*
D13*
%TO.N,pwr_in*%
X156100000Y-111950000D03*
%TO.N,pwr_ctrl*%
X152050000Y-113250000D03*
%TD*%
D14*
%TO.N,1.5V*%
X156050000Y-119470000D02*
X156100000Y-119420000D01*
X152738614Y-132214979D02*
X156050000Y-128903593D01*
X156050000Y-128903593D02*
X156050000Y-119470000D01*
%TO.N,+3V3*%
X156300000Y-131706632D02*
X157533348Y-130473284D01*
X156205700Y-134807700D02*
X156300000Y-134713400D01*
X147850000Y-135275000D02*
X148025000Y-135450000D01*
X156300000Y-134713400D02*
X156300000Y-132245500D01*
X147850000Y-130300000D02*
X147850000Y-135275000D01*
X156300000Y-132245500D02*
X156300000Y-131706632D01*
%TO.N,2.8V*%
X152721871Y-123368129D02*
X152790000Y-123300000D01*
X152721871Y-130542306D02*
X152721871Y-123368129D01*
%TO.N,VBUS_RESET {slash} PC*%
X166200000Y-132653264D02*
X164597600Y-134255664D01*
X164597600Y-134255664D02*
X164597600Y-135677400D01*
X163700000Y-136575000D02*
X163700000Y-137500000D01*
X166200000Y-129200000D02*
X166200000Y-132653264D01*
X164597600Y-135677400D02*
X163700000Y-136575000D01*
%TO.N,D9*%
X159479896Y-136225000D02*
X161106200Y-134598696D01*
X161106200Y-134598696D02*
X161106200Y-131156200D01*
X161106200Y-131156200D02*
X161025000Y-131075000D01*
X158732924Y-136225000D02*
X159479896Y-136225000D01*
X157628962Y-137328962D02*
X158732924Y-136225000D01*
%TO.N,D8*%
X158586956Y-135872600D02*
X159333928Y-135872600D01*
X157281800Y-136625000D02*
X157834556Y-136625000D01*
X157834556Y-136625000D02*
X158586956Y-135872600D01*
X160550000Y-134656528D02*
X160550000Y-131975000D01*
X159333928Y-135872600D02*
X160550000Y-134656528D01*
X156710460Y-137196340D02*
X157281800Y-136625000D01*
%TO.N,GND*%
X154696786Y-137285906D02*
X154575000Y-137164120D01*
X154250000Y-134750000D02*
X154250000Y-132300000D01*
X154575000Y-137164120D02*
X154575000Y-135075000D01*
X154575000Y-135075000D02*
X154250000Y-134750000D01*
%TO.N,ENABLE_BURN {slash} D7*%
X154640400Y-138015400D02*
X153800000Y-137175000D01*
X161585600Y-135614400D02*
X161585600Y-136335974D01*
X162370200Y-134829800D02*
X161585600Y-135614400D01*
X161585600Y-136335974D02*
X159906174Y-138015400D01*
X162681400Y-132650000D02*
X162370200Y-132961200D01*
X159906174Y-138015400D02*
X154640400Y-138015400D01*
X162370200Y-132961200D02*
X162370200Y-134829800D01*
%TO.N,D6*%
X153067800Y-138367800D02*
X160052142Y-138367800D01*
X152675000Y-137975000D02*
X153067800Y-138367800D01*
X161938000Y-135760368D02*
X162722600Y-134975768D01*
X163237600Y-132880386D02*
X163237600Y-132050000D01*
X162722600Y-133395386D02*
X163237600Y-132880386D01*
X162722600Y-134975768D02*
X162722600Y-133395386D01*
X161938000Y-136481942D02*
X161938000Y-135760368D01*
X160052142Y-138367800D02*
X161938000Y-136481942D01*
%TO.N,D5*%
X160198110Y-138720200D02*
X162290400Y-136627910D01*
X163793800Y-132859672D02*
X163793800Y-131400000D01*
X152270200Y-138720200D02*
X160198110Y-138720200D01*
X151500000Y-137950000D02*
X152270200Y-138720200D01*
X162290400Y-136627910D02*
X162290400Y-135906336D01*
X163075000Y-133578472D02*
X163793800Y-132859672D01*
X163075000Y-135121736D02*
X163075000Y-133578472D01*
X162290400Y-135906336D02*
X163075000Y-135121736D01*
%TO.N,D4*%
X164940000Y-132916528D02*
X164940000Y-130250000D01*
X162995200Y-136919846D02*
X162995200Y-136283064D01*
X162995200Y-136283064D02*
X163892800Y-135385464D01*
X149200000Y-138011900D02*
X150613100Y-139425000D01*
X163892800Y-135385464D02*
X163892800Y-133963727D01*
X150613100Y-139425000D02*
X160490046Y-139425000D01*
X160490046Y-139425000D02*
X162995200Y-136919846D01*
X163892800Y-133963727D02*
X164940000Y-132916528D01*
%TO.N,ENAB_RF {slash} D3*%
X164384300Y-120133594D02*
X164384300Y-122000027D01*
X164384300Y-132767540D02*
X164384300Y-130850000D01*
X160344078Y-139072600D02*
X162642800Y-136773878D01*
X163900353Y-119649647D02*
X164384300Y-120133594D01*
X163427400Y-133724440D02*
X164384300Y-132767540D01*
X151497600Y-139072600D02*
X160344078Y-139072600D01*
X162642800Y-136052304D02*
X163427400Y-135267704D01*
X162642800Y-136773878D02*
X162642800Y-136052304D01*
X150400000Y-137975000D02*
X151497600Y-139072600D01*
X163427400Y-135267704D02*
X163427400Y-133724440D01*
%TO.N,I2C_RESET {slash} D2*%
X164245200Y-135531432D02*
X164245200Y-134109696D01*
X164245200Y-134109696D02*
X165550000Y-132804896D01*
X163347600Y-137065814D02*
X163347600Y-136429032D01*
X162550000Y-137863414D02*
X163347600Y-137065814D01*
X165550000Y-132804896D02*
X165550000Y-129700000D01*
X163347600Y-136429032D02*
X164245200Y-135531432D01*
X162550000Y-138775000D02*
X162550000Y-137863414D01*
%TO.N,BURN_RELAY_A {slash} VS*%
X164950000Y-134401632D02*
X166800000Y-132551632D01*
X164950000Y-135900000D02*
X164950000Y-134401632D01*
X164642468Y-136207532D02*
X164950000Y-135900000D01*
X166800000Y-132551632D02*
X166800000Y-128600000D01*
X164642468Y-136520549D02*
X164642468Y-136207532D01*
%TO.N,HS*%
X167355700Y-132494300D02*
X165350000Y-134500000D01*
X167355700Y-128000000D02*
X167355700Y-132494300D01*
X165350000Y-134500000D02*
X165350000Y-137000000D01*
%TO.N,Net-(OSC1-OUT)*%
X155649500Y-136910374D02*
X155649500Y-131130998D01*
X155837544Y-137098418D02*
X155649500Y-136910374D01*
X155649500Y-131130998D02*
X157430498Y-129350000D01*
%TO.N,SDA1*%
X150200000Y-117400000D02*
X150200000Y-116835700D01*
X161233200Y-135468432D02*
X162017800Y-134683832D01*
X150272600Y-117472600D02*
X150200000Y-117400000D01*
X158770000Y-107130000D02*
X158770000Y-105853200D01*
X162017800Y-119892800D02*
X159597600Y-117472600D01*
X159597600Y-117472600D02*
X150272600Y-117472600D01*
X160598206Y-136825000D02*
X161233200Y-136190006D01*
X162017800Y-134683832D02*
X162017800Y-119892800D01*
X161233200Y-136190006D02*
X161233200Y-135468432D01*
X160175000Y-136825000D02*
X160598206Y-136825000D01*
X159692940Y-108052940D02*
X158770000Y-107130000D01*
%TO.N,SCL1*%
X159425000Y-137125000D02*
X159425000Y-136778264D01*
X159400000Y-117825000D02*
X150075000Y-117825000D01*
X150075000Y-117825000D02*
X149500000Y-117250000D01*
X159425000Y-136778264D02*
X161581200Y-134622064D01*
X149500000Y-117250000D02*
X149500000Y-116280000D01*
X161581200Y-120006200D02*
X159400000Y-117825000D01*
X161581200Y-134622064D02*
X161581200Y-120006200D01*
D15*
%TO.N,pwr_in*%
X156100000Y-111950000D02*
X157875000Y-111950000D01*
X157875000Y-111950000D02*
X163850000Y-105975000D01*
%TO.N,pwr_ctrl*%
X152050000Y-113250000D02*
X156230000Y-109070000D01*
X156230000Y-109070000D02*
X156230000Y-105975000D01*
%TD*%
%TA.AperFunction,Conductor*%
%TO.N,pwr_ctrl*%
G36*
X157023039Y-105870185D02*
G01*
X157068794Y-105922989D01*
X157080000Y-105974500D01*
X157080000Y-107006000D01*
X157060315Y-107073039D01*
X157007511Y-107118794D01*
X156956000Y-107130000D01*
X155504000Y-107130000D01*
X155436961Y-107110315D01*
X155391206Y-107057511D01*
X155380000Y-107006000D01*
X155380000Y-105974500D01*
X155399685Y-105907461D01*
X155452489Y-105861706D01*
X155504000Y-105850500D01*
X156956000Y-105850500D01*
X157023039Y-105870185D01*
G37*
%TD.AperFunction*%
%TD*%
%TA.AperFunction,Conductor*%
%TO.N,pwr_in*%
G36*
X164643039Y-105870185D02*
G01*
X164688794Y-105922989D01*
X164700000Y-105974500D01*
X164700000Y-107006000D01*
X164680315Y-107073039D01*
X164627511Y-107118794D01*
X164576000Y-107130000D01*
X163124000Y-107130000D01*
X163056961Y-107110315D01*
X163011206Y-107057511D01*
X163000000Y-107006000D01*
X163000000Y-105974500D01*
X163019685Y-105907461D01*
X163072489Y-105861706D01*
X163124000Y-105850500D01*
X164576000Y-105850500D01*
X164643039Y-105870185D01*
G37*
%TD.AperFunction*%
%TD*%
%TA.AperFunction,Conductor*%
%TO.N,GND*%
G36*
X152283039Y-105870185D02*
G01*
X152328794Y-105922989D01*
X152340000Y-105974500D01*
X152340000Y-106557844D01*
X152346401Y-106617372D01*
X152346403Y-106617379D01*
X152396645Y-106752086D01*
X152396649Y-106752093D01*
X152482809Y-106867187D01*
X152482812Y-106867190D01*
X152597906Y-106953350D01*
X152597913Y-106953354D01*
X152732620Y-107003596D01*
X152732627Y-107003598D01*
X152792155Y-107009999D01*
X152792172Y-107010000D01*
X152840000Y-107010000D01*
X152840000Y-107130000D01*
X154540000Y-107130000D01*
X154540000Y-107010000D01*
X154587828Y-107010000D01*
X154587844Y-107009999D01*
X154647372Y-107003598D01*
X154647379Y-107003596D01*
X154782086Y-106953354D01*
X154782093Y-106953350D01*
X154897187Y-106867190D01*
X154897232Y-106867131D01*
X154897291Y-106867086D01*
X154903460Y-106860918D01*
X154904346Y-106861804D01*
X154953165Y-106825259D01*
X155022856Y-106820273D01*
X155084180Y-106853758D01*
X155117666Y-106915080D01*
X155120500Y-106941440D01*
X155120500Y-107006008D01*
X155126430Y-107061161D01*
X155137639Y-107112683D01*
X155144986Y-107139463D01*
X155189642Y-107217883D01*
X155195089Y-107227448D01*
X155202386Y-107235869D01*
X155240840Y-107280248D01*
X155240843Y-107280251D01*
X155240844Y-107280252D01*
X155274131Y-107312371D01*
X155363849Y-107359303D01*
X155430888Y-107378988D01*
X155430892Y-107378988D01*
X155430894Y-107378989D01*
X155442707Y-107380687D01*
X155504000Y-107389500D01*
X155726500Y-107389500D01*
X155793539Y-107409185D01*
X155839294Y-107461989D01*
X155850500Y-107513500D01*
X155850500Y-108861443D01*
X155830815Y-108928482D01*
X155814181Y-108949124D01*
X152204124Y-112559181D01*
X152142801Y-112592666D01*
X152116443Y-112595500D01*
X151970528Y-112595500D01*
X151816208Y-112633536D01*
X151675469Y-112707401D01*
X151556506Y-112812794D01*
X151556500Y-112812801D01*
X151466214Y-112943602D01*
X151409850Y-113092218D01*
X151390693Y-113249999D01*
X151390693Y-113250000D01*
X151409850Y-113407781D01*
X151450427Y-113514773D01*
X151466213Y-113556395D01*
X151556502Y-113687201D01*
X151556504Y-113687203D01*
X151556506Y-113687205D01*
X151675469Y-113792598D01*
X151675471Y-113792599D01*
X151816207Y-113866463D01*
X151893368Y-113885481D01*
X151970528Y-113904500D01*
X151970529Y-113904500D01*
X152129472Y-113904500D01*
X152180911Y-113891821D01*
X152283793Y-113866463D01*
X152424529Y-113792599D01*
X152543498Y-113687201D01*
X152633787Y-113556395D01*
X152690149Y-113407782D01*
X152709307Y-113250000D01*
X152703308Y-113200595D01*
X152714768Y-113131674D01*
X152738720Y-113097972D01*
X156452809Y-109383884D01*
X156452814Y-109383880D01*
X156463017Y-109373676D01*
X156463019Y-109373676D01*
X156533676Y-109303019D01*
X156583638Y-109216482D01*
X156589103Y-109196084D01*
X156609501Y-109119962D01*
X156609501Y-109020038D01*
X156609501Y-109012443D01*
X156609500Y-109012425D01*
X156609500Y-107513500D01*
X156629185Y-107446461D01*
X156681989Y-107400706D01*
X156733500Y-107389500D01*
X156955991Y-107389500D01*
X156956000Y-107389500D01*
X157011163Y-107383569D01*
X157062674Y-107372363D01*
X157089461Y-107365014D01*
X157092101Y-107363511D01*
X157099490Y-107359303D01*
X157177448Y-107314911D01*
X157230252Y-107269156D01*
X157262371Y-107235869D01*
X157309303Y-107146151D01*
X157328988Y-107079112D01*
X157339500Y-107006000D01*
X157339500Y-105974500D01*
X157359185Y-105907461D01*
X157411989Y-105861706D01*
X157463500Y-105850500D01*
X157536500Y-105850500D01*
X157603539Y-105870185D01*
X157649294Y-105922989D01*
X157660500Y-105974500D01*
X157660500Y-107006008D01*
X157666430Y-107061161D01*
X157677639Y-107112683D01*
X157684986Y-107139463D01*
X157729642Y-107217883D01*
X157735089Y-107227448D01*
X157742386Y-107235869D01*
X157780840Y-107280248D01*
X157780843Y-107280251D01*
X157780844Y-107280252D01*
X157814131Y-107312371D01*
X157903849Y-107359303D01*
X157970888Y-107378988D01*
X157970892Y-107378988D01*
X157970894Y-107378989D01*
X157982707Y-107380687D01*
X158044000Y-107389500D01*
X158510458Y-107389500D01*
X158577497Y-107409185D01*
X158598139Y-107425819D01*
X159118898Y-107946578D01*
X159152383Y-108007901D01*
X159154157Y-108050439D01*
X159153828Y-108052938D01*
X159153828Y-108052940D01*
X159172198Y-108192471D01*
X159172199Y-108192475D01*
X159226053Y-108322493D01*
X159226054Y-108322495D01*
X159226055Y-108322496D01*
X159311730Y-108434150D01*
X159423384Y-108519825D01*
X159553408Y-108573682D01*
X159676706Y-108589914D01*
X159692939Y-108592052D01*
X159692940Y-108592052D01*
X159692941Y-108592052D01*
X159707481Y-108590137D01*
X159832472Y-108573682D01*
X159962496Y-108519825D01*
X160074150Y-108434150D01*
X160159825Y-108322496D01*
X160213682Y-108192472D01*
X160232052Y-108052940D01*
X160213682Y-107913408D01*
X160159825Y-107783384D01*
X160074150Y-107671730D01*
X159962496Y-107586055D01*
X159962495Y-107586054D01*
X159962493Y-107586053D01*
X159832475Y-107532199D01*
X159832473Y-107532198D01*
X159832472Y-107532198D01*
X159788423Y-107526398D01*
X159724528Y-107498132D01*
X159686057Y-107439808D01*
X159685226Y-107369943D01*
X159722298Y-107310720D01*
X159723408Y-107309747D01*
X159770241Y-107269166D01*
X159770242Y-107269164D01*
X159770252Y-107269156D01*
X159802371Y-107235869D01*
X159849303Y-107146151D01*
X159868988Y-107079112D01*
X159879500Y-107006000D01*
X159879500Y-105974500D01*
X159899185Y-105907461D01*
X159951989Y-105861706D01*
X160003500Y-105850500D01*
X160076500Y-105850500D01*
X160143539Y-105870185D01*
X160189294Y-105922989D01*
X160200500Y-105974500D01*
X160200500Y-107006008D01*
X160206430Y-107061161D01*
X160217639Y-107112683D01*
X160224986Y-107139463D01*
X160269642Y-107217883D01*
X160275089Y-107227448D01*
X160282386Y-107235869D01*
X160320840Y-107280248D01*
X160320843Y-107280251D01*
X160320844Y-107280252D01*
X160354131Y-107312371D01*
X160443849Y-107359303D01*
X160510888Y-107378988D01*
X160510892Y-107378988D01*
X160510894Y-107378989D01*
X160522707Y-107380687D01*
X160584000Y-107389500D01*
X161599444Y-107389500D01*
X161666483Y-107409185D01*
X161712238Y-107461989D01*
X161722182Y-107531147D01*
X161693157Y-107594703D01*
X161687125Y-107601181D01*
X157754125Y-111534181D01*
X157692802Y-111567666D01*
X157666444Y-111570500D01*
X156698406Y-111570500D01*
X156631367Y-111550815D01*
X156596355Y-111516938D01*
X156593500Y-111512802D01*
X156593499Y-111512801D01*
X156593498Y-111512799D01*
X156593495Y-111512796D01*
X156593493Y-111512794D01*
X156474530Y-111407401D01*
X156333791Y-111333536D01*
X156179472Y-111295500D01*
X156179471Y-111295500D01*
X156020529Y-111295500D01*
X156020528Y-111295500D01*
X155866208Y-111333536D01*
X155725469Y-111407401D01*
X155606506Y-111512794D01*
X155606500Y-111512801D01*
X155516214Y-111643602D01*
X155459850Y-111792218D01*
X155440693Y-111949999D01*
X155440693Y-111950000D01*
X155459850Y-112107781D01*
X155516214Y-112256397D01*
X155592343Y-112366689D01*
X155606502Y-112387201D01*
X155606504Y-112387203D01*
X155606506Y-112387205D01*
X155725469Y-112492598D01*
X155725471Y-112492599D01*
X155866207Y-112566463D01*
X155943368Y-112585481D01*
X156020528Y-112604500D01*
X156020529Y-112604500D01*
X156179472Y-112604500D01*
X156230911Y-112591821D01*
X156333793Y-112566463D01*
X156474529Y-112492599D01*
X156593498Y-112387201D01*
X156596355Y-112383062D01*
X156650637Y-112339070D01*
X156698406Y-112329500D01*
X157817426Y-112329500D01*
X157817442Y-112329501D01*
X157825038Y-112329501D01*
X157924961Y-112329501D01*
X157924962Y-112329501D01*
X158001080Y-112309104D01*
X158001082Y-112309104D01*
X158014015Y-112305638D01*
X158021482Y-112303638D01*
X158108019Y-112253676D01*
X158178676Y-112183019D01*
X158178676Y-112183017D01*
X158188880Y-112172814D01*
X158188884Y-112172809D01*
X162947388Y-107414304D01*
X163008709Y-107380821D01*
X163052705Y-107379249D01*
X163124000Y-107389500D01*
X163124004Y-107389500D01*
X164575991Y-107389500D01*
X164576000Y-107389500D01*
X164631163Y-107383569D01*
X164682674Y-107372363D01*
X164709461Y-107365014D01*
X164712101Y-107363511D01*
X164719490Y-107359303D01*
X164797448Y-107314911D01*
X164850252Y-107269156D01*
X164882371Y-107235869D01*
X164929303Y-107146151D01*
X164948988Y-107079112D01*
X164959500Y-107006000D01*
X164959500Y-105974500D01*
X164979185Y-105907461D01*
X165031989Y-105861706D01*
X165083500Y-105850500D01*
X168035500Y-105850500D01*
X168102539Y-105870185D01*
X168148294Y-105922989D01*
X168159500Y-105974500D01*
X168159500Y-143095500D01*
X168139815Y-143162539D01*
X168087011Y-143208294D01*
X168035500Y-143219500D01*
X147274500Y-143219500D01*
X147207461Y-143199815D01*
X147161706Y-143147011D01*
X147150500Y-143095500D01*
X147150500Y-138011899D01*
X148660888Y-138011899D01*
X148660888Y-138011900D01*
X148679258Y-138151431D01*
X148679259Y-138151435D01*
X148733113Y-138281453D01*
X148733114Y-138281455D01*
X148733115Y-138281456D01*
X148818790Y-138393110D01*
X148930444Y-138478785D01*
X148930445Y-138478785D01*
X148930446Y-138478786D01*
X148935311Y-138480801D01*
X149060468Y-138532642D01*
X149200000Y-138551012D01*
X149202487Y-138550684D01*
X149204588Y-138551012D01*
X149208129Y-138551012D01*
X149208129Y-138551563D01*
X149271520Y-138561444D01*
X149306361Y-138585941D01*
X150344133Y-139623713D01*
X150344143Y-139623724D01*
X150348474Y-139628055D01*
X150410045Y-139689626D01*
X150485454Y-139733164D01*
X150569562Y-139755700D01*
X150569563Y-139755700D01*
X150569565Y-139755700D01*
X160533581Y-139755700D01*
X160533583Y-139755700D01*
X160533584Y-139755700D01*
X160617692Y-139733164D01*
X160693101Y-139689626D01*
X160754672Y-139628055D01*
X160754672Y-139628053D01*
X160764876Y-139617850D01*
X160764879Y-139617845D01*
X161813713Y-138569012D01*
X161875035Y-138535528D01*
X161944727Y-138540512D01*
X162000660Y-138582384D01*
X162025077Y-138647848D01*
X162024332Y-138672879D01*
X162010888Y-138774997D01*
X162010888Y-138775000D01*
X162029258Y-138914531D01*
X162029259Y-138914535D01*
X162083113Y-139044553D01*
X162083114Y-139044555D01*
X162083115Y-139044556D01*
X162168790Y-139156210D01*
X162280444Y-139241885D01*
X162410468Y-139295742D01*
X162533766Y-139311974D01*
X162549999Y-139314112D01*
X162550000Y-139314112D01*
X162550001Y-139314112D01*
X162564541Y-139312197D01*
X162689532Y-139295742D01*
X162819556Y-139241885D01*
X162931210Y-139156210D01*
X163016885Y-139044556D01*
X163070742Y-138914532D01*
X163089112Y-138775000D01*
X163089112Y-138774997D01*
X163089717Y-138770401D01*
X163117983Y-138706504D01*
X163176308Y-138668033D01*
X163246173Y-138667202D01*
X163305396Y-138704274D01*
X163311030Y-138711097D01*
X163318790Y-138721210D01*
X163430444Y-138806885D01*
X163560468Y-138860742D01*
X163683766Y-138876974D01*
X163699999Y-138879112D01*
X163700000Y-138879112D01*
X163700001Y-138879112D01*
X163714541Y-138877197D01*
X163839532Y-138860742D01*
X163969556Y-138806885D01*
X164081210Y-138721210D01*
X164166885Y-138609556D01*
X164220742Y-138479532D01*
X164239112Y-138340000D01*
X164220742Y-138200468D01*
X164185147Y-138114532D01*
X164166885Y-138070443D01*
X164126194Y-138017415D01*
X164109367Y-137995485D01*
X164084173Y-137930318D01*
X164098211Y-137861873D01*
X164109365Y-137844517D01*
X164166885Y-137769556D01*
X164220742Y-137639532D01*
X164239112Y-137500000D01*
X164220742Y-137360468D01*
X164166885Y-137230444D01*
X164081210Y-137118790D01*
X164081205Y-137118786D01*
X164079207Y-137117252D01*
X164077947Y-137115526D01*
X164075460Y-137113039D01*
X164075847Y-137112651D01*
X164038008Y-137060821D01*
X164030700Y-137018881D01*
X164030700Y-136966581D01*
X164050385Y-136899542D01*
X164103189Y-136853787D01*
X164172347Y-136843843D01*
X164235903Y-136872868D01*
X164253071Y-136891090D01*
X164261258Y-136901759D01*
X164372912Y-136987434D01*
X164502936Y-137041291D01*
X164626234Y-137057523D01*
X164642467Y-137059661D01*
X164642468Y-137059661D01*
X164642469Y-137059661D01*
X164659660Y-137057397D01*
X164694405Y-137052823D01*
X164763440Y-137063588D01*
X164815696Y-137109968D01*
X164825429Y-137132321D01*
X164826148Y-137132024D01*
X164883113Y-137269553D01*
X164883114Y-137269555D01*
X164883115Y-137269556D01*
X164968790Y-137381210D01*
X165080444Y-137466885D01*
X165080445Y-137466885D01*
X165080446Y-137466886D01*
X165094695Y-137472788D01*
X165210468Y-137520742D01*
X165333766Y-137536974D01*
X165349999Y-137539112D01*
X165350000Y-137539112D01*
X165350001Y-137539112D01*
X165364541Y-137537197D01*
X165489532Y-137520742D01*
X165619556Y-137466885D01*
X165731210Y-137381210D01*
X165816885Y-137269556D01*
X165870742Y-137139532D01*
X165889112Y-137000000D01*
X165870742Y-136860468D01*
X165816885Y-136730444D01*
X165731210Y-136618790D01*
X165731205Y-136618786D01*
X165729207Y-136617252D01*
X165727947Y-136615526D01*
X165725460Y-136613039D01*
X165725847Y-136612651D01*
X165688008Y-136560821D01*
X165680700Y-136518881D01*
X165680700Y-134688341D01*
X165700385Y-134621302D01*
X165717014Y-134600665D01*
X167548545Y-132769133D01*
X167548550Y-132769130D01*
X167558753Y-132758926D01*
X167558755Y-132758926D01*
X167620326Y-132697355D01*
X167663864Y-132621946D01*
X167686400Y-132537838D01*
X167686400Y-128481118D01*
X167706085Y-128414079D01*
X167734916Y-128382740D01*
X167736910Y-128381210D01*
X167822585Y-128269556D01*
X167876442Y-128139532D01*
X167894812Y-128000000D01*
X167876442Y-127860468D01*
X167822585Y-127730444D01*
X167736910Y-127618790D01*
X167625256Y-127533115D01*
X167625255Y-127533114D01*
X167625253Y-127533113D01*
X167495235Y-127479259D01*
X167495233Y-127479258D01*
X167495232Y-127479258D01*
X167425466Y-127470073D01*
X167355701Y-127460888D01*
X167355699Y-127460888D01*
X167216168Y-127479258D01*
X167216164Y-127479259D01*
X167086146Y-127533113D01*
X166974490Y-127618790D01*
X166888813Y-127730446D01*
X166834959Y-127860464D01*
X166834958Y-127860469D01*
X166821142Y-127965406D01*
X166792875Y-128029303D01*
X166734550Y-128067773D01*
X166714388Y-128072159D01*
X166660468Y-128079258D01*
X166660467Y-128079258D01*
X166660464Y-128079259D01*
X166530446Y-128133113D01*
X166418790Y-128218790D01*
X166333113Y-128330446D01*
X166279259Y-128460464D01*
X166279258Y-128460468D01*
X166266223Y-128559471D01*
X166237956Y-128623367D01*
X166179631Y-128661837D01*
X166159471Y-128666223D01*
X166060468Y-128679258D01*
X166060464Y-128679259D01*
X165930446Y-128733113D01*
X165818790Y-128818790D01*
X165733113Y-128930446D01*
X165679259Y-129060464D01*
X165677155Y-129068318D01*
X165673868Y-129067437D01*
X165652000Y-129116930D01*
X165593691Y-129155426D01*
X165557293Y-129160888D01*
X165549999Y-129160888D01*
X165410468Y-129179258D01*
X165410464Y-129179259D01*
X165280446Y-129233113D01*
X165168790Y-129318790D01*
X165083113Y-129430446D01*
X165029259Y-129560464D01*
X165029258Y-129560469D01*
X165023099Y-129607249D01*
X164994832Y-129671146D01*
X164936507Y-129709616D01*
X164916346Y-129714002D01*
X164800468Y-129729258D01*
X164800464Y-129729259D01*
X164670446Y-129783113D01*
X164558790Y-129868790D01*
X164473113Y-129980446D01*
X164419259Y-130110464D01*
X164419258Y-130110469D01*
X164405442Y-130215406D01*
X164377175Y-130279303D01*
X164318850Y-130317773D01*
X164298688Y-130322159D01*
X164244768Y-130329258D01*
X164244767Y-130329258D01*
X164244764Y-130329259D01*
X164114746Y-130383113D01*
X164003090Y-130468790D01*
X163917413Y-130580446D01*
X163863559Y-130710464D01*
X163863558Y-130710469D01*
X163857055Y-130759861D01*
X163828788Y-130823758D01*
X163770463Y-130862228D01*
X163750303Y-130866614D01*
X163654268Y-130879258D01*
X163654264Y-130879259D01*
X163524246Y-130933113D01*
X163412590Y-131018790D01*
X163326913Y-131130446D01*
X163273059Y-131260464D01*
X163273058Y-131260468D01*
X163253627Y-131408058D01*
X163252340Y-131407888D01*
X163235003Y-131466932D01*
X163182199Y-131512687D01*
X163146875Y-131522832D01*
X163098068Y-131529258D01*
X163098064Y-131529259D01*
X162968046Y-131583113D01*
X162856390Y-131668790D01*
X162770713Y-131780446D01*
X162716859Y-131910464D01*
X162716858Y-131910469D01*
X162703051Y-132015339D01*
X162674784Y-132079235D01*
X162616459Y-132117706D01*
X162596297Y-132122092D01*
X162541868Y-132129258D01*
X162541867Y-132129258D01*
X162541864Y-132129259D01*
X162519950Y-132138336D01*
X162450481Y-132145803D01*
X162388002Y-132114527D01*
X162352351Y-132054437D01*
X162348500Y-132023774D01*
X162348500Y-119946340D01*
X162348501Y-119946327D01*
X162348501Y-119849265D01*
X162348501Y-119849263D01*
X162329450Y-119778164D01*
X162325964Y-119765154D01*
X162282426Y-119689745D01*
X162242327Y-119649646D01*
X163361241Y-119649646D01*
X163361241Y-119649647D01*
X163379611Y-119789178D01*
X163379612Y-119789182D01*
X163433466Y-119919200D01*
X163433467Y-119919202D01*
X163433468Y-119919203D01*
X163519143Y-120030857D01*
X163630797Y-120116532D01*
X163760821Y-120170389D01*
X163900353Y-120188759D01*
X163902840Y-120188431D01*
X163904941Y-120188759D01*
X163908482Y-120188759D01*
X163908482Y-120189310D01*
X163971873Y-120199191D01*
X164006714Y-120223688D01*
X164017281Y-120234255D01*
X164050766Y-120295578D01*
X164053600Y-120321936D01*
X164053600Y-121518908D01*
X164033915Y-121585947D01*
X164005093Y-121617279D01*
X164003094Y-121618813D01*
X164003092Y-121618815D01*
X164003090Y-121618817D01*
X163945973Y-121693253D01*
X163917413Y-121730473D01*
X163863559Y-121860491D01*
X163863558Y-121860495D01*
X163845188Y-122000026D01*
X163845188Y-122000027D01*
X163863558Y-122139558D01*
X163863559Y-122139562D01*
X163917413Y-122269580D01*
X163917414Y-122269582D01*
X163917415Y-122269583D01*
X164003090Y-122381237D01*
X164114744Y-122466912D01*
X164244768Y-122520769D01*
X164368066Y-122537001D01*
X164384299Y-122539139D01*
X164384300Y-122539139D01*
X164384301Y-122539139D01*
X164398841Y-122537224D01*
X164523832Y-122520769D01*
X164653856Y-122466912D01*
X164765510Y-122381237D01*
X164851185Y-122269583D01*
X164905042Y-122139559D01*
X164923412Y-122000027D01*
X164905042Y-121860495D01*
X164851185Y-121730471D01*
X164765510Y-121618817D01*
X164765505Y-121618813D01*
X164763507Y-121617279D01*
X164762247Y-121615553D01*
X164759760Y-121613066D01*
X164760147Y-121612678D01*
X164722308Y-121560848D01*
X164715000Y-121518908D01*
X164715000Y-120090059D01*
X164715000Y-120090056D01*
X164692464Y-120005948D01*
X164648926Y-119930539D01*
X164587355Y-119868968D01*
X164583024Y-119864637D01*
X164583013Y-119864627D01*
X164474394Y-119756008D01*
X164440909Y-119694685D01*
X164439137Y-119652136D01*
X164439465Y-119649647D01*
X164421095Y-119510115D01*
X164367238Y-119380091D01*
X164281563Y-119268437D01*
X164169909Y-119182762D01*
X164169908Y-119182761D01*
X164169906Y-119182760D01*
X164039888Y-119128906D01*
X164039886Y-119128905D01*
X164039885Y-119128905D01*
X163970119Y-119119720D01*
X163900354Y-119110535D01*
X163900352Y-119110535D01*
X163760821Y-119128905D01*
X163760817Y-119128906D01*
X163630799Y-119182760D01*
X163519143Y-119268437D01*
X163433466Y-119380093D01*
X163379612Y-119510111D01*
X163379611Y-119510115D01*
X163361241Y-119649646D01*
X162242327Y-119649646D01*
X162220855Y-119628174D01*
X162216524Y-119623843D01*
X162216513Y-119623833D01*
X159869296Y-117276616D01*
X159869294Y-117276613D01*
X159800657Y-117207976D01*
X159800655Y-117207974D01*
X159725246Y-117164436D01*
X159641139Y-117141900D01*
X159641138Y-117141900D01*
X150837285Y-117141900D01*
X150770246Y-117122215D01*
X150724491Y-117069411D01*
X150714547Y-117000253D01*
X150719214Y-116983237D01*
X150718638Y-116983083D01*
X150720738Y-116975240D01*
X150720742Y-116975232D01*
X150739112Y-116835700D01*
X150720742Y-116696168D01*
X150666885Y-116566144D01*
X150581210Y-116454490D01*
X150469556Y-116368815D01*
X150469555Y-116368814D01*
X150469553Y-116368813D01*
X150339535Y-116314959D01*
X150339533Y-116314958D01*
X150339532Y-116314958D01*
X150269766Y-116305773D01*
X150200001Y-116296588D01*
X150199996Y-116296588D01*
X150166937Y-116300940D01*
X150097902Y-116290174D01*
X150045647Y-116243793D01*
X150027814Y-116194186D01*
X150020742Y-116140469D01*
X150020740Y-116140464D01*
X149966886Y-116010446D01*
X149966885Y-116010445D01*
X149966885Y-116010444D01*
X149881210Y-115898790D01*
X149769556Y-115813115D01*
X149769555Y-115813114D01*
X149769553Y-115813113D01*
X149639535Y-115759259D01*
X149639533Y-115759258D01*
X149639532Y-115759258D01*
X149569766Y-115750073D01*
X149500001Y-115740888D01*
X149499999Y-115740888D01*
X149360468Y-115759258D01*
X149360464Y-115759259D01*
X149230446Y-115813113D01*
X149118790Y-115898790D01*
X149033113Y-116010446D01*
X148979259Y-116140464D01*
X148979258Y-116140468D01*
X148960888Y-116279999D01*
X148960888Y-116280000D01*
X148979258Y-116419531D01*
X148979259Y-116419535D01*
X149033113Y-116549553D01*
X149033114Y-116549555D01*
X149033115Y-116549556D01*
X149118790Y-116661210D01*
X149120784Y-116662740D01*
X149122042Y-116664462D01*
X149124541Y-116666962D01*
X149124151Y-116667351D01*
X149161988Y-116719167D01*
X149169300Y-116761118D01*
X149169300Y-117293538D01*
X149191836Y-117377646D01*
X149235374Y-117453055D01*
X149235376Y-117453057D01*
X149304010Y-117521691D01*
X149304016Y-117521696D01*
X149806033Y-118023713D01*
X149806043Y-118023724D01*
X149810373Y-118028054D01*
X149810374Y-118028055D01*
X149871945Y-118089626D01*
X149947354Y-118133164D01*
X149959851Y-118136512D01*
X149969879Y-118139199D01*
X149969883Y-118139200D01*
X149969891Y-118139202D01*
X150031463Y-118155701D01*
X150031464Y-118155701D01*
X150126133Y-118155701D01*
X150126149Y-118155700D01*
X159211658Y-118155700D01*
X159278697Y-118175385D01*
X159299339Y-118192019D01*
X161214181Y-120106861D01*
X161247666Y-120168184D01*
X161250500Y-120194542D01*
X161250500Y-130424181D01*
X161230815Y-130491220D01*
X161178011Y-130536975D01*
X161110314Y-130547120D01*
X161025001Y-130535888D01*
X161024999Y-130535888D01*
X160885468Y-130554258D01*
X160885464Y-130554259D01*
X160755446Y-130608113D01*
X160643790Y-130693790D01*
X160558113Y-130805446D01*
X160504259Y-130935464D01*
X160504258Y-130935468D01*
X160485888Y-131074999D01*
X160485888Y-131075000D01*
X160504258Y-131214531D01*
X160504258Y-131214532D01*
X160531729Y-131280855D01*
X160539196Y-131350325D01*
X160507921Y-131412803D01*
X160447831Y-131448455D01*
X160433354Y-131451245D01*
X160410468Y-131454258D01*
X160410464Y-131454259D01*
X160280446Y-131508113D01*
X160168790Y-131593790D01*
X160083113Y-131705446D01*
X160029259Y-131835464D01*
X160029258Y-131835468D01*
X160010888Y-131974999D01*
X160010888Y-131975000D01*
X160029258Y-132114531D01*
X160029259Y-132114535D01*
X160083113Y-132244553D01*
X160083114Y-132244555D01*
X160083115Y-132244556D01*
X160168790Y-132356210D01*
X160170784Y-132357740D01*
X160172042Y-132359462D01*
X160174541Y-132361962D01*
X160174151Y-132362351D01*
X160211988Y-132414167D01*
X160219300Y-132456118D01*
X160219300Y-134468185D01*
X160199615Y-134535224D01*
X160182981Y-134555866D01*
X159233267Y-135505581D01*
X159171944Y-135539066D01*
X159145586Y-135541900D01*
X158543416Y-135541900D01*
X158459309Y-135564436D01*
X158383901Y-135607974D01*
X158383898Y-135607976D01*
X158322328Y-135669547D01*
X157733895Y-136257981D01*
X157672572Y-136291466D01*
X157646214Y-136294300D01*
X157332949Y-136294300D01*
X157332933Y-136294299D01*
X157325337Y-136294299D01*
X157238263Y-136294299D01*
X157178270Y-136310374D01*
X157178269Y-136310373D01*
X157154155Y-136316835D01*
X157154154Y-136316835D01*
X157078745Y-136360374D01*
X157078742Y-136360376D01*
X157017172Y-136421947D01*
X156816820Y-136622298D01*
X156755497Y-136655783D01*
X156712956Y-136657556D01*
X156710464Y-136657228D01*
X156710459Y-136657228D01*
X156570928Y-136675598D01*
X156570924Y-136675599D01*
X156440904Y-136729454D01*
X156405369Y-136756721D01*
X156340200Y-136781914D01*
X156271755Y-136767875D01*
X156231508Y-136733830D01*
X156228150Y-136729454D01*
X156218754Y-136717208D01*
X156107100Y-136631533D01*
X156076336Y-136618790D01*
X156056746Y-136610675D01*
X156002343Y-136566833D01*
X155980279Y-136500538D01*
X155980200Y-136496114D01*
X155980200Y-135458518D01*
X155999885Y-135391479D01*
X156052689Y-135345724D01*
X156120382Y-135335579D01*
X156205700Y-135346812D01*
X156345232Y-135328442D01*
X156475256Y-135274585D01*
X156586910Y-135188910D01*
X156672585Y-135077256D01*
X156726442Y-134947232D01*
X156744812Y-134807700D01*
X156726442Y-134668168D01*
X156672585Y-134538144D01*
X156656323Y-134516950D01*
X156631130Y-134451780D01*
X156630700Y-134441465D01*
X156630700Y-132726618D01*
X156650385Y-132659579D01*
X156679216Y-132628240D01*
X156681210Y-132626710D01*
X156766885Y-132515056D01*
X156820742Y-132385032D01*
X156839112Y-132245500D01*
X156820742Y-132105968D01*
X156766885Y-131975944D01*
X156766885Y-131975943D01*
X156716501Y-131910281D01*
X156691307Y-131845111D01*
X156705346Y-131776667D01*
X156727193Y-131747117D01*
X157426987Y-131047323D01*
X157488308Y-131013840D01*
X157530857Y-131012068D01*
X157533348Y-131012396D01*
X157672880Y-130994026D01*
X157802904Y-130940169D01*
X157914558Y-130854494D01*
X158000233Y-130742840D01*
X158054090Y-130612816D01*
X158072460Y-130473284D01*
X158054090Y-130333752D01*
X158000233Y-130203728D01*
X157914558Y-130092074D01*
X157802904Y-130006399D01*
X157802902Y-130006398D01*
X157774139Y-129994484D01*
X157719735Y-129950642D01*
X157697671Y-129884348D01*
X157714951Y-129816649D01*
X157746102Y-129781550D01*
X157811708Y-129731210D01*
X157897383Y-129619556D01*
X157951240Y-129489532D01*
X157969610Y-129350000D01*
X157951240Y-129210468D01*
X157908237Y-129106648D01*
X157897384Y-129080446D01*
X157897383Y-129080445D01*
X157897383Y-129080444D01*
X157811708Y-128968790D01*
X157700054Y-128883115D01*
X157700053Y-128883114D01*
X157700051Y-128883113D01*
X157570033Y-128829259D01*
X157570031Y-128829258D01*
X157570030Y-128829258D01*
X157490519Y-128818790D01*
X157430499Y-128810888D01*
X157430497Y-128810888D01*
X157290966Y-128829258D01*
X157290962Y-128829259D01*
X157160944Y-128883113D01*
X157049288Y-128968790D01*
X156963611Y-129080446D01*
X156909757Y-129210464D01*
X156909756Y-129210468D01*
X156891386Y-129349999D01*
X156891386Y-129350004D01*
X156891714Y-129352496D01*
X156891386Y-129354599D01*
X156891386Y-129358127D01*
X156890836Y-129358127D01*
X156880947Y-129421531D01*
X156856456Y-129456360D01*
X155446447Y-130866370D01*
X155384876Y-130927940D01*
X155384874Y-130927943D01*
X155341336Y-131003351D01*
X155318800Y-131087458D01*
X155318800Y-136935580D01*
X155317739Y-136951765D01*
X155298432Y-137098415D01*
X155298432Y-137098418D01*
X155302895Y-137132321D01*
X155316802Y-137237949D01*
X155316803Y-137237953D01*
X155370658Y-137367974D01*
X155422771Y-137435888D01*
X155451085Y-137472788D01*
X155460620Y-137485213D01*
X155485815Y-137550382D01*
X155471777Y-137618827D01*
X155422963Y-137668817D01*
X155362245Y-137684700D01*
X154828742Y-137684700D01*
X154761703Y-137665015D01*
X154741061Y-137648381D01*
X154374041Y-137281361D01*
X154340556Y-137220038D01*
X154338784Y-137177489D01*
X154339112Y-137175000D01*
X154320742Y-137035468D01*
X154266885Y-136905444D01*
X154181210Y-136793790D01*
X154069556Y-136708115D01*
X154069555Y-136708114D01*
X154069553Y-136708113D01*
X153939535Y-136654259D01*
X153939533Y-136654258D01*
X153939532Y-136654258D01*
X153869766Y-136645073D01*
X153800001Y-136635888D01*
X153799999Y-136635888D01*
X153660468Y-136654258D01*
X153660464Y-136654259D01*
X153530446Y-136708113D01*
X153418790Y-136793790D01*
X153333113Y-136905446D01*
X153279259Y-137035464D01*
X153279258Y-137035468D01*
X153265558Y-137139532D01*
X153260888Y-137175000D01*
X153272847Y-137265840D01*
X153279258Y-137314531D01*
X153279259Y-137314535D01*
X153333113Y-137444553D01*
X153333114Y-137444555D01*
X153333115Y-137444556D01*
X153418790Y-137556210D01*
X153530444Y-137641885D01*
X153530445Y-137641885D01*
X153530446Y-137641886D01*
X153546127Y-137648381D01*
X153660468Y-137695742D01*
X153800000Y-137714112D01*
X153802487Y-137713784D01*
X153804588Y-137714112D01*
X153808129Y-137714112D01*
X153808129Y-137714663D01*
X153871520Y-137724544D01*
X153906361Y-137749041D01*
X153982739Y-137825419D01*
X154016224Y-137886742D01*
X154011240Y-137956434D01*
X153969368Y-138012367D01*
X153903904Y-138036784D01*
X153895058Y-138037100D01*
X153331032Y-138037100D01*
X153263993Y-138017415D01*
X153218238Y-137964611D01*
X153208093Y-137929285D01*
X153205512Y-137909682D01*
X153195742Y-137835468D01*
X153145475Y-137714111D01*
X153141886Y-137705446D01*
X153141885Y-137705445D01*
X153141885Y-137705444D01*
X153056210Y-137593790D01*
X152944556Y-137508115D01*
X152944555Y-137508114D01*
X152944553Y-137508113D01*
X152814535Y-137454259D01*
X152814533Y-137454258D01*
X152814532Y-137454258D01*
X152740816Y-137444553D01*
X152675001Y-137435888D01*
X152674999Y-137435888D01*
X152535468Y-137454258D01*
X152535464Y-137454259D01*
X152405446Y-137508113D01*
X152293790Y-137593790D01*
X152208114Y-137705445D01*
X152207236Y-137707566D01*
X152206014Y-137709081D01*
X152204052Y-137712481D01*
X152203521Y-137712174D01*
X152163392Y-137761967D01*
X152097096Y-137784028D01*
X152029398Y-137766745D01*
X151981790Y-137715606D01*
X151978119Y-137707566D01*
X151966885Y-137680444D01*
X151881210Y-137568790D01*
X151769556Y-137483115D01*
X151769555Y-137483114D01*
X151769553Y-137483113D01*
X151639535Y-137429259D01*
X151639533Y-137429258D01*
X151639532Y-137429258D01*
X151569766Y-137420073D01*
X151500001Y-137410888D01*
X151499999Y-137410888D01*
X151360468Y-137429258D01*
X151360464Y-137429259D01*
X151230446Y-137483113D01*
X151208440Y-137499999D01*
X151118790Y-137568790D01*
X151118789Y-137568791D01*
X151118788Y-137568792D01*
X151038783Y-137673056D01*
X150982355Y-137714258D01*
X150912609Y-137718413D01*
X150851689Y-137684200D01*
X150842032Y-137673055D01*
X150781211Y-137593791D01*
X150778727Y-137591885D01*
X150669556Y-137508115D01*
X150669555Y-137508114D01*
X150669553Y-137508113D01*
X150539535Y-137454259D01*
X150539533Y-137454258D01*
X150539532Y-137454258D01*
X150465816Y-137444553D01*
X150400001Y-137435888D01*
X150399999Y-137435888D01*
X150260468Y-137454258D01*
X150260464Y-137454259D01*
X150130446Y-137508113D01*
X150018790Y-137593790D01*
X149933115Y-137705444D01*
X149906918Y-137768689D01*
X149863076Y-137823092D01*
X149796782Y-137845156D01*
X149729083Y-137827876D01*
X149681473Y-137776739D01*
X149677797Y-137768689D01*
X149666885Y-137742344D01*
X149581210Y-137630690D01*
X149469556Y-137545015D01*
X149469555Y-137545014D01*
X149469553Y-137545013D01*
X149339535Y-137491159D01*
X149339533Y-137491158D01*
X149339532Y-137491158D01*
X149251954Y-137479628D01*
X149200001Y-137472788D01*
X149199999Y-137472788D01*
X149060468Y-137491158D01*
X149060464Y-137491159D01*
X148930446Y-137545013D01*
X148818790Y-137630690D01*
X148733113Y-137742346D01*
X148679259Y-137872364D01*
X148679258Y-137872368D01*
X148660888Y-138011899D01*
X147150500Y-138011899D01*
X147150500Y-135666495D01*
X147170185Y-135599456D01*
X147222989Y-135553701D01*
X147292147Y-135543757D01*
X147355703Y-135572782D01*
X147390442Y-135622523D01*
X147441214Y-135756397D01*
X147517343Y-135866689D01*
X147531502Y-135887201D01*
X147531504Y-135887203D01*
X147531506Y-135887205D01*
X147650469Y-135992598D01*
X147650471Y-135992599D01*
X147791207Y-136066463D01*
X147868368Y-136085481D01*
X147945528Y-136104500D01*
X147945529Y-136104500D01*
X148104472Y-136104500D01*
X148155911Y-136091821D01*
X148258793Y-136066463D01*
X148399529Y-135992599D01*
X148518498Y-135887201D01*
X148608787Y-135756395D01*
X148665149Y-135607782D01*
X148684307Y-135450000D01*
X148665149Y-135292218D01*
X148608787Y-135143605D01*
X148518498Y-135012799D01*
X148518495Y-135012796D01*
X148518493Y-135012794D01*
X148399530Y-134907401D01*
X148321622Y-134866512D01*
X148258793Y-134833537D01*
X148258791Y-134833536D01*
X148252152Y-134830052D01*
X148253005Y-134828425D01*
X148205019Y-134792084D01*
X148180968Y-134726484D01*
X148180700Y-134718329D01*
X148180700Y-132214978D01*
X152199502Y-132214978D01*
X152199502Y-132214979D01*
X152217872Y-132354510D01*
X152217873Y-132354514D01*
X152271727Y-132484532D01*
X152271728Y-132484534D01*
X152271729Y-132484535D01*
X152357404Y-132596189D01*
X152469058Y-132681864D01*
X152599082Y-132735721D01*
X152722380Y-132751953D01*
X152738613Y-132754091D01*
X152738614Y-132754091D01*
X152738615Y-132754091D01*
X152753155Y-132752176D01*
X152878146Y-132735721D01*
X153008170Y-132681864D01*
X153119824Y-132596189D01*
X153205499Y-132484535D01*
X153259356Y-132354511D01*
X153277726Y-132214979D01*
X153277398Y-132212489D01*
X153277726Y-132210385D01*
X153277726Y-132206850D01*
X153278277Y-132206850D01*
X153288159Y-132143454D01*
X153312652Y-132108619D01*
X156242845Y-129178427D01*
X156242850Y-129178423D01*
X156253053Y-129168219D01*
X156253055Y-129168219D01*
X156314626Y-129106648D01*
X156358164Y-129031239D01*
X156380700Y-128947131D01*
X156380700Y-119939483D01*
X156400385Y-119872444D01*
X156429213Y-119841108D01*
X156481210Y-119801210D01*
X156566885Y-119689556D01*
X156620742Y-119559532D01*
X156639112Y-119420000D01*
X156620742Y-119280468D01*
X156566885Y-119150444D01*
X156481210Y-119038790D01*
X156369556Y-118953115D01*
X156369555Y-118953114D01*
X156369553Y-118953113D01*
X156239535Y-118899259D01*
X156239533Y-118899258D01*
X156239532Y-118899258D01*
X156169766Y-118890073D01*
X156100001Y-118880888D01*
X156099999Y-118880888D01*
X155960468Y-118899258D01*
X155960464Y-118899259D01*
X155830446Y-118953113D01*
X155718790Y-119038790D01*
X155633113Y-119150446D01*
X155579259Y-119280464D01*
X155579258Y-119280468D01*
X155560888Y-119419999D01*
X155560888Y-119420000D01*
X155579258Y-119559531D01*
X155579259Y-119559535D01*
X155633114Y-119689555D01*
X155693676Y-119768481D01*
X155718870Y-119833650D01*
X155719300Y-119843967D01*
X155719300Y-128715250D01*
X155699615Y-128782289D01*
X155682981Y-128802931D01*
X152844974Y-131640937D01*
X152783651Y-131674422D01*
X152741110Y-131676195D01*
X152738618Y-131675867D01*
X152738613Y-131675867D01*
X152599082Y-131694237D01*
X152599078Y-131694238D01*
X152469060Y-131748092D01*
X152357404Y-131833769D01*
X152271727Y-131945425D01*
X152217873Y-132075443D01*
X152217872Y-132075447D01*
X152199502Y-132214978D01*
X148180700Y-132214978D01*
X148180700Y-130937235D01*
X148200385Y-130870196D01*
X148222473Y-130844420D01*
X148224527Y-130842599D01*
X148224529Y-130842599D01*
X148343498Y-130737201D01*
X148433787Y-130606395D01*
X148458093Y-130542306D01*
X152182759Y-130542306D01*
X152189020Y-130589866D01*
X152201129Y-130681837D01*
X152201130Y-130681841D01*
X152254984Y-130811859D01*
X152254985Y-130811861D01*
X152254986Y-130811862D01*
X152340661Y-130923516D01*
X152452315Y-131009191D01*
X152452316Y-131009191D01*
X152452317Y-131009192D01*
X152463539Y-131013840D01*
X152582339Y-131063048D01*
X152705637Y-131079280D01*
X152721870Y-131081418D01*
X152721871Y-131081418D01*
X152721872Y-131081418D01*
X152736412Y-131079503D01*
X152861403Y-131063048D01*
X152991427Y-131009191D01*
X153103081Y-130923516D01*
X153188756Y-130811862D01*
X153242613Y-130681838D01*
X153260983Y-130542306D01*
X153242613Y-130402774D01*
X153188756Y-130272750D01*
X153103081Y-130161096D01*
X153103076Y-130161092D01*
X153101078Y-130159558D01*
X153099818Y-130157832D01*
X153097331Y-130155345D01*
X153097718Y-130154957D01*
X153059879Y-130103127D01*
X153052571Y-130061187D01*
X153052571Y-123833394D01*
X153072256Y-123766355D01*
X153101082Y-123735020D01*
X153171210Y-123681210D01*
X153256885Y-123569556D01*
X153310742Y-123439532D01*
X153329112Y-123300000D01*
X153310742Y-123160468D01*
X153256885Y-123030444D01*
X153171210Y-122918790D01*
X153059556Y-122833115D01*
X153059555Y-122833114D01*
X153059553Y-122833113D01*
X152929535Y-122779259D01*
X152929533Y-122779258D01*
X152929532Y-122779258D01*
X152859766Y-122770073D01*
X152790001Y-122760888D01*
X152789999Y-122760888D01*
X152650468Y-122779258D01*
X152650464Y-122779259D01*
X152520446Y-122833113D01*
X152408790Y-122918790D01*
X152323113Y-123030446D01*
X152269259Y-123160464D01*
X152269258Y-123160468D01*
X152250888Y-123299999D01*
X152250888Y-123300000D01*
X152269258Y-123439531D01*
X152269259Y-123439535D01*
X152323113Y-123569553D01*
X152323114Y-123569555D01*
X152323115Y-123569556D01*
X152365547Y-123624855D01*
X152390741Y-123690022D01*
X152391171Y-123700340D01*
X152391171Y-130061187D01*
X152371486Y-130128226D01*
X152342664Y-130159558D01*
X152340665Y-130161092D01*
X152340663Y-130161094D01*
X152340661Y-130161096D01*
X152307947Y-130203730D01*
X152254984Y-130272752D01*
X152201130Y-130402770D01*
X152201129Y-130402774D01*
X152182759Y-130542306D01*
X148458093Y-130542306D01*
X148490149Y-130457782D01*
X148509307Y-130300000D01*
X148490149Y-130142218D01*
X148433787Y-129993605D01*
X148343498Y-129862799D01*
X148343495Y-129862796D01*
X148343493Y-129862794D01*
X148224530Y-129757401D01*
X148083791Y-129683536D01*
X147929472Y-129645500D01*
X147929471Y-129645500D01*
X147770529Y-129645500D01*
X147770528Y-129645500D01*
X147616208Y-129683536D01*
X147475469Y-129757401D01*
X147356727Y-129862599D01*
X147293494Y-129892321D01*
X147224231Y-129883137D01*
X147170927Y-129837965D01*
X147150507Y-129771146D01*
X147150500Y-129769784D01*
X147150500Y-105974500D01*
X147170185Y-105907461D01*
X147222989Y-105861706D01*
X147274500Y-105850500D01*
X152216000Y-105850500D01*
X152283039Y-105870185D01*
G37*
%TD.AperFunction*%
%TD*%
%TA.AperFunction,Conductor*%
%TO.N,SDA1*%
G36*
X159563039Y-105870185D02*
G01*
X159608794Y-105922989D01*
X159620000Y-105974500D01*
X159620000Y-107006000D01*
X159600315Y-107073039D01*
X159547511Y-107118794D01*
X159496000Y-107130000D01*
X158044000Y-107130000D01*
X157976961Y-107110315D01*
X157931206Y-107057511D01*
X157920000Y-107006000D01*
X157920000Y-105974500D01*
X157939685Y-105907461D01*
X157992489Y-105861706D01*
X158044000Y-105850500D01*
X159496000Y-105850500D01*
X159563039Y-105870185D01*
G37*
%TD.AperFunction*%
%TD*%
%TA.AperFunction,Conductor*%
%TO.N,SCL1*%
G36*
X162103039Y-105870185D02*
G01*
X162148794Y-105922989D01*
X162160000Y-105974500D01*
X162160000Y-107006000D01*
X162140315Y-107073039D01*
X162087511Y-107118794D01*
X162036000Y-107130000D01*
X160584000Y-107130000D01*
X160516961Y-107110315D01*
X160471206Y-107057511D01*
X160460000Y-107006000D01*
X160460000Y-105974500D01*
X160479685Y-105907461D01*
X160532489Y-105861706D01*
X160584000Y-105850500D01*
X162036000Y-105850500D01*
X162103039Y-105870185D01*
G37*
%TD.AperFunction*%
%TD*%
%TA.AperFunction,Conductor*%
%TO.N,GND*%
G36*
X154540000Y-107130000D02*
G01*
X152840000Y-107130000D01*
X152840000Y-105850500D01*
X154540000Y-105850500D01*
X154540000Y-107130000D01*
G37*
%TD.AperFunction*%
%TD*%
M02*
