M48
; DRILL file {KiCad 8.0.2-1} date 2024-09-19T23:42:55+0100
; FORMAT={-:-/ absolute / inch / decimal}
; #@! TF.CreationDate,2024-09-19T23:42:55+01:00
; #@! TF.GenerationSoftware,Kicad,Pcbnew,8.0.2-1
; #@! TF.FileFunction,Plated,1,2,PTH
FMAT,2
INCH
; #@! TA.AperFunction,Plated,PTH,ViaDrill
T1C0.0118
; #@! TA.AperFunction,Plated,PTH,ViaDrill
T2C0.0157
; #@! TA.AperFunction,Plated,PTH,ComponentDrill
T3C0.0394
%
G90
G05
T1
X5.874Y-5.4335
X5.8858Y-4.578
X5.9134Y-4.5998
X5.9213Y-5.4321
X5.9563Y-4.8591
X5.9626Y-4.7051
X5.9646Y-5.4311
X5.9874Y-5.0075
X6.0108Y-5.4321
X6.0127Y-5.1395
X6.0133Y-5.2053
X6.0154Y-4.8543
X6.0551Y-5.4006
X6.0728Y-5.2087
X6.0904Y-5.405
X6.1353Y-5.3976
X6.1457Y-4.7016
X6.1498Y-5.3074
X6.1535Y-5.2065
X6.1697Y-5.4014
X6.1981Y-5.0925
X6.2021Y-5.1367
X6.2059Y-5.4067
X6.2362Y-4.7909
X6.2622Y-4.5622
X6.2766Y-5.3986
X6.2871Y-4.2541
X6.3061Y-5.3868
X6.3209Y-5.1959
X6.3358Y-5.0961
X6.3396Y-5.1604
X6.3996Y-5.4636
X6.4048Y-5.2224
X6.4267Y-5.1988
X6.4449Y-5.4134
X6.4449Y-5.4465
X6.4486Y-5.1732
X6.4528Y-4.7106
X6.4718Y-4.8032
X6.4718Y-5.1516
X6.482Y-5.3748
X6.4937Y-5.128
X6.5098Y-5.3937
X6.5177Y-5.1063
X6.5433Y-5.0866
X6.5669Y-5.063
X6.5819Y-5.3827
X6.5888Y-5.0394
X6.5921Y-4.2921
T2
X5.8209Y-5.1299
X5.8278Y-5.3327
X5.9862Y-4.4587
X5.9921Y-4.5472
X6.1457Y-4.4075
T3
X6.0508Y-4.1598
X6.1508Y-4.1598
X6.2508Y-4.1598
X6.3508Y-4.1598
X6.4508Y-4.1598
M30
